<?xml version="1.0" standalone="no"?>
<!DOCTYPE svg PUBLIC "-//W3C//DTD SVG 1.1//EN" "http://www.w3.org/Graphics/SVG/1.1/DTD/svg11.dtd" >
<svg xmlns="http://www.w3.org/2000/svg" xmlns:xlink="http://www.w3.org/1999/xlink" version="1.1">
<metadata>
Created by FontForge 20170731 at Sat Mar 14 00:16:18 2015
 By ,,,
Copyright (c) 2011 by Ryoichi Tsunekawa. All rights reserved.
</metadata>
<defs>
<font id="DesignSystemE-300I" horiz-adv-x="1843" >
  <font-face 
    font-family="DesignSystemE-300I"
    font-weight="400"
    font-style="italic"
    font-stretch="normal"
    units-per-em="1000"
    panose-1="4 5 4 7 2 11 2 2 3 2"
    ascent="822"
    descent="-178"
    x-height="603"
    cap-height="700"
    bbox="-135 -212 3484.97 934"
    underline-thickness="36"
    underline-position="-156"
    slope="-8"
    unicode-range="U+0020-FB02"
  />
<missing-glyph horiz-adv-x="959" 
d="M8 700h959v-700h-959v700zM55 656v-604l808 604h-808zM112 44h808v603z" />
    <glyph glyph-name="ij" unicode="ij" horiz-adv-x="509" 
d="M152 -110h54q53 0 75 19t29 73l87 621h65l-88 -628q-11 -77 -48 -109.5t-113 -32.5h-69zM386 683l8 54h109l-8 -54h-109zM51 0l84 603h64l-84 -603h-64zM240 737l-7 -54h-109l8 54h108z" />
    <glyph glyph-name="fi" unicode="fi" horiz-adv-x="1923" 
d="M297 546q-63 0 -95 -27.5t-42 -92.5l-13 -96h1327l-8 -57h-1327l-62 -440h-65l84 597q13 89 60.5 131t136.5 42h1285l-8 -57h-1273zM1769 57h93l-8 -57h-108q-76 0 -104.5 33.5t-17.5 108.5l65 461h64l-63 -454q-7 -52 9.5 -72t69.5 -20zM1795 737l-8 -54h-109l8 54h109z
" />
    <glyph glyph-name="fl" unicode="fl" horiz-adv-x="1921" 
d="M297 546q-63 0 -95 -27.5t-42 -92.5l-13 -96h1327l-8 -57h-1327l-62 -440h-65l84 597q13 89 60.5 131t136.5 42h1285l-8 -57h-1273zM1767 57h92l-8 -57h-107q-76 0 -104.5 33.5t-17.5 108.5l88 628h65l-88 -621q-7 -52 10 -72t70 -20z" />
    <glyph glyph-name=".notdef" horiz-adv-x="959" 
d="M8 700h959v-700h-959v700zM55 656v-604l808 604h-808zM112 44h808v603z" />
    <glyph glyph-name=".null" horiz-adv-x="0" 
 />
    <glyph glyph-name="nonmarkingreturn" horiz-adv-x="333" 
 />
    <glyph glyph-name="space" unicode=" " horiz-adv-x="490" 
 />
    <glyph glyph-name="exclam" unicode="!" horiz-adv-x="305" 
d="M171 65l-9 -65h-103l9 65h103zM241 700l-32 -233q-17 -115 -53 -293h-43q10 154 30 293l32 233h66z" />
    <glyph glyph-name="quotedbl" unicode="&#x22;" horiz-adv-x="406" 
d="M173 700v-47q0 -79 -15 -261h-36q-15 182 -15 261v47h66zM365 700v-47q0 -79 -15 -261h-36q-15 182 -15 261v47h66z" />
    <glyph glyph-name="numbersign" unicode="#" 
d="M1597 0l7 144h-1381l-7 -144h-63l8 144h-117l3 57h117l15 298h-116l3 57h116l8 144h63l-8 -144h1381l8 144h62l-7 -144h116l-3 -57h-117l-15 -298h116l-3 -57h-116l-8 -144h-62zM242 499l-16 -298h1381l16 298h-1381z" />
    <glyph glyph-name="dollar" unicode="$" 
d="M28 107h1585q44 0 65 19t28 63l7 51q6 45 -10 63.5t-60 18.5h-1453q-68 0 -95.5 32.5t-17.5 102.5l8 59q10 70 47 103t105 33h703l13 88h59l-13 -88h810l-8 -58h-1558q-44 0 -65.5 -18.5t-27.5 -62.5l-7 -52q-7 -44 9 -63t60 -19h1453q68 0 95.5 -32.5t17.5 -102.5
l-8 -59q-10 -70 -46.5 -102.5t-104.5 -32.5h-704l-13 -90h-59l13 90h-836z" />
    <glyph glyph-name="percent" unicode="%" horiz-adv-x="2471" 
d="M934 0l569 700h64l-569 -700h-64zM1436 117l43 300q16 117 133 117h716q60 0 84.5 -28.5t16.5 -88.5l-43 -300q-16 -117 -133 -117h-716q-60 0 -84.5 28.5t-16.5 88.5zM2326 121l41 292q6 36 -7.5 51.5t-48.5 15.5h-697q-34 0 -52.5 -15.5t-23.5 -51.5l-41 -292
q-5 -36 9 -51.5t48 -15.5h697q35 0 53 15.5t22 51.5zM71 283l43 300q16 117 133 117h716q60 0 84.5 -28.5t16.5 -88.5l-43 -300q-16 -117 -133 -117h-716q-60 0 -84.5 28.5t-16.5 88.5zM961 287l41 292q6 36 -7.5 51.5t-48.5 15.5h-697q-34 0 -52.5 -15.5t-23.5 -51.5
l-41 -292q-5 -36 9 -51.5t48 -15.5h697q35 0 53 15.5t22 51.5z" />
    <glyph glyph-name="ampersand" unicode="&#x26;" horiz-adv-x="1940" 
d="M1758 321h-1512q-56 0 -80.5 -23t-32.5 -80l-8 -59q-8 -54 11.5 -77.5t70.5 -23.5h1421q55 0 77 19.5t30 75.5zM57 148l9 63q9 66 39.5 99t93.5 40q-61 7 -82 39.5t-12 99.5l9 63q11 76 51.5 112t117.5 36h1545l-9 -58h-1530q-51 0 -77 -23.5t-33 -77.5l-9 -59
q-8 -57 10.5 -80t73.5 -23h1679l-8 -58h-101l-25 -180q-11 -75 -48 -108t-113 -33h-1453q-77 0 -108 36t-20 112z" />
    <glyph glyph-name="quotesingle" unicode="'" horiz-adv-x="214" 
d="M173 700v-47q0 -79 -15 -261h-36q-15 182 -15 261v47h66z" />
    <glyph glyph-name="parenleft" unicode="(" horiz-adv-x="342" 
d="M126 80q-8 -57 11.5 -80.5t75.5 -23.5h41l-7 -56h-56q-77 0 -108.5 37t-20.5 112l68 482q21 149 171 149h56l-8 -56h-41q-56 0 -82.5 -23t-34.5 -81z" />
    <glyph glyph-name="parenright" unicode=")" horiz-adv-x="342" 
d="M164 80l64 460q8 58 -11.5 81t-75.5 23h-41l8 56h56q77 0 108.5 -37t20.5 -112l-68 -482q-21 -149 -171 -149h-56l8 56h41q56 0 82.5 23t34.5 81z" />
    <glyph glyph-name="asterisk" unicode="*" horiz-adv-x="549" 
d="M304 455q85 49 160 72l77 23l13 -53l-78 -23q-92 -28 -169 -34q67 -71 97 -123l37 -64l-47 -32l-38 63q-41 70 -62 146q-56 -93 -102 -146l-55 -63l-42 32l54 64q41 48 132 123q-76 6 -160 34l-71 23l22 53l71 -24q87 -29 145 -71q-6 88 4 167l11 78h55l-11 -78
q-10 -79 -43 -167z" />
    <glyph glyph-name="plus" unicode="+" 
d="M77 321v57h819v245h57v-245h820v-57h-820v-245h-57v245h-819z" />
    <glyph glyph-name="comma" unicode="," horiz-adv-x="299" 
d="M168 68l-10 -65q-14 -99 -98 -99h-17l4 32h17q19 0 29 11t14 38l3 18h-53l9 65h102z" />
    <glyph glyph-name="hyphen" unicode="-" horiz-adv-x="729" 
d="M688 356l-8 -58h-632l8 58h632z" />
    <glyph glyph-name="period" unicode="." horiz-adv-x="299" 
d="M168 68l-10 -68h-101l9 68h102z" />
    <glyph glyph-name="slash" unicode="/" horiz-adv-x="657" 
d="M35 0l516 700h73l-516 -700h-73z" />
    <glyph glyph-name="zero" unicode="0" 
d="M206 0q-153 0 -131 152l55 396q22 152 174 152h1391q78 0 110 -37.5t21 -114.5l-55 -396q-22 -152 -174 -152h-1391zM1706 164l52 372q8 58 -11.5 81.5t-75.5 23.5h-1360q-56 0 -82 -23.5t-34 -81.5l-53 -372q-8 -58 12 -81.5t76 -23.5h1360q56 0 82 23.5t34 81.5z" />
    <glyph glyph-name="one" unicode="1" 
d="M1316 700l-90 -641h512l-8 -59h-1628l8 59h1052l81 583h-1051l8 58h1116z" />
    <glyph glyph-name="two" unicode="2" 
d="M1742 541q7 54 -12 77t-71 23h-1528l8 59h1542q78 0 108.5 -36t19.5 -113l-11 -81q-11 -77 -52 -113t-118 -36h-1370q-74 0 -108 -29t-44 -105l-18 -128h1664l-8 -59h-1730l27 196q25 183 209 183h1372q51 0 77.5 23.5t33.5 77.5z" />
    <glyph glyph-name="three" unicode="3" 
d="M1613 321h-1450l8 58h1451q55 0 80 23t33 80l8 59q7 54 -12 77t-70 23h-1559l8 59h1573q77 0 107.5 -36t19.5 -112l-8 -63q-9 -67 -39.5 -99.5t-93.5 -39.5q61 -7 82 -40t12 -99l-9 -63q-11 -76 -51.5 -112t-117.5 -36h-1573l8 59h1559q51 0 77 23t34 77l7 59
q8 57 -10 80t-74 23z" />
    <glyph glyph-name="four" unicode="4" 
d="M1720 379l46 321h66l-98 -700h-66l44 321h-1482q-152 0 -131 152l33 227h66l-31 -216q-8 -58 11.5 -81.5t75.5 -23.5h1466z" />
    <glyph glyph-name="five" unicode="5" 
d="M81 321l53 379h1680l-9 -59h-1613l-37 -262h1491q78 0 109 -36t20 -113l-12 -81q-10 -77 -51 -113t-118 -36h-1568l8 59h1555q51 0 77 23t33 77l8 61q7 54 -12 77.5t-70 23.5h-1544z" />
    <glyph glyph-name="six" unicode="6" 
d="M174 484l-14 -105h1497q78 0 109 -36t20 -113l-12 -81q-10 -77 -51 -113t-118 -36h-1414q-78 0 -109.5 36.5t-20.5 113.5l48 339q14 104 75.5 157.5t165.5 53.5h1475l-9 -59h-1463q-78 0 -122.5 -38t-56.5 -119zM1636 321h-1485l-22 -159q-7 -56 12.5 -79.5t72.5 -23.5
h1386q51 0 77 23t33 77l8 61q7 54 -12 77.5t-70 23.5z" />
    <glyph glyph-name="seven" unicode="7" 
d="M1612 379q67 0 98 26.5t40 94.5l20 141h-1694l9 59h1760l-30 -211q-24 -168 -192 -168h-774q-67 0 -97.5 -26.5t-40.5 -94.5l-28 -200h-66l29 211q24 168 192 168h774z" />
    <glyph glyph-name="eight" unicode="8" 
d="M1824 552l-8 -63q-9 -67 -39.5 -99.5t-93.5 -39.5q61 -7 82 -40t12 -99l-9 -63q-11 -76 -51.5 -112t-117.5 -36h-1417q-77 0 -108 36t-20 112l9 63q9 66 39.5 99t93.5 40q-61 7 -82 39.5t-12 99.5l9 63q11 76 51.5 112t117.5 36h1417q77 0 107.5 -36t19.5 -112zM251 379
h1385q55 0 80 23t33 80l8 59q7 54 -12 77t-70 23h-1389q-51 0 -77 -23t-33 -77l-9 -59q-8 -57 10.5 -80t73.5 -23zM1627 321h-1384q-56 0 -80.5 -23t-32.5 -80l-8 -59q-7 -54 12 -77t70 -23h1389q51 0 77 23t34 77l7 59q8 57 -10 80t-74 23z" />
    <glyph glyph-name="nine" unicode="9" 
d="M1677 700q78 0 109 -36.5t20 -113.5l-48 -339q-14 -104 -75 -157.5t-164 -53.5h-1475l8 59h1463q157 0 178 157l15 105h-1498q-77 0 -108 36t-20 113l11 81q11 77 52 113t118 36h1414zM158 541l-9 -61q-7 -54 12 -77.5t70 -23.5h1485l23 159q7 56 -12.5 79.5t-72.5 23.5
h-1385q-52 0 -78 -23t-33 -77z" />
    <glyph glyph-name="colon" unicode=":" horiz-adv-x="299" 
d="M233 538l-10 -68h-101l9 68h102zM168 68l-10 -68h-101l9 68h102z" />
    <glyph glyph-name="semicolon" unicode=";" horiz-adv-x="299" 
d="M168 68l-10 -65q-14 -99 -98 -99h-17l4 32h17q19 0 29 11t14 38l3 18h-53l9 65h102zM233 538l-10 -68h-101l9 68h102z" />
    <glyph glyph-name="less" unicode="&#x3c;" 
d="M77 350l304 273h79l-273 -245h1586v-57h-1586l273 -245h-79z" />
    <glyph glyph-name="equal" unicode="=" 
d="M105 194v57h1639v-57h-1639zM105 448v57h1639v-57h-1639z" />
    <glyph glyph-name="greater" unicode="&#x3e;" 
d="M1469 623l304 -273l-304 -274h-79l273 245h-1586v57h1586l-273 245h79z" />
    <glyph glyph-name="question" unicode="?" horiz-adv-x="1784" 
d="M1702 480l9 61q7 54 -12 77t-70 23h-1554l9 59h1567q77 0 107.5 -36t19.5 -113l-11 -81q-11 -77 -52 -113t-118 -36h-697q-43 0 -63.5 -18t-26.5 -63l-10 -68h-66l11 80q18 127 145 127h702q51 0 77 23.5t33 77.5zM804 65l-9 -65h-103l9 65h103z" />
    <glyph glyph-name="at" unicode="@" horiz-adv-x="1913" 
d="M204 0q-83 0 -116.5 39.5t-22.5 120.5l53 380q12 81 56.5 120.5t127.5 39.5h1443q83 0 116.5 -39.5t22.5 -120.5l-53 -380q-12 -81 -56.5 -120.5t-127.5 -39.5h-1443zM212 42h1439q115 0 132 117l54 382q8 59 -16 88t-84 29h-1439q-117 0 -132 -117l-54 -382
q-17 -117 100 -117zM1579 189h-1260q-40 0 -56 19t-10 60l3 22q12 80 89 80h1299l8 56q6 43 -37 43h-1319l5 41h1317q49 0 68 -22.5t12 -70.5l-20 -141q-7 -45 -30.5 -66t-68.5 -21zM345 329q-21 0 -30 -8t-12 -28l-4 -28q-2 -20 4.5 -27.5t27.5 -7.5h1256q37 0 43 38l9 61
h-1294z" />
    <glyph glyph-name="A" unicode="A" horiz-adv-x="1878" 
d="M1752 0h-66l45 321h-1579l-44 -321h-66l77 548q21 152 173 152h1406q152 0 131 -152zM1674 641h-1374q-56 0 -83 -23.5t-34 -81.5l-22 -157h1578l22 157q8 58 -11.5 81.5t-75.5 23.5z" />
    <glyph glyph-name="B" unicode="B" horiz-adv-x="1872" 
d="M1791 211l-9 -63q-10 -76 -50.5 -112t-117.5 -36h-1562l98 700h1562q77 0 107.5 -36t19.5 -112l-8 -63q-10 -67 -40.5 -99.5t-93.5 -39.5q62 -7 82.5 -40t11.5 -99zM1650 379q55 0 80 23t33 80l9 59q7 54 -12.5 77t-70.5 23h-1481l-38 -262h1480zM162 321l-36 -262h1482
q51 0 77 23t33 77l8 59q8 57 -10.5 80t-73.5 23h-1480z" />
    <glyph glyph-name="C" unicode="C" horiz-adv-x="1774" 
d="M195 0q-78 0 -110 37.5t-21 114.5l55 396q22 152 174 152h1494l-9 -59h-1478q-56 0 -82 -23.5t-34 -81.5l-53 -372q-8 -58 12 -81.5t76 -23.5h1478l-8 -59h-1494z" />
    <glyph glyph-name="D" unicode="D" horiz-adv-x="1872" 
d="M1649 700q104 0 150 -53.5t31 -157.5l-39 -278q-29 -211 -240 -211h-1499l98 700h1499zM1548 59q157 0 178 157l37 268q12 81 -21.5 119t-111.5 38h-1422l-82 -582h1422z" />
    <glyph glyph-name="E" unicode="E" horiz-adv-x="1835" 
d="M52 0l98 700h1687l-8 -59h-1621l-38 -262h1516l-8 -58h-1516l-36 -262h1621l-8 -59h-1687z" />
    <glyph glyph-name="F" unicode="F" horiz-adv-x="1799" 
d="M52 0l98 700h1679l-8 -59h-1613l-38 -262h1507l-8 -58h-1507l-44 -321h-66z" />
    <glyph glyph-name="G" unicode="G" horiz-adv-x="1857" 
d="M1608 59q55 0 76.5 19t29.5 75l23 168h-919l8 58h985l-33 -238q-11 -75 -47.5 -108t-112.5 -33h-1423q-78 0 -110 37.5t-21 114.5l55 396q22 152 174 152h1539l-8 -59h-1524q-56 0 -82 -23.5t-34 -81.5l-53 -372q-8 -58 12 -81.5t76 -23.5h1389z" />
    <glyph glyph-name="H" unicode="H" horiz-adv-x="1912" 
d="M1710 0l45 321h-1593l-44 -321h-66l98 700h66l-46 -321h1593l45 321h66l-98 -700h-66z" />
    <glyph glyph-name="I" unicode="I" horiz-adv-x="253" 
d="M52 0l98 700h66l-98 -700h-66z" />
    <glyph glyph-name="J" unicode="J" horiz-adv-x="1845" 
d="M43 141l29 201h66l-27 -189q-7 -56 8.5 -75t70.5 -19h1380q56 0 82 23.5t34 81.5l76 536h66l-77 -548q-22 -152 -174 -152h-1412q-76 0 -104.5 33t-17.5 108z" />
    <glyph glyph-name="K" unicode="K" horiz-adv-x="1880" 
d="M1860 700l-29 -204q-9 -69 -41 -104t-97 -42q64 -7 85.5 -42t11.5 -104l-28 -204h-66l29 213q8 58 -11 83t-74 25h-1478l-44 -321h-66l97 700h66l-45 -321h1478q56 0 82 25t34 83l30 213h66z" />
    <glyph glyph-name="L" unicode="L" horiz-adv-x="1789" 
d="M1729 59l-8 -59h-1669l98 700h66l-90 -641h1603z" />
    <glyph glyph-name="M" unicode="M" horiz-adv-x="2303" 
d="M1360 700h763q152 0 131 -152l-77 -548h-66l75 536q8 58 -11.5 81.5t-75.5 23.5h-760q-59 0 -86.5 -24.5t-35.5 -85.5l-74 -531h-67l75 531q8 61 -12 85.5t-79 24.5h-760q-56 0 -82.5 -23.5t-34.5 -81.5l-75 -536h-66l77 548q21 152 173 152h763q73 0 105 -28t30 -91
q17 63 57 91t113 28z" />
    <glyph glyph-name="N" unicode="N" horiz-adv-x="1878" 
d="M300 641q-56 0 -82.5 -23.5t-34.5 -81.5l-75 -536h-66l77 548q21 152 173 152h1406q152 0 131 -152l-77 -548h-66l75 536q8 58 -11.5 81.5t-75.5 23.5h-1374z" />
    <glyph glyph-name="O" unicode="O" horiz-adv-x="1863" 
d="M206 0q-153 0 -131 152l55 396q22 152 174 152h1411q78 0 110 -37.5t21 -114.5l-55 -396q-22 -152 -174 -152h-1411zM1726 164l52 372q8 58 -11.5 81.5t-75.5 23.5h-1380q-54 0 -81 -24t-35 -81l-53 -372q-7 -58 12.5 -81.5t75.5 -23.5h1380q56 0 82 23.5t34 81.5z" />
    <glyph glyph-name="P" unicode="P" horiz-adv-x="1839" 
d="M52 0l98 700h1556q77 0 108 -36t20 -113l-12 -81q-11 -77 -51.5 -113t-118.5 -36h-1490l-44 -321h-66zM1766 541q7 54 -12 77t-70 23h-1476l-38 -262h1477q51 0 77 23.5t33 77.5z" />
    <glyph glyph-name="Q" unicode="Q" horiz-adv-x="1863" 
d="M206 0q-153 0 -131 152l55 396q22 152 174 152h1411q78 0 110 -37.5t21 -114.5l-55 -396q-22 -152 -174 -152h-676l-19 -135h-60l19 135h-675zM1726 164l52 372q8 58 -11.5 81.5t-75.5 23.5h-1380q-54 0 -81 -24t-35 -81l-53 -372q-7 -58 12.5 -81.5t75.5 -23.5h660
l29 204h59l-29 -204h661q56 0 82 23.5t34 81.5z" />
    <glyph glyph-name="R" unicode="R" horiz-adv-x="1879" 
d="M1839 552l-8 -63q-10 -67 -40.5 -100t-95.5 -40q62 -7 83 -42t12 -103l-28 -204h-66l29 213q8 58 -11 83t-74 25h-1478l-44 -321h-66l98 700h1562q77 0 107.5 -36t19.5 -112zM1650 379q55 0 80 23t33 80l9 59q7 54 -12.5 77t-70.5 23h-1481l-38 -262h1480z" />
    <glyph glyph-name="S" unicode="S" horiz-adv-x="1811" 
d="M221 321q-78 0 -108.5 36t-19.5 113l11 81q11 77 52 113t118 36h1508l-8 -59h-1495q-51 0 -77 -23t-33 -77l-9 -61q-7 -54 12 -77.5t70 -23.5h1372q78 0 109 -36t20 -113l-12 -81q-10 -77 -51 -113t-118 -36h-1547l8 59h1534q51 0 77 23t33 77l8 61q8 54 -11.5 77.5
t-70.5 23.5h-1372z" />
    <glyph glyph-name="T" unicode="T" horiz-adv-x="1768" 
d="M1798 700l-9 -59h-824l-90 -641h-66l90 641h-825l8 59h1716z" />
    <glyph glyph-name="U" unicode="U" horiz-adv-x="1878" 
d="M216 0q-153 0 -131 152l77 548h66l-75 -536q-8 -58 11.5 -81.5t75.5 -23.5h1375q56 0 82 23.5t34 81.5l75 536h66l-77 -548q-21 -152 -173 -152h-1406z" />
    <glyph glyph-name="V" unicode="V" horiz-adv-x="1871" 
d="M52 0l98 700h66l-90 -641h1410q156 0 177 157l68 484h66l-69 -489q-14 -104 -75.5 -157.5t-164.5 -53.5h-1486z" />
    <glyph glyph-name="W" unicode="W" horiz-adv-x="2303" 
d="M2047 0h-763q-73 0 -105 28t-32 91q-17 -63 -56 -91t-112 -28h-763q-153 0 -131 152l77 548h66l-75 -536q-8 -58 11.5 -81.5t75.5 -23.5h760q59 0 86 24.5t35 85.5l75 531h67l-76 -531q-8 -61 13 -85.5t79 -24.5h760q56 0 82.5 23.5t33.5 81.5l76 536h66l-77 -548
q-21 -152 -173 -152z" />
    <glyph glyph-name="X" unicode="X" horiz-adv-x="1868" 
d="M103 496l29 204h66l-30 -213q-8 -58 11 -83t74 -25h1383q56 0 82 25t34 83l30 213h66l-29 -204q-9 -69 -41 -104t-97 -42q64 -7 85.5 -42t11.5 -104l-28 -204h-66l29 213q8 58 -11 83t-74 25h-1383q-55 0 -81 -25t-34 -83l-30 -213h-66l28 204q10 69 41.5 104t97.5 42
q-64 7 -85.5 42t-12.5 104z" />
    <glyph glyph-name="Y" unicode="Y" horiz-adv-x="1835" 
d="M1792 700h66l-33 -227q-21 -152 -173 -152h-678l-44 -321h-66l44 321h-678q-152 0 -131 152l33 227h66l-31 -216q-8 -57 11.5 -81t75.5 -24h1390q56 0 82.5 23.5t34.5 81.5z" />
    <glyph glyph-name="Z" unicode="Z" horiz-adv-x="1821" 
d="M1572 379q74 0 108.5 29.5t44.5 104.5l18 128h-1612l8 59h1679l-28 -196q-26 -183 -210 -183h-1322q-74 0 -108 -29t-44 -105l-18 -128h1640l-8 -59h-1706l27 196q25 183 209 183h1322z" />
    <glyph glyph-name="bracketleft" unicode="[" horiz-adv-x="375" 
d="M150 700h229l-8 -54h-168l-95 -672h168l-7 -54h-229z" />
    <glyph glyph-name="backslash" unicode="\" horiz-adv-x="657" 
d="M108 700l516 -700h-73l-516 700h73z" />
    <glyph glyph-name="bracketright" unicode="]" horiz-adv-x="375" 
d="M108 700h229l-110 -780h-229l8 54h168l95 672h-168z" />
    <glyph glyph-name="asciicircum" unicode="^" 
d="M925 715l847 -350v-62l-847 350l-848 -350v62z" />
    <glyph glyph-name="underscore" unicode="_" horiz-adv-x="959" 
d="M917 -57v-49h-959v49h959z" />
    <glyph glyph-name="grave" unicode="`" horiz-adv-x="471" 
d="M342 660l-202 107h104l172 -107h-74z" />
    <glyph glyph-name="a" unicode="a" horiz-adv-x="1654" 
d="M1534 330l17 115q7 55 -12 78t-74 23h-1338l8 57h1353q77 0 108.5 -36.5t20.5 -113.5l-43 -303q-11 -77 -52 -113.5t-118 -36.5h-1251q-69 0 -96.5 32.5t-17.5 102.5l8 59q10 70 46.5 103t104.5 33h1336zM1526 273h-1321q-44 0 -65.5 -19t-27.5 -63l-8 -52
q-6 -44 10.5 -63t60.5 -19h1221q55 0 81 22.5t34 78.5z" />
    <glyph glyph-name="b" unicode="b" horiz-adv-x="1661" 
d="M68 150l87 620h65l-34 -238q33 71 134 71h1176q77 0 108.5 -36.5t20.5 -113.5l-43 -303q-11 -77 -52 -113.5t-118 -36.5h-1215q-77 0 -108.5 36.5t-20.5 113.5zM174 445l-40 -287q-8 -55 11.5 -78t74.5 -23h1184q55 0 81 22.5t34 78.5l40 287q7 55 -12 78t-74 23h-1185
q-55 0 -80.5 -22.5t-33.5 -78.5z" />
    <glyph glyph-name="c" unicode="c" horiz-adv-x="1589" 
d="M187 0q-77 0 -108.5 36.5t-20.5 113.5l43 303q11 77 52 113.5t118 36.5h1316l-8 -57h-1300q-55 0 -81 -22.5t-34 -78.5l-40 -287q-8 -55 11.5 -78t74.5 -23h1301l-8 -57h-1316z" />
    <glyph glyph-name="d" unicode="d" horiz-adv-x="1661" 
d="M1660 770l-88 -620q-11 -77 -52 -113.5t-118 -36.5h-1215q-77 0 -108.5 36.5t-20.5 113.5l43 303q11 77 52 113.5t118 36.5h1176q101 0 114 -71l34 238h65zM1509 158l40 287q7 55 -12 78t-74 23h-1184q-55 0 -81 -22.5t-34 -78.5l-40 -287q-8 -55 11.5 -78t74.5 -23h1185
q55 0 80.5 22.5t33.5 78.5z" />
    <glyph glyph-name="e" unicode="e" horiz-adv-x="1654" 
d="M1628 408q-10 -70 -46.5 -102.5t-104.5 -32.5h-1336l-16 -115q-8 -55 12.5 -78t73.5 -23h1338l-8 -57h-1353q-83 0 -110.5 41t-15.5 127l40 285q11 76 52 113t118 37h1251q69 0 96.5 -32.5t16.5 -102.5zM1501 546h-1221q-61 0 -84.5 -27t-33.5 -98l-13 -91h1322
q43 0 64.5 18t28.5 63l6 48q7 48 -8 67.5t-61 19.5z" />
    <glyph glyph-name="f" unicode="f" horiz-adv-x="1566" 
d="M297 546q-63 0 -95 -27.5t-42 -92.5l-13 -96h1327l-8 -57h-1327l-62 -440h-65l84 597q13 89 60.5 131t136.5 42h1285l-8 -57h-1273z" />
    <glyph glyph-name="g" unicode="g" horiz-adv-x="1661" 
d="M1391 81q55 0 80.5 22.5t33.5 77.5l37 264q7 55 -12 78t-74 23h-1184q-55 0 -81 -22.5t-34 -78.5l-36 -264q-8 -55 11.5 -77.5t74.5 -22.5h1184zM1359 24h-1176q-77 0 -108.5 36t-20.5 113l40 280q11 77 52 113.5t118 36.5h1215q77 0 108.5 -36.5t20.5 -113.5l-61 -432
q-14 -97 -65.5 -142.5t-148.5 -45.5h-1286l8 57h1278q68 0 103.5 30.5t45.5 100.5l11 73q-17 -36 -49 -53t-85 -17z" />
    <glyph glyph-name="h" unicode="h" horiz-adv-x="1676" 
d="M1553 445q7 55 -12 78t-74 23h-1180q-55 0 -81 -23t-33 -78l-62 -445h-65l108 770h65l-34 -238q33 71 134 71h1172q77 0 108 -36.5t20 -113.5l-63 -453h-65z" />
    <glyph glyph-name="i" unicode="i" horiz-adv-x="357" 
d="M214 57h93l-8 -57h-108q-76 0 -104.5 33.5t-17.5 108.5l65 461h64l-63 -454q-7 -52 9.5 -72t69.5 -20zM240 737l-8 -54h-109l8 54h109z" />
    <glyph glyph-name="j" unicode="j" horiz-adv-x="259" 
d="M-98 -110h54q53 0 75 19t29 73l87 621h65l-88 -628q-11 -77 -48 -109.5t-113 -32.5h-69zM136 683l8 54h109l-8 -54h-109z" />
    <glyph glyph-name="k" unicode="k" horiz-adv-x="1663" 
d="M1545 399l29 204h65l-25 -178q-8 -57 -33 -87.5t-76 -36.5q50 -7 66.5 -37t7.5 -87l-24 -177h-65l28 203q5 37 -9.5 53.5t-51.5 16.5h-1308l-38 -273h-65l108 770h65l-63 -440h1309q71 0 80 69z" />
    <glyph glyph-name="l" unicode="l" horiz-adv-x="355" 
d="M212 57h92l-8 -57h-107q-76 0 -104.5 33.5t-17.5 108.5l88 628h65l-88 -621q-7 -52 10 -72t70 -20z" />
    <glyph glyph-name="m" unicode="m" horiz-adv-x="2055" 
d="M1055 498q16 57 52.5 81t105.5 24h657q77 0 108 -36.5t20 -113.5l-63 -453h-65l62 445q8 55 -11 78t-75 23h-660q-49 0 -73.5 -22t-31.5 -71l-63 -453h-65l63 453q7 49 -11 71t-67 22h-661q-55 0 -80.5 -22.5t-33.5 -78.5l-62 -445h-65l64 453q10 77 51 113.5t118 36.5
h658q69 0 99 -24t29 -81z" />
    <glyph glyph-name="n" unicode="n" horiz-adv-x="1665" 
d="M36 0l64 453q10 77 51 113.5t118 36.5h1211q77 0 108 -36.5t20 -113.5l-63 -453h-65l62 445q8 55 -11.5 78t-74.5 23h-1179q-55 0 -80.5 -22.5t-33.5 -78.5l-62 -445h-65z" />
    <glyph glyph-name="o" unicode="o" horiz-adv-x="1650" 
d="M1485 603q77 0 108.5 -36.5t20.5 -113.5l-43 -303q-11 -77 -52 -113.5t-118 -36.5h-1214q-77 0 -108.5 36.5t-20.5 113.5l43 303q11 77 52 113.5t118 36.5h1214zM1394 57q55 0 80.5 22.5t33.5 78.5l40 287q7 55 -12 78t-74 23h-1183q-55 0 -81 -22.5t-34 -78.5l-40 -287
q-8 -55 11.5 -78t74.5 -23h1184z" />
    <glyph glyph-name="p" unicode="p" horiz-adv-x="1661" 
d="M12 -167l88 620q11 77 52 113.5t118 36.5h1215q77 0 108.5 -36.5t20.5 -113.5l-43 -303q-11 -77 -52 -113.5t-118 -36.5h-1176q-102 0 -115 71l-33 -238h-65zM163 445l-40 -287q-8 -55 11.5 -78t74.5 -23h1184q55 0 81 22.5t34 78.5l40 287q7 55 -12 78t-74 23h-1185
q-55 0 -80.5 -22.5t-33.5 -78.5z" />
    <glyph glyph-name="q" unicode="q" horiz-adv-x="1661" 
d="M1615 453l-87 -620h-65l33 238q-33 -71 -133 -71h-1176q-77 0 -108.5 36.5t-20.5 113.5l43 303q11 77 52 113.5t118 36.5h1215q77 0 108.5 -36.5t20.5 -113.5zM1509 158l40 287q8 55 -11.5 78t-74.5 23h-1184q-55 0 -81 -23t-34 -78l-40 -287q-8 -55 11.5 -78t74.5 -23
h1185q55 0 80.5 23t33.5 78z" />
    <glyph glyph-name="r" unicode="r" horiz-adv-x="1473" 
d="M1485 603l-8 -57h-1200q-55 0 -80.5 -22.5t-33.5 -78.5l-62 -445h-65l64 453q11 77 52 113.5t118 36.5h1215z" />
    <glyph glyph-name="s" unicode="s" horiz-adv-x="1619" 
d="M1571 546h-1334q-44 0 -65.5 -19t-27.5 -63l-7 -53q-6 -44 10 -62.5t60 -18.5h1231q68 0 95.5 -33t17.5 -103l-8 -59q-10 -70 -46.5 -102.5t-104.5 -32.5h-1377l8 57h1363q44 0 65.5 19t27.5 63l7 52q6 44 -10 63t-60 19h-1231q-69 0 -96.5 32.5t-17.5 102.5l9 60
q10 70 46.5 102.5t104.5 32.5h1348z" />
    <glyph glyph-name="t" unicode="t" horiz-adv-x="1511" 
d="M197 0q-77 0 -108.5 36.5t-20.5 113.5l87 620h65l-24 -167h1313l-8 -57h-1313l-54 -388q-8 -55 11.5 -78t74.5 -23h1213l-8 -57h-1228z" />
    <glyph glyph-name="u" unicode="u" horiz-adv-x="1665" 
d="M1399 57q55 0 80.5 22.5t33.5 78.5l62 445h65l-63 -453q-11 -77 -52 -113.5t-118 -36.5h-1211q-76 0 -107.5 36.5t-20.5 113.5l63 453h65l-62 -445q-8 -55 11.5 -78t74.5 -23h1179z" />
    <glyph glyph-name="v" unicode="v" horiz-adv-x="1661" 
d="M1629 603l-58 -412q-14 -98 -66 -144.5t-150 -46.5h-1309l84 603h65l-76 -546h1235q71 0 106.5 30.5t45.5 103.5l58 412h65z" />
    <glyph glyph-name="w" unicode="w" horiz-adv-x="2055" 
d="M1011 105q-16 -57 -52 -81t-105 -24h-658q-76 0 -107.5 36.5t-20.5 113.5l63 453h65l-62 -445q-8 -55 11.5 -78t74.5 -23h660q50 0 74 22t31 71l63 453h65l-63 -453q-7 -49 11.5 -71t67.5 -22h660q55 0 80.5 22.5t33.5 78.5l62 445h65l-63 -453q-11 -77 -52 -113.5
t-118 -36.5h-657q-69 0 -99 24t-30 81z" />
    <glyph glyph-name="x" unicode="x" horiz-adv-x="1666" 
d="M1549 399l28 204h65l-25 -178q-8 -57 -33 -87.5t-76 -36.5q50 -7 66.5 -37t7.5 -87l-24 -177h-65l28 203q5 36 -9 53t-52 17h-1263q-37 0 -56 -16.5t-24 -53.5l-28 -203h-64l24 177q8 57 33 87.5t76 36.5q-50 6 -66 36.5t-8 87.5l25 178h64l-28 -204q-5 -36 9 -52.5
t51 -16.5h1263q37 0 56.5 16.5t24.5 52.5z" />
    <glyph glyph-name="y" unicode="y" horiz-adv-x="1676" 
d="M1338 -167h-1281l8 57h1274q69 0 104 30.5t44 100.5l11 73q-17 -36 -49 -53t-85 -17h-1171q-77 0 -108.5 36t-20.5 113l60 430h65l-59 -422q-8 -55 11.5 -77.5t75.5 -22.5h1179q55 0 80.5 22.5t33.5 77.5l59 422h65l-82 -582q-14 -97 -65.5 -142.5t-148.5 -45.5z" />
    <glyph glyph-name="z" unicode="z" horiz-adv-x="1629" 
d="M231 273q-61 0 -92 -27.5t-39 -88.5l-14 -100h1452l-8 -57h-1517l22 156q24 174 197 174h1164q61 0 92 27t40 88l14 101h-1430l8 57h1494l-22 -157q-24 -173 -198 -173h-1163z" />
    <glyph glyph-name="braceleft" unicode="{" horiz-adv-x="358" 
d="M202 540l-18 -121q-7 -55 -28 -81.5t-65 -27.5q44 -1 57.5 -27.5t5.5 -81.5l-17 -121q-8 -58 11.5 -81t75.5 -23h41l-8 -56h-56q-77 0 -108 36.5t-21 112.5l22 154q5 34 -3.5 46.5t-38.5 12.5h-21l8 56h20q31 0 42.5 12.5t17.5 46.5l21 154q21 149 171 149h56l-8 -56h-41
q-56 0 -82.5 -23.5t-33.5 -80.5z" />
    <glyph glyph-name="bar" unicode="|" horiz-adv-x="285" 
d="M119 -167v907h63v-907h-63z" />
    <glyph glyph-name="braceright" unicode="}" horiz-adv-x="358" 
d="M206 419l17 121q8 58 -11.5 81t-75.5 23h-41l8 56h55q77 0 108.5 -37t20.5 -112l-21 -154q-5 -34 3.5 -46.5t39.5 -12.5h21l-8 -56h-21q-31 0 -43 -13t-17 -46l-22 -154q-19 -149 -171 -149h-55l7 56h41q56 0 82.5 23t34.5 81l17 121q8 55 29 81.5t65 27.5
q-44 1 -57.5 27.5t-5.5 81.5z" />
    <glyph glyph-name="asciitilde" unicode="~" 
d="M77 294v64q147 74 365 74q152 0 479 -51.5t480 -51.5q223 0 372 78v-64q-148 -74 -366 -74q-154 0 -480.5 51.5t-478.5 51.5q-223 0 -371 -78z" />
    <glyph glyph-name="uni00A0" unicode="&#xa0;" horiz-adv-x="490" 
 />
    <glyph glyph-name="exclamdown" unicode="&#xa1;" horiz-adv-x="305" 
d="M138 565l9 65h103l-9 -65h-103zM67 -70l33 233q16 122 53 293h43q-12 -156 -30 -293l-33 -233h-66z" />
    <glyph glyph-name="cent" unicode="&#xa2;" 
d="M897 -40l13 90h-711q-77 0 -108.5 36.5t-20.5 113.5l43 300q11 77 52 113.5t118 36.5h711l13 90h59l-13 -90h791l-8 -57h-791l-68 -486h791l-8 -57h-791l-13 -90h-59zM223 107h695l68 486h-695q-56 0 -82 -23t-33 -78l-40 -284q-8 -56 12 -78.5t75 -22.5z" />
    <glyph glyph-name="sterling" unicode="&#xa3;" 
d="M240 59h1517l-8 -59h-1739l8 59h156l36 262h-155l8 58h156l24 170q11 77 52.5 114t119.5 37h1362l-8 -59h-1347q-56 0 -81.5 -22t-32.5 -77l-23 -163h1446l-8 -58h-1446z" />
    <glyph glyph-name="currency" unicode="&#xa4;" 
d="M117 501q0 78 35.5 114t113.5 36h630v89h58v-89h629q78 0 113.5 -36t35.5 -114v-122h86v-58h-86v-123q0 -78 -35.5 -114t-113.5 -36h-629v-88h-58v88h-630q-78 0 -113.5 36t-35.5 114v123h-85v58h85v122zM1567 593h-1285q-54 0 -77 -22.5t-23 -77.5v-287q0 -54 22.5 -77
t77.5 -23h1285q55 0 77.5 23t22.5 77v287q0 54 -22.5 77t-77.5 23z" />
    <glyph glyph-name="yen" unicode="&#xa5;" 
d="M1773 700h66l-23 -164q-11 -77 -53 -114t-120 -37h-677l-22 -159h807l-8 -58h-807l-24 -168h-66l24 168h-807l8 58h807l22 159h-677q-78 0 -110 37t-21 114l23 164h66l-21 -152q-8 -57 11.5 -81t76.5 -24h1387q56 0 82.5 23.5t34.5 81.5z" />
    <glyph glyph-name="brokenbar" unicode="&#xa6;" horiz-adv-x="285" 
d="M119 -167v394h63v-394h-63zM119 347v393h63v-393h-63z" />
    <glyph glyph-name="section" unicode="&#xa7;" horiz-adv-x="1812" 
d="M232 442h1406q70 0 97 -32t17 -104l-5 -36q-7 -52 -33 -80.5t-79 -35.5q51 -7 69 -35t11 -80l-5 -31q-10 -73 -47.5 -106.5t-109.5 -33.5h-1528l7 57h1516q47 0 70 20t29 67l4 31q7 45 -9 64t-62 19h-1406q-70 0 -97 32t-17 104l5 36q7 53 33 81t79 35q-51 7 -69 35
t-11 80l4 31q10 73 48 106.5t110 33.5h1529l-8 -57h-1516q-47 0 -69.5 -20t-29.5 -67l-5 -31q-6 -45 10 -64t62 -19zM1612 385h-1387q-45 0 -66.5 -18.5t-28.5 -63.5l-5 -34q-6 -46 11 -66t64 -20h1387q45 0 66.5 18.5t28.5 63.5l5 34q6 47 -11 66.5t-64 19.5z" />
    <glyph glyph-name="dieresis" unicode="&#xa8;" horiz-adv-x="471" 
d="M188 737l-8 -54h-102l8 54h102zM507 737l-8 -54h-102l7 54h103z" />
    <glyph glyph-name="copyright" unicode="&#xa9;" horiz-adv-x="1913" 
d="M332 189q-46 0 -66.5 21t-20.5 66v147q0 45 20.5 66t66.5 21h1337v-41h-1340q-37 0 -37 -37v-165q0 -37 37 -37h1340v-41h-1337zM243 0q-83 0 -122 39.5t-39 120.5v380q0 81 39 120.5t122 39.5h1443q83 0 122 -39.5t39 -120.5v-380q0 -81 -39 -120.5t-122 -39.5h-1443z
M245 42h1439q60 0 88 29t28 88v382q0 59 -28 88t-88 29h-1439q-116 0 -116 -117v-382q0 -117 116 -117z" />
    <glyph glyph-name="ordfeminine" unicode="&#xaa;" horiz-adv-x="1344" 
d="M1263 460l17 122q4 35 -8 49.5t-46 14.5h-1087l7 54h1094q118 0 100 -117l-42 -300q-16 -117 -133 -117h-1001q-117 0 -99 117l8 60q16 117 133 117h1057zM133 342l-8 -57q-4 -36 8 -50.5t46 -14.5h987q34 0 51 14.5t21 49.5l17 122h-1050q-34 0 -50.5 -14.5t-21.5 -49.5
zM658 84l53 -84h-128z" />
    <glyph glyph-name="guillemotleft" unicode="&#xab;" horiz-adv-x="581" 
d="M289 51h-71l-185 249l255 249h75l-258 -251zM511 51h-71l-185 249l255 249h75l-258 -251z" />
    <glyph glyph-name="logicalnot" unicode="&#xac;" 
d="M76 321v57h1697v-302h-57v245h-1640z" />
    <glyph glyph-name="uni00AD" unicode="&#xad;" horiz-adv-x="729" 
d="M688 356l-8 -58h-632l8 58h632z" />
    <glyph glyph-name="registered" unicode="&#xae;" horiz-adv-x="1913" 
d="M243 0q-83 0 -122 39.5t-39 120.5v380q0 81 39 120.5t122 39.5h1443q83 0 122 -39.5t39 -120.5v-380q0 -81 -39 -120.5t-122 -39.5h-1443zM245 42h1439q60 0 88 29t28 88v382q0 59 -28 88t-88 29h-1439q-116 0 -116 -117v-382q0 -117 116 -117zM1679 414q0 -30 -12.5 -46
t-43.5 -19q56 -5 56 -68v-92h-46v111q0 29 -28 29h-1304v-140h-46v321h1357q35 0 51 -16t16 -51v-29zM1633 445q0 24 -26 24h-1306v-99h1306q26 0 26 24v51z" />
    <glyph glyph-name="macron" unicode="&#xaf;" horiz-adv-x="471" 
d="M493 693h-406l6 39h405z" />
    <glyph glyph-name="degree" unicode="&#xb0;" horiz-adv-x="847" 
d="M69 565q0 135 143 135h468q144 0 144 -135v-116q0 -135 -144 -135h-468q-143 0 -143 135v116zM225 646q-54 0 -74.5 -20.5t-20.5 -73.5v-90q0 -53 20.5 -73.5t74.5 -20.5h442q54 0 74.5 20.5t20.5 73.5v90q0 53 -20.5 73.5t-74.5 20.5h-442z" />
    <glyph glyph-name="plusminus" unicode="&#xb1;" 
d="M77 321v57h819v245h57v-245h820v-57h-820v-264h820v-57h-1696v57h819v264h-819z" />
    <glyph glyph-name="twosuperior" unicode="&#xb2;" horiz-adv-x="1082" 
d="M1005 529l6 49q5 38 -7.5 53.5t-49.5 15.5h-832l8 53h843q60 0 84 -28.5t16 -88.5l-9 -60q-16 -117 -132 -117h-705q-56 0 -80.5 -21t-31.5 -76l-13 -89h919l-7 -54h-980l21 152q19 142 163 142h710q38 0 54.5 15t22.5 54z" />
    <glyph glyph-name="threesuperior" unicode="&#xb3;" horiz-adv-x="1082" 
d="M1069 584l-7 -47q-7 -47 -28.5 -72.5t-74.5 -31.5q51 -6 66 -31.5t8 -72.5l-7 -47q-16 -116 -131 -116h-868l8 54h855q38 0 55 15t22 53l7 50q5 37 -8 52.5t-48 15.5h-773l7 54h773q35 0 52.5 15.5t23.5 52.5l6 50q5 38 -7.5 53t-49.5 15h-855l7 54h868q59 0 83 -28.5
t16 -87.5z" />
    <glyph glyph-name="acute" unicode="&#xb4;" horiz-adv-x="471" 
d="M467 767l-237 -107h-76l201 107h112z" />
    <glyph glyph-name="uni00B5" unicode="&#xb5;" horiz-adv-x="1676" 
d="M219 57h1180q55 0 80.5 22.5t33.5 78.5l62 445h65l-64 -453q-11 -77 -51.5 -113.5t-117.5 -36.5h-1172q-102 0 -115 71l-33 -238h-65l108 770h65l-62 -445q-8 -55 11.5 -78t74.5 -23z" />
    <glyph glyph-name="paragraph" unicode="&#xb6;" horiz-adv-x="1637" 
d="M1611 700l-117 -832h-63l109 775h-193l-108 -775h-63l57 407h-1016q-87 0 -122 41.5t-23 127.5l13 87q22 169 192 169h1334z" />
    <glyph glyph-name="periodcentered" unicode="&#xb7;" horiz-adv-x="299" 
d="M212 384l-10 -68h-101l9 68h102z" />
    <glyph glyph-name="cedilla" unicode="&#xb8;" horiz-adv-x="480" 
d="M177 -47h132q41 0 60.5 -8.5t19.5 -33.5q0 -76 -133 -76h-286l7 46h285q43 0 60.5 7.5t17.5 28.5q0 11 -9.5 15t-34.5 4h-148l33 64h18z" />
    <glyph glyph-name="onesuperior" unicode="&#xb9;" horiz-adv-x="1082" 
d="M107 166l7 54h475l60 426h-475l8 54h535l-68 -480h356l-7 -54h-891z" />
    <glyph glyph-name="ordmasculine" unicode="&#xba;" horiz-adv-x="1356" 
d="M77 283l42 300q16 117 133 117h1000q60 0 84.5 -28.5t16.5 -88.5l-42 -300q-9 -60 -41.5 -88.5t-92.5 -28.5h-1000q-118 0 -100 117zM1179 220q33 0 50 14.5t21 49.5l42 298q5 35 -7.5 49.5t-45.5 14.5h-988q-34 0 -51 -14.5t-21 -49.5l-42 -298q-4 -35 8 -49.5t46 -14.5
h988zM670 84l53 -84h-128z" />
    <glyph glyph-name="guillemotright" unicode="&#xbb;" horiz-adv-x="581" 
d="M72 51h-74l256 249l-186 249h74l184 -249zM293 51h-73l255 249l-185 249h73l184 -249z" />
    <glyph glyph-name="onequarter" unicode="&#xbc;" horiz-adv-x="2471" 
d="M926 0l569 700h64l-569 -700h-64zM107 166l7 54h475l60 426h-475l8 54h535l-68 -480h356l-7 -54h-891zM2325 294l34 240h60l-75 -534h-60l33 240h-771q-60 0 -84 28.5t-16 88.5l25 177h60l-25 -173q-4 -35 9.5 -51t47.5 -16h762z" />
    <glyph glyph-name="onehalf" unicode="&#xbd;" horiz-adv-x="2471" 
d="M926 0l569 700h64l-569 -700h-64zM107 166l7 54h475l60 426h-475l8 54h535l-68 -480h356l-7 -54h-891zM2370 363l6 49q5 38 -7.5 53.5t-49.5 15.5h-832l8 53h843q60 0 84 -28.5t16 -88.5l-9 -60q-16 -117 -132 -117h-705q-56 0 -80.5 -21t-31.5 -76l-13 -89h919l-7 -54
h-980l21 152q19 142 163 142h710q38 0 54.5 15t22.5 54z" />
    <glyph glyph-name="threequarters" unicode="&#xbe;" horiz-adv-x="2471" 
d="M926 0l569 700h64l-569 -700h-64zM2325 294l34 240h60l-75 -534h-60l33 240h-771q-60 0 -84 28.5t-16 88.5l25 177h60l-25 -173q-4 -35 9.5 -51t47.5 -16h762zM1069 584l-7 -47q-7 -47 -28.5 -72.5t-74.5 -31.5q51 -6 66 -31.5t8 -72.5l-7 -47q-16 -116 -131 -116h-868
l8 54h855q38 0 55 15t22 53l7 50q5 37 -8 52.5t-48 15.5h-773l7 54h773q35 0 52.5 15.5t23.5 52.5l6 50q5 38 -7.5 53t-49.5 15h-855l7 54h868q59 0 83 -28.5t16 -87.5z" />
    <glyph glyph-name="questiondown" unicode="&#xbf;" horiz-adv-x="1781" 
d="M96 150l-8 -61q-8 -54 11.5 -77t70.5 -23h1553l-8 -59h-1567q-77 0 -108 36t-20 113l12 81q10 77 51 113t118 36h697q43 0 63.5 18t27.5 63l10 68h66l-11 -80q-18 -127 -146 -127h-702q-51 0 -77 -23.5t-33 -77.5zM996 565l8 65h103l-9 -65h-102z" />
    <glyph glyph-name="Agrave" unicode="&#xc0;" horiz-adv-x="1878" 
d="M1752 0h-66l45 321h-1579l-44 -321h-66l77 548q21 152 173 152h1406q152 0 131 -152zM1674 641h-1374q-56 0 -83 -23.5t-34 -81.5l-22 -157h1578l22 157q8 58 -11.5 81.5t-75.5 23.5zM1017 754l-202 107h104l172 -107h-74z" />
    <glyph glyph-name="Aacute" unicode="&#xc1;" horiz-adv-x="1878" 
d="M1752 0h-66l45 321h-1579l-44 -321h-66l77 548q21 152 173 152h1406q152 0 131 -152zM1674 641h-1374q-56 0 -83 -23.5t-34 -81.5l-22 -157h1578l22 157q8 58 -11.5 81.5t-75.5 23.5zM1225 861l-237 -107h-76l201 107h112z" />
    <glyph glyph-name="Acircumflex" unicode="&#xc2;" horiz-adv-x="1878" 
d="M1752 0h-66l45 321h-1579l-44 -321h-66l77 548q21 152 173 152h1406q152 0 131 -152zM1674 641h-1374q-56 0 -83 -23.5t-34 -81.5l-22 -157h1578l22 157q8 58 -11.5 81.5t-75.5 23.5zM1013 828l-177 -74h-69l206 107h88l175 -107h-66z" />
    <glyph glyph-name="Atilde" unicode="&#xc3;" horiz-adv-x="1878" 
d="M1752 0h-66l45 321h-1579l-44 -321h-66l77 548q21 152 173 152h1406q152 0 131 -152zM1674 641h-1374q-56 0 -83 -23.5t-34 -81.5l-22 -157h1578l22 157q8 58 -11.5 81.5t-75.5 23.5zM800 760l6 45q63 49 117 49q35 0 92 -27.5t90 -27.5q53 0 112 50l-6 -46
q-62 -49 -118 -49q-35 0 -93 27.5t-90 27.5q-51 0 -110 -49z" />
    <glyph glyph-name="Adieresis" unicode="&#xc4;" horiz-adv-x="1878" 
d="M1752 0h-66l45 321h-1579l-44 -321h-66l77 548q21 152 173 152h1406q152 0 131 -152zM1674 641h-1374q-56 0 -83 -23.5t-34 -81.5l-22 -157h1578l22 157q8 58 -11.5 81.5t-75.5 23.5zM904 831l-8 -54h-102l8 54h102zM1223 831l-8 -54h-102l7 54h103z" />
    <glyph glyph-name="Aring" unicode="&#xc5;" horiz-adv-x="1878" 
d="M1752 0h-66l45 321h-1579l-44 -321h-66l77 548q21 152 173 152h1406q152 0 131 -152zM1674 641h-1374q-56 0 -83 -23.5t-34 -81.5l-22 -157h1578l22 157q8 58 -11.5 81.5t-75.5 23.5zM1074 841h-119q-44 0 -44 -37q0 -22 36 -22h119q44 0 44 37q0 22 -36 22zM962 870h114
q66 0 66 -47q0 -70 -83 -70h-114q-66 0 -66 47q0 70 83 70z" />
    <glyph glyph-name="AE" unicode="&#xc6;" horiz-adv-x="2861" 
d="M1382 0l44 321h-1274l-44 -321h-66l77 548q21 152 173 152h2571l-8 -59h-1319l-38 -262h1214l-8 -58h-1214l-36 -262h1319l-8 -59h-1383zM300 641q-56 0 -82.5 -23.5t-34.5 -81.5l-22 -157h1273l37 262h-1171z" />
    <glyph glyph-name="Ccedilla" unicode="&#xc7;" horiz-adv-x="1774" 
d="M670 -119h285q43 0 60.5 7.5t17.5 28.5q0 11 -9.5 15t-34.5 4h-148l33 64h-679q-78 0 -110 37.5t-21 114.5l55 396q22 152 174 152h1494l-9 -59h-1478q-56 0 -82 -23.5t-34 -81.5l-53 -372q-8 -58 12 -81.5t76 -23.5h1478l-8 -59h-797l-22 -47h132q41 0 61 -8.5t20 -32.5
q0 -77 -134 -77h-286z" />
    <glyph glyph-name="Egrave" unicode="&#xc8;" horiz-adv-x="1835" 
d="M52 0l98 700h1687l-8 -59h-1621l-38 -262h1516l-8 -58h-1516l-36 -262h1621l-8 -59h-1687zM1022 754l-202 107h104l172 -107h-74z" />
    <glyph glyph-name="Eacute" unicode="&#xc9;" horiz-adv-x="1835" 
d="M52 0l98 700h1687l-8 -59h-1621l-38 -262h1516l-8 -58h-1516l-36 -262h1621l-8 -59h-1687zM1229 861l-237 -107h-76l201 107h112z" />
    <glyph glyph-name="Ecircumflex" unicode="&#xca;" horiz-adv-x="1835" 
d="M52 0l98 700h1687l-8 -59h-1621l-38 -262h1516l-8 -58h-1516l-36 -262h1621l-8 -59h-1687zM1018 828l-177 -74h-69l206 107h88l175 -107h-66z" />
    <glyph glyph-name="Edieresis" unicode="&#xcb;" horiz-adv-x="1835" 
d="M52 0l98 700h1687l-8 -59h-1621l-38 -262h1516l-8 -58h-1516l-36 -262h1621l-8 -59h-1687zM909 831l-8 -54h-102l8 54h102zM1228 831l-8 -54h-102l7 54h103z" />
    <glyph glyph-name="Igrave" unicode="&#xcc;" horiz-adv-x="253" 
d="M52 0l98 700h66l-98 -700h-66zM208 754l-202 107h104l172 -107h-74z" />
    <glyph glyph-name="Iacute" unicode="&#xcd;" horiz-adv-x="253" 
d="M52 0l98 700h66l-98 -700h-66zM411 861l-237 -107h-76l201 107h112z" />
    <glyph glyph-name="Icircumflex" unicode="&#xce;" horiz-adv-x="253" 
d="M52 0l98 700h66l-98 -700h-66zM202 828l-177 -74h-69l206 107h88l175 -107h-66z" />
    <glyph glyph-name="Idieresis" unicode="&#xcf;" horiz-adv-x="253" 
d="M366 830l-7 -53h-102l7 53h102zM138 830l-7 -53h-102l6 53h103zM52 0l98 700h66l-98 -700h-66z" />
    <glyph glyph-name="Eth" unicode="&#xd0;" horiz-adv-x="1873" 
d="M1649 700q104 0 150 -53.5t31 -157.5l-39 -278q-29 -211 -240 -211h-1499l45 321h-77l8 58h77l45 321h1499zM1548 59q157 0 178 157l37 268q12 81 -21.5 119t-111.5 38h-1422l-37 -262h270l-8 -58h-270l-37 -262h1422z" />
    <glyph glyph-name="Ntilde" unicode="&#xd1;" horiz-adv-x="1878" 
d="M300 641q-56 0 -82.5 -23.5t-34.5 -81.5l-75 -536h-66l77 548q21 152 173 152h1406q152 0 131 -152l-77 -548h-66l75 536q8 58 -11.5 81.5t-75.5 23.5h-1374zM800 760l6 45q63 49 117 49q35 0 92 -27.5t90 -27.5q53 0 112 50l-6 -46q-62 -49 -118 -49q-35 0 -93 27.5
t-90 27.5q-51 0 -110 -49z" />
    <glyph glyph-name="Ograve" unicode="&#xd2;" horiz-adv-x="1863" 
d="M206 0q-153 0 -131 152l55 396q22 152 174 152h1411q78 0 110 -37.5t21 -114.5l-55 -396q-22 -152 -174 -152h-1411zM1726 164l52 372q8 58 -11.5 81.5t-75.5 23.5h-1380q-54 0 -81 -24t-35 -81l-53 -372q-7 -58 12.5 -81.5t75.5 -23.5h1380q56 0 82 23.5t34 81.5z
M1031 754l-202 107h104l172 -107h-74z" />
    <glyph glyph-name="Oacute" unicode="&#xd3;" horiz-adv-x="1863" 
d="M206 0q-153 0 -131 152l55 396q22 152 174 152h1411q78 0 110 -37.5t21 -114.5l-55 -396q-22 -152 -174 -152h-1411zM1726 164l52 372q8 58 -11.5 81.5t-75.5 23.5h-1380q-54 0 -81 -24t-35 -81l-53 -372q-7 -58 12.5 -81.5t75.5 -23.5h1380q56 0 82 23.5t34 81.5z
M1239 861l-237 -107h-76l201 107h112z" />
    <glyph glyph-name="Ocircumflex" unicode="&#xd4;" horiz-adv-x="1863" 
d="M206 0q-153 0 -131 152l55 396q22 152 174 152h1411q78 0 110 -37.5t21 -114.5l-55 -396q-22 -152 -174 -152h-1411zM1726 164l52 372q8 58 -11.5 81.5t-75.5 23.5h-1380q-54 0 -81 -24t-35 -81l-53 -372q-7 -58 12.5 -81.5t75.5 -23.5h1380q56 0 82 23.5t34 81.5z
M1028 828l-177 -74h-69l206 107h88l175 -107h-66z" />
    <glyph glyph-name="Otilde" unicode="&#xd5;" horiz-adv-x="1863" 
d="M206 0q-153 0 -131 152l55 396q22 152 174 152h1411q78 0 110 -37.5t21 -114.5l-55 -396q-22 -152 -174 -152h-1411zM1726 164l52 372q8 58 -11.5 81.5t-75.5 23.5h-1380q-54 0 -81 -24t-35 -81l-53 -372q-7 -58 12.5 -81.5t75.5 -23.5h1380q56 0 82 23.5t34 81.5z
M815 760l6 45q63 49 117 49q35 0 92 -27.5t90 -27.5q53 0 112 50l-6 -46q-62 -49 -118 -49q-35 0 -93 27.5t-90 27.5q-51 0 -110 -49z" />
    <glyph glyph-name="Odieresis" unicode="&#xd6;" horiz-adv-x="1863" 
d="M206 0q-153 0 -131 152l55 396q22 152 174 152h1411q78 0 110 -37.5t21 -114.5l-55 -396q-22 -152 -174 -152h-1411zM1726 164l52 372q8 58 -11.5 81.5t-75.5 23.5h-1380q-54 0 -81 -24t-35 -81l-53 -372q-7 -58 12.5 -81.5t75.5 -23.5h1380q56 0 82 23.5t34 81.5z
M919 831l-8 -54h-102l8 54h102zM1238 831l-8 -54h-102l7 54h103z" />
    <glyph glyph-name="multiply" unicode="&#xd7;" 
d="M994 321l223 -245h-72l-221 245l-222 -245h-70l222 245h-777v57h777l-222 245h70l222 -245l221 245h72l-223 -245h779v-57h-779z" />
    <glyph glyph-name="Oslash" unicode="&#xd8;" horiz-adv-x="1863" 
d="M206 0q-153 0 -131 152l55 396q22 152 174 152h1411q78 0 110 -37.5t21 -114.5l-55 -396q-22 -152 -174 -152h-1411zM195 61l1401 580h-1285q-54 0 -81 -24t-35 -81l-53 -372q-6 -48 6 -72t47 -31zM1726 164l52 372q7 48 -5 71.5t-46 30.5l-1401 -579h1284q56 0 82 23.5
t34 81.5z" />
    <glyph glyph-name="Ugrave" unicode="&#xd9;" horiz-adv-x="1878" 
d="M216 0q-153 0 -131 152l77 548h66l-75 -536q-8 -58 11.5 -81.5t75.5 -23.5h1375q56 0 82 23.5t34 81.5l75 536h66l-77 -548q-21 -152 -173 -152h-1406zM1039 754l-202 107h104l172 -107h-74z" />
    <glyph glyph-name="Uacute" unicode="&#xda;" horiz-adv-x="1878" 
d="M216 0q-153 0 -131 152l77 548h66l-75 -536q-8 -58 11.5 -81.5t75.5 -23.5h1375q56 0 82 23.5t34 81.5l75 536h66l-77 -548q-21 -152 -173 -152h-1406zM1243 861l-237 -107h-76l201 107h112z" />
    <glyph glyph-name="Ucircumflex" unicode="&#xdb;" horiz-adv-x="1878" 
d="M216 0q-153 0 -131 152l77 548h66l-75 -536q-8 -58 11.5 -81.5t75.5 -23.5h1375q56 0 82 23.5t34 81.5l75 536h66l-77 -548q-21 -152 -173 -152h-1406zM1035 828l-177 -74h-69l206 107h88l175 -107h-66z" />
    <glyph glyph-name="Udieresis" unicode="&#xdc;" horiz-adv-x="1878" 
d="M216 0q-153 0 -131 152l77 548h66l-75 -536q-8 -58 11.5 -81.5t75.5 -23.5h1375q56 0 82 23.5t34 81.5l75 536h66l-77 -548q-21 -152 -173 -152h-1406zM926 831l-8 -54h-102l8 54h102zM1245 831l-8 -54h-102l7 54h103z" />
    <glyph glyph-name="Yacute" unicode="&#xdd;" horiz-adv-x="1835" 
d="M1792 700h66l-33 -227q-21 -152 -173 -152h-678l-44 -321h-66l44 321h-678q-152 0 -131 152l33 227h66l-31 -216q-8 -57 11.5 -81t75.5 -24h1390q56 0 82.5 23.5t34.5 81.5zM1221 861l-237 -107h-76l201 107h112z" />
    <glyph glyph-name="Thorn" unicode="&#xde;" horiz-adv-x="1839" 
d="M52 0l98 700h66l-14 -97h1490q77 0 108 -36t20 -113l-11 -81q-11 -77 -52 -113t-118 -36h-1490l-31 -224h-66zM1753 444q7 54 -12.5 77t-70.5 23h-1476l-37 -262h1477q51 0 77 23.5t33 77.5z" />
    <glyph glyph-name="germandbls" unicode="&#xdf;" horiz-adv-x="1683" 
d="M1477 273h-1099l7 57h1100q45 0 65.5 17.5t26.5 62.5l7 49q6 47 -11 67t-64 20h-1212q-62 0 -94.5 -28t-42.5 -92l-83 -593h-65l84 598q13 88 60.5 130t136.5 42h1239q72 0 100 -32.5t18 -105.5l-8 -50q-7 -54 -32.5 -81.5t-77.5 -32.5q51 -5 68.5 -32.5t9.5 -80.5
l-6 -50q-10 -73 -47.5 -105.5t-108.5 -32.5h-1108l8 57h1093q47 0 69 20t29 67l7 48q7 45 -8 63t-61 18z" />
    <glyph glyph-name="agrave" unicode="&#xe0;" horiz-adv-x="1654" 
d="M1534 330l17 115q7 55 -12 78t-74 23h-1338l8 57h1353q77 0 108.5 -36.5t20.5 -113.5l-43 -303q-11 -77 -52 -113.5t-118 -36.5h-1251q-69 0 -96.5 32.5t-17.5 102.5l8 59q10 70 46.5 103t104.5 33h1336zM1526 273h-1321q-44 0 -65.5 -19t-27.5 -63l-8 -52
q-6 -44 10.5 -63t60.5 -19h1221q55 0 81 22.5t34 78.5zM895 660l-202 107h104l172 -107h-74z" />
    <glyph glyph-name="aacute" unicode="&#xe1;" horiz-adv-x="1654" 
d="M1534 330l17 115q7 55 -12 78t-74 23h-1338l8 57h1353q77 0 108.5 -36.5t20.5 -113.5l-43 -303q-11 -77 -52 -113.5t-118 -36.5h-1251q-69 0 -96.5 32.5t-17.5 102.5l8 59q10 70 46.5 103t104.5 33h1336zM1526 273h-1321q-44 0 -65.5 -19t-27.5 -63l-8 -52
q-6 -44 10.5 -63t60.5 -19h1221q55 0 81 22.5t34 78.5zM1092 767l-237 -107h-76l201 107h112z" />
    <glyph glyph-name="acircumflex" unicode="&#xe2;" horiz-adv-x="1654" 
d="M1534 330l17 115q7 55 -12 78t-74 23h-1338l8 57h1353q77 0 108.5 -36.5t20.5 -113.5l-43 -303q-11 -77 -52 -113.5t-118 -36.5h-1251q-69 0 -96.5 32.5t-17.5 102.5l8 59q10 70 46.5 103t104.5 33h1336zM1526 273h-1321q-44 0 -65.5 -19t-27.5 -63l-8 -52
q-6 -44 10.5 -63t60.5 -19h1221q55 0 81 22.5t34 78.5zM891 734l-177 -74h-69l206 107h88l175 -107h-66z" />
    <glyph glyph-name="atilde" unicode="&#xe3;" horiz-adv-x="1654" 
d="M1534 330l17 115q7 55 -12 78t-74 23h-1338l8 57h1353q77 0 108.5 -36.5t20.5 -113.5l-43 -303q-11 -77 -52 -113.5t-118 -36.5h-1251q-69 0 -96.5 32.5t-17.5 102.5l8 59q10 70 46.5 103t104.5 33h1336zM1526 273h-1321q-44 0 -65.5 -19t-27.5 -63l-8 -52
q-6 -44 10.5 -63t60.5 -19h1221q55 0 81 22.5t34 78.5zM678 666l6 45q63 49 117 49q35 0 92 -27.5t90 -27.5q53 0 112 50l-6 -46q-62 -49 -118 -49q-35 0 -93 27.5t-90 27.5q-51 0 -110 -49z" />
    <glyph glyph-name="adieresis" unicode="&#xe4;" horiz-adv-x="1654" 
d="M1534 330l17 115q7 55 -12 78t-74 23h-1338l8 57h1353q77 0 108.5 -36.5t20.5 -113.5l-43 -303q-11 -77 -52 -113.5t-118 -36.5h-1251q-69 0 -96.5 32.5t-17.5 102.5l8 59q10 70 46.5 103t104.5 33h1336zM1526 273h-1321q-44 0 -65.5 -19t-27.5 -63l-8 -52
q-6 -44 10.5 -63t60.5 -19h1221q55 0 81 22.5t34 78.5zM782 737l-8 -54h-102l8 54h102zM1101 737l-8 -54h-102l7 54h103z" />
    <glyph glyph-name="aring" unicode="&#xe5;" horiz-adv-x="1654" 
d="M1534 330l17 115q7 55 -12 78t-74 23h-1338l8 57h1353q77 0 108.5 -36.5t20.5 -113.5l-43 -303q-11 -77 -52 -113.5t-118 -36.5h-1251q-69 0 -96.5 32.5t-17.5 102.5l8 59q10 70 46.5 103t104.5 33h1336zM1526 273h-1321q-44 0 -65.5 -19t-27.5 -63l-8 -52
q-6 -44 10.5 -63t60.5 -19h1221q55 0 81 22.5t34 78.5zM951 747h-119q-44 0 -44 -37q0 -22 36 -22h119q44 0 44 37q0 22 -36 22zM839 776h114q66 0 66 -47q0 -70 -83 -70h-114q-66 0 -66 47q0 70 83 70z" />
    <glyph glyph-name="ae" unicode="&#xe6;" horiz-adv-x="2467" 
d="M2375 411l7 53q6 44 -10 63t-60 19h-910q-50 0 -74 -22t-31 -71l-18 -123h1002q44 0 65.5 18.5t28.5 62.5zM112 191l-8 -52q-6 -44 10.5 -63t60.5 -19h910q49 0 73.5 22t31.5 71l17 123h-1002q-44 0 -65.5 -19t-27.5 -63zM1058 0h-905q-69 0 -96.5 32.5t-17.5 102.5l8 59
q10 70 46.5 103t104.5 33h1017l17 123q7 49 -11.5 71t-67.5 22h-1026l8 57h1007q69 0 99 -24t30 -81q16 57 52 81t105 24h906q68 0 95.5 -32.5t17.5 -102.5l-8 -60q-10 -70 -46.5 -102.5t-104.5 -32.5h-1017l-16 -123q-8 -49 10.5 -71t68.5 -22h1026l-8 -57h-1008
q-69 0 -99 24t-29 81q-16 -57 -52.5 -81t-105.5 -24z" />
    <glyph glyph-name="ccedilla" unicode="&#xe7;" horiz-adv-x="1589" 
d="M573 -119h285q43 0 60.5 7.5t17.5 28.5q0 11 -9.5 15t-34.5 4h-148l33 64h-590q-77 0 -108.5 36.5t-20.5 113.5l43 303q11 77 52 113.5t118 36.5h1316l-8 -57h-1300q-55 0 -81 -22.5t-34 -78.5l-40 -287q-8 -55 11.5 -78t74.5 -23h1301l-8 -57h-708l-22 -47h132
q41 0 61 -8.5t20 -32.5q0 -77 -134 -77h-286z" />
    <glyph glyph-name="egrave" unicode="&#xe8;" horiz-adv-x="1654" 
d="M1628 408q-10 -70 -46.5 -102.5t-104.5 -32.5h-1336l-16 -115q-8 -55 12.5 -78t73.5 -23h1338l-8 -57h-1353q-83 0 -110.5 41t-15.5 127l40 285q11 76 52 113t118 37h1251q69 0 96.5 -32.5t16.5 -102.5zM1501 546h-1221q-61 0 -84.5 -27t-33.5 -98l-13 -91h1322
q43 0 64.5 18t28.5 63l6 48q7 48 -8 67.5t-61 19.5zM925 660l-202 107h104l172 -107h-74z" />
    <glyph glyph-name="eacute" unicode="&#xe9;" horiz-adv-x="1654" 
d="M1628 408q-10 -70 -46.5 -102.5t-104.5 -32.5h-1336l-16 -115q-8 -55 12.5 -78t73.5 -23h1338l-8 -57h-1353q-83 0 -110.5 41t-15.5 127l40 285q11 76 52 113t118 37h1251q69 0 96.5 -32.5t16.5 -102.5zM1501 546h-1221q-61 0 -84.5 -27t-33.5 -98l-13 -91h1322
q43 0 64.5 18t28.5 63l6 48q7 48 -8 67.5t-61 19.5zM1134 767l-237 -107h-76l201 107h112z" />
    <glyph glyph-name="ecircumflex" unicode="&#xea;" horiz-adv-x="1654" 
d="M1628 408q-10 -70 -46.5 -102.5t-104.5 -32.5h-1336l-16 -115q-8 -55 12.5 -78t73.5 -23h1338l-8 -57h-1353q-83 0 -110.5 41t-15.5 127l40 285q11 76 52 113t118 37h1251q69 0 96.5 -32.5t16.5 -102.5zM1501 546h-1221q-61 0 -84.5 -27t-33.5 -98l-13 -91h1322
q43 0 64.5 18t28.5 63l6 48q7 48 -8 67.5t-61 19.5zM922 734l-177 -74h-69l206 107h88l175 -107h-66z" />
    <glyph glyph-name="edieresis" unicode="&#xeb;" horiz-adv-x="1654" 
d="M1628 408q-10 -70 -46.5 -102.5t-104.5 -32.5h-1336l-16 -115q-8 -55 12.5 -78t73.5 -23h1338l-8 -57h-1353q-83 0 -110.5 41t-15.5 127l40 285q11 76 52 113t118 37h1251q69 0 96.5 -32.5t16.5 -102.5zM1501 546h-1221q-61 0 -84.5 -27t-33.5 -98l-13 -91h1322
q43 0 64.5 18t28.5 63l6 48q7 48 -8 67.5t-61 19.5zM813 737l-8 -54h-102l8 54h102zM1132 737l-8 -54h-102l7 54h103z" />
    <glyph glyph-name="igrave" unicode="&#xec;" horiz-adv-x="357" 
d="M217 660l-202 107h104l172 -107h-74zM203 57h93l-8 -57h-108q-76 0 -104.5 33.5t-17.5 108.5l65 461h64l-63 -454q-7 -52 9.5 -72t69.5 -20z" />
    <glyph glyph-name="iacute" unicode="&#xed;" horiz-adv-x="357" 
d="M400 767l-237 -107h-76l201 107h112zM214 57h93l-8 -57h-108q-76 0 -104.5 33.5t-17.5 108.5l65 461h64l-63 -454q-7 -52 9.5 -72t69.5 -20z" />
    <glyph glyph-name="icircumflex" unicode="&#xee;" horiz-adv-x="357" 
d="M203 57h93l-8 -57h-108q-76 0 -104.5 33.5t-17.5 108.5l65 461h64l-63 -454q-7 -52 9.5 -72t69.5 -20zM175 734l-177 -74h-69l206 107h88l175 -107h-66z" />
    <glyph glyph-name="idieresis" unicode="&#xef;" horiz-adv-x="357" 
d="M345 737l-8 -54h-102l8 54h102zM105 737l-7 -54h-102l7 54h102zM203 57h93l-8 -57h-108q-76 0 -104.5 33.5t-17.5 108.5l65 461h64l-63 -454q-7 -52 9.5 -72t69.5 -20z" />
    <glyph glyph-name="eth" unicode="&#xf0;" horiz-adv-x="1661" 
d="M268 580h1176q101 0 114 -71l10 73q10 70 -16.5 100.5t-95.5 30.5h-548l-11 -81h-42l11 81h-688l8 57h689l7 50h41l-7 -50h556q97 0 136 -45.5t25 -142.5l-61 -432q-11 -77 -52 -113.5t-118 -36.5h-1215q-77 0 -108.5 36.5t-20.5 113.5l40 280q11 77 52 113.5t118 36.5z
M1460 522h-1185q-55 0 -81 -22.5t-33 -77.5l-37 -264q-8 -55 11.5 -78t74.5 -23h1185q55 0 80.5 22.5t33.5 78.5l37 264q8 55 -11.5 77.5t-74.5 22.5z" />
    <glyph glyph-name="ntilde" unicode="&#xf1;" horiz-adv-x="1665" 
d="M36 0l64 453q10 77 51 113.5t118 36.5h1211q77 0 108 -36.5t20 -113.5l-63 -453h-65l62 445q8 55 -11.5 78t-74.5 23h-1179q-55 0 -80.5 -22.5t-33.5 -78.5l-62 -445h-65zM681 666l6 45q63 49 117 49q35 0 92 -27.5t90 -27.5q53 0 112 50l-6 -46q-62 -49 -118 -49
q-35 0 -93 27.5t-90 27.5q-51 0 -110 -49z" />
    <glyph glyph-name="ograve" unicode="&#xf2;" horiz-adv-x="1650" 
d="M1485 603q77 0 108.5 -36.5t20.5 -113.5l-43 -303q-11 -77 -52 -113.5t-118 -36.5h-1214q-77 0 -108.5 36.5t-20.5 113.5l43 303q11 77 52 113.5t118 36.5h1214zM1394 57q55 0 80.5 22.5t33.5 78.5l40 287q7 55 -12 78t-74 23h-1183q-55 0 -81 -22.5t-34 -78.5l-40 -287
q-8 -55 11.5 -78t74.5 -23h1184zM901 660l-202 107h104l172 -107h-74z" />
    <glyph glyph-name="oacute" unicode="&#xf3;" horiz-adv-x="1650" 
d="M1485 603q77 0 108.5 -36.5t20.5 -113.5l-43 -303q-11 -77 -52 -113.5t-118 -36.5h-1214q-77 0 -108.5 36.5t-20.5 113.5l43 303q11 77 52 113.5t118 36.5h1214zM1394 57q55 0 80.5 22.5t33.5 78.5l40 287q7 55 -12 78t-74 23h-1183q-55 0 -81 -22.5t-34 -78.5l-40 -287
q-8 -55 11.5 -78t74.5 -23h1184zM1109 767l-237 -107h-76l201 107h112z" />
    <glyph glyph-name="ocircumflex" unicode="&#xf4;" horiz-adv-x="1650" 
d="M1485 603q77 0 108.5 -36.5t20.5 -113.5l-43 -303q-11 -77 -52 -113.5t-118 -36.5h-1214q-77 0 -108.5 36.5t-20.5 113.5l43 303q11 77 52 113.5t118 36.5h1214zM1394 57q55 0 80.5 22.5t33.5 78.5l40 287q7 55 -12 78t-74 23h-1183q-55 0 -81 -22.5t-34 -78.5l-40 -287
q-8 -55 11.5 -78t74.5 -23h1184zM898 734l-177 -74h-69l206 107h88l175 -107h-66z" />
    <glyph glyph-name="otilde" unicode="&#xf5;" horiz-adv-x="1650" 
d="M1485 603q77 0 108.5 -36.5t20.5 -113.5l-43 -303q-11 -77 -52 -113.5t-118 -36.5h-1214q-77 0 -108.5 36.5t-20.5 113.5l43 303q11 77 52 113.5t118 36.5h1214zM1394 57q55 0 80.5 22.5t33.5 78.5l40 287q7 55 -12 78t-74 23h-1183q-55 0 -81 -22.5t-34 -78.5l-40 -287
q-8 -55 11.5 -78t74.5 -23h1184zM685 666l6 45q63 49 117 49q35 0 92 -27.5t90 -27.5q53 0 112 50l-6 -46q-62 -49 -118 -49q-35 0 -93 27.5t-90 27.5q-51 0 -110 -49z" />
    <glyph glyph-name="odieresis" unicode="&#xf6;" horiz-adv-x="1650" 
d="M1485 603q77 0 108.5 -36.5t20.5 -113.5l-43 -303q-11 -77 -52 -113.5t-118 -36.5h-1214q-77 0 -108.5 36.5t-20.5 113.5l43 303q11 77 52 113.5t118 36.5h1214zM1394 57q55 0 80.5 22.5t33.5 78.5l40 287q7 55 -12 78t-74 23h-1183q-55 0 -81 -22.5t-34 -78.5l-40 -287
q-8 -55 11.5 -78t74.5 -23h1184zM789 737l-8 -54h-102l8 54h102zM1108 737l-8 -54h-102l7 54h103z" />
    <glyph glyph-name="divide" unicode="&#xf7;" 
d="M974 142v-68h-98v68h98zM974 626v-68h-98v68h98zM1773 321h-1696v57h1696v-57z" />
    <glyph glyph-name="oslash" unicode="&#xf8;" horiz-adv-x="1650" 
d="M1485 603q77 0 108.5 -36.5t20.5 -113.5l-43 -303q-11 -77 -52 -113.5t-118 -36.5h-1214q-77 0 -108.5 36.5t-20.5 113.5l43 303q11 77 52 113.5t118 36.5h1214zM1394 57q55 0 80.5 22.5t33.5 78.5l40 287q6 46 -6 69t-47 29l-1194 -486h1093zM172 60l1193 486h-1086
q-55 0 -81 -22.5t-34 -78.5l-40 -287q-7 -45 4.5 -68t43.5 -30z" />
    <glyph glyph-name="ugrave" unicode="&#xf9;" horiz-adv-x="1665" 
d="M1399 57q55 0 80.5 22.5t33.5 78.5l62 445h65l-63 -453q-11 -77 -52 -113.5t-118 -36.5h-1211q-76 0 -107.5 36.5t-20.5 113.5l63 453h65l-62 -445q-8 -55 11.5 -78t74.5 -23h1179zM912 660l-202 107h104l172 -107h-74z" />
    <glyph glyph-name="uacute" unicode="&#xfa;" horiz-adv-x="1665" 
d="M1399 57q55 0 80.5 22.5t33.5 78.5l62 445h65l-63 -453q-11 -77 -52 -113.5t-118 -36.5h-1211q-76 0 -107.5 36.5t-20.5 113.5l63 453h65l-62 -445q-8 -55 11.5 -78t74.5 -23h1179zM1117 767l-237 -107h-76l201 107h112z" />
    <glyph glyph-name="ucircumflex" unicode="&#xfb;" horiz-adv-x="1665" 
d="M1399 57q55 0 80.5 22.5t33.5 78.5l62 445h65l-63 -453q-11 -77 -52 -113.5t-118 -36.5h-1211q-76 0 -107.5 36.5t-20.5 113.5l63 453h65l-62 -445q-8 -55 11.5 -78t74.5 -23h1179zM905 734l-177 -74h-69l206 107h88l175 -107h-66z" />
    <glyph glyph-name="udieresis" unicode="&#xfc;" horiz-adv-x="1665" 
d="M1399 57q55 0 80.5 22.5t33.5 78.5l62 445h65l-63 -453q-11 -77 -52 -113.5t-118 -36.5h-1211q-76 0 -107.5 36.5t-20.5 113.5l63 453h65l-62 -445q-8 -55 11.5 -78t74.5 -23h1179zM796 737l-8 -54h-102l8 54h102zM1115 737l-8 -54h-102l7 54h103z" />
    <glyph glyph-name="yacute" unicode="&#xfd;" horiz-adv-x="1676" 
d="M1338 -167h-1281l8 57h1274q69 0 104 30.5t44 100.5l11 73q-17 -36 -49 -53t-85 -17h-1171q-77 0 -108.5 36t-20.5 113l60 430h65l-59 -422q-8 -55 11.5 -77.5t75.5 -22.5h1179q55 0 80.5 22.5t33.5 77.5l59 422h65l-82 -582q-14 -97 -65.5 -142.5t-148.5 -45.5z
M1115 767l-237 -107h-76l201 107h112z" />
    <glyph glyph-name="thorn" unicode="&#xfe;" horiz-adv-x="1671" 
d="M219 770l-24 -167h1300q77 0 108.5 -36.5t20.5 -113.5l-43 -303q-11 -77 -52 -113.5t-118 -36.5h-1176q-102 0 -115 71l-33 -238h-65l132 937h65zM187 546l-54 -388q-8 -55 11.5 -78t74.5 -23h1184q55 0 81 22.5t34 78.5l40 287q8 56 -12 78.5t-75 22.5h-1284z" />
    <glyph glyph-name="ydieresis" unicode="&#xff;" horiz-adv-x="1676" 
d="M1338 -167h-1281l8 57h1274q69 0 104 30.5t44 100.5l11 73q-17 -36 -49 -53t-85 -17h-1171q-77 0 -108.5 36t-20.5 113l60 430h65l-59 -422q-8 -55 11.5 -77.5t75.5 -22.5h1179q55 0 80.5 22.5t33.5 77.5l59 422h65l-82 -582q-14 -97 -65.5 -142.5t-148.5 -45.5zM794 737
l-8 -54h-102l8 54h102zM1113 737l-8 -54h-102l7 54h103z" />
    <glyph glyph-name="Amacron" unicode="&#x100;" horiz-adv-x="1878" 
d="M1752 0h-66l45 321h-1579l-44 -321h-66l77 548q21 152 173 152h1406q152 0 131 -152zM1674 641h-1374q-56 0 -83 -23.5t-34 -81.5l-22 -157h1578l22 157q8 58 -11.5 81.5t-75.5 23.5zM1209 787h-406l6 39h405z" />
    <glyph glyph-name="amacron" unicode="&#x101;" horiz-adv-x="1654" 
d="M1534 330l17 115q7 55 -12 78t-74 23h-1338l8 57h1353q77 0 108.5 -36.5t20.5 -113.5l-43 -303q-11 -77 -52 -113.5t-118 -36.5h-1251q-69 0 -96.5 32.5t-17.5 102.5l8 59q10 70 46.5 103t104.5 33h1336zM1526 273h-1321q-44 0 -65.5 -19t-27.5 -63l-8 -52
q-6 -44 10.5 -63t60.5 -19h1221q55 0 81 22.5t34 78.5zM1087 693h-406l6 39h405z" />
    <glyph glyph-name="Abreve" unicode="&#x102;" horiz-adv-x="1878" 
d="M1752 0h-66l45 321h-1579l-44 -321h-66l77 548q21 152 173 152h1406q152 0 131 -152zM1674 641h-1374q-56 0 -83 -23.5t-34 -81.5l-22 -157h1578l22 157q8 58 -11.5 81.5t-75.5 23.5zM808 822l4 45q63 -69 194 -69q130 0 211 69l-3 -45q-84 -70 -213 -70t-193 70z" />
    <glyph glyph-name="abreve" unicode="&#x103;" horiz-adv-x="1654" 
d="M1534 330l17 115q7 55 -12 78t-74 23h-1338l8 57h1353q77 0 108.5 -36.5t20.5 -113.5l-43 -303q-11 -77 -52 -113.5t-118 -36.5h-1251q-69 0 -96.5 32.5t-17.5 102.5l8 59q10 70 46.5 103t104.5 33h1336zM1526 273h-1321q-44 0 -65.5 -19t-27.5 -63l-8 -52
q-6 -44 10.5 -63t60.5 -19h1221q55 0 81 22.5t34 78.5zM686 728l4 45q63 -69 194 -69q130 0 211 69l-3 -45q-84 -70 -213 -70t-193 70z" />
    <glyph glyph-name="Aogonek" unicode="&#x104;" horiz-adv-x="1878" 
d="M1677 -44h16l7 44h-14l45 321h-1579l-44 -321h-66l77 548q21 152 173 152h1406q152 0 131 -152l-77 -548h-32l-9 -64h-23q-132 0 -200 -4.5t-89.5 -12.5t-21.5 -24q0 -14 43 -14h323l-7 -46h-322q-78 0 -78 40q0 34 24.5 50t96 23.5t220.5 7.5zM1674 641h-1374
q-56 0 -83 -23.5t-34 -81.5l-22 -157h1578l22 157q8 58 -11.5 81.5t-75.5 23.5z" />
    <glyph glyph-name="aogonek" unicode="&#x105;" horiz-adv-x="1654" 
d="M1538 -165h-322q-78 0 -78 40q0 34 24.5 50t96 23.5t220.5 7.5h16l10 67q-37 -23 -101 -23h-1251q-69 0 -96.5 32.5t-17.5 102.5l8 59q10 70 46.5 103t104.5 33h1336l17 115q7 55 -12 78t-74 23h-1338l8 57h1353q77 0 108.5 -36.5t20.5 -113.5l-43 -303q-11 -72 -46 -109
l-15 -105h-23q-132 0 -200 -4.5t-89.5 -12.5t-21.5 -24q0 -14 43 -14h323zM1526 273h-1321q-44 0 -65.5 -19t-27.5 -63l-8 -52q-6 -44 10.5 -63t60.5 -19h1221q55 0 81 22.5t34 78.5z" />
    <glyph glyph-name="Cacute" unicode="&#x106;" horiz-adv-x="1774" 
d="M195 0q-78 0 -110 37.5t-21 114.5l55 396q22 152 174 152h1494l-9 -59h-1478q-56 0 -82 -23.5t-34 -81.5l-53 -372q-8 -58 12 -81.5t76 -23.5h1478l-8 -59h-1494zM1215 861l-237 -107h-76l201 107h112z" />
    <glyph glyph-name="cacute" unicode="&#x107;" horiz-adv-x="1589" 
d="M187 0q-77 0 -108.5 36.5t-20.5 113.5l43 303q11 77 52 113.5t118 36.5h1316l-8 -57h-1300q-55 0 -81 -22.5t-34 -78.5l-40 -287q-8 -55 11.5 -78t74.5 -23h1301l-8 -57h-1316zM1115 767l-237 -107h-76l201 107h112z" />
    <glyph glyph-name="Ccircumflex" unicode="&#x108;" horiz-adv-x="1774" 
d="M195 0q-78 0 -110 37.5t-21 114.5l55 396q22 152 174 152h1494l-9 -59h-1478q-56 0 -82 -23.5t-34 -81.5l-53 -372q-8 -58 12 -81.5t76 -23.5h1478l-8 -59h-1494zM1011 828l-177 -74h-69l206 107h88l175 -107h-66z" />
    <glyph glyph-name="ccircumflex" unicode="&#x109;" horiz-adv-x="1589" 
d="M187 0q-77 0 -108.5 36.5t-20.5 113.5l43 303q11 77 52 113.5t118 36.5h1316l-8 -57h-1300q-55 0 -81 -22.5t-34 -78.5l-40 -287q-8 -55 11.5 -78t74.5 -23h1301l-8 -57h-1316zM904 734l-177 -74h-69l206 107h88l175 -107h-66z" />
    <glyph glyph-name="Cdotaccent" unicode="&#x10a;" horiz-adv-x="1774" 
d="M195 0q-78 0 -110 37.5t-21 114.5l55 396q22 152 174 152h1494l-9 -59h-1478q-56 0 -82 -23.5t-34 -81.5l-53 -372q-8 -58 12 -81.5t76 -23.5h1478l-8 -59h-1494zM1061 831l-7 -54h-102l7 54h102z" />
    <glyph glyph-name="cdotaccent" unicode="&#x10b;" horiz-adv-x="1589" 
d="M187 0q-77 0 -108.5 36.5t-20.5 113.5l43 303q11 77 52 113.5t118 36.5h1316l-8 -57h-1300q-55 0 -81 -22.5t-34 -78.5l-40 -287q-8 -55 11.5 -78t74.5 -23h1301l-8 -57h-1316zM954 737l-7 -54h-102l7 54h102z" />
    <glyph glyph-name="Ccaron" unicode="&#x10c;" horiz-adv-x="1774" 
d="M195 0q-78 0 -110 37.5t-21 114.5l55 396q22 152 174 152h1494l-9 -59h-1478q-56 0 -82 -23.5t-34 -81.5l-53 -372q-8 -58 12 -81.5t76 -23.5h1478l-8 -59h-1494zM846 861l157 -75l178 75h68l-205 -107h-88l-176 107h66z" />
    <glyph glyph-name="ccaron" unicode="&#x10d;" horiz-adv-x="1589" 
d="M187 0q-77 0 -108.5 36.5t-20.5 113.5l43 303q11 77 52 113.5t118 36.5h1316l-8 -57h-1300q-55 0 -81 -22.5t-34 -78.5l-40 -287q-8 -55 11.5 -78t74.5 -23h1301l-8 -57h-1316zM739 767l157 -75l178 75h68l-205 -107h-88l-176 107h66z" />
    <glyph glyph-name="Dcaron" unicode="&#x10e;" horiz-adv-x="1873" 
d="M1649 700q104 0 150 -53.5t31 -157.5l-39 -278q-29 -211 -240 -211h-1499l98 700h1499zM1548 59q157 0 178 157l37 268q12 81 -21.5 119t-111.5 38h-1422l-82 -582h1422zM835 861l157 -75l178 75h68l-205 -107h-88l-176 107h66z" />
    <glyph glyph-name="dcaron" unicode="&#x10f;" horiz-adv-x="1877" 
d="M1660 770l-88 -620q-11 -77 -52 -113.5t-118 -36.5h-1215q-77 0 -108.5 36.5t-20.5 113.5l43 303q11 77 52 113.5t118 36.5h1176q101 0 114 -71l34 238h65zM1509 158l40 287q7 55 -12 78t-74 23h-1184q-55 0 -81 -22.5t-34 -78.5l-40 -287q-8 -55 11.5 -78t74.5 -23h1185
q55 0 80.5 22.5t33.5 78.5zM1887 700l-10 -65q-14 -99 -98 -99h-17l4 32h17q19 0 29 11t14 38l3 18h-53l9 65h102z" />
    <glyph glyph-name="Dcroat" unicode="&#x110;" horiz-adv-x="1873" 
d="M1649 700q104 0 150 -53.5t31 -157.5l-39 -278q-29 -211 -240 -211h-1499l45 321h-77l8 58h77l45 321h1499zM1548 59q157 0 178 157l37 268q12 81 -21.5 119t-111.5 38h-1422l-37 -262h270l-8 -58h-270l-37 -262h1422z" />
    <glyph glyph-name="dcroat" unicode="&#x111;" horiz-adv-x="1661" 
d="M1660 770l-10 -72h77l-6 -40h-77l-72 -508q-11 -77 -52 -113.5t-118 -36.5h-1215q-77 0 -108.5 36.5t-20.5 113.5l43 303q11 77 52 113.5t118 36.5h1176q101 0 114 -71l18 126h-263l5 40h263l11 72h65zM1509 158l40 287q7 55 -12 78t-74 23h-1184q-55 0 -81 -22.5
t-34 -78.5l-40 -287q-8 -55 11.5 -78t74.5 -23h1185q55 0 80.5 22.5t33.5 78.5z" />
    <glyph glyph-name="Emacron" unicode="&#x112;" horiz-adv-x="1835" 
d="M52 0l98 700h1687l-8 -59h-1621l-38 -262h1516l-8 -58h-1516l-36 -262h1621l-8 -59h-1687zM1214 787h-406l6 39h405z" />
    <glyph glyph-name="emacron" unicode="&#x113;" horiz-adv-x="1654" 
d="M1628 408q-10 -70 -46.5 -102.5t-104.5 -32.5h-1336l-16 -115q-8 -55 12.5 -78t73.5 -23h1338l-8 -57h-1353q-83 0 -110.5 41t-15.5 127l40 285q11 76 52 113t118 37h1251q69 0 96.5 -32.5t16.5 -102.5zM1501 546h-1221q-61 0 -84.5 -27t-33.5 -98l-13 -91h1322
q43 0 64.5 18t28.5 63l6 48q7 48 -8 67.5t-61 19.5zM1118 693h-406l6 39h405z" />
    <glyph glyph-name="Ebreve" unicode="&#x114;" horiz-adv-x="1835" 
d="M52 0l98 700h1687l-8 -59h-1621l-38 -262h1516l-8 -58h-1516l-36 -262h1621l-8 -59h-1687zM813 822l4 45q63 -69 194 -69t211 69l-3 -45q-84 -70 -213 -70t-193 70z" />
    <glyph glyph-name="ebreve" unicode="&#x115;" horiz-adv-x="1654" 
d="M1628 408q-10 -70 -46.5 -102.5t-104.5 -32.5h-1336l-16 -115q-8 -55 12.5 -78t73.5 -23h1338l-8 -57h-1353q-83 0 -110.5 41t-15.5 127l40 285q11 76 52 113t118 37h1251q69 0 96.5 -32.5t16.5 -102.5zM1501 546h-1221q-61 0 -84.5 -27t-33.5 -98l-13 -91h1322
q43 0 64.5 18t28.5 63l6 48q7 48 -8 67.5t-61 19.5zM717 728l4 45q63 -69 194 -69t211 69l-3 -45q-84 -70 -213 -70t-193 70z" />
    <glyph glyph-name="Edotaccent" unicode="&#x116;" horiz-adv-x="1835" 
d="M52 0l98 700h1687l-8 -59h-1621l-38 -262h1516l-8 -58h-1516l-36 -262h1621l-8 -59h-1687zM1068 831l-7 -54h-102l7 54h102z" />
    <glyph glyph-name="edotaccent" unicode="&#x117;" horiz-adv-x="1654" 
d="M1628 408q-10 -70 -46.5 -102.5t-104.5 -32.5h-1336l-16 -115q-8 -55 12.5 -78t73.5 -23h1338l-8 -57h-1353q-83 0 -110.5 41t-15.5 127l40 285q11 76 52 113t118 37h1251q69 0 96.5 -32.5t16.5 -102.5zM1501 546h-1221q-61 0 -84.5 -27t-33.5 -98l-13 -91h1322
q43 0 64.5 18t28.5 63l6 48q7 48 -8 67.5t-61 19.5zM972 737l-7 -54h-102l7 54h102z" />
    <glyph glyph-name="Eogonek" unicode="&#x118;" horiz-adv-x="1835" 
d="M1657 -44h16l7 44h-1628l98 700h1687l-8 -59h-1621l-38 -262h1516l-8 -58h-1516l-36 -262h1621l-8 -59h-39l-9 -64h-23q-132 0 -200 -4.5t-89.5 -12.5t-21.5 -24q0 -14 43 -14h323l-7 -46h-322q-78 0 -78 40q0 34 24.5 50t96 23.5t220.5 7.5z" />
    <glyph glyph-name="eogonek" unicode="&#x119;" horiz-adv-x="1654" 
d="M1501 546h-1221q-61 0 -84.5 -27t-33.5 -98l-13 -91h1322q43 0 64.5 18t28.5 63l6 48q7 48 -8 67.5t-61 19.5zM1517 -165h-322q-78 0 -78 40q0 34 24.5 50t96 23.5t220.5 7.5h28l7 44h-1305q-83 0 -110.5 41t-15.5 127l40 285q11 76 52 113t118 37h1251q69 0 96.5 -32.5
t16.5 -102.5l-8 -60q-10 -70 -46.5 -102.5t-104.5 -32.5h-1336l-16 -115q-8 -55 12.5 -78t73.5 -23h1338l-8 -57h-27l-10 -64h-35q-132 0 -200 -4.5t-89.5 -12.5t-21.5 -24q0 -14 43 -14h323z" />
    <glyph glyph-name="Ecaron" unicode="&#x11a;" horiz-adv-x="1835" 
d="M52 0l98 700h1687l-8 -59h-1621l-38 -262h1516l-8 -58h-1516l-36 -262h1621l-8 -59h-1687zM853 861l157 -75l178 75h68l-205 -107h-88l-176 107h66z" />
    <glyph glyph-name="ecaron" unicode="&#x11b;" horiz-adv-x="1654" 
d="M1628 408q-10 -70 -46.5 -102.5t-104.5 -32.5h-1336l-16 -115q-8 -55 12.5 -78t73.5 -23h1338l-8 -57h-1353q-83 0 -110.5 41t-15.5 127l40 285q11 76 52 113t118 37h1251q69 0 96.5 -32.5t16.5 -102.5zM1501 546h-1221q-61 0 -84.5 -27t-33.5 -98l-13 -91h1322
q43 0 64.5 18t28.5 63l6 48q7 48 -8 67.5t-61 19.5zM757 767l157 -75l178 75h68l-205 -107h-88l-176 107h66z" />
    <glyph glyph-name="Gcircumflex" unicode="&#x11c;" horiz-adv-x="1857" 
d="M1608 59q55 0 76.5 19t29.5 75l23 168h-919l8 58h985l-33 -238q-11 -75 -47.5 -108t-112.5 -33h-1423q-78 0 -110 37.5t-21 114.5l55 396q22 152 174 152h1539l-8 -59h-1524q-56 0 -82 -23.5t-34 -81.5l-53 -372q-8 -58 12 -81.5t76 -23.5h1389zM1028 828l-177 -74h-69
l206 107h88l175 -107h-66z" />
    <glyph glyph-name="gcircumflex" unicode="&#x11d;" horiz-adv-x="1661" 
d="M1391 81q55 0 80.5 22.5t33.5 77.5l37 264q7 55 -12 78t-74 23h-1184q-55 0 -81 -22.5t-34 -78.5l-36 -264q-8 -55 11.5 -77.5t74.5 -22.5h1184zM1359 24h-1176q-77 0 -108.5 36t-20.5 113l40 280q11 77 52 113.5t118 36.5h1215q77 0 108.5 -36.5t20.5 -113.5l-61 -432
q-14 -97 -65.5 -142.5t-148.5 -45.5h-1286l8 57h1278q68 0 103.5 30.5t45.5 100.5l11 73q-17 -36 -49 -53t-85 -17zM896 734l-177 -74h-69l206 107h88l175 -107h-66z" />
    <glyph glyph-name="Gbreve" unicode="&#x11e;" horiz-adv-x="1857" 
d="M1608 59q55 0 76.5 19t29.5 75l23 168h-919l8 58h985l-33 -238q-11 -75 -47.5 -108t-112.5 -33h-1423q-78 0 -110 37.5t-21 114.5l55 396q22 152 174 152h1539l-8 -59h-1524q-56 0 -82 -23.5t-34 -81.5l-53 -372q-8 -58 12 -81.5t76 -23.5h1389zM823 822l4 45
q63 -69 194 -69q130 0 211 69l-3 -45q-84 -70 -213 -70t-193 70z" />
    <glyph glyph-name="gbreve" unicode="&#x11f;" horiz-adv-x="1661" 
d="M1391 81q55 0 80.5 22.5t33.5 77.5l37 264q7 55 -12 78t-74 23h-1184q-55 0 -81 -22.5t-34 -78.5l-36 -264q-8 -55 11.5 -77.5t74.5 -22.5h1184zM1359 24h-1176q-77 0 -108.5 36t-20.5 113l40 280q11 77 52 113.5t118 36.5h1215q77 0 108.5 -36.5t20.5 -113.5l-61 -432
q-14 -97 -65.5 -142.5t-148.5 -45.5h-1286l8 57h1278q68 0 103.5 30.5t45.5 100.5l11 73q-17 -36 -49 -53t-85 -17zM691 728l4 45q63 -69 194 -69q130 0 211 69l-3 -45q-84 -70 -213 -70t-193 70z" />
    <glyph glyph-name="Gdotaccent" unicode="&#x120;" horiz-adv-x="1857" 
d="M1608 59q55 0 76.5 19t29.5 75l23 168h-919l8 58h985l-33 -238q-11 -75 -47.5 -108t-112.5 -33h-1423q-78 0 -110 37.5t-21 114.5l55 396q22 152 174 152h1539l-8 -59h-1524q-56 0 -82 -23.5t-34 -81.5l-53 -372q-8 -58 12 -81.5t76 -23.5h1389zM1078 831l-7 -54h-102
l7 54h102z" />
    <glyph glyph-name="gdotaccent" unicode="&#x121;" horiz-adv-x="1661" 
d="M1391 81q55 0 80.5 22.5t33.5 77.5l37 264q7 55 -12 78t-74 23h-1184q-55 0 -81 -22.5t-34 -78.5l-36 -264q-8 -55 11.5 -77.5t74.5 -22.5h1184zM1359 24h-1176q-77 0 -108.5 36t-20.5 113l40 280q11 77 52 113.5t118 36.5h1215q77 0 108.5 -36.5t20.5 -113.5l-61 -432
q-14 -97 -65.5 -142.5t-148.5 -45.5h-1286l8 57h1278q68 0 103.5 30.5t45.5 100.5l11 73q-17 -36 -49 -53t-85 -17zM946 737l-7 -54h-102l7 54h102z" />
    <glyph glyph-name="uni0122" unicode="&#x122;" horiz-adv-x="1857" 
d="M1608 59q55 0 76.5 19t29.5 75l23 168h-919l8 58h985l-33 -238q-11 -75 -47.5 -108t-112.5 -33h-1423q-78 0 -110 37.5t-21 114.5l55 396q22 152 174 152h1539l-8 -59h-1524q-56 0 -82 -23.5t-34 -81.5l-53 -372q-8 -58 12 -81.5t76 -23.5h1389zM947 -86l-6 -46
q-12 -80 -81 -80h-25l3 25h24q30 0 36 38l2 13h-58l7 50h98z" />
    <glyph glyph-name="uni0123" unicode="&#x123;" horiz-adv-x="1661" 
d="M839 683l7 47q10 80 81 80h24l-4 -26h-24q-30 0 -35 -37l-1 -13h58l-8 -51h-98zM1391 81q55 0 80.5 22.5t33.5 77.5l37 264q7 55 -12 78t-74 23h-1184q-55 0 -81 -22.5t-34 -78.5l-36 -264q-8 -55 11.5 -77.5t74.5 -22.5h1184zM1359 24h-1176q-77 0 -108.5 36t-20.5 113
l40 280q11 77 52 113.5t118 36.5h1215q77 0 108.5 -36.5t20.5 -113.5l-61 -432q-14 -97 -65.5 -142.5t-148.5 -45.5h-1286l8 57h1278q68 0 103.5 30.5t45.5 100.5l11 73q-17 -36 -49 -53t-85 -17z" />
    <glyph glyph-name="Hcircumflex" unicode="&#x124;" horiz-adv-x="1912" 
d="M1710 0l45 321h-1593l-44 -321h-66l98 700h66l-46 -321h1593l45 321h66l-98 -700h-66zM1030 828l-177 -74h-69l206 107h88l175 -107h-66z" />
    <glyph glyph-name="hcircumflex" unicode="&#x125;" horiz-adv-x="1676" 
d="M1553 445q7 55 -12 78t-74 23h-1180q-55 0 -81 -23t-33 -78l-62 -445h-65l108 770h65l-34 -238q33 71 134 71h1172q77 0 108 -36.5t20 -113.5l-63 -453h-65zM916 734l-177 -74h-69l206 107h88l175 -107h-66z" />
    <glyph glyph-name="Hbar" unicode="&#x126;" horiz-adv-x="1912" 
d="M1710 0l45 321h-1593l-44 -321h-66l71 506h-45l7 49h45l20 145h66l-21 -145h1593l20 145h66l-21 -145h45l-7 -49h-45l-70 -506h-66zM170 379h1593l18 127h-1593z" />
    <glyph glyph-name="hbar" unicode="&#x127;" horiz-adv-x="1676" 
d="M1553 445q7 55 -12 78t-74 23h-1180q-55 0 -81 -23t-33 -78l-62 -445h-65l92 658h-87l5 40h88l10 72h65l-11 -72h254l-6 -40h-253l-18 -126q33 71 134 71h1172q77 0 108 -36.5t20 -113.5l-63 -453h-65z" />
    <glyph glyph-name="Itilde" unicode="&#x128;" horiz-adv-x="253" 
d="M52 0l98 700h66l-98 -700h-66zM-11 760l6 45q63 49 117 49q35 0 92 -27.5t90 -27.5q53 0 112 50l-6 -46q-62 -49 -118 -49q-35 0 -93 27.5t-90 27.5q-51 0 -110 -49z" />
    <glyph glyph-name="itilde" unicode="&#x129;" horiz-adv-x="357" 
d="M-38 666l6 45q63 49 117 49q35 0 92 -27.5t90 -27.5q53 0 112 50l-6 -46q-62 -49 -118 -49q-35 0 -93 27.5t-90 27.5q-51 0 -110 -49zM203 57h93l-8 -57h-108q-76 0 -104.5 33.5t-17.5 108.5l65 461h64l-63 -454q-7 -52 9.5 -72t69.5 -20z" />
    <glyph glyph-name="Imacron" unicode="&#x12a;" horiz-adv-x="253" 
d="M356 788h-322l5 36h322zM52 0l98 700h66l-98 -700h-66z" />
    <glyph glyph-name="imacron" unicode="&#x12b;" horiz-adv-x="357" 
d="M329 694h-322l5 37h323zM203 57h93l-8 -57h-108q-76 0 -104.5 33.5t-17.5 108.5l65 461h64l-63 -454q-7 -52 9.5 -72t69.5 -20z" />
    <glyph glyph-name="Ibreve" unicode="&#x12c;" horiz-adv-x="253" 
d="M52 0l98 700h66l-98 -700h-66zM-3 822l4 45q63 -69 194 -69t211 69l-3 -45q-84 -70 -213 -70t-193 70z" />
    <glyph glyph-name="ibreve" unicode="&#x12d;" horiz-adv-x="357" 
d="M-30 728l4 45q63 -69 194 -69q130 0 211 69l-3 -45q-84 -70 -213 -70t-193 70zM203 57h93l-8 -57h-108q-76 0 -104.5 33.5t-17.5 108.5l65 461h64l-63 -454q-7 -52 9.5 -72t69.5 -20z" />
    <glyph glyph-name="Iogonek" unicode="&#x12e;" horiz-adv-x="253" 
d="M111 -165h-168q-78 0 -78 40q0 46 47.5 63.5t167.5 17.5l7 44h-35l98 700h66l-98 -700h-11l-9 -64h-21q-171 0 -171 -41q0 -9 9 -11.5t34 -2.5h168z" />
    <glyph glyph-name="iogonek" unicode="&#x12f;" horiz-adv-x="357" 
d="M264 -165h-193q-41 0 -59.5 9t-18.5 32q0 47 52 63.5t189 16.5l6 44h-60q-76 0 -104.5 33.5t-17.5 108.5l65 461h64l-63 -454q-7 -52 9.5 -72t69.5 -20h93l-8 -57h-28l-9 -64h-20q-104 0 -150.5 -9.5t-46.5 -31.5q0 -14 44 -14h192zM229 737l-8 -54h-109l8 54h109z" />
    <glyph glyph-name="Idotaccent" unicode="&#x130;" horiz-adv-x="253" 
d="M52 0l98 700h66l-98 -700h-66zM252 831l-7 -54h-102l7 54h102z" />
    <glyph glyph-name="dotlessi" unicode="&#x131;" horiz-adv-x="357" 
d="M214 57h93l-8 -57h-108q-76 0 -104.5 33.5t-17.5 108.5l65 461h64l-63 -454q-7 -52 9.5 -72t69.5 -20z" />
    <glyph glyph-name="IJ" unicode="&#x132;" horiz-adv-x="2098" 
d="M52 0l98 700h66l-98 -700h-66zM285 141l29 201h66l-27 -189q-7 -56 8.5 -75t70.5 -19h1380q56 0 82 23.5t34 81.5l76 536h66l-77 -548q-22 -152 -174 -152h-1412q-76 0 -104.5 33t-17.5 108z" />
    <glyph glyph-name="Jcircumflex" unicode="&#x134;" horiz-adv-x="1845" 
d="M43 141l29 201h66l-27 -189q-7 -56 8.5 -75t70.5 -19h1380q56 0 82 23.5t34 81.5l76 536h66l-77 -548q-22 -152 -174 -152h-1412q-76 0 -104.5 33t-17.5 108zM1711 828l-177 -74h-69l206 107h88l175 -107h-66z" />
    <glyph glyph-name="jcircumflex" unicode="&#x135;" horiz-adv-x="259" 
d="M-98 -110h54q53 0 75 19t29 73l87 621h65l-88 -628q-11 -77 -48 -109.5t-113 -32.5h-69zM199 734l-177 -74h-69l206 107h88l175 -107h-66z" />
    <glyph glyph-name="uni0136" unicode="&#x136;" horiz-adv-x="1880" 
d="M1860 700l-29 -204q-9 -69 -41 -104t-97 -42q64 -7 85.5 -42t11.5 -104l-28 -204h-66l29 213q8 58 -11 83t-74 25h-1478l-44 -321h-66l97 700h66l-45 -321h1478q56 0 82 25t34 83l30 213h66zM934 -86l-6 -46q-12 -80 -81 -80h-25l3 25h24q30 0 36 38l2 13h-58l7 50h98z
" />
    <glyph glyph-name="uni0137" unicode="&#x137;" horiz-adv-x="1663" 
d="M1545 399l29 204h65l-25 -178q-8 -57 -33 -87.5t-76 -36.5q50 -7 66.5 -37t7.5 -87l-24 -177h-65l28 203q5 37 -9.5 53.5t-51.5 16.5h-1308l-38 -273h-65l108 770h65l-63 -440h1309q71 0 80 69zM846 -86l-6 -46q-12 -80 -81 -80h-25l3 25h24q30 0 36 38l2 13h-58l7 50h98
z" />
    <glyph glyph-name="kgreenlandic" unicode="&#x138;" horiz-adv-x="1663" 
d="M1545 399l29 204h65l-25 -178q-8 -57 -33 -87.5t-76 -36.5q50 -7 66.5 -37t7.5 -87l-24 -177h-65l28 203q5 37 -9.5 53.5t-51.5 16.5h-1308l-38 -273h-65l84 603h65l-39 -273h1309q71 0 80 69z" />
    <glyph glyph-name="Lacute" unicode="&#x139;" horiz-adv-x="1789" 
d="M1729 59l-8 -59h-1669l98 700h66l-90 -641h1603zM460 861l-237 -107h-76l201 107h112z" />
    <glyph glyph-name="lacute" unicode="&#x13a;" horiz-adv-x="355" 
d="M212 57h92l-8 -57h-107q-76 0 -104.5 33.5t-17.5 108.5l88 628h65l-88 -621q-7 -52 10 -72t70 -20zM421 934l-237 -107h-76l201 107h112z" />
    <glyph glyph-name="uni013B" unicode="&#x13b;" horiz-adv-x="1789" 
d="M1729 59l-8 -59h-1669l98 700h66l-90 -641h1603zM902 -86l-6 -46q-12 -80 -81 -80h-25l3 25h24q30 0 36 38l2 13h-58l7 50h98z" />
    <glyph glyph-name="uni013C" unicode="&#x13c;" horiz-adv-x="355" 
d="M212 57h92l-8 -57h-107q-76 0 -104.5 33.5t-17.5 108.5l88 628h65l-88 -621q-7 -52 10 -72t70 -20zM183 -86l-6 -46q-12 -80 -81 -80h-25l3 25h24q30 0 36 38l2 13h-58l7 50h98z" />
    <glyph glyph-name="Lcaron" unicode="&#x13d;" horiz-adv-x="1789" 
d="M1729 59l-8 -59h-1669l98 700h66l-90 -641h1603zM1618 700l-10 -65q-14 -99 -98 -99h-17l4 32h17q19 0 29 11t14 38l3 18h-53l9 65h102z" />
    <glyph glyph-name="lcaron" unicode="&#x13e;" horiz-adv-x="456" 
d="M212 57h92l-8 -57h-107q-76 0 -104.5 33.5t-17.5 108.5l88 628h65l-88 -621q-7 -52 10 -72t70 -20zM466 700l-10 -65q-13 -99 -98 -99h-17l4 32h17q19 0 29 11t14 38l3 18h-53l9 65h102z" />
    <glyph glyph-name="Ldot" unicode="&#x13f;" horiz-adv-x="1789" 
d="M1729 59l-8 -59h-1669l98 700h66l-90 -641h1603zM1052 384l-10 -68h-101l9 68h102z" />
    <glyph glyph-name="ldot" unicode="&#x140;" horiz-adv-x="514" 
d="M212 57h92l-8 -57h-107q-76 0 -104.5 33.5t-17.5 108.5l88 628h65l-88 -621q-7 -52 10 -72t70 -20zM438 384l-10 -68h-101l9 68h102z" />
    <glyph glyph-name="Lslash" unicode="&#x141;" horiz-adv-x="1789" 
d="M1729 59l-8 -59h-1669l32 228l-82 -30l8 58l82 30l58 414h66l-55 -388l514 190l-8 -58l-514 -190l-27 -195h1603z" />
    <glyph glyph-name="lslash" unicode="&#x142;" horiz-adv-x="355" 
d="M201 57h92l-8 -57h-107q-76 0 -104.5 33.5t-17.5 108.5l25 183l-65 -27l8 58l65 27l55 387h65l-51 -358l208 87l-8 -58l-208 -87l-29 -205q-7 -52 10 -72t70 -20z" />
    <glyph glyph-name="Nacute" unicode="&#x143;" horiz-adv-x="1878" 
d="M300 641q-56 0 -82.5 -23.5t-34.5 -81.5l-75 -536h-66l77 548q21 152 173 152h1406q152 0 131 -152l-77 -548h-66l75 536q8 58 -11.5 81.5t-75.5 23.5h-1374zM1225 861l-237 -107h-76l201 107h112z" />
    <glyph glyph-name="nacute" unicode="&#x144;" horiz-adv-x="1665" 
d="M36 0l64 453q10 77 51 113.5t118 36.5h1211q77 0 108 -36.5t20 -113.5l-63 -453h-65l62 445q8 55 -11.5 78t-74.5 23h-1179q-55 0 -80.5 -22.5t-33.5 -78.5l-62 -445h-65zM1102 767l-237 -107h-76l201 107h112z" />
    <glyph glyph-name="uni0145" unicode="&#x145;" horiz-adv-x="1878" 
d="M300 641q-56 0 -82.5 -23.5t-34.5 -81.5l-75 -536h-66l77 548q21 152 173 152h1406q152 0 131 -152l-77 -548h-66l75 536q8 58 -11.5 81.5t-75.5 23.5h-1374zM933 -86l-6 -46q-12 -80 -81 -80h-25l3 25h24q30 0 36 38l2 13h-58l7 50h98z" />
    <glyph glyph-name="uni0146" unicode="&#x146;" horiz-adv-x="1665" 
d="M36 0l64 453q10 77 51 113.5t118 36.5h1211q77 0 108 -36.5t20 -113.5l-63 -453h-65l62 445q8 55 -11.5 78t-74.5 23h-1179q-55 0 -80.5 -22.5t-33.5 -78.5l-62 -445h-65zM827 -86l-6 -46q-12 -80 -81 -80h-25l3 25h24q30 0 36 38l2 13h-58l7 50h98z" />
    <glyph glyph-name="Ncaron" unicode="&#x147;" horiz-adv-x="1878" 
d="M300 641q-56 0 -82.5 -23.5t-34.5 -81.5l-75 -536h-66l77 548q21 152 173 152h1406q152 0 131 -152l-77 -548h-66l75 536q8 58 -11.5 81.5t-75.5 23.5h-1374zM848 861l157 -75l178 75h68l-205 -107h-88l-176 107h66z" />
    <glyph glyph-name="ncaron" unicode="&#x148;" horiz-adv-x="1665" 
d="M36 0l64 453q10 77 51 113.5t118 36.5h1211q77 0 108 -36.5t20 -113.5l-63 -453h-65l62 445q8 55 -11.5 78t-74.5 23h-1179q-55 0 -80.5 -22.5t-33.5 -78.5l-62 -445h-65zM729 767l157 -75l178 75h68l-205 -107h-88l-176 107h66z" />
    <glyph glyph-name="napostrophe" unicode="&#x149;" horiz-adv-x="1817" 
d="M188 0l64 453q10 77 51 113.5t118 36.5h1211q77 0 108 -36.5t20 -113.5l-63 -453h-65l62 445q8 55 -11.5 78t-74.5 23h-1179q-55 0 -80.5 -22.5t-33.5 -78.5l-62 -445h-65zM215 700l-10 -65q-13 -99 -98 -99h-17l4 32h17q19 0 29 11t14 38l3 18h-53l9 65h102z" />
    <glyph glyph-name="Eng" unicode="&#x14a;" horiz-adv-x="1878" 
d="M300 641q-56 0 -82.5 -23.5t-34.5 -81.5l-75 -536h-66l77 548q21 152 173 152h1406q152 0 131 -152l-80 -563q-21 -152 -173 -152h-457l8 59h442q56 0 82 23.5t34 81.5l76 539q8 58 -11.5 81.5t-75.5 23.5h-1374z" />
    <glyph glyph-name="eng" unicode="&#x14b;" horiz-adv-x="1665" 
d="M1318 -110h55q53 0 75 19t29 73l65 463q8 55 -11.5 78t-74.5 23h-1179q-55 0 -80.5 -22.5t-33.5 -78.5l-62 -445h-65l64 453q10 77 51 113.5t118 36.5h1211q77 0 108 -36.5t20 -113.5l-67 -478q-11 -77 -48 -109.5t-114 -32.5h-69z" />
    <glyph glyph-name="Omacron" unicode="&#x14c;" horiz-adv-x="1863" 
d="M206 0q-153 0 -131 152l55 396q22 152 174 152h1411q78 0 110 -37.5t21 -114.5l-55 -396q-22 -152 -174 -152h-1411zM1726 164l52 372q8 58 -11.5 81.5t-75.5 23.5h-1380q-54 0 -81 -24t-35 -81l-53 -372q-7 -58 12.5 -81.5t75.5 -23.5h1380q56 0 82 23.5t34 81.5z
M1224 787h-406l6 39h405z" />
    <glyph glyph-name="omacron" unicode="&#x14d;" horiz-adv-x="1650" 
d="M1485 603q77 0 108.5 -36.5t20.5 -113.5l-43 -303q-11 -77 -52 -113.5t-118 -36.5h-1214q-77 0 -108.5 36.5t-20.5 113.5l43 303q11 77 52 113.5t118 36.5h1214zM1394 57q55 0 80.5 22.5t33.5 78.5l40 287q7 55 -12 78t-74 23h-1183q-55 0 -81 -22.5t-34 -78.5l-40 -287
q-8 -55 11.5 -78t74.5 -23h1184zM1094 693h-406l6 39h405z" />
    <glyph glyph-name="Obreve" unicode="&#x14e;" horiz-adv-x="1863" 
d="M206 0q-153 0 -131 152l55 396q22 152 174 152h1411q78 0 110 -37.5t21 -114.5l-55 -396q-22 -152 -174 -152h-1411zM1726 164l52 372q8 58 -11.5 81.5t-75.5 23.5h-1380q-54 0 -81 -24t-35 -81l-53 -372q-7 -58 12.5 -81.5t75.5 -23.5h1380q56 0 82 23.5t34 81.5z
M823 822l4 45q63 -69 194 -69t211 69l-3 -45q-84 -70 -213 -70t-193 70z" />
    <glyph glyph-name="obreve" unicode="&#x14f;" horiz-adv-x="1650" 
d="M1485 603q77 0 108.5 -36.5t20.5 -113.5l-43 -303q-11 -77 -52 -113.5t-118 -36.5h-1214q-77 0 -108.5 36.5t-20.5 113.5l43 303q11 77 52 113.5t118 36.5h1214zM1394 57q55 0 80.5 22.5t33.5 78.5l40 287q7 55 -12 78t-74 23h-1183q-55 0 -81 -22.5t-34 -78.5l-40 -287
q-8 -55 11.5 -78t74.5 -23h1184zM693 728l4 45q63 -69 194 -69q130 0 211 69l-3 -45q-84 -70 -213 -70t-193 70z" />
    <glyph glyph-name="Ohungarumlaut" unicode="&#x150;" horiz-adv-x="1863" 
d="M206 0q-153 0 -131 152l55 396q22 152 174 152h1411q78 0 110 -37.5t21 -114.5l-55 -396q-22 -152 -174 -152h-1411zM1726 164l52 372q8 58 -11.5 81.5t-75.5 23.5h-1380q-54 0 -81 -24t-35 -81l-53 -372q-7 -58 12.5 -81.5t75.5 -23.5h1380q56 0 82 23.5t34 81.5z
M1360 861l-237 -107h-76l201 107h112zM1074 861l-237 -107h-76l201 107h112z" />
    <glyph glyph-name="ohungarumlaut" unicode="&#x151;" horiz-adv-x="1650" 
d="M1485 603q77 0 108.5 -36.5t20.5 -113.5l-43 -303q-11 -77 -52 -113.5t-118 -36.5h-1214q-77 0 -108.5 36.5t-20.5 113.5l43 303q11 77 52 113.5t118 36.5h1214zM1394 57q55 0 80.5 22.5t33.5 78.5l40 287q7 55 -12 78t-74 23h-1183q-55 0 -81 -22.5t-34 -78.5l-40 -287
q-8 -55 11.5 -78t74.5 -23h1184zM1253 767l-237 -107h-76l201 107h112zM967 767l-237 -107h-76l201 107h112z" />
    <glyph glyph-name="OE" unicode="&#x152;" horiz-adv-x="2863" 
d="M196 0q-78 0 -110 37.5t-21 114.5l55 396q21 152 174 152h2578l-8 -59h-1319l-37 -262h1212l-8 -58h-1212l-36 -262h1318l-8 -59h-2578zM1397 59l82 582h-1178q-56 0 -82.5 -23.5t-33.5 -81.5l-53 -372q-8 -58 11.5 -81.5t75.5 -23.5h1178z" />
    <glyph glyph-name="oe" unicode="&#x153;" horiz-adv-x="2479" 
d="M1203 150l43 303q7 49 -11.5 71t-67.5 22h-888q-55 0 -81 -22.5t-34 -78.5l-40 -287q-8 -55 11.5 -78t74.5 -23h889q49 0 73 22t31 71zM2388 411l7 53q7 44 -9.5 63t-60.5 19h-910q-49 0 -73.5 -22t-31.5 -71l-17 -123h1002q44 0 65.5 18.5t27.5 62.5zM1285 273l-17 -123
q-7 -49 11.5 -71t67.5 -22h1027l-8 -57h-1008q-69 0 -99 24t-30 81q-16 -57 -52 -81t-105 -24h-885q-77 0 -108.5 36.5t-20.5 113.5l43 303q11 77 52 113.5t118 36.5h885q69 0 99 -24t29 -81q16 57 52.5 81t105.5 24h905q69 0 96.5 -32.5t17.5 -102.5l-9 -60
q-10 -70 -46.5 -102.5t-104.5 -32.5h-1016z" />
    <glyph glyph-name="Racute" unicode="&#x154;" horiz-adv-x="1879" 
d="M1839 552l-8 -63q-10 -67 -40.5 -100t-95.5 -40q62 -7 83 -42t12 -103l-28 -204h-66l29 213q8 58 -11 83t-74 25h-1478l-44 -321h-66l98 700h1562q77 0 107.5 -36t19.5 -112zM1650 379q55 0 80 23t33 80l9 59q7 54 -12.5 77t-70.5 23h-1481l-38 -262h1480zM1226 861
l-237 -107h-76l201 107h112z" />
    <glyph glyph-name="racute" unicode="&#x155;" horiz-adv-x="1473" 
d="M1485 603l-8 -57h-1200q-55 0 -80.5 -22.5t-33.5 -78.5l-62 -445h-65l64 453q11 77 52 113.5t118 36.5h1215zM1063 767l-237 -107h-76l201 107h112z" />
    <glyph glyph-name="uni0156" unicode="&#x156;" horiz-adv-x="1879" 
d="M1839 552l-8 -63q-10 -67 -40.5 -100t-95.5 -40q62 -7 83 -42t12 -103l-28 -204h-66l29 213q8 58 -11 83t-74 25h-1478l-44 -321h-66l98 700h1562q77 0 107.5 -36t19.5 -112zM1650 379q55 0 80 23t33 80l9 59q7 54 -12.5 77t-70.5 23h-1481l-38 -262h1480zM955 -86
l-6 -46q-12 -80 -81 -80h-25l3 25h24q30 0 36 38l2 13h-58l7 50h98z" />
    <glyph glyph-name="uni0157" unicode="&#x157;" horiz-adv-x="1473" 
d="M1485 603l-8 -57h-1200q-55 0 -80.5 -22.5t-33.5 -78.5l-62 -445h-65l64 453q11 77 52 113.5t118 36.5h1215zM105 -86l-6 -46q-12 -80 -81 -80h-25l3 25h24q30 0 36 38l2 13h-58l7 50h98z" />
    <glyph glyph-name="Rcaron" unicode="&#x158;" horiz-adv-x="1879" 
d="M1839 552l-8 -63q-10 -67 -40.5 -100t-95.5 -40q62 -7 83 -42t12 -103l-28 -204h-66l29 213q8 58 -11 83t-74 25h-1478l-44 -321h-66l98 700h1562q77 0 107.5 -36t19.5 -112zM1650 379q55 0 80 23t33 80l9 59q7 54 -12.5 77t-70.5 23h-1481l-38 -262h1480zM849 861
l157 -75l178 75h68l-205 -107h-88l-176 107h66z" />
    <glyph glyph-name="rcaron" unicode="&#x159;" horiz-adv-x="1473" 
d="M1485 603l-8 -57h-1200q-55 0 -80.5 -22.5t-33.5 -78.5l-62 -445h-65l64 453q11 77 52 113.5t118 36.5h1215zM686 767l157 -75l178 75h68l-205 -107h-88l-176 107h66z" />
    <glyph glyph-name="Sacute" unicode="&#x15a;" horiz-adv-x="1811" 
d="M221 321q-78 0 -108.5 36t-19.5 113l11 81q11 77 52 113t118 36h1508l-8 -59h-1495q-51 0 -77 -23t-33 -77l-9 -61q-7 -54 12 -77.5t70 -23.5h1372q78 0 109 -36t20 -113l-12 -81q-10 -77 -51 -113t-118 -36h-1547l8 59h1534q51 0 77 23t33 77l8 61q8 54 -11.5 77.5
t-70.5 23.5h-1372zM1192 861l-237 -107h-76l201 107h112z" />
    <glyph glyph-name="sacute" unicode="&#x15b;" horiz-adv-x="1619" 
d="M1571 546h-1334q-44 0 -65.5 -19t-27.5 -63l-7 -53q-6 -44 10 -62.5t60 -18.5h1231q68 0 95.5 -33t17.5 -103l-8 -59q-10 -70 -46.5 -102.5t-104.5 -32.5h-1377l8 57h1363q44 0 65.5 19t27.5 63l7 52q6 44 -10 63t-60 19h-1231q-69 0 -96.5 32.5t-17.5 102.5l9 60
q10 70 46.5 102.5t104.5 32.5h1348zM1083 767l-237 -107h-76l201 107h112z" />
    <glyph glyph-name="Scircumflex" unicode="&#x15c;" horiz-adv-x="1811" 
d="M221 321q-78 0 -108.5 36t-19.5 113l11 81q11 77 52 113t118 36h1508l-8 -59h-1495q-51 0 -77 -23t-33 -77l-9 -61q-7 -54 12 -77.5t70 -23.5h1372q78 0 109 -36t20 -113l-12 -81q-10 -77 -51 -113t-118 -36h-1547l8 59h1534q51 0 77 23t33 77l8 61q8 54 -11.5 77.5
t-70.5 23.5h-1372zM980 828l-177 -74h-69l206 107h88l175 -107h-66z" />
    <glyph glyph-name="scircumflex" unicode="&#x15d;" horiz-adv-x="1619" 
d="M1571 546h-1334q-44 0 -65.5 -19t-27.5 -63l-7 -53q-6 -44 10 -62.5t60 -18.5h1231q68 0 95.5 -33t17.5 -103l-8 -59q-10 -70 -46.5 -102.5t-104.5 -32.5h-1377l8 57h1363q44 0 65.5 19t27.5 63l7 52q6 44 -10 63t-60 19h-1231q-69 0 -96.5 32.5t-17.5 102.5l9 60
q10 70 46.5 102.5t104.5 32.5h1348zM871 734l-177 -74h-69l206 107h88l175 -107h-66z" />
    <glyph glyph-name="Scedilla" unicode="&#x15e;" horiz-adv-x="1811" 
d="M648 -119h285q43 0 60.5 7.5t17.5 28.5q0 11 -9.5 15t-34.5 4h-148l33 64h-837l8 59h1534q51 0 77 23t33 77l8 61q8 54 -11.5 77.5t-70.5 23.5h-1372q-78 0 -108.5 36t-19.5 113l11 81q11 77 52 113t118 36h1508l-8 -59h-1495q-51 0 -77 -23t-33 -77l-9 -61
q-7 -54 12 -77.5t70 -23.5h1372q78 0 109 -36t20 -113l-12 -81q-10 -77 -51 -113t-118 -36h-692l-22 -47h132q41 0 61 -8.5t20 -32.5q0 -77 -134 -77h-286z" />
    <glyph glyph-name="scedilla" unicode="&#x15f;" horiz-adv-x="1619" 
d="M542 -119h285q43 0 60.5 7.5t17.5 28.5q0 11 -9.5 15t-34.5 4h-148l33 64h-731l8 57h1363q44 0 65.5 19t27.5 63l7 52q6 44 -10 63t-60 19h-1231q-69 0 -96.5 32.5t-17.5 102.5l9 60q10 70 46.5 102.5t104.5 32.5h1348l-8 -57h-1334q-44 0 -65.5 -19t-27.5 -63l-7 -53
q-6 -44 10 -62.5t60 -18.5h1231q68 0 95.5 -33t17.5 -103l-8 -59q-10 -70 -46.5 -102.5t-104.5 -32.5h-628l-22 -47h132q41 0 61 -8.5t20 -32.5q0 -77 -134 -77h-286z" />
    <glyph glyph-name="Scaron" unicode="&#x160;" horiz-adv-x="1811" 
d="M221 321q-78 0 -108.5 36t-19.5 113l11 81q11 77 52 113t118 36h1508l-8 -59h-1495q-51 0 -77 -23t-33 -77l-9 -61q-7 -54 12 -77.5t70 -23.5h1372q78 0 109 -36t20 -113l-12 -81q-10 -77 -51 -113t-118 -36h-1547l8 59h1534q51 0 77 23t33 77l8 61q8 54 -11.5 77.5
t-70.5 23.5h-1372zM815 861l157 -75l178 75h68l-205 -107h-88l-176 107h66z" />
    <glyph glyph-name="scaron" unicode="&#x161;" horiz-adv-x="1619" 
d="M1571 546h-1334q-44 0 -65.5 -19t-27.5 -63l-7 -53q-6 -44 10 -62.5t60 -18.5h1231q68 0 95.5 -33t17.5 -103l-8 -59q-10 -70 -46.5 -102.5t-104.5 -32.5h-1377l8 57h1363q44 0 65.5 19t27.5 63l7 52q6 44 -10 63t-60 19h-1231q-69 0 -96.5 32.5t-17.5 102.5l9 60
q10 70 46.5 102.5t104.5 32.5h1348zM706 767l157 -75l178 75h68l-205 -107h-88l-176 107h66z" />
    <glyph glyph-name="uni0162" unicode="&#x162;" horiz-adv-x="1768" 
d="M628 -119h285q43 0 60.5 7.5t17.5 28.5q0 11 -9.5 15t-34.5 4h-148l33 64h-23l90 641h-825l8 59h1716l-9 -59h-824l-90 -641h-25l-22 -47h132q41 0 61 -8.5t20 -32.5q0 -77 -134 -77h-286z" />
    <glyph glyph-name="uni0163" unicode="&#x163;" horiz-adv-x="1511" 
d="M828 -64h-148l33 64h-516q-77 0 -108.5 36.5t-20.5 113.5l87 620h65l-24 -167h1313l-8 -57h-1313l-54 -388q-8 -55 11.5 -78t74.5 -23h1213l-8 -57h-694l-22 -47h132q41 0 61 -8.5t20 -32.5q0 -77 -134 -77h-286l7 46h285q43 0 60.5 7.5t17.5 28.5q0 11 -9.5 15t-34.5 4z
" />
    <glyph glyph-name="Tcaron" unicode="&#x164;" horiz-adv-x="1768" 
d="M1798 700l-9 -59h-824l-90 -641h-66l90 641h-825l8 59h1716zM793 861l157 -75l178 75h68l-205 -107h-88l-176 107h66z" />
    <glyph glyph-name="tcaron" unicode="&#x165;" horiz-adv-x="1743" 
d="M197 0q-77 0 -108.5 36.5t-20.5 113.5l87 620h65l-24 -167h1313l-8 -57h-1313l-54 -388q-8 -55 11.5 -78t74.5 -23h1213l-8 -57h-1228zM1753 700l-10 -65q-14 -99 -98 -99h-17l4 32h17q19 0 29 11t14 38l3 18h-53l9 65h102z" />
    <glyph glyph-name="Tbar" unicode="&#x166;" horiz-adv-x="1768" 
d="M1798 700l-9 -59h-824l-26 -182h176l-7 -49h-176l-57 -410h-66l57 410h-174l7 49h174l26 182h-825l8 59h1716z" />
    <glyph glyph-name="tbar" unicode="&#x167;" horiz-adv-x="1511" 
d="M443 376h-290l-30 -218q-8 -55 11.5 -78t74.5 -23h1213l-8 -57h-1228q-77 0 -108.5 36.5t-20.5 113.5l31 226h-78l7 49h78l49 345h65l-24 -167h1313l-8 -57h-1313l-17 -121h290z" />
    <glyph glyph-name="Utilde" unicode="&#x168;" horiz-adv-x="1878" 
d="M216 0q-153 0 -131 152l77 548h66l-75 -536q-8 -58 11.5 -81.5t75.5 -23.5h1375q56 0 82 23.5t34 81.5l75 536h66l-77 -548q-21 -152 -173 -152h-1406zM822 760l6 45q63 49 117 49q35 0 92 -27.5t90 -27.5q53 0 112 50l-6 -46q-62 -49 -118 -49q-35 0 -93 27.5t-90 27.5
q-51 0 -110 -49z" />
    <glyph glyph-name="utilde" unicode="&#x169;" horiz-adv-x="1665" 
d="M1399 57q55 0 80.5 22.5t33.5 78.5l62 445h65l-63 -453q-11 -77 -52 -113.5t-118 -36.5h-1211q-76 0 -107.5 36.5t-20.5 113.5l63 453h65l-62 -445q-8 -55 11.5 -78t74.5 -23h1179zM692 666l6 45q63 49 117 49q35 0 92 -27.5t90 -27.5q53 0 112 50l-6 -46
q-62 -49 -118 -49q-35 0 -93 27.5t-90 27.5q-51 0 -110 -49z" />
    <glyph glyph-name="Umacron" unicode="&#x16a;" horiz-adv-x="1878" 
d="M216 0q-153 0 -131 152l77 548h66l-75 -536q-8 -58 11.5 -81.5t75.5 -23.5h1375q56 0 82 23.5t34 81.5l75 536h66l-77 -548q-21 -152 -173 -152h-1406zM1231 787h-406l6 39h405z" />
    <glyph glyph-name="umacron" unicode="&#x16b;" horiz-adv-x="1665" 
d="M1399 57q55 0 80.5 22.5t33.5 78.5l62 445h65l-63 -453q-11 -77 -52 -113.5t-118 -36.5h-1211q-76 0 -107.5 36.5t-20.5 113.5l63 453h65l-62 -445q-8 -55 11.5 -78t74.5 -23h1179zM1101 693h-406l6 39h405z" />
    <glyph glyph-name="Ubreve" unicode="&#x16c;" horiz-adv-x="1878" 
d="M216 0q-153 0 -131 152l77 548h66l-75 -536q-8 -58 11.5 -81.5t75.5 -23.5h1375q56 0 82 23.5t34 81.5l75 536h66l-77 -548q-21 -152 -173 -152h-1406zM830 822l4 45q63 -69 194 -69q130 0 211 69l-3 -45q-84 -70 -213 -70t-193 70z" />
    <glyph glyph-name="ubreve" unicode="&#x16d;" horiz-adv-x="1665" 
d="M1399 57q55 0 80.5 22.5t33.5 78.5l62 445h65l-63 -453q-11 -77 -52 -113.5t-118 -36.5h-1211q-76 0 -107.5 36.5t-20.5 113.5l63 453h65l-62 -445q-8 -55 11.5 -78t74.5 -23h1179zM700 728l4 45q63 -69 194 -69t211 69l-3 -45q-84 -70 -213 -70t-193 70z" />
    <glyph glyph-name="Uring" unicode="&#x16e;" horiz-adv-x="1878" 
d="M216 0q-153 0 -131 152l77 548h66l-75 -536q-8 -58 11.5 -81.5t75.5 -23.5h1375q56 0 82 23.5t34 81.5l75 536h66l-77 -548q-21 -152 -173 -152h-1406zM1096 841h-119q-44 0 -44 -37q0 -22 36 -22h119q44 0 44 37q0 22 -36 22zM984 870h114q66 0 66 -47q0 -70 -83 -70
h-114q-66 0 -66 47q0 70 83 70z" />
    <glyph glyph-name="uring" unicode="&#x16f;" horiz-adv-x="1665" 
d="M1399 57q55 0 80.5 22.5t33.5 78.5l62 445h65l-63 -453q-11 -77 -52 -113.5t-118 -36.5h-1211q-76 0 -107.5 36.5t-20.5 113.5l63 453h65l-62 -445q-8 -55 11.5 -78t74.5 -23h1179zM965 747h-119q-44 0 -44 -37q0 -22 36 -22h119q44 0 44 37q0 22 -36 22zM853 776h114
q66 0 66 -47q0 -70 -83 -70h-114q-66 0 -66 47q0 70 83 70z" />
    <glyph glyph-name="Uhungarumlaut" unicode="&#x170;" horiz-adv-x="1878" 
d="M216 0q-153 0 -131 152l77 548h66l-75 -536q-8 -58 11.5 -81.5t75.5 -23.5h1375q56 0 82 23.5t34 81.5l75 536h66l-77 -548q-21 -152 -173 -152h-1406zM1389 861l-237 -107h-76l201 107h112zM1103 861l-237 -107h-76l201 107h112z" />
    <glyph glyph-name="uhungarumlaut" unicode="&#x171;" horiz-adv-x="1665" 
d="M1399 57q55 0 80.5 22.5t33.5 78.5l62 445h65l-63 -453q-11 -77 -52 -113.5t-118 -36.5h-1211q-76 0 -107.5 36.5t-20.5 113.5l63 453h65l-62 -445q-8 -55 11.5 -78t74.5 -23h1179zM1260 767l-237 -107h-76l201 107h112zM974 767l-237 -107h-76l201 107h112z" />
    <glyph glyph-name="Uogonek" unicode="&#x172;" horiz-adv-x="1878" 
d="M1758 -165h-322q-78 0 -78 40q0 34 24.5 50t96 23.5t220.5 7.5h16l10 69q-38 -25 -103 -25h-1406q-153 0 -131 152l77 548h66l-75 -536q-8 -58 11.5 -81.5t75.5 -23.5h1375q56 0 82 23.5t34 81.5l75 536h66l-77 -548q-11 -73 -47 -109l-15 -107h-23q-132 0 -200 -4.5
t-89.5 -12.5t-21.5 -24q0 -14 43 -14h323z" />
    <glyph glyph-name="uogonek" unicode="&#x173;" horiz-adv-x="1665" 
d="M1541 -165h-322q-78 0 -78 40q0 34 24.5 50t96 23.5t220.5 7.5h16l10 68q-39 -24 -101 -24h-1211q-76 0 -107.5 36.5t-20.5 113.5l63 453h65l-62 -445q-8 -55 11.5 -78t74.5 -23h1179q55 0 80.5 22.5t33.5 78.5l62 445h65l-63 -453q-10 -71 -46 -108l-15 -106h-23
q-132 0 -200 -4.5t-89.5 -12.5t-21.5 -24q0 -14 43 -14h323z" />
    <glyph glyph-name="Wcircumflex" unicode="&#x174;" horiz-adv-x="2303" 
d="M2047 0h-763q-73 0 -105 28t-32 91q-17 -63 -56 -91t-112 -28h-763q-153 0 -131 152l77 548h66l-75 -536q-8 -58 11.5 -81.5t75.5 -23.5h760q59 0 86 24.5t35 85.5l75 531h67l-76 -531q-8 -61 13 -85.5t79 -24.5h760q56 0 82.5 23.5t33.5 81.5l76 536h66l-77 -548
q-21 -152 -173 -152zM1248 828l-177 -74h-69l206 107h88l175 -107h-66z" />
    <glyph glyph-name="wcircumflex" unicode="&#x175;" horiz-adv-x="2055" 
d="M1011 105q-16 -57 -52 -81t-105 -24h-658q-76 0 -107.5 36.5t-20.5 113.5l63 453h65l-62 -445q-8 -55 11.5 -78t74.5 -23h660q50 0 74 22t31 71l63 453h65l-63 -453q-7 -49 11.5 -71t67.5 -22h660q55 0 80.5 22.5t33.5 78.5l62 445h65l-63 -453q-11 -77 -52 -113.5
t-118 -36.5h-657q-69 0 -99 24t-30 81zM1100 734l-177 -74h-69l206 107h88l175 -107h-66z" />
    <glyph glyph-name="Ycircumflex" unicode="&#x176;" horiz-adv-x="1835" 
d="M1792 700h66l-33 -227q-21 -152 -173 -152h-678l-44 -321h-66l44 321h-678q-152 0 -131 152l33 227h66l-31 -216q-8 -57 11.5 -81t75.5 -24h1390q56 0 82.5 23.5t34.5 81.5zM1013 828l-177 -74h-69l206 107h88l175 -107h-66z" />
    <glyph glyph-name="ycircumflex" unicode="&#x177;" horiz-adv-x="1676" 
d="M1338 -167h-1281l8 57h1274q69 0 104 30.5t44 100.5l11 73q-17 -36 -49 -53t-85 -17h-1171q-77 0 -108.5 36t-20.5 113l60 430h65l-59 -422q-8 -55 11.5 -77.5t75.5 -22.5h1179q55 0 80.5 22.5t33.5 77.5l59 422h65l-82 -582q-14 -97 -65.5 -142.5t-148.5 -45.5zM903 734
l-177 -74h-69l206 107h88l175 -107h-66z" />
    <glyph glyph-name="Ydieresis" unicode="&#x178;" horiz-adv-x="1835" 
d="M1792 700h66l-33 -227q-21 -152 -173 -152h-678l-44 -321h-66l44 321h-678q-152 0 -131 152l33 227h66l-31 -216q-8 -57 11.5 -81t75.5 -24h1390q56 0 82.5 23.5t34.5 81.5zM904 831l-8 -54h-102l8 54h102zM1223 831l-8 -54h-102l7 54h103z" />
    <glyph glyph-name="Zacute" unicode="&#x179;" horiz-adv-x="1821" 
d="M1572 379q74 0 108.5 29.5t44.5 104.5l18 128h-1612l8 59h1679l-28 -196q-26 -183 -210 -183h-1322q-74 0 -108 -29t-44 -105l-18 -128h1640l-8 -59h-1706l27 196q25 183 209 183h1322zM1207 861l-237 -107h-76l201 107h112z" />
    <glyph glyph-name="zacute" unicode="&#x17a;" horiz-adv-x="1629" 
d="M231 273q-61 0 -92 -27.5t-39 -88.5l-14 -100h1452l-8 -57h-1517l22 156q24 174 197 174h1164q61 0 92 27t40 88l14 101h-1430l8 57h1494l-22 -157q-24 -173 -198 -173h-1163zM1108 767l-237 -107h-76l201 107h112z" />
    <glyph glyph-name="Zdotaccent" unicode="&#x17b;" horiz-adv-x="1821" 
d="M1572 379q74 0 108.5 29.5t44.5 104.5l18 128h-1612l8 59h1679l-28 -196q-26 -183 -210 -183h-1322q-74 0 -108 -29t-44 -105l-18 -128h1640l-8 -59h-1706l27 196q25 183 209 183h1322zM1045 831l-7 -54h-102l7 54h102z" />
    <glyph glyph-name="zdotaccent" unicode="&#x17c;" horiz-adv-x="1629" 
d="M231 273q-61 0 -92 -27.5t-39 -88.5l-14 -100h1452l-8 -57h-1517l22 156q24 174 197 174h1164q61 0 92 27t40 88l14 101h-1430l8 57h1494l-22 -157q-24 -173 -198 -173h-1163zM946 737l-7 -54h-102l7 54h102z" />
    <glyph glyph-name="Zcaron" unicode="&#x17d;" horiz-adv-x="1821" 
d="M1572 379q74 0 108.5 29.5t44.5 104.5l18 128h-1612l8 59h1679l-28 -196q-26 -183 -210 -183h-1322q-74 0 -108 -29t-44 -105l-18 -128h1640l-8 -59h-1706l27 196q25 183 209 183h1322zM830 861l157 -75l178 75h68l-205 -107h-88l-176 107h66z" />
    <glyph glyph-name="zcaron" unicode="&#x17e;" horiz-adv-x="1629" 
d="M231 273q-61 0 -92 -27.5t-39 -88.5l-14 -100h1452l-8 -57h-1517l22 156q24 174 197 174h1164q61 0 92 27t40 88l14 101h-1430l8 57h1494l-22 -157q-24 -173 -198 -173h-1163zM731 767l157 -75l178 75h68l-205 -107h-88l-176 107h66z" />
    <glyph glyph-name="florin" unicode="&#x192;" 
d="M1725 379l-8 -58h-1418l-25 -176q-11 -76 -49.5 -110.5t-115.5 -34.5h-99l8 59h82q56 0 79 20.5t31 76.5l23 165h-178l8 58h178l24 170q11 77 52.5 114t119.5 37h1434l-8 -59h-1419q-55 0 -81 -22t-33 -77l-23 -163h1418z" />
    <glyph glyph-name="AEacute" unicode="&#x1fc;" horiz-adv-x="2861" 
d="M1382 0l44 321h-1274l-44 -321h-66l77 548q21 152 173 152h2571l-8 -59h-1319l-38 -262h1214l-8 -58h-1214l-36 -262h1319l-8 -59h-1383zM300 641q-56 0 -82.5 -23.5t-34.5 -81.5l-22 -157h1273l37 262h-1171zM1742 861l-237 -107h-76l201 107h112z" />
    <glyph glyph-name="aeacute" unicode="&#x1fd;" horiz-adv-x="2467" 
d="M2375 411l7 53q6 44 -10 63t-60 19h-910q-50 0 -74 -22t-31 -71l-18 -123h1002q44 0 65.5 18.5t28.5 62.5zM112 191l-8 -52q-6 -44 10.5 -63t60.5 -19h910q49 0 73.5 22t31.5 71l17 123h-1002q-44 0 -65.5 -19t-27.5 -63zM1058 0h-905q-69 0 -96.5 32.5t-17.5 102.5l8 59
q10 70 46.5 103t104.5 33h1017l17 123q7 49 -11.5 71t-67.5 22h-1026l8 57h1007q69 0 99 -24t30 -81q16 57 52 81t105 24h906q68 0 95.5 -32.5t17.5 -102.5l-8 -60q-10 -70 -46.5 -102.5t-104.5 -32.5h-1017l-16 -123q-8 -49 10.5 -71t68.5 -22h1026l-8 -57h-1008
q-69 0 -99 24t-29 81q-16 -57 -52.5 -81t-105.5 -24zM1517 767l-237 -107h-76l201 107h112z" />
    <glyph glyph-name="Oslashacute" unicode="&#x1fe;" horiz-adv-x="1863" 
d="M206 0q-153 0 -131 152l55 396q22 152 174 152h1411q78 0 110 -37.5t21 -114.5l-55 -396q-22 -152 -174 -152h-1411zM195 61l1401 580h-1285q-54 0 -81 -24t-35 -81l-53 -372q-6 -48 6 -72t47 -31zM1726 164l52 372q7 48 -5 71.5t-46 30.5l-1401 -579h1284q56 0 82 23.5
t34 81.5zM1239 861l-237 -107h-76l201 107h112z" />
    <glyph glyph-name="oslashacute" unicode="&#x1ff;" horiz-adv-x="1650" 
d="M1485 603q77 0 108.5 -36.5t20.5 -113.5l-43 -303q-11 -77 -52 -113.5t-118 -36.5h-1214q-77 0 -108.5 36.5t-20.5 113.5l43 303q11 77 52 113.5t118 36.5h1214zM1394 57q55 0 80.5 22.5t33.5 78.5l40 287q6 46 -6 69t-47 29l-1194 -486h1093zM172 60l1193 486h-1086
q-55 0 -81 -22.5t-34 -78.5l-40 -287q-7 -45 4.5 -68t43.5 -30zM1109 767l-237 -107h-76l201 107h112z" />
    <glyph glyph-name="uni0218" unicode="&#x218;" horiz-adv-x="1811" 
d="M221 321q-78 0 -108.5 36t-19.5 113l11 81q11 77 52 113t118 36h1508l-8 -59h-1495q-51 0 -77 -23t-33 -77l-9 -61q-7 -54 12 -77.5t70 -23.5h1372q78 0 109 -36t20 -113l-12 -81q-10 -77 -51 -113t-118 -36h-1547l8 59h1534q51 0 77 23t33 77l8 61q8 54 -11.5 77.5
t-70.5 23.5h-1372zM900 -86l-6 -46q-12 -80 -81 -80h-25l3 25h24q30 0 36 38l2 13h-58l7 50h98z" />
    <glyph glyph-name="uni0219" unicode="&#x219;" horiz-adv-x="1619" 
d="M1571 546h-1334q-44 0 -65.5 -19t-27.5 -63l-7 -53q-6 -44 10 -62.5t60 -18.5h1231q68 0 95.5 -33t17.5 -103l-8 -59q-10 -70 -46.5 -102.5t-104.5 -32.5h-1377l8 57h1363q44 0 65.5 19t27.5 63l7 52q6 44 -10 63t-60 19h-1231q-69 0 -96.5 32.5t-17.5 102.5l9 60
q10 70 46.5 102.5t104.5 32.5h1348zM789 -86l-6 -46q-12 -80 -81 -80h-25l3 25h24q30 0 36 38l2 13h-58l7 50h98z" />
    <glyph glyph-name="uni021A" unicode="&#x21a;" horiz-adv-x="1768" 
d="M1798 700l-9 -59h-824l-90 -641h-66l90 641h-825l8 59h1716zM878 -86l-6 -46q-12 -80 -81 -80h-25l3 25h24q30 0 36 38l2 13h-58l7 50h98z" />
    <glyph glyph-name="uni021B" unicode="&#x21b;" horiz-adv-x="1511" 
d="M197 0q-77 0 -108.5 36.5t-20.5 113.5l87 620h65l-24 -167h1313l-8 -57h-1313l-54 -388q-8 -55 11.5 -78t74.5 -23h1213l-8 -57h-1228zM761 -86l-6 -46q-12 -80 -81 -80h-25l3 25h24q30 0 36 38l2 13h-58l7 50h98z" />
    <glyph glyph-name="uni0237" unicode="&#x237;" horiz-adv-x="259" 
d="M-98 -110h54q53 0 75 19t29 73l87 621h65l-88 -628q-11 -77 -48 -109.5t-113 -32.5h-69z" />
    <glyph glyph-name="circumflex" unicode="&#x2c6;" horiz-adv-x="471" 
d="M297 734l-177 -74h-69l206 107h88l175 -107h-66z" />
    <glyph glyph-name="caron" unicode="&#x2c7;" horiz-adv-x="471" 
d="M132 767l157 -75l178 75h68l-205 -107h-88l-176 107h66z" />
    <glyph glyph-name="breve" unicode="&#x2d8;" horiz-adv-x="471" 
d="M92 728l4 45q63 -69 194 -69q130 0 211 69l-3 -45q-84 -70 -213 -70t-193 70z" />
    <glyph glyph-name="dotaccent" unicode="&#x2d9;" horiz-adv-x="471" 
d="M347 737l-7 -54h-102l7 54h102z" />
    <glyph glyph-name="ring" unicode="&#x2da;" horiz-adv-x="471" 
d="M357 747h-119q-44 0 -44 -37q0 -22 36 -22h119q44 0 44 37q0 22 -36 22zM245 776h114q66 0 66 -47q0 -70 -83 -70h-114q-66 0 -66 47q0 70 83 70z" />
    <glyph glyph-name="ogonek" unicode="&#x2db;" horiz-adv-x="480" 
d="M352 -64h-23q-132 0 -200 -4.5t-89.5 -12.5t-21.5 -24q0 -14 43 -14h323l-7 -46h-322q-78 0 -78 40q0 34 24.5 50t96 23.5t220.5 7.5h16l7 44h20z" />
    <glyph glyph-name="tilde" unicode="&#x2dc;" horiz-adv-x="471" 
d="M84 666l6 45q63 49 117 49q35 0 92 -27.5t90 -27.5q53 0 112 50l-6 -46q-62 -49 -118 -49q-35 0 -93 27.5t-90 27.5q-51 0 -110 -49z" />
    <glyph glyph-name="hungarumlaut" unicode="&#x2dd;" horiz-adv-x="471" 
d="M610 767l-237 -107h-76l201 107h112zM324 767l-237 -107h-76l201 107h112z" />
    <glyph glyph-name="pi" unicode="&#x3c0;" 
d="M125 0l84 603h1509l-84 -603h-65l76 546h-1379l-76 -546h-65z" />
    <glyph glyph-name="uni1E02" unicode="&#x1e02;" horiz-adv-x="1872" 
d="M1791 211l-9 -63q-10 -76 -50.5 -112t-117.5 -36h-1562l98 700h1562q77 0 107.5 -36t19.5 -112l-8 -63q-10 -67 -40.5 -99.5t-93.5 -39.5q62 -7 82.5 -40t11.5 -99zM1650 379q55 0 80 23t33 80l9 59q7 54 -12.5 77t-70.5 23h-1481l-38 -262h1480zM162 321l-36 -262h1482
q51 0 77 23t33 77l8 59q8 57 -10.5 80t-73.5 23h-1480zM1061 831l-7 -54h-102l7 54h102z" />
    <glyph glyph-name="uni1E03" unicode="&#x1e03;" horiz-adv-x="1661" 
d="M68 150l87 620h65l-34 -238q33 71 134 71h1176q77 0 108.5 -36.5t20.5 -113.5l-43 -303q-11 -77 -52 -113.5t-118 -36.5h-1215q-77 0 -108.5 36.5t-20.5 113.5zM174 445l-40 -287q-8 -55 11.5 -78t74.5 -23h1184q55 0 81 22.5t34 78.5l40 287q7 55 -12 78t-74 23h-1185
q-55 0 -80.5 -22.5t-33.5 -78.5zM970 737l-7 -54h-102l7 54h102z" />
    <glyph glyph-name="uni1E0A" unicode="&#x1e0a;" horiz-adv-x="1873" 
d="M1649 700q104 0 150 -53.5t31 -157.5l-39 -278q-29 -211 -240 -211h-1499l98 700h1499zM1548 59q157 0 178 157l37 268q12 81 -21.5 119t-111.5 38h-1422l-82 -582h1422zM1050 831l-7 -54h-102l7 54h102z" />
    <glyph glyph-name="uni1E0B" unicode="&#x1e0b;" horiz-adv-x="1661" 
d="M1660 770l-88 -620q-11 -77 -52 -113.5t-118 -36.5h-1215q-77 0 -108.5 36.5t-20.5 113.5l43 303q11 77 52 113.5t118 36.5h1176q101 0 114 -71l34 238h65zM1509 158l40 287q7 55 -12 78t-74 23h-1184q-55 0 -81 -22.5t-34 -78.5l-40 -287q-8 -55 11.5 -78t74.5 -23h1185
q55 0 80.5 22.5t33.5 78.5zM935 737l-7 -54h-102l7 54h102z" />
    <glyph glyph-name="uni1E1E" unicode="&#x1e1e;" horiz-adv-x="1799" 
d="M52 0l98 700h1679l-8 -59h-1613l-38 -262h1507l-8 -58h-1507l-44 -321h-66zM1049 831l-7 -54h-102l7 54h102z" />
    <glyph glyph-name="uni1E1F" unicode="&#x1e1f;" horiz-adv-x="1566" 
d="M297 546q-63 0 -95 -27.5t-42 -92.5l-13 -96h1327l-8 -57h-1327l-62 -440h-65l84 597q13 89 60.5 131t136.5 42h1285l-8 -57h-1273zM940 737l-7 -54h-102l7 54h102z" />
    <glyph glyph-name="uni1E40" unicode="&#x1e40;" horiz-adv-x="2303" 
d="M1360 700h763q152 0 131 -152l-77 -548h-66l75 536q8 58 -11.5 81.5t-75.5 23.5h-760q-59 0 -86.5 -24.5t-35.5 -85.5l-74 -531h-67l75 531q8 61 -12 85.5t-79 24.5h-760q-56 0 -82.5 -23.5t-34.5 -81.5l-75 -536h-66l77 548q21 152 173 152h763q73 0 105 -28t30 -91
q17 63 57 91t113 28zM1276 831l-7 -54h-102l7 54h102z" />
    <glyph glyph-name="uni1E41" unicode="&#x1e41;" horiz-adv-x="2055" 
d="M1055 498q16 57 52.5 81t105.5 24h657q77 0 108 -36.5t20 -113.5l-63 -453h-65l62 445q8 55 -11 78t-75 23h-660q-49 0 -73.5 -22t-31.5 -71l-63 -453h-65l63 453q7 49 -11 71t-67 22h-661q-55 0 -80.5 -22.5t-33.5 -78.5l-62 -445h-65l64 453q10 77 51 113.5t118 36.5
h658q69 0 99 -24t29 -81zM1139 737l-7 -54h-102l7 54h102z" />
    <glyph glyph-name="uni1E56" unicode="&#x1e56;" horiz-adv-x="1839" 
d="M52 0l98 700h1556q77 0 108 -36t20 -113l-12 -81q-11 -77 -51.5 -113t-118.5 -36h-1490l-44 -321h-66zM1766 541q7 54 -12 77t-70 23h-1476l-38 -262h1477q51 0 77 23.5t33 77.5zM1067 831l-7 -54h-102l7 54h102z" />
    <glyph glyph-name="uni1E57" unicode="&#x1e57;" horiz-adv-x="1661" 
d="M12 -167l88 620q11 77 52 113.5t118 36.5h1215q77 0 108.5 -36.5t20.5 -113.5l-43 -303q-11 -77 -52 -113.5t-118 -36.5h-1176q-102 0 -115 71l-33 -238h-65zM163 445l-40 -287q-8 -55 11.5 -78t74.5 -23h1184q55 0 81 22.5t34 78.5l40 287q7 55 -12 78t-74 23h-1185
q-55 0 -80.5 -22.5t-33.5 -78.5zM942 737l-7 -54h-102l7 54h102z" />
    <glyph glyph-name="uni1E60" unicode="&#x1e60;" horiz-adv-x="1811" 
d="M221 321q-78 0 -108.5 36t-19.5 113l11 81q11 77 52 113t118 36h1508l-8 -59h-1495q-51 0 -77 -23t-33 -77l-9 -61q-7 -54 12 -77.5t70 -23.5h1372q78 0 109 -36t20 -113l-12 -81q-10 -77 -51 -113t-118 -36h-1547l8 59h1534q51 0 77 23t33 77l8 61q8 54 -11.5 77.5
t-70.5 23.5h-1372zM1030 831l-7 -54h-102l7 54h102z" />
    <glyph glyph-name="uni1E61" unicode="&#x1e61;" horiz-adv-x="1619" 
d="M1571 546h-1334q-44 0 -65.5 -19t-27.5 -63l-7 -53q-6 -44 10 -62.5t60 -18.5h1231q68 0 95.5 -33t17.5 -103l-8 -59q-10 -70 -46.5 -102.5t-104.5 -32.5h-1377l8 57h1363q44 0 65.5 19t27.5 63l7 52q6 44 -10 63t-60 19h-1231q-69 0 -96.5 32.5t-17.5 102.5l9 60
q10 70 46.5 102.5t104.5 32.5h1348zM921 737l-7 -54h-102l7 54h102z" />
    <glyph glyph-name="uni1E6A" unicode="&#x1e6a;" horiz-adv-x="1768" 
d="M1798 700l-9 -59h-824l-90 -641h-66l90 641h-825l8 59h1716zM1008 831l-7 -54h-102l7 54h102z" />
    <glyph glyph-name="uni1E6B" unicode="&#x1e6b;" horiz-adv-x="1511" 
d="M197 0q-77 0 -108.5 36.5t-20.5 113.5l87 620h65l-24 -167h1313l-8 -57h-1313l-54 -388q-8 -55 11.5 -78t74.5 -23h1213l-8 -57h-1228zM907 737l-7 -54h-102l7 54h102z" />
    <glyph glyph-name="Wgrave" unicode="&#x1e80;" horiz-adv-x="2303" 
d="M2047 0h-763q-73 0 -105 28t-32 91q-17 -63 -56 -91t-112 -28h-763q-153 0 -131 152l77 548h66l-75 -536q-8 -58 11.5 -81.5t75.5 -23.5h760q59 0 86 24.5t35 85.5l75 531h67l-76 -531q-8 -61 13 -85.5t79 -24.5h760q56 0 82.5 23.5t33.5 81.5l76 536h66l-77 -548
q-21 -152 -173 -152zM1251 754l-202 107h104l172 -107h-74z" />
    <glyph glyph-name="wgrave" unicode="&#x1e81;" horiz-adv-x="2055" 
d="M1011 105q-16 -57 -52 -81t-105 -24h-658q-76 0 -107.5 36.5t-20.5 113.5l63 453h65l-62 -445q-8 -55 11.5 -78t74.5 -23h660q50 0 74 22t31 71l63 453h65l-63 -453q-7 -49 11.5 -71t67.5 -22h660q55 0 80.5 22.5t33.5 78.5l62 445h65l-63 -453q-11 -77 -52 -113.5
t-118 -36.5h-657q-69 0 -99 24t-30 81zM1104 660l-202 107h104l172 -107h-74z" />
    <glyph glyph-name="Wacute" unicode="&#x1e82;" horiz-adv-x="2303" 
d="M2047 0h-763q-73 0 -105 28t-32 91q-17 -63 -56 -91t-112 -28h-763q-153 0 -131 152l77 548h66l-75 -536q-8 -58 11.5 -81.5t75.5 -23.5h760q59 0 86 24.5t35 85.5l75 531h67l-76 -531q-8 -61 13 -85.5t79 -24.5h760q56 0 82.5 23.5t33.5 81.5l76 536h66l-77 -548
q-21 -152 -173 -152zM1460 861l-237 -107h-76l201 107h112z" />
    <glyph glyph-name="wacute" unicode="&#x1e83;" horiz-adv-x="2055" 
d="M1011 105q-16 -57 -52 -81t-105 -24h-658q-76 0 -107.5 36.5t-20.5 113.5l63 453h65l-62 -445q-8 -55 11.5 -78t74.5 -23h660q50 0 74 22t31 71l63 453h65l-63 -453q-7 -49 11.5 -71t67.5 -22h660q55 0 80.5 22.5t33.5 78.5l62 445h65l-63 -453q-11 -77 -52 -113.5
t-118 -36.5h-657q-69 0 -99 24t-30 81zM1312 767l-237 -107h-76l201 107h112z" />
    <glyph glyph-name="Wdieresis" unicode="&#x1e84;" horiz-adv-x="2303" 
d="M2047 0h-763q-73 0 -105 28t-32 91q-17 -63 -56 -91t-112 -28h-763q-153 0 -131 152l77 548h66l-75 -536q-8 -58 11.5 -81.5t75.5 -23.5h760q59 0 86 24.5t35 85.5l75 531h67l-76 -531q-8 -61 13 -85.5t79 -24.5h760q56 0 82.5 23.5t33.5 81.5l76 536h66l-77 -548
q-21 -152 -173 -152zM1139 831l-8 -54h-102l8 54h102zM1458 831l-8 -54h-102l7 54h103z" />
    <glyph glyph-name="wdieresis" unicode="&#x1e85;" horiz-adv-x="2055" 
d="M1011 105q-16 -57 -52 -81t-105 -24h-658q-76 0 -107.5 36.5t-20.5 113.5l63 453h65l-62 -445q-8 -55 11.5 -78t74.5 -23h660q50 0 74 22t31 71l63 453h65l-63 -453q-7 -49 11.5 -71t67.5 -22h660q55 0 80.5 22.5t33.5 78.5l62 445h65l-63 -453q-11 -77 -52 -113.5
t-118 -36.5h-657q-69 0 -99 24t-30 81zM991 737l-8 -54h-102l8 54h102zM1310 737l-8 -54h-102l7 54h103z" />
    <glyph glyph-name="Ygrave" unicode="&#x1ef2;" horiz-adv-x="1835" 
d="M1792 700h66l-33 -227q-21 -152 -173 -152h-678l-44 -321h-66l44 321h-678q-152 0 -131 152l33 227h66l-31 -216q-8 -57 11.5 -81t75.5 -24h1390q56 0 82.5 23.5t34.5 81.5zM1017 754l-202 107h104l172 -107h-74z" />
    <glyph glyph-name="ygrave" unicode="&#x1ef3;" horiz-adv-x="1676" 
d="M1338 -167h-1281l8 57h1274q69 0 104 30.5t44 100.5l11 73q-17 -36 -49 -53t-85 -17h-1171q-77 0 -108.5 36t-20.5 113l60 430h65l-59 -422q-8 -55 11.5 -77.5t75.5 -22.5h1179q55 0 80.5 22.5t33.5 77.5l59 422h65l-82 -582q-14 -97 -65.5 -142.5t-148.5 -45.5zM907 660
l-202 107h104l172 -107h-74z" />
    <glyph glyph-name="uni2010" unicode="&#x2010;" horiz-adv-x="736" 
d="M695 356l-8 -58h-639l8 58h639z" />
    <glyph glyph-name="figuredash" unicode="&#x2012;" 
d="M1851 356l-8 -58h-1844l9 58h1843z" />
    <glyph glyph-name="endash" unicode="&#x2013;" horiz-adv-x="959" 
d="M967 356l-9 -58h-959l9 58h959z" />
    <glyph glyph-name="emdash" unicode="&#x2014;" horiz-adv-x="1918" 
d="M1926 356l-9 -58h-1918l9 58h1918z" />
    <glyph glyph-name="quoteleft" unicode="&#x2018;" horiz-adv-x="299" 
d="M132 536l9 65q13 99 98 99h17l-4 -32h-17q-19 0 -29 -11t-14 -38l-3 -18h53l-9 -65h-101z" />
    <glyph glyph-name="quoteright" unicode="&#x2019;" horiz-adv-x="299" 
d="M257 700l-10 -65q-13 -99 -98 -99h-17l4 32h17q19 0 29 11t14 38l3 18h-53l9 65h102z" />
    <glyph glyph-name="quotesinglbase" unicode="&#x201a;" horiz-adv-x="299" 
d="M168 68l-10 -65q-14 -99 -98 -99h-17l4 32h17q19 0 29 11t14 38l3 18h-53l9 65h102z" />
    <glyph glyph-name="quotedblleft" unicode="&#x201c;" horiz-adv-x="493" 
d="M325 536l10 65q13 99 98 99h17l-5 -32h-16q-19 0 -29.5 -11t-14.5 -38l-2 -18h53l-10 -65h-101zM132 536l9 65q13 99 98 99h17l-4 -32h-17q-19 0 -29 -11t-14 -38l-3 -18h53l-9 -65h-101z" />
    <glyph glyph-name="quotedblright" unicode="&#x201d;" horiz-adv-x="493" 
d="M450 700l-10 -65q-14 -99 -98 -99h-17l4 32h17q19 0 29 11t14 38l3 18h-53l9 65h102zM257 700l-10 -65q-13 -99 -98 -99h-17l4 32h17q19 0 29 11t14 38l3 18h-53l9 65h102z" />
    <glyph glyph-name="quotedblbase" unicode="&#x201e;" horiz-adv-x="493" 
d="M362 68l-10 -65q-14 -99 -98 -99h-17l4 32h17q19 0 29 11t14 38l3 18h-53l9 65h102zM168 68l-10 -65q-14 -99 -98 -99h-17l4 32h17q19 0 29 11t14 38l3 18h-53l9 65h102z" />
    <glyph glyph-name="dagger" unicode="&#x2020;" horiz-adv-x="1689" 
d="M1674 492l-8 -58h-770l-80 -566h-66l80 566h-770l8 58h770l35 248h66l-35 -248h770z" />
    <glyph glyph-name="daggerdbl" unicode="&#x2021;" horiz-adv-x="1689" 
d="M1636 217l-9 -58h-770l-41 -291h-66l41 291h-770l8 58h770l31 217h-770l8 58h770l35 248h66l-35 -248h770l-8 -58h-770l-31 -217h771z" />
    <glyph glyph-name="bullet" unicode="&#x2022;" horiz-adv-x="959" 
d="M553 166h-141q-145 0 -145 137v94q0 137 145 137h141q145 0 145 -137v-94q0 -137 -145 -137z" />
    <glyph glyph-name="ellipsis" unicode="&#x2026;" horiz-adv-x="687" 
d="M168 68l-10 -68h-101l9 68h102zM362 68l-10 -68h-101l9 68h102zM556 68l-10 -68h-101l9 68h102z" />
    <glyph glyph-name="perthousand" unicode="&#x2030;" horiz-adv-x="3525" 
d="M934 0l569 700h64l-569 -700h-64zM1436 117l43 300q16 117 133 117h716q60 0 84.5 -28.5t16.5 -88.5l-43 -300q-16 -117 -133 -117h-716q-60 0 -84.5 28.5t-16.5 88.5zM2326 121l41 292q6 36 -7.5 51.5t-48.5 15.5h-697q-34 0 -52.5 -15.5t-23.5 -51.5l-41 -292
q-5 -36 9 -51.5t48 -15.5h697q35 0 53 15.5t22 51.5zM2490 117l43 300q16 117 133 117h716q60 0 84.5 -28.5t16.5 -88.5l-43 -300q-16 -117 -133 -117h-716q-60 0 -84.5 28.5t-16.5 88.5zM3380 121l41 292q6 36 -7.5 51.5t-48.5 15.5h-697q-34 0 -52.5 -15.5t-23.5 -51.5
l-41 -292q-5 -36 9 -51.5t48 -15.5h697q35 0 53 15.5t22 51.5zM71 283l43 300q16 117 133 117h716q60 0 84.5 -28.5t16.5 -88.5l-43 -300q-16 -117 -133 -117h-716q-60 0 -84.5 28.5t-16.5 88.5zM961 287l41 292q6 36 -7.5 51.5t-48.5 15.5h-697q-34 0 -52.5 -15.5
t-23.5 -51.5l-41 -292q-5 -36 9 -51.5t48 -15.5h697q35 0 53 15.5t22 51.5z" />
    <glyph glyph-name="guilsinglleft" unicode="&#x2039;" horiz-adv-x="359" 
d="M289 51h-71l-185 249l255 249h75l-258 -251z" />
    <glyph glyph-name="guilsinglright" unicode="&#x203a;" horiz-adv-x="359" 
d="M71 549h71l184 -249l-254 -249h-76l258 251z" />
    <glyph glyph-name="fraction" unicode="&#x2044;" horiz-adv-x="603" 
d="M-8 0l569 700h64l-569 -700h-64z" />
    <glyph glyph-name="zerosuperior" unicode="&#x2070;" horiz-adv-x="1082" 
d="M71 283l43 300q16 117 133 117h716q60 0 84.5 -28.5t16.5 -88.5l-43 -300q-16 -117 -133 -117h-716q-60 0 -84.5 28.5t-16.5 88.5zM961 287l41 292q6 36 -7.5 51.5t-48.5 15.5h-697q-34 0 -52.5 -15.5t-23.5 -51.5l-41 -292q-5 -36 9 -51.5t48 -15.5h697q35 0 53 15.5
t22 51.5z" />
    <glyph glyph-name="foursuperior" unicode="&#x2074;" horiz-adv-x="1082" 
d="M968 460l34 240h60l-75 -534h-60l33 240h-771q-60 0 -84 28.5t-16 88.5l25 177h60l-25 -173q-4 -35 9.5 -51t47.5 -16h762z" />
    <glyph glyph-name="zeroinferior" unicode="&#x2080;" horiz-adv-x="1082" 
d="M48 117l43 300q16 117 133 117h716q60 0 84.5 -28.5t16.5 -88.5l-43 -300q-16 -117 -133 -117h-716q-60 0 -84.5 28.5t-16.5 88.5zM938 121l41 292q6 36 -7.5 51.5t-48.5 15.5h-697q-34 0 -52.5 -15.5t-23.5 -51.5l-41 -292q-5 -36 9 -51.5t48 -15.5h697q35 0 53 15.5
t22 51.5z" />
    <glyph glyph-name="oneinferior" unicode="&#x2081;" horiz-adv-x="1082" 
d="M84 0l7 54h475l60 426h-475l8 54h535l-68 -480h356l-7 -54h-891z" />
    <glyph glyph-name="twoinferior" unicode="&#x2082;" horiz-adv-x="1082" 
d="M982 363l6 49q5 38 -7.5 53.5t-49.5 15.5h-832l8 53h843q60 0 84 -28.5t16 -88.5l-9 -60q-16 -117 -132 -117h-705q-56 0 -80.5 -21t-31.5 -76l-13 -89h919l-7 -54h-980l21 152q19 142 163 142h710q38 0 54.5 15t22.5 54z" />
    <glyph glyph-name="threeinferior" unicode="&#x2083;" horiz-adv-x="1082" 
d="M1046 418l-7 -47q-7 -47 -28.5 -72.5t-74.5 -31.5q51 -6 66 -31.5t8 -72.5l-7 -47q-16 -116 -131 -116h-868l8 54h855q38 0 55 15t22 53l7 50q5 37 -8 52.5t-48 15.5h-773l7 54h773q35 0 52.5 15.5t23.5 52.5l6 50q5 38 -7.5 53t-49.5 15h-855l7 54h868q59 0 83 -28.5
t16 -87.5z" />
    <glyph glyph-name="fourinferior" unicode="&#x2084;" horiz-adv-x="1082" 
d="M945 294l34 240h60l-75 -534h-60l33 240h-771q-60 0 -84 28.5t-16 88.5l25 177h60l-25 -173q-4 -35 9.5 -51t47.5 -16h762z" />
    <glyph glyph-name="Euro" unicode="&#x20ac;" 
d="M236 0q-152 0 -131 152l24 169h-98l8 58h98l24 169q21 152 173 152h1513l-8 -59h-1497q-56 0 -82.5 -23.5t-34.5 -81.5l-22 -157h1490l-8 -58h-1490l-22 -157q-8 -58 11.5 -81.5t75.5 -23.5h1497l-8 -59h-1513z" />
    <glyph glyph-name="uni2117" unicode="&#x2117;" horiz-adv-x="1913" 
d="M310 370h1306q25 0 25 24v51q0 24 -25 24h-1306v-99zM1688 443v-47q0 -35 -16 -51t-51 -16h-1311v-140h-47v321h1358q35 0 51 -16t16 -51zM243 0q-83 0 -122 39.5t-39 120.5v380q0 81 39 120.5t122 39.5h1443q83 0 122 -39.5t39 -120.5v-380q0 -81 -39 -120.5t-122 -39.5
h-1443zM245 42h1439q60 0 88 29t28 88v382q0 59 -28 88t-88 29h-1439q-116 0 -116 -117v-382q0 -117 116 -117z" />
    <glyph glyph-name="trademark" unicode="&#x2122;" horiz-adv-x="2616" 
d="M1835 167v398q0 81 -73 81h-465q-34 0 -48.5 -14.5t-14.5 -49.5v-415h-60v417q0 59 28 87.5t87 28.5h452q59 0 88.5 -23t35.5 -72q6 50 35.5 72.5t88.5 22.5h452q59 0 87 -28.5t28 -87.5v-417h-60v415q0 35 -14.5 49.5t-48.5 14.5h-465q-73 0 -73 -81v-398h-60zM1072 700
v-54h-480v-479h-60v479h-480v54h1020z" />
    <glyph glyph-name="uni2126" unicode="&#x2126;" 
d="M1711 376v165q0 54 -22.5 77t-73.5 23h-1380q-52 0 -74.5 -23t-22.5 -77v-165q0 -54 22.5 -77.5t74.5 -23.5h568v-275h-743v59h683v158h-522q-77 0 -113 36.5t-36 112.5v185q0 77 36 113t113 36h1407q77 0 113 -36t36 -113v-185q0 -76 -36 -112.5t-113 -36.5h-522v-158
h683v-59h-743v275h569q51 0 73.5 23.5t22.5 77.5z" />
    <glyph glyph-name="onethird" unicode="&#x2153;" horiz-adv-x="2471" 
d="M107 166l7 54h475l60 426h-475l8 54h535l-68 -480h356l-7 -54h-891zM926 0l569 700h64l-569 -700h-64zM2434 418l-7 -47q-7 -47 -28.5 -72.5t-74.5 -31.5q51 -6 66 -31.5t8 -72.5l-7 -47q-16 -116 -131 -116h-868l8 54h855q38 0 55 15t22 53l7 50q5 37 -8 52.5t-48 15.5
h-773l7 54h773q35 0 52.5 15.5t23.5 52.5l6 50q5 38 -7.5 53t-49.5 15h-855l7 54h868q59 0 83 -28.5t16 -87.5z" />
    <glyph glyph-name="twothirds" unicode="&#x2154;" horiz-adv-x="2471" 
d="M1005 529l6 49q5 38 -7.5 53.5t-49.5 15.5h-832l8 53h843q60 0 84 -28.5t16 -88.5l-9 -60q-16 -117 -132 -117h-705q-56 0 -80.5 -21t-31.5 -76l-13 -89h919l-7 -54h-980l21 152q19 142 163 142h710q38 0 54.5 15t22.5 54zM926 0l569 700h64l-569 -700h-64zM2434 418
l-7 -47q-7 -47 -28.5 -72.5t-74.5 -31.5q51 -6 66 -31.5t8 -72.5l-7 -47q-16 -116 -131 -116h-868l8 54h855q38 0 55 15t22 53l7 50q5 37 -8 52.5t-48 15.5h-773l7 54h773q35 0 52.5 15.5t23.5 52.5l6 50q5 38 -7.5 53t-49.5 15h-855l7 54h868q59 0 83 -28.5t16 -87.5z" />
    <glyph glyph-name="partialdiff" unicode="&#x2202;" 
d="M1775 489v-339q0 -77 -36.5 -113.5t-114.5 -36.5h-1415q-78 0 -114 36t-36 113v81q0 77 36 113t114 36h1499v105q0 81 -39 119t-117 38h-1465v59h1477q103 0 157 -53.5t54 -157.5zM126 220v-61q0 -54 22.5 -77t73.5 -23h1387q54 0 76.5 23.5t22.5 79.5v159h-1486
q-51 0 -73.5 -23.5t-22.5 -77.5z" />
    <glyph glyph-name="uni2206" unicode="&#x2206;" 
d="M56 0l856 725l881 -725h-1737zM912 654l-694 -598h1410z" />
    <glyph glyph-name="product" unicode="&#x220f;" 
d="M1706 -132v773h-1563v-773h-66v832h1696v-832h-67z" />
    <glyph glyph-name="summation" unicode="&#x2211;" 
d="M1773 -73v-59h-1696v51l668 365l-668 365v51h1696v-59h-1552l653 -357l-653 -357h1552z" />
    <glyph glyph-name="minus" unicode="&#x2212;" 
d="M77 321v57h1696v-57h-1696z" />
    <glyph glyph-name="radical" unicode="&#x221a;" 
d="M1259 0l-223 321h-959v57h996l220 -315l445 637h75l-485 -700h-69z" />
    <glyph glyph-name="infinity" unicode="&#x221e;" horiz-adv-x="733" 
d="M345 317q-12 0 -23.5 12.5t-14.5 12.5t-11 -2t-14 -2q-8 0 -14.5 8t-6.5 17q0 22 8 35q-7 -7 -16 -37t-26 -41q-18 -12 -18 -40q0 -11 11 -21.5t11 -12.5q0 -4 -3 -4q-7 0 -12 5q13 -68 48 -104h-55q-35 114 -35 226q0 105 40.5 171.5t135.5 66.5q190 0 190 -254
q0 -75 -25 -210h-73q53 47 62 117q-4 -8 -13 -8q-3 0 -3 2l4 4q5 3 9.5 11.5t4.5 21.5q-4 -6 -15 -6q-1 0 -10.5 -4.5t-15.5 -4.5q-14 0 -40 3.5t-70 3.5q-22 0 -52.5 -6t-38.5 -6q-5 0 -13 2t-11 2q-28 0 -28 12q0 10 37 18.5t74 8.5q5 0 12 -0.5t12 -0.5t15.5 2t14.5 2
q112 0 127 -20q-1 16 -14 29t-30 13q-6 0 -6 7q0 57 -16 58q4 -7 4 -17q0 -18 -11 -32t-27 -14q-4 0 -10 2l-7 2q-1 0 -14.5 -14t-27.5 -14zM733 291v-148q-22 48 -69 112.5t-67 64.5q6 -85 -12 -177h-42q16 104 16 199q0 319 -213 319q-53 0 -91.5 -26.5t-59 -72.5
t-30 -97.5t-9.5 -111.5q0 -123 29 -210h-47q-19 67 -19 184q-17 -9 -39.5 -43.5t-49 -84.5t-30.5 -56v148q11 27 33 54t50 53.5t30 28.5q3 72 27 135t75.5 107.5t120.5 44.5q67 0 115.5 -22.5t76.5 -64t42.5 -87t22.5 -105.5q22 -5 68 -48t72 -96zM345 503q-3 3 -3 6
q0 2 2 2q1 0 6 -4.5t15 -8.5t22 -4q16 0 29 4t20 8l6 5q4 0 4 -2l-8 -8q24 0 52 -11q-29 80 -139 80q-55 0 -92 -33t-50 -85q37 20 41 39q-6 4 -6 7q0 4 3 4l2 -2q2 -1 6.5 -3.5t10 -5t13.5 -4t17 -1.5q24 0 49 17zM371 416q0 20 -4.5 40t-9.5 20q-10 0 -19 -39t-14 -39
q-3 0 -9.5 3t-11.5 3q-13 0 -21 -10.5t-8 -24.5t11 -14t18 6.5t9 6.5t12 -13.5t20 -13.5q14 0 25 10.5t12 10.5q3 0 10 -3.5t9 -3.5q10 0 18 11t8 24q0 10 -6 18t-16 8q-7 0 -14.5 -6.5t-11.5 -6.5q-7 0 -7 13zM510 318q0 95 -12 147l-5 3q0 -21 -18 -32t-41 -11
q-21 0 -37 12.5t-16 29.5q0 6 2 9q-12 2 -15 4q6 -9 10 -24t5.5 -24t4.5 -9q7 2 15 2q19 0 31 -14q34 0 34 -51q0 -3 8 -7t18.5 -13t15.5 -22zM383 310q-1 0 -8 -1t-15.5 -2t-13.5 -1t-13 1.5t-11 1.5q-15 0 -36 -4t-35 -9t-14 -8q0 -10 20 -10q24 0 54 6.5t44 6.5
q19 0 57.5 -3.5t52.5 -3.5q5 0 9.5 2t7.5 4t3 3q0 5 -36 11t-66 6zM267 413q-18 0 -31 10t-15 21q-4 -2 -15 -5q-4 -21 -4 -43q0 -50 3 -78q4 6 22 22t20 31q5 37 38 41q12 5 23 5q5 0 8.5 8.5t9.5 24.5t16 28l-13 -4q-1 -24 -18.5 -42.5t-43.5 -18.5zM419 465q-13 0 -16 13
q-5 0 -8.5 -5.5t-3.5 -9.5q0 -10 15 -17t31 -7q14 0 29 8.5t15 21.5q0 8 -14.5 12.5t-28.5 4.5q-5 -21 -19 -21zM267 427q14 0 30 11t16 24q0 6 -1 9q-20 0 -27 1q-5 -14 -18 -14q-10 0 -15 5q-4 -4 -18 -12q4 -24 33 -24zM266 288q-2 0 -2 3q0 12 107 12q93 0 93 -8
q0 -3 -3 -3q-1 0 -4 0.5t-10 1t-16 1.5t-24.5 1.5t-33.5 0.5q-36 0 -61 -2.5t-36 -4.5zM305 262q0 10 63 10q31 0 31 -8q0 -3 -2 -3q-4 0 -10 2t-10 2q-11 0 -26 -0.5t-20 -0.5q-4 0 -11.5 -3t-10.5 -3q-4 0 -4 4zM417 473q9 0 9 13q-1 0 -16 -6q0 -7 7 -7zM266 466
q7 0 10 9q-6 1 -11 4q0 -4 -6 -10q1 -3 7 -3zM325 34l-3 48l-10 -82h-21l15 125h25l4 -60l21 60h26l-15 -125h-22l10 82l-16 -48h-14zM21 125h35q23 0 20 -21l-10 -82q-3 -22 -22 -22h-38zM282 44q-1 -12 -10 -17l8 -27h-21l-7 23h-7l-3 -23h-22l15 125h36q21 0 18 -24z
M183 0l3 23h-14l-3 -23h-21l12 104q2 21 22 21h17q19 0 18 -21l-12 -104h-22zM594 0l15 125h35q23 0 20 -21l-8 -62q-3 -19 -22 -19h-15l-3 -23h-22zM111 0l3 23h-13l-3 -23h-22l15 125h22l-10 -83h13l10 83h22l-15 -125h-22zM539 125h22l-10 -79q0 -4 4 -4h5q5 0 5 4l9 79
h22l-10 -81q-3 -21 -19 -21l-9 -23h-23l9 23q-18 0 -15 21zM477 106l3 19h50l-3 -19h-13l-12 -106h-23l12 106h-14zM41 106l-11 -88h11q3 0 3 4l9 80q0 4 -4 4h-8zM629 106l-8 -64h8q5 0 5 4l7 56q0 4 -4 4h-8zM174 42h14l7 60q0 4 -4 4h-5q-5 0 -5 -4zM255 106l-8 -64h8
q5 0 5 4l7 56q0 4 -3 4h-9zM711 57l-3 -18h-19l-3 -21h27l-2 -18h-49l15 125h47l-3 -19h-24l-6 -49h20zM417 0l3 23h-14l-3 -23h-21l12 104q2 21 22 21h17q19 0 18 -21l-12 -104h-22zM408 42h14l7 60q0 4 -4 4h-5q-5 0 -5 -4z" />
    <glyph glyph-name="integral" unicode="&#x222b;" 
d="M1044 540l-176 -530q-25 -75 -69 -108.5t-123 -33.5h-599v59h594q58 0 88.5 22t50.5 79l176 530q26 76 70 109t123 33h594v-59h-590q-58 0 -88.5 -22.5t-50.5 -78.5z" />
    <glyph glyph-name="approxequal" unicode="&#x2248;" 
d="M77 170v64q147 74 365 74q152 0 479 -51.5t480 -51.5q223 0 372 78v-63q-148 -74 -368 -74q-153 0 -479.5 51t-477.5 51q-223 0 -371 -78zM77 419v63q147 74 365 74q153 0 479.5 -51t478.5 -51q224 0 373 78v-64q-148 -74 -368 -74q-153 0 -480 51t-479 51
q-220 0 -369 -77z" />
    <glyph glyph-name="notequal" unicode="&#x2260;" 
d="M719 0h-66l140 194h-688v57h730l142 197h-872v57h914l141 195h67l-142 -195h659v-57h-700l-143 -197h843v-57h-885z" />
    <glyph glyph-name="lessequal" unicode="&#x2264;" 
d="M77 350l304 273h79l-273 -245h1586v-57h-1586l294 -264h1292v-57h-1696v57h326z" />
    <glyph glyph-name="greaterequal" unicode="&#x2265;" 
d="M1469 623l304 -273l-326 -293h326v-57h-1696v57h1292l294 264h-1586v57h1586l-273 245h79z" />
    <glyph glyph-name="lozenge" unicode="&#x25ca;" 
d="M924 -25l-868 373l868 373l869 -373zM924 41l714 307l-714 306l-714 -306z" />
    <glyph glyph-name="commaaccent" horiz-adv-x="480" 
d="M234 -86l-6 -46q-12 -80 -81 -80h-25l3 25h24q30 0 36 38l2 13h-58l7 50h98z" />
    <glyph glyph-name="i.alt" horiz-adv-x="250" 
d="M51 0l84 603h64l-84 -603h-64zM240 737l-7 -54h-109l8 54h108z" />
    <glyph glyph-name="i.trk" horiz-adv-x="357" 
d="M214 57h93l-8 -57h-108q-76 0 -104.5 33.5t-17.5 108.5l65 461h64l-63 -454q-7 -52 9.5 -72t69.5 -20zM240 737l-8 -54h-109l8 54h109z" />
    <glyph glyph-name="one.pnum" horiz-adv-x="412" 
d="M374 700l-98 -700h-66l90 641h-224l9 59h289z" />
    </font>
</defs>
</svg>
