<?xml version="1.0" standalone="no"?>
<!DOCTYPE svg PUBLIC "-//W3C//DTD SVG 1.1//EN" "http://www.w3.org/Graphics/SVG/1.1/DTD/svg11.dtd" >
<svg xmlns="http://www.w3.org/2000/svg" xmlns:xlink="http://www.w3.org/1999/xlink" version="1.1">
<metadata>
Created by FontForge 20170731 at Sat Mar 14 00:16:18 2015
 By ,,,
Copyright (c) 2011 by Ryoichi Tsunekawa. All rights reserved.
</metadata>
<defs>
<font id="DesignSystemC-900I" horiz-adv-x="935" >
  <font-face 
    font-family="DesignSystemC-900I"
    font-weight="400"
    font-style="italic"
    font-stretch="normal"
    units-per-em="1000"
    panose-1="4 5 8 8 2 11 2 2 3 2"
    ascent="822"
    descent="-178"
    x-height="603"
    cap-height="700"
    bbox="-94 -260 2184.25 930"
    underline-thickness="36"
    underline-position="-156"
    slope="-8"
    unicode-range="U+0020-FB02"
  />
<missing-glyph horiz-adv-x="625" 
d="M6 700h625v-700h-625v700zM86 620v-529l409 529h-409zM142 80h409v528z" />
    <glyph glyph-name="ij" unicode="ij" horiz-adv-x="580" 
d="M225 -7h42q16 0 23 6t9 22l82 582h184l-88 -622q-11 -76 -51.5 -112t-118.5 -36h-105zM377 657l16 113h207l-16 -113h-207zM6 0l84 603h184l-84 -603h-184zM310 770l-16 -113h-208l16 113h208z" />
    <glyph glyph-name="fi" unicode="fi" horiz-adv-x="1132" 
d="M289 443q-44 0 -49 -43l-3 -19h488l-22 -159h-488l-55 -389h-184l84 599q13 88 60.5 129.5t135.5 41.5h551l-22 -160h-496zM1022 160h76l-22 -160h-143q-78 0 -109 36t-20 112l64 455h184l-58 -411q-3 -32 28 -32zM1088 770l-16 -113h-208l16 113h208z" />
    <glyph glyph-name="fl" unicode="fl" horiz-adv-x="1128" 
d="M289 443q-44 0 -49 -43l-3 -19h488l-22 -159h-488l-55 -389h-184l84 599q13 88 60.5 129.5t135.5 41.5h551l-22 -160h-496zM1018 160h76l-22 -160h-143q-78 0 -109 36t-20 112l88 622h184l-82 -578q-3 -32 28 -32z" />
    <glyph glyph-name=".notdef" horiz-adv-x="625" 
d="M6 700h625v-700h-625v700zM86 620v-529l409 529h-409zM142 80h409v528z" />
    <glyph glyph-name=".null" horiz-adv-x="0" 
 />
    <glyph glyph-name="nonmarkingreturn" horiz-adv-x="333" 
 />
    <glyph glyph-name="space" unicode=" " horiz-adv-x="325" 
 />
    <glyph glyph-name="exclam" unicode="!" horiz-adv-x="306" 
d="M238 130l-18 -130h-218l18 130h218zM305 700l-30 -216q-23 -158 -58 -269h-152q-4 116 18 269l30 216h192z" />
    <glyph glyph-name="quotedbl" unicode="&#x22;" horiz-adv-x="544" 
d="M269 700v-39q0 -127 -25 -269h-142q-25 142 -25 269v39h192zM533 700v-39q0 -127 -25 -269h-142q-25 142 -25 269v39h192z" />
    <glyph glyph-name="numbersign" unicode="#" 
d="M649 0l6 111h-394l-6 -111h-163l6 111h-66l8 160h66l9 158h-66l8 160h66l6 111h163l-6 -111h394l6 111h163l-6 -111h66l-8 -160h-66l-9 -158h66l-8 -160h-66l-6 -111h-163zM278 429l-9 -158h394l9 158h-394z" />
    <glyph glyph-name="dollar" unicode="$" 
d="M21 210h657q28 0 32 27l2 13q3 28 -24 28h-524q-133 0 -114 135l14 104q19 136 151 136h219l13 87h167l-13 -87h322l-22 -160h-629q-27 0 -31 -28l-2 -13q-5 -27 23 -27h526q68 0 95.5 -33t17.5 -103l-14 -103q-19 -136 -152 -136h-218l-13 -90h-167l13 90h-351z" />
    <glyph glyph-name="percent" unicode="%" horiz-adv-x="1555" 
d="M533 0l371 700h149l-371 -700h-149zM926 130l39 274q9 66 45 98t103 32h315q67 0 94 -32t18 -98l-39 -274q-18 -130 -148 -130h-315q-67 0 -94 32t-18 98zM1348 168l28 198q4 30 -24 30h-202q-29 0 -33 -30l-28 -198q-4 -30 25 -30h202q28 0 32 30zM46 296l39 274
q9 66 45 98t103 32h315q67 0 94 -32t18 -98l-39 -274q-18 -130 -148 -130h-315q-67 0 -94 32t-18 98zM468 334l28 198q4 30 -24 30h-202q-29 0 -33 -30l-28 -198q-4 -30 25 -30h202q28 0 32 30z" />
    <glyph glyph-name="ampersand" unicode="&#x26;" horiz-adv-x="1051" 
d="M769 267h-504q-17 0 -24.5 -7t-9.5 -24l-6 -38q-2 -17 3.5 -24t22.5 -7h476q17 0 23.5 6t8.5 22zM25 145l10 69q9 65 41 97.5t94 38.5q-60 5 -83 37.5t-13 98.5l9 69q11 76 51 110.5t116 34.5h722l-24 -167h-646q-17 0 -24.5 -7t-9.5 -24l-5 -38q-3 -17 2.5 -24t22.5 -7
h774l-23 -166h-78l-18 -128q-11 -75 -47 -107t-111 -32h-633q-76 0 -106.5 34.5t-20.5 110.5z" />
    <glyph glyph-name="quotesingle" unicode="'" horiz-adv-x="280" 
d="M269 700v-39q0 -127 -25 -269h-142q-25 142 -25 269v39h192z" />
    <glyph glyph-name="parenleft" unicode="(" horiz-adv-x="357" 
d="M206 101q-3 -17 2.5 -24t22.5 -7h70l-21 -150h-127q-76 0 -106.5 34.5t-19.5 110.5l69 490q11 76 51 110.5t116 34.5h127l-21 -150h-70q-17 0 -24.5 -7t-9.5 -24z" />
    <glyph glyph-name="parenright" unicode=")" horiz-adv-x="357" 
d="M106 101l59 418q2 17 -3.5 24t-22.5 7h-70l21 150h127q76 0 106.5 -34.5t19.5 -110.5l-69 -490q-10 -76 -50 -110.5t-117 -34.5h-127l21 150h70q30 0 35 31z" />
    <glyph glyph-name="asterisk" unicode="*" horiz-adv-x="575" 
d="M324 457q105 96 167 114l60 18l32 -145l-60 -18q-30 -9 -72.5 -10t-72 2.5t-48.5 8.5q30 -12 76 -44.5t66 -67.5l30 -48l-132 -90l-29 48q-20 35 -28 92t-7 92q-9 -36 -32 -93t-52 -91l-43 -48l-115 90l41 48q32 35 87 67.5t88 44.5q-20 -5 -50.5 -8.5t-73 -2.5t-69.5 10
l-56 18l62 145l55 -18q39 -12 82.5 -50t63.5 -64q-14 30 -28 85t-7 98l9 60h153l-9 -60q-7 -43 -36.5 -99.5t-51.5 -83.5z" />
    <glyph glyph-name="plus" unicode="+" 
d="M47 271v158h344v183h158v-183h345v-158h-345v-184h-158v184h-344z" />
    <glyph glyph-name="comma" unicode="," horiz-adv-x="299" 
d="M232 150l-21 -150q-11 -77 -61 -122t-130 -45h-39l12 86h31q30 0 44.5 11t18.5 42l5 28h-87l21 150h206z" />
    <glyph glyph-name="hyphen" unicode="-" horiz-adv-x="475" 
d="M458 409l-23 -164h-411l23 164h411z" />
    <glyph glyph-name="period" unicode="." horiz-adv-x="299" 
d="M232 150l-21 -150h-206l21 150h206z" />
    <glyph glyph-name="slash" unicode="/" horiz-adv-x="542" 
d="M17 0l310 700h196l-310 -700h-196z" />
    <glyph glyph-name="zero" unicode="0" 
d="M164 0q-78 0 -110 37t-21 113l56 400q22 150 173 150h545q78 0 109.5 -37t20.5 -113l-56 -400q-11 -76 -53 -113t-119 -37h-545zM695 198l43 304q2 17 -3.5 24t-22.5 7h-403q-17 0 -24.5 -7t-9.5 -24l-43 -304q-2 -17 3.5 -24t22.5 -7h403q17 0 24.5 7t9.5 24z" />
    <glyph glyph-name="one" unicode="1" 
d="M738 700l-75 -533h202l-23 -167h-782l23 167h405l51 366h-405l24 167h580z" />
    <glyph glyph-name="two" unicode="2" 
d="M730 502q2 17 -3.5 24t-22.5 7h-610l24 167h681q78 0 109.5 -37t20.5 -113l-19 -134q-11 -76 -52.5 -113t-119.5 -37h-470q-25 0 -36 -9.5t-14 -34.5l-8 -55h672l-23 -167h-864l35 252q26 181 206 181h454q30 0 35 31z" />
    <glyph glyph-name="three" unicode="3" 
d="M670 267h-538l23 166h538q30 0 35 31l5 38q2 17 -3.5 24t-22.5 7h-641l24 167h717q77 0 106.5 -34.5t18.5 -110.5l-9 -69q-9 -66 -41 -98.5t-93 -37.5q60 -6 82.5 -38.5t13.5 -97.5l-10 -69q-11 -76 -50.5 -110.5t-115.5 -34.5h-717l23 167h641q17 0 24.5 7t9.5 24l6 38
q2 17 -3.5 24t-22.5 7z" />
    <glyph glyph-name="four" unicode="4" 
d="M726 433l38 267h192l-98 -700h-192l37 267h-513q-77 0 -109 36.5t-22 112.5l41 284h192l-33 -236q-3 -17 2.5 -24t22.5 -7h442z" />
    <glyph glyph-name="five" unicode="5" 
d="M51 267l61 433h817l-24 -167h-625l-14 -100h500q78 0 109.5 -37t20.5 -113l-18 -133q-11 -76 -53 -113t-119 -37h-702l23 167h631q17 0 24.5 7t9.5 24l6 38q2 17 -3.5 24t-22.5 7h-621z" />
    <glyph glyph-name="six" unicode="6" 
d="M270 474l-6 -41h513q78 0 109.5 -37t20.5 -113l-18 -133q-11 -76 -53 -113t-119 -37h-556q-78 0 -109.5 37t-20.5 113l48 341q31 209 239 209h622l-24 -167h-581q-56 0 -65 -59zM683 267h-442l-10 -69q-2 -17 4 -24t23 -7h411q17 0 24.5 7t9.5 24l6 38q2 17 -3.5 24
t-22.5 7z" />
    <glyph glyph-name="seven" unicode="7" 
d="M682 433q25 0 36.5 9.5t14.5 35.5l8 55h-692l24 167h884l-35 -252q-27 -181 -207 -181h-224q-25 0 -36.5 -10t-15.5 -35l-30 -222h-192l35 252q24 181 206 181h224z" />
    <glyph glyph-name="eight" unicode="8" 
d="M946 555l-9 -69q-10 -66 -41.5 -98.5t-92.5 -37.5q60 -6 82 -38t13 -98l-10 -69q-10 -76 -49.5 -110.5t-115.5 -34.5h-573q-76 0 -106.5 34.5t-19.5 110.5l10 69q9 65 41 97.5t93 38.5q-60 5 -82.5 37.5t-13.5 98.5l10 69q11 76 50.5 110.5t115.5 34.5h573
q76 0 106 -34.5t19 -110.5zM287 433h419q31 0 36 31l5 38q2 17 -4 24t-23 7h-419q-31 0 -35 -31l-5 -38q-3 -17 3 -24t23 -7zM683 267h-419q-31 0 -35 -31l-6 -38q-2 -17 4 -24t23 -7h419q31 0 35 31l5 38q3 17 -3 24t-23 7z" />
    <glyph glyph-name="nine" unicode="9" 
d="M799 700q77 0 108.5 -37t20.5 -113l-48 -341q-31 -209 -238 -209h-623l23 167h582q57 0 66 58l5 42h-513q-78 0 -109.5 37t-20.5 113l18 133q22 150 173 150h556zM256 502l-5 -38q-3 -17 2.5 -24t22.5 -7h442l10 69q2 17 -4 24t-23 7h-411q-17 0 -24.5 -7t-9.5 -24z" />
    <glyph glyph-name="colon" unicode=":" horiz-adv-x="299" 
d="M295 603l-21 -150h-206l21 150h206zM232 150l-21 -150h-206l21 150h206z" />
    <glyph glyph-name="semicolon" unicode=";" horiz-adv-x="299" 
d="M232 150l-21 -150q-11 -77 -61 -122t-130 -45h-39l12 86h31q30 0 44.5 11t18.5 42l5 28h-87l21 150h206zM295 603l-21 -150h-206l21 150h206z" />
    <glyph glyph-name="less" unicode="&#x3c;" 
d="M47 350l196 262h204l-145 -183h592v-158h-593l146 -184h-204z" />
    <glyph glyph-name="equal" unicode="=" 
d="M77 131v158h787v-158h-787zM77 411v158h787v-158h-787z" />
    <glyph glyph-name="greater" unicode="&#x3e;" 
d="M698 612l196 -262l-196 -263h-204l146 184h-593v158h592l-145 183h204z" />
    <glyph glyph-name="question" unicode="?" horiz-adv-x="909" 
d="M717 464l5 38q2 17 -4 24t-23 7h-646l24 167h718q78 0 109 -37t20 -113l-18 -133q-11 -76 -52.5 -113t-119.5 -37h-235q-17 0 -23 -5.5t-8 -22.5l-5 -34h-192l15 103q9 64 43 94.5t99 30.5h257q31 0 36 31zM462 130l-18 -130h-218l18 130h218z" />
    <glyph glyph-name="at" unicode="@" horiz-adv-x="1045" 
d="M185 0q-88 0 -124 42t-24 128l51 360q12 86 59.5 128t135.5 42h615q88 0 123.5 -42t23.5 -128l-51 -360q-12 -86 -59 -128t-135 -42h-615zM200 72h605q94 0 107 94l52 368q12 94 -81 94h-605q-95 0 -107 -94l-52 -368q-13 -94 81 -94zM728 188h-421q-68 0 -58 70l7 54
q10 70 78 70h420l6 41q3 22 -19 22h-452l9 66h475q77 0 66 -76l-25 -171q-9 -76 -86 -76zM351 317q-17 0 -18 -16l-5 -31q-1 -16 14 -16h372q22 0 25 22l6 41h-394z" />
    <glyph glyph-name="A" unicode="A" horiz-adv-x="966" 
d="M874 0h-192l37 267h-482l-37 -267h-192l76 550q22 150 173 150h564q77 0 108.5 -37t20.5 -113zM725 533h-421q-17 0 -24.5 -7t-9.5 -24l-10 -69h482l10 69q2 17 -4 24t-23 7z" />
    <glyph glyph-name="B" unicode="B" horiz-adv-x="958" 
d="M907 214l-10 -69q-10 -76 -49.5 -110.5t-115.5 -34.5h-720l98 700h720q77 0 106.5 -34.5t18.5 -110.5l-9 -69q-10 -66 -41.5 -98.5t-92.5 -37.5q60 -6 82 -38t13 -98zM715 433q31 0 36 31l5 38q2 17 -4 24t-23 7h-451l-14 -100h451zM241 267l-14 -100h451q31 0 35 31
l6 38q2 17 -4 24t-23 7h-451z" />
    <glyph glyph-name="C" unicode="C" horiz-adv-x="879" 
d="M163 0q-78 0 -109.5 37t-20.5 113l56 400q11 76 53 113t119 37h651l-24 -167h-579q-17 0 -24.5 -7t-9.5 -24l-43 -304q-2 -17 3.5 -24t22.5 -7h579l-23 -167h-651z" />
    <glyph glyph-name="D" unicode="D" horiz-adv-x="958" 
d="M768 700q102 0 147.5 -53t30.5 -156l-39 -282q-31 -209 -237 -209h-658l98 700h658zM651 167q59 0 66 58l35 249q9 59 -50 59h-424l-51 -366h424z" />
    <glyph glyph-name="E" unicode="E" horiz-adv-x="929" 
d="M12 0l98 700h841l-24 -167h-649l-14 -100h555l-23 -166h-555l-14 -100h649l-23 -167h-841z" />
    <glyph glyph-name="F" unicode="F" horiz-adv-x="908" 
d="M12 0l98 700h837l-24 -167h-645l-14 -100h551l-23 -167h-551l-37 -266h-192z" />
    <glyph glyph-name="G" unicode="G" horiz-adv-x="957" 
d="M685 167q17 0 23.5 6t8.5 22l10 72h-281l23 166h473l-42 -294q-10 -75 -46 -107t-111 -32h-580q-78 0 -109.5 37t-20.5 113l56 400q11 76 53 113t119 37h694l-24 -167h-622q-17 0 -24.5 -7t-9.5 -24l-43 -304q-2 -17 3.5 -24t22.5 -7h427z" />
    <glyph glyph-name="H" unicode="H" horiz-adv-x="991" 
d="M703 0l37 266h-499l-37 -266h-192l98 700h192l-38 -267h499l38 267h192l-98 -700h-192z" />
    <glyph glyph-name="I" unicode="I" horiz-adv-x="300" 
d="M12 0l98 700h192l-98 -700h-192z" />
    <glyph glyph-name="J" unicode="J" horiz-adv-x="943" 
d="M22 140l29 202h192l-21 -147q-2 -17 2.5 -22.5t20.5 -5.5h417q17 0 25 7t10 24l71 502h192l-78 -550q-11 -76 -52.5 -113t-118.5 -37h-568q-76 0 -104 32.5t-17 107.5z" />
    <glyph glyph-name="K" unicode="K" horiz-adv-x="964" 
d="M976 700l-29 -199q-18 -141 -150 -151q70 -6 94 -45t14 -107l-27 -198h-192l32 228q4 39 -34 39h-443l-37 -267h-192l98 700h192l-38 -267h443q39 0 45 39l32 228h192z" />
    <glyph glyph-name="L" unicode="L" horiz-adv-x="902" 
d="M866 167l-23 -167h-831l98 700h192l-75 -533h639z" />
    <glyph glyph-name="M" unicode="M" horiz-adv-x="1283" 
d="M849 700h289q78 0 109.5 -37t20.5 -113l-77 -550h-192l70 502q2 17 -3.5 24t-22.5 7h-243q-31 0 -35 -31l-70 -502h-192l70 502q4 31 -26 31h-243q-17 0 -24.5 -7t-9.5 -24l-70 -502h-192l76 550q22 150 173 150h288q72 0 103.5 -26t33.5 -84q17 57 56 83.5t111 26.5z
" />
    <glyph glyph-name="N" unicode="N" horiz-adv-x="966" 
d="M304 533q-17 0 -24.5 -7t-9.5 -24l-70 -502h-192l76 550q22 150 173 150h564q77 0 108.5 -37t20.5 -113l-76 -550h-192l70 502q2 17 -4 24t-23 7h-421z" />
    <glyph glyph-name="O" unicode="O" horiz-adv-x="955" 
d="M164 0q-78 0 -110 37t-21 113l56 400q22 150 173 150h565q78 0 109.5 -37t20.5 -113l-56 -400q-11 -76 -53 -113t-119 -37h-565zM715 198l43 304q2 17 -3.5 24t-22.5 7h-423q-17 0 -24.5 -7t-9.5 -24l-43 -304q-2 -17 4 -24t22 -7h423q17 0 24.5 7t9.5 24z" />
    <glyph glyph-name="P" unicode="P" horiz-adv-x="940" 
d="M12 0l98 700h712q78 0 109 -37t20 -113l-19 -134q-19 -150 -171 -150h-520l-37 -266h-192zM753 502q2 17 -4 24t-23 7h-448l-14 -100h448q31 0 36 31z" />
    <glyph glyph-name="Q" unicode="Q" horiz-adv-x="955" 
d="M164 0q-78 0 -110 37t-21 113l56 400q22 150 173 150h565q78 0 109.5 -37t20.5 -113l-56 -400q-11 -76 -53 -113t-119 -37h-199l-16 -115h-167l16 115h-199zM715 198l43 304q2 17 -3.5 24t-22.5 7h-423q-17 0 -24.5 -7t-9.5 -24l-43 -304q-2 -17 4 -24t22 -7h129l11 75
h167l-11 -75h127q17 0 24.5 7t9.5 24z" />
    <glyph glyph-name="R" unicode="R" horiz-adv-x="964" 
d="M955 555l-9 -69q-10 -68 -43.5 -100.5t-98.5 -36.5q120 -14 101 -151l-27 -198h-192l32 228q4 39 -34 39h-443l-37 -267h-192l98 700h720q77 0 106.5 -34.5t18.5 -110.5zM715 433q31 0 36 31l5 38q2 17 -4 24t-23 7h-451l-14 -100h451z" />
    <glyph glyph-name="S" unicode="S" horiz-adv-x="919" 
d="M187 267q-78 0 -109.5 37t-20.5 113l18 133q11 76 53.5 113t120.5 37h664l-24 -167h-594q-17 0 -24.5 -7t-9.5 -24l-5 -38q-3 -17 2.5 -24t22.5 -7h468q153 0 131 -150l-19 -133q-11 -76 -52.5 -113t-118.5 -37h-698l23 167h626q17 0 25 7t10 24l6 38q2 17 -4 24t-23 7
h-468z" />
    <glyph glyph-name="T" unicode="T" horiz-adv-x="903" 
d="M942 700l-24 -167h-338l-74 -533h-192l74 533h-339l24 167h869z" />
    <glyph glyph-name="U" unicode="U" horiz-adv-x="966" 
d="M170 0q-78 0 -110 37t-21 113l78 550h192l-71 -502q-2 -17 3.5 -24t22.5 -7h421q17 0 25 7t10 24l71 502h192l-78 -550q-11 -76 -52.5 -113t-118.5 -37h-564z" />
    <glyph glyph-name="V" unicode="V" horiz-adv-x="953" 
d="M12 0l98 700h192l-75 -533h413q57 0 66 58l66 475h192l-69 -491q-14 -102 -74.5 -155.5t-162.5 -53.5h-646z" />
    <glyph glyph-name="W" unicode="W" horiz-adv-x="1283" 
d="M1051 0h-289q-72 0 -103.5 26t-33.5 84q-17 -58 -56 -84t-111 -26h-288q-78 0 -110 37t-21 113l78 550h192l-71 -502q-2 -17 3.5 -24t22.5 -7h243q31 0 35 31l70 502h192l-70 -502q-2 -17 4 -24t22 -7h243q17 0 24.5 7t9.5 24l71 502h192l-77 -550q-11 -76 -53 -113
t-119 -37z" />
    <glyph glyph-name="X" unicode="X" horiz-adv-x="953" 
d="M70 501l28 199h192l-32 -228q-6 -39 33 -39h407q39 0 45 39l32 228h192l-28 -199q-10 -68 -44.5 -106.5t-106.5 -44.5q70 -6 94 -45t14 -107l-27 -198h-192l32 228q5 39 -34 39h-407q-40 0 -44 -39l-32 -228h-192l27 198q10 68 45 107t107 45q-70 6 -94.5 44.5
t-14.5 106.5z" />
    <glyph glyph-name="Y" unicode="Y" horiz-adv-x="946" 
d="M787 700h192l-39 -283q-11 -76 -53 -113t-119 -37h-193l-37 -267h-192l37 267h-193q-77 0 -108.5 37t-20.5 113l40 283h192l-34 -237q-2 -16 3.5 -23t22.5 -7h434q30 0 35 30z" />
    <glyph glyph-name="Z" unicode="Z" horiz-adv-x="924" 
d="M666 433q25 0 36 9.5t15 34.5l7 56h-630l24 167h822l-35 -252q-26 -181 -207 -181h-430q-25 0 -35.5 -9.5t-14.5 -34.5l-8 -56h655l-23 -167h-847l35 252q26 181 206 181h430z" />
    <glyph glyph-name="bracketleft" unicode="[" horiz-adv-x="352" 
d="M110 700h265l-20 -140h-104l-70 -500h104l-20 -140h-265z" />
    <glyph glyph-name="backslash" unicode="\" horiz-adv-x="542" 
d="M213 700l310 -700h-196l-310 700h196z" />
    <glyph glyph-name="bracketright" unicode="]" horiz-adv-x="352" 
d="M90 700h265l-110 -780h-265l20 140h104l70 500h-104z" />
    <glyph glyph-name="asciicircum" unicode="^" 
d="M470 711l424 -256v-184l-424 256l-423 -256v184z" />
    <glyph glyph-name="underscore" unicode="_" horiz-adv-x="625" 
d="M583 -26v-106h-625v106h625z" />
    <glyph glyph-name="grave" unicode="`" horiz-adv-x="312" 
d="M206 660l-125 103h178l90 -103h-143z" />
    <glyph glyph-name="a" unicode="a" horiz-adv-x="854" 
d="M652 371l5 39q5 33 -27 33h-542l22 160h612q76 0 106 -36t19 -112l-43 -307q-11 -76 -51 -112t-115 -36h-509q-68 0 -96 33t-18 103l14 99q10 70 46.5 103t104.5 33h472zM632 232h-393q-27 0 -31 -27l-2 -18q-4 -27 23 -27h361q33 0 36 32z" />
    <glyph glyph-name="b" unicode="b" horiz-adv-x="854" 
d="M31 148l88 622h184l-36 -253q16 44 49 65t92 21h315q76 0 106 -36t19 -112l-43 -307q-11 -76 -51 -112t-115 -36h-482q-76 0 -106.5 36t-19.5 112zM252 410l-31 -218q-3 -32 28 -32h341q34 0 37 32l31 218q5 33 -28 33h-341q-32 0 -37 -33z" />
    <glyph glyph-name="c" unicode="c" horiz-adv-x="797" 
d="M153 0q-76 0 -106.5 36t-19.5 112l43 307q11 76 51.5 112t115.5 36h583l-22 -160h-513q-32 0 -37 -33l-31 -218q-3 -32 28 -32h513l-22 -160h-583z" />
    <glyph glyph-name="d" unicode="d" horiz-adv-x="854" 
d="M889 770l-88 -622q-11 -76 -51 -112t-116 -36h-481q-76 0 -106.5 36t-19.5 112l43 307q11 76 51.5 112t115.5 36h315q59 0 86 -21t31 -65l36 253h184zM623 192l31 218q5 33 -28 33h-341q-32 0 -37 -33l-31 -218q-3 -32 28 -32h341q34 0 37 32z" />
    <glyph glyph-name="e" unicode="e" horiz-adv-x="854" 
d="M846 368q-10 -70 -46.5 -103t-104.5 -33h-472l-6 -40q-3 -32 28 -32h542l-22 -160h-612q-76 0 -106.5 36t-19.5 112l43 307q11 76 51.5 112t115.5 36h510q132 0 113 -136zM646 443h-361q-32 0 -37 -33l-5 -39h393q27 0 30 27l3 18q3 27 -23 27z" />
    <glyph glyph-name="f" unicode="f" horiz-adv-x="780" 
d="M289 443q-44 0 -49 -43l-3 -19h488l-22 -159h-488l-55 -389h-184l84 599q13 88 60.5 129.5t135.5 41.5h551l-22 -160h-496z" />
    <glyph glyph-name="g" unicode="g" horiz-adv-x="854" 
d="M584 225q33 0 38 32l21 153q5 33 -28 33h-341q-32 0 -37 -33l-21 -153q-5 -30 27 -32h341zM466 65h-315q-75 0 -106 36t-20 112l34 242q11 76 51.5 112t115.5 36h481q76 0 106.5 -36t19.5 -112l-56 -404q-16 -113 -75.5 -165.5t-173.5 -52.5h-515l23 160h487
q33 0 49.5 14t20.5 47l14 96q-17 -44 -50 -64.5t-91 -20.5z" />
    <glyph glyph-name="h" unicode="h" horiz-adv-x="860" 
d="M649 410q6 33 -27 33h-340q-32 0 -37 -33l-57 -410h-184l108 770h184l-36 -253q16 44 49 65t92 21h313q76 0 106.5 -36t19.5 -112l-63 -455h-184z" />
    <glyph glyph-name="i" unicode="i" horiz-adv-x="352" 
d="M253 160h76l-22 -160h-143q-78 0 -109 36t-20 112l64 455h184l-58 -411q-3 -32 28 -32zM319 770l-16 -113h-208l16 113h208z" />
    <glyph glyph-name="j" unicode="j" horiz-adv-x="300" 
d="M-55 -7h42q16 0 23 6t9 22l82 582h184l-88 -622q-11 -76 -51.5 -112t-118.5 -36h-105zM97 657l16 113h207l-16 -113h-207z" />
    <glyph glyph-name="k" unicode="k" horiz-adv-x="853" 
d="M649 417l26 186h184l-24 -167q-8 -62 -39.5 -95t-93.5 -40q60 -7 82.5 -39.5t12.5 -94.5l-22 -167h-184l26 186q5 36 -32 36h-366l-31 -222h-184l108 770h184l-55 -389h366q37 0 42 36z" />
    <glyph glyph-name="l" unicode="l" horiz-adv-x="348" 
d="M249 160h76l-22 -160h-143q-78 0 -109 36t-20 112l88 622h184l-82 -578q-3 -32 28 -32z" />
    <glyph glyph-name="m" unicode="m" horiz-adv-x="1165" 
d="M609 489q15 60 52 87t104 27h254q76 0 106 -36t19 -112l-63 -455h-184l57 410q5 33 -28 33h-199q-33 0 -38 -33l-57 -410h-184l57 410q5 33 -27 33h-200q-32 0 -37 -33l-57 -410h-184l63 455q11 76 51.5 112t115.5 36h254q67 0 96.5 -27t28.5 -87z" />
    <glyph glyph-name="n" unicode="n" horiz-adv-x="855" 
d="M0 0l63 455q11 76 51.5 112t115.5 36h479q76 0 106 -36t19 -112l-63 -455h-184l57 410q5 33 -28 33h-338q-32 0 -37 -33l-57 -410h-184z" />
    <glyph glyph-name="o" unicode="o" horiz-adv-x="848" 
d="M717 603q76 0 106 -36t19 -112l-42 -307q-11 -76 -51.5 -112t-115.5 -36h-480q-76 0 -106.5 36t-19.5 112l43 307q11 76 51.5 112t115.5 36h480zM585 160q33 0 36 32l31 218q5 33 -27 33h-340q-32 0 -37 -33l-31 -218q-3 -32 28 -32h340z" />
    <glyph glyph-name="p" unicode="p" horiz-adv-x="854" 
d="M-24 -167l87 622q11 76 51.5 112t115.5 36h482q76 0 106 -36t19 -112l-43 -307q-11 -76 -51 -112t-115 -36h-315q-59 0 -86.5 20.5t-31.5 64.5l-35 -252h-184zM241 410l-31 -218q-3 -32 28 -32h341q34 0 37 32l31 218q5 33 -28 33h-341q-32 0 -37 -33z" />
    <glyph glyph-name="q" unicode="q" horiz-adv-x="854" 
d="M844 455l-87 -622h-184l35 252q-16 -44 -48.5 -64.5t-91.5 -20.5h-315q-76 0 -106.5 36t-19.5 112l43 307q11 76 51.5 112t115.5 36h481q76 0 106.5 -36t19.5 -112zM623 192l31 218q5 33 -28 33h-341q-32 0 -37 -33l-31 -218q-3 -32 28 -32h341q34 0 37 32z" />
    <glyph glyph-name="r" unicode="r" horiz-adv-x="700" 
d="M727 603l-22 -160h-427q-32 0 -37 -33l-57 -410h-184l63 455q11 76 51.5 112t115.5 36h497z" />
    <glyph glyph-name="s" unicode="s" horiz-adv-x="824" 
d="M786 443h-523q-27 0 -31 -27l-3 -18q-3 -27 24 -27h421q68 0 95.5 -33t17.5 -103l-14 -99q-19 -136 -152 -136h-631l22 160h553q27 0 31 27l2 18q4 27 -23 27h-420q-68 0 -96 33t-18 103l14 99q10 70 46.5 103t104.5 33h602z" />
    <glyph glyph-name="t" unicode="t" horiz-adv-x="724" 
d="M160 0q-78 0 -109 36t-20 112l88 622h184l-24 -167h468l-22 -160h-468l-36 -251q-3 -32 28 -32h436l-22 -160h-503z" />
    <glyph glyph-name="u" unicode="u" horiz-adv-x="855" 
d="M587 160q34 0 37 32l58 411h184l-64 -455q-11 -76 -51 -112t-115 -36h-479q-76 0 -106.5 36t-19.5 112l64 455h184l-58 -411q-3 -32 28 -32h338z" />
    <glyph glyph-name="v" unicode="v" horiz-adv-x="847" 
d="M849 603l-56 -403q-15 -104 -69.5 -152t-158.5 -48h-561l84 603h184l-62 -443h336q31 0 45.5 12.5t18.5 42.5l55 388h184z" />
    <glyph glyph-name="w" unicode="w" horiz-adv-x="1165" 
d="M567 114q-16 -60 -52.5 -87t-103.5 -27h-254q-76 0 -106.5 36t-19.5 112l64 455h184l-58 -411q-3 -32 28 -32h200q32 0 37 32l57 411h184l-57 -411q-5 -32 28 -32h199q34 0 37 32l58 411h184l-64 -455q-11 -76 -51 -112t-115 -36h-254q-67 0 -97 27.5t-28 86.5z" />
    <glyph glyph-name="x" unicode="x" horiz-adv-x="861" 
d="M657 417l26 186h184l-24 -167q-8 -62 -39.5 -95t-93.5 -40q60 -7 82.5 -39.5t12.5 -94.5l-22 -167h-184l26 186q5 36 -32 36h-347q-37 0 -42 -36l-26 -186h-184l22 167q9 62 41 94.5t94 39.5q-60 7 -82.5 40t-14.5 95l24 167h184l-26 -186q-4 -36 32 -36h347q37 0 42 36z
" />
    <glyph glyph-name="y" unicode="y" horiz-adv-x="860" 
d="M531 -167h-513l23 160h485q33 0 49.5 14t20.5 47l14 96q-17 -44 -50 -64.5t-91 -20.5h-314q-76 0 -106.5 36t-19.5 112l55 390h184l-48 -346q-5 -32 27 -32h340q33 0 38 32l48 346h184l-77 -552q-16 -113 -75.5 -165.5t-173.5 -52.5z" />
    <glyph glyph-name="z" unicode="z" horiz-adv-x="829" 
d="M235 232q-31 0 -37 -33l-5 -39h584l-22 -160h-768l28 200q24 171 195 171h381q32 0 36 32l6 40h-564l22 160h748l-28 -200q-24 -171 -195 -171h-381z" />
    <glyph glyph-name="braceleft" unicode="{" horiz-adv-x="386" 
d="M285 519l-14 -98q-7 -56 -38.5 -82.5t-91.5 -28.5q59 -2 82.5 -28.5t16.5 -82.5l-13 -98q-3 -17 2.5 -24t22.5 -7h70l-21 -150h-127q-76 0 -106.5 34.5t-19.5 110.5l20 142q4 28 -24 28h-33l21 150h33q29 0 32 28l20 142q10 76 50 110.5t117 34.5h127l-21 -150h-70
q-31 0 -35 -31z" />
    <glyph glyph-name="bar" unicode="|" horiz-adv-x="320" 
d="M72 -167v907h192v-907h-192z" />
    <glyph glyph-name="braceright" unicode="}" horiz-adv-x="386" 
d="M148 421l14 98q2 17 -3.5 24t-22.5 7h-70l21 150h127q76 0 106.5 -34.5t19.5 -110.5l-20 -142q-4 -28 24 -28h34l-21 -150h-34q-29 0 -32 -28l-20 -142q-10 -76 -50 -110.5t-117 -34.5h-127l21 150h70q30 0 35 31l14 98q7 56 38.5 82.5t91.5 28.5q-60 2 -83.5 28.5
t-15.5 82.5z" />
    <glyph glyph-name="asciitilde" unicode="~" 
d="M47 243v164q88 68 203 68q74 0 225 -38.5t224 -38.5q110 0 195 62v-166q-87 -67 -203 -67q-74 0 -225.5 38.5t-225.5 38.5q-109 0 -193 -61z" />
    <glyph glyph-name="uni00A0" unicode="&#xa0;" horiz-adv-x="325" 
 />
    <glyph glyph-name="exclamdown" unicode="&#xa1;" horiz-adv-x="306" 
d="M72 500l18 130h218l-18 -130h-218zM5 -70l30 216q23 158 58 269h152q4 -116 -18 -269l-30 -216h-192z" />
    <glyph glyph-name="cent" unicode="&#xa2;" 
d="M427 -40l13 90h-274q-76 0 -106.5 36t-19.5 112l43 304q11 76 51 112t116 36h274l13 90h167l-13 -90h270l-23 -160h-270l-39 -280h270l-22 -160h-270l-13 -90h-167zM258 210h204l39 280h-204q-31 0 -36 -33l-31 -215q-3 -32 28 -32z" />
    <glyph glyph-name="sterling" unicode="&#xa3;" 
d="M302 167h580l-23 -167h-867l23 167h95l14 100h-95l23 166h95l16 117q11 76 53 113t119 37h570l-24 -167h-498q-17 0 -24.5 -7t-9.5 -24l-10 -69h526l-23 -166h-526z" />
    <glyph glyph-name="currency" unicode="&#xa4;" 
d="M69 503q0 77 35 112.5t112 35.5h172v89h166v-89h171q77 0 112 -35.5t35 -112.5v-73h49v-161h-49v-73q0 -77 -35 -112.5t-112 -35.5h-171v-88h-166v88h-172q-77 0 -112 35.5t-35 112.5v73h-49v161h49v73zM656 486h-371q-32 0 -32 -33v-208q0 -32 32 -32h371q32 0 32 32
v208q0 33 -32 33z" />
    <glyph glyph-name="yen" unicode="&#xa5;" 
d="M762 700h192l-23 -165q-11 -76 -52.5 -113t-118.5 -37h-185l-14 -100h318l-24 -167h-318l-16 -118h-192l16 118h-317l24 167h317l14 100h-185q-78 0 -109.5 37t-20.5 113l24 165h192l-17 -119q-2 -16 3.5 -23t22.5 -7h418q30 0 34 30z" />
    <glyph glyph-name="brokenbar" unicode="&#xa6;" horiz-adv-x="320" 
d="M72 -167v394h192v-394h-192zM72 347v393h192v-393h-192z" />
    <glyph glyph-name="section" unicode="&#xa7;" horiz-adv-x="957" 
d="M266 478h568q58 0 81.5 -27.5t15.5 -86.5l-11 -77q-8 -54 -33 -82.5t-81 -34.5q54 -6 71 -34.5t10 -82.5l-7 -46q-10 -71 -48.5 -105t-109.5 -34h-723l21 150h659q27 0 31 27l2 18q4 27 -23 27h-567q-59 0 -82 27.5t-15 86.5l11 77q7 54 31.5 82t80.5 35
q-54 6 -70.5 34.5t-8.5 82.5l6 46q11 71 49 105t109 34h723l-21 -150h-659q-27 0 -31 -27l-3 -18q-3 -27 24 -27zM713 324h-459q-26 0 -31 -27l-3 -26q-4 -27 23 -27h459q26 0 31 27l3 26q4 27 -23 27z" />
    <glyph glyph-name="dieresis" unicode="&#xa8;" horiz-adv-x="312" 
d="M172 766l-16 -109h-167l15 109h168zM439 766l-15 -109h-168l15 109h168z" />
    <glyph glyph-name="copyright" unicode="&#xa9;" horiz-adv-x="1045" 
d="M314 188q-41 0 -58.5 18.5t-17.5 58.5v169q0 40 17.5 58.5t58.5 18.5h489v-66h-470q-18 0 -18 -18v-155q0 -18 18 -18h470v-66h-489zM223 0q-88 0 -129.5 42t-41.5 128v360q0 86 41.5 128t129.5 42h615q88 0 129.5 -42t41.5 -128v-360q0 -86 -41.5 -128t-129.5 -42h-615z
M228 72h605q94 0 94 94v368q0 94 -94 94h-605q-94 0 -94 -94v-368q0 -94 94 -94z" />
    <glyph glyph-name="ordfeminine" unicode="&#xaa;" horiz-adv-x="719" 
d="M572 494l5 38q4 30 -25 30h-448l20 138h505q67 0 94 -32t18 -98l-39 -274q-9 -66 -45 -98t-103 -32h-397q-131 0 -113 130l10 68q18 130 149 130h369zM209 343l-2 -9q-2 -16 3.5 -23t21.5 -7h284q29 0 33 30l6 38h-313q-29 0 -33 -29zM350 150l94 -150h-230z" />
    <glyph glyph-name="guillemotleft" unicode="&#xab;" horiz-adv-x="640" 
d="M316 51h-189l-110 249l180 249h194l-188 -254zM585 51h-189l-110 249l180 249h194l-188 -254z" />
    <glyph glyph-name="logicalnot" unicode="&#xac;" 
d="M47 271v158h847v-342h-158v184h-689z" />
    <glyph glyph-name="uni00AD" unicode="&#xad;" horiz-adv-x="475" 
d="M458 409l-23 -164h-411l23 164h411z" />
    <glyph glyph-name="registered" unicode="&#xae;" horiz-adv-x="1045" 
d="M223 0q-88 0 -129.5 42t-41.5 128v360q0 86 41.5 128t129.5 42h615q88 0 129.5 -42t41.5 -128v-360q0 -86 -41.5 -128t-129.5 -42h-615zM228 72h605q94 0 94 94v368q0 94 -94 94h-605q-94 0 -94 -94v-368q0 -94 94 -94zM814 402q0 -49 -58 -53q28 -3 43 -21.5t15 -43.5
v-96h-77v106q0 23 -19 23h-392v-129h-78v323h508q58 0 58 -60v-49zM737 430q0 15 -16 15h-395v-63h395q16 0 16 16v32z" />
    <glyph glyph-name="macron" unicode="&#xaf;" horiz-adv-x="312" 
d="M366 667h-318l13 91h319z" />
    <glyph glyph-name="degree" unicode="&#xb0;" horiz-adv-x="573" 
d="M50 565q0 135 142 135h235q142 0 142 -135v-125q0 -135 -142 -135h-235q-142 0 -142 135v125zM252 568q-30 0 -37.5 -8t-7.5 -36v-43q0 -29 7.5 -36.5t37.5 -7.5h115q30 0 37 7.5t7 36.5v43q0 28 -7.5 36t-36.5 8h-115z" />
    <glyph glyph-name="plusminus" unicode="&#xb1;" 
d="M47 271v158h344v183h158v-183h345v-158h-345v-113h345v-158h-847v158h344v113h-344z" />
    <glyph glyph-name="twosuperior" unicode="&#xb2;" horiz-adv-x="651" 
d="M497 524l1 9q3 16 -2.5 23t-21.5 7h-385l19 138h443q66 0 93 -32t18 -98l-10 -68q-9 -66 -45 -98t-102 -32h-263q-25 0 -35 -9t-14 -33l-4 -26h435l-19 -138h-593l24 171q22 157 179 157h249q29 0 33 29z" />
    <glyph glyph-name="threesuperior" unicode="&#xb3;" horiz-adv-x="651" 
d="M658 574l-4 -30q-7 -48 -30.5 -76t-80.5 -35q55 -7 71 -35t9 -76l-4 -30q-10 -66 -44 -96t-100 -30h-465l19 138h404q29 0 33 30l2 9q2 16 -3.5 22.5t-21.5 6.5h-326l17 122h326q29 0 33 29l1 9q2 16 -3.5 23t-21.5 7h-404l20 138h465q66 0 91.5 -30t16.5 -96z" />
    <glyph glyph-name="acute" unicode="&#xb4;" horiz-adv-x="312" 
d="M369 763l-158 -103h-148l119 103h187z" />
    <glyph glyph-name="uni00B5" unicode="&#xb5;" horiz-adv-x="860" 
d="M242 160h340q34 0 37 32l58 411h184l-64 -455q-11 -76 -51 -112t-116 -36h-313q-59 0 -86.5 21t-30.5 65l-36 -253h-184l108 770h184l-58 -411q-3 -32 28 -32z" />
    <glyph glyph-name="paragraph" unicode="&#xb6;" horiz-adv-x="1018" 
d="M1031 700l-117 -832h-166l94 672h-106l-94 -672h-166l57 407h-353q-77 0 -108.5 37t-20.5 113l17 125q11 76 53 113t119 37h791z" />
    <glyph glyph-name="periodcentered" unicode="&#xb7;" horiz-adv-x="299" 
d="M270 425l-21 -150h-206l21 150h206z" />
    <glyph glyph-name="cedilla" unicode="&#xb8;" horiz-adv-x="312" 
d="M83 -38h92q87 0 87 -53q0 -54 -34.5 -77t-106.5 -23h-197l14 98h174q27 0 27 17q0 11 -20 11h-80l36 65h28z" />
    <glyph glyph-name="onesuperior" unicode="&#xb9;" horiz-adv-x="651" 
d="M69 166l19 138h207l36 258h-207l20 138h365l-56 -396h154l-19 -138h-519z" />
    <glyph glyph-name="ordmasculine" unicode="&#xba;" horiz-adv-x="726" 
d="M42 296l39 274q9 66 45 98t103 32h398q67 0 94 -32t18 -98l-39 -274q-18 -130 -148 -130h-398q-67 0 -94 32t-18 98zM515 304q28 0 32 30l28 198q4 30 -24 30h-285q-29 0 -33 -30l-28 -198q-4 -30 25 -30h285zM348 150l94 -150h-230z" />
    <glyph glyph-name="guillemotright" unicode="&#xbb;" horiz-adv-x="640" 
d="M174 51h-192l185 249l-115 249h192l110 -249zM443 51h-192l185 249l-115 249h192l110 -249z" />
    <glyph glyph-name="onequarter" unicode="&#xbc;" horiz-adv-x="1555" 
d="M524 0l371 700h149l-371 -700h-149zM69 166l19 138h207l36 258h-207l20 138h365l-56 -396h154l-19 -138h-519zM1354 336l28 198h158l-75 -534h-158l28 198h-287q-67 0 -94 32t-18 98l29 206h158l-24 -169q-4 -29 25 -29h230z" />
    <glyph glyph-name="onehalf" unicode="&#xbd;" horiz-adv-x="1555" 
d="M524 0l371 700h149l-371 -700h-149zM69 166l19 138h207l36 258h-207l20 138h365l-56 -396h154l-19 -138h-519zM1377 357l1 9q3 16 -2.5 23t-21.5 7h-385l19 138h443q66 0 93 -32t18 -98l-10 -68q-9 -66 -45 -98t-102 -32h-263q-25 0 -35 -9t-14 -33l-4 -26h435l-19 -138
h-593l24 171q22 157 179 157h249q29 0 33 29z" />
    <glyph glyph-name="threequarters" unicode="&#xbe;" horiz-adv-x="1555" 
d="M524 0l371 700h149l-371 -700h-149zM1354 336l28 198h158l-75 -534h-158l28 198h-287q-67 0 -94 32t-18 98l29 206h158l-24 -169q-4 -29 25 -29h230zM658 574l-4 -30q-7 -48 -30.5 -76t-80.5 -35q55 -7 71 -35t9 -76l-4 -30q-10 -66 -44 -96t-100 -30h-465l19 138h404
q29 0 33 30l2 9q2 16 -3.5 22.5t-21.5 6.5h-326l17 122h326q29 0 33 29l1 9q2 16 -3.5 23t-21.5 7h-404l20 138h465q66 0 91.5 -30t16.5 -96z" />
    <glyph glyph-name="questiondown" unicode="&#xbf;" horiz-adv-x="909" 
d="M207 166l-6 -38q-2 -17 3.5 -24t22.5 -7h647l-23 -167h-718q-78 0 -110 37t-21 113l19 133q22 150 173 150h234q17 0 23 5t8 23l5 34h192l-14 -103q-9 -64 -43.5 -94.5t-99.5 -30.5h-258q-17 0 -24.5 -7t-9.5 -24zM462 500l18 130h218l-18 -130h-218z" />
    <glyph glyph-name="Agrave" unicode="&#xc0;" horiz-adv-x="966" 
d="M874 0h-192l37 267h-482l-37 -267h-192l76 550q22 150 173 150h564q77 0 108.5 -37t20.5 -113zM725 533h-421q-17 0 -24.5 -7t-9.5 -24l-10 -69h482l10 69q2 17 -4 24t-23 7zM507 749l-125 103h178l90 -103h-143z" />
    <glyph glyph-name="Aacute" unicode="&#xc1;" horiz-adv-x="966" 
d="M874 0h-192l37 267h-482l-37 -267h-192l76 550q22 150 173 150h564q77 0 108.5 -37t20.5 -113zM725 533h-421q-17 0 -24.5 -7t-9.5 -24l-10 -69h482l10 69q2 17 -4 24t-23 7zM745 852l-158 -103h-148l119 103h187z" />
    <glyph glyph-name="Acircumflex" unicode="&#xc2;" horiz-adv-x="966" 
d="M874 0h-192l37 267h-482l-37 -267h-192l76 550q22 150 173 150h564q77 0 108.5 -37t20.5 -113zM725 533h-421q-17 0 -24.5 -7t-9.5 -24l-10 -69h482l10 69q2 17 -4 24t-23 7zM552 792l-75 -43h-143l129 103h193l98 -103h-138z" />
    <glyph glyph-name="Atilde" unicode="&#xc3;" horiz-adv-x="966" 
d="M874 0h-192l37 267h-482l-37 -267h-192l76 550q22 150 173 150h564q77 0 108.5 -37t20.5 -113zM725 533h-421q-17 0 -24.5 -7t-9.5 -24l-10 -69h482l10 69q2 17 -4 24t-23 7zM382 732l15 100q49 38 93 38q28 0 75 -20t71 -20q41 0 84 42l-13 -99q-51 -44 -97 -44
q-28 0 -75.5 21.5t-71.5 21.5q-41 0 -81 -40z" />
    <glyph glyph-name="Adieresis" unicode="&#xc4;" horiz-adv-x="966" 
d="M874 0h-192l37 267h-482l-37 -267h-192l76 550q22 150 173 150h564q77 0 108.5 -37t20.5 -113zM725 533h-421q-17 0 -24.5 -7t-9.5 -24l-10 -69h482l10 69q2 17 -4 24t-23 7zM510 855l-16 -109h-167l15 109h168zM777 855l-15 -109h-168l15 109h168z" />
    <glyph glyph-name="Aring" unicode="&#xc5;" horiz-adv-x="966" 
d="M874 0h-192l37 267h-482l-37 -267h-192l76 550q22 150 173 150h564q77 0 108.5 -37t20.5 -113zM725 533h-421q-17 0 -24.5 -7t-9.5 -24l-10 -69h482l10 69q2 17 -4 24t-23 7zM601 845h-86q-24 0 -24 -27q0 -17 18 -17h86q24 0 24 27q0 17 -18 17zM573 742h-60
q-88 0 -88 62q0 100 112 100h60q88 0 88 -62q0 -100 -112 -100z" />
    <glyph glyph-name="AE" unicode="&#xc6;" horiz-adv-x="1454" 
d="M606 0l37 267h-406l-37 -267h-192l76 550q22 150 173 150h1219l-24 -167h-580l-14 -100h486l-23 -166h-486l-14 -100h580l-23 -167h-772zM304 533q-17 0 -24.5 -7t-9.5 -24l-10 -69h406l14 100h-376z" />
    <glyph glyph-name="Ccedilla" unicode="&#xc7;" horiz-adv-x="879" 
d="M442 -191h-197l14 98h174q27 0 27 17q0 11 -20 11h-80l36 65h-233q-78 0 -109.5 37t-20.5 113l56 400q11 76 53 113t119 37h651l-24 -167h-579q-17 0 -24.5 -7t-9.5 -24l-43 -304q-2 -17 3.5 -24t22.5 -7h579l-23 -167h-390l-20 -38h92q87 0 87 -53q0 -54 -34.5 -77
t-106.5 -23z" />
    <glyph glyph-name="Egrave" unicode="&#xc8;" horiz-adv-x="929" 
d="M12 0l98 700h841l-24 -167h-649l-14 -100h555l-23 -166h-555l-14 -100h649l-23 -167h-841zM510 749l-125 103h178l90 -103h-143z" />
    <glyph glyph-name="Eacute" unicode="&#xc9;" horiz-adv-x="929" 
d="M12 0l98 700h841l-24 -167h-649l-14 -100h555l-23 -166h-555l-14 -100h649l-23 -167h-841zM747 852l-158 -103h-148l119 103h187z" />
    <glyph glyph-name="Ecircumflex" unicode="&#xca;" horiz-adv-x="929" 
d="M12 0l98 700h841l-24 -167h-649l-14 -100h555l-23 -166h-555l-14 -100h649l-23 -167h-841zM555 792l-75 -43h-143l129 103h193l98 -103h-138z" />
    <glyph glyph-name="Edieresis" unicode="&#xcb;" horiz-adv-x="929" 
d="M12 0l98 700h841l-24 -167h-649l-14 -100h555l-23 -166h-555l-14 -100h649l-23 -167h-841zM513 855l-16 -109h-167l15 109h168zM780 855l-15 -109h-168l15 109h168z" />
    <glyph glyph-name="Igrave" unicode="&#xcc;" horiz-adv-x="300" 
d="M12 0l98 700h192l-98 -700h-192zM177 749l-125 103h178l90 -103h-143z" />
    <glyph glyph-name="Iacute" unicode="&#xcd;" horiz-adv-x="300" 
d="M12 0l98 700h192l-98 -700h-192zM408 852l-158 -103h-148l119 103h187z" />
    <glyph glyph-name="Icircumflex" unicode="&#xce;" horiz-adv-x="300" 
d="M12 0l98 700h192l-98 -700h-192zM220 792l-75 -43h-143l129 103h193l98 -103h-138z" />
    <glyph glyph-name="Idieresis" unicode="&#xcf;" horiz-adv-x="300" 
d="M427 855l-15 -109h-168l15 109h168zM195 855l-15 -109h-168l15 109h168zM12 0l98 700h192l-98 -700h-192z" />
    <glyph glyph-name="Eth" unicode="&#xd0;" horiz-adv-x="958" 
d="M768 700q102 0 147.5 -53t30.5 -156l-39 -282q-31 -209 -237 -209h-658l37 267h-52l23 166h52l38 267h658zM651 167q59 0 66 58l35 249q9 59 -50 59h-424l-14 -100h106l-23 -166h-106l-14 -100h424z" />
    <glyph glyph-name="Ntilde" unicode="&#xd1;" horiz-adv-x="966" 
d="M304 533q-17 0 -24.5 -7t-9.5 -24l-70 -502h-192l76 550q22 150 173 150h564q77 0 108.5 -37t20.5 -113l-76 -550h-192l70 502q2 17 -4 24t-23 7h-421zM382 732l15 100q49 38 93 38q28 0 75 -20t71 -20q41 0 84 42l-13 -99q-51 -44 -97 -44q-28 0 -75.5 21.5t-71.5 21.5
q-41 0 -81 -40z" />
    <glyph glyph-name="Ograve" unicode="&#xd2;" horiz-adv-x="955" 
d="M164 0q-78 0 -110 37t-21 113l56 400q22 150 173 150h565q78 0 109.5 -37t20.5 -113l-56 -400q-11 -76 -53 -113t-119 -37h-565zM715 198l43 304q2 17 -3.5 24t-22.5 7h-423q-17 0 -24.5 -7t-9.5 -24l-43 -304q-2 -17 4 -24t22 -7h423q17 0 24.5 7t9.5 24zM512 749
l-125 103h178l90 -103h-143z" />
    <glyph glyph-name="Oacute" unicode="&#xd3;" horiz-adv-x="955" 
d="M164 0q-78 0 -110 37t-21 113l56 400q22 150 173 150h565q78 0 109.5 -37t20.5 -113l-56 -400q-11 -76 -53 -113t-119 -37h-565zM715 198l43 304q2 17 -3.5 24t-22.5 7h-423q-17 0 -24.5 -7t-9.5 -24l-43 -304q-2 -17 4 -24t22 -7h423q17 0 24.5 7t9.5 24zM750 852
l-158 -103h-148l119 103h187z" />
    <glyph glyph-name="Ocircumflex" unicode="&#xd4;" horiz-adv-x="955" 
d="M164 0q-78 0 -110 37t-21 113l56 400q22 150 173 150h565q78 0 109.5 -37t20.5 -113l-56 -400q-11 -76 -53 -113t-119 -37h-565zM715 198l43 304q2 17 -3.5 24t-22.5 7h-423q-17 0 -24.5 -7t-9.5 -24l-43 -304q-2 -17 4 -24t22 -7h423q17 0 24.5 7t9.5 24zM558 792
l-75 -43h-143l129 103h193l98 -103h-138z" />
    <glyph glyph-name="Otilde" unicode="&#xd5;" horiz-adv-x="955" 
d="M164 0q-78 0 -110 37t-21 113l56 400q22 150 173 150h565q78 0 109.5 -37t20.5 -113l-56 -400q-11 -76 -53 -113t-119 -37h-565zM715 198l43 304q2 17 -3.5 24t-22.5 7h-423q-17 0 -24.5 -7t-9.5 -24l-43 -304q-2 -17 4 -24t22 -7h423q17 0 24.5 7t9.5 24zM388 732
l15 100q49 38 93 38q28 0 75 -20t71 -20q41 0 84 42l-13 -99q-51 -44 -97 -44q-28 0 -75.5 21.5t-71.5 21.5q-41 0 -81 -40z" />
    <glyph glyph-name="Odieresis" unicode="&#xd6;" horiz-adv-x="955" 
d="M164 0q-78 0 -110 37t-21 113l56 400q22 150 173 150h565q78 0 109.5 -37t20.5 -113l-56 -400q-11 -76 -53 -113t-119 -37h-565zM715 198l43 304q2 17 -3.5 24t-22.5 7h-423q-17 0 -24.5 -7t-9.5 -24l-43 -304q-2 -17 4 -24t22 -7h423q17 0 24.5 7t9.5 24zM516 855
l-16 -109h-167l15 109h168zM783 855l-15 -109h-168l15 109h168z" />
    <glyph glyph-name="multiply" unicode="&#xd7;" 
d="M641 271l88 -184h-174l-83 183l-87 -183h-174l88 184h-252v158h252l-88 183h174l87 -183l83 183h174l-88 -183h253v-158h-253z" />
    <glyph glyph-name="Oslash" unicode="&#xd8;" horiz-adv-x="955" 
d="M164 0q-78 0 -110 37t-21 113l56 400q22 150 173 150h565q78 0 109.5 -37t20.5 -113l-56 -400q-11 -76 -53 -113t-119 -37h-565zM334 167h347q17 0 24.5 7t9.5 24l43 304q1 9 0 15zM231 189l418 344h-340q-17 0 -24.5 -7t-9.5 -24l-43 -302q-1 -5 -1 -11z" />
    <glyph glyph-name="Ugrave" unicode="&#xd9;" horiz-adv-x="966" 
d="M170 0q-78 0 -110 37t-21 113l78 550h192l-71 -502q-2 -17 3.5 -24t22.5 -7h421q17 0 25 7t10 24l71 502h192l-78 -550q-11 -76 -52.5 -113t-118.5 -37h-564zM518 749l-125 103h178l90 -103h-143z" />
    <glyph glyph-name="Uacute" unicode="&#xda;" horiz-adv-x="966" 
d="M170 0q-78 0 -110 37t-21 113l78 550h192l-71 -502q-2 -17 3.5 -24t22.5 -7h421q17 0 25 7t10 24l71 502h192l-78 -550q-11 -76 -52.5 -113t-118.5 -37h-564zM755 852l-158 -103h-148l119 103h187z" />
    <glyph glyph-name="Ucircumflex" unicode="&#xdb;" horiz-adv-x="966" 
d="M170 0q-78 0 -110 37t-21 113l78 550h192l-71 -502q-2 -17 3.5 -24t22.5 -7h421q17 0 25 7t10 24l71 502h192l-78 -550q-11 -76 -52.5 -113t-118.5 -37h-564zM563 792l-75 -43h-143l129 103h193l98 -103h-138z" />
    <glyph glyph-name="Udieresis" unicode="&#xdc;" horiz-adv-x="966" 
d="M170 0q-78 0 -110 37t-21 113l78 550h192l-71 -502q-2 -17 3.5 -24t22.5 -7h421q17 0 25 7t10 24l71 502h192l-78 -550q-11 -76 -52.5 -113t-118.5 -37h-564zM521 855l-16 -109h-167l15 109h168zM788 855l-15 -109h-168l15 109h168z" />
    <glyph glyph-name="Yacute" unicode="&#xdd;" horiz-adv-x="946" 
d="M787 700h192l-39 -283q-11 -76 -53 -113t-119 -37h-193l-37 -267h-192l37 267h-193q-77 0 -108.5 37t-20.5 113l40 283h192l-34 -237q-2 -16 3.5 -23t22.5 -7h434q30 0 35 30zM746 852l-158 -103h-148l119 103h187z" />
    <glyph glyph-name="Thorn" unicode="&#xde;" horiz-adv-x="940" 
d="M12 0l98 700h192l-14 -97h520q78 0 109.5 -37t20.5 -113l-19 -134q-11 -76 -52.5 -113t-119.5 -37h-520l-23 -169h-192zM740 405q2 17 -4 24t-23 7h-448l-14 -100h448q31 0 35 31z" />
    <glyph glyph-name="germandbls" unicode="&#xdf;" horiz-adv-x="882" 
d="M629 232h-333l20 139h333q28 0 31 27l3 18q4 27 -24 27h-370q-43 0 -49 -43l-80 -567h-184l84 600q13 87 60.5 128.5t134.5 41.5h505q133 0 114 -134l-6 -48q-8 -54 -34.5 -84t-78.5 -36q95 -11 79 -119l-7 -49q-18 -133 -151 -133h-412l22 160h333q28 0 32 27l2 18
q5 27 -24 27z" />
    <glyph glyph-name="agrave" unicode="&#xe0;" horiz-adv-x="854" 
d="M652 371l5 39q5 33 -27 33h-542l22 160h612q76 0 106 -36t19 -112l-43 -307q-11 -76 -51 -112t-115 -36h-509q-68 0 -96 33t-18 103l14 99q10 70 46.5 103t104.5 33h472zM632 232h-393q-27 0 -31 -27l-2 -18q-4 -27 23 -27h361q33 0 36 32zM443 660l-125 103h178l90 -103
h-143z" />
    <glyph glyph-name="aacute" unicode="&#xe1;" horiz-adv-x="854" 
d="M652 371l5 39q5 33 -27 33h-542l22 160h612q76 0 106 -36t19 -112l-43 -307q-11 -76 -51 -112t-115 -36h-509q-68 0 -96 33t-18 103l14 99q10 70 46.5 103t104.5 33h472zM632 232h-393q-27 0 -31 -27l-2 -18q-4 -27 23 -27h361q33 0 36 32zM681 763l-158 -103h-148
l119 103h187z" />
    <glyph glyph-name="acircumflex" unicode="&#xe2;" horiz-adv-x="854" 
d="M652 371l5 39q5 33 -27 33h-542l22 160h612q76 0 106 -36t19 -112l-43 -307q-11 -76 -51 -112t-115 -36h-509q-68 0 -96 33t-18 103l14 99q10 70 46.5 103t104.5 33h472zM632 232h-393q-27 0 -31 -27l-2 -18q-4 -27 23 -27h361q33 0 36 32zM489 703l-75 -43h-143l129 103
h193l98 -103h-138z" />
    <glyph glyph-name="atilde" unicode="&#xe3;" horiz-adv-x="854" 
d="M652 371l5 39q5 33 -27 33h-542l22 160h612q76 0 106 -36t19 -112l-43 -307q-11 -76 -51 -112t-115 -36h-509q-68 0 -96 33t-18 103l14 99q10 70 46.5 103t104.5 33h472zM632 232h-393q-27 0 -31 -27l-2 -18q-4 -27 23 -27h361q33 0 36 32zM319 643l15 100q49 38 93 38
q28 0 75 -20t71 -20q41 0 84 42l-13 -99q-51 -44 -97 -44q-28 0 -75.5 21.5t-71.5 21.5q-41 0 -81 -40z" />
    <glyph glyph-name="adieresis" unicode="&#xe4;" horiz-adv-x="854" 
d="M652 371l5 39q5 33 -27 33h-542l22 160h612q76 0 106 -36t19 -112l-43 -307q-11 -76 -51 -112t-115 -36h-509q-68 0 -96 33t-18 103l14 99q10 70 46.5 103t104.5 33h472zM632 232h-393q-27 0 -31 -27l-2 -18q-4 -27 23 -27h361q33 0 36 32zM447 766l-16 -109h-167l15 109
h168zM714 766l-15 -109h-168l15 109h168z" />
    <glyph glyph-name="aring" unicode="&#xe5;" horiz-adv-x="854" 
d="M652 371l5 39q5 33 -27 33h-542l22 160h612q76 0 106 -36t19 -112l-43 -307q-11 -76 -51 -112t-115 -36h-509q-68 0 -96 33t-18 103l14 99q10 70 46.5 103t104.5 33h472zM632 232h-393q-27 0 -31 -27l-2 -18q-4 -27 23 -27h361q33 0 36 32zM538 756h-86q-24 0 -24 -27
q0 -17 18 -17h86q24 0 24 27q0 17 -18 17zM510 653h-60q-88 0 -88 62q0 100 112 100h60q88 0 88 -62q0 -100 -112 -100z" />
    <glyph glyph-name="ae" unicode="&#xe6;" horiz-adv-x="1254" 
d="M1065 398l3 18q3 27 -23 27h-264q-32 0 -37 -33l-5 -39h296q27 0 30 27zM208 205l-2 -18q-4 -27 23 -27h263q34 0 37 32l6 40h-296q-27 0 -31 -27zM454 0h-325q-68 0 -96 33t-18 103l14 99q10 70 46.5 103t104.5 33h375l5 39q5 33 -28 33h-445l22 160h429q67 0 96.5 -27
t28.5 -87q16 60 52.5 87t104.5 27h325q68 0 96 -33t18 -103l-14 -99q-10 -70 -46.5 -103t-104.5 -33h-375l-6 -40q-3 -32 28 -32h445l-22 -160h-428q-68 0 -97.5 27t-27.5 87q-17 -60 -53.5 -87t-103.5 -27z" />
    <glyph glyph-name="ccedilla" unicode="&#xe7;" horiz-adv-x="797" 
d="M395 -65h-80l36 65h-198q-76 0 -106.5 36t-19.5 112l43 307q11 76 51.5 112t115.5 36h583l-22 -160h-513q-32 0 -37 -33l-31 -218q-3 -32 28 -32h513l-22 -160h-357l-20 -38h92q87 0 87 -53q0 -54 -34.5 -77t-106.5 -23h-197l14 98h174q27 0 27 17q0 11 -20 11z" />
    <glyph glyph-name="egrave" unicode="&#xe8;" horiz-adv-x="854" 
d="M846 368q-10 -70 -46.5 -103t-104.5 -33h-472l-6 -40q-3 -32 28 -32h542l-22 -160h-612q-76 0 -106.5 36t-19.5 112l43 307q11 76 51.5 112t115.5 36h510q132 0 113 -136zM646 443h-361q-32 0 -37 -33l-5 -39h393q27 0 30 27l3 18q3 27 -23 27zM464 660l-125 103h178
l90 -103h-143z" />
    <glyph glyph-name="eacute" unicode="&#xe9;" horiz-adv-x="854" 
d="M846 368q-10 -70 -46.5 -103t-104.5 -33h-472l-6 -40q-3 -32 28 -32h542l-22 -160h-612q-76 0 -106.5 36t-19.5 112l43 307q11 76 51.5 112t115.5 36h510q132 0 113 -136zM646 443h-361q-32 0 -37 -33l-5 -39h393q27 0 30 27l3 18q3 27 -23 27zM702 763l-158 -103h-148
l119 103h187z" />
    <glyph glyph-name="ecircumflex" unicode="&#xea;" horiz-adv-x="854" 
d="M846 368q-10 -70 -46.5 -103t-104.5 -33h-472l-6 -40q-3 -32 28 -32h542l-22 -160h-612q-76 0 -106.5 36t-19.5 112l43 307q11 76 51.5 112t115.5 36h510q132 0 113 -136zM646 443h-361q-32 0 -37 -33l-5 -39h393q27 0 30 27l3 18q3 27 -23 27zM510 703l-75 -43h-143
l129 103h193l98 -103h-138z" />
    <glyph glyph-name="edieresis" unicode="&#xeb;" horiz-adv-x="854" 
d="M846 368q-10 -70 -46.5 -103t-104.5 -33h-472l-6 -40q-3 -32 28 -32h542l-22 -160h-612q-76 0 -106.5 36t-19.5 112l43 307q11 76 51.5 112t115.5 36h510q132 0 113 -136zM646 443h-361q-32 0 -37 -33l-5 -39h393q27 0 30 27l3 18q3 27 -23 27zM468 766l-16 -109h-167
l15 109h168zM735 766l-15 -109h-168l15 109h168z" />
    <glyph glyph-name="igrave" unicode="&#xec;" horiz-adv-x="352" 
d="M172 660l-125 103h178l90 -103h-143zM253 160h76l-22 -160h-143q-78 0 -109 36t-20 112l64 455h184l-58 -411q-3 -32 28 -32z" />
    <glyph glyph-name="iacute" unicode="&#xed;" horiz-adv-x="352" 
d="M397 763l-158 -103h-148l119 103h187zM253 160h76l-22 -160h-143q-78 0 -109 36t-20 112l64 455h184l-58 -411q-3 -32 28 -32z" />
    <glyph glyph-name="icircumflex" unicode="&#xee;" horiz-adv-x="352" 
d="M242 160h76l-22 -160h-143q-78 0 -109 36t-20 112l64 455h184l-58 -411q-3 -32 28 -32zM196 703l-75 -43h-143l129 103h193l98 -103h-138z" />
    <glyph glyph-name="idieresis" unicode="&#xef;" horiz-adv-x="352" 
d="M412 766l-16 -109h-167l15 109h168zM162 766l-15 -109h-168l15 109h168zM242 160h76l-22 -160h-143q-78 0 -109 36t-20 112l64 455h184l-58 -411q-3 -32 28 -32z" />
    <glyph glyph-name="eth" unicode="&#xf0;" horiz-adv-x="854" 
d="M230 548h315q58 0 85.5 -20.5t31.5 -64.5l12 86q4 33 -8.5 47t-45.5 14h-185l-4 -31h-43l4 31h-259l23 160h259l7 50h43l-7 -50h213q114 0 158.5 -52.5t28.5 -165.5l-57 -404q-11 -76 -51 -112t-116 -36h-481q-76 0 -106.5 36t-19.5 112l35 252q11 76 52 112t116 36z
M618 388h-341q-33 -2 -36 -32l-24 -163q-3 -33 28 -33h341q34 0 37 33l24 163q3 32 -29 32z" />
    <glyph glyph-name="ntilde" unicode="&#xf1;" horiz-adv-x="855" 
d="M0 0l63 455q11 76 51.5 112t115.5 36h479q76 0 106 -36t19 -112l-63 -455h-184l57 410q5 33 -28 33h-338q-32 0 -37 -33l-57 -410h-184zM315 643l15 100q49 38 93 38q28 0 75 -20t71 -20q41 0 84 42l-13 -99q-51 -44 -97 -44q-28 0 -75.5 21.5t-71.5 21.5q-41 0 -81 -40z
" />
    <glyph glyph-name="ograve" unicode="&#xf2;" horiz-adv-x="848" 
d="M717 603q76 0 106 -36t19 -112l-42 -307q-11 -76 -51.5 -112t-115.5 -36h-480q-76 0 -106.5 36t-19.5 112l43 307q11 76 51.5 112t115.5 36h480zM585 160q33 0 36 32l31 218q5 33 -27 33h-340q-32 0 -37 -33l-31 -218q-3 -32 28 -32h340zM446 660l-125 103h178l90 -103
h-143z" />
    <glyph glyph-name="oacute" unicode="&#xf3;" horiz-adv-x="848" 
d="M717 603q76 0 106 -36t19 -112l-42 -307q-11 -76 -51.5 -112t-115.5 -36h-480q-76 0 -106.5 36t-19.5 112l43 307q11 76 51.5 112t115.5 36h480zM585 160q33 0 36 32l31 218q5 33 -27 33h-340q-32 0 -37 -33l-31 -218q-3 -32 28 -32h340zM684 763l-158 -103h-148l119 103
h187z" />
    <glyph glyph-name="ocircumflex" unicode="&#xf4;" horiz-adv-x="848" 
d="M717 603q76 0 106 -36t19 -112l-42 -307q-11 -76 -51.5 -112t-115.5 -36h-480q-76 0 -106.5 36t-19.5 112l43 307q11 76 51.5 112t115.5 36h480zM585 160q33 0 36 32l31 218q5 33 -27 33h-340q-32 0 -37 -33l-31 -218q-3 -32 28 -32h340zM493 703l-75 -43h-143l129 103
h193l98 -103h-138z" />
    <glyph glyph-name="otilde" unicode="&#xf5;" horiz-adv-x="848" 
d="M717 603q76 0 106 -36t19 -112l-42 -307q-11 -76 -51.5 -112t-115.5 -36h-480q-76 0 -106.5 36t-19.5 112l43 307q11 76 51.5 112t115.5 36h480zM585 160q33 0 36 32l31 218q5 33 -27 33h-340q-32 0 -37 -33l-31 -218q-3 -32 28 -32h340zM323 643l15 100q49 38 93 38
q28 0 75 -20t71 -20q41 0 84 42l-13 -99q-51 -44 -97 -44q-28 0 -75.5 21.5t-71.5 21.5q-41 0 -81 -40z" />
    <glyph glyph-name="odieresis" unicode="&#xf6;" horiz-adv-x="848" 
d="M717 603q76 0 106 -36t19 -112l-42 -307q-11 -76 -51.5 -112t-115.5 -36h-480q-76 0 -106.5 36t-19.5 112l43 307q11 76 51.5 112t115.5 36h480zM585 160q33 0 36 32l31 218q5 33 -27 33h-340q-32 0 -37 -33l-31 -218q-3 -32 28 -32h340zM451 766l-16 -109h-167l15 109
h168zM718 766l-15 -109h-168l15 109h168z" />
    <glyph glyph-name="divide" unicode="&#xf7;" 
d="M555 177v-151h-170v151h170zM555 674v-151h-170v151h170zM894 271h-847v158h847v-158z" />
    <glyph glyph-name="oslash" unicode="&#xf8;" horiz-adv-x="848" 
d="M717 603q76 0 106 -36t19 -112l-42 -307q-11 -76 -51.5 -112t-115.5 -36h-480q-76 0 -106.5 36t-19.5 112l43 307q11 76 51.5 112t115.5 36h480zM220 172l326 271h-261q-32 0 -37 -33l-31 -218q-2 -12 3 -20zM585 160q33 0 36 32l31 218q1 7 -1 17l-322 -267h256z" />
    <glyph glyph-name="ugrave" unicode="&#xf9;" horiz-adv-x="855" 
d="M587 160q34 0 37 32l58 411h184l-64 -455q-11 -76 -51 -112t-115 -36h-479q-76 0 -106.5 36t-19.5 112l64 455h184l-58 -411q-3 -32 28 -32h338zM450 660l-125 103h178l90 -103h-143z" />
    <glyph glyph-name="uacute" unicode="&#xfa;" horiz-adv-x="855" 
d="M587 160q34 0 37 32l58 411h184l-64 -455q-11 -76 -51 -112t-115 -36h-479q-76 0 -106.5 36t-19.5 112l64 455h184l-58 -411q-3 -32 28 -32h338zM688 763l-158 -103h-148l119 103h187z" />
    <glyph glyph-name="ucircumflex" unicode="&#xfb;" horiz-adv-x="855" 
d="M587 160q34 0 37 32l58 411h184l-64 -455q-11 -76 -51 -112t-115 -36h-479q-76 0 -106.5 36t-19.5 112l64 455h184l-58 -411q-3 -32 28 -32h338zM496 703l-75 -43h-143l129 103h193l98 -103h-138z" />
    <glyph glyph-name="udieresis" unicode="&#xfc;" horiz-adv-x="855" 
d="M587 160q34 0 37 32l58 411h184l-64 -455q-11 -76 -51 -112t-115 -36h-479q-76 0 -106.5 36t-19.5 112l64 455h184l-58 -411q-3 -32 28 -32h338zM454 766l-16 -109h-167l15 109h168zM721 766l-15 -109h-168l15 109h168z" />
    <glyph glyph-name="yacute" unicode="&#xfd;" horiz-adv-x="860" 
d="M531 -167h-513l23 160h485q33 0 49.5 14t20.5 47l14 96q-17 -44 -50 -64.5t-91 -20.5h-314q-76 0 -106.5 36t-19.5 112l55 390h184l-48 -346q-5 -32 27 -32h340q33 0 38 32l48 346h184l-77 -552q-16 -113 -75.5 -165.5t-173.5 -52.5zM680 763l-158 -103h-148l119 103h187
z" />
    <glyph glyph-name="thorn" unicode="&#xfe;" horiz-adv-x="858" 
d="M296 770l-24 -167h444q76 0 106 -36t19 -112l-43 -307q-11 -76 -51 -112t-115 -36h-315q-59 0 -86.5 20.5t-31.5 64.5l-35 -252h-184l132 937h184zM250 443l-36 -251q-3 -32 28 -32h341q34 0 37 32l31 218q5 33 -28 33h-373z" />
    <glyph glyph-name="ydieresis" unicode="&#xff;" horiz-adv-x="860" 
d="M531 -167h-513l23 160h485q33 0 49.5 14t20.5 47l14 96q-17 -44 -50 -64.5t-91 -20.5h-314q-76 0 -106.5 36t-19.5 112l55 390h184l-48 -346q-5 -32 27 -32h340q33 0 38 32l48 346h184l-77 -552q-16 -113 -75.5 -165.5t-173.5 -52.5zM446 766l-16 -109h-167l15 109h168z
M713 766l-15 -109h-168l15 109h168z" />
    <glyph glyph-name="Amacron" unicode="&#x100;" horiz-adv-x="966" 
d="M874 0h-192l37 267h-482l-37 -267h-192l76 550q22 150 173 150h564q77 0 108.5 -37t20.5 -113zM725 533h-421q-17 0 -24.5 -7t-9.5 -24l-10 -69h482l10 69q2 17 -4 24t-23 7zM704 756h-318l13 91h319z" />
    <glyph glyph-name="amacron" unicode="&#x101;" horiz-adv-x="854" 
d="M652 371l5 39q5 33 -27 33h-542l22 160h612q76 0 106 -36t19 -112l-43 -307q-11 -76 -51 -112t-115 -36h-509q-68 0 -96 33t-18 103l14 99q10 70 46.5 103t104.5 33h472zM632 232h-393q-27 0 -31 -27l-2 -18q-4 -27 23 -27h361q33 0 36 32zM641 667h-318l13 91h319z" />
    <glyph glyph-name="Abreve" unicode="&#x102;" horiz-adv-x="966" 
d="M874 0h-192l37 267h-482l-37 -267h-192l76 550q22 150 173 150h564q77 0 108.5 -37t20.5 -113zM725 533h-421q-17 0 -24.5 -7t-9.5 -24l-10 -69h482l10 69q2 17 -4 24t-23 7zM389 781l10 95q45 -45 153 -45t165 45l-9 -95q-60 -47 -166 -47t-153 47z" />
    <glyph glyph-name="abreve" unicode="&#x103;" horiz-adv-x="854" 
d="M652 371l5 39q5 33 -27 33h-542l22 160h612q76 0 106 -36t19 -112l-43 -307q-11 -76 -51 -112t-115 -36h-509q-68 0 -96 33t-18 103l14 99q10 70 46.5 103t104.5 33h472zM632 232h-393q-27 0 -31 -27l-2 -18q-4 -27 23 -27h361q33 0 36 32zM326 692l10 95q45 -45 153 -45
t165 45l-9 -95q-60 -47 -166 -47t-153 47z" />
    <glyph glyph-name="Aogonek" unicode="&#x104;" horiz-adv-x="966" 
d="M797 -191h-210q-51 0 -77 12t-26 44q0 58 50 77.5t202 19.5h13l6 38h-73l37 267h-482l-37 -267h-192l76 550q22 150 173 150h564q77 0 108.5 -37t20.5 -113l-76 -550h-90l-9 -63h-31q-48 0 -81 -1t-52 -2.5t-29.5 -4.5t-13.5 -5.5t-3 -6.5q0 -10 27 -10h219zM725 533
h-421q-17 0 -24.5 -7t-9.5 -24l-10 -69h482l10 69q2 17 -4 24t-23 7z" />
    <glyph glyph-name="aogonek" unicode="&#x105;" horiz-adv-x="854" 
d="M710 -191h-210q-51 0 -77 12t-26 44q0 58 50 77.5t202 19.5h13l5 39q-9 -1 -29 -1h-509q-68 0 -96 33t-18 103l14 99q10 70 46.5 103t104.5 33h472l5 39q5 33 -27 33h-542l22 160h612q76 0 106 -36t19 -112l-43 -307q-16 -117 -107 -142l-9 -69h-31q-48 0 -81 -1
t-52 -2.5t-29.5 -4.5t-13.5 -5.5t-3 -6.5q0 -10 27 -10h219zM632 232h-393q-27 0 -31 -27l-2 -18q-4 -27 23 -27h361q33 0 36 32z" />
    <glyph glyph-name="Cacute" unicode="&#x106;" horiz-adv-x="879" 
d="M163 0q-78 0 -109.5 37t-20.5 113l56 400q11 76 53 113t119 37h651l-24 -167h-579q-17 0 -24.5 -7t-9.5 -24l-43 -304q-2 -17 3.5 -24t22.5 -7h579l-23 -167h-651zM727 852l-158 -103h-148l119 103h187z" />
    <glyph glyph-name="cacute" unicode="&#x107;" horiz-adv-x="797" 
d="M153 0q-76 0 -106.5 36t-19.5 112l43 307q11 76 51.5 112t115.5 36h583l-22 -160h-513q-32 0 -37 -33l-31 -218q-3 -32 28 -32h513l-22 -160h-583zM687 763l-158 -103h-148l119 103h187z" />
    <glyph glyph-name="Ccircumflex" unicode="&#x108;" horiz-adv-x="879" 
d="M163 0q-78 0 -109.5 37t-20.5 113l56 400q11 76 53 113t119 37h651l-24 -167h-579q-17 0 -24.5 -7t-9.5 -24l-43 -304q-2 -17 3.5 -24t22.5 -7h579l-23 -167h-651zM544 792l-75 -43h-143l129 103h193l98 -103h-138z" />
    <glyph glyph-name="ccircumflex" unicode="&#x109;" horiz-adv-x="797" 
d="M153 0q-76 0 -106.5 36t-19.5 112l43 307q11 76 51.5 112t115.5 36h583l-22 -160h-513q-32 0 -37 -33l-31 -218q-3 -32 28 -32h513l-22 -160h-583zM495 703l-75 -43h-143l129 103h193l98 -103h-138z" />
    <glyph glyph-name="Cdotaccent" unicode="&#x10a;" horiz-adv-x="879" 
d="M163 0q-78 0 -109.5 37t-20.5 113l56 400q11 76 53 113t119 37h651l-24 -167h-579q-17 0 -24.5 -7t-9.5 -24l-43 -304q-2 -17 3.5 -24t22.5 -7h579l-23 -167h-651zM635 855l-15 -109h-168l15 109h168z" />
    <glyph glyph-name="cdotaccent" unicode="&#x10b;" horiz-adv-x="797" 
d="M153 0q-76 0 -106.5 36t-19.5 112l43 307q11 76 51.5 112t115.5 36h583l-22 -160h-513q-32 0 -37 -33l-31 -218q-3 -32 28 -32h513l-22 -160h-583zM586 766l-15 -109h-168l15 109h168z" />
    <glyph glyph-name="Ccaron" unicode="&#x10c;" horiz-adv-x="879" 
d="M163 0q-78 0 -109.5 37t-20.5 113l56 400q11 76 53 113t119 37h651l-24 -167h-579q-17 0 -24.5 -7t-9.5 -24l-43 -304q-2 -17 3.5 -24t22.5 -7h579l-23 -167h-651zM480 852l63 -43l76 43h142l-129 -103h-192l-99 103h139z" />
    <glyph glyph-name="ccaron" unicode="&#x10d;" horiz-adv-x="797" 
d="M153 0q-76 0 -106.5 36t-19.5 112l43 307q11 76 51.5 112t115.5 36h583l-22 -160h-513q-32 0 -37 -33l-31 -218q-3 -32 28 -32h513l-22 -160h-583zM431 763l63 -43l76 43h142l-129 -103h-192l-99 103h139z" />
    <glyph glyph-name="Dcaron" unicode="&#x10e;" horiz-adv-x="958" 
d="M768 700q102 0 147.5 -53t30.5 -156l-39 -282q-31 -209 -237 -209h-658l98 700h658zM651 167q59 0 66 58l35 249q9 59 -50 59h-424l-51 -366h424zM476 852l63 -43l76 43h142l-129 -103h-192l-99 103h139z" />
    <glyph glyph-name="dcaron" unicode="&#x10f;" horiz-adv-x="1153" 
d="M889 770l-88 -622q-11 -76 -51 -112t-116 -36h-481q-76 0 -106.5 36t-19.5 112l43 307q11 76 51.5 112t115.5 36h315q59 0 86 -21t31 -65l36 253h184zM623 192l31 218q5 33 -28 33h-341q-32 0 -37 -33l-31 -218q-3 -32 28 -32h341q34 0 37 32zM1174 700l-21 -150
q-11 -77 -61 -122t-130 -45h-39l12 86h31q30 0 44.5 11t18.5 42l5 28h-87l21 150h206z" />
    <glyph glyph-name="Dcroat" unicode="&#x110;" horiz-adv-x="958" 
d="M768 700q102 0 147.5 -53t30.5 -156l-39 -282q-31 -209 -237 -209h-658l37 267h-52l23 166h52l38 267h658zM651 167q59 0 66 58l35 249q9 59 -50 59h-424l-14 -100h106l-23 -166h-106l-14 -100h424z" />
    <glyph glyph-name="dcroat" unicode="&#x111;" horiz-adv-x="854" 
d="M889 770l-8 -54h40l-13 -91h-40l-67 -477q-11 -76 -51 -112t-116 -36h-481q-76 0 -106.5 36t-19.5 112l43 307q11 76 51.5 112t115.5 36h315q59 0 86 -21t31 -65l15 108h-95l14 91h94l8 54h184zM623 192l31 218q5 33 -28 33h-341q-32 0 -37 -33l-31 -218q-3 -32 28 -32
h341q34 0 37 32z" />
    <glyph glyph-name="Emacron" unicode="&#x112;" horiz-adv-x="929" 
d="M12 0l98 700h841l-24 -167h-649l-14 -100h555l-23 -166h-555l-14 -100h649l-23 -167h-841zM707 756h-318l13 91h319z" />
    <glyph glyph-name="emacron" unicode="&#x113;" horiz-adv-x="854" 
d="M846 368q-10 -70 -46.5 -103t-104.5 -33h-472l-6 -40q-3 -32 28 -32h542l-22 -160h-612q-76 0 -106.5 36t-19.5 112l43 307q11 76 51.5 112t115.5 36h510q132 0 113 -136zM646 443h-361q-32 0 -37 -33l-5 -39h393q27 0 30 27l3 18q3 27 -23 27zM662 667h-318l13 91h319z
" />
    <glyph glyph-name="Ebreve" unicode="&#x114;" horiz-adv-x="929" 
d="M12 0l98 700h841l-24 -167h-649l-14 -100h555l-23 -166h-555l-14 -100h649l-23 -167h-841zM392 781l10 95q45 -45 153 -45t165 45l-9 -95q-60 -47 -166 -47t-153 47z" />
    <glyph glyph-name="ebreve" unicode="&#x115;" horiz-adv-x="854" 
d="M846 368q-10 -70 -46.5 -103t-104.5 -33h-472l-6 -40q-3 -32 28 -32h542l-22 -160h-612q-76 0 -106.5 36t-19.5 112l43 307q11 76 51.5 112t115.5 36h510q132 0 113 -136zM646 443h-361q-32 0 -37 -33l-5 -39h393q27 0 30 27l3 18q3 27 -23 27zM347 692l10 95
q45 -45 153 -45t165 45l-9 -95q-60 -47 -166 -47t-153 47z" />
    <glyph glyph-name="Edotaccent" unicode="&#x116;" horiz-adv-x="929" 
d="M12 0l98 700h841l-24 -167h-649l-14 -100h555l-23 -166h-555l-14 -100h649l-23 -167h-841zM646 855l-15 -109h-168l15 109h168z" />
    <glyph glyph-name="edotaccent" unicode="&#x117;" horiz-adv-x="854" 
d="M846 368q-10 -70 -46.5 -103t-104.5 -33h-472l-6 -40q-3 -32 28 -32h542l-22 -160h-612q-76 0 -106.5 36t-19.5 112l43 307q11 76 51.5 112t115.5 36h510q132 0 113 -136zM646 443h-361q-32 0 -37 -33l-5 -39h393q27 0 30 27l3 18q3 27 -23 27zM601 766l-15 -109h-168
l15 109h168z" />
    <glyph glyph-name="Eogonek" unicode="&#x118;" horiz-adv-x="929" 
d="M826 -191h-210q-51 0 -77 12t-26 44q0 58 50 77.5t202 19.5h13l5 38h-771l98 700h841l-24 -167h-649l-14 -100h555l-23 -166h-555l-14 -100h649l-23 -167h-40l-9 -63h-31q-48 0 -81 -1t-52 -2.5t-29.5 -4.5t-13.5 -5.5t-3 -6.5q0 -10 27 -10h219z" />
    <glyph glyph-name="eogonek" unicode="&#x119;" horiz-adv-x="854" 
d="M677 -38h34l5 38h-563q-76 0 -106.5 36t-19.5 112l43 307q11 76 51.5 112t115.5 36h510q132 0 113 -136l-14 -99q-10 -70 -46.5 -103t-104.5 -33h-472l-6 -40q-3 -32 28 -32h542l-22 -160h-19l-9 -63h-52q-48 0 -81 -1t-52 -2.5t-29.5 -4.5t-13.5 -5.5t-3 -6.5
q0 -10 27 -10h219l-14 -98h-210q-51 0 -77 12t-26 44q0 58 50 77.5t202 19.5zM646 443h-361q-32 0 -37 -33l-5 -39h393q27 0 30 27l3 18q3 27 -23 27z" />
    <glyph glyph-name="Ecaron" unicode="&#x11a;" horiz-adv-x="929" 
d="M12 0l98 700h841l-24 -167h-649l-14 -100h555l-23 -166h-555l-14 -100h649l-23 -167h-841zM491 852l63 -43l76 43h142l-129 -103h-192l-99 103h139z" />
    <glyph glyph-name="ecaron" unicode="&#x11b;" horiz-adv-x="854" 
d="M846 368q-10 -70 -46.5 -103t-104.5 -33h-472l-6 -40q-3 -32 28 -32h542l-22 -160h-612q-76 0 -106.5 36t-19.5 112l43 307q11 76 51.5 112t115.5 36h510q132 0 113 -136zM646 443h-361q-32 0 -37 -33l-5 -39h393q27 0 30 27l3 18q3 27 -23 27zM446 763l63 -43l76 43h142
l-129 -103h-192l-99 103h139z" />
    <glyph glyph-name="Gcircumflex" unicode="&#x11c;" horiz-adv-x="957" 
d="M685 167q17 0 23.5 6t8.5 22l10 72h-281l23 166h473l-42 -294q-10 -75 -46 -107t-111 -32h-580q-78 0 -109.5 37t-20.5 113l56 400q11 76 53 113t119 37h694l-24 -167h-622q-17 0 -24.5 -7t-9.5 -24l-43 -304q-2 -17 3.5 -24t22.5 -7h427zM568 792l-75 -43h-143l129 103
h193l98 -103h-138z" />
    <glyph glyph-name="gcircumflex" unicode="&#x11d;" horiz-adv-x="854" 
d="M584 225q33 0 38 32l21 153q5 33 -28 33h-341q-32 0 -37 -33l-21 -153q-5 -30 27 -32h341zM466 65h-315q-75 0 -106 36t-20 112l34 242q11 76 51.5 112t115.5 36h481q76 0 106.5 -36t19.5 -112l-56 -404q-16 -113 -75.5 -165.5t-173.5 -52.5h-515l23 160h487
q33 0 49.5 14t20.5 47l14 96q-17 -44 -50 -64.5t-91 -20.5zM485 703l-75 -43h-143l129 103h193l98 -103h-138z" />
    <glyph glyph-name="Gbreve" unicode="&#x11e;" horiz-adv-x="957" 
d="M685 167q17 0 23.5 6t8.5 22l10 72h-281l23 166h473l-42 -294q-10 -75 -46 -107t-111 -32h-580q-78 0 -109.5 37t-20.5 113l56 400q11 76 53 113t119 37h694l-24 -167h-622q-17 0 -24.5 -7t-9.5 -24l-43 -304q-2 -17 3.5 -24t22.5 -7h427zM405 781l10 95q45 -45 153 -45
t165 45l-9 -95q-60 -47 -166 -47t-153 47z" />
    <glyph glyph-name="gbreve" unicode="&#x11f;" horiz-adv-x="854" 
d="M584 225q33 0 38 32l21 153q5 33 -28 33h-341q-32 0 -37 -33l-21 -153q-5 -30 27 -32h341zM466 65h-315q-75 0 -106 36t-20 112l34 242q11 76 51.5 112t115.5 36h481q76 0 106.5 -36t19.5 -112l-56 -404q-16 -113 -75.5 -165.5t-173.5 -52.5h-515l23 160h487
q33 0 49.5 14t20.5 47l14 96q-17 -44 -50 -64.5t-91 -20.5zM322 692l10 95q45 -45 153 -45t165 45l-9 -95q-60 -47 -166 -47t-153 47z" />
    <glyph glyph-name="Gdotaccent" unicode="&#x120;" horiz-adv-x="957" 
d="M685 167q17 0 23.5 6t8.5 22l10 72h-281l23 166h473l-42 -294q-10 -75 -46 -107t-111 -32h-580q-78 0 -109.5 37t-20.5 113l56 400q11 76 53 113t119 37h694l-24 -167h-622q-17 0 -24.5 -7t-9.5 -24l-43 -304q-2 -17 3.5 -24t22.5 -7h427zM659 855l-15 -109h-168l15 109
h168z" />
    <glyph glyph-name="gdotaccent" unicode="&#x121;" horiz-adv-x="854" 
d="M584 225q33 0 38 32l21 153q5 33 -28 33h-341q-32 0 -37 -33l-21 -153q-5 -30 27 -32h341zM466 65h-315q-75 0 -106 36t-20 112l34 242q11 76 51.5 112t115.5 36h481q76 0 106.5 -36t19.5 -112l-56 -404q-16 -113 -75.5 -165.5t-173.5 -52.5h-515l23 160h487
q33 0 49.5 14t20.5 47l14 96q-17 -44 -50 -64.5t-91 -20.5zM576 766l-15 -109h-168l15 109h168z" />
    <glyph glyph-name="uni0122" unicode="&#x122;" horiz-adv-x="957" 
d="M685 167q17 0 23.5 6t8.5 22l10 72h-281l23 166h473l-42 -294q-10 -75 -46 -107t-111 -32h-580q-78 0 -109.5 37t-20.5 113l56 400q11 76 53 113t119 37h694l-24 -167h-622q-17 0 -24.5 -7t-9.5 -24l-43 -304q-2 -17 3.5 -24t22.5 -7h427zM525 -66l-11 -80
q-8 -52 -42 -83t-88 -31h-45l7 45h35q42 0 48 43l1 5h-77l14 101h158z" />
    <glyph glyph-name="uni0123" unicode="&#x123;" horiz-adv-x="854" 
d="M397 657l11 79q8 53 41.5 84t88.5 31h44l-6 -46h-35q-23 0 -34 -10t-14 -32v-5h77l-15 -101h-158zM584 225q33 0 38 32l21 153q5 33 -28 33h-341q-32 0 -37 -33l-21 -153q-5 -30 27 -32h341zM466 65h-315q-75 0 -106 36t-20 112l34 242q11 76 51.5 112t115.5 36h481
q76 0 106.5 -36t19.5 -112l-56 -404q-16 -113 -75.5 -165.5t-173.5 -52.5h-515l23 160h487q33 0 49.5 14t20.5 47l14 96q-17 -44 -50 -64.5t-91 -20.5z" />
    <glyph glyph-name="Hcircumflex" unicode="&#x124;" horiz-adv-x="991" 
d="M703 0l37 266h-499l-37 -266h-192l98 700h192l-38 -267h499l38 267h192l-98 -700h-192zM565 792l-75 -43h-143l129 103h193l98 -103h-138z" />
    <glyph glyph-name="hcircumflex" unicode="&#x125;" horiz-adv-x="860" 
d="M649 410q6 33 -27 33h-340q-32 0 -37 -33l-57 -410h-184l108 770h184l-36 -253q16 44 49 65t92 21h313q76 0 106.5 -36t19.5 -112l-63 -455h-184zM566 703l-75 -43h-143l129 103h193l98 -103h-138z" />
    <glyph glyph-name="Hbar" unicode="&#x126;" horiz-adv-x="991" 
d="M703 0l37 266h-499l-37 -266h-192l71 506h-32l15 110h32l12 84h192l-12 -84h499l12 84h192l-12 -84h31l-15 -110h-31l-71 -506h-192zM264 433h499l10 73h-499z" />
    <glyph glyph-name="hbar" unicode="&#x127;" horiz-adv-x="860" 
d="M649 410q6 33 -27 33h-340q-32 0 -37 -33l-57 -410h-184l87 625h-44l13 91h44l8 54h184l-8 -54h90l-13 -91h-90l-15 -108q16 44 49 65t92 21h313q76 0 106.5 -36t19.5 -112l-63 -455h-184z" />
    <glyph glyph-name="Itilde" unicode="&#x128;" horiz-adv-x="300" 
d="M12 0l98 700h192l-98 -700h-192zM50 732l15 100q49 38 93 38q28 0 75 -20t71 -20q41 0 84 42l-13 -99q-51 -44 -97 -44q-28 0 -75.5 21.5t-71.5 21.5q-41 0 -81 -40z" />
    <glyph glyph-name="itilde" unicode="&#x129;" horiz-adv-x="352" 
d="M37 643l15 100q49 38 93 38q28 0 75 -20t71 -20q41 0 84 42l-13 -99q-51 -44 -97 -44q-28 0 -75.5 21.5t-71.5 21.5q-41 0 -81 -40zM253 160h76l-22 -160h-143q-78 0 -109 36t-20 112l64 455h184l-58 -411q-3 -32 28 -32z" />
    <glyph glyph-name="Imacron" unicode="&#x12a;" horiz-adv-x="300" 
d="M369 757h-310l12 88h310zM12 0l98 700h192l-98 -700h-192z" />
    <glyph glyph-name="imacron" unicode="&#x12b;" horiz-adv-x="352" 
d="M355 669h-309l12 87h310zM253 160h76l-22 -160h-143q-78 0 -109 36t-20 112l64 455h184l-58 -411q-3 -32 28 -32z" />
    <glyph glyph-name="Ibreve" unicode="&#x12c;" horiz-adv-x="300" 
d="M12 0l98 700h192l-98 -700h-192zM57 781l10 95q45 -45 153 -45t165 45l-9 -95q-60 -47 -166 -47t-153 47z" />
    <glyph glyph-name="ibreve" unicode="&#x12d;" horiz-adv-x="352" 
d="M44 692l10 95q45 -45 153 -45t165 45l-9 -95q-60 -47 -166 -47t-153 47zM253 160h76l-22 -160h-143q-78 0 -109 36t-20 112l64 455h184l-58 -411q-3 -32 28 -32z" />
    <glyph glyph-name="Iogonek" unicode="&#x12e;" horiz-adv-x="300" 
d="M177 -191h-168q-51 0 -77 12t-26 44q0 57 49 77t194 20l6 38h-143l98 700h192l-98 -700h-20l-9 -63h-9q-48 0 -81 -1t-52 -2.5t-29.5 -4.5t-13.5 -5.5t-3 -6.5q0 -10 27 -10h177z" />
    <glyph glyph-name="iogonek" unicode="&#x12f;" horiz-adv-x="352" 
d="M268 -191h-185q-51 0 -77 12t-26 44q0 58 50 77.5t202 19.5h9l5 38h-93q-78 0 -109 36t-20 112l64 455h184l-58 -411q-3 -32 28 -32h76l-22 -160h-20l-9 -63h-27q-48 0 -81 -1t-52 -2.5t-29.5 -4.5t-13.5 -5.5t-3 -6.5q0 -10 27 -10h194zM308 770l-16 -113h-208l16 113
h208z" />
    <glyph glyph-name="Idotaccent" unicode="&#x130;" horiz-adv-x="300" 
d="M12 0l98 700h192l-98 -700h-192zM311 855l-15 -109h-168l15 109h168z" />
    <glyph glyph-name="dotlessi" unicode="&#x131;" horiz-adv-x="352" 
d="M253 160h76l-22 -160h-143q-78 0 -109 36t-20 112l64 455h184l-58 -411q-3 -32 28 -32z" />
    <glyph glyph-name="IJ" unicode="&#x132;" horiz-adv-x="1242" 
d="M12 0l98 700h192l-98 -700h-192zM311 140l29 202h192l-21 -147q-2 -17 2.5 -22.5t20.5 -5.5h417q17 0 25 7t10 24l71 502h192l-78 -550q-11 -76 -52.5 -113t-118.5 -37h-568q-76 0 -104 32.5t-17 107.5z" />
    <glyph glyph-name="Jcircumflex" unicode="&#x134;" horiz-adv-x="943" 
d="M22 140l29 202h192l-21 -147q-2 -17 2.5 -22.5t20.5 -5.5h417q17 0 25 7t10 24l71 502h192l-78 -550q-11 -76 -52.5 -113t-118.5 -37h-568q-76 0 -104 32.5t-17 107.5zM835 792l-75 -43h-143l129 103h193l98 -103h-138z" />
    <glyph glyph-name="jcircumflex" unicode="&#x135;" horiz-adv-x="300" 
d="M-55 -7h42q16 0 23 6t9 22l82 582h184l-88 -622q-11 -76 -51.5 -112t-118.5 -36h-105zM210 703l-75 -43h-143l129 103h193l98 -103h-138z" />
    <glyph glyph-name="uni0136" unicode="&#x136;" horiz-adv-x="964" 
d="M976 700l-29 -199q-18 -141 -150 -151q70 -6 94 -45t14 -107l-27 -198h-192l32 228q4 39 -34 39h-443l-37 -267h-192l98 700h192l-38 -267h443q39 0 45 39l32 228h192zM509 -66l-11 -80q-8 -52 -42 -83t-88 -31h-45l7 45h35q42 0 48 43l1 5h-77l14 101h158z" />
    <glyph glyph-name="uni0137" unicode="&#x137;" horiz-adv-x="853" 
d="M649 417l26 186h184l-24 -167q-8 -62 -39.5 -95t-93.5 -40q60 -7 82.5 -39.5t12.5 -94.5l-22 -167h-184l26 186q5 36 -32 36h-366l-31 -222h-184l108 770h184l-55 -389h366q37 0 42 36zM462 -66l-11 -80q-8 -52 -42 -83t-88 -31h-45l7 45h35q42 0 48 43l1 5h-77l14 101
h158z" />
    <glyph glyph-name="kgreenlandic" unicode="&#x138;" horiz-adv-x="853" 
d="M649 417l26 186h184l-24 -167q-8 -62 -39.5 -95t-93.5 -40q60 -7 82.5 -39.5t12.5 -94.5l-22 -167h-184l26 186q5 36 -32 36h-366l-31 -222h-184l84 603h184l-31 -222h366q37 0 42 36z" />
    <glyph glyph-name="Lacute" unicode="&#x139;" horiz-adv-x="902" 
d="M866 167l-23 -167h-831l98 700h192l-75 -533h639zM444 852l-158 -103h-148l119 103h187z" />
    <glyph glyph-name="lacute" unicode="&#x13a;" horiz-adv-x="348" 
d="M249 160h76l-22 -160h-143q-78 0 -109 36t-20 112l88 622h184l-82 -578q-3 -32 28 -32zM416 930l-158 -103h-148l119 103h187z" />
    <glyph glyph-name="uni013B" unicode="&#x13b;" horiz-adv-x="902" 
d="M866 167l-23 -167h-831l98 700h192l-75 -533h639zM487 -66l-11 -80q-8 -52 -42 -83t-88 -31h-45l7 45h35q42 0 48 43l1 5h-77l14 101h158z" />
    <glyph glyph-name="uni013C" unicode="&#x13c;" horiz-adv-x="348" 
d="M244 160h76l-22 -160h-143q-78 0 -109 36t-20 112l88 622h184l-82 -578q-3 -32 28 -32zM207 -66l-11 -80q-8 -52 -42 -83t-88 -31h-45l7 45h35q42 0 48 43l1 5h-77l14 101h158z" />
    <glyph glyph-name="Lcaron" unicode="&#x13d;" horiz-adv-x="902" 
d="M866 167l-23 -167h-831l98 700h192l-75 -533h639zM886 700l-21 -150q-11 -77 -61 -122t-130 -45h-39l12 86h31q30 0 44.5 11t18.5 42l5 28h-87l21 150h206z" />
    <glyph glyph-name="lcaron" unicode="&#x13e;" horiz-adv-x="572" 
d="M249 160h76l-22 -160h-143q-78 0 -109 36t-20 112l88 622h184l-82 -578q-3 -32 28 -32zM593 700l-21 -150q-11 -77 -61 -122t-130 -45h-39l12 86h31q30 0 44.5 11t18.5 42l5 28h-87l21 150h206z" />
    <glyph glyph-name="Ldot" unicode="&#x13f;" horiz-adv-x="902" 
d="M866 167l-23 -167h-831l98 700h192l-75 -533h639zM707 425l-21 -150h-206l21 150h206z" />
    <glyph glyph-name="ldot" unicode="&#x140;" horiz-adv-x="566" 
d="M249 160h76l-22 -160h-143q-78 0 -109 36t-20 112l88 622h184l-82 -578q-3 -32 28 -32zM548 425l-21 -150h-206l21 150h206z" />
    <glyph glyph-name="Lslash" unicode="&#x141;" horiz-adv-x="902" 
d="M866 167l-23 -167h-831l23 169l-57 -24l23 164l57 24l52 367h192l-40 -282l244 103l-23 -164l-244 -103l-12 -87h639z" />
    <glyph glyph-name="lslash" unicode="&#x142;" horiz-adv-x="348" 
d="M238 160h76l-22 -160h-143q-78 0 -109 36t-20 112l16 116l-44 -19l23 164l44 19l49 342h184l-36 -256l130 57l-23 -164l-131 -57l-22 -158q-3 -32 28 -32z" />
    <glyph glyph-name="Nacute" unicode="&#x143;" horiz-adv-x="966" 
d="M304 533q-17 0 -24.5 -7t-9.5 -24l-70 -502h-192l76 550q22 150 173 150h564q77 0 108.5 -37t20.5 -113l-76 -550h-192l70 502q2 17 -4 24t-23 7h-421zM745 852l-158 -103h-148l119 103h187z" />
    <glyph glyph-name="nacute" unicode="&#x144;" horiz-adv-x="855" 
d="M0 0l63 455q11 76 51.5 112t115.5 36h479q76 0 106 -36t19 -112l-63 -455h-184l57 410q5 33 -28 33h-338q-32 0 -37 -33l-57 -410h-184zM676 763l-158 -103h-148l119 103h187z" />
    <glyph glyph-name="uni0145" unicode="&#x145;" horiz-adv-x="966" 
d="M304 533q-17 0 -24.5 -7t-9.5 -24l-70 -502h-192l76 550q22 150 173 150h564q77 0 108.5 -37t20.5 -113l-76 -550h-192l70 502q2 17 -4 24t-23 7h-421zM510 -66l-11 -80q-8 -52 -42 -83t-88 -31h-45l7 45h35q42 0 48 43l1 5h-77l14 101h158z" />
    <glyph glyph-name="uni0146" unicode="&#x146;" horiz-adv-x="855" 
d="M0 0l63 455q11 76 51.5 112t115.5 36h479q76 0 106 -36t19 -112l-63 -455h-184l57 410q5 33 -28 33h-338q-32 0 -37 -33l-57 -410h-184zM454 -66l-11 -80q-8 -52 -42 -83t-88 -31h-45l7 45h35q42 0 48 43l1 5h-77l14 101h158z" />
    <glyph glyph-name="Ncaron" unicode="&#x147;" horiz-adv-x="966" 
d="M304 533q-17 0 -24.5 -7t-9.5 -24l-70 -502h-192l76 550q22 150 173 150h564q77 0 108.5 -37t20.5 -113l-76 -550h-192l70 502q2 17 -4 24t-23 7h-421zM488 852l63 -43l76 43h142l-129 -103h-192l-99 103h139z" />
    <glyph glyph-name="ncaron" unicode="&#x148;" horiz-adv-x="855" 
d="M0 0l63 455q11 76 51.5 112t115.5 36h479q76 0 106 -36t19 -112l-63 -455h-184l57 410q5 33 -28 33h-338q-32 0 -37 -33l-57 -410h-184zM421 763l63 -43l76 43h142l-129 -103h-192l-99 103h139z" />
    <glyph glyph-name="napostrophe" unicode="&#x149;" horiz-adv-x="1114" 
d="M259 0l63 455q11 76 51.5 112t115.5 36h479q76 0 106 -36t19 -112l-63 -455h-184l57 410q5 33 -28 33h-338q-32 0 -37 -33l-57 -410h-184zM309 700l-21 -150q-11 -77 -61 -122t-130 -45h-39l12 86h31q30 0 44.5 11t18.5 42l5 28h-87l21 150h206z" />
    <glyph glyph-name="Eng" unicode="&#x14a;" horiz-adv-x="966" 
d="M304 533q-17 0 -24.5 -7t-9.5 -24l-70 -502h-192l76 550q22 150 173 150h564q77 0 108.5 -37t20.5 -113l-79 -567q-21 -150 -172 -150h-214l24 167h142q17 0 25 7t10 24l66 471q2 17 -4 24t-23 7h-421z" />
    <glyph glyph-name="eng" unicode="&#x14b;" horiz-adv-x="855" 
d="M514 -7h44q16 0 22.5 6t8.5 22l55 389q5 33 -28 33h-338q-32 0 -37 -33l-57 -410h-184l63 455q11 76 51.5 112t115.5 36h479q76 0 106 -36t19 -112l-67 -474q-11 -76 -51.5 -112t-117.5 -36h-107z" />
    <glyph glyph-name="Omacron" unicode="&#x14c;" horiz-adv-x="955" 
d="M164 0q-78 0 -110 37t-21 113l56 400q22 150 173 150h565q78 0 109.5 -37t20.5 -113l-56 -400q-11 -76 -53 -113t-119 -37h-565zM715 198l43 304q2 17 -3.5 24t-22.5 7h-423q-17 0 -24.5 -7t-9.5 -24l-43 -304q-2 -17 4 -24t22 -7h423q17 0 24.5 7t9.5 24zM710 756h-318
l13 91h319z" />
    <glyph glyph-name="omacron" unicode="&#x14d;" horiz-adv-x="848" 
d="M717 603q76 0 106 -36t19 -112l-42 -307q-11 -76 -51.5 -112t-115.5 -36h-480q-76 0 -106.5 36t-19.5 112l43 307q11 76 51.5 112t115.5 36h480zM585 160q33 0 36 32l31 218q5 33 -27 33h-340q-32 0 -37 -33l-31 -218q-3 -32 28 -32h340zM645 667h-318l13 91h319z" />
    <glyph glyph-name="Obreve" unicode="&#x14e;" horiz-adv-x="955" 
d="M164 0q-78 0 -110 37t-21 113l56 400q22 150 173 150h565q78 0 109.5 -37t20.5 -113l-56 -400q-11 -76 -53 -113t-119 -37h-565zM715 198l43 304q2 17 -3.5 24t-22.5 7h-423q-17 0 -24.5 -7t-9.5 -24l-43 -304q-2 -17 4 -24t22 -7h423q17 0 24.5 7t9.5 24zM395 781l10 95
q45 -45 153 -45t165 45l-9 -95q-60 -47 -166 -47t-153 47z" />
    <glyph glyph-name="obreve" unicode="&#x14f;" horiz-adv-x="848" 
d="M717 603q76 0 106 -36t19 -112l-42 -307q-11 -76 -51.5 -112t-115.5 -36h-480q-76 0 -106.5 36t-19.5 112l43 307q11 76 51.5 112t115.5 36h480zM585 160q33 0 36 32l31 218q5 33 -27 33h-340q-32 0 -37 -33l-31 -218q-3 -32 28 -32h340zM330 692l10 95q45 -45 153 -45
t165 45l-9 -95q-60 -47 -166 -47t-153 47z" />
    <glyph glyph-name="Ohungarumlaut" unicode="&#x150;" horiz-adv-x="955" 
d="M164 0q-78 0 -110 37t-21 113l56 400q22 150 173 150h565q78 0 109.5 -37t20.5 -113l-56 -400q-11 -76 -53 -113t-119 -37h-565zM715 198l43 304q2 17 -3.5 24t-22.5 7h-423q-17 0 -24.5 -7t-9.5 -24l-43 -304q-2 -17 4 -24t22 -7h423q17 0 24.5 7t9.5 24zM875 852
l-158 -103h-148l119 103h187zM627 852l-158 -103h-148l119 103h187z" />
    <glyph glyph-name="ohungarumlaut" unicode="&#x151;" horiz-adv-x="848" 
d="M717 603q76 0 106 -36t19 -112l-42 -307q-11 -76 -51.5 -112t-115.5 -36h-480q-76 0 -106.5 36t-19.5 112l43 307q11 76 51.5 112t115.5 36h480zM585 160q33 0 36 32l31 218q5 33 -27 33h-340q-32 0 -37 -33l-31 -218q-3 -32 28 -32h340zM808 763l-158 -103h-148l119 103
h187zM560 763l-158 -103h-148l119 103h187z" />
    <glyph glyph-name="OE" unicode="&#x152;" horiz-adv-x="1480" 
d="M167 0q-78 0 -109.5 37t-20.5 113l56 400q11 76 53 113t119 37h1224l-24 -167h-580l-14 -100h486l-23 -166h-486l-14 -100h580l-23 -167h-1224zM642 167l51 366h-380q-17 0 -24.5 -7t-9.5 -24l-43 -304q-2 -17 3.5 -24t22.5 -7h380z" />
    <glyph glyph-name="oe" unicode="&#x153;" horiz-adv-x="1262" 
d="M538 192l31 218q5 33 -27 33h-257q-32 0 -37 -33l-31 -218q-3 -32 28 -32h257q33 0 36 32zM1074 398l3 18q3 27 -23 27h-263q-33 0 -38 -33l-5 -39h296q27 0 30 27zM728 232l-6 -40q-3 -32 29 -32h445l-22 -160h-429q-67 0 -97 27.5t-28 86.5q-16 -60 -52.5 -87
t-103.5 -27h-311q-76 0 -106.5 36t-19.5 112l43 307q11 76 51.5 112t115.5 36h311q67 0 96.5 -27t27.5 -87q16 60 53 87t104 27h326q132 0 113 -136l-14 -99q-19 -136 -150 -136h-376z" />
    <glyph glyph-name="Racute" unicode="&#x154;" horiz-adv-x="964" 
d="M955 555l-9 -69q-10 -68 -43.5 -100.5t-98.5 -36.5q120 -14 101 -151l-27 -198h-192l32 228q4 39 -34 39h-443l-37 -267h-192l98 700h720q77 0 106.5 -34.5t18.5 -110.5zM715 433q31 0 36 31l5 38q2 17 -4 24t-23 7h-451l-14 -100h451zM744 852l-158 -103h-148l119 103
h187z" />
    <glyph glyph-name="racute" unicode="&#x155;" horiz-adv-x="700" 
d="M727 603l-22 -160h-427q-32 0 -37 -33l-57 -410h-184l63 455q11 76 51.5 112t115.5 36h497zM622 763l-158 -103h-148l119 103h187z" />
    <glyph glyph-name="uni0156" unicode="&#x156;" horiz-adv-x="964" 
d="M955 555l-9 -69q-10 -68 -43.5 -100.5t-98.5 -36.5q120 -14 101 -151l-27 -198h-192l32 228q4 39 -34 39h-443l-37 -267h-192l98 700h720q77 0 106.5 -34.5t18.5 -110.5zM715 433q31 0 36 31l5 38q2 17 -4 24t-23 7h-451l-14 -100h451zM526 -66l-11 -80q-8 -52 -42 -83
t-88 -31h-45l7 45h35q42 0 48 43l1 5h-77l14 101h158z" />
    <glyph glyph-name="uni0157" unicode="&#x157;" horiz-adv-x="700" 
d="M727 603l-22 -160h-427q-32 0 -37 -33l-57 -410h-184l63 455q11 76 51.5 112t115.5 36h497zM165 -66l-11 -80q-8 -52 -42 -83t-88 -31h-45l7 45h35q42 0 48 43l1 5h-77l14 101h158z" />
    <glyph glyph-name="Rcaron" unicode="&#x158;" horiz-adv-x="964" 
d="M955 555l-9 -69q-10 -68 -43.5 -100.5t-98.5 -36.5q120 -14 101 -151l-27 -198h-192l32 228q4 39 -34 39h-443l-37 -267h-192l98 700h720q77 0 106.5 -34.5t18.5 -110.5zM715 433q31 0 36 31l5 38q2 17 -4 24t-23 7h-451l-14 -100h451zM487 852l63 -43l76 43h142
l-129 -103h-192l-99 103h139z" />
    <glyph glyph-name="rcaron" unicode="&#x159;" horiz-adv-x="700" 
d="M727 603l-22 -160h-427q-32 0 -37 -33l-57 -410h-184l63 455q11 76 51.5 112t115.5 36h497zM366 763l63 -43l76 43h142l-129 -103h-192l-99 103h139z" />
    <glyph glyph-name="Sacute" unicode="&#x15a;" horiz-adv-x="919" 
d="M187 267q-78 0 -109.5 37t-20.5 113l18 133q11 76 53.5 113t120.5 37h664l-24 -167h-594q-17 0 -24.5 -7t-9.5 -24l-5 -38q-3 -17 2.5 -24t22.5 -7h468q153 0 131 -150l-19 -133q-11 -76 -52.5 -113t-118.5 -37h-698l23 167h626q17 0 25 7t10 24l6 38q2 17 -4 24t-23 7
h-468zM721 852l-158 -103h-148l119 103h187z" />
    <glyph glyph-name="sacute" unicode="&#x15b;" horiz-adv-x="824" 
d="M786 443h-523q-27 0 -31 -27l-3 -18q-3 -27 24 -27h421q68 0 95.5 -33t17.5 -103l-14 -99q-19 -136 -152 -136h-631l22 160h553q27 0 31 27l2 18q4 27 -23 27h-420q-68 0 -96 33t-18 103l14 99q10 70 46.5 103t104.5 33h602zM661 763l-158 -103h-148l119 103h187z" />
    <glyph glyph-name="Scircumflex" unicode="&#x15c;" horiz-adv-x="919" 
d="M187 267q-78 0 -109.5 37t-20.5 113l18 133q11 76 53.5 113t120.5 37h664l-24 -167h-594q-17 0 -24.5 -7t-9.5 -24l-5 -38q-3 -17 2.5 -24t22.5 -7h468q153 0 131 -150l-19 -133q-11 -76 -52.5 -113t-118.5 -37h-698l23 167h626q17 0 25 7t10 24l6 38q2 17 -4 24t-23 7
h-468zM529 792l-75 -43h-143l129 103h193l98 -103h-138z" />
    <glyph glyph-name="scircumflex" unicode="&#x15d;" horiz-adv-x="824" 
d="M786 443h-523q-27 0 -31 -27l-3 -18q-3 -27 24 -27h421q68 0 95.5 -33t17.5 -103l-14 -99q-19 -136 -152 -136h-631l22 160h553q27 0 31 27l2 18q4 27 -23 27h-420q-68 0 -96 33t-18 103l14 99q10 70 46.5 103t104.5 33h602zM470 703l-75 -43h-143l129 103h193l98 -103
h-138z" />
    <glyph glyph-name="Scedilla" unicode="&#x15e;" horiz-adv-x="919" 
d="M422 -65h-80l36 65h-386l23 167h626q17 0 25 7t10 24l6 38q2 17 -4 24t-23 7h-468q-78 0 -109.5 37t-20.5 113l18 133q11 76 53.5 113t120.5 37h664l-24 -167h-594q-17 0 -24.5 -7t-9.5 -24l-5 -38q-3 -17 2.5 -24t22.5 -7h468q153 0 131 -150l-19 -133
q-11 -76 -52.5 -113t-118.5 -37h-284l-20 -38h92q87 0 87 -53q0 -54 -34.5 -77t-106.5 -23h-197l14 98h174q27 0 27 17q0 11 -20 11z" />
    <glyph glyph-name="scedilla" unicode="&#x15f;" horiz-adv-x="824" 
d="M371 -65h-80l35 65h-336l22 160h553q27 0 31 27l2 18q4 27 -23 27h-420q-68 0 -96 33t-18 103l14 99q10 70 46.5 103t104.5 33h602l-22 -160h-523q-27 0 -31 -27l-3 -18q-3 -27 24 -27h421q68 0 95.5 -33t17.5 -103l-14 -99q-19 -136 -152 -136h-266l-20 -38h92
q87 0 87 -53q0 -54 -34.5 -77t-106.5 -23h-197l14 98h174q27 0 27 17q0 11 -20 11z" />
    <glyph glyph-name="Scaron" unicode="&#x160;" horiz-adv-x="919" 
d="M187 267q-78 0 -109.5 37t-20.5 113l18 133q11 76 53.5 113t120.5 37h664l-24 -167h-594q-17 0 -24.5 -7t-9.5 -24l-5 -38q-3 -17 2.5 -24t22.5 -7h468q153 0 131 -150l-19 -133q-11 -76 -52.5 -113t-118.5 -37h-698l23 167h626q17 0 25 7t10 24l6 38q2 17 -4 24t-23 7
h-468zM465 852l63 -43l76 43h142l-129 -103h-192l-99 103h139z" />
    <glyph glyph-name="scaron" unicode="&#x161;" horiz-adv-x="824" 
d="M786 443h-523q-27 0 -31 -27l-3 -18q-3 -27 24 -27h421q68 0 95.5 -33t17.5 -103l-14 -99q-19 -136 -152 -136h-631l22 160h553q27 0 31 27l2 18q4 27 -23 27h-420q-68 0 -96 33t-18 103l14 99q10 70 46.5 103t104.5 33h602zM406 763l63 -43l76 43h142l-129 -103h-192
l-99 103h139z" />
    <glyph glyph-name="uni0162" unicode="&#x162;" horiz-adv-x="903" 
d="M420 -65h-80l36 65h-62l74 533h-339l24 167h869l-24 -167h-338l-74 -533h-102l-20 -38h92q87 0 87 -53q0 -54 -34.5 -77t-106.5 -23h-197l14 98h174q27 0 27 17q0 11 -20 11z" />
    <glyph glyph-name="uni0163" unicode="&#x163;" horiz-adv-x="724" 
d="M343 -65h-80l36 65h-139q-78 0 -109 36t-20 112l88 622h184l-24 -167h468l-22 -160h-468l-36 -251q-3 -32 28 -32h436l-22 -160h-336l-20 -38h92q87 0 87 -53q0 -54 -34.5 -77t-106.5 -23h-197l14 98h174q27 0 27 17q0 11 -20 11z" />
    <glyph glyph-name="Tcaron" unicode="&#x164;" horiz-adv-x="903" 
d="M942 700l-24 -167h-338l-74 -533h-192l74 533h-339l24 167h869zM457 852l63 -43l76 43h142l-129 -103h-192l-99 103h139z" />
    <glyph glyph-name="tcaron" unicode="&#x165;" horiz-adv-x="1024" 
d="M160 0q-78 0 -109 36t-20 112l88 622h184l-24 -167h468l-22 -160h-468l-36 -251q-3 -32 28 -32h436l-22 -160h-503zM1044 700l-21 -150q-11 -77 -61 -122t-130 -45h-39l12 86h31q30 0 44.5 11t18.5 42l5 28h-87l21 150h206z" />
    <glyph glyph-name="Tbar" unicode="&#x166;" horiz-adv-x="903" 
d="M942 700l-24 -167h-338l-15 -109h111l-15 -110h-112l-43 -314h-192l43 314h-111l15 110h112l15 109h-339l24 167h869z" />
    <glyph glyph-name="tbar" unicode="&#x167;" horiz-adv-x="724" 
d="M384 248h-166l-8 -56q-3 -32 28 -32h436l-22 -160h-503q-78 0 -109 36t-20 112l14 100h-41l16 110h40l59 412h184l-24 -167h468l-22 -160h-468l-12 -85h166z" />
    <glyph glyph-name="Utilde" unicode="&#x168;" horiz-adv-x="966" 
d="M170 0q-78 0 -110 37t-21 113l78 550h192l-71 -502q-2 -17 3.5 -24t22.5 -7h421q17 0 25 7t10 24l71 502h192l-78 -550q-11 -76 -52.5 -113t-118.5 -37h-564zM393 732l15 100q49 38 93 38q28 0 75 -20t71 -20q41 0 84 42l-13 -99q-51 -44 -97 -44q-28 0 -75.5 21.5
t-71.5 21.5q-41 0 -81 -40z" />
    <glyph glyph-name="utilde" unicode="&#x169;" horiz-adv-x="855" 
d="M587 160q34 0 37 32l58 411h184l-64 -455q-11 -76 -51 -112t-115 -36h-479q-76 0 -106.5 36t-19.5 112l64 455h184l-58 -411q-3 -32 28 -32h338zM326 643l15 100q49 38 93 38q28 0 75 -20t71 -20q41 0 84 42l-13 -99q-51 -44 -97 -44q-28 0 -75.5 21.5t-71.5 21.5
q-41 0 -81 -40z" />
    <glyph glyph-name="Umacron" unicode="&#x16a;" horiz-adv-x="966" 
d="M170 0q-78 0 -110 37t-21 113l78 550h192l-71 -502q-2 -17 3.5 -24t22.5 -7h421q17 0 25 7t10 24l71 502h192l-78 -550q-11 -76 -52.5 -113t-118.5 -37h-564zM715 756h-318l13 91h319z" />
    <glyph glyph-name="umacron" unicode="&#x16b;" horiz-adv-x="855" 
d="M587 160q34 0 37 32l58 411h184l-64 -455q-11 -76 -51 -112t-115 -36h-479q-76 0 -106.5 36t-19.5 112l64 455h184l-58 -411q-3 -32 28 -32h338zM648 667h-318l13 91h319z" />
    <glyph glyph-name="Ubreve" unicode="&#x16c;" horiz-adv-x="966" 
d="M170 0q-78 0 -110 37t-21 113l78 550h192l-71 -502q-2 -17 3.5 -24t22.5 -7h421q17 0 25 7t10 24l71 502h192l-78 -550q-11 -76 -52.5 -113t-118.5 -37h-564zM400 781l10 95q45 -45 153 -45t165 45l-9 -95q-60 -47 -166 -47t-153 47z" />
    <glyph glyph-name="ubreve" unicode="&#x16d;" horiz-adv-x="855" 
d="M587 160q34 0 37 32l58 411h184l-64 -455q-11 -76 -51 -112t-115 -36h-479q-76 0 -106.5 36t-19.5 112l64 455h184l-58 -411q-3 -32 28 -32h338zM333 692l10 95q45 -45 153 -45t165 45l-9 -95q-60 -47 -166 -47t-153 47z" />
    <glyph glyph-name="Uring" unicode="&#x16e;" horiz-adv-x="966" 
d="M170 0q-78 0 -110 37t-21 113l78 550h192l-71 -502q-2 -17 3.5 -24t22.5 -7h421q17 0 25 7t10 24l71 502h192l-78 -550q-11 -76 -52.5 -113t-118.5 -37h-564zM612 845h-86q-24 0 -24 -27q0 -17 18 -17h86q24 0 24 27q0 17 -18 17zM584 742h-60q-88 0 -88 62
q0 100 112 100h60q88 0 88 -62q0 -100 -112 -100z" />
    <glyph glyph-name="uring" unicode="&#x16f;" horiz-adv-x="855" 
d="M587 160q34 0 37 32l58 411h184l-64 -455q-11 -76 -51 -112t-115 -36h-479q-76 0 -106.5 36t-19.5 112l64 455h184l-58 -411q-3 -32 28 -32h338zM545 756h-86q-24 0 -24 -27q0 -17 18 -17h86q24 0 24 27q0 17 -18 17zM517 653h-60q-88 0 -88 62q0 100 112 100h60
q88 0 88 -62q0 -100 -112 -100z" />
    <glyph glyph-name="Uhungarumlaut" unicode="&#x170;" horiz-adv-x="966" 
d="M170 0q-78 0 -110 37t-21 113l78 550h192l-71 -502q-2 -17 3.5 -24t22.5 -7h421q17 0 25 7t10 24l71 502h192l-78 -550q-11 -76 -52.5 -113t-118.5 -37h-564zM880 852l-158 -103h-148l119 103h187zM632 852l-158 -103h-148l119 103h187z" />
    <glyph glyph-name="uhungarumlaut" unicode="&#x171;" horiz-adv-x="855" 
d="M587 160q34 0 37 32l58 411h184l-64 -455q-11 -76 -51 -112t-115 -36h-479q-76 0 -106.5 36t-19.5 112l64 455h184l-58 -411q-3 -32 28 -32h338zM812 763l-158 -103h-148l119 103h187zM564 763l-158 -103h-148l119 103h187z" />
    <glyph glyph-name="Uogonek" unicode="&#x172;" horiz-adv-x="966" 
d="M810 -191h-210q-51 0 -77 12t-26 44q0 58 50 77.5t202 19.5h13l6 40q-11 -2 -34 -2h-564q-78 0 -110 37t-21 113l78 550h192l-71 -502q-2 -17 3.5 -24t22.5 -7h421q17 0 25 7t10 24l71 502h192l-78 -550q-17 -116 -107 -142l-10 -71h-31q-48 0 -81 -1t-52 -2.5
t-29.5 -4.5t-13.5 -5.5t-3 -6.5q0 -10 27 -10h219z" />
    <glyph glyph-name="uogonek" unicode="&#x173;" horiz-adv-x="855" 
d="M710 -191h-210q-51 0 -77 12t-26 44q0 58 50 77.5t202 19.5h13l6 39q-10 -1 -32 -1h-479q-76 0 -106.5 36t-19.5 112l64 455h184l-58 -411q-3 -32 28 -32h338q34 0 37 32l58 411h184l-64 -455q-16 -116 -104 -141l-10 -70h-31q-48 0 -81 -1t-52 -2.5t-29.5 -4.5
t-13.5 -5.5t-3 -6.5q0 -10 27 -10h219z" />
    <glyph glyph-name="Wcircumflex" unicode="&#x174;" horiz-adv-x="1283" 
d="M1051 0h-289q-72 0 -103.5 26t-33.5 84q-17 -58 -56 -84t-111 -26h-288q-78 0 -110 37t-21 113l78 550h192l-71 -502q-2 -17 3.5 -24t22.5 -7h243q31 0 35 31l70 502h192l-70 -502q-2 -17 4 -24t22 -7h243q17 0 24.5 7t9.5 24l71 502h192l-77 -550q-11 -76 -53 -113
t-119 -37zM722 792l-75 -43h-143l129 103h193l98 -103h-138z" />
    <glyph glyph-name="wcircumflex" unicode="&#x175;" horiz-adv-x="1165" 
d="M567 114q-16 -60 -52.5 -87t-103.5 -27h-254q-76 0 -106.5 36t-19.5 112l64 455h184l-58 -411q-3 -32 28 -32h200q32 0 37 32l57 411h184l-57 -411q-5 -32 28 -32h199q34 0 37 32l58 411h184l-64 -455q-11 -76 -51 -112t-115 -36h-254q-67 0 -97 27.5t-28 86.5zM651 703
l-75 -43h-143l129 103h193l98 -103h-138z" />
    <glyph glyph-name="Ycircumflex" unicode="&#x176;" horiz-adv-x="946" 
d="M787 700h192l-39 -283q-11 -76 -53 -113t-119 -37h-193l-37 -267h-192l37 267h-193q-77 0 -108.5 37t-20.5 113l40 283h192l-34 -237q-2 -16 3.5 -23t22.5 -7h434q30 0 35 30zM554 792l-75 -43h-143l129 103h193l98 -103h-138z" />
    <glyph glyph-name="ycircumflex" unicode="&#x177;" horiz-adv-x="860" 
d="M531 -167h-513l23 160h485q33 0 49.5 14t20.5 47l14 96q-17 -44 -50 -64.5t-91 -20.5h-314q-76 0 -106.5 36t-19.5 112l55 390h184l-48 -346q-5 -32 27 -32h340q33 0 38 32l48 346h184l-77 -552q-16 -113 -75.5 -165.5t-173.5 -52.5zM488 703l-75 -43h-143l129 103h193
l98 -103h-138z" />
    <glyph glyph-name="Ydieresis" unicode="&#x178;" horiz-adv-x="946" 
d="M787 700h192l-39 -283q-11 -76 -53 -113t-119 -37h-193l-37 -267h-192l37 267h-193q-77 0 -108.5 37t-20.5 113l40 283h192l-34 -237q-2 -16 3.5 -23t22.5 -7h434q30 0 35 30zM512 855l-16 -109h-167l15 109h168zM779 855l-15 -109h-168l15 109h168z" />
    <glyph glyph-name="Zacute" unicode="&#x179;" horiz-adv-x="924" 
d="M666 433q25 0 36 9.5t15 34.5l7 56h-630l24 167h822l-35 -252q-26 -181 -207 -181h-430q-25 0 -35.5 -9.5t-14.5 -34.5l-8 -56h655l-23 -167h-847l35 252q26 181 206 181h430zM734 852l-158 -103h-148l119 103h187z" />
    <glyph glyph-name="zacute" unicode="&#x17a;" horiz-adv-x="829" 
d="M235 232q-31 0 -37 -33l-5 -39h584l-22 -160h-768l28 200q24 171 195 171h381q32 0 36 32l6 40h-564l22 160h748l-28 -200q-24 -171 -195 -171h-381zM675 763l-158 -103h-148l119 103h187z" />
    <glyph glyph-name="Zdotaccent" unicode="&#x17b;" horiz-adv-x="924" 
d="M666 433q25 0 36 9.5t15 34.5l7 56h-630l24 167h822l-35 -252q-26 -181 -207 -181h-430q-25 0 -35.5 -9.5t-14.5 -34.5l-8 -56h655l-23 -167h-847l35 252q26 181 206 181h430zM633 855l-15 -109h-168l15 109h168z" />
    <glyph glyph-name="zdotaccent" unicode="&#x17c;" horiz-adv-x="829" 
d="M235 232q-31 0 -37 -33l-5 -39h584l-22 -160h-768l28 200q24 171 195 171h381q32 0 36 32l6 40h-564l22 160h748l-28 -200q-24 -171 -195 -171h-381zM575 766l-15 -109h-168l15 109h168z" />
    <glyph glyph-name="Zcaron" unicode="&#x17d;" horiz-adv-x="924" 
d="M666 433q25 0 36 9.5t15 34.5l7 56h-630l24 167h822l-35 -252q-26 -181 -207 -181h-430q-25 0 -35.5 -9.5t-14.5 -34.5l-8 -56h655l-23 -167h-847l35 252q26 181 206 181h430zM478 852l63 -43l76 43h142l-129 -103h-192l-99 103h139z" />
    <glyph glyph-name="zcaron" unicode="&#x17e;" horiz-adv-x="829" 
d="M235 232q-31 0 -37 -33l-5 -39h584l-22 -160h-768l28 200q24 171 195 171h381q32 0 36 32l6 40h-564l22 160h748l-28 -200q-24 -171 -195 -171h-381zM420 763l63 -43l76 43h142l-129 -103h-192l-99 103h139z" />
    <glyph glyph-name="florin" unicode="&#x192;" 
d="M850 433l-23 -166h-487l-17 -127q-11 -75 -47.5 -107.5t-111.5 -32.5h-172l23 167h92q16 0 22.5 5.5t9.5 22.5l9 72h-119l23 166h119l17 117q11 76 52.5 113t119.5 37h614l-24 -167h-542q-31 0 -35 -31l-10 -69h487z" />
    <glyph glyph-name="AEacute" unicode="&#x1fc;" horiz-adv-x="1454" 
d="M606 0l37 267h-406l-37 -267h-192l76 550q22 150 173 150h1219l-24 -167h-580l-14 -100h486l-23 -166h-486l-14 -100h580l-23 -167h-772zM304 533q-17 0 -24.5 -7t-9.5 -24l-10 -69h406l14 100h-376zM1007 852l-158 -103h-148l119 103h187z" />
    <glyph glyph-name="aeacute" unicode="&#x1fd;" horiz-adv-x="1254" 
d="M1065 398l3 18q3 27 -23 27h-264q-32 0 -37 -33l-5 -39h296q27 0 30 27zM208 205l-2 -18q-4 -27 23 -27h263q34 0 37 32l6 40h-296q-27 0 -31 -27zM454 0h-325q-68 0 -96 33t-18 103l14 99q10 70 46.5 103t104.5 33h375l5 39q5 33 -28 33h-445l22 160h429q67 0 96.5 -27
t28.5 -87q16 60 52.5 87t104.5 27h325q68 0 96 -33t18 -103l-14 -99q-10 -70 -46.5 -103t-104.5 -33h-375l-6 -40q-3 -32 28 -32h445l-22 -160h-428q-68 0 -97.5 27t-27.5 87q-17 -60 -53.5 -87t-103.5 -27zM886 763l-158 -103h-148l119 103h187z" />
    <glyph glyph-name="Oslashacute" unicode="&#x1fe;" horiz-adv-x="955" 
d="M164 0q-78 0 -110 37t-21 113l56 400q22 150 173 150h565q78 0 109.5 -37t20.5 -113l-56 -400q-11 -76 -53 -113t-119 -37h-565zM334 167h347q17 0 24.5 7t9.5 24l43 304q1 9 0 15zM231 189l418 344h-340q-17 0 -24.5 -7t-9.5 -24l-43 -302q-1 -5 -1 -11zM750 852
l-158 -103h-148l119 103h187z" />
    <glyph glyph-name="oslashacute" unicode="&#x1ff;" horiz-adv-x="848" 
d="M717 603q76 0 106 -36t19 -112l-42 -307q-11 -76 -51.5 -112t-115.5 -36h-480q-76 0 -106.5 36t-19.5 112l43 307q11 76 51.5 112t115.5 36h480zM220 172l326 271h-261q-32 0 -37 -33l-31 -218q-2 -12 3 -20zM585 160q33 0 36 32l31 218q1 7 -1 17l-322 -267h256z
M684 763l-158 -103h-148l119 103h187z" />
    <glyph glyph-name="uni0218" unicode="&#x218;" horiz-adv-x="919" 
d="M187 267q-78 0 -109.5 37t-20.5 113l18 133q11 76 53.5 113t120.5 37h664l-24 -167h-594q-17 0 -24.5 -7t-9.5 -24l-5 -38q-3 -17 2.5 -24t22.5 -7h468q153 0 131 -150l-19 -133q-11 -76 -52.5 -113t-118.5 -37h-698l23 167h626q17 0 25 7t10 24l6 38q2 17 -4 24t-23 7
h-468zM486 -66l-11 -80q-8 -52 -42 -83t-88 -31h-45l7 45h35q42 0 48 43l1 5h-77l14 101h158z" />
    <glyph glyph-name="uni0219" unicode="&#x219;" horiz-adv-x="824" 
d="M786 443h-523q-27 0 -31 -27l-3 -18q-3 -27 24 -27h421q68 0 95.5 -33t17.5 -103l-14 -99q-19 -136 -152 -136h-631l22 160h553q27 0 31 27l2 18q4 27 -23 27h-420q-68 0 -96 33t-18 103l14 99q10 70 46.5 103t104.5 33h602zM427 -66l-11 -80q-8 -52 -42 -83t-88 -31h-45
l7 45h35q42 0 48 43l1 5h-77l14 101h158z" />
    <glyph glyph-name="uni021A" unicode="&#x21a;" horiz-adv-x="903" 
d="M942 700l-24 -167h-338l-74 -533h-192l74 533h-339l24 167h869zM478 -66l-11 -80q-8 -52 -42 -83t-88 -31h-45l7 45h35q42 0 48 43l1 5h-77l14 101h158z" />
    <glyph glyph-name="uni021B" unicode="&#x21b;" horiz-adv-x="724" 
d="M160 0q-78 0 -109 36t-20 112l88 622h184l-24 -167h468l-22 -160h-468l-36 -251q-3 -32 28 -32h436l-22 -160h-503zM400 -66l-11 -80q-8 -52 -42 -83t-88 -31h-45l7 45h35q42 0 48 43l1 5h-77l14 101h158z" />
    <glyph glyph-name="uni0237" unicode="&#x237;" horiz-adv-x="300" 
d="M-55 -7h42q16 0 23 6t9 22l82 582h184l-88 -622q-11 -76 -51.5 -112t-118.5 -36h-105z" />
    <glyph glyph-name="circumflex" unicode="&#x2c6;" horiz-adv-x="312" 
d="M214 703l-75 -43h-143l129 103h193l98 -103h-138z" />
    <glyph glyph-name="caron" unicode="&#x2c7;" horiz-adv-x="312" 
d="M150 763l63 -43l76 43h142l-129 -103h-192l-99 103h139z" />
    <glyph glyph-name="breve" unicode="&#x2d8;" horiz-adv-x="312" 
d="M51 692l10 95q45 -45 153 -45t165 45l-9 -95q-60 -47 -166 -47t-153 47z" />
    <glyph glyph-name="dotaccent" unicode="&#x2d9;" horiz-adv-x="312" 
d="M305 766l-15 -109h-168l15 109h168z" />
    <glyph glyph-name="ring" unicode="&#x2da;" horiz-adv-x="312" 
d="M263 756h-86q-24 0 -24 -27q0 -17 18 -17h86q24 0 24 27q0 17 -18 17zM235 653h-60q-88 0 -88 62q0 100 112 100h60q88 0 88 -62q0 -100 -112 -100z" />
    <glyph glyph-name="ogonek" unicode="&#x2db;" horiz-adv-x="312" 
d="M226 -63h-31q-48 0 -81 -1t-52 -2.5t-29.5 -4.5t-13.5 -5.5t-3 -6.5q0 -10 27 -10h219l-14 -98h-210q-51 0 -77 12t-26 44q0 58 50 77.5t202 19.5h13l6 38h29z" />
    <glyph glyph-name="tilde" unicode="&#x2dc;" horiz-adv-x="312" 
d="M44 643l15 100q49 38 93 38q28 0 75 -20t71 -20q41 0 84 42l-13 -99q-51 -44 -97 -44q-28 0 -75.5 21.5t-71.5 21.5q-41 0 -81 -40z" />
    <glyph glyph-name="hungarumlaut" unicode="&#x2dd;" horiz-adv-x="312" 
d="M493 763l-158 -103h-148l119 103h187zM245 763l-158 -103h-148l119 103h187z" />
    <glyph glyph-name="pi" unicode="&#x3c0;" 
d="M39 0l84 603h772l-84 -603h-184l62 443h-404l-62 -443h-184z" />
    <glyph glyph-name="uni1E02" unicode="&#x1e02;" horiz-adv-x="958" 
d="M907 214l-10 -69q-10 -76 -49.5 -110.5t-115.5 -34.5h-720l98 700h720q77 0 106.5 -34.5t18.5 -110.5l-9 -69q-10 -66 -41.5 -98.5t-92.5 -37.5q60 -6 82 -38t13 -98zM715 433q31 0 36 31l5 38q2 17 -4 24t-23 7h-451l-14 -100h451zM241 267l-14 -100h451q31 0 35 31
l6 38q2 17 -4 24t-23 7h-451zM642 855l-15 -109h-168l15 109h168z" />
    <glyph glyph-name="uni1E03" unicode="&#x1e03;" horiz-adv-x="854" 
d="M31 148l88 622h184l-36 -253q16 44 49 65t92 21h315q76 0 106 -36t19 -112l-43 -307q-11 -76 -51 -112t-115 -36h-482q-76 0 -106.5 36t-19.5 112zM252 410l-31 -218q-3 -32 28 -32h341q34 0 37 32l31 218q5 33 -28 33h-341q-32 0 -37 -33zM665 766l-15 -109h-168l15 109
h168z" />
    <glyph glyph-name="uni1E0A" unicode="&#x1e0a;" horiz-adv-x="958" 
d="M768 700q102 0 147.5 -53t30.5 -156l-39 -282q-31 -209 -237 -209h-658l98 700h658zM651 167q59 0 66 58l35 249q9 59 -50 59h-424l-51 -366h424zM631 855l-15 -109h-168l15 109h168z" />
    <glyph glyph-name="uni1E0B" unicode="&#x1e0b;" horiz-adv-x="854" 
d="M889 770l-88 -622q-11 -76 -51 -112t-116 -36h-481q-76 0 -106.5 36t-19.5 112l43 307q11 76 51.5 112t115.5 36h315q59 0 86 -21t31 -65l36 253h184zM623 192l31 218q5 33 -28 33h-341q-32 0 -37 -33l-31 -218q-3 -32 28 -32h341q34 0 37 32zM499 766l-15 -109h-168
l15 109h168z" />
    <glyph glyph-name="uni1E1E" unicode="&#x1e1e;" horiz-adv-x="908" 
d="M12 0l98 700h837l-24 -167h-645l-14 -100h551l-23 -167h-551l-37 -266h-192zM636 855l-15 -109h-168l15 109h168z" />
    <glyph glyph-name="uni1E1F" unicode="&#x1e1f;" horiz-adv-x="780" 
d="M289 443q-44 0 -49 -43l-3 -19h488l-22 -159h-488l-55 -389h-184l84 599q13 88 60.5 129.5t135.5 41.5h551l-22 -160h-496zM571 766l-15 -109h-168l15 109h168z" />
    <glyph glyph-name="uni1E40" unicode="&#x1e40;" horiz-adv-x="1283" 
d="M849 700h289q78 0 109.5 -37t20.5 -113l-77 -550h-192l70 502q2 17 -3.5 24t-22.5 7h-243q-31 0 -35 -31l-70 -502h-192l70 502q4 31 -26 31h-243q-17 0 -24.5 -7t-9.5 -24l-70 -502h-192l76 550q22 150 173 150h288q72 0 103.5 -26t33.5 -84q17 57 56 83.5t111 26.5z
M802 855l-15 -109h-168l15 109h168z" />
    <glyph glyph-name="uni1E41" unicode="&#x1e41;" horiz-adv-x="1165" 
d="M609 489q15 60 52 87t104 27h254q76 0 106 -36t19 -112l-63 -455h-184l57 410q5 33 -28 33h-199q-33 0 -38 -33l-57 -410h-184l57 410q5 33 -27 33h-200q-32 0 -37 -33l-57 -410h-184l63 455q11 76 51.5 112t115.5 36h254q67 0 96.5 -27t28.5 -87zM731 766l-15 -109h-168
l15 109h168z" />
    <glyph glyph-name="uni1E56" unicode="&#x1e56;" horiz-adv-x="940" 
d="M12 0l98 700h712q78 0 109 -37t20 -113l-19 -134q-19 -150 -171 -150h-520l-37 -266h-192zM753 502q2 17 -4 24t-23 7h-448l-14 -100h448q31 0 36 31zM635 855l-15 -109h-168l15 109h168z" />
    <glyph glyph-name="uni1E57" unicode="&#x1e57;" horiz-adv-x="854" 
d="M-24 -167l87 622q11 76 51.5 112t115.5 36h482q76 0 106 -36t19 -112l-43 -307q-11 -76 -51 -112t-115 -36h-315q-59 0 -86.5 20.5t-31.5 64.5l-35 -252h-184zM241 410l-31 -218q-3 -32 28 -32h341q34 0 37 32l31 218q5 33 -28 33h-341q-32 0 -37 -33zM576 766l-15 -109
h-168l15 109h168z" />
    <glyph glyph-name="uni1E60" unicode="&#x1e60;" horiz-adv-x="919" 
d="M187 267q-78 0 -109.5 37t-20.5 113l18 133q11 76 53.5 113t120.5 37h664l-24 -167h-594q-17 0 -24.5 -7t-9.5 -24l-5 -38q-3 -17 2.5 -24t22.5 -7h468q153 0 131 -150l-19 -133q-11 -76 -52.5 -113t-118.5 -37h-698l23 167h626q17 0 25 7t10 24l6 38q2 17 -4 24t-23 7
h-468zM620 855l-15 -109h-168l15 109h168z" />
    <glyph glyph-name="uni1E61" unicode="&#x1e61;" horiz-adv-x="824" 
d="M786 443h-523q-27 0 -31 -27l-3 -18q-3 -27 24 -27h421q68 0 95.5 -33t17.5 -103l-14 -99q-19 -136 -152 -136h-631l22 160h553q27 0 31 27l2 18q4 27 -23 27h-420q-68 0 -96 33t-18 103l14 99q10 70 46.5 103t104.5 33h602zM561 766l-15 -109h-168l15 109h168z" />
    <glyph glyph-name="uni1E6A" unicode="&#x1e6a;" horiz-adv-x="903" 
d="M942 700l-24 -167h-338l-74 -533h-192l74 533h-339l24 167h869zM612 855l-15 -109h-168l15 109h168z" />
    <glyph glyph-name="uni1E6B" unicode="&#x1e6b;" horiz-adv-x="724" 
d="M160 0q-78 0 -109 36t-20 112l88 622h184l-24 -167h468l-22 -160h-468l-36 -251q-3 -32 28 -32h436l-22 -160h-503zM627 766l-15 -109h-168l15 109h168z" />
    <glyph glyph-name="Wgrave" unicode="&#x1e80;" horiz-adv-x="1283" 
d="M1051 0h-289q-72 0 -103.5 26t-33.5 84q-17 -58 -56 -84t-111 -26h-288q-78 0 -110 37t-21 113l78 550h192l-71 -502q-2 -17 3.5 -24t22.5 -7h243q31 0 35 31l70 502h192l-70 -502q-2 -17 4 -24t22 -7h243q17 0 24.5 7t9.5 24l71 502h192l-77 -550q-11 -76 -53 -113
t-119 -37zM676 749l-125 103h178l90 -103h-143z" />
    <glyph glyph-name="wgrave" unicode="&#x1e81;" horiz-adv-x="1165" 
d="M567 114q-16 -60 -52.5 -87t-103.5 -27h-254q-76 0 -106.5 36t-19.5 112l64 455h184l-58 -411q-3 -32 28 -32h200q32 0 37 32l57 411h184l-57 -411q-5 -32 28 -32h199q34 0 37 32l58 411h184l-64 -455q-11 -76 -51 -112t-115 -36h-254q-67 0 -97 27.5t-28 86.5zM605 660
l-125 103h178l90 -103h-143z" />
    <glyph glyph-name="Wacute" unicode="&#x1e82;" horiz-adv-x="1283" 
d="M1051 0h-289q-72 0 -103.5 26t-33.5 84q-17 -58 -56 -84t-111 -26h-288q-78 0 -110 37t-21 113l78 550h192l-71 -502q-2 -17 3.5 -24t22.5 -7h243q31 0 35 31l70 502h192l-70 -502q-2 -17 4 -24t22 -7h243q17 0 24.5 7t9.5 24l71 502h192l-77 -550q-11 -76 -53 -113
t-119 -37zM914 852l-158 -103h-148l119 103h187z" />
    <glyph glyph-name="wacute" unicode="&#x1e83;" horiz-adv-x="1165" 
d="M567 114q-16 -60 -52.5 -87t-103.5 -27h-254q-76 0 -106.5 36t-19.5 112l64 455h184l-58 -411q-3 -32 28 -32h200q32 0 37 32l57 411h184l-57 -411q-5 -32 28 -32h199q34 0 37 32l58 411h184l-64 -455q-11 -76 -51 -112t-115 -36h-254q-67 0 -97 27.5t-28 86.5zM843 763
l-158 -103h-148l119 103h187z" />
    <glyph glyph-name="Wdieresis" unicode="&#x1e84;" horiz-adv-x="1283" 
d="M1051 0h-289q-72 0 -103.5 26t-33.5 84q-17 -58 -56 -84t-111 -26h-288q-78 0 -110 37t-21 113l78 550h192l-71 -502q-2 -17 3.5 -24t22.5 -7h243q31 0 35 31l70 502h192l-70 -502q-2 -17 4 -24t22 -7h243q17 0 24.5 7t9.5 24l71 502h192l-77 -550q-11 -76 -53 -113
t-119 -37zM680 855l-16 -109h-167l15 109h168zM947 855l-15 -109h-168l15 109h168z" />
    <glyph glyph-name="wdieresis" unicode="&#x1e85;" horiz-adv-x="1165" 
d="M567 114q-16 -60 -52.5 -87t-103.5 -27h-254q-76 0 -106.5 36t-19.5 112l64 455h184l-58 -411q-3 -32 28 -32h200q32 0 37 32l57 411h184l-57 -411q-5 -32 28 -32h199q34 0 37 32l58 411h184l-64 -455q-11 -76 -51 -112t-115 -36h-254q-67 0 -97 27.5t-28 86.5zM609 766
l-16 -109h-167l15 109h168zM876 766l-15 -109h-168l15 109h168z" />
    <glyph glyph-name="Ygrave" unicode="&#x1ef2;" horiz-adv-x="946" 
d="M787 700h192l-39 -283q-11 -76 -53 -113t-119 -37h-193l-37 -267h-192l37 267h-193q-77 0 -108.5 37t-20.5 113l40 283h192l-34 -237q-2 -16 3.5 -23t22.5 -7h434q30 0 35 30zM508 749l-125 103h178l90 -103h-143z" />
    <glyph glyph-name="ygrave" unicode="&#x1ef3;" horiz-adv-x="860" 
d="M531 -167h-513l23 160h485q33 0 49.5 14t20.5 47l14 96q-17 -44 -50 -64.5t-91 -20.5h-314q-76 0 -106.5 36t-19.5 112l55 390h184l-48 -346q-5 -32 27 -32h340q33 0 38 32l48 346h184l-77 -552q-16 -113 -75.5 -165.5t-173.5 -52.5zM442 660l-125 103h178l90 -103h-143z
" />
    <glyph glyph-name="uni2010" unicode="&#x2010;" horiz-adv-x="466" 
d="M449 409l-23 -164h-402l23 164h402z" />
    <glyph glyph-name="figuredash" unicode="&#x2012;" 
d="M950 409l-23 -164h-935l23 164h935z" />
    <glyph glyph-name="endash" unicode="&#x2013;" horiz-adv-x="625" 
d="M640 409l-23 -164h-625l23 164h625z" />
    <glyph glyph-name="emdash" unicode="&#x2014;" horiz-adv-x="1250" 
d="M1265 409l-23 -164h-1250l23 164h1250z" />
    <glyph glyph-name="quoteleft" unicode="&#x2018;" horiz-adv-x="299" 
d="M58 383l21 150q11 77 61 122t130 45h39l-12 -86h-32q-29 0 -43.5 -11t-19.5 -42l-4 -28h87l-21 -150h-206z" />
    <glyph glyph-name="quoteright" unicode="&#x2019;" horiz-adv-x="299" 
d="M309 700l-21 -150q-11 -77 -61 -122t-130 -45h-39l12 86h31q30 0 44.5 11t18.5 42l5 28h-87l21 150h206z" />
    <glyph glyph-name="quotesinglbase" unicode="&#x201a;" horiz-adv-x="299" 
d="M232 150l-21 -150q-11 -77 -61 -122t-130 -45h-39l12 86h31q30 0 44.5 11t18.5 42l5 28h-87l21 150h206z" />
    <glyph glyph-name="quotedblleft" unicode="&#x201c;" horiz-adv-x="565" 
d="M323 383l21 150q11 77 61 122t130 45h39l-12 -86h-32q-29 0 -43.5 -11t-19.5 -42l-4 -28h87l-21 -150h-206zM58 383l21 150q11 77 61 122t130 45h39l-12 -86h-32q-29 0 -43.5 -11t-19.5 -42l-4 -28h87l-21 -150h-206z" />
    <glyph glyph-name="quotedblright" unicode="&#x201d;" horiz-adv-x="565" 
d="M574 700l-21 -150q-11 -77 -61 -122t-130 -45h-39l12 86h31q30 0 44.5 11t18.5 42l5 28h-87l21 150h206zM309 700l-21 -150q-11 -77 -61 -122t-130 -45h-39l12 86h31q30 0 44.5 11t18.5 42l5 28h-87l21 150h206z" />
    <glyph glyph-name="quotedblbase" unicode="&#x201e;" horiz-adv-x="565" 
d="M497 150l-21 -150q-11 -77 -61 -122t-130 -45h-39l12 86h31q30 0 44.5 11t18.5 42l5 28h-87l21 150h206zM232 150l-21 -150q-11 -77 -61 -122t-130 -45h-39l12 86h31q30 0 44.5 11t18.5 42l5 28h-87l21 150h206z" />
    <glyph glyph-name="dagger" unicode="&#x2020;" horiz-adv-x="891" 
d="M897 546l-23 -166h-322l-72 -512h-192l72 512h-321l23 166h321l28 194h192l-28 -194h322z" />
    <glyph glyph-name="daggerdbl" unicode="&#x2021;" horiz-adv-x="891" 
d="M859 271l-24 -166h-322l-33 -237h-192l33 237h-321l24 166h321l15 109h-321l23 166h321l28 194h192l-28 -194h322l-23 -166h-322l-15 -109h322z" />
    <glyph glyph-name="bullet" unicode="&#x2022;" horiz-adv-x="625" 
d="M377 140h-123q-157 0 -157 149v122q0 148 157 148h123q156 0 156 -148v-122q0 -149 -156 -149z" />
    <glyph glyph-name="ellipsis" unicode="&#x2026;" horiz-adv-x="830" 
d="M232 150l-21 -150h-206l21 150h206zM497 150l-21 -150h-206l21 150h206zM762 150l-21 -150h-206l21 150h206z" />
    <glyph glyph-name="perthousand" unicode="&#x2030;" horiz-adv-x="2198" 
d="M533 0l371 700h149l-371 -700h-149zM926 130l39 274q9 66 45 98t103 32h315q67 0 94 -32t18 -98l-39 -274q-18 -130 -148 -130h-315q-67 0 -94 32t-18 98zM1348 168l28 198q4 30 -24 30h-202q-29 0 -33 -30l-28 -198q-4 -30 25 -30h202q28 0 32 30zM1568 130l39 274
q9 66 45 98t103 32h315q67 0 94 -32t18 -98l-39 -274q-18 -130 -148 -130h-315q-67 0 -94 32t-18 98zM1990 168l28 198q4 30 -24 30h-202q-29 0 -33 -30l-28 -198q-4 -30 25 -30h202q28 0 32 30zM46 296l39 274q9 66 45 98t103 32h315q67 0 94 -32t18 -98l-39 -274
q-18 -130 -148 -130h-315q-67 0 -94 32t-18 98zM468 334l28 198q4 30 -24 30h-202q-29 0 -33 -30l-28 -198q-4 -30 25 -30h202q28 0 32 30z" />
    <glyph glyph-name="guilsinglleft" unicode="&#x2039;" horiz-adv-x="371" 
d="M316 51h-189l-110 249l180 249h194l-188 -254z" />
    <glyph glyph-name="guilsinglright" unicode="&#x203a;" horiz-adv-x="371" 
d="M54 549h190l110 -249l-180 -249h-195l189 253z" />
    <glyph glyph-name="fraction" unicode="&#x2044;" horiz-adv-x="458" 
d="M-24 0l371 700h149l-371 -700h-149z" />
    <glyph glyph-name="zerosuperior" unicode="&#x2070;" horiz-adv-x="651" 
d="M46 296l39 274q9 66 45 98t103 32h315q67 0 94 -32t18 -98l-39 -274q-18 -130 -148 -130h-315q-67 0 -94 32t-18 98zM468 334l28 198q4 30 -24 30h-202q-29 0 -33 -30l-28 -198q-4 -30 25 -30h202q28 0 32 30z" />
    <glyph glyph-name="foursuperior" unicode="&#x2074;" horiz-adv-x="651" 
d="M483 502l28 198h158l-75 -534h-158l28 198h-287q-67 0 -94 32t-18 98l29 206h158l-24 -169q-4 -29 25 -29h230z" />
    <glyph glyph-name="zeroinferior" unicode="&#x2080;" horiz-adv-x="651" 
d="M23 130l39 274q9 66 45 98t103 32h315q67 0 94 -32t18 -98l-39 -274q-18 -130 -148 -130h-315q-67 0 -94 32t-18 98zM445 168l28 198q4 30 -24 30h-202q-29 0 -33 -30l-28 -198q-4 -30 25 -30h202q28 0 32 30z" />
    <glyph glyph-name="oneinferior" unicode="&#x2081;" horiz-adv-x="651" 
d="M46 0l19 138h207l36 258h-207l20 138h365l-56 -396h154l-19 -138h-519z" />
    <glyph glyph-name="twoinferior" unicode="&#x2082;" horiz-adv-x="651" 
d="M474 358l1 9q3 16 -2.5 23t-21.5 7h-385l19 138h443q66 0 93 -32t18 -98l-10 -68q-9 -66 -45 -98t-102 -32h-263q-25 0 -35 -9t-14 -33l-4 -26h435l-19 -138h-593l24 171q22 157 179 157h249q29 0 33 29z" />
    <glyph glyph-name="threeinferior" unicode="&#x2083;" horiz-adv-x="651" 
d="M635 408l-4 -30q-7 -48 -30.5 -76t-80.5 -35q55 -7 71 -35t9 -76l-4 -30q-10 -66 -44 -96t-100 -30h-465l19 138h404q29 0 33 30l2 9q2 16 -3.5 22.5t-21.5 6.5h-326l17 122h326q29 0 33 29l1 9q2 16 -3.5 23t-21.5 7h-404l20 138h465q66 0 91.5 -30t16.5 -96z" />
    <glyph glyph-name="fourinferior" unicode="&#x2084;" horiz-adv-x="651" 
d="M460 336l28 198h158l-75 -534h-158l28 198h-287q-67 0 -94 32t-18 98l29 206h158l-24 -169q-4 -29 25 -29h230z" />
    <glyph glyph-name="Euro" unicode="&#x20ac;" 
d="M203 0q-78 0 -109.5 37t-20.5 113l16 117h-77l23 166h77l17 117q11 76 52.5 113t119.5 37h656l-24 -167h-584q-31 0 -35 -31l-10 -69h528l-23 -166h-528l-9 -69q-3 -17 3 -24t23 -7h584l-23 -167h-656z" />
    <glyph glyph-name="uni2117" unicode="&#x2117;" horiz-adv-x="1045" 
d="M334 382h395q16 0 16 15v33q0 15 -16 15h-395v-63zM822 451v-74q0 -60 -58 -60h-430v-129h-78v323h508q58 0 58 -60zM223 0q-88 0 -129.5 42t-41.5 128v360q0 86 41.5 128t129.5 42h615q88 0 129.5 -42t41.5 -128v-360q0 -86 -41.5 -128t-129.5 -42h-615zM228 72h605
q94 0 94 94v368q0 94 -94 94h-605q-94 0 -94 -94v-368q0 -94 94 -94z" />
    <glyph glyph-name="trademark" unicode="&#x2122;" horiz-adv-x="1543" 
d="M997 167v365q0 16 -6.5 23t-22.5 7h-143q-16 0 -22.5 -6.5t-6.5 -22.5v-366h-158v414q0 61 28.5 90t89.5 29h199q58 0 86.5 -22.5t34.5 -73.5q7 51 35.5 73.5t86.5 22.5h199q61 0 89.5 -29t28.5 -90v-414h-158v366q0 16 -6.5 22.5t-22.5 6.5h-143q-30 0 -30 -30v-365
h-158zM587 700v-138h-195v-395h-158v395h-194v138h547z" />
    <glyph glyph-name="uni2126" unicode="&#x2126;" 
d="M705 434v68q0 17 -6.5 24t-23.5 7h-409q-17 0 -23.5 -7t-6.5 -24v-68q0 -17 6.5 -24t23.5 -7h160v-403h-389v167h251v70h-93q-78 0 -114.5 37t-36.5 113v163q0 76 37 113t115 37h549q78 0 115 -37t37 -113v-163q0 -76 -36.5 -113t-114.5 -37h-93v-70h251v-167h-389v403
h160q17 0 23.5 7t6.5 24z" />
    <glyph glyph-name="onethird" unicode="&#x2153;" horiz-adv-x="1555" 
d="M69 166l19 138h207l36 258h-207l20 138h365l-56 -396h154l-19 -138h-519zM524 0l371 700h149l-371 -700h-149zM1538 408l-4 -30q-7 -48 -30.5 -76t-80.5 -35q55 -7 71 -35t9 -76l-4 -30q-10 -66 -44 -96t-100 -30h-465l19 138h404q29 0 33 30l2 9q2 16 -3.5 22.5
t-21.5 6.5h-326l17 122h326q29 0 33 29l1 9q2 16 -3.5 23t-21.5 7h-404l20 138h465q66 0 91.5 -30t16.5 -96z" />
    <glyph glyph-name="twothirds" unicode="&#x2154;" horiz-adv-x="1555" 
d="M497 524l1 9q3 16 -2.5 23t-21.5 7h-385l19 138h443q66 0 93 -32t18 -98l-10 -68q-9 -66 -45 -98t-102 -32h-263q-25 0 -35 -9t-14 -33l-4 -26h435l-19 -138h-593l24 171q22 157 179 157h249q29 0 33 29zM524 0l371 700h149l-371 -700h-149zM1538 408l-4 -30
q-7 -48 -30.5 -76t-80.5 -35q55 -7 71 -35t9 -76l-4 -30q-10 -66 -44 -96t-100 -30h-465l19 138h404q29 0 33 30l2 9q2 16 -3.5 22.5t-21.5 6.5h-326l17 122h326q29 0 33 29l1 9q2 16 -3.5 23t-21.5 7h-404l20 138h465q66 0 91.5 -30t16.5 -96z" />
    <glyph glyph-name="partialdiff" unicode="&#x2202;" 
d="M896 491v-341q0 -76 -36.5 -113t-113.5 -37h-556q-78 0 -114.5 37t-36.5 113v133q0 76 36.5 113t114.5 37h513v41q0 59 -57 59h-582v167h623q103 0 156 -53t53 -156zM231 236v-38q0 -17 6.5 -24t23.5 -7h411q17 0 24 7t7 24v69h-442q-17 0 -23.5 -7t-6.5 -24z" />
    <glyph glyph-name="uni2206" unicode="&#x2206;" 
d="M22 0l448 717l448 -717h-896zM470 413l-169 -270h337z" />
    <glyph glyph-name="product" unicode="&#x220f;" 
d="M702 -132v665h-463v-665h-192v832h847v-832h-192z" />
    <glyph glyph-name="summation" unicode="&#x2211;" 
d="M895 35v-167h-848v154l320 262l-320 261v155h848v-167h-570l300 -249l-300 -249h570z" />
    <glyph glyph-name="minus" unicode="&#x2212;" 
d="M47 271v158h847v-158h-847z" />
    <glyph glyph-name="radical" unicode="&#x221a;" 
d="M451 0l-101 271h-303v158h424l87 -230l191 501h177l-262 -700h-213z" />
    <glyph glyph-name="infinity" unicode="&#x221e;" horiz-adv-x="733" 
d="M345 317q-12 0 -23.5 12.5t-14.5 12.5t-11 -2t-14 -2q-8 0 -14.5 8t-6.5 17q0 22 8 35q-7 -7 -16 -37t-26 -41q-18 -12 -18 -40q0 -11 11 -21.5t11 -12.5q0 -4 -3 -4q-7 0 -12 5q13 -68 48 -104h-55q-35 114 -35 226q0 105 40.5 171.5t135.5 66.5q190 0 190 -254
q0 -75 -25 -210h-73q53 47 62 117q-4 -8 -13 -8q-3 0 -3 2l4 4q5 3 9.5 11.5t4.5 21.5q-4 -6 -15 -6q-1 0 -10.5 -4.5t-15.5 -4.5q-14 0 -40 3.5t-70 3.5q-22 0 -52.5 -6t-38.5 -6q-5 0 -13 2t-11 2q-28 0 -28 12q0 10 37 18.5t74 8.5q5 0 12 -0.5t12 -0.5t15.5 2t14.5 2
q112 0 127 -20q-1 16 -14 29t-30 13q-6 0 -6 7q0 57 -16 58q4 -7 4 -17q0 -18 -11 -32t-27 -14q-4 0 -10 2l-7 2q-1 0 -14.5 -14t-27.5 -14zM733 291v-148q-22 48 -69 112.5t-67 64.5q6 -85 -12 -177h-42q16 104 16 199q0 319 -213 319q-53 0 -91.5 -26.5t-59 -72.5
t-30 -97.5t-9.5 -111.5q0 -123 29 -210h-47q-19 67 -19 184q-17 -9 -39.5 -43.5t-49 -84.5t-30.5 -56v148q11 27 33 54t50 53.5t30 28.5q3 72 27 135t75.5 107.5t120.5 44.5q67 0 115.5 -22.5t76.5 -64t42.5 -87t22.5 -105.5q22 -5 68 -48t72 -96zM345 503q-3 3 -3 6
q0 2 2 2q1 0 6 -4.5t15 -8.5t22 -4q16 0 29 4t20 8l6 5q4 0 4 -2l-8 -8q24 0 52 -11q-29 80 -139 80q-55 0 -92 -33t-50 -85q37 20 41 39q-6 4 -6 7q0 4 3 4l2 -2q2 -1 6.5 -3.5t10 -5t13.5 -4t17 -1.5q24 0 49 17zM371 416q0 20 -4.5 40t-9.5 20q-10 0 -19 -39t-14 -39
q-3 0 -9.5 3t-11.5 3q-13 0 -21 -10.5t-8 -24.5t11 -14t18 6.5t9 6.5t12 -13.5t20 -13.5q14 0 25 10.5t12 10.5q3 0 10 -3.5t9 -3.5q10 0 18 11t8 24q0 10 -6 18t-16 8q-7 0 -14.5 -6.5t-11.5 -6.5q-7 0 -7 13zM510 318q0 95 -12 147l-5 3q0 -21 -18 -32t-41 -11
q-21 0 -37 12.5t-16 29.5q0 6 2 9q-12 2 -15 4q6 -9 10 -24t5.5 -24t4.5 -9q7 2 15 2q19 0 31 -14q34 0 34 -51q0 -3 8 -7t18.5 -13t15.5 -22zM383 310q-1 0 -8 -1t-15.5 -2t-13.5 -1t-13 1.5t-11 1.5q-15 0 -36 -4t-35 -9t-14 -8q0 -10 20 -10q24 0 54 6.5t44 6.5
q19 0 57.5 -3.5t52.5 -3.5q5 0 9.5 2t7.5 4t3 3q0 5 -36 11t-66 6zM267 413q-18 0 -31 10t-15 21q-4 -2 -15 -5q-4 -21 -4 -43q0 -50 3 -78q4 6 22 22t20 31q5 37 38 41q12 5 23 5q5 0 8.5 8.5t9.5 24.5t16 28l-13 -4q-1 -24 -18.5 -42.5t-43.5 -18.5zM419 465q-13 0 -16 13
q-5 0 -8.5 -5.5t-3.5 -9.5q0 -10 15 -17t31 -7q14 0 29 8.5t15 21.5q0 8 -14.5 12.5t-28.5 4.5q-5 -21 -19 -21zM267 427q14 0 30 11t16 24q0 6 -1 9q-20 0 -27 1q-5 -14 -18 -14q-10 0 -15 5q-4 -4 -18 -12q4 -24 33 -24zM266 288q-2 0 -2 3q0 12 107 12q93 0 93 -8
q0 -3 -3 -3q-1 0 -4 0.5t-10 1t-16 1.5t-24.5 1.5t-33.5 0.5q-36 0 -61 -2.5t-36 -4.5zM305 262q0 10 63 10q31 0 31 -8q0 -3 -2 -3q-4 0 -10 2t-10 2q-11 0 -26 -0.5t-20 -0.5q-4 0 -11.5 -3t-10.5 -3q-4 0 -4 4zM417 473q9 0 9 13q-1 0 -16 -6q0 -7 7 -7zM266 466
q7 0 10 9q-6 1 -11 4q0 -4 -6 -10q1 -3 7 -3zM325 34l-3 48l-10 -82h-21l15 125h25l4 -60l21 60h26l-15 -125h-22l10 82l-16 -48h-14zM21 125h35q23 0 20 -21l-10 -82q-3 -22 -22 -22h-38zM282 44q-1 -12 -10 -17l8 -27h-21l-7 23h-7l-3 -23h-22l15 125h36q21 0 18 -24z
M183 0l3 23h-14l-3 -23h-21l12 104q2 21 22 21h17q19 0 18 -21l-12 -104h-22zM594 0l15 125h35q23 0 20 -21l-8 -62q-3 -19 -22 -19h-15l-3 -23h-22zM111 0l3 23h-13l-3 -23h-22l15 125h22l-10 -83h13l10 83h22l-15 -125h-22zM539 125h22l-10 -79q0 -4 4 -4h5q5 0 5 4l9 79
h22l-10 -81q-3 -21 -19 -21l-9 -23h-23l9 23q-18 0 -15 21zM477 106l3 19h50l-3 -19h-13l-12 -106h-23l12 106h-14zM41 106l-11 -88h11q3 0 3 4l9 80q0 4 -4 4h-8zM629 106l-8 -64h8q5 0 5 4l7 56q0 4 -4 4h-8zM174 42h14l7 60q0 4 -4 4h-5q-5 0 -5 -4zM255 106l-8 -64h8
q5 0 5 4l7 56q0 4 -3 4h-9zM711 57l-3 -18h-19l-3 -21h27l-2 -18h-49l15 125h47l-3 -19h-24l-6 -49h20zM417 0l3 23h-14l-3 -23h-21l12 104q2 21 22 21h17q19 0 18 -21l-12 -104h-22zM408 42h14l7 60q0 4 -4 4h-5q-5 0 -5 -4z" />
    <glyph glyph-name="integral" unicode="&#x222b;" 
d="M625 494l-105 -467q-18 -82 -65 -120.5t-133 -38.5h-275v167h243q41 0 50 39l105 467q18 82 65.5 120.5t132.5 38.5h251v-167h-219q-41 0 -50 -39z" />
    <glyph glyph-name="approxequal" unicode="&#x2248;" 
d="M47 99v165q87 67 202 67q73 0 224.5 -38.5t225.5 -38.5q110 0 195 62v-166q-87 -67 -203 -67q-74 0 -225.5 38.5t-225.5 38.5q-109 0 -193 -61zM47 384v165q87 67 202 67q73 0 224.5 -38.5t225.5 -38.5q110 0 195 62v-166q-87 -67 -203 -67q-74 0 -225.5 38.5
t-225.5 38.5q-109 0 -193 -61z" />
    <glyph glyph-name="notequal" unicode="&#x2260;" 
d="M417 0h-163l50 131h-227v158h288l47 122h-335v158h395l51 131h165l-51 -131h227v-158h-288l-48 -122h336v-158h-397z" />
    <glyph glyph-name="lessequal" unicode="&#x2264;" 
d="M47 350l196 262h204l-145 -183h592v-158h-593l89 -113h504v-158h-847v158h143z" />
    <glyph glyph-name="greaterequal" unicode="&#x2265;" 
d="M698 612l196 -262l-143 -192h143v-158h-847v158h504l89 113h-593v158h592l-145 183h204z" />
    <glyph glyph-name="lozenge" unicode="&#x25ca;" 
d="M470 -17l-449 365l449 365l449 -365zM470 195l188 153l-188 153l-188 -153z" />
    <glyph glyph-name="commaaccent" horiz-adv-x="312" 
d="M183 -66l-11 -80q-8 -52 -42 -83t-88 -31h-45l7 45h35q42 0 48 43l1 5h-77l14 101h158z" />
    <glyph glyph-name="i.alt" horiz-adv-x="280" 
d="M6 0l84 603h184l-84 -603h-184zM310 770l-16 -113h-208l16 113h208z" />
    <glyph glyph-name="i.trk" horiz-adv-x="352" 
d="M253 160h76l-22 -160h-143q-78 0 -109 36t-20 112l64 455h184l-58 -411q-3 -32 28 -32zM319 770l-16 -113h-208l16 113h208z" />
    <glyph glyph-name="one.pnum" horiz-adv-x="425" 
d="M427 700l-98 -700h-192l74 533h-162l24 167h354z" />
    </font>
</defs>
</svg>
