<?xml version="1.0" standalone="no"?>
<!DOCTYPE svg PUBLIC "-//W3C//DTD SVG 1.1//EN" "http://www.w3.org/Graphics/SVG/1.1/DTD/svg11.dtd" >
<svg xmlns="http://www.w3.org/2000/svg" xmlns:xlink="http://www.w3.org/1999/xlink" version="1.1">
<metadata>
Created by FontForge 20170731 at Sat Mar 14 00:16:17 2015
 By ,,,
Copyright (c) 2011 by Ryoichi Tsunekawa. All rights reserved.
</metadata>
<defs>
<font id="DesignSystemA-700R" horiz-adv-x="571" >
  <font-face 
    font-family="DesignSystemA-700R"
    font-weight="400"
    font-stretch="normal"
    units-per-em="1000"
    panose-1="4 5 7 4 2 11 2 2 3 2"
    ascent="822"
    descent="-178"
    x-height="603"
    cap-height="700"
    bbox="-76 -235 1516 930"
    underline-thickness="36"
    underline-position="-156"
    unicode-range="U+0020-FB02"
  />
<missing-glyph horiz-adv-x="500" 
d="M0 700h500v-700h-500v700zM67 634v-555l321 555h-321zM111 66h322v554z" />
    <glyph glyph-name="ij" unicode="ij" horiz-adv-x="536" 
d="M246 -48h36q29 0 39 10t10 40v601h137v-631q0 -73 -33 -106t-108 -33h-81v119zM320 667v90h159v-90h-159zM62 0v603h137v-603h-137zM210 757v-90h-160v90h160z" />
    <glyph glyph-name="fi" unicode="fi" horiz-adv-x="773" 
d="M258 484q-36 0 -52.5 -16t-16.5 -53v-54h203v-119h-203v-242h-137v438q0 85 40.5 125t125.5 40h219v-119h-179zM699 119h57v-119h-106q-74 0 -107 33.5t-33 105.5v464h137v-431q0 -29 11.5 -41t40.5 -12zM658 757v-90h-160v90h160z" />
    <glyph glyph-name="fl" unicode="fl" horiz-adv-x="770" 
d="M258 484q-36 0 -52.5 -16t-16.5 -53v-54h203v-119h-203v-242h-137v438q0 85 40.5 125t125.5 40h219v-119h-179zM696 119h57v-119h-106q-74 0 -107.5 33.5t-33.5 105.5v631h137v-598q0 -29 12 -41t41 -12z" />
    <glyph glyph-name=".notdef" horiz-adv-x="500" 
d="M0 700h500v-700h-500v700zM67 634v-555l321 555h-321zM111 66h322v554z" />
    <glyph glyph-name=".null" horiz-adv-x="0" 
 />
    <glyph glyph-name="nonmarkingreturn" horiz-adv-x="333" 
 />
    <glyph glyph-name="space" unicode=" " horiz-adv-x="257" 
 />
    <glyph glyph-name="exclam" unicode="!" horiz-adv-x="293" 
d="M230 104v-104h-167v104h167zM217 700v-223q0 -150 -16 -278h-109q-17 125 -17 278v223h142z" />
    <glyph glyph-name="quotedbl" unicode="&#x22;" horiz-adv-x="475" 
d="M194 700v-42q0 -117 -21 -266h-100q-21 149 -21 266v42h142zM423 700v-42q0 -117 -21 -266h-100q-21 149 -21 266v42h142z" />
    <glyph glyph-name="numbersign" unicode="#" 
d="M329 0l7 124h-125l-7 -124h-120l7 124h-61l6 119h61l11 214h-60l6 119h60l7 124h120l-6 -124h124l7 124h121l-7 -124h61l-6 -119h-61l-12 -214h61l-6 -119h-61l-6 -124h-121zM229 457l-12 -214h125l11 214h-124z" />
    <glyph glyph-name="dollar" unicode="$" 
d="M39 169h310q25 0 36 11t11 36v31q0 25 -11 36t-36 11h-183q-65 0 -96 32t-31 99v97q0 67 31 99t96 32h57v87h124v-87h156v-119h-281q-25 0 -36 -11t-11 -36v-32q0 -46 47 -46h184q127 0 127 -131v-97q0 -131 -128 -131h-58v-90h-124v90h-184v119z" />
    <glyph glyph-name="percent" unicode="%" horiz-adv-x="1111" 
d="M403 0l199 700h106l-199 -700h-106zM680 125v284q0 64 30.5 94.5t94.5 30.5h136q64 0 94.5 -30.5t30.5 -94.5v-284q0 -64 -30.5 -94.5t-94.5 -30.5h-136q-64 0 -94.5 30.5t-30.5 94.5zM947 149v236q0 44 -43 44h-61q-23 0 -33.5 -10t-10.5 -34v-236q0 -24 10.5 -34
t33.5 -10h61q43 0 43 44zM45 291v284q0 64 30.5 94.5t94.5 30.5h136q64 0 94.5 -30.5t30.5 -94.5v-284q0 -64 -30.5 -94.5t-94.5 -30.5h-136q-64 0 -94.5 30.5t-30.5 94.5zM312 315v236q0 44 -43 44h-61q-23 0 -33.5 -10t-10.5 -34v-236q0 -24 10.5 -34t33.5 -10h61
q43 0 43 44z" />
    <glyph glyph-name="ampersand" unicode="&#x26;" horiz-adv-x="679" 
d="M450 288h-208q-30 0 -42 -12.5t-12 -43.5v-52q0 -30 12.5 -43t40.5 -13h158q29 0 40 10.5t11 40.5v113zM46 140v78q0 62 25 93.5t81 38.5q-57 7 -81.5 38t-24.5 94v78q0 73 34 106.5t107 33.5h355v-124h-301q-28 0 -40.5 -13t-12.5 -43v-52q0 -31 12 -43.5t42 -12.5h420
v-124h-70v-154q0 -72 -31 -103t-103 -31h-271q-73 0 -107 33.5t-34 106.5z" />
    <glyph glyph-name="quotesingle" unicode="'" horiz-adv-x="246" 
d="M194 700v-42q0 -117 -21 -266h-100q-21 149 -21 266v42h142z" />
    <glyph glyph-name="parenleft" unicode="(" horiz-adv-x="338" 
d="M189 90q0 -32 12.5 -44.5t42.5 -12.5h57v-113h-100q-73 0 -107.5 34t-34.5 106v500q0 72 34.5 106t107.5 34h100v-113h-57q-30 0 -42.5 -12.5t-12.5 -44.5v-440z" />
    <glyph glyph-name="parenright" unicode=")" horiz-adv-x="338" 
d="M149 90v440q0 32 -12.5 44.5t-42.5 12.5h-57v113h100q73 0 107.5 -34t34.5 -106v-500q0 -72 -34.5 -106t-107.5 -34h-100v113h57q30 0 42.5 12.5t12.5 44.5z" />
    <glyph glyph-name="asterisk" unicode="*" horiz-adv-x="543" 
d="M284 463q82 74 150 95l63 20l34 -107l-63 -19q-41 -13 -101 -15t-75 3q93 -54 137 -114l38 -52l-90 -66l-39 53q-25 34 -42.5 83.5t-23.5 80.5q-23 -104 -67 -164l-39 -53l-90 66l38 52q44 60 137 114q-15 -5 -75 -3t-101 15l-63 19l34 107l63 -20q68 -21 150 -95
q-14 28 -28.5 78.5t-14.5 93.5v65h112v-65q0 -80 -44 -172z" />
    <glyph glyph-name="plus" unicode="+" 
d="M52 291v118h174v174h118v-174h175v-118h-175v-175h-118v175h-174z" />
    <glyph glyph-name="comma" unicode="," horiz-adv-x="285" 
d="M222 118v-117q0 -67 -33.5 -103.5t-99.5 -36.5h-25v63h21q25 0 36 11t11 41v25h-68v117h158z" />
    <glyph glyph-name="hyphen" unicode="-" horiz-adv-x="380" 
d="M345 388v-122h-310v122h310z" />
    <glyph glyph-name="period" unicode="." horiz-adv-x="285" 
d="M222 118v-118h-158v118h158z" />
    <glyph glyph-name="slash" unicode="/" horiz-adv-x="436" 
d="M22 0l252 700h140l-252 -700h-140z" />
    <glyph glyph-name="zero" unicode="0" 
d="M198 0q-146 0 -146 145v410q0 145 146 145h175q146 0 146 -145v-410q0 -145 -146 -145h-175zM377 181v338q0 31 -12.5 44t-43.5 13h-72q-30 0 -42.5 -13t-12.5 -44v-338q0 -31 12.5 -44t42.5 -13h72q31 0 43.5 13t12.5 44z" />
    <glyph glyph-name="one" unicode="1" 
d="M409 700v-576h105v-124h-400v124h166v452h-166v124h295z" />
    <glyph glyph-name="two" unicode="2" 
d="M384 520q0 30 -12.5 43t-40.5 13h-265v124h316q75 0 109.5 -35t34.5 -109v-125q0 -73 -34.5 -108t-109.5 -35h-124q-42 0 -58.5 -16.5t-16.5 -58.5v-89h348v-124h-490v237q0 175 174 175h116q29 0 41 12.5t12 42.5v53z" />
    <glyph glyph-name="three" unicode="3" 
d="M329 288h-194v124h194q30 0 42 13t12 43v52q0 30 -12.5 43t-41.5 13h-291v124h346q73 0 107 -33.5t34 -106.5v-78q0 -63 -25 -94t-81 -38q56 -7 81 -38.5t25 -93.5v-78q0 -73 -34 -106.5t-107 -33.5h-346v124h291q29 0 41.5 13t12.5 43v52q0 30 -12 43t-42 13z" />
    <glyph glyph-name="four" unicode="4" 
d="M373 412v288h142v-700h-142v288h-189q-146 0 -146 145v267h142v-231q0 -31 12.5 -44t43.5 -13h137z" />
    <glyph glyph-name="five" unicode="5" 
d="M61 288v412h444v-124h-302v-164h182q75 0 110 -35.5t35 -108.5v-124q0 -74 -35 -109t-110 -35h-334v124h283q29 0 41.5 13t12.5 43v53q0 30 -12.5 42.5t-41.5 12.5h-273z" />
    <glyph glyph-name="six" unicode="6" 
d="M193 484v-72h192q75 0 110 -35.5t35 -108.5v-124q0 -74 -35 -109t-110 -35h-191q-75 0 -109.5 35t-34.5 109v355q0 99 51 150t150 51h254v-124h-221q-91 0 -91 -92zM334 288h-141v-108q0 -30 12.5 -43t41.5 -13h87q29 0 41.5 13t12.5 43v53q0 30 -12.5 42.5t-41.5 12.5z
" />
    <glyph glyph-name="seven" unicode="7" 
d="M324 412q37 0 51.5 14t14.5 52v98h-372v124h514v-248q0 -164 -163 -164h-9q-37 0 -52 -14t-15 -52v-222h-142v248q0 164 164 164h9z" />
    <glyph glyph-name="eight" unicode="8" 
d="M529 560v-78q0 -63 -25 -94t-81 -38q56 -7 81 -38.5t25 -93.5v-78q0 -73 -34 -106.5t-107 -33.5h-205q-73 0 -107 33.5t-34 106.5v78q0 62 25 93.5t81 38.5q-57 7 -81.5 38t-24.5 94v78q0 73 34 106.5t107 33.5h205q73 0 107 -33.5t34 -106.5zM238 412h95q30 0 42 13
t12 43v52q0 30 -12.5 43t-41.5 13h-96q-28 0 -40.5 -13t-12.5 -43v-52q0 -31 12 -43.5t42 -12.5zM333 288h-95q-30 0 -42 -12.5t-12 -43.5v-52q0 -30 12.5 -43t40.5 -13h96q29 0 41.5 13t12.5 43v52q0 30 -12 43t-42 13z" />
    <glyph glyph-name="nine" unicode="9" 
d="M377 700q75 0 109.5 -35t34.5 -109v-355q0 -99 -51.5 -150t-149.5 -51h-254v124h221q91 0 91 92v72h-193q-74 0 -109 35.5t-35 108.5v124q0 74 35 109t109 35h192zM183 520v-53q0 -30 12 -42.5t41 -12.5h142v108q0 30 -12.5 43t-41.5 13h-88q-28 0 -40.5 -13t-12.5 -43z
" />
    <glyph glyph-name="colon" unicode=":" horiz-adv-x="285" 
d="M222 578v-118h-158v118h158zM222 118v-118h-158v118h158z" />
    <glyph glyph-name="semicolon" unicode=";" horiz-adv-x="285" 
d="M222 118v-117q0 -67 -33.5 -103.5t-99.5 -36.5h-25v63h21q25 0 36 11t11 41v25h-68v117h158zM222 578v-118h-158v118h158z" />
    <glyph glyph-name="less" unicode="&#x3c;" 
d="M52 350l190 233h152l-147 -174h272v-118h-273l148 -175h-152z" />
    <glyph glyph-name="equal" unicode="=" 
d="M75 157v118h420v-118h-420zM75 424v118h420v-118h-420z" />
    <glyph glyph-name="greater" unicode="&#x3e;" 
d="M519 350l-190 -234h-152l148 175h-273v118h272l-147 174h152z" />
    <glyph glyph-name="question" unicode="?" horiz-adv-x="531" 
d="M363 467v53q0 30 -12.5 43t-40.5 13h-293v124h344q75 0 109.5 -35t34.5 -109v-124q0 -73 -35 -108.5t-109 -35.5h-54q-26 0 -35.5 -9.5t-9.5 -36.5v-50h-142v101q0 119 118 119h72q29 0 41 12.5t12 42.5zM275 104v-104h-168v104h168z" />
    <glyph glyph-name="at" unicode="@" horiz-adv-x="715" 
d="M219 0q-86 0 -126.5 41t-40.5 125v368q0 84 40.5 125t126.5 41h277q86 0 126.5 -41t40.5 -125v-368q0 -84 -40.5 -125t-126.5 -41h-277zM223 60h269q103 0 103 103v374q0 103 -103 103h-269q-103 0 -103 -103v-374q0 -103 103 -103zM400 188h-89q-71 0 -71 73v43
q0 73 71 73h103v47q0 31 -30 31h-129v56h143q81 0 81 -82v-161q0 -80 -79 -80zM330 322q-24 0 -24 -24v-30q0 -24 24 -24h56q28 0 28 29v49h-84z" />
    <glyph glyph-name="A" unicode="A" horiz-adv-x="605" 
d="M546 0h-142v288h-202v-288h-143v555q0 145 146 145h195q146 0 146 -145v-555zM348 576h-91q-30 0 -42.5 -13t-12.5 -44v-107h202v107q0 31 -12.5 44t-43.5 13z" />
    <glyph glyph-name="B" unicode="B" horiz-adv-x="598" 
d="M552 218v-78q0 -73 -34 -106.5t-107 -33.5h-345v700h345q73 0 107 -33.5t34 -106.5v-78q0 -63 -24.5 -94t-81.5 -38q56 -7 81 -38.5t25 -93.5zM356 412q30 0 42 12.5t12 43.5v52q0 30 -12.5 43t-40.5 13h-149v-164h148zM208 288v-164h149q28 0 40.5 13t12.5 43v52
q0 31 -12 43.5t-42 12.5h-148z" />
    <glyph glyph-name="C" unicode="C" horiz-adv-x="515" 
d="M197 0q-74 0 -109.5 36t-35.5 109v410q0 73 35.5 109t109.5 36h280v-124h-228q-30 0 -42.5 -13t-12.5 -44v-338q0 -31 12.5 -44t42.5 -13h228v-124h-280z" />
    <glyph glyph-name="D" unicode="D" horiz-adv-x="598" 
d="M351 700q99 0 150 -51t51 -150v-298q0 -99 -51 -150t-150 -51h-285v700h285zM319 124q91 0 91 92v268q0 92 -91 92h-111v-452h111z" />
    <glyph glyph-name="E" unicode="E" horiz-adv-x="565" 
d="M66 0v700h461v-124h-319v-164h229v-124h-229v-164h319v-124h-461z" />
    <glyph glyph-name="F" unicode="F" horiz-adv-x="541" 
d="M66 0v700h458v-124h-316v-164h226v-124h-226v-288h-142z" />
    <glyph glyph-name="G" unicode="G" horiz-adv-x="589" 
d="M347 124q30 0 40.5 10.5t10.5 40.5v113h-107v124h249v-278q0 -72 -31 -103t-103 -31h-209q-74 0 -109.5 36t-35.5 109v410q0 73 35.5 109t109.5 36h318v-124h-266q-30 0 -42.5 -13t-12.5 -44v-338q0 -31 12.5 -44t42.5 -13h98z" />
    <glyph glyph-name="H" unicode="H" horiz-adv-x="636" 
d="M428 0v288h-220v-288h-142v700h142v-288h220v288h142v-700h-142z" />
    <glyph glyph-name="I" unicode="I" horiz-adv-x="274" 
d="M66 0v700h142v-700h-142z" />
    <glyph glyph-name="J" unicode="J" horiz-adv-x="576" 
d="M38 135v207h142v-167q0 -30 10.5 -40.5t39.5 -10.5h89q31 0 43 12.5t12 44.5v519h142v-555q0 -73 -35.5 -109t-109.5 -36h-198q-73 0 -104 31.5t-31 103.5z" />
    <glyph glyph-name="K" unicode="K" horiz-adv-x="605" 
d="M552 700v-209q0 -63 -26.5 -99t-89.5 -42q63 -6 89.5 -42t26.5 -99v-209h-142v227q0 32 -13.5 46.5t-45.5 14.5h-143v-288h-142v700h142v-288h143q32 0 45.5 14.5t13.5 46.5v227h142z" />
    <glyph glyph-name="L" unicode="L" horiz-adv-x="536" 
d="M519 124v-124h-453v700h142v-576h311z" />
    <glyph glyph-name="M" unicode="M" horiz-adv-x="882" 
d="M586 700h91q146 0 146 -145v-555h-142v519q0 31 -12.5 44t-43.5 13h-58q-30 0 -42.5 -13t-12.5 -44v-519h-142v519q0 31 -12.5 44t-42.5 13h-58q-30 0 -42.5 -13t-12.5 -44v-519h-143v555q0 145 146 145h91q69 0 103 -24.5t42 -80.5q8 56 42 80.5t103 24.5z" />
    <glyph glyph-name="N" unicode="N" horiz-adv-x="605" 
d="M257 576q-30 0 -42.5 -13t-12.5 -44v-519h-143v555q0 145 146 145h195q146 0 146 -145v-555h-142v519q0 31 -12.5 44t-43.5 13h-91z" />
    <glyph glyph-name="O" unicode="O" horiz-adv-x="591" 
d="M198 0q-146 0 -146 145v410q0 145 146 145h195q146 0 146 -145v-410q0 -145 -146 -145h-195zM397 181v338q0 31 -12.5 44t-43.5 13h-92q-30 0 -42.5 -13t-12.5 -44v-338q0 -31 12.5 -44t42.5 -13h92q31 0 43.5 13t12.5 44z" />
    <glyph glyph-name="P" unicode="P" horiz-adv-x="576" 
d="M66 0v700h340q75 0 109.5 -35t34.5 -109v-125q0 -73 -34.5 -108t-109.5 -35h-198v-288h-142zM408 520q0 30 -12.5 43t-40.5 13h-147v-164h147q29 0 41 12.5t12 42.5v53z" />
    <glyph glyph-name="Q" unicode="Q" horiz-adv-x="591" 
d="M198 0q-146 0 -146 145v410q0 145 146 145h195q146 0 146 -145v-410q0 -145 -146 -145h-35v-107h-124v107h-36zM397 181v338q0 31 -12.5 44t-43.5 13h-92q-30 0 -42.5 -13t-12.5 -44v-338q0 -31 12.5 -44t42.5 -13h92q31 0 43.5 13t12.5 44z" />
    <glyph glyph-name="R" unicode="R" horiz-adv-x="604" 
d="M552 560v-78q0 -64 -26 -96t-85 -37q60 -8 85.5 -43.5t25.5 -96.5v-209h-142v227q0 32 -13.5 46.5t-45.5 14.5h-143v-288h-142v700h345q73 0 107 -33.5t34 -106.5zM356 412q30 0 42 12.5t12 43.5v52q0 30 -12.5 43t-40.5 13h-149v-164h148z" />
    <glyph glyph-name="S" unicode="S" horiz-adv-x="548" 
d="M189 288q-75 0 -110 35.5t-35 108.5v124q0 74 35 109t110 35h293v-124h-242q-29 0 -41.5 -13t-12.5 -43v-53q0 -30 12.5 -42.5t41.5 -12.5h122q75 0 110 -35.5t35 -108.5v-124q0 -74 -34.5 -109t-109.5 -35h-324v124h273q28 0 40.5 13t12.5 43v53q0 30 -12 42.5t-41 12.5
h-123z" />
    <glyph glyph-name="T" unicode="T" horiz-adv-x="521" 
d="M505 700v-124h-173v-576h-142v576h-173v124h488z" />
    <glyph glyph-name="U" unicode="U" horiz-adv-x="605" 
d="M205 0q-146 0 -146 145v555h143v-519q0 -31 12.5 -44t42.5 -13h91q31 0 43.5 13t12.5 44v519h142v-555q0 -145 -146 -145h-195z" />
    <glyph glyph-name="V" unicode="V" horiz-adv-x="596" 
d="M66 0v700h142v-576h100q91 0 91 92v484h142v-499q0 -98 -51 -149.5t-150 -51.5h-274z" />
    <glyph glyph-name="W" unicode="W" horiz-adv-x="882" 
d="M677 0h-91q-69 0 -103 24.5t-42 80.5q-8 -56 -42 -80.5t-103 -24.5h-91q-146 0 -146 145v555h143v-519q0 -31 12.5 -44t42.5 -13h58q30 0 42.5 13t12.5 44v519h142v-519q0 -31 12.5 -44t42.5 -13h58q31 0 43.5 13t12.5 44v519h142v-555q0 -145 -146 -145z" />
    <glyph glyph-name="X" unicode="X" horiz-adv-x="591" 
d="M51 491v209h143v-227q0 -32 13.5 -46.5t45.5 -14.5h86q32 0 45.5 14.5t13.5 46.5v227h142v-209q0 -63 -26.5 -99t-89.5 -42q63 -6 89.5 -42t26.5 -99v-209h-142v227q0 32 -13.5 46.5t-45.5 14.5h-86q-32 0 -45.5 -14.5t-13.5 -46.5v-227h-143v209q0 63 27 99t90 42
q-63 6 -90 42t-27 99z" />
    <glyph glyph-name="Y" unicode="Y" horiz-adv-x="579" 
d="M399 700h142v-267q0 -73 -35.5 -109t-109.5 -36h-35v-288h-143v288h-35q-74 0 -109.5 36t-35.5 109v267h142v-232q0 -31 12.5 -43.5t43.5 -12.5h107q31 0 43.5 12.5t12.5 43.5v232z" />
    <glyph glyph-name="Z" unicode="Z" horiz-adv-x="556" 
d="M296 412q41 0 58 16.5t17 57.5v90h-305v124h447v-237q0 -175 -175 -175h-80q-42 0 -58.5 -16t-16.5 -58v-90h330v-124h-472v237q0 175 174 175h81z" />
    <glyph glyph-name="bracketleft" unicode="[" horiz-adv-x="344" 
d="M66 700h241v-106h-120v-568h120v-106h-241v780z" />
    <glyph glyph-name="backslash" unicode="\" horiz-adv-x="436" 
d="M162 700l252 -700h-140l-252 700h140z" />
    <glyph glyph-name="bracketright" unicode="]" horiz-adv-x="344" 
d="M37 700h241v-780h-241v106h120v568h-120v106z" />
    <glyph glyph-name="asciicircum" unicode="^" 
d="M285 710l233 -278v-183l-233 278l-233 -278v183z" />
    <glyph glyph-name="underscore" unicode="_" horiz-adv-x="500" 
d="M500 -38v-84h-500v84h500z" />
    <glyph glyph-name="grave" unicode="`" horiz-adv-x="243" 
d="M123 662l-111 101h124l90 -101h-103z" />
    <glyph glyph-name="a" unicode="a" horiz-adv-x="526" 
d="M343 357v71q0 56 -56 56h-223v119h275q73 0 107 -34.5t34 -108.5v-317q0 -74 -34 -108.5t-107 -34.5h-177q-65 0 -96.5 32t-31.5 99v95q0 131 127 131h182zM343 246h-126q-25 0 -35.5 -11t-10.5 -36v-33q0 -47 46 -47h70q30 0 43 13.5t13 42.5v71z" />
    <glyph glyph-name="b" unicode="b" horiz-adv-x="532" 
d="M52 143v627h137v-245q10 40 39 59t84 19h32q73 0 107.5 -34.5t34.5 -108.5v-317q0 -74 -34.5 -108.5t-107.5 -34.5h-150q-73 0 -107.5 34.5t-34.5 108.5zM189 428v-253q0 -56 56 -56h48q56 0 56 56v253q0 56 -56 56h-48q-56 0 -56 -56z" />
    <glyph glyph-name="c" unicode="c" horiz-adv-x="472" 
d="M188 0q-73 0 -107.5 34.5t-34.5 108.5v317q0 74 34.5 108.5t107.5 34.5h248v-119h-197q-56 0 -56 -56v-253q0 -56 56 -56h197v-119h-248z" />
    <glyph glyph-name="d" unicode="d" horiz-adv-x="532" 
d="M479 770v-627q0 -74 -34 -108.5t-107 -34.5h-150q-73 0 -107.5 34.5t-34.5 108.5v317q0 74 34.5 108.5t107.5 34.5h32q55 0 84 -19t39 -59v245h136zM343 175v253q0 56 -56 56h-48q-56 0 -56 -56v-253q0 -56 56 -56h48q56 0 56 56z" />
    <glyph glyph-name="e" unicode="e" horiz-adv-x="526" 
d="M492 377q0 -67 -31 -99t-96 -32h-182v-71q0 -56 56 -56h223v-119h-274q-73 0 -107.5 34.5t-34.5 108.5v317q0 74 34.5 108.5t107.5 34.5h177q65 0 96 -32t31 -99v-95zM309 484h-70q-56 0 -56 -56v-71h126q25 0 36 10.5t11 35.5v34q0 25 -11 36t-36 11z" />
    <glyph glyph-name="f" unicode="f" horiz-adv-x="454" 
d="M258 484q-36 0 -52.5 -16t-16.5 -53v-54h203v-119h-203v-242h-137v438q0 85 40.5 125t125.5 40h219v-119h-179z" />
    <glyph glyph-name="g" unicode="g" horiz-adv-x="532" 
d="M287 155q56 0 56 56v217q0 56 -56 56h-48q-56 0 -56 -56v-217q0 -55 56 -56h48zM220 36h-32q-73 0 -107.5 35t-34.5 108v281q0 74 34.5 108.5t107.5 34.5h150q73 0 107 -34.5t34 -108.5v-423q0 -105 -49 -154.5t-154 -49.5h-189v119h168q46 0 67 20t21 67v74
q-19 -77 -123 -77z" />
    <glyph glyph-name="h" unicode="h" horiz-adv-x="544" 
d="M355 428q0 29 -13 42.5t-43 13.5h-48q-29 0 -42 -13.5t-13 -42.5v-428h-137v770h137v-245q10 41 38.5 59.5t83.5 18.5h33q73 0 107 -34.5t34 -108.5v-460h-137v428z" />
    <glyph glyph-name="i" unicode="i" horiz-adv-x="319" 
d="M245 119h57v-119h-106q-74 0 -107 33.5t-33 105.5v464h137v-431q0 -29 11.5 -41t40.5 -12zM204 757v-90h-160v90h160z" />
    <glyph glyph-name="j" unicode="j" horiz-adv-x="276" 
d="M-14 -48h36q29 0 39 10t10 40v601h137v-631q0 -73 -33 -106t-108 -33h-81v119zM60 667v90h159v-90h-159z" />
    <glyph glyph-name="k" unicode="k" horiz-adv-x="534" 
d="M353 407v196h137v-176q0 -59 -23 -89t-77 -37q54 -6 77 -36t23 -90v-175h-137v196q0 46 -47 46h-110v-242h-137v770h137v-409h110q47 0 47 46z" />
    <glyph glyph-name="l" unicode="l" horiz-adv-x="316" 
d="M242 119h57v-119h-106q-74 0 -107.5 33.5t-33.5 105.5v631h137v-598q0 -29 12 -41t41 -12z" />
    <glyph glyph-name="m" unicode="m" horiz-adv-x="816" 
d="M408 498q8 56 40.5 80.5t98.5 24.5h75q73 0 107.5 -34.5t34.5 -108.5v-460h-137v428q0 29 -13 42.5t-43 13.5h-39q-30 0 -43 -13.5t-13 -42.5v-428h-136v428q0 29 -13 42.5t-43 13.5h-39q-30 0 -43 -13.5t-13 -42.5v-428h-137v460q0 74 34.5 108.5t107.5 34.5h75
q66 0 98.5 -24.5t40.5 -80.5z" />
    <glyph glyph-name="n" unicode="n" horiz-adv-x="536" 
d="M52 0v460q0 74 34.5 108.5t107.5 34.5h148q73 0 107.5 -34.5t34.5 -108.5v-460h-137v428q0 29 -13 42.5t-43 13.5h-46q-30 0 -43 -13.5t-13 -42.5v-428h-137z" />
    <glyph glyph-name="o" unicode="o" horiz-adv-x="524" 
d="M336 603q73 0 107 -34.5t34 -108.5v-317q0 -74 -34 -108.5t-107 -34.5h-148q-73 0 -107.5 34.5t-34.5 108.5v317q0 74 34.5 108.5t107.5 34.5h148zM285 119q30 0 43 13.5t13 42.5v253q0 29 -13 42.5t-43 13.5h-46q-30 0 -43 -13.5t-13 -42.5v-253q0 -29 13 -42.5
t43 -13.5h46z" />
    <glyph glyph-name="p" unicode="p" horiz-adv-x="532" 
d="M52 -167v627q0 74 34.5 108.5t107.5 34.5h150q73 0 107.5 -34.5t34.5 -108.5v-317q0 -74 -34.5 -108.5t-107.5 -34.5h-32q-55 0 -84 19t-39 59v-245h-137zM189 428v-253q0 -56 56 -56h48q56 0 56 56v253q0 56 -56 56h-48q-56 0 -56 -56z" />
    <glyph glyph-name="q" unicode="q" horiz-adv-x="532" 
d="M479 460v-627h-136v245q-10 -40 -39 -59t-84 -19h-32q-73 0 -107.5 34.5t-34.5 108.5v317q0 74 34.5 108.5t107.5 34.5h150q73 0 107 -34.5t34 -108.5zM343 175v253q0 56 -56 56h-48q-56 0 -56 -56v-253q0 -56 56 -56h48q56 0 56 56z" />
    <glyph glyph-name="r" unicode="r" horiz-adv-x="379" 
d="M362 603v-119h-117q-56 0 -56 -56v-428h-137v460q0 74 34.5 108.5t107.5 34.5h168z" />
    <glyph glyph-name="s" unicode="s" horiz-adv-x="493" 
d="M429 484h-208q-25 0 -35.5 -11t-10.5 -36v-34q0 -46 46 -46h111q127 0 127 -131v-95q0 -67 -31.5 -99t-96.5 -32h-293v119h238q46 0 46 47v28q0 52 -46 52h-110q-65 0 -96.5 32t-31.5 99v95q0 67 31 99t96 32h264v-119z" />
    <glyph glyph-name="t" unicode="t" horiz-adv-x="406" 
d="M196 0q-75 0 -109.5 34.5t-34.5 108.5v627h137v-167h181v-119h-181v-309q0 -56 56 -56h125v-119h-174z" />
    <glyph glyph-name="u" unicode="u" horiz-adv-x="536" 
d="M291 119q30 0 43 13.5t13 42.5v428h137v-460q0 -74 -34.5 -108.5t-107.5 -34.5h-148q-73 0 -107.5 34.5t-34.5 108.5v460h137v-428q0 -29 13 -42.5t43 -13.5h46z" />
    <glyph glyph-name="v" unicode="v" horiz-adv-x="529" 
d="M480 603v-410q0 -100 -46 -146.5t-146 -46.5h-229v603h137v-484h61q46 0 66 19.5t20 66.5v398h137z" />
    <glyph glyph-name="w" unicode="w" horiz-adv-x="816" 
d="M408 105q-8 -56 -40.5 -80.5t-98.5 -24.5h-75q-73 0 -107.5 34.5t-34.5 108.5v460h137v-428q0 -29 13 -42.5t43 -13.5h39q30 0 43 13.5t13 42.5v428h136v-428q0 -29 13 -42.5t43 -13.5h39q30 0 43 13.5t13 42.5v428h137v-460q0 -74 -34.5 -108.5t-107.5 -34.5h-75
q-66 0 -98.5 24.5t-40.5 80.5z" />
    <glyph glyph-name="x" unicode="x" horiz-adv-x="538" 
d="M357 407v196h137v-176q0 -59 -23 -89t-77 -37q54 -6 77 -36t23 -90v-175h-137v196q0 46 -47 46h-82q-47 0 -47 -46v-196h-137v175q0 59 23 89.5t77 36.5q-54 7 -77 37t-23 89v176h137v-196q0 -46 47 -46h82q47 0 47 46z" />
    <glyph glyph-name="y" unicode="y" horiz-adv-x="544" 
d="M282 -167h-188v119h167q46 0 67 20t21 67v74q-10 -40 -38.5 -58.5t-83.5 -18.5h-33q-73 0 -107.5 34.5t-34.5 108.5v424h137v-392q0 -56 56 -56h48q56 0 56 56v392h137v-566q0 -105 -49 -154.5t-155 -49.5z" />
    <glyph glyph-name="z" unicode="z" horiz-adv-x="501" 
d="M234 246q-33 0 -47.5 -14.5t-14.5 -46.5v-66h291v-119h-427v192q0 165 165 165h64q62 0 62 61v66h-271v119h407v-192q0 -165 -165 -165h-64z" />
    <glyph glyph-name="braceleft" unicode="{" horiz-adv-x="356" 
d="M210 530v-112q0 -55 -23 -81t-76 -27q53 -1 76 -27t23 -81v-112q0 -32 12.5 -44.5t43.5 -12.5h56v-113h-100q-73 0 -107 34t-34 106v154q0 22 -7.5 31t-27.5 9h-25v112h25q20 0 27.5 9t7.5 31v154q0 72 34 106t107 34h100v-113h-56q-31 0 -43.5 -12.5t-12.5 -44.5z" />
    <glyph glyph-name="bar" unicode="|" horiz-adv-x="298" 
d="M79 -167v907h141v-907h-141z" />
    <glyph glyph-name="braceright" unicode="}" horiz-adv-x="356" 
d="M146 418v112q0 32 -12.5 44.5t-43.5 12.5h-56v113h100q73 0 107 -34t34 -106v-154q0 -22 7.5 -31t27.5 -9h25v-112h-25q-20 0 -27.5 -9t-7.5 -31v-154q0 -72 -34 -106t-107 -34h-100v113h56q31 0 43.5 12.5t12.5 44.5v112q0 55 23 81t76 27q-53 1 -76 27t-23 81z" />
    <glyph glyph-name="asciitilde" unicode="~" 
d="M52 264v126q48 60 111 60q41 0 125 -35t124 -35q61 0 107 59v-127q-47 -59 -111 -59q-41 0 -125.5 34.5t-124.5 34.5q-61 0 -106 -58z" />
    <glyph glyph-name="uni00A0" unicode="&#xa0;" horiz-adv-x="257" 
 />
    <glyph glyph-name="exclamdown" unicode="&#xa1;" horiz-adv-x="293" 
d="M63 526v104h167v-104h-167zM75 -70v223q0 153 17 278h109q16 -128 16 -278v-223h-142z" />
    <glyph glyph-name="cent" unicode="&#xa2;" 
d="M290 -40v90h-97q-73 0 -107 34.5t-34 108.5v314q0 74 34 108.5t107 34.5h97v90h124v-90h116v-119h-116v-362h116v-119h-116v-90h-124zM245 169h45v362h-45q-30 0 -43 -13.5t-13 -42.5v-250q0 -29 13 -42.5t43 -13.5z" />
    <glyph glyph-name="sterling" unicode="&#xa3;" 
d="M266 124h267v-124h-496v124h87v164h-87v124h87v143q0 74 35 109.5t109 35.5h220v-124h-167q-30 0 -42.5 -12.5t-12.5 -42.5v-109h221v-124h-221v-164z" />
    <glyph glyph-name="currency" unicode="&#xa4;" 
d="M67 508q0 74 34 108.5t108 34.5h15v89h123v-89h14q74 0 108 -34.5t34 -108.5v-98h50v-120h-50v-99q0 -74 -34 -108.5t-108 -34.5h-14v-88h-123v88h-15q-74 0 -108 34.5t-34 108.5v99h-49v120h49v98zM310 528h-50q-29 0 -42.5 -13t-13.5 -43v-245q0 -56 56 -56h50
q56 0 56 56v245q0 29 -13 42.5t-43 13.5z" />
    <glyph glyph-name="yen" unicode="&#xa5;" 
d="M386 700h142v-170q0 -74 -35 -109.5t-109 -35.5h-28v-123h157v-124h-157v-138h-142v138h-157v124h157v123h-28q-75 0 -110 35.5t-35 109.5v170h142v-135q0 -31 12.5 -44t43.5 -13h92q30 0 42.5 13t12.5 44v135z" />
    <glyph glyph-name="brokenbar" unicode="&#xa6;" horiz-adv-x="298" 
d="M79 -167v394h141v-394h-141zM79 347v393h141v-393h-141z" />
    <glyph glyph-name="section" unicode="&#xa7;" horiz-adv-x="605" 
d="M225 464h221q61 0 89.5 -29t28.5 -91v-66q0 -51 -21 -79.5t-73 -34.5q52 -7 73 -35.5t21 -79.5v-43q0 -71 -33 -104.5t-103 -33.5h-366v119h321q27 0 39 12t12 39v16q0 27 -11.5 38.5t-37.5 11.5h-222q-61 0 -89 29t-28 91v66q0 52 21 79.5t73 34.5q-52 7 -73 35t-21 80
v43q0 72 32.5 105t103.5 33h365v-119h-321q-27 0 -38.5 -12t-11.5 -39v-16q0 -27 11 -38.5t38 -11.5zM376 345h-144q-26 0 -37.5 -11.5t-11.5 -37.5v-23q0 -27 11.5 -38.5t39.5 -11.5h143q27 0 38 11.5t11 37.5v23q0 27 -11.5 38.5t-38.5 11.5z" />
    <glyph glyph-name="dieresis" unicode="&#xa8;" horiz-adv-x="243" 
d="M79 754v-87h-132v87h132zM296 754v-87h-132v87h132z" />
    <glyph glyph-name="copyright" unicode="&#xa9;" horiz-adv-x="715" 
d="M308 188q-42 0 -60.5 19.5t-18.5 61.5v161q0 42 18.5 61.5t60.5 19.5h160v-56h-149q-25 0 -25 -26v-159q0 -26 25 -26h149v-56h-160zM219 0q-86 0 -126.5 41t-40.5 125v368q0 84 40.5 125t126.5 41h277q86 0 126.5 -41t40.5 -125v-368q0 -84 -40.5 -125t-126.5 -41h-277z
M223 60h269q103 0 103 103v374q0 103 -103 103h-269q-103 0 -103 -103v-374q0 -103 103 -103z" />
    <glyph glyph-name="ordfeminine" unicode="&#xaa;" horiz-adv-x="465" 
d="M304 485v67q0 24 -9.5 33.5t-32.5 9.5h-207v105h244q64 0 94.5 -30.5t30.5 -94.5v-284q0 -64 -30.5 -94.5t-94.5 -30.5h-142q-64 0 -94.5 30.5t-30.5 94.5v70q0 63 30.5 93.5t94.5 30.5h147zM151 338v-24q0 -24 10 -33.5t33 -9.5h68q23 0 32.5 9.5t9.5 33.5v67h-110
q-23 0 -33 -10t-10 -33zM228 124l94 -124h-189z" />
    <glyph glyph-name="guillemotleft" unicode="&#xab;" horiz-adv-x="546" 
d="M298 51h-140l-138 249l138 249h140l-142 -249zM526 51h-140l-138 249l138 249h140l-142 -249z" />
    <glyph glyph-name="logicalnot" unicode="&#xac;" 
d="M52 291v118h467v-293h-118v175h-349z" />
    <glyph glyph-name="uni00AD" unicode="&#xad;" horiz-adv-x="380" 
d="M345 388v-122h-310v122h310z" />
    <glyph glyph-name="registered" unicode="&#xae;" horiz-adv-x="715" 
d="M219 0q-86 0 -126.5 41t-40.5 125v368q0 84 40.5 125t126.5 41h277q86 0 126.5 -41t40.5 -125v-368q0 -84 -40.5 -125t-126.5 -41h-277zM223 60h269q103 0 103 103v374q0 103 -103 103h-269q-103 0 -103 -103v-374q0 -103 103 -103zM478 405q0 -52 -56 -56q56 -6 56 -65
v-96h-65v108q0 26 -22 26h-87v-134h-65v323h179q60 0 60 -62v-44zM413 436q0 19 -19 19h-90v-78h90q19 0 19 19v40z" />
    <glyph glyph-name="macron" unicode="&#xaf;" horiz-adv-x="243" 
d="M250 677h-257v69h257v-69z" />
    <glyph glyph-name="degree" unicode="&#xb0;" horiz-adv-x="435" 
d="M31 571q0 129 136 129h101q136 0 136 -129v-133q0 -129 -136 -129h-101q-136 0 -136 129v133zM211 602q-39 0 -51 -12.5t-12 -50.5v-70q0 -38 12 -50t51 -12h13q39 0 51 12t12 50v70q0 38 -12 50.5t-51 12.5h-13z" />
    <glyph glyph-name="plusminus" unicode="&#xb1;" 
d="M52 291v118h174v174h118v-174h175v-118h-175v-173h175v-118h-467v118h174v173h-174z" />
    <glyph glyph-name="twosuperior" unicode="&#xb2;" horiz-adv-x="476" 
d="M325 531v20q0 25 -10 35t-34 10h-223v105h262q64 0 94 -30.5t30 -94.5v-70q0 -64 -30 -94.5t-94 -30.5h-100q-37 0 -51 -13.5t-14 -50.5v-46h289v-104h-408v168q0 151 151 151h94q24 0 34 10t10 35z" />
    <glyph glyph-name="threesuperior" unicode="&#xb3;" horiz-adv-x="476" 
d="M440 578v-36q0 -48 -18 -75t-70 -34q52 -7 70 -34t18 -75v-36q0 -63 -29 -92.5t-92 -29.5h-287v105h245q24 0 34 10t10 35v20q0 45 -43 45h-170v104h170q43 0 43 45v20q0 25 -10 35t-34 10h-245v105h287q63 0 92 -29.5t29 -92.5z" />
    <glyph glyph-name="acute" unicode="&#xb4;" horiz-adv-x="243" 
d="M235 763l-115 -101h-103l89 101h129z" />
    <glyph glyph-name="uni00B5" unicode="&#xb5;" horiz-adv-x="544" 
d="M251 119h48q30 0 43 13.5t13 42.5v428h137v-460q0 -74 -34 -108.5t-107 -34.5h-33q-55 0 -83.5 18.5t-38.5 59.5v-245h-137v770h137v-428q0 -29 13 -42.5t42 -13.5z" />
    <glyph glyph-name="paragraph" unicode="&#xb6;" horiz-adv-x="710" 
d="M645 700v-832h-124v713h-120v-713h-123v407h-101q-77 0 -114 37.5t-37 113.5v123q0 76 37 113.5t114 37.5h468z" />
    <glyph glyph-name="periodcentered" unicode="&#xb7;" horiz-adv-x="285" 
d="M222 409v-118h-158v118h158z" />
    <glyph glyph-name="cedilla" unicode="&#xb8;" horiz-adv-x="250" 
d="M108 -39h68q82 0 82 -59q0 -42 -27.5 -60t-86.5 -18h-152v75h134q38 0 38 21q0 9 -5 13t-20 4h-65l23 63h23z" />
    <glyph glyph-name="onesuperior" unicode="&#xb9;" horiz-adv-x="476" 
d="M99 166v105h119v324h-119v105h238v-429h91v-105h-329z" />
    <glyph glyph-name="ordmasculine" unicode="&#xba;" horiz-adv-x="473" 
d="M41 291v284q0 64 30 94.5t95 30.5h142q64 0 94.5 -30.5t30.5 -94.5v-284q0 -64 -30.5 -94.5t-94.5 -30.5h-142q-65 0 -95 30.5t-30 94.5zM272 271q22 0 31.5 9.5t9.5 33.5v238q0 24 -9.5 33.5t-31.5 9.5h-69q-23 0 -33 -9.5t-10 -33.5v-238q0 -24 10 -33.5t33 -9.5h69z
M237 124l94 -124h-189z" />
    <glyph glyph-name="guillemotright" unicode="&#xbb;" horiz-adv-x="546" 
d="M160 51h-140l142 249l-142 249h140l138 -249zM388 51h-140l142 249l-142 249h140l138 -249z" />
    <glyph glyph-name="onequarter" unicode="&#xbc;" horiz-adv-x="1111" 
d="M403 0l199 700h106l-199 -700h-106zM99 166v105h119v324h-119v105h238v-429h91v-105h-329zM934 319v215h119v-534h-119v215h-141q-64 0 -94.5 30.5t-30.5 93.5v195h120v-171q0 -44 43 -44h103z" />
    <glyph glyph-name="onehalf" unicode="&#xbd;" horiz-adv-x="1111" 
d="M403 0l199 700h106l-199 -700h-106zM99 166v105h119v324h-119v105h238v-429h91v-105h-329zM960 364v20q0 25 -10 35t-34 10h-223v105h262q64 0 94 -30.5t30 -94.5v-70q0 -64 -30 -94.5t-94 -30.5h-100q-37 0 -51 -13.5t-14 -50.5v-46h289v-104h-408v168q0 151 151 151h94
q24 0 34 10t10 35z" />
    <glyph glyph-name="threequarters" unicode="&#xbe;" horiz-adv-x="1111" 
d="M403 0l199 700h106l-199 -700h-106zM934 319v215h119v-534h-119v215h-141q-64 0 -94.5 30.5t-30.5 93.5v195h120v-171q0 -44 43 -44h103zM440 578v-36q0 -48 -18 -75t-70 -34q52 -7 70 -34t18 -75v-36q0 -63 -29 -92.5t-92 -29.5h-287v105h245q24 0 34 10t10 35v20
q0 45 -43 45h-170v104h170q43 0 43 45v20q0 25 -10 35t-34 10h-245v105h287q63 0 92 -29.5t29 -92.5z" />
    <glyph glyph-name="questiondown" unicode="&#xbf;" horiz-adv-x="530" 
d="M168 163v-53q0 -30 12.5 -43t40.5 -13h293v-124h-344q-75 0 -109.5 35t-34.5 109v124q0 73 35 108.5t109 35.5h54q26 0 35.5 9.5t9.5 36.5v50h142v-101q0 -119 -118 -119h-72q-29 0 -41 -12.5t-12 -42.5zM256 526v104h168v-104h-168z" />
    <glyph glyph-name="Agrave" unicode="&#xc0;" horiz-adv-x="605" 
d="M546 0h-142v288h-202v-288h-143v555q0 145 146 145h195q146 0 146 -145v-555zM348 576h-91q-30 0 -42.5 -13t-12.5 -44v-107h202v107q0 31 -12.5 44t-43.5 13zM277 749l-111 101h124l90 -101h-103z" />
    <glyph glyph-name="Aacute" unicode="&#xc1;" horiz-adv-x="605" 
d="M546 0h-142v288h-202v-288h-143v555q0 145 146 145h195q146 0 146 -145v-555zM348 576h-91q-30 0 -42.5 -13t-12.5 -44v-107h202v107q0 31 -12.5 44t-43.5 13zM442 850l-115 -101h-103l89 101h129z" />
    <glyph glyph-name="Acircumflex" unicode="&#xc2;" horiz-adv-x="605" 
d="M546 0h-142v288h-202v-288h-143v555q0 145 146 145h195q146 0 146 -145v-555zM348 576h-91q-30 0 -42.5 -13t-12.5 -44v-107h202v107q0 31 -12.5 44t-43.5 13zM302 801l-69 -52h-101l104 101h131l104 -101h-100z" />
    <glyph glyph-name="Atilde" unicode="&#xc3;" horiz-adv-x="605" 
d="M546 0h-142v288h-202v-288h-143v555q0 145 146 145h195q146 0 146 -145v-555zM348 576h-91q-30 0 -42.5 -13t-12.5 -44v-107h202v107q0 31 -12.5 44t-43.5 13zM173 740v77q35 36 71 36q22 0 62 -19t59 -19q34 0 65 40v-77q-36 -41 -73 -41q-23 0 -63.5 20.5t-59.5 20.5
q-31 0 -61 -38z" />
    <glyph glyph-name="Adieresis" unicode="&#xc4;" horiz-adv-x="605" 
d="M546 0h-142v288h-202v-288h-143v555q0 145 146 145h195q146 0 146 -145v-555zM348 576h-91q-30 0 -42.5 -13t-12.5 -44v-107h202v107q0 31 -12.5 44t-43.5 13zM259 841v-87h-132v87h132zM476 841v-87h-132v87h132z" />
    <glyph glyph-name="Aring" unicode="&#xc5;" horiz-adv-x="605" 
d="M546 0h-142v288h-202v-288h-143v555q0 145 146 145h195q146 0 146 -145v-555zM348 576h-91q-30 0 -42.5 -13t-12.5 -44v-107h202v107q0 31 -12.5 44t-43.5 13zM256 814q0 -24 26 -24h41q26 0 26 24q0 25 -26 25h-41q-26 0 -26 -25zM315 744h-24q-47 0 -66 17.5t-19 52.5
t19 53t66 18h24q46 0 65 -18t19 -53t-19 -52.5t-65 -17.5z" />
    <glyph glyph-name="AE" unicode="&#xc6;" horiz-adv-x="898" 
d="M398 0v288h-196v-288h-143v555q0 145 146 145h655v-124h-322v-164h232v-124h-232v-164h322v-124h-462zM257 576q-30 0 -42.5 -13t-12.5 -44v-107h196v164h-141z" />
    <glyph glyph-name="Ccedilla" unicode="&#xc7;" horiz-adv-x="515" 
d="M256 0h-59q-74 0 -109.5 36t-35.5 109v410q0 73 35.5 109t109.5 36h280v-124h-228q-30 0 -42.5 -13t-12.5 -44v-338q0 -31 12.5 -44t42.5 -13h228v-124h-198l-12 -39h68q82 0 82 -59q0 -42 -27.5 -60t-86.5 -18h-152v75h134q38 0 38 21q0 9 -5 13t-20 4h-65z" />
    <glyph glyph-name="Egrave" unicode="&#xc8;" horiz-adv-x="565" 
d="M66 0v700h461v-124h-319v-164h229v-124h-229v-164h319v-124h-461zM275 749l-111 101h124l90 -101h-103z" />
    <glyph glyph-name="Eacute" unicode="&#xc9;" horiz-adv-x="565" 
d="M66 0v700h461v-124h-319v-164h229v-124h-229v-164h319v-124h-461zM440 850l-115 -101h-103l89 101h129z" />
    <glyph glyph-name="Ecircumflex" unicode="&#xca;" horiz-adv-x="565" 
d="M66 0v700h461v-124h-319v-164h229v-124h-229v-164h319v-124h-461zM301 801l-69 -52h-101l104 101h131l104 -101h-100z" />
    <glyph glyph-name="Edieresis" unicode="&#xcb;" horiz-adv-x="565" 
d="M66 0v700h461v-124h-319v-164h229v-124h-229v-164h319v-124h-461zM258 841v-87h-132v87h132zM475 841v-87h-132v87h132z" />
    <glyph glyph-name="Igrave" unicode="&#xcc;" horiz-adv-x="274" 
d="M66 0v700h142v-700h-142zM111 749l-111 101h124l90 -101h-103z" />
    <glyph glyph-name="Iacute" unicode="&#xcd;" horiz-adv-x="274" 
d="M66 0v700h142v-700h-142zM276 850l-115 -101h-103l89 101h129z" />
    <glyph glyph-name="Icircumflex" unicode="&#xce;" horiz-adv-x="274" 
d="M66 0v700h142v-700h-142zM137 801l-69 -52h-101l104 101h131l104 -101h-100z" />
    <glyph glyph-name="Idieresis" unicode="&#xcf;" horiz-adv-x="274" 
d="M302 841v-87h-133v87h133zM105 841v-87h-133v87h133zM66 0v700h142v-700h-142z" />
    <glyph glyph-name="Eth" unicode="&#xd0;" horiz-adv-x="598" 
d="M351 700q99 0 150 -51t51 -150v-298q0 -99 -51 -150t-150 -51h-285v288h-58v124h58v288h285zM319 124q91 0 91 92v268q0 92 -91 92h-111v-164h75v-124h-75v-164h111z" />
    <glyph glyph-name="Ntilde" unicode="&#xd1;" horiz-adv-x="605" 
d="M257 576q-30 0 -42.5 -13t-12.5 -44v-519h-143v555q0 145 146 145h195q146 0 146 -145v-555h-142v519q0 31 -12.5 44t-43.5 13h-91zM173 740v77q35 36 71 36q22 0 62 -19t59 -19q34 0 65 40v-77q-36 -41 -73 -41q-23 0 -63.5 20.5t-59.5 20.5q-31 0 -61 -38z" />
    <glyph glyph-name="Ograve" unicode="&#xd2;" horiz-adv-x="591" 
d="M198 0q-146 0 -146 145v410q0 145 146 145h195q146 0 146 -145v-410q0 -145 -146 -145h-195zM397 181v338q0 31 -12.5 44t-43.5 13h-92q-30 0 -42.5 -13t-12.5 -44v-338q0 -31 12.5 -44t42.5 -13h92q31 0 43.5 13t12.5 44zM269 749l-111 101h124l90 -101h-103z" />
    <glyph glyph-name="Oacute" unicode="&#xd3;" horiz-adv-x="591" 
d="M198 0q-146 0 -146 145v410q0 145 146 145h195q146 0 146 -145v-410q0 -145 -146 -145h-195zM397 181v338q0 31 -12.5 44t-43.5 13h-92q-30 0 -42.5 -13t-12.5 -44v-338q0 -31 12.5 -44t42.5 -13h92q31 0 43.5 13t12.5 44zM435 850l-115 -101h-103l89 101h129z" />
    <glyph glyph-name="Ocircumflex" unicode="&#xd4;" horiz-adv-x="591" 
d="M198 0q-146 0 -146 145v410q0 145 146 145h195q146 0 146 -145v-410q0 -145 -146 -145h-195zM397 181v338q0 31 -12.5 44t-43.5 13h-92q-30 0 -42.5 -13t-12.5 -44v-338q0 -31 12.5 -44t42.5 -13h92q31 0 43.5 13t12.5 44zM295 801l-69 -52h-101l104 101h131l104 -101
h-100z" />
    <glyph glyph-name="Otilde" unicode="&#xd5;" horiz-adv-x="591" 
d="M198 0q-146 0 -146 145v410q0 145 146 145h195q146 0 146 -145v-410q0 -145 -146 -145h-195zM397 181v338q0 31 -12.5 44t-43.5 13h-92q-30 0 -42.5 -13t-12.5 -44v-338q0 -31 12.5 -44t42.5 -13h92q31 0 43.5 13t12.5 44zM166 740v77q35 36 71 36q23 0 62 -19t59 -19
q34 0 65 40v-77q-36 -41 -73 -41q-22 0 -62.5 20.5t-60.5 20.5q-31 0 -61 -38z" />
    <glyph glyph-name="Odieresis" unicode="&#xd6;" horiz-adv-x="591" 
d="M198 0q-146 0 -146 145v410q0 145 146 145h195q146 0 146 -145v-410q0 -145 -146 -145h-195zM397 181v338q0 31 -12.5 44t-43.5 13h-92q-30 0 -42.5 -13t-12.5 -44v-338q0 -31 12.5 -44t42.5 -13h92q31 0 43.5 13t12.5 44zM252 841v-87h-132v87h132zM469 841v-87h-132v87
h132z" />
    <glyph glyph-name="multiply" unicode="&#xd7;" 
d="M410 291l89 -175h-127l-86 174l-89 -174h-127l89 175h-107v118h107l-89 174h127l89 -174l86 174h127l-89 -174h109v-118h-109z" />
    <glyph glyph-name="Oslash" unicode="&#xd8;" horiz-adv-x="591" 
d="M198 0q-146 0 -146 145v410q0 145 146 145h195q146 0 146 -145v-410q0 -145 -146 -145h-195zM397 181v338q0 13 -3 24l-174 -415q11 -4 29 -4h92q31 0 43.5 13t12.5 44zM194 519v-353l171 407q-11 3 -24 3h-92q-30 0 -42.5 -13t-12.5 -44z" />
    <glyph glyph-name="Ugrave" unicode="&#xd9;" horiz-adv-x="605" 
d="M205 0q-146 0 -146 145v555h143v-519q0 -31 12.5 -44t42.5 -13h91q31 0 43.5 13t12.5 44v519h142v-555q0 -145 -146 -145h-195zM277 749l-111 101h124l90 -101h-103z" />
    <glyph glyph-name="Uacute" unicode="&#xda;" horiz-adv-x="605" 
d="M205 0q-146 0 -146 145v555h143v-519q0 -31 12.5 -44t42.5 -13h91q31 0 43.5 13t12.5 44v519h142v-555q0 -145 -146 -145h-195zM442 850l-115 -101h-103l89 101h129z" />
    <glyph glyph-name="Ucircumflex" unicode="&#xdb;" horiz-adv-x="605" 
d="M205 0q-146 0 -146 145v555h143v-519q0 -31 12.5 -44t42.5 -13h91q31 0 43.5 13t12.5 44v519h142v-555q0 -145 -146 -145h-195zM302 801l-69 -52h-101l104 101h131l104 -101h-100z" />
    <glyph glyph-name="Udieresis" unicode="&#xdc;" horiz-adv-x="605" 
d="M205 0q-146 0 -146 145v555h143v-519q0 -31 12.5 -44t42.5 -13h91q31 0 43.5 13t12.5 44v519h142v-555q0 -145 -146 -145h-195zM259 841v-87h-132v87h132zM476 841v-87h-132v87h132z" />
    <glyph glyph-name="Yacute" unicode="&#xdd;" horiz-adv-x="579" 
d="M399 700h142v-267q0 -73 -35.5 -109t-109.5 -36h-35v-288h-143v288h-35q-74 0 -109.5 36t-35.5 109v267h142v-232q0 -31 12.5 -43.5t43.5 -12.5h107q31 0 43.5 12.5t12.5 43.5v232zM429 850l-115 -101h-103l89 101h129z" />
    <glyph glyph-name="Thorn" unicode="&#xde;" horiz-adv-x="576" 
d="M66 0v700h142v-97h198q75 0 109.5 -35t34.5 -109v-125q0 -73 -34.5 -108t-109.5 -35h-198v-191h-142zM408 423q0 30 -12.5 43t-40.5 13h-147v-164h147q29 0 41 12.5t12 42.5v53z" />
    <glyph glyph-name="germandbls" unicode="&#xdf;" horiz-adv-x="557" 
d="M336 246h-86v111h86q26 0 36.5 11t10.5 37v28q0 27 -11.5 39t-38.5 12h-75q-36 0 -52.5 -16t-16.5 -53v-415h-137v438q0 84 41 124.5t125 40.5h169q68 0 100.5 -33t32.5 -102v-52q0 -52 -21.5 -80.5t-71.5 -34.5q50 -6 71.5 -34t21.5 -80v-52q0 -69 -32.5 -102
t-100.5 -33h-137v119h83q27 0 38.5 12t11.5 39v28q0 26 -10.5 37t-36.5 11z" />
    <glyph glyph-name="agrave" unicode="&#xe0;" horiz-adv-x="526" 
d="M343 357v71q0 56 -56 56h-223v119h275q73 0 107 -34.5t34 -108.5v-317q0 -74 -34 -108.5t-107 -34.5h-177q-65 0 -96.5 32t-31.5 99v95q0 131 127 131h182zM343 246h-126q-25 0 -35.5 -11t-10.5 -36v-33q0 -47 46 -47h70q30 0 43 13.5t13 42.5v71zM232 662l-111 101h124
l90 -101h-103z" />
    <glyph glyph-name="aacute" unicode="&#xe1;" horiz-adv-x="526" 
d="M343 357v71q0 56 -56 56h-223v119h275q73 0 107 -34.5t34 -108.5v-317q0 -74 -34 -108.5t-107 -34.5h-177q-65 0 -96.5 32t-31.5 99v95q0 131 127 131h182zM343 246h-126q-25 0 -35.5 -11t-10.5 -36v-33q0 -47 46 -47h70q30 0 43 13.5t13 42.5v71zM398 763l-115 -101
h-103l89 101h129z" />
    <glyph glyph-name="acircumflex" unicode="&#xe2;" horiz-adv-x="526" 
d="M343 357v71q0 56 -56 56h-223v119h275q73 0 107 -34.5t34 -108.5v-317q0 -74 -34 -108.5t-107 -34.5h-177q-65 0 -96.5 32t-31.5 99v95q0 131 127 131h182zM343 246h-126q-25 0 -35.5 -11t-10.5 -36v-33q0 -47 46 -47h70q30 0 43 13.5t13 42.5v71zM258 714l-69 -52h-101
l104 101h131l104 -101h-100z" />
    <glyph glyph-name="atilde" unicode="&#xe3;" horiz-adv-x="526" 
d="M343 357v71q0 56 -56 56h-223v119h275q73 0 107 -34.5t34 -108.5v-317q0 -74 -34 -108.5t-107 -34.5h-177q-65 0 -96.5 32t-31.5 99v95q0 131 127 131h182zM343 246h-126q-25 0 -35.5 -11t-10.5 -36v-33q0 -47 46 -47h70q30 0 43 13.5t13 42.5v71zM129 653v77
q35 36 71 36q22 0 62 -19t59 -19q34 0 65 40v-77q-36 -41 -73 -41q-23 0 -63 20.5t-60 20.5q-31 0 -61 -38z" />
    <glyph glyph-name="adieresis" unicode="&#xe4;" horiz-adv-x="526" 
d="M343 357v71q0 56 -56 56h-223v119h275q73 0 107 -34.5t34 -108.5v-317q0 -74 -34 -108.5t-107 -34.5h-177q-65 0 -96.5 32t-31.5 99v95q0 131 127 131h182zM343 246h-126q-25 0 -35.5 -11t-10.5 -36v-33q0 -47 46 -47h70q30 0 43 13.5t13 42.5v71zM215 754v-87h-132v87
h132zM432 754v-87h-132v87h132z" />
    <glyph glyph-name="aring" unicode="&#xe5;" horiz-adv-x="526" 
d="M343 357v71q0 56 -56 56h-223v119h275q73 0 107 -34.5t34 -108.5v-317q0 -74 -34 -108.5t-107 -34.5h-177q-65 0 -96.5 32t-31.5 99v95q0 131 127 131h182zM343 246h-126q-25 0 -35.5 -11t-10.5 -36v-33q0 -47 46 -47h70q30 0 43 13.5t13 42.5v71zM211 727q0 -24 26 -24
h41q26 0 26 24q0 25 -26 25h-41q-26 0 -26 -25zM270 657h-24q-47 0 -66 17.5t-19 52.5t19 53t66 18h24q46 0 65 -18t19 -53t-19 -52.5t-65 -17.5z" />
    <glyph glyph-name="ae" unicode="&#xe6;" horiz-adv-x="767" 
d="M596 403v34q0 47 -46 47h-42q-30 0 -43 -13.5t-13 -42.5v-71h98q25 0 35.5 10.5t10.5 35.5zM171 199v-33q0 -47 46 -47h42q30 0 43 13.5t13 42.5v71h-98q-25 0 -35.5 -11t-10.5 -36zM245 0h-83q-65 0 -96.5 32t-31.5 99v95q0 131 127 131h154v71q0 29 -13 42.5t-43 13.5
h-195v119h181q65 0 98 -25t40 -80q8 56 40.5 80.5t98.5 24.5h83q65 0 96.5 -32t31.5 -99v-95q0 -67 -31 -99t-96 -32h-154v-71q0 -30 13.5 -43t42.5 -13h195v-119h-181q-66 0 -98.5 24.5t-40.5 80.5q-7 -55 -40 -80t-98 -25z" />
    <glyph glyph-name="ccedilla" unicode="&#xe7;" horiz-adv-x="472" 
d="M229 0h-41q-73 0 -107.5 34.5t-34.5 108.5v317q0 74 34.5 108.5t107.5 34.5h248v-119h-197q-56 0 -56 -56v-253q0 -56 56 -56h197v-119h-184l-12 -39h68q82 0 82 -59q0 -42 -27.5 -60t-86.5 -18h-152v75h134q38 0 38 21q0 9 -5 13t-20 4h-65z" />
    <glyph glyph-name="egrave" unicode="&#xe8;" horiz-adv-x="526" 
d="M492 377q0 -67 -31 -99t-96 -32h-182v-71q0 -56 56 -56h223v-119h-274q-73 0 -107.5 34.5t-34.5 108.5v317q0 74 34.5 108.5t107.5 34.5h177q65 0 96 -32t31 -99v-95zM309 484h-70q-56 0 -56 -56v-71h126q25 0 36 10.5t11 35.5v34q0 25 -11 36t-36 11zM251 662l-111 101
h124l90 -101h-103z" />
    <glyph glyph-name="eacute" unicode="&#xe9;" horiz-adv-x="526" 
d="M492 377q0 -67 -31 -99t-96 -32h-182v-71q0 -56 56 -56h223v-119h-274q-73 0 -107.5 34.5t-34.5 108.5v317q0 74 34.5 108.5t107.5 34.5h177q65 0 96 -32t31 -99v-95zM309 484h-70q-56 0 -56 -56v-71h126q25 0 36 10.5t11 35.5v34q0 25 -11 36t-36 11zM416 763l-115 -101
h-103l89 101h129z" />
    <glyph glyph-name="ecircumflex" unicode="&#xea;" horiz-adv-x="526" 
d="M492 377q0 -67 -31 -99t-96 -32h-182v-71q0 -56 56 -56h223v-119h-274q-73 0 -107.5 34.5t-34.5 108.5v317q0 74 34.5 108.5t107.5 34.5h177q65 0 96 -32t31 -99v-95zM309 484h-70q-56 0 -56 -56v-71h126q25 0 36 10.5t11 35.5v34q0 25 -11 36t-36 11zM277 714l-69 -52
h-101l104 101h131l104 -101h-100z" />
    <glyph glyph-name="edieresis" unicode="&#xeb;" horiz-adv-x="526" 
d="M492 377q0 -67 -31 -99t-96 -32h-182v-71q0 -56 56 -56h223v-119h-274q-73 0 -107.5 34.5t-34.5 108.5v317q0 74 34.5 108.5t107.5 34.5h177q65 0 96 -32t31 -99v-95zM309 484h-70q-56 0 -56 -56v-71h126q25 0 36 10.5t11 35.5v34q0 25 -11 36t-36 11zM234 754v-87h-132
v87h132zM451 754v-87h-132v87h132z" />
    <glyph glyph-name="igrave" unicode="&#xec;" horiz-adv-x="319" 
d="M105 662l-111 101h124l90 -101h-103zM245 119h57v-119h-106q-74 0 -107 33.5t-33 105.5v464h137v-431q0 -29 11.5 -41t40.5 -12z" />
    <glyph glyph-name="iacute" unicode="&#xed;" horiz-adv-x="319" 
d="M269 763l-115 -101h-103l89 101h129zM245 119h57v-119h-106q-74 0 -107 33.5t-33 105.5v464h137v-431q0 -29 11.5 -41t40.5 -12z" />
    <glyph glyph-name="icircumflex" unicode="&#xee;" horiz-adv-x="319" 
d="M245 119h57v-119h-106q-74 0 -107 33.5t-33 105.5v464h137v-431q0 -29 11.5 -41t40.5 -12zM124 714l-69 -52h-101l104 101h131l104 -101h-100z" />
    <glyph glyph-name="idieresis" unicode="&#xef;" horiz-adv-x="319" 
d="M299 754v-87h-133v87h133zM82 754v-87h-133v87h133zM245 119h57v-119h-106q-74 0 -107 33.5t-33 105.5v464h137v-431q0 -29 11.5 -41t40.5 -12z" />
    <glyph glyph-name="eth" unicode="&#xf0;" horiz-adv-x="532" 
d="M188 566h32q104 0 123 -77v75q0 47 -21 67t-67 20h-23v-53h-31v53h-114v119h114v50h31v-50h44q105 0 154 -49.5t49 -154.5v-423q0 -74 -34 -108.5t-107 -34.5h-150q-73 0 -107.5 34.5t-34.5 108.5v280q0 73 34.5 108t107.5 35zM287 447h-48q-56 -1 -56 -56v-216
q0 -56 56 -56h48q56 0 56 56v216q0 56 -56 56z" />
    <glyph glyph-name="ntilde" unicode="&#xf1;" horiz-adv-x="536" 
d="M52 0v460q0 74 34.5 108.5t107.5 34.5h148q73 0 107.5 -34.5t34.5 -108.5v-460h-137v428q0 29 -13 42.5t-43 13.5h-46q-30 0 -43 -13.5t-13 -42.5v-428h-137zM139 653v77q35 36 71 36q23 0 62.5 -19t58.5 -19q34 0 65 40v-77q-36 -41 -73 -41q-23 0 -63.5 20.5
t-59.5 20.5q-31 0 -61 -38z" />
    <glyph glyph-name="ograve" unicode="&#xf2;" horiz-adv-x="524" 
d="M336 603q73 0 107 -34.5t34 -108.5v-317q0 -74 -34 -108.5t-107 -34.5h-148q-73 0 -107.5 34.5t-34.5 108.5v317q0 74 34.5 108.5t107.5 34.5h148zM285 119q30 0 43 13.5t13 42.5v253q0 29 -13 42.5t-43 13.5h-46q-30 0 -43 -13.5t-13 -42.5v-253q0 -29 13 -42.5
t43 -13.5h46zM236 662l-111 101h124l90 -101h-103z" />
    <glyph glyph-name="oacute" unicode="&#xf3;" horiz-adv-x="524" 
d="M336 603q73 0 107 -34.5t34 -108.5v-317q0 -74 -34 -108.5t-107 -34.5h-148q-73 0 -107.5 34.5t-34.5 108.5v317q0 74 34.5 108.5t107.5 34.5h148zM285 119q30 0 43 13.5t13 42.5v253q0 29 -13 42.5t-43 13.5h-46q-30 0 -43 -13.5t-13 -42.5v-253q0 -29 13 -42.5
t43 -13.5h46zM401 763l-115 -101h-103l89 101h129z" />
    <glyph glyph-name="ocircumflex" unicode="&#xf4;" horiz-adv-x="524" 
d="M336 603q73 0 107 -34.5t34 -108.5v-317q0 -74 -34 -108.5t-107 -34.5h-148q-73 0 -107.5 34.5t-34.5 108.5v317q0 74 34.5 108.5t107.5 34.5h148zM285 119q30 0 43 13.5t13 42.5v253q0 29 -13 42.5t-43 13.5h-46q-30 0 -43 -13.5t-13 -42.5v-253q0 -29 13 -42.5
t43 -13.5h46zM262 714l-69 -52h-101l104 101h131l104 -101h-100z" />
    <glyph glyph-name="otilde" unicode="&#xf5;" horiz-adv-x="524" 
d="M336 603q73 0 107 -34.5t34 -108.5v-317q0 -74 -34 -108.5t-107 -34.5h-148q-73 0 -107.5 34.5t-34.5 108.5v317q0 74 34.5 108.5t107.5 34.5h148zM285 119q30 0 43 13.5t13 42.5v253q0 29 -13 42.5t-43 13.5h-46q-30 0 -43 -13.5t-13 -42.5v-253q0 -29 13 -42.5
t43 -13.5h46zM133 653v77q35 36 71 36q22 0 62 -19t59 -19q34 0 65 40v-77q-36 -41 -73 -41q-23 0 -63.5 20.5t-59.5 20.5q-31 0 -61 -38z" />
    <glyph glyph-name="odieresis" unicode="&#xf6;" horiz-adv-x="524" 
d="M336 603q73 0 107 -34.5t34 -108.5v-317q0 -74 -34 -108.5t-107 -34.5h-148q-73 0 -107.5 34.5t-34.5 108.5v317q0 74 34.5 108.5t107.5 34.5h148zM285 119q30 0 43 13.5t13 42.5v253q0 29 -13 42.5t-43 13.5h-46q-30 0 -43 -13.5t-13 -42.5v-253q0 -29 13 -42.5
t43 -13.5h46zM219 754v-87h-132v87h132zM436 754v-87h-132v87h132z" />
    <glyph glyph-name="divide" unicode="&#xf7;" 
d="M351 171v-118h-131v118h131zM351 647v-118h-131v118h131zM519 291h-467v118h467v-118z" />
    <glyph glyph-name="oslash" unicode="&#xf8;" horiz-adv-x="524" 
d="M336 603q73 0 107 -34.5t34 -108.5v-317q0 -74 -34 -108.5t-107 -34.5h-148q-73 0 -107.5 34.5t-34.5 108.5v317q0 74 34.5 108.5t107.5 34.5h148zM285 119q30 0 43 13.5t13 42.5v253q0 22 -7 33l-113 -341q5 -1 18 -1h46zM183 175q0 -19 6 -33l111 341q-4 1 -15 1h-46
q-30 0 -43 -13.5t-13 -42.5v-253z" />
    <glyph glyph-name="ugrave" unicode="&#xf9;" horiz-adv-x="536" 
d="M291 119q30 0 43 13.5t13 42.5v428h137v-460q0 -74 -34.5 -108.5t-107.5 -34.5h-148q-73 0 -107.5 34.5t-34.5 108.5v460h137v-428q0 -29 13 -42.5t43 -13.5h46zM242 662l-111 101h124l90 -101h-103z" />
    <glyph glyph-name="uacute" unicode="&#xfa;" horiz-adv-x="536" 
d="M291 119q30 0 43 13.5t13 42.5v428h137v-460q0 -74 -34.5 -108.5t-107.5 -34.5h-148q-73 0 -107.5 34.5t-34.5 108.5v460h137v-428q0 -29 13 -42.5t43 -13.5h46zM407 763l-115 -101h-103l89 101h129z" />
    <glyph glyph-name="ucircumflex" unicode="&#xfb;" horiz-adv-x="536" 
d="M291 119q30 0 43 13.5t13 42.5v428h137v-460q0 -74 -34.5 -108.5t-107.5 -34.5h-148q-73 0 -107.5 34.5t-34.5 108.5v460h137v-428q0 -29 13 -42.5t43 -13.5h46zM268 714l-69 -52h-101l104 101h131l104 -101h-100z" />
    <glyph glyph-name="udieresis" unicode="&#xfc;" horiz-adv-x="536" 
d="M291 119q30 0 43 13.5t13 42.5v428h137v-460q0 -74 -34.5 -108.5t-107.5 -34.5h-148q-73 0 -107.5 34.5t-34.5 108.5v460h137v-428q0 -29 13 -42.5t43 -13.5h46zM225 754v-87h-132v87h132zM442 754v-87h-132v87h132z" />
    <glyph glyph-name="yacute" unicode="&#xfd;" horiz-adv-x="544" 
d="M282 -167h-188v119h167q46 0 67 20t21 67v74q-10 -40 -38.5 -58.5t-83.5 -18.5h-33q-73 0 -107.5 34.5t-34.5 108.5v424h137v-392q0 -56 56 -56h48q56 0 56 56v392h137v-566q0 -105 -49 -154.5t-155 -49.5zM411 763l-115 -101h-103l89 101h129z" />
    <glyph glyph-name="thorn" unicode="&#xfe;" horiz-adv-x="538" 
d="M196 770v-167h155q73 0 107 -34.5t34 -108.5v-317q0 -74 -34 -108.5t-107 -34.5h-33q-55 0 -83.5 18.5t-38.5 58.5v-244h-137v937h137zM196 484v-309q0 -29 13 -42.5t42 -13.5h48q30 0 43 13.5t13 42.5v253q0 29 -13 42.5t-43 13.5h-103z" />
    <glyph glyph-name="ydieresis" unicode="&#xff;" horiz-adv-x="544" 
d="M282 -167h-188v119h167q46 0 67 20t21 67v74q-10 -40 -38.5 -58.5t-83.5 -18.5h-33q-73 0 -107.5 34.5t-34.5 108.5v424h137v-392q0 -56 56 -56h48q56 0 56 56v392h137v-566q0 -105 -49 -154.5t-155 -49.5zM229 754v-87h-132v87h132zM446 754v-87h-132v87h132z" />
    <glyph glyph-name="Amacron" unicode="&#x100;" horiz-adv-x="605" 
d="M546 0h-142v288h-202v-288h-143v555q0 145 146 145h195q146 0 146 -145v-555zM348 576h-91q-30 0 -42.5 -13t-12.5 -44v-107h202v107q0 31 -12.5 44t-43.5 13zM430 764h-257v69h257v-69z" />
    <glyph glyph-name="amacron" unicode="&#x101;" horiz-adv-x="526" 
d="M343 357v71q0 56 -56 56h-223v119h275q73 0 107 -34.5t34 -108.5v-317q0 -74 -34 -108.5t-107 -34.5h-177q-65 0 -96.5 32t-31.5 99v95q0 131 127 131h182zM343 246h-126q-25 0 -35.5 -11t-10.5 -36v-33q0 -47 46 -47h70q30 0 43 13.5t13 42.5v71zM386 677h-257v69h257
v-69z" />
    <glyph glyph-name="Abreve" unicode="&#x102;" horiz-adv-x="605" 
d="M546 0h-142v288h-202v-288h-143v555q0 145 146 145h195q146 0 146 -145v-555zM348 576h-91q-30 0 -42.5 -13t-12.5 -44v-107h202v107q0 31 -12.5 44t-43.5 13zM173 789v75q38 -50 129 -50t128 50v-75q-39 -49 -128 -49q-90 0 -129 49z" />
    <glyph glyph-name="abreve" unicode="&#x103;" horiz-adv-x="526" 
d="M343 357v71q0 56 -56 56h-223v119h275q73 0 107 -34.5t34 -108.5v-317q0 -74 -34 -108.5t-107 -34.5h-177q-65 0 -96.5 32t-31.5 99v95q0 131 127 131h182zM343 246h-126q-25 0 -35.5 -11t-10.5 -36v-33q0 -47 46 -47h70q30 0 43 13.5t13 42.5v71zM129 702v75
q38 -50 129 -50t128 50v-75q-39 -49 -128 -49q-90 0 -129 49z" />
    <glyph glyph-name="Aogonek" unicode="&#x104;" horiz-adv-x="605" 
d="M348 576h-91q-30 0 -42.5 -13t-12.5 -44v-107h202v107q0 31 -12.5 44t-43.5 13zM452 -39v39h-48v288h-202v-288h-143v555q0 145 146 145h195q146 0 146 -145v-555h-69v-62h-25q-61 0 -93.5 -3t-43 -8t-10.5 -15q0 -13 34 -13h174v-75h-166q-46 0 -70 13t-24 46
q0 45 40 61.5t149 16.5h10z" />
    <glyph glyph-name="aogonek" unicode="&#x105;" horiz-adv-x="526" 
d="M343 246h-126q-25 0 -35.5 -11t-10.5 -36v-33q0 -47 46 -47h70q30 0 43 13.5t13 42.5v71zM388 -39v43q-20 -4 -49 -4h-177q-65 0 -96.5 32t-31.5 99v95q0 131 127 131h182v71q0 56 -56 56h-223v119h275q73 0 107 -34.5t34 -108.5v-317q0 -102 -67 -130v-75h-25
q-61 0 -93.5 -3t-43 -8t-10.5 -15q0 -13 34 -13h174v-75h-166q-46 0 -70 13t-24 46q0 45 40 61.5t149 16.5h10z" />
    <glyph glyph-name="Cacute" unicode="&#x106;" horiz-adv-x="515" 
d="M197 0q-74 0 -109.5 36t-35.5 109v410q0 73 35.5 109t109.5 36h280v-124h-228q-30 0 -42.5 -13t-12.5 -44v-338q0 -31 12.5 -44t42.5 -13h228v-124h-280zM408 850l-115 -101h-103l89 101h129z" />
    <glyph glyph-name="cacute" unicode="&#x107;" horiz-adv-x="472" 
d="M188 0q-73 0 -107.5 34.5t-34.5 108.5v317q0 74 34.5 108.5t107.5 34.5h248v-119h-197q-56 0 -56 -56v-253q0 -56 56 -56h197v-119h-248zM401 763l-115 -101h-103l89 101h129z" />
    <glyph glyph-name="Ccircumflex" unicode="&#x108;" horiz-adv-x="515" 
d="M197 0q-74 0 -109.5 36t-35.5 109v410q0 73 35.5 109t109.5 36h280v-124h-228q-30 0 -42.5 -13t-12.5 -44v-338q0 -31 12.5 -44t42.5 -13h228v-124h-280zM280 801l-69 -52h-101l104 101h131l104 -101h-100z" />
    <glyph glyph-name="ccircumflex" unicode="&#x109;" horiz-adv-x="472" 
d="M188 0q-73 0 -107.5 34.5t-34.5 108.5v317q0 74 34.5 108.5t107.5 34.5h248v-119h-197q-56 0 -56 -56v-253q0 -56 56 -56h197v-119h-248zM261 714l-69 -52h-101l104 101h131l104 -101h-100z" />
    <glyph glyph-name="Cdotaccent" unicode="&#x10a;" horiz-adv-x="515" 
d="M197 0q-74 0 -109.5 36t-35.5 109v410q0 73 35.5 109t109.5 36h280v-124h-228q-30 0 -42.5 -13t-12.5 -44v-338q0 -31 12.5 -44t42.5 -13h228v-124h-280zM346 841v-87h-133v87h133z" />
    <glyph glyph-name="cdotaccent" unicode="&#x10b;" horiz-adv-x="472" 
d="M188 0q-73 0 -107.5 34.5t-34.5 108.5v317q0 74 34.5 108.5t107.5 34.5h248v-119h-197q-56 0 -56 -56v-253q0 -56 56 -56h197v-119h-248zM327 754v-87h-133v87h133z" />
    <glyph glyph-name="Ccaron" unicode="&#x10c;" horiz-adv-x="515" 
d="M197 0q-74 0 -109.5 36t-35.5 109v410q0 73 35.5 109t109.5 36h280v-124h-228q-30 0 -42.5 -13t-12.5 -44v-338q0 -31 12.5 -44t42.5 -13h228v-124h-280zM211 850l69 -53l69 53h100l-104 -101h-131l-104 101h101z" />
    <glyph glyph-name="ccaron" unicode="&#x10d;" horiz-adv-x="472" 
d="M188 0q-73 0 -107.5 34.5t-34.5 108.5v317q0 74 34.5 108.5t107.5 34.5h248v-119h-197q-56 0 -56 -56v-253q0 -56 56 -56h197v-119h-248zM192 763l69 -53l69 53h100l-104 -101h-131l-104 101h101z" />
    <glyph glyph-name="Dcaron" unicode="&#x10e;" horiz-adv-x="598" 
d="M351 700q99 0 150 -51t51 -150v-298q0 -99 -51 -150t-150 -51h-285v700h285zM319 124q91 0 91 92v268q0 92 -91 92h-111v-452h111zM223 850l69 -53l69 53h100l-104 -101h-131l-104 101h101z" />
    <glyph glyph-name="dcaron" unicode="&#x10f;" horiz-adv-x="784" 
d="M479 770v-627q0 -74 -34 -108.5t-107 -34.5h-150q-73 0 -107.5 34.5t-34.5 108.5v317q0 74 34.5 108.5t107.5 34.5h32q55 0 84 -19t39 -59v245h136zM343 175v253q0 56 -56 56h-48q-56 0 -56 -56v-253q0 -56 56 -56h48q56 0 56 56zM737 700v-117q0 -67 -33.5 -103.5
t-99.5 -36.5h-25v63h21q25 0 36 11t11 41v25h-68v117h158z" />
    <glyph glyph-name="Dcroat" unicode="&#x110;" horiz-adv-x="598" 
d="M351 700q99 0 150 -51t51 -150v-298q0 -99 -51 -150t-150 -51h-285v288h-58v124h58v288h285zM319 124q91 0 91 92v268q0 92 -91 92h-111v-164h75v-124h-75v-164h111z" />
    <glyph glyph-name="dcroat" unicode="&#x111;" horiz-adv-x="532" 
d="M479 770v-63h51v-70h-51v-494q0 -74 -34 -108.5t-107 -34.5h-150q-73 0 -107.5 34.5t-34.5 108.5v317q0 74 34.5 108.5t107.5 34.5h32q55 0 84 -19t39 -59v112h-69v70h69v63h136zM343 175v253q0 56 -56 56h-48q-56 0 -56 -56v-253q0 -56 56 -56h48q56 0 56 56z" />
    <glyph glyph-name="Emacron" unicode="&#x112;" horiz-adv-x="565" 
d="M66 0v700h461v-124h-319v-164h229v-124h-229v-164h319v-124h-461zM429 764h-257v69h257v-69z" />
    <glyph glyph-name="emacron" unicode="&#x113;" horiz-adv-x="526" 
d="M492 377q0 -67 -31 -99t-96 -32h-182v-71q0 -56 56 -56h223v-119h-274q-73 0 -107.5 34.5t-34.5 108.5v317q0 74 34.5 108.5t107.5 34.5h177q65 0 96 -32t31 -99v-95zM309 484h-70q-56 0 -56 -56v-71h126q25 0 36 10.5t11 35.5v34q0 25 -11 36t-36 11zM405 677h-257v69
h257v-69z" />
    <glyph glyph-name="Ebreve" unicode="&#x114;" horiz-adv-x="565" 
d="M66 0v700h461v-124h-319v-164h229v-124h-229v-164h319v-124h-461zM172 789v75q38 -50 129 -50t128 50v-75q-39 -49 -128 -49q-90 0 -129 49z" />
    <glyph glyph-name="ebreve" unicode="&#x115;" horiz-adv-x="526" 
d="M492 377q0 -67 -31 -99t-96 -32h-182v-71q0 -56 56 -56h223v-119h-274q-73 0 -107.5 34.5t-34.5 108.5v317q0 74 34.5 108.5t107.5 34.5h177q65 0 96 -32t31 -99v-95zM309 484h-70q-56 0 -56 -56v-71h126q25 0 36 10.5t11 35.5v34q0 25 -11 36t-36 11zM148 702v75
q38 -50 129 -50t128 50v-75q-39 -49 -128 -49q-90 0 -129 49z" />
    <glyph glyph-name="Edotaccent" unicode="&#x116;" horiz-adv-x="565" 
d="M66 0v700h461v-124h-319v-164h229v-124h-229v-164h319v-124h-461zM367 841v-87h-133v87h133z" />
    <glyph glyph-name="edotaccent" unicode="&#x117;" horiz-adv-x="526" 
d="M492 377q0 -67 -31 -99t-96 -32h-182v-71q0 -56 56 -56h223v-119h-274q-73 0 -107.5 34.5t-34.5 108.5v317q0 74 34.5 108.5t107.5 34.5h177q65 0 96 -32t31 -99v-95zM309 484h-70q-56 0 -56 -56v-71h126q25 0 36 10.5t11 35.5v34q0 25 -11 36t-36 11zM343 754v-87h-133
v87h133z" />
    <glyph glyph-name="Eogonek" unicode="&#x118;" horiz-adv-x="565" 
d="M491 -62h-25q-61 0 -93.5 -3t-43 -8t-10.5 -15q0 -13 34 -13h174v-75h-166q-46 0 -70 13t-24 46q0 45 40 61.5t149 16.5h10v39h-400v700h461v-124h-319v-164h229v-124h-229v-164h319v-124h-36v-62z" />
    <glyph glyph-name="eogonek" unicode="&#x119;" horiz-adv-x="526" 
d="M444 -62h-43q-61 0 -93.5 -3t-43 -8t-10.5 -15q0 -13 34 -13h174v-75h-166q-46 0 -70 13t-24 46q0 45 40 61.5t149 16.5h28v39h-231q-73 0 -107.5 34.5t-34.5 108.5v317q0 74 34.5 108.5t107.5 34.5h177q65 0 96 -32t31 -99v-95q0 -67 -31 -99t-96 -32h-182v-71
q0 -56 56 -56h223v-119h-18v-62zM309 484h-70q-56 0 -56 -56v-71h126q25 0 36 10.5t11 35.5v34q0 25 -11 36t-36 11z" />
    <glyph glyph-name="Ecaron" unicode="&#x11a;" horiz-adv-x="565" 
d="M66 0v700h461v-124h-319v-164h229v-124h-229v-164h319v-124h-461zM232 850l69 -53l69 53h100l-104 -101h-131l-104 101h101z" />
    <glyph glyph-name="ecaron" unicode="&#x11b;" horiz-adv-x="526" 
d="M492 377q0 -67 -31 -99t-96 -32h-182v-71q0 -56 56 -56h223v-119h-274q-73 0 -107.5 34.5t-34.5 108.5v317q0 74 34.5 108.5t107.5 34.5h177q65 0 96 -32t31 -99v-95zM309 484h-70q-56 0 -56 -56v-71h126q25 0 36 10.5t11 35.5v34q0 25 -11 36t-36 11zM208 763l69 -53
l69 53h100l-104 -101h-131l-104 101h101z" />
    <glyph glyph-name="Gcircumflex" unicode="&#x11c;" horiz-adv-x="589" 
d="M347 124q30 0 40.5 10.5t10.5 40.5v113h-107v124h249v-278q0 -72 -31 -103t-103 -31h-209q-74 0 -109.5 36t-35.5 109v410q0 73 35.5 109t109.5 36h318v-124h-266q-30 0 -42.5 -13t-12.5 -44v-338q0 -31 12.5 -44t42.5 -13h98zM303 801l-69 -52h-101l104 101h131
l104 -101h-100z" />
    <glyph glyph-name="gcircumflex" unicode="&#x11d;" horiz-adv-x="532" 
d="M287 155q56 0 56 56v217q0 56 -56 56h-48q-56 0 -56 -56v-217q0 -55 56 -56h48zM220 36h-32q-73 0 -107.5 35t-34.5 108v281q0 74 34.5 108.5t107.5 34.5h150q73 0 107 -34.5t34 -108.5v-423q0 -105 -49 -154.5t-154 -49.5h-189v119h168q46 0 67 20t21 67v74
q-19 -77 -123 -77zM266 714l-69 -52h-101l104 101h131l104 -101h-100z" />
    <glyph glyph-name="Gbreve" unicode="&#x11e;" horiz-adv-x="589" 
d="M347 124q30 0 40.5 10.5t10.5 40.5v113h-107v124h249v-278q0 -72 -31 -103t-103 -31h-209q-74 0 -109.5 36t-35.5 109v410q0 73 35.5 109t109.5 36h318v-124h-266q-30 0 -42.5 -13t-12.5 -44v-338q0 -31 12.5 -44t42.5 -13h98zM174 789v75q38 -50 129 -50t128 50v-75
q-39 -49 -128 -49q-90 0 -129 49z" />
    <glyph glyph-name="gbreve" unicode="&#x11f;" horiz-adv-x="532" 
d="M287 155q56 0 56 56v217q0 56 -56 56h-48q-56 0 -56 -56v-217q0 -55 56 -56h48zM220 36h-32q-73 0 -107.5 35t-34.5 108v281q0 74 34.5 108.5t107.5 34.5h150q73 0 107 -34.5t34 -108.5v-423q0 -105 -49 -154.5t-154 -49.5h-189v119h168q46 0 67 20t21 67v74
q-19 -77 -123 -77zM137 702v75q38 -50 129 -50t128 50v-75q-39 -49 -128 -49q-90 0 -129 49z" />
    <glyph glyph-name="Gdotaccent" unicode="&#x120;" horiz-adv-x="589" 
d="M347 124q30 0 40.5 10.5t10.5 40.5v113h-107v124h249v-278q0 -72 -31 -103t-103 -31h-209q-74 0 -109.5 36t-35.5 109v410q0 73 35.5 109t109.5 36h318v-124h-266q-30 0 -42.5 -13t-12.5 -44v-338q0 -31 12.5 -44t42.5 -13h98zM369 841v-87h-133v87h133z" />
    <glyph glyph-name="gdotaccent" unicode="&#x121;" horiz-adv-x="532" 
d="M287 155q56 0 56 56v217q0 56 -56 56h-48q-56 0 -56 -56v-217q0 -55 56 -56h48zM220 36h-32q-73 0 -107.5 35t-34.5 108v281q0 74 34.5 108.5t107.5 34.5h150q73 0 107 -34.5t34 -108.5v-423q0 -105 -49 -154.5t-154 -49.5h-189v119h168q46 0 67 20t21 67v74
q-19 -77 -123 -77zM332 754v-87h-133v87h133z" />
    <glyph glyph-name="uni0122" unicode="&#x122;" horiz-adv-x="589" 
d="M347 124q30 0 40.5 10.5t10.5 40.5v113h-107v124h249v-278q0 -72 -31 -103t-103 -31h-209q-74 0 -109.5 36t-35.5 109v410q0 73 35.5 109t109.5 36h318v-124h-266q-30 0 -42.5 -13t-12.5 -44v-338q0 -31 12.5 -44t42.5 -13h98zM364 -74v-65q0 -45 -23.5 -70.5
t-68.5 -25.5h-31v36h25q36 0 36 39v7h-61v79h123z" />
    <glyph glyph-name="uni0123" unicode="&#x123;" horiz-adv-x="532" 
d="M204 667v65q0 45 23.5 70.5t68.5 25.5h31v-36h-25q-36 0 -36 -39v-7h61v-79h-123zM287 155q56 0 56 56v217q0 56 -56 56h-48q-56 0 -56 -56v-217q0 -55 56 -56h48zM220 36h-32q-73 0 -107.5 35t-34.5 108v281q0 74 34.5 108.5t107.5 34.5h150q73 0 107 -34.5t34 -108.5
v-423q0 -105 -49 -154.5t-154 -49.5h-189v119h168q46 0 67 20t21 67v74q-19 -77 -123 -77z" />
    <glyph glyph-name="Hcircumflex" unicode="&#x124;" horiz-adv-x="636" 
d="M428 0v288h-220v-288h-142v700h142v-288h220v288h142v-700h-142zM318 801l-69 -52h-101l104 101h131l104 -101h-100z" />
    <glyph glyph-name="hcircumflex" unicode="&#x125;" horiz-adv-x="544" 
d="M355 428q0 29 -13 42.5t-43 13.5h-48q-29 0 -42 -13.5t-13 -42.5v-428h-137v770h137v-245q10 41 38.5 59.5t83.5 18.5h33q73 0 107 -34.5t34 -108.5v-460h-137v428zM150 881l-69 -52h-101l104 101h131l104 -101h-100z" />
    <glyph glyph-name="Hbar" unicode="&#x126;" horiz-adv-x="636" 
d="M428 0v288h-220v-288h-142v507h-32v84h32v109h142v-109h220v109h142v-109h31v-84h-31v-507h-142zM208 412h220v95h-220v-95z" />
    <glyph glyph-name="hbar" unicode="&#x127;" horiz-adv-x="544" 
d="M355 428q0 29 -13 42.5t-43 13.5h-48q-29 0 -42 -13.5t-13 -42.5v-428h-137v637h-58v70h58v63h137v-63h62v-70h-62v-112q10 41 38.5 59.5t83.5 18.5h33q73 0 107 -34.5t34 -108.5v-460h-137v428z" />
    <glyph glyph-name="Itilde" unicode="&#x128;" horiz-adv-x="274" 
d="M66 0v700h142v-700h-142zM8 740v77q35 36 71 36q22 0 61.5 -19t59.5 -19q34 0 65 40v-77q-36 -41 -73 -41q-22 0 -62.5 20.5t-60.5 20.5q-31 0 -61 -38z" />
    <glyph glyph-name="itilde" unicode="&#x129;" horiz-adv-x="319" 
d="M-5 653v77q35 36 71 36q22 0 62 -19t59 -19q34 0 65 40v-77q-36 -41 -73 -41q-23 0 -63 20.5t-60 20.5q-31 0 -61 -38zM245 119h57v-119h-106q-74 0 -107 33.5t-33 105.5v464h137v-431q0 -29 11.5 -41t40.5 -12z" />
    <glyph glyph-name="Imacron" unicode="&#x12a;" horiz-adv-x="274" 
d="M267 766h-260v65h260v-65zM66 0v700h142v-700h-142z" />
    <glyph glyph-name="imacron" unicode="&#x12b;" horiz-adv-x="319" 
d="M254 679h-260v65h260v-65zM245 119h57v-119h-106q-74 0 -107 33.5t-33 105.5v464h137v-431q0 -29 11.5 -41t40.5 -12z" />
    <glyph glyph-name="Ibreve" unicode="&#x12c;" horiz-adv-x="274" 
d="M66 0v700h142v-700h-142zM8 789v75q38 -50 129 -50t128 50v-75q-39 -49 -128 -49q-90 0 -129 49z" />
    <glyph glyph-name="ibreve" unicode="&#x12d;" horiz-adv-x="319" 
d="M-5 702v75q38 -50 129 -50t128 50v-75q-39 -49 -128 -49q-90 0 -129 49zM245 119h57v-119h-106q-74 0 -107 33.5t-33 105.5v464h137v-431q0 -29 11.5 -41t40.5 -12z" />
    <glyph glyph-name="Iogonek" unicode="&#x12e;" horiz-adv-x="274" 
d="M66 0v700h142v-700h-14v-62h-25q-135 0 -135 -25q0 -14 38 -14h140v-75h-136q-46 0 -70 13.5t-24 48.5q0 40 44.5 57.5t142.5 17.5v39h-103z" />
    <glyph glyph-name="iogonek" unicode="&#x12f;" horiz-adv-x="319" 
d="M204 757v-90h-160v90h160zM259 -39v39h-63q-74 0 -107 33.5t-33 105.5v464h137v-431q0 -29 11.5 -41t40.5 -12h57v-119h-18v-62h-43q-61 0 -93.5 -3t-43 -8t-10.5 -15q0 -13 34 -13h174v-75h-166q-46 0 -70 13t-24 46q0 45 40 61.5t149 16.5h28z" />
    <glyph glyph-name="Idotaccent" unicode="&#x130;" horiz-adv-x="274" 
d="M66 0v700h142v-700h-142zM203 841v-87h-133v87h133z" />
    <glyph glyph-name="dotlessi" unicode="&#x131;" horiz-adv-x="319" 
d="M245 119h57v-119h-106q-74 0 -107 33.5t-33 105.5v464h137v-431q0 -29 11.5 -41t40.5 -12z" />
    <glyph glyph-name="IJ" unicode="&#x132;" horiz-adv-x="850" 
d="M66 0v700h142v-700h-142zM312 135v207h142v-167q0 -30 10.5 -40.5t39.5 -10.5h89q31 0 43 12.5t12 44.5v519h142v-555q0 -73 -35.5 -109t-109.5 -36h-198q-73 0 -104 31.5t-31 103.5z" />
    <glyph glyph-name="Jcircumflex" unicode="&#x134;" horiz-adv-x="576" 
d="M38 135v207h142v-167q0 -30 10.5 -40.5t39.5 -10.5h89q31 0 43 12.5t12 44.5v519h142v-555q0 -73 -35.5 -109t-109.5 -36h-198q-73 0 -104 31.5t-31 103.5zM426 801l-69 -52h-101l104 101h131l104 -101h-100z" />
    <glyph glyph-name="jcircumflex" unicode="&#x135;" horiz-adv-x="276" 
d="M-14 -48h36q29 0 39 10t10 40v601h137v-631q0 -73 -33 -106t-108 -33h-81v119zM140 714l-69 -52h-101l104 101h131l104 -101h-100z" />
    <glyph glyph-name="uni0136" unicode="&#x136;" horiz-adv-x="605" 
d="M552 700v-209q0 -63 -26.5 -99t-89.5 -42q63 -6 89.5 -42t26.5 -99v-209h-142v227q0 32 -13.5 46.5t-45.5 14.5h-143v-288h-142v700h142v-288h143q32 0 45.5 14.5t13.5 46.5v227h142zM364 -74v-65q0 -45 -23.5 -70.5t-68.5 -25.5h-31v36h25q36 0 36 39v7h-61v79h123z" />
    <glyph glyph-name="uni0137" unicode="&#x137;" horiz-adv-x="534" 
d="M353 407v196h137v-176q0 -59 -23 -89t-77 -37q54 -6 77 -36t23 -90v-175h-137v196q0 46 -47 46h-110v-242h-137v770h137v-409h110q47 0 47 46zM337 -74v-65q0 -45 -23.5 -70.5t-68.5 -25.5h-31v36h25q36 0 36 39v7h-61v79h123z" />
    <glyph glyph-name="kgreenlandic" unicode="&#x138;" horiz-adv-x="534" 
d="M353 407v196h137v-176q0 -59 -23 -89t-77 -37q54 -6 77 -36t23 -90v-175h-137v196q0 46 -47 46h-110v-242h-137v603h137v-242h110q47 0 47 46z" />
    <glyph glyph-name="Lacute" unicode="&#x139;" horiz-adv-x="536" 
d="M519 124v-124h-453v700h142v-576h311zM311 850l-115 -101h-103l89 101h129z" />
    <glyph glyph-name="lacute" unicode="&#x13a;" horiz-adv-x="316" 
d="M242 119h57v-119h-106q-74 0 -107.5 33.5t-33.5 105.5v631h137v-598q0 -29 12 -41t41 -12zM265 930l-115 -101h-103l89 101h129z" />
    <glyph glyph-name="uni013B" unicode="&#x13b;" horiz-adv-x="536" 
d="M519 124v-124h-453v700h142v-576h311zM342 -74v-65q0 -45 -23.5 -70.5t-68.5 -25.5h-31v36h25q36 0 36 39v7h-61v79h123z" />
    <glyph glyph-name="uni013C" unicode="&#x13c;" horiz-adv-x="316" 
d="M242 119h57v-119h-106q-74 0 -107.5 33.5t-33.5 105.5v631h137v-598q0 -29 12 -41t41 -12zM219 -74v-65q0 -45 -23.5 -70.5t-68.5 -25.5h-31v36h25q36 0 36 39v7h-61v79h123z" />
    <glyph glyph-name="Lcaron" unicode="&#x13d;" horiz-adv-x="536" 
d="M519 124v-124h-453v700h142v-576h311zM496 700v-117q0 -67 -33.5 -103.5t-99.5 -36.5h-25v63h21q25 0 36 11t11 41v25h-68v117h158z" />
    <glyph glyph-name="lcaron" unicode="&#x13e;" horiz-adv-x="509" 
d="M242 119h57v-119h-106q-74 0 -107.5 33.5t-33.5 105.5v631h137v-598q0 -29 12 -41t41 -12zM462 700v-117q0 -67 -33.5 -103.5t-99.5 -36.5h-25v63h21q25 0 36 11t11 41v25h-68v117h158z" />
    <glyph glyph-name="Ldot" unicode="&#x13f;" horiz-adv-x="536" 
d="M519 124v-124h-453v700h142v-576h311zM480 409v-118h-158v118h158z" />
    <glyph glyph-name="ldot" unicode="&#x140;" horiz-adv-x="522" 
d="M242 119h57v-119h-106q-74 0 -107.5 33.5t-33.5 105.5v631h137v-598q0 -29 12 -41t41 -12zM458 409v-118h-158v118h158z" />
    <glyph glyph-name="Lslash" unicode="&#x141;" horiz-adv-x="536" 
d="M519 124v-124h-453v198l-59 -32v122l59 32v380h142v-303l166 91v-122l-166 -91v-151h311z" />
    <glyph glyph-name="lslash" unicode="&#x142;" horiz-adv-x="316" 
d="M242 119h57v-119h-106q-74 0 -107.5 33.5t-33.5 105.5v151l-45 -24v122l45 24v358h137v-283l120 66v-122l-120 -66v-193q0 -29 12 -41t41 -12z" />
    <glyph glyph-name="Nacute" unicode="&#x143;" horiz-adv-x="605" 
d="M257 576q-30 0 -42.5 -13t-12.5 -44v-519h-143v555q0 145 146 145h195q146 0 146 -145v-555h-142v519q0 31 -12.5 44t-43.5 13h-91zM442 850l-115 -101h-103l89 101h129z" />
    <glyph glyph-name="nacute" unicode="&#x144;" horiz-adv-x="536" 
d="M52 0v460q0 74 34.5 108.5t107.5 34.5h148q73 0 107.5 -34.5t34.5 -108.5v-460h-137v428q0 29 -13 42.5t-43 13.5h-46q-30 0 -43 -13.5t-13 -42.5v-428h-137zM407 763l-115 -101h-103l89 101h129z" />
    <glyph glyph-name="uni0145" unicode="&#x145;" horiz-adv-x="605" 
d="M257 576q-30 0 -42.5 -13t-12.5 -44v-519h-143v555q0 145 146 145h195q146 0 146 -145v-555h-142v519q0 31 -12.5 44t-43.5 13h-91zM364 -74v-65q0 -45 -23.5 -70.5t-68.5 -25.5h-31v36h25q36 0 36 39v7h-61v79h123z" />
    <glyph glyph-name="uni0146" unicode="&#x146;" horiz-adv-x="536" 
d="M52 0v460q0 74 34.5 108.5t107.5 34.5h148q73 0 107.5 -34.5t34.5 -108.5v-460h-137v428q0 29 -13 42.5t-43 13.5h-46q-30 0 -43 -13.5t-13 -42.5v-428h-137zM329 -74v-65q0 -45 -23.5 -70.5t-68.5 -25.5h-31v36h25q36 0 36 39v7h-61v79h123z" />
    <glyph glyph-name="Ncaron" unicode="&#x147;" horiz-adv-x="605" 
d="M257 576q-30 0 -42.5 -13t-12.5 -44v-519h-143v555q0 145 146 145h195q146 0 146 -145v-555h-142v519q0 31 -12.5 44t-43.5 13h-91zM233 850l69 -53l69 53h100l-104 -101h-131l-104 101h101z" />
    <glyph glyph-name="ncaron" unicode="&#x148;" horiz-adv-x="536" 
d="M52 0v460q0 74 34.5 108.5t107.5 34.5h148q73 0 107.5 -34.5t34.5 -108.5v-460h-137v428q0 29 -13 42.5t-43 13.5h-46q-30 0 -43 -13.5t-13 -42.5v-428h-137zM199 763l69 -53l69 53h100l-104 -101h-131l-104 101h101z" />
    <glyph glyph-name="napostrophe" unicode="&#x149;" horiz-adv-x="739" 
d="M255 0v460q0 74 34.5 108.5t107.5 34.5h148q73 0 107.5 -34.5t34.5 -108.5v-460h-137v428q0 29 -13 42.5t-43 13.5h-46q-30 0 -43 -13.5t-13 -42.5v-428h-137zM206 700v-117q0 -67 -33.5 -103.5t-99.5 -36.5h-25v63h21q25 0 36 11t11 41v25h-68v117h158z" />
    <glyph glyph-name="Eng" unicode="&#x14a;" horiz-adv-x="605" 
d="M257 576q-30 0 -42.5 -13t-12.5 -44v-519h-143v555q0 145 146 145h195q146 0 146 -145v-577q0 -145 -146 -145h-98v124h46q31 0 43.5 13t12.5 44v505q0 31 -12.5 44t-43.5 13h-91z" />
    <glyph glyph-name="eng" unicode="&#x14b;" horiz-adv-x="536" 
d="M262 -48h36q29 0 39 10t10 40v426q0 29 -13 42.5t-43 13.5h-46q-30 0 -43 -13.5t-13 -42.5v-428h-137v460q0 74 34.5 108.5t107.5 34.5h148q73 0 107.5 -34.5t34.5 -108.5v-488q0 -73 -33 -106t-108 -33h-81v119z" />
    <glyph glyph-name="Omacron" unicode="&#x14c;" horiz-adv-x="591" 
d="M198 0q-146 0 -146 145v410q0 145 146 145h195q146 0 146 -145v-410q0 -145 -146 -145h-195zM397 181v338q0 31 -12.5 44t-43.5 13h-92q-30 0 -42.5 -13t-12.5 -44v-338q0 -31 12.5 -44t42.5 -13h92q31 0 43.5 13t12.5 44zM423 764h-257v69h257v-69z" />
    <glyph glyph-name="omacron" unicode="&#x14d;" horiz-adv-x="524" 
d="M336 603q73 0 107 -34.5t34 -108.5v-317q0 -74 -34 -108.5t-107 -34.5h-148q-73 0 -107.5 34.5t-34.5 108.5v317q0 74 34.5 108.5t107.5 34.5h148zM285 119q30 0 43 13.5t13 42.5v253q0 29 -13 42.5t-43 13.5h-46q-30 0 -43 -13.5t-13 -42.5v-253q0 -29 13 -42.5
t43 -13.5h46zM390 677h-257v69h257v-69z" />
    <glyph glyph-name="Obreve" unicode="&#x14e;" horiz-adv-x="591" 
d="M198 0q-146 0 -146 145v410q0 145 146 145h195q146 0 146 -145v-410q0 -145 -146 -145h-195zM397 181v338q0 31 -12.5 44t-43.5 13h-92q-30 0 -42.5 -13t-12.5 -44v-338q0 -31 12.5 -44t42.5 -13h92q31 0 43.5 13t12.5 44zM166 789v75q38 -50 129 -50t128 50v-75
q-39 -49 -128 -49q-90 0 -129 49z" />
    <glyph glyph-name="obreve" unicode="&#x14f;" horiz-adv-x="524" 
d="M336 603q73 0 107 -34.5t34 -108.5v-317q0 -74 -34 -108.5t-107 -34.5h-148q-73 0 -107.5 34.5t-34.5 108.5v317q0 74 34.5 108.5t107.5 34.5h148zM285 119q30 0 43 13.5t13 42.5v253q0 29 -13 42.5t-43 13.5h-46q-30 0 -43 -13.5t-13 -42.5v-253q0 -29 13 -42.5
t43 -13.5h46zM133 702v75q38 -50 129 -50t128 50v-75q-39 -49 -128 -49q-90 0 -129 49z" />
    <glyph glyph-name="Ohungarumlaut" unicode="&#x150;" horiz-adv-x="591" 
d="M198 0q-146 0 -146 145v410q0 145 146 145h195q146 0 146 -145v-410q0 -145 -146 -145h-195zM397 181v338q0 31 -12.5 44t-43.5 13h-92q-30 0 -42.5 -13t-12.5 -44v-338q0 -31 12.5 -44t42.5 -13h92q31 0 43.5 13t12.5 44zM528 850l-115 -101h-103l89 101h129zM342 850
l-115 -101h-103l89 101h129z" />
    <glyph glyph-name="ohungarumlaut" unicode="&#x151;" horiz-adv-x="524" 
d="M336 603q73 0 107 -34.5t34 -108.5v-317q0 -74 -34 -108.5t-107 -34.5h-148q-73 0 -107.5 34.5t-34.5 108.5v317q0 74 34.5 108.5t107.5 34.5h148zM285 119q30 0 43 13.5t13 42.5v253q0 29 -13 42.5t-43 13.5h-46q-30 0 -43 -13.5t-13 -42.5v-253q0 -29 13 -42.5
t43 -13.5h46zM494 763l-115 -101h-103l89 101h129zM308 763l-115 -101h-103l89 101h129z" />
    <glyph glyph-name="OE" unicode="&#x152;" horiz-adv-x="912" 
d="M200 0q-74 0 -109.5 36t-35.5 109v410q0 73 35.5 109t109.5 36h658v-124h-321v-164h231v-124h-231v-164h321v-124h-658zM395 124v452h-143q-30 0 -42.5 -13t-12.5 -44v-338q0 -31 12.5 -44t42.5 -13h143z" />
    <glyph glyph-name="oe" unicode="&#x153;" horiz-adv-x="778" 
d="M326 175v253q0 29 -13 42.5t-43 13.5h-31q-30 0 -43 -13.5t-13 -42.5v-253q0 -29 13 -42.5t43 -13.5h31q30 0 43 13.5t13 42.5zM608 403v34q0 25 -11 36t-36 11h-42q-30 0 -43 -13.5t-13 -42.5v-71h98q25 0 36 10.5t11 35.5zM463 246v-71q0 -29 13 -42.5t43 -13.5h195
v-119h-181q-65 0 -98 25t-40 80q-8 -56 -40.5 -80.5t-98.5 -24.5h-68q-73 0 -107.5 34.5t-34.5 108.5v317q0 74 34.5 108.5t107.5 34.5h68q66 0 98.5 -24.5t40.5 -80.5q7 55 40 80t98 25h84q65 0 96 -32t31 -99v-95q0 -67 -31 -99t-96 -32h-154z" />
    <glyph glyph-name="Racute" unicode="&#x154;" horiz-adv-x="604" 
d="M552 560v-78q0 -64 -26 -96t-85 -37q60 -8 85.5 -43.5t25.5 -96.5v-209h-142v227q0 32 -13.5 46.5t-45.5 14.5h-143v-288h-142v700h345q73 0 107 -33.5t34 -106.5zM356 412q30 0 42 12.5t12 43.5v52q0 30 -12.5 43t-40.5 13h-149v-164h148zM442 850l-115 -101h-103
l89 101h129z" />
    <glyph glyph-name="racute" unicode="&#x155;" horiz-adv-x="379" 
d="M362 603v-119h-117q-56 0 -56 -56v-428h-137v460q0 74 34.5 108.5t107.5 34.5h168zM355 763l-115 -101h-103l89 101h129z" />
    <glyph glyph-name="uni0156" unicode="&#x156;" horiz-adv-x="604" 
d="M552 560v-78q0 -64 -26 -96t-85 -37q60 -8 85.5 -43.5t25.5 -96.5v-209h-142v227q0 32 -13.5 46.5t-45.5 14.5h-143v-288h-142v700h345q73 0 107 -33.5t34 -106.5zM356 412q30 0 42 12.5t12 43.5v52q0 30 -12.5 43t-40.5 13h-149v-164h148zM378 -74v-65
q0 -45 -23.5 -70.5t-68.5 -25.5h-31v36h25q36 0 36 39v7h-61v79h123z" />
    <glyph glyph-name="uni0157" unicode="&#x157;" horiz-adv-x="379" 
d="M362 603v-119h-117q-56 0 -56 -56v-428h-137v460q0 74 34.5 108.5t107.5 34.5h168zM185 -74v-65q0 -45 -23.5 -70.5t-68.5 -25.5h-31v36h25q36 0 36 39v7h-61v79h123z" />
    <glyph glyph-name="Rcaron" unicode="&#x158;" horiz-adv-x="604" 
d="M552 560v-78q0 -64 -26 -96t-85 -37q60 -8 85.5 -43.5t25.5 -96.5v-209h-142v227q0 32 -13.5 46.5t-45.5 14.5h-143v-288h-142v700h345q73 0 107 -33.5t34 -106.5zM356 412q30 0 42 12.5t12 43.5v52q0 30 -12.5 43t-40.5 13h-149v-164h148zM233 850l69 -53l69 53h100
l-104 -101h-131l-104 101h101z" />
    <glyph glyph-name="rcaron" unicode="&#x159;" horiz-adv-x="379" 
d="M362 603v-119h-117q-56 0 -56 -56v-428h-137v460q0 74 34.5 108.5t107.5 34.5h168zM147 763l69 -53l69 53h100l-104 -101h-131l-104 101h101z" />
    <glyph glyph-name="Sacute" unicode="&#x15a;" horiz-adv-x="548" 
d="M189 288q-75 0 -110 35.5t-35 108.5v124q0 74 35 109t110 35h293v-124h-242q-29 0 -41.5 -13t-12.5 -43v-53q0 -30 12.5 -42.5t41.5 -12.5h122q75 0 110 -35.5t35 -108.5v-124q0 -74 -34.5 -109t-109.5 -35h-324v124h273q28 0 40.5 13t12.5 43v53q0 30 -12 42.5t-41 12.5
h-123zM414 850l-115 -101h-103l89 101h129z" />
    <glyph glyph-name="sacute" unicode="&#x15b;" horiz-adv-x="493" 
d="M429 484h-208q-25 0 -35.5 -11t-10.5 -36v-34q0 -46 46 -46h111q127 0 127 -131v-95q0 -67 -31.5 -99t-96.5 -32h-293v119h238q46 0 46 47v28q0 52 -46 52h-110q-65 0 -96.5 32t-31.5 99v95q0 67 31 99t96 32h264v-119zM386 763l-115 -101h-103l89 101h129z" />
    <glyph glyph-name="Scircumflex" unicode="&#x15c;" horiz-adv-x="548" 
d="M189 288q-75 0 -110 35.5t-35 108.5v124q0 74 35 109t110 35h293v-124h-242q-29 0 -41.5 -13t-12.5 -43v-53q0 -30 12.5 -42.5t41.5 -12.5h122q75 0 110 -35.5t35 -108.5v-124q0 -74 -34.5 -109t-109.5 -35h-324v124h273q28 0 40.5 13t12.5 43v53q0 30 -12 42.5t-41 12.5
h-123zM274 801l-69 -52h-101l104 101h131l104 -101h-100z" />
    <glyph glyph-name="scircumflex" unicode="&#x15d;" horiz-adv-x="493" 
d="M429 484h-208q-25 0 -35.5 -11t-10.5 -36v-34q0 -46 46 -46h111q127 0 127 -131v-95q0 -67 -31.5 -99t-96.5 -32h-293v119h238q46 0 46 47v28q0 52 -46 52h-110q-65 0 -96.5 32t-31.5 99v95q0 67 31 99t96 32h264v-119zM247 714l-69 -52h-101l104 101h131l104 -101h-100z
" />
    <glyph glyph-name="Scedilla" unicode="&#x15e;" horiz-adv-x="548" 
d="M246 0h-207v124h273q28 0 40.5 13t12.5 43v53q0 30 -12 42.5t-41 12.5h-123q-75 0 -110 35.5t-35 108.5v124q0 74 35 109t110 35h293v-124h-242q-29 0 -41.5 -13t-12.5 -43v-53q0 -30 12.5 -42.5t41.5 -12.5h122q75 0 110 -35.5t35 -108.5v-124q0 -74 -34.5 -109
t-109.5 -35h-94l-12 -39h68q82 0 82 -59q0 -42 -27.5 -60t-86.5 -18h-152v75h134q38 0 38 21q0 9 -5 13t-20 4h-65z" />
    <glyph glyph-name="scedilla" unicode="&#x15f;" horiz-adv-x="493" 
d="M215 0h-177v119h238q46 0 46 47v28q0 52 -46 52h-110q-65 0 -96.5 32t-31.5 99v95q0 67 31 99t96 32h264v-119h-208q-25 0 -35.5 -11t-10.5 -36v-34q0 -46 46 -46h111q127 0 127 -131v-95q0 -67 -31.5 -99t-96.5 -32h-93l-12 -39h68q82 0 82 -59q0 -42 -27.5 -60
t-86.5 -18h-152v75h134q38 0 38 21q0 9 -5 13t-20 4h-65z" />
    <glyph glyph-name="Scaron" unicode="&#x160;" horiz-adv-x="548" 
d="M189 288q-75 0 -110 35.5t-35 108.5v124q0 74 35 109t110 35h293v-124h-242q-29 0 -41.5 -13t-12.5 -43v-53q0 -30 12.5 -42.5t41.5 -12.5h122q75 0 110 -35.5t35 -108.5v-124q0 -74 -34.5 -109t-109.5 -35h-324v124h273q28 0 40.5 13t12.5 43v53q0 30 -12 42.5t-41 12.5
h-123zM205 850l69 -53l69 53h100l-104 -101h-131l-104 101h101z" />
    <glyph glyph-name="scaron" unicode="&#x161;" horiz-adv-x="493" 
d="M429 484h-208q-25 0 -35.5 -11t-10.5 -36v-34q0 -46 46 -46h111q127 0 127 -131v-95q0 -67 -31.5 -99t-96.5 -32h-293v119h238q46 0 46 47v28q0 52 -46 52h-110q-65 0 -96.5 32t-31.5 99v95q0 67 31 99t96 32h264v-119zM178 763l69 -53l69 53h100l-104 -101h-131
l-104 101h101z" />
    <glyph glyph-name="uni0162" unicode="&#x162;" horiz-adv-x="521" 
d="M260 0l-12 -39h68q82 0 82 -59q0 -42 -27.5 -60t-86.5 -18h-152v75h134q38 0 38 21q0 9 -5 13t-20 4h-65l23 63h-47v576h-173v124h488v-124h-173v-576h-72z" />
    <glyph glyph-name="uni0163" unicode="&#x163;" horiz-adv-x="406" 
d="M155 -63l22 63q-65 4 -95 39t-30 104v627h137v-167h181v-119h-181v-309q0 -56 56 -56h125v-119h-169l-12 -39h68q82 0 82 -59q0 -42 -27.5 -60t-86.5 -18h-152v75h134q38 0 38 21q0 9 -5 13t-20 4h-65z" />
    <glyph glyph-name="Tcaron" unicode="&#x164;" horiz-adv-x="521" 
d="M505 700v-124h-173v-576h-142v576h-173v124h488zM192 850l69 -53l69 53h100l-104 -101h-131l-104 101h101z" />
    <glyph glyph-name="tcaron" unicode="&#x165;" horiz-adv-x="661" 
d="M196 0q-75 0 -109.5 34.5t-34.5 108.5v627h137v-167h181v-119h-181v-309q0 -56 56 -56h125v-119h-174zM614 700v-117q0 -67 -33.5 -103.5t-99.5 -36.5h-25v63h21q25 0 36 11t11 41v25h-68v117h158z" />
    <glyph glyph-name="Tbar" unicode="&#x166;" horiz-adv-x="521" 
d="M505 700v-124h-173v-140h94v-84h-94v-352h-142v352h-95v84h95v140h-173v124h488z" />
    <glyph glyph-name="tbar" unicode="&#x167;" horiz-adv-x="406" 
d="M196 0q-75 0 -109.5 34.5t-34.5 108.5v157h-51v84h51v386h137v-167h181v-119h-181v-100h139v-84h-139v-125q0 -56 56 -56h125v-119h-174z" />
    <glyph glyph-name="Utilde" unicode="&#x168;" horiz-adv-x="605" 
d="M205 0q-146 0 -146 145v555h143v-519q0 -31 12.5 -44t42.5 -13h91q31 0 43.5 13t12.5 44v519h142v-555q0 -145 -146 -145h-195zM173 740v77q35 36 71 36q22 0 62 -19t59 -19q34 0 65 40v-77q-36 -41 -73 -41q-23 0 -63.5 20.5t-59.5 20.5q-31 0 -61 -38z" />
    <glyph glyph-name="utilde" unicode="&#x169;" horiz-adv-x="536" 
d="M291 119q30 0 43 13.5t13 42.5v428h137v-460q0 -74 -34.5 -108.5t-107.5 -34.5h-148q-73 0 -107.5 34.5t-34.5 108.5v460h137v-428q0 -29 13 -42.5t43 -13.5h46zM139 653v77q35 36 71 36q23 0 62.5 -19t58.5 -19q34 0 65 40v-77q-36 -41 -73 -41q-23 0 -63.5 20.5
t-59.5 20.5q-31 0 -61 -38z" />
    <glyph glyph-name="Umacron" unicode="&#x16a;" horiz-adv-x="605" 
d="M205 0q-146 0 -146 145v555h143v-519q0 -31 12.5 -44t42.5 -13h91q31 0 43.5 13t12.5 44v519h142v-555q0 -145 -146 -145h-195zM430 764h-257v69h257v-69z" />
    <glyph glyph-name="umacron" unicode="&#x16b;" horiz-adv-x="536" 
d="M291 119q30 0 43 13.5t13 42.5v428h137v-460q0 -74 -34.5 -108.5t-107.5 -34.5h-148q-73 0 -107.5 34.5t-34.5 108.5v460h137v-428q0 -29 13 -42.5t43 -13.5h46zM396 677h-257v69h257v-69z" />
    <glyph glyph-name="Ubreve" unicode="&#x16c;" horiz-adv-x="605" 
d="M205 0q-146 0 -146 145v555h143v-519q0 -31 12.5 -44t42.5 -13h91q31 0 43.5 13t12.5 44v519h142v-555q0 -145 -146 -145h-195zM173 789v75q38 -50 129 -50t128 50v-75q-39 -49 -128 -49q-90 0 -129 49z" />
    <glyph glyph-name="ubreve" unicode="&#x16d;" horiz-adv-x="536" 
d="M291 119q30 0 43 13.5t13 42.5v428h137v-460q0 -74 -34.5 -108.5t-107.5 -34.5h-148q-73 0 -107.5 34.5t-34.5 108.5v460h137v-428q0 -29 13 -42.5t43 -13.5h46zM139 702v75q38 -50 129 -50t128 50v-75q-39 -49 -128 -49q-90 0 -129 49z" />
    <glyph glyph-name="Uring" unicode="&#x16e;" horiz-adv-x="605" 
d="M205 0q-146 0 -146 145v555h143v-519q0 -31 12.5 -44t42.5 -13h91q31 0 43.5 13t12.5 44v519h142v-555q0 -145 -146 -145h-195zM256 814q0 -24 26 -24h41q26 0 26 24q0 25 -26 25h-41q-26 0 -26 -25zM315 744h-24q-47 0 -66 17.5t-19 52.5t19 53t66 18h24q46 0 65 -18
t19 -53t-19 -52.5t-65 -17.5z" />
    <glyph glyph-name="uring" unicode="&#x16f;" horiz-adv-x="536" 
d="M291 119q30 0 43 13.5t13 42.5v428h137v-460q0 -74 -34.5 -108.5t-107.5 -34.5h-148q-73 0 -107.5 34.5t-34.5 108.5v460h137v-428q0 -29 13 -42.5t43 -13.5h46zM221 727q0 -24 26 -24h41q26 0 26 24q0 25 -26 25h-41q-26 0 -26 -25zM280 657h-24q-47 0 -66 17.5
t-19 52.5t19 53t66 18h24q46 0 65 -18t19 -53t-19 -52.5t-65 -17.5z" />
    <glyph glyph-name="Uhungarumlaut" unicode="&#x170;" horiz-adv-x="605" 
d="M205 0q-146 0 -146 145v555h143v-519q0 -31 12.5 -44t42.5 -13h91q31 0 43.5 13t12.5 44v519h142v-555q0 -145 -146 -145h-195zM535 850l-115 -101h-103l89 101h129zM349 850l-115 -101h-103l89 101h129z" />
    <glyph glyph-name="uhungarumlaut" unicode="&#x171;" horiz-adv-x="536" 
d="M291 119q30 0 43 13.5t13 42.5v428h137v-460q0 -74 -34.5 -108.5t-107.5 -34.5h-148q-73 0 -107.5 34.5t-34.5 108.5v460h137v-428q0 -29 13 -42.5t43 -13.5h46zM500 763l-115 -101h-103l89 101h129zM314 763l-115 -101h-103l89 101h129z" />
    <glyph glyph-name="Uogonek" unicode="&#x172;" horiz-adv-x="605" 
d="M478 -62h-25q-61 0 -93.5 -3t-43 -8t-10.5 -15q0 -13 34 -13h174v-75h-166q-46 0 -70 13t-24 46q0 45 40 61.5t149 16.5h10v45q-24 -6 -53 -6h-195q-146 0 -146 145v555h143v-519q0 -31 12.5 -44t42.5 -13h91q31 0 43.5 13t12.5 44v519h142v-555q0 -101 -68 -131v-76z
" />
    <glyph glyph-name="uogonek" unicode="&#x173;" horiz-adv-x="536" 
d="M418 -62h-25q-61 0 -93.5 -3t-43 -8t-10.5 -15q0 -13 34 -13h174v-75h-166q-46 0 -70 13t-24 46q0 45 40 61.5t149 16.5h10v44q-19 -5 -51 -5h-148q-73 0 -107.5 34.5t-34.5 108.5v460h137v-428q0 -29 13 -42.5t43 -13.5h46q30 0 43 13.5t13 42.5v428h137v-460
q0 -101 -66 -130v-75z" />
    <glyph glyph-name="Wcircumflex" unicode="&#x174;" horiz-adv-x="882" 
d="M677 0h-91q-69 0 -103 24.5t-42 80.5q-8 -56 -42 -80.5t-103 -24.5h-91q-146 0 -146 145v555h143v-519q0 -31 12.5 -44t42.5 -13h58q30 0 42.5 13t12.5 44v519h142v-519q0 -31 12.5 -44t42.5 -13h58q31 0 43.5 13t12.5 44v519h142v-555q0 -145 -146 -145zM441 801
l-69 -52h-101l104 101h131l104 -101h-100z" />
    <glyph glyph-name="wcircumflex" unicode="&#x175;" horiz-adv-x="816" 
d="M408 105q-8 -56 -40.5 -80.5t-98.5 -24.5h-75q-73 0 -107.5 34.5t-34.5 108.5v460h137v-428q0 -29 13 -42.5t43 -13.5h39q30 0 43 13.5t13 42.5v428h136v-428q0 -29 13 -42.5t43 -13.5h39q30 0 43 13.5t13 42.5v428h137v-460q0 -74 -34.5 -108.5t-107.5 -34.5h-75
q-66 0 -98.5 24.5t-40.5 80.5zM408 714l-69 -52h-101l104 101h131l104 -101h-100z" />
    <glyph glyph-name="Ycircumflex" unicode="&#x176;" horiz-adv-x="579" 
d="M399 700h142v-267q0 -73 -35.5 -109t-109.5 -36h-35v-288h-143v288h-35q-74 0 -109.5 36t-35.5 109v267h142v-232q0 -31 12.5 -43.5t43.5 -12.5h107q31 0 43.5 12.5t12.5 43.5v232zM290 801l-69 -52h-101l104 101h131l104 -101h-100z" />
    <glyph glyph-name="ycircumflex" unicode="&#x177;" horiz-adv-x="544" 
d="M282 -167h-188v119h167q46 0 67 20t21 67v74q-10 -40 -38.5 -58.5t-83.5 -18.5h-33q-73 0 -107.5 34.5t-34.5 108.5v424h137v-392q0 -56 56 -56h48q56 0 56 56v392h137v-566q0 -105 -49 -154.5t-155 -49.5zM272 714l-69 -52h-101l104 101h131l104 -101h-100z" />
    <glyph glyph-name="Ydieresis" unicode="&#x178;" horiz-adv-x="579" 
d="M399 700h142v-267q0 -73 -35.5 -109t-109.5 -36h-35v-288h-143v288h-35q-74 0 -109.5 36t-35.5 109v267h142v-232q0 -31 12.5 -43.5t43.5 -12.5h107q31 0 43.5 12.5t12.5 43.5v232zM247 841v-87h-132v87h132zM464 841v-87h-132v87h132z" />
    <glyph glyph-name="Zacute" unicode="&#x179;" horiz-adv-x="556" 
d="M296 412q41 0 58 16.5t17 57.5v90h-305v124h447v-237q0 -175 -175 -175h-80q-42 0 -58.5 -16t-16.5 -58v-90h330v-124h-472v237q0 175 174 175h81zM428 850l-115 -101h-103l89 101h129z" />
    <glyph glyph-name="zacute" unicode="&#x17a;" horiz-adv-x="501" 
d="M234 246q-33 0 -47.5 -14.5t-14.5 -46.5v-66h291v-119h-427v192q0 165 165 165h64q62 0 62 61v66h-271v119h407v-192q0 -165 -165 -165h-64zM401 763l-115 -101h-103l89 101h129z" />
    <glyph glyph-name="Zdotaccent" unicode="&#x17b;" horiz-adv-x="556" 
d="M296 412q41 0 58 16.5t17 57.5v90h-305v124h447v-237q0 -175 -175 -175h-80q-42 0 -58.5 -16t-16.5 -58v-90h330v-124h-472v237q0 175 174 175h81zM354 841v-87h-133v87h133z" />
    <glyph glyph-name="zdotaccent" unicode="&#x17c;" horiz-adv-x="501" 
d="M234 246q-33 0 -47.5 -14.5t-14.5 -46.5v-66h291v-119h-427v192q0 165 165 165h64q62 0 62 61v66h-271v119h407v-192q0 -165 -165 -165h-64zM328 754v-87h-133v87h133z" />
    <glyph glyph-name="Zcaron" unicode="&#x17d;" horiz-adv-x="556" 
d="M296 412q41 0 58 16.5t17 57.5v90h-305v124h447v-237q0 -175 -175 -175h-80q-42 0 -58.5 -16t-16.5 -58v-90h330v-124h-472v237q0 175 174 175h81zM219 850l69 -53l69 53h100l-104 -101h-131l-104 101h101z" />
    <glyph glyph-name="zcaron" unicode="&#x17e;" horiz-adv-x="501" 
d="M234 246q-33 0 -47.5 -14.5t-14.5 -46.5v-66h291v-119h-427v192q0 165 165 165h64q62 0 62 61v66h-271v119h407v-192q0 -165 -165 -165h-64zM193 763l69 -53l69 53h100l-104 -101h-131l-104 101h101z" />
    <glyph glyph-name="florin" unicode="&#x192;" 
d="M473 412v-124h-182v-150q0 -73 -32.5 -105.5t-105.5 -32.5h-116v124h59q31 0 42 11.5t11 41.5v111h-112v124h112v143q0 74 35 109.5t110 35.5h259v-124h-207q-30 0 -42.5 -12.5t-12.5 -42.5v-109h182z" />
    <glyph glyph-name="AEacute" unicode="&#x1fc;" horiz-adv-x="898" 
d="M398 0v288h-196v-288h-143v555q0 145 146 145h655v-124h-322v-164h232v-124h-232v-164h322v-124h-462zM257 576q-30 0 -42.5 -13t-12.5 -44v-107h196v164h-141zM609 850l-115 -101h-103l89 101h129z" />
    <glyph glyph-name="aeacute" unicode="&#x1fd;" horiz-adv-x="767" 
d="M596 403v34q0 47 -46 47h-42q-30 0 -43 -13.5t-13 -42.5v-71h98q25 0 35.5 10.5t10.5 35.5zM171 199v-33q0 -47 46 -47h42q30 0 43 13.5t13 42.5v71h-98q-25 0 -35.5 -11t-10.5 -36zM245 0h-83q-65 0 -96.5 32t-31.5 99v95q0 131 127 131h154v71q0 29 -13 42.5t-43 13.5
h-195v119h181q65 0 98 -25t40 -80q8 56 40.5 80.5t98.5 24.5h83q65 0 96.5 -32t31.5 -99v-95q0 -67 -31 -99t-96 -32h-154v-71q0 -30 13.5 -43t42.5 -13h195v-119h-181q-66 0 -98.5 24.5t-40.5 80.5q-7 -55 -40 -80t-98 -25zM523 763l-115 -101h-103l89 101h129z" />
    <glyph glyph-name="Oslashacute" unicode="&#x1fe;" horiz-adv-x="591" 
d="M198 0q-146 0 -146 145v410q0 145 146 145h195q146 0 146 -145v-410q0 -145 -146 -145h-195zM397 181v338q0 13 -3 24l-174 -415q11 -4 29 -4h92q31 0 43.5 13t12.5 44zM194 519v-353l171 407q-11 3 -24 3h-92q-30 0 -42.5 -13t-12.5 -44zM435 850l-115 -101h-103l89 101
h129z" />
    <glyph glyph-name="oslashacute" unicode="&#x1ff;" horiz-adv-x="524" 
d="M336 603q73 0 107 -34.5t34 -108.5v-317q0 -74 -34 -108.5t-107 -34.5h-148q-73 0 -107.5 34.5t-34.5 108.5v317q0 74 34.5 108.5t107.5 34.5h148zM285 119q30 0 43 13.5t13 42.5v253q0 22 -7 33l-113 -341q5 -1 18 -1h46zM183 175q0 -19 6 -33l111 341q-4 1 -15 1h-46
q-30 0 -43 -13.5t-13 -42.5v-253zM401 763l-115 -101h-103l89 101h129z" />
    <glyph glyph-name="uni0218" unicode="&#x218;" horiz-adv-x="548" 
d="M189 288q-75 0 -110 35.5t-35 108.5v124q0 74 35 109t110 35h293v-124h-242q-29 0 -41.5 -13t-12.5 -43v-53q0 -30 12.5 -42.5t41.5 -12.5h122q75 0 110 -35.5t35 -108.5v-124q0 -74 -34.5 -109t-109.5 -35h-324v124h273q28 0 40.5 13t12.5 43v53q0 30 -12 42.5t-41 12.5
h-123zM335 -74v-65q0 -45 -23.5 -70.5t-68.5 -25.5h-31v36h25q36 0 36 39v7h-61v79h123z" />
    <glyph glyph-name="uni0219" unicode="&#x219;" horiz-adv-x="493" 
d="M429 484h-208q-25 0 -35.5 -11t-10.5 -36v-34q0 -46 46 -46h111q127 0 127 -131v-95q0 -67 -31.5 -99t-96.5 -32h-293v119h238q46 0 46 47v28q0 52 -46 52h-110q-65 0 -96.5 32t-31.5 99v95q0 67 31 99t96 32h264v-119zM297 -74v-65q0 -45 -23.5 -70.5t-68.5 -25.5h-31
v36h25q36 0 36 39v7h-61v79h123z" />
    <glyph glyph-name="uni021A" unicode="&#x21a;" horiz-adv-x="521" 
d="M505 700v-124h-173v-576h-142v576h-173v124h488zM322 -74v-65q0 -45 -23.5 -70.5t-68.5 -25.5h-31v36h25q36 0 36 39v7h-61v79h123z" />
    <glyph glyph-name="uni021B" unicode="&#x21b;" horiz-adv-x="406" 
d="M196 0q-75 0 -109.5 34.5t-34.5 108.5v627h137v-167h181v-119h-181v-309q0 -56 56 -56h125v-119h-174zM264 -74v-65q0 -45 -23.5 -70.5t-68.5 -25.5h-31v36h25q36 0 36 39v7h-61v79h123z" />
    <glyph glyph-name="uni0237" unicode="&#x237;" horiz-adv-x="276" 
d="M-14 -48h36q29 0 39 10t10 40v601h137v-631q0 -73 -33 -106t-108 -33h-81v119z" />
    <glyph glyph-name="circumflex" unicode="&#x2c6;" horiz-adv-x="243" 
d="M122 714l-69 -52h-101l104 101h131l104 -101h-100z" />
    <glyph glyph-name="caron" unicode="&#x2c7;" horiz-adv-x="243" 
d="M53 763l69 -53l69 53h100l-104 -101h-131l-104 101h101z" />
    <glyph glyph-name="breve" unicode="&#x2d8;" horiz-adv-x="243" 
d="M-7 702v75q38 -50 129 -50t128 50v-75q-39 -49 -128 -49q-90 0 -129 49z" />
    <glyph glyph-name="dotaccent" unicode="&#x2d9;" horiz-adv-x="243" 
d="M188 754v-87h-133v87h133z" />
    <glyph glyph-name="ring" unicode="&#x2da;" horiz-adv-x="243" 
d="M75 727q0 -24 26 -24h41q26 0 26 24q0 25 -26 25h-41q-26 0 -26 -25zM134 657h-24q-47 0 -66 17.5t-19 52.5t19 53t66 18h24q46 0 65 -18t19 -53t-19 -52.5t-65 -17.5z" />
    <glyph glyph-name="ogonek" unicode="&#x2db;" horiz-adv-x="250" 
d="M219 -62h-25q-61 0 -93.5 -3t-43 -8t-10.5 -15q0 -13 34 -13h174v-75h-166q-46 0 -70 13t-24 46q0 45 40 61.5t149 16.5h10v39h25v-62z" />
    <glyph glyph-name="tilde" unicode="&#x2dc;" horiz-adv-x="243" 
d="M-7 653v77q35 36 71 36q22 0 62 -19t59 -19q34 0 65 40v-77q-36 -41 -73 -41q-23 0 -63 20.5t-60 20.5q-31 0 -61 -38z" />
    <glyph glyph-name="hungarumlaut" unicode="&#x2dd;" horiz-adv-x="243" 
d="M328 763l-115 -101h-103l89 101h129zM142 763l-115 -101h-103l89 101h129z" />
    <glyph glyph-name="pi" unicode="&#x3c0;" 
d="M69 0v603h432v-603h-137v484h-158v-484h-137z" />
    <glyph glyph-name="uni1E02" unicode="&#x1e02;" horiz-adv-x="598" 
d="M552 218v-78q0 -73 -34 -106.5t-107 -33.5h-345v700h345q73 0 107 -33.5t34 -106.5v-78q0 -63 -24.5 -94t-81.5 -38q56 -7 81 -38.5t25 -93.5zM356 412q30 0 42 12.5t12 43.5v52q0 30 -12.5 43t-40.5 13h-149v-164h148zM208 288v-164h149q28 0 40.5 13t12.5 43v52
q0 31 -12 43.5t-42 12.5h-148zM368 841v-87h-133v87h133z" />
    <glyph glyph-name="uni1E03" unicode="&#x1e03;" horiz-adv-x="532" 
d="M52 143v627h137v-245q10 40 39 59t84 19h32q73 0 107.5 -34.5t34.5 -108.5v-317q0 -74 -34.5 -108.5t-107.5 -34.5h-150q-73 0 -107.5 34.5t-34.5 108.5zM189 428v-253q0 -56 56 -56h48q56 0 56 56v253q0 56 -56 56h-48q-56 0 -56 -56zM399 754v-87h-133v87h133z" />
    <glyph glyph-name="uni1E0A" unicode="&#x1e0a;" horiz-adv-x="598" 
d="M351 700q99 0 150 -51t51 -150v-298q0 -99 -51 -150t-150 -51h-285v700h285zM319 124q91 0 91 92v268q0 92 -91 92h-111v-452h111zM358 841v-87h-133v87h133z" />
    <glyph glyph-name="uni1E0B" unicode="&#x1e0b;" horiz-adv-x="532" 
d="M479 770v-627q0 -74 -34 -108.5t-107 -34.5h-150q-73 0 -107.5 34.5t-34.5 108.5v317q0 74 34.5 108.5t107.5 34.5h32q55 0 84 -19t39 -59v245h136zM343 175v253q0 56 -56 56h-48q-56 0 -56 -56v-253q0 -56 56 -56h48q56 0 56 56zM258 754v-87h-133v87h133z" />
    <glyph glyph-name="uni1E1E" unicode="&#x1e1e;" horiz-adv-x="541" 
d="M66 0v700h458v-124h-316v-164h226v-124h-226v-288h-142zM357 841v-87h-133v87h133z" />
    <glyph glyph-name="uni1E1F" unicode="&#x1e1f;" horiz-adv-x="454" 
d="M258 484q-36 0 -52.5 -16t-16.5 -53v-54h203v-119h-203v-242h-137v438q0 85 40.5 125t125.5 40h219v-119h-179zM325 754v-87h-133v87h133z" />
    <glyph glyph-name="uni1E40" unicode="&#x1e40;" horiz-adv-x="882" 
d="M586 700h91q146 0 146 -145v-555h-142v519q0 31 -12.5 44t-43.5 13h-58q-30 0 -42.5 -13t-12.5 -44v-519h-142v519q0 31 -12.5 44t-42.5 13h-58q-30 0 -42.5 -13t-12.5 -44v-519h-143v555q0 145 146 145h91q69 0 103 -24.5t42 -80.5q8 56 42 80.5t103 24.5zM507 841v-87
h-133v87h133z" />
    <glyph glyph-name="uni1E41" unicode="&#x1e41;" horiz-adv-x="816" 
d="M408 498q8 56 40.5 80.5t98.5 24.5h75q73 0 107.5 -34.5t34.5 -108.5v-460h-137v428q0 29 -13 42.5t-43 13.5h-39q-30 0 -43 -13.5t-13 -42.5v-428h-136v428q0 29 -13 42.5t-43 13.5h-39q-30 0 -43 -13.5t-13 -42.5v-428h-137v460q0 74 34.5 108.5t107.5 34.5h75
q66 0 98.5 -24.5t40.5 -80.5zM474 754v-87h-133v87h133z" />
    <glyph glyph-name="uni1E56" unicode="&#x1e56;" horiz-adv-x="576" 
d="M66 0v700h340q75 0 109.5 -35t34.5 -109v-125q0 -73 -34.5 -108t-109.5 -35h-198v-288h-142zM408 520q0 30 -12.5 43t-40.5 13h-147v-164h147q29 0 41 12.5t12 42.5v53zM363 841v-87h-133v87h133z" />
    <glyph glyph-name="uni1E57" unicode="&#x1e57;" horiz-adv-x="532" 
d="M52 -167v627q0 74 34.5 108.5t107.5 34.5h150q73 0 107.5 -34.5t34.5 -108.5v-317q0 -74 -34.5 -108.5t-107.5 -34.5h-32q-55 0 -84 19t-39 59v-245h-137zM189 428v-253q0 -56 56 -56h48q56 0 56 56v253q0 56 -56 56h-48q-56 0 -56 -56zM332 754v-87h-133v87h133z" />
    <glyph glyph-name="uni1E60" unicode="&#x1e60;" horiz-adv-x="548" 
d="M189 288q-75 0 -110 35.5t-35 108.5v124q0 74 35 109t110 35h293v-124h-242q-29 0 -41.5 -13t-12.5 -43v-53q0 -30 12.5 -42.5t41.5 -12.5h122q75 0 110 -35.5t35 -108.5v-124q0 -74 -34.5 -109t-109.5 -35h-324v124h273q28 0 40.5 13t12.5 43v53q0 30 -12 42.5t-41 12.5
h-123zM340 841v-87h-133v87h133z" />
    <glyph glyph-name="uni1E61" unicode="&#x1e61;" horiz-adv-x="493" 
d="M429 484h-208q-25 0 -35.5 -11t-10.5 -36v-34q0 -46 46 -46h111q127 0 127 -131v-95q0 -67 -31.5 -99t-96.5 -32h-293v119h238q46 0 46 47v28q0 52 -46 52h-110q-65 0 -96.5 32t-31.5 99v95q0 67 31 99t96 32h264v-119zM313 754v-87h-133v87h133z" />
    <glyph glyph-name="uni1E6A" unicode="&#x1e6a;" horiz-adv-x="521" 
d="M505 700v-124h-173v-576h-142v576h-173v124h488zM327 841v-87h-133v87h133z" />
    <glyph glyph-name="uni1E6B" unicode="&#x1e6b;" horiz-adv-x="406" 
d="M196 0q-75 0 -109.5 34.5t-34.5 108.5v627h137v-167h181v-119h-181v-309q0 -56 56 -56h125v-119h-174zM362 754v-87h-133v87h133z" />
    <glyph glyph-name="Wgrave" unicode="&#x1e80;" horiz-adv-x="882" 
d="M677 0h-91q-69 0 -103 24.5t-42 80.5q-8 -56 -42 -80.5t-103 -24.5h-91q-146 0 -146 145v555h143v-519q0 -31 12.5 -44t42.5 -13h58q30 0 42.5 13t12.5 44v519h142v-519q0 -31 12.5 -44t42.5 -13h58q31 0 43.5 13t12.5 44v519h142v-555q0 -145 -146 -145zM415 749
l-111 101h124l90 -101h-103z" />
    <glyph glyph-name="wgrave" unicode="&#x1e81;" horiz-adv-x="816" 
d="M408 105q-8 -56 -40.5 -80.5t-98.5 -24.5h-75q-73 0 -107.5 34.5t-34.5 108.5v460h137v-428q0 -29 13 -42.5t43 -13.5h39q30 0 43 13.5t13 42.5v428h136v-428q0 -29 13 -42.5t43 -13.5h39q30 0 43 13.5t13 42.5v428h137v-460q0 -74 -34.5 -108.5t-107.5 -34.5h-75
q-66 0 -98.5 24.5t-40.5 80.5zM382 662l-111 101h124l90 -101h-103z" />
    <glyph glyph-name="Wacute" unicode="&#x1e82;" horiz-adv-x="882" 
d="M677 0h-91q-69 0 -103 24.5t-42 80.5q-8 -56 -42 -80.5t-103 -24.5h-91q-146 0 -146 145v555h143v-519q0 -31 12.5 -44t42.5 -13h58q30 0 42.5 13t12.5 44v519h142v-519q0 -31 12.5 -44t42.5 -13h58q31 0 43.5 13t12.5 44v519h142v-555q0 -145 -146 -145zM580 850
l-115 -101h-103l89 101h129z" />
    <glyph glyph-name="wacute" unicode="&#x1e83;" horiz-adv-x="816" 
d="M408 105q-8 -56 -40.5 -80.5t-98.5 -24.5h-75q-73 0 -107.5 34.5t-34.5 108.5v460h137v-428q0 -29 13 -42.5t43 -13.5h39q30 0 43 13.5t13 42.5v428h136v-428q0 -29 13 -42.5t43 -13.5h39q30 0 43 13.5t13 42.5v428h137v-460q0 -74 -34.5 -108.5t-107.5 -34.5h-75
q-66 0 -98.5 24.5t-40.5 80.5zM547 763l-115 -101h-103l89 101h129z" />
    <glyph glyph-name="Wdieresis" unicode="&#x1e84;" horiz-adv-x="882" 
d="M677 0h-91q-69 0 -103 24.5t-42 80.5q-8 -56 -42 -80.5t-103 -24.5h-91q-146 0 -146 145v555h143v-519q0 -31 12.5 -44t42.5 -13h58q30 0 42.5 13t12.5 44v519h142v-519q0 -31 12.5 -44t42.5 -13h58q31 0 43.5 13t12.5 44v519h142v-555q0 -145 -146 -145zM398 841v-87
h-132v87h132zM615 841v-87h-132v87h132z" />
    <glyph glyph-name="wdieresis" unicode="&#x1e85;" horiz-adv-x="816" 
d="M408 105q-8 -56 -40.5 -80.5t-98.5 -24.5h-75q-73 0 -107.5 34.5t-34.5 108.5v460h137v-428q0 -29 13 -42.5t43 -13.5h39q30 0 43 13.5t13 42.5v428h136v-428q0 -29 13 -42.5t43 -13.5h39q30 0 43 13.5t13 42.5v428h137v-460q0 -74 -34.5 -108.5t-107.5 -34.5h-75
q-66 0 -98.5 24.5t-40.5 80.5zM365 754v-87h-132v87h132zM582 754v-87h-132v87h132z" />
    <glyph glyph-name="Ygrave" unicode="&#x1ef2;" horiz-adv-x="579" 
d="M399 700h142v-267q0 -73 -35.5 -109t-109.5 -36h-35v-288h-143v288h-35q-74 0 -109.5 36t-35.5 109v267h142v-232q0 -31 12.5 -43.5t43.5 -12.5h107q31 0 43.5 12.5t12.5 43.5v232zM263 749l-111 101h124l90 -101h-103z" />
    <glyph glyph-name="ygrave" unicode="&#x1ef3;" horiz-adv-x="544" 
d="M282 -167h-188v119h167q46 0 67 20t21 67v74q-10 -40 -38.5 -58.5t-83.5 -18.5h-33q-73 0 -107.5 34.5t-34.5 108.5v424h137v-392q0 -56 56 -56h48q56 0 56 56v392h137v-566q0 -105 -49 -154.5t-155 -49.5zM246 662l-111 101h124l90 -101h-103z" />
    <glyph glyph-name="uni2010" unicode="&#x2010;" horiz-adv-x="379" 
d="M345 388v-122h-310v122h310z" />
    <glyph glyph-name="figuredash" unicode="&#x2012;" 
d="M571 388v-122h-571v122h571z" />
    <glyph glyph-name="endash" unicode="&#x2013;" horiz-adv-x="500" 
d="M500 388v-122h-500v122h500z" />
    <glyph glyph-name="emdash" unicode="&#x2014;" horiz-adv-x="1000" 
d="M1000 388v-122h-1000v122h1000z" />
    <glyph glyph-name="quoteleft" unicode="&#x2018;" horiz-adv-x="285" 
d="M63 443v117q0 67 33.5 103.5t99.5 36.5h25v-63h-21q-25 0 -36 -11t-11 -41v-25h68v-117h-158z" />
    <glyph glyph-name="quoteright" unicode="&#x2019;" horiz-adv-x="285" 
d="M222 700v-117q0 -67 -33.5 -103.5t-99.5 -36.5h-25v63h21q25 0 36 11t11 41v25h-68v117h158z" />
    <glyph glyph-name="quotesinglbase" unicode="&#x201a;" horiz-adv-x="285" 
d="M222 118v-117q0 -67 -33.5 -103.5t-99.5 -36.5h-25v63h21q25 0 36 11t11 41v25h-68v117h158z" />
    <glyph glyph-name="quotedblleft" unicode="&#x201c;" horiz-adv-x="512" 
d="M290 443v117q0 67 33.5 103.5t99.5 36.5h25v-63h-21q-25 0 -36 -11t-11 -41v-25h68v-117h-158zM63 443v117q0 67 33.5 103.5t99.5 36.5h25v-63h-21q-25 0 -36 -11t-11 -41v-25h68v-117h-158z" />
    <glyph glyph-name="quotedblright" unicode="&#x201d;" horiz-adv-x="512" 
d="M449 700v-117q0 -67 -33.5 -103.5t-99.5 -36.5h-25v63h21q25 0 36 11t11 41v25h-68v117h158zM222 700v-117q0 -67 -33.5 -103.5t-99.5 -36.5h-25v63h21q25 0 36 11t11 41v25h-68v117h158z" />
    <glyph glyph-name="quotedblbase" unicode="&#x201e;" horiz-adv-x="512" 
d="M449 118v-117q0 -67 -33.5 -103.5t-99.5 -36.5h-25v63h21q25 0 36 11t11 41v25h-68v117h158zM222 118v-117q0 -67 -33.5 -103.5t-99.5 -36.5h-25v63h21q25 0 36 11t11 41v25h-68v117h158z" />
    <glyph glyph-name="dagger" unicode="&#x2020;" horiz-adv-x="541" 
d="M511 525v-124h-170v-533h-142v533h-170v124h170v215h142v-215h170z" />
    <glyph glyph-name="daggerdbl" unicode="&#x2021;" horiz-adv-x="541" 
d="M511 250v-124h-170v-258h-142v258h-170v124h170v151h-170v124h170v215h142v-215h170v-124h-170v-151h170z" />
    <glyph glyph-name="bullet" unicode="&#x2022;" horiz-adv-x="500" 
d="M302 150h-104q-144 0 -144 136v128q0 136 144 136h104q144 0 144 -136v-128q0 -136 -144 -136z" />
    <glyph glyph-name="ellipsis" unicode="&#x2026;" horiz-adv-x="738" 
d="M222 118v-118h-158v118h158zM449 118v-118h-158v118h158zM675 118v-118h-158v118h158z" />
    <glyph glyph-name="perthousand" unicode="&#x2030;" horiz-adv-x="1561" 
d="M403 0l199 700h106l-199 -700h-106zM680 125v284q0 64 30.5 94.5t94.5 30.5h136q64 0 94.5 -30.5t30.5 -94.5v-284q0 -64 -30.5 -94.5t-94.5 -30.5h-136q-64 0 -94.5 30.5t-30.5 94.5zM947 149v236q0 44 -43 44h-61q-23 0 -33.5 -10t-10.5 -34v-236q0 -24 10.5 -34
t33.5 -10h61q43 0 43 44zM1130 125v284q0 64 30.5 94.5t94.5 30.5h136q64 0 94.5 -30.5t30.5 -94.5v-284q0 -64 -30.5 -94.5t-94.5 -30.5h-136q-64 0 -94.5 30.5t-30.5 94.5zM1397 149v236q0 44 -43 44h-61q-23 0 -33.5 -10t-10.5 -34v-236q0 -24 10.5 -34t33.5 -10h61
q43 0 43 44zM45 291v284q0 64 30.5 94.5t94.5 30.5h136q64 0 94.5 -30.5t30.5 -94.5v-284q0 -64 -30.5 -94.5t-94.5 -30.5h-136q-64 0 -94.5 30.5t-30.5 94.5zM312 315v236q0 44 -43 44h-61q-23 0 -33.5 -10t-10.5 -34v-236q0 -24 10.5 -34t33.5 -10h61q43 0 43 44z" />
    <glyph glyph-name="guilsinglleft" unicode="&#x2039;" horiz-adv-x="318" 
d="M298 51h-140l-138 249l138 249h140l-142 -249z" />
    <glyph glyph-name="guilsinglright" unicode="&#x203a;" horiz-adv-x="318" 
d="M160 51h-140l142 249l-142 249h140l138 -249z" />
    <glyph glyph-name="fraction" unicode="&#x2044;" horiz-adv-x="349" 
d="M22 0l199 700h106l-199 -700h-106z" />
    <glyph glyph-name="zerosuperior" unicode="&#x2070;" horiz-adv-x="476" 
d="M45 291v284q0 64 30.5 94.5t94.5 30.5h136q64 0 94.5 -30.5t30.5 -94.5v-284q0 -64 -30.5 -94.5t-94.5 -30.5h-136q-64 0 -94.5 30.5t-30.5 94.5zM312 315v236q0 44 -43 44h-61q-23 0 -33.5 -10t-10.5 -34v-236q0 -24 10.5 -34t33.5 -10h61q43 0 43 44z" />
    <glyph glyph-name="foursuperior" unicode="&#x2074;" horiz-adv-x="476" 
d="M299 485v215h119v-534h-119v215h-141q-64 0 -94.5 30.5t-30.5 93.5v195h120v-171q0 -44 43 -44h103z" />
    <glyph glyph-name="zeroinferior" unicode="&#x2080;" horiz-adv-x="476" 
d="M45 125v284q0 64 30.5 94.5t94.5 30.5h136q64 0 94.5 -30.5t30.5 -94.5v-284q0 -64 -30.5 -94.5t-94.5 -30.5h-136q-64 0 -94.5 30.5t-30.5 94.5zM312 149v236q0 44 -43 44h-61q-23 0 -33.5 -10t-10.5 -34v-236q0 -24 10.5 -34t33.5 -10h61q43 0 43 44z" />
    <glyph glyph-name="oneinferior" unicode="&#x2081;" horiz-adv-x="476" 
d="M99 0v105h119v324h-119v105h238v-429h91v-105h-329z" />
    <glyph glyph-name="twoinferior" unicode="&#x2082;" horiz-adv-x="476" 
d="M325 365v20q0 25 -10 35t-34 10h-223v105h262q64 0 94 -30.5t30 -94.5v-70q0 -64 -30 -94.5t-94 -30.5h-100q-37 0 -51 -13.5t-14 -50.5v-46h289v-104h-408v168q0 151 151 151h94q24 0 34 10t10 35z" />
    <glyph glyph-name="threeinferior" unicode="&#x2083;" horiz-adv-x="476" 
d="M440 412v-36q0 -48 -18 -75t-70 -34q52 -7 70 -34t18 -75v-36q0 -63 -29 -92.5t-92 -29.5h-287v105h245q24 0 34 10t10 35v20q0 45 -43 45h-170v104h170q43 0 43 45v20q0 25 -10 35t-34 10h-245v105h287q63 0 92 -29.5t29 -92.5z" />
    <glyph glyph-name="fourinferior" unicode="&#x2084;" horiz-adv-x="476" 
d="M299 319v215h119v-534h-119v215h-141q-64 0 -94.5 30.5t-30.5 93.5v195h120v-171q0 -44 43 -44h103z" />
    <glyph glyph-name="Euro" unicode="&#x20ac;" 
d="M233 0q-74 0 -109.5 36t-35.5 109v143h-70v124h70v143q0 73 35.5 109t109.5 36h300v-124h-248q-30 0 -42.5 -13t-12.5 -44v-107h216v-124h-216v-107q0 -31 12.5 -44t42.5 -13h248v-124h-300z" />
    <glyph glyph-name="uni2117" unicode="&#x2117;" horiz-adv-x="715" 
d="M312 377h90q19 0 19 19v40q0 19 -19 19h-90v-78zM486 449v-65q0 -62 -60 -62h-114v-134h-65v323h179q60 0 60 -62zM219 0q-86 0 -126.5 41t-40.5 125v368q0 84 40.5 125t126.5 41h277q86 0 126.5 -41t40.5 -125v-368q0 -84 -40.5 -125t-126.5 -41h-277zM223 60h269
q103 0 103 103v374q0 103 -103 103h-269q-103 0 -103 -103v-374q0 -103 103 -103z" />
    <glyph glyph-name="trademark" unicode="&#x2122;" horiz-adv-x="1097" 
d="M664 167v379q0 26 -10.5 37.5t-35.5 11.5h-51q-23 0 -33 -9.5t-10 -33.5v-385h-119v417q0 116 116 116h84q56 0 84 -22t35 -71q7 49 34.5 71t84.5 22h84q116 0 116 -116v-417h-119v385q0 24 -10 33.5t-33 9.5h-51q-25 0 -35.5 -11.5t-10.5 -37.5v-379h-120zM351 700v-105
h-105v-428h-119v428h-104v105h328z" />
    <glyph glyph-name="uni2126" unicode="&#x2126;" 
d="M384 408v112q0 30 -12.5 43t-40.5 13h-91q-29 0 -41.5 -13t-12.5 -43v-112q0 -30 12.5 -43t41.5 -13h12v-352h-213v124h111v107q-106 16 -106 142v183q0 74 35 109t110 35h192q75 0 110 -35t35 -109v-183q0 -126 -106 -142v-107h111v-124h-213v352h13q28 0 40.5 13
t12.5 43z" />
    <glyph glyph-name="onethird" unicode="&#x2153;" horiz-adv-x="1111" 
d="M99 166v105h119v324h-119v105h238v-429h91v-105h-329zM403 0l199 700h106l-199 -700h-106zM1075 412v-36q0 -48 -18 -75t-70 -34q52 -7 70 -34t18 -75v-36q0 -63 -29 -92.5t-92 -29.5h-287v105h245q24 0 34 10t10 35v20q0 45 -43 45h-170v104h170q43 0 43 45v20
q0 25 -10 35t-34 10h-245v105h287q63 0 92 -29.5t29 -92.5z" />
    <glyph glyph-name="twothirds" unicode="&#x2154;" horiz-adv-x="1111" 
d="M325 531v20q0 25 -10 35t-34 10h-223v105h262q64 0 94 -30.5t30 -94.5v-70q0 -64 -30 -94.5t-94 -30.5h-100q-37 0 -51 -13.5t-14 -50.5v-46h289v-104h-408v168q0 151 151 151h94q24 0 34 10t10 35zM403 0l199 700h106l-199 -700h-106zM1075 412v-36q0 -48 -18 -75
t-70 -34q52 -7 70 -34t18 -75v-36q0 -63 -29 -92.5t-92 -29.5h-287v105h245q24 0 34 10t10 35v20q0 45 -43 45h-170v104h170q43 0 43 45v20q0 25 -10 35t-34 10h-245v105h287q63 0 92 -29.5t29 -92.5z" />
    <glyph glyph-name="partialdiff" unicode="&#x2202;" 
d="M521 499v-355q0 -74 -34.5 -109t-109.5 -35h-193q-74 0 -109 35t-35 109v124q0 73 35 108.5t109 35.5h194v72q0 92 -91 92h-222v124h255q98 0 149.5 -51t51.5 -150zM182 233v-53q0 -30 12.5 -43t40.5 -13h89q29 0 41.5 13t12.5 43v108h-143q-29 0 -41 -12.5t-12 -42.5z
" />
    <glyph glyph-name="uni2206" unicode="&#x2206;" 
d="M30 0l255 714l255 -714h-510zM285 381l-98 -275h196z" />
    <glyph glyph-name="product" unicode="&#x220f;" 
d="M377 -132v708h-183v-708h-142v832h467v-832h-142z" />
    <glyph glyph-name="summation" unicode="&#x2211;" 
d="M519 -8v-124h-467v115l245 301l-245 301v115h467v-124h-307l238 -292l-238 -292h307z" />
    <glyph glyph-name="minus" unicode="&#x2212;" 
d="M52 291v118h467v-118h-467z" />
    <glyph glyph-name="radical" unicode="&#x221a;" 
d="M212 0l-75 291h-85v118h178l63 -254l135 545h124l-177 -700h-163z" />
    <glyph glyph-name="infinity" unicode="&#x221e;" horiz-adv-x="733" 
d="M345 317q-12 0 -23.5 12.5t-14.5 12.5t-11 -2t-14 -2q-8 0 -14.5 8t-6.5 17q0 22 8 35q-7 -7 -16 -37t-26 -41q-18 -12 -18 -40q0 -11 11 -21.5t11 -12.5q0 -4 -3 -4q-7 0 -12 5q13 -68 48 -104h-55q-35 114 -35 226q0 105 40.5 171.5t135.5 66.5q190 0 190 -254
q0 -75 -25 -210h-73q53 47 62 117q-4 -8 -13 -8q-3 0 -3 2l4 4q5 3 9.5 11.5t4.5 21.5q-4 -6 -15 -6q-1 0 -10.5 -4.5t-15.5 -4.5q-14 0 -40 3.5t-70 3.5q-22 0 -52.5 -6t-38.5 -6q-5 0 -13 2t-11 2q-28 0 -28 12q0 10 37 18.5t74 8.5q5 0 12 -0.5t12 -0.5t15.5 2t14.5 2
q112 0 127 -20q-1 16 -14 29t-30 13q-6 0 -6 7q0 57 -16 58q4 -7 4 -17q0 -18 -11 -32t-27 -14q-4 0 -10 2l-7 2q-1 0 -14.5 -14t-27.5 -14zM733 291v-148q-22 48 -69 112.5t-67 64.5q6 -85 -12 -177h-42q16 104 16 199q0 319 -213 319q-53 0 -91.5 -26.5t-59 -72.5
t-30 -97.5t-9.5 -111.5q0 -123 29 -210h-47q-19 67 -19 184q-17 -9 -39.5 -43.5t-49 -84.5t-30.5 -56v148q11 27 33 54t50 53.5t30 28.5q3 72 27 135t75.5 107.5t120.5 44.5q67 0 115.5 -22.5t76.5 -64t42.5 -87t22.5 -105.5q22 -5 68 -48t72 -96zM345 503q-3 3 -3 6
q0 2 2 2q1 0 6 -4.5t15 -8.5t22 -4q16 0 29 4t20 8l6 5q4 0 4 -2l-8 -8q24 0 52 -11q-29 80 -139 80q-55 0 -92 -33t-50 -85q37 20 41 39q-6 4 -6 7q0 4 3 4l2 -2q2 -1 6.5 -3.5t10 -5t13.5 -4t17 -1.5q24 0 49 17zM371 416q0 20 -4.5 40t-9.5 20q-10 0 -19 -39t-14 -39
q-3 0 -9.5 3t-11.5 3q-13 0 -21 -10.5t-8 -24.5t11 -14t18 6.5t9 6.5t12 -13.5t20 -13.5q14 0 25 10.5t12 10.5q3 0 10 -3.5t9 -3.5q10 0 18 11t8 24q0 10 -6 18t-16 8q-7 0 -14.5 -6.5t-11.5 -6.5q-7 0 -7 13zM510 318q0 95 -12 147l-5 3q0 -21 -18 -32t-41 -11
q-21 0 -37 12.5t-16 29.5q0 6 2 9q-12 2 -15 4q6 -9 10 -24t5.5 -24t4.5 -9q7 2 15 2q19 0 31 -14q34 0 34 -51q0 -3 8 -7t18.5 -13t15.5 -22zM383 310q-1 0 -8 -1t-15.5 -2t-13.5 -1t-13 1.5t-11 1.5q-15 0 -36 -4t-35 -9t-14 -8q0 -10 20 -10q24 0 54 6.5t44 6.5
q19 0 57.5 -3.5t52.5 -3.5q5 0 9.5 2t7.5 4t3 3q0 5 -36 11t-66 6zM267 413q-18 0 -31 10t-15 21q-4 -2 -15 -5q-4 -21 -4 -43q0 -50 3 -78q4 6 22 22t20 31q5 37 38 41q12 5 23 5q5 0 8.5 8.5t9.5 24.5t16 28l-13 -4q-1 -24 -18.5 -42.5t-43.5 -18.5zM419 465q-13 0 -16 13
q-5 0 -8.5 -5.5t-3.5 -9.5q0 -10 15 -17t31 -7q14 0 29 8.5t15 21.5q0 8 -14.5 12.5t-28.5 4.5q-5 -21 -19 -21zM267 427q14 0 30 11t16 24q0 6 -1 9q-20 0 -27 1q-5 -14 -18 -14q-10 0 -15 5q-4 -4 -18 -12q4 -24 33 -24zM266 288q-2 0 -2 3q0 12 107 12q93 0 93 -8
q0 -3 -3 -3q-1 0 -4 0.5t-10 1t-16 1.5t-24.5 1.5t-33.5 0.5q-36 0 -61 -2.5t-36 -4.5zM305 262q0 10 63 10q31 0 31 -8q0 -3 -2 -3q-4 0 -10 2t-10 2q-11 0 -26 -0.5t-20 -0.5q-4 0 -11.5 -3t-10.5 -3q-4 0 -4 4zM417 473q9 0 9 13q-1 0 -16 -6q0 -7 7 -7zM266 466
q7 0 10 9q-6 1 -11 4q0 -4 -6 -10q1 -3 7 -3zM325 34l-3 48l-10 -82h-21l15 125h25l4 -60l21 60h26l-15 -125h-22l10 82l-16 -48h-14zM21 125h35q23 0 20 -21l-10 -82q-3 -22 -22 -22h-38zM282 44q-1 -12 -10 -17l8 -27h-21l-7 23h-7l-3 -23h-22l15 125h36q21 0 18 -24z
M183 0l3 23h-14l-3 -23h-21l12 104q2 21 22 21h17q19 0 18 -21l-12 -104h-22zM594 0l15 125h35q23 0 20 -21l-8 -62q-3 -19 -22 -19h-15l-3 -23h-22zM111 0l3 23h-13l-3 -23h-22l15 125h22l-10 -83h13l10 83h22l-15 -125h-22zM539 125h22l-10 -79q0 -4 4 -4h5q5 0 5 4l9 79
h22l-10 -81q-3 -21 -19 -21l-9 -23h-23l9 23q-18 0 -15 21zM477 106l3 19h50l-3 -19h-13l-12 -106h-23l12 106h-14zM41 106l-11 -88h11q3 0 3 4l9 80q0 4 -4 4h-8zM629 106l-8 -64h8q5 0 5 4l7 56q0 4 -4 4h-8zM174 42h14l7 60q0 4 -4 4h-5q-5 0 -5 -4zM255 106l-8 -64h8
q5 0 5 4l7 56q0 4 -3 4h-9zM711 57l-3 -18h-19l-3 -21h27l-2 -18h-49l15 125h47l-3 -19h-24l-6 -49h20zM417 0l3 23h-14l-3 -23h-21l12 104q2 21 22 21h17q19 0 18 -21l-12 -104h-22zM408 42h14l7 60q0 4 -4 4h-5q-5 0 -5 -4z" />
    <glyph glyph-name="integral" unicode="&#x222b;" 
d="M402 516l-76 -493q-13 -79 -56 -117t-123 -38h-95v124h68q33 0 48 13.5t20 46.5l76 493q13 79 56.5 117t123.5 38h75v-124h-49q-33 0 -48 -13.5t-20 -46.5z" />
    <glyph glyph-name="approxequal" unicode="&#x2248;" 
d="M52 128v127q47 59 110 59q41 0 125.5 -34.5t124.5 -34.5q61 0 107 59v-128q-47 -59 -111 -59q-41 0 -125.5 34.5t-124.5 34.5q-61 0 -106 -58zM52 397v127q47 59 110 59q41 0 125.5 -34.5t124.5 -34.5q61 0 107 59v-128q-47 -59 -111 -59q-41 0 -125.5 34.5t-124.5 34.5
q-61 0 -106 -58z" />
    <glyph glyph-name="notequal" unicode="&#x2260;" 
d="M231 0h-118l51 157h-89v118h127l49 149h-176v118h214l52 158h117l-51 -158h88v-118h-127l-48 -149h175v-118h-213z" />
    <glyph glyph-name="lessequal" unicode="&#x2264;" 
d="M52 350l190 233h152l-147 -174h272v-118h-273l146 -173h127v-118h-467v118h188z" />
    <glyph glyph-name="greaterequal" unicode="&#x2265;" 
d="M329 583l190 -233l-188 -232h188v-118h-467v118h127l146 173h-273v118h272l-147 174h152z" />
    <glyph glyph-name="lozenge" unicode="&#x25ca;" 
d="M285 -14l-256 362l256 361l255 -361zM285 191l111 157l-111 156l-111 -156z" />
    <glyph glyph-name="commaaccent" horiz-adv-x="250" 
d="M186 -74v-65q0 -45 -23.5 -70.5t-68.5 -25.5h-31v36h25q36 0 36 39v7h-61v79h123z" />
    <glyph glyph-name="f.alt" horiz-adv-x="454" 
d="M258 484q-36 0 -52.5 -16t-16.5 -53v-54h203v-119h-203v-409h-137v605q0 85 40.5 125t125.5 40h219v-119h-179z" />
    <glyph glyph-name="i.alt" horiz-adv-x="260" 
d="M62 0v603h137v-603h-137zM210 757v-90h-160v90h160z" />
    <glyph glyph-name="i.trk" horiz-adv-x="319" 
d="M245 119h57v-119h-106q-74 0 -107 33.5t-33 105.5v464h137v-431q0 -29 11.5 -41t40.5 -12zM204 757v-90h-160v90h160z" />
    <glyph glyph-name="germandbls.alt" horiz-adv-x="557" 
d="M336 246h-86v111h86q26 0 36.5 11t10.5 37v28q0 27 -11.5 39t-38.5 12h-75q-36 0 -52.5 -16t-16.5 -53v-582h-137v605q0 84 41 124.5t125 40.5h169q68 0 100.5 -33t32.5 -102v-52q0 -52 -21.5 -80.5t-71.5 -34.5q50 -6 71.5 -34t21.5 -80v-52q0 -69 -32.5 -102
t-100.5 -33h-137v119h83q27 0 38.5 12t11.5 39v28q0 26 -10.5 37t-36.5 11z" />
    <glyph glyph-name="one.pnum" horiz-adv-x="370" 
d="M304 700v-700h-142v576h-144v124h286z" />
    </font>
</defs>
</svg>
