<?xml version="1.0" standalone="no"?>
<!DOCTYPE svg PUBLIC "-//W3C//DTD SVG 1.1//EN" "http://www.w3.org/Graphics/SVG/1.1/DTD/svg11.dtd" >
<svg xmlns="http://www.w3.org/2000/svg" xmlns:xlink="http://www.w3.org/1999/xlink" version="1.1">
<metadata>
Created by FontForge 20170731 at Sat Mar 14 00:16:18 2015
 By ,,,
Copyright (c) 2011 by Ryoichi Tsunekawa. All rights reserved.
</metadata>
<defs>
<font id="DesignSystemF-700R" horiz-adv-x="2550" >
  <font-face 
    font-family="DesignSystemF-700R"
    font-weight="400"
    font-stretch="normal"
    units-per-em="1000"
    panose-1="4 5 7 8 2 11 2 2 3 2"
    ascent="822"
    descent="-178"
    x-height="603"
    cap-height="700"
    bbox="-170 -252 4659 935"
    underline-thickness="36"
    underline-position="-156"
    unicode-range="U+0020-FB02"
  />
<missing-glyph horiz-adv-x="1203" 
d="M0 700h1203v-700h-1203v700zM67 634v-563l991 563h-991zM145 66h991v562z" />
    <glyph glyph-name="ij" unicode="ij" horiz-adv-x="574" 
d="M238 -48h69q33 0 47 14t14 47v590h136v-611q0 -83 -37.5 -121t-121.5 -38h-107v119zM345 667v90h182v-90h-182zM72 0v603h137v-603h-137zM232 757v-90h-182v90h182z" />
    <glyph glyph-name="fi" unicode="fi" horiz-adv-x="2610" 
d="M279 484q-41 0 -60 -18t-19 -61v-44h1892v-119h-1892v-242h-137v416q0 96 46 141.5t142 45.5h1917v-119h-1889zM2461 119h125v-119h-164q-84 0 -122 38.5t-38 120.5v444h137v-422q0 -33 15 -47.5t47 -14.5zM2422 757v-90h-182v90h182z" />
    <glyph glyph-name="fl" unicode="fl" horiz-adv-x="2607" 
d="M279 484q-41 0 -60 -18t-19 -61v-44h1892v-119h-1892v-242h-137v416q0 96 46 141.5t142 45.5h1917v-119h-1889zM2457 119h126v-119h-165q-83 0 -121 38.5t-38 120.5v611h137v-589q0 -33 14.5 -47.5t46.5 -14.5z" />
    <glyph glyph-name=".notdef" horiz-adv-x="1203" 
d="M0 700h1203v-700h-1203v700zM67 634v-563l991 563h-991zM145 66h991v562z" />
    <glyph glyph-name=".null" horiz-adv-x="0" 
 />
    <glyph glyph-name="nonmarkingreturn" horiz-adv-x="333" 
 />
    <glyph glyph-name="space" unicode=" " horiz-adv-x="622" 
 />
    <glyph glyph-name="exclam" unicode="!" horiz-adv-x="328" 
d="M255 104v-104h-182v104h182zM235 700v-223q0 -153 -17 -278h-108q-17 125 -17 278v223h142z" />
    <glyph glyph-name="quotedbl" unicode="&#x22;" horiz-adv-x="513" 
d="M205 700v-42q0 -110 -22 -266h-100q-21 162 -21 266v42h143zM452 700v-42q0 -110 -22 -266h-100q-21 162 -21 266v42h143z" />
    <glyph glyph-name="numbersign" unicode="#" 
d="M2216 0l7 124h-1920l-6 -124h-132l6 124h-131l7 119h130l12 214h-131l6 119h131l7 124h132l-7 -124h1919l7 124h132l-7 -124h131l-6 -119h-131l-11 -214h131l-6 -119h-131l-7 -124h-132zM321 457l-12 -214h1920l11 214h-1919z" />
    <glyph glyph-name="dollar" unicode="$" 
d="M49 169h2263q27 0 39 12t12 39v22q0 27 -12 39t-39 12h-2118q-75 0 -110 35.5t-35 111.5v63q0 76 35 112t109 36h1019v89h124v-89h1139v-119h-2238q-28 0 -39.5 -12t-11.5 -39v-22q0 -27 11.5 -39t39.5 -12h2118q75 0 109.5 -35t34.5 -112v-64q0 -76 -34.5 -111.5
t-109.5 -35.5h-1019v-90h-124v90h-1163v119z" />
    <glyph glyph-name="percent" unicode="%" horiz-adv-x="3303" 
d="M1274 0l616 700h140l-616 -700h-140zM1939 125v284q0 64 30 94.5t94 30.5h1059q64 0 94.5 -30.5t30.5 -94.5v-284q0 -64 -30.5 -94.5t-94.5 -30.5h-1059q-64 0 -94 30.5t-30 94.5zM3127 149v236q0 24 -10 34t-33 10h-982q-23 0 -33.5 -10t-10.5 -34v-236q0 -24 10.5 -34
t33.5 -10h982q23 0 33 10t10 34zM56 291v284q0 64 30 94.5t94 30.5h1059q64 0 94.5 -30.5t30.5 -94.5v-284q0 -64 -30.5 -94.5t-94.5 -30.5h-1059q-64 0 -94 30.5t-30 94.5zM1244 315v236q0 24 -10 34t-33 10h-982q-23 0 -33.5 -10t-10.5 -34v-236q0 -24 10.5 -34t33.5 -10
h982q23 0 33 10t10 34z" />
    <glyph glyph-name="ampersand" unicode="&#x26;" horiz-adv-x="2654" 
d="M2370 289h-2109q-34 0 -48 -14.5t-14 -50.5v-37q0 -35 14 -49.5t47 -14.5h2051q35 0 47 12.5t12 47.5v106zM56 160v45q0 67 30 102.5t102 42.5q-72 7 -102 42.5t-30 102.5v45q0 83 38.5 121.5t122.5 38.5h2245v-123h-2202q-33 0 -47 -14.5t-14 -49.5v-37q0 -36 14 -50.5
t48 -14.5h2365v-122h-114v-136q0 -82 -35 -117.5t-118 -35.5h-2142q-84 0 -122.5 38.5t-38.5 121.5z" />
    <glyph glyph-name="quotesingle" unicode="'" horiz-adv-x="267" 
d="M205 700v-42q0 -110 -22 -266h-100q-21 162 -21 266v42h143z" />
    <glyph glyph-name="parenleft" unicode="(" horiz-adv-x="373" 
d="M199 98q0 -36 14.5 -50.5t49.5 -14.5h63v-113h-95q-84 0 -122.5 39t-38.5 122v458q0 83 38.5 122t122.5 39h95v-113h-63q-35 0 -49.5 -14.5t-14.5 -50.5v-424z" />
    <glyph glyph-name="parenright" unicode=")" horiz-adv-x="373" 
d="M174 98v424q0 36 -14.5 50.5t-49.5 14.5h-63v113h95q84 0 122.5 -39t38.5 -122v-458q0 -83 -38.5 -122t-122.5 -39h-95v113h63q35 0 49.5 14.5t14.5 50.5z" />
    <glyph glyph-name="asterisk" unicode="*" horiz-adv-x="604" 
d="M315 444q85 77 163 103l67 21l37 -115l-68 -21q-43 -14 -108.5 -16t-81.5 3q101 -58 148 -122l41 -57l-98 -71l-41 57q-27 37 -46 89.5t-26 87.5q-7 -35 -26 -87.5t-46 -89.5l-41 -57l-98 71l42 57q46 64 147 122q-16 -5 -81.5 -3t-108.5 16l-67 21l37 115l67 -21
q44 -14 90.5 -46.5t71.5 -56.5q-15 31 -31 85.5t-16 100.5v70h121v-70q0 -46 -16.5 -100t-31.5 -86z" />
    <glyph glyph-name="plus" unicode="+" 
d="M62 291v118h1153v256h118v-256h1154v-118h-1154v-257h-118v257h-1153z" />
    <glyph glyph-name="comma" unicode="," horiz-adv-x="325" 
d="M251 118v-117q0 -66 -34.5 -103t-100.5 -37h-42v66h34q27 0 39 12t12 42v20h-85v117h177z" />
    <glyph glyph-name="hyphen" unicode="-" horiz-adv-x="914" 
d="M869 388v-122h-824v122h824z" />
    <glyph glyph-name="period" unicode="." horiz-adv-x="325" 
d="M251 118v-118h-177v118h177z" />
    <glyph glyph-name="slash" unicode="/" horiz-adv-x="885" 
d="M29 0l659 700h168l-660 -700h-167z" />
    <glyph glyph-name="zero" unicode="0" 
d="M227 0q-84 0 -124.5 40.5t-40.5 124.5v370q0 84 40.5 124.5t124.5 40.5h2095q85 0 125 -40.5t40 -124.5v-370q0 -84 -40 -124.5t-125 -40.5h-2095zM2345 190v320q0 36 -14.5 51t-49.5 15h-2013q-34 0 -48.5 -15t-14.5 -51v-320q0 -36 14.5 -51t48.5 -15h2013
q35 0 49.5 15t14.5 51z" />
    <glyph glyph-name="one" unicode="1" 
d="M1775 700v-576h711v-124h-2358v124h1509v452h-1509v124h1647z" />
    <glyph glyph-name="two" unicode="2" 
d="M2342 512q0 34 -14.5 49t-47.5 15h-2200v124h2241q84 0 123.5 -40t39.5 -123v-85q0 -84 -39.5 -124t-123.5 -40h-2040q-49 0 -68.5 -19t-19.5 -68v-77h2307v-124h-2449v213q0 199 199 199h2030q33 0 47.5 14.5t14.5 48.5v37z" />
    <glyph glyph-name="three" unicode="3" 
d="M2288 288h-2123v124h2123q35 0 49 14.5t14 49.5v36q0 34 -14.5 49t-47.5 15h-2241v124h2285q84 0 122 -38.5t38 -121.5v-45q0 -68 -29.5 -103.5t-102.5 -41.5q73 -6 102.5 -41.5t29.5 -103.5v-45q0 -83 -38 -121.5t-122 -38.5h-2285v124h2241q33 0 47.5 15t14.5 49v36
q0 35 -14 49.5t-49 14.5z" />
    <glyph glyph-name="four" unicode="4" 
d="M2334 412v288h142v-700h-142v288h-2120q-85 0 -125 40.5t-40 124.5v247h142v-223q0 -36 14.5 -50.5t49.5 -14.5h2079z" />
    <glyph glyph-name="five" unicode="5" 
d="M71 288v412h2399v-124h-2256v-164h2120q84 0 124 -40t40 -124v-85q0 -83 -40 -123t-124 -40h-2273v124h2233q34 0 48 14.5t14 49.5v37q0 34 -14 48.5t-48 14.5h-2223z" />
    <glyph glyph-name="six" unicode="6" 
d="M203 469v-57h2131q84 0 124 -40t40 -124v-85q0 -83 -40 -123t-124 -40h-2109q-85 0 -125 40.5t-40 123.5v307q0 112 58.5 170.5t171.5 58.5h2180v-124h-2162q-105 0 -105 -107zM2294 288h-2091v-99q0 -35 14.5 -50t48.5 -15h2028q34 0 48 14.5t14 49.5v37q0 34 -14 48.5
t-48 14.5z" />
    <glyph glyph-name="seven" unicode="7" 
d="M2274 412q47 0 66 18.5t19 66.5v79h-2331v124h2473v-216q0 -196 -196 -196h-1206q-47 0 -66 -18.5t-19 -66.5v-203h-142v216q0 196 196 196h1206z" />
    <glyph glyph-name="eight" unicode="8" 
d="M2495 540v-45q0 -67 -30 -102.5t-102 -42.5q72 -7 102 -42.5t30 -102.5v-45q0 -83 -38.5 -121.5t-122.5 -38.5h-2119q-83 0 -121.5 38.5t-38.5 121.5v45q0 67 30 102.5t102 42.5q-72 7 -102 42.5t-30 102.5v45q0 83 38.5 121.5t121.5 38.5h2119q84 0 122.5 -38.5
t38.5 -121.5zM260 412h2030q34 0 48 14.5t14 49.5v36q0 35 -14 49.5t-47 14.5h-2032q-33 0 -47.5 -15t-14.5 -49v-36q0 -35 14 -49.5t49 -14.5zM2290 288h-2030q-35 0 -49 -14.5t-14 -49.5v-36q0 -34 14.5 -49t47.5 -15h2032q33 0 47 14.5t14 49.5v36q0 35 -14 49.5
t-48 14.5z" />
    <glyph glyph-name="nine" unicode="9" 
d="M2325 700q84 0 124 -40.5t40 -123.5v-307q0 -113 -58.5 -171t-170.5 -58h-2180v124h2161q106 0 106 107v57h-2131q-84 0 -124.5 40t-40.5 124v85q0 83 40.5 123t124.5 40h2109zM194 512v-37q0 -34 14 -48.5t47 -14.5h2092v99q0 35 -14.5 50t-49.5 15h-2028
q-33 0 -47 -14.5t-14 -49.5z" />
    <glyph glyph-name="colon" unicode=":" horiz-adv-x="325" 
d="M251 578v-118h-177v118h177zM251 118v-118h-177v118h177z" />
    <glyph glyph-name="semicolon" unicode=";" horiz-adv-x="325" 
d="M251 118v-117q0 -66 -34.5 -103t-100.5 -37h-42v66h34q27 0 39 12t12 42v20h-85v117h177zM251 578v-118h-177v118h177z" />
    <glyph glyph-name="less" unicode="&#x3c;" 
d="M62 350l310 315h156l-254 -256h2213v-118h-2213l254 -257h-156z" />
    <glyph glyph-name="equal" unicode="=" 
d="M95 155v118h2360v-118h-2360zM95 427v118h2360v-118h-2360z" />
    <glyph glyph-name="greater" unicode="&#x3e;" 
d="M2488 350l-310 -316h-156l254 257h-2213v118h2213l-254 256h156z" />
    <glyph glyph-name="question" unicode="?" horiz-adv-x="2510" 
d="M2331 475v37q0 34 -14.5 49t-47.5 15h-2241v124h2282q84 0 123.5 -40t39.5 -123v-85q0 -84 -39.5 -124t-123.5 -40h-1037q-30 0 -42 -11.5t-12 -42.5v-42h-142v75q0 75 34.5 110t110.5 35h1047q33 0 47.5 14.5t14.5 48.5zM1239 104v-104h-181v104h181z" />
    <glyph glyph-name="at" unicode="@" horiz-adv-x="2522" 
d="M229 0q-86 0 -126.5 41t-40.5 125v368q0 84 40.5 125t126.5 41h2064q86 0 126.5 -41t40.5 -125v-368q0 -84 -40.5 -125t-126.5 -41h-2064zM233 60h2056q103 0 103 103v374q0 103 -103 103h-2056q-102 0 -102 -103v-374q0 -103 102 -103zM2193 188h-1867q-75 0 -75 77v36
q0 76 75 76h1885v48q0 30 -29 30h-1917v56h1926q85 0 85 -86v-153q0 -43 -20 -63.5t-63 -20.5zM341 322q-25 0 -25 -24v-29q0 -25 25 -25h1843q27 0 27 28v50h-1870z" />
    <glyph glyph-name="A" unicode="A" horiz-adv-x="2578" 
d="M2508 0h-142v288h-2154v-288h-142v535q0 84 40.5 124.5t124.5 40.5h2107q85 0 125.5 -40.5t40.5 -124.5v-535zM2302 576h-2026q-35 0 -49.5 -15t-14.5 -51v-98h2154v98q0 36 -14.5 51t-49.5 15z" />
    <glyph glyph-name="B" unicode="B" horiz-adv-x="2570" 
d="M2514 205v-45q0 -83 -38 -121.5t-122 -38.5h-2278v700h2278q84 0 122 -38.5t38 -121.5v-45q0 -68 -29.5 -103.5t-102.5 -41.5q73 -6 102.5 -41.5t29.5 -103.5zM2309 412q35 0 49 14.5t14 49.5v36q0 34 -14.5 49t-47.5 15h-2092v-164h2091zM218 288v-164h2092
q33 0 47.5 15t14.5 49v36q0 35 -14 49.5t-49 14.5h-2091z" />
    <glyph glyph-name="C" unicode="C" horiz-adv-x="2479" 
d="M227 0q-84 0 -124.5 40.5t-40.5 124.5v370q0 84 40.5 124.5t124.5 40.5h2203v-124h-2162q-34 0 -48.5 -15t-14.5 -51v-320q0 -36 14.5 -51t48.5 -15h2162v-124h-2203z" />
    <glyph glyph-name="D" unicode="D" horiz-adv-x="2570" 
d="M2285 700q113 0 171 -58t58 -171v-242q0 -113 -58 -171t-171 -58h-2209v700h2209zM2266 124q106 0 106 107v238q0 107 -106 107h-2048v-452h2048z" />
    <glyph glyph-name="E" unicode="E" horiz-adv-x="2541" 
d="M76 0v700h2417v-124h-2275v-164h2160v-124h-2160v-164h2275v-124h-2417z" />
    <glyph glyph-name="F" unicode="F" horiz-adv-x="2508" 
d="M76 0v700h2405v-124h-2263v-164h2149v-124h-2149v-288h-142z" />
    <glyph glyph-name="G" unicode="G" horiz-adv-x="2567" 
d="M2307 124q35 0 47 12.5t12 47.5v104h-1273v124h1415v-259q0 -82 -35 -117.5t-118 -35.5h-2128q-84 0 -124.5 40.5t-40.5 124.5v370q0 84 40.5 124.5t124.5 40.5h2256v-124h-2215q-34 0 -48.5 -15t-14.5 -51v-320q0 -36 14.5 -51t48.5 -15h2039z" />
    <glyph glyph-name="H" unicode="H" horiz-adv-x="2603" 
d="M2384 0v288h-2166v-288h-142v700h142v-288h2166v288h142v-700h-142z" />
    <glyph glyph-name="I" unicode="I" horiz-adv-x="295" 
d="M76 0v700h142v-700h-142z" />
    <glyph glyph-name="J" unicode="J" horiz-adv-x="2554" 
d="M49 153v189h142v-158q0 -35 12 -47.5t46 -12.5h2029q35 0 49.5 15t14.5 51v510h142v-535q0 -84 -40.5 -124.5t-124.5 -40.5h-2117q-83 0 -118 35.5t-35 117.5z" />
    <glyph glyph-name="K" unicode="K" horiz-adv-x="2577" 
d="M2514 700v-186q0 -76 -32 -116.5t-115 -47.5q83 -7 115 -48t32 -116v-186h-142v216q0 38 -16.5 55t-53.5 17h-2084v-288h-142v700h142v-288h2084q37 0 53.5 17t16.5 55v216h142z" />
    <glyph glyph-name="L" unicode="L" horiz-adv-x="2496" 
d="M2469 125v-125h-2393v700h142v-575h2251z" />
    <glyph glyph-name="M" unicode="M" horiz-adv-x="3081" 
d="M1706 700h1140q84 0 124.5 -40.5t40.5 -124.5v-535h-142v510q0 36 -14.5 51t-49.5 15h-1124q-37 0 -53 -16.5t-16 -54.5v-505h-143v505q0 38 -16 54.5t-53 16.5h-1124q-35 0 -49.5 -15t-14.5 -51v-510h-142v535q0 84 40.5 124.5t124.5 40.5h1140q79 0 118 -31t48 -100
q8 68 47.5 99.5t117.5 31.5z" />
    <glyph glyph-name="N" unicode="N" horiz-adv-x="2578" 
d="M276 576q-35 0 -49.5 -15t-14.5 -51v-510h-142v535q0 84 40.5 124.5t124.5 40.5h2107q85 0 125.5 -40.5t40.5 -124.5v-535h-142v510q0 36 -14.5 51t-49.5 15h-2026z" />
    <glyph glyph-name="O" unicode="O" horiz-adv-x="2570" 
d="M227 0q-84 0 -124.5 40.5t-40.5 124.5v370q0 84 40.5 124.5t124.5 40.5h2115q85 0 125 -40.5t40 -124.5v-370q0 -83 -40 -124t-125 -41h-2115zM2365 189v321q0 36 -14.5 51t-49.5 15h-2033q-33 0 -48 -15t-15 -51v-320q0 -36 14.5 -51t48.5 -15h2033q35 0 49.5 15
t14.5 50z" />
    <glyph glyph-name="P" unicode="P" horiz-adv-x="2543" 
d="M76 0v700h2267q84 0 124 -40t40 -123v-86q0 -83 -40 -123t-124 -40h-2125v-288h-142zM2364 512q0 35 -14 49.5t-48 14.5h-2084v-164h2084q34 0 48 14.5t14 48.5v37z" />
    <glyph glyph-name="Q" unicode="Q" horiz-adv-x="2570" 
d="M227 0q-84 0 -124.5 40.5t-40.5 124.5v370q0 84 40.5 124.5t124.5 40.5h2115q85 0 125 -40.5t40 -124.5v-370q0 -83 -40 -124t-125 -41h-995v-149h-124v149h-996zM2365 189v321q0 36 -14.5 51t-49.5 15h-2033q-33 0 -48 -15t-15 -51v-320q0 -36 14.5 -51t48.5 -15h955
v153h124v-153h954q35 0 49.5 15t14.5 50z" />
    <glyph glyph-name="R" unicode="R" horiz-adv-x="2577" 
d="M2514 540v-45q0 -69 -31 -104.5t-108 -41.5q78 -9 108.5 -49t30.5 -114v-186h-142v216q0 38 -16.5 55t-53.5 17h-2084v-288h-142v700h2278q84 0 122 -38.5t38 -121.5zM2309 412q35 0 49 14.5t14 49.5v36q0 34 -14.5 49t-47.5 15h-2092v-164h2091z" />
    <glyph glyph-name="S" unicode="S" horiz-adv-x="2527" 
d="M229 288q-84 0 -124 40.5t-40 123.5v85q0 83 40 123t124 40h2218v-124h-2177q-34 0 -48.5 -15t-14.5 -49v-37q0 -34 14.5 -48.5t48.5 -14.5h2041q84 0 124 -40t40 -124v-85q0 -83 -40 -123t-124 -40h-2261v124h2221q34 0 48 14.5t14 49.5v37q0 34 -14 48.5t-48 14.5
h-2042z" />
    <glyph glyph-name="T" unicode="T" horiz-adv-x="2499" 
d="M2472 700v-124h-1151v-576h-142v576h-1152v124h2445z" />
    <glyph glyph-name="U" unicode="U" horiz-adv-x="2578" 
d="M235 0q-84 0 -124.5 40.5t-40.5 124.5v535h142v-510q0 -36 14.5 -51t49.5 -15h2026q35 0 49.5 15t14.5 51v510h142v-535q0 -84 -40.5 -124.5t-125.5 -40.5h-2107z" />
    <glyph glyph-name="V" unicode="V" horiz-adv-x="2566" 
d="M76 0v700h142v-576h2035q105 0 105 107v469h142v-471q0 -113 -58 -171t-171 -58h-2195z" />
    <glyph glyph-name="W" unicode="W" horiz-adv-x="3081" 
d="M2846 0h-1140q-78 0 -117.5 31.5t-47.5 99.5q-9 -69 -48 -100t-118 -31h-1140q-84 0 -124.5 40.5t-40.5 124.5v535h142v-510q0 -36 14.5 -51t49.5 -15h1124q37 0 53 16.5t16 54.5v505h143v-505q0 -38 16 -54.5t53 -16.5h1124q35 0 49.5 15t14.5 51v510h142v-535
q0 -84 -40.5 -124.5t-124.5 -40.5z" />
    <glyph glyph-name="X" unicode="X" horiz-adv-x="2571" 
d="M63 514v186h142v-216q0 -38 16.5 -55t53.5 -17h2022q37 0 53 17t16 55v216h142v-186q0 -76 -32 -116.5t-114 -47.5q82 -7 114 -48t32 -116v-186h-142v216q0 38 -16 55t-53 17h-2022q-37 0 -53.5 -17t-16.5 -55v-216h-142v186q0 75 32 116t114 48q-82 7 -114 47.5
t-32 116.5z" />
    <glyph glyph-name="Y" unicode="Y" horiz-adv-x="2546" 
d="M2356 700h142v-247q0 -84 -40.5 -124.5t-124.5 -40.5h-989v-288h-142v288h-988q-85 0 -125 40.5t-40 124.5v247h142v-223q0 -36 14.5 -50.5t49.5 -14.5h2037q35 0 49.5 14.5t14.5 50.5v223z" />
    <glyph glyph-name="Z" unicode="Z" horiz-adv-x="2532" 
d="M2248 412q48 0 67.5 19t19.5 68v77h-2255v124h2398v-213q0 -199 -200 -199h-1997q-49 0 -68.5 -19t-19.5 -68v-77h2285v-124h-2427v213q0 199 199 199h1998z" />
    <glyph glyph-name="bracketleft" unicode="[" horiz-adv-x="389" 
d="M76 700h265v-106h-143v-568h143v-106h-265v780z" />
    <glyph glyph-name="backslash" unicode="\" horiz-adv-x="885" 
d="M196 700l660 -700h-168l-659 700h167z" />
    <glyph glyph-name="bracketright" unicode="]" horiz-adv-x="389" 
d="M48 700h265v-780h-265v106h143v568h-143v106z" />
    <glyph glyph-name="asciicircum" unicode="^" 
d="M1275 717l1212 -310v-122l-1212 310l-1213 -310v122z" />
    <glyph glyph-name="underscore" unicode="_" horiz-adv-x="1203" 
d="M1203 -38v-84h-1203v84h1203z" />
    <glyph glyph-name="grave" unicode="`" horiz-adv-x="600" 
d="M356 658l-282 110h212l224 -110h-154z" />
    <glyph glyph-name="a" unicode="a" horiz-adv-x="2288" 
d="M2094 357v62q0 65 -64 65h-1957v119h1997q84 0 122.5 -39.5t38.5 -123.5v-277q0 -84 -38.5 -123.5t-122.5 -39.5h-1881q-74 0 -109.5 35.5t-35.5 111.5v62q0 76 35.5 112t109.5 36h1905zM2094 246h-1862q-27 0 -39 -11.5t-12 -38.5v-26q0 -27 12 -39t39 -12h1798
q64 0 64 69v58z" />
    <glyph glyph-name="b" unicode="b" horiz-adv-x="2285" 
d="M63 163v607h137v-248q12 42 44 61.5t92 19.5h1732q83 0 121.5 -39.5t38.5 -123.5v-277q0 -84 -38.5 -123.5t-121.5 -39.5h-1843q-84 0 -123 39.5t-39 123.5zM200 419v-235q0 -34 15.5 -49.5t49.5 -15.5h1762q34 0 49.5 15.5t15.5 49.5v235q0 34 -15.5 49.5t-49.5 15.5
h-1762q-34 0 -49.5 -15.5t-15.5 -49.5z" />
    <glyph glyph-name="c" unicode="c" horiz-adv-x="2217" 
d="M218 0q-84 0 -122.5 39.5t-38.5 123.5v277q0 84 38.5 123.5t122.5 39.5h1953v-119h-1913q-65 0 -65 -65v-235q0 -65 65 -65h1913v-119h-1953z" />
    <glyph glyph-name="d" unicode="d" horiz-adv-x="2285" 
d="M2222 770v-607q0 -84 -39 -123.5t-123 -39.5h-1843q-83 0 -121.5 39.5t-38.5 123.5v277q0 84 38.5 123.5t121.5 39.5h1732q60 0 92 -19.5t44 -61.5v248h137zM2085 184v235q0 34 -15 49.5t-49 15.5h-1763q-34 0 -49.5 -15.5t-15.5 -49.5v-235q0 -34 15.5 -49.5t49.5 -15.5
h1763q34 0 49 15.5t15 49.5z" />
    <glyph glyph-name="e" unicode="e" horiz-adv-x="2288" 
d="M2244 393q0 -76 -35.5 -111.5t-109.5 -35.5h-1906v-62q0 -65 65 -65h1956v-119h-1996q-87 0 -124 42t-37 132v266q0 83 39 123t122 40h1881q74 0 109.5 -35.5t35.5 -111.5v-63zM2056 484h-1798q-38 0 -51.5 -18.5t-13.5 -61.5v-47h1863q27 0 39 11.5t12 38.5v23
q0 29 -11 41.5t-40 12.5z" />
    <glyph glyph-name="f" unicode="f" horiz-adv-x="2196" 
d="M279 484q-41 0 -60 -18t-19 -61v-44h1892v-119h-1892v-242h-137v416q0 96 46 141.5t142 45.5h1917v-119h-1889z" />
    <glyph glyph-name="g" unicode="g" horiz-adv-x="2285" 
d="M2021 169q34 0 49 15.5t15 49.5v185q0 65 -64 65h-1763q-65 0 -65 -65v-185q0 -65 65 -65h1763zM1949 49h-1730q-84 0 -123 39.5t-39 123.5v228q0 84 39 123.5t123 39.5h1841q84 0 123 -39.5t39 -123.5v-392q0 -111 -51.5 -163t-163.5 -52h-1910v119h1894q50 0 72 21.5
t22 72.5v84q-12 -42 -44.5 -61.5t-91.5 -19.5z" />
    <glyph glyph-name="h" unicode="h" horiz-adv-x="2291" 
d="M2091 419q0 34 -15.5 49.5t-49.5 15.5h-1755q-34 0 -49.5 -15.5t-15.5 -49.5v-419h-137v770h137v-248q12 42 44 61.5t92 19.5h1725q83 0 122 -39.5t39 -123.5v-440h-137v419z" />
    <glyph glyph-name="i" unicode="i" horiz-adv-x="415" 
d="M265 119h125v-119h-164q-84 0 -122 38.5t-38 120.5v444h137v-422q0 -33 15 -47.5t47 -14.5zM226 757v-90h-182v90h182z" />
    <glyph glyph-name="j" unicode="j" horiz-adv-x="293" 
d="M-43 -48h69q33 0 47 14t14 47v590h136v-611q0 -83 -37.5 -121t-121.5 -38h-107v119zM64 667v90h182v-90h-182z" />
    <glyph glyph-name="k" unicode="k" horiz-adv-x="2282" 
d="M2090 416v187h137v-161q0 -63 -28 -98t-92 -43q64 -7 92 -42t28 -98v-161h-137v187q0 55 -56 55h-1828v-242h-137v770h137v-409h1828q56 0 56 55z" />
    <glyph glyph-name="l" unicode="l" horiz-adv-x="411" 
d="M261 119h126v-119h-165q-83 0 -121 38.5t-38 120.5v611h137v-589q0 -33 14.5 -47.5t46.5 -14.5z" />
    <glyph glyph-name="m" unicode="m" horiz-adv-x="2733" 
d="M1366 479q7 66 42.5 95t109.5 29h991q83 0 121.5 -39.5t38.5 -123.5v-440h-136v419q0 34 -15.5 49.5t-49.5 15.5h-974q-59 0 -59 -61v-423h-137v423q0 61 -60 61h-973q-35 0 -50 -15.5t-15 -49.5v-419h-137v440q0 84 39 123.5t122 39.5h990q75 0 110.5 -29t41.5 -95z" />
    <glyph glyph-name="n" unicode="n" horiz-adv-x="2284" 
d="M63 0v440q0 84 39 123.5t122 39.5h1836q83 0 122 -39.5t39 -123.5v-440h-137v419q0 34 -15.5 49.5t-49.5 15.5h-1754q-35 0 -50 -15.5t-15 -49.5v-419h-137z" />
    <glyph glyph-name="o" unicode="o" horiz-adv-x="2278" 
d="M2060 603q84 0 123 -39.5t39 -123.5v-277q0 -84 -39 -123.5t-123 -39.5h-1842q-84 0 -122.5 39.5t-38.5 123.5v277q0 84 38.5 123.5t122.5 39.5h1842zM2020 119q65 0 65 65v235q0 65 -65 65h-1762q-65 0 -65 -65v-235q0 -65 65 -65h1762z" />
    <glyph glyph-name="p" unicode="p" horiz-adv-x="2285" 
d="M63 -167v607q0 84 39 123.5t123 39.5h1843q83 0 121.5 -39.5t38.5 -123.5v-277q0 -84 -38.5 -123.5t-121.5 -39.5h-1732q-60 0 -92 19.5t-44 61.5v-248h-137zM200 419v-235q0 -34 15.5 -49.5t49.5 -15.5h1762q34 0 49.5 15.5t15.5 49.5v235q0 34 -15.5 49.5t-49.5 15.5
h-1762q-34 0 -49.5 -15.5t-15.5 -49.5z" />
    <glyph glyph-name="q" unicode="q" horiz-adv-x="2285" 
d="M2222 440v-607h-137v248q-12 -42 -44 -61.5t-92 -19.5h-1732q-83 0 -121.5 39.5t-38.5 123.5v277q0 84 38.5 123.5t121.5 39.5h1843q84 0 123 -39.5t39 -123.5zM2085 184v235q0 34 -15 49.5t-49 15.5h-1763q-34 0 -49.5 -15.5t-15.5 -49.5v-235q0 -34 15.5 -49.5
t49.5 -15.5h1763q34 0 49 15.5t15 49.5z" />
    <glyph glyph-name="r" unicode="r" horiz-adv-x="2093" 
d="M2065 603v-119h-1800q-65 0 -65 -65v-419h-137v440q0 84 39 123.5t123 39.5h1840z" />
    <glyph glyph-name="s" unicode="s" horiz-adv-x="2258" 
d="M2184 484h-1948q-27 0 -39 -12t-12 -39v-25q0 -28 12 -39.5t39 -11.5h1834q74 0 109 -36t35 -112v-62q0 -76 -35.5 -111.5t-109.5 -35.5h-2021v119h1978q27 0 39 12t12 39v25q0 28 -11.5 39.5t-39.5 11.5h-1833q-74 0 -109.5 35.5t-35.5 111.5v63q0 76 35.5 111.5
t109.5 35.5h1991v-119z" />
    <glyph glyph-name="t" unicode="t" horiz-adv-x="2128" 
d="M226 0q-84 0 -123.5 39.5t-39.5 123.5v607h137v-167h1881v-119h-1881v-300q0 -34 15.5 -49.5t49.5 -15.5h1816v-119h-1855z" />
    <glyph glyph-name="u" unicode="u" horiz-adv-x="2284" 
d="M2019 119q34 0 49.5 15.5t15.5 49.5v419h137v-440q0 -84 -39 -123.5t-122 -39.5h-1836q-83 0 -122 39.5t-39 123.5v440h137v-419q0 -34 15 -49.5t50 -15.5h1754z" />
    <glyph glyph-name="v" unicode="v" horiz-adv-x="2277" 
d="M2217 603v-391q0 -110 -50.5 -161t-160.5 -51h-1937v603h137v-484h1781q49 0 71 21.5t22 71.5v391h137z" />
    <glyph glyph-name="w" unicode="w" horiz-adv-x="2733" 
d="M1366 124q-6 -66 -41.5 -95t-110.5 -29h-990q-83 0 -122 39.5t-39 123.5v440h137v-419q0 -34 15 -49.5t50 -15.5h973q60 0 60 61v423h137v-423q0 -61 59 -61h974q34 0 49.5 15.5t15.5 49.5v419h136v-440q0 -84 -38.5 -123.5t-121.5 -39.5h-991q-74 0 -109.5 29t-42.5 95z
" />
    <glyph glyph-name="x" unicode="x" horiz-adv-x="2291" 
d="M2100 416v187h137v-161q0 -63 -28 -98t-92 -43q64 -7 92 -42t28 -98v-161h-137v187q0 55 -56 55h-1796q-57 0 -57 -55v-187h-136v161q0 63 28 98t91 42q-63 8 -91 43t-28 98v161h136v-187q0 -55 57 -55h1796q56 0 56 55z" />
    <glyph glyph-name="y" unicode="y" horiz-adv-x="2291" 
d="M2007 -167h-1904v119h1887q50 0 72.5 21.5t22.5 72.5v84q-13 -42 -45 -61.5t-92 -19.5h-1723q-84 0 -123 39.5t-39 123.5v391h137v-369q0 -65 65 -65h1755q34 0 49.5 15.5t15.5 49.5v369h136v-555q0 -111 -51.5 -163t-162.5 -52z" />
    <glyph glyph-name="z" unicode="z" horiz-adv-x="2263" 
d="M254 246q-38 0 -54.5 -17t-16.5 -54v-56h2032v-119h-2169v169q0 188 188 188h1773q37 0 54 16.5t17 54.5v56h-2008v119h2145v-169q0 -188 -188 -188h-1773z" />
    <glyph glyph-name="braceleft" unicode="{" horiz-adv-x="410" 
d="M240 522v-92q0 -60 -24 -89.5t-79 -30.5q55 -1 79 -30.5t24 -89.5v-92q0 -36 14.5 -50.5t49.5 -14.5h62v-113h-94q-84 0 -123 39t-39 122v129q0 24 -9 34t-32 10h-37v112h37q23 0 32 10t9 34v129q0 83 39 122t123 39h94v-113h-62q-35 0 -49.5 -14.5t-14.5 -50.5z" />
    <glyph glyph-name="bar" unicode="|" horiz-adv-x="319" 
d="M89 -167v907h141v-907h-141z" />
    <glyph glyph-name="braceright" unicode="}" horiz-adv-x="410" 
d="M170 430v92q0 36 -14.5 50.5t-49.5 14.5h-62v113h94q84 0 123 -39t39 -122v-129q0 -24 9 -34t32 -10h37v-112h-37q-23 0 -32 -10t-9 -34v-129q0 -83 -39 -122t-123 -39h-94v113h62q35 0 49.5 14.5t14.5 50.5v92q0 60 24 89.5t79 30.5q-55 1 -79 30.5t-24 89.5z" />
    <glyph glyph-name="asciitilde" unicode="~" 
d="M62 262v123q231 87 543 87q218 0 671 -59.5t671 -59.5q312 0 540 86v-124q-230 -86 -544 -86q-219 0 -672.5 59t-671.5 59q-310 0 -537 -85z" />
    <glyph glyph-name="uni00A0" unicode="&#xa0;" horiz-adv-x="622" 
 />
    <glyph glyph-name="exclamdown" unicode="&#xa1;" horiz-adv-x="328" 
d="M73 526v104h182v-104h-182zM93 -70v223q0 153 17 278h108q17 -125 17 -278v-223h-142z" />
    <glyph glyph-name="cent" unicode="&#xa2;" 
d="M1263 -40v90h-1039q-84 0 -123 39.5t-39 123.5v274q0 84 39 123.5t123 39.5h1039v90h124v-90h1112v-119h-1112v-362h1112v-119h-1112v-90h-124zM264 169h999v362h-999q-65 0 -65 -65v-232q0 -65 65 -65z" />
    <glyph glyph-name="sterling" unicode="&#xa3;" 
d="M363 124h2139v-124h-2454v124h173v164h-173v124h173v124q0 84 40 124t124 40h2033v-124h-1992q-35 0 -49 -14.5t-14 -49.5v-100h2055v-124h-2055v-164z" />
    <glyph glyph-name="currency" unicode="&#xa4;" 
d="M120 488q0 84 39 123.5t123 39.5h932v89h123v-89h931q84 0 122.5 -39.5t38.5 -123.5v-78h93v-120h-93v-79q0 -84 -38.5 -123.5t-122.5 -39.5h-931v-88h-123v88h-932q-84 0 -123 39.5t-39 123.5v79h-92v120h92v78zM2228 528h-1906q-65 0 -65 -65v-227q0 -65 65 -65h1906
q65 0 65 65v227q0 65 -65 65z" />
    <glyph glyph-name="yen" unicode="&#xa5;" 
d="M2355 700h142v-151q0 -83 -40 -123.5t-125 -40.5h-987v-123h1126v-124h-1126v-138h-142v138h-1125v124h1125v123h-987q-84 0 -124 40.5t-40 123.5v151h142v-126q0 -35 14.5 -50t49.5 -15h2033q35 0 49.5 14.5t14.5 50.5v126z" />
    <glyph glyph-name="brokenbar" unicode="&#xa6;" horiz-adv-x="319" 
d="M89 -167v394h141v-394h-141zM89 347v393h141v-393h-141z" />
    <glyph glyph-name="section" unicode="&#xa7;" horiz-adv-x="2492" 
d="M241 464h2067q68 0 100 -32t32 -101v-45q0 -55 -23 -86t-80 -37q57 -6 80 -36.5t23 -85.5v-28q0 -75 -35.5 -110t-109.5 -35h-2213v119h2171q28 0 40 12t12 40v16q0 26 -11.5 37.5t-38.5 11.5h-2066q-68 0 -100.5 32t-32.5 101v45q0 55 23 85.5t80 36.5q-57 6 -80 36.5
t-23 86.5v28q0 75 35.5 110t109.5 35h2213v-119h-2171q-28 0 -40 -12t-12 -40v-15q0 -27 11.5 -38.5t38.5 -11.5zM2252 345h-2010q-26 0 -37.5 -11t-11.5 -37v-24q0 -27 11.5 -38.5t39.5 -11.5h2010q26 0 37.5 11t11.5 37v24q0 27 -11.5 38.5t-39.5 11.5z" />
    <glyph glyph-name="dieresis" unicode="&#xa8;" horiz-adv-x="600" 
d="M177 756v-89h-156v89h156zM578 756v-89h-155v89h155z" />
    <glyph glyph-name="copyright" unicode="&#xa9;" horiz-adv-x="2522" 
d="M322 188q-44 0 -63.5 20.5t-19.5 63.5v155q0 43 19.5 63.5t63.5 20.5h1943v-56h-1935q-26 0 -26 -27v-157q0 -27 26 -27h1935v-56h-1943zM229 0q-86 0 -126.5 41t-40.5 125v368q0 84 40.5 125t126.5 41h2064q86 0 126.5 -41t40.5 -125v-368q0 -84 -40.5 -125t-126.5 -41
h-2064zM233 60h2056q103 0 103 103v374q0 103 -103 103h-2056q-102 0 -102 -103v-374q0 -103 102 -103z" />
    <glyph glyph-name="ordfeminine" unicode="&#xaa;" horiz-adv-x="1836" 
d="M1665 485v67q0 24 -9.5 33.5t-32.5 9.5h-1558v105h1595q64 0 94.5 -30.5t30.5 -94.5v-284q0 -64 -30.5 -94.5t-94.5 -30.5h-1492q-64 0 -95 30.5t-31 94.5v70q0 124 126 124h1497zM162 338v-23q0 -24 9.5 -34t32.5 -10h1419q23 0 32.5 9.5t9.5 33.5v67h-1461
q-23 0 -32.5 -10t-9.5 -33zM907 124l95 -124h-190z" />
    <glyph glyph-name="guillemotleft" unicode="&#xab;" horiz-adv-x="743" 
d="M421 51h-157l-234 249l234 249h157l-237 -249zM713 51h-157l-234 249l234 249h157l-237 -249z" />
    <glyph glyph-name="logicalnot" unicode="&#xac;" 
d="M62 291v118h2425v-375h-118v257h-2307z" />
    <glyph glyph-name="uni00AD" unicode="&#xad;" horiz-adv-x="914" 
d="M869 388v-122h-824v122h824z" />
    <glyph glyph-name="registered" unicode="&#xae;" horiz-adv-x="2522" 
d="M229 0q-86 0 -126.5 41t-40.5 125v368q0 84 40.5 125t126.5 41h2064q86 0 126.5 -41t40.5 -125v-368q0 -84 -40.5 -125t-126.5 -41h-2064zM233 60h2056q103 0 103 103v374q0 103 -103 103h-2056q-102 0 -102 -103v-374q0 -103 102 -103zM2276 411q0 -56 -61 -62
q61 -6 61 -67v-94h-65v109q0 25 -23 25h-1873v-134h-66v323h1963q64 0 64 -65v-35zM2211 435q0 20 -21 20h-1875v-78h1875q21 0 21 20v38z" />
    <glyph glyph-name="macron" unicode="&#xaf;" horiz-adv-x="600" 
d="M557 676h-514v75h514v-75z" />
    <glyph glyph-name="degree" unicode="&#xb0;" horiz-adv-x="1102" 
d="M41 552q0 148 156 148h707q157 0 157 -148v-96q0 -147 -157 -147h-707q-156 0 -156 147v96zM232 591q-37 0 -50.5 -14t-13.5 -50v-45q0 -37 13.5 -50.5t50.5 -13.5h638q37 0 50 13.5t13 50.5v45q0 36 -13.5 50t-49.5 14h-638z" />
    <glyph glyph-name="plusminus" unicode="&#xb1;" 
d="M62 291v118h1153v256h118v-256h1154v-118h-1154v-173h1154v-118h-2425v118h1153v173h-1153z" />
    <glyph glyph-name="twosuperior" unicode="&#xb2;" horiz-adv-x="1420" 
d="M1258 530v20q0 25 -10 35.5t-34 10.5h-1148v104h1187q64 0 94 -30.5t30 -94.5v-69q0 -64 -30 -94.5t-94 -30.5h-1022q-37 0 -51 -13.5t-14 -50.5v-46h1211v-105h-1331v168q0 151 152 151h1016q24 0 34 10t10 35z" />
    <glyph glyph-name="threesuperior" unicode="&#xb3;" horiz-adv-x="1420" 
d="M1373 578v-37q0 -48 -21.5 -75t-80.5 -33q59 -6 80.5 -33t21.5 -75v-37q0 -63 -29 -92.5t-93 -29.5h-1209v105h1168q24 0 34 10t10 35v20q0 24 -10 34.5t-34 10.5h-1080v104h1080q23 0 33.5 10.5t10.5 34.5v20q0 25 -10 35t-34 10h-1168v105h1209q64 0 93 -29.5t29 -92.5
z" />
    <glyph glyph-name="acute" unicode="&#xb4;" horiz-adv-x="600" 
d="M529 768l-286 -110h-155l222 110h219z" />
    <glyph glyph-name="uni00B5" unicode="&#xb5;" horiz-adv-x="2291" 
d="M271 119h1755q34 0 49.5 15.5t15.5 49.5v419h137v-440q0 -84 -39 -123.5t-122 -39.5h-1725q-60 0 -92 19.5t-44 61.5v-248h-137v770h137v-419q0 -34 15.5 -49.5t49.5 -15.5z" />
    <glyph glyph-name="paragraph" unicode="&#xb6;" horiz-adv-x="2203" 
d="M2127 700v-832h-133v713h-165v-713h-133v407h-1488q-88 0 -130 42t-42 129v83q0 87 42 129t130 42h1919z" />
    <glyph glyph-name="periodcentered" unicode="&#xb7;" horiz-adv-x="325" 
d="M251 409v-118h-177v118h177z" />
    <glyph glyph-name="cedilla" unicode="&#xb8;" horiz-adv-x="601" 
d="M279 -43h168q60 0 85 -13.5t25 -48.5q0 -43 -33.5 -63.5t-115.5 -20.5h-363v81h358q49 0 49 23q0 11 -7.5 14.5t-28.5 3.5h-174l29 67h26z" />
    <glyph glyph-name="onesuperior" unicode="&#xb9;" horiz-adv-x="1420" 
d="M110 166v105h647v324h-648v105h767v-429h484v-105h-1250z" />
    <glyph glyph-name="ordmasculine" unicode="&#xba;" horiz-adv-x="1846" 
d="M51 291v284q0 64 30.5 94.5t94.5 30.5h1494q64 0 94 -30.5t30 -94.5v-284q0 -64 -30 -94.5t-94 -30.5h-1494q-64 0 -94.5 30.5t-30.5 94.5zM1633 271q23 0 32.5 9.5t9.5 33.5v238q0 24 -9.5 33.5t-32.5 9.5h-1420q-23 0 -32.5 -9.5t-9.5 -33.5v-238q0 -24 9.5 -33.5
t32.5 -9.5h1420zM916 124l95 -124h-190z" />
    <glyph glyph-name="guillemotright" unicode="&#xbb;" horiz-adv-x="743" 
d="M479 51h-157l237 249l-237 249h157l234 -249zM187 51h-157l237 249l-237 249h157l234 -249z" />
    <glyph glyph-name="onequarter" unicode="&#xbc;" horiz-adv-x="3303" 
d="M1274 0l616 700h140l-616 -700h-140zM110 166v105h647v324h-648v105h767v-429h484v-105h-1250zM3115 319v215h119v-534h-119v215h-1063q-64 0 -94.5 30.5t-30.5 93.5v195h119v-171q0 -44 44 -44h1025z" />
    <glyph glyph-name="onehalf" unicode="&#xbd;" horiz-adv-x="3303" 
d="M1274 0l616 700h140l-616 -700h-140zM110 166v105h647v324h-648v105h767v-429h484v-105h-1250zM3141 364v20q0 25 -10 35.5t-34 10.5h-1148v104h1187q64 0 94 -30.5t30 -94.5v-69q0 -64 -30 -94.5t-94 -30.5h-1022q-37 0 -51 -13.5t-14 -50.5v-46h1211v-105h-1331v168
q0 151 152 151h1016q24 0 34 10t10 35z" />
    <glyph glyph-name="threequarters" unicode="&#xbe;" horiz-adv-x="3303" 
d="M1274 0l616 700h140l-616 -700h-140zM3115 319v215h119v-534h-119v215h-1063q-64 0 -94.5 30.5t-30.5 93.5v195h119v-171q0 -44 44 -44h1025zM1373 578v-37q0 -48 -21.5 -75t-80.5 -33q59 -6 80.5 -33t21.5 -75v-37q0 -63 -29 -92.5t-93 -29.5h-1209v105h1168q24 0 34 10
t10 35v20q0 24 -10 34.5t-34 10.5h-1080v104h1080q23 0 33.5 10.5t10.5 34.5v20q0 25 -10 35t-34 10h-1168v105h1209q64 0 93 -29.5t29 -92.5z" />
    <glyph glyph-name="questiondown" unicode="&#xbf;" horiz-adv-x="2508" 
d="M179 155v-37q0 -34 14.5 -49t47.5 -15h2241v-124h-2282q-84 0 -123.5 40t-39.5 123v85q0 84 39.5 124t123.5 40h1037q30 0 42 11.5t12 42.5v42h142v-75q0 -75 -34.5 -110t-110.5 -35h-1047q-33 0 -47.5 -14.5t-14.5 -48.5zM1271 526v104h181v-104h-181z" />
    <glyph glyph-name="Agrave" unicode="&#xc0;" horiz-adv-x="2578" 
d="M2508 0h-142v288h-2154v-288h-142v535q0 84 40.5 124.5t124.5 40.5h2107q85 0 125.5 -40.5t40.5 -124.5v-535zM2302 576h-2026q-35 0 -49.5 -15t-14.5 -51v-98h2154v98q0 36 -14.5 51t-49.5 15zM1280 756l-282 110h212l224 -110h-154z" />
    <glyph glyph-name="Aacute" unicode="&#xc1;" horiz-adv-x="2578" 
d="M2508 0h-142v288h-2154v-288h-142v535q0 84 40.5 124.5t124.5 40.5h2107q85 0 125.5 -40.5t40.5 -124.5v-535zM2302 576h-2026q-35 0 -49.5 -15t-14.5 -51v-98h2154v98q0 36 -14.5 51t-49.5 15zM1582 866l-286 -110h-155l222 110h219z" />
    <glyph glyph-name="Acircumflex" unicode="&#xc2;" horiz-adv-x="2578" 
d="M2508 0h-142v288h-2154v-288h-142v535q0 84 40.5 124.5t124.5 40.5h2107q85 0 125.5 -40.5t40.5 -124.5v-535zM2302 576h-2026q-35 0 -49.5 -15t-14.5 -51v-98h2154v98q0 36 -14.5 51t-49.5 15zM1289 816l-167 -60h-138l204 110h202l204 -110h-138z" />
    <glyph glyph-name="Atilde" unicode="&#xc3;" horiz-adv-x="2578" 
d="M2508 0h-142v288h-2154v-288h-142v535q0 84 40.5 124.5t124.5 40.5h2107q85 0 125.5 -40.5t40.5 -124.5v-535zM2302 576h-2026q-35 0 -49.5 -15t-14.5 -51v-98h2154v98q0 36 -14.5 51t-49.5 15zM1033 747v83q68 49 140 49q45 0 124.5 -26.5t119.5 -26.5q65 0 127 50v-83
q-70 -50 -141 -50q-45 0 -124.5 26.5t-119.5 26.5q-66 0 -126 -49z" />
    <glyph glyph-name="Adieresis" unicode="&#xc4;" horiz-adv-x="2578" 
d="M2508 0h-142v288h-2154v-288h-142v535q0 84 40.5 124.5t124.5 40.5h2107q85 0 125.5 -40.5t40.5 -124.5v-535zM2302 576h-2026q-35 0 -49.5 -15t-14.5 -51v-98h2154v98q0 36 -14.5 51t-49.5 15zM1166 854v-89h-156v89h156zM1567 854v-89h-155v89h155z" />
    <glyph glyph-name="Aring" unicode="&#xc5;" horiz-adv-x="2578" 
d="M2508 0h-142v288h-2154v-288h-142v535q0 84 40.5 124.5t124.5 40.5h2107q85 0 125.5 -40.5t40.5 -124.5v-535zM2302 576h-2026q-35 0 -49.5 -15t-14.5 -51v-98h2154v98q0 36 -14.5 51t-49.5 15zM1153 826q0 -25 30 -25h211q30 0 30 25t-30 25h-211q-30 0 -30 -25z
M1385 750h-193q-51 0 -72.5 19t-21.5 57t21.5 57t72.5 19h193q51 0 72.5 -19t21.5 -57t-21.5 -57t-72.5 -19z" />
    <glyph glyph-name="AE" unicode="&#xc6;" horiz-adv-x="3941" 
d="M1921 0v288h-1709v-288h-142v535q0 84 40.5 124.5t124.5 40.5h3657v-124h-1829v-164h1715v-124h-1715v-164h1829v-124h-1971zM276 576q-35 0 -49.5 -15t-14.5 -51v-98h1709v164h-1645z" />
    <glyph glyph-name="Ccedilla" unicode="&#xc7;" horiz-adv-x="2479" 
d="M1274 0l-18 -43h168q60 0 85 -13.5t25 -48.5q0 -43 -33.5 -63.5t-115.5 -20.5h-363v81h358q49 0 49 23q0 11 -7.5 14.5t-28.5 3.5h-174l29 67h-1021q-84 0 -124.5 40.5t-40.5 124.5v370q0 84 40.5 124.5t124.5 40.5h2203v-124h-2162q-34 0 -48.5 -15t-14.5 -51v-320
q0 -36 14.5 -51t48.5 -15h2162v-124h-1156z" />
    <glyph glyph-name="Egrave" unicode="&#xc8;" horiz-adv-x="2541" 
d="M76 0v700h2417v-124h-2275v-164h2160v-124h-2160v-164h2275v-124h-2417zM1292 756l-282 110h212l224 -110h-154z" />
    <glyph glyph-name="Eacute" unicode="&#xc9;" horiz-adv-x="2541" 
d="M76 0v700h2417v-124h-2275v-164h2160v-124h-2160v-164h2275v-124h-2417zM1589 866l-286 -110h-155l222 110h219z" />
    <glyph glyph-name="Ecircumflex" unicode="&#xca;" horiz-adv-x="2541" 
d="M76 0v700h2417v-124h-2275v-164h2160v-124h-2160v-164h2275v-124h-2417zM1300 816l-167 -60h-138l204 110h202l204 -110h-138z" />
    <glyph glyph-name="Edieresis" unicode="&#xcb;" horiz-adv-x="2541" 
d="M76 0v700h2417v-124h-2275v-164h2160v-124h-2160v-164h2275v-124h-2417zM1178 854v-89h-156v89h156zM1579 854v-89h-155v89h155z" />
    <glyph glyph-name="Igrave" unicode="&#xcc;" horiz-adv-x="295" 
d="M76 0v700h142v-700h-142zM153 756l-282 110h212l224 -110h-154z" />
    <glyph glyph-name="Iacute" unicode="&#xcd;" horiz-adv-x="295" 
d="M76 0v700h142v-700h-142zM427 866l-286 -110h-155l222 110h219z" />
    <glyph glyph-name="Icircumflex" unicode="&#xce;" horiz-adv-x="295" 
d="M76 0v700h142v-700h-142zM148 816l-167 -60h-138l204 110h202l204 -110h-138z" />
    <glyph glyph-name="Idieresis" unicode="&#xcf;" horiz-adv-x="295" 
d="M370 854v-89h-156v89h156zM81 854v-89h-156v89h156zM76 0v700h142v-700h-142z" />
    <glyph glyph-name="Eth" unicode="&#xd0;" horiz-adv-x="2571" 
d="M2285 700q113 0 171 -58t58 -171v-242q0 -113 -58 -171t-171 -58h-2209v288h-69v124h69v288h2209zM2266 124q106 0 106 107v238q0 107 -106 107h-2048v-164h338v-124h-338v-164h2048z" />
    <glyph glyph-name="Ntilde" unicode="&#xd1;" horiz-adv-x="2578" 
d="M276 576q-35 0 -49.5 -15t-14.5 -51v-510h-142v535q0 84 40.5 124.5t124.5 40.5h2107q85 0 125.5 -40.5t40.5 -124.5v-535h-142v510q0 36 -14.5 51t-49.5 15h-2026zM1033 747v83q68 49 140 49q45 0 124.5 -26.5t119.5 -26.5q65 0 127 50v-83q-70 -50 -141 -50
q-45 0 -124.5 26.5t-119.5 26.5q-66 0 -126 -49z" />
    <glyph glyph-name="Ograve" unicode="&#xd2;" horiz-adv-x="2570" 
d="M227 0q-84 0 -124.5 40.5t-40.5 124.5v370q0 84 40.5 124.5t124.5 40.5h2115q85 0 125 -40.5t40 -124.5v-370q0 -83 -40 -124t-125 -41h-2115zM2365 189v321q0 36 -14.5 51t-49.5 15h-2033q-33 0 -48 -15t-15 -51v-320q0 -36 14.5 -51t48.5 -15h2033q35 0 49.5 15
t14.5 50zM1276 756l-282 110h212l224 -110h-154z" />
    <glyph glyph-name="Oacute" unicode="&#xd3;" horiz-adv-x="2570" 
d="M227 0q-84 0 -124.5 40.5t-40.5 124.5v370q0 84 40.5 124.5t124.5 40.5h2115q85 0 125 -40.5t40 -124.5v-370q0 -83 -40 -124t-125 -41h-2115zM2365 189v321q0 36 -14.5 51t-49.5 15h-2033q-33 0 -48 -15t-15 -51v-320q0 -36 14.5 -51t48.5 -15h2033q35 0 49.5 15
t14.5 50zM1578 866l-286 -110h-155l222 110h219z" />
    <glyph glyph-name="Ocircumflex" unicode="&#xd4;" horiz-adv-x="2570" 
d="M227 0q-84 0 -124.5 40.5t-40.5 124.5v370q0 84 40.5 124.5t124.5 40.5h2115q85 0 125 -40.5t40 -124.5v-370q0 -83 -40 -124t-125 -41h-2115zM2365 189v321q0 36 -14.5 51t-49.5 15h-2033q-33 0 -48 -15t-15 -51v-320q0 -36 14.5 -51t48.5 -15h2033q35 0 49.5 15
t14.5 50zM1285 816l-167 -60h-138l204 110h202l204 -110h-138z" />
    <glyph glyph-name="Otilde" unicode="&#xd5;" horiz-adv-x="2570" 
d="M227 0q-84 0 -124.5 40.5t-40.5 124.5v370q0 84 40.5 124.5t124.5 40.5h2115q85 0 125 -40.5t40 -124.5v-370q0 -83 -40 -124t-125 -41h-2115zM2365 189v321q0 36 -14.5 51t-49.5 15h-2033q-33 0 -48 -15t-15 -51v-320q0 -36 14.5 -51t48.5 -15h2033q35 0 49.5 15
t14.5 50zM1029 747v83q68 49 140 49q45 0 124.5 -26.5t119.5 -26.5q65 0 127 50v-83q-70 -50 -141 -50q-45 0 -124.5 26.5t-119.5 26.5q-66 0 -126 -49z" />
    <glyph glyph-name="Odieresis" unicode="&#xd6;" horiz-adv-x="2570" 
d="M227 0q-84 0 -124.5 40.5t-40.5 124.5v370q0 84 40.5 124.5t124.5 40.5h2115q85 0 125 -40.5t40 -124.5v-370q0 -83 -40 -124t-125 -41h-2115zM2365 189v321q0 36 -14.5 51t-49.5 15h-2033q-33 0 -48 -15t-15 -51v-320q0 -36 14.5 -51t48.5 -15h2033q35 0 49.5 15
t14.5 50zM1162 854v-89h-156v89h156zM1563 854v-89h-155v89h155z" />
    <glyph glyph-name="multiply" unicode="&#xd7;" 
d="M1419 291l218 -257h-148l-214 257l-215 -257h-148l217 257h-1067v118h1067l-217 256h148l215 -256l214 256h148l-218 -256h1068v-118h-1068z" />
    <glyph glyph-name="Oslash" unicode="&#xd8;" horiz-adv-x="2570" 
d="M227 0q-84 0 -124.5 40.5t-40.5 124.5v370q0 84 40.5 124.5t124.5 40.5h2115q85 0 125 -40.5t40 -124.5v-370q0 -83 -40 -124t-125 -41h-2115zM2365 189v321q0 34 -12.5 49.5t-43.5 16.5l-1659 -452h1651q35 0 49.5 15t14.5 50zM259 124l1660 452h-1651q-33 0 -48 -15
t-15 -51v-320q0 -34 12.5 -49.5t41.5 -16.5z" />
    <glyph glyph-name="Ugrave" unicode="&#xd9;" horiz-adv-x="2578" 
d="M235 0q-84 0 -124.5 40.5t-40.5 124.5v535h142v-510q0 -36 14.5 -51t49.5 -15h2026q35 0 49.5 15t14.5 51v510h142v-535q0 -84 -40.5 -124.5t-125.5 -40.5h-2107zM1280 756l-282 110h212l224 -110h-154z" />
    <glyph glyph-name="Uacute" unicode="&#xda;" horiz-adv-x="2578" 
d="M235 0q-84 0 -124.5 40.5t-40.5 124.5v535h142v-510q0 -36 14.5 -51t49.5 -15h2026q35 0 49.5 15t14.5 51v510h142v-535q0 -84 -40.5 -124.5t-125.5 -40.5h-2107zM1576 866l-286 -110h-155l222 110h219z" />
    <glyph glyph-name="Ucircumflex" unicode="&#xdb;" horiz-adv-x="2578" 
d="M235 0q-84 0 -124.5 40.5t-40.5 124.5v535h142v-510q0 -36 14.5 -51t49.5 -15h2026q35 0 49.5 15t14.5 51v510h142v-535q0 -84 -40.5 -124.5t-125.5 -40.5h-2107zM1289 816l-167 -60h-138l204 110h202l204 -110h-138z" />
    <glyph glyph-name="Udieresis" unicode="&#xdc;" horiz-adv-x="2578" 
d="M235 0q-84 0 -124.5 40.5t-40.5 124.5v535h142v-510q0 -36 14.5 -51t49.5 -15h2026q35 0 49.5 15t14.5 51v510h142v-535q0 -84 -40.5 -124.5t-125.5 -40.5h-2107zM1166 854v-89h-156v89h156zM1567 854v-89h-155v89h155z" />
    <glyph glyph-name="Yacute" unicode="&#xdd;" horiz-adv-x="2546" 
d="M2356 700h142v-247q0 -84 -40.5 -124.5t-124.5 -40.5h-989v-288h-142v288h-988q-85 0 -125 40.5t-40 124.5v247h142v-223q0 -36 14.5 -50.5t49.5 -14.5h2037q35 0 49.5 14.5t14.5 50.5v223zM1564 866l-286 -110h-155l222 110h219z" />
    <glyph glyph-name="Thorn" unicode="&#xde;" horiz-adv-x="2543" 
d="M76 0v700h142v-97h2125q84 0 124 -40t40 -123v-86q0 -83 -40 -123t-124 -40h-2125v-191h-142zM2364 415q0 35 -14 49.5t-48 14.5h-2084v-164h2084q34 0 48 14.5t14 48.5v37z" />
    <glyph glyph-name="germandbls" unicode="&#xdf;" horiz-adv-x="2311" 
d="M2077 246h-1599v111h1599q27 0 38 11t11 38v26q0 28 -12 40t-40 12h-1792q-43 0 -62.5 -19t-19.5 -63v-402h-137v419q0 94 45 139t140 45h1876q73 0 106 -33t33 -104v-42q0 -56 -23 -86.5t-79 -36.5q56 -6 79 -36t23 -86v-42q0 -71 -34 -104t-105 -33h-1646v119h1596
q28 0 40 12t12 40v26q0 26 -11 37.5t-38 11.5z" />
    <glyph glyph-name="agrave" unicode="&#xe0;" horiz-adv-x="2288" 
d="M2094 357v62q0 65 -64 65h-1957v119h1997q84 0 122.5 -39.5t38.5 -123.5v-277q0 -84 -38.5 -123.5t-122.5 -39.5h-1881q-74 0 -109.5 35.5t-35.5 111.5v62q0 76 35.5 112t109.5 36h1905zM2094 246h-1862q-27 0 -39 -11.5t-12 -38.5v-26q0 -27 12 -39t39 -12h1798
q64 0 64 69v58zM1127 658l-282 110h212l224 -110h-154z" />
    <glyph glyph-name="aacute" unicode="&#xe1;" horiz-adv-x="2288" 
d="M2094 357v62q0 65 -64 65h-1957v119h1997q84 0 122.5 -39.5t38.5 -123.5v-277q0 -84 -38.5 -123.5t-122.5 -39.5h-1881q-74 0 -109.5 35.5t-35.5 111.5v62q0 76 35.5 112t109.5 36h1905zM2094 246h-1862q-27 0 -39 -11.5t-12 -38.5v-26q0 -27 12 -39t39 -12h1798
q64 0 64 69v58zM1422 768l-286 -110h-155l222 110h219z" />
    <glyph glyph-name="acircumflex" unicode="&#xe2;" horiz-adv-x="2288" 
d="M2094 357v62q0 65 -64 65h-1957v119h1997q84 0 122.5 -39.5t38.5 -123.5v-277q0 -84 -38.5 -123.5t-122.5 -39.5h-1881q-74 0 -109.5 35.5t-35.5 111.5v62q0 76 35.5 112t109.5 36h1905zM2094 246h-1862q-27 0 -39 -11.5t-12 -38.5v-26q0 -27 12 -39t39 -12h1798
q64 0 64 69v58zM1135 718l-167 -60h-138l204 110h202l204 -110h-138z" />
    <glyph glyph-name="atilde" unicode="&#xe3;" horiz-adv-x="2288" 
d="M2094 357v62q0 65 -64 65h-1957v119h1997q84 0 122.5 -39.5t38.5 -123.5v-277q0 -84 -38.5 -123.5t-122.5 -39.5h-1881q-74 0 -109.5 35.5t-35.5 111.5v62q0 76 35.5 112t109.5 36h1905zM2094 246h-1862q-27 0 -39 -11.5t-12 -38.5v-26q0 -27 12 -39t39 -12h1798
q64 0 64 69v58zM879 649v83q68 49 140 49q45 0 124.5 -26.5t119.5 -26.5q65 0 127 50v-83q-70 -50 -141 -50q-45 0 -124.5 26.5t-119.5 26.5q-66 0 -126 -49z" />
    <glyph glyph-name="adieresis" unicode="&#xe4;" horiz-adv-x="2288" 
d="M2094 357v62q0 65 -64 65h-1957v119h1997q84 0 122.5 -39.5t38.5 -123.5v-277q0 -84 -38.5 -123.5t-122.5 -39.5h-1881q-74 0 -109.5 35.5t-35.5 111.5v62q0 76 35.5 112t109.5 36h1905zM2094 246h-1862q-27 0 -39 -11.5t-12 -38.5v-26q0 -27 12 -39t39 -12h1798
q64 0 64 69v58zM1013 756v-89h-156v89h156zM1414 756v-89h-155v89h155z" />
    <glyph glyph-name="aring" unicode="&#xe5;" horiz-adv-x="2288" 
d="M2094 357v62q0 65 -64 65h-1957v119h1997q84 0 122.5 -39.5t38.5 -123.5v-277q0 -84 -38.5 -123.5t-122.5 -39.5h-1881q-74 0 -109.5 35.5t-35.5 111.5v62q0 76 35.5 112t109.5 36h1905zM2094 246h-1862q-27 0 -39 -11.5t-12 -38.5v-26q0 -27 12 -39t39 -12h1798
q64 0 64 69v58zM999 728q0 -25 30 -25h211q30 0 30 25t-30 25h-211q-30 0 -30 -25zM1231 652h-193q-51 0 -72.5 19t-21.5 57t21.5 57t72.5 19h193q51 0 72.5 -19t21.5 -57t-21.5 -57t-72.5 -19z" />
    <glyph glyph-name="ae" unicode="&#xe6;" horiz-adv-x="3410" 
d="M3229 408v25q0 27 -12 39t-39 12h-1345q-60 0 -60 -61v-66h1405q28 0 39.5 11.5t11.5 39.5zM181 196v-26q0 -27 12 -39t39 -12h1345q60 0 60 61v66h-1405q-27 0 -39 -11.5t-12 -38.5zM1553 0h-1364q-74 0 -109.5 35.5t-35.5 111.5v62q0 76 35.5 112t109.5 36h1448v66
q0 61 -60 61h-1504v119h1480q75 0 110 -29t42 -95q7 66 42.5 95t109.5 29h1364q74 0 109.5 -35.5t35.5 -111.5v-63q0 -76 -35 -111.5t-109 -35.5h-1449v-66q0 -61 60 -61h1504v-119h-1480q-74 0 -109.5 29t-42.5 95q-7 -66 -42 -95t-110 -29z" />
    <glyph glyph-name="ccedilla" unicode="&#xe7;" horiz-adv-x="2217" 
d="M1140 0l-18 -43h168q60 0 85 -13.5t25 -48.5q0 -43 -33.5 -63.5t-115.5 -20.5h-363v81h358q49 0 49 23q0 11 -7.5 14.5t-28.5 3.5h-174l29 67h-896q-84 0 -122.5 39.5t-38.5 123.5v277q0 84 38.5 123.5t122.5 39.5h1953v-119h-1913q-65 0 -65 -65v-235q0 -65 65 -65h1913
v-119h-1031z" />
    <glyph glyph-name="egrave" unicode="&#xe8;" horiz-adv-x="2288" 
d="M2244 393q0 -76 -35.5 -111.5t-109.5 -35.5h-1906v-62q0 -65 65 -65h1956v-119h-1996q-87 0 -124 42t-37 132v266q0 83 39 123t122 40h1881q74 0 109.5 -35.5t35.5 -111.5v-63zM2056 484h-1798q-38 0 -51.5 -18.5t-13.5 -61.5v-47h1863q27 0 39 11.5t12 38.5v23
q0 29 -11 41.5t-40 12.5zM1159 658l-282 110h212l224 -110h-154z" />
    <glyph glyph-name="eacute" unicode="&#xe9;" horiz-adv-x="2288" 
d="M2244 393q0 -76 -35.5 -111.5t-109.5 -35.5h-1906v-62q0 -65 65 -65h1956v-119h-1996q-87 0 -124 42t-37 132v266q0 83 39 123t122 40h1881q74 0 109.5 -35.5t35.5 -111.5v-63zM2056 484h-1798q-38 0 -51.5 -18.5t-13.5 -61.5v-47h1863q27 0 39 11.5t12 38.5v23
q0 29 -11 41.5t-40 12.5zM1460 768l-286 -110h-155l222 110h219z" />
    <glyph glyph-name="ecircumflex" unicode="&#xea;" horiz-adv-x="2288" 
d="M2244 393q0 -76 -35.5 -111.5t-109.5 -35.5h-1906v-62q0 -65 65 -65h1956v-119h-1996q-87 0 -124 42t-37 132v266q0 83 39 123t122 40h1881q74 0 109.5 -35.5t35.5 -111.5v-63zM2056 484h-1798q-38 0 -51.5 -18.5t-13.5 -61.5v-47h1863q27 0 39 11.5t12 38.5v23
q0 29 -11 41.5t-40 12.5zM1167 718l-167 -60h-138l204 110h202l204 -110h-138z" />
    <glyph glyph-name="edieresis" unicode="&#xeb;" horiz-adv-x="2288" 
d="M2244 393q0 -76 -35.5 -111.5t-109.5 -35.5h-1906v-62q0 -65 65 -65h1956v-119h-1996q-87 0 -124 42t-37 132v266q0 83 39 123t122 40h1881q74 0 109.5 -35.5t35.5 -111.5v-63zM2056 484h-1798q-38 0 -51.5 -18.5t-13.5 -61.5v-47h1863q27 0 39 11.5t12 38.5v23
q0 29 -11 41.5t-40 12.5zM1045 756v-89h-156v89h156zM1446 756v-89h-155v89h155z" />
    <glyph glyph-name="igrave" unicode="&#xec;" horiz-adv-x="415" 
d="M185 658l-282 110h212l224 -110h-154zM265 119h125v-119h-164q-84 0 -122 38.5t-38 120.5v444h137v-422q0 -33 15 -47.5t47 -14.5z" />
    <glyph glyph-name="iacute" unicode="&#xed;" horiz-adv-x="415" 
d="M415 768l-286 -110h-155l222 110h219zM265 119h125v-119h-164q-84 0 -122 38.5t-38 120.5v444h137v-422q0 -33 15 -47.5t47 -14.5z" />
    <glyph glyph-name="icircumflex" unicode="&#xee;" horiz-adv-x="415" 
d="M265 119h125v-119h-164q-84 0 -122 38.5t-38 120.5v444h137v-422q0 -33 15 -47.5t47 -14.5zM135 718l-167 -60h-138l204 110h202l204 -110h-138z" />
    <glyph glyph-name="idieresis" unicode="&#xef;" horiz-adv-x="415" 
d="M360 756v-89h-156v89h156zM65 756v-89h-156v89h156zM265 119h125v-119h-164q-84 0 -122 38.5t-38 120.5v444h137v-422q0 -33 15 -47.5t47 -14.5z" />
    <glyph glyph-name="eth" unicode="&#xf0;" horiz-adv-x="2285" 
d="M219 558h1730q60 0 92 -19.5t44 -61.5v81q0 50 -22 71.5t-72 21.5h-841v-56h-85v56h-968v119h968v50h85v-50h857q112 0 163.5 -52t51.5 -163v-392q0 -84 -39 -123.5t-123 -39.5h-1841q-84 0 -123 39.5t-39 123.5v232q0 84 39 123.5t123 39.5zM2021 439h-1763
q-34 -1 -49.5 -16t-15.5 -49v-189q0 -65 65 -65h1763q64 0 64 65v189q0 34 -15 49.5t-49 15.5z" />
    <glyph glyph-name="ntilde" unicode="&#xf1;" horiz-adv-x="2284" 
d="M63 0v440q0 84 39 123.5t122 39.5h1836q83 0 122 -39.5t39 -123.5v-440h-137v419q0 34 -15.5 49.5t-49.5 15.5h-1754q-35 0 -50 -15.5t-15 -49.5v-419h-137zM886 649v83q68 49 140 49q45 0 124.5 -26.5t119.5 -26.5q65 0 127 50v-83q-70 -50 -141 -50q-45 0 -124.5 26.5
t-119.5 26.5q-66 0 -126 -49z" />
    <glyph glyph-name="ograve" unicode="&#xf2;" horiz-adv-x="2278" 
d="M2060 603q84 0 123 -39.5t39 -123.5v-277q0 -84 -39 -123.5t-123 -39.5h-1842q-84 0 -122.5 39.5t-38.5 123.5v277q0 84 38.5 123.5t122.5 39.5h1842zM2020 119q65 0 65 65v235q0 65 -65 65h-1762q-65 0 -65 -65v-235q0 -65 65 -65h1762zM1131 658l-282 110h212l224 -110
h-154z" />
    <glyph glyph-name="oacute" unicode="&#xf3;" horiz-adv-x="2278" 
d="M2060 603q84 0 123 -39.5t39 -123.5v-277q0 -84 -39 -123.5t-123 -39.5h-1842q-84 0 -122.5 39.5t-38.5 123.5v277q0 84 38.5 123.5t122.5 39.5h1842zM2020 119q65 0 65 65v235q0 65 -65 65h-1762q-65 0 -65 -65v-235q0 -65 65 -65h1762zM1432 768l-286 -110h-155
l222 110h219z" />
    <glyph glyph-name="ocircumflex" unicode="&#xf4;" horiz-adv-x="2278" 
d="M2060 603q84 0 123 -39.5t39 -123.5v-277q0 -84 -39 -123.5t-123 -39.5h-1842q-84 0 -122.5 39.5t-38.5 123.5v277q0 84 38.5 123.5t122.5 39.5h1842zM2020 119q65 0 65 65v235q0 65 -65 65h-1762q-65 0 -65 -65v-235q0 -65 65 -65h1762zM1139 718l-167 -60h-138l204 110
h202l204 -110h-138z" />
    <glyph glyph-name="otilde" unicode="&#xf5;" horiz-adv-x="2278" 
d="M2060 603q84 0 123 -39.5t39 -123.5v-277q0 -84 -39 -123.5t-123 -39.5h-1842q-84 0 -122.5 39.5t-38.5 123.5v277q0 84 38.5 123.5t122.5 39.5h1842zM2020 119q65 0 65 65v235q0 65 -65 65h-1762q-65 0 -65 -65v-235q0 -65 65 -65h1762zM883 649v83q68 49 140 49
q45 0 124.5 -26.5t119.5 -26.5q65 0 127 50v-83q-70 -50 -141 -50q-45 0 -124.5 26.5t-119.5 26.5q-66 0 -126 -49z" />
    <glyph glyph-name="odieresis" unicode="&#xf6;" horiz-adv-x="2278" 
d="M2060 603q84 0 123 -39.5t39 -123.5v-277q0 -84 -39 -123.5t-123 -39.5h-1842q-84 0 -122.5 39.5t-38.5 123.5v277q0 84 38.5 123.5t122.5 39.5h1842zM2020 119q65 0 65 65v235q0 65 -65 65h-1762q-65 0 -65 -65v-235q0 -65 65 -65h1762zM1016 756v-89h-156v89h156z
M1417 756v-89h-155v89h155z" />
    <glyph glyph-name="divide" unicode="&#xf7;" 
d="M1359 150v-118h-169v118h169zM1359 668v-118h-169v118h169zM2487 291h-2425v118h2425v-118z" />
    <glyph glyph-name="oslash" unicode="&#xf8;" horiz-adv-x="2278" 
d="M2060 603q84 0 123 -39.5t39 -123.5v-277q0 -84 -39 -123.5t-123 -39.5h-1842q-84 0 -122.5 39.5t-38.5 123.5v277q0 84 38.5 123.5t122.5 39.5h1842zM2020 119q65 0 65 65v235q0 58 -50 64l-1415 -364h1400zM242 120l1415 364h-1399q-65 0 -65 -65v-235q0 -58 49 -64z
" />
    <glyph glyph-name="ugrave" unicode="&#xf9;" horiz-adv-x="2284" 
d="M2019 119q34 0 49.5 15.5t15.5 49.5v419h137v-440q0 -84 -39 -123.5t-122 -39.5h-1836q-83 0 -122 39.5t-39 123.5v440h137v-419q0 -34 15 -49.5t50 -15.5h1754zM1136 658l-282 110h212l224 -110h-154z" />
    <glyph glyph-name="uacute" unicode="&#xfa;" horiz-adv-x="2284" 
d="M2019 119q34 0 49.5 15.5t15.5 49.5v419h137v-440q0 -84 -39 -123.5t-122 -39.5h-1836q-83 0 -122 39.5t-39 123.5v440h137v-419q0 -34 15 -49.5t50 -15.5h1754zM1435 768l-286 -110h-155l222 110h219z" />
    <glyph glyph-name="ucircumflex" unicode="&#xfb;" horiz-adv-x="2284" 
d="M2019 119q34 0 49.5 15.5t15.5 49.5v419h137v-440q0 -84 -39 -123.5t-122 -39.5h-1836q-83 0 -122 39.5t-39 123.5v440h137v-419q0 -34 15 -49.5t50 -15.5h1754zM1142 718l-167 -60h-138l204 110h202l204 -110h-138z" />
    <glyph glyph-name="udieresis" unicode="&#xfc;" horiz-adv-x="2284" 
d="M2019 119q34 0 49.5 15.5t15.5 49.5v419h137v-440q0 -84 -39 -123.5t-122 -39.5h-1836q-83 0 -122 39.5t-39 123.5v440h137v-419q0 -34 15 -49.5t50 -15.5h1754zM1019 756v-89h-156v89h156zM1420 756v-89h-155v89h155z" />
    <glyph glyph-name="yacute" unicode="&#xfd;" horiz-adv-x="2291" 
d="M2007 -167h-1904v119h1887q50 0 72.5 21.5t22.5 72.5v84q-13 -42 -45 -61.5t-92 -19.5h-1723q-84 0 -123 39.5t-39 123.5v391h137v-369q0 -65 65 -65h1755q34 0 49.5 15.5t15.5 49.5v369h136v-555q0 -111 -51.5 -163t-162.5 -52zM1438 768l-286 -110h-155l222 110h219z
" />
    <glyph glyph-name="thorn" unicode="&#xfe;" horiz-adv-x="2291" 
d="M206 770v-167h1868q83 0 122 -39.5t39 -123.5v-277q0 -84 -39 -123.5t-122 -39.5h-1732q-60 0 -92 19.5t-44 61.5v-248h-137v937h137zM206 484v-300q0 -34 15.5 -49.5t49.5 -15.5h1762q34 0 49.5 15.5t15.5 49.5v235q0 34 -15.5 49.5t-49.5 15.5h-1827z" />
    <glyph glyph-name="ydieresis" unicode="&#xff;" horiz-adv-x="2291" 
d="M2007 -167h-1904v119h1887q50 0 72.5 21.5t22.5 72.5v84q-13 -42 -45 -61.5t-92 -19.5h-1723q-84 0 -123 39.5t-39 123.5v391h137v-369q0 -65 65 -65h1755q34 0 49.5 15.5t15.5 49.5v369h136v-555q0 -111 -51.5 -163t-162.5 -52zM1022 756v-89h-156v89h156zM1423 756v-89
h-155v89h155z" />
    <glyph glyph-name="Amacron" unicode="&#x100;" horiz-adv-x="2578" 
d="M2508 0h-142v288h-2154v-288h-142v535q0 84 40.5 124.5t124.5 40.5h2107q85 0 125.5 -40.5t40.5 -124.5v-535zM2302 576h-2026q-35 0 -49.5 -15t-14.5 -51v-98h2154v98q0 36 -14.5 51t-49.5 15zM1546 774h-514v75h514v-75z" />
    <glyph glyph-name="amacron" unicode="&#x101;" horiz-adv-x="2288" 
d="M2094 357v62q0 65 -64 65h-1957v119h1997q84 0 122.5 -39.5t38.5 -123.5v-277q0 -84 -38.5 -123.5t-122.5 -39.5h-1881q-74 0 -109.5 35.5t-35.5 111.5v62q0 76 35.5 112t109.5 36h1905zM2094 246h-1862q-27 0 -39 -11.5t-12 -38.5v-26q0 -27 12 -39t39 -12h1798
q64 0 64 69v58zM1392 676h-514v75h514v-75z" />
    <glyph glyph-name="Abreve" unicode="&#x102;" horiz-adv-x="2578" 
d="M2508 0h-142v288h-2154v-288h-142v535q0 84 40.5 124.5t124.5 40.5h2107q85 0 125.5 -40.5t40.5 -124.5v-535zM2302 576h-2026q-35 0 -49.5 -15t-14.5 -51v-98h2154v98q0 36 -14.5 51t-49.5 15zM1033 807v79q97 -58 256 -58q158 0 255 58v-79q-93 -62 -255 -62t-256 62z
" />
    <glyph glyph-name="abreve" unicode="&#x103;" horiz-adv-x="2288" 
d="M2094 357v62q0 65 -64 65h-1957v119h1997q84 0 122.5 -39.5t38.5 -123.5v-277q0 -84 -38.5 -123.5t-122.5 -39.5h-1881q-74 0 -109.5 35.5t-35.5 111.5v62q0 76 35.5 112t109.5 36h1905zM2094 246h-1862q-27 0 -39 -11.5t-12 -38.5v-26q0 -27 12 -39t39 -12h1798
q64 0 64 69v58zM879 709v79q97 -58 256 -58q158 0 255 58v-79q-93 -62 -255 -62t-256 62z" />
    <glyph glyph-name="Aogonek" unicode="&#x104;" horiz-adv-x="2578" 
d="M2302 576h-2026q-35 0 -49.5 -15t-14.5 -51v-98h2154v98q0 36 -14.5 51t-49.5 15zM2421 0h-55v288h-2154v-288h-142v535q0 84 40.5 124.5t124.5 40.5h2107q85 0 125.5 -40.5t40.5 -124.5v-535h-61v-66h-36q-96 0 -159.5 -1t-101 -3t-56.5 -6t-24.5 -8t-5.5 -11
q0 -13 34 -13h395v-81h-398q-62 0 -89.5 13t-27.5 48q0 19 4.5 31t21 22.5t43 16t75 9.5t112.5 5.5t160 1.5h27v42z" />
    <glyph glyph-name="aogonek" unicode="&#x105;" horiz-adv-x="2288" 
d="M2171 -66h-36q-96 0 -159.5 -1t-101 -3t-56.5 -6t-24.5 -8t-5.5 -11q0 -13 34 -13h395v-81h-398q-62 0 -89.5 13t-27.5 48q0 19 4.5 31t21 22.5t43 16t75 9.5t112.5 5.5t160 1.5h27v53q-33 -11 -75 -11h-1881q-74 0 -109.5 35.5t-35.5 111.5v62q0 76 35.5 112t109.5 36
h1905v62q0 65 -64 65h-1957v119h1997q84 0 122.5 -39.5t38.5 -123.5v-277q0 -103 -60 -140v-89zM2094 246h-1862q-27 0 -39 -11.5t-12 -38.5v-26q0 -27 12 -39t39 -12h1798q64 0 64 69v58z" />
    <glyph glyph-name="Cacute" unicode="&#x106;" horiz-adv-x="2479" 
d="M227 0q-84 0 -124.5 40.5t-40.5 124.5v370q0 84 40.5 124.5t124.5 40.5h2203v-124h-2162q-34 0 -48.5 -15t-14.5 -51v-320q0 -36 14.5 -51t48.5 -15h2162v-124h-2203zM1570 866l-286 -110h-155l222 110h219z" />
    <glyph glyph-name="cacute" unicode="&#x107;" horiz-adv-x="2217" 
d="M218 0q-84 0 -122.5 39.5t-38.5 123.5v277q0 84 38.5 123.5t122.5 39.5h1953v-119h-1913q-65 0 -65 -65v-235q0 -65 65 -65h1913v-119h-1953zM1444 768l-286 -110h-155l222 110h219z" />
    <glyph glyph-name="Ccircumflex" unicode="&#x108;" horiz-adv-x="2479" 
d="M227 0q-84 0 -124.5 40.5t-40.5 124.5v370q0 84 40.5 124.5t124.5 40.5h2203v-124h-2162q-34 0 -48.5 -15t-14.5 -51v-320q0 -36 14.5 -51t48.5 -15h2162v-124h-2203zM1282 816l-167 -60h-138l204 110h202l204 -110h-138z" />
    <glyph glyph-name="ccircumflex" unicode="&#x109;" horiz-adv-x="2217" 
d="M218 0q-84 0 -122.5 39.5t-38.5 123.5v277q0 84 38.5 123.5t122.5 39.5h1953v-119h-1913q-65 0 -65 -65v-235q0 -65 65 -65h1913v-119h-1953zM1151 718l-167 -60h-138l204 110h202l204 -110h-138z" />
    <glyph glyph-name="Cdotaccent" unicode="&#x10a;" horiz-adv-x="2479" 
d="M227 0q-84 0 -124.5 40.5t-40.5 124.5v370q0 84 40.5 124.5t124.5 40.5h2203v-124h-2162q-34 0 -48.5 -15t-14.5 -51v-320q0 -36 14.5 -51t48.5 -15h2162v-124h-2203zM1360 854v-89h-156v89h156z" />
    <glyph glyph-name="cdotaccent" unicode="&#x10b;" horiz-adv-x="2217" 
d="M218 0q-84 0 -122.5 39.5t-38.5 123.5v277q0 84 38.5 123.5t122.5 39.5h1953v-119h-1913q-65 0 -65 -65v-235q0 -65 65 -65h1913v-119h-1953zM1229 756v-89h-156v89h156z" />
    <glyph glyph-name="Ccaron" unicode="&#x10c;" horiz-adv-x="2479" 
d="M227 0q-84 0 -124.5 40.5t-40.5 124.5v370q0 84 40.5 124.5t124.5 40.5h2203v-124h-2162q-34 0 -48.5 -15t-14.5 -51v-320q0 -36 14.5 -51t48.5 -15h2162v-124h-2203zM1115 866l167 -59l167 59h138l-204 -110h-202l-204 110h138z" />
    <glyph glyph-name="ccaron" unicode="&#x10d;" horiz-adv-x="2217" 
d="M218 0q-84 0 -122.5 39.5t-38.5 123.5v277q0 84 38.5 123.5t122.5 39.5h1953v-119h-1913q-65 0 -65 -65v-235q0 -65 65 -65h1913v-119h-1953zM984 768l167 -59l167 59h138l-204 -110h-202l-204 110h138z" />
    <glyph glyph-name="Dcaron" unicode="&#x10e;" horiz-adv-x="2571" 
d="M2285 700q113 0 171 -58t58 -171v-242q0 -113 -58 -171t-171 -58h-2209v700h2209zM2266 124q106 0 106 107v238q0 107 -106 107h-2048v-452h2048zM1106 866l167 -59l167 59h138l-204 -110h-202l-204 110h138z" />
    <glyph glyph-name="dcaron" unicode="&#x10f;" horiz-adv-x="2578" 
d="M2222 770v-607q0 -84 -39 -123.5t-123 -39.5h-1843q-83 0 -121.5 39.5t-38.5 123.5v277q0 84 38.5 123.5t121.5 39.5h1732q60 0 92 -19.5t44 -61.5v248h137zM2085 184v235q0 34 -15 49.5t-49 15.5h-1763q-34 0 -49.5 -15.5t-15.5 -49.5v-235q0 -34 15.5 -49.5t49.5 -15.5
h1763q34 0 49 15.5t15 49.5zM2520 700v-117q0 -66 -34.5 -103t-100.5 -37h-42v66h34q27 0 39 12t12 42v20h-85v117h177z" />
    <glyph glyph-name="Dcroat" unicode="&#x110;" horiz-adv-x="2571" 
d="M2285 700q113 0 171 -58t58 -171v-242q0 -113 -58 -171t-171 -58h-2209v288h-69v124h69v288h2209zM2266 124q106 0 106 107v238q0 107 -106 107h-2048v-164h338v-124h-338v-164h2048z" />
    <glyph glyph-name="dcroat" unicode="&#x111;" horiz-adv-x="2285" 
d="M2222 770v-57h63v-74h-63v-476q0 -84 -39 -123.5t-123 -39.5h-1843q-83 0 -121.5 39.5t-38.5 123.5v277q0 84 38.5 123.5t121.5 39.5h1732q60 0 92 -19.5t44 -61.5v117h-314v74h314v57h137zM2085 184v235q0 34 -15 49.5t-49 15.5h-1763q-34 0 -49.5 -15.5t-15.5 -49.5
v-235q0 -34 15.5 -49.5t49.5 -15.5h1763q34 0 49 15.5t15 49.5z" />
    <glyph glyph-name="Emacron" unicode="&#x112;" horiz-adv-x="2541" 
d="M76 0v700h2417v-124h-2275v-164h2160v-124h-2160v-164h2275v-124h-2417zM1557 774h-514v75h514v-75z" />
    <glyph glyph-name="emacron" unicode="&#x113;" horiz-adv-x="2288" 
d="M2244 393q0 -76 -35.5 -111.5t-109.5 -35.5h-1906v-62q0 -65 65 -65h1956v-119h-1996q-87 0 -124 42t-37 132v266q0 83 39 123t122 40h1881q74 0 109.5 -35.5t35.5 -111.5v-63zM2056 484h-1798q-38 0 -51.5 -18.5t-13.5 -61.5v-47h1863q27 0 39 11.5t12 38.5v23
q0 29 -11 41.5t-40 12.5zM1424 676h-514v75h514v-75z" />
    <glyph glyph-name="Ebreve" unicode="&#x114;" horiz-adv-x="2541" 
d="M76 0v700h2417v-124h-2275v-164h2160v-124h-2160v-164h2275v-124h-2417zM1044 807v79q97 -58 256 -58q158 0 255 58v-79q-93 -62 -255 -62t-256 62z" />
    <glyph glyph-name="ebreve" unicode="&#x115;" horiz-adv-x="2288" 
d="M2244 393q0 -76 -35.5 -111.5t-109.5 -35.5h-1906v-62q0 -65 65 -65h1956v-119h-1996q-87 0 -124 42t-37 132v266q0 83 39 123t122 40h1881q74 0 109.5 -35.5t35.5 -111.5v-63zM2056 484h-1798q-38 0 -51.5 -18.5t-13.5 -61.5v-47h1863q27 0 39 11.5t12 38.5v23
q0 29 -11 41.5t-40 12.5zM911 709v79q97 -58 256 -58q158 0 255 58v-79q-93 -62 -255 -62t-256 62z" />
    <glyph glyph-name="Edotaccent" unicode="&#x116;" horiz-adv-x="2541" 
d="M76 0v700h2417v-124h-2275v-164h2160v-124h-2160v-164h2275v-124h-2417zM1378 854v-89h-156v89h156z" />
    <glyph glyph-name="edotaccent" unicode="&#x117;" horiz-adv-x="2288" 
d="M2244 393q0 -76 -35.5 -111.5t-109.5 -35.5h-1906v-62q0 -65 65 -65h1956v-119h-1996q-87 0 -124 42t-37 132v266q0 83 39 123t122 40h1881q74 0 109.5 -35.5t35.5 -111.5v-63zM2056 484h-1798q-38 0 -51.5 -18.5t-13.5 -61.5v-47h1863q27 0 39 11.5t12 38.5v23
q0 29 -11 41.5t-40 12.5zM1245 756v-89h-156v89h156z" />
    <glyph glyph-name="Eogonek" unicode="&#x118;" horiz-adv-x="2541" 
d="M2446 -66h-36q-96 0 -159.5 -1t-101 -3t-56.5 -6t-24.5 -8t-5.5 -11q0 -13 34 -13h395v-81h-398q-62 0 -89.5 13t-27.5 48q0 19 4.5 31t21 22.5t43 16t75 9.5t112.5 5.5t160 1.5h27v42h-2344v700h2417v-124h-2275v-164h2160v-124h-2160v-164h2275v-124h-47v-66z" />
    <glyph glyph-name="eogonek" unicode="&#x119;" horiz-adv-x="2288" 
d="M2056 484h-1798q-38 0 -51.5 -18.5t-13.5 -61.5v-47h1863q27 0 39 11.5t12 38.5v23q0 29 -11 41.5t-40 12.5zM2159 -42v42h-1941q-87 0 -124 42t-37 132v266q0 83 39 123t122 40h1881q74 0 109.5 -35.5t35.5 -111.5v-63q0 -76 -35.5 -111.5t-109.5 -35.5h-1906v-62
q0 -65 65 -65h1956v-119h-29v-66h-53q-96 0 -159.5 -1t-101 -3t-56.5 -6t-24.5 -8t-5.5 -11q0 -13 34 -13h395v-81h-398q-62 0 -89.5 13t-27.5 48q0 19 4.5 31t21 22.5t43 16t75 9.5t112.5 5.5t160 1.5h44z" />
    <glyph glyph-name="Ecaron" unicode="&#x11a;" horiz-adv-x="2541" 
d="M76 0v700h2417v-124h-2275v-164h2160v-124h-2160v-164h2275v-124h-2417zM1133 866l167 -59l167 59h138l-204 -110h-202l-204 110h138z" />
    <glyph glyph-name="ecaron" unicode="&#x11b;" horiz-adv-x="2288" 
d="M2244 393q0 -76 -35.5 -111.5t-109.5 -35.5h-1906v-62q0 -65 65 -65h1956v-119h-1996q-87 0 -124 42t-37 132v266q0 83 39 123t122 40h1881q74 0 109.5 -35.5t35.5 -111.5v-63zM2056 484h-1798q-38 0 -51.5 -18.5t-13.5 -61.5v-47h1863q27 0 39 11.5t12 38.5v23
q0 29 -11 41.5t-40 12.5zM1000 768l167 -59l167 59h138l-204 -110h-202l-204 110h138z" />
    <glyph glyph-name="Gcircumflex" unicode="&#x11c;" horiz-adv-x="2567" 
d="M2307 124q35 0 47 12.5t12 47.5v104h-1273v124h1415v-259q0 -82 -35 -117.5t-118 -35.5h-2128q-84 0 -124.5 40.5t-40.5 124.5v370q0 84 40.5 124.5t124.5 40.5h2256v-124h-2215q-34 0 -48.5 -15t-14.5 -51v-320q0 -36 14.5 -51t48.5 -15h2039zM1298 816l-167 -60h-138
l204 110h202l204 -110h-138z" />
    <glyph glyph-name="gcircumflex" unicode="&#x11d;" horiz-adv-x="2285" 
d="M2021 169q34 0 49 15.5t15 49.5v185q0 65 -64 65h-1763q-65 0 -65 -65v-185q0 -65 65 -65h1763zM1949 49h-1730q-84 0 -123 39.5t-39 123.5v228q0 84 39 123.5t123 39.5h1841q84 0 123 -39.5t39 -123.5v-392q0 -111 -51.5 -163t-163.5 -52h-1910v119h1894q50 0 72 21.5
t22 72.5v84q-12 -42 -44.5 -61.5t-91.5 -19.5zM1143 718l-167 -60h-138l204 110h202l204 -110h-138z" />
    <glyph glyph-name="Gbreve" unicode="&#x11e;" horiz-adv-x="2567" 
d="M2307 124q35 0 47 12.5t12 47.5v104h-1273v124h1415v-259q0 -82 -35 -117.5t-118 -35.5h-2128q-84 0 -124.5 40.5t-40.5 124.5v370q0 84 40.5 124.5t124.5 40.5h2256v-124h-2215q-34 0 -48.5 -15t-14.5 -51v-320q0 -36 14.5 -51t48.5 -15h2039zM1042 807v79
q97 -58 256 -58q158 0 255 58v-79q-93 -62 -255 -62t-256 62z" />
    <glyph glyph-name="gbreve" unicode="&#x11f;" horiz-adv-x="2285" 
d="M2021 169q34 0 49 15.5t15 49.5v185q0 65 -64 65h-1763q-65 0 -65 -65v-185q0 -65 65 -65h1763zM1949 49h-1730q-84 0 -123 39.5t-39 123.5v228q0 84 39 123.5t123 39.5h1841q84 0 123 -39.5t39 -123.5v-392q0 -111 -51.5 -163t-163.5 -52h-1910v119h1894q50 0 72 21.5
t22 72.5v84q-12 -42 -44.5 -61.5t-91.5 -19.5zM887 709v79q97 -58 256 -58q158 0 255 58v-79q-93 -62 -255 -62t-256 62z" />
    <glyph glyph-name="Gdotaccent" unicode="&#x120;" horiz-adv-x="2567" 
d="M2307 124q35 0 47 12.5t12 47.5v104h-1273v124h1415v-259q0 -82 -35 -117.5t-118 -35.5h-2128q-84 0 -124.5 40.5t-40.5 124.5v370q0 84 40.5 124.5t124.5 40.5h2256v-124h-2215q-34 0 -48.5 -15t-14.5 -51v-320q0 -36 14.5 -51t48.5 -15h2039zM1376 854v-89h-156v89h156
z" />
    <glyph glyph-name="gdotaccent" unicode="&#x121;" horiz-adv-x="2285" 
d="M2021 169q34 0 49 15.5t15 49.5v185q0 65 -64 65h-1763q-65 0 -65 -65v-185q0 -65 65 -65h1763zM1949 49h-1730q-84 0 -123 39.5t-39 123.5v228q0 84 39 123.5t123 39.5h1841q84 0 123 -39.5t39 -123.5v-392q0 -111 -51.5 -163t-163.5 -52h-1910v119h1894q50 0 72 21.5
t22 72.5v84q-12 -42 -44.5 -61.5t-91.5 -19.5zM1221 756v-89h-156v89h156z" />
    <glyph glyph-name="uni0122" unicode="&#x122;" horiz-adv-x="2567" 
d="M2307 124q35 0 47 12.5t12 47.5v104h-1273v124h1415v-259q0 -82 -35 -117.5t-118 -35.5h-2128q-84 0 -124.5 40.5t-40.5 124.5v370q0 84 40.5 124.5t124.5 40.5h2256v-124h-2215q-34 0 -48.5 -15t-14.5 -51v-320q0 -36 14.5 -51t48.5 -15h2039zM1374 -70v-70
q0 -53 -27.5 -82.5t-80.5 -29.5h-43v39h38q22 0 32 10.5t10 33.5v13h-82v86h153z" />
    <glyph glyph-name="uni0123" unicode="&#x123;" horiz-adv-x="2285" 
d="M1066 667v70q0 53 27.5 82.5t80.5 29.5h43v-39h-38q-22 0 -32 -10.5t-10 -33.5v-13h82v-86h-153zM2021 169q34 0 49 15.5t15 49.5v185q0 65 -64 65h-1763q-65 0 -65 -65v-185q0 -65 65 -65h1763zM1949 49h-1730q-84 0 -123 39.5t-39 123.5v228q0 84 39 123.5t123 39.5
h1841q84 0 123 -39.5t39 -123.5v-392q0 -111 -51.5 -163t-163.5 -52h-1910v119h1894q50 0 72 21.5t22 72.5v84q-12 -42 -44.5 -61.5t-91.5 -19.5z" />
    <glyph glyph-name="Hcircumflex" unicode="&#x124;" horiz-adv-x="2603" 
d="M2384 0v288h-2166v-288h-142v700h142v-288h2166v288h142v-700h-142zM1301 816l-167 -60h-138l204 110h202l204 -110h-138z" />
    <glyph glyph-name="hcircumflex" unicode="&#x125;" horiz-adv-x="2291" 
d="M2091 419q0 34 -15.5 49.5t-49.5 15.5h-1755q-34 0 -49.5 -15.5t-15.5 -49.5v-419h-137v770h137v-248q12 42 44 61.5t92 19.5h1725q83 0 122 -39.5t39 -123.5v-440h-137v419zM1179 718l-167 -60h-138l204 110h202l204 -110h-138z" />
    <glyph glyph-name="Hbar" unicode="&#x126;" horiz-adv-x="2603" 
d="M2384 0v288h-2166v-288h-142v503h-44v90h44v107h142v-107h2166v107h142v-107h44v-90h-44v-503h-142zM218 412h2166v91h-2166v-91z" />
    <glyph glyph-name="hbar" unicode="&#x127;" horiz-adv-x="2291" 
d="M2091 419q0 34 -15.5 49.5t-49.5 15.5h-1755q-34 0 -49.5 -15.5t-15.5 -49.5v-419h-137v639h-69v74h69v57h137v-57h309v-74h-309v-117q12 42 44 61.5t92 19.5h1725q83 0 122 -39.5t39 -123.5v-440h-137v419z" />
    <glyph glyph-name="Itilde" unicode="&#x128;" horiz-adv-x="295" 
d="M76 0v700h142v-700h-142zM-108 747v83q68 49 140 49q45 0 124.5 -26.5t119.5 -26.5q65 0 127 50v-83q-70 -50 -141 -50q-45 0 -124.5 26.5t-119.5 26.5q-66 0 -126 -49z" />
    <glyph glyph-name="itilde" unicode="&#x129;" horiz-adv-x="415" 
d="M-121 649v83q68 49 140 49q45 0 124.5 -26.5t119.5 -26.5q65 0 127 50v-83q-70 -50 -141 -50q-45 0 -124.5 26.5t-119.5 26.5q-66 0 -126 -49zM265 119h125v-119h-164q-84 0 -122 38.5t-38 120.5v444h137v-422q0 -33 15 -47.5t47 -14.5z" />
    <glyph glyph-name="Imacron" unicode="&#x12a;" horiz-adv-x="295" 
d="M358 776h-421v70h421v-70zM76 0v700h142v-700h-142z" />
    <glyph glyph-name="imacron" unicode="&#x12b;" horiz-adv-x="415" 
d="M346 678h-422v71h422v-71zM265 119h125v-119h-164q-84 0 -122 38.5t-38 120.5v444h137v-422q0 -33 15 -47.5t47 -14.5z" />
    <glyph glyph-name="Ibreve" unicode="&#x12c;" horiz-adv-x="295" 
d="M76 0v700h142v-700h-142zM-108 807v79q97 -58 256 -58q158 0 255 58v-79q-93 -62 -255 -62t-256 62z" />
    <glyph glyph-name="ibreve" unicode="&#x12d;" horiz-adv-x="415" 
d="M-121 709v79q97 -58 256 -58q158 0 255 58v-79q-93 -62 -255 -62t-256 62zM265 119h125v-119h-164q-84 0 -122 38.5t-38 120.5v444h137v-422q0 -33 15 -47.5t47 -14.5z" />
    <glyph glyph-name="Iogonek" unicode="&#x12e;" horiz-adv-x="295" 
d="M76 0v700h142v-700h-20v-66h-26q-81 0 -126.5 -3.5t-60.5 -9.5t-15 -16q0 -13 34 -13h222v-81h-225q-62 0 -89.5 13t-27.5 48q0 52 60.5 69t227.5 17v42h-96z" />
    <glyph glyph-name="iogonek" unicode="&#x12f;" horiz-adv-x="415" 
d="M361 -66h-25q-84 0 -131 -3.5t-63.5 -9.5t-16.5 -16q0 -13 35 -13h230v-81h-234q-62 0 -89.5 13t-27.5 48q0 52 60.5 69t235.5 17v42h-109q-84 0 -122 38.5t-38 120.5v444h137v-422q0 -33 15 -47.5t47 -14.5h125v-119h-29v-66zM226 757v-90h-182v90h182z" />
    <glyph glyph-name="Idotaccent" unicode="&#x130;" horiz-adv-x="295" 
d="M76 0v700h142v-700h-142zM226 854v-89h-156v89h156z" />
    <glyph glyph-name="dotlessi" unicode="&#x131;" horiz-adv-x="415" 
d="M265 119h125v-119h-164q-84 0 -122 38.5t-38 120.5v444h137v-422q0 -33 15 -47.5t47 -14.5z" />
    <glyph glyph-name="IJ" unicode="&#x132;" horiz-adv-x="2849" 
d="M76 0v700h142v-700h-142zM344 153v189h142v-158q0 -35 12 -47.5t46 -12.5h2029q35 0 49.5 15t14.5 51v510h142v-535q0 -84 -40.5 -124.5t-124.5 -40.5h-2117q-83 0 -118 35.5t-35 117.5z" />
    <glyph glyph-name="Jcircumflex" unicode="&#x134;" horiz-adv-x="2554" 
d="M49 153v189h142v-158q0 -35 12 -47.5t46 -12.5h2029q35 0 49.5 15t14.5 51v510h142v-535q0 -84 -40.5 -124.5t-124.5 -40.5h-2117q-83 0 -118 35.5t-35 117.5zM2267 816l-167 -60h-138l204 110h202l204 -110h-138z" />
    <glyph glyph-name="jcircumflex" unicode="&#x135;" horiz-adv-x="293" 
d="M-43 -48h69q33 0 47 14t14 47v590h136v-611q0 -83 -37.5 -121t-121.5 -38h-107v119zM157 718l-167 -60h-138l204 110h202l204 -110h-138z" />
    <glyph glyph-name="uni0136" unicode="&#x136;" horiz-adv-x="2577" 
d="M2514 700v-186q0 -76 -32 -116.5t-115 -47.5q83 -7 115 -48t32 -116v-186h-142v216q0 38 -16.5 55t-53.5 17h-2084v-288h-142v700h142v-288h2084q37 0 53.5 17t16.5 55v216h142zM1365 -70v-70q0 -53 -27.5 -82.5t-80.5 -29.5h-43v39h38q22 0 32 10.5t10 33.5v13h-82v86
h153z" />
    <glyph glyph-name="uni0137" unicode="&#x137;" horiz-adv-x="2282" 
d="M2090 416v187h137v-161q0 -63 -28 -98t-92 -43q64 -7 92 -42t28 -98v-161h-137v187q0 55 -56 55h-1828v-242h-137v770h137v-409h1828q56 0 56 55zM1239 -70v-70q0 -53 -27.5 -82.5t-80.5 -29.5h-43v39h38q22 0 32 10.5t10 33.5v13h-82v86h153z" />
    <glyph glyph-name="kgreenlandic" unicode="&#x138;" horiz-adv-x="2282" 
d="M2090 416v187h137v-161q0 -63 -28 -98t-92 -43q64 -7 92 -42t28 -98v-161h-137v187q0 55 -56 55h-1828v-242h-137v603h137v-242h1828q56 0 56 55z" />
    <glyph glyph-name="Lacute" unicode="&#x139;" horiz-adv-x="2496" 
d="M2469 125v-125h-2393v700h142v-575h2251zM480 866l-286 -110h-155l222 110h219z" />
    <glyph glyph-name="lacute" unicode="&#x13a;" horiz-adv-x="411" 
d="M261 119h126v-119h-165q-83 0 -121 38.5t-38 120.5v611h137v-589q0 -33 14.5 -47.5t46.5 -14.5zM412 935l-286 -110h-155l222 110h219z" />
    <glyph glyph-name="uni013B" unicode="&#x13b;" horiz-adv-x="2496" 
d="M2469 125v-125h-2393v700h142v-575h2251zM1331 -70v-70q0 -53 -27.5 -82.5t-80.5 -29.5h-43v39h38q22 0 32 10.5t10 33.5v13h-82v86h153z" />
    <glyph glyph-name="uni013C" unicode="&#x13c;" horiz-adv-x="411" 
d="M261 119h126v-119h-165q-83 0 -121 38.5t-38 120.5v611h137v-589q0 -33 14.5 -47.5t46.5 -14.5zM282 -70v-70q0 -53 -27.5 -82.5t-80.5 -29.5h-43v39h38q22 0 32 10.5t10 33.5v13h-82v86h153z" />
    <glyph glyph-name="Lcaron" unicode="&#x13d;" horiz-adv-x="2496" 
d="M2469 125v-125h-2393v700h142v-575h2251zM2203 700v-117q0 -66 -34.5 -103t-100.5 -37h-42v66h34q27 0 39 12t12 42v20h-85v117h177z" />
    <glyph glyph-name="lcaron" unicode="&#x13e;" horiz-adv-x="559" 
d="M261 119h126v-119h-165q-83 0 -121 38.5t-38 120.5v611h137v-589q0 -33 14.5 -47.5t46.5 -14.5zM502 700v-117q0 -66 -34.5 -103t-100.5 -37h-42v66h34q27 0 39 12t12 42v20h-85v117h177z" />
    <glyph glyph-name="Ldot" unicode="&#x13f;" horiz-adv-x="2496" 
d="M2469 125v-125h-2393v700h142v-575h2251zM1423 410v-118h-177v118h177z" />
    <glyph glyph-name="ldot" unicode="&#x140;" horiz-adv-x="591" 
d="M261 119h126v-119h-165q-83 0 -121 38.5t-38 120.5v611h137v-589q0 -33 14.5 -47.5t46.5 -14.5zM517 409v-118h-177v118h177z" />
    <glyph glyph-name="Lslash" unicode="&#x141;" horiz-adv-x="2496" 
d="M2469 125v-125h-2393v189l-69 -23v122l69 23v389h142v-342l601 200v-122l-601 -200v-111h2251z" />
    <glyph glyph-name="lslash" unicode="&#x142;" horiz-adv-x="411" 
d="M261 119h126v-119h-165q-83 0 -121 38.5t-38 120.5v127l-56 -20v122l56 20v362h137v-314l205 73v-122l-205 -73v-153q0 -33 14.5 -47.5t46.5 -14.5z" />
    <glyph glyph-name="Nacute" unicode="&#x143;" horiz-adv-x="2578" 
d="M276 576q-35 0 -49.5 -15t-14.5 -51v-510h-142v535q0 84 40.5 124.5t124.5 40.5h2107q85 0 125.5 -40.5t40.5 -124.5v-535h-142v510q0 36 -14.5 51t-49.5 15h-2026zM1582 866l-286 -110h-155l222 110h219z" />
    <glyph glyph-name="nacute" unicode="&#x144;" horiz-adv-x="2284" 
d="M63 0v440q0 84 39 123.5t122 39.5h1836q83 0 122 -39.5t39 -123.5v-440h-137v419q0 34 -15.5 49.5t-49.5 15.5h-1754q-35 0 -50 -15.5t-15 -49.5v-419h-137zM1429 768l-286 -110h-155l222 110h219z" />
    <glyph glyph-name="uni0145" unicode="&#x145;" horiz-adv-x="2578" 
d="M276 576q-35 0 -49.5 -15t-14.5 -51v-510h-142v535q0 84 40.5 124.5t124.5 40.5h2107q85 0 125.5 -40.5t40.5 -124.5v-535h-142v510q0 36 -14.5 51t-49.5 15h-2026zM1365 -70v-70q0 -53 -27.5 -82.5t-80.5 -29.5h-43v39h38q22 0 32 10.5t10 33.5v13h-82v86h153z" />
    <glyph glyph-name="uni0146" unicode="&#x146;" horiz-adv-x="2284" 
d="M63 0v440q0 84 39 123.5t122 39.5h1836q83 0 122 -39.5t39 -123.5v-440h-137v419q0 34 -15.5 49.5t-49.5 15.5h-1754q-35 0 -50 -15.5t-15 -49.5v-419h-137zM1218 -70v-70q0 -53 -27.5 -82.5t-80.5 -29.5h-43v39h38q22 0 32 10.5t10 33.5v13h-82v86h153z" />
    <glyph glyph-name="Ncaron" unicode="&#x147;" horiz-adv-x="2578" 
d="M276 576q-35 0 -49.5 -15t-14.5 -51v-510h-142v535q0 84 40.5 124.5t124.5 40.5h2107q85 0 125.5 -40.5t40.5 -124.5v-535h-142v510q0 36 -14.5 51t-49.5 15h-2026zM1122 866l167 -59l167 59h138l-204 -110h-202l-204 110h138z" />
    <glyph glyph-name="ncaron" unicode="&#x148;" horiz-adv-x="2284" 
d="M63 0v440q0 84 39 123.5t122 39.5h1836q83 0 122 -39.5t39 -123.5v-440h-137v419q0 34 -15.5 49.5t-49.5 15.5h-1754q-35 0 -50 -15.5t-15 -49.5v-419h-137zM975 768l167 -59l167 59h138l-204 -110h-202l-204 110h138z" />
    <glyph glyph-name="napostrophe" unicode="&#x149;" horiz-adv-x="2526" 
d="M306 0v440q0 84 39 123.5t122 39.5h1836q83 0 122 -39.5t39 -123.5v-440h-137v419q0 34 -15.5 49.5t-49.5 15.5h-1754q-35 0 -50 -15.5t-15 -49.5v-419h-137zM235 700v-117q0 -66 -34.5 -103t-100.5 -37h-42v66h34q27 0 39 12t12 42v20h-85v117h177z" />
    <glyph glyph-name="Eng" unicode="&#x14a;" horiz-adv-x="2578" 
d="M276 576q-35 0 -49.5 -15t-14.5 -51v-510h-142v535q0 84 40.5 124.5t124.5 40.5h2107q85 0 125.5 -40.5t40.5 -124.5v-537q0 -84 -40.5 -124.5t-125.5 -40.5h-671v124h631q35 0 49.5 15t14.5 51v487q0 36 -14.5 51t-49.5 15h-2026z" />
    <glyph glyph-name="eng" unicode="&#x14b;" horiz-adv-x="2284" 
d="M1955 -48h68q33 0 47 14t14 47v406q0 34 -15.5 49.5t-49.5 15.5h-1754q-35 0 -50 -15.5t-15 -49.5v-419h-137v440q0 84 39 123.5t122 39.5h1836q83 0 122 -39.5t39 -123.5v-448q0 -83 -38 -121t-122 -38h-106v119z" />
    <glyph glyph-name="Omacron" unicode="&#x14c;" horiz-adv-x="2570" 
d="M227 0q-84 0 -124.5 40.5t-40.5 124.5v370q0 84 40.5 124.5t124.5 40.5h2115q85 0 125 -40.5t40 -124.5v-370q0 -83 -40 -124t-125 -41h-2115zM2365 189v321q0 36 -14.5 51t-49.5 15h-2033q-33 0 -48 -15t-15 -51v-320q0 -36 14.5 -51t48.5 -15h2033q35 0 49.5 15
t14.5 50zM1542 774h-514v75h514v-75z" />
    <glyph glyph-name="omacron" unicode="&#x14d;" horiz-adv-x="2278" 
d="M2060 603q84 0 123 -39.5t39 -123.5v-277q0 -84 -39 -123.5t-123 -39.5h-1842q-84 0 -122.5 39.5t-38.5 123.5v277q0 84 38.5 123.5t122.5 39.5h1842zM2020 119q65 0 65 65v235q0 65 -65 65h-1762q-65 0 -65 -65v-235q0 -65 65 -65h1762zM1396 676h-514v75h514v-75z" />
    <glyph glyph-name="Obreve" unicode="&#x14e;" horiz-adv-x="2570" 
d="M227 0q-84 0 -124.5 40.5t-40.5 124.5v370q0 84 40.5 124.5t124.5 40.5h2115q85 0 125 -40.5t40 -124.5v-370q0 -83 -40 -124t-125 -41h-2115zM2365 189v321q0 36 -14.5 51t-49.5 15h-2033q-33 0 -48 -15t-15 -51v-320q0 -36 14.5 -51t48.5 -15h2033q35 0 49.5 15
t14.5 50zM1029 807v79q97 -58 256 -58q158 0 255 58v-79q-93 -62 -255 -62t-256 62z" />
    <glyph glyph-name="obreve" unicode="&#x14f;" horiz-adv-x="2278" 
d="M2060 603q84 0 123 -39.5t39 -123.5v-277q0 -84 -39 -123.5t-123 -39.5h-1842q-84 0 -122.5 39.5t-38.5 123.5v277q0 84 38.5 123.5t122.5 39.5h1842zM2020 119q65 0 65 65v235q0 65 -65 65h-1762q-65 0 -65 -65v-235q0 -65 65 -65h1762zM883 709v79q97 -58 256 -58
q158 0 255 58v-79q-93 -62 -255 -62t-256 62z" />
    <glyph glyph-name="Ohungarumlaut" unicode="&#x150;" horiz-adv-x="2570" 
d="M227 0q-84 0 -124.5 40.5t-40.5 124.5v370q0 84 40.5 124.5t124.5 40.5h2115q85 0 125 -40.5t40 -124.5v-370q0 -83 -40 -124t-125 -41h-2115zM2365 189v321q0 36 -14.5 51t-49.5 15h-2033q-33 0 -48 -15t-15 -51v-320q0 -36 14.5 -51t48.5 -15h2033q35 0 49.5 15
t14.5 50zM1767 866l-286 -110h-155l222 110h219zM1359 866l-286 -110h-155l222 110h219z" />
    <glyph glyph-name="ohungarumlaut" unicode="&#x151;" horiz-adv-x="2278" 
d="M2060 603q84 0 123 -39.5t39 -123.5v-277q0 -84 -39 -123.5t-123 -39.5h-1842q-84 0 -122.5 39.5t-38.5 123.5v277q0 84 38.5 123.5t122.5 39.5h1842zM2020 119q65 0 65 65v235q0 65 -65 65h-1762q-65 0 -65 -65v-235q0 -65 65 -65h1762zM1636 768l-286 -110h-155
l222 110h219zM1228 768l-286 -110h-155l222 110h219z" />
    <glyph glyph-name="OE" unicode="&#x152;" horiz-adv-x="3961" 
d="M230 0q-85 0 -125 40.5t-40 124.5v370q0 84 40 124.5t125 40.5h3667v-124h-1829v-164h1714v-124h-1714v-164h1829v-124h-3667zM1925 124v452h-1654q-35 0 -49.5 -15t-14.5 -51v-320q0 -36 14.5 -51t49.5 -15h1654z" />
    <glyph glyph-name="oe" unicode="&#x153;" horiz-adv-x="3418" 
d="M1645 180v243q0 61 -60 61h-1327q-65 0 -65 -65v-235q0 -65 65 -65h1327q60 0 60 61zM3237 407v26q0 27 -12 39t-39 12h-1345q-60 0 -60 -61v-66h1405q27 0 39 11.5t12 38.5zM1781 246v-66q0 -61 60 -61h1504v-119h-1480q-75 0 -110 29t-42 95q-7 -66 -42.5 -95
t-109.5 -29h-1343q-84 0 -122.5 39.5t-38.5 123.5v277q0 84 38.5 123.5t122.5 39.5h1343q74 0 109.5 -29t42.5 -95q7 66 42 95t110 29h1364q74 0 109.5 -35.5t35.5 -111.5v-63q0 -76 -35.5 -111.5t-109.5 -35.5h-1448z" />
    <glyph glyph-name="Racute" unicode="&#x154;" horiz-adv-x="2577" 
d="M2514 540v-45q0 -69 -31 -104.5t-108 -41.5q78 -9 108.5 -49t30.5 -114v-186h-142v216q0 38 -16.5 55t-53.5 17h-2084v-288h-142v700h2278q84 0 122 -38.5t38 -121.5zM2309 412q35 0 49 14.5t14 49.5v36q0 34 -14.5 49t-47.5 15h-2092v-164h2091zM1582 866l-286 -110
h-155l222 110h219z" />
    <glyph glyph-name="racute" unicode="&#x155;" horiz-adv-x="2093" 
d="M2065 603v-119h-1800q-65 0 -65 -65v-419h-137v440q0 84 39 123.5t123 39.5h1840zM1385 768l-286 -110h-155l222 110h219z" />
    <glyph glyph-name="uni0156" unicode="&#x156;" horiz-adv-x="2577" 
d="M2514 540v-45q0 -69 -31 -104.5t-108 -41.5q78 -9 108.5 -49t30.5 -114v-186h-142v216q0 38 -16.5 55t-53.5 17h-2084v-288h-142v700h2278q84 0 122 -38.5t38 -121.5zM2309 412q35 0 49 14.5t14 49.5v36q0 34 -14.5 49t-47.5 15h-2092v-164h2091zM1390 -70v-70
q0 -53 -27.5 -82.5t-80.5 -29.5h-43v39h38q22 0 32 10.5t10 33.5v13h-82v86h153z" />
    <glyph glyph-name="uni0157" unicode="&#x157;" horiz-adv-x="2093" 
d="M2065 603v-119h-1800q-65 0 -65 -65v-419h-137v440q0 84 39 123.5t123 39.5h1840zM208 -70v-70q0 -53 -27.5 -82.5t-80.5 -29.5h-43v39h38q22 0 32 10.5t10 33.5v13h-82v86h153z" />
    <glyph glyph-name="Rcaron" unicode="&#x158;" horiz-adv-x="2577" 
d="M2514 540v-45q0 -69 -31 -104.5t-108 -41.5q78 -9 108.5 -49t30.5 -114v-186h-142v216q0 38 -16.5 55t-53.5 17h-2084v-288h-142v700h2278q84 0 122 -38.5t38 -121.5zM2309 412q35 0 49 14.5t14 49.5v36q0 34 -14.5 49t-47.5 15h-2092v-164h2091zM1121 866l167 -59
l167 59h138l-204 -110h-202l-204 110h138z" />
    <glyph glyph-name="rcaron" unicode="&#x159;" horiz-adv-x="2093" 
d="M2065 603v-119h-1800q-65 0 -65 -65v-419h-137v440q0 84 39 123.5t123 39.5h1840zM924 768l167 -59l167 59h138l-204 -110h-202l-204 110h138z" />
    <glyph glyph-name="Sacute" unicode="&#x15a;" horiz-adv-x="2527" 
d="M229 288q-84 0 -124 40.5t-40 123.5v85q0 83 40 123t124 40h2218v-124h-2177q-34 0 -48.5 -15t-14.5 -49v-37q0 -34 14.5 -48.5t48.5 -14.5h2041q84 0 124 -40t40 -124v-85q0 -83 -40 -123t-124 -40h-2261v124h2221q34 0 48 14.5t14 49.5v37q0 34 -14 48.5t-48 14.5
h-2042zM1556 866l-286 -110h-155l222 110h219z" />
    <glyph glyph-name="sacute" unicode="&#x15b;" horiz-adv-x="2258" 
d="M2184 484h-1948q-27 0 -39 -12t-12 -39v-25q0 -28 12 -39.5t39 -11.5h1834q74 0 109 -36t35 -112v-62q0 -76 -35.5 -111.5t-109.5 -35.5h-2021v119h1978q27 0 39 12t12 39v25q0 28 -11.5 39.5t-39.5 11.5h-1833q-74 0 -109.5 35.5t-35.5 111.5v63q0 76 35.5 111.5
t109.5 35.5h1991v-119zM1422 768l-286 -110h-155l222 110h219z" />
    <glyph glyph-name="Scircumflex" unicode="&#x15c;" horiz-adv-x="2527" 
d="M229 288q-84 0 -124 40.5t-40 123.5v85q0 83 40 123t124 40h2218v-124h-2177q-34 0 -48.5 -15t-14.5 -49v-37q0 -34 14.5 -48.5t48.5 -14.5h2041q84 0 124 -40t40 -124v-85q0 -83 -40 -123t-124 -40h-2261v124h2221q34 0 48 14.5t14 49.5v37q0 34 -14 48.5t-48 14.5
h-2042zM1263 816l-167 -60h-138l204 110h202l204 -110h-138z" />
    <glyph glyph-name="scircumflex" unicode="&#x15d;" horiz-adv-x="2258" 
d="M2184 484h-1948q-27 0 -39 -12t-12 -39v-25q0 -28 12 -39.5t39 -11.5h1834q74 0 109 -36t35 -112v-62q0 -76 -35.5 -111.5t-109.5 -35.5h-2021v119h1978q27 0 39 12t12 39v25q0 28 -11.5 39.5t-39.5 11.5h-1833q-74 0 -109.5 35.5t-35.5 111.5v63q0 76 35.5 111.5
t109.5 35.5h1991v-119zM1129 718l-167 -60h-138l204 110h202l204 -110h-138z" />
    <glyph glyph-name="Scedilla" unicode="&#x15e;" horiz-adv-x="2527" 
d="M1238 0h-1188v124h2221q34 0 48 14.5t14 49.5v37q0 34 -14 48.5t-48 14.5h-2042q-84 0 -124 40.5t-40 123.5v85q0 83 40 123t124 40h2218v-124h-2177q-34 0 -48.5 -15t-14.5 -49v-37q0 -34 14.5 -48.5t48.5 -14.5h2041q84 0 124 -40t40 -124v-85q0 -83 -40 -123t-124 -40
h-1047l-18 -43h168q60 0 85 -13.5t25 -48.5q0 -43 -33.5 -63.5t-115.5 -20.5h-363v81h358q49 0 49 23q0 11 -7.5 14.5t-28.5 3.5h-174z" />
    <glyph glyph-name="scedilla" unicode="&#x15f;" horiz-adv-x="2258" 
d="M1119 0l-18 -43h168q60 0 85 -13.5t25 -48.5q0 -43 -33.5 -63.5t-115.5 -20.5h-363v81h358q49 0 49 23q0 11 -7.5 14.5t-28.5 3.5h-174l28 67h-1044v119h1978q27 0 39 12t12 39v25q0 28 -11.5 39.5t-39.5 11.5h-1833q-74 0 -109.5 35.5t-35.5 111.5v63q0 76 35.5 111.5
t109.5 35.5h1991v-119h-1948q-27 0 -39 -12t-12 -39v-25q0 -28 12 -39.5t39 -11.5h1834q74 0 109 -36t35 -112v-62q0 -76 -35.5 -111.5t-109.5 -35.5h-950z" />
    <glyph glyph-name="Scaron" unicode="&#x160;" horiz-adv-x="2527" 
d="M229 288q-84 0 -124 40.5t-40 123.5v85q0 83 40 123t124 40h2218v-124h-2177q-34 0 -48.5 -15t-14.5 -49v-37q0 -34 14.5 -48.5t48.5 -14.5h2041q84 0 124 -40t40 -124v-85q0 -83 -40 -123t-124 -40h-2261v124h2221q34 0 48 14.5t14 49.5v37q0 34 -14 48.5t-48 14.5
h-2042zM1096 866l167 -59l167 59h138l-204 -110h-202l-204 110h138z" />
    <glyph glyph-name="scaron" unicode="&#x161;" horiz-adv-x="2258" 
d="M2184 484h-1948q-27 0 -39 -12t-12 -39v-25q0 -28 12 -39.5t39 -11.5h1834q74 0 109 -36t35 -112v-62q0 -76 -35.5 -111.5t-109.5 -35.5h-2021v119h1978q27 0 39 12t12 39v25q0 28 -11.5 39.5t-39.5 11.5h-1833q-74 0 -109.5 35.5t-35.5 111.5v63q0 76 35.5 111.5
t109.5 35.5h1991v-119zM962 768l167 -59l167 59h138l-204 -110h-202l-204 110h138z" />
    <glyph glyph-name="uni0162" unicode="&#x162;" horiz-adv-x="2499" 
d="M1226 0h-47v576h-1152v124h2445v-124h-1151v-576h-68l-18 -43h168q60 0 85 -13.5t25 -48.5q0 -43 -33.5 -63.5t-115.5 -20.5h-363v81h358q49 0 49 23q0 11 -7.5 14.5t-28.5 3.5h-174z" />
    <glyph glyph-name="uni0163" unicode="&#x163;" horiz-adv-x="2128" 
d="M1044 0h-818q-84 0 -123.5 39.5t-39.5 123.5v607h137v-167h1881v-119h-1881v-300q0 -34 15.5 -49.5t49.5 -15.5h1816v-119h-1010l-18 -43h168q60 0 85 -13.5t25 -48.5q0 -43 -33.5 -63.5t-115.5 -20.5h-363v81h358q49 0 49 23q0 11 -7.5 14.5t-28.5 3.5h-174z" />
    <glyph glyph-name="Tcaron" unicode="&#x164;" horiz-adv-x="2499" 
d="M2472 700v-124h-1151v-576h-142v576h-1152v124h2445zM1083 866l167 -59l167 59h138l-204 -110h-202l-204 110h138z" />
    <glyph glyph-name="tcaron" unicode="&#x165;" horiz-adv-x="2428" 
d="M226 0q-84 0 -123.5 39.5t-39.5 123.5v607h137v-167h1881v-119h-1881v-300q0 -34 15.5 -49.5t49.5 -15.5h1816v-119h-1855zM2370 700v-117q0 -66 -34.5 -103t-100.5 -37h-42v66h34q27 0 39 12t12 42v20h-85v117h177z" />
    <glyph glyph-name="Tbar" unicode="&#x166;" horiz-adv-x="2499" 
d="M2472 700v-124h-1151v-135h196v-90h-196v-351h-142v351h-198v90h198v135h-1152v124h2445z" />
    <glyph glyph-name="tbar" unicode="&#x167;" horiz-adv-x="2128" 
d="M226 0q-84 0 -123.5 39.5t-39.5 123.5v134h-63v90h63v383h137v-167h1881v-119h-1881v-97h335v-90h-335v-113q0 -34 15.5 -49.5t49.5 -15.5h1816v-119h-1855z" />
    <glyph glyph-name="Utilde" unicode="&#x168;" horiz-adv-x="2578" 
d="M235 0q-84 0 -124.5 40.5t-40.5 124.5v535h142v-510q0 -36 14.5 -51t49.5 -15h2026q35 0 49.5 15t14.5 51v510h142v-535q0 -84 -40.5 -124.5t-125.5 -40.5h-2107zM1033 747v83q68 49 140 49q45 0 124.5 -26.5t119.5 -26.5q65 0 127 50v-83q-70 -50 -141 -50
q-45 0 -124.5 26.5t-119.5 26.5q-66 0 -126 -49z" />
    <glyph glyph-name="utilde" unicode="&#x169;" horiz-adv-x="2284" 
d="M2019 119q34 0 49.5 15.5t15.5 49.5v419h137v-440q0 -84 -39 -123.5t-122 -39.5h-1836q-83 0 -122 39.5t-39 123.5v440h137v-419q0 -34 15 -49.5t50 -15.5h1754zM886 649v83q68 49 140 49q45 0 124.5 -26.5t119.5 -26.5q65 0 127 50v-83q-70 -50 -141 -50
q-45 0 -124.5 26.5t-119.5 26.5q-66 0 -126 -49z" />
    <glyph glyph-name="Umacron" unicode="&#x16a;" horiz-adv-x="2578" 
d="M235 0q-84 0 -124.5 40.5t-40.5 124.5v535h142v-510q0 -36 14.5 -51t49.5 -15h2026q35 0 49.5 15t14.5 51v510h142v-535q0 -84 -40.5 -124.5t-125.5 -40.5h-2107zM1546 774h-514v75h514v-75z" />
    <glyph glyph-name="umacron" unicode="&#x16b;" horiz-adv-x="2284" 
d="M2019 119q34 0 49.5 15.5t15.5 49.5v419h137v-440q0 -84 -39 -123.5t-122 -39.5h-1836q-83 0 -122 39.5t-39 123.5v440h137v-419q0 -34 15 -49.5t50 -15.5h1754zM1399 676h-514v75h514v-75z" />
    <glyph glyph-name="Ubreve" unicode="&#x16c;" horiz-adv-x="2578" 
d="M235 0q-84 0 -124.5 40.5t-40.5 124.5v535h142v-510q0 -36 14.5 -51t49.5 -15h2026q35 0 49.5 15t14.5 51v510h142v-535q0 -84 -40.5 -124.5t-125.5 -40.5h-2107zM1033 807v79q97 -58 256 -58q158 0 255 58v-79q-93 -62 -255 -62t-256 62z" />
    <glyph glyph-name="ubreve" unicode="&#x16d;" horiz-adv-x="2284" 
d="M2019 119q34 0 49.5 15.5t15.5 49.5v419h137v-440q0 -84 -39 -123.5t-122 -39.5h-1836q-83 0 -122 39.5t-39 123.5v440h137v-419q0 -34 15 -49.5t50 -15.5h1754zM886 709v79q97 -58 256 -58q158 0 255 58v-79q-93 -62 -255 -62t-256 62z" />
    <glyph glyph-name="Uring" unicode="&#x16e;" horiz-adv-x="2578" 
d="M235 0q-84 0 -124.5 40.5t-40.5 124.5v535h142v-510q0 -36 14.5 -51t49.5 -15h2026q35 0 49.5 15t14.5 51v510h142v-535q0 -84 -40.5 -124.5t-125.5 -40.5h-2107zM1153 826q0 -25 30 -25h211q30 0 30 25t-30 25h-211q-30 0 -30 -25zM1385 750h-193q-51 0 -72.5 19
t-21.5 57t21.5 57t72.5 19h193q51 0 72.5 -19t21.5 -57t-21.5 -57t-72.5 -19z" />
    <glyph glyph-name="uring" unicode="&#x16f;" horiz-adv-x="2284" 
d="M2019 119q34 0 49.5 15.5t15.5 49.5v419h137v-440q0 -84 -39 -123.5t-122 -39.5h-1836q-83 0 -122 39.5t-39 123.5v440h137v-419q0 -34 15 -49.5t50 -15.5h1754zM1006 728q0 -25 30 -25h211q30 0 30 25t-30 25h-211q-30 0 -30 -25zM1238 652h-193q-51 0 -72.5 19
t-21.5 57t21.5 57t72.5 19h193q51 0 72.5 -19t21.5 -57t-21.5 -57t-72.5 -19z" />
    <glyph glyph-name="Uhungarumlaut" unicode="&#x170;" horiz-adv-x="2578" 
d="M235 0q-84 0 -124.5 40.5t-40.5 124.5v535h142v-510q0 -36 14.5 -51t49.5 -15h2026q35 0 49.5 15t14.5 51v510h142v-535q0 -84 -40.5 -124.5t-125.5 -40.5h-2107zM1786 866l-286 -110h-155l222 110h219zM1378 866l-286 -110h-155l222 110h219z" />
    <glyph glyph-name="uhungarumlaut" unicode="&#x171;" horiz-adv-x="2284" 
d="M2019 119q34 0 49.5 15.5t15.5 49.5v419h137v-440q0 -84 -39 -123.5t-122 -39.5h-1836q-83 0 -122 39.5t-39 123.5v440h137v-419q0 -34 15 -49.5t50 -15.5h1754zM1639 768l-286 -110h-155l222 110h219zM1231 768l-286 -110h-155l222 110h219z" />
    <glyph glyph-name="Uogonek" unicode="&#x172;" horiz-adv-x="2578" 
d="M2447 -66h-36q-96 0 -159.5 -1t-101 -3t-56.5 -6t-24.5 -8t-5.5 -11q0 -13 34 -13h395v-81h-398q-62 0 -89.5 13t-27.5 48q0 19 4.5 31t21 22.5t43 16t75 9.5t112.5 5.5t160 1.5h27v54q-33 -12 -79 -12h-2107q-84 0 -124.5 40.5t-40.5 124.5v535h142v-510q0 -36 14.5 -51
t49.5 -15h2026q35 0 49.5 15t14.5 51v510h142v-535q0 -102 -61 -141v-90z" />
    <glyph glyph-name="uogonek" unicode="&#x173;" horiz-adv-x="2284" 
d="M2163 -66h-36q-96 0 -159.5 -1t-101 -3t-56.5 -6t-24.5 -8t-5.5 -11q0 -13 34 -13h395v-81h-398q-62 0 -89.5 13t-27.5 48q0 19 4.5 31t21 22.5t43 16t75 9.5t112.5 5.5t160 1.5h27v53q-35 -11 -77 -11h-1836q-83 0 -122 39.5t-39 123.5v440h137v-419q0 -34 15 -49.5
t50 -15.5h1754q34 0 49.5 15.5t15.5 49.5v419h137v-440q0 -102 -58 -139v-90z" />
    <glyph glyph-name="Wcircumflex" unicode="&#x174;" horiz-adv-x="3081" 
d="M2846 0h-1140q-78 0 -117.5 31.5t-47.5 99.5q-9 -69 -48 -100t-118 -31h-1140q-84 0 -124.5 40.5t-40.5 124.5v535h142v-510q0 -36 14.5 -51t49.5 -15h1124q37 0 53 16.5t16 54.5v505h143v-505q0 -38 16 -54.5t53 -16.5h1124q35 0 49.5 15t14.5 51v510h142v-535
q0 -84 -40.5 -124.5t-124.5 -40.5zM1541 816l-167 -60h-138l204 110h202l204 -110h-138z" />
    <glyph glyph-name="wcircumflex" unicode="&#x175;" horiz-adv-x="2733" 
d="M1366 124q-6 -66 -41.5 -95t-110.5 -29h-990q-83 0 -122 39.5t-39 123.5v440h137v-419q0 -34 15 -49.5t50 -15.5h973q60 0 60 61v423h137v-423q0 -61 59 -61h974q34 0 49.5 15.5t15.5 49.5v419h136v-440q0 -84 -38.5 -123.5t-121.5 -39.5h-991q-74 0 -109.5 29t-42.5 95z
M1366 718l-167 -60h-138l204 110h202l204 -110h-138z" />
    <glyph glyph-name="Ycircumflex" unicode="&#x176;" horiz-adv-x="2546" 
d="M2356 700h142v-247q0 -84 -40.5 -124.5t-124.5 -40.5h-989v-288h-142v288h-988q-85 0 -125 40.5t-40 124.5v247h142v-223q0 -36 14.5 -50.5t49.5 -14.5h2037q35 0 49.5 14.5t14.5 50.5v223zM1273 816l-167 -60h-138l204 110h202l204 -110h-138z" />
    <glyph glyph-name="ycircumflex" unicode="&#x177;" horiz-adv-x="2291" 
d="M2007 -167h-1904v119h1887q50 0 72.5 21.5t22.5 72.5v84q-13 -42 -45 -61.5t-92 -19.5h-1723q-84 0 -123 39.5t-39 123.5v391h137v-369q0 -65 65 -65h1755q34 0 49.5 15.5t15.5 49.5v369h136v-555q0 -111 -51.5 -163t-162.5 -52zM1145 718l-167 -60h-138l204 110h202
l204 -110h-138z" />
    <glyph glyph-name="Ydieresis" unicode="&#x178;" horiz-adv-x="2546" 
d="M2356 700h142v-247q0 -84 -40.5 -124.5t-124.5 -40.5h-989v-288h-142v288h-988q-85 0 -125 40.5t-40 124.5v247h142v-223q0 -36 14.5 -50.5t49.5 -14.5h2037q35 0 49.5 14.5t14.5 50.5v223zM1150 854v-89h-156v89h156zM1551 854v-89h-155v89h155z" />
    <glyph glyph-name="Zacute" unicode="&#x179;" horiz-adv-x="2532" 
d="M2248 412q48 0 67.5 19t19.5 68v77h-2255v124h2398v-213q0 -199 -200 -199h-1997q-49 0 -68.5 -19t-19.5 -68v-77h2285v-124h-2427v213q0 199 199 199h1998zM1569 866l-286 -110h-155l222 110h219z" />
    <glyph glyph-name="zacute" unicode="&#x17a;" horiz-adv-x="2263" 
d="M254 246q-38 0 -54.5 -17t-16.5 -54v-56h2032v-119h-2169v169q0 188 188 188h1773q37 0 54 16.5t17 54.5v56h-2008v119h2145v-169q0 -188 -188 -188h-1773zM1444 768l-286 -110h-155l222 110h219z" />
    <glyph glyph-name="Zdotaccent" unicode="&#x17b;" horiz-adv-x="2532" 
d="M2248 412q48 0 67.5 19t19.5 68v77h-2255v124h2398v-213q0 -199 -200 -199h-1997q-49 0 -68.5 -19t-19.5 -68v-77h2285v-124h-2427v213q0 199 199 199h1998zM1354 854v-89h-156v89h156z" />
    <glyph glyph-name="zdotaccent" unicode="&#x17c;" horiz-adv-x="2263" 
d="M254 246q-38 0 -54.5 -17t-16.5 -54v-56h2032v-119h-2169v169q0 188 188 188h1773q37 0 54 16.5t17 54.5v56h-2008v119h2145v-169q0 -188 -188 -188h-1773zM1229 756v-89h-156v89h156z" />
    <glyph glyph-name="Zcaron" unicode="&#x17d;" horiz-adv-x="2532" 
d="M2248 412q48 0 67.5 19t19.5 68v77h-2255v124h2398v-213q0 -199 -200 -199h-1997q-49 0 -68.5 -19t-19.5 -68v-77h2285v-124h-2427v213q0 199 199 199h1998zM1109 866l167 -59l167 59h138l-204 -110h-202l-204 110h138z" />
    <glyph glyph-name="zcaron" unicode="&#x17e;" horiz-adv-x="2263" 
d="M254 246q-38 0 -54.5 -17t-16.5 -54v-56h2032v-119h-2169v169q0 188 188 188h1773q37 0 54 16.5t17 54.5v56h-2008v119h2145v-169q0 -188 -188 -188h-1773zM984 768l167 -59l167 59h138l-204 -110h-202l-204 110h138z" />
    <glyph glyph-name="florin" unicode="&#x192;" 
d="M2410 412v-124h-2012v-134q0 -82 -35.5 -118t-118.5 -36h-196v124h149q35 0 47 12.5t12 47.5v104h-208v124h208v124q0 84 39.5 124t124.5 40h2102v-124h-2061q-35 0 -49 -14.5t-14 -49.5v-100h2012z" />
    <glyph glyph-name="AEacute" unicode="&#x1fc;" horiz-adv-x="3941" 
d="M1921 0v288h-1709v-288h-142v535q0 84 40.5 124.5t124.5 40.5h3657v-124h-1829v-164h1715v-124h-1715v-164h1829v-124h-1971zM276 576q-35 0 -49.5 -15t-14.5 -51v-98h1709v164h-1645zM2286 866l-286 -110h-155l222 110h219z" />
    <glyph glyph-name="aeacute" unicode="&#x1fd;" horiz-adv-x="3410" 
d="M3229 408v25q0 27 -12 39t-39 12h-1345q-60 0 -60 -61v-66h1405q28 0 39.5 11.5t11.5 39.5zM181 196v-26q0 -27 12 -39t39 -12h1345q60 0 60 61v66h-1405q-27 0 -39 -11.5t-12 -38.5zM1553 0h-1364q-74 0 -109.5 35.5t-35.5 111.5v62q0 76 35.5 112t109.5 36h1448v66
q0 61 -60 61h-1504v119h1480q75 0 110 -29t42 -95q7 66 42.5 95t109.5 29h1364q74 0 109.5 -35.5t35.5 -111.5v-63q0 -76 -35 -111.5t-109 -35.5h-1449v-66q0 -61 60 -61h1504v-119h-1480q-74 0 -109.5 29t-42.5 95q-7 -66 -42 -95t-110 -29zM1998 768l-286 -110h-155
l222 110h219z" />
    <glyph glyph-name="Oslashacute" unicode="&#x1fe;" horiz-adv-x="2570" 
d="M227 0q-84 0 -124.5 40.5t-40.5 124.5v370q0 84 40.5 124.5t124.5 40.5h2115q85 0 125 -40.5t40 -124.5v-370q0 -83 -40 -124t-125 -41h-2115zM2365 189v321q0 34 -12.5 49.5t-43.5 16.5l-1659 -452h1651q35 0 49.5 15t14.5 50zM259 124l1660 452h-1651q-33 0 -48 -15
t-15 -51v-320q0 -34 12.5 -49.5t41.5 -16.5zM1578 866l-286 -110h-155l222 110h219z" />
    <glyph glyph-name="oslashacute" unicode="&#x1ff;" horiz-adv-x="2278" 
d="M2060 603q84 0 123 -39.5t39 -123.5v-277q0 -84 -39 -123.5t-123 -39.5h-1842q-84 0 -122.5 39.5t-38.5 123.5v277q0 84 38.5 123.5t122.5 39.5h1842zM2020 119q65 0 65 65v235q0 58 -50 64l-1415 -364h1400zM242 120l1415 364h-1399q-65 0 -65 -65v-235q0 -58 49 -64z
M1432 768l-286 -110h-155l222 110h219z" />
    <glyph glyph-name="uni0218" unicode="&#x218;" horiz-adv-x="2527" 
d="M229 288q-84 0 -124 40.5t-40 123.5v85q0 83 40 123t124 40h2218v-124h-2177q-34 0 -48.5 -15t-14.5 -49v-37q0 -34 14.5 -48.5t48.5 -14.5h2041q84 0 124 -40t40 -124v-85q0 -83 -40 -123t-124 -40h-2261v124h2221q34 0 48 14.5t14 49.5v37q0 34 -14 48.5t-48 14.5
h-2042zM1339 -70v-70q0 -53 -27.5 -82.5t-80.5 -29.5h-43v39h38q22 0 32 10.5t10 33.5v13h-82v86h153z" />
    <glyph glyph-name="uni0219" unicode="&#x219;" horiz-adv-x="2258" 
d="M2184 484h-1948q-27 0 -39 -12t-12 -39v-25q0 -28 12 -39.5t39 -11.5h1834q74 0 109 -36t35 -112v-62q0 -76 -35.5 -111.5t-109.5 -35.5h-2021v119h1978q27 0 39 12t12 39v25q0 28 -11.5 39.5t-39.5 11.5h-1833q-74 0 -109.5 35.5t-35.5 111.5v63q0 76 35.5 111.5
t109.5 35.5h1991v-119zM1188 -70v-70q0 -53 -27.5 -82.5t-80.5 -29.5h-43v39h38q22 0 32 10.5t10 33.5v13h-82v86h153z" />
    <glyph glyph-name="uni021A" unicode="&#x21a;" horiz-adv-x="2499" 
d="M2472 700v-124h-1151v-576h-142v576h-1152v124h2445zM1326 -70v-70q0 -53 -27.5 -82.5t-80.5 -29.5h-43v39h38q22 0 32 10.5t10 33.5v13h-82v86h153z" />
    <glyph glyph-name="uni021B" unicode="&#x21b;" horiz-adv-x="2128" 
d="M226 0q-84 0 -123.5 39.5t-39.5 123.5v607h137v-167h1881v-119h-1881v-300q0 -34 15.5 -49.5t49.5 -15.5h1816v-119h-1855zM1140 -70v-70q0 -53 -27.5 -82.5t-80.5 -29.5h-43v39h38q22 0 32 10.5t10 33.5v13h-82v86h153z" />
    <glyph glyph-name="uni0237" unicode="&#x237;" horiz-adv-x="293" 
d="M-43 -48h69q33 0 47 14t14 47v590h136v-611q0 -83 -37.5 -121t-121.5 -38h-107v119z" />
    <glyph glyph-name="circumflex" unicode="&#x2c6;" horiz-adv-x="600" 
d="M300 718l-167 -60h-138l204 110h202l204 -110h-138z" />
    <glyph glyph-name="caron" unicode="&#x2c7;" horiz-adv-x="600" 
d="M133 768l167 -59l167 59h138l-204 -110h-202l-204 110h138z" />
    <glyph glyph-name="breve" unicode="&#x2d8;" horiz-adv-x="600" 
d="M44 709v79q97 -58 256 -58q158 0 255 58v-79q-93 -62 -255 -62t-256 62z" />
    <glyph glyph-name="dotaccent" unicode="&#x2d9;" horiz-adv-x="600" 
d="M378 756v-89h-156v89h156z" />
    <glyph glyph-name="ring" unicode="&#x2da;" horiz-adv-x="600" 
d="M164 728q0 -25 30 -25h211q30 0 30 25t-30 25h-211q-30 0 -30 -25zM396 652h-193q-51 0 -72.5 19t-21.5 57t21.5 57t72.5 19h193q51 0 72.5 -19t21.5 -57t-21.5 -57t-72.5 -19z" />
    <glyph glyph-name="ogonek" unicode="&#x2db;" horiz-adv-x="601" 
d="M512 -66h-36q-96 0 -159.5 -1t-101 -3t-56.5 -6t-24.5 -8t-5.5 -11q0 -13 34 -13h395v-81h-398q-62 0 -89.5 13t-27.5 48q0 19 4.5 31t21 22.5t43 16t75 9.5t112.5 5.5t160 1.5h27v42h26v-66z" />
    <glyph glyph-name="tilde" unicode="&#x2dc;" horiz-adv-x="600" 
d="M44 649v83q68 49 140 49q45 0 124.5 -26.5t119.5 -26.5q65 0 127 50v-83q-70 -50 -141 -50q-45 0 -124.5 26.5t-119.5 26.5q-66 0 -126 -49z" />
    <glyph glyph-name="hungarumlaut" unicode="&#x2dd;" horiz-adv-x="600" 
d="M733 768l-286 -110h-155l222 110h219zM325 768l-286 -110h-155l222 110h219z" />
    <glyph glyph-name="pi" unicode="&#x3c0;" 
d="M196 0v603h2157v-603h-136v484h-1885v-484h-136z" />
    <glyph glyph-name="uni1E02" unicode="&#x1e02;" horiz-adv-x="2570" 
d="M2514 205v-45q0 -83 -38 -121.5t-122 -38.5h-2278v700h2278q84 0 122 -38.5t38 -121.5v-45q0 -68 -29.5 -103.5t-102.5 -41.5q73 -6 102.5 -41.5t29.5 -103.5zM2309 412q35 0 49 14.5t14 49.5v36q0 34 -14.5 49t-47.5 15h-2092v-164h2091zM218 288v-164h2092
q33 0 47.5 15t14.5 49v36q0 35 -14 49.5t-49 14.5h-2091zM1363 854v-89h-156v89h156z" />
    <glyph glyph-name="uni1E03" unicode="&#x1e03;" horiz-adv-x="2285" 
d="M63 163v607h137v-248q12 42 44 61.5t92 19.5h1732q83 0 121.5 -39.5t38.5 -123.5v-277q0 -84 -38.5 -123.5t-121.5 -39.5h-1843q-84 0 -123 39.5t-39 123.5zM200 419v-235q0 -34 15.5 -49.5t49.5 -15.5h1762q34 0 49.5 15.5t15.5 49.5v235q0 34 -15.5 49.5t-49.5 15.5
h-1762q-34 0 -49.5 -15.5t-15.5 -49.5zM1241 756v-89h-156v89h156z" />
    <glyph glyph-name="uni1E0A" unicode="&#x1e0a;" horiz-adv-x="2571" 
d="M2285 700q113 0 171 -58t58 -171v-242q0 -113 -58 -171t-171 -58h-2209v700h2209zM2266 124q106 0 106 107v238q0 107 -106 107h-2048v-452h2048zM1351 854v-89h-156v89h156z" />
    <glyph glyph-name="uni1E0B" unicode="&#x1e0b;" horiz-adv-x="2285" 
d="M2222 770v-607q0 -84 -39 -123.5t-123 -39.5h-1843q-83 0 -121.5 39.5t-38.5 123.5v277q0 84 38.5 123.5t121.5 39.5h1732q60 0 92 -19.5t44 -61.5v248h137zM2085 184v235q0 34 -15 49.5t-49 15.5h-1763q-34 0 -49.5 -15.5t-15.5 -49.5v-235q0 -34 15.5 -49.5t49.5 -15.5
h1763q34 0 49 15.5t15 49.5zM1199 756v-89h-156v89h156z" />
    <glyph glyph-name="uni1E1E" unicode="&#x1e1e;" horiz-adv-x="2508" 
d="M76 0v700h2405v-124h-2263v-164h2149v-124h-2149v-288h-142zM1359 854v-89h-156v89h156z" />
    <glyph glyph-name="uni1E1F" unicode="&#x1e1f;" horiz-adv-x="2196" 
d="M279 484q-41 0 -60 -18t-19 -61v-44h1892v-119h-1892v-242h-137v416q0 96 46 141.5t142 45.5h1917v-119h-1889zM1223 756v-89h-156v89h156z" />
    <glyph glyph-name="uni1E40" unicode="&#x1e40;" horiz-adv-x="3081" 
d="M1706 700h1140q84 0 124.5 -40.5t40.5 -124.5v-535h-142v510q0 36 -14.5 51t-49.5 15h-1124q-37 0 -53 -16.5t-16 -54.5v-505h-143v505q0 38 -16 54.5t-53 16.5h-1124q-35 0 -49.5 -15t-14.5 -51v-510h-142v535q0 84 40.5 124.5t124.5 40.5h1140q79 0 118 -31t48 -100
q8 68 47.5 99.5t117.5 31.5zM1619 854v-89h-156v89h156z" />
    <glyph glyph-name="uni1E41" unicode="&#x1e41;" horiz-adv-x="2733" 
d="M1366 479q7 66 42.5 95t109.5 29h991q83 0 121.5 -39.5t38.5 -123.5v-440h-136v419q0 34 -15.5 49.5t-49.5 15.5h-974q-59 0 -59 -61v-423h-137v423q0 61 -60 61h-973q-35 0 -50 -15.5t-15 -49.5v-419h-137v440q0 84 39 123.5t122 39.5h990q75 0 110.5 -29t41.5 -95z
M1444 756v-89h-156v89h156z" />
    <glyph glyph-name="uni1E56" unicode="&#x1e56;" horiz-adv-x="2543" 
d="M76 0v700h2267q84 0 124 -40t40 -123v-86q0 -83 -40 -123t-124 -40h-2125v-288h-142zM2364 512q0 35 -14 49.5t-48 14.5h-2084v-164h2084q34 0 48 14.5t14 48.5v37zM1364 854v-89h-156v89h156z" />
    <glyph glyph-name="uni1E57" unicode="&#x1e57;" horiz-adv-x="2285" 
d="M63 -167v607q0 84 39 123.5t123 39.5h1843q83 0 121.5 -39.5t38.5 -123.5v-277q0 -84 -38.5 -123.5t-121.5 -39.5h-1732q-60 0 -92 19.5t-44 61.5v-248h-137zM200 419v-235q0 -34 15.5 -49.5t49.5 -15.5h1762q34 0 49.5 15.5t15.5 49.5v235q0 34 -15.5 49.5t-49.5 15.5
h-1762q-34 0 -49.5 -15.5t-15.5 -49.5zM1221 756v-89h-156v89h156z" />
    <glyph glyph-name="uni1E60" unicode="&#x1e60;" horiz-adv-x="2527" 
d="M229 288q-84 0 -124 40.5t-40 123.5v85q0 83 40 123t124 40h2218v-124h-2177q-34 0 -48.5 -15t-14.5 -49v-37q0 -34 14.5 -48.5t48.5 -14.5h2041q84 0 124 -40t40 -124v-85q0 -83 -40 -123t-124 -40h-2261v124h2221q34 0 48 14.5t14 49.5v37q0 34 -14 48.5t-48 14.5
h-2042zM1341 854v-89h-156v89h156z" />
    <glyph glyph-name="uni1E61" unicode="&#x1e61;" horiz-adv-x="2258" 
d="M2184 484h-1948q-27 0 -39 -12t-12 -39v-25q0 -28 12 -39.5t39 -11.5h1834q74 0 109 -36t35 -112v-62q0 -76 -35.5 -111.5t-109.5 -35.5h-2021v119h1978q27 0 39 12t12 39v25q0 28 -11.5 39.5t-39.5 11.5h-1833q-74 0 -109.5 35.5t-35.5 111.5v63q0 76 35.5 111.5
t109.5 35.5h1991v-119zM1207 756v-89h-156v89h156z" />
    <glyph glyph-name="uni1E6A" unicode="&#x1e6a;" horiz-adv-x="2499" 
d="M2472 700v-124h-1151v-576h-142v576h-1152v124h2445zM1328 854v-89h-156v89h156z" />
    <glyph glyph-name="uni1E6B" unicode="&#x1e6b;" horiz-adv-x="2128" 
d="M226 0q-84 0 -123.5 39.5t-39.5 123.5v607h137v-167h1881v-119h-1881v-300q0 -34 15.5 -49.5t49.5 -15.5h1816v-119h-1855zM1170 756v-89h-156v89h156z" />
    <glyph glyph-name="Wgrave" unicode="&#x1e80;" horiz-adv-x="3081" 
d="M2846 0h-1140q-78 0 -117.5 31.5t-47.5 99.5q-9 -69 -48 -100t-118 -31h-1140q-84 0 -124.5 40.5t-40.5 124.5v535h142v-510q0 -36 14.5 -51t49.5 -15h1124q37 0 53 16.5t16 54.5v505h143v-505q0 -38 16 -54.5t53 -16.5h1124q35 0 49.5 15t14.5 51v510h142v-535
q0 -84 -40.5 -124.5t-124.5 -40.5zM1532 756l-282 110h212l224 -110h-154z" />
    <glyph glyph-name="wgrave" unicode="&#x1e81;" horiz-adv-x="2733" 
d="M1366 124q-6 -66 -41.5 -95t-110.5 -29h-990q-83 0 -122 39.5t-39 123.5v440h137v-419q0 -34 15 -49.5t50 -15.5h973q60 0 60 61v423h137v-423q0 -61 59 -61h974q34 0 49.5 15.5t15.5 49.5v419h136v-440q0 -84 -38.5 -123.5t-121.5 -39.5h-991q-74 0 -109.5 29t-42.5 95z
M1358 658l-282 110h212l224 -110h-154z" />
    <glyph glyph-name="Wacute" unicode="&#x1e82;" horiz-adv-x="3081" 
d="M2846 0h-1140q-78 0 -117.5 31.5t-47.5 99.5q-9 -69 -48 -100t-118 -31h-1140q-84 0 -124.5 40.5t-40.5 124.5v535h142v-510q0 -36 14.5 -51t49.5 -15h1124q37 0 53 16.5t16 54.5v505h143v-505q0 -38 16 -54.5t53 -16.5h1124q35 0 49.5 15t14.5 51v510h142v-535
q0 -84 -40.5 -124.5t-124.5 -40.5zM1834 866l-286 -110h-155l222 110h219z" />
    <glyph glyph-name="wacute" unicode="&#x1e83;" horiz-adv-x="2733" 
d="M1366 124q-6 -66 -41.5 -95t-110.5 -29h-990q-83 0 -122 39.5t-39 123.5v440h137v-419q0 -34 15 -49.5t50 -15.5h973q60 0 60 61v423h137v-423q0 -61 59 -61h974q34 0 49.5 15.5t15.5 49.5v419h136v-440q0 -84 -38.5 -123.5t-121.5 -39.5h-991q-74 0 -109.5 29t-42.5 95z
M1660 768l-286 -110h-155l222 110h219z" />
    <glyph glyph-name="Wdieresis" unicode="&#x1e84;" horiz-adv-x="3081" 
d="M2846 0h-1140q-78 0 -117.5 31.5t-47.5 99.5q-9 -69 -48 -100t-118 -31h-1140q-84 0 -124.5 40.5t-40.5 124.5v535h142v-510q0 -36 14.5 -51t49.5 -15h1124q37 0 53 16.5t16 54.5v505h143v-505q0 -38 16 -54.5t53 -16.5h1124q35 0 49.5 15t14.5 51v510h142v-535
q0 -84 -40.5 -124.5t-124.5 -40.5zM1418 854v-89h-156v89h156zM1819 854v-89h-155v89h155z" />
    <glyph glyph-name="wdieresis" unicode="&#x1e85;" horiz-adv-x="2733" 
d="M1366 124q-6 -66 -41.5 -95t-110.5 -29h-990q-83 0 -122 39.5t-39 123.5v440h137v-419q0 -34 15 -49.5t50 -15.5h973q60 0 60 61v423h137v-423q0 -61 59 -61h974q34 0 49.5 15.5t15.5 49.5v419h136v-440q0 -84 -38.5 -123.5t-121.5 -39.5h-991q-74 0 -109.5 29t-42.5 95z
M1243 756v-89h-156v89h156zM1644 756v-89h-155v89h155z" />
    <glyph glyph-name="Ygrave" unicode="&#x1ef2;" horiz-adv-x="2546" 
d="M2356 700h142v-247q0 -84 -40.5 -124.5t-124.5 -40.5h-989v-288h-142v288h-988q-85 0 -125 40.5t-40 124.5v247h142v-223q0 -36 14.5 -50.5t49.5 -14.5h2037q35 0 49.5 14.5t14.5 50.5v223zM1265 756l-282 110h212l224 -110h-154z" />
    <glyph glyph-name="ygrave" unicode="&#x1ef3;" horiz-adv-x="2291" 
d="M2007 -167h-1904v119h1887q50 0 72.5 21.5t22.5 72.5v84q-13 -42 -45 -61.5t-92 -19.5h-1723q-84 0 -123 39.5t-39 123.5v391h137v-369q0 -65 65 -65h1755q34 0 49.5 15.5t15.5 49.5v369h136v-555q0 -111 -51.5 -163t-162.5 -52zM1137 658l-282 110h212l224 -110h-154z
" />
    <glyph glyph-name="uni2010" unicode="&#x2010;" horiz-adv-x="914" 
d="M869 388v-122h-824v122h824z" />
    <glyph glyph-name="figuredash" unicode="&#x2012;" 
d="M2550 388v-122h-2550v122h2550z" />
    <glyph glyph-name="endash" unicode="&#x2013;" horiz-adv-x="1203" 
d="M1203 388v-122h-1203v122h1203z" />
    <glyph glyph-name="emdash" unicode="&#x2014;" horiz-adv-x="2406" 
d="M2406 388v-122h-2406v122h2406z" />
    <glyph glyph-name="quoteleft" unicode="&#x2018;" horiz-adv-x="325" 
d="M74 443v117q0 66 34.5 103t100.5 37h42v-66h-34q-27 0 -39 -12t-12 -42v-20h85v-117h-177z" />
    <glyph glyph-name="quoteright" unicode="&#x2019;" horiz-adv-x="325" 
d="M251 700v-117q0 -66 -34.5 -103t-100.5 -37h-42v66h34q27 0 39 12t12 42v20h-85v117h177z" />
    <glyph glyph-name="quotesinglbase" unicode="&#x201a;" horiz-adv-x="325" 
d="M251 118v-117q0 -66 -34.5 -103t-100.5 -37h-42v66h34q27 0 39 12t12 42v20h-85v117h177z" />
    <glyph glyph-name="quotedblleft" unicode="&#x201c;" horiz-adv-x="583" 
d="M332 443v117q0 66 34.5 103t100.5 37h42v-66h-34q-27 0 -39 -12t-12 -42v-20h85v-117h-177zM74 443v117q0 66 34.5 103t100.5 37h42v-66h-34q-27 0 -39 -12t-12 -42v-20h85v-117h-177z" />
    <glyph glyph-name="quotedblright" unicode="&#x201d;" horiz-adv-x="583" 
d="M509 700v-117q0 -66 -34.5 -103t-100.5 -37h-42v66h34q27 0 39 12t12 42v20h-85v117h177zM251 700v-117q0 -66 -34.5 -103t-100.5 -37h-42v66h34q27 0 39 12t12 42v20h-85v117h177z" />
    <glyph glyph-name="quotedblbase" unicode="&#x201e;" horiz-adv-x="583" 
d="M509 118v-117q0 -66 -34.5 -103t-100.5 -37h-42v66h34q27 0 39 12t12 42v20h-85v117h177zM251 118v-117q0 -66 -34.5 -103t-100.5 -37h-42v66h34q27 0 39 12t12 42v20h-85v117h177z" />
    <glyph glyph-name="dagger" unicode="&#x2020;" horiz-adv-x="2361" 
d="M2321 525v-124h-1070v-533h-142v533h-1069v124h1069v215h142v-215h1070z" />
    <glyph glyph-name="daggerdbl" unicode="&#x2021;" horiz-adv-x="2361" 
d="M2321 250v-124h-1070v-258h-142v258h-1069v124h1069v151h-1069v124h1069v215h142v-215h1070v-124h-1070v-151h1070z" />
    <glyph glyph-name="bullet" unicode="&#x2022;" horiz-adv-x="1203" 
d="M695 142h-187q-174 0 -174 166v84q0 166 174 166h187q174 0 174 -166v-84q0 -166 -174 -166z" />
    <glyph glyph-name="ellipsis" unicode="&#x2026;" horiz-adv-x="840" 
d="M251 118v-118h-177v118h177zM509 118v-118h-177v118h177zM766 118v-118h-177v118h177z" />
    <glyph glyph-name="perthousand" unicode="&#x2030;" horiz-adv-x="4715" 
d="M1274 0l616 700h140l-616 -700h-140zM1939 125v284q0 64 30 94.5t94 30.5h1059q64 0 94.5 -30.5t30.5 -94.5v-284q0 -64 -30.5 -94.5t-94.5 -30.5h-1059q-64 0 -94 30.5t-30 94.5zM3127 149v236q0 24 -10 34t-33 10h-982q-23 0 -33.5 -10t-10.5 -34v-236q0 -24 10.5 -34
t33.5 -10h982q23 0 33 10t10 34zM3351 125v284q0 64 30 94.5t94 30.5h1059q64 0 94.5 -30.5t30.5 -94.5v-284q0 -64 -30.5 -94.5t-94.5 -30.5h-1059q-64 0 -94 30.5t-30 94.5zM4539 149v236q0 24 -10 34t-33 10h-982q-23 0 -33.5 -10t-10.5 -34v-236q0 -24 10.5 -34
t33.5 -10h982q23 0 33 10t10 34zM56 291v284q0 64 30 94.5t94 30.5h1059q64 0 94.5 -30.5t30.5 -94.5v-284q0 -64 -30.5 -94.5t-94.5 -30.5h-1059q-64 0 -94 30.5t-30 94.5zM1244 315v236q0 24 -10 34t-33 10h-982q-23 0 -33.5 -10t-10.5 -34v-236q0 -24 10.5 -34t33.5 -10
h982q23 0 33 10t10 34z" />
    <glyph glyph-name="guilsinglleft" unicode="&#x2039;" horiz-adv-x="451" 
d="M421 51h-157l-234 249l234 249h157l-237 -249z" />
    <glyph glyph-name="guilsinglright" unicode="&#x203a;" horiz-adv-x="451" 
d="M187 51h-157l237 249l-237 249h157l234 -249z" />
    <glyph glyph-name="fraction" unicode="&#x2044;" horiz-adv-x="814" 
d="M29 0l616 700h140l-616 -700h-140z" />
    <glyph glyph-name="zerosuperior" unicode="&#x2070;" horiz-adv-x="1420" 
d="M56 291v284q0 64 30 94.5t94 30.5h1059q64 0 94.5 -30.5t30.5 -94.5v-284q0 -64 -30.5 -94.5t-94.5 -30.5h-1059q-64 0 -94 30.5t-30 94.5zM1244 315v236q0 24 -10 34t-33 10h-982q-23 0 -33.5 -10t-10.5 -34v-236q0 -24 10.5 -34t33.5 -10h982q23 0 33 10t10 34z" />
    <glyph glyph-name="foursuperior" unicode="&#x2074;" horiz-adv-x="1420" 
d="M1232 485v215h119v-534h-119v215h-1063q-64 0 -94.5 30.5t-30.5 93.5v195h119v-171q0 -44 44 -44h1025z" />
    <glyph glyph-name="zeroinferior" unicode="&#x2080;" horiz-adv-x="1420" 
d="M56 125v284q0 64 30 94.5t94 30.5h1059q64 0 94.5 -30.5t30.5 -94.5v-284q0 -64 -30.5 -94.5t-94.5 -30.5h-1059q-64 0 -94 30.5t-30 94.5zM1244 149v236q0 24 -10 34t-33 10h-982q-23 0 -33.5 -10t-10.5 -34v-236q0 -24 10.5 -34t33.5 -10h982q23 0 33 10t10 34z" />
    <glyph glyph-name="oneinferior" unicode="&#x2081;" horiz-adv-x="1420" 
d="M110 0v105h647v324h-648v105h767v-429h484v-105h-1250z" />
    <glyph glyph-name="twoinferior" unicode="&#x2082;" horiz-adv-x="1420" 
d="M1258 364v20q0 25 -10 35.5t-34 10.5h-1148v104h1187q64 0 94 -30.5t30 -94.5v-69q0 -64 -30 -94.5t-94 -30.5h-1022q-37 0 -51 -13.5t-14 -50.5v-46h1211v-105h-1331v168q0 151 152 151h1016q24 0 34 10t10 35z" />
    <glyph glyph-name="threeinferior" unicode="&#x2083;" horiz-adv-x="1420" 
d="M1373 412v-37q0 -48 -21.5 -75t-80.5 -33q59 -6 80.5 -33t21.5 -75v-37q0 -63 -29 -92.5t-93 -29.5h-1209v105h1168q24 0 34 10t10 35v20q0 24 -10 34.5t-34 10.5h-1080v104h1080q23 0 33.5 10.5t10.5 34.5v20q0 25 -10 35t-34 10h-1168v105h1209q64 0 93 -29.5t29 -92.5
z" />
    <glyph glyph-name="fourinferior" unicode="&#x2084;" horiz-adv-x="1420" 
d="M1232 319v215h119v-534h-119v215h-1063q-64 0 -94.5 30.5t-30.5 93.5v195h119v-171q0 -44 44 -44h1025z" />
    <glyph glyph-name="Euro" unicode="&#x20ac;" 
d="M305 0q-84 0 -124.5 40.5t-40.5 124.5v123h-112v124h112v123q0 84 40.5 124.5t124.5 40.5h2197v-124h-2156q-35 0 -49.5 -15t-14.5 -51v-98h2106v-124h-2106v-98q0 -36 14.5 -51t49.5 -15h2156v-124h-2197z" />
    <glyph glyph-name="uni2117" unicode="&#x2117;" horiz-adv-x="2522" 
d="M324 377h1876q20 0 20 20v38q0 20 -20 20h-1876v-78zM2285 446v-60q0 -64 -64 -64h-1897v-134h-65v323h1962q64 0 64 -65zM229 0q-86 0 -126.5 41t-40.5 125v368q0 84 40.5 125t126.5 41h2064q86 0 126.5 -41t40.5 -125v-368q0 -84 -40.5 -125t-126.5 -41h-2064zM233 60
h2056q103 0 103 103v374q0 103 -103 103h-2056q-102 0 -102 -103v-374q0 -103 102 -103z" />
    <glyph glyph-name="trademark" unicode="&#x2122;" horiz-adv-x="3474" 
d="M2430 166v378q0 51 -48 51h-651q-23 0 -32.5 -9.5t-9.5 -33.5v-386h-120v412q0 122 123 122h666q63 0 94 -25t37 -80q6 55 37 80t95 25h666q122 0 122 -122v-412h-119v386q0 24 -9.5 33.5t-32.5 9.5h-651q-48 0 -48 -51v-378h-119zM1475 700v-105h-661v-429h-120v429
h-661v105h1442z" />
    <glyph glyph-name="uni2126" unicode="&#x2126;" 
d="M2342 416v96q0 34 -14.5 49t-47.5 15h-2010q-34 0 -48.5 -15t-14.5 -49v-96q0 -34 14.5 -49t48.5 -15h854v-352h-1074v124h948v105h-769q-84 0 -124 40.5t-40 123.5v144q0 83 40 123t124 40h2092q84 0 123.5 -40t39.5 -123v-144q0 -84 -39.5 -124t-123.5 -40h-770v-105
h949v-124h-1074v352h854q33 0 47.5 15t14.5 49z" />
    <glyph glyph-name="onethird" unicode="&#x2153;" horiz-adv-x="3303" 
d="M110 166v105h647v324h-648v105h767v-429h484v-105h-1250zM1274 0l616 700h140l-616 -700h-140zM3256 412v-37q0 -48 -21.5 -75t-80.5 -33q59 -6 80.5 -33t21.5 -75v-37q0 -63 -29 -92.5t-93 -29.5h-1209v105h1168q24 0 34 10t10 35v20q0 24 -10.5 34.5t-33.5 10.5h-1080
v104h1080q23 0 33.5 10.5t10.5 34.5v20q0 25 -10 35t-34 10h-1168v105h1209q64 0 93 -29.5t29 -92.5z" />
    <glyph glyph-name="twothirds" unicode="&#x2154;" horiz-adv-x="3303" 
d="M1258 530v20q0 25 -10 35.5t-34 10.5h-1148v104h1187q64 0 94 -30.5t30 -94.5v-69q0 -64 -30 -94.5t-94 -30.5h-1022q-37 0 -51 -13.5t-14 -50.5v-46h1211v-105h-1331v168q0 151 152 151h1016q24 0 34 10t10 35zM1274 0l616 700h140l-616 -700h-140zM3256 412v-37
q0 -48 -21.5 -75t-80.5 -33q59 -6 80.5 -33t21.5 -75v-37q0 -63 -29 -92.5t-93 -29.5h-1209v105h1168q24 0 34 10t10 35v20q0 24 -10.5 34.5t-33.5 10.5h-1080v104h1080q23 0 33.5 10.5t10.5 34.5v20q0 25 -10 35t-34 10h-1168v105h1209q64 0 93 -29.5t29 -92.5z" />
    <glyph glyph-name="partialdiff" unicode="&#x2202;" 
d="M2489 471v-307q0 -83 -40 -123.5t-124 -40.5h-2111q-84 0 -124 40t-40 123v85q0 84 40 124t124 40h2133v57q0 107 -106 107h-2163v124h2182q112 0 170.5 -58t58.5 -171zM192 225v-37q0 -35 14 -49.5t48 -14.5h2029q35 0 49.5 15t14.5 50v99h-2093q-34 0 -48 -14.5
t-14 -48.5z" />
    <glyph glyph-name="uni2206" unicode="&#x2206;" 
d="M2513 0h-2477l1238 731zM1274 585l-789 -466h1578z" />
    <glyph glyph-name="product" unicode="&#x220f;" 
d="M2345 -132v708h-2140v-708h-143v832h2425v-832h-142z" />
    <glyph glyph-name="summation" unicode="&#x2211;" 
d="M2488 -8v-124h-2426v106l809 310l-809 310v106h2426v-124h-2024l756 -292l-756 -292h2024z" />
    <glyph glyph-name="minus" unicode="&#x2212;" 
d="M62 291v118h2425v-118h-2425z" />
    <glyph glyph-name="radical" unicode="&#x221a;" 
d="M1739 0l-272 291h-1405v118h1470l276 -292l549 583h170l-648 -700h-140z" />
    <glyph glyph-name="infinity" unicode="&#x221e;" horiz-adv-x="733" 
d="M345 317q-12 0 -23.5 12.5t-14.5 12.5t-11 -2t-14 -2q-8 0 -14.5 8t-6.5 17q0 22 8 35q-7 -7 -16 -37t-26 -41q-18 -12 -18 -40q0 -11 11 -21.5t11 -12.5q0 -4 -3 -4q-7 0 -12 5q13 -68 48 -104h-55q-35 114 -35 226q0 105 40.5 171.5t135.5 66.5q190 0 190 -254
q0 -75 -25 -210h-73q53 47 62 117q-4 -8 -13 -8q-3 0 -3 2l4 4q5 3 9.5 11.5t4.5 21.5q-4 -6 -15 -6q-1 0 -10.5 -4.5t-15.5 -4.5q-14 0 -40 3.5t-70 3.5q-22 0 -52.5 -6t-38.5 -6q-5 0 -13 2t-11 2q-28 0 -28 12q0 10 37 18.5t74 8.5q5 0 12 -0.5t12 -0.5t15.5 2t14.5 2
q112 0 127 -20q-1 16 -14 29t-30 13q-6 0 -6 7q0 57 -16 58q4 -7 4 -17q0 -18 -11 -32t-27 -14q-4 0 -10 2l-7 2q-1 0 -14.5 -14t-27.5 -14zM733 291v-148q-22 48 -69 112.5t-67 64.5q6 -85 -12 -177h-42q16 104 16 199q0 319 -213 319q-53 0 -91.5 -26.5t-59 -72.5
t-30 -97.5t-9.5 -111.5q0 -123 29 -210h-47q-19 67 -19 184q-17 -9 -39.5 -43.5t-49 -84.5t-30.5 -56v148q11 27 33 54t50 53.5t30 28.5q3 72 27 135t75.5 107.5t120.5 44.5q67 0 115.5 -22.5t76.5 -64t42.5 -87t22.5 -105.5q22 -5 68 -48t72 -96zM345 503q-3 3 -3 6
q0 2 2 2q1 0 6 -4.5t15 -8.5t22 -4q16 0 29 4t20 8l6 5q4 0 4 -2l-8 -8q24 0 52 -11q-29 80 -139 80q-55 0 -92 -33t-50 -85q37 20 41 39q-6 4 -6 7q0 4 3 4l2 -2q2 -1 6.5 -3.5t10 -5t13.5 -4t17 -1.5q24 0 49 17zM371 416q0 20 -4.5 40t-9.5 20q-10 0 -19 -39t-14 -39
q-3 0 -9.5 3t-11.5 3q-13 0 -21 -10.5t-8 -24.5t11 -14t18 6.5t9 6.5t12 -13.5t20 -13.5q14 0 25 10.5t12 10.5q3 0 10 -3.5t9 -3.5q10 0 18 11t8 24q0 10 -6 18t-16 8q-7 0 -14.5 -6.5t-11.5 -6.5q-7 0 -7 13zM510 318q0 95 -12 147l-5 3q0 -21 -18 -32t-41 -11
q-21 0 -37 12.5t-16 29.5q0 6 2 9q-12 2 -15 4q6 -9 10 -24t5.5 -24t4.5 -9q7 2 15 2q19 0 31 -14q34 0 34 -51q0 -3 8 -7t18.5 -13t15.5 -22zM383 310q-1 0 -8 -1t-15.5 -2t-13.5 -1t-13 1.5t-11 1.5q-15 0 -36 -4t-35 -9t-14 -8q0 -10 20 -10q24 0 54 6.5t44 6.5
q19 0 57.5 -3.5t52.5 -3.5q5 0 9.5 2t7.5 4t3 3q0 5 -36 11t-66 6zM267 413q-18 0 -31 10t-15 21q-4 -2 -15 -5q-4 -21 -4 -43q0 -50 3 -78q4 6 22 22t20 31q5 37 38 41q12 5 23 5q5 0 8.5 8.5t9.5 24.5t16 28l-13 -4q-1 -24 -18.5 -42.5t-43.5 -18.5zM419 465q-13 0 -16 13
q-5 0 -8.5 -5.5t-3.5 -9.5q0 -10 15 -17t31 -7q14 0 29 8.5t15 21.5q0 8 -14.5 12.5t-28.5 4.5q-5 -21 -19 -21zM267 427q14 0 30 11t16 24q0 6 -1 9q-20 0 -27 1q-5 -14 -18 -14q-10 0 -15 5q-4 -4 -18 -12q4 -24 33 -24zM266 288q-2 0 -2 3q0 12 107 12q93 0 93 -8
q0 -3 -3 -3q-1 0 -4 0.5t-10 1t-16 1.5t-24.5 1.5t-33.5 0.5q-36 0 -61 -2.5t-36 -4.5zM305 262q0 10 63 10q31 0 31 -8q0 -3 -2 -3q-4 0 -10 2t-10 2q-11 0 -26 -0.5t-20 -0.5q-4 0 -11.5 -3t-10.5 -3q-4 0 -4 4zM417 473q9 0 9 13q-1 0 -16 -6q0 -7 7 -7zM266 466
q7 0 10 9q-6 1 -11 4q0 -4 -6 -10q1 -3 7 -3zM325 34l-3 48l-10 -82h-21l15 125h25l4 -60l21 60h26l-15 -125h-22l10 82l-16 -48h-14zM21 125h35q23 0 20 -21l-10 -82q-3 -22 -22 -22h-38zM282 44q-1 -12 -10 -17l8 -27h-21l-7 23h-7l-3 -23h-22l15 125h36q21 0 18 -24z
M183 0l3 23h-14l-3 -23h-21l12 104q2 21 22 21h17q19 0 18 -21l-12 -104h-22zM594 0l15 125h35q23 0 20 -21l-8 -62q-3 -19 -22 -19h-15l-3 -23h-22zM111 0l3 23h-13l-3 -23h-22l15 125h22l-10 -83h13l10 83h22l-15 -125h-22zM539 125h22l-10 -79q0 -4 4 -4h5q5 0 5 4l9 79
h22l-10 -81q-3 -21 -19 -21l-9 -23h-23l9 23q-18 0 -15 21zM477 106l3 19h50l-3 -19h-13l-12 -106h-23l12 106h-14zM41 106l-11 -88h11q3 0 3 4l9 80q0 4 -4 4h-8zM629 106l-8 -64h8q5 0 5 4l7 56q0 4 -4 4h-8zM174 42h14l7 60q0 4 -4 4h-5q-5 0 -5 -4zM255 106l-8 -64h8
q5 0 5 4l7 56q0 4 -3 4h-9zM711 57l-3 -18h-19l-3 -21h27l-2 -18h-49l15 125h47l-3 -19h-24l-6 -49h20zM417 0l3 23h-14l-3 -23h-21l12 104q2 21 22 21h17q19 0 18 -21l-12 -104h-22zM408 42h14l7 60q0 4 -4 4h-5q-5 0 -5 -4z" />
    <glyph glyph-name="integral" unicode="&#x222b;" 
d="M1448 504l-223 -491q-37 -80 -86 -112.5t-140 -32.5h-937v124h933q44 0 69 16t44 56l224 491q36 80 85.5 112.5t140.5 32.5h929v-124h-926q-44 0 -69 -16t-44 -56z" />
    <glyph glyph-name="approxequal" unicode="&#x2248;" 
d="M62 126v123q231 87 543 87q218 0 671 -59.5t671 -59.5q312 0 540 86v-123q-232 -87 -545 -87q-182 0 -427 29.5t-489.5 59t-425.5 29.5q-310 0 -538 -85zM62 398v122q231 87 543 87q218 0 671 -59.5t671 -59.5q312 0 540 86v-123q-230 -86 -544 -86q-219 0 -672.5 59
t-671.5 59q-310 0 -537 -85z" />
    <glyph glyph-name="notequal" unicode="&#x2260;" 
d="M1048 0h-149l137 155h-941v118h1046l136 154h-1182v118h1287l138 155h149l-138 -155h924v-118h-1029l-136 -154h1165v-118h-1270z" />
    <glyph glyph-name="lessequal" unicode="&#x2264;" 
d="M62 350l310 315h156l-254 -256h2213v-118h-2213l171 -173h2042v-118h-2425v118h227z" />
    <glyph glyph-name="greaterequal" unicode="&#x2265;" 
d="M2177 665l310 -315l-227 -232h227v-118h-2425v118h2042l171 173h-2213v118h2213l-254 256h156z" />
    <glyph glyph-name="lozenge" unicode="&#x25ca;" 
d="M1274 -31l-1238 379l1238 379l1239 -379zM1274 97l818 251l-818 250l-817 -250z" />
    <glyph glyph-name="commaaccent" horiz-adv-x="601" 
d="M377 -70v-70q0 -53 -27.5 -82.5t-80.5 -29.5h-43v39h38q22 0 32 10.5t10 33.5v13h-82v86h153z" />
    <glyph glyph-name="f.alt" horiz-adv-x="2196" 
d="M279 484q-41 0 -60 -18t-19 -61v-44h1892v-119h-1892v-409h-137v583q0 96 46 141.5t142 45.5h1917v-119h-1889z" />
    <glyph glyph-name="i.alt" horiz-adv-x="281" 
d="M72 0v603h137v-603h-137zM232 757v-90h-182v90h182z" />
    <glyph glyph-name="i.trk" horiz-adv-x="415" 
d="M265 119h125v-119h-164q-84 0 -122 38.5t-38 120.5v444h137v-422q0 -33 15 -47.5t47 -14.5zM226 757v-90h-182v90h182z" />
    <glyph glyph-name="germandbls.alt" horiz-adv-x="2311" 
d="M2077 246h-1599v111h1599q27 0 38 11t11 38v26q0 28 -12 40t-40 12h-1792q-43 0 -62.5 -19t-19.5 -63v-569h-137v586q0 94 45 139t140 45h1876q73 0 106 -33t33 -104v-42q0 -56 -23 -86.5t-79 -36.5q56 -6 79 -36t23 -86v-42q0 -71 -34 -104t-105 -33h-1646v119h1596
q28 0 40 12t12 40v26q0 26 -11 37.5t-38 11.5z" />
    <glyph glyph-name="one.pnum" horiz-adv-x="521" 
d="M444 700v-700h-142v576h-274v124h416z" />
    </font>
</defs>
</svg>
