<?xml version="1.0" standalone="no"?>
<!DOCTYPE svg PUBLIC "-//W3C//DTD SVG 1.1//EN" "http://www.w3.org/Graphics/SVG/1.1/DTD/svg11.dtd" >
<svg xmlns="http://www.w3.org/2000/svg" xmlns:xlink="http://www.w3.org/1999/xlink" version="1.1">
<metadata>
Created by FontForge 20170731 at Sat Mar 14 00:16:18 2015
 By ,,,
Copyright (c) 2011 by Ryoichi Tsunekawa. All rights reserved.
</metadata>
<defs>
<font id="DesignSystemG-700I" horiz-adv-x="3386" >
  <font-face 
    font-family="DesignSystemG-700I"
    font-weight="400"
    font-style="italic"
    font-stretch="normal"
    units-per-em="1000"
    panose-1="4 5 7 8 2 11 2 2 3 2"
    ascent="822"
    descent="-178"
    x-height="603"
    cap-height="700"
    bbox="-219 -260 6012.88 938"
    underline-thickness="36"
    underline-position="-156"
    slope="-8"
    unicode-range="U+0020-FB02"
  />
<missing-glyph horiz-adv-x="1500" 
d="M8 700h1500v-700h-1500v700zM75 634v-566l1273 566h-1273zM168 66h1273v565z" />
    <glyph glyph-name="ij" unicode="ij" horiz-adv-x="590" 
d="M187 -48h82q65 0 74 66l82 585h137l-84 -602q-13 -87 -58.5 -127.5t-132.5 -40.5h-117zM407 667l13 90h191l-13 -90h-191zM35 0l84 603h137l-84 -603h-137zM305 757l-13 -90h-191l12 90h192z" />
    <glyph glyph-name="fi" unicode="fi" horiz-adv-x="3387" 
d="M314 484q-44 0 -66.5 -19.5t-29.5 -64.5l-6 -39h2606l-17 -119h-2605l-58 -409h-137l81 573q14 101 68.5 149t155.5 48h2636l-17 -119h-2611zM3179 119h155l-17 -119h-189q-87 0 -121.5 40.5t-22.5 127.5l61 435h137l-59 -418q-10 -66 56 -66zM3231 757l-13 -90h-191
l13 90h191z" />
    <glyph glyph-name="fl" unicode="fl" horiz-adv-x="3383" 
d="M314 484q-44 0 -66.5 -19.5t-29.5 -64.5l-6 -39h2606l-17 -119h-2605l-58 -409h-137l81 573q14 101 68.5 149t155.5 48h2636l-17 -119h-2611zM3176 119h154l-16 -119h-189q-88 0 -122 40.5t-22 127.5l84 602h137l-82 -585q-10 -66 56 -66z" />
    <glyph glyph-name=".notdef" horiz-adv-x="1500" 
d="M8 700h1500v-700h-1500v700zM75 634v-566l1273 566h-1273zM168 66h1273v565z" />
    <glyph glyph-name=".null" horiz-adv-x="0" 
 />
    <glyph glyph-name="nonmarkingreturn" horiz-adv-x="333" 
 />
    <glyph glyph-name="space" unicode=" " horiz-adv-x="777" 
 />
    <glyph glyph-name="exclam" unicode="!" horiz-adv-x="343" 
d="M238 104l-15 -104h-187l14 104h188zM298 700l-31 -223q-22 -154 -56 -278h-108q0 126 22 278l31 223h142z" />
    <glyph glyph-name="quotedbl" unicode="&#x22;" horiz-adv-x="530" 
d="M242 700v-42q0 -117 -21 -266h-100q-21 149 -21 266v42h142zM496 700v-42q0 -117 -21 -266h-100q-21 149 -21 266v42h142z" />
    <glyph glyph-name="numbersign" unicode="#" 
d="M3016 0l7 124h-2678l-6 -124h-137l7 124h-161l6 119h161l11 214h-160l6 119h160l7 124h137l-7 -124h2678l6 124h137l-7 -124h161l-6 -119h-161l-11 -214h160l-6 -119h-160l-7 -124h-137zM363 457l-12 -214h2678l12 214h-2678z" />
    <glyph glyph-name="dollar" unicode="$" 
d="M35 169h3087q28 0 42 12t19 41l2 18q4 28 -6.5 40t-38.5 12h-2936q-79 0 -110 37t-20 117l7 50q11 80 52.5 117t120.5 37h1425l13 90h124l-13 -90h1554l-17 -119h-3065q-29 0 -42.5 -12.5t-17.5 -40.5l-3 -18q-4 -28 7 -40t39 -12h2936q79 0 109.5 -37t19.5 -117l-7 -50
q-11 -80 -52.5 -117t-119.5 -37h-1425l-13 -90h-124l13 90h-1576z" />
    <glyph glyph-name="percent" unicode="%" horiz-adv-x="4229" 
d="M1608 0l890 700h155l-890 -700h-155zM2455 125l40 284q9 64 43.5 94.5t98.5 30.5h1448q64 0 90 -30.5t18 -94.5l-41 -284q-16 -125 -142 -125h-1448q-64 0 -90 30.5t-17 94.5zM4036 149l33 236q4 24 -5 34t-32 10h-1372q-43 0 -50 -44l-33 -236q-6 -44 38 -44h1372
q44 0 49 44zM68 291l40 284q9 64 43.5 94.5t98.5 30.5h1448q64 0 90 -30.5t18 -94.5l-41 -284q-16 -125 -142 -125h-1448q-64 0 -90 30.5t-17 94.5zM1649 315l33 236q4 24 -5 34t-32 10h-1372q-43 0 -50 -44l-33 -236q-3 -24 6 -34t32 -10h1372q23 0 34.5 10t14.5 34z" />
    <glyph glyph-name="ampersand" unicode="&#x26;" horiz-adv-x="3489" 
d="M3191 289h-2911q-37 0 -54 -15t-22 -53l-5 -31q-5 -36 8 -51.5t48 -15.5h2851q37 0 51.5 13t19.5 50zM54 168l4 31q10 70 47 107t117 44q-78 7 -104.5 44t-16.5 107l4 31q12 87 58.5 127.5t133.5 40.5h3044l-17 -123h-3005q-35 0 -52.5 -15.5t-22.5 -51.5l-4 -31
q-5 -38 7.5 -53t49.5 -15h3186l-17 -122h-133l-18 -129q-12 -86 -53.5 -123t-128.5 -37h-2934q-87 0 -122 40.5t-23 127.5z" />
    <glyph glyph-name="quotesingle" unicode="'" horiz-adv-x="276" 
d="M242 700v-42q0 -117 -21 -266h-100q-21 149 -21 266v42h142z" />
    <glyph glyph-name="parenleft" unicode="(" horiz-adv-x="388" 
d="M188 102q-5 -38 7.5 -53.5t49.5 -15.5h65l-16 -113h-92q-88 0 -123 41t-23 128l62 442q13 87 59.5 128t134.5 41h92l-16 -113h-64q-38 0 -55.5 -15.5t-22.5 -53.5z" />
    <glyph glyph-name="parenright" unicode=")" horiz-adv-x="388" 
d="M156 102l59 416q5 38 -8 53.5t-50 15.5h-65l16 113h92q88 0 123 -41t23 -128l-62 -442q-12 -87 -59 -128t-135 -41h-92l16 113h65q37 0 54.5 15.5t22.5 53.5z" />
    <glyph glyph-name="asterisk" unicode="*" horiz-adv-x="630" 
d="M348 436q103 84 177 106l72 22l27 -118l-73 -22q-47 -15 -114.5 -17t-83.5 4q96 -61 135 -126l34 -59l-109 -73l-34 59q-22 38 -35.5 94t-15.5 88q-38 -113 -97 -182l-51 -59l-93 73l51 59q55 63 170 126q-18 -6 -84.5 -4t-109.5 17l-66 22l49 118l66 -22
q43 -14 88.5 -47.5t68.5 -58.5q-33 104 -20 191l10 73h124l-10 -73q-12 -79 -76 -191z" />
    <glyph glyph-name="plus" unicode="+" 
d="M70 291v118h1566v291h118v-291h1568v-118h-1568v-291h-118v291h-1566z" />
    <glyph glyph-name="comma" unicode="," horiz-adv-x="342" 
d="M238 118l-17 -117q-9 -66 -49 -103t-106 -37h-49l9 67h39q53 0 61 55l3 18h-92l16 117h185z" />
    <glyph glyph-name="hyphen" unicode="-" horiz-adv-x="1140" 
d="M1102 388l-17 -122h-1040l17 122h1040z" />
    <glyph glyph-name="period" unicode="." horiz-adv-x="342" 
d="M238 118l-17 -118h-184l16 118h185z" />
    <glyph glyph-name="slash" unicode="/" horiz-adv-x="1074" 
d="M37 0l832 700h178l-831 -700h-179z" />
    <glyph glyph-name="zero" unicode="0" 
d="M210 0q-89 0 -125 42.5t-24 130.5l50 354q12 88 60 130.5t137 42.5h2906q89 0 125 -42.5t24 -130.5l-50 -354q-12 -88 -60 -130.5t-137 -42.5h-2906zM3174 194l44 312q5 38 -8 54t-50 16h-2833q-37 0 -54.5 -16t-22.5 -54l-44 -312q-5 -38 8 -54t50 -16h2832q37 0 55 16
t23 54z" />
    <glyph glyph-name="one" unicode="1" 
d="M2408 700l-81 -576h967l-17 -124h-3185l17 124h2076l63 452h-2076l18 124h2218z" />
    <glyph glyph-name="two" unicode="2" 
d="M3199 508q4 37 -9 52.5t-48 15.5h-3018l18 124h3054q88 0 124 -42.5t24 -129.5l-10 -68q-13 -88 -60.5 -130t-135.5 -42h-2849q-52 0 -75.5 -20t-30.5 -72l-10 -72h3134l-17 -124h-3276l28 202q28 210 238 210h2839q35 0 53 15.5t22 51.5z" />
    <glyph glyph-name="three" unicode="3" 
d="M3114 288h-2938l17 124h2938q37 0 54.5 15.5t22.5 52.5l4 28q5 36 -8 52t-48 16h-3065l18 124h3104q87 0 121.5 -40.5t22.5 -127.5l-4 -31q-10 -70 -47 -107t-117 -44q78 -7 104.5 -44t16.5 -107l-4 -31q-12 -87 -58 -127.5t-133 -40.5h-3104l17 124h3065q35 0 52.5 15.5
t22.5 52.5l3 28q5 38 -7.5 53t-49.5 15z" />
    <glyph glyph-name="four" unicode="4" 
d="M3190 412l41 288h142l-98 -700h-142l40 288h-2937q-89 0 -125 42.5t-24 130.5l34 239h142l-31 -219q-5 -38 8 -53.5t50 -15.5h2900z" />
    <glyph glyph-name="five" unicode="5" 
d="M74 288l58 412h3224l-18 -124h-3082l-23 -164h2940q88 0 124 -42.5t24 -129.5l-9 -68q-12 -87 -60 -129.5t-136 -42.5h-3092l17 124h3057q35 0 52.5 15.5t22.5 52.5l3 29q5 36 -7.5 51.5t-47.5 15.5h-3047z" />
    <glyph glyph-name="six" unicode="6" 
d="M242 463l-8 -51h2951q88 0 124 -42.5t24 -129.5l-9 -68q-12 -87 -60 -129.5t-136 -42.5h-2920q-89 0 -125 42.5t-24 130.5l40 287q16 118 86.5 179t188.5 61h2994l-18 -124h-2981q-111 0 -127 -113zM3133 288h-2916l-13 -94q-5 -38 8 -54t50 -16h2848q35 0 52.5 15.5
t22.5 52.5l3 29q5 36 -7.5 51.5t-47.5 15.5z" />
    <glyph glyph-name="seven" unicode="7" 
d="M3113 412q51 0 75 20t31 72l10 72h-3158l18 124h3300l-29 -202q-30 -210 -239 -210h-1712q-51 0 -74.5 -20t-30.5 -72l-27 -196h-142l28 202q29 210 238 210h1712z" />
    <glyph glyph-name="eight" unicode="8" 
d="M3369 532l-4 -31q-10 -70 -47 -107t-117 -44q78 -7 104.5 -44t16.5 -107l-4 -31q-12 -87 -57.5 -127.5t-133.5 -40.5h-2928q-87 0 -122 40.5t-23 127.5l4 31q10 70 47 107t117 44q-78 7 -104.5 44t-16.5 107l4 31q12 87 58.5 127.5t133.5 40.5h2928q88 0 122 -40.5
t22 -127.5zM297 412h2846q37 0 54.5 15.5t22.5 52.5l4 28q5 36 -8 52t-48 16h-2850q-35 0 -52 -15.5t-22 -52.5l-4 -28q-5 -38 7.5 -53t49.5 -15zM3126 288h-2846q-37 0 -54.5 -15t-22.5 -53l-3 -28q-5 -37 7.5 -52.5t47.5 -15.5h2850q35 0 52.5 15.5t22.5 52.5l3 28
q5 38 -7.5 53t-49.5 15z" />
    <glyph glyph-name="nine" unicode="9" 
d="M3204 700q89 0 125 -42.5t24 -130.5l-41 -287q-16 -118 -86 -179t-188 -61h-2994l17 124h2981q112 0 128 113l7 51h-2951q-88 0 -124 42.5t-24 129.5l10 68q12 87 60 129.5t136 42.5h2920zM227 508l-4 -29q-5 -36 7.5 -51.5t47.5 -15.5h2916l14 94q5 38 -8 54t-50 16
h-2848q-36 0 -53 -15.5t-22 -52.5z" />
    <glyph glyph-name="colon" unicode=":" horiz-adv-x="342" 
d="M302 578l-17 -118h-184l16 118h185zM238 118l-17 -118h-184l16 118h185z" />
    <glyph glyph-name="semicolon" unicode=";" horiz-adv-x="342" 
d="M238 118l-17 -117q-9 -66 -49 -103t-106 -37h-49l9 67h39q53 0 61 55l3 18h-92l16 117h185zM302 578l-17 -118h-184l16 118h185z" />
    <glyph glyph-name="less" unicode="&#x3c;" 
d="M70 350l359 350h158l-300 -291h3035v-118h-3035l300 -291h-158z" />
    <glyph glyph-name="equal" unicode="=" 
d="M106 154v118h3179v-118h-3179zM106 428v118h3179v-118h-3179z" />
    <glyph glyph-name="greater" unicode="&#x3e;" 
d="M2963 700l359 -350l-359 -350h-158l300 291h-3035v118h3035l-300 291h158z" />
    <glyph glyph-name="question" unicode="?" horiz-adv-x="3345" 
d="M3187 479l5 29q4 37 -9 52.5t-48 15.5h-3064l17 124h3101q88 0 124 -42.5t23 -129.5l-10 -68q-12 -87 -59.5 -129.5t-135.5 -42.5h-1452q-32 0 -46.5 -12t-18.5 -45l-6 -39h-142l9 64q12 82 53.5 119t123.5 37h1459q36 0 53.5 15.5t22.5 51.5zM1619 104l-14 -104h-188
l14 104h188z" />
    <glyph glyph-name="at" unicode="@" horiz-adv-x="3286" 
d="M216 0q-168 0 -144 166l51 368q24 166 191 166h2818q168 0 144 -166l-52 -368q-12 -84 -58 -125t-132 -41h-2818zM228 60h2811q102 0 117 103l53 374q7 52 -14.5 77.5t-74.5 25.5h-2810q-105 0 -118 -103l-52 -374q-15 -103 88 -103zM2959 188h-2619q-77 0 -65 79l5 32
q10 78 86 78h2639l6 48q5 30 -24 30h-2672l8 56h2678q46 0 64 -21.5t12 -66.5l-21 -150q-13 -85 -97 -85zM373 322q-26 0 -29 -25l-4 -28q-3 -25 22 -25h2597q26 0 31 27l7 51h-2624z" />
    <glyph glyph-name="A" unicode="A" horiz-adv-x="3411" 
d="M3295 0h-142l39 288h-2977l-40 -288h-143l74 527q25 173 198 173h2915q89 0 125.5 -43t24.5 -130zM3165 576h-2843q-37 0 -54 -16t-22 -54l-14 -94h2978l14 94q5 38 -8.5 54t-50.5 16z" />
    <glyph glyph-name="B" unicode="B" horiz-adv-x="3404" 
d="M3328 199l-4 -31q-12 -87 -58 -127.5t-133 -40.5h-3094l98 700h3094q87 0 121.5 -40.5t22.5 -127.5l-4 -31q-10 -70 -47 -107t-117 -44q78 -7 104.5 -44t16.5 -107zM3149 412q37 0 54.5 15.5t22.5 52.5l4 28q5 36 -8 52t-48 16h-2913l-23 -164h2911zM221 288l-23 -164
h2913q35 0 52.5 15.5t22.5 52.5l3 28q5 38 -7.5 53t-49.5 15h-2911z" />
    <glyph glyph-name="C" unicode="C" horiz-adv-x="3309" 
d="M210 0q-89 0 -125 42.5t-24 130.5l50 354q12 88 60 130.5t137 42.5h3016l-18 -124h-2979q-37 0 -54.5 -16t-22.5 -54l-44 -312q-5 -38 8 -54t50 -16h2979l-17 -124h-3016z" />
    <glyph glyph-name="D" unicode="D" horiz-adv-x="3404" 
d="M3158 700q118 0 170.5 -61t36.5 -179l-31 -220q-16 -118 -86 -179t-188 -61h-3021l98 700h3021zM3064 124q112 0 128 113l31 226q16 113 -96 113h-2866l-63 -452h2866z" />
    <glyph glyph-name="E" unicode="E" horiz-adv-x="3376" 
d="M39 0l98 700h3242l-18 -124h-3100l-23 -164h2975l-17 -124h-2975l-23 -164h3100l-17 -124h-3242z" />
    <glyph glyph-name="F" unicode="F" horiz-adv-x="3340" 
d="M39 0l98 700h3227l-18 -124h-3085l-23 -164h2960l-17 -124h-2960l-40 -288h-142z" />
    <glyph glyph-name="G" unicode="G" horiz-adv-x="3403" 
d="M3122 124q37 0 51.5 13t19.5 50l14 101h-1766l17 124h1908l-35 -252q-12 -86 -53.5 -123t-128.5 -37h-2939q-89 0 -125 42.5t-24 130.5l50 354q12 88 60 130.5t137 42.5h3074l-18 -124h-3037q-37 0 -54.5 -16t-22.5 -54l-44 -312q-5 -38 8 -54t50 -16h2858z" />
    <glyph glyph-name="H" unicode="H" horiz-adv-x="3434" 
d="M3169 0l40 288h-2988l-40 -288h-142l98 700h142l-41 -288h2988l41 288h142l-98 -700h-142z" />
    <glyph glyph-name="I" unicode="I" horiz-adv-x="304" 
d="M39 0l98 700h142l-98 -700h-142z" />
    <glyph glyph-name="J" unicode="J" horiz-adv-x="3390" 
d="M45 160l26 182h142l-22 -155q-5 -37 6 -50t47 -13h2849q37 0 54.5 16t22.5 54l71 506h142l-74 -527q-12 -88 -60 -130.5t-137 -42.5h-2928q-87 0 -119 37t-20 123z" />
    <glyph glyph-name="K" unicode="K" horiz-adv-x="3411" 
d="M3399 700l-25 -176q-11 -82 -51.5 -124.5t-132.5 -49.5q90 -7 118.5 -50t16.5 -124l-24 -176h-142l29 211q6 41 -8.5 59t-54.5 18h-2904l-40 -288h-142l95 685h143l-39 -273h2904q40 0 60 18t25 59l30 211h142z" />
    <glyph glyph-name="L" unicode="L" horiz-adv-x="3325" 
d="M3268 125l-17 -125h-3212l98 700h142l-81 -575h3070z" />
    <glyph glyph-name="M" unicode="M" horiz-adv-x="4010" 
d="M2236 700h1582q89 0 125.5 -43t24.5 -130l-74 -527h-142l71 506q5 38 -8.5 54t-50.5 16h-1574q-40 0 -60.5 -18.5t-25.5 -58.5l-70 -499h-142l70 499q5 41 -10 59t-55 18h-1575q-37 0 -54 -16t-22 -54l-71 -506h-143l74 527q25 173 198 173h1583q83 0 119.5 -34
t34.5 -108q20 74 66 108t129 34z" />
    <glyph glyph-name="N" unicode="N" horiz-adv-x="3411" 
d="M322 576q-37 0 -54 -16t-22 -54l-71 -506h-143l74 527q25 173 198 173h2915q89 0 125.5 -43t24.5 -130l-74 -527h-142l71 506q5 38 -8 54t-50 16h-2844z" />
    <glyph glyph-name="O" unicode="O" horiz-adv-x="3406" 
d="M210 0q-89 0 -125 42.5t-24 130.5l50 354q12 88 60 130.5t137 42.5h2926q89 0 125 -42.5t24 -130.5l-50 -354q-24 -173 -197 -173h-2926zM3194 193l44 313q5 38 -8 54t-50 16h-2853q-36 0 -54 -16t-23 -54l-44 -312q-5 -38 8 -54t50 -16h2852q37 0 55 15.5t23 53.5z" />
    <glyph glyph-name="P" unicode="P" horiz-adv-x="3374" 
d="M39 0l98 700h3080q89 0 124.5 -42t23.5 -130l-10 -69q-12 -87 -59.5 -129t-136.5 -42h-2938l-40 -288h-142zM3220 508q5 37 -8.5 52.5t-48.5 15.5h-2902l-23 -164h2902q35 0 53 15.5t22 51.5z" />
    <glyph glyph-name="Q" unicode="Q" horiz-adv-x="3406" 
d="M210 0q-89 0 -125 42.5t-24 130.5l50 354q12 88 60 130.5t137 42.5h2926q89 0 125 -42.5t24 -130.5l-50 -354q-24 -173 -197 -173h-1402l-23 -167h-124l23 167h-1400zM3194 193l44 313q5 38 -8 54t-50 16h-2853q-36 0 -54 -16t-23 -54l-44 -312q-5 -38 8 -54t50 -16h1364
l24 171h124l-24 -171h1364q37 0 55 15.5t23 53.5z" />
    <glyph glyph-name="R" unicode="R" horiz-adv-x="3410" 
d="M3375 532l-4 -31q-10 -72 -48.5 -109t-123.5 -43q84 -9 110.5 -51.5t15.5 -121.5l-24 -176h-142l29 211q6 41 -8.5 59t-54.5 18h-2904l-40 -288h-142l98 700h3094q87 0 121.5 -40.5t22.5 -127.5zM3149 412q37 0 54.5 15.5t22.5 52.5l4 28q5 36 -8 52t-48 16h-2913
l-23 -164h2911z" />
    <glyph glyph-name="S" unicode="S" horiz-adv-x="3362" 
d="M244 288q-88 0 -124 42.5t-24 129.5l10 68q13 88 60.5 130t135.5 42h3030l-17 -124h-2994q-36 0 -53.5 -15.5t-21.5 -52.5l-5 -29q-5 -36 8 -51.5t48 -15.5h2852q88 0 124.5 -42.5t23.5 -129.5l-9 -68q-12 -87 -60 -129.5t-136 -42.5h-3080l17 124h3045q35 0 52.5 15.5
t22.5 52.5l4 29q5 36 -8 51.5t-48 15.5h-2853z" />
    <glyph glyph-name="T" unicode="T" horiz-adv-x="3334" 
d="M3359 700l-18 -124h-1564l-81 -576h-142l80 576h-1564l18 124h3271z" />
    <glyph glyph-name="U" unicode="U" horiz-adv-x="3411" 
d="M218 0q-89 0 -125.5 43t-24.5 130l74 527h143l-71 -506q-6 -38 7 -54t50 -16h2843q37 0 55 16t23 54l71 506h142l-74 -527q-25 -173 -198 -173h-2915z" />
    <glyph glyph-name="V" unicode="V" horiz-adv-x="3398" 
d="M39 0l98 700h142l-81 -576h2851q112 0 128 113l65 463h142l-65 -460q-16 -118 -86 -179t-188 -61h-3006z" />
    <glyph glyph-name="W" unicode="W" horiz-adv-x="4010" 
d="M3732 0h-1582q-83 0 -120 34t-36 108q-19 -74 -64.5 -108t-128.5 -34h-1583q-89 0 -125.5 43t-24.5 130l74 527h143l-71 -506q-6 -38 7 -54t50 -16h1575q40 0 60 18t25 59l71 499h142l-70 -499q-6 -41 9 -59t55 -18h1575q37 0 54.5 16t23.5 54l71 506h142l-74 -527
q-25 -173 -198 -173z" />
    <glyph glyph-name="X" unicode="X" horiz-adv-x="3408" 
d="M99 524l25 176h142l-29 -211q-6 -41 8.5 -59t53.5 -18h2840q40 0 60 18t26 59l29 211h142l-25 -176q-11 -82 -51.5 -124.5t-132.5 -49.5q90 -7 118.5 -50t16.5 -124l-24 -176h-142l29 211q6 41 -8.5 59t-54.5 18h-2840q-39 0 -59 -18t-26 -59l-29 -211h-142l24 176
q11 81 52 124t132 50q-90 7 -118 49.5t-17 124.5z" />
    <glyph glyph-name="Y" unicode="Y" horiz-adv-x="3378" 
d="M3250 700h142l-34 -239q-12 -88 -60 -130.5t-137 -42.5h-1391l-40 -288h-142l40 288h-1392q-89 0 -125 42.5t-24 130.5l34 239h142l-31 -219q-5 -38 8 -53.5t50 -15.5h2852q37 0 54.5 15.5t22.5 53.5z" />
    <glyph glyph-name="Z" unicode="Z" horiz-adv-x="3366" 
d="M3088 412q51 0 75 20t31 72l10 72h-3080l18 124h3222l-29 -202q-30 -210 -239 -210h-2807q-52 0 -75.5 -20t-30.5 -72l-10 -72h3110l-17 -124h-3252l28 202q28 210 238 210h2808z" />
    <glyph glyph-name="bracketleft" unicode="[" horiz-adv-x="408" 
d="M137 700h274l-15 -106h-153l-80 -568h153l-15 -106h-274z" />
    <glyph glyph-name="backslash" unicode="\" horiz-adv-x="1074" 
d="M216 700l831 -700h-178l-832 700h179z" />
    <glyph glyph-name="bracketright" unicode="]" horiz-adv-x="408" 
d="M108 700h275l-110 -780h-275l15 106h154l79 568h-153z" />
    <glyph glyph-name="asciicircum" unicode="^" 
d="M1696 720l1626 -323v-119l-1626 323l-1626 -323v119z" />
    <glyph glyph-name="underscore" unicode="_" horiz-adv-x="1500" 
d="M1458 -38v-84h-1500v84h1500z" />
    <glyph glyph-name="grave" unicode="`" horiz-adv-x="750" 
d="M505 657l-337 113h247l265 -113h-175z" />
    <glyph glyph-name="a" unicode="a" horiz-adv-x="3032" 
d="M2853 357l8 58q9 69 -58 69h-2688l16 119h2723q88 0 123.5 -41.5t22.5 -129.5l-36 -261q-13 -88 -59.5 -129.5t-134.5 -41.5h-2601q-78 0 -109.5 37.5t-20.5 116.5l7 48q11 80 53 117.5t120 37.5h2634zM2837 246h-2596q-28 0 -41.5 -12t-17.5 -40l-3 -22q-4 -28 6 -40.5
t38 -12.5h2528q68 0 78 69z" />
    <glyph glyph-name="b" unicode="b" horiz-adv-x="3026" 
d="M61 171l84 599h137l-35 -249q19 42 55 62t98 20h2450q87 0 122 -41.5t23 -129.5l-36 -261q-13 -88 -59.5 -129.5t-133.5 -41.5h-2558q-89 0 -124 41.5t-23 129.5zM232 415l-32 -227q-10 -69 59 -69h2487q68 0 78 69l32 227q5 36 -9 52.5t-50 16.5h-2487q-68 0 -78 -69z
" />
    <glyph glyph-name="c" unicode="c" horiz-adv-x="2954" 
d="M201 0q-88 0 -123 41.5t-23 129.5l36 261q12 88 59 129.5t135 41.5h2672l-16 -119h-2637q-68 0 -78 -69l-32 -227q-10 -69 59 -69h2637l-17 -119h-2672z" />
    <glyph glyph-name="d" unicode="d" horiz-adv-x="3026" 
d="M3036 770l-84 -599q-12 -87 -59 -129t-135 -42h-2558q-87 0 -122 41.5t-23 129.5l36 261q12 88 58.5 129.5t134.5 41.5h2450q62 0 92.5 -20t37.5 -62l36 249h136zM2818 188l32 227q10 69 -59 69h-2487q-36 0 -54.5 -16.5t-23.5 -52.5l-32 -227q-5 -36 9 -52.5t50 -16.5
h2486q69 0 79 69z" />
    <glyph glyph-name="e" unicode="e" horiz-adv-x="3032" 
d="M3011 400q-11 -79 -53 -116.5t-120 -37.5h-2634l-8 -58q-10 -69 59 -69h2686l-16 -119h-2722q-94 0 -126 45.5t-18 141.5l34 245q12 87 59 129t135 42h2601q78 0 109.5 -37.5t20.5 -116.5zM2834 484h-2527q-41 0 -58 -20.5t-24 -69.5l-5 -37h2596q27 0 41.5 12t18.5 40
l2 17q5 32 -4.5 45t-39.5 13z" />
    <glyph glyph-name="f" unicode="f" horiz-adv-x="2932" 
d="M314 484q-44 0 -66.5 -19.5t-29.5 -64.5l-6 -39h2606l-17 -119h-2605l-58 -409h-137l81 573q14 101 68.5 149t155.5 48h2636l-17 -119h-2611z" />
    <glyph glyph-name="g" unicode="g" horiz-adv-x="3026" 
d="M2735 172q36 0 54.5 16.5t23.5 52.5l25 174q9 69 -59 69h-2486q-70 0 -79 -69l-25 -174q-9 -69 60 -69h2486zM2645 53h-2448q-89 0 -124 41.5t-23 129.5l29 208q13 88 59.5 129.5t135.5 41.5h2556q88 0 123.5 -41.5t22.5 -129.5l-53 -379q-16 -114 -76 -167t-174 -53
h-2638l17 119h2624q51 0 77 22t33 75l12 86q-19 -42 -55 -62t-98 -20z" />
    <glyph glyph-name="h" unicode="h" horiz-adv-x="3028" 
d="M2840 415q5 36 -9 52.5t-50 16.5h-2476q-69 0 -79 -69l-57 -415h-137l108 770h137l-36 -249q19 43 55.5 62.5t98.5 19.5h2439q88 0 122.5 -41.5t22.5 -129.5l-60 -432h-137z" />
    <glyph glyph-name="i" unicode="i" horiz-adv-x="455" 
d="M259 119h155l-17 -119h-189q-87 0 -121.5 40.5t-22.5 127.5l61 435h137l-59 -418q-10 -66 56 -66zM311 757l-13 -90h-191l13 90h191z" />
    <glyph glyph-name="j" unicode="j" horiz-adv-x="300" 
d="M-103 -48h82q65 0 74 66l82 585h137l-84 -602q-13 -87 -58.5 -127.5t-132.5 -40.5h-117zM117 667l13 90h191l-13 -90h-191z" />
    <glyph glyph-name="k" unicode="k" horiz-adv-x="3020" 
d="M2841 419l25 184h137l-21 -155q-19 -132 -149 -147q126 -15 107 -146l-21 -155h-137l26 183q7 59 -52 59h-2554l-33 -242h-137l108 770h137l-58 -409h2553q60 0 69 58z" />
    <glyph glyph-name="l" unicode="l" horiz-adv-x="452" 
d="M256 119h154l-16 -119h-189q-88 0 -122 40.5t-22 127.5l84 602h137l-82 -585q-10 -66 56 -66z" />
    <glyph glyph-name="m" unicode="m" horiz-adv-x="3542" 
d="M1795 471q16 71 56.5 101.5t119.5 30.5h1377q87 0 122 -41.5t23 -129.5l-60 -432h-137l58 415q5 36 -9 52.5t-50 16.5h-1369q-61 0 -70 -63l-59 -421h-136l59 421q8 63 -53 63h-1369q-68 0 -78 -69l-58 -415h-137l60 432q13 88 59.5 129.5t133.5 41.5h1377
q79 0 111.5 -30.5t28.5 -101.5z" />
    <glyph glyph-name="n" unicode="n" horiz-adv-x="3022" 
d="M25 0l60 432q13 88 59.5 129.5t133.5 41.5h2550q87 0 122 -41.5t23 -129.5l-60 -432h-137l58 415q5 36 -9 52.5t-50 16.5h-2477q-68 0 -78 -69l-58 -415h-137z" />
    <glyph glyph-name="o" unicode="o" horiz-adv-x="3020" 
d="M2842 603q88 0 123.5 -41.5t22.5 -129.5l-36 -261q-12 -87 -59 -129t-135 -42h-2557q-88 0 -123 41.5t-23 129.5l36 261q12 88 59 129.5t135 41.5h2557zM2739 119q69 0 79 69l32 227q10 69 -59 69h-2487q-68 0 -78 -69l-32 -227q-10 -69 59 -69h2486z" />
    <glyph glyph-name="p" unicode="p" horiz-adv-x="3026" 
d="M1 -167l84 599q13 88 59.5 129.5t135.5 41.5h2558q87 0 122 -41.5t23 -129.5l-36 -261q-13 -88 -59.5 -129.5t-133.5 -41.5h-2450q-62 0 -92.5 20t-37.5 62l-36 -249h-137zM220 415l-32 -227q-10 -69 59 -69h2487q68 0 78 69l32 227q5 36 -9 52.5t-50 16.5h-2487
q-68 0 -78 -69z" />
    <glyph glyph-name="q" unicode="q" horiz-adv-x="3026" 
d="M2989 432l-84 -599h-136l35 249q-20 -43 -56 -62.5t-97 -19.5h-2450q-88 0 -123 41.5t-22 129.5l36 261q12 87 59 129t134 42h2558q88 0 123.5 -42t22.5 -129zM2819 188l32 227q10 69 -59 69h-2487q-36 0 -54.5 -16.5t-23.5 -52.5l-32 -227q-5 -36 9 -52.5t50 -16.5h2486
q69 0 79 69z" />
    <glyph glyph-name="r" unicode="r" horiz-adv-x="2817" 
d="M2827 603l-17 -119h-2512q-68 0 -78 -69l-58 -415h-137l60 432q13 88 59.5 129.5t135.5 41.5h2547z" />
    <glyph glyph-name="s" unicode="s" horiz-adv-x="3004" 
d="M2951 484h-2683q-53 0 -60 -52l-3 -23q-4 -28 6.5 -40t38.5 -12h2562q77 0 108.5 -37.5t20.5 -117.5l-7 -48q-11 -79 -53 -116.5t-119 -37.5h-2751l16 119h2713q52 0 60 52l3 22q4 28 -6.5 40.5t-38.5 12.5h-2562q-77 0 -108.5 37.5t-20.5 116.5l7 49q11 79 53 116.5
t119 37.5h2721z" />
    <glyph glyph-name="t" unicode="t" horiz-adv-x="2856" 
d="M208 0q-89 0 -124 41.5t-23 129.5l84 599h137l-24 -167h2601l-17 -119h-2600l-42 -296q-10 -69 59 -69h2532l-16 -119h-2567z" />
    <glyph glyph-name="u" unicode="u" horiz-adv-x="3022" 
d="M2737 119q68 0 78 69l58 415h137l-60 -432q-13 -88 -59.5 -129.5t-133.5 -41.5h-2550q-88 0 -123 41.5t-22 129.5l60 432h137l-58 -415q-10 -69 59 -69h2477z" />
    <glyph glyph-name="v" unicode="v" horiz-adv-x="3015" 
d="M2993 603l-54 -383q-16 -114 -76 -167t-174 -53h-2657l84 603h137l-68 -484h2507q51 0 77 22t33 75l54 387h137z" />
    <glyph glyph-name="w" unicode="w" horiz-adv-x="3542" 
d="M1760 132q-16 -71 -56.5 -101.5t-119.5 -30.5h-1377q-88 0 -123 41.5t-22 129.5l60 432h137l-58 -415q-10 -69 59 -69h1369q61 0 70 63l59 421h136l-59 -421q-8 -63 53 -63h1369q36 0 54.5 16.5t23.5 52.5l58 415h137l-60 -432q-13 -88 -59.5 -129.5t-133.5 -41.5h-1377
q-79 0 -111.5 30.5t-28.5 101.5z" />
    <glyph glyph-name="x" unicode="x" horiz-adv-x="3032" 
d="M2853 419l25 184h137l-21 -155q-19 -132 -149 -147q126 -15 107 -146l-21 -155h-137l26 183q7 59 -52 59h-2521q-59 0 -68 -59l-25 -183h-137l21 155q9 65 44.5 101.5t104.5 44.5q-126 15 -107 147l21 155h137l-25 -184q-9 -58 51 -58h2520q60 0 69 58z" />
    <glyph glyph-name="y" unicode="y" horiz-adv-x="3028" 
d="M2669 -167h-2628l17 119h2614q51 0 77 22t33 75l12 86q-19 -42 -55 -62t-98 -20h-2438q-89 0 -124 41.5t-23 129.5l53 379h137l-51 -362q-9 -69 60 -69h2476q36 0 54.5 16.5t23.5 52.5l51 362h137l-77 -550q-16 -114 -76.5 -167t-174.5 -53z" />
    <glyph glyph-name="z" unicode="z" horiz-adv-x="3007" 
d="M254 246q-75 0 -85 -75l-8 -52h2767l-16 -119h-2903l22 160q28 197 225 197h2495q39 0 59.5 17.5t25.5 56.5l8 53h-2742l16 119h2878l-22 -160q-28 -197 -225 -197h-2495z" />
    <glyph glyph-name="braceleft" unicode="{" horiz-adv-x="432" 
d="M282 518l-11 -83q-9 -63 -37.5 -93t-85.5 -32q56 -2 76 -32t11 -93l-11 -83q-5 -38 7.5 -53.5t49.5 -15.5h65l-16 -113h-92q-88 0 -122.5 41t-22.5 128l16 119q4 25 -4.5 35.5t-32.5 10.5h-42l16 112h42q24 0 35 10.5t15 35.5l17 119q12 87 58.5 128t134.5 41h92
l-16 -113h-64q-38 0 -55.5 -15.5t-22.5 -53.5z" />
    <glyph glyph-name="bar" unicode="|" horiz-adv-x="328" 
d="M102 -167v907h141v-907h-141z" />
    <glyph glyph-name="braceright" unicode="}" horiz-adv-x="432" 
d="M199 435l12 83q5 38 -8 53.5t-50 15.5h-64l15 113h92q88 0 123 -41t23 -128l-17 -119q-4 -25 4.5 -35.5t33.5 -10.5h42l-15 -112h-42q-25 0 -36.5 -10.5t-15.5 -35.5l-16 -119q-12 -87 -59 -128t-135 -41h-92l16 113h65q37 0 54.5 15.5t22.5 53.5l12 83q8 62 37 92.5
t85 32.5q-56 2 -76 32.5t-11 92.5z" />
    <glyph glyph-name="asciitilde" unicode="~" 
d="M70 262v121q303 98 719 98q245 0 576.5 -35l663 -70t577.5 -35q413 0 716 97v-121q-305 -98 -723 -98q-197 0 -450 21.5t-458.5 48t-458 48t-448.5 21.5q-411 0 -714 -96z" />
    <glyph glyph-name="uni00A0" unicode="&#xa0;" horiz-adv-x="777" 
 />
    <glyph glyph-name="exclamdown" unicode="&#xa1;" horiz-adv-x="343" 
d="M109 526l15 104h187l-14 -104h-188zM48 -70l31 223q22 154 56 278h109q-1 -129 -23 -278l-31 -223h-142z" />
    <glyph glyph-name="cent" unicode="&#xa2;" 
d="M1638 -40l13 90h-1437q-89 0 -123.5 41.5t-22.5 129.5l36 258q12 88 58.5 129.5t135.5 41.5h1437l13 90h124l-13 -90h1533l-17 -119h-1533l-51 -362h1533l-16 -119h-1533l-13 -90h-124zM266 169h1401l51 362h-1402q-68 0 -78 -69l-31 -224q-10 -69 59 -69z" />
    <glyph glyph-name="sterling" unicode="&#xa3;" 
d="M380 124h2929l-17 -124h-3282l17 124h211l22 164h-210l17 124h210l17 116q13 88 60.5 130t136.5 42h2799l-18 -124h-2763q-36 0 -53.5 -15t-21.5 -52l-14 -97h2829l-17 -124h-2829z" />
    <glyph glyph-name="currency" unicode="&#xa4;" 
d="M146 480q0 88 40.5 129.5t129.5 41.5h1319v89h123v-89h1318q88 0 129 -41.5t41 -129.5v-70h110v-120h-110v-71q0 -88 -41 -129.5t-129 -41.5h-1318v-88h-123v88h-1319q-89 0 -129.5 41.5t-40.5 129.5v71h-110v120h110v70zM3041 528h-2690q-69 0 -69 -68v-221
q0 -68 69 -68h2690q68 0 68 68v221q0 68 -68 68z" />
    <glyph glyph-name="yen" unicode="&#xa5;" 
d="M3243 700h142l-20 -142q-13 -88 -60.5 -130.5t-136.5 -42.5h-1392l-18 -123h1535l-17 -124h-1536l-18 -138h-143l19 138h-1535l18 124h1535l17 123h-1392q-89 0 -125 42.5t-24 130.5l20 142h142l-17 -122q-5 -37 8 -53t50 -16h2853q37 0 54.5 15.5t23.5 53.5z" />
    <glyph glyph-name="brokenbar" unicode="&#xa6;" horiz-adv-x="328" 
d="M102 -167v394h141v-394h-141zM102 347v393h141v-393h-141z" />
    <glyph glyph-name="section" unicode="&#xa7;" horiz-adv-x="3289" 
d="M271 464h2846q71 0 100 -33.5t19 -104.5l-5 -37q-8 -57 -36.5 -88.5t-88.5 -37.5q59 -6 78.5 -37t11.5 -88l-4 -22q-10 -76 -51.5 -112t-117.5 -36h-2993l16 119h2953q28 0 42 12.5t18 40.5l2 15q4 27 -6 38t-38 11h-2846q-71 0 -100 33.5t-19 104.5l5 37q8 57 36 88
t88 37q-58 6 -77 37.5t-11 88.5l3 22q10 76 51.5 112t117.5 36h2994l-17 -119h-2953q-28 0 -42 -12t-18 -40l-2 -15q-4 -27 6.5 -38.5t37.5 -11.5zM3051 345h-2799q-26 0 -39 -11t-16 -37l-4 -24q-4 -27 6 -38.5t37 -11.5h2799q27 0 40 11t16 37l4 24q4 26 -6 38t-38 12z
" />
    <glyph glyph-name="dieresis" unicode="&#xa8;" horiz-adv-x="750" 
d="M282 757l-13 -90h-166l13 90h166zM762 757l-13 -90h-166l13 90h166z" />
    <glyph glyph-name="copyright" unicode="&#xa9;" horiz-adv-x="3286" 
d="M336 188q-44 0 -64.5 21t-20.5 65v151q0 44 20.5 65t64.5 21h2696v-56h-2689q-27 0 -27 -27v-157q0 -27 27 -27h2689v-56h-2696zM242 0q-86 0 -126.5 41t-40.5 125v368q0 84 40.5 125t126.5 41h2818q86 0 126.5 -41t40.5 -125v-368q0 -84 -40.5 -125t-126.5 -41h-2818z
M246 60h2810q53 0 78 25.5t25 77.5v374q0 52 -25 77.5t-78 25.5h-2810q-103 0 -103 -103v-374q0 -103 103 -103z" />
    <glyph glyph-name="ordfeminine" unicode="&#xaa;" horiz-adv-x="2416" 
d="M2274 485l9 67q4 24 -4.5 33.5t-31.5 9.5h-2128l15 105h2165q64 0 90 -30.5t17 -94.5l-40 -284q-9 -64 -43.5 -94.5t-98.5 -30.5h-2063q-64 0 -90 30.5t-18 94.5l10 70q9 63 44 93.5t99 30.5h2068zM180 338l-4 -23q-4 -24 4.5 -34t31.5 -10h1989q23 0 34 9.5t15 33.5
l10 67h-2032q-23 0 -34 -10t-14 -33zM1177 124l78 -124h-190z" />
    <glyph glyph-name="guillemotleft" unicode="&#xab;" horiz-adv-x="826" 
d="M432 51h-159l-238 249l308 249h169l-318 -254zM752 51h-159l-238 249l308 249h169l-318 -254z" />
    <glyph glyph-name="logicalnot" unicode="&#xac;" 
d="M70 291v118h3252v-409h-118v291h-3134z" />
    <glyph glyph-name="uni00AD" unicode="&#xad;" horiz-adv-x="1140" 
d="M1102 388l-17 -122h-1040l17 122h1040z" />
    <glyph glyph-name="registered" unicode="&#xae;" horiz-adv-x="3286" 
d="M242 0q-86 0 -126.5 41t-40.5 125v368q0 84 40.5 125t126.5 41h2818q86 0 126.5 -41t40.5 -125v-368q0 -84 -40.5 -125t-126.5 -41h-2818zM246 60h2810q53 0 78 25.5t25 77.5v374q0 52 -25 77.5t-78 25.5h-2810q-103 0 -103 -103v-374q0 -103 103 -103zM3043 414
q0 -60 -63 -65q63 -5 63 -68v-93h-65v110q0 24 -22 24h-2629v-134h-65v323h2716q65 0 65 -66v-31zM2978 435q0 20 -21 20h-2630v-78h2630q21 0 21 21v37z" />
    <glyph glyph-name="macron" unicode="&#xaf;" horiz-adv-x="750" 
d="M739 676h-623l11 77h623z" />
    <glyph glyph-name="degree" unicode="&#xb0;" horiz-adv-x="1383" 
d="M69 545q0 155 164 155h963q165 0 165 -155v-81q0 -155 -165 -155h-963q-164 0 -164 155v81zM264 586q-36 0 -50 -14.5t-14 -49.5v-35q0 -36 14 -50t50 -14h902q36 0 50 14t14 50v35q0 35 -14 49.5t-50 14.5h-902z" />
    <glyph glyph-name="plusminus" unicode="&#xb1;" 
d="M70 291v118h1566v291h118v-291h1568v-118h-1568v-173h1568v-118h-3252v118h1566v173h-1566z" />
    <glyph glyph-name="twosuperior" unicode="&#xb2;" horiz-adv-x="1818" 
d="M1684 530l3 20q3 25 -5.5 35t-32.5 10h-1538l15 105h1577q64 0 90 -30.5t17 -94.5l-10 -70q-9 -63 -43.5 -93.5t-97.5 -30.5h-1413q-37 0 -52.5 -14t-20.5 -50l-7 -46h1601l-15 -105h-1720l23 168q22 151 173 151h1406q24 0 35 10t15 35z" />
    <glyph glyph-name="threesuperior" unicode="&#xb3;" horiz-adv-x="1818" 
d="M1806 578l-5 -37q-7 -48 -34 -75t-89 -33q60 -6 80 -33t13 -75l-5 -37q-10 -63 -43.5 -92.5t-96.5 -29.5h-1598l14 105h1557q25 0 36 10t15 35l3 20q4 25 -5 35t-32 10h-1465l15 104h1464q23 0 34.5 10.5t15.5 34.5l3 20q3 25 -5.5 35t-32.5 10h-1557l15 105h1598
q64 0 89 -29.5t16 -92.5z" />
    <glyph glyph-name="acute" unicode="&#xb4;" horiz-adv-x="750" 
d="M722 770l-376 -113h-178l295 113h259z" />
    <glyph glyph-name="uni00B5" unicode="&#xb5;" horiz-adv-x="3028" 
d="M254 119h2475q37 0 55.5 16.5t23.5 52.5l58 415h137l-60 -432q-13 -88 -59 -129.5t-134 -41.5h-2439q-62 0 -93 20t-38 62l-35 -249h-137l108 770h137l-58 -415q-5 -36 9 -52.5t50 -16.5z" />
    <glyph glyph-name="paragraph" unicode="&#xb6;" horiz-adv-x="2834" 
d="M2822 700l-117 -832h-137l100 713h-184l-100 -713h-137l57 407h-2074q-92 0 -130 44.5t-25 135.5l10 65q13 91 63 135.5t142 44.5h2532z" />
    <glyph glyph-name="periodcentered" unicode="&#xb7;" horiz-adv-x="342" 
d="M278 409l-17 -118h-184l16 118h185z" />
    <glyph glyph-name="cedilla" unicode="&#xb8;" horiz-adv-x="750" 
d="M302 -45h210q62 0 88 -11.5t26 -39.5q0 -48 -40 -73.5t-137 -25.5h-452l12 83h452q31 0 44 6.5t13 22.5q0 15 -38 15h-220l43 68h26z" />
    <glyph glyph-name="onesuperior" unicode="&#xb9;" horiz-adv-x="1818" 
d="M95 166l15 105h870l46 324h-872l15 105h991l-60 -429h650l-14 -105h-1641z" />
    <glyph glyph-name="ordmasculine" unicode="&#xba;" horiz-adv-x="2425" 
d="M62 291l41 284q8 64 42.5 94.5t99.5 30.5h2064q64 0 90 -30.5t17 -94.5l-40 -284q-9 -64 -43.5 -94.5t-98.5 -30.5h-2064q-65 0 -90.5 30.5t-17.5 94.5zM2212 271q23 0 33.5 9.5t14.5 33.5l33 238q4 24 -4.5 33.5t-31.5 9.5h-1990q-44 0 -49 -43l-33 -238
q-4 -24 4.5 -33.5t31.5 -9.5h1991zM1186 124l78 -124h-190z" />
    <glyph glyph-name="guillemotright" unicode="&#xbb;" horiz-adv-x="826" 
d="M163 51h-163l312 249l-242 249h163l239 -249zM483 51h-164l312 249l-242 249h164l239 -249z" />
    <glyph glyph-name="onequarter" unicode="&#xbc;" horiz-adv-x="4229" 
d="M1599 0l890 700h155l-890 -700h-155zM95 166l15 105h870l46 324h-872l15 105h991l-60 -429h650l-14 -105h-1641zM4039 319l30 215h119l-75 -534h-119l30 215h-1453q-125 0 -107 124l27 195h120l-25 -171q-6 -44 38 -44h1415z" />
    <glyph glyph-name="onehalf" unicode="&#xbd;" horiz-adv-x="4229" 
d="M1599 0l890 700h155l-890 -700h-155zM95 166l15 105h870l46 324h-872l15 105h991l-60 -429h650l-14 -105h-1641zM4071 364l3 20q3 25 -5.5 35t-32.5 10h-1538l15 105h1577q64 0 90 -30.5t17 -94.5l-10 -70q-9 -63 -43.5 -93.5t-97.5 -30.5h-1413q-37 0 -52.5 -14
t-20.5 -50l-7 -46h1601l-15 -105h-1720l23 168q22 151 173 151h1406q24 0 35 10t15 35z" />
    <glyph glyph-name="threequarters" unicode="&#xbe;" horiz-adv-x="4229" 
d="M1599 0l890 700h155l-890 -700h-155zM4039 319l30 215h119l-75 -534h-119l30 215h-1453q-125 0 -107 124l27 195h120l-25 -171q-6 -44 38 -44h1415zM1806 578l-5 -37q-7 -48 -34 -75t-89 -33q60 -6 80 -33t13 -75l-5 -37q-10 -63 -43.5 -92.5t-96.5 -29.5h-1598l14 105
h1557q25 0 36 10t15 35l3 20q4 25 -5 35t-32 10h-1465l15 104h1464q23 0 34.5 10.5t15.5 34.5l3 20q3 25 -5.5 35t-32.5 10h-1557l15 105h1598q64 0 89 -29.5t16 -92.5z" />
    <glyph glyph-name="questiondown" unicode="&#xbf;" horiz-adv-x="3344" 
d="M174 151l-4 -29q-5 -37 8 -52.5t48 -15.5h3064l-17 -124h-3100q-89 0 -124.5 42t-23.5 130l9 68q12 87 60 129.5t136 42.5h1452q32 0 46.5 12t18.5 45l6 39h142l-9 -64q-11 -81 -53.5 -118.5t-124.5 -37.5h-1459q-35 0 -52.5 -15.5t-22.5 -51.5zM1743 526l14 104h187
l-14 -104h-187z" />
    <glyph glyph-name="Agrave" unicode="&#xc0;" horiz-adv-x="3411" 
d="M3295 0h-142l39 288h-2977l-40 -288h-143l74 527q25 173 198 173h2915q89 0 125.5 -43t24.5 -130zM3165 576h-2843q-37 0 -54 -16t-22 -54l-14 -94h2978l14 94q5 38 -8.5 54t-50.5 16zM1769 759l-337 113h247l265 -113h-175z" />
    <glyph glyph-name="Aacute" unicode="&#xc1;" horiz-adv-x="3411" 
d="M3295 0h-142l39 288h-2977l-40 -288h-143l74 527q25 173 198 173h2915q89 0 125.5 -43t24.5 -130zM3165 576h-2843q-37 0 -54 -16t-22 -54l-14 -94h2978l14 94q5 38 -8.5 54t-50.5 16zM2146 872l-376 -113h-178l295 113h259z" />
    <glyph glyph-name="Acircumflex" unicode="&#xc2;" horiz-adv-x="3411" 
d="M3295 0h-142l39 288h-2977l-40 -288h-143l74 527q25 173 198 173h2915q89 0 125.5 -43t24.5 -130zM3165 576h-2843q-37 0 -54 -16t-22 -54l-14 -94h2978l14 94q5 38 -8.5 54t-50.5 16zM1779 821l-216 -62h-157l263 113h232l231 -113h-153z" />
    <glyph glyph-name="Atilde" unicode="&#xc3;" horiz-adv-x="3411" 
d="M3295 0h-142l39 288h-2977l-40 -288h-143l74 527q25 173 198 173h2915q89 0 125.5 -43t24.5 -130zM3165 576h-2843q-37 0 -54 -16t-22 -54l-14 -94h2978l14 94q5 38 -8.5 54t-50.5 16zM1458 749l12 87q90 53 176 53q54 0 146 -29t141 -29q80 0 162 54l-12 -87
q-90 -53 -177 -53q-54 0 -146 29t-141 29q-79 0 -161 -54z" />
    <glyph glyph-name="Adieresis" unicode="&#xc4;" horiz-adv-x="3411" 
d="M3295 0h-142l39 288h-2977l-40 -288h-143l74 527q25 173 198 173h2915q89 0 125.5 -43t24.5 -130zM3165 576h-2843q-37 0 -54 -16t-22 -54l-14 -94h2978l14 94q5 38 -8.5 54t-50.5 16zM1627 859l-13 -90h-166l13 90h166zM2107 859l-13 -90h-166l13 90h166z" />
    <glyph glyph-name="Aring" unicode="&#xc5;" horiz-adv-x="3411" 
d="M3295 0h-142l39 288h-2977l-40 -288h-143l74 527q25 173 198 173h2915q89 0 125.5 -43t24.5 -130zM3165 576h-2843q-37 0 -54 -16t-22 -54l-14 -94h2978l14 94q5 38 -8.5 54t-50.5 16zM1924 856h-284q-35 0 -35 -31q0 -20 28 -20h284q35 0 35 31q0 20 -28 20zM1657 909
h265q88 0 88 -61q0 -96 -110 -96h-265q-88 0 -88 61q0 96 110 96z" />
    <glyph glyph-name="AE" unicode="&#xc6;" horiz-adv-x="5227" 
d="M2523 0l40 288h-2348l-40 -288h-143l74 527q25 173 198 173h4926l-18 -124h-2467l-23 -164h2342l-17 -124h-2342l-23 -164h2467l-17 -124h-2609zM322 576q-37 0 -54 -16t-22 -54l-14 -94h2348l23 164h-2281z" />
    <glyph glyph-name="Ccedilla" unicode="&#xc7;" horiz-adv-x="3309" 
d="M1342 -112h452q31 0 44 6.5t13 22.5q0 15 -38 15h-220l43 68h-1426q-89 0 -125 42.5t-24 130.5l50 354q12 88 60 130.5t137 42.5h3016l-18 -124h-2979q-37 0 -54.5 -16t-22.5 -54l-44 -312q-5 -38 8 -54t50 -16h2979l-17 -124h-1564l-27 -45h210q62 0 88 -11.5t26 -39.5
q0 -48 -40 -73.5t-137 -25.5h-452z" />
    <glyph glyph-name="Egrave" unicode="&#xc8;" horiz-adv-x="3376" 
d="M39 0l98 700h3242l-18 -124h-3100l-23 -164h2975l-17 -124h-2975l-23 -164h3100l-17 -124h-3242zM1786 759l-337 113h247l265 -113h-175z" />
    <glyph glyph-name="Eacute" unicode="&#xc9;" horiz-adv-x="3376" 
d="M39 0l98 700h3242l-18 -124h-3100l-23 -164h2975l-17 -124h-2975l-23 -164h3100l-17 -124h-3242zM2157 872l-376 -113h-178l295 113h259z" />
    <glyph glyph-name="Ecircumflex" unicode="&#xca;" horiz-adv-x="3376" 
d="M39 0l98 700h3242l-18 -124h-3100l-23 -164h2975l-17 -124h-2975l-23 -164h3100l-17 -124h-3242zM1796 821l-216 -62h-157l263 113h232l231 -113h-153z" />
    <glyph glyph-name="Edieresis" unicode="&#xcb;" horiz-adv-x="3376" 
d="M39 0l98 700h3242l-18 -124h-3100l-23 -164h2975l-17 -124h-2975l-23 -164h3100l-17 -124h-3242zM1644 859l-13 -90h-166l13 90h166zM2124 859l-13 -90h-166l13 90h166z" />
    <glyph glyph-name="Igrave" unicode="&#xcc;" horiz-adv-x="304" 
d="M39 0l98 700h142l-98 -700h-142zM237 759l-337 113h247l265 -113h-175z" />
    <glyph glyph-name="Iacute" unicode="&#xcd;" horiz-adv-x="304" 
d="M39 0l98 700h142l-98 -700h-142zM574 872l-376 -113h-178l295 113h259z" />
    <glyph glyph-name="Icircumflex" unicode="&#xce;" horiz-adv-x="304" 
d="M39 0l98 700h142l-98 -700h-142zM227 821l-216 -62h-157l263 113h232l231 -113h-153z" />
    <glyph glyph-name="Idieresis" unicode="&#xcf;" horiz-adv-x="304" 
d="M477 859l-13 -90h-166l13 90h166zM150 859l-13 -90h-166l13 90h166zM39 0l98 700h142l-98 -700h-142z" />
    <glyph glyph-name="Eth" unicode="&#xd0;" horiz-adv-x="3404" 
d="M3158 700q118 0 170.5 -61t36.5 -179l-31 -220q-16 -118 -86 -179t-188 -61h-3021l40 288h-74l17 124h75l40 288h3021zM3064 124q112 0 128 113l31 226q16 113 -96 113h-2866l-23 -164h449l-17 -124h-449l-23 -164h2866z" />
    <glyph glyph-name="Ntilde" unicode="&#xd1;" horiz-adv-x="3411" 
d="M322 576q-37 0 -54 -16t-22 -54l-71 -506h-143l74 527q25 173 198 173h2915q89 0 125.5 -43t24.5 -130l-74 -527h-142l71 506q5 38 -8 54t-50 16h-2844zM1458 749l12 87q90 53 176 53q54 0 146 -29t141 -29q80 0 162 54l-12 -87q-90 -53 -177 -53q-54 0 -146 29t-141 29
q-79 0 -161 -54z" />
    <glyph glyph-name="Ograve" unicode="&#xd2;" horiz-adv-x="3406" 
d="M210 0q-89 0 -125 42.5t-24 130.5l50 354q12 88 60 130.5t137 42.5h2926q89 0 125 -42.5t24 -130.5l-50 -354q-24 -173 -197 -173h-2926zM3194 193l44 313q5 38 -8 54t-50 16h-2853q-36 0 -54 -16t-23 -54l-44 -312q-5 -38 8 -54t50 -16h2852q37 0 55 15.5t23 53.5z
M1778 759l-337 113h247l265 -113h-175z" />
    <glyph glyph-name="Oacute" unicode="&#xd3;" horiz-adv-x="3406" 
d="M210 0q-89 0 -125 42.5t-24 130.5l50 354q12 88 60 130.5t137 42.5h2926q89 0 125 -42.5t24 -130.5l-50 -354q-24 -173 -197 -173h-2926zM3194 193l44 313q5 38 -8 54t-50 16h-2853q-36 0 -54 -16t-23 -54l-44 -312q-5 -38 8 -54t50 -16h2852q37 0 55 15.5t23 53.5z
M2156 872l-376 -113h-178l295 113h259z" />
    <glyph glyph-name="Ocircumflex" unicode="&#xd4;" horiz-adv-x="3406" 
d="M210 0q-89 0 -125 42.5t-24 130.5l50 354q12 88 60 130.5t137 42.5h2926q89 0 125 -42.5t24 -130.5l-50 -354q-24 -173 -197 -173h-2926zM3194 193l44 313q5 38 -8 54t-50 16h-2853q-36 0 -54 -16t-23 -54l-44 -312q-5 -38 8 -54t50 -16h2852q37 0 55 15.5t23 53.5z
M1788 821l-216 -62h-157l263 113h232l231 -113h-153z" />
    <glyph glyph-name="Otilde" unicode="&#xd5;" horiz-adv-x="3406" 
d="M210 0q-89 0 -125 42.5t-24 130.5l50 354q12 88 60 130.5t137 42.5h2926q89 0 125 -42.5t24 -130.5l-50 -354q-24 -173 -197 -173h-2926zM3194 193l44 313q5 38 -8 54t-50 16h-2853q-36 0 -54 -16t-23 -54l-44 -312q-5 -38 8 -54t50 -16h2852q37 0 55 15.5t23 53.5z
M1467 749l12 87q90 53 176 53q55 0 147 -29t140 -29q80 0 162 54l-12 -87q-90 -53 -177 -53q-54 0 -146 29t-141 29q-79 0 -161 -54z" />
    <glyph glyph-name="Odieresis" unicode="&#xd6;" horiz-adv-x="3406" 
d="M210 0q-89 0 -125 42.5t-24 130.5l50 354q12 88 60 130.5t137 42.5h2926q89 0 125 -42.5t24 -130.5l-50 -354q-24 -173 -197 -173h-2926zM3194 193l44 313q5 38 -8 54t-50 16h-2853q-36 0 -54 -16t-23 -54l-44 -312q-5 -38 8 -54t50 -16h2852q37 0 55 15.5t23 53.5z
M1636 859l-13 -90h-166l13 90h166zM2116 859l-13 -90h-166l13 90h166z" />
    <glyph glyph-name="multiply" unicode="&#xd7;" 
d="M1849 291l271 -291h-156l-269 291l-268 -291h-156l271 291h-1472v118h1472l-271 291h156l268 -291l269 291h156l-271 -291h1473v-118h-1473z" />
    <glyph glyph-name="Oslash" unicode="&#xd8;" horiz-adv-x="3406" 
d="M210 0q-89 0 -125 42.5t-24 130.5l50 354q12 88 60 130.5t137 42.5h2926q89 0 125 -42.5t24 -130.5l-50 -354q-24 -173 -197 -173h-2926zM3194 193l44 313q5 38 -8 54t-50 16h-18l-2344 -452h2298q37 0 55 15.5t23 53.5zM281 124l2344 452h-2298q-36 0 -54 -16t-23 -54
l-44 -312q-5 -38 8 -54t50 -16h17z" />
    <glyph glyph-name="Ugrave" unicode="&#xd9;" horiz-adv-x="3411" 
d="M218 0q-89 0 -125.5 43t-24.5 130l74 527h143l-71 -506q-6 -38 7 -54t50 -16h2843q37 0 55 16t23 54l71 506h142l-74 -527q-25 -173 -198 -173h-2915zM1781 759l-337 113h247l265 -113h-175z" />
    <glyph glyph-name="Uacute" unicode="&#xda;" horiz-adv-x="3411" 
d="M218 0q-89 0 -125.5 43t-24.5 130l74 527h143l-71 -506q-6 -38 7 -54t50 -16h2843q37 0 55 16t23 54l71 506h142l-74 -527q-25 -173 -198 -173h-2915zM2149 872l-376 -113h-178l295 113h259z" />
    <glyph glyph-name="Ucircumflex" unicode="&#xdb;" horiz-adv-x="3411" 
d="M218 0q-89 0 -125.5 43t-24.5 130l74 527h143l-71 -506q-6 -38 7 -54t50 -16h2843q37 0 55 16t23 54l71 506h142l-74 -527q-25 -173 -198 -173h-2915zM1791 821l-216 -62h-157l263 113h232l231 -113h-153z" />
    <glyph glyph-name="Udieresis" unicode="&#xdc;" horiz-adv-x="3411" 
d="M218 0q-89 0 -125.5 43t-24.5 130l74 527h143l-71 -506q-6 -38 7 -54t50 -16h2843q37 0 55 16t23 54l71 506h142l-74 -527q-25 -173 -198 -173h-2915zM1639 859l-13 -90h-166l13 90h166zM2119 859l-13 -90h-166l13 90h166z" />
    <glyph glyph-name="Yacute" unicode="&#xdd;" horiz-adv-x="3378" 
d="M3250 700h142l-34 -239q-12 -88 -60 -130.5t-137 -42.5h-1391l-40 -288h-142l40 288h-1392q-89 0 -125 42.5t-24 130.5l34 239h142l-31 -219q-5 -38 8 -53.5t50 -15.5h2852q37 0 54.5 15.5t22.5 53.5zM2139 872l-376 -113h-178l295 113h259z" />
    <glyph glyph-name="Thorn" unicode="&#xde;" horiz-adv-x="3374" 
d="M39 0l98 700h142l-14 -97h2938q89 0 124.5 -42t23.5 -130l-9 -69q-12 -87 -60 -129t-137 -42h-2938l-26 -191h-142zM3206 411q5 37 -8 52.5t-48 15.5h-2902l-23 -164h2902q35 0 52.5 15.5t22.5 51.5z" />
    <glyph glyph-name="germandbls" unicode="&#xdf;" horiz-adv-x="3052" 
d="M2804 246h-2237l16 111h2237q28 0 41 11t17 39l3 25q4 28 -6.5 40t-38.5 12h-2518q-46 0 -70 -20.5t-31 -66.5l-79 -564h-137l81 577q14 99 68 146t153 47h2597q75 0 104 -33t19 -105l-5 -38q-8 -57 -36.5 -88.5t-88.5 -37.5q58 -6 77.5 -37t11.5 -88l-5 -38
q-10 -73 -49.5 -105.5t-111.5 -32.5h-2283l16 119h2235q28 0 42 12t19 41l3 25q4 26 -6 37.5t-38 11.5z" />
    <glyph glyph-name="agrave" unicode="&#xe0;" horiz-adv-x="3032" 
d="M2853 357l8 58q9 69 -58 69h-2688l16 119h2723q88 0 123.5 -41.5t22.5 -129.5l-36 -261q-13 -88 -59.5 -129.5t-134.5 -41.5h-2601q-78 0 -109.5 37.5t-20.5 116.5l7 48q11 80 53 117.5t120 37.5h2634zM2837 246h-2596q-28 0 -41.5 -12t-17.5 -40l-3 -22q-4 -28 6 -40.5
t38 -12.5h2528q68 0 78 69zM1567 657l-337 113h247l265 -113h-175z" />
    <glyph glyph-name="aacute" unicode="&#xe1;" horiz-adv-x="3032" 
d="M2853 357l8 58q9 69 -58 69h-2688l16 119h2723q88 0 123.5 -41.5t22.5 -129.5l-36 -261q-13 -88 -59.5 -129.5t-134.5 -41.5h-2601q-78 0 -109.5 37.5t-20.5 116.5l7 48q11 80 53 117.5t120 37.5h2634zM2837 246h-2596q-28 0 -41.5 -12t-17.5 -40l-3 -22q-4 -28 6 -40.5
t38 -12.5h2528q68 0 78 69zM1934 770l-376 -113h-178l295 113h259z" />
    <glyph glyph-name="acircumflex" unicode="&#xe2;" horiz-adv-x="3032" 
d="M2853 357l8 58q9 69 -58 69h-2688l16 119h2723q88 0 123.5 -41.5t22.5 -129.5l-36 -261q-13 -88 -59.5 -129.5t-134.5 -41.5h-2601q-78 0 -109.5 37.5t-20.5 116.5l7 48q11 80 53 117.5t120 37.5h2634zM2837 246h-2596q-28 0 -41.5 -12t-17.5 -40l-3 -22q-4 -28 6 -40.5
t38 -12.5h2528q68 0 78 69zM1577 719l-216 -62h-157l263 113h232l231 -113h-153z" />
    <glyph glyph-name="atilde" unicode="&#xe3;" horiz-adv-x="3032" 
d="M2853 357l8 58q9 69 -58 69h-2688l16 119h2723q88 0 123.5 -41.5t22.5 -129.5l-36 -261q-13 -88 -59.5 -129.5t-134.5 -41.5h-2601q-78 0 -109.5 37.5t-20.5 116.5l7 48q11 80 53 117.5t120 37.5h2634zM2837 246h-2596q-28 0 -41.5 -12t-17.5 -40l-3 -22q-4 -28 6 -40.5
t38 -12.5h2528q68 0 78 69zM1256 647l12 87q90 53 176 53q55 0 147 -29t140 -29q80 0 162 54l-12 -87q-90 -53 -177 -53q-54 0 -146 29t-141 29q-79 0 -161 -54z" />
    <glyph glyph-name="adieresis" unicode="&#xe4;" horiz-adv-x="3032" 
d="M2853 357l8 58q9 69 -58 69h-2688l16 119h2723q88 0 123.5 -41.5t22.5 -129.5l-36 -261q-13 -88 -59.5 -129.5t-134.5 -41.5h-2601q-78 0 -109.5 37.5t-20.5 116.5l7 48q11 80 53 117.5t120 37.5h2634zM2837 246h-2596q-28 0 -41.5 -12t-17.5 -40l-3 -22q-4 -28 6 -40.5
t38 -12.5h2528q68 0 78 69zM1424 757l-13 -90h-166l13 90h166zM1904 757l-13 -90h-166l13 90h166z" />
    <glyph glyph-name="aring" unicode="&#xe5;" horiz-adv-x="3032" 
d="M2853 357l8 58q9 69 -58 69h-2688l16 119h2723q88 0 123.5 -41.5t22.5 -129.5l-36 -261q-13 -88 -59.5 -129.5t-134.5 -41.5h-2601q-78 0 -109.5 37.5t-20.5 116.5l7 48q11 80 53 117.5t120 37.5h2634zM2837 246h-2596q-28 0 -41.5 -12t-17.5 -40l-3 -22q-4 -28 6 -40.5
t38 -12.5h2528q68 0 78 69zM1722 754h-284q-35 0 -35 -31q0 -20 28 -20h284q35 0 35 31q0 20 -28 20zM1455 807h265q88 0 88 -61q0 -96 -110 -96h-265q-88 0 -88 61q0 96 110 96z" />
    <glyph glyph-name="ae" unicode="&#xe6;" horiz-adv-x="4527" 
d="M4367 409l3 23q4 28 -6 40t-38 12h-1896q-62 0 -70 -63l-9 -64h1957q28 0 41.5 12t17.5 40zM182 194l-3 -22q-4 -28 6 -40.5t38 -12.5h1896q61 0 70 63l9 64h-1957q-28 0 -41.5 -12t-17.5 -40zM2075 0h-1906q-78 0 -109.5 37.5t-20.5 116.5l7 48q11 80 53 117.5t120 37.5
h1995l9 64q8 63 -52 63h-2057l16 119h2029q78 0 110.5 -30.5t28.5 -101.5q16 71 56.5 101.5t119.5 30.5h1906q78 0 109.5 -37.5t20.5 -116.5l-7 -49q-11 -79 -53.5 -116.5t-119.5 -37.5h-1995l-9 -64q-9 -63 52 -63h2057l-16 -119h-2029q-79 0 -111.5 30.5t-28.5 101.5
q-16 -71 -56.5 -101.5t-118.5 -30.5z" />
    <glyph glyph-name="ccedilla" unicode="&#xe7;" horiz-adv-x="2954" 
d="M1162 -112h452q31 0 44 6.5t13 22.5q0 15 -38 15h-220l43 68h-1255q-88 0 -123 41.5t-23 129.5l36 261q12 88 59 129.5t135 41.5h2672l-16 -119h-2637q-68 0 -78 -69l-32 -227q-10 -69 59 -69h2637l-17 -119h-1391l-27 -45h210q62 0 88 -11.5t26 -39.5q0 -48 -40 -73.5
t-137 -25.5h-452z" />
    <glyph glyph-name="egrave" unicode="&#xe8;" horiz-adv-x="3032" 
d="M3011 400q-11 -79 -53 -116.5t-120 -37.5h-2634l-8 -58q-10 -69 59 -69h2686l-16 -119h-2722q-94 0 -126 45.5t-18 141.5l34 245q12 87 59 129t135 42h2601q78 0 109.5 -37.5t20.5 -116.5zM2834 484h-2527q-41 0 -58 -20.5t-24 -69.5l-5 -37h2596q27 0 41.5 12t18.5 40
l2 17q5 32 -4.5 45t-39.5 13zM1607 657l-337 113h247l265 -113h-175z" />
    <glyph glyph-name="eacute" unicode="&#xe9;" horiz-adv-x="3032" 
d="M3011 400q-11 -79 -53 -116.5t-120 -37.5h-2634l-8 -58q-10 -69 59 -69h2686l-16 -119h-2722q-94 0 -126 45.5t-18 141.5l34 245q12 87 59 129t135 42h2601q78 0 109.5 -37.5t20.5 -116.5zM2834 484h-2527q-41 0 -58 -20.5t-24 -69.5l-5 -37h2596q27 0 41.5 12t18.5 40
l2 17q5 32 -4.5 45t-39.5 13zM1984 770l-376 -113h-178l295 113h259z" />
    <glyph glyph-name="ecircumflex" unicode="&#xea;" horiz-adv-x="3032" 
d="M3011 400q-11 -79 -53 -116.5t-120 -37.5h-2634l-8 -58q-10 -69 59 -69h2686l-16 -119h-2722q-94 0 -126 45.5t-18 141.5l34 245q12 87 59 129t135 42h2601q78 0 109.5 -37.5t20.5 -116.5zM2834 484h-2527q-41 0 -58 -20.5t-24 -69.5l-5 -37h2596q27 0 41.5 12t18.5 40
l2 17q5 32 -4.5 45t-39.5 13zM1617 719l-216 -62h-157l263 113h232l231 -113h-153z" />
    <glyph glyph-name="edieresis" unicode="&#xeb;" horiz-adv-x="3032" 
d="M3011 400q-11 -79 -53 -116.5t-120 -37.5h-2634l-8 -58q-10 -69 59 -69h2686l-16 -119h-2722q-94 0 -126 45.5t-18 141.5l34 245q12 87 59 129t135 42h2601q78 0 109.5 -37.5t20.5 -116.5zM2834 484h-2527q-41 0 -58 -20.5t-24 -69.5l-5 -37h2596q27 0 41.5 12t18.5 40
l2 17q5 32 -4.5 45t-39.5 13zM1465 757l-13 -90h-166l13 90h166zM1945 757l-13 -90h-166l13 90h166z" />
    <glyph glyph-name="igrave" unicode="&#xec;" horiz-adv-x="455" 
d="M269 657l-337 113h247l265 -113h-175zM247 119h155l-17 -119h-189q-87 0 -121.5 40.5t-22.5 127.5l61 435h137l-59 -418q-10 -66 56 -66z" />
    <glyph glyph-name="iacute" unicode="&#xed;" horiz-adv-x="455" 
d="M546 770l-376 -113h-178l295 113h259zM247 119h155l-17 -119h-189q-87 0 -121.5 40.5t-22.5 127.5l61 435h137l-59 -418q-10 -66 56 -66z" />
    <glyph glyph-name="icircumflex" unicode="&#xee;" horiz-adv-x="455" 
d="M247 119h155l-17 -119h-189q-87 0 -121.5 40.5t-22.5 127.5l61 435h137l-59 -418q-10 -66 56 -66zM199 719l-216 -62h-157l263 113h232l231 -113h-153z" />
    <glyph glyph-name="idieresis" unicode="&#xef;" horiz-adv-x="455" 
d="M449 757l-12 -90h-166l12 90h166zM122 757l-12 -90h-166l13 90h165zM247 119h155l-17 -119h-189q-87 0 -121.5 40.5t-22.5 127.5l61 435h137l-59 -418q-10 -66 56 -66z" />
    <glyph glyph-name="eth" unicode="&#xf0;" horiz-adv-x="3026" 
d="M280 555h2447q62 0 92.5 -20t38.5 -62l11 82q7 52 -12.5 74t-70.5 22h-1187l-8 -58h-109l8 58h-1328l17 120h1329l7 49h108l-7 -49h1201q114 0 159 -53.5t29 -167.5l-53 -378q-12 -88 -59 -129.5t-135 -41.5h-2556q-89 0 -124 41.5t-23 129.5l30 211q12 88 59 130t136 42
zM2784 435h-2487q-68 0 -78 -68l-25 -178q-10 -69 59 -69h2486q69 0 79 69l25 178q5 35 -9 51.5t-50 16.5z" />
    <glyph glyph-name="ntilde" unicode="&#xf1;" horiz-adv-x="3022" 
d="M25 0l60 432q13 88 59.5 129.5t133.5 41.5h2550q87 0 122 -41.5t23 -129.5l-60 -432h-137l58 415q5 36 -9 52.5t-50 16.5h-2477q-68 0 -78 -69l-58 -415h-137zM1250 647l12 87q90 53 176 53q54 0 146 -29t141 -29q80 0 162 54l-12 -87q-90 -53 -177 -53q-54 0 -146 29
t-141 29q-79 0 -161 -54z" />
    <glyph glyph-name="ograve" unicode="&#xf2;" horiz-adv-x="3020" 
d="M2842 603q88 0 123.5 -41.5t22.5 -129.5l-36 -261q-12 -87 -59 -129t-135 -42h-2557q-88 0 -123 41.5t-23 129.5l36 261q12 88 59 129.5t135 41.5h2557zM2739 119q69 0 79 69l32 227q10 69 -59 69h-2487q-68 0 -78 -69l-32 -227q-10 -69 59 -69h2486zM1572 657l-337 113
h247l265 -113h-175z" />
    <glyph glyph-name="oacute" unicode="&#xf3;" horiz-adv-x="3020" 
d="M2842 603q88 0 123.5 -41.5t22.5 -129.5l-36 -261q-12 -87 -59 -129t-135 -42h-2557q-88 0 -123 41.5t-23 129.5l36 261q12 88 59 129.5t135 41.5h2557zM2739 119q69 0 79 69l32 227q10 69 -59 69h-2487q-68 0 -78 -69l-32 -227q-10 -69 59 -69h2486zM1949 770l-376 -113
h-178l295 113h259z" />
    <glyph glyph-name="ocircumflex" unicode="&#xf4;" horiz-adv-x="3020" 
d="M2842 603q88 0 123.5 -41.5t22.5 -129.5l-36 -261q-12 -87 -59 -129t-135 -42h-2557q-88 0 -123 41.5t-23 129.5l36 261q12 88 59 129.5t135 41.5h2557zM2739 119q69 0 79 69l32 227q10 69 -59 69h-2487q-68 0 -78 -69l-32 -227q-10 -69 59 -69h2486zM1582 719l-216 -62
h-157l263 113h232l231 -113h-153z" />
    <glyph glyph-name="otilde" unicode="&#xf5;" horiz-adv-x="3020" 
d="M2842 603q88 0 123.5 -41.5t22.5 -129.5l-36 -261q-12 -87 -59 -129t-135 -42h-2557q-88 0 -123 41.5t-23 129.5l36 261q12 88 59 129.5t135 41.5h2557zM2739 119q69 0 79 69l32 227q10 69 -59 69h-2487q-68 0 -78 -69l-32 -227q-10 -69 59 -69h2486zM1261 647l12 87
q90 53 176 53q55 0 146.5 -29t140.5 -29q80 0 162 54l-12 -87q-90 -53 -177 -53q-54 0 -146 29t-141 29q-79 0 -161 -54z" />
    <glyph glyph-name="odieresis" unicode="&#xf6;" horiz-adv-x="3020" 
d="M2842 603q88 0 123.5 -41.5t22.5 -129.5l-36 -261q-12 -87 -59 -129t-135 -42h-2557q-88 0 -123 41.5t-23 129.5l36 261q12 88 59 129.5t135 41.5h2557zM2739 119q69 0 79 69l32 227q10 69 -59 69h-2487q-68 0 -78 -69l-32 -227q-10 -69 59 -69h2486zM1429 757l-13 -90
h-166l13 90h166zM1909 757l-13 -90h-166l13 90h166z" />
    <glyph glyph-name="divide" unicode="&#xf7;" 
d="M1788 140v-117h-185v117h185zM1788 677v-117h-185v117h185zM3322 291h-3252v118h3252v-118z" />
    <glyph glyph-name="oslash" unicode="&#xf8;" horiz-adv-x="3020" 
d="M2842 603q88 0 123.5 -41.5t22.5 -129.5l-36 -261q-12 -87 -59 -129t-135 -42h-2557q-88 0 -123 41.5t-23 129.5l36 261q12 88 59 129.5t135 41.5h2557zM2739 119q69 0 79 69l32 227q10 68 -58 69l-2016 -365h1963zM250 119l2017 365h-1963q-68 0 -78 -69l-32 -227
q-10 -68 56 -69z" />
    <glyph glyph-name="ugrave" unicode="&#xf9;" horiz-adv-x="3022" 
d="M2737 119q68 0 78 69l58 415h137l-60 -432q-13 -88 -59.5 -129.5t-133.5 -41.5h-2550q-88 0 -123 41.5t-22 129.5l60 432h137l-58 -415q-10 -69 59 -69h2477zM1577 657l-337 113h247l265 -113h-175z" />
    <glyph glyph-name="uacute" unicode="&#xfa;" horiz-adv-x="3022" 
d="M2737 119q68 0 78 69l58 415h137l-60 -432q-13 -88 -59.5 -129.5t-133.5 -41.5h-2550q-88 0 -123 41.5t-22 129.5l60 432h137l-58 -415q-10 -69 59 -69h2477zM1951 770l-376 -113h-178l295 113h259z" />
    <glyph glyph-name="ucircumflex" unicode="&#xfb;" horiz-adv-x="3022" 
d="M2737 119q68 0 78 69l58 415h137l-60 -432q-13 -88 -59.5 -129.5t-133.5 -41.5h-2550q-88 0 -123 41.5t-22 129.5l60 432h137l-58 -415q-10 -69 59 -69h2477zM1584 719l-216 -62h-157l263 113h232l231 -113h-153z" />
    <glyph glyph-name="udieresis" unicode="&#xfc;" horiz-adv-x="3022" 
d="M2737 119q68 0 78 69l58 415h137l-60 -432q-13 -88 -59.5 -129.5t-133.5 -41.5h-2550q-88 0 -123 41.5t-22 129.5l60 432h137l-58 -415q-10 -69 59 -69h2477zM1431 757l-13 -90h-166l13 90h166zM1911 757l-13 -90h-166l13 90h166z" />
    <glyph glyph-name="yacute" unicode="&#xfd;" horiz-adv-x="3028" 
d="M2669 -167h-2628l17 119h2614q51 0 77 22t33 75l12 86q-19 -42 -55 -62t-98 -20h-2438q-89 0 -124 41.5t-23 129.5l53 379h137l-51 -362q-9 -69 60 -69h2476q36 0 54.5 16.5t23.5 52.5l51 362h137l-77 -550q-16 -114 -76.5 -167t-174.5 -53zM1941 770l-376 -113h-178
l295 113h259z" />
    <glyph glyph-name="thorn" unicode="&#xfe;" horiz-adv-x="3032" 
d="M277 770l-24 -167h2591q87 0 122 -41.5t23 -129.5l-36 -261q-12 -87 -59 -129t-134 -42h-2449q-62 0 -93 20t-38 62l-35 -249h-137l132 937h137zM236 484l-41 -296q-5 -36 9 -52.5t50 -16.5h2486q36 0 54.5 16.5t23.5 52.5l32 227q5 36 -9 52.5t-50 16.5h-2555z" />
    <glyph glyph-name="ydieresis" unicode="&#xff;" horiz-adv-x="3028" 
d="M2669 -167h-2628l17 119h2614q51 0 77 22t33 75l12 86q-19 -42 -55 -62t-98 -20h-2438q-89 0 -124 41.5t-23 129.5l53 379h137l-51 -362q-9 -69 60 -69h2476q36 0 54.5 16.5t23.5 52.5l51 362h137l-77 -550q-16 -114 -76.5 -167t-174.5 -53zM1421 757l-13 -90h-166l13 90
h166zM1901 757l-13 -90h-166l13 90h166z" />
    <glyph glyph-name="Amacron" unicode="&#x100;" horiz-adv-x="3411" 
d="M3295 0h-142l39 288h-2977l-40 -288h-143l74 527q25 173 198 173h2915q89 0 125.5 -43t24.5 -130zM3165 576h-2843q-37 0 -54 -16t-22 -54l-14 -94h2978l14 94q5 38 -8.5 54t-50.5 16zM2083 778h-623l11 77h623z" />
    <glyph glyph-name="amacron" unicode="&#x101;" horiz-adv-x="3032" 
d="M2853 357l8 58q9 69 -58 69h-2688l16 119h2723q88 0 123.5 -41.5t22.5 -129.5l-36 -261q-13 -88 -59.5 -129.5t-134.5 -41.5h-2601q-78 0 -109.5 37.5t-20.5 116.5l7 48q11 80 53 117.5t120 37.5h2634zM2837 246h-2596q-28 0 -41.5 -12t-17.5 -40l-3 -22q-4 -28 6 -40.5
t38 -12.5h2528q68 0 78 69zM1881 676h-623l11 77h623z" />
    <glyph glyph-name="Abreve" unicode="&#x102;" horiz-adv-x="3411" 
d="M3295 0h-142l39 288h-2977l-40 -288h-143l74 527q25 173 198 173h2915q89 0 125.5 -43t24.5 -130zM3165 576h-2843q-37 0 -54 -16t-22 -54l-14 -94h2978l14 94q5 38 -8.5 54t-50.5 16zM1467 814l8 81q113 -62 301 -62q185 0 317 62l-8 -81q-124 -67 -318 -67t-300 67z
" />
    <glyph glyph-name="abreve" unicode="&#x103;" horiz-adv-x="3032" 
d="M2853 357l8 58q9 69 -58 69h-2688l16 119h2723q88 0 123.5 -41.5t22.5 -129.5l-36 -261q-13 -88 -59.5 -129.5t-134.5 -41.5h-2601q-78 0 -109.5 37.5t-20.5 116.5l7 48q11 80 53 117.5t120 37.5h2634zM2837 246h-2596q-28 0 -41.5 -12t-17.5 -40l-3 -22q-4 -28 6 -40.5
t38 -12.5h2528q68 0 78 69zM1265 712l8 81q113 -62 301 -62q185 0 317 62l-8 -81q-124 -67 -318 -67t-300 67z" />
    <glyph glyph-name="Aogonek" unicode="&#x104;" horiz-adv-x="3411" 
d="M3165 576h-2843q-37 0 -54 -16t-22 -54l-14 -94h2978l14 94q5 38 -8.5 54t-50.5 16zM3260 -195h-496q-64 0 -91.5 11t-27.5 41q0 23 5 37t25 26.5t52 18.5t94.5 10.5t143 6t206.5 1.5h34l6 43h-58l39 288h-2977l-40 -288h-143l74 527q25 173 198 173h2915q89 0 125.5 -43
t24.5 -130l-74 -527h-57l-10 -67h-40q-196 0 -293 -4t-120 -10t-23 -18q0 -13 32 -13h488z" />
    <glyph glyph-name="aogonek" unicode="&#x105;" horiz-adv-x="3032" 
d="M2905 -195h-496q-64 0 -91.5 11t-27.5 41q0 23 5 37t25 26.5t52 18.5t94.5 10.5t143 6t206.5 1.5h34l7 56q-35 -13 -87 -13h-2601q-78 0 -109.5 37.5t-20.5 116.5l7 48q11 80 53 117.5t120 37.5h2634l8 58q9 69 -58 69h-2688l16 119h2723q88 0 123.5 -41.5t22.5 -129.5
l-36 -261q-15 -105 -79 -144l-12 -94h-40q-196 0 -293 -4t-120 -10t-23 -18q0 -13 32 -13h488zM2837 246h-2596q-28 0 -41.5 -12t-17.5 -40l-3 -22q-4 -28 6 -40.5t38 -12.5h2528q69 0 78 69z" />
    <glyph glyph-name="Cacute" unicode="&#x106;" horiz-adv-x="3309" 
d="M210 0q-89 0 -125 42.5t-24 130.5l50 354q12 88 60 130.5t137 42.5h3016l-18 -124h-2979q-37 0 -54.5 -16t-22.5 -54l-44 -312q-5 -38 8 -54t50 -16h2979l-17 -124h-3016zM2155 872l-376 -113h-178l295 113h259z" />
    <glyph glyph-name="cacute" unicode="&#x107;" horiz-adv-x="2954" 
d="M201 0q-88 0 -123 41.5t-23 129.5l36 261q12 88 59 129.5t135 41.5h2672l-16 -119h-2637q-68 0 -78 -69l-32 -227q-10 -69 59 -69h2637l-17 -119h-2672zM1966 770l-376 -113h-178l295 113h259z" />
    <glyph glyph-name="Ccircumflex" unicode="&#x108;" horiz-adv-x="3309" 
d="M210 0q-89 0 -125 42.5t-24 130.5l50 354q12 88 60 130.5t137 42.5h3016l-18 -124h-2979q-37 0 -54.5 -16t-22.5 -54l-44 -312q-5 -38 8 -54t50 -16h2979l-17 -124h-3016zM1791 821l-216 -62h-157l263 113h232l231 -113h-153z" />
    <glyph glyph-name="ccircumflex" unicode="&#x109;" horiz-adv-x="2954" 
d="M201 0q-88 0 -123 41.5t-23 129.5l36 261q12 88 59 129.5t135 41.5h2672l-16 -119h-2637q-68 0 -78 -69l-32 -227q-10 -69 59 -69h2637l-17 -119h-2672zM1599 719l-216 -62h-157l263 113h232l231 -113h-153z" />
    <glyph glyph-name="Cdotaccent" unicode="&#x10a;" horiz-adv-x="3309" 
d="M210 0q-89 0 -125 42.5t-24 130.5l50 354q12 88 60 130.5t137 42.5h3016l-18 -124h-2979q-37 0 -54.5 -16t-22.5 -54l-44 -312q-5 -38 8 -54t50 -16h2979l-17 -124h-3016zM1878 859l-13 -90h-166l13 90h166z" />
    <glyph glyph-name="cdotaccent" unicode="&#x10b;" horiz-adv-x="2954" 
d="M201 0q-88 0 -123 41.5t-23 129.5l36 261q12 88 59 129.5t135 41.5h2672l-16 -119h-2637q-68 0 -78 -69l-32 -227q-10 -69 59 -69h2637l-17 -119h-2672zM1686 757l-13 -90h-166l13 90h166z" />
    <glyph glyph-name="Ccaron" unicode="&#x10c;" horiz-adv-x="3309" 
d="M210 0q-89 0 -125 42.5t-24 130.5l50 354q12 88 60 130.5t137 42.5h3016l-18 -124h-2979q-37 0 -54.5 -16t-22.5 -54l-44 -312q-5 -38 8 -54t50 -16h2979l-17 -124h-3016zM1587 872l199 -62l217 62h157l-263 -113h-232l-231 113h153z" />
    <glyph glyph-name="ccaron" unicode="&#x10d;" horiz-adv-x="2954" 
d="M201 0q-88 0 -123 41.5t-23 129.5l36 261q12 88 59 129.5t135 41.5h2672l-16 -119h-2637q-68 0 -78 -69l-32 -227q-10 -69 59 -69h2637l-17 -119h-2672zM1395 770l199 -62l217 62h157l-263 -113h-232l-231 113h153z" />
    <glyph glyph-name="Dcaron" unicode="&#x10e;" horiz-adv-x="3404" 
d="M3158 700q118 0 170.5 -61t36.5 -179l-31 -220q-16 -118 -86 -179t-188 -61h-3021l98 700h3021zM3064 124q112 0 128 113l31 226q16 113 -96 113h-2866l-63 -452h2866zM1557 872l199 -62l217 62h157l-263 -113h-232l-231 113h153z" />
    <glyph glyph-name="dcaron" unicode="&#x10f;" horiz-adv-x="3335" 
d="M3036 770l-84 -599q-12 -87 -59 -129t-135 -42h-2558q-87 0 -122 41.5t-23 129.5l36 261q12 88 58.5 129.5t134.5 41.5h2450q62 0 92.5 -20t37.5 -62l36 249h136zM2818 188l32 227q10 69 -59 69h-2487q-36 0 -54.5 -16.5t-23.5 -52.5l-32 -227q-5 -36 9 -52.5t50 -16.5
h2486q69 0 79 69zM3341 700l-17 -117q-9 -66 -49 -103t-106 -37h-49l9 67h39q53 0 61 55l3 18h-92l16 117h185z" />
    <glyph glyph-name="Dcroat" unicode="&#x110;" horiz-adv-x="3404" 
d="M3158 700q118 0 170.5 -61t36.5 -179l-31 -220q-16 -118 -86 -179t-188 -61h-3021l40 288h-74l17 124h75l40 288h3021zM3064 124q112 0 128 113l31 226q16 113 -96 113h-2866l-23 -164h449l-17 -124h-449l-23 -164h2866z" />
    <glyph glyph-name="dcroat" unicode="&#x111;" horiz-adv-x="3026" 
d="M3036 770l-8 -54h68l-11 -76h-67l-66 -469q-12 -87 -59 -129t-135 -42h-2558q-87 0 -122 41.5t-23 129.5l36 261q12 88 58.5 129.5t134.5 41.5h2450q62 0 92.5 -20t37.5 -62l17 119h-419l11 76h419l8 54h136zM2818 188l32 227q10 69 -59 69h-2487q-36 0 -54.5 -16.5
t-23.5 -52.5l-32 -227q-5 -36 9 -52.5t50 -16.5h2486q69 0 79 69z" />
    <glyph glyph-name="Emacron" unicode="&#x112;" horiz-adv-x="3376" 
d="M39 0l98 700h3242l-18 -124h-3100l-23 -164h2975l-17 -124h-2975l-23 -164h3100l-17 -124h-3242zM2100 778h-623l11 77h623z" />
    <glyph glyph-name="emacron" unicode="&#x113;" horiz-adv-x="3032" 
d="M3011 400q-11 -79 -53 -116.5t-120 -37.5h-2634l-8 -58q-10 -69 59 -69h2686l-16 -119h-2722q-94 0 -126 45.5t-18 141.5l34 245q12 87 59 129t135 42h2601q78 0 109.5 -37.5t20.5 -116.5zM2834 484h-2527q-41 0 -58 -20.5t-24 -69.5l-5 -37h2596q27 0 41.5 12t18.5 40
l2 17q5 32 -4.5 45t-39.5 13zM1921 676h-623l11 77h623z" />
    <glyph glyph-name="Ebreve" unicode="&#x114;" horiz-adv-x="3376" 
d="M39 0l98 700h3242l-18 -124h-3100l-23 -164h2975l-17 -124h-2975l-23 -164h3100l-17 -124h-3242zM1484 814l8 81q113 -62 301 -62q185 0 317 62l-8 -81q-124 -67 -318 -67t-300 67z" />
    <glyph glyph-name="ebreve" unicode="&#x115;" horiz-adv-x="3032" 
d="M3011 400q-11 -79 -53 -116.5t-120 -37.5h-2634l-8 -58q-10 -69 59 -69h2686l-16 -119h-2722q-94 0 -126 45.5t-18 141.5l34 245q12 87 59 129t135 42h2601q78 0 109.5 -37.5t20.5 -116.5zM2834 484h-2527q-41 0 -58 -20.5t-24 -69.5l-5 -37h2596q27 0 41.5 12t18.5 40
l2 17q5 32 -4.5 45t-39.5 13zM1305 712l8 81q113 -62 301 -62q185 0 317 62l-8 -81q-124 -67 -318 -67t-300 67z" />
    <glyph glyph-name="Edotaccent" unicode="&#x116;" horiz-adv-x="3376" 
d="M39 0l98 700h3242l-18 -124h-3100l-23 -164h2975l-17 -124h-2975l-23 -164h3100l-17 -124h-3242zM1883 859l-13 -90h-166l13 90h166z" />
    <glyph glyph-name="edotaccent" unicode="&#x117;" horiz-adv-x="3032" 
d="M3011 400q-11 -79 -53 -116.5t-120 -37.5h-2634l-8 -58q-10 -69 59 -69h2686l-16 -119h-2722q-94 0 -126 45.5t-18 141.5l34 245q12 87 59 129t135 42h2601q78 0 109.5 -37.5t20.5 -116.5zM2834 484h-2527q-41 0 -58 -20.5t-24 -69.5l-5 -37h2596q27 0 41.5 12t18.5 40
l2 17q5 32 -4.5 45t-39.5 13zM1704 757l-13 -90h-166l13 90h166z" />
    <glyph glyph-name="Eogonek" unicode="&#x118;" horiz-adv-x="3376" 
d="M3253 -195h-496q-64 0 -91.5 11t-27.5 39q0 24 5 38t24.5 26.5t51.5 19t94 11t143.5 6t207.5 1.5h34l6 43h-3165l98 700h3242l-18 -124h-3100l-23 -164h2975l-17 -124h-2975l-23 -164h3100l-17 -124h-51l-9 -67h-40q-196 0 -293 -4t-120 -10t-23 -18q0 -13 32 -13h488z
" />
    <glyph glyph-name="eogonek" unicode="&#x119;" horiz-adv-x="3032" 
d="M2834 484h-2527q-41 0 -58 -20.5t-24 -69.5l-5 -37h2596q27 0 41.5 12t18.5 40l2 17q5 32 -4.5 45t-39.5 13zM2897 -195h-496q-64 0 -91.5 11t-27.5 39q0 24 5 38t24.5 26.5t51.5 19t94 11t143.5 6t207.5 1.5h52l6 43h-2663q-94 0 -126 45.5t-18 141.5l34 245
q12 87 59 129t135 42h2601q78 0 109.5 -37.5t20.5 -116.5l-7 -49q-11 -79 -53 -116.5t-120 -37.5h-2634l-8 -58q-10 -69 59 -69h2686l-16 -119h-33l-9 -67h-58q-196 0 -293 -4t-120 -10t-23 -18q0 -13 32 -13h488z" />
    <glyph glyph-name="Ecaron" unicode="&#x11a;" horiz-adv-x="3376" 
d="M39 0l98 700h3242l-18 -124h-3100l-23 -164h2975l-17 -124h-2975l-23 -164h3100l-17 -124h-3242zM1592 872l199 -62l217 62h157l-263 -113h-232l-231 113h153z" />
    <glyph glyph-name="ecaron" unicode="&#x11b;" horiz-adv-x="3032" 
d="M3011 400q-11 -79 -53 -116.5t-120 -37.5h-2634l-8 -58q-10 -69 59 -69h2686l-16 -119h-2722q-94 0 -126 45.5t-18 141.5l34 245q12 87 59 129t135 42h2601q78 0 109.5 -37.5t20.5 -116.5zM2834 484h-2527q-41 0 -58 -20.5t-24 -69.5l-5 -37h2596q27 0 41.5 12t18.5 40
l2 17q5 32 -4.5 45t-39.5 13zM1413 770l199 -62l217 62h157l-263 -113h-232l-231 113h153z" />
    <glyph glyph-name="Gcircumflex" unicode="&#x11c;" horiz-adv-x="3403" 
d="M3122 124q37 0 51.5 13t19.5 50l14 101h-1766l17 124h1908l-35 -252q-12 -86 -53.5 -123t-128.5 -37h-2939q-89 0 -125 42.5t-24 130.5l50 354q12 88 60 130.5t137 42.5h3074l-18 -124h-3037q-37 0 -54.5 -16t-22.5 -54l-44 -312q-5 -38 8 -54t50 -16h2858zM1804 821
l-216 -62h-157l263 113h232l231 -113h-153z" />
    <glyph glyph-name="gcircumflex" unicode="&#x11d;" horiz-adv-x="3026" 
d="M2735 172q36 0 54.5 16.5t23.5 52.5l25 174q9 69 -59 69h-2486q-70 0 -79 -69l-25 -174q-9 -69 60 -69h2486zM2645 53h-2448q-89 0 -124 41.5t-23 129.5l29 208q13 88 59.5 129.5t135.5 41.5h2556q88 0 123.5 -41.5t22.5 -129.5l-53 -379q-16 -114 -76 -167t-174 -53
h-2638l17 119h2624q51 0 77 22t33 75l12 86q-19 -42 -55 -62t-98 -20zM1573 719l-216 -62h-157l263 113h232l231 -113h-153z" />
    <glyph glyph-name="Gbreve" unicode="&#x11e;" horiz-adv-x="3403" 
d="M3122 124q37 0 51.5 13t19.5 50l14 101h-1766l17 124h1908l-35 -252q-12 -86 -53.5 -123t-128.5 -37h-2939q-89 0 -125 42.5t-24 130.5l50 354q12 88 60 130.5t137 42.5h3074l-18 -124h-3037q-37 0 -54.5 -16t-22.5 -54l-44 -312q-5 -38 8 -54t50 -16h2858zM1492 814
l8 81q113 -62 301 -62q185 0 317 62l-8 -81q-124 -67 -318 -67t-300 67z" />
    <glyph glyph-name="gbreve" unicode="&#x11f;" horiz-adv-x="3026" 
d="M2735 172q36 0 54.5 16.5t23.5 52.5l25 174q9 69 -59 69h-2486q-70 0 -79 -69l-25 -174q-9 -69 60 -69h2486zM2645 53h-2448q-89 0 -124 41.5t-23 129.5l29 208q13 88 59.5 129.5t135.5 41.5h2556q88 0 123.5 -41.5t22.5 -129.5l-53 -379q-16 -114 -76 -167t-174 -53
h-2638l17 119h2624q51 0 77 22t33 75l12 86q-19 -42 -55 -62t-98 -20zM1261 712l8 81q113 -62 301 -62q185 0 317 62l-8 -81q-124 -67 -318 -67t-300 67z" />
    <glyph glyph-name="Gdotaccent" unicode="&#x120;" horiz-adv-x="3403" 
d="M3122 124q37 0 51.5 13t19.5 50l14 101h-1766l17 124h1908l-35 -252q-12 -86 -53.5 -123t-128.5 -37h-2939q-89 0 -125 42.5t-24 130.5l50 354q12 88 60 130.5t137 42.5h3074l-18 -124h-3037q-37 0 -54.5 -16t-22.5 -54l-44 -312q-5 -38 8 -54t50 -16h2858zM1891 859
l-13 -90h-166l13 90h166z" />
    <glyph glyph-name="gdotaccent" unicode="&#x121;" horiz-adv-x="3026" 
d="M2735 172q36 0 54.5 16.5t23.5 52.5l25 174q9 69 -59 69h-2486q-70 0 -79 -69l-25 -174q-9 -69 60 -69h2486zM2645 53h-2448q-89 0 -124 41.5t-23 129.5l29 208q13 88 59.5 129.5t135.5 41.5h2556q88 0 123.5 -41.5t22.5 -129.5l-53 -379q-16 -114 -76 -167t-174 -53
h-2638l17 119h2624q51 0 77 22t33 75l12 86q-19 -42 -55 -62t-98 -20zM1660 757l-13 -90h-166l13 90h166z" />
    <glyph glyph-name="uni0122" unicode="&#x122;" horiz-adv-x="3403" 
d="M3122 124q37 0 51.5 13t19.5 50l14 101h-1766l17 124h1908l-35 -252q-12 -86 -53.5 -123t-128.5 -37h-2939q-89 0 -125 42.5t-24 130.5l50 354q12 88 60 130.5t137 42.5h3074l-18 -124h-3037q-37 0 -54.5 -16t-22.5 -54l-44 -312q-5 -38 8 -54t50 -16h2858zM1761 -68
l-11 -73q-8 -56 -41.5 -87.5t-88.5 -31.5h-48l5 41h43q24 0 36 11t15 36l2 14h-91l13 90h166z" />
    <glyph glyph-name="uni0123" unicode="&#x123;" horiz-adv-x="3026" 
d="M1481 667l10 73q8 56 42 87.5t90 31.5h48l-6 -41h-43q-24 0 -35.5 -11t-15.5 -36l-2 -14h91l-13 -90h-166zM2735 172q36 0 54.5 16.5t23.5 52.5l25 174q9 69 -59 69h-2486q-70 0 -79 -69l-25 -174q-9 -69 60 -69h2486zM2645 53h-2448q-89 0 -124 41.5t-23 129.5l29 208
q13 88 59.5 129.5t135.5 41.5h2556q88 0 123.5 -41.5t22.5 -129.5l-53 -379q-16 -114 -76 -167t-174 -53h-2638l17 119h2624q51 0 77 22t33 75l12 86q-19 -42 -55 -62t-98 -20z" />
    <glyph glyph-name="Hcircumflex" unicode="&#x124;" horiz-adv-x="3434" 
d="M3169 0l40 288h-2988l-40 -288h-142l98 700h142l-41 -288h2988l41 288h142l-98 -700h-142zM1790 821l-216 -62h-157l263 113h232l231 -113h-153z" />
    <glyph glyph-name="hcircumflex" unicode="&#x125;" horiz-adv-x="3028" 
d="M2840 415q5 36 -9 52.5t-50 16.5h-2476q-69 0 -79 -69l-57 -415h-137l108 770h137l-36 -249q19 43 55.5 62.5t98.5 19.5h2439q88 0 122.5 -41.5t22.5 -129.5l-60 -432h-137zM1605 719l-216 -62h-157l263 113h232l231 -113h-153z" />
    <glyph glyph-name="Hbar" unicode="&#x126;" horiz-adv-x="3434" 
d="M3169 0l40 288h-2988l-40 -288h-142l70 502h-49l13 92h49l15 106h142l-15 -106h2988l15 106h142l-15 -106h49l-13 -92h-49l-70 -502h-142zM238 412h2988l13 90h-2988z" />
    <glyph glyph-name="hbar" unicode="&#x127;" horiz-adv-x="3028" 
d="M2840 415q5 36 -9 52.5t-50 16.5h-2476q-69 0 -79 -69l-57 -415h-137l90 640h-74l11 76h73l8 54h137l-8 -54h412l-10 -76h-413l-17 -119q19 43 55.5 62.5t98.5 19.5h2439q88 0 122.5 -41.5t22.5 -129.5l-60 -432h-137z" />
    <glyph glyph-name="Itilde" unicode="&#x128;" horiz-adv-x="304" 
d="M39 0l98 700h142l-98 -700h-142zM-94 749l12 87q90 53 176 53q54 0 146 -29t141 -29q80 0 162 54l-12 -87q-90 -53 -177 -53q-54 0 -146 29t-141 29q-79 0 -161 -54z" />
    <glyph glyph-name="itilde" unicode="&#x129;" horiz-adv-x="455" 
d="M-122 647l12 87q90 53 176 53q55 0 146.5 -29t140.5 -29q80 0 162 54l-12 -87q-90 -53 -177 -53q-54 0 -146 29t-141 29q-79 0 -161 -54zM247 119h155l-17 -119h-189q-87 0 -121.5 40.5t-22.5 127.5l61 435h137l-59 -418q-10 -66 56 -66z" />
    <glyph glyph-name="Imacron" unicode="&#x12a;" horiz-adv-x="304" 
d="M463 780h-490l11 73h490zM39 0l98 700h142l-98 -700h-142z" />
    <glyph glyph-name="imacron" unicode="&#x12b;" horiz-adv-x="455" 
d="M437 678h-489l10 73h490zM247 119h155l-17 -119h-189q-87 0 -121.5 40.5t-22.5 127.5l61 435h137l-59 -418q-10 -66 56 -66z" />
    <glyph glyph-name="Ibreve" unicode="&#x12c;" horiz-adv-x="304" 
d="M39 0l98 700h142l-98 -700h-142zM-85 814l8 81q113 -62 301 -62q185 0 317 62l-8 -81q-124 -67 -318 -67t-300 67z" />
    <glyph glyph-name="ibreve" unicode="&#x12d;" horiz-adv-x="455" 
d="M-113 712l8 81q113 -62 301 -62q185 0 317 62l-8 -81q-124 -67 -318 -67t-300 67zM247 119h155l-17 -119h-189q-87 0 -121.5 40.5t-22.5 127.5l61 435h137l-59 -418q-10 -66 56 -66z" />
    <glyph glyph-name="Iogonek" unicode="&#x12e;" horiz-adv-x="304" 
d="M162 -195h-262q-64 0 -91.5 11.5t-27.5 40.5q0 62 71.5 81t271.5 19l6 43h-91l98 700h142l-98 -700h-24l-10 -67h-27q-99 0 -152 -4.5t-66.5 -11.5t-13.5 -18t32 -11h254z" />
    <glyph glyph-name="iogonek" unicode="&#x12f;" horiz-adv-x="455" 
d="M357 -195h-263q-63 0 -90.5 11t-27.5 40q0 63 65 82t244 19l7 43h-96q-87 0 -121.5 40.5t-22.5 127.5l61 435h137l-59 -418q-10 -66 56 -66h155l-17 -119h-33l-10 -67h-60q-85 0 -128.5 -4t-57 -10.5t-13.5 -20.5q0 -10 31 -10h255zM299 757l-13 -90h-191l13 90h191z" />
    <glyph glyph-name="Idotaccent" unicode="&#x130;" horiz-adv-x="304" 
d="M39 0l98 700h142l-98 -700h-142zM314 859l-13 -90h-166l13 90h166z" />
    <glyph glyph-name="dotlessi" unicode="&#x131;" horiz-adv-x="455" 
d="M259 119h155l-17 -119h-189q-87 0 -121.5 40.5t-22.5 127.5l61 435h137l-59 -418q-10 -66 56 -66z" />
    <glyph glyph-name="IJ" unicode="&#x132;" horiz-adv-x="3694" 
d="M39 0l98 700h142l-98 -700h-142zM337 160l26 182h142l-22 -155q-5 -37 6 -50t47 -13h2849q37 0 54.5 16t22.5 54l71 506h142l-74 -527q-12 -88 -60 -130.5t-137 -42.5h-2928q-87 0 -119 37t-20 123z" />
    <glyph glyph-name="Jcircumflex" unicode="&#x134;" horiz-adv-x="3390" 
d="M45 160l26 182h142l-22 -155q-5 -37 6 -50t47 -13h2849q37 0 54.5 16t22.5 54l71 506h142l-74 -527q-12 -88 -60 -130.5t-137 -42.5h-2928q-87 0 -119 37t-20 123zM3131 821l-216 -62h-157l263 113h232l231 -113h-153z" />
    <glyph glyph-name="jcircumflex" unicode="&#x135;" horiz-adv-x="300" 
d="M-103 -48h82q65 0 74 66l82 585h137l-84 -602q-13 -87 -58.5 -127.5t-132.5 -40.5h-117zM223 719l-216 -62h-157l263 113h232l231 -113h-153z" />
    <glyph glyph-name="uni0136" unicode="&#x136;" horiz-adv-x="3411" 
d="M3399 700l-25 -176q-11 -82 -51.5 -124.5t-132.5 -49.5q90 -7 118.5 -50t16.5 -124l-24 -176h-142l29 211q6 41 -8.5 59t-54.5 18h-2904l-40 -288h-142l95 685h143l-39 -273h2904q40 0 60 18t25 59l30 211h142zM1736 -68l-11 -73q-8 -56 -41.5 -87.5t-88.5 -31.5h-48
l5 41h43q24 0 36 11t15 36l2 14h-91l13 90h166z" />
    <glyph glyph-name="uni0137" unicode="&#x137;" horiz-adv-x="3020" 
d="M2841 419l25 184h137l-21 -155q-19 -132 -149 -147q126 -15 107 -146l-21 -155h-137l26 183q7 59 -52 59h-2554l-33 -242h-137l108 770h137l-58 -409h2553q60 0 69 58zM1568 -68l-11 -73q-8 -56 -41.5 -87.5t-88.5 -31.5h-48l5 41h43q24 0 36 11t15 36l2 14h-91l13 90
h166z" />
    <glyph glyph-name="kgreenlandic" unicode="&#x138;" horiz-adv-x="3020" 
d="M2841 419l25 184h137l-21 -155q-19 -132 -149 -147q126 -15 107 -146l-21 -155h-137l26 183q7 59 -52 59h-2554l-33 -242h-137l84 603h137l-34 -242h2553q60 0 69 58z" />
    <glyph glyph-name="Lacute" unicode="&#x139;" horiz-adv-x="3325" 
d="M3268 125l-17 -125h-3212l98 700h142l-81 -575h3070zM635 872l-376 -113h-178l295 113h259z" />
    <glyph glyph-name="lacute" unicode="&#x13a;" horiz-adv-x="452" 
d="M244 119h154l-16 -119h-189q-88 0 -122 40.5t-22 127.5l84 602h137l-82 -585q-10 -66 56 -66zM567 938l-376 -113h-178l295 113h259z" />
    <glyph glyph-name="uni013B" unicode="&#x13b;" horiz-adv-x="3325" 
d="M3268 125l-17 -125h-3212l98 700h142l-81 -575h3070zM1696 -68l-11 -73q-8 -56 -41.5 -87.5t-88.5 -31.5h-48l5 41h43q24 0 36 11t15 36l2 14h-91l13 90h166z" />
    <glyph glyph-name="uni013C" unicode="&#x13c;" horiz-adv-x="452" 
d="M256 119h154l-16 -119h-189q-88 0 -122 40.5t-22 127.5l84 602h137l-82 -585q-10 -66 56 -66zM269 -68l-11 -73q-8 -56 -41.5 -87.5t-88.5 -31.5h-48l5 41h43q24 0 36 11t15 36l2 14h-91l13 90h166z" />
    <glyph glyph-name="Lcaron" unicode="&#x13d;" horiz-adv-x="3325" 
d="M3268 125l-17 -125h-3212l98 700h142l-81 -575h3070zM2980 700l-17 -117q-9 -66 -49 -103t-106 -37h-49l9 67h39q53 0 61 55l3 18h-92l16 117h185z" />
    <glyph glyph-name="lcaron" unicode="&#x13e;" horiz-adv-x="581" 
d="M256 119h154l-16 -119h-189q-88 0 -122 40.5t-22 127.5l84 602h137l-82 -585q-10 -66 56 -66zM587 700l-17 -117q-9 -66 -49 -103t-106 -37h-49l9 67h39q53 0 61 55l3 18h-92l16 117h185z" />
    <glyph glyph-name="Ldot" unicode="&#x13f;" horiz-adv-x="3325" 
d="M3268 125l-17 -125h-3212l98 700h142l-81 -575h3070zM1836 410l-17 -118h-184l16 118h185z" />
    <glyph glyph-name="ldot" unicode="&#x140;" horiz-adv-x="621" 
d="M256 119h154l-16 -119h-189q-88 0 -122 40.5t-22 127.5l84 602h137l-82 -585q-10 -66 56 -66zM569 409l-17 -118h-184l16 118h185z" />
    <glyph glyph-name="Lslash" unicode="&#x141;" horiz-adv-x="3325" 
d="M3268 125l-17 -125h-3212l26 188l-77 -22l17 122l77 22l55 390h142l-49 -347l817 235l-17 -122l-817 -235l-15 -106h3070z" />
    <glyph glyph-name="lslash" unicode="&#x142;" horiz-adv-x="452" 
d="M244 119h154l-16 -119h-189q-88 0 -122 40.5t-22 127.5l16 116l-63 -18l17 122l63 18l51 364h137l-46 -323l252 72l-17 -122l-252 -72l-19 -140q-10 -66 56 -66z" />
    <glyph glyph-name="Nacute" unicode="&#x143;" horiz-adv-x="3411" 
d="M322 576q-37 0 -54 -16t-22 -54l-71 -506h-143l74 527q25 173 198 173h2915q89 0 125.5 -43t24.5 -130l-74 -527h-142l71 506q5 38 -8 54t-50 16h-2844zM2146 872l-376 -113h-178l295 113h259z" />
    <glyph glyph-name="nacute" unicode="&#x144;" horiz-adv-x="3022" 
d="M25 0l60 432q13 88 59.5 129.5t133.5 41.5h2550q87 0 122 -41.5t23 -129.5l-60 -432h-137l58 415q5 36 -9 52.5t-50 16.5h-2477q-68 0 -78 -69l-58 -415h-137zM1929 770l-376 -113h-178l295 113h259z" />
    <glyph glyph-name="uni0145" unicode="&#x145;" horiz-adv-x="3411" 
d="M322 576q-37 0 -54 -16t-22 -54l-71 -506h-143l74 527q25 173 198 173h2915q89 0 125.5 -43t24.5 -130l-74 -527h-142l71 506q5 38 -8 54t-50 16h-2844zM1736 -68l-11 -73q-8 -56 -41.5 -87.5t-88.5 -31.5h-48l5 41h43q24 0 36 11t15 36l2 14h-91l13 90h166z" />
    <glyph glyph-name="uni0146" unicode="&#x146;" horiz-adv-x="3022" 
d="M25 0l60 432q13 88 59.5 129.5t133.5 41.5h2550q87 0 122 -41.5t23 -129.5l-60 -432h-137l58 415q5 36 -9 52.5t-50 16.5h-2477q-68 0 -78 -69l-58 -415h-137zM1542 -68l-11 -73q-8 -56 -41.5 -87.5t-88.5 -31.5h-48l5 41h43q24 0 36 11t15 36l2 14h-91l13 90h166z" />
    <glyph glyph-name="Ncaron" unicode="&#x147;" horiz-adv-x="3411" 
d="M322 576q-37 0 -54 -16t-22 -54l-71 -506h-143l74 527q25 173 198 173h2915q89 0 125.5 -43t24.5 -130l-74 -527h-142l71 506q5 38 -8 54t-50 16h-2844zM1575 872l199 -62l217 62h157l-263 -113h-232l-231 113h153z" />
    <glyph glyph-name="ncaron" unicode="&#x148;" horiz-adv-x="3022" 
d="M25 0l60 432q13 88 59.5 129.5t133.5 41.5h2550q87 0 122 -41.5t23 -129.5l-60 -432h-137l58 415q5 36 -9 52.5t-50 16.5h-2477q-68 0 -78 -69l-58 -415h-137zM1367 770l199 -62l217 62h157l-263 -113h-232l-231 113h153z" />
    <glyph glyph-name="napostrophe" unicode="&#x149;" horiz-adv-x="3282" 
d="M285 0l60 432q13 88 59.5 129.5t133.5 41.5h2550q87 0 122 -41.5t23 -129.5l-60 -432h-137l58 415q5 36 -9 52.5t-50 16.5h-2477q-68 0 -78 -69l-58 -415h-137zM303 700l-17 -117q-9 -66 -49 -103t-106 -37h-49l9 67h39q53 0 61 55l3 18h-92l16 117h185z" />
    <glyph glyph-name="Eng" unicode="&#x14a;" horiz-adv-x="3411" 
d="M322 576q-37 0 -54 -16t-22 -54l-71 -506h-143l74 527q25 173 198 173h2915q89 0 125.5 -43t24.5 -130l-74 -521q-25 -173 -198 -173h-913l17 124h878q37 0 54.5 16t22.5 54l68 479q5 38 -8 54t-50 16h-2844z" />
    <glyph glyph-name="eng" unicode="&#x14b;" horiz-adv-x="3022" 
d="M2621 -48h83q65 0 74 66l56 397q5 36 -9 52.5t-50 16.5h-2477q-68 0 -78 -69l-58 -415h-137l60 432q13 88 59.5 129.5t133.5 41.5h2550q87 0 122 -41.5t23 -129.5l-61 -431q-12 -87 -57.5 -127.5t-133.5 -40.5h-117z" />
    <glyph glyph-name="Omacron" unicode="&#x14c;" horiz-adv-x="3406" 
d="M210 0q-89 0 -125 42.5t-24 130.5l50 354q12 88 60 130.5t137 42.5h2926q89 0 125 -42.5t24 -130.5l-50 -354q-24 -173 -197 -173h-2926zM3194 193l44 313q5 38 -8 54t-50 16h-2853q-36 0 -54 -16t-23 -54l-44 -312q-5 -38 8 -54t50 -16h2852q37 0 55 15.5t23 53.5z
M2092 778h-623l11 77h623z" />
    <glyph glyph-name="omacron" unicode="&#x14d;" horiz-adv-x="3020" 
d="M2842 603q88 0 123.5 -41.5t22.5 -129.5l-36 -261q-12 -87 -59 -129t-135 -42h-2557q-88 0 -123 41.5t-23 129.5l36 261q12 88 59 129.5t135 41.5h2557zM2739 119q69 0 79 69l32 227q10 69 -59 69h-2487q-68 0 -78 -69l-32 -227q-10 -69 59 -69h2486zM1886 676h-623
l11 77h623z" />
    <glyph glyph-name="Obreve" unicode="&#x14e;" horiz-adv-x="3406" 
d="M210 0q-89 0 -125 42.5t-24 130.5l50 354q12 88 60 130.5t137 42.5h2926q89 0 125 -42.5t24 -130.5l-50 -354q-24 -173 -197 -173h-2926zM3194 193l44 313q5 38 -8 54t-50 16h-2853q-36 0 -54 -16t-23 -54l-44 -312q-5 -38 8 -54t50 -16h2852q37 0 55 15.5t23 53.5z
M1476 814l8 81q113 -62 301 -62q185 0 317 62l-8 -81q-124 -67 -318 -67t-300 67z" />
    <glyph glyph-name="obreve" unicode="&#x14f;" horiz-adv-x="3020" 
d="M2842 603q88 0 123.5 -41.5t22.5 -129.5l-36 -261q-12 -87 -59 -129t-135 -42h-2557q-88 0 -123 41.5t-23 129.5l36 261q12 88 59 129.5t135 41.5h2557zM2739 119q69 0 79 69l32 227q10 69 -59 69h-2487q-68 0 -78 -69l-32 -227q-10 -69 59 -69h2486zM1270 712l8 81
q113 -62 301 -62q185 0 317 62l-8 -81q-124 -67 -318 -67t-300 67z" />
    <glyph glyph-name="Ohungarumlaut" unicode="&#x150;" horiz-adv-x="3406" 
d="M210 0q-89 0 -125 42.5t-24 130.5l50 354q12 88 60 130.5t137 42.5h2926q89 0 125 -42.5t24 -130.5l-50 -354q-24 -173 -197 -173h-2926zM3194 193l44 313q5 38 -8 54t-50 16h-2853q-36 0 -54 -16t-23 -54l-44 -312q-5 -38 8 -54t50 -16h2852q37 0 55 15.5t23 53.5z
M2386 872l-376 -113h-178l295 113h259zM1886 872l-376 -113h-178l295 113h259z" />
    <glyph glyph-name="ohungarumlaut" unicode="&#x151;" horiz-adv-x="3020" 
d="M2842 603q88 0 123.5 -41.5t22.5 -129.5l-36 -261q-12 -87 -59 -129t-135 -42h-2557q-88 0 -123 41.5t-23 129.5l36 261q12 88 59 129.5t135 41.5h2557zM2739 119q69 0 79 69l32 227q10 69 -59 69h-2487q-68 0 -78 -69l-32 -227q-10 -69 59 -69h2486zM2199 770l-376 -113
h-178l295 113h259zM1699 770l-376 -113h-178l295 113h259z" />
    <glyph glyph-name="OE" unicode="&#x152;" horiz-adv-x="5250" 
d="M214 0q-89 0 -125.5 43t-23.5 130l50 354q12 88 60 130.5t137 42.5h4938l-18 -124h-2467l-23 -164h2342l-17 -124h-2342l-23 -164h2467l-17 -124h-4938zM2560 124l63 452h-2293q-37 0 -54 -16t-22 -54l-44 -312q-6 -38 7 -54t50 -16h2293z" />
    <glyph glyph-name="oe" unicode="&#x153;" horiz-adv-x="4533" 
d="M2197 182l34 239q8 63 -52 63h-1873q-70 0 -79 -69l-32 -227q-10 -69 59 -69h1873q61 0 70 63zM4376 409l3 22q4 29 -6.5 41t-38.5 12h-1895q-63 0 -71 -63l-9 -64h1957q28 0 42 12t18 40zM2343 246l-9 -64q-9 -63 53 -63h2056l-16 -119h-2028q-79 0 -111.5 30.5
t-28.5 101.5q-16 -71 -56.5 -101.5t-119.5 -30.5h-1881q-88 0 -123.5 42t-22.5 129l36 261q13 88 59.5 129.5t134.5 41.5h1881q79 0 111.5 -30.5t28.5 -101.5q16 71 56.5 101.5t119.5 30.5h1905q78 0 109.5 -37.5t20.5 -116.5l-7 -49q-11 -79 -53 -116.5t-120 -37.5h-1995z
" />
    <glyph glyph-name="Racute" unicode="&#x154;" horiz-adv-x="3410" 
d="M3375 532l-4 -31q-10 -72 -48.5 -109t-123.5 -43q84 -9 110.5 -51.5t15.5 -121.5l-24 -176h-142l29 211q6 41 -8.5 59t-54.5 18h-2904l-40 -288h-142l98 700h3094q87 0 121.5 -40.5t22.5 -127.5zM3149 412q37 0 54.5 15.5t22.5 52.5l4 28q5 36 -8 52t-48 16h-2913
l-23 -164h2911zM2146 872l-376 -113h-178l295 113h259z" />
    <glyph glyph-name="racute" unicode="&#x155;" horiz-adv-x="2817" 
d="M2827 603l-17 -119h-2512q-68 0 -78 -69l-58 -415h-137l60 432q13 88 59.5 129.5t135.5 41.5h2547zM1888 770l-376 -113h-178l295 113h259z" />
    <glyph glyph-name="uni0156" unicode="&#x156;" horiz-adv-x="3410" 
d="M3375 532l-4 -31q-10 -72 -48.5 -109t-123.5 -43q84 -9 110.5 -51.5t15.5 -121.5l-24 -176h-142l29 211q6 41 -8.5 59t-54.5 18h-2904l-40 -288h-142l98 700h3094q87 0 121.5 -40.5t22.5 -127.5zM3149 412q37 0 54.5 15.5t22.5 52.5l4 28q5 36 -8 52t-48 16h-2913
l-23 -164h2911zM1766 -68l-11 -73q-8 -56 -41.5 -87.5t-88.5 -31.5h-48l5 41h43q24 0 36 11t15 36l2 14h-91l13 90h166z" />
    <glyph glyph-name="uni0157" unicode="&#x157;" horiz-adv-x="2817" 
d="M2827 603l-17 -119h-2512q-68 0 -78 -69l-58 -415h-137l60 432q13 88 59.5 129.5t135.5 41.5h2547zM166 -68l-11 -73q-8 -56 -41.5 -87.5t-88.5 -31.5h-48l5 41h43q24 0 36 11t15 36l2 14h-91l13 90h166z" />
    <glyph glyph-name="Rcaron" unicode="&#x158;" horiz-adv-x="3410" 
d="M3375 532l-4 -31q-10 -72 -48.5 -109t-123.5 -43q84 -9 110.5 -51.5t15.5 -121.5l-24 -176h-142l29 211q6 41 -8.5 59t-54.5 18h-2904l-40 -288h-142l98 700h3094q87 0 121.5 -40.5t22.5 -127.5zM3149 412q37 0 54.5 15.5t22.5 52.5l4 28q5 36 -8 52t-48 16h-2913
l-23 -164h2911zM1575 872l199 -62l217 62h157l-263 -113h-232l-231 113h153z" />
    <glyph glyph-name="rcaron" unicode="&#x159;" horiz-adv-x="2817" 
d="M2827 603l-17 -119h-2512q-68 0 -78 -69l-58 -415h-137l60 432q13 88 59.5 129.5t135.5 41.5h2547zM1317 770l199 -62l217 62h157l-263 -113h-232l-231 113h153z" />
    <glyph glyph-name="Sacute" unicode="&#x15a;" horiz-adv-x="3362" 
d="M244 288q-88 0 -124 42.5t-24 129.5l10 68q13 88 60.5 130t135.5 42h3030l-17 -124h-2994q-36 0 -53.5 -15.5t-21.5 -52.5l-5 -29q-5 -36 8 -51.5t48 -15.5h2852q88 0 124.5 -42.5t23.5 -129.5l-9 -68q-12 -87 -60 -129.5t-136 -42.5h-3080l17 124h3045q35 0 52.5 15.5
t22.5 52.5l4 29q5 36 -8 51.5t-48 15.5h-2853zM2122 872l-376 -113h-178l295 113h259z" />
    <glyph glyph-name="sacute" unicode="&#x15b;" horiz-adv-x="3004" 
d="M2951 484h-2683q-53 0 -60 -52l-3 -23q-4 -28 6.5 -40t38.5 -12h2562q77 0 108.5 -37.5t20.5 -117.5l-7 -48q-11 -79 -53 -116.5t-119 -37.5h-2751l16 119h2713q52 0 60 52l3 22q4 28 -6.5 40.5t-38.5 12.5h-2562q-77 0 -108.5 37.5t-20.5 116.5l7 49q11 79 53 116.5
t119 37.5h2721zM1929 770l-376 -113h-178l295 113h259z" />
    <glyph glyph-name="Scircumflex" unicode="&#x15c;" horiz-adv-x="3362" 
d="M244 288q-88 0 -124 42.5t-24 129.5l10 68q13 88 60.5 130t135.5 42h3030l-17 -124h-2994q-36 0 -53.5 -15.5t-21.5 -52.5l-5 -29q-5 -36 8 -51.5t48 -15.5h2852q88 0 124.5 -42.5t23.5 -129.5l-9 -68q-12 -87 -60 -129.5t-136 -42.5h-3080l17 124h3045q35 0 52.5 15.5
t22.5 52.5l4 29q5 36 -8 51.5t-48 15.5h-2853zM1755 821l-216 -62h-157l263 113h232l231 -113h-153z" />
    <glyph glyph-name="scircumflex" unicode="&#x15d;" horiz-adv-x="3004" 
d="M2951 484h-2683q-53 0 -60 -52l-3 -23q-4 -28 6.5 -40t38.5 -12h2562q77 0 108.5 -37.5t20.5 -117.5l-7 -48q-11 -79 -53 -116.5t-119 -37.5h-2751l16 119h2713q52 0 60 52l3 22q4 28 -6.5 40.5t-38.5 12.5h-2562q-77 0 -108.5 37.5t-20.5 116.5l7 49q11 79 53 116.5
t119 37.5h2721zM1561 719l-216 -62h-157l263 113h232l231 -113h-153z" />
    <glyph glyph-name="Scedilla" unicode="&#x15e;" horiz-adv-x="3362" 
d="M1322 -112h452q31 0 44 6.5t13 22.5q0 15 -38 15h-220l43 68h-1604l17 124h3045q35 0 52.5 15.5t22.5 52.5l4 29q5 36 -8 51.5t-48 15.5h-2853q-88 0 -124 42.5t-24 129.5l10 68q13 88 60.5 130t135.5 42h3030l-17 -124h-2994q-36 0 -53.5 -15.5t-21.5 -52.5l-5 -29
q-5 -36 8 -51.5t48 -15.5h2852q88 0 124.5 -42.5t23.5 -129.5l-9 -68q-12 -87 -60 -129.5t-136 -42.5h-1450l-27 -45h210q62 0 88 -11.5t26 -39.5q0 -48 -40 -73.5t-137 -25.5h-452z" />
    <glyph glyph-name="scedilla" unicode="&#x15f;" horiz-adv-x="3004" 
d="M1128 -112h452q31 0 44 6.5t13 22.5q0 15 -38 15h-220l43 68h-1411l16 119h2713q52 0 60 52l3 22q4 28 -6.5 40.5t-38.5 12.5h-2562q-77 0 -108.5 37.5t-20.5 116.5l7 49q11 79 53 116.5t119 37.5h2721l-16 -119h-2683q-53 0 -60 -52l-3 -23q-4 -28 6.5 -40t38.5 -12
h2562q77 0 108.5 -37.5t20.5 -117.5l-7 -48q-11 -79 -53 -116.5t-119 -37.5h-1314l-27 -45h210q62 0 88 -11.5t26 -39.5q0 -48 -40 -73.5t-137 -25.5h-452z" />
    <glyph glyph-name="Scaron" unicode="&#x160;" horiz-adv-x="3362" 
d="M244 288q-88 0 -124 42.5t-24 129.5l10 68q13 88 60.5 130t135.5 42h3030l-17 -124h-2994q-36 0 -53.5 -15.5t-21.5 -52.5l-5 -29q-5 -36 8 -51.5t48 -15.5h2852q88 0 124.5 -42.5t23.5 -129.5l-9 -68q-12 -87 -60 -129.5t-136 -42.5h-3080l17 124h3045q35 0 52.5 15.5
t22.5 52.5l4 29q5 36 -8 51.5t-48 15.5h-2853zM1551 872l199 -62l217 62h157l-263 -113h-232l-231 113h153z" />
    <glyph glyph-name="scaron" unicode="&#x161;" horiz-adv-x="3004" 
d="M2951 484h-2683q-53 0 -60 -52l-3 -23q-4 -28 6.5 -40t38.5 -12h2562q77 0 108.5 -37.5t20.5 -117.5l-7 -48q-11 -79 -53 -116.5t-119 -37.5h-2751l16 119h2713q52 0 60 52l3 22q4 28 -6.5 40.5t-38.5 12.5h-2562q-77 0 -108.5 37.5t-20.5 116.5l7 49q11 79 53 116.5
t119 37.5h2721zM1357 770l199 -62l217 62h157l-263 -113h-232l-231 113h153z" />
    <glyph glyph-name="uni0162" unicode="&#x162;" horiz-adv-x="3334" 
d="M1310 -112h452q31 0 44 6.5t13 22.5q0 15 -38 15h-220l43 68h-50l80 576h-1564l18 124h3271l-18 -124h-1564l-81 -576h-66l-27 -45h210q62 0 88 -11.5t26 -39.5q0 -48 -40 -73.5t-137 -25.5h-452z" />
    <glyph glyph-name="uni0163" unicode="&#x163;" horiz-adv-x="2856" 
d="M1087 -112h452q31 0 44 6.5t13 22.5q0 15 -38 15h-220l43 68h-1173q-89 0 -124 41.5t-23 129.5l84 599h137l-24 -167h2601l-17 -119h-2600l-42 -296q-10 -69 59 -69h2532l-16 -119h-1368l-27 -45h210q62 0 88 -11.5t26 -39.5q0 -48 -40 -73.5t-137 -25.5h-452z" />
    <glyph glyph-name="Tcaron" unicode="&#x164;" horiz-adv-x="3334" 
d="M3359 700l-18 -124h-1564l-81 -576h-142l80 576h-1564l18 124h3271zM1537 872l199 -62l217 62h157l-263 -113h-232l-231 113h153z" />
    <glyph glyph-name="tcaron" unicode="&#x165;" horiz-adv-x="3175" 
d="M208 0q-89 0 -124 41.5t-23 129.5l84 599h137l-24 -167h2601l-17 -119h-2600l-42 -296q-10 -69 59 -69h2532l-16 -119h-2567zM3181 700l-17 -117q-9 -66 -49 -103t-106 -37h-49l9 67h39q53 0 61 55l3 18h-92l16 117h185z" />
    <glyph glyph-name="Tbar" unicode="&#x166;" horiz-adv-x="3334" 
d="M3359 700l-18 -124h-1564l-19 -133h240l-13 -93h-240l-49 -350h-142l48 350h-240l13 93h240l19 133h-1564l18 124h3271z" />
    <glyph glyph-name="tbar" unicode="&#x167;" horiz-adv-x="2856" 
d="M621 295h-418l-15 -107q-10 -69 59 -69h2532l-16 -119h-2567q-89 0 -124 41.5t-23 129.5l17 124h-67l13 93h67l54 382h137l-24 -167h2601l-17 -119h-2600l-14 -96h418z" />
    <glyph glyph-name="Utilde" unicode="&#x168;" horiz-adv-x="3411" 
d="M218 0q-89 0 -125.5 43t-24.5 130l74 527h143l-71 -506q-6 -38 7 -54t50 -16h2843q37 0 55 16t23 54l71 506h142l-74 -527q-25 -173 -198 -173h-2915zM1470 749l12 87q90 53 176 53q54 0 146 -29t141 -29q80 0 162 54l-12 -87q-90 -53 -177 -53q-54 0 -146 29t-141 29
q-79 0 -161 -54z" />
    <glyph glyph-name="utilde" unicode="&#x169;" horiz-adv-x="3022" 
d="M2737 119q68 0 78 69l58 415h137l-60 -432q-13 -88 -59.5 -129.5t-133.5 -41.5h-2550q-88 0 -123 41.5t-22 129.5l60 432h137l-58 -415q-10 -69 59 -69h2477zM1263 647l12 87q90 53 176 53q54 0 146 -29t141 -29q80 0 162 54l-12 -87q-90 -53 -177 -53q-54 0 -146 29
t-141 29q-79 0 -161 -54z" />
    <glyph glyph-name="Umacron" unicode="&#x16a;" horiz-adv-x="3411" 
d="M218 0q-89 0 -125.5 43t-24.5 130l74 527h143l-71 -506q-6 -38 7 -54t50 -16h2843q37 0 55 16t23 54l71 506h142l-74 -527q-25 -173 -198 -173h-2915zM2095 778h-623l11 77h623z" />
    <glyph glyph-name="umacron" unicode="&#x16b;" horiz-adv-x="3022" 
d="M2737 119q68 0 78 69l58 415h137l-60 -432q-13 -88 -59.5 -129.5t-133.5 -41.5h-2550q-88 0 -123 41.5t-22 129.5l60 432h137l-58 -415q-10 -69 59 -69h2477zM1888 676h-623l11 77h623z" />
    <glyph glyph-name="Ubreve" unicode="&#x16c;" horiz-adv-x="3411" 
d="M218 0q-89 0 -125.5 43t-24.5 130l74 527h143l-71 -506q-6 -38 7 -54t50 -16h2843q37 0 55 16t23 54l71 506h142l-74 -527q-25 -173 -198 -173h-2915zM1479 814l8 81q113 -62 301 -62q185 0 317 62l-8 -81q-124 -67 -318 -67t-300 67z" />
    <glyph glyph-name="ubreve" unicode="&#x16d;" horiz-adv-x="3022" 
d="M2737 119q68 0 78 69l58 415h137l-60 -432q-13 -88 -59.5 -129.5t-133.5 -41.5h-2550q-88 0 -123 41.5t-22 129.5l60 432h137l-58 -415q-10 -69 59 -69h2477zM1272 712l8 81q113 -62 301 -62q185 0 317 62l-8 -81q-124 -67 -318 -67t-300 67z" />
    <glyph glyph-name="Uring" unicode="&#x16e;" horiz-adv-x="3411" 
d="M218 0q-89 0 -125.5 43t-24.5 130l74 527h143l-71 -506q-6 -38 7 -54t50 -16h2843q37 0 55 16t23 54l71 506h142l-74 -527q-25 -173 -198 -173h-2915zM1936 856h-284q-35 0 -35 -31q0 -20 28 -20h284q35 0 35 31q0 20 -28 20zM1669 909h265q88 0 88 -61q0 -96 -110 -96
h-265q-88 0 -88 61q0 96 110 96z" />
    <glyph glyph-name="uring" unicode="&#x16f;" horiz-adv-x="3022" 
d="M2737 119q68 0 78 69l58 415h137l-60 -432q-13 -88 -59.5 -129.5t-133.5 -41.5h-2550q-88 0 -123 41.5t-22 129.5l60 432h137l-58 -415q-10 -69 59 -69h2477zM1729 754h-284q-35 0 -35 -31q0 -20 28 -20h284q35 0 35 31q0 20 -28 20zM1462 807h265q88 0 88 -61
q0 -96 -110 -96h-265q-88 0 -88 61q0 96 110 96z" />
    <glyph glyph-name="Uhungarumlaut" unicode="&#x170;" horiz-adv-x="3411" 
d="M218 0q-89 0 -125.5 43t-24.5 130l74 527h143l-71 -506q-6 -38 7 -54t50 -16h2843q37 0 55 16t23 54l71 506h142l-74 -527q-25 -173 -198 -173h-2915zM2408 872l-376 -113h-178l295 113h259zM1908 872l-376 -113h-178l295 113h259z" />
    <glyph glyph-name="uhungarumlaut" unicode="&#x171;" horiz-adv-x="3022" 
d="M2737 119q68 0 78 69l58 415h137l-60 -432q-13 -88 -59.5 -129.5t-133.5 -41.5h-2550q-88 0 -123 41.5t-22 129.5l60 432h137l-58 -415q-10 -69 59 -69h2477zM2202 770l-376 -113h-178l295 113h259zM1702 770l-376 -113h-178l295 113h259z" />
    <glyph glyph-name="Uogonek" unicode="&#x172;" horiz-adv-x="3411" 
d="M3271 -195h-496q-64 0 -91.5 11t-27.5 41q0 23 5 37t25 26.5t52 18.5t94.5 10.5t143 6t206.5 1.5h34l7 58q-37 -15 -90 -15h-2915q-89 0 -125.5 43t-24.5 130l74 527h143l-71 -506q-6 -38 7 -54t50 -16h2843q37 0 55 16t23 54l71 506h142l-74 -527q-15 -102 -79 -144
l-13 -96h-40q-196 0 -293 -4t-120 -10t-23 -18q0 -13 32 -13h488z" />
    <glyph glyph-name="uogonek" unicode="&#x173;" horiz-adv-x="3022" 
d="M2893 -195h-496q-64 0 -91.5 11t-27.5 41q0 23 5 37t25 26.5t52 18.5t94.5 10.5t143 6t206.5 1.5h34l7 57q-39 -14 -88 -14h-2550q-88 0 -123 41.5t-22 129.5l60 432h137l-58 -415q-10 -69 59 -69h2477q68 0 78 69l58 415h137l-60 -432q-15 -104 -76 -143l-13 -95h-40
q-196 0 -293 -4t-120 -10t-23 -18q0 -13 32 -13h488z" />
    <glyph glyph-name="Wcircumflex" unicode="&#x174;" horiz-adv-x="4010" 
d="M3732 0h-1582q-83 0 -120 34t-36 108q-19 -74 -64.5 -108t-128.5 -34h-1583q-89 0 -125.5 43t-24.5 130l74 527h143l-71 -506q-6 -38 7 -54t50 -16h1575q40 0 60 18t25 59l71 499h142l-70 -499q-6 -41 9 -59t55 -18h1575q37 0 54.5 16t23.5 54l71 506h142l-74 -527
q-25 -173 -198 -173zM2091 821l-216 -62h-157l263 113h232l231 -113h-153z" />
    <glyph glyph-name="wcircumflex" unicode="&#x175;" horiz-adv-x="3542" 
d="M1760 132q-16 -71 -56.5 -101.5t-119.5 -30.5h-1377q-88 0 -123 41.5t-22 129.5l60 432h137l-58 -415q-10 -69 59 -69h1369q61 0 70 63l59 421h136l-59 -421q-8 -63 53 -63h1369q36 0 54.5 16.5t23.5 52.5l58 415h137l-60 -432q-13 -88 -59.5 -129.5t-133.5 -41.5h-1377
q-79 0 -111.5 30.5t-28.5 101.5zM1844 719l-216 -62h-157l263 113h232l231 -113h-153z" />
    <glyph glyph-name="Ycircumflex" unicode="&#x176;" horiz-adv-x="3378" 
d="M3250 700h142l-34 -239q-12 -88 -60 -130.5t-137 -42.5h-1391l-40 -288h-142l40 288h-1392q-89 0 -125 42.5t-24 130.5l34 239h142l-31 -219q-5 -38 8 -53.5t50 -15.5h2852q37 0 54.5 15.5t22.5 53.5zM1775 821l-216 -62h-157l263 113h232l231 -113h-153z" />
    <glyph glyph-name="ycircumflex" unicode="&#x177;" horiz-adv-x="3028" 
d="M2669 -167h-2628l17 119h2614q51 0 77 22t33 75l12 86q-19 -42 -55 -62t-98 -20h-2438q-89 0 -124 41.5t-23 129.5l53 379h137l-51 -362q-9 -69 60 -69h2476q36 0 54.5 16.5t23.5 52.5l51 362h137l-77 -550q-16 -114 -76.5 -167t-174.5 -53zM1574 719l-216 -62h-157
l263 113h232l231 -113h-153z" />
    <glyph glyph-name="Ydieresis" unicode="&#x178;" horiz-adv-x="3378" 
d="M3250 700h142l-34 -239q-12 -88 -60 -130.5t-137 -42.5h-1391l-40 -288h-142l40 288h-1392q-89 0 -125 42.5t-24 130.5l34 239h142l-31 -219q-5 -38 8 -53.5t50 -15.5h2852q37 0 54.5 15.5t22.5 53.5zM1622 859l-13 -90h-166l13 90h166zM2102 859l-13 -90h-166l13 90h166
z" />
    <glyph glyph-name="Zacute" unicode="&#x179;" horiz-adv-x="3366" 
d="M3088 412q51 0 75 20t31 72l10 72h-3080l18 124h3222l-29 -202q-30 -210 -239 -210h-2807q-52 0 -75.5 -20t-30.5 -72l-10 -72h3110l-17 -124h-3252l28 202q28 210 238 210h2808zM2134 872l-376 -113h-178l295 113h259z" />
    <glyph glyph-name="zacute" unicode="&#x17a;" horiz-adv-x="3007" 
d="M254 246q-75 0 -85 -75l-8 -52h2767l-16 -119h-2903l22 160q28 197 225 197h2495q39 0 59.5 17.5t25.5 56.5l8 53h-2742l16 119h2878l-22 -160q-28 -197 -225 -197h-2495zM1954 770l-376 -113h-178l295 113h259z" />
    <glyph glyph-name="Zdotaccent" unicode="&#x17b;" horiz-adv-x="3366" 
d="M3088 412q51 0 75 20t31 72l10 72h-3080l18 124h3222l-29 -202q-30 -210 -239 -210h-2807q-52 0 -75.5 -20t-30.5 -72l-10 -72h3110l-17 -124h-3252l28 202q28 210 238 210h2808zM1854 859l-13 -90h-166l13 90h166z" />
    <glyph glyph-name="zdotaccent" unicode="&#x17c;" horiz-adv-x="3007" 
d="M254 246q-75 0 -85 -75l-8 -52h2767l-16 -119h-2903l22 160q28 197 225 197h2495q39 0 59.5 17.5t25.5 56.5l8 53h-2742l16 119h2878l-22 -160q-28 -197 -225 -197h-2495zM1674 757l-13 -90h-166l13 90h166z" />
    <glyph glyph-name="Zcaron" unicode="&#x17d;" horiz-adv-x="3366" 
d="M3088 412q51 0 75 20t31 72l10 72h-3080l18 124h3222l-29 -202q-30 -210 -239 -210h-2807q-52 0 -75.5 -20t-30.5 -72l-10 -72h3110l-17 -124h-3252l28 202q28 210 238 210h2808zM1563 872l199 -62l217 62h157l-263 -113h-232l-231 113h153z" />
    <glyph glyph-name="zcaron" unicode="&#x17e;" horiz-adv-x="3007" 
d="M254 246q-75 0 -85 -75l-8 -52h2767l-16 -119h-2903l22 160q28 197 225 197h2495q39 0 59.5 17.5t25.5 56.5l8 53h-2742l16 119h2878l-22 -160q-28 -197 -225 -197h-2495zM1383 770l199 -62l217 62h157l-263 -113h-232l-231 113h153z" />
    <glyph glyph-name="florin" unicode="&#x192;" 
d="M3243 412l-17 -124h-2785l-18 -128q-12 -86 -54 -123t-129 -37h-230l17 124h187q37 0 51 12.5t19 50.5l15 101h-249l17 124h249l17 116q12 88 59.5 130t136.5 42h2880l-18 -124h-2843q-37 0 -54 -15t-22 -52l-14 -97h2785z" />
    <glyph glyph-name="AEacute" unicode="&#x1fc;" horiz-adv-x="5227" 
d="M2523 0l40 288h-2348l-40 -288h-143l74 527q25 173 198 173h4926l-18 -124h-2467l-23 -164h2342l-17 -124h-2342l-23 -164h2467l-17 -124h-2609zM322 576q-37 0 -54 -16t-22 -54l-14 -94h2348l23 164h-2281zM3077 872l-376 -113h-178l295 113h259z" />
    <glyph glyph-name="aeacute" unicode="&#x1fd;" horiz-adv-x="4527" 
d="M4367 409l3 23q4 28 -6 40t-38 12h-1896q-62 0 -70 -63l-9 -64h1957q28 0 41.5 12t17.5 40zM182 194l-3 -22q-4 -28 6 -40.5t38 -12.5h1896q61 0 70 63l9 64h-1957q-28 0 -41.5 -12t-17.5 -40zM2075 0h-1906q-78 0 -109.5 37.5t-20.5 116.5l7 48q11 80 53 117.5t120 37.5
h1995l9 64q8 63 -52 63h-2057l16 119h2029q78 0 110.5 -30.5t28.5 -101.5q16 71 56.5 101.5t119.5 30.5h1906q78 0 109.5 -37.5t20.5 -116.5l-7 -49q-11 -79 -53.5 -116.5t-119.5 -37.5h-1995l-9 -64q-9 -63 52 -63h2057l-16 -119h-2029q-79 0 -111.5 30.5t-28.5 101.5
q-16 -71 -56.5 -101.5t-118.5 -30.5zM2702 770l-376 -113h-178l295 113h259z" />
    <glyph glyph-name="Oslashacute" unicode="&#x1fe;" horiz-adv-x="3406" 
d="M210 0q-89 0 -125 42.5t-24 130.5l50 354q12 88 60 130.5t137 42.5h2926q89 0 125 -42.5t24 -130.5l-50 -354q-24 -173 -197 -173h-2926zM3194 193l44 313q5 38 -8 54t-50 16h-18l-2344 -452h2298q37 0 55 15.5t23 53.5zM281 124l2344 452h-2298q-36 0 -54 -16t-23 -54
l-44 -312q-5 -38 8 -54t50 -16h17zM2156 872l-376 -113h-178l295 113h259z" />
    <glyph glyph-name="oslashacute" unicode="&#x1ff;" horiz-adv-x="3020" 
d="M2842 603q88 0 123.5 -41.5t22.5 -129.5l-36 -261q-12 -87 -59 -129t-135 -42h-2557q-88 0 -123 41.5t-23 129.5l36 261q12 88 59 129.5t135 41.5h2557zM2739 119q69 0 79 69l32 227q10 68 -58 69l-2016 -365h1963zM250 119l2017 365h-1963q-68 0 -78 -69l-32 -227
q-10 -68 56 -69zM1949 770l-376 -113h-178l295 113h259z" />
    <glyph glyph-name="uni0218" unicode="&#x218;" horiz-adv-x="3362" 
d="M244 288q-88 0 -124 42.5t-24 129.5l10 68q13 88 60.5 130t135.5 42h3030l-17 -124h-2994q-36 0 -53.5 -15.5t-21.5 -52.5l-5 -29q-5 -36 8 -51.5t48 -15.5h2852q88 0 124.5 -42.5t23.5 -129.5l-9 -68q-12 -87 -60 -129.5t-136 -42.5h-3080l17 124h3045q35 0 52.5 15.5
t22.5 52.5l4 29q5 36 -8 51.5t-48 15.5h-2853zM1712 -68l-11 -73q-8 -56 -41.5 -87.5t-88.5 -31.5h-48l5 41h43q24 0 36 11t15 36l2 14h-91l13 90h166z" />
    <glyph glyph-name="uni0219" unicode="&#x219;" horiz-adv-x="3004" 
d="M2951 484h-2683q-53 0 -60 -52l-3 -23q-4 -28 6.5 -40t38.5 -12h2562q77 0 108.5 -37.5t20.5 -117.5l-7 -48q-11 -79 -53 -116.5t-119 -37.5h-2751l16 119h2713q52 0 60 52l3 22q4 28 -6.5 40.5t-38.5 12.5h-2562q-77 0 -108.5 37.5t-20.5 116.5l7 49q11 79 53 116.5
t119 37.5h2721zM1512 -68l-11 -73q-8 -56 -41.5 -87.5t-88.5 -31.5h-48l5 41h43q24 0 36 11t15 36l2 14h-91l13 90h166z" />
    <glyph glyph-name="uni021A" unicode="&#x21a;" horiz-adv-x="3334" 
d="M3359 700l-18 -124h-1564l-81 -576h-142l80 576h-1564l18 124h3271zM1698 -68l-11 -73q-8 -56 -41.5 -87.5t-88.5 -31.5h-48l5 41h43q24 0 36 11t15 36l2 14h-91l13 90h166z" />
    <glyph glyph-name="uni021B" unicode="&#x21b;" horiz-adv-x="2856" 
d="M208 0q-89 0 -124 41.5t-23 129.5l84 599h137l-24 -167h2601l-17 -119h-2600l-42 -296q-10 -69 59 -69h2532l-16 -119h-2567zM1471 -68l-11 -73q-8 -56 -41.5 -87.5t-88.5 -31.5h-48l5 41h43q24 0 36 11t15 36l2 14h-91l13 90h166z" />
    <glyph glyph-name="uni0237" unicode="&#x237;" horiz-adv-x="300" 
d="M-103 -48h82q65 0 74 66l82 585h137l-84 -602q-13 -87 -58.5 -127.5t-132.5 -40.5h-117z" />
    <glyph glyph-name="circumflex" unicode="&#x2c6;" horiz-adv-x="750" 
d="M435 719l-216 -62h-157l263 113h232l231 -113h-153z" />
    <glyph glyph-name="caron" unicode="&#x2c7;" horiz-adv-x="750" 
d="M231 770l199 -62l217 62h157l-263 -113h-232l-231 113h153z" />
    <glyph glyph-name="breve" unicode="&#x2d8;" horiz-adv-x="750" 
d="M123 712l8 81q113 -62 301 -62q185 0 317 62l-8 -81q-124 -67 -318 -67t-300 67z" />
    <glyph glyph-name="dotaccent" unicode="&#x2d9;" horiz-adv-x="750" 
d="M522 757l-13 -90h-166l13 90h166z" />
    <glyph glyph-name="ring" unicode="&#x2da;" horiz-adv-x="750" 
d="M580 754h-284q-35 0 -35 -31q0 -20 28 -20h284q35 0 35 31q0 20 -28 20zM313 807h265q88 0 88 -61q0 -96 -110 -96h-265q-88 0 -88 61q0 96 110 96z" />
    <glyph glyph-name="ogonek" unicode="&#x2db;" horiz-adv-x="750" 
d="M584 -67h-40q-196 0 -293 -4t-120 -10t-23 -18q0 -13 32 -13h488l-12 -83h-496q-64 0 -91.5 11t-27.5 41q0 23 5 37t25 26.5t52 18.5t94.5 10.5t143 6t206.5 1.5h34l6 43h27z" />
    <glyph glyph-name="tilde" unicode="&#x2dc;" horiz-adv-x="750" 
d="M114 647l12 87q90 53 176 53q54 0 146 -29t141 -29q80 0 162 54l-12 -87q-90 -53 -177 -53q-54 0 -146 29t-141 29q-79 0 -161 -54z" />
    <glyph glyph-name="hungarumlaut" unicode="&#x2dd;" horiz-adv-x="750" 
d="M972 770l-376 -113h-178l295 113h259zM472 770l-376 -113h-178l295 113h259z" />
    <glyph glyph-name="pi" unicode="&#x3c0;" 
d="M207 0l84 603h2887l-84 -603h-137l68 484h-2614l-67 -484h-137z" />
    <glyph glyph-name="uni1E02" unicode="&#x1e02;" horiz-adv-x="3404" 
d="M3328 199l-4 -31q-12 -87 -58 -127.5t-133 -40.5h-3094l98 700h3094q87 0 121.5 -40.5t22.5 -127.5l-4 -31q-10 -70 -47 -107t-117 -44q78 -7 104.5 -44t16.5 -107zM3149 412q37 0 54.5 15.5t22.5 52.5l4 28q5 36 -8 52t-48 16h-2913l-23 -164h2911zM221 288l-23 -164
h2913q35 0 52.5 15.5t22.5 52.5l3 28q5 38 -7.5 53t-49.5 15h-2911zM1860 859l-13 -90h-166l13 90h166z" />
    <glyph glyph-name="uni1E03" unicode="&#x1e03;" horiz-adv-x="3026" 
d="M61 171l84 599h137l-35 -249q19 42 55 62t98 20h2450q87 0 122 -41.5t23 -129.5l-36 -261q-13 -88 -59.5 -129.5t-133.5 -41.5h-2558q-89 0 -124 41.5t-23 129.5zM232 415l-32 -227q-10 -69 59 -69h2487q68 0 78 69l32 227q5 36 -9 52.5t-50 16.5h-2487q-68 0 -78 -69z
M1672 757l-13 -90h-166l13 90h166z" />
    <glyph glyph-name="uni1E0A" unicode="&#x1e0a;" horiz-adv-x="3404" 
d="M3158 700q118 0 170.5 -61t36.5 -179l-31 -220q-16 -118 -86 -179t-188 -61h-3021l98 700h3021zM3064 124q112 0 128 113l31 226q16 113 -96 113h-2866l-63 -452h2866zM1848 859l-13 -90h-166l13 90h166z" />
    <glyph glyph-name="uni1E0B" unicode="&#x1e0b;" horiz-adv-x="3026" 
d="M3036 770l-84 -599q-12 -87 -59 -129t-135 -42h-2558q-87 0 -122 41.5t-23 129.5l36 261q12 88 58.5 129.5t134.5 41.5h2450q62 0 92.5 -20t37.5 -62l36 249h136zM2818 188l32 227q10 69 -59 69h-2487q-36 0 -54.5 -16.5t-23.5 -52.5l-32 -227q-5 -36 9 -52.5t50 -16.5
h2486q69 0 79 69zM1672 757l-13 -90h-166l13 90h166z" />
    <glyph glyph-name="uni1E1E" unicode="&#x1e1e;" horiz-adv-x="3340" 
d="M39 0l98 700h3227l-18 -124h-3085l-23 -164h2960l-17 -124h-2960l-40 -288h-142zM1861 859l-13 -90h-166l13 90h166z" />
    <glyph glyph-name="uni1E1F" unicode="&#x1e1f;" horiz-adv-x="2932" 
d="M314 484q-44 0 -66.5 -19.5t-29.5 -64.5l-6 -39h2606l-17 -119h-2605l-58 -409h-137l81 573q14 101 68.5 149t155.5 48h2636l-17 -119h-2611zM1666 757l-13 -90h-166l13 90h166z" />
    <glyph glyph-name="uni1E40" unicode="&#x1e40;" horiz-adv-x="4010" 
d="M2236 700h1582q89 0 125.5 -43t24.5 -130l-74 -527h-142l71 506q5 38 -8.5 54t-50.5 16h-1574q-40 0 -60.5 -18.5t-25.5 -58.5l-70 -499h-142l70 499q5 41 -10 59t-55 18h-1575q-37 0 -54 -16t-22 -54l-71 -506h-143l74 527q25 173 198 173h1583q83 0 119.5 -34
t34.5 -108q20 74 66 108t129 34zM2166 859l-13 -90h-166l13 90h166z" />
    <glyph glyph-name="uni1E41" unicode="&#x1e41;" horiz-adv-x="3542" 
d="M1795 471q16 71 56.5 101.5t119.5 30.5h1377q87 0 122 -41.5t23 -129.5l-60 -432h-137l58 415q5 36 -9 52.5t-50 16.5h-1369q-61 0 -70 -63l-59 -421h-136l59 421q8 63 -53 63h-1369q-68 0 -78 -69l-58 -415h-137l60 432q13 88 59.5 129.5t133.5 41.5h1377
q79 0 111.5 -30.5t28.5 -101.5zM1918 757l-13 -90h-166l13 90h166z" />
    <glyph glyph-name="uni1E56" unicode="&#x1e56;" horiz-adv-x="3374" 
d="M39 0l98 700h3080q89 0 124.5 -42t23.5 -130l-10 -69q-12 -87 -59.5 -129t-136.5 -42h-2938l-40 -288h-142zM3220 508q5 37 -8.5 52.5t-48.5 15.5h-2902l-23 -164h2902q35 0 53 15.5t22 51.5zM1865 859l-13 -90h-166l13 90h166z" />
    <glyph glyph-name="uni1E57" unicode="&#x1e57;" horiz-adv-x="3026" 
d="M1 -167l84 599q13 88 59.5 129.5t135.5 41.5h2558q87 0 122 -41.5t23 -129.5l-36 -261q-13 -88 -59.5 -129.5t-133.5 -41.5h-2450q-62 0 -92.5 20t-37.5 62l-36 -249h-137zM220 415l-32 -227q-10 -69 59 -69h2487q68 0 78 69l32 227q5 36 -9 52.5t-50 16.5h-2487
q-68 0 -78 -69zM1660 757l-13 -90h-166l13 90h166z" />
    <glyph glyph-name="uni1E60" unicode="&#x1e60;" horiz-adv-x="3362" 
d="M244 288q-88 0 -124 42.5t-24 129.5l10 68q13 88 60.5 130t135.5 42h3030l-17 -124h-2994q-36 0 -53.5 -15.5t-21.5 -52.5l-5 -29q-5 -36 8 -51.5t48 -15.5h2852q88 0 124.5 -42.5t23.5 -129.5l-9 -68q-12 -87 -60 -129.5t-136 -42.5h-3080l17 124h3045q35 0 52.5 15.5
t22.5 52.5l4 29q5 36 -8 51.5t-48 15.5h-2853zM1842 859l-13 -90h-166l13 90h166z" />
    <glyph glyph-name="uni1E61" unicode="&#x1e61;" horiz-adv-x="3004" 
d="M2951 484h-2683q-53 0 -60 -52l-3 -23q-4 -28 6.5 -40t38.5 -12h2562q77 0 108.5 -37.5t20.5 -117.5l-7 -48q-11 -79 -53 -116.5t-119 -37.5h-2751l16 119h2713q52 0 60 52l3 22q4 28 -6.5 40.5t-38.5 12.5h-2562q-77 0 -108.5 37.5t-20.5 116.5l7 49q11 79 53 116.5
t119 37.5h2721zM1648 757l-13 -90h-166l13 90h166z" />
    <glyph glyph-name="uni1E6A" unicode="&#x1e6a;" horiz-adv-x="3334" 
d="M3359 700l-18 -124h-1564l-81 -576h-142l80 576h-1564l18 124h3271zM1828 859l-13 -90h-166l13 90h166z" />
    <glyph glyph-name="uni1E6B" unicode="&#x1e6b;" horiz-adv-x="2856" 
d="M208 0q-89 0 -124 41.5t-23 129.5l84 599h137l-24 -167h2601l-17 -119h-2600l-42 -296q-10 -69 59 -69h2532l-16 -119h-2567zM1587 757l-13 -90h-166l13 90h166z" />
    <glyph glyph-name="Wgrave" unicode="&#x1e80;" horiz-adv-x="4010" 
d="M3732 0h-1582q-83 0 -120 34t-36 108q-19 -74 -64.5 -108t-128.5 -34h-1583q-89 0 -125.5 43t-24.5 130l74 527h143l-71 -506q-6 -38 7 -54t50 -16h1575q40 0 60 18t25 59l71 499h142l-70 -499q-6 -41 9 -59t55 -18h1575q37 0 54.5 16t23.5 54l71 506h142l-74 -527
q-25 -173 -198 -173zM2081 759l-337 113h247l265 -113h-175z" />
    <glyph glyph-name="wgrave" unicode="&#x1e81;" horiz-adv-x="3542" 
d="M1760 132q-16 -71 -56.5 -101.5t-119.5 -30.5h-1377q-88 0 -123 41.5t-22 129.5l60 432h137l-58 -415q-10 -69 59 -69h1369q61 0 70 63l59 421h136l-59 -421q-8 -63 53 -63h1369q36 0 54.5 16.5t23.5 52.5l58 415h137l-60 -432q-13 -88 -59.5 -129.5t-133.5 -41.5h-1377
q-79 0 -111.5 30.5t-28.5 101.5zM1834 657l-337 113h247l265 -113h-175z" />
    <glyph glyph-name="Wacute" unicode="&#x1e82;" horiz-adv-x="4010" 
d="M3732 0h-1582q-83 0 -120 34t-36 108q-19 -74 -64.5 -108t-128.5 -34h-1583q-89 0 -125.5 43t-24.5 130l74 527h143l-71 -506q-6 -38 7 -54t50 -16h1575q40 0 60 18t25 59l71 499h142l-70 -499q-6 -41 9 -59t55 -18h1575q37 0 54.5 16t23.5 54l71 506h142l-74 -527
q-25 -173 -198 -173zM2458 872l-376 -113h-178l295 113h259z" />
    <glyph glyph-name="wacute" unicode="&#x1e83;" horiz-adv-x="3542" 
d="M1760 132q-16 -71 -56.5 -101.5t-119.5 -30.5h-1377q-88 0 -123 41.5t-22 129.5l60 432h137l-58 -415q-10 -69 59 -69h1369q61 0 70 63l59 421h136l-59 -421q-8 -63 53 -63h1369q36 0 54.5 16.5t23.5 52.5l58 415h137l-60 -432q-13 -88 -59.5 -129.5t-133.5 -41.5h-1377
q-79 0 -111.5 30.5t-28.5 101.5zM2211 770l-376 -113h-178l295 113h259z" />
    <glyph glyph-name="Wdieresis" unicode="&#x1e84;" horiz-adv-x="4010" 
d="M3732 0h-1582q-83 0 -120 34t-36 108q-19 -74 -64.5 -108t-128.5 -34h-1583q-89 0 -125.5 43t-24.5 130l74 527h143l-71 -506q-6 -38 7 -54t50 -16h1575q40 0 60 18t25 59l71 499h142l-70 -499q-6 -41 9 -59t55 -18h1575q37 0 54.5 16t23.5 54l71 506h142l-74 -527
q-25 -173 -198 -173zM1938 859l-13 -90h-166l13 90h166zM2418 859l-13 -90h-166l13 90h166z" />
    <glyph glyph-name="wdieresis" unicode="&#x1e85;" horiz-adv-x="3542" 
d="M1760 132q-16 -71 -56.5 -101.5t-119.5 -30.5h-1377q-88 0 -123 41.5t-22 129.5l60 432h137l-58 -415q-10 -69 59 -69h1369q61 0 70 63l59 421h136l-59 -421q-8 -63 53 -63h1369q36 0 54.5 16.5t23.5 52.5l58 415h137l-60 -432q-13 -88 -59.5 -129.5t-133.5 -41.5h-1377
q-79 0 -111.5 30.5t-28.5 101.5zM1691 757l-13 -90h-166l13 90h166zM2171 757l-13 -90h-166l13 90h166z" />
    <glyph glyph-name="Ygrave" unicode="&#x1ef2;" horiz-adv-x="3378" 
d="M3250 700h142l-34 -239q-12 -88 -60 -130.5t-137 -42.5h-1391l-40 -288h-142l40 288h-1392q-89 0 -125 42.5t-24 130.5l34 239h142l-31 -219q-5 -38 8 -53.5t50 -15.5h2852q37 0 54.5 15.5t22.5 53.5zM1765 759l-337 113h247l265 -113h-175z" />
    <glyph glyph-name="ygrave" unicode="&#x1ef3;" horiz-adv-x="3028" 
d="M2669 -167h-2628l17 119h2614q51 0 77 22t33 75l12 86q-19 -42 -55 -62t-98 -20h-2438q-89 0 -124 41.5t-23 129.5l53 379h137l-51 -362q-9 -69 60 -69h2476q36 0 54.5 16.5t23.5 52.5l51 362h137l-77 -550q-16 -114 -76.5 -167t-174.5 -53zM1564 657l-337 113h247
l265 -113h-175z" />
    <glyph glyph-name="uni2010" unicode="&#x2010;" horiz-adv-x="1140" 
d="M1102 388l-17 -122h-1040l17 122h1040z" />
    <glyph glyph-name="figuredash" unicode="&#x2012;" 
d="M3398 388l-17 -122h-3386l17 122h3386z" />
    <glyph glyph-name="endash" unicode="&#x2013;" horiz-adv-x="1500" 
d="M1512 388l-17 -122h-1500l17 122h1500z" />
    <glyph glyph-name="emdash" unicode="&#x2014;" horiz-adv-x="3000" 
d="M3012 388l-17 -122h-3000l17 122h3000z" />
    <glyph glyph-name="quoteleft" unicode="&#x2018;" horiz-adv-x="342" 
d="M98 444l17 116q9 66 49.5 103t106.5 37h48l-9 -66h-38q-28 0 -42.5 -13.5t-19.5 -42.5l-3 -18h92l-16 -116h-185z" />
    <glyph glyph-name="quoteright" unicode="&#x2019;" horiz-adv-x="342" 
d="M320 700l-17 -117q-9 -66 -49 -103t-106 -37h-49l9 67h39q53 0 61 55l3 18h-92l16 117h185z" />
    <glyph glyph-name="quotesinglbase" unicode="&#x201a;" horiz-adv-x="342" 
d="M238 118l-17 -117q-9 -66 -49 -103t-106 -37h-49l9 67h39q53 0 61 55l3 18h-92l16 117h185z" />
    <glyph glyph-name="quotedblleft" unicode="&#x201c;" horiz-adv-x="613" 
d="M369 444l16 116q10 66 50 103t106 37h49l-9 -66h-39q-54 0 -61 -56l-3 -18h92l-16 -116h-185zM98 444l17 116q9 66 49.5 103t106.5 37h48l-9 -66h-38q-28 0 -42.5 -13.5t-19.5 -42.5l-3 -18h92l-16 -116h-185z" />
    <glyph glyph-name="quotedblright" unicode="&#x201d;" horiz-adv-x="613" 
d="M590 700l-17 -117q-9 -66 -49 -103t-106 -37h-49l9 67h39q53 0 61 55l3 18h-92l16 117h185zM320 700l-17 -117q-9 -66 -49 -103t-106 -37h-49l9 67h39q53 0 61 55l3 18h-92l16 117h185z" />
    <glyph glyph-name="quotedblbase" unicode="&#x201e;" horiz-adv-x="613" 
d="M509 118l-17 -117q-9 -66 -49 -103t-106 -37h-49l9 67h39q53 0 61 55l3 18h-92l16 117h185zM238 118l-17 -117q-9 -66 -49 -103t-106 -37h-49l9 67h39q53 0 61 55l3 18h-92l16 117h185z" />
    <glyph glyph-name="dagger" unicode="&#x2020;" horiz-adv-x="3130" 
d="M3117 525l-18 -124h-1449l-75 -533h-142l75 533h-1450l17 124h1450l31 215h142l-31 -215h1450z" />
    <glyph glyph-name="daggerdbl" unicode="&#x2021;" horiz-adv-x="3130" 
d="M3078 250l-18 -124h-1449l-36 -258h-142l36 258h-1450l18 124h1450l21 151h-1450l17 124h1450l31 215h142l-31 -215h1450l-18 -124h-1449l-21 -151h1449z" />
    <glyph glyph-name="bullet" unicode="&#x2022;" horiz-adv-x="1500" 
d="M863 139h-220q-188 0 -188 178v66q0 178 188 178h220q188 0 188 -178v-66q0 -178 -188 -178z" />
    <glyph glyph-name="ellipsis" unicode="&#x2026;" horiz-adv-x="883" 
d="M238 118l-17 -118h-184l16 118h185zM509 118l-17 -118h-184l16 118h185zM779 118l-17 -118h-184l16 118h185z" />
    <glyph glyph-name="perthousand" unicode="&#x2030;" horiz-adv-x="6047" 
d="M1608 0l890 700h155l-890 -700h-155zM2455 125l40 284q9 64 43.5 94.5t98.5 30.5h1448q64 0 90 -30.5t18 -94.5l-41 -284q-16 -125 -142 -125h-1448q-64 0 -90 30.5t-17 94.5zM4036 149l33 236q4 24 -5 34t-32 10h-1372q-43 0 -50 -44l-33 -236q-6 -44 38 -44h1372
q44 0 49 44zM4273 125l40 284q9 64 43.5 94.5t98.5 30.5h1448q64 0 90 -30.5t18 -94.5l-41 -284q-16 -125 -142 -125h-1448q-64 0 -90 30.5t-17 94.5zM5854 149l33 236q4 24 -5 34t-32 10h-1372q-43 0 -50 -44l-33 -236q-6 -44 38 -44h1372q44 0 49 44zM68 291l40 284
q9 64 43.5 94.5t98.5 30.5h1448q64 0 90 -30.5t18 -94.5l-41 -284q-16 -125 -142 -125h-1448q-64 0 -90 30.5t-17 94.5zM1649 315l33 236q4 24 -5 34t-32 10h-1372q-43 0 -50 -44l-33 -236q-3 -24 6 -34t32 -10h1372q23 0 34.5 10t14.5 34z" />
    <glyph glyph-name="guilsinglleft" unicode="&#x2039;" horiz-adv-x="507" 
d="M432 51h-159l-238 249l308 249h169l-318 -254z" />
    <glyph glyph-name="guilsinglright" unicode="&#x203a;" horiz-adv-x="507" 
d="M75 549h158l239 -249l-309 -249h-168l317 253z" />
    <glyph glyph-name="fraction" unicode="&#x2044;" horiz-adv-x="1011" 
d="M-10 0l890 700h155l-890 -700h-155z" />
    <glyph glyph-name="zerosuperior" unicode="&#x2070;" horiz-adv-x="1818" 
d="M68 291l40 284q9 64 43.5 94.5t98.5 30.5h1448q64 0 90 -30.5t18 -94.5l-41 -284q-16 -125 -142 -125h-1448q-64 0 -90 30.5t-17 94.5zM1649 315l33 236q4 24 -5 34t-32 10h-1372q-43 0 -50 -44l-33 -236q-3 -24 6 -34t32 -10h1372q23 0 34.5 10t14.5 34z" />
    <glyph glyph-name="foursuperior" unicode="&#x2074;" horiz-adv-x="1818" 
d="M1670 485l30 215h119l-75 -534h-119l30 215h-1453q-125 0 -107 124l27 195h120l-25 -171q-6 -44 38 -44h1415z" />
    <glyph glyph-name="zeroinferior" unicode="&#x2080;" horiz-adv-x="1818" 
d="M45 125l40 284q9 64 43.5 94.5t98.5 30.5h1448q64 0 90 -30.5t18 -94.5l-41 -284q-16 -125 -142 -125h-1448q-64 0 -90 30.5t-17 94.5zM1626 149l33 236q4 24 -5 34t-32 10h-1372q-43 0 -50 -44l-33 -236q-6 -44 38 -44h1372q44 0 49 44z" />
    <glyph glyph-name="oneinferior" unicode="&#x2081;" horiz-adv-x="1818" 
d="M72 0l15 105h870l46 324h-872l15 105h991l-60 -429h650l-14 -105h-1641z" />
    <glyph glyph-name="twoinferior" unicode="&#x2082;" horiz-adv-x="1818" 
d="M1661 364l3 20q3 25 -5.5 35t-32.5 10h-1538l15 105h1577q64 0 90 -30.5t17 -94.5l-10 -70q-9 -63 -43.5 -93.5t-97.5 -30.5h-1413q-37 0 -52.5 -14t-20.5 -50l-7 -46h1601l-15 -105h-1720l23 168q22 151 173 151h1406q24 0 35 10t15 35z" />
    <glyph glyph-name="threeinferior" unicode="&#x2083;" horiz-adv-x="1818" 
d="M1783 412l-5 -37q-7 -48 -34 -75t-89 -33q60 -6 80 -33t13 -75l-5 -37q-10 -63 -43.5 -92.5t-96.5 -29.5h-1598l14 105h1557q25 0 36 10t15 35l3 20q4 25 -5 35t-32 10h-1465l15 104h1464q23 0 34.5 10.5t15.5 34.5l3 20q3 25 -5.5 35t-32.5 10h-1557l15 105h1598
q64 0 89 -29.5t16 -92.5z" />
    <glyph glyph-name="fourinferior" unicode="&#x2084;" horiz-adv-x="1818" 
d="M1647 319l30 215h119l-75 -534h-119l30 215h-1453q-125 0 -107 124l27 195h120l-25 -171q-6 -44 38 -44h1415z" />
    <glyph glyph-name="Euro" unicode="&#x20ac;" 
d="M294 0q-89 0 -125.5 43t-23.5 130l16 115h-130l17 124h130l17 115q12 88 60 130.5t137 42.5h2998l-18 -124h-2961q-37 0 -54.5 -16t-22.5 -54l-14 -94h2904l-17 -124h-2904l-13 -94q-5 -38 7.5 -54t49.5 -16h2962l-17 -124h-2998z" />
    <glyph glyph-name="uni2117" unicode="&#x2117;" horiz-adv-x="3286" 
d="M337 377h2630q21 0 21 20v38q0 20 -21 20h-2630v-78zM3053 445v-57q0 -34 -15.5 -50t-49.5 -16h-2651v-134h-65v323h2716q65 0 65 -66zM242 0q-86 0 -126.5 41t-40.5 125v368q0 84 40.5 125t126.5 41h2818q86 0 126.5 -41t40.5 -125v-368q0 -84 -40.5 -125t-126.5 -41
h-2818zM246 60h2810q53 0 78 25.5t25 77.5v374q0 52 -25 77.5t-78 25.5h-2810q-103 0 -103 -103v-374q0 -103 103 -103z" />
    <glyph glyph-name="trademark" unicode="&#x2122;" horiz-adv-x="4479" 
d="M3194 166v377q0 52 -49 52h-904q-23 0 -32.5 -9.5t-9.5 -33.5v-386h-120v409q0 125 125 125h913q66 0 98.5 -26t37.5 -84q6 58 38 84t99 26h912q125 0 125 -125v-409h-119v386q0 24 -10 33.5t-33 9.5h-903q-49 0 -49 -52v-377h-119zM1967 700v-105h-896v-429h-119v429
h-896v105h1911z" />
    <glyph glyph-name="uni2126" unicode="&#x2126;" 
d="M3173 419v89q0 37 -15.5 52.5t-50.5 15.5h-2822q-35 0 -50.5 -15.5t-15.5 -52.5v-89q0 -36 15.5 -51.5t50.5 -15.5h1210v-352h-1438v124h1303v105h-1111q-88 0 -130 42.5t-42 129.5v127q0 87 42 129.5t130 42.5h2894q88 0 130 -42.5t42 -129.5v-127q0 -87 -42 -129.5
t-130 -42.5h-1111v-105h1303v-124h-1438v352h1210q35 0 50.5 15.5t15.5 51.5z" />
    <glyph glyph-name="onethird" unicode="&#x2153;" horiz-adv-x="4229" 
d="M95 166l15 105h870l46 324h-872l15 105h991l-60 -429h650l-14 -105h-1641zM1599 0l890 700h155l-890 -700h-155zM4193 412l-5 -37q-7 -48 -34 -75t-89 -33q60 -6 80 -33t13 -75l-5 -37q-10 -63 -43.5 -92.5t-96.5 -29.5h-1598l14 105h1557q25 0 36 10t15 35l3 20
q4 25 -5 35t-32 10h-1465l15 104h1464q23 0 34.5 10.5t15.5 34.5l3 20q3 25 -5.5 35t-32.5 10h-1557l15 105h1598q64 0 89 -29.5t16 -92.5z" />
    <glyph glyph-name="twothirds" unicode="&#x2154;" horiz-adv-x="4229" 
d="M1684 530l3 20q3 25 -5.5 35t-32.5 10h-1538l15 105h1577q64 0 90 -30.5t17 -94.5l-10 -70q-9 -63 -43.5 -93.5t-97.5 -30.5h-1413q-37 0 -52.5 -14t-20.5 -50l-7 -46h1601l-15 -105h-1720l23 168q22 151 173 151h1406q24 0 35 10t15 35zM1599 0l890 700h155l-890 -700
h-155zM4193 412l-5 -37q-7 -48 -34 -75t-89 -33q60 -6 80 -33t13 -75l-5 -37q-10 -63 -43.5 -92.5t-96.5 -29.5h-1598l14 105h1557q25 0 36 10t15 35l3 20q4 25 -5 35t-32 10h-1465l15 104h1464q23 0 34.5 10.5t15.5 34.5l3 20q3 25 -5.5 35t-32.5 10h-1557l15 105h1598
q64 0 89 -29.5t16 -92.5z" />
    <glyph glyph-name="partialdiff" unicode="&#x2202;" 
d="M3324 460v-287q0 -88 -42 -130.5t-131 -42.5h-2921q-89 0 -131 42.5t-42 129.5v68q0 87 42 129.5t131 42.5h2952v51q0 113 -112 113h-2983v124h2996q118 0 179.5 -61t61.5 -179zM199 221v-29q0 -37 15.5 -52.5t50.5 -15.5h2849q37 0 52.5 16t15.5 54v94h-2917
q-35 0 -50.5 -15.5t-15.5 -51.5z" />
    <glyph glyph-name="uni2206" unicode="&#x2206;" 
d="M3349 0h-3307l1653 738zM1695 603l-1074 -479h2149z" />
    <glyph glyph-name="product" unicode="&#x220f;" 
d="M3180 -132v708h-2968v-708h-142v832h3252v-832h-142z" />
    <glyph glyph-name="summation" unicode="&#x2211;" 
d="M3322 -8v-124h-3253v103l1047 313l-1047 313v103h3253v-124h-2747l974 -292l-974 -292h2747z" />
    <glyph glyph-name="minus" unicode="&#x2212;" 
d="M70 291v118h3252v-118h-3252z" />
    <glyph glyph-name="radical" unicode="&#x221a;" 
d="M2386 0l-354 291h-1962v118h2010l372 -307l724 598h188l-846 -700h-132z" />
    <glyph glyph-name="infinity" unicode="&#x221e;" horiz-adv-x="733" 
d="M345 317q-12 0 -23.5 12.5t-14.5 12.5t-11 -2t-14 -2q-8 0 -14.5 8t-6.5 17q0 22 8 35q-7 -7 -16 -37t-26 -41q-18 -12 -18 -40q0 -11 11 -21.5t11 -12.5q0 -4 -3 -4q-7 0 -12 5q13 -68 48 -104h-55q-35 114 -35 226q0 105 40.5 171.5t135.5 66.5q190 0 190 -254
q0 -75 -25 -210h-73q53 47 62 117q-4 -8 -13 -8q-3 0 -3 2l4 4q5 3 9.5 11.5t4.5 21.5q-4 -6 -15 -6q-1 0 -10.5 -4.5t-15.5 -4.5q-14 0 -40 3.5t-70 3.5q-22 0 -52.5 -6t-38.5 -6q-5 0 -13 2t-11 2q-28 0 -28 12q0 10 37 18.5t74 8.5q5 0 12 -0.5t12 -0.5t15.5 2t14.5 2
q112 0 127 -20q-1 16 -14 29t-30 13q-6 0 -6 7q0 57 -16 58q4 -7 4 -17q0 -18 -11 -32t-27 -14q-4 0 -10 2l-7 2q-1 0 -14.5 -14t-27.5 -14zM733 291v-148q-22 48 -69 112.5t-67 64.5q6 -85 -12 -177h-42q16 104 16 199q0 319 -213 319q-53 0 -91.5 -26.5t-59 -72.5
t-30 -97.5t-9.5 -111.5q0 -123 29 -210h-47q-19 67 -19 184q-17 -9 -39.5 -43.5t-49 -84.5t-30.5 -56v148q11 27 33 54t50 53.5t30 28.5q3 72 27 135t75.5 107.5t120.5 44.5q67 0 115.5 -22.5t76.5 -64t42.5 -87t22.5 -105.5q22 -5 68 -48t72 -96zM345 503q-3 3 -3 6
q0 2 2 2q1 0 6 -4.5t15 -8.5t22 -4q16 0 29 4t20 8l6 5q4 0 4 -2l-8 -8q24 0 52 -11q-29 80 -139 80q-55 0 -92 -33t-50 -85q37 20 41 39q-6 4 -6 7q0 4 3 4l2 -2q2 -1 6.5 -3.5t10 -5t13.5 -4t17 -1.5q24 0 49 17zM371 416q0 20 -4.5 40t-9.5 20q-10 0 -19 -39t-14 -39
q-3 0 -9.5 3t-11.5 3q-13 0 -21 -10.5t-8 -24.5t11 -14t18 6.5t9 6.5t12 -13.5t20 -13.5q14 0 25 10.5t12 10.5q3 0 10 -3.5t9 -3.5q10 0 18 11t8 24q0 10 -6 18t-16 8q-7 0 -14.5 -6.5t-11.5 -6.5q-7 0 -7 13zM510 318q0 95 -12 147l-5 3q0 -21 -18 -32t-41 -11
q-21 0 -37 12.5t-16 29.5q0 6 2 9q-12 2 -15 4q6 -9 10 -24t5.5 -24t4.5 -9q7 2 15 2q19 0 31 -14q34 0 34 -51q0 -3 8 -7t18.5 -13t15.5 -22zM383 310q-1 0 -8 -1t-15.5 -2t-13.5 -1t-13 1.5t-11 1.5q-15 0 -36 -4t-35 -9t-14 -8q0 -10 20 -10q24 0 54 6.5t44 6.5
q19 0 57.5 -3.5t52.5 -3.5q5 0 9.5 2t7.5 4t3 3q0 5 -36 11t-66 6zM267 413q-18 0 -31 10t-15 21q-4 -2 -15 -5q-4 -21 -4 -43q0 -50 3 -78q4 6 22 22t20 31q5 37 38 41q12 5 23 5q5 0 8.5 8.5t9.5 24.5t16 28l-13 -4q-1 -24 -18.5 -42.5t-43.5 -18.5zM419 465q-13 0 -16 13
q-5 0 -8.5 -5.5t-3.5 -9.5q0 -10 15 -17t31 -7q14 0 29 8.5t15 21.5q0 8 -14.5 12.5t-28.5 4.5q-5 -21 -19 -21zM267 427q14 0 30 11t16 24q0 6 -1 9q-20 0 -27 1q-5 -14 -18 -14q-10 0 -15 5q-4 -4 -18 -12q4 -24 33 -24zM266 288q-2 0 -2 3q0 12 107 12q93 0 93 -8
q0 -3 -3 -3q-1 0 -4 0.5t-10 1t-16 1.5t-24.5 1.5t-33.5 0.5q-36 0 -61 -2.5t-36 -4.5zM305 262q0 10 63 10q31 0 31 -8q0 -3 -2 -3q-4 0 -10 2t-10 2q-11 0 -26 -0.5t-20 -0.5q-4 0 -11.5 -3t-10.5 -3q-4 0 -4 4zM417 473q9 0 9 13q-1 0 -16 -6q0 -7 7 -7zM266 466
q7 0 10 9q-6 1 -11 4q0 -4 -6 -10q1 -3 7 -3zM325 34l-3 48l-10 -82h-21l15 125h25l4 -60l21 60h26l-15 -125h-22l10 82l-16 -48h-14zM21 125h35q23 0 20 -21l-10 -82q-3 -22 -22 -22h-38zM282 44q-1 -12 -10 -17l8 -27h-21l-7 23h-7l-3 -23h-22l15 125h36q21 0 18 -24z
M183 0l3 23h-14l-3 -23h-21l12 104q2 21 22 21h17q19 0 18 -21l-12 -104h-22zM594 0l15 125h35q23 0 20 -21l-8 -62q-3 -19 -22 -19h-15l-3 -23h-22zM111 0l3 23h-13l-3 -23h-22l15 125h22l-10 -83h13l10 83h22l-15 -125h-22zM539 125h22l-10 -79q0 -4 4 -4h5q5 0 5 4l9 79
h22l-10 -81q-3 -21 -19 -21l-9 -23h-23l9 23q-18 0 -15 21zM477 106l3 19h50l-3 -19h-13l-12 -106h-23l12 106h-14zM41 106l-11 -88h11q3 0 3 4l9 80q0 4 -4 4h-8zM629 106l-8 -64h8q5 0 5 4l7 56q0 4 -4 4h-8zM174 42h14l7 60q0 4 -4 4h-5q-5 0 -5 -4zM255 106l-8 -64h8
q5 0 5 4l7 56q0 4 -3 4h-9zM711 57l-3 -18h-19l-3 -21h27l-2 -18h-49l15 125h47l-3 -19h-24l-6 -49h20zM417 0l3 23h-14l-3 -23h-21l12 104q2 21 22 21h17q19 0 18 -21l-12 -104h-22zM408 42h14l7 60q0 4 -4 4h-5q-5 0 -5 -4z" />
    <glyph glyph-name="integral" unicode="&#x222b;" 
d="M1893 499l-286 -490q-46 -80 -97.5 -110.5t-147.5 -30.5h-1292v124h1297q48 0 78 17t55 60l285 490q47 80 98.5 110.5t147.5 30.5h1291v-124h-1296q-49 0 -78.5 -17t-54.5 -60z" />
    <glyph glyph-name="approxequal" unicode="&#x2248;" 
d="M70 126v121q303 98 719 98q245 0 576.5 -35l663 -70t577.5 -35q413 0 716 97v-121q-305 -98 -723 -98q-197 0 -450 21.5t-458.5 48t-458 48t-448.5 21.5q-411 0 -714 -96zM70 398v121q303 98 719 98q245 0 576.5 -35l663 -70t577.5 -35q413 0 716 97v-121
q-305 -98 -723 -98q-197 0 -450 21.5t-458.5 48t-458 48t-448.5 21.5q-411 0 -714 -96z" />
    <glyph glyph-name="notequal" unicode="&#x2260;" 
d="M1396 0h-162l173 154h-1301v118h1433l176 156h-1609v118h1741l174 154h162l-173 -154h1275v-118h-1408l-175 -156h1583v-118h-1716z" />
    <glyph glyph-name="lessequal" unicode="&#x2264;" 
d="M70 350l359 350h158l-300 -291h3035v-118h-3035l178 -173h2857v-118h-3252v118h238z" />
    <glyph glyph-name="greaterequal" unicode="&#x2265;" 
d="M2963 700l359 -350l-238 -232h238v-118h-3252v118h2857l178 173h-3035v118h3035l-300 291h158z" />
    <glyph glyph-name="lozenge" unicode="&#x25ca;" 
d="M1695 -38l-1653 386l1653 386l1654 -386zM1695 87l1117 261l-1117 260l-1116 -260z" />
    <glyph glyph-name="commaaccent" horiz-adv-x="750" 
d="M406 -68l-11 -73q-8 -56 -41.5 -87.5t-88.5 -31.5h-48l5 41h43q24 0 36 11t15 36l2 14h-91l13 90h166z" />
    <glyph glyph-name="i.alt" horiz-adv-x="290" 
d="M35 0l84 603h137l-84 -603h-137zM305 757l-13 -90h-191l12 90h192z" />
    <glyph glyph-name="i.trk" horiz-adv-x="455" 
d="M259 119h155l-17 -119h-189q-87 0 -121.5 40.5t-22.5 127.5l61 435h137l-59 -418q-10 -66 56 -66zM311 757l-13 -90h-191l13 90h191z" />
    <glyph glyph-name="one.pnum" horiz-adv-x="585" 
d="M560 700l-98 -700h-142l80 576h-329l18 124h471z" />
    </font>
</defs>
</svg>
