<?xml version="1.0" standalone="no"?>
<!DOCTYPE svg PUBLIC "-//W3C//DTD SVG 1.1//EN" "http://www.w3.org/Graphics/SVG/1.1/DTD/svg11.dtd" >
<svg xmlns="http://www.w3.org/2000/svg" xmlns:xlink="http://www.w3.org/1999/xlink" version="1.1">
<metadata>
Created by FontForge 20170731 at Sat Mar 14 00:16:18 2015
 By ,,,
Copyright (c) 2011 by Ryoichi Tsunekawa. All rights reserved.
</metadata>
<defs>
<font id="DesignSystemF-700I" horiz-adv-x="2550" >
  <font-face 
    font-family="DesignSystemF-700I"
    font-weight="400"
    font-style="italic"
    font-stretch="normal"
    units-per-em="1000"
    panose-1="4 5 7 8 2 11 2 2 3 2"
    ascent="822"
    descent="-178"
    x-height="603"
    cap-height="700"
    bbox="-176 -252 4684.31 935"
    underline-thickness="36"
    underline-position="-156"
    slope="-8"
    unicode-range="U+0020-FB02"
  />
<missing-glyph horiz-adv-x="1203" 
d="M8 700h1203v-700h-1203v700zM74 634v-563l991 563h-991zM153 66h991v562z" />
    <glyph glyph-name="ij" unicode="ij" horiz-adv-x="574" 
d="M190 -48h68q33 0 48.5 14t20.5 47l83 590h136l-85 -611q-12 -83 -55 -121t-127 -38h-106zM396 667l13 90h182l-13 -90h-182zM30 0l84 603h137l-84 -603h-137zM296 757l-13 -90h-182l13 90h182z" />
    <glyph glyph-name="fi" unicode="fi" horiz-adv-x="2610" 
d="M305 484q-42 0 -63.5 -18t-27.5 -61l-6 -44h1892l-17 -119h-1892l-57 -409h-137l82 583q13 96 65.5 141.5t148.5 45.5h1917l-16 -119h-1889zM2435 119h126l-17 -119h-164q-84 0 -116.5 38.5t-20.5 120.5l61 444h137l-59 -422q-4 -33 8.5 -47.5t44.5 -14.5zM2486 757
l-13 -90h-182l13 90h182z" />
    <glyph glyph-name="fl" unicode="fl" horiz-adv-x="2607" 
d="M305 484q-42 0 -63.5 -18t-27.5 -61l-6 -44h1892l-17 -119h-1892l-57 -409h-137l82 583q13 96 65.5 141.5t148.5 45.5h1917l-16 -119h-1889zM2432 119h125l-16 -119h-165q-83 0 -115.5 38.5t-21.5 120.5l86 611h137l-83 -589q-5 -33 7.5 -47.5t45.5 -14.5z" />
    <glyph glyph-name=".notdef" horiz-adv-x="1203" 
d="M8 700h1203v-700h-1203v700zM74 634v-563l991 563h-991zM153 66h991v562z" />
    <glyph glyph-name=".null" horiz-adv-x="0" 
 />
    <glyph glyph-name="nonmarkingreturn" horiz-adv-x="333" 
 />
    <glyph glyph-name="space" unicode=" " horiz-adv-x="622" 
 />
    <glyph glyph-name="exclam" unicode="!" horiz-adv-x="328" 
d="M227 104l-14 -104h-182l15 104h181zM291 700l-31 -223q-22 -154 -56 -278h-109q1 129 23 278l31 223h142z" />
    <glyph glyph-name="quotedbl" unicode="&#x22;" horiz-adv-x="513" 
d="M238 700v-42q0 -110 -22 -266h-100q-21 162 -21 266v42h143zM485 700v-42q0 -110 -22 -266h-100q-21 162 -21 266v42h143z" />
    <glyph glyph-name="numbersign" unicode="#" 
d="M2219 0l7 124h-1920l-6 -124h-132l6 124h-131l7 119h130l12 214h-131l6 119h131l7 124h132l-7 -124h1919l7 124h132l-7 -124h131l-6 -119h-131l-11 -214h131l-6 -119h-131l-7 -124h-132zM324 457l-12 -214h1920l11 214h-1919z" />
    <glyph glyph-name="dollar" unicode="$" 
d="M30 169h2263q51 0 58 51l4 22q4 27 -6.5 39t-37.5 12h-2118q-75 0 -105 35.5t-20 111.5l9 63q11 77 51 112.5t114 35.5h1019l13 89h124l-13 -89h1139l-17 -119h-2238q-28 0 -41 -12t-17 -39l-3 -22q-4 -27 6 -39t38 -12h2118q75 0 104.5 -35.5t18.5 -111.5l-9 -64
q-11 -76 -50 -111.5t-114 -35.5h-1019l-13 -90h-124l13 90h-1163z" />
    <glyph glyph-name="percent" unicode="%" horiz-adv-x="3303" 
d="M1241 0l714 700h140l-714 -700h-140zM1922 125l40 284q9 64 43.5 94.5t98.5 30.5h1059q64 0 90 -30.5t17 -94.5l-40 -284q-9 -64 -43.5 -94.5t-98.5 -30.5h-1059q-64 0 -90 30.5t-17 94.5zM3114 149l33 236q4 24 -5 34t-32 10h-982q-45 0 -50 -44l-34 -236q-3 -24 6 -34
t32 -10h983q44 0 49 44zM63 291l40 284q9 64 43.5 94.5t98.5 30.5h1059q64 0 90 -30.5t17 -94.5l-40 -284q-9 -64 -43.5 -94.5t-98.5 -30.5h-1059q-64 0 -90 30.5t-17 94.5zM1255 315l33 236q4 24 -5 34t-32 10h-982q-44 0 -50 -44l-34 -236q-6 -44 38 -44h983q23 0 34.5 10
t14.5 34z" />
    <glyph glyph-name="ampersand" unicode="&#x26;" horiz-adv-x="2654" 
d="M2379 289h-2109q-35 0 -51 -14.5t-20 -50.5l-6 -37q-4 -34 8 -49t45 -15h2051q35 0 49 12.5t18 47.5zM47 160l6 45q10 68 45 103.5t108 41.5q-72 7 -96.5 42.5t-14.5 102.5l6 45q11 83 55 121.5t128 38.5h2245l-17 -123h-2202q-33 0 -50 -15t-21 -49l-5 -37
q-5 -36 6.5 -50.5t46.5 -14.5h2365l-17 -122h-114l-19 -136q-12 -82 -51.5 -117.5t-122.5 -35.5h-2142q-84 0 -117 38.5t-22 121.5z" />
    <glyph glyph-name="quotesingle" unicode="'" horiz-adv-x="267" 
d="M238 700v-42q0 -110 -22 -266h-100q-21 162 -21 266v42h143z" />
    <glyph glyph-name="parenleft" unicode="(" horiz-adv-x="373" 
d="M182 98q-5 -36 7 -50.5t47 -14.5h62l-15 -113h-95q-83 0 -116 39t-22 122l64 458q12 83 56 122t128 39h95l-16 -113h-62q-35 0 -52 -14.5t-22 -50.5z" />
    <glyph glyph-name="parenright" unicode=")" horiz-adv-x="373" 
d="M145 98l60 424q5 36 -7.5 50.5t-47.5 14.5h-62l16 113h94q84 0 117 -39t22 -122l-65 -458q-11 -83 -55.5 -122t-128.5 -39h-94l16 113h62q35 0 51.5 14.5t21.5 50.5z" />
    <glyph glyph-name="asterisk" unicode="*" horiz-adv-x="604" 
d="M335 444q101 82 172 103l70 21l26 -115l-70 -21q-46 -14 -111.5 -16t-81.5 3q31 -18 70.5 -51.5t60.5 -70.5l33 -57l-104 -71l-34 57q-38 67 -49 177q-38 -111 -94 -177l-50 -57l-90 71l49 57q59 67 165 122q-17 -5 -82 -3t-107 16l-64 21l48 115l65 -21
q42 -14 85.5 -46.5t66.5 -56.5q-33 100 -20 186l9 70h121l-10 -70q-7 -46 -31 -100.5t-43 -85.5z" />
    <glyph glyph-name="plus" unicode="+" 
d="M65 291v118h1153v256h118v-256h1154v-118h-1154v-257h-118v257h-1153z" />
    <glyph glyph-name="comma" unicode="," horiz-adv-x="325" 
d="M225 118l-16 -117q-10 -66 -49.5 -103t-105.5 -37h-42l9 66h34q27 0 41 12t18 42l3 20h-85l17 117h176z" />
    <glyph glyph-name="hyphen" unicode="-" horiz-adv-x="914" 
d="M881 388l-17 -122h-824l17 122h824z" />
    <glyph glyph-name="period" unicode="." horiz-adv-x="325" 
d="M225 118l-16 -118h-177l17 118h176z" />
    <glyph glyph-name="slash" unicode="/" horiz-adv-x="885" 
d="M32 0l659 700h168l-660 -700h-167z" />
    <glyph glyph-name="zero" unicode="0" 
d="M196 0q-84 0 -118.5 40.5t-23.5 124.5l52 370q12 84 58 124.5t130 40.5h2095q85 0 119.5 -40.5t22.5 -124.5l-52 -370q-22 -165 -188 -165h-2095zM2341 190l45 320q5 36 -8 51t-47 15h-2013q-35 0 -51.5 -15t-21.5 -51l-45 -320q-5 -36 7.5 -51t47.5 -15h2012q35 0 52 15
t22 51z" />
    <glyph glyph-name="one" unicode="1" 
d="M1831 700l-81 -576h711l-17 -124h-2358l17 124h1509l63 452h-1509l18 124h1647z" />
    <glyph glyph-name="two" unicode="2" 
d="M2372 512q5 35 -7.5 49.5t-46.5 14.5h-2200l18 124h2241q84 0 118 -40t22 -123l-12 -85q-11 -84 -56.5 -124t-129.5 -40h-2040q-49 0 -71 -19t-29 -68l-11 -77h2307l-17 -124h-2449l30 213q27 199 226 199h2030q34 0 50.5 14.5t21.5 48.5z" />
    <glyph glyph-name="three" unicode="3" 
d="M2286 288h-2123l17 124h2124q34 0 50.5 14.5t21.5 49.5l5 36q4 34 -8 49t-45 15h-2241l17 124h2285q84 0 116.5 -38.5t21.5 -121.5l-6 -45q-10 -68 -45 -103.5t-108 -41.5q72 -7 96.5 -42.5t14.5 -102.5l-6 -45q-11 -83 -54.5 -121.5t-127.5 -38.5h-2285l18 124h2241
q33 0 49.5 15t20.5 49l5 36q5 35 -7 49.5t-47 14.5z" />
    <glyph glyph-name="four" unicode="4" 
d="M2361 412l41 288h142l-98 -700h-142l40 288h-2120q-85 0 -119.5 40.5t-22.5 124.5l35 247h142l-31 -223q-5 -36 7 -50.5t47 -14.5h2079z" />
    <glyph glyph-name="five" unicode="5" 
d="M69 288l58 412h2399l-18 -124h-2256l-23 -164h2120q84 0 118.5 -40t23.5 -124l-12 -85q-12 -83 -57.5 -123t-129.5 -40h-2273l18 124h2233q33 0 49.5 15t20.5 49l5 37q5 34 -7 48.5t-46 14.5h-2223z" />
    <glyph glyph-name="six" unicode="6" 
d="M237 469l-8 -57h2131q84 0 118.5 -40t23.5 -124l-12 -85q-12 -83 -57.5 -123t-129.5 -40h-2109q-85 0 -119 40.5t-23 123.5l43 307q16 112 82.5 170.5t179.5 58.5h2180l-18 -124h-2161q-105 0 -121 -107zM2303 288h-2091l-14 -99q-5 -35 7 -50t47 -15h2029q33 0 49.5 15
t20.5 49l5 37q5 34 -7 48.5t-46 14.5z" />
    <glyph glyph-name="seven" unicode="7" 
d="M2289 412q47 0 68.5 18.5t28.5 66.5l11 79h-2331l18 124h2473l-30 -216q-29 -196 -224 -196h-1206q-47 0 -68.5 -18.5t-28.5 -66.5l-28 -203h-142l30 216q27 196 223 196h1206z" />
    <glyph glyph-name="eight" unicode="8" 
d="M2539 540l-6 -45q-9 -67 -44 -102.5t-108 -42.5q71 -7 95.5 -42.5t15.5 -102.5l-7 -45q-11 -83 -54.5 -121.5t-127.5 -38.5h-2119q-83 0 -116 38.5t-22 121.5l6 45q10 68 45 103.5t108 41.5q-72 7 -96.5 42.5t-14.5 102.5l5 45q12 83 56 121.5t127 38.5h2119
q84 0 116.5 -38.5t21.5 -121.5zM286 412h2030q34 0 50.5 14.5t21.5 49.5l5 36q4 34 -8 49t-45 15h-2032q-33 0 -49.5 -15t-20.5 -49l-5 -36q-5 -35 7 -49.5t46 -14.5zM2299 288h-2030q-34 0 -50.5 -14.5t-21.5 -49.5l-5 -36q-4 -34 8 -49t45 -15h2032q33 0 49.5 15t20.5 49
l5 36q5 35 -7 49.5t-46 14.5z" />
    <glyph glyph-name="nine" unicode="9" 
d="M2381 700q84 0 118.5 -40.5t22.5 -123.5l-43 -307q-16 -113 -82.5 -171t-178.5 -58h-2180l17 124h2161q107 0 121 107l8 57h-2131q-84 0 -118.5 40t-23.5 124l12 85q12 83 58 123t130 40h2109zM223 512l-5 -37q-5 -34 7 -48.5t45 -14.5h2092l14 99q5 35 -7 50t-47 15
h-2028q-34 0 -50.5 -15t-20.5 -49z" />
    <glyph glyph-name="colon" unicode=":" horiz-adv-x="325" 
d="M289 578l-16 -118h-177l17 118h176zM225 118l-16 -118h-177l17 118h176z" />
    <glyph glyph-name="semicolon" unicode=";" horiz-adv-x="325" 
d="M225 118l-16 -117q-10 -66 -49.5 -103t-105.5 -37h-42l9 66h34q27 0 41 12t18 42l3 20h-85l17 117h176zM289 578l-16 -118h-177l17 118h176z" />
    <glyph glyph-name="less" unicode="&#x3c;" 
d="M65 350l309 315h156l-254 -256h2214v-118h-2214l254 -257h-156z" />
    <glyph glyph-name="equal" unicode="=" 
d="M98 155v118h2360v-118h-2360zM98 427v118h2360v-118h-2360z" />
    <glyph glyph-name="greater" unicode="&#x3e;" 
d="M2181 665l309 -315l-309 -316h-156l254 257h-2214v118h2214l-254 256h156z" />
    <glyph glyph-name="question" unicode="?" horiz-adv-x="2510" 
d="M2355 475l6 37q4 34 -8.5 49t-45.5 15h-2241l18 124h2282q84 0 118 -40t22 -123l-12 -85q-11 -84 -57 -124t-130 -40h-1036q-31 0 -44 -11.5t-17 -42.5l-6 -42h-142l11 75q11 76 49.5 110.5t114.5 34.5h1047q33 0 50 14.5t21 48.5zM1211 104l-14 -104h-181l14 104h181z
" />
    <glyph glyph-name="at" unicode="@" horiz-adv-x="2522" 
d="M211 0q-168 0 -144 166l52 368q12 84 58 125t132 41h2064q86 0 120.5 -41t23.5 -125l-52 -368q-12 -84 -58 -125t-132 -41h-2064zM224 60h2055q103 0 118 103l52 374q7 52 -14 77.5t-74 25.5h-2056q-104 0 -117 -103l-53 -374q-15 -103 89 -103zM2201 188h-1867
q-76 0 -64 77l5 36q10 76 85 76h1886l6 48q5 30 -25 30h-1916l7 56h1926q86 0 74 -86l-22 -153q-12 -84 -95 -84zM368 322q-25 0 -28 -24l-4 -29q-4 -25 21 -25h1843q26 0 31 28l7 50h-1870z" />
    <glyph glyph-name="A" unicode="A" horiz-adv-x="2578" 
d="M2466 0h-142l40 288h-2154l-40 -288h-142l75 535q12 84 58 124.5t130 40.5h2107q85 0 119.5 -40.5t23.5 -124.5zM2340 576h-2026q-35 0 -51.5 -15t-20.5 -51l-15 -98h2154l14 98q5 36 -7.5 51t-47.5 15z" />
    <glyph glyph-name="B" unicode="B" horiz-adv-x="2570" 
d="M2500 205l-6 -45q-11 -83 -54.5 -121.5t-127.5 -38.5h-2278l98 700h2278q84 0 116.5 -38.5t20.5 -121.5l-6 -45q-9 -68 -43.5 -103.5t-108.5 -41.5q72 -7 96.5 -42.5t14.5 -102.5zM2324 412q35 0 51 14.5t21 49.5l6 36q4 34 -8.5 49t-45.5 15h-2091l-23 -164h2090z
M216 288l-22 -164h2091q33 0 49.5 15t21.5 49l5 36q5 36 -7 50t-47 14h-2091z" />
    <glyph glyph-name="C" unicode="C" horiz-adv-x="2479" 
d="M196 0q-84 0 -118.5 40.5t-23.5 124.5l52 370q12 84 58 124.5t130 40.5h2203l-17 -124h-2162q-35 0 -51.5 -15t-21.5 -51l-45 -320q-5 -36 7.5 -51t47.5 -15h2161l-17 -124h-2203z" />
    <glyph glyph-name="D" unicode="D" horiz-adv-x="2570" 
d="M2341 700q113 0 163 -58.5t34 -170.5l-34 -242q-16 -113 -82.5 -171t-178.5 -58h-2209l98 700h2209zM2241 124q107 0 121 107l33 238q16 107 -90 107h-2048l-63 -452h2047z" />
    <glyph glyph-name="E" unicode="E" horiz-adv-x="2541" 
d="M34 0l98 700h2417l-18 -124h-2274l-23 -164h2159l-17 -124h-2160l-22 -164h2274l-17 -124h-2417z" />
    <glyph glyph-name="F" unicode="F" horiz-adv-x="2508" 
d="M34 0l98 700h2405l-18 -124h-2262l-23 -164h2148l-18 -124h-2148l-40 -288h-142z" />
    <glyph glyph-name="G" unicode="G" horiz-adv-x="2567" 
d="M2293 124q34 0 48 12.5t19 47.5l15 104h-1273l17 124h1415l-36 -259q-12 -82 -51.5 -117.5t-122.5 -35.5h-2128q-84 0 -118.5 40.5t-23.5 124.5l52 370q12 84 58 124.5t130 40.5h2256l-18 -124h-2214q-35 0 -51.5 -15t-21.5 -51l-45 -320q-5 -36 7.5 -51t47.5 -15h2038z
" />
    <glyph glyph-name="H" unicode="H" horiz-adv-x="2603" 
d="M2342 0l40 288h-2166l-40 -288h-142l98 700h142l-40 -288h2165l41 288h142l-98 -700h-142z" />
    <glyph glyph-name="I" unicode="I" horiz-adv-x="295" 
d="M34 0l98 700h142l-98 -700h-142z" />
    <glyph glyph-name="J" unicode="J" horiz-adv-x="2554" 
d="M40 153l27 189h142l-23 -158q-5 -35 5.5 -47.5t44.5 -12.5h2029q36 0 52 15t21 51l72 510h142l-75 -535q-12 -84 -58 -124.5t-130 -40.5h-2117q-83 0 -113.5 35.5t-18.5 117.5z" />
    <glyph glyph-name="K" unicode="K" horiz-adv-x="2577" 
d="M2570 700l-26 -186q-11 -76 -48.5 -116.5t-121.5 -47.5q82 -7 108.5 -48t15.5 -116l-26 -186h-142l30 216q5 38 -9 55t-51 17h-2084l-40 -288h-142l99 700h142l-41 -288h2083q38 0 56.5 17t24.5 55l30 216h142z" />
    <glyph glyph-name="L" unicode="L" horiz-adv-x="2496" 
d="M2444 125l-17 -125h-2393l98 700h142l-80 -575h2250z" />
    <glyph glyph-name="M" unicode="M" horiz-adv-x="3081" 
d="M1762 700h1140q166 0 142 -165l-75 -535h-142l71 510q5 36 -7.5 51t-47.5 15h-1124q-37 0 -55.5 -16.5t-23.5 -54.5l-70 -505h-143l71 505q5 38 -8.5 54.5t-50.5 16.5h-1125q-35 0 -51.5 -15t-20.5 -51l-72 -510h-142l75 535q12 84 58 124.5t130 40.5h1140
q79 0 113.5 -31t33.5 -100q19 69 62.5 100t121.5 31z" />
    <glyph glyph-name="N" unicode="N" horiz-adv-x="2578" 
d="M314 576q-35 0 -51.5 -15t-20.5 -51l-72 -510h-142l75 535q12 84 58 124.5t130 40.5h2107q85 0 119.5 -40.5t23.5 -124.5l-75 -535h-142l71 510q5 36 -7.5 51t-47.5 15h-2026z" />
    <glyph glyph-name="O" unicode="O" horiz-adv-x="2570" 
d="M196 0q-84 0 -118.5 40.5t-23.5 124.5l52 370q12 84 58 124.5t130 40.5h2115q85 0 119.5 -40.5t22.5 -124.5l-52 -370q-22 -165 -188 -165h-2115zM2361 189l45 321q5 36 -8 51t-47 15h-2033q-34 0 -51 -15t-22 -51l-45 -320q-5 -36 7.5 -51t47.5 -15h2032q35 0 52 15
t22 50z" />
    <glyph glyph-name="P" unicode="P" horiz-adv-x="2543" 
d="M34 0l98 700h2267q84 0 118 -40t22 -123l-12 -86q-11 -83 -56.5 -123t-129.5 -40h-2125l-40 -288h-142zM2394 512q5 35 -7.5 49.5t-46.5 14.5h-2083l-23 -164h2083q34 0 50.5 14.5t21.5 48.5z" />
    <glyph glyph-name="Q" unicode="Q" horiz-adv-x="2570" 
d="M196 0q-84 0 -118.5 40.5t-23.5 124.5l52 370q12 84 58 124.5t130 40.5h2115q85 0 119.5 -40.5t22.5 -124.5l-52 -370q-22 -165 -188 -165h-995l-21 -149h-125l21 149h-995zM2361 189l45 321q5 36 -8 51t-47 15h-2033q-34 0 -51 -15t-22 -51l-45 -320q-5 -36 7.5 -51
t47.5 -15h954l22 153h124l-22 -153h954q35 0 52 15t22 50z" />
    <glyph glyph-name="R" unicode="R" horiz-adv-x="2577" 
d="M2547 540l-6 -45q-9 -69 -45.5 -104.5t-113.5 -41.5q76 -9 101 -49t15 -114l-26 -186h-142l30 216q5 38 -9 55t-51 17h-2084l-40 -288h-142l98 700h2278q84 0 116.5 -38.5t20.5 -121.5zM2324 412q35 0 51 14.5t21 49.5l6 36q4 34 -8.5 49t-45.5 15h-2091l-23 -164h2090z
" />
    <glyph glyph-name="S" unicode="S" horiz-adv-x="2527" 
d="M227 288q-84 0 -118 40t-23 124l12 85q12 83 57.5 123t129.5 40h2218l-18 -124h-2177q-34 0 -50.5 -15t-20.5 -49l-5 -37q-5 -34 7 -48.5t46 -14.5h2041q84 0 118.5 -40t22.5 -124l-11 -85q-12 -83 -57.5 -123t-129.5 -40h-2261l17 124h2221q34 0 50.5 15t20.5 49l5 37
q5 34 -7 48.5t-46 14.5h-2042z" />
    <glyph glyph-name="T" unicode="T" horiz-adv-x="2499" 
d="M2528 700l-18 -124h-1151l-80 -576h-142l80 576h-1152l18 124h2445z" />
    <glyph glyph-name="U" unicode="U" horiz-adv-x="2578" 
d="M217 0q-166 0 -142 165l75 535h142l-71 -510q-5 -36 7 -51t47 -15h2026q35 0 51.5 15t21.5 51l72 510h142l-75 -535q-12 -84 -58 -124.5t-131 -40.5h-2107z" />
    <glyph glyph-name="V" unicode="V" horiz-adv-x="2566" 
d="M34 0l98 700h142l-80 -576h2034q106 0 120 107l66 469h142l-66 -471q-16 -113 -82.5 -171t-178.5 -58h-2195z" />
    <glyph glyph-name="W" unicode="W" horiz-adv-x="3081" 
d="M2828 0h-1140q-79 0 -114 31.5t-34 99.5q-18 -69 -61 -100t-122 -31h-1140q-166 0 -142 165l75 535h142l-71 -510q-5 -36 7 -51t47 -15h1125q37 0 55 16.5t23 54.5l71 505h143l-72 -505q-5 -37 9 -54t51 -17h1124q35 0 52 15t21 51l72 510h142l-75 -535
q-12 -84 -58 -124.5t-130 -40.5z" />
    <glyph glyph-name="X" unicode="X" horiz-adv-x="2571" 
d="M93 514l26 186h142l-30 -216q-5 -38 8.5 -55t50.5 -17h2022q37 0 56 17t24 55l30 216h142l-26 -186q-10 -76 -48 -116.5t-121 -47.5q81 -7 107.5 -48t15.5 -116l-26 -186h-142l30 216q5 38 -8.5 55t-50.5 17h-2022q-37 0 -56 -17t-24 -55l-30 -216h-142l26 186
q11 75 48.5 116t120.5 48q-82 7 -108 47.5t-15 116.5z" />
    <glyph glyph-name="Y" unicode="Y" horiz-adv-x="2546" 
d="M2424 700h142l-35 -247q-12 -84 -58 -124.5t-130 -40.5h-989l-40 -288h-142l40 288h-989q-84 0 -118.5 40.5t-22.5 124.5l35 247h142l-32 -223q-5 -36 7.5 -50.5t47.5 -14.5h2037q35 0 51.5 14.5t21.5 50.5z" />
    <glyph glyph-name="Z" unicode="Z" horiz-adv-x="2532" 
d="M2263 412q49 0 71 19t29 68l11 77h-2256l18 124h2398l-30 -213q-29 -199 -228 -199h-1997q-49 0 -71 -19t-29 -68l-11 -77h2285l-17 -124h-2427l30 213q27 199 226 199h1998z" />
    <glyph glyph-name="bracketleft" unicode="[" horiz-adv-x="389" 
d="M132 700h265l-15 -106h-143l-80 -568h143l-15 -106h-265z" />
    <glyph glyph-name="backslash" unicode="\" horiz-adv-x="885" 
d="M199 700l660 -700h-168l-659 700h167z" />
    <glyph glyph-name="bracketright" unicode="]" horiz-adv-x="389" 
d="M104 700h265l-110 -780h-265l15 106h143l80 568h-143z" />
    <glyph glyph-name="asciicircum" unicode="^" 
d="M1278 717l1212 -310v-122l-1212 310l-1213 -310v122z" />
    <glyph glyph-name="underscore" unicode="_" horiz-adv-x="1203" 
d="M1161 -38v-84h-1203v84h1203z" />
    <glyph glyph-name="grave" unicode="`" horiz-adv-x="600" 
d="M407 658l-266 110h211l208 -110h-153z" />
    <glyph glyph-name="a" unicode="a" horiz-adv-x="2288" 
d="M2112 357l8 62q10 65 -54 65h-1957l16 119h1997q84 0 117 -39.5t21 -123.5l-39 -277q-11 -84 -55 -123.5t-128 -39.5h-1881q-74 0 -104.5 35.5t-20.5 111.5l9 62q10 76 50.5 112t115.5 36h1905zM2096 246h-1862q-27 0 -40.5 -11.5t-17.5 -38.5l-4 -26q-4 -27 6.5 -39
t37.5 -12h1798q65 0 74 69z" />
    <glyph glyph-name="b" unicode="b" horiz-adv-x="2285" 
d="M56 163l85 607h137l-35 -248q17 42 52 61.5t95 19.5h1732q83 0 116 -39.5t22 -123.5l-39 -277q-11 -84 -55.5 -123.5t-127.5 -39.5h-1843q-84 0 -117.5 39.5t-21.5 123.5zM228 419l-33 -235q-5 -34 8.5 -49.5t47.5 -15.5h1762q34 0 51.5 15.5t22.5 49.5l33 235
q5 34 -8.5 49.5t-47.5 15.5h-1762q-34 0 -51.5 -15.5t-22.5 -49.5z" />
    <glyph glyph-name="c" unicode="c" horiz-adv-x="2217" 
d="M187 0q-84 0 -117 39.5t-22 123.5l39 277q12 84 56 123.5t128 39.5h1953l-17 -119h-1912q-65 0 -74 -65l-33 -235q-10 -65 56 -65h1912l-16 -119h-1953z" />
    <glyph glyph-name="d" unicode="d" horiz-adv-x="2285" 
d="M2299 770l-85 -607q-12 -84 -56.5 -123.5t-128.5 -39.5h-1843q-83 0 -116 39.5t-22 123.5l39 277q12 84 56 123.5t127 39.5h1732q60 0 89.5 -19.5t35.5 -61.5l35 248h137zM2080 184l33 235q5 34 -8.5 49.5t-47.5 15.5h-1762q-34 0 -51.5 -15.5t-22.5 -49.5l-33 -235
q-5 -34 8.5 -49.5t47.5 -15.5h1762q34 0 51.5 15.5t22.5 49.5z" />
    <glyph glyph-name="e" unicode="e" horiz-adv-x="2288" 
d="M2269 393q-10 -76 -51 -111.5t-115 -35.5h-1906l-9 -62q-8 -65 56 -65h1956l-16 -119h-1996q-87 0 -118 42t-19 132l37 266q12 83 56.5 123t127.5 40h1881q74 0 104.5 -35.5t20.5 -111.5zM2094 484h-1798q-38 0 -54.5 -18.5t-22.5 -61.5l-6 -47h1863q27 0 40.5 11.5
t17.5 38.5l3 23q4 29 -5 41.5t-38 12.5z" />
    <glyph glyph-name="f" unicode="f" horiz-adv-x="2196" 
d="M305 484q-42 0 -63.5 -18t-27.5 -61l-6 -44h1892l-17 -119h-1892l-57 -409h-137l82 583q13 96 65.5 141.5t148.5 45.5h1917l-16 -119h-1889z" />
    <glyph glyph-name="g" unicode="g" horiz-adv-x="2285" 
d="M2002 169q34 0 51 15.5t22 49.5l26 185q10 65 -54 65h-1763q-65 0 -75 -65l-26 -185q-9 -65 56 -65h1763zM1913 49h-1730q-84 0 -117 39.5t-22 123.5l32 228q12 84 56.5 123.5t128.5 39.5h1841q84 0 117.5 -39.5t21.5 -123.5l-55 -392q-16 -111 -75 -163t-170 -52h-1910
l17 119h1894q50 0 75 21.5t32 72.5l12 84q-35 -81 -148 -81z" />
    <glyph glyph-name="h" unicode="h" horiz-adv-x="2291" 
d="M2107 419q5 34 -8 49.5t-48 15.5h-1755q-64 0 -74 -65l-58 -419h-137l108 770h137l-35 -248q17 42 52 61.5t95 19.5h1725q83 0 116 -39.5t22 -123.5l-61 -440h-137z" />
    <glyph glyph-name="i" unicode="i" horiz-adv-x="415" 
d="M251 119h126l-17 -119h-164q-84 0 -116.5 38.5t-20.5 120.5l61 444h137l-59 -422q-4 -33 8.5 -47.5t44.5 -14.5zM302 757l-13 -90h-182l13 90h182z" />
    <glyph glyph-name="j" unicode="j" horiz-adv-x="293" 
d="M-91 -48h68q33 0 48.5 14t20.5 47l83 590h136l-85 -611q-12 -83 -55 -121t-127 -38h-106zM115 667l13 90h182l-13 -90h-182z" />
    <glyph glyph-name="k" unicode="k" horiz-adv-x="2282" 
d="M2106 416l26 187h137l-22 -161q-9 -63 -42.5 -98t-97.5 -43q62 -7 85.5 -42t14.5 -98l-22 -161h-137l26 187q7 55 -48 55h-1828l-34 -242h-137l108 770h137l-58 -409h1828q57 0 64 55z" />
    <glyph glyph-name="l" unicode="l" horiz-adv-x="411" 
d="M247 119h125l-16 -119h-165q-83 0 -115.5 38.5t-21.5 120.5l86 611h137l-83 -589q-5 -33 7.5 -47.5t45.5 -14.5z" />
    <glyph glyph-name="m" unicode="m" horiz-adv-x="2733" 
d="M1391 479q16 66 55.5 95t113.5 29h991q83 0 116 -39.5t22 -123.5l-62 -440h-136l58 419q5 34 -8 49.5t-48 15.5h-973q-60 0 -68 -61l-59 -423h-137l59 423q9 61 -51 61h-974q-34 0 -51.5 -15.5t-22.5 -49.5l-58 -419h-137l61 440q12 84 56.5 123.5t127.5 39.5h990
q75 0 106.5 -29t28.5 -95z" />
    <glyph glyph-name="n" unicode="n" horiz-adv-x="2284" 
d="M21 0l61 440q12 84 56.5 123.5t127.5 39.5h1836q83 0 116.5 -39.5t21.5 -123.5l-61 -440h-137l58 419q5 34 -8 49.5t-47 15.5h-1755q-34 0 -51.5 -15.5t-22.5 -49.5l-58 -419h-137z" />
    <glyph glyph-name="o" unicode="o" horiz-adv-x="2278" 
d="M2113 603q84 0 117 -39.5t22 -123.5l-39 -277q-11 -84 -55.5 -123.5t-128.5 -39.5h-1842q-84 0 -117 39.5t-22 123.5l39 277q12 84 56 123.5t128 39.5h1842zM2005 119q34 0 51.5 15.5t22.5 49.5l33 235q5 34 -8.5 49.5t-47.5 15.5h-1761q-65 0 -74 -65l-33 -235
q-10 -65 56 -65h1761z" />
    <glyph glyph-name="p" unicode="p" horiz-adv-x="2285" 
d="M-3 -167l85 607q12 84 56.5 123.5t128.5 39.5h1843q83 0 116 -39.5t22 -123.5l-39 -277q-12 -84 -56 -123.5t-127 -39.5h-1732q-60 0 -89.5 19.5t-35.5 61.5l-35 -248h-137zM216 419l-33 -235q-5 -34 8.5 -49.5t47.5 -15.5h1762q34 0 51.5 15.5t22.5 49.5l33 235
q5 34 -8.5 49.5t-47.5 15.5h-1762q-34 0 -51.5 -15.5t-22.5 -49.5z" />
    <glyph glyph-name="q" unicode="q" horiz-adv-x="2285" 
d="M2253 440l-85 -607h-137l35 248q-18 -42 -52.5 -61.5t-94.5 -19.5h-1732q-83 0 -116.5 39.5t-21.5 123.5l39 277q12 84 56 123.5t127 39.5h1843q84 0 117.5 -39.5t21.5 -123.5zM2081 184l33 235q5 34 -8.5 49.5t-47.5 15.5h-1762q-34 0 -51.5 -15.5t-22.5 -49.5l-33 -235
q-5 -34 8.5 -49.5t47.5 -15.5h1762q34 0 51.5 15.5t22.5 49.5z" />
    <glyph glyph-name="r" unicode="r" horiz-adv-x="2093" 
d="M2107 603l-16 -119h-1801q-64 0 -74 -65l-58 -419h-137l61 440q12 84 56.5 123.5t128.5 39.5h1840z" />
    <glyph glyph-name="s" unicode="s" horiz-adv-x="2258" 
d="M2210 484h-1948q-52 0 -59 -51l-3 -25q-4 -28 6.5 -39.5t37.5 -11.5h1834q74 0 103.5 -36t19.5 -112l-9 -62q-10 -76 -50.5 -111.5t-114.5 -35.5h-2021l16 119h1978q51 0 58 51l4 25q4 28 -6 39.5t-38 11.5h-1833q-74 0 -104 35.5t-20 111.5l9 63q10 76 50.5 111.5
t114.5 35.5h1991z" />
    <glyph glyph-name="t" unicode="t" horiz-adv-x="2128" 
d="M196 0q-84 0 -118 39.5t-22 123.5l85 607h137l-24 -167h1881l-16 -119h-1882l-42 -300q-5 -34 8.5 -49.5t47.5 -15.5h1817l-17 -119h-1855z" />
    <glyph glyph-name="u" unicode="u" horiz-adv-x="2284" 
d="M2006 119q34 0 51 15.5t22 49.5l59 419h137l-61 -440q-13 -84 -57 -123.5t-127 -39.5h-1836q-83 0 -116.5 39.5t-21.5 123.5l61 440h137l-59 -419q-5 -34 8.5 -49.5t47.5 -15.5h1755z" />
    <glyph glyph-name="v" unicode="v" horiz-adv-x="2277" 
d="M2259 603l-55 -391q-15 -110 -72.5 -161t-167.5 -51h-1937l84 603h137l-68 -484h1781q49 0 74.5 21.5t32.5 71.5l54 391h137z" />
    <glyph glyph-name="w" unicode="w" horiz-adv-x="2733" 
d="M1353 124q-16 -66 -55 -95t-114 -29h-990q-83 0 -116.5 39.5t-21.5 123.5l61 440h137l-59 -419q-5 -34 8.5 -49.5t47.5 -15.5h974q59 0 68 61l59 423h137l-60 -423q-8 -61 52 -61h973q35 0 52 15.5t22 49.5l59 419h136l-61 -440q-12 -84 -56 -123.5t-127 -39.5h-991
q-74 0 -106 29t-29 95z" />
    <glyph glyph-name="x" unicode="x" horiz-adv-x="2291" 
d="M2116 416l26 187h137l-23 -161q-8 -63 -41.5 -98t-97.5 -43q62 -7 85.5 -42t14.5 -98l-22 -161h-137l26 187q7 55 -48 55h-1797q-57 0 -64 -55l-26 -187h-136l22 161q8 63 41.5 98t97.5 42q-62 8 -85.5 43t-14.5 98l23 161h136l-25 -187q-9 -55 48 -55h1796q57 0 64 55z
" />
    <glyph glyph-name="y" unicode="y" horiz-adv-x="2291" 
d="M1941 -167h-1904l17 119h1887q50 0 75.5 21.5t32.5 72.5l12 84q-19 -42 -54 -61.5t-95 -19.5h-1723q-84 0 -117 39.5t-22 123.5l55 391h137l-52 -369q-9 -65 56 -65h1755q34 0 51.5 15.5t22.5 49.5l52 369h136l-78 -555q-16 -111 -74.5 -163t-169.5 -52z" />
    <glyph glyph-name="z" unicode="z" horiz-adv-x="2263" 
d="M246 246q-38 0 -57 -17t-24 -54l-8 -56h2032l-16 -119h-2169l23 169q27 188 215 188h1773q38 0 57 17t24 54l8 56h-2008l16 119h2145l-24 -169q-25 -188 -214 -188h-1773z" />
    <glyph glyph-name="braceleft" unicode="{" horiz-adv-x="410" 
d="M271 522l-13 -92q-9 -60 -37 -89.5t-83 -30.5q55 -1 74.5 -30.5t11.5 -89.5l-13 -92q-5 -36 7 -50.5t47 -14.5h63l-16 -113h-94q-84 0 -117 39t-22 122l18 129q4 24 -3.5 34t-31.5 10h-37l16 112h37q23 0 33.5 10t14.5 34l17 129q12 83 56.5 122t128.5 39h94l-16 -113
h-62q-35 0 -52 -14.5t-21 -50.5z" />
    <glyph glyph-name="bar" unicode="|" horiz-adv-x="319" 
d="M97 -167v907h141v-907h-141z" />
    <glyph glyph-name="braceright" unicode="}" horiz-adv-x="410" 
d="M188 430l13 92q5 36 -7.5 50.5t-47.5 14.5h-62l16 113h94q84 0 117 -39t22 -122l-18 -129q-4 -24 4 -34t31 -10h37l-16 -112h-37q-23 0 -33.5 -10t-14.5 -34l-18 -129q-11 -83 -55.5 -122t-128.5 -39h-94l16 113h62q35 0 51.5 14.5t21.5 50.5l13 92q8 60 36.5 89.5
t83.5 30.5q-55 1 -74.5 30.5t-11.5 89.5z" />
    <glyph glyph-name="asciitilde" unicode="~" 
d="M65 262v123q231 87 543 87q218 0 671 -59.5t671 -59.5q312 0 540 86v-124q-230 -86 -544 -86q-219 0 -672.5 59t-671.5 59q-310 0 -537 -85z" />
    <glyph glyph-name="uni00A0" unicode="&#xa0;" horiz-adv-x="622" 
 />
    <glyph glyph-name="exclamdown" unicode="&#xa1;" horiz-adv-x="328" 
d="M105 526l14 104h182l-15 -104h-181zM41 -70l31 223q22 154 56 278h109q-1 -129 -23 -278l-31 -223h-142z" />
    <glyph glyph-name="cent" unicode="&#xa2;" 
d="M1226 -40l13 90h-1039q-84 0 -117 39.5t-22 123.5l39 274q11 84 55.5 123.5t128.5 39.5h1039l13 90h124l-13 -90h1112l-17 -119h-1112l-51 -362h1112l-16 -119h-1112l-13 -90h-124zM256 169h999l51 362h-999q-65 0 -74 -65l-32 -232q-5 -34 8 -49.5t47 -15.5z" />
    <glyph glyph-name="sterling" unicode="&#xa3;" 
d="M338 124h2139l-17 -124h-2454l17 124h173l23 164h-173l17 124h173l18 124q12 84 57.5 124t129.5 40h2033l-18 -124h-1991q-35 0 -51.5 -14.5t-20.5 -49.5l-15 -100h2055l-17 -124h-2055z" />
    <glyph glyph-name="currency" unicode="&#xa4;" 
d="M123 488q0 84 39 123.5t123 39.5h932v89h123v-89h931q84 0 122.5 -39.5t38.5 -123.5v-78h93v-120h-93v-79q0 -84 -38.5 -123.5t-122.5 -39.5h-931v-88h-123v88h-932q-84 0 -123 39.5t-39 123.5v79h-92v120h92v78zM2231 528h-1906q-65 0 -65 -65v-227q0 -65 65 -65h1906
q65 0 65 65v227q0 65 -65 65z" />
    <glyph glyph-name="yen" unicode="&#xa5;" 
d="M2411 700h142l-21 -151q-12 -83 -57.5 -123.5t-130.5 -40.5h-987l-17 -123h1126l-18 -124h-1126l-19 -138h-142l19 138h-1125l17 124h1126l17 123h-987q-84 0 -118.5 40.5t-22.5 123.5l21 151h142l-18 -126q-5 -35 7.5 -50t47.5 -15h2033q35 0 51.5 14.5t21.5 50.5z" />
    <glyph glyph-name="brokenbar" unicode="&#xa6;" horiz-adv-x="319" 
d="M97 -167v394h141v-394h-141zM97 347v393h141v-393h-141z" />
    <glyph glyph-name="section" unicode="&#xa7;" horiz-adv-x="2492" 
d="M264 464h2067q68 0 95.5 -32t17.5 -101l-6 -45q-8 -55 -35.5 -86t-85.5 -37q56 -6 75 -36.5t11 -85.5l-4 -28q-10 -75 -50 -110t-115 -35h-2213l17 119h2171q28 0 41.5 12t17.5 40l2 16q4 26 -6 37.5t-37 11.5h-2066q-68 0 -96 32t-18 101l6 45q8 55 35 85.5t85 36.5
q-56 6 -74.5 36.5t-10.5 86.5l4 28q10 75 50.5 110t114.5 35h2213l-17 -119h-2171q-28 0 -41.5 -12t-17.5 -40l-3 -15q-3 -27 7 -38.5t37 -11.5zM2258 345h-2010q-26 0 -39 -11t-16 -37l-4 -24q-4 -27 6 -38.5t37 -11.5h2010q27 0 40 11t17 37l3 24q4 27 -6 38.5t-38 11.5z
" />
    <glyph glyph-name="dieresis" unicode="&#xa8;" horiz-adv-x="600" 
d="M240 756l-12 -89h-156l12 89h156zM642 756l-12 -89h-156l12 89h156z" />
    <glyph glyph-name="copyright" unicode="&#xa9;" horiz-adv-x="2522" 
d="M330 188q-44 0 -63.5 20.5t-19.5 63.5v155q0 43 19.5 63.5t63.5 20.5h1943v-56h-1935q-26 0 -26 -27v-157q0 -27 26 -27h1935v-56h-1943zM237 0q-86 0 -126.5 41t-40.5 125v368q0 84 40.5 125t126.5 41h2064q86 0 126.5 -41t40.5 -125v-368q0 -84 -40.5 -125t-126.5 -41
h-2064zM241 60h2056q103 0 103 103v374q0 103 -103 103h-2056q-102 0 -102 -103v-374q0 -103 102 -103z" />
    <glyph glyph-name="ordfeminine" unicode="&#xaa;" horiz-adv-x="1836" 
d="M1700 485l9 67q4 24 -4.5 33.5t-31.5 9.5h-1558l15 105h1595q64 0 90 -30.5t17 -94.5l-40 -284q-9 -64 -43.5 -94.5t-98.5 -30.5h-1492q-64 0 -90.5 30.5t-17.5 94.5l10 70q16 124 142 124h1498zM176 338l-4 -23q-3 -25 5.5 -34.5t31.5 -9.5h1418q23 0 34 9.5t15 33.5
l10 67h-1462q-23 0 -34 -10t-14 -33zM891 124l78 -124h-190z" />
    <glyph glyph-name="guillemotleft" unicode="&#xab;" horiz-adv-x="743" 
d="M382 51h-153l-199 249l269 249h161l-278 -254zM674 51h-153l-199 249l269 249h161l-278 -254z" />
    <glyph glyph-name="logicalnot" unicode="&#xac;" 
d="M65 291v118h2425v-375h-118v257h-2307z" />
    <glyph glyph-name="uni00AD" unicode="&#xad;" horiz-adv-x="914" 
d="M881 388l-17 -122h-824l17 122h824z" />
    <glyph glyph-name="registered" unicode="&#xae;" horiz-adv-x="2522" 
d="M237 0q-86 0 -126.5 41t-40.5 125v368q0 84 40.5 125t126.5 41h2064q86 0 126.5 -41t40.5 -125v-368q0 -84 -40.5 -125t-126.5 -41h-2064zM241 60h2056q103 0 103 103v374q0 103 -103 103h-2056q-102 0 -102 -103v-374q0 -103 102 -103zM2284 411q0 -56 -61 -62
q61 -6 61 -67v-94h-65v109q0 25 -23 25h-1873v-134h-66v323h1963q64 0 64 -65v-35zM2219 435q0 20 -21 20h-1875v-78h1875q21 0 21 20v38z" />
    <glyph glyph-name="macron" unicode="&#xaf;" horiz-adv-x="600" 
d="M609 676h-514l11 75h514z" />
    <glyph glyph-name="degree" unicode="&#xb0;" horiz-adv-x="1102" 
d="M64 552q0 148 156 148h707q157 0 157 -148v-96q0 -147 -157 -147h-707q-156 0 -156 147v96zM255 591q-37 0 -50.5 -14t-13.5 -50v-45q0 -37 13.5 -50.5t50.5 -13.5h638q37 0 50 13.5t13 50.5v45q0 36 -13.5 50t-49.5 14h-638z" />
    <glyph glyph-name="plusminus" unicode="&#xb1;" 
d="M65 291v118h1153v256h118v-256h1154v-118h-1154v-173h1154v-118h-2425v118h1153v173h-1153z" />
    <glyph glyph-name="twosuperior" unicode="&#xb2;" horiz-adv-x="1420" 
d="M1290 530l2 20q4 25 -4.5 35.5t-32.5 10.5h-1148l15 104h1187q64 0 89.5 -30.5t17.5 -94.5l-10 -69q-9 -64 -43 -94.5t-98 -30.5h-1023q-38 0 -54 -13.5t-20 -50.5l-7 -46h1211l-14 -105h-1331l24 168q21 151 172 151h1016q25 0 36 10t15 35z" />
    <glyph glyph-name="threesuperior" unicode="&#xb3;" horiz-adv-x="1420" 
d="M1412 578l-5 -37q-7 -48 -33 -75t-85 -33q58 -6 76 -33t11 -75l-5 -37q-9 -63 -42 -92.5t-97 -29.5h-1209l15 105h1167q25 0 36 10t14 35l4 20q3 25 -5.5 35t-31.5 10h-1080l14 104h1080q23 0 34.5 10.5t15.5 34.5l2 20q4 25 -4.5 35t-32.5 10h-1168l15 105h1209
q63 0 88 -29.5t17 -92.5z" />
    <glyph glyph-name="acute" unicode="&#xb4;" horiz-adv-x="600" 
d="M597 768l-303 -110h-156l238 110h221z" />
    <glyph glyph-name="uni00B5" unicode="&#xb5;" horiz-adv-x="2291" 
d="M245 119h1755q34 0 51.5 15.5t22.5 49.5l59 419h137l-62 -440q-12 -84 -56 -123.5t-127 -39.5h-1725q-60 0 -89.5 19.5t-35.5 61.5l-35 -248h-137l108 770h137l-58 -419q-5 -34 8 -49.5t47 -15.5z" />
    <glyph glyph-name="paragraph" unicode="&#xb6;" horiz-adv-x="2203" 
d="M2195 700l-117 -832h-133l100 713h-165l-100 -713h-133l57 407h-1488q-88 0 -124 42t-24 129l12 83q13 87 60.5 129t135.5 42h1919z" />
    <glyph glyph-name="periodcentered" unicode="&#xb7;" horiz-adv-x="325" 
d="M265 409l-16 -118h-177l17 118h176z" />
    <glyph glyph-name="cedilla" unicode="&#xb8;" horiz-adv-x="601" 
d="M229 -43h169q54 0 78 -11.5t24 -39.5q0 -48 -38 -71.5t-124 -23.5h-363l12 81h357q29 0 41 6t12 21q0 14 -34 14h-174l39 67h26z" />
    <glyph glyph-name="onesuperior" unicode="&#xb9;" horiz-adv-x="1420" 
d="M91 166l14 105h648l45 324h-648l15 105h767l-60 -429h484l-15 -105h-1250z" />
    <glyph glyph-name="ordmasculine" unicode="&#xba;" horiz-adv-x="1846" 
d="M59 291l40 284q9 64 43.5 94.5t98.5 30.5h1494q125 0 107 -125l-40 -284q-9 -64 -43.5 -94.5t-98.5 -30.5h-1494q-64 0 -90 30.5t-17 94.5zM1638 271q23 0 33.5 9.5t13.5 33.5l34 238q3 24 -5 33.5t-31 9.5h-1420q-23 0 -34 -9.5t-14 -33.5l-34 -238q-3 -24 5.5 -33.5
t31.5 -9.5h1420zM900 124l78 -124h-190z" />
    <glyph glyph-name="guillemotright" unicode="&#xbb;" horiz-adv-x="743" 
d="M152 51h-157l272 249l-202 249h157l199 -249zM444 51h-156l272 249l-202 249h156l199 -249z" />
    <glyph glyph-name="onequarter" unicode="&#xbc;" horiz-adv-x="3303" 
d="M1232 0l714 700h140l-714 -700h-140zM91 166l14 105h648l45 324h-648l15 105h767l-60 -429h484l-15 -105h-1250zM3117 319l30 215h119l-75 -534h-119l30 215h-1063q-64 0 -90 30.5t-18 93.5l28 195h119l-24 -171q-7 -44 38 -44h1025z" />
    <glyph glyph-name="onehalf" unicode="&#xbd;" horiz-adv-x="3303" 
d="M1232 0l714 700h140l-714 -700h-140zM91 166l14 105h648l45 324h-648l15 105h767l-60 -429h484l-15 -105h-1250zM3149 364l2 20q4 25 -4.5 35.5t-32.5 10.5h-1148l15 104h1187q64 0 89.5 -30.5t17.5 -94.5l-10 -69q-9 -64 -43 -94.5t-98 -30.5h-1023q-38 0 -54 -13.5
t-20 -50.5l-7 -46h1211l-14 -105h-1331l24 168q21 151 172 151h1016q25 0 36 10t15 35z" />
    <glyph glyph-name="threequarters" unicode="&#xbe;" horiz-adv-x="3303" 
d="M1232 0l714 700h140l-714 -700h-140zM3117 319l30 215h119l-75 -534h-119l30 215h-1063q-64 0 -90 30.5t-18 93.5l28 195h119l-24 -171q-7 -44 38 -44h1025zM1412 578l-5 -37q-7 -48 -33 -75t-85 -33q58 -6 76 -33t11 -75l-5 -37q-9 -63 -42 -92.5t-97 -29.5h-1209
l15 105h1167q25 0 36 10t14 35l4 20q3 25 -5.5 35t-31.5 10h-1080l14 104h1080q23 0 34.5 10.5t15.5 34.5l2 20q4 25 -4.5 35t-32.5 10h-1168l15 105h1209q63 0 88 -29.5t17 -92.5z" />
    <glyph glyph-name="questiondown" unicode="&#xbf;" horiz-adv-x="2508" 
d="M169 155l-5 -37q-5 -34 7 -49t46 -15h2241l-17 -124h-2282q-84 0 -118 40t-23 123l12 85q11 84 57 124t130 40h1037q30 0 43 11.5t17 42.5l6 42h142l-10 -75q-11 -75 -50 -110t-115 -35h-1047q-34 0 -50 -14.5t-21 -48.5zM1313 526l15 104h181l-14 -104h-182z" />
    <glyph glyph-name="Agrave" unicode="&#xc0;" horiz-adv-x="2578" 
d="M2466 0h-142l40 288h-2154l-40 -288h-142l75 535q12 84 58 124.5t130 40.5h2107q85 0 119.5 -40.5t23.5 -124.5zM2340 576h-2026q-35 0 -51.5 -15t-20.5 -51l-15 -98h2154l14 98q5 36 -7.5 51t-47.5 15zM1345 756l-266 110h211l208 -110h-153z" />
    <glyph glyph-name="Aacute" unicode="&#xc1;" horiz-adv-x="2578" 
d="M2466 0h-142l40 288h-2154l-40 -288h-142l75 535q12 84 58 124.5t130 40.5h2107q85 0 119.5 -40.5t23.5 -124.5zM2340 576h-2026q-35 0 -51.5 -15t-20.5 -51l-15 -98h2154l14 98q5 36 -7.5 51t-47.5 15zM1663 866l-303 -110h-156l238 110h221z" />
    <glyph glyph-name="Acircumflex" unicode="&#xc2;" horiz-adv-x="2578" 
d="M2466 0h-142l40 288h-2154l-40 -288h-142l75 535q12 84 58 124.5t130 40.5h2107q85 0 119.5 -40.5t23.5 -124.5zM2340 576h-2026q-35 0 -51.5 -15t-20.5 -51l-15 -98h2154l14 98q5 36 -7.5 51t-47.5 15zM1362 816l-175 -60h-140l219 110h203l188 -110h-137z" />
    <glyph glyph-name="Atilde" unicode="&#xc3;" horiz-adv-x="2578" 
d="M2466 0h-142l40 288h-2154l-40 -288h-142l75 535q12 84 58 124.5t130 40.5h2107q85 0 119.5 -40.5t23.5 -124.5zM2340 576h-2026q-35 0 -51.5 -15t-20.5 -51l-15 -98h2154l14 98q5 36 -7.5 51t-47.5 15zM1095 747l12 83q74 49 146 49q45 0 120.5 -26.5t115.5 -26.5
q65 0 135 50l-12 -83q-77 -50 -148 -50q-45 0 -120.5 26.5t-115.5 26.5q-67 0 -133 -49z" />
    <glyph glyph-name="Adieresis" unicode="&#xc4;" horiz-adv-x="2578" 
d="M2466 0h-142l40 288h-2154l-40 -288h-142l75 535q12 84 58 124.5t130 40.5h2107q85 0 119.5 -40.5t23.5 -124.5zM2340 576h-2026q-35 0 -51.5 -15t-20.5 -51l-15 -98h2154l14 98q5 36 -7.5 51t-47.5 15zM1242 854l-12 -89h-156l12 89h156zM1644 854l-12 -89h-156l12 89
h156z" />
    <glyph glyph-name="Aring" unicode="&#xc5;" horiz-adv-x="2578" 
d="M2466 0h-142l40 288h-2154l-40 -288h-142l75 535q12 84 58 124.5t130 40.5h2107q85 0 119.5 -40.5t23.5 -124.5zM2340 576h-2026q-35 0 -51.5 -15t-20.5 -51l-15 -98h2154l14 98q5 36 -7.5 51t-47.5 15zM1275 902h194q84 0 84 -59q0 -93 -106 -93h-194q-84 0 -84 59
q0 93 106 93zM1251 801h213q33 0 33 30q0 20 -26 20h-213q-33 0 -33 -30q0 -20 26 -20z" />
    <glyph glyph-name="AE" unicode="&#xc6;" horiz-adv-x="3941" 
d="M1879 0l40 288h-1709l-40 -288h-142l75 535q12 84 58 124.5t130 40.5h3657l-17 -124h-1830l-23 -164h1715l-17 -124h-1715l-23 -164h1830l-18 -124h-1971zM314 576q-35 0 -51.5 -15t-20.5 -51l-15 -98h1709l24 164h-1646z" />
    <glyph glyph-name="Ccedilla" unicode="&#xc7;" horiz-adv-x="2479" 
d="M1351 -67h-174l39 67h-1020q-84 0 -118.5 40.5t-23.5 124.5l52 370q12 84 58 124.5t130 40.5h2203l-17 -124h-2162q-35 0 -51.5 -15t-21.5 -51l-45 -320q-5 -36 7.5 -51t47.5 -15h2161l-17 -124h-1157l-25 -43h169q54 0 78 -11.5t24 -39.5q0 -48 -38 -71.5t-124 -23.5
h-363l12 81h357q29 0 41 6t12 21q0 14 -34 14z" />
    <glyph glyph-name="Egrave" unicode="&#xc8;" horiz-adv-x="2541" 
d="M34 0l98 700h2417l-18 -124h-2274l-23 -164h2159l-17 -124h-2160l-22 -164h2274l-17 -124h-2417zM1356 756l-266 110h211l208 -110h-153z" />
    <glyph glyph-name="Eacute" unicode="&#xc9;" horiz-adv-x="2541" 
d="M34 0l98 700h2417l-18 -124h-2274l-23 -164h2159l-17 -124h-2160l-22 -164h2274l-17 -124h-2417zM1670 866l-303 -110h-156l238 110h221z" />
    <glyph glyph-name="Ecircumflex" unicode="&#xca;" horiz-adv-x="2541" 
d="M34 0l98 700h2417l-18 -124h-2274l-23 -164h2159l-17 -124h-2160l-22 -164h2274l-17 -124h-2417zM1374 816l-175 -60h-140l219 110h203l188 -110h-137z" />
    <glyph glyph-name="Edieresis" unicode="&#xcb;" horiz-adv-x="2541" 
d="M34 0l98 700h2417l-18 -124h-2274l-23 -164h2159l-17 -124h-2160l-22 -164h2274l-17 -124h-2417zM1254 854l-12 -89h-156l12 89h156zM1656 854l-12 -89h-156l12 89h156z" />
    <glyph glyph-name="Igrave" unicode="&#xcc;" horiz-adv-x="295" 
d="M34 0l98 700h142l-98 -700h-142zM219 756l-266 110h211l208 -110h-153z" />
    <glyph glyph-name="Iacute" unicode="&#xcd;" horiz-adv-x="295" 
d="M34 0l98 700h142l-98 -700h-142zM509 866l-303 -110h-156l238 110h221z" />
    <glyph glyph-name="Icircumflex" unicode="&#xce;" horiz-adv-x="295" 
d="M34 0l98 700h142l-98 -700h-142zM222 816l-175 -60h-140l219 110h203l188 -110h-137z" />
    <glyph glyph-name="Idieresis" unicode="&#xcf;" horiz-adv-x="295" 
d="M447 854l-12 -89h-156l12 89h156zM159 854l-13 -89h-155l12 89h156zM34 0l98 700h142l-98 -700h-142z" />
    <glyph glyph-name="Eth" unicode="&#xd0;" horiz-adv-x="2571" 
d="M2341 700q113 0 163 -58.5t34 -170.5l-34 -242q-16 -113 -82.5 -171t-178.5 -58h-2209l40 288h-69l18 124h69l40 288h2209zM2241 124q107 0 121 107l33 238q16 107 -90 107h-2048l-23 -164h338l-18 -124h-337l-23 -164h2047z" />
    <glyph glyph-name="Ntilde" unicode="&#xd1;" horiz-adv-x="2578" 
d="M314 576q-35 0 -51.5 -15t-20.5 -51l-72 -510h-142l75 535q12 84 58 124.5t130 40.5h2107q85 0 119.5 -40.5t23.5 -124.5l-75 -535h-142l71 510q5 36 -7.5 51t-47.5 15h-2026zM1095 747l12 83q74 49 146 49q45 0 120.5 -26.5t115.5 -26.5q65 0 135 50l-12 -83
q-77 -50 -148 -50q-45 0 -120.5 26.5t-115.5 26.5q-67 0 -133 -49z" />
    <glyph glyph-name="Ograve" unicode="&#xd2;" horiz-adv-x="2570" 
d="M196 0q-84 0 -118.5 40.5t-23.5 124.5l52 370q12 84 58 124.5t130 40.5h2115q85 0 119.5 -40.5t22.5 -124.5l-52 -370q-22 -165 -188 -165h-2115zM2361 189l45 321q5 36 -8 51t-47 15h-2033q-34 0 -51 -15t-22 -51l-45 -320q-5 -36 7.5 -51t47.5 -15h2032q35 0 52 15
t22 50zM1352 756l-266 110h211l208 -110h-153z" />
    <glyph glyph-name="Oacute" unicode="&#xd3;" horiz-adv-x="2570" 
d="M196 0q-84 0 -118.5 40.5t-23.5 124.5l52 370q12 84 58 124.5t130 40.5h2115q85 0 119.5 -40.5t22.5 -124.5l-52 -370q-22 -165 -188 -165h-2115zM2361 189l45 321q5 36 -8 51t-47 15h-2033q-34 0 -51 -15t-22 -51l-45 -320q-5 -36 7.5 -51t47.5 -15h2032q35 0 52 15
t22 50zM1670 866l-303 -110h-156l238 110h221z" />
    <glyph glyph-name="Ocircumflex" unicode="&#xd4;" horiz-adv-x="2570" 
d="M196 0q-84 0 -118.5 40.5t-23.5 124.5l52 370q12 84 58 124.5t130 40.5h2115q85 0 119.5 -40.5t22.5 -124.5l-52 -370q-22 -165 -188 -165h-2115zM2361 189l45 321q5 36 -8 51t-47 15h-2033q-34 0 -51 -15t-22 -51l-45 -320q-5 -36 7.5 -51t47.5 -15h2032q35 0 52 15
t22 50zM1369 816l-175 -60h-140l219 110h203l188 -110h-137z" />
    <glyph glyph-name="Otilde" unicode="&#xd5;" horiz-adv-x="2570" 
d="M196 0q-84 0 -118.5 40.5t-23.5 124.5l52 370q12 84 58 124.5t130 40.5h2115q85 0 119.5 -40.5t22.5 -124.5l-52 -370q-22 -165 -188 -165h-2115zM2361 189l45 321q5 36 -8 51t-47 15h-2033q-34 0 -51 -15t-22 -51l-45 -320q-5 -36 7.5 -51t47.5 -15h2032q35 0 52 15
t22 50zM1102 747l12 83q74 49 146 49q45 0 120.5 -26.5t115.5 -26.5q65 0 135 50l-12 -83q-77 -50 -148 -50q-45 0 -120.5 26.5t-115.5 26.5q-67 0 -133 -49z" />
    <glyph glyph-name="Odieresis" unicode="&#xd6;" horiz-adv-x="2570" 
d="M196 0q-84 0 -118.5 40.5t-23.5 124.5l52 370q12 84 58 124.5t130 40.5h2115q85 0 119.5 -40.5t22.5 -124.5l-52 -370q-22 -165 -188 -165h-2115zM2361 189l45 321q5 36 -8 51t-47 15h-2033q-34 0 -51 -15t-22 -51l-45 -320q-5 -36 7.5 -51t47.5 -15h2032q35 0 52 15
t22 50zM1249 854l-12 -89h-156l12 89h156zM1651 854l-12 -89h-156l12 89h156z" />
    <glyph glyph-name="multiply" unicode="&#xd7;" 
d="M1422 291l218 -257h-148l-214 257l-215 -257h-148l217 257h-1067v118h1067l-217 256h148l215 -256l214 256h148l-218 -256h1068v-118h-1068z" />
    <glyph glyph-name="Oslash" unicode="&#xd8;" horiz-adv-x="2570" 
d="M196 0q-84 0 -118.5 40.5t-23.5 124.5l52 370q12 84 58 124.5t130 40.5h2115q85 0 119.5 -40.5t22.5 -124.5l-52 -370q-22 -165 -188 -165h-2115zM2361 189l45 321q4 34 -7 49.5t-41 16.5l-1723 -452h1652q35 0 52 15t22 50zM245 124l1723 452h-1650q-34 0 -51 -15
t-22 -51l-45 -320q-5 -34 5.5 -49t39.5 -17z" />
    <glyph glyph-name="Ugrave" unicode="&#xd9;" horiz-adv-x="2578" 
d="M217 0q-166 0 -142 165l75 535h142l-71 -510q-5 -36 7 -51t47 -15h2026q35 0 51.5 15t21.5 51l72 510h142l-75 -535q-12 -84 -58 -124.5t-131 -40.5h-2107zM1369 756l-266 110h211l208 -110h-153z" />
    <glyph glyph-name="Uacute" unicode="&#xda;" horiz-adv-x="2578" 
d="M217 0q-166 0 -142 165l75 535h142l-71 -510q-5 -36 7 -51t47 -15h2026q35 0 51.5 15t21.5 51l72 510h142l-75 -535q-12 -84 -58 -124.5t-131 -40.5h-2107zM1681 866l-303 -110h-156l238 110h221z" />
    <glyph glyph-name="Ucircumflex" unicode="&#xdb;" horiz-adv-x="2578" 
d="M217 0q-166 0 -142 165l75 535h142l-71 -510q-5 -36 7 -51t47 -15h2026q35 0 51.5 15t21.5 51l72 510h142l-75 -535q-12 -84 -58 -124.5t-131 -40.5h-2107zM1386 816l-175 -60h-140l219 110h203l188 -110h-137z" />
    <glyph glyph-name="Udieresis" unicode="&#xdc;" horiz-adv-x="2578" 
d="M217 0q-166 0 -142 165l75 535h142l-71 -510q-5 -36 7 -51t47 -15h2026q35 0 51.5 15t21.5 51l72 510h142l-75 -535q-12 -84 -58 -124.5t-131 -40.5h-2107zM1266 854l-12 -89h-156l12 89h156zM1668 854l-12 -89h-156l12 89h156z" />
    <glyph glyph-name="Yacute" unicode="&#xdd;" horiz-adv-x="2546" 
d="M2424 700h142l-35 -247q-12 -84 -58 -124.5t-130 -40.5h-989l-40 -288h-142l40 288h-989q-84 0 -118.5 40.5t-22.5 124.5l35 247h142l-32 -223q-5 -36 7.5 -50.5t47.5 -14.5h2037q35 0 51.5 14.5t21.5 50.5zM1658 866l-303 -110h-156l238 110h221z" />
    <glyph glyph-name="Thorn" unicode="&#xde;" horiz-adv-x="2543" 
d="M34 0l98 700h142l-14 -97h2125q84 0 118 -40t23 -123l-12 -86q-22 -163 -187 -163h-2124l-27 -191h-142zM2380 415q5 34 -7.5 49t-45.5 15h-2084l-22 -164h2083q34 0 50 14.5t21 48.5z" />
    <glyph glyph-name="germandbls" unicode="&#xdf;" horiz-adv-x="2311" 
d="M2069 246h-1599l16 111h1599q27 0 39.5 11t16.5 38l3 26q4 28 -6 40t-38 12h-1792q-43 0 -65.5 -19t-28.5 -63l-80 -569h-137l82 586q14 94 65 139t146 45h1876q73 0 101.5 -33t18.5 -104l-6 -42q-8 -56 -35 -86.5t-84 -36.5q55 -6 73.5 -36t11.5 -86l-6 -42
q-10 -71 -48.5 -104t-109.5 -33h-1646l16 119h1596q28 0 41.5 12t18.5 40l3 26q4 26 -5.5 37.5t-36.5 11.5z" />
    <glyph glyph-name="agrave" unicode="&#xe0;" horiz-adv-x="2288" 
d="M2112 357l8 62q10 65 -54 65h-1957l16 119h1997q84 0 117 -39.5t21 -123.5l-39 -277q-11 -84 -55 -123.5t-128 -39.5h-1881q-74 0 -104.5 35.5t-20.5 111.5l9 62q10 76 50.5 112t115.5 36h1905zM2096 246h-1862q-27 0 -40.5 -11.5t-17.5 -38.5l-4 -26q-4 -27 6.5 -39
t37.5 -12h1798q65 0 74 69zM1188 658l-266 110h211l208 -110h-153z" />
    <glyph glyph-name="aacute" unicode="&#xe1;" horiz-adv-x="2288" 
d="M2112 357l8 62q10 65 -54 65h-1957l16 119h1997q84 0 117 -39.5t21 -123.5l-39 -277q-11 -84 -55 -123.5t-128 -39.5h-1881q-74 0 -104.5 35.5t-20.5 111.5l9 62q10 76 50.5 112t115.5 36h1905zM2096 246h-1862q-27 0 -40.5 -11.5t-17.5 -38.5l-4 -26q-4 -27 6.5 -39
t37.5 -12h1798q65 0 74 69zM1500 768l-303 -110h-156l238 110h221z" />
    <glyph glyph-name="acircumflex" unicode="&#xe2;" horiz-adv-x="2288" 
d="M2112 357l8 62q10 65 -54 65h-1957l16 119h1997q84 0 117 -39.5t21 -123.5l-39 -277q-11 -84 -55 -123.5t-128 -39.5h-1881q-74 0 -104.5 35.5t-20.5 111.5l9 62q10 76 50.5 112t115.5 36h1905zM2096 246h-1862q-27 0 -40.5 -11.5t-17.5 -38.5l-4 -26q-4 -27 6.5 -39
t37.5 -12h1798q65 0 74 69zM1205 718l-175 -60h-140l219 110h203l188 -110h-137z" />
    <glyph glyph-name="atilde" unicode="&#xe3;" horiz-adv-x="2288" 
d="M2112 357l8 62q10 65 -54 65h-1957l16 119h1997q84 0 117 -39.5t21 -123.5l-39 -277q-11 -84 -55 -123.5t-128 -39.5h-1881q-74 0 -104.5 35.5t-20.5 111.5l9 62q10 76 50.5 112t115.5 36h1905zM2096 246h-1862q-27 0 -40.5 -11.5t-17.5 -38.5l-4 -26q-4 -27 6.5 -39
t37.5 -12h1798q65 0 74 69zM938 649l12 83q74 49 146 49q45 0 120.5 -26.5t115.5 -26.5q65 0 135 50l-12 -83q-77 -50 -148 -50q-45 0 -120.5 26.5t-115.5 26.5q-67 0 -133 -49z" />
    <glyph glyph-name="adieresis" unicode="&#xe4;" horiz-adv-x="2288" 
d="M2112 357l8 62q10 65 -54 65h-1957l16 119h1997q84 0 117 -39.5t21 -123.5l-39 -277q-11 -84 -55 -123.5t-128 -39.5h-1881q-74 0 -104.5 35.5t-20.5 111.5l9 62q10 76 50.5 112t115.5 36h1905zM2096 246h-1862q-27 0 -40.5 -11.5t-17.5 -38.5l-4 -26q-4 -27 6.5 -39
t37.5 -12h1798q65 0 74 69zM1086 756l-12 -89h-156l12 89h156zM1488 756l-12 -89h-156l12 89h156z" />
    <glyph glyph-name="aring" unicode="&#xe5;" horiz-adv-x="2288" 
d="M2112 357l8 62q10 65 -54 65h-1957l16 119h1997q84 0 117 -39.5t21 -123.5l-39 -277q-11 -84 -55 -123.5t-128 -39.5h-1881q-74 0 -104.5 35.5t-20.5 111.5l9 62q10 76 50.5 112t115.5 36h1905zM2096 246h-1862q-27 0 -40.5 -11.5t-17.5 -38.5l-4 -26q-4 -27 6.5 -39
t37.5 -12h1798q65 0 74 69zM1118 804h194q84 0 84 -59q0 -93 -106 -93h-194q-84 0 -84 59q0 93 106 93zM1094 703h213q33 0 33 30q0 20 -26 20h-213q-33 0 -33 -30q0 -20 26 -20z" />
    <glyph glyph-name="ae" unicode="&#xe6;" horiz-adv-x="3410" 
d="M3254 408l3 25q4 27 -6 39t-37 12h-1345q-60 0 -69 -61l-9 -66h1405q28 0 41 11.5t17 39.5zM176 196l-4 -26q-4 -27 6.5 -39t37.5 -12h1345q60 0 69 61l9 66h-1405q-27 0 -40.5 -11.5t-17.5 -38.5zM1521 0h-1364q-74 0 -104.5 35.5t-20.5 111.5l9 62q10 76 50.5 112
t115.5 36h1448l9 66q9 61 -51 61h-1504l16 119h1480q75 0 106 -29t29 -95q16 66 55.5 95t113.5 29h1364q74 0 104.5 -35.5t20.5 -111.5l-9 -63q-20 -147 -165 -147h-1449l-9 -66q-9 -61 51 -61h1504l-16 -119h-1480q-74 0 -105.5 29t-29.5 95q-16 -66 -55 -95t-114 -29z" />
    <glyph glyph-name="ccedilla" unicode="&#xe7;" horiz-adv-x="2217" 
d="M1216 -67h-174l39 67h-894q-84 0 -117 39.5t-22 123.5l39 277q12 84 56 123.5t128 39.5h1953l-17 -119h-1912q-65 0 -74 -65l-33 -235q-10 -65 56 -65h1912l-16 -119h-1033l-25 -43h169q54 0 78 -11.5t24 -39.5q0 -48 -38 -71.5t-124 -23.5h-363l12 81h357q29 0 41 6
t12 21q0 14 -34 14z" />
    <glyph glyph-name="egrave" unicode="&#xe8;" horiz-adv-x="2288" 
d="M2269 393q-10 -76 -51 -111.5t-115 -35.5h-1906l-9 -62q-8 -65 56 -65h1956l-16 -119h-1996q-87 0 -118 42t-19 132l37 266q12 83 56.5 123t127.5 40h1881q74 0 104.5 -35.5t20.5 -111.5zM2094 484h-1798q-38 0 -54.5 -18.5t-22.5 -61.5l-6 -47h1863q27 0 40.5 11.5
t17.5 38.5l3 23q4 29 -5 41.5t-38 12.5zM1222 658l-266 110h211l208 -110h-153z" />
    <glyph glyph-name="eacute" unicode="&#xe9;" horiz-adv-x="2288" 
d="M2269 393q-10 -76 -51 -111.5t-115 -35.5h-1906l-9 -62q-8 -65 56 -65h1956l-16 -119h-1996q-87 0 -118 42t-19 132l37 266q12 83 56.5 123t127.5 40h1881q74 0 104.5 -35.5t20.5 -111.5zM2094 484h-1798q-38 0 -54.5 -18.5t-22.5 -61.5l-6 -47h1863q27 0 40.5 11.5
t17.5 38.5l3 23q4 29 -5 41.5t-38 12.5zM1540 768l-303 -110h-156l238 110h221z" />
    <glyph glyph-name="ecircumflex" unicode="&#xea;" horiz-adv-x="2288" 
d="M2269 393q-10 -76 -51 -111.5t-115 -35.5h-1906l-9 -62q-8 -65 56 -65h1956l-16 -119h-1996q-87 0 -118 42t-19 132l37 266q12 83 56.5 123t127.5 40h1881q74 0 104.5 -35.5t20.5 -111.5zM2094 484h-1798q-38 0 -54.5 -18.5t-22.5 -61.5l-6 -47h1863q27 0 40.5 11.5
t17.5 38.5l3 23q4 29 -5 41.5t-38 12.5zM1239 718l-175 -60h-140l219 110h203l188 -110h-137z" />
    <glyph glyph-name="edieresis" unicode="&#xeb;" horiz-adv-x="2288" 
d="M2269 393q-10 -76 -51 -111.5t-115 -35.5h-1906l-9 -62q-8 -65 56 -65h1956l-16 -119h-1996q-87 0 -118 42t-19 132l37 266q12 83 56.5 123t127.5 40h1881q74 0 104.5 -35.5t20.5 -111.5zM2094 484h-1798q-38 0 -54.5 -18.5t-22.5 -61.5l-6 -47h1863q27 0 40.5 11.5
t17.5 38.5l3 23q4 29 -5 41.5t-38 12.5zM1120 756l-12 -89h-156l12 89h156zM1522 756l-12 -89h-156l12 89h156z" />
    <glyph glyph-name="igrave" unicode="&#xec;" horiz-adv-x="415" 
d="M236 658l-266 110h211l208 -110h-153zM239 119h126l-17 -119h-164q-84 0 -116.5 38.5t-20.5 120.5l61 444h137l-59 -422q-4 -33 8.5 -47.5t44.5 -14.5z" />
    <glyph glyph-name="iacute" unicode="&#xed;" horiz-adv-x="415" 
d="M483 768l-303 -110h-156l238 110h221zM239 119h126l-17 -119h-164q-84 0 -116.5 38.5t-20.5 120.5l61 444h137l-59 -422q-4 -33 8.5 -47.5t44.5 -14.5z" />
    <glyph glyph-name="icircumflex" unicode="&#xee;" horiz-adv-x="415" 
d="M239 119h126l-17 -119h-164q-84 0 -116.5 38.5t-20.5 120.5l61 444h137l-59 -422q-4 -33 8.5 -47.5t44.5 -14.5zM195 718l-175 -60h-140l219 110h203l188 -110h-137z" />
    <glyph glyph-name="idieresis" unicode="&#xef;" horiz-adv-x="415" 
d="M423 756l-12 -89h-156l13 89h155zM129 756l-12 -89h-156l13 89h155zM239 119h126l-17 -119h-164q-84 0 -116.5 38.5t-20.5 120.5l61 444h137l-59 -422q-4 -33 8.5 -47.5t44.5 -14.5z" />
    <glyph glyph-name="eth" unicode="&#xf0;" horiz-adv-x="2285" 
d="M266 558h1730q60 0 89.5 -19.5t35.5 -61.5l11 81q7 50 -12 71.5t-69 21.5h-841l-8 -56h-85l8 56h-968l17 119h968l7 50h85l-7 -50h857q111 0 155.5 -52t29.5 -163l-55 -392q-12 -84 -56.5 -123.5t-128.5 -39.5h-1841q-84 0 -117.5 39.5t-22.5 123.5l33 232q11 83 56 123
t129 40zM2051 439h-1763q-65 -1 -73 -65l-27 -189q-10 -65 56 -65h1762q64 0 74 65l26 189q5 34 -8 49.5t-47 15.5z" />
    <glyph glyph-name="ntilde" unicode="&#xf1;" horiz-adv-x="2284" 
d="M21 0l61 440q12 84 56.5 123.5t127.5 39.5h1836q83 0 116.5 -39.5t21.5 -123.5l-61 -440h-137l58 419q5 34 -8 49.5t-47 15.5h-1755q-34 0 -51.5 -15.5t-22.5 -49.5l-58 -419h-137zM935 649l12 83q74 49 146 49q45 0 120.5 -26.5t115.5 -26.5q65 0 135 50l-12 -83
q-77 -50 -148 -50q-45 0 -120.5 26.5t-115.5 26.5q-67 0 -133 -49z" />
    <glyph glyph-name="ograve" unicode="&#xf2;" horiz-adv-x="2278" 
d="M2113 603q84 0 117 -39.5t22 -123.5l-39 -277q-11 -84 -55.5 -123.5t-128.5 -39.5h-1842q-84 0 -117 39.5t-22 123.5l39 277q12 84 56 123.5t128 39.5h1842zM2005 119q34 0 51.5 15.5t22.5 49.5l33 235q5 34 -8.5 49.5t-47.5 15.5h-1761q-65 0 -74 -65l-33 -235
q-10 -65 56 -65h1761zM1193 658l-266 110h211l208 -110h-153z" />
    <glyph glyph-name="oacute" unicode="&#xf3;" horiz-adv-x="2278" 
d="M2113 603q84 0 117 -39.5t22 -123.5l-39 -277q-11 -84 -55.5 -123.5t-128.5 -39.5h-1842q-84 0 -117 39.5t-22 123.5l39 277q12 84 56 123.5t128 39.5h1842zM2005 119q34 0 51.5 15.5t22.5 49.5l33 235q5 34 -8.5 49.5t-47.5 15.5h-1761q-65 0 -74 -65l-33 -235
q-10 -65 56 -65h1761zM1511 768l-303 -110h-156l238 110h221z" />
    <glyph glyph-name="ocircumflex" unicode="&#xf4;" horiz-adv-x="2278" 
d="M2113 603q84 0 117 -39.5t22 -123.5l-39 -277q-11 -84 -55.5 -123.5t-128.5 -39.5h-1842q-84 0 -117 39.5t-22 123.5l39 277q12 84 56 123.5t128 39.5h1842zM2005 119q34 0 51.5 15.5t22.5 49.5l33 235q5 34 -8.5 49.5t-47.5 15.5h-1761q-65 0 -74 -65l-33 -235
q-10 -65 56 -65h1761zM1210 718l-175 -60h-140l219 110h203l188 -110h-137z" />
    <glyph glyph-name="otilde" unicode="&#xf5;" horiz-adv-x="2278" 
d="M2113 603q84 0 117 -39.5t22 -123.5l-39 -277q-11 -84 -55.5 -123.5t-128.5 -39.5h-1842q-84 0 -117 39.5t-22 123.5l39 277q12 84 56 123.5t128 39.5h1842zM2005 119q34 0 51.5 15.5t22.5 49.5l33 235q5 34 -8.5 49.5t-47.5 15.5h-1761q-65 0 -74 -65l-33 -235
q-10 -65 56 -65h1761zM943 649l12 83q74 49 146 49q45 0 120.5 -26.5t115.5 -26.5q65 0 135 50l-12 -83q-77 -50 -148 -50q-45 0 -120.5 26.5t-115.5 26.5q-67 0 -133 -49z" />
    <glyph glyph-name="odieresis" unicode="&#xf6;" horiz-adv-x="2278" 
d="M2113 603q84 0 117 -39.5t22 -123.5l-39 -277q-11 -84 -55.5 -123.5t-128.5 -39.5h-1842q-84 0 -117 39.5t-22 123.5l39 277q12 84 56 123.5t128 39.5h1842zM2005 119q34 0 51.5 15.5t22.5 49.5l33 235q5 34 -8.5 49.5t-47.5 15.5h-1761q-65 0 -74 -65l-33 -235
q-10 -65 56 -65h1761zM1090 756l-12 -89h-156l12 89h156zM1492 756l-12 -89h-156l12 89h156z" />
    <glyph glyph-name="divide" unicode="&#xf7;" 
d="M1362 150v-118h-169v118h169zM1362 668v-118h-169v118h169zM2490 291h-2425v118h2425v-118z" />
    <glyph glyph-name="oslash" unicode="&#xf8;" horiz-adv-x="2278" 
d="M2113 603q84 0 117 -39.5t22 -123.5l-39 -277q-11 -84 -55.5 -123.5t-128.5 -39.5h-1842q-84 0 -117 39.5t-22 123.5l39 277q12 84 56 123.5t128 39.5h1842zM2005 119q34 0 51.5 15.5t22.5 49.5l33 235q9 57 -41 64l-1465 -364h1399zM188 184q-9 -58 40 -64l1465 364
h-1398q-65 0 -74 -65z" />
    <glyph glyph-name="ugrave" unicode="&#xf9;" horiz-adv-x="2284" 
d="M2006 119q34 0 51 15.5t22 49.5l59 419h137l-61 -440q-13 -84 -57 -123.5t-127 -39.5h-1836q-83 0 -116.5 39.5t-21.5 123.5l61 440h137l-59 -419q-5 -34 8.5 -49.5t47.5 -15.5h1755zM1199 658l-266 110h211l208 -110h-153z" />
    <glyph glyph-name="uacute" unicode="&#xfa;" horiz-adv-x="2284" 
d="M2006 119q34 0 51 15.5t22 49.5l59 419h137l-61 -440q-13 -84 -57 -123.5t-127 -39.5h-1836q-83 0 -116.5 39.5t-21.5 123.5l61 440h137l-59 -419q-5 -34 8.5 -49.5t47.5 -15.5h1755zM1515 768l-303 -110h-156l238 110h221z" />
    <glyph glyph-name="ucircumflex" unicode="&#xfb;" horiz-adv-x="2284" 
d="M2006 119q34 0 51 15.5t22 49.5l59 419h137l-61 -440q-13 -84 -57 -123.5t-127 -39.5h-1836q-83 0 -116.5 39.5t-21.5 123.5l61 440h137l-59 -419q-5 -34 8.5 -49.5t47.5 -15.5h1755zM1214 718l-175 -60h-140l219 110h203l188 -110h-137z" />
    <glyph glyph-name="udieresis" unicode="&#xfc;" horiz-adv-x="2284" 
d="M2006 119q34 0 51 15.5t22 49.5l59 419h137l-61 -440q-13 -84 -57 -123.5t-127 -39.5h-1836q-83 0 -116.5 39.5t-21.5 123.5l61 440h137l-59 -419q-5 -34 8.5 -49.5t47.5 -15.5h1755zM1094 756l-12 -89h-156l12 89h156zM1496 756l-12 -89h-156l12 89h156z" />
    <glyph glyph-name="yacute" unicode="&#xfd;" horiz-adv-x="2291" 
d="M1941 -167h-1904l17 119h1887q50 0 75.5 21.5t32.5 72.5l12 84q-19 -42 -54 -61.5t-95 -19.5h-1723q-84 0 -117 39.5t-22 123.5l55 391h137l-52 -369q-9 -65 56 -65h1755q34 0 51.5 15.5t22.5 49.5l52 369h136l-78 -555q-16 -111 -74.5 -163t-169.5 -52zM1506 768
l-303 -110h-156l238 110h221z" />
    <glyph glyph-name="thorn" unicode="&#xfe;" horiz-adv-x="2291" 
d="M272 770l-24 -167h1868q83 0 116.5 -39.5t21.5 -123.5l-39 -277q-11 -84 -55.5 -123.5t-127.5 -39.5h-1732q-60 0 -89.5 19.5t-35.5 61.5l-35 -248h-137l132 937h137zM232 484l-42 -300q-5 -34 8 -49.5t47 -15.5h1763q34 0 51 15.5t22 49.5l33 235q5 34 -8 49.5t-47 15.5
h-1827z" />
    <glyph glyph-name="ydieresis" unicode="&#xff;" horiz-adv-x="2291" 
d="M1941 -167h-1904l17 119h1887q50 0 75.5 21.5t32.5 72.5l12 84q-19 -42 -54 -61.5t-95 -19.5h-1723q-84 0 -117 39.5t-22 123.5l55 391h137l-52 -369q-9 -65 56 -65h1755q34 0 51.5 15.5t22.5 49.5l52 369h136l-78 -555q-16 -111 -74.5 -163t-169.5 -52zM1085 756
l-12 -89h-156l12 89h156zM1487 756l-12 -89h-156l12 89h156z" />
    <glyph glyph-name="Amacron" unicode="&#x100;" horiz-adv-x="2578" 
d="M2466 0h-142l40 288h-2154l-40 -288h-142l75 535q12 84 58 124.5t130 40.5h2107q85 0 119.5 -40.5t23.5 -124.5zM2340 576h-2026q-35 0 -51.5 -15t-20.5 -51l-15 -98h2154l14 98q5 36 -7.5 51t-47.5 15zM1611 774h-514l11 75h514z" />
    <glyph glyph-name="amacron" unicode="&#x101;" horiz-adv-x="2288" 
d="M2112 357l8 62q10 65 -54 65h-1957l16 119h1997q84 0 117 -39.5t21 -123.5l-39 -277q-11 -84 -55 -123.5t-128 -39.5h-1881q-74 0 -104.5 35.5t-20.5 111.5l9 62q10 76 50.5 112t115.5 36h1905zM2096 246h-1862q-27 0 -40.5 -11.5t-17.5 -38.5l-4 -26q-4 -27 6.5 -39
t37.5 -12h1798q65 0 74 69zM1454 676h-514l11 75h514z" />
    <glyph glyph-name="Abreve" unicode="&#x102;" horiz-adv-x="2578" 
d="M2466 0h-142l40 288h-2154l-40 -288h-142l75 535q12 84 58 124.5t130 40.5h2107q85 0 119.5 -40.5t23.5 -124.5zM2340 576h-2026q-35 0 -51.5 -15t-20.5 -51l-15 -98h2154l14 98q5 36 -7.5 51t-47.5 15zM1103 807l8 79q88 -58 248 -58q159 0 263 58l-8 -79
q-102 -62 -264 -62q-161 0 -247 62z" />
    <glyph glyph-name="abreve" unicode="&#x103;" horiz-adv-x="2288" 
d="M2112 357l8 62q10 65 -54 65h-1957l16 119h1997q84 0 117 -39.5t21 -123.5l-39 -277q-11 -84 -55 -123.5t-128 -39.5h-1881q-74 0 -104.5 35.5t-20.5 111.5l9 62q10 76 50.5 112t115.5 36h1905zM2096 246h-1862q-27 0 -40.5 -11.5t-17.5 -38.5l-4 -26q-4 -27 6.5 -39
t37.5 -12h1798q65 0 74 69zM946 709l8 79q88 -58 248 -58q159 0 263 58l-8 -79q-102 -62 -264 -62q-161 0 -247 62z" />
    <glyph glyph-name="Aogonek" unicode="&#x104;" horiz-adv-x="2578" 
d="M2346 -42h27l6 42h-55l40 288h-2154l-40 -288h-142l75 535q12 84 58 124.5t130 40.5h2107q85 0 119.5 -40.5t23.5 -124.5l-75 -535h-62l-9 -66h-35q-162 0 -239.5 -4t-94.5 -9.5t-17 -18.5q0 -10 32 -10h394l-11 -81h-398q-57 0 -83 11t-26 39q0 22 4.5 35.5t21 25.5
t43.5 18t77.5 10.5t116.5 6t166 1.5zM2340 576h-2026q-35 0 -51.5 -15t-20.5 -51l-15 -98h2154l14 98q5 36 -7.5 51t-47.5 15z" />
    <glyph glyph-name="aogonek" unicode="&#x105;" horiz-adv-x="2288" 
d="M2158 -189h-398q-57 0 -83 11t-26 39q0 22 4.5 35.5t21 25.5t43.5 18t77.5 10.5t116.5 6t166 1.5h27l7 53q-35 -11 -76 -11h-1881q-74 0 -104.5 35.5t-20.5 111.5l9 62q10 76 50.5 112t115.5 36h1905l8 62q10 65 -54 65h-1957l16 119h1997q84 0 117 -39.5t21 -123.5
l-39 -277q-15 -104 -80 -140l-12 -89h-35q-162 0 -239.5 -4t-94.5 -9.5t-17 -18.5q0 -10 32 -10h394zM2096 246h-1862q-27 0 -40.5 -11.5t-17.5 -38.5l-4 -26q-4 -27 6.5 -39t37.5 -12h1798q65 0 74 69z" />
    <glyph glyph-name="Cacute" unicode="&#x106;" horiz-adv-x="2479" 
d="M196 0q-84 0 -118.5 40.5t-23.5 124.5l52 370q12 84 58 124.5t130 40.5h2203l-17 -124h-2162q-35 0 -51.5 -15t-21.5 -51l-45 -320q-5 -36 7.5 -51t47.5 -15h2161l-17 -124h-2203zM1662 866l-303 -110h-156l238 110h221z" />
    <glyph glyph-name="cacute" unicode="&#x107;" horiz-adv-x="2217" 
d="M187 0q-84 0 -117 39.5t-22 123.5l39 277q12 84 56 123.5t128 39.5h1953l-17 -119h-1912q-65 0 -74 -65l-33 -235q-10 -65 56 -65h1912l-16 -119h-1953zM1523 768l-303 -110h-156l238 110h221z" />
    <glyph glyph-name="Ccircumflex" unicode="&#x108;" horiz-adv-x="2479" 
d="M196 0q-84 0 -118.5 40.5t-23.5 124.5l52 370q12 84 58 124.5t130 40.5h2203l-17 -124h-2162q-35 0 -51.5 -15t-21.5 -51l-45 -320q-5 -36 7.5 -51t47.5 -15h2161l-17 -124h-2203zM1367 816l-175 -60h-140l219 110h203l188 -110h-137z" />
    <glyph glyph-name="ccircumflex" unicode="&#x109;" horiz-adv-x="2217" 
d="M187 0q-84 0 -117 39.5t-22 123.5l39 277q12 84 56 123.5t128 39.5h1953l-17 -119h-1912q-65 0 -74 -65l-33 -235q-10 -65 56 -65h1912l-16 -119h-1953zM1222 718l-175 -60h-140l219 110h203l188 -110h-137z" />
    <glyph glyph-name="Cdotaccent" unicode="&#x10a;" horiz-adv-x="2479" 
d="M196 0q-84 0 -118.5 40.5t-23.5 124.5l52 370q12 84 58 124.5t130 40.5h2203l-17 -124h-2162q-35 0 -51.5 -15t-21.5 -51l-45 -320q-5 -36 7.5 -51t47.5 -15h2161l-17 -124h-2203zM1449 854l-13 -89h-156l13 89h156z" />
    <glyph glyph-name="cdotaccent" unicode="&#x10b;" horiz-adv-x="2217" 
d="M187 0q-84 0 -117 39.5t-22 123.5l39 277q12 84 56 123.5t128 39.5h1953l-17 -119h-1912q-65 0 -74 -65l-33 -235q-10 -65 56 -65h1912l-16 -119h-1953zM1304 756l-13 -89h-156l13 89h156z" />
    <glyph glyph-name="Ccaron" unicode="&#x10c;" horiz-adv-x="2479" 
d="M196 0q-84 0 -118.5 40.5t-23.5 124.5l52 370q12 84 58 124.5t130 40.5h2203l-17 -124h-2162q-35 0 -51.5 -15t-21.5 -51l-45 -320q-5 -36 7.5 -51t47.5 -15h2161l-17 -124h-2203zM1204 866l158 -59l176 59h140l-220 -110h-202l-189 110h137z" />
    <glyph glyph-name="ccaron" unicode="&#x10d;" horiz-adv-x="2217" 
d="M187 0q-84 0 -117 39.5t-22 123.5l39 277q12 84 56 123.5t128 39.5h1953l-17 -119h-1912q-65 0 -74 -65l-33 -235q-10 -65 56 -65h1912l-16 -119h-1953zM1059 768l158 -59l176 59h140l-220 -110h-202l-189 110h137z" />
    <glyph glyph-name="Dcaron" unicode="&#x10e;" horiz-adv-x="2571" 
d="M2341 700q113 0 163 -58.5t34 -170.5l-34 -242q-16 -113 -82.5 -171t-178.5 -58h-2209l98 700h2209zM2241 124q107 0 121 107l33 238q16 107 -90 107h-2048l-63 -452h2047zM1183 866l158 -59l176 59h140l-220 -110h-202l-189 110h137z" />
    <glyph glyph-name="dcaron" unicode="&#x10f;" horiz-adv-x="2578" 
d="M2299 770l-85 -607q-12 -84 -56.5 -123.5t-128.5 -39.5h-1843q-83 0 -116 39.5t-22 123.5l39 277q12 84 56 123.5t127 39.5h1732q60 0 89.5 -19.5t35.5 -61.5l35 248h137zM2080 184l33 235q5 34 -8.5 49.5t-47.5 15.5h-1762q-34 0 -51.5 -15.5t-22.5 -49.5l-33 -235
q-5 -34 8.5 -49.5t47.5 -15.5h1762q34 0 51.5 15.5t22.5 49.5zM2586 700l-16 -117q-10 -66 -49.5 -103t-105.5 -37h-42l9 66h34q27 0 41 12t18 42l3 20h-85l17 117h176z" />
    <glyph glyph-name="Dcroat" unicode="&#x110;" horiz-adv-x="2571" 
d="M2341 700q113 0 163 -58.5t34 -170.5l-34 -242q-16 -113 -82.5 -171t-178.5 -58h-2209l40 288h-69l18 124h69l40 288h2209zM2241 124q107 0 121 107l33 238q16 107 -90 107h-2048l-23 -164h338l-18 -124h-337l-23 -164h2047z" />
    <glyph glyph-name="dcroat" unicode="&#x111;" horiz-adv-x="2285" 
d="M2299 770l-8 -57h62l-10 -74h-63l-66 -476q-12 -84 -56.5 -123.5t-128.5 -39.5h-1843q-83 0 -116 39.5t-22 123.5l39 277q12 84 56 123.5t127 39.5h1732q60 0 89.5 -19.5t35.5 -61.5l16 117h-315l11 74h315l8 57h137zM2080 184l33 235q5 34 -8.5 49.5t-47.5 15.5h-1762
q-34 0 -51.5 -15.5t-22.5 -49.5l-33 -235q-5 -34 8.5 -49.5t47.5 -15.5h1762q34 0 51.5 15.5t22.5 49.5z" />
    <glyph glyph-name="Emacron" unicode="&#x112;" horiz-adv-x="2541" 
d="M34 0l98 700h2417l-18 -124h-2274l-23 -164h2159l-17 -124h-2160l-22 -164h2274l-17 -124h-2417zM1623 774h-514l11 75h514z" />
    <glyph glyph-name="emacron" unicode="&#x113;" horiz-adv-x="2288" 
d="M2269 393q-10 -76 -51 -111.5t-115 -35.5h-1906l-9 -62q-8 -65 56 -65h1956l-16 -119h-1996q-87 0 -118 42t-19 132l37 266q12 83 56.5 123t127.5 40h1881q74 0 104.5 -35.5t20.5 -111.5zM2094 484h-1798q-38 0 -54.5 -18.5t-22.5 -61.5l-6 -47h1863q27 0 40.5 11.5
t17.5 38.5l3 23q4 29 -5 41.5t-38 12.5zM1488 676h-514l11 75h514z" />
    <glyph glyph-name="Ebreve" unicode="&#x114;" horiz-adv-x="2541" 
d="M34 0l98 700h2417l-18 -124h-2274l-23 -164h2159l-17 -124h-2160l-22 -164h2274l-17 -124h-2417zM1115 807l8 79q88 -58 248 -58q159 0 263 58l-8 -79q-102 -62 -264 -62q-161 0 -247 62z" />
    <glyph glyph-name="ebreve" unicode="&#x115;" horiz-adv-x="2288" 
d="M2269 393q-10 -76 -51 -111.5t-115 -35.5h-1906l-9 -62q-8 -65 56 -65h1956l-16 -119h-1996q-87 0 -118 42t-19 132l37 266q12 83 56.5 123t127.5 40h1881q74 0 104.5 -35.5t20.5 -111.5zM2094 484h-1798q-38 0 -54.5 -18.5t-22.5 -61.5l-6 -47h1863q27 0 40.5 11.5
t17.5 38.5l3 23q4 29 -5 41.5t-38 12.5zM980 709l8 79q88 -58 248 -58q159 0 263 58l-8 -79q-102 -62 -264 -62q-161 0 -247 62z" />
    <glyph glyph-name="Edotaccent" unicode="&#x116;" horiz-adv-x="2541" 
d="M34 0l98 700h2417l-18 -124h-2274l-23 -164h2159l-17 -124h-2160l-22 -164h2274l-17 -124h-2417zM1456 854l-13 -89h-156l13 89h156z" />
    <glyph glyph-name="edotaccent" unicode="&#x117;" horiz-adv-x="2288" 
d="M2269 393q-10 -76 -51 -111.5t-115 -35.5h-1906l-9 -62q-8 -65 56 -65h1956l-16 -119h-1996q-87 0 -118 42t-19 132l37 266q12 83 56.5 123t127.5 40h1881q74 0 104.5 -35.5t20.5 -111.5zM2094 484h-1798q-38 0 -54.5 -18.5t-22.5 -61.5l-6 -47h1863q27 0 40.5 11.5
t17.5 38.5l3 23q4 29 -5 41.5t-38 12.5zM1321 756l-13 -89h-156l13 89h156z" />
    <glyph glyph-name="Eogonek" unicode="&#x118;" horiz-adv-x="2541" 
d="M2423 -189h-398q-57 0 -83 11t-26 39q0 22 4.5 35.5t21 25.5t43.5 18t77.5 10.5t116.5 6t166 1.5h27l6 42h-2344l98 700h2417l-18 -124h-2274l-23 -164h2159l-17 -124h-2160l-22 -164h2274l-17 -124h-48l-9 -66h-35q-162 0 -239.5 -4t-94.5 -9.5t-17 -18.5q0 -10 32 -10
h394z" />
    <glyph glyph-name="eogonek" unicode="&#x119;" horiz-adv-x="2288" 
d="M2094 484h-1798q-38 0 -54.5 -18.5t-22.5 -61.5l-6 -47h1863q27 0 40.5 11.5t17.5 38.5l3 23q4 29 -5 41.5t-38 12.5zM2156 -189h-398q-57 0 -83 11t-26 39q0 22 4.5 35.5t21 25.5t43.5 18t77.5 10.5t116.5 6t166 1.5h46l6 42h-1942q-87 0 -118 42t-19 132l37 266
q12 83 56.5 123t127.5 40h1881q74 0 104.5 -35.5t20.5 -111.5l-9 -63q-10 -76 -51 -111.5t-115 -35.5h-1906l-9 -62q-8 -65 56 -65h1956l-16 -119h-29l-9 -66h-54q-162 0 -239.5 -4t-94.5 -9.5t-17 -18.5q0 -10 32 -10h394z" />
    <glyph glyph-name="Ecaron" unicode="&#x11a;" horiz-adv-x="2541" 
d="M34 0l98 700h2417l-18 -124h-2274l-23 -164h2159l-17 -124h-2160l-22 -164h2274l-17 -124h-2417zM1211 866l158 -59l176 59h140l-220 -110h-202l-189 110h137z" />
    <glyph glyph-name="ecaron" unicode="&#x11b;" horiz-adv-x="2288" 
d="M2269 393q-10 -76 -51 -111.5t-115 -35.5h-1906l-9 -62q-8 -65 56 -65h1956l-16 -119h-1996q-87 0 -118 42t-19 132l37 266q12 83 56.5 123t127.5 40h1881q74 0 104.5 -35.5t20.5 -111.5zM2094 484h-1798q-38 0 -54.5 -18.5t-22.5 -61.5l-6 -47h1863q27 0 40.5 11.5
t17.5 38.5l3 23q4 29 -5 41.5t-38 12.5zM1076 768l158 -59l176 59h140l-220 -110h-202l-189 110h137z" />
    <glyph glyph-name="Gcircumflex" unicode="&#x11c;" horiz-adv-x="2567" 
d="M2293 124q34 0 48 12.5t19 47.5l15 104h-1273l17 124h1415l-36 -259q-12 -82 -51.5 -117.5t-122.5 -35.5h-2128q-84 0 -118.5 40.5t-23.5 124.5l52 370q12 84 58 124.5t130 40.5h2256l-18 -124h-2214q-35 0 -51.5 -15t-21.5 -51l-45 -320q-5 -36 7.5 -51t47.5 -15h2038z
M1383 816l-175 -60h-140l219 110h203l188 -110h-137z" />
    <glyph glyph-name="gcircumflex" unicode="&#x11d;" horiz-adv-x="2285" 
d="M2002 169q34 0 51 15.5t22 49.5l26 185q10 65 -54 65h-1763q-65 0 -75 -65l-26 -185q-9 -65 56 -65h1763zM1913 49h-1730q-84 0 -117 39.5t-22 123.5l32 228q12 84 56.5 123.5t128.5 39.5h1841q84 0 117.5 -39.5t21.5 -123.5l-55 -392q-16 -111 -75 -163t-170 -52h-1910
l17 119h1894q50 0 75 21.5t32 72.5l12 84q-35 -81 -148 -81zM1203 718l-175 -60h-140l219 110h203l188 -110h-137z" />
    <glyph glyph-name="Gbreve" unicode="&#x11e;" horiz-adv-x="2567" 
d="M2293 124q34 0 48 12.5t19 47.5l15 104h-1273l17 124h1415l-36 -259q-12 -82 -51.5 -117.5t-122.5 -35.5h-2128q-84 0 -118.5 40.5t-23.5 124.5l52 370q12 84 58 124.5t130 40.5h2256l-18 -124h-2214q-35 0 -51.5 -15t-21.5 -51l-45 -320q-5 -36 7.5 -51t47.5 -15h2038z
M1124 807l8 79q88 -58 248 -58q159 0 263 58l-8 -79q-102 -62 -264 -62q-161 0 -247 62z" />
    <glyph glyph-name="gbreve" unicode="&#x11f;" horiz-adv-x="2285" 
d="M2002 169q34 0 51 15.5t22 49.5l26 185q10 65 -54 65h-1763q-65 0 -75 -65l-26 -185q-9 -65 56 -65h1763zM1913 49h-1730q-84 0 -117 39.5t-22 123.5l32 228q12 84 56.5 123.5t128.5 39.5h1841q84 0 117.5 -39.5t21.5 -123.5l-55 -392q-16 -111 -75 -163t-170 -52h-1910
l17 119h1894q50 0 75 21.5t32 72.5l12 84q-35 -81 -148 -81zM944 709l8 79q88 -58 248 -58q159 0 263 58l-8 -79q-102 -62 -264 -62q-161 0 -247 62z" />
    <glyph glyph-name="Gdotaccent" unicode="&#x120;" horiz-adv-x="2567" 
d="M2293 124q34 0 48 12.5t19 47.5l15 104h-1273l17 124h1415l-36 -259q-12 -82 -51.5 -117.5t-122.5 -35.5h-2128q-84 0 -118.5 40.5t-23.5 124.5l52 370q12 84 58 124.5t130 40.5h2256l-18 -124h-2214q-35 0 -51.5 -15t-21.5 -51l-45 -320q-5 -36 7.5 -51t47.5 -15h2038z
M1465 854l-13 -89h-156l13 89h156z" />
    <glyph glyph-name="gdotaccent" unicode="&#x121;" horiz-adv-x="2285" 
d="M2002 169q34 0 51 15.5t22 49.5l26 185q10 65 -54 65h-1763q-65 0 -75 -65l-26 -185q-9 -65 56 -65h1763zM1913 49h-1730q-84 0 -117 39.5t-22 123.5l32 228q12 84 56.5 123.5t128.5 39.5h1841q84 0 117.5 -39.5t21.5 -123.5l-55 -392q-16 -111 -75 -163t-170 -52h-1910
l17 119h1894q50 0 75 21.5t32 72.5l12 84q-35 -81 -148 -81zM1285 756l-13 -89h-156l13 89h156z" />
    <glyph glyph-name="uni0122" unicode="&#x122;" horiz-adv-x="2567" 
d="M2293 124q34 0 48 12.5t19 47.5l15 104h-1273l17 124h1415l-36 -259q-12 -82 -51.5 -117.5t-122.5 -35.5h-2128q-84 0 -118.5 40.5t-23.5 124.5l52 370q12 84 58 124.5t130 40.5h2256l-18 -124h-2214q-35 0 -51.5 -15t-21.5 -51l-45 -320q-5 -36 7.5 -51t47.5 -15h2038z
M1333 -70l-10 -70q-8 -53 -39.5 -82.5t-83.5 -29.5h-43l5 39h38q42 0 48 44l2 13h-82l12 86h153z" />
    <glyph glyph-name="uni0123" unicode="&#x123;" horiz-adv-x="2285" 
d="M1117 667l10 71q8 53 39.5 82.5t84.5 29.5h43l-6 -40h-37q-42 0 -49 -44l-1 -12h82l-13 -87h-153zM2002 169q34 0 51 15.5t22 49.5l26 185q10 65 -54 65h-1763q-65 0 -75 -65l-26 -185q-9 -65 56 -65h1763zM1913 49h-1730q-84 0 -117 39.5t-22 123.5l32 228
q12 84 56.5 123.5t128.5 39.5h1841q84 0 117.5 -39.5t21.5 -123.5l-55 -392q-16 -111 -75 -163t-170 -52h-1910l17 119h1894q50 0 75 21.5t32 72.5l12 84q-35 -81 -148 -81z" />
    <glyph glyph-name="Hcircumflex" unicode="&#x124;" horiz-adv-x="2603" 
d="M2342 0l40 288h-2166l-40 -288h-142l98 700h142l-40 -288h2165l41 288h142l-98 -700h-142zM1375 816l-175 -60h-140l219 110h203l188 -110h-137z" />
    <glyph glyph-name="hcircumflex" unicode="&#x125;" horiz-adv-x="2291" 
d="M2107 419q5 34 -8 49.5t-48 15.5h-1755q-64 0 -74 -65l-58 -419h-137l108 770h137l-35 -248q17 42 52 61.5t95 19.5h1725q83 0 116 -39.5t22 -123.5l-61 -440h-137zM1239 718l-175 -60h-140l219 110h203l188 -110h-137z" />
    <glyph glyph-name="Hbar" unicode="&#x126;" horiz-adv-x="2603" 
d="M2342 0l40 288h-2166l-40 -288h-142l70 503h-43l13 90h43l15 107h142l-15 -107h2166l15 107h142l-15 -107h44l-12 -90h-45l-70 -503h-142zM234 412h2165l13 91h-2166z" />
    <glyph glyph-name="hbar" unicode="&#x127;" horiz-adv-x="2291" 
d="M2107 419q5 34 -8 49.5t-48 15.5h-1755q-64 0 -74 -65l-58 -419h-137l89 639h-68l11 74h68l8 57h137l-8 -57h309l-11 -74h-309l-16 -117q17 42 52 61.5t95 19.5h1725q83 0 116 -39.5t22 -123.5l-61 -440h-137z" />
    <glyph glyph-name="Itilde" unicode="&#x128;" horiz-adv-x="295" 
d="M34 0l98 700h142l-98 -700h-142zM-45 747l12 83q74 49 146 49q45 0 120.5 -26.5t115.5 -26.5q65 0 135 50l-12 -83q-77 -50 -148 -50q-45 0 -120.5 26.5t-115.5 26.5q-67 0 -133 -49z" />
    <glyph glyph-name="itilde" unicode="&#x129;" horiz-adv-x="415" 
d="M-72 649l12 83q74 49 146 49q45 0 120.5 -26.5t115.5 -26.5q65 0 135 50l-12 -83q-77 -50 -148 -50q-45 0 -120.5 26.5t-115.5 26.5q-67 0 -133 -49zM239 119h126l-17 -119h-164q-84 0 -116.5 38.5t-20.5 120.5l61 444h137l-59 -422q-4 -33 8.5 -47.5t44.5 -14.5z" />
    <glyph glyph-name="Imacron" unicode="&#x12a;" horiz-adv-x="295" 
d="M424 776h-421l10 70h422zM34 0l98 700h142l-98 -700h-142z" />
    <glyph glyph-name="imacron" unicode="&#x12b;" horiz-adv-x="415" 
d="M398 678h-421l10 71h422zM239 119h126l-17 -119h-164q-84 0 -116.5 38.5t-20.5 120.5l61 444h137l-59 -422q-4 -33 8.5 -47.5t44.5 -14.5z" />
    <glyph glyph-name="Ibreve" unicode="&#x12c;" horiz-adv-x="295" 
d="M34 0l98 700h142l-98 -700h-142zM-37 807l8 79q88 -58 248 -58q159 0 263 58l-8 -79q-102 -62 -264 -62q-161 0 -247 62z" />
    <glyph glyph-name="ibreve" unicode="&#x12d;" horiz-adv-x="415" 
d="M-64 709l8 79q88 -58 248 -58q159 0 263 58l-8 -79q-102 -62 -264 -62q-161 0 -247 62zM239 119h126l-17 -119h-164q-84 0 -116.5 38.5t-20.5 120.5l61 444h137l-59 -422q-4 -33 8.5 -47.5t44.5 -14.5z" />
    <glyph glyph-name="Iogonek" unicode="&#x12e;" horiz-adv-x="295" 
d="M157 -189h-224q-57 0 -83 11t-26 39q0 58 62 77.5t237 19.5l7 42h-96l98 700h142l-98 -700h-20l-10 -66h-26q-204 0 -204 -29q0 -13 32 -13h221z" />
    <glyph glyph-name="iogonek" unicode="&#x12f;" horiz-adv-x="415" 
d="M321 -189h-234q-57 0 -83 11t-26 39q0 59 62.5 78t246.5 19l6 42h-109q-84 0 -116.5 38.5t-20.5 120.5l61 444h137l-59 -422q-4 -33 8.5 -47.5t44.5 -14.5h126l-17 -119h-29l-9 -66h-26q-214 0 -214 -29q0 -13 32 -13h230zM290 757l-13 -90h-182l13 90h182z" />
    <glyph glyph-name="Idotaccent" unicode="&#x130;" horiz-adv-x="295" 
d="M34 0l98 700h142l-98 -700h-142zM304 854l-13 -89h-156l13 89h156z" />
    <glyph glyph-name="dotlessi" unicode="&#x131;" horiz-adv-x="415" 
d="M251 119h126l-17 -119h-164q-84 0 -116.5 38.5t-20.5 120.5l61 444h137l-59 -422q-4 -33 8.5 -47.5t44.5 -14.5z" />
    <glyph glyph-name="IJ" unicode="&#x132;" horiz-adv-x="2849" 
d="M34 0l98 700h142l-98 -700h-142zM323 153l27 189h142l-23 -158q-5 -35 5.5 -47.5t44.5 -12.5h2029q36 0 52 15t21 51l72 510h142l-75 -535q-12 -84 -58 -124.5t-130 -40.5h-2117q-83 0 -113.5 35.5t-18.5 117.5z" />
    <glyph glyph-name="Jcircumflex" unicode="&#x134;" horiz-adv-x="2554" 
d="M40 153l27 189h142l-23 -158q-5 -35 5.5 -47.5t44.5 -12.5h2029q36 0 52 15t21 51l72 510h142l-75 -535q-12 -84 -58 -124.5t-130 -40.5h-2117q-83 0 -113.5 35.5t-18.5 117.5zM2353 816l-175 -60h-140l219 110h203l188 -110h-137z" />
    <glyph glyph-name="jcircumflex" unicode="&#x135;" horiz-adv-x="293" 
d="M-91 -48h68q33 0 48.5 14t20.5 47l83 590h136l-85 -611q-12 -83 -55 -121t-127 -38h-106zM217 718l-175 -60h-140l219 110h203l188 -110h-137z" />
    <glyph glyph-name="uni0136" unicode="&#x136;" horiz-adv-x="2577" 
d="M2570 700l-26 -186q-11 -76 -48.5 -116.5t-121.5 -47.5q82 -7 108.5 -48t15.5 -116l-26 -186h-142l30 216q5 38 -9 55t-51 17h-2084l-40 -288h-142l99 700h142l-41 -288h2083q38 0 56.5 17t24.5 55l30 216h142zM1313 -70l-10 -70q-8 -53 -39.5 -82.5t-83.5 -29.5h-43
l5 39h38q42 0 48 44l2 13h-82l12 86h153z" />
    <glyph glyph-name="uni0137" unicode="&#x137;" horiz-adv-x="2282" 
d="M2106 416l26 187h137l-22 -161q-9 -63 -42.5 -98t-97.5 -43q62 -7 85.5 -42t14.5 -98l-22 -161h-137l26 187q7 55 -48 55h-1828l-34 -242h-137l108 770h137l-58 -409h1828q57 0 64 55zM1187 -70l-10 -70q-8 -53 -39.5 -82.5t-83.5 -29.5h-43l5 39h38q42 0 48 44l2 13h-82
l12 86h153z" />
    <glyph glyph-name="kgreenlandic" unicode="&#x138;" horiz-adv-x="2282" 
d="M2106 416l26 187h137l-22 -161q-9 -63 -42.5 -98t-97.5 -43q62 -7 85.5 -42t14.5 -98l-22 -161h-137l26 187q7 55 -48 55h-1828l-34 -242h-137l84 603h137l-34 -242h1828q57 0 64 55z" />
    <glyph glyph-name="Lacute" unicode="&#x139;" horiz-adv-x="2496" 
d="M2444 125l-17 -125h-2393l98 700h142l-80 -575h2250zM562 866l-303 -110h-156l238 110h221z" />
    <glyph glyph-name="lacute" unicode="&#x13a;" horiz-adv-x="411" 
d="M247 119h125l-16 -119h-165q-83 0 -115.5 38.5t-21.5 120.5l86 611h137l-83 -589q-5 -33 7.5 -47.5t45.5 -14.5zM515 935l-303 -110h-156l238 110h221z" />
    <glyph glyph-name="uni013B" unicode="&#x13b;" horiz-adv-x="2496" 
d="M2444 125l-17 -125h-2393l98 700h142l-80 -575h2250zM1279 -70l-10 -70q-8 -53 -39.5 -82.5t-83.5 -29.5h-43l5 39h38q42 0 48 44l2 13h-82l12 86h153z" />
    <glyph glyph-name="uni013C" unicode="&#x13c;" horiz-adv-x="411" 
d="M247 119h125l-16 -119h-165q-83 0 -115.5 38.5t-21.5 120.5l86 611h137l-83 -589q-5 -33 7.5 -47.5t45.5 -14.5zM241 -70l-10 -70q-8 -53 -39.5 -82.5t-83.5 -29.5h-43l5 39h38q42 0 48 44l2 13h-82l12 86h153z" />
    <glyph glyph-name="Lcaron" unicode="&#x13d;" horiz-adv-x="2496" 
d="M2444 125l-17 -125h-2393l98 700h142l-80 -575h2250zM2258 700l-16 -117q-10 -66 -49.5 -103t-105.5 -37h-42l9 66h34q27 0 41 12t18 42l3 20h-85l17 117h176z" />
    <glyph glyph-name="lcaron" unicode="&#x13e;" horiz-adv-x="559" 
d="M247 119h125l-16 -119h-165q-83 0 -115.5 38.5t-21.5 120.5l86 611h137l-83 -589q-5 -33 7.5 -47.5t45.5 -14.5zM568 700l-16 -117q-10 -66 -49.5 -103t-105.5 -37h-42l9 66h34q27 0 41 12t18 42l3 20h-85l17 117h176z" />
    <glyph glyph-name="Ldot" unicode="&#x13f;" horiz-adv-x="2496" 
d="M2444 125l-17 -125h-2393l98 700h142l-80 -575h2250zM1437 410l-16 -118h-177l17 118h176z" />
    <glyph glyph-name="ldot" unicode="&#x140;" horiz-adv-x="591" 
d="M247 119h125l-16 -119h-165q-83 0 -115.5 38.5t-21.5 120.5l86 611h137l-83 -589q-5 -33 7.5 -47.5t45.5 -14.5zM542 409l-16 -118h-177l17 118h176z" />
    <glyph glyph-name="Lslash" unicode="&#x141;" horiz-adv-x="2496" 
d="M2444 125l-17 -125h-2393l26 189l-72 -23l17 122l72 23l55 389h142l-48 -342l629 200l-18 -122l-628 -200l-15 -111h2250z" />
    <glyph glyph-name="lslash" unicode="&#x142;" horiz-adv-x="411" 
d="M236 119h125l-16 -119h-165q-83 0 -115.5 38.5t-21.5 120.5l18 127l-59 -20l17 122l59 20l51 362h137l-45 -314l216 73l-17 -122l-216 -73l-21 -153q-5 -33 7.5 -47.5t45.5 -14.5z" />
    <glyph glyph-name="Nacute" unicode="&#x143;" horiz-adv-x="2578" 
d="M314 576q-35 0 -51.5 -15t-20.5 -51l-72 -510h-142l75 535q12 84 58 124.5t130 40.5h2107q85 0 119.5 -40.5t23.5 -124.5l-75 -535h-142l71 510q5 36 -7.5 51t-47.5 15h-2026zM1663 866l-303 -110h-156l238 110h221z" />
    <glyph glyph-name="nacute" unicode="&#x144;" horiz-adv-x="2284" 
d="M21 0l61 440q12 84 56.5 123.5t127.5 39.5h1836q83 0 116.5 -39.5t21.5 -123.5l-61 -440h-137l58 419q5 34 -8 49.5t-47 15.5h-1755q-34 0 -51.5 -15.5t-22.5 -49.5l-58 -419h-137zM1497 768l-303 -110h-156l238 110h221z" />
    <glyph glyph-name="uni0145" unicode="&#x145;" horiz-adv-x="2578" 
d="M314 576q-35 0 -51.5 -15t-20.5 -51l-72 -510h-142l75 535q12 84 58 124.5t130 40.5h2107q85 0 119.5 -40.5t23.5 -124.5l-75 -535h-142l71 510q5 36 -7.5 51t-47.5 15h-2026zM1313 -70l-10 -70q-8 -53 -39.5 -82.5t-83.5 -29.5h-43l5 39h38q42 0 48 44l2 13h-82l12 86
h153z" />
    <glyph glyph-name="uni0146" unicode="&#x146;" horiz-adv-x="2284" 
d="M21 0l61 440q12 84 56.5 123.5t127.5 39.5h1836q83 0 116.5 -39.5t21.5 -123.5l-61 -440h-137l58 419q5 34 -8 49.5t-47 15.5h-1755q-34 0 -51.5 -15.5t-22.5 -49.5l-58 -419h-137zM1166 -70l-10 -70q-8 -53 -39.5 -82.5t-83.5 -29.5h-43l5 39h38q42 0 48 44l2 13h-82
l12 86h153z" />
    <glyph glyph-name="Ncaron" unicode="&#x147;" horiz-adv-x="2578" 
d="M314 576q-35 0 -51.5 -15t-20.5 -51l-72 -510h-142l75 535q12 84 58 124.5t130 40.5h2107q85 0 119.5 -40.5t23.5 -124.5l-75 -535h-142l71 510q5 36 -7.5 51t-47.5 15h-2026zM1199 866l158 -59l176 59h140l-220 -110h-202l-189 110h137z" />
    <glyph glyph-name="ncaron" unicode="&#x148;" horiz-adv-x="2284" 
d="M21 0l61 440q12 84 56.5 123.5t127.5 39.5h1836q83 0 116.5 -39.5t21.5 -123.5l-61 -440h-137l58 419q5 34 -8 49.5t-47 15.5h-1755q-34 0 -51.5 -15.5t-22.5 -49.5l-58 -419h-137zM1039 768l158 -59l176 59h140l-220 -110h-202l-189 110h137z" />
    <glyph glyph-name="napostrophe" unicode="&#x149;" horiz-adv-x="2526" 
d="M264 0l61 440q12 84 56.5 123.5t127.5 39.5h1836q83 0 116.5 -39.5t21.5 -123.5l-61 -440h-137l58 419q5 34 -8 49.5t-47 15.5h-1755q-34 0 -51.5 -15.5t-22.5 -49.5l-58 -419h-137zM290 700l-16 -117q-10 -66 -49.5 -103t-105.5 -37h-42l9 66h34q27 0 41 12t18 42l3 20
h-85l17 117h176z" />
    <glyph glyph-name="Eng" unicode="&#x14a;" horiz-adv-x="2578" 
d="M314 576q-35 0 -51.5 -15t-20.5 -51l-72 -510h-142l75 535q12 84 58 124.5t130 40.5h2107q85 0 119.5 -40.5t23.5 -124.5l-76 -537q-12 -84 -58 -124.5t-131 -40.5h-671l18 124h630q36 0 52 15t21 51l69 487q5 36 -7.5 51t-47.5 15h-2026z" />
    <glyph glyph-name="eng" unicode="&#x14b;" horiz-adv-x="2284" 
d="M1906 -48h69q32 0 48 14t21 47l56 406q5 34 -8 49.5t-47 15.5h-1755q-34 0 -51.5 -15.5t-22.5 -49.5l-58 -419h-137l61 440q12 84 56.5 123.5t127.5 39.5h1836q83 0 116.5 -39.5t21.5 -123.5l-63 -448q-11 -83 -54.5 -121t-127.5 -38h-106z" />
    <glyph glyph-name="Omacron" unicode="&#x14c;" horiz-adv-x="2570" 
d="M196 0q-84 0 -118.5 40.5t-23.5 124.5l52 370q12 84 58 124.5t130 40.5h2115q85 0 119.5 -40.5t22.5 -124.5l-52 -370q-22 -165 -188 -165h-2115zM2361 189l45 321q5 36 -8 51t-47 15h-2033q-34 0 -51 -15t-22 -51l-45 -320q-5 -36 7.5 -51t47.5 -15h2032q35 0 52 15
t22 50zM1618 774h-514l11 75h514z" />
    <glyph glyph-name="omacron" unicode="&#x14d;" horiz-adv-x="2278" 
d="M2113 603q84 0 117 -39.5t22 -123.5l-39 -277q-11 -84 -55.5 -123.5t-128.5 -39.5h-1842q-84 0 -117 39.5t-22 123.5l39 277q12 84 56 123.5t128 39.5h1842zM2005 119q34 0 51.5 15.5t22.5 49.5l33 235q5 34 -8.5 49.5t-47.5 15.5h-1761q-65 0 -74 -65l-33 -235
q-10 -65 56 -65h1761zM1459 676h-514l11 75h514z" />
    <glyph glyph-name="Obreve" unicode="&#x14e;" horiz-adv-x="2570" 
d="M196 0q-84 0 -118.5 40.5t-23.5 124.5l52 370q12 84 58 124.5t130 40.5h2115q85 0 119.5 -40.5t22.5 -124.5l-52 -370q-22 -165 -188 -165h-2115zM2361 189l45 321q5 36 -8 51t-47 15h-2033q-34 0 -51 -15t-22 -51l-45 -320q-5 -36 7.5 -51t47.5 -15h2032q35 0 52 15
t22 50zM1110 807l8 79q88 -58 248 -58q159 0 263 58l-8 -79q-102 -62 -264 -62q-161 0 -247 62z" />
    <glyph glyph-name="obreve" unicode="&#x14f;" horiz-adv-x="2278" 
d="M2113 603q84 0 117 -39.5t22 -123.5l-39 -277q-11 -84 -55.5 -123.5t-128.5 -39.5h-1842q-84 0 -117 39.5t-22 123.5l39 277q12 84 56 123.5t128 39.5h1842zM2005 119q34 0 51.5 15.5t22.5 49.5l33 235q5 34 -8.5 49.5t-47.5 15.5h-1761q-65 0 -74 -65l-33 -235
q-10 -65 56 -65h1761zM951 709l8 79q88 -58 248 -58q159 0 263 58l-8 -79q-102 -62 -264 -62q-161 0 -247 62z" />
    <glyph glyph-name="Ohungarumlaut" unicode="&#x150;" horiz-adv-x="2570" 
d="M196 0q-84 0 -118.5 40.5t-23.5 124.5l52 370q12 84 58 124.5t130 40.5h2115q85 0 119.5 -40.5t22.5 -124.5l-52 -370q-22 -165 -188 -165h-2115zM2361 189l45 321q5 36 -8 51t-47 15h-2033q-34 0 -51 -15t-22 -51l-45 -320q-5 -36 7.5 -51t47.5 -15h2032q35 0 52 15
t22 50zM1860 866l-303 -110h-156l238 110h221zM1452 866l-303 -110h-156l238 110h221z" />
    <glyph glyph-name="ohungarumlaut" unicode="&#x151;" horiz-adv-x="2278" 
d="M2113 603q84 0 117 -39.5t22 -123.5l-39 -277q-11 -84 -55.5 -123.5t-128.5 -39.5h-1842q-84 0 -117 39.5t-22 123.5l39 277q12 84 56 123.5t128 39.5h1842zM2005 119q34 0 51.5 15.5t22.5 49.5l33 235q5 34 -8.5 49.5t-47.5 15.5h-1761q-65 0 -74 -65l-33 -235
q-10 -65 56 -65h1761zM1715 768l-303 -110h-156l238 110h221zM1307 768l-303 -110h-156l238 110h221z" />
    <glyph glyph-name="OE" unicode="&#x152;" horiz-adv-x="3961" 
d="M200 0q-85 0 -119.5 40.5t-22.5 124.5l52 370q12 84 57.5 124.5t130.5 40.5h3667l-18 -124h-1829l-23 -164h1714l-17 -124h-1714l-23 -164h1829l-17 -124h-3667zM1913 124l63 452h-1655q-35 0 -51.5 -15t-20.5 -51l-45 -320q-5 -36 7 -51t47 -15h1655z" />
    <glyph glyph-name="oe" unicode="&#x153;" horiz-adv-x="3418" 
d="M1639 180l34 243q9 61 -51 61h-1327q-65 0 -75 -65l-33 -235q-9 -65 56 -65h1327q60 0 69 61zM3263 407l3 26q4 27 -6 39t-37 12h-1345q-60 0 -69 -61l-9 -66h1405q27 0 40.5 11.5t17.5 38.5zM1784 246l-9 -66q-9 -61 51 -61h1504l-16 -119h-1480q-75 0 -106 29t-29 95
q-16 -66 -55.5 -95t-113.5 -29h-1343q-84 0 -117 39.5t-22 123.5l39 277q12 84 56 123.5t128 39.5h1343q74 0 105.5 -29t29.5 -95q16 66 55 95t114 29h1364q74 0 104.5 -35.5t20.5 -111.5l-9 -63q-10 -76 -51 -111.5t-115 -35.5h-1448z" />
    <glyph glyph-name="Racute" unicode="&#x154;" horiz-adv-x="2577" 
d="M2547 540l-6 -45q-9 -69 -45.5 -104.5t-113.5 -41.5q76 -9 101 -49t15 -114l-26 -186h-142l30 216q5 38 -9 55t-51 17h-2084l-40 -288h-142l98 700h2278q84 0 116.5 -38.5t20.5 -121.5zM2324 412q35 0 51 14.5t21 49.5l6 36q4 34 -8.5 49t-45.5 15h-2091l-23 -164h2090z
M1663 866l-303 -110h-156l238 110h221z" />
    <glyph glyph-name="racute" unicode="&#x155;" horiz-adv-x="2093" 
d="M2107 603l-16 -119h-1801q-64 0 -74 -65l-58 -419h-137l61 440q12 84 56.5 123.5t128.5 39.5h1840zM1453 768l-303 -110h-156l238 110h221z" />
    <glyph glyph-name="uni0156" unicode="&#x156;" horiz-adv-x="2577" 
d="M2547 540l-6 -45q-9 -69 -45.5 -104.5t-113.5 -41.5q76 -9 101 -49t15 -114l-26 -186h-142l30 216q5 38 -9 55t-51 17h-2084l-40 -288h-142l98 700h2278q84 0 116.5 -38.5t20.5 -121.5zM2324 412q35 0 51 14.5t21 49.5l6 36q4 34 -8.5 49t-45.5 15h-2091l-23 -164h2090z
M1338 -70l-10 -70q-8 -53 -39.5 -82.5t-83.5 -29.5h-43l5 39h38q42 0 48 44l2 13h-82l12 86h153z" />
    <glyph glyph-name="uni0157" unicode="&#x157;" horiz-adv-x="2093" 
d="M2107 603l-16 -119h-1801q-64 0 -74 -65l-58 -419h-137l61 440q12 84 56.5 123.5t128.5 39.5h1840zM156 -70l-10 -70q-8 -53 -39.5 -82.5t-83.5 -29.5h-43l5 39h38q42 0 48 44l2 13h-82l12 86h153z" />
    <glyph glyph-name="Rcaron" unicode="&#x158;" horiz-adv-x="2577" 
d="M2547 540l-6 -45q-9 -69 -45.5 -104.5t-113.5 -41.5q76 -9 101 -49t15 -114l-26 -186h-142l30 216q5 38 -9 55t-51 17h-2084l-40 -288h-142l98 700h2278q84 0 116.5 -38.5t20.5 -121.5zM2324 412q35 0 51 14.5t21 49.5l6 36q4 34 -8.5 49t-45.5 15h-2091l-23 -164h2090z
M1199 866l158 -59l176 59h140l-220 -110h-202l-189 110h137z" />
    <glyph glyph-name="rcaron" unicode="&#x159;" horiz-adv-x="2093" 
d="M2107 603l-16 -119h-1801q-64 0 -74 -65l-58 -419h-137l61 440q12 84 56.5 123.5t128.5 39.5h1840zM988 768l158 -59l176 59h140l-220 -110h-202l-189 110h137z" />
    <glyph glyph-name="Sacute" unicode="&#x15a;" horiz-adv-x="2527" 
d="M227 288q-84 0 -118 40t-23 124l12 85q12 83 57.5 123t129.5 40h2218l-18 -124h-2177q-34 0 -50.5 -15t-20.5 -49l-5 -37q-5 -34 7 -48.5t46 -14.5h2041q84 0 118.5 -40t22.5 -124l-11 -85q-12 -83 -57.5 -123t-129.5 -40h-2261l17 124h2221q34 0 50.5 15t20.5 49l5 37
q5 34 -7 48.5t-46 14.5h-2042zM1638 866l-303 -110h-156l238 110h221z" />
    <glyph glyph-name="sacute" unicode="&#x15b;" horiz-adv-x="2258" 
d="M2210 484h-1948q-52 0 -59 -51l-3 -25q-4 -28 6.5 -39.5t37.5 -11.5h1834q74 0 103.5 -36t19.5 -112l-9 -62q-10 -76 -50.5 -111.5t-114.5 -35.5h-2021l16 119h1978q51 0 58 51l4 25q4 28 -6 39.5t-38 11.5h-1833q-74 0 -104 35.5t-20 111.5l9 63q10 76 50.5 111.5
t114.5 35.5h1991zM1490 768l-303 -110h-156l238 110h221z" />
    <glyph glyph-name="Scircumflex" unicode="&#x15c;" horiz-adv-x="2527" 
d="M227 288q-84 0 -118 40t-23 124l12 85q12 83 57.5 123t129.5 40h2218l-18 -124h-2177q-34 0 -50.5 -15t-20.5 -49l-5 -37q-5 -34 7 -48.5t46 -14.5h2041q84 0 118.5 -40t22.5 -124l-11 -85q-12 -83 -57.5 -123t-129.5 -40h-2261l17 124h2221q34 0 50.5 15t20.5 49l5 37
q5 34 -7 48.5t-46 14.5h-2042zM1337 816l-175 -60h-140l219 110h203l188 -110h-137z" />
    <glyph glyph-name="scircumflex" unicode="&#x15d;" horiz-adv-x="2258" 
d="M2210 484h-1948q-52 0 -59 -51l-3 -25q-4 -28 6.5 -39.5t37.5 -11.5h1834q74 0 103.5 -36t19.5 -112l-9 -62q-10 -76 -50.5 -111.5t-114.5 -35.5h-2021l16 119h1978q51 0 58 51l4 25q4 28 -6 39.5t-38 11.5h-1833q-74 0 -104 35.5t-20 111.5l9 63q10 76 50.5 111.5
t114.5 35.5h1991zM1189 718l-175 -60h-140l219 110h203l188 -110h-137z" />
    <glyph glyph-name="Scedilla" unicode="&#x15e;" horiz-adv-x="2527" 
d="M1331 -67h-174l39 67h-1188l17 124h2221q34 0 50.5 15t20.5 49l5 37q5 34 -7 48.5t-46 14.5h-2042q-84 0 -118 40t-23 124l12 85q12 83 57.5 123t129.5 40h2218l-18 -124h-2177q-34 0 -50.5 -15t-20.5 -49l-5 -37q-5 -34 7 -48.5t46 -14.5h2041q84 0 118.5 -40t22.5 -124
l-11 -85q-12 -83 -57.5 -123t-129.5 -40h-1047l-25 -43h169q54 0 78 -11.5t24 -39.5q0 -48 -38 -71.5t-124 -23.5h-363l12 81h357q29 0 41 6t12 21q0 14 -34 14z" />
    <glyph glyph-name="scedilla" unicode="&#x15f;" horiz-adv-x="2258" 
d="M1185 -67h-174l39 67h-1044l16 119h1978q51 0 58 51l4 25q4 28 -6 39.5t-38 11.5h-1833q-74 0 -104 35.5t-20 111.5l9 63q10 76 50.5 111.5t114.5 35.5h1991l-16 -119h-1948q-52 0 -59 -51l-3 -25q-4 -28 6.5 -39.5t37.5 -11.5h1834q74 0 103.5 -36t19.5 -112l-9 -62
q-10 -76 -50.5 -111.5t-114.5 -35.5h-951l-25 -43h169q54 0 78 -11.5t24 -39.5q0 -48 -38 -71.5t-124 -23.5h-363l12 81h357q29 0 41 6t12 21q0 14 -34 14z" />
    <glyph glyph-name="Scaron" unicode="&#x160;" horiz-adv-x="2527" 
d="M227 288q-84 0 -118 40t-23 124l12 85q12 83 57.5 123t129.5 40h2218l-18 -124h-2177q-34 0 -50.5 -15t-20.5 -49l-5 -37q-5 -34 7 -48.5t46 -14.5h2041q84 0 118.5 -40t22.5 -124l-11 -85q-12 -83 -57.5 -123t-129.5 -40h-2261l17 124h2221q34 0 50.5 15t20.5 49l5 37
q5 34 -7 48.5t-46 14.5h-2042zM1174 866l158 -59l176 59h140l-220 -110h-202l-189 110h137z" />
    <glyph glyph-name="scaron" unicode="&#x161;" horiz-adv-x="2258" 
d="M2210 484h-1948q-52 0 -59 -51l-3 -25q-4 -28 6.5 -39.5t37.5 -11.5h1834q74 0 103.5 -36t19.5 -112l-9 -62q-10 -76 -50.5 -111.5t-114.5 -35.5h-2021l16 119h1978q51 0 58 51l4 25q4 28 -6 39.5t-38 11.5h-1833q-74 0 -104 35.5t-20 111.5l9 63q10 76 50.5 111.5
t114.5 35.5h1991zM1026 768l158 -59l176 59h140l-220 -110h-202l-189 110h137z" />
    <glyph glyph-name="uni0162" unicode="&#x162;" horiz-adv-x="2499" 
d="M1319 -67h-174l39 67h-47l80 576h-1152l18 124h2445l-18 -124h-1151l-80 -576h-69l-25 -43h169q54 0 78 -11.5t24 -39.5q0 -48 -38 -71.5t-124 -23.5h-363l12 81h357q29 0 41 6t12 21q0 14 -34 14z" />
    <glyph glyph-name="uni0163" unicode="&#x163;" horiz-adv-x="2128" 
d="M1149 -67h-174l39 67h-818q-84 0 -118 39.5t-22 123.5l85 607h137l-24 -167h1881l-16 -119h-1882l-42 -300q-5 -34 8.5 -49.5t47.5 -15.5h1817l-17 -119h-1011l-25 -43h169q54 0 78 -11.5t24 -39.5q0 -48 -38 -71.5t-124 -23.5h-363l12 81h357q29 0 41 6t12 21
q0 14 -34 14z" />
    <glyph glyph-name="Tcaron" unicode="&#x164;" horiz-adv-x="2499" 
d="M2528 700l-18 -124h-1151l-80 -576h-142l80 576h-1152l18 124h2445zM1160 866l158 -59l176 59h140l-220 -110h-202l-189 110h137z" />
    <glyph glyph-name="tcaron" unicode="&#x165;" horiz-adv-x="2428" 
d="M196 0q-84 0 -118 39.5t-22 123.5l85 607h137l-24 -167h1881l-16 -119h-1882l-42 -300q-5 -34 8.5 -49.5t47.5 -15.5h1817l-17 -119h-1855zM2438 700l-16 -117q-10 -66 -49.5 -103t-105.5 -37h-42l9 66h34q27 0 41 12t18 42l3 20h-85l17 117h176z" />
    <glyph glyph-name="Tbar" unicode="&#x166;" horiz-adv-x="2499" 
d="M2528 700l-18 -124h-1151l-19 -135h197l-12 -90h-198l-48 -351h-142l48 351h-197l13 90h197l19 135h-1152l18 124h2445z" />
    <glyph glyph-name="tbar" unicode="&#x167;" horiz-adv-x="2128" 
d="M534 297h-335l-16 -113q-5 -34 8.5 -49.5t47.5 -15.5h1817l-17 -119h-1855q-84 0 -118 39.5t-22 123.5l19 134h-64l13 90h63l54 383h137l-24 -167h1881l-16 -119h-1882l-14 -97h336z" />
    <glyph glyph-name="Utilde" unicode="&#x168;" horiz-adv-x="2578" 
d="M217 0q-166 0 -142 165l75 535h142l-71 -510q-5 -36 7 -51t47 -15h2026q35 0 51.5 15t21.5 51l72 510h142l-75 -535q-12 -84 -58 -124.5t-131 -40.5h-2107zM1119 747l12 83q74 49 146 49q45 0 120.5 -26.5t115.5 -26.5q65 0 135 50l-12 -83q-77 -50 -148 -50
q-45 0 -120.5 26.5t-115.5 26.5q-67 0 -133 -49z" />
    <glyph glyph-name="utilde" unicode="&#x169;" horiz-adv-x="2284" 
d="M2006 119q34 0 51 15.5t22 49.5l59 419h137l-61 -440q-13 -84 -57 -123.5t-127 -39.5h-1836q-83 0 -116.5 39.5t-21.5 123.5l61 440h137l-59 -419q-5 -34 8.5 -49.5t47.5 -15.5h1755zM947 649l12 83q74 49 146 49q45 0 120.5 -26.5t115.5 -26.5q65 0 135 50l-12 -83
q-77 -50 -148 -50q-45 0 -120.5 26.5t-115.5 26.5q-67 0 -133 -49z" />
    <glyph glyph-name="Umacron" unicode="&#x16a;" horiz-adv-x="2578" 
d="M217 0q-166 0 -142 165l75 535h142l-71 -510q-5 -36 7 -51t47 -15h2026q35 0 51.5 15t21.5 51l72 510h142l-75 -535q-12 -84 -58 -124.5t-131 -40.5h-2107zM1635 774h-514l11 75h514z" />
    <glyph glyph-name="umacron" unicode="&#x16b;" horiz-adv-x="2284" 
d="M2006 119q34 0 51 15.5t22 49.5l59 419h137l-61 -440q-13 -84 -57 -123.5t-127 -39.5h-1836q-83 0 -116.5 39.5t-21.5 123.5l61 440h137l-59 -419q-5 -34 8.5 -49.5t47.5 -15.5h1755zM1463 676h-514l11 75h514z" />
    <glyph glyph-name="Ubreve" unicode="&#x16c;" horiz-adv-x="2578" 
d="M217 0q-166 0 -142 165l75 535h142l-71 -510q-5 -36 7 -51t47 -15h2026q35 0 51.5 15t21.5 51l72 510h142l-75 -535q-12 -84 -58 -124.5t-131 -40.5h-2107zM1127 807l8 79q88 -58 248 -58q159 0 263 58l-8 -79q-102 -62 -264 -62q-161 0 -247 62z" />
    <glyph glyph-name="ubreve" unicode="&#x16d;" horiz-adv-x="2284" 
d="M2006 119q34 0 51 15.5t22 49.5l59 419h137l-61 -440q-13 -84 -57 -123.5t-127 -39.5h-1836q-83 0 -116.5 39.5t-21.5 123.5l61 440h137l-59 -419q-5 -34 8.5 -49.5t47.5 -15.5h1755zM955 709l8 79q88 -58 248 -58q159 0 263 58l-8 -79q-102 -62 -264 -62q-161 0 -247 62
z" />
    <glyph glyph-name="Uring" unicode="&#x16e;" horiz-adv-x="2578" 
d="M217 0q-166 0 -142 165l75 535h142l-71 -510q-5 -36 7 -51t47 -15h2026q35 0 51.5 15t21.5 51l72 510h142l-75 -535q-12 -84 -58 -124.5t-131 -40.5h-2107zM1299 902h194q84 0 84 -59q0 -93 -106 -93h-194q-84 0 -84 59q0 93 106 93zM1275 801h213q33 0 33 30
q0 20 -26 20h-213q-33 0 -33 -30q0 -20 26 -20z" />
    <glyph glyph-name="uring" unicode="&#x16f;" horiz-adv-x="2284" 
d="M2006 119q34 0 51 15.5t22 49.5l59 419h137l-61 -440q-13 -84 -57 -123.5t-127 -39.5h-1836q-83 0 -116.5 39.5t-21.5 123.5l61 440h137l-59 -419q-5 -34 8.5 -49.5t47.5 -15.5h1755zM1127 804h194q84 0 84 -59q0 -93 -106 -93h-194q-84 0 -84 59q0 93 106 93zM1103 703
h213q33 0 33 30q0 20 -26 20h-213q-33 0 -33 -30q0 -20 26 -20z" />
    <glyph glyph-name="Uhungarumlaut" unicode="&#x170;" horiz-adv-x="2578" 
d="M217 0q-166 0 -142 165l75 535h142l-71 -510q-5 -36 7 -51t47 -15h2026q35 0 51.5 15t21.5 51l72 510h142l-75 -535q-12 -84 -58 -124.5t-131 -40.5h-2107zM1892 866l-303 -110h-156l238 110h221zM1484 866l-303 -110h-156l238 110h221z" />
    <glyph glyph-name="uhungarumlaut" unicode="&#x171;" horiz-adv-x="2284" 
d="M2006 119q34 0 51 15.5t22 49.5l59 419h137l-61 -440q-13 -84 -57 -123.5t-127 -39.5h-1836q-83 0 -116.5 39.5t-21.5 123.5l61 440h137l-59 -419q-5 -34 8.5 -49.5t47.5 -15.5h1755zM1720 768l-303 -110h-156l238 110h221zM1312 768l-303 -110h-156l238 110h221z" />
    <glyph glyph-name="Uogonek" unicode="&#x172;" horiz-adv-x="2578" 
d="M2370 -42h27l8 54q-35 -12 -81 -12h-2107q-166 0 -142 165l75 535h142l-71 -510q-5 -36 7 -51t47 -15h2026q35 0 51.5 15t21.5 51l72 510h142l-75 -535q-15 -103 -81 -141l-13 -90h-35q-162 0 -239.5 -4t-94.5 -9.5t-17 -18.5q0 -10 32 -10h394l-11 -81h-398
q-57 0 -83 11t-26 39q0 22 4.5 35.5t21 25.5t43.5 18t77.5 10.5t116.5 6t166 1.5z" />
    <glyph glyph-name="uogonek" unicode="&#x173;" horiz-adv-x="2284" 
d="M2152 -189h-398q-57 0 -83 11t-26 39q0 22 4.5 35.5t21 25.5t43.5 18t77.5 10.5t116.5 6t166 1.5h27l7 53q-35 -11 -78 -11h-1836q-83 0 -116.5 39.5t-21.5 123.5l61 440h137l-59 -419q-5 -34 8.5 -49.5t47.5 -15.5h1755q34 0 51 15.5t22 49.5l59 419h137l-61 -440
q-13 -101 -78 -139l-13 -90h-35q-162 0 -239.5 -4t-94.5 -9.5t-17 -18.5q0 -10 32 -10h394z" />
    <glyph glyph-name="Wcircumflex" unicode="&#x174;" horiz-adv-x="3081" 
d="M2828 0h-1140q-79 0 -114 31.5t-34 99.5q-18 -69 -61 -100t-122 -31h-1140q-166 0 -142 165l75 535h142l-71 -510q-5 -36 7 -51t47 -15h1125q37 0 55 16.5t23 54.5l71 505h143l-72 -505q-5 -37 9 -54t51 -17h1124q35 0 52 15t21 51l72 510h142l-75 -535
q-12 -84 -58 -124.5t-130 -40.5zM1638 816l-175 -60h-140l219 110h203l188 -110h-137z" />
    <glyph glyph-name="wcircumflex" unicode="&#x175;" horiz-adv-x="2733" 
d="M1353 124q-16 -66 -55 -95t-114 -29h-990q-83 0 -116.5 39.5t-21.5 123.5l61 440h137l-59 -419q-5 -34 8.5 -49.5t47.5 -15.5h974q59 0 68 61l59 423h137l-60 -423q-8 -61 52 -61h973q35 0 52 15.5t22 49.5l59 419h136l-61 -440q-12 -84 -56 -123.5t-127 -39.5h-991
q-74 0 -106 29t-29 95zM1438 718l-175 -60h-140l219 110h203l188 -110h-137z" />
    <glyph glyph-name="Ycircumflex" unicode="&#x176;" horiz-adv-x="2546" 
d="M2424 700h142l-35 -247q-12 -84 -58 -124.5t-130 -40.5h-989l-40 -288h-142l40 288h-989q-84 0 -118.5 40.5t-22.5 124.5l35 247h142l-32 -223q-5 -36 7.5 -50.5t47.5 -14.5h2037q35 0 51.5 14.5t21.5 50.5zM1359 816l-175 -60h-140l219 110h203l188 -110h-137z" />
    <glyph glyph-name="ycircumflex" unicode="&#x177;" horiz-adv-x="2291" 
d="M1941 -167h-1904l17 119h1887q50 0 75.5 21.5t32.5 72.5l12 84q-19 -42 -54 -61.5t-95 -19.5h-1723q-84 0 -117 39.5t-22 123.5l55 391h137l-52 -369q-9 -65 56 -65h1755q34 0 51.5 15.5t22.5 49.5l52 369h136l-78 -555q-16 -111 -74.5 -163t-169.5 -52zM1205 718
l-175 -60h-140l219 110h203l188 -110h-137z" />
    <glyph glyph-name="Ydieresis" unicode="&#x178;" horiz-adv-x="2546" 
d="M2424 700h142l-35 -247q-12 -84 -58 -124.5t-130 -40.5h-989l-40 -288h-142l40 288h-989q-84 0 -118.5 40.5t-22.5 124.5l35 247h142l-32 -223q-5 -36 7.5 -50.5t47.5 -14.5h2037q35 0 51.5 14.5t21.5 50.5zM1239 854l-12 -89h-156l12 89h156zM1641 854l-12 -89h-156
l12 89h156z" />
    <glyph glyph-name="Zacute" unicode="&#x179;" horiz-adv-x="2532" 
d="M2263 412q49 0 71 19t29 68l11 77h-2256l18 124h2398l-30 -213q-29 -199 -228 -199h-1997q-49 0 -71 -19t-29 -68l-11 -77h2285l-17 -124h-2427l30 213q27 199 226 199h1998zM1650 866l-303 -110h-156l238 110h221z" />
    <glyph glyph-name="zacute" unicode="&#x17a;" horiz-adv-x="2263" 
d="M246 246q-38 0 -57 -17t-24 -54l-8 -56h2032l-16 -119h-2169l23 169q27 188 215 188h1773q38 0 57 17t24 54l8 56h-2008l16 119h2145l-24 -169q-25 -188 -214 -188h-1773zM1512 768l-303 -110h-156l238 110h221z" />
    <glyph glyph-name="Zdotaccent" unicode="&#x17b;" horiz-adv-x="2532" 
d="M2263 412q49 0 71 19t29 68l11 77h-2256l18 124h2398l-30 -213q-29 -199 -228 -199h-1997q-49 0 -71 -19t-29 -68l-11 -77h2285l-17 -124h-2427l30 213q27 199 226 199h1998zM1431 854l-13 -89h-156l13 89h156z" />
    <glyph glyph-name="zdotaccent" unicode="&#x17c;" horiz-adv-x="2263" 
d="M246 246q-38 0 -57 -17t-24 -54l-8 -56h2032l-16 -119h-2169l23 169q27 188 215 188h1773q38 0 57 17t24 54l8 56h-2008l16 119h2145l-24 -169q-25 -188 -214 -188h-1773zM1293 756l-13 -89h-156l13 89h156z" />
    <glyph glyph-name="Zcaron" unicode="&#x17d;" horiz-adv-x="2532" 
d="M2263 412q49 0 71 19t29 68l11 77h-2256l18 124h2398l-30 -213q-29 -199 -228 -199h-1997q-49 0 -71 -19t-29 -68l-11 -77h2285l-17 -124h-2427l30 213q27 199 226 199h1998zM1186 866l158 -59l176 59h140l-220 -110h-202l-189 110h137z" />
    <glyph glyph-name="zcaron" unicode="&#x17e;" horiz-adv-x="2263" 
d="M246 246q-38 0 -57 -17t-24 -54l-8 -56h2032l-16 -119h-2169l23 169q27 188 215 188h1773q38 0 57 17t24 54l8 56h-2008l16 119h2145l-24 -169q-25 -188 -214 -188h-1773zM1048 768l158 -59l176 59h140l-220 -110h-202l-189 110h137z" />
    <glyph glyph-name="florin" unicode="&#x192;" 
d="M2425 412l-17 -124h-2012l-19 -134q-12 -82 -52 -118t-123 -36h-196l17 124h149q34 0 48 12.5t19 47.5l15 104h-208l17 124h208l18 124q11 84 56.5 124t130.5 40h2102l-18 -124h-2061q-35 0 -51 -14.5t-20 -49.5l-15 -100h2012z" />
    <glyph glyph-name="AEacute" unicode="&#x1fc;" horiz-adv-x="3941" 
d="M1879 0l40 288h-1709l-40 -288h-142l75 535q12 84 58 124.5t130 40.5h3657l-17 -124h-1830l-23 -164h1715l-17 -124h-1715l-23 -164h1830l-18 -124h-1971zM314 576q-35 0 -51.5 -15t-20.5 -51l-15 -98h1709l24 164h-1646zM2367 866l-303 -110h-156l238 110h221z" />
    <glyph glyph-name="aeacute" unicode="&#x1fd;" horiz-adv-x="3410" 
d="M3254 408l3 25q4 27 -6 39t-37 12h-1345q-60 0 -69 -61l-9 -66h1405q28 0 41 11.5t17 39.5zM176 196l-4 -26q-4 -27 6.5 -39t37.5 -12h1345q60 0 69 61l9 66h-1405q-27 0 -40.5 -11.5t-17.5 -38.5zM1521 0h-1364q-74 0 -104.5 35.5t-20.5 111.5l9 62q10 76 50.5 112
t115.5 36h1448l9 66q9 61 -51 61h-1504l16 119h1480q75 0 106 -29t29 -95q16 66 55.5 95t113.5 29h1364q74 0 104.5 -35.5t20.5 -111.5l-9 -63q-20 -147 -165 -147h-1449l-9 -66q-9 -61 51 -61h1504l-16 -119h-1480q-74 0 -105.5 29t-29.5 95q-16 -66 -55 -95t-114 -29z
M2076 768l-303 -110h-156l238 110h221z" />
    <glyph glyph-name="Oslashacute" unicode="&#x1fe;" horiz-adv-x="2570" 
d="M196 0q-84 0 -118.5 40.5t-23.5 124.5l52 370q12 84 58 124.5t130 40.5h2115q85 0 119.5 -40.5t22.5 -124.5l-52 -370q-22 -165 -188 -165h-2115zM2361 189l45 321q4 34 -7 49.5t-41 16.5l-1723 -452h1652q35 0 52 15t22 50zM245 124l1723 452h-1650q-34 0 -51 -15
t-22 -51l-45 -320q-5 -34 5.5 -49t39.5 -17zM1670 866l-303 -110h-156l238 110h221z" />
    <glyph glyph-name="oslashacute" unicode="&#x1ff;" horiz-adv-x="2278" 
d="M2113 603q84 0 117 -39.5t22 -123.5l-39 -277q-11 -84 -55.5 -123.5t-128.5 -39.5h-1842q-84 0 -117 39.5t-22 123.5l39 277q12 84 56 123.5t128 39.5h1842zM2005 119q34 0 51.5 15.5t22.5 49.5l33 235q9 57 -41 64l-1465 -364h1399zM228 120l1465 364h-1398
q-65 0 -74 -65l-33 -235q-9 -58 40 -64zM1511 768l-303 -110h-156l238 110h221z" />
    <glyph glyph-name="uni0218" unicode="&#x218;" horiz-adv-x="2527" 
d="M227 288q-84 0 -118 40t-23 124l12 85q12 83 57.5 123t129.5 40h2218l-18 -124h-2177q-34 0 -50.5 -15t-20.5 -49l-5 -37q-5 -34 7 -48.5t46 -14.5h2041q84 0 118.5 -40t22.5 -124l-11 -85q-12 -83 -57.5 -123t-129.5 -40h-2261l17 124h2221q34 0 50.5 15t20.5 49l5 37
q5 34 -7 48.5t-46 14.5h-2042zM1287 -70l-10 -70q-8 -53 -39.5 -82.5t-83.5 -29.5h-43l5 39h38q42 0 48 44l2 13h-82l12 86h153z" />
    <glyph glyph-name="uni0219" unicode="&#x219;" horiz-adv-x="2258" 
d="M2210 484h-1948q-52 0 -59 -51l-3 -25q-4 -28 6.5 -39.5t37.5 -11.5h1834q74 0 103.5 -36t19.5 -112l-9 -62q-10 -76 -50.5 -111.5t-114.5 -35.5h-2021l16 119h1978q51 0 58 51l4 25q4 28 -6 39.5t-38 11.5h-1833q-74 0 -104 35.5t-20 111.5l9 63q10 76 50.5 111.5
t114.5 35.5h1991zM1136 -70l-10 -70q-8 -53 -39.5 -82.5t-83.5 -29.5h-43l5 39h38q42 0 48 44l2 13h-82l12 86h153z" />
    <glyph glyph-name="uni021A" unicode="&#x21a;" horiz-adv-x="2499" 
d="M2528 700l-18 -124h-1151l-80 -576h-142l80 576h-1152l18 124h2445zM1274 -70l-10 -70q-8 -53 -39.5 -82.5t-83.5 -29.5h-43l5 39h38q42 0 48 44l2 13h-82l12 86h153z" />
    <glyph glyph-name="uni021B" unicode="&#x21b;" horiz-adv-x="2128" 
d="M196 0q-84 0 -118 39.5t-22 123.5l85 607h137l-24 -167h1881l-16 -119h-1882l-42 -300q-5 -34 8.5 -49.5t47.5 -15.5h1817l-17 -119h-1855zM1100 -70l-10 -70q-8 -53 -39.5 -82.5t-83.5 -29.5h-43l5 39h38q42 0 48 44l2 13h-82l12 86h153z" />
    <glyph glyph-name="uni0237" unicode="&#x237;" horiz-adv-x="293" 
d="M-91 -48h68q33 0 48.5 14t20.5 47l83 590h136l-85 -611q-12 -83 -55 -121t-127 -38h-106z" />
    <glyph glyph-name="circumflex" unicode="&#x2c6;" horiz-adv-x="600" 
d="M360 718l-175 -60h-140l219 110h203l188 -110h-137z" />
    <glyph glyph-name="caron" unicode="&#x2c7;" horiz-adv-x="600" 
d="M197 768l158 -59l176 59h140l-220 -110h-202l-189 110h137z" />
    <glyph glyph-name="breve" unicode="&#x2d8;" horiz-adv-x="600" 
d="M101 709l8 79q88 -58 248 -58q159 0 263 58l-8 -79q-102 -62 -264 -62q-161 0 -247 62z" />
    <glyph glyph-name="dotaccent" unicode="&#x2d9;" horiz-adv-x="600" 
d="M442 756l-13 -89h-156l13 89h156z" />
    <glyph glyph-name="ring" unicode="&#x2da;" horiz-adv-x="600" 
d="M273 804h194q84 0 84 -59q0 -93 -106 -93h-194q-84 0 -84 59q0 93 106 93zM249 703h213q33 0 33 30q0 20 -26 20h-213q-33 0 -33 -30q0 -20 26 -20z" />
    <glyph glyph-name="ogonek" unicode="&#x2db;" horiz-adv-x="601" 
d="M460 -66h-35q-162 0 -239.5 -4t-94.5 -9.5t-17 -18.5q0 -10 32 -10h394l-11 -81h-398q-57 0 -83 11t-26 39q0 22 4.5 35.5t21 25.5t43.5 18t77.5 10.5t116.5 6t166 1.5h27l6 42h26z" />
    <glyph glyph-name="tilde" unicode="&#x2dc;" horiz-adv-x="600" 
d="M93 649l12 83q74 49 146 49q45 0 120.5 -26.5t115.5 -26.5q65 0 135 50l-12 -83q-77 -50 -148 -50q-45 0 -120.5 26.5t-115.5 26.5q-67 0 -133 -49z" />
    <glyph glyph-name="hungarumlaut" unicode="&#x2dd;" horiz-adv-x="600" 
d="M801 768l-303 -110h-156l238 110h221zM393 768l-303 -110h-156l238 110h221z" />
    <glyph glyph-name="pi" unicode="&#x3c0;" 
d="M154 0l84 603h2157l-84 -603h-136l67 484h-1884l-68 -484h-136z" />
    <glyph glyph-name="uni1E02" unicode="&#x1e02;" horiz-adv-x="2570" 
d="M2500 205l-6 -45q-11 -83 -54.5 -121.5t-127.5 -38.5h-2278l98 700h2278q84 0 116.5 -38.5t20.5 -121.5l-6 -45q-9 -68 -43.5 -103.5t-108.5 -41.5q72 -7 96.5 -42.5t14.5 -102.5zM2324 412q35 0 51 14.5t21 49.5l6 36q4 34 -8.5 49t-45.5 15h-2091l-23 -164h2090z
M216 288l-22 -164h2091q33 0 49.5 15t21.5 49l5 36q5 36 -7 50t-47 14h-2091zM1440 854l-13 -89h-156l13 89h156z" />
    <glyph glyph-name="uni1E03" unicode="&#x1e03;" horiz-adv-x="2285" 
d="M56 163l85 607h137l-35 -248q17 42 52 61.5t95 19.5h1732q83 0 116 -39.5t22 -123.5l-39 -277q-11 -84 -55.5 -123.5t-127.5 -39.5h-1843q-84 0 -117.5 39.5t-21.5 123.5zM228 419l-33 -235q-5 -34 8.5 -49.5t47.5 -15.5h1762q34 0 51.5 15.5t22.5 49.5l33 235
q5 34 -8.5 49.5t-47.5 15.5h-1762q-34 0 -51.5 -15.5t-22.5 -49.5zM1317 756l-13 -89h-156l13 89h156z" />
    <glyph glyph-name="uni1E0A" unicode="&#x1e0a;" horiz-adv-x="2571" 
d="M2341 700q113 0 163 -58.5t34 -170.5l-34 -242q-16 -113 -82.5 -171t-178.5 -58h-2209l98 700h2209zM2241 124q107 0 121 107l33 238q16 107 -90 107h-2048l-63 -452h2047zM1428 854l-13 -89h-156l13 89h156z" />
    <glyph glyph-name="uni1E0B" unicode="&#x1e0b;" horiz-adv-x="2285" 
d="M2299 770l-85 -607q-12 -84 -56.5 -123.5t-128.5 -39.5h-1843q-83 0 -116 39.5t-22 123.5l39 277q12 84 56 123.5t127 39.5h1732q60 0 89.5 -19.5t35.5 -61.5l35 248h137zM2080 184l33 235q5 34 -8.5 49.5t-47.5 15.5h-1762q-34 0 -51.5 -15.5t-22.5 -49.5l-33 -235
q-5 -34 8.5 -49.5t47.5 -15.5h1762q34 0 51.5 15.5t22.5 49.5zM1274 756l-13 -89h-156l13 89h156z" />
    <glyph glyph-name="uni1E1E" unicode="&#x1e1e;" horiz-adv-x="2508" 
d="M34 0l98 700h2405l-18 -124h-2262l-23 -164h2148l-18 -124h-2148l-40 -288h-142zM1437 854l-13 -89h-156l13 89h156z" />
    <glyph glyph-name="uni1E1F" unicode="&#x1e1f;" horiz-adv-x="2196" 
d="M305 484q-42 0 -63.5 -18t-27.5 -61l-6 -44h1892l-17 -119h-1892l-57 -409h-137l82 583q13 96 65.5 141.5t148.5 45.5h1917l-16 -119h-1889zM1287 756l-13 -89h-156l13 89h156z" />
    <glyph glyph-name="uni1E40" unicode="&#x1e40;" horiz-adv-x="3081" 
d="M1762 700h1140q166 0 142 -165l-75 -535h-142l71 510q5 36 -7.5 51t-47.5 15h-1124q-37 0 -55.5 -16.5t-23.5 -54.5l-70 -505h-143l71 505q5 38 -8.5 54.5t-50.5 16.5h-1125q-35 0 -51.5 -15t-20.5 -51l-72 -510h-142l75 535q12 84 58 124.5t130 40.5h1140
q79 0 113.5 -31t33.5 -100q19 69 62.5 100t121.5 31zM1696 854l-13 -89h-156l13 89h156z" />
    <glyph glyph-name="uni1E41" unicode="&#x1e41;" horiz-adv-x="2733" 
d="M1391 479q16 66 55.5 95t113.5 29h991q83 0 116 -39.5t22 -123.5l-62 -440h-136l58 419q5 34 -8 49.5t-48 15.5h-973q-60 0 -68 -61l-59 -423h-137l59 423q9 61 -51 61h-974q-34 0 -51.5 -15.5t-22.5 -49.5l-58 -419h-137l61 440q12 84 56.5 123.5t127.5 39.5h990
q75 0 106.5 -29t28.5 -95zM1508 756l-13 -89h-156l13 89h156z" />
    <glyph glyph-name="uni1E56" unicode="&#x1e56;" horiz-adv-x="2543" 
d="M34 0l98 700h2267q84 0 118 -40t22 -123l-12 -86q-11 -83 -56.5 -123t-129.5 -40h-2125l-40 -288h-142zM2394 512q5 35 -7.5 49.5t-46.5 14.5h-2083l-23 -164h2083q34 0 50.5 14.5t21.5 48.5zM1442 854l-13 -89h-156l13 89h156z" />
    <glyph glyph-name="uni1E57" unicode="&#x1e57;" horiz-adv-x="2285" 
d="M-3 -167l85 607q12 84 56.5 123.5t128.5 39.5h1843q83 0 116 -39.5t22 -123.5l-39 -277q-12 -84 -56 -123.5t-127 -39.5h-1732q-60 0 -89.5 19.5t-35.5 61.5l-35 -248h-137zM216 419l-33 -235q-5 -34 8.5 -49.5t47.5 -15.5h1762q34 0 51.5 15.5t22.5 49.5l33 235
q5 34 -8.5 49.5t-47.5 15.5h-1762q-34 0 -51.5 -15.5t-22.5 -49.5zM1285 756l-13 -89h-156l13 89h156z" />
    <glyph glyph-name="uni1E60" unicode="&#x1e60;" horiz-adv-x="2527" 
d="M227 288q-84 0 -118 40t-23 124l12 85q12 83 57.5 123t129.5 40h2218l-18 -124h-2177q-34 0 -50.5 -15t-20.5 -49l-5 -37q-5 -34 7 -48.5t46 -14.5h2041q84 0 118.5 -40t22.5 -124l-11 -85q-12 -83 -57.5 -123t-129.5 -40h-2261l17 124h2221q34 0 50.5 15t20.5 49l5 37
q5 34 -7 48.5t-46 14.5h-2042zM1419 854l-13 -89h-156l13 89h156z" />
    <glyph glyph-name="uni1E61" unicode="&#x1e61;" horiz-adv-x="2258" 
d="M2210 484h-1948q-52 0 -59 -51l-3 -25q-4 -28 6.5 -39.5t37.5 -11.5h1834q74 0 103.5 -36t19.5 -112l-9 -62q-10 -76 -50.5 -111.5t-114.5 -35.5h-2021l16 119h1978q51 0 58 51l4 25q4 28 -6 39.5t-38 11.5h-1833q-74 0 -104 35.5t-20 111.5l9 63q10 76 50.5 111.5
t114.5 35.5h1991zM1271 756l-13 -89h-156l13 89h156z" />
    <glyph glyph-name="uni1E6A" unicode="&#x1e6a;" horiz-adv-x="2499" 
d="M2528 700l-18 -124h-1151l-80 -576h-142l80 576h-1152l18 124h2445zM1405 854l-13 -89h-156l13 89h156z" />
    <glyph glyph-name="uni1E6B" unicode="&#x1e6b;" horiz-adv-x="2128" 
d="M196 0q-84 0 -118 39.5t-22 123.5l85 607h137l-24 -167h1881l-16 -119h-1882l-42 -300q-5 -34 8.5 -49.5t47.5 -15.5h1817l-17 -119h-1855zM1246 756l-13 -89h-156l13 89h156z" />
    <glyph glyph-name="Wgrave" unicode="&#x1e80;" horiz-adv-x="3081" 
d="M2828 0h-1140q-79 0 -114 31.5t-34 99.5q-18 -69 -61 -100t-122 -31h-1140q-166 0 -142 165l75 535h142l-71 -510q-5 -36 7 -51t47 -15h1125q37 0 55 16.5t23 54.5l71 505h143l-72 -505q-5 -37 9 -54t51 -17h1124q35 0 52 15t21 51l72 510h142l-75 -535
q-12 -84 -58 -124.5t-130 -40.5zM1621 756l-266 110h211l208 -110h-153z" />
    <glyph glyph-name="wgrave" unicode="&#x1e81;" horiz-adv-x="2733" 
d="M1353 124q-16 -66 -55 -95t-114 -29h-990q-83 0 -116.5 39.5t-21.5 123.5l61 440h137l-59 -419q-5 -34 8.5 -49.5t47.5 -15.5h974q59 0 68 61l59 423h137l-60 -423q-8 -61 52 -61h973q35 0 52 15.5t22 49.5l59 419h136l-61 -440q-12 -84 -56 -123.5t-127 -39.5h-991
q-74 0 -106 29t-29 95zM1421 658l-266 110h211l208 -110h-153z" />
    <glyph glyph-name="Wacute" unicode="&#x1e82;" horiz-adv-x="3081" 
d="M2828 0h-1140q-79 0 -114 31.5t-34 99.5q-18 -69 -61 -100t-122 -31h-1140q-166 0 -142 165l75 535h142l-71 -510q-5 -36 7 -51t47 -15h1125q37 0 55 16.5t23 54.5l71 505h143l-72 -505q-5 -37 9 -54t51 -17h1124q35 0 52 15t21 51l72 510h142l-75 -535
q-12 -84 -58 -124.5t-130 -40.5zM1939 866l-303 -110h-156l238 110h221z" />
    <glyph glyph-name="wacute" unicode="&#x1e83;" horiz-adv-x="2733" 
d="M1353 124q-16 -66 -55 -95t-114 -29h-990q-83 0 -116.5 39.5t-21.5 123.5l61 440h137l-59 -419q-5 -34 8.5 -49.5t47.5 -15.5h974q59 0 68 61l59 423h137l-60 -423q-8 -61 52 -61h973q35 0 52 15.5t22 49.5l59 419h136l-61 -440q-12 -84 -56 -123.5t-127 -39.5h-991
q-74 0 -106 29t-29 95zM1740 768l-303 -110h-156l238 110h221z" />
    <glyph glyph-name="Wdieresis" unicode="&#x1e84;" horiz-adv-x="3081" 
d="M2828 0h-1140q-79 0 -114 31.5t-34 99.5q-18 -69 -61 -100t-122 -31h-1140q-166 0 -142 165l75 535h142l-71 -510q-5 -36 7 -51t47 -15h1125q37 0 55 16.5t23 54.5l71 505h143l-72 -505q-5 -37 9 -54t51 -17h1124q35 0 52 15t21 51l72 510h142l-75 -535
q-12 -84 -58 -124.5t-130 -40.5zM1518 854l-12 -89h-156l12 89h156zM1920 854l-12 -89h-156l12 89h156z" />
    <glyph glyph-name="wdieresis" unicode="&#x1e85;" horiz-adv-x="2733" 
d="M1353 124q-16 -66 -55 -95t-114 -29h-990q-83 0 -116.5 39.5t-21.5 123.5l61 440h137l-59 -419q-5 -34 8.5 -49.5t47.5 -15.5h974q59 0 68 61l59 423h137l-60 -423q-8 -61 52 -61h973q35 0 52 15.5t22 49.5l59 419h136l-61 -440q-12 -84 -56 -123.5t-127 -39.5h-991
q-74 0 -106 29t-29 95zM1318 756l-12 -89h-156l12 89h156zM1720 756l-12 -89h-156l12 89h156z" />
    <glyph glyph-name="Ygrave" unicode="&#x1ef2;" horiz-adv-x="2546" 
d="M2424 700h142l-35 -247q-12 -84 -58 -124.5t-130 -40.5h-989l-40 -288h-142l40 288h-989q-84 0 -118.5 40.5t-22.5 124.5l35 247h142l-32 -223q-5 -36 7.5 -50.5t47.5 -14.5h2037q35 0 51.5 14.5t21.5 50.5zM1341 756l-266 110h211l208 -110h-153z" />
    <glyph glyph-name="ygrave" unicode="&#x1ef3;" horiz-adv-x="2291" 
d="M1941 -167h-1904l17 119h1887q50 0 75.5 21.5t32.5 72.5l12 84q-19 -42 -54 -61.5t-95 -19.5h-1723q-84 0 -117 39.5t-22 123.5l55 391h137l-52 -369q-9 -65 56 -65h1755q34 0 51.5 15.5t22.5 49.5l52 369h136l-78 -555q-16 -111 -74.5 -163t-169.5 -52zM1188 658
l-266 110h211l208 -110h-153z" />
    <glyph glyph-name="uni2010" unicode="&#x2010;" horiz-adv-x="914" 
d="M881 388l-17 -122h-824l17 122h824z" />
    <glyph glyph-name="figuredash" unicode="&#x2012;" 
d="M2562 388l-17 -122h-2550l17 122h2550z" />
    <glyph glyph-name="endash" unicode="&#x2013;" horiz-adv-x="1203" 
d="M1215 388l-17 -122h-1203l17 122h1203z" />
    <glyph glyph-name="emdash" unicode="&#x2014;" horiz-adv-x="2406" 
d="M2418 388l-17 -122h-2406l17 122h2406z" />
    <glyph glyph-name="quoteleft" unicode="&#x2018;" horiz-adv-x="325" 
d="M94 444l16 116q10 66 49.5 103t105.5 37h42l-9 -65h-34q-51 0 -59 -55l-3 -20h85l-16 -116h-177z" />
    <glyph glyph-name="quoteright" unicode="&#x2019;" horiz-adv-x="325" 
d="M307 700l-16 -117q-10 -66 -49.5 -103t-105.5 -37h-42l9 66h34q27 0 41 12t18 42l3 20h-85l17 117h176z" />
    <glyph glyph-name="quotesinglbase" unicode="&#x201a;" horiz-adv-x="325" 
d="M225 118l-16 -117q-10 -66 -49.5 -103t-105.5 -37h-42l9 66h34q27 0 41 12t18 42l3 20h-85l17 117h176z" />
    <glyph glyph-name="quotedblleft" unicode="&#x201c;" horiz-adv-x="583" 
d="M351 444l17 116q9 66 49 103t106 37h42l-10 -65h-33q-27 0 -41.5 -12.5t-18.5 -42.5l-3 -20h86l-17 -116h-177zM94 444l16 116q10 66 49.5 103t105.5 37h42l-9 -65h-34q-51 0 -59 -55l-3 -20h85l-16 -116h-177z" />
    <glyph glyph-name="quotedblright" unicode="&#x201d;" horiz-adv-x="583" 
d="M564 700l-16 -117q-10 -66 -49.5 -103t-105.5 -37h-42l9 66h34q27 0 41 12t18 42l3 20h-85l17 117h176zM307 700l-16 -117q-10 -66 -49.5 -103t-105.5 -37h-42l9 66h34q27 0 41 12t18 42l3 20h-85l17 117h176z" />
    <glyph glyph-name="quotedblbase" unicode="&#x201e;" horiz-adv-x="583" 
d="M483 118l-16 -117q-10 -66 -49.5 -103t-105.5 -37h-42l9 66h34q27 0 41 12t18 42l3 20h-85l17 117h176zM225 118l-16 -117q-10 -66 -49.5 -103t-105.5 -37h-42l9 66h34q27 0 41 12t18 42l3 20h-85l17 117h176z" />
    <glyph glyph-name="dagger" unicode="&#x2020;" horiz-adv-x="2361" 
d="M2352 525l-17 -124h-1070l-75 -533h-142l75 533h-1069l17 124h1069l31 215h142l-31 -215h1070z" />
    <glyph glyph-name="daggerdbl" unicode="&#x2021;" horiz-adv-x="2361" 
d="M2314 250l-18 -124h-1070l-36 -258h-142l36 258h-1069l18 124h1069l21 151h-1069l17 124h1069l31 215h142l-31 -215h1070l-17 -124h-1070l-21 -151h1070z" />
    <glyph glyph-name="bullet" unicode="&#x2022;" horiz-adv-x="1203" 
d="M698 142h-187q-174 0 -174 166v84q0 166 174 166h187q174 0 174 -166v-84q0 -166 -174 -166z" />
    <glyph glyph-name="ellipsis" unicode="&#x2026;" horiz-adv-x="840" 
d="M225 118l-16 -118h-177l17 118h176zM483 118l-16 -118h-177l17 118h176zM740 118l-16 -118h-177l17 118h176z" />
    <glyph glyph-name="perthousand" unicode="&#x2030;" horiz-adv-x="4715" 
d="M1241 0l714 700h140l-714 -700h-140zM1922 125l40 284q9 64 43.5 94.5t98.5 30.5h1059q64 0 90 -30.5t17 -94.5l-40 -284q-9 -64 -43.5 -94.5t-98.5 -30.5h-1059q-64 0 -90 30.5t-17 94.5zM3114 149l33 236q4 24 -5 34t-32 10h-982q-45 0 -50 -44l-34 -236q-3 -24 6 -34
t32 -10h983q44 0 49 44zM3334 125l40 284q9 64 43.5 94.5t98.5 30.5h1059q64 0 90 -30.5t17 -94.5l-40 -284q-9 -64 -43.5 -94.5t-98.5 -30.5h-1059q-64 0 -90 30.5t-17 94.5zM4526 149l33 236q4 24 -5 34t-32 10h-982q-45 0 -50 -44l-34 -236q-3 -24 6 -34t32 -10h983
q44 0 49 44zM63 291l40 284q9 64 43.5 94.5t98.5 30.5h1059q64 0 90 -30.5t17 -94.5l-40 -284q-9 -64 -43.5 -94.5t-98.5 -30.5h-1059q-64 0 -90 30.5t-17 94.5zM1255 315l33 236q4 24 -5 34t-32 10h-982q-44 0 -50 -44l-34 -236q-6 -44 38 -44h983q23 0 34.5 10t14.5 34z
" />
    <glyph glyph-name="guilsinglleft" unicode="&#x2039;" horiz-adv-x="451" 
d="M382 51h-153l-199 249l269 249h161l-278 -254z" />
    <glyph glyph-name="guilsinglright" unicode="&#x203a;" horiz-adv-x="451" 
d="M69 549h153l199 -249l-269 -249h-161l277 253z" />
    <glyph glyph-name="fraction" unicode="&#x2044;" horiz-adv-x="814" 
d="M-13 0l714 700h140l-714 -700h-140z" />
    <glyph glyph-name="zerosuperior" unicode="&#x2070;" horiz-adv-x="1420" 
d="M63 291l40 284q9 64 43.5 94.5t98.5 30.5h1059q64 0 90 -30.5t17 -94.5l-40 -284q-9 -64 -43.5 -94.5t-98.5 -30.5h-1059q-64 0 -90 30.5t-17 94.5zM1255 315l33 236q4 24 -5 34t-32 10h-982q-44 0 -50 -44l-34 -236q-6 -44 38 -44h983q23 0 34.5 10t14.5 34z" />
    <glyph glyph-name="foursuperior" unicode="&#x2074;" horiz-adv-x="1420" 
d="M1266 485l30 215h119l-75 -534h-119l30 215h-1063q-64 0 -90 30.5t-18 93.5l28 195h119l-24 -171q-7 -44 38 -44h1025z" />
    <glyph glyph-name="zeroinferior" unicode="&#x2080;" horiz-adv-x="1420" 
d="M40 125l40 284q9 64 43.5 94.5t98.5 30.5h1059q64 0 90 -30.5t17 -94.5l-40 -284q-9 -64 -43.5 -94.5t-98.5 -30.5h-1059q-64 0 -90 30.5t-17 94.5zM1232 149l33 236q4 24 -5 34t-32 10h-982q-45 0 -50 -44l-34 -236q-3 -24 6 -34t32 -10h983q44 0 49 44z" />
    <glyph glyph-name="oneinferior" unicode="&#x2081;" horiz-adv-x="1420" 
d="M68 0l14 105h648l45 324h-648l15 105h767l-60 -429h484l-15 -105h-1250z" />
    <glyph glyph-name="twoinferior" unicode="&#x2082;" horiz-adv-x="1420" 
d="M1267 364l2 20q4 25 -4.5 35.5t-32.5 10.5h-1148l15 104h1187q64 0 89.5 -30.5t17.5 -94.5l-10 -69q-9 -64 -43 -94.5t-98 -30.5h-1023q-38 0 -54 -13.5t-20 -50.5l-7 -46h1211l-14 -105h-1331l24 168q21 151 172 151h1016q25 0 36 10t15 35z" />
    <glyph glyph-name="threeinferior" unicode="&#x2083;" horiz-adv-x="1420" 
d="M1389 412l-5 -37q-7 -48 -33 -75t-85 -33q58 -6 76 -33t11 -75l-5 -37q-9 -63 -42 -92.5t-97 -29.5h-1209l15 105h1167q25 0 36 10t14 35l4 20q3 25 -5.5 35t-31.5 10h-1080l14 104h1080q23 0 34.5 10.5t15.5 34.5l2 20q4 25 -4.5 35t-32.5 10h-1168l15 105h1209
q63 0 88 -29.5t17 -92.5z" />
    <glyph glyph-name="fourinferior" unicode="&#x2084;" horiz-adv-x="1420" 
d="M1243 319l30 215h119l-75 -534h-119l30 215h-1063q-64 0 -90 30.5t-18 93.5l28 195h119l-24 -171q-7 -44 38 -44h1025z" />
    <glyph glyph-name="Euro" unicode="&#x20ac;" 
d="M263 0q-84 0 -118.5 40.5t-23.5 124.5l17 123h-112l17 124h112l18 123q12 84 58 124.5t130 40.5h2197l-18 -124h-2155q-35 0 -51.5 -15t-21.5 -51l-14 -98h2105l-17 -124h-2106l-13 -98q-5 -36 7 -51t47 -15h2156l-17 -124h-2197z" />
    <glyph glyph-name="uni2117" unicode="&#x2117;" horiz-adv-x="2522" 
d="M332 377h1876q20 0 20 20v38q0 20 -20 20h-1876v-78zM2293 446v-60q0 -64 -64 -64h-1897v-134h-65v323h1962q64 0 64 -65zM237 0q-86 0 -126.5 41t-40.5 125v368q0 84 40.5 125t126.5 41h2064q86 0 126.5 -41t40.5 -125v-368q0 -84 -40.5 -125t-126.5 -41h-2064zM241 60
h2056q103 0 103 103v374q0 103 -103 103h-2056q-102 0 -102 -103v-374q0 -103 102 -103z" />
    <glyph glyph-name="trademark" unicode="&#x2122;" horiz-adv-x="3474" 
d="M2448 166v378q0 51 -48 51h-651q-23 0 -32.5 -9.5t-9.5 -33.5v-386h-120v412q0 122 123 122h666q63 0 94 -25t37 -80q6 55 37 80t95 25h666q122 0 122 -122v-412h-119v386q0 24 -9.5 33.5t-32.5 9.5h-651q-48 0 -48 -51v-378h-119zM1493 700v-105h-661v-429h-120v429
h-661v105h1442z" />
    <glyph glyph-name="uni2126" unicode="&#x2126;" 
d="M2345 416v96q0 34 -14.5 49t-47.5 15h-2010q-34 0 -48.5 -15t-14.5 -49v-96q0 -34 14.5 -49t48.5 -15h854v-352h-1074v124h948v105h-769q-84 0 -124 40.5t-40 123.5v144q0 83 40 123t124 40h2092q84 0 123.5 -40t39.5 -123v-144q0 -84 -39.5 -124t-123.5 -40h-770v-105
h949v-124h-1074v352h854q33 0 47.5 15t14.5 49z" />
    <glyph glyph-name="onethird" unicode="&#x2153;" horiz-adv-x="3303" 
d="M91 166l14 105h648l45 324h-648l15 105h767l-60 -429h484l-15 -105h-1250zM1232 0l714 700h140l-714 -700h-140zM3271 412l-5 -37q-7 -48 -33 -75t-85 -33q58 -6 76 -33t11 -75l-5 -37q-9 -63 -42 -92.5t-97 -29.5h-1209l15 105h1167q25 0 36 10t14 35l4 20q3 25 -5.5 35
t-31.5 10h-1080l14 104h1080q23 0 34.5 10.5t15.5 34.5l2 20q4 25 -4.5 35t-32.5 10h-1168l15 105h1209q63 0 88 -29.5t17 -92.5z" />
    <glyph glyph-name="twothirds" unicode="&#x2154;" horiz-adv-x="3303" 
d="M1290 530l2 20q4 25 -4.5 35.5t-32.5 10.5h-1148l15 104h1187q64 0 89.5 -30.5t17.5 -94.5l-10 -69q-9 -64 -43 -94.5t-98 -30.5h-1023q-38 0 -54 -13.5t-20 -50.5l-7 -46h1211l-14 -105h-1331l24 168q21 151 172 151h1016q25 0 36 10t15 35zM1232 0l714 700h140
l-714 -700h-140zM3271 412l-5 -37q-7 -48 -33 -75t-85 -33q58 -6 76 -33t11 -75l-5 -37q-9 -63 -42 -92.5t-97 -29.5h-1209l15 105h1167q25 0 36 10t14 35l4 20q3 25 -5.5 35t-31.5 10h-1080l14 104h1080q23 0 34.5 10.5t15.5 34.5l2 20q4 25 -4.5 35t-32.5 10h-1168l15 105
h1209q63 0 88 -29.5t17 -92.5z" />
    <glyph glyph-name="partialdiff" unicode="&#x2202;" 
d="M2492 471v-307q0 -83 -40 -123.5t-124 -40.5h-2111q-84 0 -124 40t-40 123v85q0 84 40 124t124 40h2133v57q0 107 -106 107h-2163v124h2182q113 0 171 -58t58 -171zM195 225v-37q0 -35 14 -49.5t48 -14.5h2029q35 0 49.5 15t14.5 50v99h-2093q-34 0 -48 -14.5t-14 -48.5z
" />
    <glyph glyph-name="uni2206" unicode="&#x2206;" 
d="M2516 0h-2477l1238 731zM1277 585l-789 -466h1578z" />
    <glyph glyph-name="product" unicode="&#x220f;" 
d="M2348 -132v708h-2140v-708h-143v832h2425v-832h-142z" />
    <glyph glyph-name="summation" unicode="&#x2211;" 
d="M2491 -8v-124h-2426v106l809 310l-809 310v106h2426v-124h-2024l756 -292l-756 -292h2024z" />
    <glyph glyph-name="minus" unicode="&#x2212;" 
d="M65 291v118h2425v-118h-2425z" />
    <glyph glyph-name="radical" unicode="&#x221a;" 
d="M1742 0l-272 291h-1405v118h1470l276 -292l549 583h170l-648 -700h-140z" />
    <glyph glyph-name="infinity" unicode="&#x221e;" horiz-adv-x="733" 
d="M345 317q-12 0 -23.5 12.5t-14.5 12.5t-11 -2t-14 -2q-8 0 -14.5 8t-6.5 17q0 22 8 35q-7 -7 -16 -37t-26 -41q-18 -12 -18 -40q0 -11 11 -21.5t11 -12.5q0 -4 -3 -4q-7 0 -12 5q13 -68 48 -104h-55q-35 114 -35 226q0 105 40.5 171.5t135.5 66.5q190 0 190 -254
q0 -75 -25 -210h-73q53 47 62 117q-4 -8 -13 -8q-3 0 -3 2l4 4q5 3 9.5 11.5t4.5 21.5q-4 -6 -15 -6q-1 0 -10.5 -4.5t-15.5 -4.5q-14 0 -40 3.5t-70 3.5q-22 0 -52.5 -6t-38.5 -6q-5 0 -13 2t-11 2q-28 0 -28 12q0 10 37 18.5t74 8.5q5 0 12 -0.5t12 -0.5t15.5 2t14.5 2
q112 0 127 -20q-1 16 -14 29t-30 13q-6 0 -6 7q0 57 -16 58q4 -7 4 -17q0 -18 -11 -32t-27 -14q-4 0 -10 2l-7 2q-1 0 -14.5 -14t-27.5 -14zM733 291v-148q-22 48 -69 112.5t-67 64.5q6 -85 -12 -177h-42q16 104 16 199q0 319 -213 319q-53 0 -91.5 -26.5t-59 -72.5
t-30 -97.5t-9.5 -111.5q0 -123 29 -210h-47q-19 67 -19 184q-17 -9 -39.5 -43.5t-49 -84.5t-30.5 -56v148q11 27 33 54t50 53.5t30 28.5q3 72 27 135t75.5 107.5t120.5 44.5q67 0 115.5 -22.5t76.5 -64t42.5 -87t22.5 -105.5q22 -5 68 -48t72 -96zM345 503q-3 3 -3 6
q0 2 2 2q1 0 6 -4.5t15 -8.5t22 -4q16 0 29 4t20 8l6 5q4 0 4 -2l-8 -8q24 0 52 -11q-29 80 -139 80q-55 0 -92 -33t-50 -85q37 20 41 39q-6 4 -6 7q0 4 3 4l2 -2q2 -1 6.5 -3.5t10 -5t13.5 -4t17 -1.5q24 0 49 17zM371 416q0 20 -4.5 40t-9.5 20q-10 0 -19 -39t-14 -39
q-3 0 -9.5 3t-11.5 3q-13 0 -21 -10.5t-8 -24.5t11 -14t18 6.5t9 6.5t12 -13.5t20 -13.5q14 0 25 10.5t12 10.5q3 0 10 -3.5t9 -3.5q10 0 18 11t8 24q0 10 -6 18t-16 8q-7 0 -14.5 -6.5t-11.5 -6.5q-7 0 -7 13zM510 318q0 95 -12 147l-5 3q0 -21 -18 -32t-41 -11
q-21 0 -37 12.5t-16 29.5q0 6 2 9q-12 2 -15 4q6 -9 10 -24t5.5 -24t4.5 -9q7 2 15 2q19 0 31 -14q34 0 34 -51q0 -3 8 -7t18.5 -13t15.5 -22zM383 310q-1 0 -8 -1t-15.5 -2t-13.5 -1t-13 1.5t-11 1.5q-15 0 -36 -4t-35 -9t-14 -8q0 -10 20 -10q24 0 54 6.5t44 6.5
q19 0 57.5 -3.5t52.5 -3.5q5 0 9.5 2t7.5 4t3 3q0 5 -36 11t-66 6zM267 413q-18 0 -31 10t-15 21q-4 -2 -15 -5q-4 -21 -4 -43q0 -50 3 -78q4 6 22 22t20 31q5 37 38 41q12 5 23 5q5 0 8.5 8.5t9.5 24.5t16 28l-13 -4q-1 -24 -18.5 -42.5t-43.5 -18.5zM419 465q-13 0 -16 13
q-5 0 -8.5 -5.5t-3.5 -9.5q0 -10 15 -17t31 -7q14 0 29 8.5t15 21.5q0 8 -14.5 12.5t-28.5 4.5q-5 -21 -19 -21zM267 427q14 0 30 11t16 24q0 6 -1 9q-20 0 -27 1q-5 -14 -18 -14q-10 0 -15 5q-4 -4 -18 -12q4 -24 33 -24zM266 288q-2 0 -2 3q0 12 107 12q93 0 93 -8
q0 -3 -3 -3q-1 0 -4 0.5t-10 1t-16 1.5t-24.5 1.5t-33.5 0.5q-36 0 -61 -2.5t-36 -4.5zM305 262q0 10 63 10q31 0 31 -8q0 -3 -2 -3q-4 0 -10 2t-10 2q-11 0 -26 -0.5t-20 -0.5q-4 0 -11.5 -3t-10.5 -3q-4 0 -4 4zM417 473q9 0 9 13q-1 0 -16 -6q0 -7 7 -7zM266 466
q7 0 10 9q-6 1 -11 4q0 -4 -6 -10q1 -3 7 -3zM325 34l-3 48l-10 -82h-21l15 125h25l4 -60l21 60h26l-15 -125h-22l10 82l-16 -48h-14zM21 125h35q23 0 20 -21l-10 -82q-3 -22 -22 -22h-38zM282 44q-1 -12 -10 -17l8 -27h-21l-7 23h-7l-3 -23h-22l15 125h36q21 0 18 -24z
M183 0l3 23h-14l-3 -23h-21l12 104q2 21 22 21h17q19 0 18 -21l-12 -104h-22zM594 0l15 125h35q23 0 20 -21l-8 -62q-3 -19 -22 -19h-15l-3 -23h-22zM111 0l3 23h-13l-3 -23h-22l15 125h22l-10 -83h13l10 83h22l-15 -125h-22zM539 125h22l-10 -79q0 -4 4 -4h5q5 0 5 4l9 79
h22l-10 -81q-3 -21 -19 -21l-9 -23h-23l9 23q-18 0 -15 21zM477 106l3 19h50l-3 -19h-13l-12 -106h-23l12 106h-14zM41 106l-11 -88h11q3 0 3 4l9 80q0 4 -4 4h-8zM629 106l-8 -64h8q5 0 5 4l7 56q0 4 -4 4h-8zM174 42h14l7 60q0 4 -4 4h-5q-5 0 -5 -4zM255 106l-8 -64h8
q5 0 5 4l7 56q0 4 -3 4h-9zM711 57l-3 -18h-19l-3 -21h27l-2 -18h-49l15 125h47l-3 -19h-24l-6 -49h20zM417 0l3 23h-14l-3 -23h-21l12 104q2 21 22 21h17q19 0 18 -21l-12 -104h-22zM408 42h14l7 60q0 4 -4 4h-5q-5 0 -5 -4z" />
    <glyph glyph-name="integral" unicode="&#x222b;" 
d="M1451 504l-223 -491q-37 -80 -86 -112.5t-140 -32.5h-937v124h933q44 0 69 16t44 56l224 491q36 80 85.5 112.5t140.5 32.5h929v-124h-926q-44 0 -69 -16t-44 -56z" />
    <glyph glyph-name="approxequal" unicode="&#x2248;" 
d="M65 126v123q231 87 543 87q218 0 671 -59.5t671 -59.5q312 0 540 86v-123q-232 -87 -545 -87q-182 0 -427 29.5t-489.5 59t-425.5 29.5q-310 0 -538 -85zM65 398v122q231 87 543 87q218 0 671 -59.5t671 -59.5q312 0 540 86v-123q-230 -86 -544 -86q-219 0 -672.5 59
t-671.5 59q-310 0 -537 -85z" />
    <glyph glyph-name="notequal" unicode="&#x2260;" 
d="M1051 0h-149l137 155h-941v118h1046l136 154h-1182v118h1287l138 155h149l-138 -155h924v-118h-1029l-136 -154h1165v-118h-1270z" />
    <glyph glyph-name="lessequal" unicode="&#x2264;" 
d="M65 350l309 315h156l-254 -256h2214v-118h-2214l171 -173h2043v-118h-2425v118h227z" />
    <glyph glyph-name="greaterequal" unicode="&#x2265;" 
d="M2181 665l309 -315l-227 -232h227v-118h-2425v118h2043l171 173h-2214v118h2214l-254 256h156z" />
    <glyph glyph-name="lozenge" unicode="&#x25ca;" 
d="M1277 -31l-1238 379l1238 379l1239 -379zM1277 97l818 251l-818 250l-817 -250z" />
    <glyph glyph-name="commaaccent" horiz-adv-x="601" 
d="M325 -70l-10 -70q-8 -53 -39.5 -82.5t-83.5 -29.5h-43l5 39h38q42 0 48 44l2 13h-82l12 86h153z" />
    <glyph glyph-name="i.alt" horiz-adv-x="281" 
d="M30 0l84 603h137l-84 -603h-137zM296 757l-13 -90h-182l13 90h182z" />
    <glyph glyph-name="i.trk" horiz-adv-x="415" 
d="M251 119h126l-17 -119h-164q-84 0 -116.5 38.5t-20.5 120.5l61 444h137l-59 -422q-4 -33 8.5 -47.5t44.5 -14.5zM302 757l-13 -90h-182l13 90h182z" />
    <glyph glyph-name="one.pnum" horiz-adv-x="521" 
d="M500 700l-98 -700h-142l81 576h-275l18 124h416z" />
    </font>
</defs>
</svg>
