<?xml version="1.0" standalone="no"?>
<!DOCTYPE svg PUBLIC "-//W3C//DTD SVG 1.1//EN" "http://www.w3.org/Graphics/SVG/1.1/DTD/svg11.dtd" >
<svg xmlns="http://www.w3.org/2000/svg" xmlns:xlink="http://www.w3.org/1999/xlink" version="1.1">
<metadata>
Created by FontForge 20170731 at Sat Mar 14 00:16:17 2015
 By ,,,
Copyright (c) 2011 by Ryoichi Tsunekawa. All rights reserved.
</metadata>
<defs>
<font id="DesignSystemA-300R" horiz-adv-x="552" >
  <font-face 
    font-family="DesignSystemA-300R"
    font-weight="400"
    font-stretch="normal"
    units-per-em="1000"
    panose-1="4 5 4 4 2 11 2 2 3 2"
    ascent="822"
    descent="-178"
    x-height="603"
    cap-height="700"
    bbox="-41 -202 1378 931"
    underline-thickness="36"
    underline-position="-156"
    unicode-range="U+0020-FB02"
  />
<missing-glyph horiz-adv-x="500" 
d="M0 700h500v-700h-500v700zM47 656v-597l369 597h-369zM83 44h370v596z" />
    <glyph glyph-name="ij" unicode="ij" horiz-adv-x="479" 
d="M214 -110h31q52 0 68.5 16.5t16.5 68.5v628h65v-638q0 -72 -30 -102t-104 -30h-47v57zM317 683v54h91v-54h-91zM86 0v603h65v-603h-65zM164 737v-54h-92v54h92z" />
    <glyph glyph-name="fi" unicode="fi" horiz-adv-x="724" 
d="M248 546q-59 0 -85.5 -25.5t-26.5 -86.5v-104h225v-57h-225v-273h-65v440q0 84 40 123.5t124 39.5h171v-57h-158zM653 57h48v-57h-65q-72 0 -102.5 31t-30.5 101v471h65v-460q0 -50 17.5 -68t67.5 -18zM581 737v-54h-92v54h92z" />
    <glyph glyph-name="fl" unicode="fl" horiz-adv-x="722" 
d="M248 546q-59 0 -85.5 -25.5t-26.5 -86.5v-104h225v-57h-225v-273h-65v440q0 84 40 123.5t124 39.5h171v-57h-158zM651 57h48v-57h-65q-72 0 -103 31t-31 101v638h65v-627q0 -50 18 -68t68 -18z" />
    <glyph glyph-name=".notdef" horiz-adv-x="500" 
d="M0 700h500v-700h-500v700zM47 656v-597l369 597h-369zM83 44h370v596z" />
    <glyph glyph-name=".null" horiz-adv-x="0" 
 />
    <glyph glyph-name="nonmarkingreturn" horiz-adv-x="333" 
 />
    <glyph glyph-name="space" unicode=" " horiz-adv-x="252" 
 />
    <glyph glyph-name="exclam" unicode="!" horiz-adv-x="282" 
d="M188 65v-65h-94v65h94zM174 700v-233q0 -134 -12 -293h-42q-12 159 -12 293v233h66z" />
    <glyph glyph-name="quotedbl" unicode="&#x22;" horiz-adv-x="381" 
d="M133 700v-47q0 -79 -15 -261h-36q-15 182 -15 261v47h66zM314 700v-47q0 -79 -15 -261h-36q-15 182 -15 261v47h66z" />
    <glyph glyph-name="numbersign" unicode="#" 
d="M357 0l7 144h-198l-8 -144h-61l8 144h-71l3 57h71l16 298h-71l3 57h71l7 144h61l-8 -144h199l8 144h60l-7 -144h70l-3 -57h-71l-15 -298h70l-3 -57h-70l-8 -144h-60zM184 499l-15 -298h198l16 298h-199z" />
    <glyph glyph-name="dollar" unicode="$" 
d="M49 107h311q41 0 59 18t18 59v62q0 41 -17.5 59t-59.5 18h-186q-64 0 -94.5 31t-30.5 97v73q0 67 30.5 98t94.5 31h71v87h59v-87h168v-57h-282q-41 0 -59 -18t-18 -59v-63q0 -41 18 -58.5t59 -17.5h186q126 0 126 -129v-72q0 -66 -31 -97.5t-95 -31.5h-72v-90h-59v90
h-196v57z" />
    <glyph glyph-name="percent" unicode="%" horiz-adv-x="1025" 
d="M386 0l199 700h54l-199 -700h-54zM620 117v300q0 60 28.5 88.5t88.5 28.5h112q60 0 88.5 -28.5t28.5 -88.5v-300q0 -60 -28.5 -88.5t-88.5 -28.5h-112q-60 0 -88.5 28.5t-28.5 88.5zM906 121v292q0 36 -16 51.5t-50 15.5h-93q-35 0 -51 -15.5t-16 -51.5v-292
q0 -36 16 -51.5t51 -15.5h93q34 0 50 15.5t16 51.5zM59 283v300q0 60 28.5 88.5t88.5 28.5h112q60 0 88.5 -28.5t28.5 -88.5v-300q0 -60 -28.5 -88.5t-88.5 -28.5h-112q-60 0 -88.5 28.5t-28.5 88.5zM345 287v292q0 36 -16 51.5t-50 15.5h-93q-35 0 -51 -15.5t-16 -51.5
v-292q0 -36 16 -51.5t51 -15.5h93q34 0 50 15.5t16 51.5z" />
    <glyph glyph-name="ampersand" unicode="&#x26;" horiz-adv-x="648" 
d="M491 321h-273q-51 0 -71 -22t-20 -74v-72q0 -50 21 -72t69 -22h186q51 0 69.5 18t18.5 70v174zM61 139v83q0 57 23 88.5t77 39.5q-54 8 -77 39t-23 89v83q0 72 33 105.5t106 33.5h307v-59h-290q-48 0 -69 -22t-21 -72v-72q0 -52 20 -74t71 -22h409v-58h-70v-188
q0 -71 -30.5 -102t-102.5 -31h-224q-73 0 -106 33.5t-33 105.5z" />
    <glyph glyph-name="quotesingle" unicode="'" horiz-adv-x="200" 
d="M133 700v-47q0 -79 -15 -261h-36q-15 182 -15 261v47h66z" />
    <glyph glyph-name="parenleft" unicode="(" horiz-adv-x="319" 
d="M140 74q0 -55 21 -76.5t74 -21.5h38v-56h-56q-72 0 -106 34t-34 105v502q0 71 34 105t106 34h56v-56h-38q-53 0 -74 -21.5t-21 -76.5v-472z" />
    <glyph glyph-name="parenright" unicode=")" horiz-adv-x="319" 
d="M179 74v472q0 55 -21 76.5t-74 21.5h-38v56h56q72 0 106 -34t34 -105v-502q0 -71 -34 -105t-106 -34h-56v56h38q53 0 74 21.5t21 76.5z" />
    <glyph glyph-name="asterisk" unicode="*" horiz-adv-x="511" 
d="M263 467q74 45 145 68l71 22l16 -50l-71 -22q-81 -26 -156 -32q71 -64 109 -117l43 -61l-42 -31l-44 61q-44 61 -78 138q-41 -87 -79 -138l-44 -61l-42 31l43 61q38 53 109 117q-75 6 -156 32l-71 22l16 50l71 -22q71 -23 145 -68q-19 79 -19 159v74h53v-74
q0 -80 -19 -159z" />
    <glyph glyph-name="plus" unicode="+" 
d="M67 321v57h180v180h57v-180h181v-57h-181v-181h-57v181h-180z" />
    <glyph glyph-name="comma" unicode="," horiz-adv-x="275" 
d="M183 68v-65q0 -51 -18.5 -75t-61.5 -24h-11v28h11q19 0 27.5 11t8.5 41v19h-47v65h91z" />
    <glyph glyph-name="hyphen" unicode="-" horiz-adv-x="380" 
d="M338 356v-58h-296v58h296z" />
    <glyph glyph-name="period" unicode="." horiz-adv-x="275" 
d="M183 68v-68h-91v68h91z" />
    <glyph glyph-name="slash" unicode="/" horiz-adv-x="406" 
d="M29 0l282 700h66l-282 -700h-66z" />
    <glyph glyph-name="zero" unicode="0" 
d="M211 0q-74 0 -109 35.5t-35 108.5v412q0 73 35 108.5t109 35.5h130q74 0 109 -35.5t35 -108.5v-412q0 -73 -35 -108.5t-109 -35.5h-130zM419 157v386q0 54 -21.5 76t-74.5 22h-95q-52 0 -73.5 -22t-21.5 -76v-386q0 -54 21.5 -76t73.5 -22h95q53 0 74.5 22t21.5 76z" />
    <glyph glyph-name="one" unicode="1" 
d="M361 700v-641h124v-59h-350v59h163v583h-163v58h226z" />
    <glyph glyph-name="two" unicode="2" 
d="M430 547q0 50 -21 72t-69 22h-266v59h282q73 0 106.5 -34t33.5 -106v-99q0 -72 -33.5 -106t-106.5 -34h-116q-69 0 -97 -27.5t-28 -97.5v-137h386v-59h-452v206q0 173 173 173h118q48 0 69 22t21 73v73z" />
    <glyph glyph-name="three" unicode="3" 
d="M333 321h-194v58h194q52 0 72 22t20 74v72q0 50 -21.5 72t-69.5 22h-287v59h304q73 0 106.5 -33.5t33.5 -105.5v-83q0 -58 -23 -89t-77 -39q54 -8 77 -39.5t23 -88.5v-83q0 -72 -33.5 -105.5t-106.5 -33.5h-304v59h287q48 0 69.5 22t21.5 72v72q0 52 -20 74t-72 22z" />
    <glyph glyph-name="four" unicode="4" 
d="M409 379v321h66v-700h-66v321h-218q-143 0 -143 143v236h66v-222q0 -55 21 -77t74 -22h200z" />
    <glyph glyph-name="five" unicode="5" 
d="M71 321v379h404v-59h-337v-262h222q73 0 106.5 -34t33.5 -106v-99q0 -72 -33.5 -106t-106.5 -34h-299v59h283q48 0 69 22t21 72v73q0 51 -21 73t-69 22h-273z" />
    <glyph glyph-name="six" unicode="6" 
d="M131 494v-115h229q73 0 106.5 -34t33.5 -106v-99q0 -72 -33.5 -106t-106.5 -34h-155q-73 0 -106.5 34t-33.5 106v361q0 98 50 148.5t148 50.5h212v-59h-198q-73 0 -109.5 -35.5t-36.5 -111.5zM344 321h-213v-168q0 -50 21 -72t70 -22h122q48 0 69 22t21 72v73
q0 51 -21 73t-69 22z" />
    <glyph glyph-name="seven" unicode="7" 
d="M336 379q56 0 79 22t23 80v160h-416v59h482v-235q0 -144 -145 -144h-10q-56 0 -79 -22t-23 -80v-219h-66v235q0 144 144 144h11z" />
    <glyph glyph-name="eight" unicode="8" 
d="M496 561v-83q0 -58 -23 -89t-77 -39q54 -8 77 -39.5t23 -88.5v-83q0 -72 -33 -105.5t-106 -33.5h-162q-73 0 -106.5 33.5t-33.5 105.5v83q0 57 23 88.5t77 39.5q-54 8 -77 39t-23 89v83q0 72 33.5 105.5t106.5 33.5h162q73 0 106 -33.5t33 -105.5zM213 379h126
q51 0 71 22t20 74v72q0 50 -21 72t-69 22h-128q-48 0 -69.5 -22t-21.5 -72v-72q0 -52 20 -74t72 -22zM339 321h-126q-52 0 -72 -22t-20 -74v-72q0 -50 21.5 -72t69.5 -22h128q48 0 69 22t21 72v72q0 52 -20 74t-71 22z" />
    <glyph glyph-name="nine" unicode="9" 
d="M346 700q73 0 107 -34t34 -106v-361q0 -98 -50.5 -148.5t-147.5 -50.5h-213v59h198q74 0 110 35.5t36 111.5v115h-228q-73 0 -107 34t-34 106v99q0 72 34 106t107 34h154zM118 547v-73q0 -51 21 -73t69 -22h212v168q0 50 -21 72t-69 22h-122q-48 0 -69 -22t-21 -72z" />
    <glyph glyph-name="colon" unicode=":" horiz-adv-x="275" 
d="M183 538v-68h-91v68h91zM183 68v-68h-91v68h91z" />
    <glyph glyph-name="semicolon" unicode=";" horiz-adv-x="275" 
d="M183 68v-65q0 -51 -18.5 -75t-61.5 -24h-11v28h11q19 0 27.5 11t8.5 41v19h-47v65h91zM183 538v-68h-91v68h91z" />
    <glyph glyph-name="less" unicode="&#x3c;" 
d="M67 350l198 208h74l-172 -180h318v-57h-318l172 -181h-74z" />
    <glyph glyph-name="equal" unicode="=" 
d="M80 197v57h391v-57h-391zM80 444v57h391v-57h-391z" />
    <glyph glyph-name="greater" unicode="&#x3e;" 
d="M287 558l198 -208l-198 -210h-74l172 181h-318v57h318l-172 180h74z" />
    <glyph glyph-name="question" unicode="?" horiz-adv-x="492" 
d="M393 474v73q0 50 -21 72t-69 22h-282v59h298q73 0 106.5 -34t33.5 -106v-99q0 -72 -33.5 -106t-106.5 -34h-43q-40 0 -57 -16.5t-17 -58.5v-74h-66v90q0 117 118 117h49q48 0 69 22t21 73zM216 65v-65h-93v65h93z" />
    <glyph glyph-name="at" unicode="@" horiz-adv-x="690" 
d="M228 0q-83 0 -122 39.5t-39 120.5v380q0 81 39 120.5t122 39.5h234q161 0 161 -160v-380q0 -160 -161 -160h-234zM230 42h229q117 0 117 117v382q0 117 -117 117h-229q-116 0 -116 -117v-382q0 -117 116 -117zM368 189h-52q-77 0 -77 79v23q0 79 77 79h91v55q0 44 -43 44
h-110v41h108q48 0 70 -22.5t22 -69.5v-143q0 -44 -20.5 -65t-65.5 -21zM323 329q-21 0 -29 -8t-8 -27v-29q0 -20 8 -27.5t29 -7.5h47q37 0 37 38v61h-84z" />
    <glyph glyph-name="A" unicode="A" horiz-adv-x="590" 
d="M513 0h-66v321h-304v-321h-66v556q0 73 35 108.5t109 35.5h148q74 0 109 -35.5t35 -108.5v-556zM352 641h-114q-52 0 -73.5 -22.5t-21.5 -75.5v-164h304v164q0 54 -21.5 76t-73.5 22z" />
    <glyph glyph-name="B" unicode="B" horiz-adv-x="584" 
d="M523 222v-83q0 -72 -33.5 -105.5t-106.5 -33.5h-296v700h296q73 0 106.5 -33.5t33.5 -105.5v-83q0 -58 -23 -89t-77 -39q54 -8 77 -39.5t23 -88.5zM366 379q51 0 71 22t20 74v72q0 50 -21 72t-69 22h-214v-262h213zM153 321v-262h214q48 0 69 22t21 72v72q0 52 -20 74
t-71 22h-213z" />
    <glyph glyph-name="C" unicode="C" horiz-adv-x="491" 
d="M210 0q-73 0 -108 35.5t-35 108.5v412q0 73 35 108.5t108 35.5h234v-59h-216q-52 0 -73.5 -22t-21.5 -76v-386q0 -54 21.5 -76t73.5 -22h216v-59h-234z" />
    <glyph glyph-name="D" unicode="D" horiz-adv-x="584" 
d="M324 700q199 0 199 -199v-302q0 -199 -199 -199h-237v700h237zM311 59q73 0 109.5 35.5t36.5 111.5v288q0 76 -36 111.5t-110 35.5h-158v-582h158z" />
    <glyph glyph-name="E" unicode="E" horiz-adv-x="545" 
d="M87 0v700h411v-59h-345v-262h255v-58h-255v-262h345v-59h-411z" />
    <glyph glyph-name="F" unicode="F" horiz-adv-x="514" 
d="M87 0v700h408v-59h-342v-262h252v-58h-252v-321h-66z" />
    <glyph glyph-name="G" unicode="G" horiz-adv-x="565" 
d="M351 59q52 0 70 18t18 70v174h-158v58h224v-246q0 -71 -30.5 -102t-102.5 -31h-162q-73 0 -108 35.5t-35 108.5v412q0 73 35 108.5t108 35.5h270v-59h-252q-52 0 -73.5 -22t-21.5 -76v-386q0 -54 21.5 -76t73.5 -22h123z" />
    <glyph glyph-name="H" unicode="H" horiz-adv-x="628" 
d="M475 0v321h-322v-321h-66v700h66v-321h322v321h66v-700h-66z" />
    <glyph glyph-name="I" unicode="I" horiz-adv-x="240" 
d="M87 0v700h66v-700h-66z" />
    <glyph glyph-name="J" unicode="J" horiz-adv-x="553" 
d="M48 134v208h66v-195q0 -52 17.5 -70t68.5 -18h115q52 0 73.5 22t21.5 76v543h66v-556q0 -73 -35 -108.5t-109 -35.5h-151q-72 0 -102.5 31t-30.5 103z" />
    <glyph glyph-name="K" unicode="K" horiz-adv-x="592" 
d="M523 700v-217q0 -59 -24 -92.5t-82 -40.5q58 -7 82 -40.5t24 -92.5v-217h-66v222q0 53 -20.5 76t-72.5 23h-211v-321h-66v700h66v-321h211q52 0 72.5 23t20.5 76v222h66z" />
    <glyph glyph-name="L" unicode="L" horiz-adv-x="509" 
d="M490 59v-59h-403v700h66v-641h337z" />
    <glyph glyph-name="M" unicode="M" horiz-adv-x="867" 
d="M574 700h72q74 0 109 -35.5t35 -108.5v-556h-66v543q0 54 -21.5 76t-73.5 22h-67q-52 0 -73.5 -22t-21.5 -76v-543h-66v543q0 54 -21.5 76t-74.5 22h-67q-52 0 -73.5 -22t-21.5 -76v-543h-66v556q0 73 35 108.5t109 35.5h72q67 0 100 -24t41 -81q7 56 40 80.5t100 24.5z
" />
    <glyph glyph-name="N" unicode="N" horiz-adv-x="590" 
d="M238 641q-52 0 -73.5 -22t-21.5 -76v-543h-66v556q0 73 35 108.5t109 35.5h148q74 0 109 -35.5t35 -108.5v-556h-66v543q0 54 -21.5 76t-73.5 22h-114z" />
    <glyph glyph-name="O" unicode="O" horiz-adv-x="572" 
d="M211 0q-74 0 -109 35.5t-35 108.5v412q0 73 35 108.5t109 35.5h150q74 0 109 -35.5t35 -108.5v-412q0 -73 -35 -108.5t-109 -35.5h-150zM439 157v386q0 54 -21.5 76t-74.5 22h-115q-52 0 -73.5 -22t-21.5 -76v-386q0 -54 21.5 -76t73.5 -22h115q53 0 74.5 22t21.5 76z
" />
    <glyph glyph-name="P" unicode="P" horiz-adv-x="555" 
d="M87 0v700h294q73 0 107 -34t34 -106v-99q0 -72 -34 -106t-107 -34h-228v-321h-66zM456 547q0 50 -21.5 72t-69.5 22h-212v-262h212q48 0 69.5 22t21.5 73v73z" />
    <glyph glyph-name="Q" unicode="Q" horiz-adv-x="572" 
d="M211 0q-74 0 -109 35.5t-35 108.5v412q0 73 35 108.5t109 35.5h150q74 0 109 -35.5t35 -108.5v-412q0 -73 -35 -108.5t-109 -35.5h-45v-107h-60v107h-45zM439 157v386q0 54 -21.5 76t-74.5 22h-115q-52 0 -73.5 -22t-21.5 -76v-386q0 -54 21.5 -76t73.5 -22h28v176h60
v-176h27q53 0 74.5 22t21.5 76z" />
    <glyph glyph-name="R" unicode="R" horiz-adv-x="591" 
d="M523 561v-83q0 -58 -23.5 -89.5t-79.5 -39.5q56 -9 79.5 -42t23.5 -90v-217h-66v222q0 53 -20.5 76t-72.5 23h-211v-321h-66v700h296q73 0 106.5 -33.5t33.5 -105.5zM366 379q51 0 71 22t20 74v72q0 50 -21 72t-69 22h-214v-262h213z" />
    <glyph glyph-name="S" unicode="S" horiz-adv-x="520" 
d="M196 321q-73 0 -107 34t-34 106v99q0 72 34 106t107 34h247v-59h-231q-48 0 -69.5 -22t-21.5 -72v-73q0 -51 21.5 -73t69.5 -22h116q73 0 106.5 -34t33.5 -106v-99q0 -72 -33.5 -106t-106.5 -34h-278v59h262q48 0 69 22t21 72v73q0 51 -21 73t-69 22h-116z" />
    <glyph glyph-name="T" unicode="T" horiz-adv-x="476" 
d="M457 700v-59h-185v-641h-66v641h-187v59h438z" />
    <glyph glyph-name="U" unicode="U" horiz-adv-x="590" 
d="M221 0q-74 0 -109 35.5t-35 108.5v556h66v-543q0 -54 21.5 -76t73.5 -22h114q52 0 73.5 22t21.5 76v543h66v-556q0 -73 -35 -108.5t-109 -35.5h-148z" />
    <glyph glyph-name="V" unicode="V" horiz-adv-x="585" 
d="M87 0v700h66v-641h148q73 0 109 35.5t36 111.5v494h66v-501q0 -98 -50.5 -148.5t-148.5 -50.5h-226z" />
    <glyph glyph-name="W" unicode="W" horiz-adv-x="867" 
d="M646 0h-72q-67 0 -100 24.5t-40 80.5q-8 -57 -41 -81t-100 -24h-72q-74 0 -109 35.5t-35 108.5v556h66v-543q0 -54 21.5 -76t73.5 -22h67q53 0 74.5 22t21.5 76v543h66v-543q0 -54 21.5 -76t73.5 -22h67q52 0 73.5 22t21.5 76v543h66v-556q0 -73 -35 -108.5t-109 -35.5z
" />
    <glyph glyph-name="X" unicode="X" horiz-adv-x="576" 
d="M69 483v217h66v-222q0 -53 20.5 -76t72.5 -23h121q51 0 71.5 23.5t20.5 75.5v222h66v-217q0 -59 -23.5 -92.5t-81.5 -40.5q58 -7 81.5 -40.5t23.5 -92.5v-217h-66v222q0 52 -20.5 75.5t-71.5 23.5h-121q-52 0 -72.5 -23t-20.5 -76v-222h-66v217q0 59 24 92.5t82 40.5
q-58 7 -82 40.5t-24 92.5z" />
    <glyph glyph-name="Y" unicode="Y" horiz-adv-x="553" 
d="M439 700h66v-236q0 -143 -143 -143h-52v-321h-67v321h-52q-143 0 -143 143v236h66v-222q0 -54 21.5 -76.5t73.5 -22.5h135q53 0 74 22t21 77v222z" />
    <glyph glyph-name="Z" unicode="Z" horiz-adv-x="531" 
d="M288 379q69 0 97 27.5t28 97.5v137h-339v59h405v-206q0 -173 -173 -173h-66q-69 0 -97 -27.5t-28 -97.5v-137h364v-59h-430v206q0 173 173 173h66z" />
    <glyph glyph-name="bracketleft" unicode="[" horiz-adv-x="343" 
d="M87 700h211v-54h-150v-672h150v-54h-211v780z" />
    <glyph glyph-name="backslash" unicode="\" horiz-adv-x="406" 
d="M95 700l282 -700h-66l-282 700h66z" />
    <glyph glyph-name="bracketright" unicode="]" horiz-adv-x="343" 
d="M45 700h211v-780h-211v54h150v672h-150v54z" />
    <glyph glyph-name="asciicircum" unicode="^" 
d="M275 710l209 -317v-103l-209 316l-208 -316v103z" />
    <glyph glyph-name="underscore" unicode="_" horiz-adv-x="500" 
d="M500 -57v-49h-500v49h500z" />
    <glyph glyph-name="grave" unicode="`" horiz-adv-x="233" 
d="M141 663l-119 101h71l102 -101h-54z" />
    <glyph glyph-name="a" unicode="a" horiz-adv-x="504" 
d="M377 330v122q0 52 -21 73t-73 21h-207v57h226q72 0 106 -34t34 -107v-321q0 -73 -34 -107t-106 -34h-130q-65 0 -95.5 31t-30.5 98v72q0 66 30.5 97.5t94.5 31.5h206zM377 273h-190q-41 0 -58.5 -18t-17.5 -59v-62q0 -41 17.5 -59t58.5 -18h96q52 0 73 21t21 73v122z" />
    <glyph glyph-name="b" unicode="b" horiz-adv-x="516" 
d="M71 141v629h65v-234q11 35 39 51t78 16h61q73 0 107 -34t34 -107v-321q0 -73 -34 -107t-107 -34h-102q-73 0 -107 34t-34 107zM136 452v-301q0 -52 21 -73t73 -21h66q52 0 73 21t21 73v301q0 52 -21 73t-73 21h-66q-52 0 -73 -21t-21 -73z" />
    <glyph glyph-name="c" unicode="c" horiz-adv-x="450" 
d="M202 0q-72 0 -106 34t-34 107v321q0 73 34 107t106 34h200v-57h-182q-51 0 -72.5 -21t-21.5 -73v-301q0 -52 21.5 -73t72.5 -21h182v-57h-200z" />
    <glyph glyph-name="d" unicode="d" horiz-adv-x="516" 
d="M445 770v-629q0 -73 -34 -107t-106 -34h-103q-72 0 -106 34t-34 107v321q0 73 34 107t106 34h61q97 0 117 -67v234h65zM380 151v301q0 52 -21 73t-73 21h-66q-51 0 -72.5 -21t-21.5 -73v-301q0 -52 21.5 -73t72.5 -21h66q52 0 73 21t21 73z" />
    <glyph glyph-name="e" unicode="e" horiz-adv-x="504" 
d="M458 401q0 -66 -30.5 -97t-95.5 -31h-206v-122q0 -52 21.5 -73t72.5 -21h208v-57h-226q-72 0 -106 34t-34 107v321q0 73 34 107t106 34h130q65 0 95.5 -31t30.5 -98v-73zM316 546h-96q-51 0 -72.5 -21t-21.5 -73v-122h190q42 0 59.5 17.5t17.5 58.5v63q0 41 -17.5 59
t-59.5 18z" />
    <glyph glyph-name="f" unicode="f" horiz-adv-x="429" 
d="M248 546q-59 0 -85.5 -25.5t-26.5 -86.5v-104h225v-57h-225v-273h-65v440q0 84 40 123.5t124 39.5h171v-57h-158z" />
    <glyph glyph-name="g" unicode="g" horiz-adv-x="516" 
d="M286 67q52 0 73 21t21 73v291q0 52 -21 73t-73 21h-66q-51 0 -72.5 -21t-21.5 -73v-291q0 -52 21.5 -73t72.5 -21h66zM263 9h-61q-72 0 -106 34.5t-34 106.5v312q0 73 34 107t106 34h103q72 0 106 -34t34 -107v-443q0 -95 -45.5 -140.5t-140.5 -45.5h-157v57h149
q68 0 98.5 30t30.5 100v55q-21 -66 -117 -66z" />
    <glyph glyph-name="h" unicode="h" horiz-adv-x="536" 
d="M400 452q0 52 -21 73t-73 21h-66q-52 0 -73 -21t-21 -73v-452h-65v770h65v-234q11 35 39 51t78 16h61q72 0 106 -34t34 -107v-462h-64v452z" />
    <glyph glyph-name="i" unicode="i" horiz-adv-x="295" 
d="M224 57h48v-57h-65q-72 0 -102.5 31t-30.5 101v471h65v-460q0 -50 17.5 -68t67.5 -18zM152 737v-54h-92v54h92z" />
    <glyph glyph-name="j" unicode="j" horiz-adv-x="243" 
d="M-22 -110h31q52 0 68.5 16.5t16.5 68.5v628h65v-638q0 -72 -30 -102t-104 -30h-47v57zM81 683v54h91v-54h-91z" />
    <glyph glyph-name="k" unicode="k" horiz-adv-x="522" 
d="M398 394v209h64v-184q0 -56 -19 -84t-63 -34q44 -6 63 -34t19 -84v-183h-64v208q0 34 -16 49.5t-50 15.5h-186v-273h-65v770h65v-440h186q35 0 50.5 15t15.5 49z" />
    <glyph glyph-name="l" unicode="l" horiz-adv-x="293" 
d="M222 57h48v-57h-65q-72 0 -103 31t-31 101v638h65v-627q0 -50 18 -68t68 -18z" />
    <glyph glyph-name="m" unicode="m" horiz-adv-x="804" 
d="M402 505q8 53 41 75.5t100 22.5h49q73 0 107 -34t34 -107v-462h-65v452q0 52 -21 73t-73 21h-46q-52 0 -73 -21t-21 -73v-452h-64v452q0 52 -21 73t-73 21h-46q-52 0 -73 -21t-21 -73v-452h-65v462q0 73 34 107t107 34h49q67 0 100 -22.5t41 -75.5z" />
    <glyph glyph-name="n" unicode="n" horiz-adv-x="524" 
d="M71 0v462q0 73 34 107t107 34h100q73 0 107 -34t34 -107v-462h-65v452q0 52 -21 73t-73 21h-64q-52 0 -73 -21t-21 -73v-452h-65z" />
    <glyph glyph-name="o" unicode="o" horiz-adv-x="505" 
d="M303 603q72 0 106 -34t34 -107v-321q0 -73 -34 -107t-106 -34h-101q-72 0 -106 34t-34 107v321q0 73 34 107t106 34h101zM284 57q52 0 73 21t21 73v301q0 52 -21 73t-73 21h-64q-52 0 -73 -21t-21 -73v-301q0 -52 21 -73t73 -21h64z" />
    <glyph glyph-name="p" unicode="p" horiz-adv-x="516" 
d="M71 -167v629q0 73 34 107t107 34h102q73 0 107 -34t34 -107v-321q0 -73 -34 -107t-107 -34h-61q-50 0 -78 16t-39 51v-234h-65zM136 452v-301q0 -52 21 -73t73 -21h66q52 0 73 21t21 73v301q0 52 -21 73t-73 21h-66q-52 0 -73 -21t-21 -73z" />
    <glyph glyph-name="q" unicode="q" horiz-adv-x="516" 
d="M445 462v-629h-65v234q-20 -67 -117 -67h-61q-72 0 -106 34t-34 107v321q0 73 34 107t106 34h103q72 0 106 -34t34 -107zM380 151v301q0 51 -21.5 72.5t-72.5 21.5h-66q-51 0 -72.5 -22t-21.5 -72v-301q0 -50 21.5 -72t72.5 -22h66q51 0 72.5 22t21.5 72z" />
    <glyph glyph-name="r" unicode="r" horiz-adv-x="354" 
d="M331 603v-57h-101q-52 0 -73 -21t-21 -73v-452h-65v462q0 73 34 107t107 34h119z" />
    <glyph glyph-name="s" unicode="s" horiz-adv-x="467" 
d="M391 546h-200q-41 0 -58.5 -18t-17.5 -59v-63q0 -41 17.5 -58.5t58.5 -17.5h105q64 0 94.5 -31.5t30.5 -97.5v-72q0 -67 -30.5 -98t-95.5 -31h-245v57h230q41 0 58.5 18t17.5 59v62q0 41 -17.5 59t-58.5 18h-104q-65 0 -95.5 31t-30.5 97v73q0 67 30.5 98t94.5 31h216
v-57z" />
    <glyph glyph-name="t" unicode="t" horiz-adv-x="387" 
d="M212 0q-73 0 -107 34t-34 107v629h65v-167h203v-57h-203v-395q0 -52 21 -73t73 -21h109v-57h-127z" />
    <glyph glyph-name="u" unicode="u" horiz-adv-x="524" 
d="M294 57q52 0 73 21t21 73v452h65v-462q0 -73 -34 -107t-107 -34h-100q-73 0 -107 34t-34 107v462h65v-452q0 -52 21 -73t73 -21h64z" />
    <glyph glyph-name="v" unicode="v" horiz-adv-x="519" 
d="M452 603v-412q0 -99 -45 -145t-144 -46h-182v603h65v-546h107q71 0 103 31t32 104v411h64z" />
    <glyph glyph-name="w" unicode="w" horiz-adv-x="804" 
d="M402 98q-8 -53 -41 -75.5t-100 -22.5h-49q-73 0 -107 34t-34 107v462h65v-452q0 -52 21 -73t73 -21h46q52 0 73 21t21 73v452h64v-452q0 -52 21 -73t73 -21h46q52 0 73 21t21 73v452h65v-462q0 -73 -34 -107t-107 -34h-49q-67 0 -100 22.5t-41 75.5z" />
    <glyph glyph-name="x" unicode="x" horiz-adv-x="522" 
d="M397 394v209h65v-184q0 -56 -19.5 -84t-63.5 -34q45 -6 64 -34t19 -84v-183h-65v208q0 34 -15 49.5t-50 15.5h-142q-34 0 -50 -15.5t-16 -49.5v-208h-64v183q0 56 19 84t64 34q-45 6 -64 34t-19 84v184h64v-209q0 -34 15 -49t51 -15h142q34 0 49.5 15t15.5 49z" />
    <glyph glyph-name="y" unicode="y" horiz-adv-x="536" 
d="M269 -167h-157v57h148q68 0 99 30t31 100v55q-22 -66 -117 -66h-61q-73 0 -107 34.5t-34 106.5v453h65v-442q0 -52 21 -73t73 -21h66q52 0 73 21t21 73v442h65v-584q0 -95 -45.5 -140.5t-140.5 -45.5z" />
    <glyph glyph-name="z" unicode="z" horiz-adv-x="479" 
d="M221 273q-57 0 -82.5 -26t-25.5 -82v-108h316v-57h-380v166q0 164 163 164h44q57 0 82.5 25.5t25.5 82.5v108h-295v57h360v-167q0 -163 -164 -163h-44z" />
    <glyph glyph-name="braceleft" unicode="{" horiz-adv-x="325" 
d="M151 546v-129q0 -55 -16.5 -80.5t-60.5 -26.5q44 -1 60.5 -26.5t16.5 -80.5v-129q0 -54 21.5 -76t74.5 -22h38v-56h-56q-72 0 -106.5 34t-34.5 105v165q0 34 -8 46t-38 12h-16v56h16q30 0 38 12t8 46v165q0 71 34.5 105t106.5 34h56v-56h-38q-53 0 -74.5 -22t-21.5 -76z
" />
    <glyph glyph-name="bar" unicode="|" horiz-adv-x="271" 
d="M104 -167v907h63v-907h-63z" />
    <glyph glyph-name="braceright" unicode="}" horiz-adv-x="325" 
d="M174 417v129q0 54 -21.5 76t-74.5 22h-38v56h56q72 0 106.5 -34t34.5 -105v-165q0 -34 8 -46t38 -12h16v-56h-16q-30 0 -38 -12t-8 -46v-165q0 -71 -34.5 -105t-106.5 -34h-56v56h38q53 0 74.5 22t21.5 76v129q0 55 16.5 80.5t60.5 26.5q-44 1 -60.5 26.5t-16.5 80.5z
" />
    <glyph glyph-name="asciitilde" unicode="~" 
d="M67 295v68q42 54 96 54q39 0 115 -35.5t112 -35.5q56 0 95 62v-69q-42 -54 -97 -54q-38 0 -115 35.5t-112 35.5q-55 0 -94 -61z" />
    <glyph glyph-name="uni00A0" unicode="&#xa0;" horiz-adv-x="252" 
 />
    <glyph glyph-name="exclamdown" unicode="&#xa1;" horiz-adv-x="282" 
d="M94 565v65h94v-65h-94zM108 -70v233q0 134 12 293h42q12 -159 12 -293v-233h-66z" />
    <glyph glyph-name="cent" unicode="&#xa2;" 
d="M283 -40v90h-76q-72 0 -106 34t-34 107v318q0 73 34 107t106 34h76v90h59v-90h157v-57h-157v-486h157v-57h-157v-90h-59zM226 107h57v486h-57q-52 0 -73 -21t-21 -73v-298q0 -52 21 -73t73 -21z" />
    <glyph glyph-name="sterling" unicode="&#xa3;" 
d="M208 59h298v-59h-461v59h97v262h-97v58h97v178q0 73 34.5 108t107.5 35h177v-59h-159q-52 0 -73 -20.5t-21 -72.5v-169h253v-58h-253v-262z" />
    <glyph glyph-name="currency" unicode="&#xa4;" 
d="M86 510q0 73 33.5 107t106.5 34h21v89h58v-89h20q73 0 106.5 -34t33.5 -107v-131h65v-58h-65v-132q0 -73 -33.5 -107t-106.5 -34h-20v-88h-58v88h-21q-73 0 -106.5 34t-33.5 107v132h-64v58h64v131zM306 593h-61q-51 0 -72.5 -21.5t-21.5 -72.5v-299q0 -51 21.5 -72.5
t72.5 -21.5h61q51 0 72.5 22t21.5 72v299q0 51 -21.5 72.5t-72.5 21.5z" />
    <glyph glyph-name="yen" unicode="&#xa5;" 
d="M432 700h66v-172q0 -73 -34.5 -108t-107.5 -35h-48v-159h175v-58h-175v-168h-66v168h-174v58h174v159h-47q-74 0 -108.5 35t-34.5 108v172h66v-159q0 -53 21 -75.5t75 -22.5h122q53 0 74.5 22t21.5 76v159z" />
    <glyph glyph-name="brokenbar" unicode="&#xa6;" horiz-adv-x="271" 
d="M104 -167v394h63v-394h-63zM104 347v393h63v-393h-63z" />
    <glyph glyph-name="section" unicode="&#xa7;" horiz-adv-x="580" 
d="M204 442h191q69 0 100.5 -32t31.5 -102v-40q0 -99 -94 -114q94 -14 94 -114v-33q0 -73 -32.5 -106t-103.5 -33h-321v57h307q47 0 67 20t20 67v29q0 45 -19 65t-64 20h-191q-69 0 -100 31.5t-31 102.5v40q0 99 94 114q-94 13 -94 114v33q0 73 32.5 106t103.5 33h320v-57
h-307q-47 0 -66.5 -20t-19.5 -67v-29q0 -45 18.5 -65t63.5 -20zM375 385h-169q-45 0 -64 -19.5t-19 -64.5v-32q0 -47 20 -66.5t67 -19.5h169q45 0 64 19.5t19 64.5v32q0 47 -20 66.5t-67 19.5z" />
    <glyph glyph-name="dieresis" unicode="&#xa8;" horiz-adv-x="233" 
d="M65 736v-53h-85v53h85zM253 736v-53h-85v53h85z" />
    <glyph glyph-name="copyright" unicode="&#xa9;" horiz-adv-x="690" 
d="M316 189q-45 0 -65.5 20.5t-20.5 66.5v147q0 46 20.5 66.5t65.5 20.5h128v-41h-130q-37 0 -37 -37v-165q0 -37 37 -37h130v-41h-128zM228 0q-83 0 -122 39.5t-39 120.5v380q0 81 39 120.5t122 39.5h234q161 0 161 -160v-380q0 -160 -161 -160h-234zM230 42h229
q117 0 117 117v382q0 117 -117 117h-229q-116 0 -116 -117v-382q0 -117 116 -117z" />
    <glyph glyph-name="ordfeminine" unicode="&#xaa;" horiz-adv-x="449" 
d="M334 460v122q0 35 -14.5 49.5t-48.5 14.5h-206v54h212q60 0 88.5 -28.5t28.5 -88.5v-300q0 -60 -28.5 -88.5t-88.5 -28.5h-119q-60 0 -88 28.5t-28 88.5v60q0 60 28 88.5t88 28.5h176zM103 342v-58q0 -35 14.5 -49.5t48.5 -14.5h105q34 0 48.5 14.5t14.5 49.5v122h-168
q-34 0 -48.5 -14.5t-14.5 -49.5zM218 84l64 -84h-127z" />
    <glyph glyph-name="guillemotleft" unicode="&#xab;" horiz-adv-x="457" 
d="M247 51h-67l-153 249l153 249h67l-155 -249zM431 51h-67l-153 249l153 249h67l-155 -249z" />
    <glyph glyph-name="logicalnot" unicode="&#xac;" 
d="M67 321v57h418v-238h-57v181h-361z" />
    <glyph glyph-name="uni00AD" unicode="&#xad;" horiz-adv-x="380" 
d="M338 356v-58h-296v58h296z" />
    <glyph glyph-name="registered" unicode="&#xae;" horiz-adv-x="690" 
d="M228 0q-83 0 -122 39.5t-39 120.5v380q0 81 39 120.5t122 39.5h234q161 0 161 -160v-380q0 -160 -161 -160h-234zM230 42h229q117 0 117 117v382q0 117 -117 117h-229q-116 0 -116 -117v-382q0 -117 116 -117zM454 412q0 -59 -55 -63q55 -5 55 -67v-93h-46v109
q0 31 -28 31h-94v-140h-46v321h148q34 0 50 -16t16 -50v-32zM408 445q0 24 -25 24h-97v-99h97q25 0 25 24v51z" />
    <glyph glyph-name="macron" unicode="&#xaf;" horiz-adv-x="233" 
d="M232 691h-231v39h231v-39z" />
    <glyph glyph-name="degree" unicode="&#xb0;" horiz-adv-x="402" 
d="M39 574q0 126 134 126h56q134 0 134 -126v-134q0 -126 -134 -126h-56q-134 0 -134 126v134zM189 648q-51 0 -70.5 -19t-19.5 -70v-104q0 -51 19.5 -70t70.5 -19h24q51 0 70.5 19t19.5 70v104q0 51 -19.5 70t-70.5 19h-24z" />
    <glyph glyph-name="plusminus" unicode="&#xb1;" 
d="M485 0h-418v57h418v-57zM67 321v57h180v180h57v-180h181v-57h-181v-181h-57v181h-180z" />
    <glyph glyph-name="twosuperior" unicode="&#xb2;" horiz-adv-x="464" 
d="M361 529v49q0 39 -14.5 54t-52.5 15h-226v53h238q60 0 88 -28.5t28 -88.5v-60q0 -60 -28 -88.5t-88 -28.5h-101q-56 0 -77 -20.5t-21 -76.5v-89h315v-54h-376v152q0 142 142 142h106q38 0 52.5 15t14.5 54z" />
    <glyph glyph-name="threesuperior" unicode="&#xb3;" horiz-adv-x="464" 
d="M418 584v-46q0 -47 -17 -73t-65 -32q48 -6 65 -32t17 -73v-46q0 -59 -28 -87.5t-87 -28.5h-264v54h251q38 0 52.5 15t14.5 53v50q0 37 -15 52.5t-50 15.5h-177v54h177q35 0 50 15.5t15 52.5v50q0 38 -14.5 53t-52.5 15h-251v54h264q59 0 87 -28.5t28 -87.5z" />
    <glyph glyph-name="acute" unicode="&#xb4;" horiz-adv-x="233" 
d="M214 764l-122 -101h-55l102 101h75z" />
    <glyph glyph-name="uni00B5" unicode="&#xb5;" horiz-adv-x="536" 
d="M240 57h66q52 0 73 21t21 73v452h64v-462q0 -73 -34 -107t-106 -34h-61q-50 0 -78 16t-39 51v-234h-65v770h65v-452q0 -52 21 -73t73 -21z" />
    <glyph glyph-name="paragraph" unicode="&#xb6;" horiz-adv-x="639" 
d="M553 700v-832h-62v775h-151v-775h-61v407h-86q-82 0 -121 39t-39 120v107q0 81 39 120t121 39h360z" />
    <glyph glyph-name="periodcentered" unicode="&#xb7;" horiz-adv-x="275" 
d="M183 384v-68h-91v68h91z" />
    <glyph glyph-name="cedilla" unicode="&#xb8;" horiz-adv-x="250" 
d="M120 -43h56q33 0 50.5 -10.5t17.5 -38.5q0 -65 -102 -65h-136v43h131q31 0 45.5 6.5t14.5 23.5q0 13 -6.5 18.5t-25.5 5.5h-70l19 60h18z" />
    <glyph glyph-name="onesuperior" unicode="&#xb9;" horiz-adv-x="464" 
d="M119 166v54h127v426h-127v54h187v-480h100v-54h-287z" />
    <glyph glyph-name="ordmasculine" unicode="&#xba;" horiz-adv-x="460" 
d="M54 283v300q0 60 28.5 88.5t88.5 28.5h118q60 0 88.5 -28.5t28.5 -88.5v-300q0 -60 -28.5 -88.5t-88.5 -28.5h-118q-60 0 -88.5 28.5t-28.5 88.5zM283 220q34 0 48.5 14.5t14.5 49.5v298q0 35 -14.5 49.5t-48.5 14.5h-105q-34 0 -48.5 -14.5t-14.5 -49.5v-298
q0 -35 14.5 -49.5t48.5 -14.5h105zM230 84l64 -84h-127z" />
    <glyph glyph-name="guillemotright" unicode="&#xbb;" horiz-adv-x="457" 
d="M277 51h-67l155 249l-155 249h67l153 -249zM93 51h-67l155 249l-155 249h67l153 -249z" />
    <glyph glyph-name="onequarter" unicode="&#xbc;" horiz-adv-x="1025" 
d="M386 0l199 700h54l-199 -700h-54zM119 166v54h127v426h-127v54h187v-480h100v-54h-287zM888 294v240h60v-534h-60v240h-168q-60 0 -88 28.5t-28 88.5v177h60v-173q0 -36 16 -51.5t50 -15.5h158z" />
    <glyph glyph-name="onehalf" unicode="&#xbd;" horiz-adv-x="1025" 
d="M386 0l199 700h54l-199 -700h-54zM119 166v54h127v426h-127v54h187v-480h100v-54h-287zM922 363v49q0 39 -14.5 54t-52.5 15h-226v53h238q60 0 88 -28.5t28 -88.5v-60q0 -60 -28 -88.5t-88 -28.5h-101q-56 0 -77 -20.5t-21 -76.5v-89h315v-54h-376v152q0 142 142 142h106
q38 0 52.5 15t14.5 54z" />
    <glyph glyph-name="threequarters" unicode="&#xbe;" horiz-adv-x="1025" 
d="M386 0l199 700h54l-199 -700h-54zM888 294v240h60v-534h-60v240h-168q-60 0 -88 28.5t-28 88.5v177h60v-173q0 -36 16 -51.5t50 -15.5h158zM418 584v-46q0 -47 -17 -73t-65 -32q48 -6 65 -32t17 -73v-46q0 -59 -28 -87.5t-87 -28.5h-264v54h251q38 0 52.5 15t14.5 53v50
q0 37 -15 52.5t-50 15.5h-177v54h177q35 0 50 15.5t15 52.5v50q0 38 -14.5 53t-52.5 15h-251v54h264q59 0 87 -28.5t28 -87.5z" />
    <glyph glyph-name="questiondown" unicode="&#xbf;" horiz-adv-x="489" 
d="M99 156v-73q0 -50 21 -72t69 -22h282v-59h-298q-73 0 -106.5 34t-33.5 106v99q0 72 33.5 106t106.5 34h43q40 0 57 16.5t17 58.5v74h66v-90q0 -117 -118 -117h-49q-48 0 -69 -22t-21 -73zM276 565v65h93v-65h-93z" />
    <glyph glyph-name="Agrave" unicode="&#xc0;" horiz-adv-x="590" 
d="M513 0h-66v321h-304v-321h-66v556q0 73 35 108.5t109 35.5h148q74 0 109 -35.5t35 -108.5v-556zM352 641h-114q-52 0 -73.5 -22.5t-21.5 -75.5v-164h304v164q0 54 -21.5 76t-73.5 22zM297 750l-119 101h71l102 -101h-54z" />
    <glyph glyph-name="Aacute" unicode="&#xc1;" horiz-adv-x="590" 
d="M513 0h-66v321h-304v-321h-66v556q0 73 35 108.5t109 35.5h148q74 0 109 -35.5t35 -108.5v-556zM352 641h-114q-52 0 -73.5 -22.5t-21.5 -75.5v-164h304v164q0 54 -21.5 76t-73.5 22zM414 851l-122 -101h-55l102 101h75z" />
    <glyph glyph-name="Acircumflex" unicode="&#xc2;" horiz-adv-x="590" 
d="M513 0h-66v321h-304v-321h-66v556q0 73 35 108.5t109 35.5h148q74 0 109 -35.5t35 -108.5v-556zM352 641h-114q-52 0 -73.5 -22.5t-21.5 -75.5v-164h304v164q0 54 -21.5 76t-73.5 22zM295 818l-92 -68h-53l113 101h63l113 -101h-52z" />
    <glyph glyph-name="Atilde" unicode="&#xc3;" horiz-adv-x="590" 
d="M513 0h-66v321h-304v-321h-66v556q0 73 35 108.5t109 35.5h148q74 0 109 -35.5t35 -108.5v-556zM352 641h-114q-52 0 -73.5 -22.5t-21.5 -75.5v-164h304v164q0 54 -21.5 76t-73.5 22zM179 753v45q33 37 64 37q20 0 55 -20t53 -20q31 0 59 38v-45q-32 -37 -65 -37
q-20 0 -55.5 20t-53.5 20q-29 0 -57 -38z" />
    <glyph glyph-name="Adieresis" unicode="&#xc4;" horiz-adv-x="590" 
d="M513 0h-66v321h-304v-321h-66v556q0 73 35 108.5t109 35.5h148q74 0 109 -35.5t35 -108.5v-556zM352 641h-114q-52 0 -73.5 -22.5t-21.5 -75.5v-164h304v164q0 54 -21.5 76t-73.5 22zM243 823v-53h-85v53h85zM431 823v-53h-85v53h85z" />
    <glyph glyph-name="Aring" unicode="&#xc5;" horiz-adv-x="590" 
d="M513 0h-66v321h-304v-321h-66v556q0 73 35 108.5t109 35.5h148q74 0 109 -35.5t35 -108.5v-556zM352 641h-114q-52 0 -73.5 -22.5t-21.5 -75.5v-164h304v164q0 54 -21.5 76t-73.5 22zM251 804q0 -28 33 -28h23q33 0 33 28q0 29 -33 29h-23q-33 0 -33 -29zM305 748h-18
q-67 0 -67 56t67 56h18q65 0 65 -56t-65 -56z" />
    <glyph glyph-name="AE" unicode="&#xc6;" horiz-adv-x="874" 
d="M429 0v321h-286v-321h-66v556q0 73 35 108.5t109 35.5h606v-59h-335v-262h245v-58h-245v-262h335v-59h-398zM238 641q-52 0 -73.5 -22t-21.5 -76v-164h286v262h-191z" />
    <glyph glyph-name="Ccedilla" unicode="&#xc7;" horiz-adv-x="491" 
d="M283 0l-12 -43h56q33 0 50.5 -10.5t17.5 -38.5q0 -65 -102 -65h-136v43h131q31 0 45.5 6.5t14.5 23.5q0 13 -6.5 18.5t-25.5 5.5h-70l19 60h-55q-73 0 -108 35.5t-35 108.5v412q0 73 35 108.5t108 35.5h234v-59h-216q-52 0 -73.5 -22t-21.5 -76v-386q0 -54 21.5 -76
t73.5 -22h216v-59h-161z" />
    <glyph glyph-name="Egrave" unicode="&#xc8;" horiz-adv-x="545" 
d="M87 0v700h411v-59h-345v-262h255v-58h-255v-262h345v-59h-411zM292 750l-119 101h71l102 -101h-54z" />
    <glyph glyph-name="Eacute" unicode="&#xc9;" horiz-adv-x="545" 
d="M87 0v700h411v-59h-345v-262h255v-58h-255v-262h345v-59h-411zM408 851l-122 -101h-55l102 101h75z" />
    <glyph glyph-name="Ecircumflex" unicode="&#xca;" horiz-adv-x="545" 
d="M87 0v700h411v-59h-345v-262h255v-58h-255v-262h345v-59h-411zM289 818l-92 -68h-53l113 101h63l113 -101h-52z" />
    <glyph glyph-name="Edieresis" unicode="&#xcb;" horiz-adv-x="545" 
d="M87 0v700h411v-59h-345v-262h255v-58h-255v-262h345v-59h-411zM237 823v-53h-85v53h85zM425 823v-53h-85v53h85z" />
    <glyph glyph-name="Igrave" unicode="&#xcc;" horiz-adv-x="240" 
d="M87 0v700h66v-700h-66zM122 750l-119 101h71l102 -101h-54z" />
    <glyph glyph-name="Iacute" unicode="&#xcd;" horiz-adv-x="240" 
d="M87 0v700h66v-700h-66zM239 851l-122 -101h-55l102 101h75z" />
    <glyph glyph-name="Icircumflex" unicode="&#xce;" horiz-adv-x="240" 
d="M87 0v700h66v-700h-66zM120 818l-92 -68h-53l113 101h63l113 -101h-52z" />
    <glyph glyph-name="Idieresis" unicode="&#xcf;" horiz-adv-x="240" 
d="M246 823v-53h-84v53h84zM78 823v-53h-84v53h84zM87 0v700h66v-700h-66z" />
    <glyph glyph-name="Eth" unicode="&#xd0;" horiz-adv-x="585" 
d="M324 700q199 0 199 -199v-302q0 -199 -199 -199h-237v321h-70v58h70v321h237zM311 59q73 0 109.5 35.5t36.5 111.5v288q0 76 -36 111.5t-110 35.5h-158v-262h99v-58h-99v-262h158z" />
    <glyph glyph-name="Ntilde" unicode="&#xd1;" horiz-adv-x="590" 
d="M238 641q-52 0 -73.5 -22t-21.5 -76v-543h-66v556q0 73 35 108.5t109 35.5h148q74 0 109 -35.5t35 -108.5v-556h-66v543q0 54 -21.5 76t-73.5 22h-114zM179 753v45q33 37 64 37q20 0 55 -20t53 -20q31 0 59 38v-45q-32 -37 -65 -37q-20 0 -55.5 20t-53.5 20
q-29 0 -57 -38z" />
    <glyph glyph-name="Ograve" unicode="&#xd2;" horiz-adv-x="572" 
d="M211 0q-74 0 -109 35.5t-35 108.5v412q0 73 35 108.5t109 35.5h150q74 0 109 -35.5t35 -108.5v-412q0 -73 -35 -108.5t-109 -35.5h-150zM439 157v386q0 54 -21.5 76t-74.5 22h-115q-52 0 -73.5 -22t-21.5 -76v-386q0 -54 21.5 -76t73.5 -22h115q53 0 74.5 22t21.5 76z
M288 750l-119 101h71l102 -101h-54z" />
    <glyph glyph-name="Oacute" unicode="&#xd3;" horiz-adv-x="572" 
d="M211 0q-74 0 -109 35.5t-35 108.5v412q0 73 35 108.5t109 35.5h150q74 0 109 -35.5t35 -108.5v-412q0 -73 -35 -108.5t-109 -35.5h-150zM439 157v386q0 54 -21.5 76t-74.5 22h-115q-52 0 -73.5 -22t-21.5 -76v-386q0 -54 21.5 -76t73.5 -22h115q53 0 74.5 22t21.5 76z
M404 851l-122 -101h-55l102 101h75z" />
    <glyph glyph-name="Ocircumflex" unicode="&#xd4;" horiz-adv-x="572" 
d="M211 0q-74 0 -109 35.5t-35 108.5v412q0 73 35 108.5t109 35.5h150q74 0 109 -35.5t35 -108.5v-412q0 -73 -35 -108.5t-109 -35.5h-150zM439 157v386q0 54 -21.5 76t-74.5 22h-115q-52 0 -73.5 -22t-21.5 -76v-386q0 -54 21.5 -76t73.5 -22h115q53 0 74.5 22t21.5 76z
M286 818l-92 -68h-53l113 101h63l113 -101h-52z" />
    <glyph glyph-name="Otilde" unicode="&#xd5;" horiz-adv-x="572" 
d="M211 0q-74 0 -109 35.5t-35 108.5v412q0 73 35 108.5t109 35.5h150q74 0 109 -35.5t35 -108.5v-412q0 -73 -35 -108.5t-109 -35.5h-150zM439 157v386q0 54 -21.5 76t-74.5 22h-115q-52 0 -73.5 -22t-21.5 -76v-386q0 -54 21.5 -76t73.5 -22h115q53 0 74.5 22t21.5 76z
M170 753v45q33 37 64 37q20 0 55 -20t53 -20q30 0 59 38v-45q-32 -37 -65 -37q-20 0 -55.5 20t-53.5 20q-29 0 -57 -38z" />
    <glyph glyph-name="Odieresis" unicode="&#xd6;" horiz-adv-x="572" 
d="M211 0q-74 0 -109 35.5t-35 108.5v412q0 73 35 108.5t109 35.5h150q74 0 109 -35.5t35 -108.5v-412q0 -73 -35 -108.5t-109 -35.5h-150zM439 157v386q0 54 -21.5 76t-74.5 22h-115q-52 0 -73.5 -22t-21.5 -76v-386q0 -54 21.5 -76t73.5 -22h115q53 0 74.5 22t21.5 76z
M234 823v-53h-85v53h85zM422 823v-53h-85v53h85z" />
    <glyph glyph-name="multiply" unicode="&#xd7;" 
d="M338 321l120 -181h-64l-118 181l-121 -181h-63l121 181h-146v57h146l-121 180h63l121 -180l118 180h64l-120 -180h147v-57h-147z" />
    <glyph glyph-name="Oslash" unicode="&#xd8;" horiz-adv-x="572" 
d="M211 0q-74 0 -109 35.5t-35 108.5v412q0 73 35 108.5t109 35.5h150q74 0 109 -35.5t35 -108.5v-412q0 -73 -35 -108.5t-109 -35.5h-150zM439 157v386q0 53 -22 76l-232 -556q16 -4 43 -4h115q53 0 74.5 22t21.5 76zM133 157q0 -52 20 -75l232 554q-20 5 -42 5h-115
q-52 0 -73.5 -22t-21.5 -76v-386z" />
    <glyph glyph-name="Ugrave" unicode="&#xd9;" horiz-adv-x="590" 
d="M221 0q-74 0 -109 35.5t-35 108.5v556h66v-543q0 -54 21.5 -76t73.5 -22h114q52 0 73.5 22t21.5 76v543h66v-556q0 -73 -35 -108.5t-109 -35.5h-148zM297 750l-119 101h71l102 -101h-54z" />
    <glyph glyph-name="Uacute" unicode="&#xda;" horiz-adv-x="590" 
d="M221 0q-74 0 -109 35.5t-35 108.5v556h66v-543q0 -54 21.5 -76t73.5 -22h114q52 0 73.5 22t21.5 76v543h66v-556q0 -73 -35 -108.5t-109 -35.5h-148zM414 851l-122 -101h-55l102 101h75z" />
    <glyph glyph-name="Ucircumflex" unicode="&#xdb;" horiz-adv-x="590" 
d="M221 0q-74 0 -109 35.5t-35 108.5v556h66v-543q0 -54 21.5 -76t73.5 -22h114q52 0 73.5 22t21.5 76v543h66v-556q0 -73 -35 -108.5t-109 -35.5h-148zM295 818l-92 -68h-53l113 101h63l113 -101h-52z" />
    <glyph glyph-name="Udieresis" unicode="&#xdc;" horiz-adv-x="590" 
d="M221 0q-74 0 -109 35.5t-35 108.5v556h66v-543q0 -54 21.5 -76t73.5 -22h114q52 0 73.5 22t21.5 76v543h66v-556q0 -73 -35 -108.5t-109 -35.5h-148zM243 823v-53h-85v53h85zM431 823v-53h-85v53h85z" />
    <glyph glyph-name="Yacute" unicode="&#xdd;" horiz-adv-x="553" 
d="M439 700h66v-236q0 -143 -143 -143h-52v-321h-67v321h-52q-143 0 -143 143v236h66v-222q0 -54 21.5 -76.5t73.5 -22.5h135q53 0 74 22t21 77v222zM395 851l-122 -101h-55l102 101h75z" />
    <glyph glyph-name="Thorn" unicode="&#xde;" horiz-adv-x="555" 
d="M87 0v700h66v-97h228q73 0 107 -34t34 -106v-99q0 -72 -34 -106t-107 -34h-228v-224h-66zM456 450q0 50 -21.5 72t-69.5 22h-212v-262h212q48 0 69.5 22t21.5 73v73z" />
    <glyph glyph-name="germandbls" unicode="&#xdf;" horiz-adv-x="538" 
d="M345 273h-122v57h122q45 0 61.5 17.5t16.5 62.5v49q0 47 -19.5 67t-66.5 20h-89q-59 0 -85.5 -25.5t-26.5 -86.5v-434h-65v440q0 84 40 123.5t124 39.5h118q70 0 102.5 -33t32.5 -105v-53q0 -51 -21 -78t-70 -33q49 -6 70 -33t21 -77v-53q0 -72 -32.5 -105t-102.5 -33
h-130v57h114q47 0 66.5 20t19.5 67v49q0 45 -16.5 62.5t-61.5 17.5z" />
    <glyph glyph-name="agrave" unicode="&#xe0;" horiz-adv-x="504" 
d="M377 330v122q0 52 -21 73t-73 21h-207v57h226q72 0 106 -34t34 -107v-321q0 -73 -34 -107t-106 -34h-130q-65 0 -95.5 31t-30.5 98v72q0 66 30.5 97.5t94.5 31.5h206zM377 273h-190q-41 0 -58.5 -18t-17.5 -59v-62q0 -41 17.5 -59t58.5 -18h96q52 0 73 21t21 73v122z
M249 663l-119 101h71l102 -101h-54z" />
    <glyph glyph-name="aacute" unicode="&#xe1;" horiz-adv-x="504" 
d="M377 330v122q0 52 -21 73t-73 21h-207v57h226q72 0 106 -34t34 -107v-321q0 -73 -34 -107t-106 -34h-130q-65 0 -95.5 31t-30.5 98v72q0 66 30.5 97.5t94.5 31.5h206zM377 273h-190q-41 0 -58.5 -18t-17.5 -59v-62q0 -41 17.5 -59t58.5 -18h96q52 0 73 21t21 73v122z
M366 764l-122 -101h-55l102 101h75z" />
    <glyph glyph-name="acircumflex" unicode="&#xe2;" horiz-adv-x="504" 
d="M377 330v122q0 52 -21 73t-73 21h-207v57h226q72 0 106 -34t34 -107v-321q0 -73 -34 -107t-106 -34h-130q-65 0 -95.5 31t-30.5 98v72q0 66 30.5 97.5t94.5 31.5h206zM377 273h-190q-41 0 -58.5 -18t-17.5 -59v-62q0 -41 17.5 -59t58.5 -18h96q52 0 73 21t21 73v122z
M247 731l-92 -68h-53l113 101h63l113 -101h-52z" />
    <glyph glyph-name="atilde" unicode="&#xe3;" horiz-adv-x="504" 
d="M377 330v122q0 52 -21 73t-73 21h-207v57h226q72 0 106 -34t34 -107v-321q0 -73 -34 -107t-106 -34h-130q-65 0 -95.5 31t-30.5 98v72q0 66 30.5 97.5t94.5 31.5h206zM377 273h-190q-41 0 -58.5 -18t-17.5 -59v-62q0 -41 17.5 -59t58.5 -18h96q52 0 73 21t21 73v122z
M131 666v45q33 37 64 37q20 0 55 -20t53 -20q31 0 59 38v-45q-32 -37 -65 -37q-20 0 -55.5 20t-53.5 20q-28 0 -57 -38z" />
    <glyph glyph-name="adieresis" unicode="&#xe4;" horiz-adv-x="504" 
d="M377 330v122q0 52 -21 73t-73 21h-207v57h226q72 0 106 -34t34 -107v-321q0 -73 -34 -107t-106 -34h-130q-65 0 -95.5 31t-30.5 98v72q0 66 30.5 97.5t94.5 31.5h206zM377 273h-190q-41 0 -58.5 -18t-17.5 -59v-62q0 -41 17.5 -59t58.5 -18h96q52 0 73 21t21 73v122z
M195 736v-53h-85v53h85zM383 736v-53h-85v53h85z" />
    <glyph glyph-name="aring" unicode="&#xe5;" horiz-adv-x="504" 
d="M377 330v122q0 52 -21 73t-73 21h-207v57h226q72 0 106 -34t34 -107v-321q0 -73 -34 -107t-106 -34h-130q-65 0 -95.5 31t-30.5 98v72q0 66 30.5 97.5t94.5 31.5h206zM377 273h-190q-41 0 -58.5 -18t-17.5 -59v-62q0 -41 17.5 -59t58.5 -18h96q52 0 73 21t21 73v122z
M202 717q0 -28 33 -28h23q33 0 33 28q0 29 -33 29h-23q-33 0 -33 -29zM256 661h-18q-67 0 -67 56t67 56h18q65 0 65 -56t-65 -56z" />
    <glyph glyph-name="ae" unicode="&#xe6;" horiz-adv-x="741" 
d="M630 406v63q0 41 -17.5 59t-58.5 18h-57q-52 0 -73 -21t-21 -73v-122h151q41 0 58.5 17.5t17.5 58.5zM111 196v-62q0 -41 17.5 -59t58.5 -18h57q52 0 73 21t21 73v122h-151q-41 0 -58.5 -18t-17.5 -59zM229 0h-57q-65 0 -95.5 31t-30.5 98v72q0 66 30.5 97.5t94.5 31.5
h167v122q0 52 -21 73t-73 21h-168v57h153q67 0 100.5 -22.5t40.5 -75.5q8 53 41.5 75.5t100.5 22.5h57q65 0 95.5 -31t30.5 -98v-73q0 -66 -30.5 -97t-94.5 -31h-167v-122q0 -52 21 -73t73 -21h168v-57h-153q-67 0 -100.5 22.5t-41.5 75.5q-7 -53 -40.5 -75.5t-100.5 -22.5z
" />
    <glyph glyph-name="ccedilla" unicode="&#xe7;" horiz-adv-x="450" 
d="M254 0l-12 -43h56q33 0 50.5 -10.5t17.5 -38.5q0 -65 -102 -65h-136v43h131q31 0 45.5 6.5t14.5 23.5q0 13 -6.5 18.5t-25.5 5.5h-70l19 60h-34q-72 0 -106 34t-34 107v321q0 73 34 107t106 34h200v-57h-182q-51 0 -72.5 -21t-21.5 -73v-301q0 -52 21.5 -73t72.5 -21h182
v-57h-148z" />
    <glyph glyph-name="egrave" unicode="&#xe8;" horiz-adv-x="504" 
d="M458 401q0 -66 -30.5 -97t-95.5 -31h-206v-122q0 -52 21.5 -73t72.5 -21h208v-57h-226q-72 0 -106 34t-34 107v321q0 73 34 107t106 34h130q65 0 95.5 -31t30.5 -98v-73zM316 546h-96q-51 0 -72.5 -21t-21.5 -73v-122h190q42 0 59.5 17.5t17.5 58.5v63q0 41 -17.5 59
t-59.5 18zM269 663l-119 101h71l102 -101h-54z" />
    <glyph glyph-name="eacute" unicode="&#xe9;" horiz-adv-x="504" 
d="M458 401q0 -66 -30.5 -97t-95.5 -31h-206v-122q0 -52 21.5 -73t72.5 -21h208v-57h-226q-72 0 -106 34t-34 107v321q0 73 34 107t106 34h130q65 0 95.5 -31t30.5 -98v-73zM316 546h-96q-51 0 -72.5 -21t-21.5 -73v-122h190q42 0 59.5 17.5t17.5 58.5v63q0 41 -17.5 59
t-59.5 18zM385 764l-122 -101h-55l102 101h75z" />
    <glyph glyph-name="ecircumflex" unicode="&#xea;" horiz-adv-x="504" 
d="M458 401q0 -66 -30.5 -97t-95.5 -31h-206v-122q0 -52 21.5 -73t72.5 -21h208v-57h-226q-72 0 -106 34t-34 107v321q0 73 34 107t106 34h130q65 0 95.5 -31t30.5 -98v-73zM316 546h-96q-51 0 -72.5 -21t-21.5 -73v-122h190q42 0 59.5 17.5t17.5 58.5v63q0 41 -17.5 59
t-59.5 18zM267 731l-92 -68h-53l113 101h63l113 -101h-52z" />
    <glyph glyph-name="edieresis" unicode="&#xeb;" horiz-adv-x="504" 
d="M458 401q0 -66 -30.5 -97t-95.5 -31h-206v-122q0 -52 21.5 -73t72.5 -21h208v-57h-226q-72 0 -106 34t-34 107v321q0 73 34 107t106 34h130q65 0 95.5 -31t30.5 -98v-73zM316 546h-96q-51 0 -72.5 -21t-21.5 -73v-122h190q42 0 59.5 17.5t17.5 58.5v63q0 41 -17.5 59
t-59.5 18zM215 736v-53h-85v53h85zM403 736v-53h-85v53h85z" />
    <glyph glyph-name="igrave" unicode="&#xec;" horiz-adv-x="295" 
d="M125 663l-119 101h71l102 -101h-54zM224 57h48v-57h-65q-72 0 -102.5 31t-30.5 101v471h65v-460q0 -50 17.5 -68t67.5 -18z" />
    <glyph glyph-name="iacute" unicode="&#xed;" horiz-adv-x="295" 
d="M234 764l-122 -101h-55l102 101h75zM224 57h48v-57h-65q-72 0 -102.5 31t-30.5 101v471h65v-460q0 -50 17.5 -68t67.5 -18z" />
    <glyph glyph-name="icircumflex" unicode="&#xee;" horiz-adv-x="295" 
d="M224 57h48v-57h-65q-72 0 -102.5 31t-30.5 101v471h65v-460q0 -50 17.5 -68t67.5 -18zM106 731l-92 -68h-53l113 101h63l113 -101h-52z" />
    <glyph glyph-name="idieresis" unicode="&#xef;" horiz-adv-x="295" 
d="M242 736v-53h-84v53h84zM54 736v-53h-84v53h84zM224 57h48v-57h-65q-72 0 -102.5 31t-30.5 101v471h65v-460q0 -50 17.5 -68t67.5 -18z" />
    <glyph glyph-name="eth" unicode="&#xf0;" horiz-adv-x="516" 
d="M202 594h61q96 0 117 -66v55q0 69 -29.5 98.5t-93.5 31.5v-78h-32v78h-123v57h123v50h32v-50h2q95 0 140.5 -45.5t45.5 -140.5v-443q0 -73 -34 -107t-106 -34h-103q-72 0 -106 34t-34 107v312q0 72 34 106.5t106 34.5zM286 536h-66q-51 0 -72.5 -21t-21.5 -73v-291
q0 -52 21.5 -73t72.5 -21h66q52 0 73 21t21 73v291q0 52 -21 73t-73 21z" />
    <glyph glyph-name="ntilde" unicode="&#xf1;" horiz-adv-x="524" 
d="M71 0v462q0 73 34 107t107 34h100q73 0 107 -34t34 -107v-462h-65v452q0 52 -21 73t-73 21h-64q-52 0 -73 -21t-21 -73v-452h-65zM146 666v45q33 37 64 37q20 0 55 -20t53 -20q30 0 59 38v-45q-32 -37 -65 -37q-20 0 -55.5 20t-53.5 20q-29 0 -57 -38z" />
    <glyph glyph-name="ograve" unicode="&#xf2;" horiz-adv-x="505" 
d="M303 603q72 0 106 -34t34 -107v-321q0 -73 -34 -107t-106 -34h-101q-72 0 -106 34t-34 107v321q0 73 34 107t106 34h101zM284 57q52 0 73 21t21 73v301q0 52 -21 73t-73 21h-64q-52 0 -73 -21t-21 -73v-301q0 -52 21 -73t73 -21h64zM255 663l-119 101h71l102 -101h-54z
" />
    <glyph glyph-name="oacute" unicode="&#xf3;" horiz-adv-x="505" 
d="M303 603q72 0 106 -34t34 -107v-321q0 -73 -34 -107t-106 -34h-101q-72 0 -106 34t-34 107v321q0 73 34 107t106 34h101zM284 57q52 0 73 21t21 73v301q0 52 -21 73t-73 21h-64q-52 0 -73 -21t-21 -73v-301q0 -52 21 -73t73 -21h64zM371 764l-122 -101h-55l102 101h75z
" />
    <glyph glyph-name="ocircumflex" unicode="&#xf4;" horiz-adv-x="505" 
d="M303 603q72 0 106 -34t34 -107v-321q0 -73 -34 -107t-106 -34h-101q-72 0 -106 34t-34 107v321q0 73 34 107t106 34h101zM284 57q52 0 73 21t21 73v301q0 52 -21 73t-73 21h-64q-52 0 -73 -21t-21 -73v-301q0 -52 21 -73t73 -21h64zM253 731l-92 -68h-53l113 101h63
l113 -101h-52z" />
    <glyph glyph-name="otilde" unicode="&#xf5;" horiz-adv-x="505" 
d="M303 603q72 0 106 -34t34 -107v-321q0 -73 -34 -107t-106 -34h-101q-72 0 -106 34t-34 107v321q0 73 34 107t106 34h101zM284 57q52 0 73 21t21 73v301q0 52 -21 73t-73 21h-64q-52 0 -73 -21t-21 -73v-301q0 -52 21 -73t73 -21h64zM137 666v45q33 37 64 37q20 0 55 -20
t53 -20q31 0 59 38v-45q-32 -37 -65 -37q-20 0 -55.5 20t-53.5 20q-28 0 -57 -38z" />
    <glyph glyph-name="odieresis" unicode="&#xf6;" horiz-adv-x="505" 
d="M303 603q72 0 106 -34t34 -107v-321q0 -73 -34 -107t-106 -34h-101q-72 0 -106 34t-34 107v321q0 73 34 107t106 34h101zM284 57q52 0 73 21t21 73v301q0 52 -21 73t-73 21h-64q-52 0 -73 -21t-21 -73v-301q0 -52 21 -73t73 -21h64zM201 736v-53h-85v53h85zM389 736v-53
h-85v53h85z" />
    <glyph glyph-name="divide" unicode="&#xf7;" 
d="M320 156v-68h-87v68h87zM320 612v-68h-87v68h87zM485 321h-418v57h418v-57z" />
    <glyph glyph-name="oslash" unicode="&#xf8;" horiz-adv-x="505" 
d="M303 603q72 0 106 -34t34 -107v-321q0 -73 -34 -107t-106 -34h-101q-72 0 -106 34t-34 107v321q0 73 34 107t106 34h101zM284 57q52 0 73 21t21 73v301q0 63 -35 83l-157 -476q10 -2 34 -2h64zM126 151q0 -57 25 -76l156 470q-7 1 -23 1h-64q-52 0 -73 -21t-21 -73v-301z
" />
    <glyph glyph-name="ugrave" unicode="&#xf9;" horiz-adv-x="524" 
d="M294 57q52 0 73 21t21 73v452h65v-462q0 -73 -34 -107t-107 -34h-100q-73 0 -107 34t-34 107v462h65v-452q0 -52 21 -73t73 -21h64zM264 663l-119 101h71l102 -101h-54z" />
    <glyph glyph-name="uacute" unicode="&#xfa;" horiz-adv-x="524" 
d="M294 57q52 0 73 21t21 73v452h65v-462q0 -73 -34 -107t-107 -34h-100q-73 0 -107 34t-34 107v462h65v-452q0 -52 21 -73t73 -21h64zM381 764l-122 -101h-55l102 101h75z" />
    <glyph glyph-name="ucircumflex" unicode="&#xfb;" horiz-adv-x="524" 
d="M294 57q52 0 73 21t21 73v452h65v-462q0 -73 -34 -107t-107 -34h-100q-73 0 -107 34t-34 107v462h65v-452q0 -52 21 -73t73 -21h64zM262 731l-92 -68h-53l113 101h63l113 -101h-52z" />
    <glyph glyph-name="udieresis" unicode="&#xfc;" horiz-adv-x="524" 
d="M294 57q52 0 73 21t21 73v452h65v-462q0 -73 -34 -107t-107 -34h-100q-73 0 -107 34t-34 107v462h65v-452q0 -52 21 -73t73 -21h64zM210 736v-53h-85v53h85zM398 736v-53h-85v53h85z" />
    <glyph glyph-name="yacute" unicode="&#xfd;" horiz-adv-x="536" 
d="M269 -167h-157v57h148q68 0 99 30t31 100v55q-22 -66 -117 -66h-61q-73 0 -107 34.5t-34 106.5v453h65v-442q0 -52 21 -73t73 -21h66q52 0 73 21t21 73v442h65v-584q0 -95 -45.5 -140.5t-140.5 -45.5zM386 764l-122 -101h-55l102 101h75z" />
    <glyph glyph-name="thorn" unicode="&#xfe;" horiz-adv-x="526" 
d="M146 770v-167h178q72 0 106 -34t34 -107v-321q0 -73 -34 -107t-106 -34h-61q-95 0 -117 66v-233h-65v937h65zM146 546v-395q0 -52 21 -73t73 -21h66q52 0 73 21t21 73v301q0 52 -21 73t-73 21h-160z" />
    <glyph glyph-name="ydieresis" unicode="&#xff;" horiz-adv-x="536" 
d="M269 -167h-157v57h148q68 0 99 30t31 100v55q-22 -66 -117 -66h-61q-73 0 -107 34.5t-34 106.5v453h65v-442q0 -52 21 -73t73 -21h66q52 0 73 21t21 73v442h65v-584q0 -95 -45.5 -140.5t-140.5 -45.5zM216 736v-53h-85v53h85zM404 736v-53h-85v53h85z" />
    <glyph glyph-name="Amacron" unicode="&#x100;" horiz-adv-x="590" 
d="M513 0h-66v321h-304v-321h-66v556q0 73 35 108.5t109 35.5h148q74 0 109 -35.5t35 -108.5v-556zM352 641h-114q-52 0 -73.5 -22.5t-21.5 -75.5v-164h304v164q0 54 -21.5 76t-73.5 22zM410 778h-231v39h231v-39z" />
    <glyph glyph-name="amacron" unicode="&#x101;" horiz-adv-x="504" 
d="M377 330v122q0 52 -21 73t-73 21h-207v57h226q72 0 106 -34t34 -107v-321q0 -73 -34 -107t-106 -34h-130q-65 0 -95.5 31t-30.5 98v72q0 66 30.5 97.5t94.5 31.5h206zM377 273h-190q-41 0 -58.5 -18t-17.5 -59v-62q0 -41 17.5 -59t58.5 -18h96q52 0 73 21t21 73v122z
M362 691h-231v39h231v-39z" />
    <glyph glyph-name="Abreve" unicode="&#x102;" horiz-adv-x="590" 
d="M513 0h-66v321h-304v-321h-66v556q0 73 35 108.5t109 35.5h148q74 0 109 -35.5t35 -108.5v-556zM352 641h-114q-52 0 -73.5 -22.5t-21.5 -75.5v-164h304v164q0 54 -21.5 76t-73.5 22zM179 805v47q33 -59 116 -59t115 59v-47q-34 -55 -115 -55q-82 0 -116 55z" />
    <glyph glyph-name="abreve" unicode="&#x103;" horiz-adv-x="504" 
d="M377 330v122q0 52 -21 73t-73 21h-207v57h226q72 0 106 -34t34 -107v-321q0 -73 -34 -107t-106 -34h-130q-65 0 -95.5 31t-30.5 98v72q0 66 30.5 97.5t94.5 31.5h206zM377 273h-190q-41 0 -58.5 -18t-17.5 -59v-62q0 -41 17.5 -59t58.5 -18h96q52 0 73 21t21 73v122z
M131 718v47q33 -59 116 -59t115 59v-47q-34 -55 -115 -55q-82 0 -116 55z" />
    <glyph glyph-name="Aogonek" unicode="&#x104;" horiz-adv-x="590" 
d="M352 641h-114q-52 0 -73.5 -22.5t-21.5 -75.5v-164h304v164q0 54 -21.5 76t-73.5 22zM459 0h-12v321h-304v-321h-66v556q0 73 35 108.5t109 35.5h148q74 0 109 -35.5t35 -108.5v-556h-34v-62h-20q-87 0 -119.5 -7.5t-32.5 -26.5q0 -18 43 -18h160v-43h-159q-74 0 -74 47
q0 38 37.5 52.5t134.5 14.5h10v43z" />
    <glyph glyph-name="aogonek" unicode="&#x105;" horiz-adv-x="504" 
d="M377 273h-190q-41 0 -58.5 -18t-17.5 -59v-62q0 -41 17.5 -59t58.5 -18h96q52 0 73 21t21 73v122zM388 -43v61q-33 -18 -86 -18h-130q-65 0 -95.5 31t-30.5 98v72q0 66 30.5 97.5t94.5 31.5h206v122q0 52 -21 73t-73 21h-207v57h226q72 0 106 -34t34 -107v-321
q0 -73 -34 -107v-96h-20q-87 0 -119.5 -7.5t-32.5 -26.5q0 -18 43 -18h160v-43h-159q-74 0 -74 47q0 38 37.5 52.5t134.5 14.5h10z" />
    <glyph glyph-name="Cacute" unicode="&#x106;" horiz-adv-x="491" 
d="M210 0q-73 0 -108 35.5t-35 108.5v412q0 73 35 108.5t108 35.5h234v-59h-216q-52 0 -73.5 -22t-21.5 -76v-386q0 -54 21.5 -76t73.5 -22h216v-59h-234zM377 851l-122 -101h-55l102 101h75z" />
    <glyph glyph-name="cacute" unicode="&#x107;" horiz-adv-x="450" 
d="M202 0q-72 0 -106 34t-34 107v321q0 73 34 107t106 34h200v-57h-182q-51 0 -72.5 -21t-21.5 -73v-301q0 -52 21.5 -73t72.5 -21h182v-57h-200zM369 764l-122 -101h-55l102 101h75z" />
    <glyph glyph-name="Ccircumflex" unicode="&#x108;" horiz-adv-x="491" 
d="M210 0q-73 0 -108 35.5t-35 108.5v412q0 73 35 108.5t108 35.5h234v-59h-216q-52 0 -73.5 -22t-21.5 -76v-386q0 -54 21.5 -76t73.5 -22h216v-59h-234zM273 818l-92 -68h-53l113 101h63l113 -101h-52z" />
    <glyph glyph-name="ccircumflex" unicode="&#x109;" horiz-adv-x="450" 
d="M202 0q-72 0 -106 34t-34 107v321q0 73 34 107t106 34h200v-57h-182q-51 0 -72.5 -21t-21.5 -73v-301q0 -52 21.5 -73t72.5 -21h182v-57h-200zM250 731l-92 -68h-53l113 101h63l113 -101h-52z" />
    <glyph glyph-name="Cdotaccent" unicode="&#x10a;" horiz-adv-x="491" 
d="M210 0q-73 0 -108 35.5t-35 108.5v412q0 73 35 108.5t108 35.5h234v-59h-216q-52 0 -73.5 -22t-21.5 -76v-386q0 -54 21.5 -76t73.5 -22h216v-59h-234zM315 823v-53h-85v53h85z" />
    <glyph glyph-name="cdotaccent" unicode="&#x10b;" horiz-adv-x="450" 
d="M202 0q-72 0 -106 34t-34 107v321q0 73 34 107t106 34h200v-57h-182q-51 0 -72.5 -21t-21.5 -73v-301q0 -52 21.5 -73t72.5 -21h182v-57h-200zM292 736v-53h-85v53h85z" />
    <glyph glyph-name="Ccaron" unicode="&#x10c;" horiz-adv-x="491" 
d="M210 0q-73 0 -108 35.5t-35 108.5v412q0 73 35 108.5t108 35.5h234v-59h-216q-52 0 -73.5 -22t-21.5 -76v-386q0 -54 21.5 -76t73.5 -22h216v-59h-234zM181 851l92 -69l92 69h52l-113 -101h-63l-113 101h53z" />
    <glyph glyph-name="ccaron" unicode="&#x10d;" horiz-adv-x="450" 
d="M202 0q-72 0 -106 34t-34 107v321q0 73 34 107t106 34h200v-57h-182q-51 0 -72.5 -21t-21.5 -73v-301q0 -52 21.5 -73t72.5 -21h182v-57h-200zM158 764l92 -69l92 69h52l-113 -101h-63l-113 101h53z" />
    <glyph glyph-name="Dcaron" unicode="&#x10e;" horiz-adv-x="585" 
d="M324 700q199 0 199 -199v-302q0 -199 -199 -199h-237v700h237zM311 59q73 0 109.5 35.5t36.5 111.5v288q0 76 -36 111.5t-110 35.5h-158v-582h158zM193 851l92 -69l92 69h52l-113 -101h-63l-113 101h53z" />
    <glyph glyph-name="dcaron" unicode="&#x10f;" horiz-adv-x="709" 
d="M445 770v-629q0 -73 -34 -107t-106 -34h-103q-72 0 -106 34t-34 107v321q0 73 34 107t106 34h61q97 0 117 -67v234h65zM380 151v301q0 52 -21 73t-73 21h-66q-51 0 -72.5 -21t-21.5 -73v-301q0 -52 21.5 -73t72.5 -21h66q52 0 73 21t21 73zM658 700v-65q0 -51 -18.5 -75
t-61.5 -24h-11v28h11q19 0 27.5 11t8.5 41v19h-47v65h91z" />
    <glyph glyph-name="Dcroat" unicode="&#x110;" horiz-adv-x="585" 
d="M324 700q199 0 199 -199v-302q0 -199 -199 -199h-237v321h-70v58h70v321h237zM311 59q73 0 109.5 35.5t36.5 111.5v288q0 76 -36 111.5t-110 35.5h-158v-262h99v-58h-99v-262h158z" />
    <glyph glyph-name="dcroat" unicode="&#x111;" horiz-adv-x="516" 
d="M445 770v-75h71v-39h-71v-515q0 -73 -34 -107t-106 -34h-103q-72 0 -106 34t-34 107v321q0 73 34 107t106 34h61q97 0 117 -67v120h-95v39h95v75h65zM380 151v301q0 52 -21 73t-73 21h-66q-51 0 -72.5 -21t-21.5 -73v-301q0 -52 21.5 -73t72.5 -21h66q52 0 73 21t21 73z
" />
    <glyph glyph-name="Emacron" unicode="&#x112;" horiz-adv-x="545" 
d="M87 0v700h411v-59h-345v-262h255v-58h-255v-262h345v-59h-411zM404 778h-231v39h231v-39z" />
    <glyph glyph-name="emacron" unicode="&#x113;" horiz-adv-x="504" 
d="M458 401q0 -66 -30.5 -97t-95.5 -31h-206v-122q0 -52 21.5 -73t72.5 -21h208v-57h-226q-72 0 -106 34t-34 107v321q0 73 34 107t106 34h130q65 0 95.5 -31t30.5 -98v-73zM316 546h-96q-51 0 -72.5 -21t-21.5 -73v-122h190q42 0 59.5 17.5t17.5 58.5v63q0 41 -17.5 59
t-59.5 18zM382 691h-231v39h231v-39z" />
    <glyph glyph-name="Ebreve" unicode="&#x114;" horiz-adv-x="545" 
d="M87 0v700h411v-59h-345v-262h255v-58h-255v-262h345v-59h-411zM173 805v47q33 -59 116 -59t115 59v-47q-34 -55 -115 -55q-82 0 -116 55z" />
    <glyph glyph-name="ebreve" unicode="&#x115;" horiz-adv-x="504" 
d="M458 401q0 -66 -30.5 -97t-95.5 -31h-206v-122q0 -52 21.5 -73t72.5 -21h208v-57h-226q-72 0 -106 34t-34 107v321q0 73 34 107t106 34h130q65 0 95.5 -31t30.5 -98v-73zM316 546h-96q-51 0 -72.5 -21t-21.5 -73v-122h190q42 0 59.5 17.5t17.5 58.5v63q0 41 -17.5 59
t-59.5 18zM151 718v47q33 -59 116 -59t115 59v-47q-34 -55 -115 -55q-82 0 -116 55z" />
    <glyph glyph-name="Edotaccent" unicode="&#x116;" horiz-adv-x="545" 
d="M87 0v700h411v-59h-345v-262h255v-58h-255v-262h345v-59h-411zM331 823v-53h-85v53h85z" />
    <glyph glyph-name="edotaccent" unicode="&#x117;" horiz-adv-x="504" 
d="M458 401q0 -66 -30.5 -97t-95.5 -31h-206v-122q0 -52 21.5 -73t72.5 -21h208v-57h-226q-72 0 -106 34t-34 107v321q0 73 34 107t106 34h130q65 0 95.5 -31t30.5 -98v-73zM316 546h-96q-51 0 -72.5 -21t-21.5 -73v-122h190q42 0 59.5 17.5t17.5 58.5v63q0 41 -17.5 59
t-59.5 18zM309 736v-53h-85v53h85z" />
    <glyph glyph-name="Eogonek" unicode="&#x118;" horiz-adv-x="545" 
d="M467 0v-62h-20q-87 0 -119.5 -7.5t-32.5 -26.5q0 -18 43 -18h160v-43h-159q-74 0 -74 47q0 38 37.5 52.5t134.5 14.5h10v43h-360v700h411v-59h-345v-262h255v-58h-255v-262h345v-59h-31z" />
    <glyph glyph-name="eogonek" unicode="&#x119;" horiz-adv-x="504" 
d="M410 0v-62h-33q-87 0 -119.5 -7.5t-32.5 -26.5q0 -18 43 -18h160v-43h-159q-74 0 -74 47q0 38 37.5 52.5t134.5 14.5h23v43h-188q-72 0 -106 34t-34 107v321q0 73 34 107t106 34h130q65 0 95.5 -31t30.5 -98v-73q0 -66 -30.5 -97t-95.5 -31h-206v-122q0 -52 21.5 -73
t72.5 -21h208v-57h-18zM316 546h-96q-51 0 -72.5 -21t-21.5 -73v-122h190q42 0 59.5 17.5t17.5 58.5v63q0 41 -17.5 59t-59.5 18z" />
    <glyph glyph-name="Ecaron" unicode="&#x11a;" horiz-adv-x="545" 
d="M87 0v700h411v-59h-345v-262h255v-58h-255v-262h345v-59h-411zM197 851l92 -69l92 69h52l-113 -101h-63l-113 101h53z" />
    <glyph glyph-name="ecaron" unicode="&#x11b;" horiz-adv-x="504" 
d="M458 401q0 -66 -30.5 -97t-95.5 -31h-206v-122q0 -52 21.5 -73t72.5 -21h208v-57h-226q-72 0 -106 34t-34 107v321q0 73 34 107t106 34h130q65 0 95.5 -31t30.5 -98v-73zM316 546h-96q-51 0 -72.5 -21t-21.5 -73v-122h190q42 0 59.5 17.5t17.5 58.5v63q0 41 -17.5 59
t-59.5 18zM175 764l92 -69l92 69h52l-113 -101h-63l-113 101h53z" />
    <glyph glyph-name="Gcircumflex" unicode="&#x11c;" horiz-adv-x="565" 
d="M351 59q52 0 70 18t18 70v174h-158v58h224v-246q0 -71 -30.5 -102t-102.5 -31h-162q-73 0 -108 35.5t-35 108.5v412q0 73 35 108.5t108 35.5h270v-59h-252q-52 0 -73.5 -22t-21.5 -76v-386q0 -54 21.5 -76t73.5 -22h123zM292 818l-92 -68h-53l113 101h63l113 -101h-52z
" />
    <glyph glyph-name="gcircumflex" unicode="&#x11d;" horiz-adv-x="516" 
d="M286 67q52 0 73 21t21 73v291q0 52 -21 73t-73 21h-66q-51 0 -72.5 -21t-21.5 -73v-291q0 -52 21.5 -73t72.5 -21h66zM263 9h-61q-72 0 -106 34.5t-34 106.5v312q0 73 34 107t106 34h103q72 0 106 -34t34 -107v-443q0 -95 -45.5 -140.5t-140.5 -45.5h-157v57h149
q68 0 98.5 30t30.5 100v55q-21 -66 -117 -66zM258 731l-92 -68h-53l113 101h63l113 -101h-52z" />
    <glyph glyph-name="Gbreve" unicode="&#x11e;" horiz-adv-x="565" 
d="M351 59q52 0 70 18t18 70v174h-158v58h224v-246q0 -71 -30.5 -102t-102.5 -31h-162q-73 0 -108 35.5t-35 108.5v412q0 73 35 108.5t108 35.5h270v-59h-252q-52 0 -73.5 -22t-21.5 -76v-386q0 -54 21.5 -76t73.5 -22h123zM176 805v47q33 -59 116 -59t115 59v-47
q-34 -55 -115 -55q-82 0 -116 55z" />
    <glyph glyph-name="gbreve" unicode="&#x11f;" horiz-adv-x="516" 
d="M286 67q52 0 73 21t21 73v291q0 52 -21 73t-73 21h-66q-51 0 -72.5 -21t-21.5 -73v-291q0 -52 21.5 -73t72.5 -21h66zM263 9h-61q-72 0 -106 34.5t-34 106.5v312q0 73 34 107t106 34h103q72 0 106 -34t34 -107v-443q0 -95 -45.5 -140.5t-140.5 -45.5h-157v57h149
q68 0 98.5 30t30.5 100v55q-21 -66 -117 -66zM142 718v47q33 -59 116 -59t115 59v-47q-34 -55 -115 -55q-82 0 -116 55z" />
    <glyph glyph-name="Gdotaccent" unicode="&#x120;" horiz-adv-x="565" 
d="M351 59q52 0 70 18t18 70v174h-158v58h224v-246q0 -71 -30.5 -102t-102.5 -31h-162q-73 0 -108 35.5t-35 108.5v412q0 73 35 108.5t108 35.5h270v-59h-252q-52 0 -73.5 -22t-21.5 -76v-386q0 -54 21.5 -76t73.5 -22h123zM334 823v-53h-85v53h85z" />
    <glyph glyph-name="gdotaccent" unicode="&#x121;" horiz-adv-x="516" 
d="M286 67q52 0 73 21t21 73v291q0 52 -21 73t-73 21h-66q-51 0 -72.5 -21t-21.5 -73v-291q0 -52 21.5 -73t72.5 -21h66zM263 9h-61q-72 0 -106 34.5t-34 106.5v312q0 73 34 107t106 34h103q72 0 106 -34t34 -107v-443q0 -95 -45.5 -140.5t-140.5 -45.5h-157v57h149
q68 0 98.5 30t30.5 100v55q-21 -66 -117 -66zM300 736v-53h-85v53h85z" />
    <glyph glyph-name="uni0122" unicode="&#x122;" horiz-adv-x="565" 
d="M351 59q52 0 70 18t18 70v174h-158v58h224v-246q0 -71 -30.5 -102t-102.5 -31h-162q-73 0 -108 35.5t-35 108.5v412q0 73 35 108.5t108 35.5h270v-59h-252q-52 0 -73.5 -22t-21.5 -76v-386q0 -54 21.5 -76t73.5 -22h123zM331 -84v-44q0 -74 -66 -74h-12v24h12q29 0 29 35
v12h-41v47h78z" />
    <glyph glyph-name="uni0123" unicode="&#x123;" horiz-adv-x="516" 
d="M219 684v44q0 74 66 74h12v-24h-12q-29 0 -29 -35v-12h41v-47h-78zM286 67q52 0 73 21t21 73v291q0 52 -21 73t-73 21h-66q-51 0 -72.5 -21t-21.5 -73v-291q0 -52 21.5 -73t72.5 -21h66zM263 9h-61q-72 0 -106 34.5t-34 106.5v312q0 73 34 107t106 34h103q72 0 106 -34
t34 -107v-443q0 -95 -45.5 -140.5t-140.5 -45.5h-157v57h149q68 0 98.5 30t30.5 100v55q-21 -66 -117 -66z" />
    <glyph glyph-name="Hcircumflex" unicode="&#x124;" horiz-adv-x="628" 
d="M475 0v321h-322v-321h-66v700h66v-321h322v321h66v-700h-66zM314 818l-92 -68h-53l113 101h63l113 -101h-52z" />
    <glyph glyph-name="hcircumflex" unicode="&#x125;" horiz-adv-x="536" 
d="M400 452q0 52 -21 73t-73 21h-66q-52 0 -73 -21t-21 -73v-452h-65v770h65v-234q11 35 39 51t78 16h61q72 0 106 -34t34 -107v-462h-64v452zM135 898l-92 -68h-53l113 101h63l113 -101h-52z" />
    <glyph glyph-name="Hbar" unicode="&#x126;" horiz-adv-x="628" 
d="M475 0v321h-322v-321h-66v506h-35v49h35v145h66v-145h322v145h66v-145h35v-49h-35v-506h-66zM153 379h322v127h-322v-127z" />
    <glyph glyph-name="hbar" unicode="&#x127;" horiz-adv-x="536" 
d="M400 452q0 52 -21 73t-73 21h-66q-52 0 -73 -21t-21 -73v-452h-65v656h-81v39h81v75h65v-75h85v-39h-85v-120q11 35 39 51t78 16h61q72 0 106 -34t34 -107v-462h-64v452z" />
    <glyph glyph-name="Itilde" unicode="&#x128;" horiz-adv-x="240" 
d="M87 0v700h66v-700h-66zM4 753v45q33 37 64 37q20 0 55 -20t53 -20q30 0 59 38v-45q-32 -37 -65 -37q-20 0 -55.5 20t-53.5 20q-28 0 -57 -38z" />
    <glyph glyph-name="itilde" unicode="&#x129;" horiz-adv-x="295" 
d="M-10 666v45q33 37 64 37q20 0 55 -20t53 -20q30 0 59 38v-45q-32 -37 -65 -37q-20 0 -55.5 20t-53.5 20q-28 0 -57 -38zM224 57h48v-57h-65q-72 0 -102.5 31t-30.5 101v471h65v-460q0 -50 17.5 -68t67.5 -18z" />
    <glyph glyph-name="Imacron" unicode="&#x12a;" horiz-adv-x="240" 
d="M236 780h-232v35h232v-35zM87 0v700h66v-700h-66z" />
    <glyph glyph-name="imacron" unicode="&#x12b;" horiz-adv-x="295" 
d="M222 693h-232v35h232v-35zM224 57h48v-57h-65q-72 0 -102.5 31t-30.5 101v471h65v-460q0 -50 17.5 -68t67.5 -18z" />
    <glyph glyph-name="Ibreve" unicode="&#x12c;" horiz-adv-x="240" 
d="M87 0v700h66v-700h-66zM4 805v47q33 -59 116 -59t115 59v-47q-34 -55 -115 -55q-82 0 -116 55z" />
    <glyph glyph-name="ibreve" unicode="&#x12d;" horiz-adv-x="295" 
d="M-10 718v47q33 -59 116 -59t115 59v-47q-34 -55 -115 -55q-82 0 -116 55zM224 57h48v-57h-65q-72 0 -102.5 31t-30.5 101v471h65v-460q0 -50 17.5 -68t67.5 -18z" />
    <glyph glyph-name="Iogonek" unicode="&#x12e;" horiz-adv-x="240" 
d="M87 0v700h66v-700h-7v-62h-20q-121 0 -121 -34q0 -18 45 -18h114v-43h-114q-74 0 -74 48q0 66 150 66v43h-39z" />
    <glyph glyph-name="iogonek" unicode="&#x12f;" horiz-adv-x="295" 
d="M152 737v-54h-92v54h92zM234 0h-27q-72 0 -102.5 31t-30.5 101v471h65v-460q0 -50 17.5 -68t67.5 -18h48v-57h-18v-62h-33q-87 0 -119.5 -7.5t-32.5 -26.5q0 -18 43 -18h160v-43h-159q-74 0 -74 47q0 38 37.5 52.5t134.5 14.5h23v43z" />
    <glyph glyph-name="Idotaccent" unicode="&#x130;" horiz-adv-x="240" 
d="M87 0v700h66v-700h-66zM162 823v-53h-85v53h85z" />
    <glyph glyph-name="dotlessi" unicode="&#x131;" horiz-adv-x="295" 
d="M224 57h48v-57h-65q-72 0 -102.5 31t-30.5 101v471h65v-460q0 -50 17.5 -68t67.5 -18z" />
    <glyph glyph-name="IJ" unicode="&#x132;" horiz-adv-x="793" 
d="M87 0v700h66v-700h-66zM288 134v208h66v-195q0 -52 17.5 -70t68.5 -18h115q52 0 73.5 22t21.5 76v543h66v-556q0 -73 -35 -108.5t-109 -35.5h-151q-72 0 -102.5 31t-30.5 103z" />
    <glyph glyph-name="Jcircumflex" unicode="&#x134;" horiz-adv-x="553" 
d="M48 134v208h66v-195q0 -52 17.5 -70t68.5 -18h115q52 0 73.5 22t21.5 76v543h66v-556q0 -73 -35 -108.5t-109 -35.5h-151q-72 0 -102.5 31t-30.5 103zM424 818l-92 -68h-53l113 101h63l113 -101h-52z" />
    <glyph glyph-name="jcircumflex" unicode="&#x135;" horiz-adv-x="243" 
d="M-22 -110h31q52 0 68.5 16.5t16.5 68.5v628h65v-638q0 -72 -30 -102t-104 -30h-47v57zM127 731l-92 -68h-53l113 101h63l113 -101h-52z" />
    <glyph glyph-name="uni0136" unicode="&#x136;" horiz-adv-x="592" 
d="M523 700v-217q0 -59 -24 -92.5t-82 -40.5q58 -7 82 -40.5t24 -92.5v-217h-66v222q0 53 -20.5 76t-72.5 23h-211v-321h-66v700h66v-321h211q52 0 72.5 23t20.5 76v222h66zM335 -84v-44q0 -74 -66 -74h-12v24h12q29 0 29 35v12h-41v47h78z" />
    <glyph glyph-name="uni0137" unicode="&#x137;" horiz-adv-x="522" 
d="M398 394v209h64v-184q0 -56 -19 -84t-63 -34q44 -6 63 -34t19 -84v-183h-64v208q0 34 -16 49.5t-50 15.5h-186v-273h-65v770h65v-440h186q35 0 50.5 15t15.5 49zM311 -84v-44q0 -74 -66 -74h-12v24h12q29 0 29 35v12h-41v47h78z" />
    <glyph glyph-name="kgreenlandic" unicode="&#x138;" horiz-adv-x="522" 
d="M398 394v209h64v-184q0 -56 -19 -84t-63 -34q44 -6 63 -34t19 -84v-183h-64v208q0 34 -16 49.5t-50 15.5h-186v-273h-65v603h65v-273h186q35 0 50.5 15t15.5 49z" />
    <glyph glyph-name="Lacute" unicode="&#x139;" horiz-adv-x="509" 
d="M490 59v-59h-403v700h66v-641h337zM277 851l-122 -101h-55l102 101h75z" />
    <glyph glyph-name="lacute" unicode="&#x13a;" horiz-adv-x="293" 
d="M222 57h48v-57h-65q-72 0 -103 31t-31 101v638h65v-627q0 -50 18 -68t68 -18zM231 931l-122 -101h-55l102 101h75z" />
    <glyph glyph-name="uni013B" unicode="&#x13b;" horiz-adv-x="509" 
d="M490 59v-59h-403v700h66v-641h337zM312 -84v-44q0 -74 -66 -74h-12v24h12q29 0 29 35v12h-41v47h78z" />
    <glyph glyph-name="uni013C" unicode="&#x13c;" horiz-adv-x="293" 
d="M222 57h48v-57h-65q-72 0 -103 31t-31 101v638h65v-627q0 -50 18 -68t68 -18zM185 -84v-44q0 -74 -66 -74h-12v24h12q29 0 29 35v12h-41v47h78z" />
    <glyph glyph-name="Lcaron" unicode="&#x13d;" horiz-adv-x="509" 
d="M490 59v-59h-403v700h66v-641h337zM450 700v-65q0 -51 -18.5 -75t-61.5 -24h-11v28h11q19 0 27.5 11t8.5 41v19h-47v65h91z" />
    <glyph glyph-name="lcaron" unicode="&#x13e;" horiz-adv-x="426" 
d="M222 57h48v-57h-65q-72 0 -103 31t-31 101v638h65v-627q0 -50 18 -68t68 -18zM375 700v-65q0 -51 -18.5 -75t-61.5 -24h-11v28h11q19 0 27.5 11t8.5 41v19h-47v65h91z" />
    <glyph glyph-name="Ldot" unicode="&#x13f;" horiz-adv-x="509" 
d="M490 59v-59h-403v700h66v-641h337zM411 384v-68h-91v68h91z" />
    <glyph glyph-name="ldot" unicode="&#x140;" horiz-adv-x="474" 
d="M222 57h48v-57h-65q-72 0 -103 31t-31 101v638h65v-627q0 -50 18 -68t68 -18zM381 384v-68h-91v68h91z" />
    <glyph glyph-name="Lslash" unicode="&#x141;" horiz-adv-x="509" 
d="M490 59v-59h-403v242l-70 -44v58l70 44v400h66v-359l181 115v-58l-181 -115v-224h337z" />
    <glyph glyph-name="lslash" unicode="&#x142;" horiz-adv-x="293" 
d="M222 57h48v-57h-65q-72 0 -103 31t-31 101v200l-54 -34v58l54 34v380h65v-339l140 89v-58l-140 -89v-230q0 -50 18 -68t68 -18z" />
    <glyph glyph-name="Nacute" unicode="&#x143;" horiz-adv-x="590" 
d="M238 641q-52 0 -73.5 -22t-21.5 -76v-543h-66v556q0 73 35 108.5t109 35.5h148q74 0 109 -35.5t35 -108.5v-556h-66v543q0 54 -21.5 76t-73.5 22h-114zM414 851l-122 -101h-55l102 101h75z" />
    <glyph glyph-name="nacute" unicode="&#x144;" horiz-adv-x="524" 
d="M71 0v462q0 73 34 107t107 34h100q73 0 107 -34t34 -107v-462h-65v452q0 52 -21 73t-73 21h-64q-52 0 -73 -21t-21 -73v-452h-65zM381 764l-122 -101h-55l102 101h75z" />
    <glyph glyph-name="uni0145" unicode="&#x145;" horiz-adv-x="590" 
d="M238 641q-52 0 -73.5 -22t-21.5 -76v-543h-66v556q0 73 35 108.5t109 35.5h148q74 0 109 -35.5t35 -108.5v-556h-66v543q0 54 -21.5 76t-73.5 22h-114zM334 -84v-44q0 -74 -66 -74h-12v24h12q29 0 29 35v12h-41v47h78z" />
    <glyph glyph-name="uni0146" unicode="&#x146;" horiz-adv-x="524" 
d="M71 0v462q0 73 34 107t107 34h100q73 0 107 -34t34 -107v-462h-65v452q0 52 -21 73t-73 21h-64q-52 0 -73 -21t-21 -73v-452h-65zM301 -84v-44q0 -74 -66 -74h-12v24h12q29 0 29 35v12h-41v47h78z" />
    <glyph glyph-name="Ncaron" unicode="&#x147;" horiz-adv-x="590" 
d="M238 641q-52 0 -73.5 -22t-21.5 -76v-543h-66v556q0 73 35 108.5t109 35.5h148q74 0 109 -35.5t35 -108.5v-556h-66v543q0 54 -21.5 76t-73.5 22h-114zM203 851l92 -69l92 69h52l-113 -101h-63l-113 101h53z" />
    <glyph glyph-name="ncaron" unicode="&#x148;" horiz-adv-x="524" 
d="M71 0v462q0 73 34 107t107 34h100q73 0 107 -34t34 -107v-462h-65v452q0 52 -21 73t-73 21h-64q-52 0 -73 -21t-21 -73v-452h-65zM170 764l92 -69l92 69h52l-113 -101h-63l-113 101h53z" />
    <glyph glyph-name="napostrophe" unicode="&#x149;" horiz-adv-x="652" 
d="M199 0v462q0 73 34 107t107 34h100q73 0 107 -34t34 -107v-462h-65v452q0 52 -21 73t-73 21h-64q-52 0 -73 -21t-21 -73v-452h-65zM142 700v-65q0 -51 -18.5 -75t-61.5 -24h-11v28h11q19 0 27.5 11t8.5 41v19h-47v65h91z" />
    <glyph glyph-name="Eng" unicode="&#x14a;" horiz-adv-x="590" 
d="M238 641q-52 0 -73.5 -22t-21.5 -76v-543h-66v556q0 73 35 108.5t109 35.5h148q74 0 109 -35.5t35 -108.5v-579q0 -73 -35 -108.5t-109 -35.5h-74v59h57q52 0 73.5 22t21.5 76v553q0 54 -21.5 76t-73.5 22h-114z" />
    <glyph glyph-name="eng" unicode="&#x14b;" horiz-adv-x="524" 
d="M272 -110h31q52 0 68.5 16.5t16.5 68.5v477q0 52 -21 73t-73 21h-64q-52 0 -73 -21t-21 -73v-452h-65v462q0 73 34 107t107 34h100q73 0 107 -34t34 -107v-497q0 -72 -30 -102t-104 -30h-47v57z" />
    <glyph glyph-name="Omacron" unicode="&#x14c;" horiz-adv-x="572" 
d="M211 0q-74 0 -109 35.5t-35 108.5v412q0 73 35 108.5t109 35.5h150q74 0 109 -35.5t35 -108.5v-412q0 -73 -35 -108.5t-109 -35.5h-150zM439 157v386q0 54 -21.5 76t-74.5 22h-115q-52 0 -73.5 -22t-21.5 -76v-386q0 -54 21.5 -76t73.5 -22h115q53 0 74.5 22t21.5 76z
M401 778h-231v39h231v-39z" />
    <glyph glyph-name="omacron" unicode="&#x14d;" horiz-adv-x="505" 
d="M303 603q72 0 106 -34t34 -107v-321q0 -73 -34 -107t-106 -34h-101q-72 0 -106 34t-34 107v321q0 73 34 107t106 34h101zM284 57q52 0 73 21t21 73v301q0 52 -21 73t-73 21h-64q-52 0 -73 -21t-21 -73v-301q0 -52 21 -73t73 -21h64zM368 691h-231v39h231v-39z" />
    <glyph glyph-name="Obreve" unicode="&#x14e;" horiz-adv-x="572" 
d="M211 0q-74 0 -109 35.5t-35 108.5v412q0 73 35 108.5t109 35.5h150q74 0 109 -35.5t35 -108.5v-412q0 -73 -35 -108.5t-109 -35.5h-150zM439 157v386q0 54 -21.5 76t-74.5 22h-115q-52 0 -73.5 -22t-21.5 -76v-386q0 -54 21.5 -76t73.5 -22h115q53 0 74.5 22t21.5 76z
M170 805v47q33 -59 116 -59t115 59v-47q-34 -55 -115 -55q-82 0 -116 55z" />
    <glyph glyph-name="obreve" unicode="&#x14f;" horiz-adv-x="505" 
d="M303 603q72 0 106 -34t34 -107v-321q0 -73 -34 -107t-106 -34h-101q-72 0 -106 34t-34 107v321q0 73 34 107t106 34h101zM284 57q52 0 73 21t21 73v301q0 52 -21 73t-73 21h-64q-52 0 -73 -21t-21 -73v-301q0 -52 21 -73t73 -21h64zM137 718v47q33 -59 116 -59t115 59
v-47q-34 -55 -115 -55q-82 0 -116 55z" />
    <glyph glyph-name="Ohungarumlaut" unicode="&#x150;" horiz-adv-x="572" 
d="M211 0q-74 0 -109 35.5t-35 108.5v412q0 73 35 108.5t109 35.5h150q74 0 109 -35.5t35 -108.5v-412q0 -73 -35 -108.5t-109 -35.5h-150zM439 157v386q0 54 -21.5 76t-74.5 22h-115q-52 0 -73.5 -22t-21.5 -76v-386q0 -54 21.5 -76t73.5 -22h115q53 0 74.5 22t21.5 76z
M482 851l-122 -101h-55l102 101h75zM326 851l-122 -101h-55l102 101h75z" />
    <glyph glyph-name="ohungarumlaut" unicode="&#x151;" horiz-adv-x="505" 
d="M303 603q72 0 106 -34t34 -107v-321q0 -73 -34 -107t-106 -34h-101q-72 0 -106 34t-34 107v321q0 73 34 107t106 34h101zM284 57q52 0 73 21t21 73v301q0 52 -21 73t-73 21h-64q-52 0 -73 -21t-21 -73v-301q0 -52 21 -73t73 -21h64zM449 764l-122 -101h-55l102 101h75z
M293 764l-122 -101h-55l102 101h75z" />
    <glyph glyph-name="OE" unicode="&#x152;" horiz-adv-x="872" 
d="M211 0q-73 0 -108 35.5t-35 108.5v412q0 73 35 108.5t108 35.5h610v-59h-334v-262h244v-58h-244v-262h334v-59h-610zM421 59v582h-192q-52 0 -73.5 -22t-21.5 -76v-386q0 -54 21.5 -76t73.5 -22h192z" />
    <glyph glyph-name="oe" unicode="&#x153;" horiz-adv-x="756" 
d="M353 151v301q0 52 -21 73t-73 21h-39q-52 0 -73 -21t-21 -73v-301q0 -52 21 -73t73 -21h39q52 0 73 21t21 73zM645 406v63q0 41 -17.5 59t-59.5 18h-56q-52 0 -73 -21t-21 -73v-122h150q42 0 59.5 17.5t17.5 58.5zM418 273v-122q0 -52 21 -73t73 -21h168v-57h-154
q-67 0 -100 22.5t-41 75.5q-8 -53 -41 -75.5t-100 -22.5h-42q-72 0 -106 34t-34 107v321q0 73 34 107t106 34h42q67 0 100 -22.5t41 -75.5q8 53 41 75.5t100 22.5h58q65 0 95.5 -31t30.5 -98v-73q0 -66 -30.5 -97t-95.5 -31h-166z" />
    <glyph glyph-name="Racute" unicode="&#x154;" horiz-adv-x="591" 
d="M523 561v-83q0 -58 -23.5 -89.5t-79.5 -39.5q56 -9 79.5 -42t23.5 -90v-217h-66v222q0 53 -20.5 76t-72.5 23h-211v-321h-66v700h296q73 0 106.5 -33.5t33.5 -105.5zM366 379q51 0 71 22t20 74v72q0 50 -21 72t-69 22h-214v-262h213zM414 851l-122 -101h-55l102 101h75z
" />
    <glyph glyph-name="racute" unicode="&#x155;" horiz-adv-x="354" 
d="M331 603v-57h-101q-52 0 -73 -21t-21 -73v-452h-65v462q0 73 34 107t107 34h119zM332 764l-122 -101h-55l102 101h75z" />
    <glyph glyph-name="uni0156" unicode="&#x156;" horiz-adv-x="591" 
d="M523 561v-83q0 -58 -23.5 -89.5t-79.5 -39.5q56 -9 79.5 -42t23.5 -90v-217h-66v222q0 53 -20.5 76t-72.5 23h-211v-321h-66v700h296q73 0 106.5 -33.5t33.5 -105.5zM366 379q51 0 71 22t20 74v72q0 50 -21 72t-69 22h-214v-262h213zM349 -84v-44q0 -74 -66 -74h-12v24
h12q29 0 29 35v12h-41v47h78z" />
    <glyph glyph-name="uni0157" unicode="&#x157;" horiz-adv-x="354" 
d="M331 603v-57h-101q-52 0 -73 -21t-21 -73v-452h-65v462q0 73 34 107t107 34h119zM144 -84v-44q0 -74 -66 -74h-12v24h12q29 0 29 35v12h-41v47h78z" />
    <glyph glyph-name="Rcaron" unicode="&#x158;" horiz-adv-x="591" 
d="M523 561v-83q0 -58 -23.5 -89.5t-79.5 -39.5q56 -9 79.5 -42t23.5 -90v-217h-66v222q0 53 -20.5 76t-72.5 23h-211v-321h-66v700h296q73 0 106.5 -33.5t33.5 -105.5zM366 379q51 0 71 22t20 74v72q0 50 -21 72t-69 22h-214v-262h213zM204 851l92 -69l92 69h52l-113 -101
h-63l-113 101h53z" />
    <glyph glyph-name="rcaron" unicode="&#x159;" horiz-adv-x="354" 
d="M331 603v-57h-101q-52 0 -73 -21t-21 -73v-452h-65v462q0 73 34 107t107 34h119zM121 764l92 -69l92 69h52l-113 -101h-63l-113 101h53z" />
    <glyph glyph-name="Sacute" unicode="&#x15a;" horiz-adv-x="520" 
d="M196 321q-73 0 -107 34t-34 106v99q0 72 34 106t107 34h247v-59h-231q-48 0 -69.5 -22t-21.5 -72v-73q0 -51 21.5 -73t69.5 -22h116q73 0 106.5 -34t33.5 -106v-99q0 -72 -33.5 -106t-106.5 -34h-278v59h262q48 0 69 22t21 72v73q0 51 -21 73t-69 22h-116zM379 851
l-122 -101h-55l102 101h75z" />
    <glyph glyph-name="sacute" unicode="&#x15b;" horiz-adv-x="467" 
d="M391 546h-200q-41 0 -58.5 -18t-17.5 -59v-63q0 -41 17.5 -58.5t58.5 -17.5h105q64 0 94.5 -31.5t30.5 -97.5v-72q0 -67 -30.5 -98t-95.5 -31h-245v57h230q41 0 58.5 18t17.5 59v62q0 41 -17.5 59t-58.5 18h-104q-65 0 -95.5 31t-30.5 97v73q0 67 30.5 98t94.5 31h216
v-57zM352 764l-122 -101h-55l102 101h75z" />
    <glyph glyph-name="Scircumflex" unicode="&#x15c;" horiz-adv-x="520" 
d="M196 321q-73 0 -107 34t-34 106v99q0 72 34 106t107 34h247v-59h-231q-48 0 -69.5 -22t-21.5 -72v-73q0 -51 21.5 -73t69.5 -22h116q73 0 106.5 -34t33.5 -106v-99q0 -72 -33.5 -106t-106.5 -34h-278v59h262q48 0 69 22t21 72v73q0 51 -21 73t-69 22h-116zM260 818
l-92 -68h-53l113 101h63l113 -101h-52z" />
    <glyph glyph-name="scircumflex" unicode="&#x15d;" horiz-adv-x="467" 
d="M391 546h-200q-41 0 -58.5 -18t-17.5 -59v-63q0 -41 17.5 -58.5t58.5 -17.5h105q64 0 94.5 -31.5t30.5 -97.5v-72q0 -67 -30.5 -98t-95.5 -31h-245v57h230q41 0 58.5 18t17.5 59v62q0 41 -17.5 59t-58.5 18h-104q-65 0 -95.5 31t-30.5 97v73q0 67 30.5 98t94.5 31h216
v-57zM234 731l-92 -68h-53l113 101h63l113 -101h-52z" />
    <glyph glyph-name="Scedilla" unicode="&#x15e;" horiz-adv-x="520" 
d="M267 0l-12 -43h56q33 0 50.5 -10.5t17.5 -38.5q0 -65 -102 -65h-136v43h131q31 0 45.5 6.5t14.5 23.5q0 13 -6.5 18.5t-25.5 5.5h-70l19 60h-199v59h262q48 0 69 22t21 72v73q0 51 -21 73t-69 22h-116q-73 0 -107 34t-34 106v99q0 72 34 106t107 34h247v-59h-231
q-48 0 -69.5 -22t-21.5 -72v-73q0 -51 21.5 -73t69.5 -22h116q73 0 106.5 -34t33.5 -106v-99q0 -72 -33.5 -106t-106.5 -34h-61z" />
    <glyph glyph-name="scedilla" unicode="&#x15f;" horiz-adv-x="467" 
d="M235 0l-12 -43h56q33 0 50.5 -10.5t17.5 -38.5q0 -65 -102 -65h-136v43h131q31 0 45.5 6.5t14.5 23.5q0 13 -6.5 18.5t-25.5 5.5h-70l19 60h-167v57h230q41 0 58.5 18t17.5 59v62q0 41 -17.5 59t-58.5 18h-104q-65 0 -95.5 31t-30.5 97v73q0 67 30.5 98t94.5 31h216v-57
h-200q-41 0 -58.5 -18t-17.5 -59v-63q0 -41 17.5 -58.5t58.5 -17.5h105q64 0 94.5 -31.5t30.5 -97.5v-72q0 -67 -30.5 -98t-95.5 -31h-60z" />
    <glyph glyph-name="Scaron" unicode="&#x160;" horiz-adv-x="520" 
d="M196 321q-73 0 -107 34t-34 106v99q0 72 34 106t107 34h247v-59h-231q-48 0 -69.5 -22t-21.5 -72v-73q0 -51 21.5 -73t69.5 -22h116q73 0 106.5 -34t33.5 -106v-99q0 -72 -33.5 -106t-106.5 -34h-278v59h262q48 0 69 22t21 72v73q0 51 -21 73t-69 22h-116zM168 851
l92 -69l92 69h52l-113 -101h-63l-113 101h53z" />
    <glyph glyph-name="scaron" unicode="&#x161;" horiz-adv-x="467" 
d="M391 546h-200q-41 0 -58.5 -18t-17.5 -59v-63q0 -41 17.5 -58.5t58.5 -17.5h105q64 0 94.5 -31.5t30.5 -97.5v-72q0 -67 -30.5 -98t-95.5 -31h-245v57h230q41 0 58.5 18t17.5 59v62q0 41 -17.5 59t-58.5 18h-104q-65 0 -95.5 31t-30.5 97v73q0 67 30.5 98t94.5 31h216
v-57zM142 764l92 -69l92 69h52l-113 -101h-63l-113 101h53z" />
    <glyph glyph-name="uni0162" unicode="&#x162;" horiz-adv-x="476" 
d="M247 0l-12 -43h56q33 0 50.5 -10.5t17.5 -38.5q0 -65 -102 -65h-136v43h131q31 0 45.5 6.5t14.5 23.5q0 13 -6.5 18.5t-25.5 5.5h-70l19 60h-23v641h-187v59h438v-59h-185v-641h-25z" />
    <glyph glyph-name="uni0163" unicode="&#x163;" horiz-adv-x="387" 
d="M200 0l-12 -43h56q33 0 50.5 -10.5t17.5 -38.5q0 -65 -102 -65h-136v43h131q31 0 45.5 6.5t14.5 23.5q0 13 -6.5 18.5t-25.5 5.5h-70l19 61q-111 13 -111 140v629h65v-167h203v-57h-203v-395q0 -52 21 -73t73 -21h109v-57h-139z" />
    <glyph glyph-name="Tcaron" unicode="&#x164;" horiz-adv-x="476" 
d="M457 700v-59h-185v-641h-66v641h-187v59h438zM146 851l92 -69l92 69h52l-113 -101h-63l-113 101h53z" />
    <glyph glyph-name="tcaron" unicode="&#x165;" horiz-adv-x="587" 
d="M212 0q-73 0 -107 34t-34 107v629h65v-167h203v-57h-203v-395q0 -52 21 -73t73 -21h109v-57h-127zM536 700v-65q0 -51 -18.5 -75t-61.5 -24h-11v28h11q19 0 27.5 11t8.5 41v19h-47v65h91z" />
    <glyph glyph-name="Tbar" unicode="&#x166;" horiz-adv-x="476" 
d="M457 700v-59h-185v-184h91v-48h-91v-409h-66v409h-93v48h93v184h-187v59h438z" />
    <glyph glyph-name="tbar" unicode="&#x167;" horiz-adv-x="387" 
d="M212 0q-73 0 -107 34t-34 107v236h-71v48h71v345h65v-167h203v-57h-203v-121h146v-48h-146v-226q0 -52 21 -73t73 -21h109v-57h-127z" />
    <glyph glyph-name="Utilde" unicode="&#x168;" horiz-adv-x="590" 
d="M221 0q-74 0 -109 35.5t-35 108.5v556h66v-543q0 -54 21.5 -76t73.5 -22h114q52 0 73.5 22t21.5 76v543h66v-556q0 -73 -35 -108.5t-109 -35.5h-148zM179 753v45q33 37 64 37q20 0 55 -20t53 -20q31 0 59 38v-45q-32 -37 -65 -37q-20 0 -55.5 20t-53.5 20q-29 0 -57 -38z
" />
    <glyph glyph-name="utilde" unicode="&#x169;" horiz-adv-x="524" 
d="M294 57q52 0 73 21t21 73v452h65v-462q0 -73 -34 -107t-107 -34h-100q-73 0 -107 34t-34 107v462h65v-452q0 -52 21 -73t73 -21h64zM146 666v45q33 37 64 37q20 0 55 -20t53 -20q30 0 59 38v-45q-32 -37 -65 -37q-20 0 -55.5 20t-53.5 20q-29 0 -57 -38z" />
    <glyph glyph-name="Umacron" unicode="&#x16a;" horiz-adv-x="590" 
d="M221 0q-74 0 -109 35.5t-35 108.5v556h66v-543q0 -54 21.5 -76t73.5 -22h114q52 0 73.5 22t21.5 76v543h66v-556q0 -73 -35 -108.5t-109 -35.5h-148zM410 778h-231v39h231v-39z" />
    <glyph glyph-name="umacron" unicode="&#x16b;" horiz-adv-x="524" 
d="M294 57q52 0 73 21t21 73v452h65v-462q0 -73 -34 -107t-107 -34h-100q-73 0 -107 34t-34 107v462h65v-452q0 -52 21 -73t73 -21h64zM377 691h-231v39h231v-39z" />
    <glyph glyph-name="Ubreve" unicode="&#x16c;" horiz-adv-x="590" 
d="M221 0q-74 0 -109 35.5t-35 108.5v556h66v-543q0 -54 21.5 -76t73.5 -22h114q52 0 73.5 22t21.5 76v543h66v-556q0 -73 -35 -108.5t-109 -35.5h-148zM179 805v47q33 -59 116 -59t115 59v-47q-34 -55 -115 -55q-82 0 -116 55z" />
    <glyph glyph-name="ubreve" unicode="&#x16d;" horiz-adv-x="524" 
d="M294 57q52 0 73 21t21 73v452h65v-462q0 -73 -34 -107t-107 -34h-100q-73 0 -107 34t-34 107v462h65v-452q0 -52 21 -73t73 -21h64zM146 718v47q33 -59 116 -59t115 59v-47q-34 -55 -115 -55q-82 0 -116 55z" />
    <glyph glyph-name="Uring" unicode="&#x16e;" horiz-adv-x="590" 
d="M221 0q-74 0 -109 35.5t-35 108.5v556h66v-543q0 -54 21.5 -76t73.5 -22h114q52 0 73.5 22t21.5 76v543h66v-556q0 -73 -35 -108.5t-109 -35.5h-148zM251 804q0 -28 33 -28h23q33 0 33 28q0 29 -33 29h-23q-33 0 -33 -29zM305 748h-18q-67 0 -67 56t67 56h18q65 0 65 -56
t-65 -56z" />
    <glyph glyph-name="uring" unicode="&#x16f;" horiz-adv-x="524" 
d="M294 57q52 0 73 21t21 73v452h65v-462q0 -73 -34 -107t-107 -34h-100q-73 0 -107 34t-34 107v462h65v-452q0 -52 21 -73t73 -21h64zM217 717q0 -28 33 -28h23q33 0 33 28q0 29 -33 29h-23q-33 0 -33 -29zM271 661h-18q-67 0 -67 56t67 56h18q65 0 65 -56t-65 -56z" />
    <glyph glyph-name="Uhungarumlaut" unicode="&#x170;" horiz-adv-x="590" 
d="M221 0q-74 0 -109 35.5t-35 108.5v556h66v-543q0 -54 21.5 -76t73.5 -22h114q52 0 73.5 22t21.5 76v543h66v-556q0 -73 -35 -108.5t-109 -35.5h-148zM492 851l-122 -101h-55l102 101h75zM336 851l-122 -101h-55l102 101h75z" />
    <glyph glyph-name="uhungarumlaut" unicode="&#x171;" horiz-adv-x="524" 
d="M294 57q52 0 73 21t21 73v452h65v-462q0 -73 -34 -107t-107 -34h-100q-73 0 -107 34t-34 107v462h65v-452q0 -52 21 -73t73 -21h64zM459 764l-122 -101h-55l102 101h75zM303 764l-122 -101h-55l102 101h75z" />
    <glyph glyph-name="Uogonek" unicode="&#x172;" horiz-adv-x="590" 
d="M479 -62h-20q-87 0 -119.5 -7.5t-32.5 -26.5q0 -18 43 -18h160v-43h-159q-74 0 -74 47q0 38 37.5 52.5t134.5 14.5h10v63q-33 -20 -90 -20h-148q-74 0 -109 35.5t-35 108.5v556h66v-543q0 -54 21.5 -76t73.5 -22h114q52 0 73.5 22t21.5 76v543h66v-556q0 -73 -34 -108
v-98z" />
    <glyph glyph-name="uogonek" unicode="&#x173;" horiz-adv-x="524" 
d="M420 -62h-20q-87 0 -119.5 -7.5t-32.5 -26.5q0 -18 43 -18h160v-43h-159q-74 0 -74 47q0 38 37.5 52.5t134.5 14.5h10v62q-32 -19 -88 -19h-100q-73 0 -107 34t-34 107v462h65v-452q0 -52 21 -73t73 -21h64q52 0 73 21t21 73v452h65v-462q0 -71 -33 -106v-97z" />
    <glyph glyph-name="Wcircumflex" unicode="&#x174;" horiz-adv-x="867" 
d="M646 0h-72q-67 0 -100 24.5t-40 80.5q-8 -57 -41 -81t-100 -24h-72q-74 0 -109 35.5t-35 108.5v556h66v-543q0 -54 21.5 -76t73.5 -22h67q53 0 74.5 22t21.5 76v543h66v-543q0 -54 21.5 -76t73.5 -22h67q52 0 73.5 22t21.5 76v543h66v-556q0 -73 -35 -108.5t-109 -35.5z
M434 818l-92 -68h-53l113 101h63l113 -101h-52z" />
    <glyph glyph-name="wcircumflex" unicode="&#x175;" horiz-adv-x="804" 
d="M402 98q-8 -53 -41 -75.5t-100 -22.5h-49q-73 0 -107 34t-34 107v462h65v-452q0 -52 21 -73t73 -21h46q52 0 73 21t21 73v452h64v-452q0 -52 21 -73t73 -21h46q52 0 73 21t21 73v452h65v-462q0 -73 -34 -107t-107 -34h-49q-67 0 -100 22.5t-41 75.5zM402 731l-92 -68h-53
l113 101h63l113 -101h-52z" />
    <glyph glyph-name="Ycircumflex" unicode="&#x176;" horiz-adv-x="553" 
d="M439 700h66v-236q0 -143 -143 -143h-52v-321h-67v321h-52q-143 0 -143 143v236h66v-222q0 -54 21.5 -76.5t73.5 -22.5h135q53 0 74 22t21 77v222zM277 818l-92 -68h-53l113 101h63l113 -101h-52z" />
    <glyph glyph-name="ycircumflex" unicode="&#x177;" horiz-adv-x="536" 
d="M269 -167h-157v57h148q68 0 99 30t31 100v55q-22 -66 -117 -66h-61q-73 0 -107 34.5t-34 106.5v453h65v-442q0 -52 21 -73t73 -21h66q52 0 73 21t21 73v442h65v-584q0 -95 -45.5 -140.5t-140.5 -45.5zM268 731l-92 -68h-53l113 101h63l113 -101h-52z" />
    <glyph glyph-name="Ydieresis" unicode="&#x178;" horiz-adv-x="553" 
d="M439 700h66v-236q0 -143 -143 -143h-52v-321h-67v321h-52q-143 0 -143 143v236h66v-222q0 -54 21.5 -76.5t73.5 -22.5h135q53 0 74 22t21 77v222zM225 823v-53h-85v53h85zM413 823v-53h-85v53h85z" />
    <glyph glyph-name="Zacute" unicode="&#x179;" horiz-adv-x="531" 
d="M288 379q69 0 97 27.5t28 97.5v137h-339v59h405v-206q0 -173 -173 -173h-66q-69 0 -97 -27.5t-28 -97.5v-137h364v-59h-430v206q0 173 173 173h66zM394 851l-122 -101h-55l102 101h75z" />
    <glyph glyph-name="zacute" unicode="&#x17a;" horiz-adv-x="479" 
d="M221 273q-57 0 -82.5 -26t-25.5 -82v-108h316v-57h-380v166q0 164 163 164h44q57 0 82.5 25.5t25.5 82.5v108h-295v57h360v-167q0 -163 -164 -163h-44zM372 764l-122 -101h-55l102 101h75z" />
    <glyph glyph-name="Zdotaccent" unicode="&#x17b;" horiz-adv-x="531" 
d="M288 379q69 0 97 27.5t28 97.5v137h-339v59h405v-206q0 -173 -173 -173h-66q-69 0 -97 -27.5t-28 -97.5v-137h364v-59h-430v206q0 173 173 173h66zM318 823v-53h-85v53h85z" />
    <glyph glyph-name="zdotaccent" unicode="&#x17c;" horiz-adv-x="479" 
d="M221 273q-57 0 -82.5 -26t-25.5 -82v-108h316v-57h-380v166q0 164 163 164h44q57 0 82.5 25.5t25.5 82.5v108h-295v57h360v-167q0 -163 -164 -163h-44zM295 736v-53h-85v53h85z" />
    <glyph glyph-name="Zcaron" unicode="&#x17d;" horiz-adv-x="531" 
d="M288 379q69 0 97 27.5t28 97.5v137h-339v59h405v-206q0 -173 -173 -173h-66q-69 0 -97 -27.5t-28 -97.5v-137h364v-59h-430v206q0 173 173 173h66zM184 851l92 -69l92 69h52l-113 -101h-63l-113 101h53z" />
    <glyph glyph-name="zcaron" unicode="&#x17e;" horiz-adv-x="479" 
d="M221 273q-57 0 -82.5 -26t-25.5 -82v-108h316v-57h-380v166q0 164 163 164h44q57 0 82.5 25.5t25.5 82.5v108h-295v57h360v-167q0 -163 -164 -163h-44zM161 764l92 -69l92 69h52l-113 -101h-63l-113 101h53z" />
    <glyph glyph-name="florin" unicode="&#x192;" 
d="M450 379v-58h-209v-180q0 -72 -34 -106.5t-107 -34.5h-55v59h37q52 0 72.5 20.5t20.5 72.5v169h-130v58h130v178q0 73 34.5 108t108.5 35h212v-59h-195q-52 0 -73 -20.5t-21 -72.5v-169h209z" />
    <glyph glyph-name="AEacute" unicode="&#x1fc;" horiz-adv-x="874" 
d="M429 0v321h-286v-321h-66v556q0 73 35 108.5t109 35.5h606v-59h-335v-262h245v-58h-245v-262h335v-59h-398zM238 641q-52 0 -73.5 -22t-21.5 -76v-164h286v262h-191zM580 851l-122 -101h-55l102 101h75z" />
    <glyph glyph-name="aeacute" unicode="&#x1fd;" horiz-adv-x="741" 
d="M630 406v63q0 41 -17.5 59t-58.5 18h-57q-52 0 -73 -21t-21 -73v-122h151q41 0 58.5 17.5t17.5 58.5zM111 196v-62q0 -41 17.5 -59t58.5 -18h57q52 0 73 21t21 73v122h-151q-41 0 -58.5 -18t-17.5 -59zM229 0h-57q-65 0 -95.5 31t-30.5 98v72q0 66 30.5 97.5t94.5 31.5
h167v122q0 52 -21 73t-73 21h-168v57h153q67 0 100.5 -22.5t40.5 -75.5q8 53 41.5 75.5t100.5 22.5h57q65 0 95.5 -31t30.5 -98v-73q0 -66 -30.5 -97t-94.5 -31h-167v-122q0 -52 21 -73t73 -21h168v-57h-153q-67 0 -100.5 22.5t-41.5 75.5q-7 -53 -40.5 -75.5t-100.5 -22.5z
M489 764l-122 -101h-55l102 101h75z" />
    <glyph glyph-name="Oslashacute" unicode="&#x1fe;" horiz-adv-x="572" 
d="M211 0q-74 0 -109 35.5t-35 108.5v412q0 73 35 108.5t109 35.5h150q74 0 109 -35.5t35 -108.5v-412q0 -73 -35 -108.5t-109 -35.5h-150zM439 157v386q0 53 -22 76l-232 -556q16 -4 43 -4h115q53 0 74.5 22t21.5 76zM133 157q0 -52 20 -75l232 554q-20 5 -42 5h-115
q-52 0 -73.5 -22t-21.5 -76v-386zM404 851l-122 -101h-55l102 101h75z" />
    <glyph glyph-name="oslashacute" unicode="&#x1ff;" horiz-adv-x="505" 
d="M303 603q72 0 106 -34t34 -107v-321q0 -73 -34 -107t-106 -34h-101q-72 0 -106 34t-34 107v321q0 73 34 107t106 34h101zM284 57q52 0 73 21t21 73v301q0 63 -35 83l-157 -476q10 -2 34 -2h64zM126 151q0 -57 25 -76l156 470q-7 1 -23 1h-64q-52 0 -73 -21t-21 -73v-301z
M371 764l-122 -101h-55l102 101h75z" />
    <glyph glyph-name="uni0218" unicode="&#x218;" horiz-adv-x="520" 
d="M196 321q-73 0 -107 34t-34 106v99q0 72 34 106t107 34h247v-59h-231q-48 0 -69.5 -22t-21.5 -72v-73q0 -51 21.5 -73t69.5 -22h116q73 0 106.5 -34t33.5 -106v-99q0 -72 -33.5 -106t-106.5 -34h-278v59h262q48 0 69 22t21 72v73q0 51 -21 73t-69 22h-116zM299 -84v-44
q0 -74 -66 -74h-12v24h12q29 0 29 35v12h-41v47h78z" />
    <glyph glyph-name="uni0219" unicode="&#x219;" horiz-adv-x="467" 
d="M391 546h-200q-41 0 -58.5 -18t-17.5 -59v-63q0 -41 17.5 -58.5t58.5 -17.5h105q64 0 94.5 -31.5t30.5 -97.5v-72q0 -67 -30.5 -98t-95.5 -31h-245v57h230q41 0 58.5 18t17.5 59v62q0 41 -17.5 59t-58.5 18h-104q-65 0 -95.5 31t-30.5 97v73q0 67 30.5 98t94.5 31h216
v-57zM262 -84v-44q0 -74 -66 -74h-12v24h12q29 0 29 35v12h-41v47h78z" />
    <glyph glyph-name="uni021A" unicode="&#x21a;" horiz-adv-x="476" 
d="M457 700v-59h-185v-641h-66v641h-187v59h438zM277 -84v-44q0 -74 -66 -74h-12v24h12q29 0 29 35v12h-41v47h78z" />
    <glyph glyph-name="uni021B" unicode="&#x21b;" horiz-adv-x="387" 
d="M212 0q-73 0 -107 34t-34 107v629h65v-167h203v-57h-203v-395q0 -52 21 -73t73 -21h109v-57h-127zM232 -84v-44q0 -74 -66 -74h-12v24h12q29 0 29 35v12h-41v47h78z" />
    <glyph glyph-name="uni0237" unicode="&#x237;" horiz-adv-x="243" 
d="M-22 -110h31q52 0 68.5 16.5t16.5 68.5v628h65v-638q0 -72 -30 -102t-104 -30h-47v57z" />
    <glyph glyph-name="circumflex" unicode="&#x2c6;" horiz-adv-x="233" 
d="M117 731l-92 -68h-53l113 101h63l113 -101h-52z" />
    <glyph glyph-name="caron" unicode="&#x2c7;" horiz-adv-x="233" 
d="M25 764l92 -69l92 69h52l-113 -101h-63l-113 101h53z" />
    <glyph glyph-name="breve" unicode="&#x2d8;" horiz-adv-x="233" 
d="M1 718v47q33 -59 116 -59t115 59v-47q-34 -55 -115 -55q-82 0 -116 55z" />
    <glyph glyph-name="dotaccent" unicode="&#x2d9;" horiz-adv-x="233" 
d="M159 736v-53h-85v53h85z" />
    <glyph glyph-name="ring" unicode="&#x2da;" horiz-adv-x="233" 
d="M72 717q0 -28 33 -28h23q33 0 33 28q0 29 -33 29h-23q-33 0 -33 -29zM126 661h-18q-67 0 -67 56t67 56h18q65 0 65 -56t-65 -56z" />
    <glyph glyph-name="ogonek" unicode="&#x2db;" horiz-adv-x="250" 
d="M210 -62h-20q-87 0 -119.5 -7.5t-32.5 -26.5q0 -18 43 -18h160v-43h-159q-74 0 -74 47q0 38 37.5 52.5t134.5 14.5h10v43h20v-62z" />
    <glyph glyph-name="tilde" unicode="&#x2dc;" horiz-adv-x="233" 
d="M1 666v45q33 37 64 37q20 0 55 -20t53 -20q31 0 59 38v-45q-32 -37 -65 -37q-20 0 -55.5 20t-53.5 20q-28 0 -57 -38z" />
    <glyph glyph-name="hungarumlaut" unicode="&#x2dd;" horiz-adv-x="233" 
d="M292 764l-122 -101h-55l102 101h75zM136 764l-122 -101h-55l102 101h75z" />
    <glyph glyph-name="pi" unicode="&#x3c0;" 
d="M85 0v603h381v-603h-65v546h-251v-546h-65z" />
    <glyph glyph-name="uni1E02" unicode="&#x1e02;" horiz-adv-x="584" 
d="M523 222v-83q0 -72 -33.5 -105.5t-106.5 -33.5h-296v700h296q73 0 106.5 -33.5t33.5 -105.5v-83q0 -58 -23 -89t-77 -39q54 -8 77 -39.5t23 -88.5zM366 379q51 0 71 22t20 74v72q0 50 -21 72t-69 22h-214v-262h213zM153 321v-262h214q48 0 69 22t21 72v72q0 52 -20 74
t-71 22h-213zM338 823v-53h-85v53h85z" />
    <glyph glyph-name="uni1E03" unicode="&#x1e03;" horiz-adv-x="516" 
d="M71 141v629h65v-234q11 35 39 51t78 16h61q73 0 107 -34t34 -107v-321q0 -73 -34 -107t-107 -34h-102q-73 0 -107 34t-34 107zM136 452v-301q0 -52 21 -73t73 -21h66q52 0 73 21t21 73v301q0 52 -21 73t-73 21h-66q-52 0 -73 -21t-21 -73zM332 736v-53h-85v53h85z" />
    <glyph glyph-name="uni1E0A" unicode="&#x1e0a;" horiz-adv-x="585" 
d="M324 700q199 0 199 -199v-302q0 -199 -199 -199h-237v700h237zM311 59q73 0 109.5 35.5t36.5 111.5v288q0 76 -36 111.5t-110 35.5h-158v-582h158zM327 823v-53h-85v53h85z" />
    <glyph glyph-name="uni1E0B" unicode="&#x1e0b;" horiz-adv-x="516" 
d="M445 770v-629q0 -73 -34 -107t-106 -34h-103q-72 0 -106 34t-34 107v321q0 73 34 107t106 34h61q97 0 117 -67v234h65zM380 151v301q0 52 -21 73t-73 21h-66q-51 0 -72.5 -21t-21.5 -73v-301q0 -52 21.5 -73t72.5 -21h66q52 0 73 21t21 73zM266 736v-53h-85v53h85z" />
    <glyph glyph-name="uni1E1E" unicode="&#x1e1e;" horiz-adv-x="514" 
d="M87 0v700h408v-59h-342v-262h252v-58h-252v-321h-66zM320 823v-53h-85v53h85z" />
    <glyph glyph-name="uni1E1F" unicode="&#x1e1f;" horiz-adv-x="429" 
d="M248 546q-59 0 -85.5 -25.5t-26.5 -86.5v-104h225v-57h-225v-273h-65v440q0 84 40 123.5t124 39.5h171v-57h-158zM291 736v-53h-85v53h85z" />
    <glyph glyph-name="uni1E40" unicode="&#x1e40;" horiz-adv-x="867" 
d="M574 700h72q74 0 109 -35.5t35 -108.5v-556h-66v543q0 54 -21.5 76t-73.5 22h-67q-52 0 -73.5 -22t-21.5 -76v-543h-66v543q0 54 -21.5 76t-74.5 22h-67q-52 0 -73.5 -22t-21.5 -76v-543h-66v556q0 73 35 108.5t109 35.5h72q67 0 100 -24t41 -81q7 56 40 80.5t100 24.5z
M476 823v-53h-85v53h85z" />
    <glyph glyph-name="uni1E41" unicode="&#x1e41;" horiz-adv-x="804" 
d="M402 505q8 53 41 75.5t100 22.5h49q73 0 107 -34t34 -107v-462h-65v452q0 52 -21 73t-73 21h-46q-52 0 -73 -21t-21 -73v-452h-64v452q0 52 -21 73t-73 21h-46q-52 0 -73 -21t-21 -73v-452h-65v462q0 73 34 107t107 34h49q67 0 100 -22.5t41 -75.5zM444 736v-53h-85v53
h85z" />
    <glyph glyph-name="uni1E56" unicode="&#x1e56;" horiz-adv-x="555" 
d="M87 0v700h294q73 0 107 -34t34 -106v-99q0 -72 -34 -106t-107 -34h-228v-321h-66zM456 547q0 50 -21.5 72t-69.5 22h-212v-262h212q48 0 69.5 22t21.5 73v73zM335 823v-53h-85v53h85z" />
    <glyph glyph-name="uni1E57" unicode="&#x1e57;" horiz-adv-x="516" 
d="M71 -167v629q0 73 34 107t107 34h102q73 0 107 -34t34 -107v-321q0 -73 -34 -107t-107 -34h-61q-50 0 -78 16t-39 51v-234h-65zM136 452v-301q0 -52 21 -73t73 -21h66q52 0 73 21t21 73v301q0 52 -21 73t-73 21h-66q-52 0 -73 -21t-21 -73zM300 736v-53h-85v53h85z" />
    <glyph glyph-name="uni1E60" unicode="&#x1e60;" horiz-adv-x="520" 
d="M196 321q-73 0 -107 34t-34 106v99q0 72 34 106t107 34h247v-59h-231q-48 0 -69.5 -22t-21.5 -72v-73q0 -51 21.5 -73t69.5 -22h116q73 0 106.5 -34t33.5 -106v-99q0 -72 -33.5 -106t-106.5 -34h-278v59h262q48 0 69 22t21 72v73q0 51 -21 73t-69 22h-116zM302 823v-53
h-85v53h85z" />
    <glyph glyph-name="uni1E61" unicode="&#x1e61;" horiz-adv-x="467" 
d="M391 546h-200q-41 0 -58.5 -18t-17.5 -59v-63q0 -41 17.5 -58.5t58.5 -17.5h105q64 0 94.5 -31.5t30.5 -97.5v-72q0 -67 -30.5 -98t-95.5 -31h-245v57h230q41 0 58.5 18t17.5 59v62q0 41 -17.5 59t-58.5 18h-104q-65 0 -95.5 31t-30.5 97v73q0 67 30.5 98t94.5 31h216
v-57zM276 736v-53h-85v53h85z" />
    <glyph glyph-name="uni1E6A" unicode="&#x1e6a;" horiz-adv-x="476" 
d="M457 700v-59h-185v-641h-66v641h-187v59h438zM280 823v-53h-85v53h85z" />
    <glyph glyph-name="uni1E6B" unicode="&#x1e6b;" horiz-adv-x="387" 
d="M212 0q-73 0 -107 34t-34 107v629h65v-167h203v-57h-203v-395q0 -52 21 -73t73 -21h109v-57h-127zM288 736v-53h-85v53h85z" />
    <glyph glyph-name="Wgrave" unicode="&#x1e80;" horiz-adv-x="867" 
d="M646 0h-72q-67 0 -100 24.5t-40 80.5q-8 -57 -41 -81t-100 -24h-72q-74 0 -109 35.5t-35 108.5v556h66v-543q0 -54 21.5 -76t73.5 -22h67q53 0 74.5 22t21.5 76v543h66v-543q0 -54 21.5 -76t73.5 -22h67q52 0 73.5 22t21.5 76v543h66v-556q0 -73 -35 -108.5t-109 -35.5z
M436 750l-119 101h71l102 -101h-54z" />
    <glyph glyph-name="wgrave" unicode="&#x1e81;" horiz-adv-x="804" 
d="M402 98q-8 -53 -41 -75.5t-100 -22.5h-49q-73 0 -107 34t-34 107v462h65v-452q0 -52 21 -73t73 -21h46q52 0 73 21t21 73v452h64v-452q0 -52 21 -73t73 -21h46q52 0 73 21t21 73v452h65v-462q0 -73 -34 -107t-107 -34h-49q-67 0 -100 22.5t-41 75.5zM404 663l-119 101h71
l102 -101h-54z" />
    <glyph glyph-name="Wacute" unicode="&#x1e82;" horiz-adv-x="867" 
d="M646 0h-72q-67 0 -100 24.5t-40 80.5q-8 -57 -41 -81t-100 -24h-72q-74 0 -109 35.5t-35 108.5v556h66v-543q0 -54 21.5 -76t73.5 -22h67q53 0 74.5 22t21.5 76v543h66v-543q0 -54 21.5 -76t73.5 -22h67q52 0 73.5 22t21.5 76v543h66v-556q0 -73 -35 -108.5t-109 -35.5z
M552 851l-122 -101h-55l102 101h75z" />
    <glyph glyph-name="wacute" unicode="&#x1e83;" horiz-adv-x="804" 
d="M402 98q-8 -53 -41 -75.5t-100 -22.5h-49q-73 0 -107 34t-34 107v462h65v-452q0 -52 21 -73t73 -21h46q52 0 73 21t21 73v452h64v-452q0 -52 21 -73t73 -21h46q52 0 73 21t21 73v452h65v-462q0 -73 -34 -107t-107 -34h-49q-67 0 -100 22.5t-41 75.5zM521 764l-122 -101
h-55l102 101h75z" />
    <glyph glyph-name="Wdieresis" unicode="&#x1e84;" horiz-adv-x="867" 
d="M646 0h-72q-67 0 -100 24.5t-40 80.5q-8 -57 -41 -81t-100 -24h-72q-74 0 -109 35.5t-35 108.5v556h66v-543q0 -54 21.5 -76t73.5 -22h67q53 0 74.5 22t21.5 76v543h66v-543q0 -54 21.5 -76t73.5 -22h67q52 0 73.5 22t21.5 76v543h66v-556q0 -73 -35 -108.5t-109 -35.5z
M382 823v-53h-85v53h85zM570 823v-53h-85v53h85z" />
    <glyph glyph-name="wdieresis" unicode="&#x1e85;" horiz-adv-x="804" 
d="M402 98q-8 -53 -41 -75.5t-100 -22.5h-49q-73 0 -107 34t-34 107v462h65v-452q0 -52 21 -73t73 -21h46q52 0 73 21t21 73v452h64v-452q0 -52 21 -73t73 -21h46q52 0 73 21t21 73v452h65v-462q0 -73 -34 -107t-107 -34h-49q-67 0 -100 22.5t-41 75.5zM350 736v-53h-85v53
h85zM538 736v-53h-85v53h85z" />
    <glyph glyph-name="Ygrave" unicode="&#x1ef2;" horiz-adv-x="553" 
d="M439 700h66v-236q0 -143 -143 -143h-52v-321h-67v321h-52q-143 0 -143 143v236h66v-222q0 -54 21.5 -76.5t73.5 -22.5h135q53 0 74 22t21 77v222zM279 750l-119 101h71l102 -101h-54z" />
    <glyph glyph-name="ygrave" unicode="&#x1ef3;" horiz-adv-x="536" 
d="M269 -167h-157v57h148q68 0 99 30t31 100v55q-22 -66 -117 -66h-61q-73 0 -107 34.5t-34 106.5v453h65v-442q0 -52 21 -73t73 -21h66q52 0 73 21t21 73v442h65v-584q0 -95 -45.5 -140.5t-140.5 -45.5zM270 663l-119 101h71l102 -101h-54z" />
    <glyph glyph-name="uni2010" unicode="&#x2010;" horiz-adv-x="393" 
d="M352 356v-58h-310v58h310z" />
    <glyph glyph-name="figuredash" unicode="&#x2012;" 
d="M552 356v-58h-552v58h552z" />
    <glyph glyph-name="endash" unicode="&#x2013;" horiz-adv-x="500" 
d="M500 356v-58h-500v58h500z" />
    <glyph glyph-name="emdash" unicode="&#x2014;" horiz-adv-x="1000" 
d="M1000 356v-58h-1000v58h1000z" />
    <glyph glyph-name="quoteleft" unicode="&#x2018;" horiz-adv-x="275" 
d="M92 536v65q0 51 18.5 75t61.5 24h11v-28h-11q-19 0 -27.5 -11t-8.5 -41v-19h47v-65h-91z" />
    <glyph glyph-name="quoteright" unicode="&#x2019;" horiz-adv-x="275" 
d="M183 700v-65q0 -51 -18.5 -75t-61.5 -24h-11v28h11q19 0 27.5 11t8.5 41v19h-47v65h91z" />
    <glyph glyph-name="quotesinglbase" unicode="&#x201a;" horiz-adv-x="275" 
d="M183 68v-65q0 -51 -18.5 -75t-61.5 -24h-11v28h11q19 0 27.5 11t8.5 41v19h-47v65h91z" />
    <glyph glyph-name="quotedblleft" unicode="&#x201c;" horiz-adv-x="452" 
d="M269 536v65q0 51 18.5 75t61.5 24h11v-28h-11q-19 0 -27.5 -11t-8.5 -41v-19h47v-65h-91zM92 536v65q0 51 18.5 75t61.5 24h11v-28h-11q-19 0 -27.5 -11t-8.5 -41v-19h47v-65h-91z" />
    <glyph glyph-name="quotedblright" unicode="&#x201d;" horiz-adv-x="452" 
d="M360 700v-65q0 -51 -18.5 -75t-61.5 -24h-11v28h11q19 0 27.5 11t8.5 41v19h-47v65h91zM183 700v-65q0 -51 -18.5 -75t-61.5 -24h-11v28h11q19 0 27.5 11t8.5 41v19h-47v65h91z" />
    <glyph glyph-name="quotedblbase" unicode="&#x201e;" horiz-adv-x="452" 
d="M360 68v-65q0 -51 -18.5 -75t-61.5 -24h-11v28h11q19 0 27.5 11t8.5 41v19h-47v65h91zM183 68v-65q0 -51 -18.5 -75t-61.5 -24h-11v28h11q19 0 27.5 11t8.5 41v19h-47v65h91z" />
    <glyph glyph-name="dagger" unicode="&#x2020;" horiz-adv-x="501" 
d="M466 492v-58h-183v-566h-66v566h-183v58h183v248h66v-248h183z" />
    <glyph glyph-name="daggerdbl" unicode="&#x2021;" horiz-adv-x="501" 
d="M466 217v-58h-183v-291h-66v291h-183v58h183v217h-183v58h183v248h66v-248h183v-58h-183v-217h183z" />
    <glyph glyph-name="bullet" unicode="&#x2022;" horiz-adv-x="500" 
d="M301 160h-102q-136 0 -136 127v126q0 127 136 127h102q136 0 136 -127v-126q0 -127 -136 -127z" />
    <glyph glyph-name="ellipsis" unicode="&#x2026;" horiz-adv-x="629" 
d="M183 68v-68h-91v68h91zM360 68v-68h-91v68h91zM537 68v-68h-91v68h91z" />
    <glyph glyph-name="perthousand" unicode="&#x2030;" horiz-adv-x="1437" 
d="M386 0l199 700h54l-199 -700h-54zM620 117v300q0 60 28.5 88.5t88.5 28.5h112q60 0 88.5 -28.5t28.5 -88.5v-300q0 -60 -28.5 -88.5t-88.5 -28.5h-112q-60 0 -88.5 28.5t-28.5 88.5zM906 121v292q0 36 -16 51.5t-50 15.5h-93q-35 0 -51 -15.5t-16 -51.5v-292
q0 -36 16 -51.5t51 -15.5h93q34 0 50 15.5t16 51.5zM1032 117v300q0 60 28.5 88.5t88.5 28.5h112q60 0 88.5 -28.5t28.5 -88.5v-300q0 -60 -28.5 -88.5t-88.5 -28.5h-112q-60 0 -88.5 28.5t-28.5 88.5zM1318 121v292q0 36 -16 51.5t-50 15.5h-93q-35 0 -51 -15.5t-16 -51.5
v-292q0 -36 16 -51.5t51 -15.5h93q34 0 50 15.5t16 51.5zM59 283v300q0 60 28.5 88.5t88.5 28.5h112q60 0 88.5 -28.5t28.5 -88.5v-300q0 -60 -28.5 -88.5t-88.5 -28.5h-112q-60 0 -88.5 28.5t-28.5 88.5zM345 287v292q0 36 -16 51.5t-50 15.5h-93q-35 0 -51 -15.5
t-16 -51.5v-292q0 -36 16 -51.5t51 -15.5h93q34 0 50 15.5t16 51.5z" />
    <glyph glyph-name="guilsinglleft" unicode="&#x2039;" horiz-adv-x="273" 
d="M247 51h-67l-153 249l153 249h67l-155 -249z" />
    <glyph glyph-name="guilsinglright" unicode="&#x203a;" horiz-adv-x="273" 
d="M93 51h-67l155 249l-155 249h67l153 -249z" />
    <glyph glyph-name="fraction" unicode="&#x2044;" horiz-adv-x="311" 
d="M29 0l199 700h54l-199 -700h-54z" />
    <glyph glyph-name="zerosuperior" unicode="&#x2070;" horiz-adv-x="464" 
d="M59 283v300q0 60 28.5 88.5t88.5 28.5h112q60 0 88.5 -28.5t28.5 -88.5v-300q0 -60 -28.5 -88.5t-88.5 -28.5h-112q-60 0 -88.5 28.5t-28.5 88.5zM345 287v292q0 36 -16 51.5t-50 15.5h-93q-35 0 -51 -15.5t-16 -51.5v-292q0 -36 16 -51.5t51 -15.5h93q34 0 50 15.5
t16 51.5z" />
    <glyph glyph-name="foursuperior" unicode="&#x2074;" horiz-adv-x="464" 
d="M327 460v240h60v-534h-60v240h-168q-60 0 -88 28.5t-28 88.5v177h60v-173q0 -36 16 -51.5t50 -15.5h158z" />
    <glyph glyph-name="zeroinferior" unicode="&#x2080;" horiz-adv-x="464" 
d="M59 117v300q0 60 28.5 88.5t88.5 28.5h112q60 0 88.5 -28.5t28.5 -88.5v-300q0 -60 -28.5 -88.5t-88.5 -28.5h-112q-60 0 -88.5 28.5t-28.5 88.5zM345 121v292q0 36 -16 51.5t-50 15.5h-93q-35 0 -51 -15.5t-16 -51.5v-292q0 -36 16 -51.5t51 -15.5h93q34 0 50 15.5
t16 51.5z" />
    <glyph glyph-name="oneinferior" unicode="&#x2081;" horiz-adv-x="464" 
d="M119 0v54h127v426h-127v54h187v-480h100v-54h-287z" />
    <glyph glyph-name="twoinferior" unicode="&#x2082;" horiz-adv-x="464" 
d="M361 363v49q0 39 -14.5 54t-52.5 15h-226v53h238q60 0 88 -28.5t28 -88.5v-60q0 -60 -28 -88.5t-88 -28.5h-101q-56 0 -77 -20.5t-21 -76.5v-89h315v-54h-376v152q0 142 142 142h106q38 0 52.5 15t14.5 54z" />
    <glyph glyph-name="threeinferior" unicode="&#x2083;" horiz-adv-x="464" 
d="M418 418v-46q0 -47 -17 -73t-65 -32q48 -6 65 -32t17 -73v-46q0 -59 -28 -87.5t-87 -28.5h-264v54h251q38 0 52.5 15t14.5 53v50q0 37 -15 52.5t-50 15.5h-177v54h177q35 0 50 15.5t15 52.5v50q0 38 -14.5 53t-52.5 15h-251v54h264q59 0 87 -28.5t28 -87.5z" />
    <glyph glyph-name="fourinferior" unicode="&#x2084;" horiz-adv-x="464" 
d="M327 294v240h60v-534h-60v240h-168q-60 0 -88 28.5t-28 88.5v177h60v-173q0 -36 16 -51.5t50 -15.5h158z" />
    <glyph glyph-name="Euro" unicode="&#x20ac;" 
d="M235 0q-73 0 -108 35.5t-35 108.5v177h-70v58h70v177q0 73 35 108.5t108 35.5h271v-59h-253q-52 0 -73.5 -22t-21.5 -76v-164h254v-58h-254v-164q0 -54 21.5 -76t73.5 -22h253v-59h-271z" />
    <glyph glyph-name="uni2117" unicode="&#x2117;" horiz-adv-x="690" 
d="M294 370h97q25 0 25 24v51q0 24 -25 24h-97v-99zM462 444v-49q0 -35 -16 -50.5t-50 -15.5h-102v-140h-46v321h148q34 0 50 -16t16 -50zM228 0q-83 0 -122 39.5t-39 120.5v380q0 81 39 120.5t122 39.5h234q161 0 161 -160v-380q0 -160 -161 -160h-234zM230 42h229
q117 0 117 117v382q0 117 -117 117h-229q-116 0 -116 -117v-382q0 -117 116 -117z" />
    <glyph glyph-name="trademark" unicode="&#x2122;" horiz-adv-x="1061" 
d="M662 167v398q0 81 -73 81h-73q-34 0 -48.5 -14.5t-14.5 -49.5v-415h-60v418q0 59 27.5 87t87.5 28h63q57 0 86 -22t35 -70q6 48 34.5 70t86.5 22h63q60 0 87.5 -28t27.5 -87v-418h-60v415q0 35 -14.5 49.5t-48.5 14.5h-73q-73 0 -73 -81v-398h-60zM325 700v-54h-119v-479
h-60v479h-119v54h298z" />
    <glyph glyph-name="uni2126" unicode="&#x2126;" 
d="M430 370v177q0 50 -21 72t-69 22h-128q-48 0 -69.5 -22t-21.5 -72v-177q0 -50 21.5 -72.5t69.5 -22.5h15v-275h-177v59h121v159q-60 5 -88 39t-28 100v203q0 72 34 106t107 34h160q73 0 106.5 -34t33.5 -106v-203q0 -66 -27.5 -100t-87.5 -39v-159h120v-59h-176v275h15
q48 0 69 22.5t21 72.5z" />
    <glyph glyph-name="onethird" unicode="&#x2153;" horiz-adv-x="1025" 
d="M119 166v54h127v426h-127v54h187v-480h100v-54h-287zM386 0l199 700h54l-199 -700h-54zM979 418v-46q0 -47 -17 -73t-65 -32q48 -6 65 -32t17 -73v-46q0 -59 -28 -87.5t-87 -28.5h-264v54h251q38 0 52.5 15t14.5 53v50q0 37 -15 52.5t-50 15.5h-177v54h177q35 0 50 15.5
t15 52.5v50q0 38 -14.5 53t-52.5 15h-251v54h264q59 0 87 -28.5t28 -87.5z" />
    <glyph glyph-name="twothirds" unicode="&#x2154;" horiz-adv-x="1025" 
d="M361 529v49q0 39 -14.5 54t-52.5 15h-226v53h238q60 0 88 -28.5t28 -88.5v-60q0 -60 -28 -88.5t-88 -28.5h-101q-56 0 -77 -20.5t-21 -76.5v-89h315v-54h-376v152q0 142 142 142h106q38 0 52.5 15t14.5 54zM386 0l199 700h54l-199 -700h-54zM979 418v-46q0 -47 -17 -73
t-65 -32q48 -6 65 -32t17 -73v-46q0 -59 -28 -87.5t-87 -28.5h-264v54h251q38 0 52.5 15t14.5 53v50q0 37 -15 52.5t-50 15.5h-177v54h177q35 0 50 15.5t15 52.5v50q0 38 -14.5 53t-52.5 15h-251v54h264q59 0 87 -28.5t28 -87.5z" />
    <glyph glyph-name="partialdiff" unicode="&#x2202;" 
d="M487 501v-361q0 -72 -34 -106t-107 -34h-157q-73 0 -106.5 34t-33.5 106v99q0 72 33.5 106t106.5 34h231v115q0 76 -36 111.5t-110 35.5h-200v59h215q97 0 147.5 -50.5t50.5 -148.5zM115 226v-73q0 -50 21 -72t69 -22h125q48 0 69 22t21 72v168h-215q-48 0 -69 -22
t-21 -73z" />
    <glyph glyph-name="uni2206" unicode="&#x2206;" 
d="M48 0l227 714l228 -714h-455zM275 530l-152 -476h304z" />
    <glyph glyph-name="product" unicode="&#x220f;" 
d="M419 -132v773h-286v-773h-66v832h418v-832h-66z" />
    <glyph glyph-name="summation" unicode="&#x2211;" 
d="M485 -73v-59h-418v50l278 366l-278 366v50h418v-59h-338l271 -357l-271 -357h338z" />
    <glyph glyph-name="minus" unicode="&#x2212;" 
d="M67 321v57h418v-57h-418z" />
    <glyph glyph-name="radical" unicode="&#x221a;" 
d="M269 0l-82 321h-120v57h164l76 -305l155 627h59l-174 -700h-78z" />
    <glyph glyph-name="infinity" unicode="&#x221e;" horiz-adv-x="733" 
d="M345 317q-12 0 -23.5 12.5t-14.5 12.5t-11 -2t-14 -2q-8 0 -14.5 8t-6.5 17q0 22 8 35q-7 -7 -16 -37t-26 -41q-18 -12 -18 -40q0 -11 11 -21.5t11 -12.5q0 -4 -3 -4q-7 0 -12 5q13 -68 48 -104h-55q-35 114 -35 226q0 105 40.5 171.5t135.5 66.5q190 0 190 -254
q0 -75 -25 -210h-73q53 47 62 117q-4 -8 -13 -8q-3 0 -3 2l4 4q5 3 9.5 11.5t4.5 21.5q-4 -6 -15 -6q-1 0 -10.5 -4.5t-15.5 -4.5q-14 0 -40 3.5t-70 3.5q-22 0 -52.5 -6t-38.5 -6q-5 0 -13 2t-11 2q-28 0 -28 12q0 10 37 18.5t74 8.5q5 0 12 -0.5t12 -0.5t15.5 2t14.5 2
q112 0 127 -20q-1 16 -14 29t-30 13q-6 0 -6 7q0 57 -16 58q4 -7 4 -17q0 -18 -11 -32t-27 -14q-4 0 -10 2l-7 2q-1 0 -14.5 -14t-27.5 -14zM733 291v-148q-22 48 -69 112.5t-67 64.5q6 -85 -12 -177h-42q16 104 16 199q0 319 -213 319q-53 0 -91.5 -26.5t-59 -72.5
t-30 -97.5t-9.5 -111.5q0 -123 29 -210h-47q-19 67 -19 184q-17 -9 -39.5 -43.5t-49 -84.5t-30.5 -56v148q11 27 33 54t50 53.5t30 28.5q3 72 27 135t75.5 107.5t120.5 44.5q67 0 115.5 -22.5t76.5 -64t42.5 -87t22.5 -105.5q22 -5 68 -48t72 -96zM345 503q-3 3 -3 6
q0 2 2 2q1 0 6 -4.5t15 -8.5t22 -4q16 0 29 4t20 8l6 5q4 0 4 -2l-8 -8q24 0 52 -11q-29 80 -139 80q-55 0 -92 -33t-50 -85q37 20 41 39q-6 4 -6 7q0 4 3 4l2 -2q2 -1 6.5 -3.5t10 -5t13.5 -4t17 -1.5q24 0 49 17zM371 416q0 20 -4.5 40t-9.5 20q-10 0 -19 -39t-14 -39
q-3 0 -9.5 3t-11.5 3q-13 0 -21 -10.5t-8 -24.5t11 -14t18 6.5t9 6.5t12 -13.5t20 -13.5q14 0 25 10.5t12 10.5q3 0 10 -3.5t9 -3.5q10 0 18 11t8 24q0 10 -6 18t-16 8q-7 0 -14.5 -6.5t-11.5 -6.5q-7 0 -7 13zM510 318q0 95 -12 147l-5 3q0 -21 -18 -32t-41 -11
q-21 0 -37 12.5t-16 29.5q0 6 2 9q-12 2 -15 4q6 -9 10 -24t5.5 -24t4.5 -9q7 2 15 2q19 0 31 -14q34 0 34 -51q0 -3 8 -7t18.5 -13t15.5 -22zM383 310q-1 0 -8 -1t-15.5 -2t-13.5 -1t-13 1.5t-11 1.5q-15 0 -36 -4t-35 -9t-14 -8q0 -10 20 -10q24 0 54 6.5t44 6.5
q19 0 57.5 -3.5t52.5 -3.5q5 0 9.5 2t7.5 4t3 3q0 5 -36 11t-66 6zM267 413q-18 0 -31 10t-15 21q-4 -2 -15 -5q-4 -21 -4 -43q0 -50 3 -78q4 6 22 22t20 31q5 37 38 41q12 5 23 5q5 0 8.5 8.5t9.5 24.5t16 28l-13 -4q-1 -24 -18.5 -42.5t-43.5 -18.5zM419 465q-13 0 -16 13
q-5 0 -8.5 -5.5t-3.5 -9.5q0 -10 15 -17t31 -7q14 0 29 8.5t15 21.5q0 8 -14.5 12.5t-28.5 4.5q-5 -21 -19 -21zM267 427q14 0 30 11t16 24q0 6 -1 9q-20 0 -27 1q-5 -14 -18 -14q-10 0 -15 5q-4 -4 -18 -12q4 -24 33 -24zM266 288q-2 0 -2 3q0 12 107 12q93 0 93 -8
q0 -3 -3 -3q-1 0 -4 0.5t-10 1t-16 1.5t-24.5 1.5t-33.5 0.5q-36 0 -61 -2.5t-36 -4.5zM305 262q0 10 63 10q31 0 31 -8q0 -3 -2 -3q-4 0 -10 2t-10 2q-11 0 -26 -0.5t-20 -0.5q-4 0 -11.5 -3t-10.5 -3q-4 0 -4 4zM417 473q9 0 9 13q-1 0 -16 -6q0 -7 7 -7zM266 466
q7 0 10 9q-6 1 -11 4q0 -4 -6 -10q1 -3 7 -3zM325 34l-3 48l-10 -82h-21l15 125h25l4 -60l21 60h26l-15 -125h-22l10 82l-16 -48h-14zM21 125h35q23 0 20 -21l-10 -82q-3 -22 -22 -22h-38zM282 44q-1 -12 -10 -17l8 -27h-21l-7 23h-7l-3 -23h-22l15 125h36q21 0 18 -24z
M183 0l3 23h-14l-3 -23h-21l12 104q2 21 22 21h17q19 0 18 -21l-12 -104h-22zM594 0l15 125h35q23 0 20 -21l-8 -62q-3 -19 -22 -19h-15l-3 -23h-22zM111 0l3 23h-13l-3 -23h-22l15 125h22l-10 -83h13l10 83h22l-15 -125h-22zM539 125h22l-10 -79q0 -4 4 -4h5q5 0 5 4l9 79
h22l-10 -81q-3 -21 -19 -21l-9 -23h-23l9 23q-18 0 -15 21zM477 106l3 19h50l-3 -19h-13l-12 -106h-23l12 106h-14zM41 106l-11 -88h11q3 0 3 4l9 80q0 4 -4 4h-8zM629 106l-8 -64h8q5 0 5 4l7 56q0 4 -4 4h-8zM174 42h14l7 60q0 4 -4 4h-5q-5 0 -5 -4zM255 106l-8 -64h8
q5 0 5 4l7 56q0 4 -3 4h-9zM711 57l-3 -18h-19l-3 -21h27l-2 -18h-49l15 125h47l-3 -19h-24l-6 -49h20zM417 0l3 23h-14l-3 -23h-21l12 104q2 21 22 21h17q19 0 18 -21l-12 -104h-22zM408 42h14l7 60q0 4 -4 4h-5q-5 0 -5 -4z" />
    <glyph glyph-name="integral" unicode="&#x222b;" 
d="M346 547l-68 -535q-11 -74 -50 -109t-114 -35h-47v59h39q53 0 76.5 21t30.5 73l69 535q10 74 49 109t114 35h40v-59h-31q-53 0 -77 -21t-31 -73z" />
    <glyph glyph-name="approxequal" unicode="&#x2248;" 
d="M67 173v68q40 54 96 54q38 0 114.5 -36t112.5 -36q56 0 95 62v-69q-42 -54 -97 -54q-38 0 -115 36t-112 36q-55 0 -94 -61zM67 417v68q42 54 96 54q39 0 115 -35.5t112 -35.5q56 0 95 62v-69q-42 -54 -97 -54q-38 0 -115 35.5t-112 35.5q-55 0 -94 -61z" />
    <glyph glyph-name="notequal" unicode="&#x2260;" 
d="M168 0h-59l78 197h-107v57h129l75 190h-204v57h227l79 199h58l-79 -199h106v-57h-128l-75 -190h203v-57h-226z" />
    <glyph glyph-name="lessequal" unicode="&#x2264;" 
d="M485 0h-418v57h418v-57zM67 350l198 208h74l-172 -180h318v-57h-318l172 -181h-74z" />
    <glyph glyph-name="greaterequal" unicode="&#x2265;" 
d="M485 0h-418v57h418v-57zM287 558l198 -208l-198 -210h-74l172 181h-318v57h318l-172 180h74z" />
    <glyph glyph-name="lozenge" unicode="&#x25ca;" 
d="M275 -14l-227 361l227 361l228 -361zM275 94l160 253l-160 252l-159 -252z" />
    <glyph glyph-name="commaaccent" horiz-adv-x="250" 
d="M164 -84v-44q0 -74 -66 -74h-12v24h12q29 0 29 35v12h-41v47h78z" />
    <glyph glyph-name="f.alt" horiz-adv-x="429" 
d="M248 546q-59 0 -85.5 -25.5t-26.5 -86.5v-104h225v-57h-225v-440h-65v607q0 84 40 123.5t124 39.5h171v-57h-158z" />
    <glyph glyph-name="i.alt" horiz-adv-x="236" 
d="M86 0v603h65v-603h-65zM164 737v-54h-92v54h92z" />
    <glyph glyph-name="i.trk" horiz-adv-x="295" 
d="M224 57h48v-57h-65q-72 0 -102.5 31t-30.5 101v471h65v-460q0 -50 17.5 -68t67.5 -18zM152 737v-54h-92v54h92z" />
    <glyph glyph-name="germandbls.alt" horiz-adv-x="538" 
d="M345 273h-122v57h122q45 0 61.5 17.5t16.5 62.5v49q0 47 -19.5 67t-66.5 20h-89q-59 0 -85.5 -25.5t-26.5 -86.5v-601h-65v607q0 84 40 123.5t124 39.5h118q70 0 102.5 -33t32.5 -105v-53q0 -51 -21 -78t-70 -33q49 -6 70 -33t21 -77v-53q0 -72 -32.5 -105t-102.5 -33
h-130v57h114q47 0 66.5 20t19.5 67v49q0 45 -16.5 62.5t-61.5 17.5z" />
    <glyph glyph-name="one.pnum" horiz-adv-x="332" 
d="M245 700v-700h-66v641h-157v59h223z" />
    </font>
</defs>
</svg>
