<?xml version="1.0" standalone="no"?>
<!DOCTYPE svg PUBLIC "-//W3C//DTD SVG 1.1//EN" "http://www.w3.org/Graphics/SVG/1.1/DTD/svg11.dtd" >
<svg xmlns="http://www.w3.org/2000/svg" xmlns:xlink="http://www.w3.org/1999/xlink" version="1.1">
<metadata>
Created by FontForge 20170731 at Sat Mar 14 00:16:17 2015
 By ,,,
Copyright (c) 2011 by Ryoichi Tsunekawa. All rights reserved.
</metadata>
<defs>
<font id="DesignSystemB-100I" horiz-adv-x="649" >
  <font-face 
    font-family="DesignSystemB-100I"
    font-weight="400"
    font-style="italic"
    font-stretch="normal"
    units-per-em="1000"
    panose-1="4 5 4 4 2 11 2 2 3 2"
    ascent="822"
    descent="-178"
    x-height="603"
    cap-height="700"
    bbox="-92 -192 1525.03 931"
    underline-thickness="36"
    underline-position="-156"
    slope="-8"
    unicode-range="U+0020-FB02"
  />
<missing-glyph horiz-adv-x="537" 
d="M8 700h537v-700h-537v700zM48 664v-613l421 613h-421zM83 36h422v612z" />
    <glyph glyph-name="ij" unicode="ij" horiz-adv-x="462" 
d="M142 -131h32q59 0 81 19t30 79l89 636h40l-90 -639q-10 -73 -43 -102t-106 -29h-38zM371 689l6 41h70l-6 -41h-70zM53 0l84 603h40l-84 -603h-40zM209 730l-6 -41h-69l6 41h69z" />
    <glyph glyph-name="fi" unicode="fi" horiz-adv-x="804" 
d="M282 567q-66 0 -100.5 -29t-44.5 -98l-16 -121h320l-5 -36h-320l-63 -450h-40l84 607q13 84 58.5 123.5t128.5 39.5h244l-5 -36h-241zM693 36h49l-5 -36h-55q-71 0 -97 30t-16 101l66 472h40l-66 -469q-8 -58 9 -78t75 -20zM707 730l-6 -41h-69l6 41h69z" />
    <glyph glyph-name="fl" unicode="fl" horiz-adv-x="802" 
d="M282 567q-66 0 -100.5 -29t-44.5 -98l-16 -121h320l-5 -36h-320l-63 -450h-40l84 607q13 84 58.5 123.5t128.5 39.5h244l-5 -36h-241zM691 36h49l-5 -36h-55q-71 0 -97 30t-16 101l90 639h40l-90 -636q-8 -58 9 -78t75 -20z" />
    <glyph glyph-name=".notdef" horiz-adv-x="537" 
d="M8 700h537v-700h-537v700zM48 664v-613l421 613h-421zM83 36h422v612z" />
    <glyph glyph-name=".null" horiz-adv-x="0" 
 />
    <glyph glyph-name="nonmarkingreturn" horiz-adv-x="333" 
 />
    <glyph glyph-name="space" unicode=" " horiz-adv-x="269" 
 />
    <glyph glyph-name="exclam" unicode="!" horiz-adv-x="280" 
d="M139 51l-7 -51h-68l7 51h68zM216 700l-33 -236q-15 -103 -52 -299h-20q16 186 32 299l33 236h40z" />
    <glyph glyph-name="quotedbl" unicode="&#x22;" horiz-adv-x="350" 
d="M146 700v-49q0 -38 -13 -259h-14q-13 221 -13 259v49h40zM311 700v-49q0 -38 -13 -259h-14q-13 221 -13 259v49h40z" />
    <glyph glyph-name="numbersign" unicode="#" 
d="M469 0l8 151h-320l-8 -151h-40l8 151h-77l2 36h77l17 326h-77l2 36h77l8 151h40l-8 -151h320l8 151h40l-8 -151h78l-2 -36h-78l-17 -326h78l-2 -36h-78l-8 -151h-40zM176 513l-17 -326h320l17 326h-320z" />
    <glyph glyph-name="dollar" unicode="$" 
d="M23 86h414q47 0 70 20t30 67l9 73q7 47 -10 67t-65 20h-289q-64 0 -90 31t-17 97l8 63q10 67 45 98t99 31h127l13 87h36l-13 -87h224l-5 -36h-385q-47 0 -69.5 -20t-30.5 -68l-9 -73q-7 -47 10 -67t64 -20h289q65 0 91.5 -31t16.5 -97l-8 -63q-10 -66 -45 -97t-99 -31
h-128l-13 -90h-36l13 90h-252z" />
    <glyph glyph-name="percent" unicode="%" horiz-adv-x="1112" 
d="M393 0l319 700h37l-319 -700h-37zM648 114l43 306q16 114 130 114h152q59 0 82.5 -28t15.5 -86l-43 -306q-16 -114 -130 -114h-152q-59 0 -82.5 28t-15.5 86zM987 111l44 312q6 40 -9.5 57.5t-53.5 17.5h-152q-38 0 -58.5 -17.5t-26.5 -57.5l-44 -312q-5 -40 10.5 -57.5
t53.5 -17.5h152q38 0 58.5 17.5t25.5 57.5zM70 280l43 306q16 114 130 114h152q59 0 82.5 -28t15.5 -86l-43 -306q-16 -114 -130 -114h-152q-59 0 -82.5 28t-15.5 86zM409 277l44 312q6 40 -9.5 57.5t-53.5 17.5h-152q-38 0 -58.5 -17.5t-26.5 -57.5l-44 -312
q-5 -40 10.5 -57.5t53.5 -17.5h152q38 0 58.5 17.5t25.5 57.5z" />
    <glyph glyph-name="ampersand" unicode="&#x26;" horiz-adv-x="741" 
d="M620 332h-395q-59 0 -85 -25t-35 -85l-10 -77q-8 -58 12.5 -83.5t75.5 -25.5h296q58 0 82 21t32 81zM54 140l11 82q9 57 35.5 88t82.5 40q-54 9 -72 40t-9 88l10 82q11 73 49 106.5t111 33.5h390l-5 -36h-386q-55 0 -83 -25.5t-36 -83.5l-10 -77q-8 -60 10.5 -85
t77.5 -25h508l-5 -36h-73l-28 -198q-10 -72 -44.5 -103t-106.5 -31h-307q-73 0 -101.5 33.5t-18.5 106.5z" />
    <glyph glyph-name="quotesingle" unicode="'" horiz-adv-x="185" 
d="M146 700v-49q0 -38 -13 -259h-14q-13 221 -13 259v49h40z" />
    <glyph glyph-name="parenleft" unicode="(" horiz-adv-x="314" 
d="M101 69q-9 -63 12 -88t81 -25h32l-5 -36h-41q-72 0 -101 34.5t-19 105.5l69 500q21 140 161 140h41l-5 -36h-32q-60 0 -88 -25t-38 -88z" />
    <glyph glyph-name="parenright" unicode=")" horiz-adv-x="314" 
d="M157 69l68 482q9 63 -12 88t-81 25h-32l5 36h41q72 0 101 -34.5t19 -105.5l-70 -500q-19 -140 -160 -140h-41l5 36h32q60 0 88 25t37 88z" />
    <glyph glyph-name="asterisk" unicode="*" horiz-adv-x="503" 
d="M280 468q83 39 150 59l77 23l8 -32l-77 -23q-88 -26 -155 -39q57 -72 83 -119l36 -63l-27 -19l-38 63q-39 69 -64 130q-43 -64 -101 -130l-54 -63l-25 19l54 63q52 61 116 119q-57 11 -144 39l-72 23l13 31l72 -23q85 -29 136 -58q0 67 12 155l11 77h33l-11 -77
q-12 -90 -33 -155z" />
    <glyph glyph-name="plus" unicode="+" 
d="M76 331v36h233v189h36v-189h235v-36h-235v-188h-36v188h-233z" />
    <glyph glyph-name="comma" unicode="," horiz-adv-x="274" 
d="M136 51l-7 -47q-6 -46 -22.5 -65.5t-51.5 -19.5h-6l2 16h7q17 0 26.5 11.5t13.5 40.5l2 17h-39l7 47h68z" />
    <glyph glyph-name="hyphen" unicode="-" horiz-adv-x="408" 
d="M370 345l-5 -36h-319l5 36h319z" />
    <glyph glyph-name="period" unicode="." horiz-adv-x="274" 
d="M136 51l-7 -51h-68l7 51h68z" />
    <glyph glyph-name="slash" unicode="/" horiz-adv-x="415" 
d="M31 0l310 700h40l-310 -700h-40z" />
    <glyph glyph-name="zero" unicode="0" 
d="M195 0q-144 0 -123 144l57 412q21 144 164 144h217q144 0 123 -144l-57 -412q-21 -144 -164 -144h-217zM536 150l56 400q10 63 -11.5 88.5t-81.5 25.5h-205q-60 0 -88 -25.5t-38 -88.5l-56 -400q-8 -63 13 -88.5t81 -25.5h205q60 0 88.5 25.5t36.5 88.5z" />
    <glyph glyph-name="one" unicode="1" 
d="M473 700l-93 -664h162l-5 -36h-436l5 36h234l88 629h-234l5 35h274z" />
    <glyph glyph-name="two" unicode="2" 
d="M585 555q8 59 -13 84t-76 25h-367l5 36h371q73 0 102 -33.5t18 -106.5l-12 -88q-11 -73 -49 -106.5t-111 -33.5h-214q-78 0 -114.5 -31t-48.5 -112l-20 -153h502l-5 -36h-542l26 195q26 173 197 173h220q56 0 84 25.5t35 83.5z" />
    <glyph glyph-name="three" unicode="3" 
d="M442 332h-296l5 36h296q59 0 86 25t35 85l10 77q8 58 -12.5 83.5t-75.5 25.5h-388l5 36h392q73 0 101.5 -33.5t17.5 -106.5l-10 -82q-9 -57 -35.5 -88t-81.5 -40q53 -9 71 -40.5t9 -87.5l-11 -82q-10 -73 -48 -106.5t-111 -33.5h-392l5 36h388q55 0 83 25.5t36 83.5
l10 77q9 60 -10.5 85t-78.5 25z" />
    <glyph glyph-name="four" unicode="4" 
d="M543 368l47 332h40l-98 -700h-40l46 332h-329q-73 0 -103 35.5t-20 108.5l32 224h40l-31 -218q-9 -63 12 -88.5t81 -25.5h323z" />
    <glyph glyph-name="five" unicode="5" 
d="M80 332l52 368h492l-5 -36h-452l-42 -296h338q73 0 101.5 -33.5t18.5 -106.5l-12 -88q-10 -73 -48 -106.5t-111 -33.5h-388l5 36h384q55 0 83 25.5t36 83.5l10 78q9 58 -12 83.5t-76 25.5h-374z" />
    <glyph glyph-name="six" unicode="6" 
d="M147 497l-17 -129h343q73 0 101.5 -33.5t18.5 -106.5l-12 -88q-10 -73 -48 -106.5t-111 -33.5h-244q-73 0 -101.5 33.5t-18.5 106.5l50 361q29 199 226 199h300l-5 -36h-292q-83 0 -130 -40t-60 -127zM464 332h-339l-26 -187q-8 -58 12.5 -83.5t75.5 -25.5h236
q55 0 83 25.5t36 83.5l10 78q9 58 -12 83.5t-76 25.5z" />
    <glyph glyph-name="seven" unicode="7" 
d="M451 368q64 0 93.5 25t38.5 91l26 180h-534l5 36h574l-32 -228q-20 -140 -160 -140h-72q-65 0 -94 -25t-38 -91l-30 -216h-40l31 228q21 140 160 140h72z" />
    <glyph glyph-name="eight" unicode="8" 
d="M634 560l-11 -82q-8 -57 -34.5 -88t-82.5 -40q53 -9 71 -40.5t10 -87.5l-12 -82q-10 -73 -47.5 -106.5t-110.5 -33.5h-249q-73 0 -101.5 33.5t-18.5 106.5l12 82q8 56 34.5 87.5t82.5 40.5q-54 9 -71.5 40t-9.5 88l11 82q11 73 48.5 106.5t110.5 33.5h249
q73 0 101.5 -33.5t17.5 -106.5zM224 368h239q59 0 85.5 25t34.5 85l11 77q8 59 -12.5 84t-75.5 25h-241q-55 0 -83 -25.5t-35 -83.5l-11 -77q-8 -60 10.5 -85t77.5 -25zM458 332h-239q-59 0 -85 -25t-34 -85l-11 -77q-8 -58 12.5 -83.5t75.5 -25.5h241q55 0 82.5 25.5
t35.5 83.5l11 77q8 60 -11 85t-78 25z" />
    <glyph glyph-name="nine" unicode="9" 
d="M495 700q73 0 101.5 -33.5t17.5 -106.5l-50 -361q-27 -199 -225 -199h-300l5 36h292q83 0 130 40.5t59 126.5l18 129h-344q-73 0 -101.5 33.5t-17.5 106.5l11 88q11 73 49 106.5t111 33.5h244zM131 555l-11 -78q-8 -59 12.5 -84t75.5 -25h340l26 187q8 58 -12.5 83.5
t-75.5 25.5h-236q-55 0 -83 -25.5t-36 -83.5z" />
    <glyph glyph-name="colon" unicode=":" horiz-adv-x="274" 
d="M202 524l-7 -51h-68l7 51h68zM136 51l-7 -51h-68l7 51h68z" />
    <glyph glyph-name="semicolon" unicode=";" horiz-adv-x="274" 
d="M136 51l-7 -47q-6 -46 -22.5 -65.5t-51.5 -19.5h-6l2 16h7q17 0 26.5 11.5t13.5 40.5l2 17h-39l7 47h68zM202 524l-7 -51h-68l7 51h68z" />
    <glyph glyph-name="less" unicode="&#x3c;" 
d="M76 350l208 206h48l-190 -189h438v-36h-437l189 -188h-48z" />
    <glyph glyph-name="equal" unicode="=" 
d="M87 211v36h481v-36h-481zM87 451v36h481v-36h-481z" />
    <glyph glyph-name="greater" unicode="&#x3e;" 
d="M372 556l208 -206l-208 -207h-48l189 188h-437v36h438l-190 189h48z" />
    <glyph glyph-name="question" unicode="?" horiz-adv-x="583" 
d="M531 477l11 78q8 58 -12.5 83.5t-75.5 25.5h-380l5 36h384q73 0 101.5 -33.5t17.5 -106.5l-11 -88q-11 -73 -49 -106.5t-111 -33.5h-91q-46 0 -68 -19t-29 -66l-11 -82h-40l12 85q16 118 134 118h94q55 0 83.5 25.5t35.5 83.5zM211 51l-7 -51h-69l7 51h69z" />
    <glyph glyph-name="at" unicode="@" horiz-adv-x="781" 
d="M201 0q-81 0 -114.5 39t-22.5 119l54 384q22 158 181 158h317q81 0 114.5 -39t22.5 -119l-54 -384q-22 -158 -181 -158h-317zM208 36h313q62 0 95.5 30t42.5 92l54 384q8 62 -17 92t-87 30h-313q-122 0 -138 -122l-54 -384q-18 -122 104 -122zM451 189h-137
q-41 0 -57 19.5t-11 61.5l3 16q6 42 27.5 61.5t62.5 19.5h185l8 59q7 48 -41 48h-201l5 36h194q50 0 69.5 -23t12.5 -73l-19 -136q-7 -46 -31 -67.5t-70 -21.5zM336 331q-23 0 -33 -8.5t-13 -30.5l-4 -28q-3 -22 4.5 -30.5t30.5 -8.5h142q40 0 47 41l9 65h-183z" />
    <glyph glyph-name="A" unicode="A" horiz-adv-x="689" 
d="M563 0h-40l46 332h-441l-46 -332h-40l77 556q21 144 164 144h235q73 0 103 -35.5t20 -108.5zM507 664h-223q-60 0 -88.5 -26t-37.5 -88l-25 -182h441l26 182q9 63 -12 88.5t-81 25.5z" />
    <glyph glyph-name="B" unicode="B" horiz-adv-x="683" 
d="M605 222l-12 -82q-10 -73 -47.5 -106.5t-110.5 -33.5h-382l98 700h382q73 0 101.5 -33.5t17.5 -106.5l-11 -82q-8 -57 -34.5 -88t-82.5 -40q53 -9 71 -40.5t10 -87.5zM481 368q59 0 85.5 25t34.5 85l11 77q8 59 -12.5 84t-75.5 25h-338l-42 -296h337zM139 332l-41 -296
h338q55 0 82.5 25.5t35.5 83.5l11 77q8 60 -11 85t-78 25h-337z" />
    <glyph glyph-name="C" unicode="C" horiz-adv-x="586" 
d="M195 0q-144 0 -123 144l57 412q21 144 164 144h320l-5 -36h-314q-60 0 -88 -25.5t-38 -88.5l-56 -400q-8 -63 13 -88.5t81 -25.5h314l-5 -36h-320z" />
    <glyph glyph-name="D" unicode="D" horiz-adv-x="683" 
d="M473 700q198 0 171 -199l-43 -302q-27 -199 -226 -199h-322l98 700h322zM373 36q84 0 130.5 40t58.5 127l41 294q13 87 -22.5 127t-119.5 40h-275l-88 -628h275z" />
    <glyph glyph-name="E" unicode="E" horiz-adv-x="642" 
d="M53 0l98 700h496l-5 -36h-456l-42 -296h365l-5 -36h-365l-41 -296h456l-5 -36h-496z" />
    <glyph glyph-name="F" unicode="F" horiz-adv-x="609" 
d="M53 0l98 700h493l-5 -36h-453l-42 -296h362l-5 -36h-362l-46 -332h-40z" />
    <glyph glyph-name="G" unicode="G" horiz-adv-x="661" 
d="M440 36q59 0 83 21t32 81l27 194h-237l5 36h277l-33 -234q-10 -71 -45 -102.5t-107 -31.5h-247q-144 0 -123 144l57 412q21 144 164 144h356l-5 -36h-350q-60 0 -88 -25.5t-38 -88.5l-56 -400q-8 -63 13 -88.5t81 -25.5h234z" />
    <glyph glyph-name="H" unicode="H" horiz-adv-x="729" 
d="M552 0l46 332h-459l-46 -332h-40l98 700h40l-47 -332h459l47 332h40l-98 -700h-40z" />
    <glyph glyph-name="I" unicode="I" horiz-adv-x="229" 
d="M53 0l98 700h40l-98 -700h-40z" />
    <glyph glyph-name="J" unicode="J" 
d="M38 134l30 208h40l-29 -204q-8 -61 9 -81.5t76 -20.5h225q60 0 88.5 25.5t36.5 88.5l78 550h40l-78 -556q-21 -144 -164 -144h-237q-72 0 -98.5 31t-16.5 103z" />
    <glyph glyph-name="K" unicode="K" horiz-adv-x="692" 
d="M672 700l-31 -219q-8 -58 -35.5 -90.5t-85.5 -40.5q56 -8 74.5 -40.5t9.5 -90.5l-30 -219h-40l30 219q9 60 -10.5 86.5t-77.5 26.5h-337l-46 -332h-40l97 700h40l-46 -332h337q58 0 84.5 26.5t35.5 86.5l31 219h40z" />
    <glyph glyph-name="L" unicode="L" horiz-adv-x="603" 
d="M546 36l-5 -36h-488l98 700h40l-93 -664h448z" />
    <glyph glyph-name="M" unicode="M" horiz-adv-x="978" 
d="M685 700h122q73 0 103 -35.5t20 -108.5l-78 -556h-40l77 550q9 63 -12 88.5t-81 25.5h-126q-61 0 -89 -25.5t-37 -88.5l-77 -550h-40l77 550q9 63 -12 88.5t-82 25.5h-126q-60 0 -88 -25.5t-38 -88.5l-76 -550h-40l77 556q21 144 164 144h122q67 0 96.5 -24.5t28.5 -81.5
q16 57 52 81.5t103 24.5z" />
    <glyph glyph-name="N" unicode="N" horiz-adv-x="689" 
d="M284 664q-60 0 -88 -25.5t-38 -88.5l-76 -550h-40l77 556q21 144 164 144h235q73 0 103 -35.5t20 -108.5l-78 -556h-40l77 550q9 63 -12 88.5t-81 25.5h-223z" />
    <glyph glyph-name="O" unicode="O" horiz-adv-x="669" 
d="M195 0q-144 0 -123 144l57 412q21 144 164 144h237q144 0 123 -144l-57 -412q-21 -144 -164 -144h-237zM556 150l56 400q10 63 -11.5 88.5t-81.5 25.5h-225q-60 0 -88 -25.5t-38 -88.5l-56 -400q-8 -63 13 -88.5t81 -25.5h225q60 0 88.5 25.5t36.5 88.5z" />
    <glyph glyph-name="P" unicode="P" horiz-adv-x="651" 
d="M53 0l98 700h380q73 0 102 -33.5t18 -106.5l-12 -88q-11 -73 -49 -106.5t-111 -33.5h-340l-46 -332h-40zM611 555q8 59 -13 84t-76 25h-336l-42 -296h336q56 0 84 25.5t35 83.5z" />
    <glyph glyph-name="Q" unicode="Q" horiz-adv-x="669" 
d="M195 0q-144 0 -123 144l57 412q21 144 164 144h237q144 0 123 -144l-57 -412q-21 -144 -164 -144h-101l-15 -109h-37l15 109h-99zM556 150l56 400q10 63 -11.5 88.5t-81.5 25.5h-225q-60 0 -88.5 -25.5t-37.5 -88.5l-56 -400q-8 -63 13 -88.5t81 -25.5h93l29 201h37
l-29 -201h95q60 0 88.5 25.5t36.5 88.5z" />
    <glyph glyph-name="R" unicode="R" horiz-adv-x="690" 
d="M652 560l-11 -82q-8 -57 -35 -88.5t-84 -40.5q54 -9 72 -41t10 -89l-30 -219h-40l30 219q9 60 -10.5 86.5t-77.5 26.5h-337l-46 -332h-40l98 700h382q73 0 101.5 -33.5t17.5 -106.5zM481 368q59 0 85.5 25t34.5 85l11 77q8 59 -12.5 84t-75.5 25h-338l-42 -296h337z" />
    <glyph glyph-name="S" unicode="S" horiz-adv-x="614" 
d="M204 332q-73 0 -102 33.5t-18 106.5l12 88q11 73 49 106.5t111 33.5h333l-5 -36h-329q-56 0 -84 -25.5t-35 -83.5l-12 -78q-8 -59 13 -84t76 -25h215q73 0 101.5 -33.5t18.5 -106.5l-12 -88q-10 -73 -48 -106.5t-111 -33.5h-364l5 36h360q55 0 83 25.5t36 83.5l10 78
q9 58 -12 83.5t-76 25.5h-215z" />
    <glyph glyph-name="T" unicode="T" horiz-adv-x="565" 
d="M601 700l-5 -36h-242l-93 -664h-40l93 664h-242l5 36h524z" />
    <glyph glyph-name="U" unicode="U" horiz-adv-x="689" 
d="M206 0q-144 0 -123 144l78 556h40l-78 -550q-8 -63 13 -88.5t81 -25.5h223q60 0 88 25.5t36 88.5l78 550h40l-78 -556q-11 -73 -50.5 -108.5t-112.5 -35.5h-235z" />
    <glyph glyph-name="V" unicode="V" horiz-adv-x="685" 
d="M53 0l98 700h40l-93 -664h265q84 0 130 40t58 127l70 497h40l-71 -501q-28 -199 -226 -199h-311z" />
    <glyph glyph-name="W" unicode="W" horiz-adv-x="978" 
d="M730 0h-122q-67 0 -97 24.5t-29 81.5q-16 -57 -51.5 -81.5t-102.5 -24.5h-122q-144 0 -123 144l78 556h40l-78 -550q-8 -63 13 -88.5t81 -25.5h126q61 0 89 25.5t36 88.5l78 550h40l-78 -550q-8 -63 13 -88.5t82 -25.5h126q60 0 88 25.5t36 88.5l78 550h40l-78 -556
q-11 -73 -50.5 -108.5t-112.5 -35.5z" />
    <glyph glyph-name="X" unicode="X" horiz-adv-x="675" 
d="M101 481l31 219h40l-31 -219q-9 -60 10.5 -86.5t77.5 -26.5h235q59 0 86 26.5t35 86.5l31 219h40l-31 -219q-8 -58 -36 -90.5t-85 -40.5q55 -8 73.5 -40.5t9.5 -90.5l-29 -219h-40l29 219q9 60 -10 86.5t-78 26.5h-235q-58 0 -85 -26.5t-36 -86.5l-29 -219h-40l29 219
q10 59 37 91t85 40q-56 8 -74 40.5t-10 90.5z" />
    <glyph glyph-name="Y" unicode="Y" horiz-adv-x="647" 
d="M622 700h40l-32 -224q-19 -144 -164 -144h-108l-46 -332h-40l46 332h-109q-73 0 -103 35.5t-20 108.5l32 224h40l-31 -218q-8 -63 12.5 -88.5t80.5 -25.5h245q61 0 89 25.5t37 88.5z" />
    <glyph glyph-name="Z" unicode="Z" horiz-adv-x="626" 
d="M397 368q78 0 114.5 31t48.5 112l21 153h-452l5 36h492l-27 -195q-26 -173 -197 -173h-163q-78 0 -114.5 -31t-48.5 -112l-20 -153h477l-5 -36h-517l26 195q26 173 197 173h163z" />
    <glyph glyph-name="bracketleft" unicode="[" horiz-adv-x="346" 
d="M151 700h202l-5 -36h-162l-100 -708h162l-5 -36h-202z" />
    <glyph glyph-name="backslash" unicode="\" horiz-adv-x="415" 
d="M71 700l310 -700h-40l-310 700h40z" />
    <glyph glyph-name="bracketright" unicode="]" horiz-adv-x="346" 
d="M105 700h202l-110 -780h-202l5 36h162l100 708h-162z" />
    <glyph glyph-name="asciicircum" unicode="^" 
d="M327 710l252 -333v-60l-252 333l-251 -333v60z" />
    <glyph glyph-name="underscore" unicode="_" horiz-adv-x="537" 
d="M495 -64v-36h-537v36h537z" />
    <glyph glyph-name="grave" unicode="`" horiz-adv-x="249" 
d="M211 663l-115 101h54l99 -101h-38z" />
    <glyph glyph-name="a" unicode="a" horiz-adv-x="589" 
d="M492 319l20 140q8 60 -12.5 84t-79.5 24h-293l5 36h300q72 0 101.5 -34t19.5 -107l-46 -321q-10 -73 -48.5 -107t-110.5 -34h-205q-64 0 -90.5 31t-17.5 97l9 63q10 66 44.5 97t98.5 31h305zM487 283h-303q-47 0 -69.5 -20t-30.5 -67l-9 -73q-7 -47 10.5 -67t64.5 -20
h196q59 0 86 24t36 84z" />
    <glyph glyph-name="b" unicode="b" horiz-adv-x="603" 
d="M66 141l89 629h40l-33 -230q31 63 124 63h161q73 0 102.5 -34t19.5 -107l-46 -321q-10 -73 -48.5 -107t-111.5 -34h-176q-72 0 -101.5 34t-19.5 107zM150 459l-43 -315q-9 -60 12 -84t80 -24h162q60 0 87 24t36 84l44 315q8 60 -12.5 84t-80.5 24h-162q-59 0 -86.5 -24
t-36.5 -84z" />
    <glyph glyph-name="c" unicode="c" horiz-adv-x="534" 
d="M176 0q-72 0 -101.5 34t-19.5 107l45 321q10 73 49 107t111 34h273l-5 -36h-266q-59 0 -86.5 -24t-36.5 -84l-43 -315q-9 -60 12 -84t80 -24h266l-5 -36h-273z" />
    <glyph glyph-name="d" unicode="d" horiz-adv-x="603" 
d="M601 770l-89 -629q-10 -73 -48.5 -107t-111.5 -34h-176q-72 0 -101.5 34t-19.5 107l45 321q10 73 49 107t111 34h161q94 0 107 -63l33 230h40zM473 144l44 315q8 60 -12.5 84t-80.5 24h-162q-59 0 -86.5 -24t-36.5 -84l-43 -315q-9 -60 12 -84t80 -24h162q60 0 87 24
t36 84z" />
    <glyph glyph-name="e" unicode="e" horiz-adv-x="589" 
d="M563 411q-17 -128 -143 -128h-305l-19 -139q-9 -60 12 -84t80 -24h293l-5 -36h-300q-73 0 -102 34.5t-19 107.5l45 320q10 73 49 107t111 34h205q64 0 90.5 -31t16.5 -97zM458 567h-196q-60 0 -87.5 -24.5t-35.5 -85.5l-19 -138h303q47 0 70 20t30 67l10 73
q7 48 -10.5 68t-64.5 20z" />
    <glyph glyph-name="f" unicode="f" horiz-adv-x="512" 
d="M282 567q-66 0 -100.5 -29t-44.5 -98l-16 -121h320l-5 -36h-320l-63 -450h-40l84 607q13 84 58.5 123.5t128.5 39.5h244l-5 -36h-241z" />
    <glyph glyph-name="g" unicode="g" horiz-adv-x="603" 
d="M347 37q60 0 87 24t36 84l44 314q8 60 -12.5 84t-80.5 24h-162q-59 0 -86.5 -24t-36.5 -84l-43 -314q-9 -59 12 -83.5t80 -24.5h162zM334 1h-161q-72 0 -101.5 34.5t-19.5 106.5l45 320q10 73 49 107t111 34h176q73 0 102.5 -34t19.5 -107l-64 -449q-13 -92 -63 -136
t-142 -44h-237l5 36h233q76 0 115 33t49 111l7 51q-31 -63 -124 -63z" />
    <glyph glyph-name="h" unicode="h" horiz-adv-x="625" 
d="M528 459q8 60 -12.5 84t-79.5 24h-162q-59 0 -86.5 -24t-36.5 -84l-63 -459h-40l108 770h40l-33 -230q31 63 124 63h161q72 0 101.5 -34t19.5 -107l-65 -462h-40z" />
    <glyph glyph-name="i" unicode="i" horiz-adv-x="292" 
d="M191 36h49l-5 -36h-55q-71 0 -97 30t-16 101l66 472h40l-66 -469q-8 -58 9 -78t75 -20zM205 730l-6 -41h-69l6 41h69z" />
    <glyph glyph-name="j" unicode="j" horiz-adv-x="232" 
d="M-87 -131h32q59 0 81 19t30 79l89 636h40l-90 -639q-10 -73 -43 -102t-106 -29h-38zM142 689l6 41h70l-6 -41h-70z" />
    <glyph glyph-name="k" unicode="k" horiz-adv-x="610" 
d="M517 390l29 213h40l-25 -187q-8 -54 -29.5 -81.5t-64.5 -33.5q41 -6 55 -33.5t6 -81.5l-26 -186h-40l29 212q5 38 -9.5 54.5t-52.5 16.5h-302l-39 -283h-40l108 770h40l-64 -451h302q38 0 57.5 16.5t25.5 54.5z" />
    <glyph glyph-name="l" unicode="l" horiz-adv-x="290" 
d="M189 36h49l-5 -36h-55q-71 0 -97 30t-16 101l90 639h40l-90 -636q-8 -58 9 -78t75 -20z" />
    <glyph glyph-name="m" unicode="m" horiz-adv-x="901" 
d="M479 507q16 53 51.5 74.5t103.5 21.5h90q72 0 101.5 -34t19.5 -107l-65 -462h-40l64 459q8 60 -12.5 84t-79.5 24h-98q-59 0 -86.5 -24t-35.5 -83l-64 -460h-40l64 460q8 59 -12 83t-79 24h-98q-59 0 -86.5 -24t-36.5 -84l-63 -459h-40l64 462q10 73 49 107t111 34h89
q68 0 98 -21.5t31 -74.5z" />
    <glyph glyph-name="n" unicode="n" horiz-adv-x="612" 
d="M37 0l64 462q10 73 49 107t111 34h174q72 0 101.5 -34t19.5 -107l-65 -462h-40l64 459q8 60 -12.5 84t-79.5 24h-160q-59 0 -86.5 -24t-36.5 -84l-63 -459h-40z" />
    <glyph glyph-name="o" unicode="o" horiz-adv-x="590" 
d="M434 603q73 0 102.5 -34t19.5 -107l-46 -321q-10 -73 -48.5 -107t-111.5 -34h-174q-72 0 -101.5 34t-19.5 107l45 321q10 73 49 107t111 34h174zM348 36q60 0 87 24t36 84l44 315q8 60 -12.5 84t-80.5 24h-160q-59 0 -86.5 -24t-36.5 -84l-43 -315q-9 -60 12 -84t80 -24
h160z" />
    <glyph glyph-name="p" unicode="p" horiz-adv-x="603" 
d="M13 -167l88 629q10 73 49 107t111 34h176q73 0 102.5 -34t19.5 -107l-46 -321q-10 -73 -48.5 -107t-111.5 -34h-161q-94 0 -107 63l-32 -230h-40zM140 459l-43 -315q-9 -60 12 -84t80 -24h162q60 0 87 24t36 84l44 315q8 60 -12.5 84t-80.5 24h-162q-59 0 -86.5 -24
t-36.5 -84z" />
    <glyph glyph-name="q" unicode="q" horiz-adv-x="603" 
d="M558 462l-89 -629h-40l32 230q-31 -63 -124 -63h-161q-72 0 -101.5 34t-19.5 107l45 321q10 73 49 107t111 34h176q73 0 102.5 -34t19.5 -107zM473 144l44 315q8 59 -12.5 83.5t-80.5 24.5h-162q-58 0 -86 -24.5t-37 -83.5l-43 -315q-8 -59 12.5 -83.5t79.5 -24.5h162
q59 0 87 24.5t36 83.5z" />
    <glyph glyph-name="r" unicode="r" horiz-adv-x="435" 
d="M452 603l-5 -36h-184q-59 0 -86.5 -24t-36.5 -84l-63 -459h-40l64 462q10 73 49 107t111 34h191z" />
    <glyph glyph-name="s" unicode="s" horiz-adv-x="551" 
d="M507 567h-288q-47 0 -69.5 -20t-30.5 -67l-9 -74q-7 -47 10 -67t64 -20h193q64 0 90.5 -31t16.5 -97l-9 -63q-17 -128 -142 -128h-320l5 36h318q47 0 69.5 20t29.5 67l10 73q7 47 -10.5 67t-64.5 20h-193q-64 0 -90 31t-17 97l9 64q10 66 44.5 97t98.5 31h290z" />
    <glyph glyph-name="t" unicode="t" horiz-adv-x="471" 
d="M187 0q-72 0 -101.5 34t-19.5 107l89 629h40l-24 -167h299l-5 -36h-299l-59 -423q-9 -60 12 -84t80 -24h192l-5 -36h-199z" />
    <glyph glyph-name="u" unicode="u" horiz-adv-x="612" 
d="M359 36q59 0 86 24t37 84l63 459h40l-64 -462q-10 -73 -49 -107t-111 -34h-174q-72 0 -101.5 34t-19.5 107l65 462h40l-64 -459q-9 -60 12 -84t80 -24h160z" />
    <glyph glyph-name="v" unicode="v" horiz-adv-x="608" 
d="M576 603l-58 -413q-14 -99 -65 -144.5t-149 -45.5h-256l84 603h40l-79 -567h213q80 0 120 34.5t52 117.5l58 415h40z" />
    <glyph glyph-name="w" unicode="w" horiz-adv-x="901" 
d="M431 96q-15 -53 -51 -74.5t-104 -21.5h-89q-72 0 -101.5 34t-19.5 107l65 462h40l-64 -459q-9 -60 12 -84t80 -24h98q59 0 86 24t35 83l64 460h40l-64 -460q-8 -59 12.5 -83t79.5 -24h98q59 0 86 24t36 84l64 459h40l-65 -462q-10 -73 -48.5 -107t-110.5 -34h-90
q-68 0 -98 22t-31 74z" />
    <glyph glyph-name="x" unicode="x" horiz-adv-x="608" 
d="M515 390l30 213h40l-26 -187q-8 -54 -29.5 -81.5t-64.5 -33.5q41 -6 55.5 -33.5t6.5 -81.5l-26 -186h-40l29 212q5 37 -9 54t-54 17h-252q-38 0 -57.5 -16.5t-24.5 -54.5l-29 -212h-40l25 186q8 54 29.5 81.5t64.5 33.5q-41 6 -55 33.5t-6 81.5l26 187h40l-30 -213
q-5 -37 9 -54t53 -17h252q39 0 58.5 16.5t24.5 54.5z" />
    <glyph glyph-name="y" unicode="y" horiz-adv-x="625" 
d="M296 -167h-236l5 36h232q76 0 115 33t49 111l8 51q-31 -63 -124 -63h-161q-72 0 -101.5 34.5t-19.5 106.5l65 461h40l-64 -458q-9 -59 12 -83.5t80 -24.5h162q59 0 86.5 24.5t36.5 83.5l63 458h40l-83 -590q-13 -92 -63 -136t-142 -44z" />
    <glyph glyph-name="z" unicode="z" horiz-adv-x="564" 
d="M215 283q-65 0 -98.5 -29.5t-43.5 -95.5l-16 -122h415l-5 -36h-455l20 155q25 164 187 164h128q65 0 99 29.5t43 95.5l17 123h-395l5 36h435l-22 -156q-22 -164 -186 -164h-128z" />
    <glyph glyph-name="braceleft" unicode="{" horiz-adv-x="317" 
d="M167 551l-19 -134q-7 -56 -25 -81.5t-60 -25.5q42 0 52.5 -25.5t2.5 -81.5l-19 -134q-9 -63 12 -88t82 -25h32l-5 -36h-41q-72 0 -101.5 34.5t-19.5 105.5l23 167q6 38 -1 51.5t-40 13.5h-12l5 36h12q33 0 43.5 13.5t16.5 51.5l23 167q19 140 161 140h41l-5 -36h-32
q-61 0 -89 -25t-37 -88z" />
    <glyph glyph-name="bar" unicode="|" horiz-adv-x="263" 
d="M122 -167v907h36v-907h-36z" />
    <glyph glyph-name="braceright" unicode="}" horiz-adv-x="317" 
d="M200 417l19 134q9 63 -12 88t-81 25h-32l5 36h41q72 0 101 -34.5t19 -105.5l-23 -167q-6 -38 1.5 -51.5t41.5 -13.5h12l-5 -36h-12q-33 0 -44.5 -13.5t-17.5 -51.5l-23 -167q-19 -140 -160 -140h-41l5 36h32q60 0 88 25t37 88l19 134q8 56 26 81.5t59 25.5
q-41 0 -51.5 25.5t-3.5 81.5z" />
    <glyph glyph-name="asciitilde" unicode="~" 
d="M76 306v47q47 54 113 54q46 0 139.5 -37t137.5 -37q67 0 114 64v-49q-46 -53 -113 -53q-47 0 -141 37t-137 37q-67 0 -113 -63z" />
    <glyph glyph-name="uni00A0" unicode="&#xa0;" horiz-adv-x="269" 
 />
    <glyph glyph-name="exclamdown" unicode="&#xa1;" horiz-adv-x="280" 
d="M145 579l7 51h68l-7 -51h-68zM68 -70l33 236q11 83 52 299h20q-13 -160 -32 -299l-33 -236h-40z" />
    <glyph glyph-name="cent" unicode="&#xa2;" 
d="M296 -40l13 90h-121q-72 0 -101.5 34t-19.5 107l44 318q11 73 50 107t111 34h121l13 90h36l-13 -90h222l-5 -36h-222l-74 -528h222l-5 -36h-222l-13 -90h-36zM200 86h114l74 528h-114q-59 0 -86.5 -24t-36.5 -84l-43 -312q-8 -60 12.5 -84t79.5 -24z" />
    <glyph glyph-name="sterling" unicode="&#xa3;" 
d="M156 36h408l-5 -36h-552l5 36h104l41 296h-104l5 36h104l27 189q19 143 163 143h258l-5 -36h-253q-59 0 -87 -24t-36 -84l-27 -188h361l-5 -36h-361z" />
    <glyph glyph-name="currency" unicode="&#xa4;" 
d="M98 510q0 73 33.5 107t106.5 34h72v89h36v-89h71q73 0 106.5 -34t33.5 -107v-142h72v-36h-72v-143q0 -73 -33.5 -107t-106.5 -34h-71v-88h-36v88h-72q-73 0 -106.5 34t-33.5 107v143h-71v36h71v142zM410 615h-164q-59 0 -83.5 -24t-24.5 -84v-315q0 -59 24 -83.5
t84 -24.5h164q58 0 82.5 24.5t24.5 83.5v315q0 59 -24 83.5t-83 24.5z" />
    <glyph glyph-name="yen" unicode="&#xa5;" 
d="M608 700h40l-24 -172q-11 -73 -50.5 -108t-112.5 -35h-105l-24 -171h232l-5 -36h-232l-25 -178h-40l25 178h-231l5 36h231l24 171h-105q-73 0 -103 35t-19 108l24 172h40l-24 -166q-8 -62 12.5 -87.5t82.5 -25.5h234q61 0 89.5 25t36.5 88z" />
    <glyph glyph-name="brokenbar" unicode="&#xa6;" horiz-adv-x="263" 
d="M122 -167v394h36v-394h-36zM122 347v393h36v-393h-36z" />
    <glyph glyph-name="section" unicode="&#xa7;" horiz-adv-x="670" 
d="M217 435h279q71 0 98.5 -33t17.5 -106l-4 -31q-14 -99 -110 -114q91 -15 78 -114l-5 -30q-10 -73 -47 -106t-108 -33h-403l5 36h400q54 0 80 22.5t33 76.5l5 34q7 52 -11.5 74t-69.5 22h-279q-71 0 -98.5 33t-17.5 106l4 31q14 99 110 114q-92 15 -78 114l4 30
q10 73 47.5 106t108.5 33h402l-5 -36h-399q-54 0 -80 -22.5t-33 -76.5l-5 -34q-7 -52 11.5 -74t69.5 -22zM488 399h-276q-51 0 -75.5 -22t-32.5 -74l-5 -35q-8 -54 11 -76.5t74 -22.5h276q51 0 75.5 22t32.5 74l5 35q8 54 -11.5 76.5t-73.5 22.5z" />
    <glyph glyph-name="dieresis" unicode="&#xa8;" horiz-adv-x="249" 
d="M125 730l-6 -41h-70l6 41h70zM314 730l-6 -41h-70l6 41h70z" />
    <glyph glyph-name="copyright" unicode="&#xa9;" horiz-adv-x="781" 
d="M328 189q-46 0 -67 21.5t-21 67.5v143q0 46 21 67.5t67 21.5h215v-36h-222q-19 0 -30 -11t-11 -30v-167q0 -19 11 -30t30 -11h222v-36h-215zM240 0q-81 0 -120 39t-39 119v384q0 80 39 119t120 39h317q81 0 120 -39t39 -119v-384q0 -80 -39 -119t-120 -39h-317zM242 36
h313q62 0 91.5 30t29.5 92v384q0 62 -29.5 92t-91.5 30h-313q-62 0 -91.5 -30t-29.5 -92v-384q0 -62 29.5 -92t91.5 -30z" />
    <glyph glyph-name="ordfeminine" unicode="&#xaa;" horiz-adv-x="515" 
d="M445 451l20 141q5 40 -8.5 56t-51.5 16h-276l5 36h272q59 0 82.5 -28t15.5 -86l-43 -306q-16 -114 -130 -114h-182q-59 0 -82 28t-15 86l8 57q8 58 39 86t90 28h256zM101 343l-10 -69q-5 -40 8.5 -56t51.5 -16h189q38 0 56.5 16.5t23.5 55.5l20 141h-259
q-38 0 -56.5 -16.5t-23.5 -55.5zM227 70l44 -70h-106z" />
    <glyph glyph-name="guillemotleft" unicode="&#xab;" horiz-adv-x="437" 
d="M199 51h-40l-129 249l199 249h42l-200 -251zM371 51h-40l-129 249l199 249h42l-200 -251z" />
    <glyph glyph-name="logicalnot" unicode="&#xac;" 
d="M76 331v36h504v-224h-36v188h-468z" />
    <glyph glyph-name="uni00AD" unicode="&#xad;" horiz-adv-x="408" 
d="M370 345l-5 -36h-319l5 36h319z" />
    <glyph glyph-name="registered" unicode="&#xae;" horiz-adv-x="781" 
d="M240 0q-81 0 -120 39t-39 119v384q0 80 39 119t120 39h317q81 0 120 -39t39 -119v-384q0 -80 -39 -119t-120 -39h-317zM242 36h313q62 0 91.5 30t29.5 92v384q0 62 -29.5 92t-91.5 30h-313q-62 0 -91.5 -30t-29.5 -92v-384q0 -62 29.5 -92t91.5 -30zM553 414
q0 -61 -55 -65q55 -5 55 -68v-92h-40v110q0 32 -30 32h-194v-142h-40v321h236q68 0 68 -68v-28zM513 448q0 26 -27 26h-197v-107h197q27 0 27 26v55z" />
    <glyph glyph-name="macron" unicode="&#xaf;" horiz-adv-x="249" 
d="M298 696h-236l4 28h236z" />
    <glyph glyph-name="degree" unicode="&#xb0;" horiz-adv-x="427" 
d="M66 574q0 126 133 126h75q134 0 134 -126v-132q0 -126 -134 -126h-75q-133 0 -133 126v132zM206 664q-56 0 -78 -21.5t-22 -77.5v-114q0 -56 22 -77.5t78 -21.5h61q56 0 78.5 22t22.5 77v114q0 55 -22.5 77t-78.5 22h-61z" />
    <glyph glyph-name="plusminus" unicode="&#xb1;" 
d="M580 0h-504v36h504v-36zM76 331v36h233v189h36v-189h235v-36h-235v-188h-36v188h-233z" />
    <glyph glyph-name="twosuperior" unicode="&#xb2;" horiz-adv-x="510" 
d="M455 528l8 59q6 43 -8 60t-56 17h-276l5 36h278q58 0 81.5 -28t15.5 -86l-8 -57q-16 -114 -129 -114h-149q-63 0 -90 -23.5t-35 -85.5l-15 -104h372l-5 -36h-412l20 146q19 139 159 139h158q42 0 61 17t25 60z" />
    <glyph glyph-name="threesuperior" unicode="&#xb3;" horiz-adv-x="510" 
d="M499 586l-7 -49q-7 -47 -26.5 -72.5t-68.5 -31.5q47 -6 60 -31.5t6 -72.5l-7 -49q-16 -114 -129 -114h-303l5 36h301q42 0 61 17t25 60l8 60q6 40 -9 58t-53 18h-227l5 36h227q38 0 58 18t26 58l8 60q6 43 -8 60t-56 17h-301l5 36h303q58 0 81.5 -28t15.5 -86z" />
    <glyph glyph-name="acute" unicode="&#xb4;" horiz-adv-x="249" 
d="M288 764l-147 -101h-40l127 101h60z" />
    <glyph glyph-name="uni00B5" unicode="&#xb5;" horiz-adv-x="625" 
d="M200 36h162q59 0 86 24t36 84l64 459h40l-65 -462q-10 -73 -48.5 -107t-110.5 -34h-161q-94 0 -107 63l-32 -230h-40l108 770h40l-64 -459q-9 -60 12 -84t80 -24z" />
    <glyph glyph-name="paragraph" unicode="&#xb6;" horiz-adv-x="696" 
d="M668 700l-117 -832h-40l112 796h-165l-112 -796h-40l57 407h-157q-83 0 -116.5 40t-22.5 123l13 99q12 83 57 123t129 40h402z" />
    <glyph glyph-name="periodcentered" unicode="&#xb7;" horiz-adv-x="274" 
d="M181 375l-7 -51h-68l7 51h68z" />
    <glyph glyph-name="cedilla" unicode="&#xb8;" horiz-adv-x="268" 
d="M83 -44h59q29 0 44 -7.5t15 -29.5q0 -71 -108 -71h-143l5 34h142q40 0 57 8t17 32q0 19 -33 19h-79l28 59h16z" />
    <glyph glyph-name="onesuperior" unicode="&#xb9;" horiz-adv-x="510" 
d="M108 166l5 36h157l65 462h-157l5 36h197l-70 -498h123l-5 -36h-320z" />
    <glyph glyph-name="ordmasculine" unicode="&#xba;" horiz-adv-x="528" 
d="M65 280l43 306q16 114 130 114h181q59 0 82.5 -28t15.5 -86l-43 -306q-16 -114 -130 -114h-181q-59 0 -82.5 28t-15.5 86zM353 202q38 0 56.5 16.5t23.5 55.5l45 318q5 40 -8.5 56t-51.5 16h-189q-38 0 -56.5 -16.5t-23.5 -55.5l-45 -318q-5 -40 8.5 -56t51.5 -16h189z
M240 70l44 -70h-106z" />
    <glyph glyph-name="guillemotright" unicode="&#xbb;" horiz-adv-x="437" 
d="M36 51h-41l199 249l-129 249h41l129 -249zM208 51h-42l200 249l-130 249h42l129 -249z" />
    <glyph glyph-name="onequarter" unicode="&#xbc;" horiz-adv-x="1112" 
d="M385 0l319 700h37l-319 -700h-37zM108 166l5 36h157l65 462h-157l5 36h197l-70 -498h123l-5 -36h-320zM984 285l35 249h40l-75 -534h-40l35 249h-224q-59 0 -82.5 28t-15.5 86l24 171h40l-25 -174q-5 -40 10.5 -57.5t53.5 -17.5h224z" />
    <glyph glyph-name="onehalf" unicode="&#xbd;" horiz-adv-x="1112" 
d="M385 0l319 700h37l-319 -700h-37zM108 166l5 36h157l65 462h-157l5 36h197l-70 -498h123l-5 -36h-320zM1033 362l8 59q6 43 -8 60t-56 17h-276l5 36h278q58 0 81.5 -28t15.5 -86l-8 -57q-16 -114 -129 -114h-149q-63 0 -90 -23.5t-35 -85.5l-15 -104h372l-5 -36h-412
l20 146q19 139 159 139h158q42 0 61 17t25 60z" />
    <glyph glyph-name="threequarters" unicode="&#xbe;" horiz-adv-x="1112" 
d="M385 0l319 700h37l-319 -700h-37zM984 285l35 249h40l-75 -534h-40l35 249h-224q-59 0 -82.5 28t-15.5 86l24 171h40l-25 -174q-5 -40 10.5 -57.5t53.5 -17.5h224zM499 586l-7 -49q-7 -47 -26.5 -72.5t-68.5 -31.5q47 -6 60 -31.5t6 -72.5l-7 -49q-16 -114 -129 -114
h-303l5 36h301q42 0 61 17t25 60l8 60q6 40 -9 58t-53 18h-227l5 36h227q38 0 58 18t26 58l8 60q6 43 -8 60t-56 17h-301l5 36h303q58 0 81.5 -28t15.5 -86z" />
    <glyph glyph-name="questiondown" unicode="&#xbf;" horiz-adv-x="579" 
d="M65 153l-10 -78q-8 -58 12.5 -83.5t75.5 -25.5h381l-5 -36h-385q-73 0 -101.5 33.5t-18.5 106.5l12 88q11 73 48.5 106.5t110.5 33.5h91q46 0 68 19t29 66l12 82h40l-12 -85q-16 -118 -135 -118h-94q-55 0 -82.5 -25.5t-36.5 -83.5zM386 579l7 51h69l-7 -51h-69z" />
    <glyph glyph-name="Agrave" unicode="&#xc0;" horiz-adv-x="689" 
d="M563 0h-40l46 332h-441l-46 -332h-40l77 556q21 144 164 144h235q73 0 103 -35.5t20 -108.5zM507 664h-223q-60 0 -88.5 -26t-37.5 -88l-25 -182h441l26 182q9 63 -12 88.5t-81 25.5zM421 751l-115 101h54l99 -101h-38z" />
    <glyph glyph-name="Aacute" unicode="&#xc1;" horiz-adv-x="689" 
d="M563 0h-40l46 332h-441l-46 -332h-40l77 556q21 144 164 144h235q73 0 103 -35.5t20 -108.5zM507 664h-223q-60 0 -88.5 -26t-37.5 -88l-25 -182h441l26 182q9 63 -12 88.5t-81 25.5zM541 852l-147 -101h-40l127 101h60z" />
    <glyph glyph-name="Acircumflex" unicode="&#xc2;" horiz-adv-x="689" 
d="M563 0h-40l46 332h-441l-46 -332h-40l77 556q21 144 164 144h235q73 0 103 -35.5t20 -108.5zM507 664h-223q-60 0 -88.5 -26t-37.5 -88l-25 -182h441l26 182q9 63 -12 88.5t-81 25.5zM418 825l-117 -74h-38l137 101h41l109 -101h-36z" />
    <glyph glyph-name="Atilde" unicode="&#xc3;" horiz-adv-x="689" 
d="M563 0h-40l46 332h-441l-46 -332h-40l77 556q21 144 164 144h235q73 0 103 -35.5t20 -108.5zM507 664h-223q-60 0 -88.5 -26t-37.5 -88l-25 -182h441l26 182q9 63 -12 88.5t-81 25.5zM289 759l5 34q37 37 70 37q20 0 52.5 -20.5t51.5 -20.5q31 0 67 39l-4 -34
q-39 -38 -72 -38q-20 0 -53 20.5t-51 20.5q-31 0 -66 -38z" />
    <glyph glyph-name="Adieresis" unicode="&#xc4;" horiz-adv-x="689" 
d="M563 0h-40l46 332h-441l-46 -332h-40l77 556q21 144 164 144h235q73 0 103 -35.5t20 -108.5zM507 664h-223q-60 0 -88.5 -26t-37.5 -88l-25 -182h441l26 182q9 63 -12 88.5t-81 25.5zM356 818l-6 -41h-70l6 41h70zM545 818l-6 -41h-70l6 41h70z" />
    <glyph glyph-name="Aring" unicode="&#xc5;" horiz-adv-x="689" 
d="M563 0h-40l46 332h-441l-46 -332h-40l77 556q21 144 164 144h235q73 0 103 -35.5t20 -108.5zM507 664h-223q-60 0 -88.5 -26t-37.5 -88l-25 -182h441l26 182q9 63 -12 88.5t-81 25.5zM397 772h25q41 0 41 36q0 24 -33 24h-25q-41 0 -41 -36q0 -24 33 -24zM408 853h25
q53 0 53 -42q0 -28 -17 -44t-50 -16h-25q-53 0 -53 42q0 28 17 44t50 16z" />
    <glyph glyph-name="AE" unicode="&#xc6;" horiz-adv-x="1026" 
d="M478 0l46 332h-396l-46 -332h-40l77 556q21 144 164 144h749l-5 -36h-420l-42 -296h328l-5 -36h-328l-41 -296h420l-5 -36h-456zM284 664q-60 0 -88 -25.5t-38 -88.5l-25 -182h396l42 296h-287z" />
    <glyph glyph-name="Ccedilla" unicode="&#xc7;" horiz-adv-x="586" 
d="M349 -59h-79l28 59h-103q-144 0 -123 144l57 412q21 144 164 144h320l-5 -36h-314q-60 0 -88 -25.5t-38 -88.5l-56 -400q-8 -63 13 -88.5t81 -25.5h314l-5 -36h-201l-20 -44h59q29 0 44 -7.5t15 -29.5q0 -71 -108 -71h-143l5 34h142q40 0 57 8t17 32q0 19 -33 19z" />
    <glyph glyph-name="Egrave" unicode="&#xc8;" horiz-adv-x="642" 
d="M53 0l98 700h496l-5 -36h-456l-42 -296h365l-5 -36h-365l-41 -296h456l-5 -36h-496zM415 751l-115 101h54l99 -101h-38z" />
    <glyph glyph-name="Eacute" unicode="&#xc9;" horiz-adv-x="642" 
d="M53 0l98 700h496l-5 -36h-456l-42 -296h365l-5 -36h-365l-41 -296h456l-5 -36h-496zM535 852l-147 -101h-40l127 101h60z" />
    <glyph glyph-name="Ecircumflex" unicode="&#xca;" horiz-adv-x="642" 
d="M53 0l98 700h496l-5 -36h-456l-42 -296h365l-5 -36h-365l-41 -296h456l-5 -36h-496zM412 825l-117 -74h-38l137 101h41l109 -101h-36z" />
    <glyph glyph-name="Edieresis" unicode="&#xcb;" horiz-adv-x="642" 
d="M53 0l98 700h496l-5 -36h-456l-42 -296h365l-5 -36h-365l-41 -296h456l-5 -36h-496zM350 818l-6 -41h-70l6 41h70zM539 818l-6 -41h-70l6 41h70z" />
    <glyph glyph-name="Igrave" unicode="&#xcc;" horiz-adv-x="229" 
d="M53 0l98 700h40l-98 -700h-40zM193 751l-115 101h54l99 -101h-38z" />
    <glyph glyph-name="Iacute" unicode="&#xcd;" horiz-adv-x="229" 
d="M53 0l98 700h40l-98 -700h-40zM312 852l-147 -101h-40l127 101h60z" />
    <glyph glyph-name="Icircumflex" unicode="&#xce;" horiz-adv-x="229" 
d="M53 0l98 700h40l-98 -700h-40zM189 825l-117 -74h-38l137 101h41l109 -101h-36z" />
    <glyph glyph-name="Idieresis" unicode="&#xcf;" horiz-adv-x="229" 
d="M303 818l-5 -41h-70l5 41h70zM140 818l-5 -41h-70l5 41h70zM53 0l98 700h40l-98 -700h-40z" />
    <glyph glyph-name="Eth" unicode="&#xd0;" horiz-adv-x="684" 
d="M473 700q198 0 171 -199l-43 -302q-27 -199 -226 -199h-322l46 332h-74l5 36h74l47 332h322zM373 36q84 0 130.5 40t58.5 127l41 294q13 87 -22.5 127t-119.5 40h-275l-42 -296h122l-5 -36h-122l-41 -296h275z" />
    <glyph glyph-name="Ntilde" unicode="&#xd1;" horiz-adv-x="689" 
d="M284 664q-60 0 -88 -25.5t-38 -88.5l-76 -550h-40l77 556q21 144 164 144h235q73 0 103 -35.5t20 -108.5l-78 -556h-40l77 550q9 63 -12 88.5t-81 25.5h-223zM289 759l5 34q37 37 70 37q20 0 52.5 -20.5t51.5 -20.5q31 0 67 39l-4 -34q-39 -38 -72 -38q-20 0 -53 20.5
t-51 20.5q-31 0 -66 -38z" />
    <glyph glyph-name="Ograve" unicode="&#xd2;" horiz-adv-x="669" 
d="M195 0q-144 0 -123 144l57 412q21 144 164 144h237q144 0 123 -144l-57 -412q-21 -144 -164 -144h-237zM556 150l56 400q10 63 -11.5 88.5t-81.5 25.5h-225q-60 0 -88 -25.5t-38 -88.5l-56 -400q-8 -63 13 -88.5t81 -25.5h225q60 0 88.5 25.5t36.5 88.5zM432 751
l-115 101h54l99 -101h-38z" />
    <glyph glyph-name="Oacute" unicode="&#xd3;" horiz-adv-x="669" 
d="M195 0q-144 0 -123 144l57 412q21 144 164 144h237q144 0 123 -144l-57 -412q-21 -144 -164 -144h-237zM556 150l56 400q10 63 -11.5 88.5t-81.5 25.5h-225q-60 0 -88 -25.5t-38 -88.5l-56 -400q-8 -63 13 -88.5t81 -25.5h225q60 0 88.5 25.5t36.5 88.5zM552 852
l-147 -101h-40l127 101h60z" />
    <glyph glyph-name="Ocircumflex" unicode="&#xd4;" horiz-adv-x="669" 
d="M195 0q-144 0 -123 144l57 412q21 144 164 144h237q144 0 123 -144l-57 -412q-21 -144 -164 -144h-237zM556 150l56 400q10 63 -11.5 88.5t-81.5 25.5h-225q-60 0 -88 -25.5t-38 -88.5l-56 -400q-8 -63 13 -88.5t81 -25.5h225q60 0 88.5 25.5t36.5 88.5zM430 825
l-117 -74h-38l137 101h41l109 -101h-36z" />
    <glyph glyph-name="Otilde" unicode="&#xd5;" horiz-adv-x="669" 
d="M195 0q-144 0 -123 144l57 412q21 144 164 144h237q144 0 123 -144l-57 -412q-21 -144 -164 -144h-237zM556 150l56 400q10 63 -11.5 88.5t-81.5 25.5h-225q-60 0 -88 -25.5t-38 -88.5l-56 -400q-8 -63 13 -88.5t81 -25.5h225q60 0 88.5 25.5t36.5 88.5zM301 759l5 34
q37 37 70 37q20 0 52.5 -20.5t51.5 -20.5q31 0 67 39l-4 -34q-39 -38 -72 -38q-20 0 -53 20.5t-51 20.5q-31 0 -66 -38z" />
    <glyph glyph-name="Odieresis" unicode="&#xd6;" horiz-adv-x="669" 
d="M195 0q-144 0 -123 144l57 412q21 144 164 144h237q144 0 123 -144l-57 -412q-21 -144 -164 -144h-237zM556 150l56 400q10 63 -11.5 88.5t-81.5 25.5h-225q-60 0 -88 -25.5t-38 -88.5l-56 -400q-8 -63 13 -88.5t81 -25.5h225q60 0 88.5 25.5t36.5 88.5zM368 818l-6 -41
h-70l6 41h70zM557 818l-6 -41h-70l6 41h70z" />
    <glyph glyph-name="multiply" unicode="&#xd7;" 
d="M369 331l139 -188h-42l-139 188l-140 -188h-41l140 188h-210v36h210l-140 189h41l140 -189l139 189h42l-139 -189h211v-36h-211z" />
    <glyph glyph-name="Oslash" unicode="&#xd8;" horiz-adv-x="669" 
d="M195 0q-144 0 -123 144l57 412q21 144 164 144h237q144 0 123 -144l-57 -412q-21 -144 -164 -144h-237zM112 150q-10 -71 20 -96l426 606q-15 4 -39 4h-225q-60 0 -88 -25.5t-38 -88.5zM556 150l56 400q11 72 -19 96l-427 -607q18 -3 40 -3h225q60 0 88.5 25.5t36.5 88.5
z" />
    <glyph glyph-name="Ugrave" unicode="&#xd9;" horiz-adv-x="689" 
d="M206 0q-144 0 -123 144l78 556h40l-78 -550q-8 -63 13 -88.5t81 -25.5h223q60 0 88 25.5t36 88.5l78 550h40l-78 -556q-11 -73 -50.5 -108.5t-112.5 -35.5h-235zM442 751l-115 101h54l99 -101h-38z" />
    <glyph glyph-name="Uacute" unicode="&#xda;" horiz-adv-x="689" 
d="M206 0q-144 0 -123 144l78 556h40l-78 -550q-8 -63 13 -88.5t81 -25.5h223q60 0 88 25.5t36 88.5l78 550h40l-78 -556q-11 -73 -50.5 -108.5t-112.5 -35.5h-235zM562 852l-147 -101h-40l127 101h60z" />
    <glyph glyph-name="Ucircumflex" unicode="&#xdb;" horiz-adv-x="689" 
d="M206 0q-144 0 -123 144l78 556h40l-78 -550q-8 -63 13 -88.5t81 -25.5h223q60 0 88 25.5t36 88.5l78 550h40l-78 -556q-11 -73 -50.5 -108.5t-112.5 -35.5h-235zM439 825l-117 -74h-38l137 101h41l109 -101h-36z" />
    <glyph glyph-name="Udieresis" unicode="&#xdc;" horiz-adv-x="689" 
d="M206 0q-144 0 -123 144l78 556h40l-78 -550q-8 -63 13 -88.5t81 -25.5h223q60 0 88 25.5t36 88.5l78 550h40l-78 -556q-11 -73 -50.5 -108.5t-112.5 -35.5h-235zM377 818l-6 -41h-70l6 41h70zM566 818l-6 -41h-70l6 41h70z" />
    <glyph glyph-name="Yacute" unicode="&#xdd;" horiz-adv-x="647" 
d="M622 700h40l-32 -224q-19 -144 -164 -144h-108l-46 -332h-40l46 332h-109q-73 0 -103 35.5t-20 108.5l32 224h40l-31 -218q-8 -63 12.5 -88.5t80.5 -25.5h245q61 0 89 25.5t37 88.5zM530 852l-147 -101h-40l127 101h60z" />
    <glyph glyph-name="Thorn" unicode="&#xde;" horiz-adv-x="651" 
d="M53 0l98 700h40l-14 -97h340q73 0 102 -33.5t19 -106.5l-13 -88q-10 -73 -48 -106.5t-111 -33.5h-340l-33 -235h-40zM597 458q8 58 -12.5 83.5t-76.5 25.5h-336l-41 -296h336q56 0 83.5 25.5t35.5 83.5z" />
    <glyph glyph-name="germandbls" unicode="&#xdf;" horiz-adv-x="623" 
d="M437 283h-213l5 36h213q51 0 73 20t29 71l8 58q8 54 -11.5 76.5t-73.5 22.5h-185q-66 0 -100.5 -29t-44.5 -98l-84 -607h-40l84 607q13 84 58.5 123.5t128.5 39.5h191q71 0 99 -33t18 -106l-8 -54q-7 -50 -31.5 -76.5t-73.5 -32.5q48 -6 64.5 -32.5t9.5 -76.5l-7 -53
q-10 -73 -47 -106t-108 -33h-206l5 36h203q54 0 79 22.5t33 76.5l8 57q8 51 -8.5 71t-67.5 20z" />
    <glyph glyph-name="agrave" unicode="&#xe0;" horiz-adv-x="589" 
d="M492 319l20 140q8 60 -12.5 84t-79.5 24h-293l5 36h300q72 0 101.5 -34t19.5 -107l-46 -321q-10 -73 -48.5 -107t-110.5 -34h-205q-64 0 -90.5 31t-17.5 97l9 63q10 66 44.5 97t98.5 31h305zM487 283h-303q-47 0 -69.5 -20t-30.5 -67l-9 -73q-7 -47 10.5 -67t64.5 -20
h196q59 0 86 24t36 84zM363 663l-115 101h54l99 -101h-38z" />
    <glyph glyph-name="aacute" unicode="&#xe1;" horiz-adv-x="589" 
d="M492 319l20 140q8 60 -12.5 84t-79.5 24h-293l5 36h300q72 0 101.5 -34t19.5 -107l-46 -321q-10 -73 -48.5 -107t-110.5 -34h-205q-64 0 -90.5 31t-17.5 97l9 63q10 66 44.5 97t98.5 31h305zM487 283h-303q-47 0 -69.5 -20t-30.5 -67l-9 -73q-7 -47 10.5 -67t64.5 -20
h196q59 0 86 24t36 84zM482 764l-147 -101h-40l127 101h60z" />
    <glyph glyph-name="acircumflex" unicode="&#xe2;" horiz-adv-x="589" 
d="M492 319l20 140q8 60 -12.5 84t-79.5 24h-293l5 36h300q72 0 101.5 -34t19.5 -107l-46 -321q-10 -73 -48.5 -107t-110.5 -34h-205q-64 0 -90.5 31t-17.5 97l9 63q10 66 44.5 97t98.5 31h305zM487 283h-303q-47 0 -69.5 -20t-30.5 -67l-9 -73q-7 -47 10.5 -67t64.5 -20
h196q59 0 86 24t36 84zM361 737l-117 -74h-38l137 101h41l109 -101h-36z" />
    <glyph glyph-name="atilde" unicode="&#xe3;" horiz-adv-x="589" 
d="M492 319l20 140q8 60 -12.5 84t-79.5 24h-293l5 36h300q72 0 101.5 -34t19.5 -107l-46 -321q-10 -73 -48.5 -107t-110.5 -34h-205q-64 0 -90.5 31t-17.5 97l9 63q10 66 44.5 97t98.5 31h305zM487 283h-303q-47 0 -69.5 -20t-30.5 -67l-9 -73q-7 -47 10.5 -67t64.5 -20
h196q59 0 86 24t36 84zM232 671l5 34q37 37 70 37q20 0 52.5 -20.5t51.5 -20.5q31 0 67 39l-4 -34q-39 -38 -72 -38q-20 0 -53 20.5t-51 20.5q-31 0 -66 -38z" />
    <glyph glyph-name="adieresis" unicode="&#xe4;" horiz-adv-x="589" 
d="M492 319l20 140q8 60 -12.5 84t-79.5 24h-293l5 36h300q72 0 101.5 -34t19.5 -107l-46 -321q-10 -73 -48.5 -107t-110.5 -34h-205q-64 0 -90.5 31t-17.5 97l9 63q10 66 44.5 97t98.5 31h305zM487 283h-303q-47 0 -69.5 -20t-30.5 -67l-9 -73q-7 -47 10.5 -67t64.5 -20
h196q59 0 86 24t36 84zM299 730l-6 -41h-70l6 41h70zM488 730l-6 -41h-70l6 41h70z" />
    <glyph glyph-name="aring" unicode="&#xe5;" horiz-adv-x="589" 
d="M492 319l20 140q8 60 -12.5 84t-79.5 24h-293l5 36h300q72 0 101.5 -34t19.5 -107l-46 -321q-10 -73 -48.5 -107t-110.5 -34h-205q-64 0 -90.5 31t-17.5 97l9 63q10 66 44.5 97t98.5 31h305zM487 283h-303q-47 0 -69.5 -20t-30.5 -67l-9 -73q-7 -47 10.5 -67t64.5 -20
h196q59 0 86 24t36 84zM339 684h25q41 0 41 36q0 24 -33 24h-25q-41 0 -41 -36q0 -24 33 -24zM350 765h25q53 0 53 -42q0 -28 -17 -44t-50 -16h-25q-53 0 -53 42q0 28 17 44t50 16z" />
    <glyph glyph-name="ae" unicode="&#xe6;" horiz-adv-x="871" 
d="M805 406l9 74q7 47 -10 67t-65 20h-131q-59 0 -86 -24t-35 -83l-20 -141h237q47 0 70.5 20t30.5 67zM84 196l-9 -73q-7 -47 10.5 -67t64.5 -20h131q59 0 86 24t36 83l19 140h-238q-47 0 -69.5 -20t-30.5 -67zM261 0h-118q-64 0 -90.5 31t-17.5 97l9 63q10 66 44.5 97
t98.5 31h240l20 141q8 59 -12.5 83t-79.5 24h-228l5 36h213q68 0 98 -22t30 -74q16 53 52 74.5t104 21.5h117q65 0 91.5 -31t16.5 -97l-9 -64q-17 -128 -144 -128h-239l-19 -140q-9 -59 11.5 -83t79.5 -24h229l-5 -36h-213q-68 0 -98 21.5t-31 74.5q-16 -53 -51.5 -74.5
t-103.5 -21.5z" />
    <glyph glyph-name="ccedilla" unicode="&#xe7;" horiz-adv-x="534" 
d="M259 -152h-143l5 34h142q40 0 57 8t17 32q0 19 -33 19h-79l28 59h-77q-72 0 -101.5 34t-19.5 107l45 321q10 73 49 107t111 34h273l-5 -36h-266q-59 0 -86.5 -24t-36.5 -84l-43 -315q-9 -60 12 -84t80 -24h266l-5 -36h-180l-20 -44h59q29 0 44 -7.5t15 -29.5
q0 -71 -108 -71z" />
    <glyph glyph-name="egrave" unicode="&#xe8;" horiz-adv-x="589" 
d="M563 411q-17 -128 -143 -128h-305l-19 -139q-9 -60 12 -84t80 -24h293l-5 -36h-300q-73 0 -102 34.5t-19 107.5l45 320q10 73 49 107t111 34h205q64 0 90.5 -31t16.5 -97zM458 567h-196q-60 0 -87.5 -24.5t-35.5 -85.5l-19 -138h303q47 0 70 20t30 67l10 73
q7 48 -10.5 68t-64.5 20zM385 663l-115 101h54l99 -101h-38z" />
    <glyph glyph-name="eacute" unicode="&#xe9;" horiz-adv-x="589" 
d="M563 411q-17 -128 -143 -128h-305l-19 -139q-9 -60 12 -84t80 -24h293l-5 -36h-300q-73 0 -102 34.5t-19 107.5l45 320q10 73 49 107t111 34h205q64 0 90.5 -31t16.5 -97zM458 567h-196q-60 0 -87.5 -24.5t-35.5 -85.5l-19 -138h303q47 0 70 20t30 67l10 73
q7 48 -10.5 68t-64.5 20zM505 764l-147 -101h-40l127 101h60z" />
    <glyph glyph-name="ecircumflex" unicode="&#xea;" horiz-adv-x="589" 
d="M563 411q-17 -128 -143 -128h-305l-19 -139q-9 -60 12 -84t80 -24h293l-5 -36h-300q-73 0 -102 34.5t-19 107.5l45 320q10 73 49 107t111 34h205q64 0 90.5 -31t16.5 -97zM458 567h-196q-60 0 -87.5 -24.5t-35.5 -85.5l-19 -138h303q47 0 70 20t30 67l10 73
q7 48 -10.5 68t-64.5 20zM382 737l-117 -74h-38l137 101h41l109 -101h-36z" />
    <glyph glyph-name="edieresis" unicode="&#xeb;" horiz-adv-x="589" 
d="M563 411q-17 -128 -143 -128h-305l-19 -139q-9 -60 12 -84t80 -24h293l-5 -36h-300q-73 0 -102 34.5t-19 107.5l45 320q10 73 49 107t111 34h205q64 0 90.5 -31t16.5 -97zM458 567h-196q-60 0 -87.5 -24.5t-35.5 -85.5l-19 -138h303q47 0 70 20t30 67l10 73
q7 48 -10.5 68t-64.5 20zM320 730l-6 -41h-70l6 41h70zM509 730l-6 -41h-70l6 41h70z" />
    <glyph glyph-name="igrave" unicode="&#xec;" horiz-adv-x="292" 
d="M197 663l-115 101h54l99 -101h-38zM191 36h49l-5 -36h-55q-71 0 -97 30t-16 101l66 472h40l-66 -469q-8 -58 9 -78t75 -20z" />
    <glyph glyph-name="iacute" unicode="&#xed;" horiz-adv-x="292" 
d="M305 764l-147 -101h-40l127 101h60zM191 36h49l-5 -36h-55q-71 0 -97 30t-16 101l66 472h40l-66 -469q-8 -58 9 -78t75 -20z" />
    <glyph glyph-name="icircumflex" unicode="&#xee;" horiz-adv-x="292" 
d="M181 36h49l-5 -36h-55q-71 0 -97 30t-16 101l66 472h40l-66 -469q-8 -58 9 -78t75 -20zM163 737l-117 -74h-38l137 101h41l109 -101h-36z" />
    <glyph glyph-name="idieresis" unicode="&#xef;" horiz-adv-x="292" 
d="M286 730l-6 -41h-69l6 41h69zM104 730l-6 -41h-69l6 41h69zM181 36h49l-5 -36h-55q-71 0 -97 30t-16 101l66 472h40l-66 -469q-8 -58 9 -78t75 -20z" />
    <glyph glyph-name="eth" unicode="&#xf0;" horiz-adv-x="603" 
d="M260 602h161q49 0 74 -15t33 -48l7 51q11 78 -18.5 111t-104.5 33h-29l-12 -86h-33l12 86h-171l5 36h171l7 50h33l-7 -50h33q92 0 129.5 -44t24.5 -136l-63 -449q-10 -73 -48.5 -107t-111.5 -34h-176q-72 0 -101.5 34t-19.5 107l45 320q19 141 160 141zM424 566h-162
q-59 0 -87 -24.5t-36 -83.5l-43 -314q-9 -60 12 -84t80 -24h162q60 0 87 24t36 84l43 314q9 59 -12 83.5t-80 24.5z" />
    <glyph glyph-name="ntilde" unicode="&#xf1;" horiz-adv-x="612" 
d="M37 0l64 462q10 73 49 107t111 34h174q72 0 101.5 -34t19.5 -107l-65 -462h-40l64 459q8 60 -12.5 84t-79.5 24h-160q-59 0 -86.5 -24t-36.5 -84l-63 -459h-40zM239 671l5 34q37 37 70 37q20 0 52.5 -20.5t51.5 -20.5q31 0 67 39l-4 -34q-39 -38 -72 -38q-20 0 -53 20.5
t-51 20.5q-31 0 -66 -38z" />
    <glyph glyph-name="ograve" unicode="&#xf2;" horiz-adv-x="590" 
d="M434 603q73 0 102.5 -34t19.5 -107l-46 -321q-10 -73 -48.5 -107t-111.5 -34h-174q-72 0 -101.5 34t-19.5 107l45 321q10 73 49 107t111 34h174zM348 36q60 0 87 24t36 84l44 315q8 60 -12.5 84t-80.5 24h-160q-59 0 -86.5 -24t-36.5 -84l-43 -315q-9 -60 12 -84t80 -24
h160zM370 663l-115 101h54l99 -101h-38z" />
    <glyph glyph-name="oacute" unicode="&#xf3;" horiz-adv-x="590" 
d="M434 603q73 0 102.5 -34t19.5 -107l-46 -321q-10 -73 -48.5 -107t-111.5 -34h-174q-72 0 -101.5 34t-19.5 107l45 321q10 73 49 107t111 34h174zM348 36q60 0 87 24t36 84l44 315q8 60 -12.5 84t-80.5 24h-160q-59 0 -86.5 -24t-36.5 -84l-43 -315q-9 -60 12 -84t80 -24
h160zM490 764l-147 -101h-40l127 101h60z" />
    <glyph glyph-name="ocircumflex" unicode="&#xf4;" horiz-adv-x="590" 
d="M434 603q73 0 102.5 -34t19.5 -107l-46 -321q-10 -73 -48.5 -107t-111.5 -34h-174q-72 0 -101.5 34t-19.5 107l45 321q10 73 49 107t111 34h174zM348 36q60 0 87 24t36 84l44 315q8 60 -12.5 84t-80.5 24h-160q-59 0 -86.5 -24t-36.5 -84l-43 -315q-9 -60 12 -84t80 -24
h160zM368 737l-117 -74h-38l137 101h41l109 -101h-36z" />
    <glyph glyph-name="otilde" unicode="&#xf5;" horiz-adv-x="590" 
d="M434 603q73 0 102.5 -34t19.5 -107l-46 -321q-10 -73 -48.5 -107t-111.5 -34h-174q-72 0 -101.5 34t-19.5 107l45 321q10 73 49 107t111 34h174zM348 36q60 0 87 24t36 84l44 315q8 60 -12.5 84t-80.5 24h-160q-59 0 -86.5 -24t-36.5 -84l-43 -315q-9 -60 12 -84t80 -24
h160zM239 671l5 34q37 37 70 37q20 0 52.5 -20.5t51.5 -20.5q31 0 67 39l-4 -34q-39 -38 -72 -38q-20 0 -53 20.5t-51 20.5q-31 0 -66 -38z" />
    <glyph glyph-name="odieresis" unicode="&#xf6;" horiz-adv-x="590" 
d="M434 603q73 0 102.5 -34t19.5 -107l-46 -321q-10 -73 -48.5 -107t-111.5 -34h-174q-72 0 -101.5 34t-19.5 107l45 321q10 73 49 107t111 34h174zM348 36q60 0 87 24t36 84l44 315q8 60 -12.5 84t-80.5 24h-160q-59 0 -86.5 -24t-36.5 -84l-43 -315q-9 -60 12 -84t80 -24
h160zM306 730l-6 -41h-70l6 41h70zM495 730l-6 -41h-70l6 41h70z" />
    <glyph glyph-name="divide" unicode="&#xf7;" 
d="M364 150v-51h-71v51h71zM364 601v-51h-71v51h71zM580 331h-504v36h504v-36z" />
    <glyph glyph-name="oslash" unicode="&#xf8;" horiz-adv-x="590" 
d="M434 603q73 0 102.5 -34t19.5 -107l-46 -321q-10 -73 -48.5 -107t-111.5 -34h-174q-72 0 -101.5 34t-19.5 107l45 321q10 73 49 107t111 34h174zM348 36q60 0 87 24t36 84l44 315q11 80 -35 100l-327 -521q10 -2 34 -2h161zM96 144q-12 -71 23 -94l323 516q-6 1 -19 1
h-161q-59 0 -86.5 -24t-36.5 -84z" />
    <glyph glyph-name="ugrave" unicode="&#xf9;" horiz-adv-x="612" 
d="M359 36q59 0 86 24t37 84l63 459h40l-64 -462q-10 -73 -49 -107t-111 -34h-174q-72 0 -101.5 34t-19.5 107l65 462h40l-64 -459q-9 -60 12 -84t80 -24h160zM381 663l-115 101h54l99 -101h-38z" />
    <glyph glyph-name="uacute" unicode="&#xfa;" horiz-adv-x="612" 
d="M359 36q59 0 86 24t37 84l63 459h40l-64 -462q-10 -73 -49 -107t-111 -34h-174q-72 0 -101.5 34t-19.5 107l65 462h40l-64 -459q-9 -60 12 -84t80 -24h160zM501 764l-147 -101h-40l127 101h60z" />
    <glyph glyph-name="ucircumflex" unicode="&#xfb;" horiz-adv-x="612" 
d="M359 36q59 0 86 24t37 84l63 459h40l-64 -462q-10 -73 -49 -107t-111 -34h-174q-72 0 -101.5 34t-19.5 107l65 462h40l-64 -459q-9 -60 12 -84t80 -24h160zM378 737l-117 -74h-38l137 101h41l109 -101h-36z" />
    <glyph glyph-name="udieresis" unicode="&#xfc;" horiz-adv-x="612" 
d="M359 36q59 0 86 24t37 84l63 459h40l-64 -462q-10 -73 -49 -107t-111 -34h-174q-72 0 -101.5 34t-19.5 107l65 462h40l-64 -459q-9 -60 12 -84t80 -24h160zM316 730l-6 -41h-70l6 41h70zM505 730l-6 -41h-70l6 41h70z" />
    <glyph glyph-name="yacute" unicode="&#xfd;" horiz-adv-x="625" 
d="M296 -167h-236l5 36h232q76 0 115 33t49 111l8 51q-31 -63 -124 -63h-161q-72 0 -101.5 34.5t-19.5 106.5l65 461h40l-64 -458q-9 -59 12 -83.5t80 -24.5h162q59 0 86.5 24.5t36.5 83.5l63 458h40l-83 -590q-13 -92 -63 -136t-142 -44zM504 764l-147 -101h-40l127 101h60
z" />
    <glyph glyph-name="thorn" unicode="&#xfe;" horiz-adv-x="614" 
d="M196 770l-24 -167h276q73 0 102.5 -34t19.5 -107l-46 -321q-10 -73 -48.5 -107t-111.5 -34h-161q-94 0 -107 62l-32 -229h-40l132 937h40zM167 567l-59 -423q-9 -60 12 -84t80 -24h162q60 0 87 24t36 84l44 315q8 60 -12.5 84t-80.5 24h-269z" />
    <glyph glyph-name="ydieresis" unicode="&#xff;" horiz-adv-x="625" 
d="M296 -167h-236l5 36h232q76 0 115 33t49 111l8 51q-31 -63 -124 -63h-161q-72 0 -101.5 34.5t-19.5 106.5l65 461h40l-64 -458q-9 -59 12 -83.5t80 -24.5h162q59 0 86.5 24.5t36.5 83.5l63 458h40l-83 -590q-13 -92 -63 -136t-142 -44zM319 730l-6 -41h-70l6 41h70z
M508 730l-6 -41h-70l6 41h70z" />
    <glyph glyph-name="Amacron" unicode="&#x100;" horiz-adv-x="689" 
d="M563 0h-40l46 332h-441l-46 -332h-40l77 556q21 144 164 144h235q73 0 103 -35.5t20 -108.5zM507 664h-223q-60 0 -88.5 -26t-37.5 -88l-25 -182h441l26 182q9 63 -12 88.5t-81 25.5zM529 784h-236l4 28h236z" />
    <glyph glyph-name="amacron" unicode="&#x101;" horiz-adv-x="589" 
d="M492 319l20 140q8 60 -12.5 84t-79.5 24h-293l5 36h300q72 0 101.5 -34t19.5 -107l-46 -321q-10 -73 -48.5 -107t-110.5 -34h-205q-64 0 -90.5 31t-17.5 97l9 63q10 66 44.5 97t98.5 31h305zM487 283h-303q-47 0 -69.5 -20t-30.5 -67l-9 -73q-7 -47 10.5 -67t64.5 -20
h196q59 0 86 24t36 84zM472 696h-236l4 28h236z" />
    <glyph glyph-name="Abreve" unicode="&#x102;" horiz-adv-x="689" 
d="M563 0h-40l46 332h-441l-46 -332h-40l77 556q21 144 164 144h235q73 0 103 -35.5t20 -108.5zM507 664h-223q-60 0 -88.5 -26t-37.5 -88l-25 -182h441l26 182q9 63 -12 88.5t-81 25.5zM297 812l3 38q25 -63 110 -63q84 0 126 63l-3 -38q-44 -58 -126 -58q-85 0 -110 58z
" />
    <glyph glyph-name="abreve" unicode="&#x103;" horiz-adv-x="589" 
d="M492 319l20 140q8 60 -12.5 84t-79.5 24h-293l5 36h300q72 0 101.5 -34t19.5 -107l-46 -321q-10 -73 -48.5 -107t-110.5 -34h-205q-64 0 -90.5 31t-17.5 97l9 63q10 66 44.5 97t98.5 31h305zM487 283h-303q-47 0 -69.5 -20t-30.5 -67l-9 -73q-7 -47 10.5 -67t64.5 -20
h196q59 0 86 24t36 84zM240 724l3 38q25 -63 110 -63q84 0 126 63l-3 -38q-44 -58 -126 -58q-85 0 -110 58z" />
    <glyph glyph-name="Aogonek" unicode="&#x104;" horiz-adv-x="689" 
d="M507 664h-223q-60 0 -88.5 -26t-37.5 -88l-25 -182h441l26 182q9 63 -12 88.5t-81 25.5zM549 -152h-169q-62 0 -62 37q0 41 41 56t147 15h11l52 376h-441l-46 -332h-40l77 556q21 144 164 144h235q73 0 103 -35.5t20 -108.5l-78 -556h-21l-9 -62h-18q-99 0 -136 -9
t-37 -32q0 -15 44 -15h168z" />
    <glyph glyph-name="aogonek" unicode="&#x105;" horiz-adv-x="589" 
d="M487 283h-303q-47 0 -69.5 -20t-30.5 -67l-9 -73q-7 -47 10.5 -67t64.5 -20h196q59 0 86 24t36 84zM474 -152h-169q-62 0 -62 37q0 41 41 56t147 15h11l10 73q-36 -29 -104 -29h-205q-64 0 -90.5 31t-17.5 97l9 63q10 66 44.5 97t98.5 31h305l20 140q8 60 -12.5 84
t-79.5 24h-293l5 36h300q72 0 101.5 -34t19.5 -107l-46 -321q-8 -57 -33 -90l-16 -113h-18q-99 0 -136 -9t-37 -32q0 -15 44 -15h168z" />
    <glyph glyph-name="Cacute" unicode="&#x106;" horiz-adv-x="586" 
d="M195 0q-144 0 -123 144l57 412q21 144 164 144h320l-5 -36h-314q-60 0 -88 -25.5t-38 -88.5l-56 -400q-8 -63 13 -88.5t81 -25.5h314l-5 -36h-320zM526 852l-147 -101h-40l127 101h60z" />
    <glyph glyph-name="cacute" unicode="&#x107;" horiz-adv-x="534" 
d="M176 0q-72 0 -101.5 34t-19.5 107l45 321q10 73 49 107t111 34h273l-5 -36h-266q-59 0 -86.5 -24t-36.5 -84l-43 -315q-9 -60 12 -84t80 -24h266l-5 -36h-273zM488 764l-147 -101h-40l127 101h60z" />
    <glyph glyph-name="Ccircumflex" unicode="&#x108;" horiz-adv-x="586" 
d="M195 0q-144 0 -123 144l57 412q21 144 164 144h320l-5 -36h-314q-60 0 -88 -25.5t-38 -88.5l-56 -400q-8 -63 13 -88.5t81 -25.5h314l-5 -36h-320zM418 825l-117 -74h-38l137 101h41l109 -101h-36z" />
    <glyph glyph-name="ccircumflex" unicode="&#x109;" horiz-adv-x="534" 
d="M176 0q-72 0 -101.5 34t-19.5 107l45 321q10 73 49 107t111 34h273l-5 -36h-266q-59 0 -86.5 -24t-36.5 -84l-43 -315q-9 -60 12 -84t80 -24h266l-5 -36h-273zM365 737l-117 -74h-38l137 101h41l109 -101h-36z" />
    <glyph glyph-name="Cdotaccent" unicode="&#x10a;" horiz-adv-x="586" 
d="M195 0q-144 0 -123 144l57 412q21 144 164 144h320l-5 -36h-314q-60 0 -88 -25.5t-38 -88.5l-56 -400q-8 -63 13 -88.5t81 -25.5h314l-5 -36h-320zM450 818l-6 -41h-69l6 41h69z" />
    <glyph glyph-name="cdotaccent" unicode="&#x10b;" horiz-adv-x="534" 
d="M176 0q-72 0 -101.5 34t-19.5 107l45 321q10 73 49 107t111 34h273l-5 -36h-266q-59 0 -86.5 -24t-36.5 -84l-43 -315q-9 -60 12 -84t80 -24h266l-5 -36h-273zM397 730l-6 -41h-69l6 41h69z" />
    <glyph glyph-name="Ccaron" unicode="&#x10c;" horiz-adv-x="586" 
d="M195 0q-144 0 -123 144l57 412q21 144 164 144h320l-5 -36h-314q-60 0 -88 -25.5t-38 -88.5l-56 -400q-8 -63 13 -88.5t81 -25.5h314l-5 -36h-320zM313 852l96 -74l117 74h38l-137 -101h-41l-109 101h36z" />
    <glyph glyph-name="ccaron" unicode="&#x10d;" horiz-adv-x="534" 
d="M176 0q-72 0 -101.5 34t-19.5 107l45 321q10 73 49 107t111 34h273l-5 -36h-266q-59 0 -86.5 -24t-36.5 -84l-43 -315q-9 -60 12 -84t80 -24h266l-5 -36h-273zM260 764l96 -74l117 74h38l-137 -101h-41l-109 101h36z" />
    <glyph glyph-name="Dcaron" unicode="&#x10e;" horiz-adv-x="684" 
d="M473 700q198 0 171 -199l-43 -302q-27 -199 -226 -199h-322l98 700h322zM373 36q84 0 130.5 40t58.5 127l41 294q13 87 -22.5 127t-119.5 40h-275l-88 -628h275zM303 852l96 -74l117 74h38l-137 -101h-41l-109 101h36z" />
    <glyph glyph-name="dcaron" unicode="&#x10f;" horiz-adv-x="777" 
d="M601 770l-89 -629q-10 -73 -48.5 -107t-111.5 -34h-176q-72 0 -101.5 34t-19.5 107l45 321q10 73 49 107t111 34h161q94 0 107 -63l33 230h40zM473 144l44 315q8 60 -12.5 84t-80.5 24h-162q-59 0 -86.5 -24t-36.5 -84l-43 -315q-9 -60 12 -84t80 -24h162q60 0 87 24
t36 84zM790 700l-7 -47q-6 -46 -22.5 -65.5t-51.5 -19.5h-6l2 16h7q17 0 26.5 11.5t13.5 40.5l2 17h-39l7 47h68z" />
    <glyph glyph-name="Dcroat" unicode="&#x110;" horiz-adv-x="684" 
d="M473 700q198 0 171 -199l-43 -302q-27 -199 -226 -199h-322l46 332h-74l5 36h74l47 332h322zM373 36q84 0 130.5 40t58.5 127l41 294q13 87 -22.5 127t-119.5 40h-275l-42 -296h122l-5 -36h-122l-41 -296h275z" />
    <glyph glyph-name="dcroat" unicode="&#x111;" horiz-adv-x="603" 
d="M601 770l-11 -79h77l-4 -28h-77l-74 -522q-10 -73 -48.5 -107t-111.5 -34h-176q-72 0 -101.5 34t-19.5 107l45 321q10 73 49 107t111 34h161q94 0 107 -63l17 123h-118l4 28h118l12 79h40zM473 144l44 315q8 60 -12.5 84t-80.5 24h-162q-59 0 -86.5 -24t-36.5 -84
l-43 -315q-9 -60 12 -84t80 -24h162q60 0 87 24t36 84z" />
    <glyph glyph-name="Emacron" unicode="&#x112;" horiz-adv-x="642" 
d="M53 0l98 700h496l-5 -36h-456l-42 -296h365l-5 -36h-365l-41 -296h456l-5 -36h-496zM523 784h-236l4 28h236z" />
    <glyph glyph-name="emacron" unicode="&#x113;" horiz-adv-x="589" 
d="M563 411q-17 -128 -143 -128h-305l-19 -139q-9 -60 12 -84t80 -24h293l-5 -36h-300q-73 0 -102 34.5t-19 107.5l45 320q10 73 49 107t111 34h205q64 0 90.5 -31t16.5 -97zM458 567h-196q-60 0 -87.5 -24.5t-35.5 -85.5l-19 -138h303q47 0 70 20t30 67l10 73
q7 48 -10.5 68t-64.5 20zM493 696h-236l4 28h236z" />
    <glyph glyph-name="Ebreve" unicode="&#x114;" horiz-adv-x="642" 
d="M53 0l98 700h496l-5 -36h-456l-42 -296h365l-5 -36h-365l-41 -296h456l-5 -36h-496zM291 812l3 38q25 -63 110 -63q84 0 126 63l-3 -38q-44 -58 -126 -58q-85 0 -110 58z" />
    <glyph glyph-name="ebreve" unicode="&#x115;" horiz-adv-x="589" 
d="M563 411q-17 -128 -143 -128h-305l-19 -139q-9 -60 12 -84t80 -24h293l-5 -36h-300q-73 0 -102 34.5t-19 107.5l45 320q10 73 49 107t111 34h205q64 0 90.5 -31t16.5 -97zM458 567h-196q-60 0 -87.5 -24.5t-35.5 -85.5l-19 -138h303q47 0 70 20t30 67l10 73
q7 48 -10.5 68t-64.5 20zM261 724l3 38q25 -63 110 -63q84 0 126 63l-3 -38q-44 -58 -126 -58q-85 0 -110 58z" />
    <glyph glyph-name="Edotaccent" unicode="&#x116;" horiz-adv-x="642" 
d="M53 0l98 700h496l-5 -36h-456l-42 -296h365l-5 -36h-365l-41 -296h456l-5 -36h-496zM444 818l-6 -41h-69l6 41h69z" />
    <glyph glyph-name="edotaccent" unicode="&#x117;" horiz-adv-x="589" 
d="M563 411q-17 -128 -143 -128h-305l-19 -139q-9 -60 12 -84t80 -24h293l-5 -36h-300q-73 0 -102 34.5t-19 107.5l45 320q10 73 49 107t111 34h205q64 0 90.5 -31t16.5 -97zM458 567h-196q-60 0 -87.5 -24.5t-35.5 -85.5l-19 -138h303q47 0 70 20t30 67l10 73
q7 48 -10.5 68t-64.5 20zM414 730l-6 -41h-69l6 41h69z" />
    <glyph glyph-name="Eogonek" unicode="&#x118;" horiz-adv-x="642" 
d="M527 -152h-169q-62 0 -62 37q0 41 41 56t147 15h11l6 44h-448l98 700h496l-5 -36h-456l-42 -296h365l-5 -36h-365l-41 -296h456l-5 -36h-29l-9 -62h-18q-98 0 -135.5 -9t-37.5 -32q0 -15 44 -15h168z" />
    <glyph glyph-name="eogonek" unicode="&#x119;" horiz-adv-x="589" 
d="M458 567h-196q-60 0 -87.5 -24.5t-35.5 -85.5l-19 -138h303q47 0 70 20t30 67l10 73q7 48 -10.5 68t-64.5 20zM454 -152h-169q-62 0 -62 37q0 41 41 56t147 15h21l6 44h-262q-73 0 -102 34.5t-19 107.5l45 320q10 73 49 107t111 34h205q64 0 90.5 -31t16.5 -97l-9 -64
q-17 -128 -143 -128h-305l-19 -139q-9 -60 12 -84t80 -24h293l-5 -36h-19l-9 -62h-28q-99 0 -136 -9t-37 -32q0 -15 44 -15h168z" />
    <glyph glyph-name="Ecaron" unicode="&#x11a;" horiz-adv-x="642" 
d="M53 0l98 700h496l-5 -36h-456l-42 -296h365l-5 -36h-365l-41 -296h456l-5 -36h-496zM307 852l96 -74l117 74h38l-137 -101h-41l-109 101h36z" />
    <glyph glyph-name="ecaron" unicode="&#x11b;" horiz-adv-x="589" 
d="M563 411q-17 -128 -143 -128h-305l-19 -139q-9 -60 12 -84t80 -24h293l-5 -36h-300q-73 0 -102 34.5t-19 107.5l45 320q10 73 49 107t111 34h205q64 0 90.5 -31t16.5 -97zM458 567h-196q-60 0 -87.5 -24.5t-35.5 -85.5l-19 -138h303q47 0 70 20t30 67l10 73
q7 48 -10.5 68t-64.5 20zM277 764l96 -74l117 74h38l-137 -101h-41l-109 101h36z" />
    <glyph glyph-name="Gcircumflex" unicode="&#x11c;" horiz-adv-x="661" 
d="M440 36q59 0 83 21t32 81l27 194h-237l5 36h277l-33 -234q-10 -71 -45 -102.5t-107 -31.5h-247q-144 0 -123 144l57 412q21 144 164 144h356l-5 -36h-350q-60 0 -88 -25.5t-38 -88.5l-56 -400q-8 -63 13 -88.5t81 -25.5h234zM436 825l-117 -74h-38l137 101h41l109 -101
h-36z" />
    <glyph glyph-name="gcircumflex" unicode="&#x11d;" horiz-adv-x="603" 
d="M347 37q60 0 87 24t36 84l44 314q8 60 -12.5 84t-80.5 24h-162q-59 0 -86.5 -24t-36.5 -84l-43 -314q-9 -59 12 -83.5t80 -24.5h162zM334 1h-161q-72 0 -101.5 34.5t-19.5 106.5l45 320q10 73 49 107t111 34h176q73 0 102.5 -34t19.5 -107l-64 -449q-13 -92 -63 -136
t-142 -44h-237l5 36h233q76 0 115 33t49 111l7 51q-31 -63 -124 -63zM371 737l-117 -74h-38l137 101h41l109 -101h-36z" />
    <glyph glyph-name="Gbreve" unicode="&#x11e;" horiz-adv-x="661" 
d="M440 36q59 0 83 21t32 81l27 194h-237l5 36h277l-33 -234q-10 -71 -45 -102.5t-107 -31.5h-247q-144 0 -123 144l57 412q21 144 164 144h356l-5 -36h-350q-60 0 -88 -25.5t-38 -88.5l-56 -400q-8 -63 13 -88.5t81 -25.5h234zM315 812l3 38q25 -63 110 -63q84 0 126 63
l-3 -38q-44 -58 -126 -58q-85 0 -110 58z" />
    <glyph glyph-name="gbreve" unicode="&#x11f;" horiz-adv-x="603" 
d="M347 37q60 0 87 24t36 84l44 314q8 60 -12.5 84t-80.5 24h-162q-59 0 -86.5 -24t-36.5 -84l-43 -314q-9 -59 12 -83.5t80 -24.5h162zM334 1h-161q-72 0 -101.5 34.5t-19.5 106.5l45 320q10 73 49 107t111 34h176q73 0 102.5 -34t19.5 -107l-64 -449q-13 -92 -63 -136
t-142 -44h-237l5 36h233q76 0 115 33t49 111l7 51q-31 -63 -124 -63zM250 724l3 38q25 -63 110 -63q84 0 126 63l-3 -38q-44 -58 -126 -58q-85 0 -110 58z" />
    <glyph glyph-name="Gdotaccent" unicode="&#x120;" horiz-adv-x="661" 
d="M440 36q59 0 83 21t32 81l27 194h-237l5 36h277l-33 -234q-10 -71 -45 -102.5t-107 -31.5h-247q-144 0 -123 144l57 412q21 144 164 144h356l-5 -36h-350q-60 0 -88 -25.5t-38 -88.5l-56 -400q-8 -63 13 -88.5t81 -25.5h234zM468 818l-6 -41h-69l6 41h69z" />
    <glyph glyph-name="gdotaccent" unicode="&#x121;" horiz-adv-x="603" 
d="M347 37q60 0 87 24t36 84l44 314q8 60 -12.5 84t-80.5 24h-162q-59 0 -86.5 -24t-36.5 -84l-43 -314q-9 -59 12 -83.5t80 -24.5h162zM334 1h-161q-72 0 -101.5 34.5t-19.5 106.5l45 320q10 73 49 107t111 34h176q73 0 102.5 -34t19.5 -107l-64 -449q-13 -92 -63 -136
t-142 -44h-237l5 36h233q76 0 115 33t49 111l7 51q-31 -63 -124 -63zM403 730l-6 -41h-69l6 41h69z" />
    <glyph glyph-name="uni0122" unicode="&#x122;" horiz-adv-x="661" 
d="M440 36q59 0 83 21t32 81l27 194h-237l5 36h277l-33 -234q-10 -71 -45 -102.5t-107 -31.5h-247q-144 0 -123 144l57 412q21 144 164 144h356l-5 -36h-350q-60 0 -88 -25.5t-38 -88.5l-56 -400q-8 -63 13 -88.5t81 -25.5h234zM338 -87l-5 -37q-10 -68 -65 -68h-7l2 20h9
q27 0 31 34l2 14h-36l5 37h64z" />
    <glyph glyph-name="uni0123" unicode="&#x123;" horiz-adv-x="603" 
d="M331 689l6 37q9 67 66 67h7l-3 -20h-9q-26 0 -31 -34l-2 -13h36l-6 -37h-64zM347 37q60 0 87 24t36 84l44 314q8 60 -12.5 84t-80.5 24h-162q-59 0 -86.5 -24t-36.5 -84l-43 -314q-9 -59 12 -83.5t80 -24.5h162zM334 1h-161q-72 0 -101.5 34.5t-19.5 106.5l45 320
q10 73 49 107t111 34h176q73 0 102.5 -34t19.5 -107l-64 -449q-13 -92 -63 -136t-142 -44h-237l5 36h233q76 0 115 33t49 111l7 51q-31 -63 -124 -63z" />
    <glyph glyph-name="Hcircumflex" unicode="&#x124;" horiz-adv-x="729" 
d="M552 0l46 332h-459l-46 -332h-40l98 700h40l-47 -332h459l47 332h40l-98 -700h-40zM438 825l-117 -74h-38l137 101h41l109 -101h-36z" />
    <glyph glyph-name="hcircumflex" unicode="&#x125;" horiz-adv-x="625" 
d="M528 459q8 60 -12.5 84t-79.5 24h-162q-59 0 -86.5 -24t-36.5 -84l-63 -459h-40l108 770h40l-33 -230q31 63 124 63h161q72 0 101.5 -34t19.5 -107l-65 -462h-40zM385 737l-117 -74h-38l137 101h41l109 -101h-36z" />
    <glyph glyph-name="Hbar" unicode="&#x126;" horiz-adv-x="729" 
d="M552 0l46 332h-459l-46 -332h-40l71 506h-37l5 36h37l22 158h40l-23 -158h459l23 158h40l-22 -158h37l-5 -36h-37l-71 -506h-40zM144 368h459l19 138h-459z" />
    <glyph glyph-name="hbar" unicode="&#x127;" horiz-adv-x="625" 
d="M528 459q8 60 -12.5 84t-79.5 24h-162q-59 0 -86.5 -24t-36.5 -84l-63 -459h-40l93 663h-90l4 28h90l11 79h40l-12 -79h107l-4 -28h-107l-17 -123q31 63 124 63h161q72 0 101.5 -34t19.5 -107l-65 -462h-40z" />
    <glyph glyph-name="Itilde" unicode="&#x128;" horiz-adv-x="229" 
d="M53 0l98 700h40l-98 -700h-40zM60 759l5 34q37 37 70 37q20 0 52.5 -20.5t51.5 -20.5q31 0 67 39l-4 -34q-39 -38 -72 -38q-20 0 -53 20.5t-51 20.5q-31 0 -66 -38z" />
    <glyph glyph-name="itilde" unicode="&#x129;" horiz-adv-x="292" 
d="M34 671l5 34q37 37 70 37q20 0 52.5 -20.5t51.5 -20.5q31 0 67 39l-4 -34q-39 -38 -72 -38q-20 0 -53 20.5t-51 20.5q-31 0 -66 -38zM181 36h49l-5 -36h-55q-71 0 -97 30t-16 101l66 472h40l-66 -469q-8 -58 9 -78t75 -20z" />
    <glyph glyph-name="Imacron" unicode="&#x12a;" horiz-adv-x="229" 
d="M297 786h-229l3 24h229zM53 0l98 700h40l-98 -700h-40z" />
    <glyph glyph-name="imacron" unicode="&#x12b;" horiz-adv-x="292" 
d="M271 698h-229l3 24h229zM181 36h49l-5 -36h-55q-71 0 -97 30t-16 101l66 472h40l-66 -469q-8 -58 9 -78t75 -20z" />
    <glyph glyph-name="Ibreve" unicode="&#x12c;" horiz-adv-x="229" 
d="M53 0l98 700h40l-98 -700h-40zM68 812l3 38q25 -63 110 -63q84 0 126 63l-3 -38q-44 -58 -126 -58q-85 0 -110 58z" />
    <glyph glyph-name="ibreve" unicode="&#x12d;" horiz-adv-x="292" 
d="M42 724l3 38q25 -63 110 -63q84 0 126 63l-3 -38q-44 -58 -126 -58q-85 0 -110 58zM181 36h49l-5 -36h-55q-71 0 -97 30t-16 101l66 472h40l-66 -469q-8 -58 9 -78t75 -20z" />
    <glyph glyph-name="Iogonek" unicode="&#x12e;" horiz-adv-x="229" 
d="M84 -152h-110q-62 0 -62 38q0 70 150 70l7 44h-16l98 700h40l-98 -700h-6l-9 -62h-18q-124 0 -124 -40q0 -16 44 -16h109z" />
    <glyph glyph-name="iogonek" unicode="&#x12f;" horiz-adv-x="292" 
d="M195 730l-6 -41h-69l6 41h69zM203 -152h-160q-62 0 -62 37q0 41 41 56t147 15h12l6 44h-17q-71 0 -97 30t-16 101l66 472h40l-66 -469q-8 -58 9 -78t75 -20h49l-5 -36h-19l-9 -62h-19q-99 0 -136 -9t-37 -32q0 -15 44 -15h159z" />
    <glyph glyph-name="Idotaccent" unicode="&#x130;" horiz-adv-x="229" 
d="M53 0l98 700h40l-98 -700h-40zM221 818l-6 -41h-69l6 41h69z" />
    <glyph glyph-name="dotlessi" unicode="&#x131;" horiz-adv-x="292" 
d="M191 36h49l-5 -36h-55q-71 0 -97 30t-16 101l66 472h40l-66 -469q-8 -58 9 -78t75 -20z" />
    <glyph glyph-name="IJ" unicode="&#x132;" horiz-adv-x="878" 
d="M53 0l98 700h40l-98 -700h-40zM257 134l30 208h40l-29 -204q-8 -61 9 -81.5t76 -20.5h225q60 0 88.5 25.5t36.5 88.5l78 550h40l-78 -556q-21 -144 -164 -144h-237q-72 0 -98.5 31t-16.5 103z" />
    <glyph glyph-name="Jcircumflex" unicode="&#x134;" 
d="M38 134l30 208h40l-29 -204q-8 -61 9 -81.5t76 -20.5h225q60 0 88.5 25.5t36.5 88.5l78 550h40l-78 -556q-21 -144 -164 -144h-237q-72 0 -98.5 31t-16.5 103zM604 825l-117 -74h-38l137 101h41l109 -101h-36z" />
    <glyph glyph-name="jcircumflex" unicode="&#x135;" horiz-adv-x="232" 
d="M-87 -131h32q59 0 81 19t30 79l89 636h40l-90 -639q-10 -73 -43 -102t-106 -29h-38zM185 737l-117 -74h-38l137 101h41l109 -101h-36z" />
    <glyph glyph-name="uni0136" unicode="&#x136;" horiz-adv-x="692" 
d="M672 700l-31 -219q-8 -58 -35.5 -90.5t-85.5 -40.5q56 -8 74.5 -40.5t9.5 -90.5l-30 -219h-40l30 219q9 60 -10.5 86.5t-77.5 26.5h-337l-46 -332h-40l97 700h40l-46 -332h337q58 0 84.5 26.5t35.5 86.5l31 219h40zM323 -87l-5 -37q-10 -68 -65 -68h-7l2 20h9q27 0 31 34
l2 14h-36l5 37h64z" />
    <glyph glyph-name="uni0137" unicode="&#x137;" horiz-adv-x="610" 
d="M517 390l29 213h40l-25 -187q-8 -54 -29.5 -81.5t-64.5 -33.5q41 -6 55 -33.5t6 -81.5l-26 -186h-40l29 212q5 38 -9.5 54.5t-52.5 16.5h-302l-39 -283h-40l108 770h40l-64 -451h302q38 0 57.5 16.5t25.5 54.5zM294 -87l-5 -37q-10 -68 -65 -68h-7l2 20h9q27 0 31 34
l2 14h-36l5 37h64z" />
    <glyph glyph-name="kgreenlandic" unicode="&#x138;" horiz-adv-x="610" 
d="M517 390l29 213h40l-25 -187q-8 -54 -29.5 -81.5t-64.5 -33.5q41 -6 55 -33.5t6 -81.5l-26 -186h-40l29 212q5 38 -9.5 54.5t-52.5 16.5h-302l-39 -283h-40l84 603h40l-40 -284h302q38 0 57.5 16.5t25.5 54.5z" />
    <glyph glyph-name="Lacute" unicode="&#x139;" horiz-adv-x="603" 
d="M546 36l-5 -36h-488l98 700h40l-93 -664h448zM352 852l-147 -101h-40l127 101h60z" />
    <glyph glyph-name="lacute" unicode="&#x13a;" horiz-adv-x="290" 
d="M189 36h49l-5 -36h-55q-71 0 -97 30t-16 101l90 639h40l-90 -636q-8 -58 9 -78t75 -20zM326 931l-147 -101h-40l127 101h60z" />
    <glyph glyph-name="uni013B" unicode="&#x13b;" horiz-adv-x="603" 
d="M546 36l-5 -36h-488l98 700h40l-93 -664h448zM298 -87l-5 -37q-10 -68 -65 -68h-7l2 20h9q27 0 31 34l2 14h-36l5 37h64z" />
    <glyph glyph-name="uni013C" unicode="&#x13c;" horiz-adv-x="290" 
d="M179 36h49l-5 -36h-55q-71 0 -97 30t-16 101l90 639h40l-90 -636q-8 -58 9 -78t75 -20zM121 -87l-5 -37q-10 -68 -65 -68h-7l2 20h9q27 0 31 34l2 14h-36l5 37h64z" />
    <glyph glyph-name="Lcaron" unicode="&#x13d;" horiz-adv-x="603" 
d="M546 36l-5 -36h-488l98 700h40l-93 -664h448zM580 700l-7 -47q-6 -46 -22.5 -65.5t-51.5 -19.5h-6l2 16h7q17 0 26.5 11.5t13.5 40.5l2 17h-39l7 47h68z" />
    <glyph glyph-name="lcaron" unicode="&#x13e;" horiz-adv-x="399" 
d="M189 36h49l-5 -36h-55q-71 0 -97 30t-16 101l90 639h40l-90 -636q-8 -58 9 -78t75 -20zM413 700l-7 -47q-6 -46 -22.5 -65.5t-51.5 -19.5h-6l2 16h7q17 0 26.5 11.5t13.5 40.5l2 17h-39l7 47h68z" />
    <glyph glyph-name="Ldot" unicode="&#x13f;" horiz-adv-x="603" 
d="M546 36l-5 -36h-488l98 700h40l-93 -664h448zM449 375l-7 -51h-68l7 51h68z" />
    <glyph glyph-name="ldot" unicode="&#x140;" horiz-adv-x="460" 
d="M189 36h49l-5 -36h-55q-71 0 -97 30t-16 101l90 639h40l-90 -636q-8 -58 9 -78t75 -20zM377 375l-7 -51h-68l7 51h68z" />
    <glyph glyph-name="Lslash" unicode="&#x141;" horiz-adv-x="603" 
d="M546 36l-5 -36h-488l36 256l-82 -47l5 36l82 47l57 408h40l-54 -383l229 132l-5 -36l-229 -132l-34 -245h448z" />
    <glyph glyph-name="lslash" unicode="&#x142;" horiz-adv-x="290" 
d="M179 36h49l-5 -36h-55q-71 0 -97 30t-16 101l30 216l-64 -38l5 36l64 38l55 387h40l-51 -361l165 98l-5 -36l-165 -99l-34 -238q-8 -58 9 -78t75 -20z" />
    <glyph glyph-name="Nacute" unicode="&#x143;" horiz-adv-x="689" 
d="M284 664q-60 0 -88 -25.5t-38 -88.5l-76 -550h-40l77 556q21 144 164 144h235q73 0 103 -35.5t20 -108.5l-78 -556h-40l77 550q9 63 -12 88.5t-81 25.5h-223zM541 852l-147 -101h-40l127 101h60z" />
    <glyph glyph-name="nacute" unicode="&#x144;" horiz-adv-x="612" 
d="M37 0l64 462q10 73 49 107t111 34h174q72 0 101.5 -34t19.5 -107l-65 -462h-40l64 459q8 60 -12.5 84t-79.5 24h-160q-59 0 -86.5 -24t-36.5 -84l-63 -459h-40zM491 764l-147 -101h-40l127 101h60z" />
    <glyph glyph-name="uni0145" unicode="&#x145;" horiz-adv-x="689" 
d="M284 664q-60 0 -88 -25.5t-38 -88.5l-76 -550h-40l77 556q21 144 164 144h235q73 0 103 -35.5t20 -108.5l-78 -556h-40l77 550q9 63 -12 88.5t-81 25.5h-223zM321 -87l-5 -37q-10 -68 -65 -68h-7l2 20h9q27 0 31 34l2 14h-36l5 37h64z" />
    <glyph glyph-name="uni0146" unicode="&#x146;" horiz-adv-x="612" 
d="M37 0l64 462q10 73 49 107t111 34h174q72 0 101.5 -34t19.5 -107l-65 -462h-40l64 459q8 60 -12.5 84t-79.5 24h-160q-59 0 -86.5 -24t-36.5 -84l-63 -459h-40zM283 -87l-5 -37q-10 -68 -65 -68h-7l2 20h9q27 0 31 34l2 14h-36l5 37h64z" />
    <glyph glyph-name="Ncaron" unicode="&#x147;" horiz-adv-x="689" 
d="M284 664q-60 0 -88 -25.5t-38 -88.5l-76 -550h-40l77 556q21 144 164 144h235q73 0 103 -35.5t20 -108.5l-78 -556h-40l77 550q9 63 -12 88.5t-81 25.5h-223zM313 852l96 -74l117 74h38l-137 -101h-41l-109 101h36z" />
    <glyph glyph-name="ncaron" unicode="&#x148;" horiz-adv-x="612" 
d="M37 0l64 462q10 73 49 107t111 34h174q72 0 101.5 -34t19.5 -107l-65 -462h-40l64 459q8 60 -12.5 84t-79.5 24h-160q-59 0 -86.5 -24t-36.5 -84l-63 -459h-40zM263 764l96 -74l117 74h38l-137 -101h-41l-109 101h36z" />
    <glyph glyph-name="napostrophe" unicode="&#x149;" horiz-adv-x="716" 
d="M141 0l64 462q10 73 49 107t111 34h174q72 0 101.5 -34t19.5 -107l-65 -462h-40l64 459q8 60 -12.5 84t-79.5 24h-160q-59 0 -86.5 -24t-36.5 -84l-63 -459h-40zM177 700l-7 -47q-6 -46 -22.5 -65.5t-51.5 -19.5h-6l2 16h7q17 0 26.5 11.5t13.5 40.5l2 17h-39l7 47h68z
" />
    <glyph glyph-name="Eng" unicode="&#x14a;" horiz-adv-x="689" 
d="M284 664q-60 0 -88 -25.5t-38 -88.5l-76 -550h-40l77 556q21 144 164 144h235q73 0 103 -35.5t20 -108.5l-82 -579q-19 -144 -163 -144h-98l5 36h92q60 0 88 25.5t37 88.5l80 567q9 63 -12 88.5t-81 25.5h-223z" />
    <glyph glyph-name="eng" unicode="&#x14b;" horiz-adv-x="612" 
d="M303 -131h32q59 0 81 19t31 79l68 492q8 60 -12.5 84t-79.5 24h-160q-59 0 -86.5 -24t-36.5 -84l-63 -459h-40l64 462q10 73 49 107t111 34h174q72 0 101.5 -34t19.5 -107l-70 -498q-11 -73 -44 -102t-106 -29h-38z" />
    <glyph glyph-name="Omacron" unicode="&#x14c;" horiz-adv-x="669" 
d="M195 0q-144 0 -123 144l57 412q21 144 164 144h237q144 0 123 -144l-57 -412q-21 -144 -164 -144h-237zM556 150l56 400q10 63 -11.5 88.5t-81.5 25.5h-225q-60 0 -88 -25.5t-38 -88.5l-56 -400q-8 -63 13 -88.5t81 -25.5h225q60 0 88.5 25.5t36.5 88.5zM541 784h-236
l4 28h236z" />
    <glyph glyph-name="omacron" unicode="&#x14d;" horiz-adv-x="590" 
d="M434 603q73 0 102.5 -34t19.5 -107l-46 -321q-10 -73 -48.5 -107t-111.5 -34h-174q-72 0 -101.5 34t-19.5 107l45 321q10 73 49 107t111 34h174zM348 36q60 0 87 24t36 84l44 315q8 60 -12.5 84t-80.5 24h-160q-59 0 -86.5 -24t-36.5 -84l-43 -315q-9 -60 12 -84t80 -24
h160zM479 696h-236l4 28h236z" />
    <glyph glyph-name="Obreve" unicode="&#x14e;" horiz-adv-x="669" 
d="M195 0q-144 0 -123 144l57 412q21 144 164 144h237q144 0 123 -144l-57 -412q-21 -144 -164 -144h-237zM556 150l56 400q10 63 -11.5 88.5t-81.5 25.5h-225q-60 0 -88 -25.5t-38 -88.5l-56 -400q-8 -63 13 -88.5t81 -25.5h225q60 0 88.5 25.5t36.5 88.5zM309 812l3 38
q25 -63 110 -63q84 0 126 63l-3 -38q-44 -58 -126 -58q-85 0 -110 58z" />
    <glyph glyph-name="obreve" unicode="&#x14f;" horiz-adv-x="590" 
d="M434 603q73 0 102.5 -34t19.5 -107l-46 -321q-10 -73 -48.5 -107t-111.5 -34h-174q-72 0 -101.5 34t-19.5 107l45 321q10 73 49 107t111 34h174zM348 36q60 0 87 24t36 84l44 315q8 60 -12.5 84t-80.5 24h-160q-59 0 -86.5 -24t-36.5 -84l-43 -315q-9 -60 12 -84t80 -24
h160zM247 724l3 38q25 -63 110 -63q84 0 126 63l-3 -38q-44 -58 -126 -58q-85 0 -110 58z" />
    <glyph glyph-name="Ohungarumlaut" unicode="&#x150;" horiz-adv-x="669" 
d="M195 0q-144 0 -123 144l57 412q21 144 164 144h237q144 0 123 -144l-57 -412q-21 -144 -164 -144h-237zM556 150l56 400q10 63 -11.5 88.5t-81.5 25.5h-225q-60 0 -88 -25.5t-38 -88.5l-56 -400q-8 -63 13 -88.5t81 -25.5h225q60 0 88.5 25.5t36.5 88.5zM628 852
l-147 -101h-40l127 101h60zM472 852l-147 -101h-40l127 101h60z" />
    <glyph glyph-name="ohungarumlaut" unicode="&#x151;" horiz-adv-x="590" 
d="M434 603q73 0 102.5 -34t19.5 -107l-46 -321q-10 -73 -48.5 -107t-111.5 -34h-174q-72 0 -101.5 34t-19.5 107l45 321q10 73 49 107t111 34h174zM348 36q60 0 87 24t36 84l44 315q8 60 -12.5 84t-80.5 24h-160q-59 0 -86.5 -24t-36.5 -84l-43 -315q-9 -60 12 -84t80 -24
h160zM568 764l-147 -101h-40l127 101h60zM412 764l-147 -101h-40l127 101h60z" />
    <glyph glyph-name="OE" unicode="&#x152;" horiz-adv-x="1019" 
d="M195 0q-144 0 -123 144l57 412q21 144 164 144h752l-5 -36h-417l-42 -296h326l-5 -36h-326l-41 -296h417l-5 -36h-752zM495 36l88 628h-289q-60 0 -88 -25.5t-38 -88.5l-56 -400q-8 -63 13 -88.5t81 -25.5h289z" />
    <glyph glyph-name="oe" unicode="&#x153;" horiz-adv-x="887" 
d="M419 143l44 317q8 59 -12 83t-79 24h-110q-59 0 -86.5 -24t-36.5 -84l-43 -315q-9 -60 12 -84t80 -24h110q58 0 85 24t36 83zM821 406l10 74q7 47 -10.5 67t-64.5 20h-131q-59 0 -86.5 -24t-35.5 -83l-20 -141h238q47 0 70 20t30 67zM478 283l-19 -140q-9 -59 12 -83
t80 -24h228l-5 -36h-213q-68 0 -98 22t-31 74q-16 -53 -51.5 -74.5t-103.5 -21.5h-101q-72 0 -101.5 34t-19.5 107l45 321q10 73 49 107t111 34h101q68 0 98 -22t31 -74q16 53 51.5 74.5t103.5 21.5h118q64 0 90.5 -31t16.5 -97l-9 -64q-17 -128 -143 -128h-240z" />
    <glyph glyph-name="Racute" unicode="&#x154;" horiz-adv-x="690" 
d="M652 560l-11 -82q-8 -57 -35 -88.5t-84 -40.5q54 -9 72 -41t10 -89l-30 -219h-40l30 219q9 60 -10.5 86.5t-77.5 26.5h-337l-46 -332h-40l98 700h382q73 0 101.5 -33.5t17.5 -106.5zM481 368q59 0 85.5 25t34.5 85l11 77q8 59 -12.5 84t-75.5 25h-338l-42 -296h337z
M542 852l-147 -101h-40l127 101h60z" />
    <glyph glyph-name="racute" unicode="&#x155;" horiz-adv-x="435" 
d="M452 603l-5 -36h-184q-59 0 -86.5 -24t-36.5 -84l-63 -459h-40l64 462q10 73 49 107t111 34h191zM443 764l-147 -101h-40l127 101h60z" />
    <glyph glyph-name="uni0156" unicode="&#x156;" horiz-adv-x="690" 
d="M652 560l-11 -82q-8 -57 -35 -88.5t-84 -40.5q54 -9 72 -41t10 -89l-30 -219h-40l30 219q9 60 -10.5 86.5t-77.5 26.5h-337l-46 -332h-40l98 700h382q73 0 101.5 -33.5t17.5 -106.5zM481 368q59 0 85.5 25t34.5 85l11 77q8 59 -12.5 84t-75.5 25h-338l-42 -296h337z
M337 -87l-5 -37q-10 -68 -65 -68h-7l2 20h9q27 0 31 34l2 14h-36l5 37h64z" />
    <glyph glyph-name="uni0157" unicode="&#x157;" horiz-adv-x="435" 
d="M452 603l-5 -36h-184q-59 0 -86.5 -24t-36.5 -84l-63 -459h-40l64 462q10 73 49 107t111 34h191zM75 -87l-5 -37q-10 -68 -65 -68h-7l2 20h9q27 0 31 34l2 14h-36l5 37h64z" />
    <glyph glyph-name="Rcaron" unicode="&#x158;" horiz-adv-x="690" 
d="M652 560l-11 -82q-8 -57 -35 -88.5t-84 -40.5q54 -9 72 -41t10 -89l-30 -219h-40l30 219q9 60 -10.5 86.5t-77.5 26.5h-337l-46 -332h-40l98 700h382q73 0 101.5 -33.5t17.5 -106.5zM481 368q59 0 85.5 25t34.5 85l11 77q8 59 -12.5 84t-75.5 25h-338l-42 -296h337z
M314 852l96 -74l117 74h38l-137 -101h-41l-109 101h36z" />
    <glyph glyph-name="rcaron" unicode="&#x159;" horiz-adv-x="435" 
d="M452 603l-5 -36h-184q-59 0 -86.5 -24t-36.5 -84l-63 -459h-40l64 462q10 73 49 107t111 34h191zM216 764l96 -74l117 74h38l-137 -101h-41l-109 101h36z" />
    <glyph glyph-name="Sacute" unicode="&#x15a;" horiz-adv-x="614" 
d="M204 332q-73 0 -102 33.5t-18 106.5l12 88q11 73 49 106.5t111 33.5h333l-5 -36h-329q-56 0 -84 -25.5t-35 -83.5l-12 -78q-8 -59 13 -84t76 -25h215q73 0 101.5 -33.5t18.5 -106.5l-12 -88q-10 -73 -48 -106.5t-111 -33.5h-364l5 36h360q55 0 83 25.5t36 83.5l10 78
q9 58 -12 83.5t-76 25.5h-215zM504 852l-147 -101h-40l127 101h60z" />
    <glyph glyph-name="sacute" unicode="&#x15b;" horiz-adv-x="551" 
d="M507 567h-288q-47 0 -69.5 -20t-30.5 -67l-9 -74q-7 -47 10 -67t64 -20h193q64 0 90.5 -31t16.5 -97l-9 -63q-17 -128 -142 -128h-320l5 36h318q47 0 69.5 20t29.5 67l10 73q7 47 -10.5 67t-64.5 20h-193q-64 0 -90 31t-17 97l9 64q10 66 44.5 97t98.5 31h290zM460 764
l-147 -101h-40l127 101h60z" />
    <glyph glyph-name="Scircumflex" unicode="&#x15c;" horiz-adv-x="614" 
d="M204 332q-73 0 -102 33.5t-18 106.5l12 88q11 73 49 106.5t111 33.5h333l-5 -36h-329q-56 0 -84 -25.5t-35 -83.5l-12 -78q-8 -59 13 -84t76 -25h215q73 0 101.5 -33.5t18.5 -106.5l-12 -88q-10 -73 -48 -106.5t-111 -33.5h-364l5 36h360q55 0 83 25.5t36 83.5l10 78
q9 58 -12 83.5t-76 25.5h-215zM382 825l-117 -74h-38l137 101h41l109 -101h-36z" />
    <glyph glyph-name="scircumflex" unicode="&#x15d;" horiz-adv-x="551" 
d="M507 567h-288q-47 0 -69.5 -20t-30.5 -67l-9 -74q-7 -47 10 -67t64 -20h193q64 0 90.5 -31t16.5 -97l-9 -63q-17 -128 -142 -128h-320l5 36h318q47 0 69.5 20t29.5 67l10 73q7 47 -10.5 67t-64.5 20h-193q-64 0 -90 31t-17 97l9 64q10 66 44.5 97t98.5 31h290zM338 737
l-117 -74h-38l137 101h41l109 -101h-36z" />
    <glyph glyph-name="Scedilla" unicode="&#x15e;" horiz-adv-x="614" 
d="M266 -152h-143l5 34h142q40 0 57 8t17 32q0 19 -33 19h-79l28 59h-247l5 36h360q55 0 83 25.5t36 83.5l10 78q9 58 -12 83.5t-76 25.5h-215q-73 0 -102 33.5t-18 106.5l12 88q11 73 49 106.5t111 33.5h333l-5 -36h-329q-56 0 -84 -25.5t-35 -83.5l-12 -78q-8 -59 13 -84
t76 -25h215q73 0 101.5 -33.5t18.5 -106.5l-12 -88q-10 -73 -48 -106.5t-111 -33.5h-101l-20 -44h59q29 0 44 -7.5t15 -29.5q0 -71 -108 -71z" />
    <glyph glyph-name="scedilla" unicode="&#x15f;" horiz-adv-x="551" 
d="M228 -152h-143l5 34h142q40 0 57 8t17 32q0 19 -33 19h-79l28 59h-209l5 36h318q47 0 69.5 20t29.5 67l10 73q7 47 -10.5 67t-64.5 20h-193q-64 0 -90 31t-17 97l9 64q10 66 44.5 97t98.5 31h290l-5 -36h-288q-47 0 -69.5 -20t-30.5 -67l-9 -74q-7 -47 10 -67t64 -20h193
q64 0 90.5 -31t16.5 -97l-9 -63q-17 -128 -142 -128h-95l-20 -44h59q29 0 44 -7.5t15 -29.5q0 -71 -108 -71z" />
    <glyph glyph-name="Scaron" unicode="&#x160;" horiz-adv-x="614" 
d="M204 332q-73 0 -102 33.5t-18 106.5l12 88q11 73 49 106.5t111 33.5h333l-5 -36h-329q-56 0 -84 -25.5t-35 -83.5l-12 -78q-8 -59 13 -84t76 -25h215q73 0 101.5 -33.5t18.5 -106.5l-12 -88q-10 -73 -48 -106.5t-111 -33.5h-364l5 36h360q55 0 83 25.5t36 83.5l10 78
q9 58 -12 83.5t-76 25.5h-215zM277 852l96 -74l117 74h38l-137 -101h-41l-109 101h36z" />
    <glyph glyph-name="scaron" unicode="&#x161;" horiz-adv-x="551" 
d="M507 567h-288q-47 0 -69.5 -20t-30.5 -67l-9 -74q-7 -47 10 -67t64 -20h193q64 0 90.5 -31t16.5 -97l-9 -63q-17 -128 -142 -128h-320l5 36h318q47 0 69.5 20t29.5 67l10 73q7 47 -10.5 67t-64.5 20h-193q-64 0 -90 31t-17 97l9 64q10 66 44.5 97t98.5 31h290zM233 764
l96 -74l117 74h38l-137 -101h-41l-109 101h36z" />
    <glyph glyph-name="uni0162" unicode="&#x162;" horiz-adv-x="565" 
d="M242 -152h-143l5 34h142q40 0 57 8t17 32q0 19 -33 19h-79l28 59h-15l93 664h-242l5 36h524l-5 -36h-242l-93 -664h-9l-20 -44h59q29 0 44 -7.5t15 -29.5q0 -71 -108 -71z" />
    <glyph glyph-name="uni0163" unicode="&#x163;" horiz-adv-x="471" 
d="M197 -152h-143l5 34h142q40 0 57 8t17 32q0 19 -33 19h-79l28 59h-10q-72 0 -101.5 34t-19.5 107l89 629h40l-24 -167h299l-5 -36h-299l-59 -423q-9 -60 12 -84t80 -24h192l-5 -36h-173l-20 -44h59q29 0 44 -7.5t15 -29.5q0 -71 -108 -71z" />
    <glyph glyph-name="Tcaron" unicode="&#x164;" horiz-adv-x="565" 
d="M601 700l-5 -36h-242l-93 -664h-40l93 664h-242l5 36h524zM252 852l96 -74l117 74h38l-137 -101h-41l-109 101h36z" />
    <glyph glyph-name="tcaron" unicode="&#x165;" horiz-adv-x="655" 
d="M187 0q-72 0 -101.5 34t-19.5 107l89 629h40l-24 -167h299l-5 -36h-299l-59 -423q-9 -60 12 -84t80 -24h192l-5 -36h-199zM668 700l-7 -47q-6 -46 -22.5 -65.5t-51.5 -19.5h-6l2 16h7q17 0 26.5 11.5t13.5 40.5l2 17h-39l7 47h68z" />
    <glyph glyph-name="Tbar" unicode="&#x166;" horiz-adv-x="565" 
d="M601 700l-5 -36h-242l-28 -200h99l-5 -36h-99l-60 -428h-40l60 428h-97l5 36h97l28 200h-242l5 36h524z" />
    <glyph glyph-name="tbar" unicode="&#x167;" horiz-adv-x="471" 
d="M293 403h-160l-36 -259q-9 -60 12 -84t80 -24h192l-5 -36h-199q-72 0 -101.5 34t-19.5 107l37 262h-79l5 36h79l47 331h40l-24 -167h299l-5 -36h-299l-18 -128h160z" />
    <glyph glyph-name="Utilde" unicode="&#x168;" horiz-adv-x="689" 
d="M206 0q-144 0 -123 144l78 556h40l-78 -550q-8 -63 13 -88.5t81 -25.5h223q60 0 88 25.5t36 88.5l78 550h40l-78 -556q-11 -73 -50.5 -108.5t-112.5 -35.5h-235zM310 759l5 34q37 37 70 37q20 0 52.5 -20.5t51.5 -20.5q31 0 67 39l-4 -34q-39 -38 -72 -38q-20 0 -53 20.5
t-51 20.5q-31 0 -66 -38z" />
    <glyph glyph-name="utilde" unicode="&#x169;" horiz-adv-x="612" 
d="M359 36q59 0 86 24t37 84l63 459h40l-64 -462q-10 -73 -49 -107t-111 -34h-174q-72 0 -101.5 34t-19.5 107l65 462h40l-64 -459q-9 -60 12 -84t80 -24h160zM249 671l5 34q37 37 70 37q20 0 52.5 -20.5t51.5 -20.5q31 0 67 39l-4 -34q-39 -38 -72 -38q-20 0 -53 20.5
t-51 20.5q-31 0 -66 -38z" />
    <glyph glyph-name="Umacron" unicode="&#x16a;" horiz-adv-x="689" 
d="M206 0q-144 0 -123 144l78 556h40l-78 -550q-8 -63 13 -88.5t81 -25.5h223q60 0 88 25.5t36 88.5l78 550h40l-78 -556q-11 -73 -50.5 -108.5t-112.5 -35.5h-235zM550 784h-236l4 28h236z" />
    <glyph glyph-name="umacron" unicode="&#x16b;" horiz-adv-x="612" 
d="M359 36q59 0 86 24t37 84l63 459h40l-64 -462q-10 -73 -49 -107t-111 -34h-174q-72 0 -101.5 34t-19.5 107l65 462h40l-64 -459q-9 -60 12 -84t80 -24h160zM489 696h-236l4 28h236z" />
    <glyph glyph-name="Ubreve" unicode="&#x16c;" horiz-adv-x="689" 
d="M206 0q-144 0 -123 144l78 556h40l-78 -550q-8 -63 13 -88.5t81 -25.5h223q60 0 88 25.5t36 88.5l78 550h40l-78 -556q-11 -73 -50.5 -108.5t-112.5 -35.5h-235zM318 812l3 38q25 -63 110 -63q84 0 126 63l-3 -38q-44 -58 -126 -58q-85 0 -110 58z" />
    <glyph glyph-name="ubreve" unicode="&#x16d;" horiz-adv-x="612" 
d="M359 36q59 0 86 24t37 84l63 459h40l-64 -462q-10 -73 -49 -107t-111 -34h-174q-72 0 -101.5 34t-19.5 107l65 462h40l-64 -459q-9 -60 12 -84t80 -24h160zM257 724l3 38q25 -63 110 -63q84 0 126 63l-3 -38q-44 -58 -126 -58q-85 0 -110 58z" />
    <glyph glyph-name="Uring" unicode="&#x16e;" horiz-adv-x="689" 
d="M206 0q-144 0 -123 144l78 556h40l-78 -550q-8 -63 13 -88.5t81 -25.5h223q60 0 88 25.5t36 88.5l78 550h40l-78 -556q-11 -73 -50.5 -108.5t-112.5 -35.5h-235zM418 772h25q41 0 41 36q0 24 -33 24h-25q-41 0 -41 -36q0 -24 33 -24zM429 853h25q53 0 53 -42
q0 -28 -17 -44t-50 -16h-25q-53 0 -53 42q0 28 17 44t50 16z" />
    <glyph glyph-name="uring" unicode="&#x16f;" horiz-adv-x="612" 
d="M359 36q59 0 86 24t37 84l63 459h40l-64 -462q-10 -73 -49 -107t-111 -34h-174q-72 0 -101.5 34t-19.5 107l65 462h40l-64 -459q-9 -60 12 -84t80 -24h160zM356 684h25q41 0 41 36q0 24 -33 24h-25q-41 0 -41 -36q0 -24 33 -24zM367 765h25q53 0 53 -42q0 -28 -17 -44
t-50 -16h-25q-53 0 -53 42q0 28 17 44t50 16z" />
    <glyph glyph-name="Uhungarumlaut" unicode="&#x170;" horiz-adv-x="689" 
d="M206 0q-144 0 -123 144l78 556h40l-78 -550q-8 -63 13 -88.5t81 -25.5h223q60 0 88 25.5t36 88.5l78 550h40l-78 -556q-11 -73 -50.5 -108.5t-112.5 -35.5h-235zM640 852l-147 -101h-40l127 101h60zM484 852l-147 -101h-40l127 101h60z" />
    <glyph glyph-name="uhungarumlaut" unicode="&#x171;" horiz-adv-x="612" 
d="M359 36q59 0 86 24t37 84l63 459h40l-64 -462q-10 -73 -49 -107t-111 -34h-174q-72 0 -101.5 34t-19.5 107l65 462h40l-64 -459q-9 -60 12 -84t80 -24h160zM579 764l-147 -101h-40l127 101h60zM423 764l-147 -101h-40l127 101h60z" />
    <glyph glyph-name="Uogonek" unicode="&#x172;" horiz-adv-x="689" 
d="M570 -152h-169q-62 0 -62 37q0 41 41 56t147 15h11l11 75q-40 -31 -108 -31h-235q-144 0 -123 144l78 556h40l-78 -550q-8 -63 13 -88.5t81 -25.5h223q60 0 88 25.5t36 88.5l78 550h40l-78 -556q-9 -57 -34 -91l-16 -115h-18q-99 0 -136 -9t-37 -32q0 -15 44 -15h168z
" />
    <glyph glyph-name="uogonek" unicode="&#x173;" horiz-adv-x="612" 
d="M488 -152h-169q-62 0 -62 37q0 41 41 56t147 15h11l11 74q-37 -30 -106 -30h-174q-72 0 -101.5 34t-19.5 107l65 462h40l-64 -459q-9 -60 12 -84t80 -24h160q59 0 86 24t37 84l63 459h40l-64 -462q-9 -56 -33 -89l-16 -114h-18q-99 0 -136 -9t-37 -32q0 -15 44 -15h168z
" />
    <glyph glyph-name="Wcircumflex" unicode="&#x174;" horiz-adv-x="978" 
d="M730 0h-122q-67 0 -97 24.5t-29 81.5q-16 -57 -51.5 -81.5t-102.5 -24.5h-122q-144 0 -123 144l78 556h40l-78 -550q-8 -63 13 -88.5t81 -25.5h126q61 0 89 25.5t36 88.5l78 550h40l-78 -550q-8 -63 13 -88.5t82 -25.5h126q60 0 88 25.5t36 88.5l78 550h40l-78 -556
q-11 -73 -50.5 -108.5t-112.5 -35.5zM584 825l-117 -74h-38l137 101h41l109 -101h-36z" />
    <glyph glyph-name="wcircumflex" unicode="&#x175;" horiz-adv-x="901" 
d="M431 96q-15 -53 -51 -74.5t-104 -21.5h-89q-72 0 -101.5 34t-19.5 107l65 462h40l-64 -459q-9 -60 12 -84t80 -24h98q59 0 86 24t35 83l64 460h40l-64 -460q-8 -59 12.5 -83t79.5 -24h98q59 0 86 24t36 84l64 459h40l-65 -462q-10 -73 -48.5 -107t-110.5 -34h-90
q-68 0 -98 22t-31 74zM523 737l-117 -74h-38l137 101h41l109 -101h-36z" />
    <glyph glyph-name="Ycircumflex" unicode="&#x176;" horiz-adv-x="647" 
d="M622 700h40l-32 -224q-19 -144 -164 -144h-108l-46 -332h-40l46 332h-109q-73 0 -103 35.5t-20 108.5l32 224h40l-31 -218q-8 -63 12.5 -88.5t80.5 -25.5h245q61 0 89 25.5t37 88.5zM408 825l-117 -74h-38l137 101h41l109 -101h-36z" />
    <glyph glyph-name="ycircumflex" unicode="&#x177;" horiz-adv-x="625" 
d="M296 -167h-236l5 36h232q76 0 115 33t49 111l8 51q-31 -63 -124 -63h-161q-72 0 -101.5 34.5t-19.5 106.5l65 461h40l-64 -458q-9 -59 12 -83.5t80 -24.5h162q59 0 86.5 24.5t36.5 83.5l63 458h40l-83 -590q-13 -92 -63 -136t-142 -44zM381 737l-117 -74h-38l137 101h41
l109 -101h-36z" />
    <glyph glyph-name="Ydieresis" unicode="&#x178;" horiz-adv-x="647" 
d="M622 700h40l-32 -224q-19 -144 -164 -144h-108l-46 -332h-40l46 332h-109q-73 0 -103 35.5t-20 108.5l32 224h40l-31 -218q-8 -63 12.5 -88.5t80.5 -25.5h245q61 0 89 25.5t37 88.5zM346 818l-6 -41h-70l6 41h70zM535 818l-6 -41h-70l6 41h70z" />
    <glyph glyph-name="Zacute" unicode="&#x179;" horiz-adv-x="626" 
d="M397 368q78 0 114.5 31t48.5 112l21 153h-452l5 36h492l-27 -195q-26 -173 -197 -173h-163q-78 0 -114.5 -31t-48.5 -112l-20 -153h477l-5 -36h-517l26 195q26 173 197 173h163zM520 852l-147 -101h-40l127 101h60z" />
    <glyph glyph-name="zacute" unicode="&#x17a;" horiz-adv-x="564" 
d="M215 283q-65 0 -98.5 -29.5t-43.5 -95.5l-16 -122h415l-5 -36h-455l20 155q25 164 187 164h128q65 0 99 29.5t43 95.5l17 123h-395l5 36h435l-22 -156q-22 -164 -186 -164h-128zM482 764l-147 -101h-40l127 101h60z" />
    <glyph glyph-name="Zdotaccent" unicode="&#x17b;" horiz-adv-x="626" 
d="M397 368q78 0 114.5 31t48.5 112l21 153h-452l5 36h492l-27 -195q-26 -173 -197 -173h-163q-78 0 -114.5 -31t-48.5 -112l-20 -153h477l-5 -36h-517l26 195q26 173 197 173h163zM429 818l-6 -41h-69l6 41h69z" />
    <glyph glyph-name="zdotaccent" unicode="&#x17c;" horiz-adv-x="564" 
d="M215 283q-65 0 -98.5 -29.5t-43.5 -95.5l-16 -122h415l-5 -36h-455l20 155q25 164 187 164h128q65 0 99 29.5t43 95.5l17 123h-395l5 36h435l-22 -156q-22 -164 -186 -164h-128zM391 730l-6 -41h-69l6 41h69z" />
    <glyph glyph-name="Zcaron" unicode="&#x17d;" horiz-adv-x="626" 
d="M397 368q78 0 114.5 31t48.5 112l21 153h-452l5 36h492l-27 -195q-26 -173 -197 -173h-163q-78 0 -114.5 -31t-48.5 -112l-20 -153h477l-5 -36h-517l26 195q26 173 197 173h163zM292 852l96 -74l117 74h38l-137 -101h-41l-109 101h36z" />
    <glyph glyph-name="zcaron" unicode="&#x17e;" horiz-adv-x="564" 
d="M215 283q-65 0 -98.5 -29.5t-43.5 -95.5l-16 -122h415l-5 -36h-455l20 155q25 164 187 164h128q65 0 99 29.5t43 95.5l17 123h-395l5 36h435l-22 -156q-22 -164 -186 -164h-128zM254 764l96 -74l117 74h38l-137 -101h-41l-109 101h36z" />
    <glyph glyph-name="florin" unicode="&#x192;" 
d="M553 368l-5 -36h-316l-27 -190q-10 -72 -49 -107t-112 -35h-37l5 36h32q59 0 86 24t36 83l26 189h-139l5 36h139l27 189q10 73 49.5 108t113.5 35h295l-5 -36h-290q-60 0 -87.5 -24t-35.5 -84l-27 -188h316z" />
    <glyph glyph-name="AEacute" unicode="&#x1fc;" horiz-adv-x="1026" 
d="M478 0l46 332h-396l-46 -332h-40l77 556q21 144 164 144h749l-5 -36h-420l-42 -296h328l-5 -36h-328l-41 -296h420l-5 -36h-456zM284 664q-60 0 -88 -25.5t-38 -88.5l-25 -182h396l42 296h-287zM735 852l-147 -101h-40l127 101h60z" />
    <glyph glyph-name="aeacute" unicode="&#x1fd;" horiz-adv-x="871" 
d="M805 406l9 74q7 47 -10 67t-65 20h-131q-59 0 -86 -24t-35 -83l-20 -141h237q47 0 70.5 20t30.5 67zM84 196l-9 -73q-7 -47 10.5 -67t64.5 -20h131q59 0 86 24t36 83l19 140h-238q-47 0 -69.5 -20t-30.5 -67zM261 0h-118q-64 0 -90.5 31t-17.5 97l9 63q10 66 44.5 97
t98.5 31h240l20 141q8 59 -12.5 83t-79.5 24h-228l5 36h213q68 0 98 -22t30 -74q16 53 52 74.5t104 21.5h117q65 0 91.5 -31t16.5 -97l-9 -64q-17 -128 -144 -128h-239l-19 -140q-9 -59 11.5 -83t79.5 -24h229l-5 -36h-213q-68 0 -98 21.5t-31 74.5q-16 -53 -51.5 -74.5
t-103.5 -21.5zM629 764l-147 -101h-40l127 101h60z" />
    <glyph glyph-name="Oslashacute" unicode="&#x1fe;" horiz-adv-x="669" 
d="M195 0q-144 0 -123 144l57 412q21 144 164 144h237q144 0 123 -144l-57 -412q-21 -144 -164 -144h-237zM112 150q-10 -71 20 -96l426 606q-15 4 -39 4h-225q-60 0 -88 -25.5t-38 -88.5zM556 150l56 400q11 72 -19 96l-427 -607q18 -3 40 -3h225q60 0 88.5 25.5t36.5 88.5
zM552 852l-147 -101h-40l127 101h60z" />
    <glyph glyph-name="oslashacute" unicode="&#x1ff;" horiz-adv-x="590" 
d="M434 603q73 0 102.5 -34t19.5 -107l-46 -321q-11 -73 -49 -107t-111 -34h-174q-72 0 -101.5 34t-19.5 107l45 321q10 73 49 107t111 34h174zM348 36q60 0 87 24t36 84l44 315q10 81 -35 100l-326 -521q10 -2 34 -2h160zM96 144q-12 -71 23 -94l322 516q-6 1 -19 1h-160
q-59 0 -86.5 -24t-36.5 -84zM490 764l-147 -101h-40l127 101h60z" />
    <glyph glyph-name="uni0218" unicode="&#x218;" horiz-adv-x="614" 
d="M204 332q-73 0 -102 33.5t-18 106.5l12 88q11 73 49 106.5t111 33.5h333l-5 -36h-329q-56 0 -84 -25.5t-35 -83.5l-12 -78q-8 -59 13 -84t76 -25h215q73 0 101.5 -33.5t18.5 -106.5l-12 -88q-10 -73 -48 -106.5t-111 -33.5h-364l5 36h360q55 0 83 25.5t36 83.5l10 78
q9 58 -12 83.5t-76 25.5h-215zM284 -87l-5 -37q-10 -68 -65 -68h-7l2 20h9q27 0 31 34l2 14h-36l5 37h64z" />
    <glyph glyph-name="uni0219" unicode="&#x219;" horiz-adv-x="551" 
d="M507 567h-288q-47 0 -69.5 -20t-30.5 -67l-9 -74q-7 -47 10 -67t64 -20h193q64 0 90.5 -31t16.5 -97l-9 -63q-17 -128 -142 -128h-320l5 36h318q47 0 69.5 20t29.5 67l10 73q7 47 -10.5 67t-64.5 20h-193q-64 0 -90 31t-17 97l9 64q10 66 44.5 97t98.5 31h290zM242 -87
l-5 -37q-10 -68 -65 -68h-7l2 20h9q27 0 31 34l2 14h-36l5 37h64z" />
    <glyph glyph-name="uni021A" unicode="&#x21a;" horiz-adv-x="565" 
d="M601 700l-5 -36h-242l-93 -664h-40l93 664h-242l5 36h524zM259 -87l-5 -37q-10 -68 -65 -68h-7l2 20h9q27 0 31 34l2 14h-36l5 37h64z" />
    <glyph glyph-name="uni021B" unicode="&#x21b;" horiz-adv-x="471" 
d="M187 0q-72 0 -101.5 34t-19.5 107l89 629h40l-24 -167h299l-5 -36h-299l-59 -423q-9 -60 12 -84t80 -24h192l-5 -36h-199zM222 -87l-5 -37q-10 -68 -65 -68h-7l2 20h9q27 0 31 34l2 14h-36l5 37h64z" />
    <glyph glyph-name="uni0237" unicode="&#x237;" horiz-adv-x="232" 
d="M-87 -131h32q59 0 81 19t30 79l89 636h40l-90 -639q-10 -73 -43 -102t-106 -29h-38z" />
    <glyph glyph-name="circumflex" unicode="&#x2c6;" horiz-adv-x="249" 
d="M187 737l-117 -74h-38l137 101h41l109 -101h-36z" />
    <glyph glyph-name="caron" unicode="&#x2c7;" horiz-adv-x="249" 
d="M82 764l96 -74l117 74h38l-137 -101h-41l-109 101h36z" />
    <glyph glyph-name="breve" unicode="&#x2d8;" horiz-adv-x="249" 
d="M66 724l3 38q25 -63 110 -63q84 0 126 63l-3 -38q-44 -58 -126 -58q-85 0 -110 58z" />
    <glyph glyph-name="dotaccent" unicode="&#x2d9;" horiz-adv-x="249" 
d="M219 730l-6 -41h-69l6 41h69z" />
    <glyph glyph-name="ring" unicode="&#x2da;" horiz-adv-x="249" 
d="M165 684h25q41 0 41 36q0 24 -33 24h-25q-41 0 -41 -36q0 -24 33 -24zM176 765h25q53 0 53 -42q0 -28 -17 -44t-50 -16h-25q-53 0 -53 42q0 28 17 44t50 16z" />
    <glyph glyph-name="ogonek" unicode="&#x2db;" horiz-adv-x="268" 
d="M172 -62h-18q-99 0 -136 -9t-37 -32q0 -15 44 -15h168l-5 -34h-169q-62 0 -62 37q0 41 41 56t147 15h11l7 44h18z" />
    <glyph glyph-name="tilde" unicode="&#x2dc;" horiz-adv-x="249" 
d="M58 671l5 34q37 37 70 37q20 0 52.5 -20.5t51.5 -20.5q31 0 67 39l-4 -34q-39 -38 -72 -38q-20 0 -53 20.5t-51 20.5q-31 0 -66 -38z" />
    <glyph glyph-name="hungarumlaut" unicode="&#x2dd;" horiz-adv-x="249" 
d="M366 764l-147 -101h-40l127 101h60zM210 764l-147 -101h-40l127 101h60z" />
    <glyph glyph-name="pi" unicode="&#x3c0;" 
d="M56 0l84 603h453l-84 -603h-40l79 567h-373l-79 -567h-40z" />
    <glyph glyph-name="uni1E02" unicode="&#x1e02;" horiz-adv-x="683" 
d="M605 222l-12 -82q-10 -73 -47.5 -106.5t-110.5 -33.5h-382l98 700h382q73 0 101.5 -33.5t17.5 -106.5l-11 -82q-8 -57 -34.5 -88t-82.5 -40q53 -9 71 -40.5t10 -87.5zM481 368q59 0 85.5 25t34.5 85l11 77q8 59 -12.5 84t-75.5 25h-338l-42 -296h337zM139 332l-41 -296
h338q55 0 82.5 25.5t35.5 83.5l11 77q8 60 -11 85t-78 25h-337zM451 818l-6 -41h-69l6 41h69z" />
    <glyph glyph-name="uni1E03" unicode="&#x1e03;" horiz-adv-x="603" 
d="M66 141l89 629h40l-33 -230q31 63 124 63h161q73 0 102.5 -34t19.5 -107l-46 -321q-10 -73 -48.5 -107t-111.5 -34h-176q-72 0 -101.5 34t-19.5 107zM150 459l-43 -315q-9 -60 12 -84t80 -24h162q60 0 87 24t36 84l44 315q8 60 -12.5 84t-80.5 24h-162q-59 0 -86.5 -24
t-36.5 -84zM425 730l-6 -41h-69l6 41h69z" />
    <glyph glyph-name="uni1E0A" unicode="&#x1e0a;" horiz-adv-x="684" 
d="M473 700q198 0 171 -199l-43 -302q-27 -199 -226 -199h-322l98 700h322zM373 36q84 0 130.5 40t58.5 127l41 294q13 87 -22.5 127t-119.5 40h-275l-88 -628h275zM440 818l-6 -41h-69l6 41h69z" />
    <glyph glyph-name="uni1E0B" unicode="&#x1e0b;" horiz-adv-x="603" 
d="M601 770l-89 -629q-10 -73 -48.5 -107t-111.5 -34h-176q-72 0 -101.5 34t-19.5 107l45 321q10 73 49 107t111 34h161q94 0 107 -63l33 230h40zM473 144l44 315q8 60 -12.5 84t-80.5 24h-162q-59 0 -86.5 -24t-36.5 -84l-43 -315q-9 -60 12 -84t80 -24h162q60 0 87 24
t36 84zM386 730l-6 -41h-69l6 41h69z" />
    <glyph glyph-name="uni1E1E" unicode="&#x1e1e;" horiz-adv-x="609" 
d="M53 0l98 700h493l-5 -36h-453l-42 -296h362l-5 -36h-362l-46 -332h-40zM432 818l-6 -41h-69l6 41h69z" />
    <glyph glyph-name="uni1E1F" unicode="&#x1e1f;" horiz-adv-x="512" 
d="M282 567q-66 0 -100.5 -29t-44.5 -98l-16 -121h320l-5 -36h-320l-63 -450h-40l84 607q13 84 58.5 123.5t128.5 39.5h244l-5 -36h-241zM386 730l-6 -41h-69l6 41h69z" />
    <glyph glyph-name="uni1E40" unicode="&#x1e40;" horiz-adv-x="978" 
d="M685 700h122q73 0 103 -35.5t20 -108.5l-78 -556h-40l77 550q9 63 -12 88.5t-81 25.5h-126q-61 0 -89 -25.5t-37 -88.5l-77 -550h-40l77 550q9 63 -12 88.5t-82 25.5h-126q-60 0 -88 -25.5t-38 -88.5l-76 -550h-40l77 556q21 144 164 144h122q67 0 96.5 -24.5t28.5 -81.5
q16 57 52 81.5t103 24.5zM595 818l-6 -41h-69l6 41h69z" />
    <glyph glyph-name="uni1E41" unicode="&#x1e41;" horiz-adv-x="901" 
d="M479 507q16 53 51.5 74.5t103.5 21.5h90q72 0 101.5 -34t19.5 -107l-65 -462h-40l64 459q8 60 -12.5 84t-79.5 24h-98q-59 0 -86.5 -24t-35.5 -83l-64 -460h-40l64 460q8 59 -12 83t-79 24h-98q-59 0 -86.5 -24t-36.5 -84l-63 -459h-40l64 462q10 73 49 107t111 34h89
q68 0 98 -21.5t31 -74.5zM545 730l-6 -41h-69l6 41h69z" />
    <glyph glyph-name="uni1E56" unicode="&#x1e56;" horiz-adv-x="651" 
d="M53 0l98 700h380q73 0 102 -33.5t18 -106.5l-12 -88q-11 -73 -49 -106.5t-111 -33.5h-340l-46 -332h-40zM611 555q8 59 -13 84t-76 25h-336l-42 -296h336q56 0 84 25.5t35 83.5zM451 818l-6 -41h-69l6 41h69z" />
    <glyph glyph-name="uni1E57" unicode="&#x1e57;" horiz-adv-x="603" 
d="M13 -167l88 629q10 73 49 107t111 34h176q73 0 102.5 -34t19.5 -107l-46 -321q-10 -73 -48.5 -107t-111.5 -34h-161q-94 0 -107 63l-32 -230h-40zM140 459l-43 -315q-9 -60 12 -84t80 -24h162q60 0 87 24t36 84l44 315q8 60 -12.5 84t-80.5 24h-162q-59 0 -86.5 -24
t-36.5 -84zM396 730l-6 -41h-69l6 41h69z" />
    <glyph glyph-name="uni1E60" unicode="&#x1e60;" horiz-adv-x="614" 
d="M204 332q-73 0 -102 33.5t-18 106.5l12 88q11 73 49 106.5t111 33.5h333l-5 -36h-329q-56 0 -84 -25.5t-35 -83.5l-12 -78q-8 -59 13 -84t76 -25h215q73 0 101.5 -33.5t18.5 -106.5l-12 -88q-10 -73 -48 -106.5t-111 -33.5h-364l5 36h360q55 0 83 25.5t36 83.5l10 78
q9 58 -12 83.5t-76 25.5h-215zM414 818l-6 -41h-69l6 41h69z" />
    <glyph glyph-name="uni1E61" unicode="&#x1e61;" horiz-adv-x="551" 
d="M507 567h-288q-47 0 -69.5 -20t-30.5 -67l-9 -74q-7 -47 10 -67t64 -20h193q64 0 90.5 -31t16.5 -97l-9 -63q-17 -128 -142 -128h-320l5 36h318q47 0 69.5 20t29.5 67l10 73q7 47 -10.5 67t-64.5 20h-193q-64 0 -90 31t-17 97l9 64q10 66 44.5 97t98.5 31h290zM370 730
l-6 -41h-69l6 41h69z" />
    <glyph glyph-name="uni1E6A" unicode="&#x1e6a;" horiz-adv-x="565" 
d="M601 700l-5 -36h-242l-93 -664h-40l93 664h-242l5 36h524zM389 818l-6 -41h-69l6 41h69z" />
    <glyph glyph-name="uni1E6B" unicode="&#x1e6b;" horiz-adv-x="471" 
d="M187 0q-72 0 -101.5 34t-19.5 107l89 629h40l-24 -167h299l-5 -36h-299l-59 -423q-9 -60 12 -84t80 -24h192l-5 -36h-199zM377 730l-6 -41h-69l6 41h69z" />
    <glyph glyph-name="Wgrave" unicode="&#x1e80;" horiz-adv-x="978" 
d="M730 0h-122q-67 0 -97 24.5t-29 81.5q-16 -57 -51.5 -81.5t-102.5 -24.5h-122q-144 0 -123 144l78 556h40l-78 -550q-8 -63 13 -88.5t81 -25.5h126q61 0 89 25.5t36 88.5l78 550h40l-78 -550q-8 -63 13 -88.5t82 -25.5h126q60 0 88 25.5t36 88.5l78 550h40l-78 -556
q-11 -73 -50.5 -108.5t-112.5 -35.5zM587 751l-115 101h54l99 -101h-38z" />
    <glyph glyph-name="wgrave" unicode="&#x1e81;" horiz-adv-x="901" 
d="M431 96q-15 -53 -51 -74.5t-104 -21.5h-89q-72 0 -101.5 34t-19.5 107l65 462h40l-64 -459q-9 -60 12 -84t80 -24h98q59 0 86 24t35 83l64 460h40l-64 -460q-8 -59 12.5 -83t79.5 -24h98q59 0 86 24t36 84l64 459h40l-65 -462q-10 -73 -48.5 -107t-110.5 -34h-90
q-68 0 -98 22t-31 74zM525 663l-115 101h54l99 -101h-38z" />
    <glyph glyph-name="Wacute" unicode="&#x1e82;" horiz-adv-x="978" 
d="M730 0h-122q-67 0 -97 24.5t-29 81.5q-16 -57 -51.5 -81.5t-102.5 -24.5h-122q-144 0 -123 144l78 556h40l-78 -550q-8 -63 13 -88.5t81 -25.5h126q61 0 89 25.5t36 88.5l78 550h40l-78 -550q-8 -63 13 -88.5t82 -25.5h126q60 0 88 25.5t36 88.5l78 550h40l-78 -556
q-11 -73 -50.5 -108.5t-112.5 -35.5zM707 852l-147 -101h-40l127 101h60z" />
    <glyph glyph-name="wacute" unicode="&#x1e83;" horiz-adv-x="901" 
d="M431 96q-15 -53 -51 -74.5t-104 -21.5h-89q-72 0 -101.5 34t-19.5 107l65 462h40l-64 -459q-9 -60 12 -84t80 -24h98q59 0 86 24t35 83l64 460h40l-64 -460q-8 -59 12.5 -83t79.5 -24h98q59 0 86 24t36 84l64 459h40l-65 -462q-10 -73 -48.5 -107t-110.5 -34h-90
q-68 0 -98 22t-31 74zM645 764l-147 -101h-40l127 101h60z" />
    <glyph glyph-name="Wdieresis" unicode="&#x1e84;" horiz-adv-x="978" 
d="M730 0h-122q-67 0 -97 24.5t-29 81.5q-16 -57 -51.5 -81.5t-102.5 -24.5h-122q-144 0 -123 144l78 556h40l-78 -550q-8 -63 13 -88.5t81 -25.5h126q61 0 89 25.5t36 88.5l78 550h40l-78 -550q-8 -63 13 -88.5t82 -25.5h126q60 0 88 25.5t36 88.5l78 550h40l-78 -556
q-11 -73 -50.5 -108.5t-112.5 -35.5zM522 818l-6 -41h-70l6 41h70zM711 818l-6 -41h-70l6 41h70z" />
    <glyph glyph-name="wdieresis" unicode="&#x1e85;" horiz-adv-x="901" 
d="M431 96q-15 -53 -51 -74.5t-104 -21.5h-89q-72 0 -101.5 34t-19.5 107l65 462h40l-64 -459q-9 -60 12 -84t80 -24h98q59 0 86 24t35 83l64 460h40l-64 -460q-8 -59 12.5 -83t79.5 -24h98q59 0 86 24t36 84l64 459h40l-65 -462q-10 -73 -48.5 -107t-110.5 -34h-90
q-68 0 -98 22t-31 74zM461 730l-6 -41h-70l6 41h70zM650 730l-6 -41h-70l6 41h70z" />
    <glyph glyph-name="Ygrave" unicode="&#x1ef2;" horiz-adv-x="647" 
d="M622 700h40l-32 -224q-19 -144 -164 -144h-108l-46 -332h-40l46 332h-109q-73 0 -103 35.5t-20 108.5l32 224h40l-31 -218q-8 -63 12.5 -88.5t80.5 -25.5h245q61 0 89 25.5t37 88.5zM411 751l-115 101h54l99 -101h-38z" />
    <glyph glyph-name="ygrave" unicode="&#x1ef3;" horiz-adv-x="625" 
d="M296 -167h-236l5 36h232q76 0 115 33t49 111l8 51q-31 -63 -124 -63h-161q-72 0 -101.5 34.5t-19.5 106.5l65 461h40l-64 -458q-9 -59 12 -83.5t80 -24.5h162q59 0 86.5 24.5t36.5 83.5l63 458h40l-83 -590q-13 -92 -63 -136t-142 -44zM384 663l-115 101h54l99 -101h-38z
" />
    <glyph glyph-name="uni2010" unicode="&#x2010;" horiz-adv-x="425" 
d="M387 345l-5 -36h-336l5 36h336z" />
    <glyph glyph-name="figuredash" unicode="&#x2012;" 
d="M655 345l-5 -36h-649l5 36h649z" />
    <glyph glyph-name="endash" unicode="&#x2013;" horiz-adv-x="537" 
d="M543 345l-5 -36h-537l5 36h537z" />
    <glyph glyph-name="emdash" unicode="&#x2014;" horiz-adv-x="1074" 
d="M1080 345l-5 -36h-1074l5 36h1074z" />
    <glyph glyph-name="quoteleft" unicode="&#x2018;" horiz-adv-x="274" 
d="M140 568l7 47q6 46 22.5 65.5t51.5 19.5h6l-2 -16h-7q-17 0 -26.5 -11.5t-13.5 -40.5l-2 -17h39l-7 -47h-68z" />
    <glyph glyph-name="quoteright" unicode="&#x2019;" horiz-adv-x="274" 
d="M227 700l-7 -47q-6 -46 -22.5 -65.5t-51.5 -19.5h-6l2 16h7q17 0 26.5 11.5t13.5 40.5l2 17h-39l7 47h68z" />
    <glyph glyph-name="quotesinglbase" unicode="&#x201a;" horiz-adv-x="274" 
d="M136 51l-7 -47q-6 -46 -22.5 -65.5t-51.5 -19.5h-6l2 16h7q17 0 26.5 11.5t13.5 40.5l2 17h-39l7 47h68z" />
    <glyph glyph-name="quotedblleft" unicode="&#x201c;" horiz-adv-x="435" 
d="M301 568l7 47q6 46 22.5 65.5t51.5 19.5h7l-3 -16h-7q-17 0 -26.5 -11.5t-13.5 -40.5l-2 -17h40l-7 -47h-69zM140 568l7 47q6 46 22.5 65.5t51.5 19.5h6l-2 -16h-7q-17 0 -26.5 -11.5t-13.5 -40.5l-2 -17h39l-7 -47h-68z" />
    <glyph glyph-name="quotedblright" unicode="&#x201d;" horiz-adv-x="435" 
d="M388 700l-7 -47q-6 -46 -22.5 -65.5t-51.5 -19.5h-6l2 16h7q17 0 26.5 11.5t13.5 40.5l2 17h-39l7 47h68zM227 700l-7 -47q-6 -46 -22.5 -65.5t-51.5 -19.5h-6l2 16h7q17 0 26.5 11.5t13.5 40.5l2 17h-39l7 47h68z" />
    <glyph glyph-name="quotedblbase" unicode="&#x201e;" horiz-adv-x="435" 
d="M297 51l-7 -47q-6 -46 -22.5 -65.5t-51.5 -19.5h-6l2 16h7q17 0 26.5 11.5t13.5 40.5l2 17h-39l7 47h68zM136 51l-7 -47q-6 -46 -22.5 -65.5t-51.5 -19.5h-6l2 16h7q17 0 26.5 11.5t13.5 40.5l2 17h-39l7 47h68z" />
    <glyph glyph-name="dagger" unicode="&#x2020;" horiz-adv-x="583" 
d="M571 481l-5 -36h-235l-81 -577h-40l81 577h-234l5 36h234l37 259h40l-37 -259h235z" />
    <glyph glyph-name="daggerdbl" unicode="&#x2021;" horiz-adv-x="583" 
d="M532 206l-5 -36h-235l-42 -302h-40l42 302h-234l5 36h234l34 239h-234l5 36h234l37 259h40l-37 -259h235l-5 -36h-235l-34 -239h235z" />
    <glyph glyph-name="bullet" unicode="&#x2022;" horiz-adv-x="537" 
d="M324 164h-105q-133 0 -133 125v122q0 125 133 125h105q133 0 133 -125v-122q0 -125 -133 -125z" />
    <glyph glyph-name="ellipsis" unicode="&#x2026;" horiz-adv-x="596" 
d="M136 51l-7 -51h-68l7 51h68zM297 51l-7 -51h-68l7 51h68zM459 51l-7 -51h-68l7 51h68z" />
    <glyph glyph-name="perthousand" unicode="&#x2030;" horiz-adv-x="1564" 
d="M393 0l319 700h37l-319 -700h-37zM648 114l43 306q16 114 130 114h152q59 0 82.5 -28t15.5 -86l-43 -306q-16 -114 -130 -114h-152q-59 0 -82.5 28t-15.5 86zM987 111l44 312q6 40 -9.5 57.5t-53.5 17.5h-152q-38 0 -58.5 -17.5t-26.5 -57.5l-44 -312q-5 -40 10.5 -57.5
t53.5 -17.5h152q38 0 58.5 17.5t25.5 57.5zM1100 114l43 306q16 114 130 114h152q59 0 82.5 -28t15.5 -86l-43 -306q-16 -114 -130 -114h-152q-59 0 -82.5 28t-15.5 86zM1439 111l44 312q6 40 -9.5 57.5t-53.5 17.5h-152q-38 0 -58.5 -17.5t-26.5 -57.5l-44 -312
q-5 -40 10.5 -57.5t53.5 -17.5h152q38 0 58.5 17.5t25.5 57.5zM70 280l43 306q16 114 130 114h152q59 0 82.5 -28t15.5 -86l-43 -306q-16 -114 -130 -114h-152q-59 0 -82.5 28t-15.5 86zM409 277l44 312q6 40 -9.5 57.5t-53.5 17.5h-152q-38 0 -58.5 -17.5t-26.5 -57.5
l-44 -312q-5 -40 10.5 -57.5t53.5 -17.5h152q38 0 58.5 17.5t25.5 57.5z" />
    <glyph glyph-name="guilsinglleft" unicode="&#x2039;" horiz-adv-x="265" 
d="M199 51h-40l-129 249l199 249h42l-200 -251z" />
    <glyph glyph-name="guilsinglright" unicode="&#x203a;" horiz-adv-x="265" 
d="M66 549h40l129 -249l-199 -249h-43l201 250z" />
    <glyph glyph-name="fraction" unicode="&#x2044;" horiz-adv-x="322" 
d="M-10 0l319 700h37l-319 -700h-37z" />
    <glyph glyph-name="zerosuperior" unicode="&#x2070;" horiz-adv-x="510" 
d="M70 280l43 306q16 114 130 114h152q59 0 82.5 -28t15.5 -86l-43 -306q-16 -114 -130 -114h-152q-59 0 -82.5 28t-15.5 86zM409 277l44 312q6 40 -9.5 57.5t-53.5 17.5h-152q-38 0 -58.5 -17.5t-26.5 -57.5l-44 -312q-5 -40 10.5 -57.5t53.5 -17.5h152q38 0 58.5 17.5
t25.5 57.5z" />
    <glyph glyph-name="foursuperior" unicode="&#x2074;" horiz-adv-x="510" 
d="M414 451l35 249h40l-75 -534h-40l35 249h-224q-59 0 -82.5 28t-15.5 86l24 171h40l-25 -174q-5 -40 10.5 -57.5t53.5 -17.5h224z" />
    <glyph glyph-name="zeroinferior" unicode="&#x2080;" horiz-adv-x="510" 
d="M47 114l43 306q16 114 130 114h152q59 0 82.5 -28t15.5 -86l-43 -306q-16 -114 -130 -114h-152q-59 0 -82.5 28t-15.5 86zM386 111l44 312q6 40 -9.5 57.5t-53.5 17.5h-152q-38 0 -58.5 -17.5t-26.5 -57.5l-44 -312q-5 -40 10.5 -57.5t53.5 -17.5h152q38 0 58.5 17.5
t25.5 57.5z" />
    <glyph glyph-name="oneinferior" unicode="&#x2081;" horiz-adv-x="510" 
d="M85 0l5 36h157l65 462h-157l5 36h197l-70 -498h123l-5 -36h-320z" />
    <glyph glyph-name="twoinferior" unicode="&#x2082;" horiz-adv-x="510" 
d="M432 362l8 59q6 43 -8 60t-56 17h-276l5 36h278q58 0 81.5 -28t15.5 -86l-8 -57q-16 -114 -129 -114h-149q-63 0 -90 -23.5t-35 -85.5l-15 -104h372l-5 -36h-412l20 146q19 139 159 139h158q42 0 61 17t25 60z" />
    <glyph glyph-name="threeinferior" unicode="&#x2083;" horiz-adv-x="510" 
d="M476 420l-7 -49q-7 -47 -26.5 -72.5t-68.5 -31.5q47 -6 60 -31.5t6 -72.5l-7 -49q-16 -114 -129 -114h-303l5 36h301q42 0 61 17t25 60l8 60q6 40 -9 58t-53 18h-227l5 36h227q38 0 58 18t26 58l8 60q6 43 -8 60t-56 17h-301l5 36h303q58 0 81.5 -28t15.5 -86z" />
    <glyph glyph-name="fourinferior" unicode="&#x2084;" horiz-adv-x="510" 
d="M391 285l35 249h40l-75 -534h-40l35 249h-224q-59 0 -82.5 28t-15.5 86l24 171h40l-25 -174q-5 -40 10.5 -57.5t53.5 -17.5h224z" />
    <glyph glyph-name="Euro" unicode="&#x20ac;" 
d="M197 0q-144 0 -123 144l26 188h-72l5 36h72l27 188q19 144 163 144h362l-5 -36h-356q-60 0 -88 -25.5t-37 -88.5l-26 -182h367l-5 -36h-367l-26 -182q-8 -63 13 -88.5t81 -25.5h356l-5 -36h-362z" />
    <glyph glyph-name="uni2117" unicode="&#x2117;" horiz-adv-x="781" 
d="M297 367h197q27 0 27 26v55q0 26 -27 26h-197v-107zM561 442v-43q0 -68 -68 -68h-196v-142h-40v321h236q68 0 68 -68zM240 0q-81 0 -120 39t-39 119v384q0 80 39 119t120 39h317q81 0 120 -39t39 -119v-384q0 -80 -39 -119t-120 -39h-317zM242 36h313q62 0 91.5 30
t29.5 92v384q0 62 -29.5 92t-91.5 30h-313q-62 0 -91.5 -30t-29.5 -92v-384q0 -62 29.5 -92t91.5 -30z" />
    <glyph glyph-name="trademark" unicode="&#x2122;" horiz-adv-x="1174" 
d="M772 167v405q0 47 -19.5 69.5t-62.5 22.5h-111q-38 0 -54 -16.5t-16 -55.5v-425h-40v419q0 58 27.5 86t86.5 28h87q58 0 87 -22t35 -70q6 48 35 70t87 22h88q59 0 86.5 -28t27.5 -86v-419h-40v425q0 39 -16 55.5t-54 16.5h-112q-43 0 -62.5 -22.5t-19.5 -69.5v-405h-40z
M393 700v-36h-153v-497h-40v497h-153v36h346z" />
    <glyph glyph-name="uni2126" unicode="&#x2126;" 
d="M552 358v197q0 58 -24 83.5t-80 25.5h-241q-56 0 -80 -25.5t-24 -83.5v-197q0 -58 24 -83.5t80 -25.5h60v-249h-209v36h169v177h-24q-73 0 -106.5 33.5t-33.5 106.5v207q0 73 33.5 106.5t106.5 33.5h249q73 0 106.5 -33.5t33.5 -106.5v-207q0 -73 -33.5 -106.5
t-106.5 -33.5h-24v-177h170v-36h-210v249h60q56 0 80 25.5t24 83.5z" />
    <glyph glyph-name="onethird" unicode="&#x2153;" horiz-adv-x="1112" 
d="M108 166l5 36h157l65 462h-157l5 36h197l-70 -498h123l-5 -36h-320zM385 0l319 700h37l-319 -700h-37zM1077 420l-7 -49q-7 -47 -26.5 -72.5t-68.5 -31.5q47 -6 60 -31.5t6 -72.5l-7 -49q-16 -114 -129 -114h-303l5 36h301q42 0 61 17t25 60l8 60q6 40 -9 58t-53 18h-227
l5 36h227q38 0 58 18t26 58l8 60q6 43 -8 60t-56 17h-301l5 36h303q58 0 81.5 -28t15.5 -86z" />
    <glyph glyph-name="twothirds" unicode="&#x2154;" horiz-adv-x="1112" 
d="M455 528l8 59q6 43 -8 60t-56 17h-276l5 36h278q58 0 81.5 -28t15.5 -86l-8 -57q-16 -114 -129 -114h-149q-63 0 -90 -23.5t-35 -85.5l-15 -104h372l-5 -36h-412l20 146q19 139 159 139h158q42 0 61 17t25 60zM385 0l319 700h37l-319 -700h-37zM1077 420l-7 -49
q-7 -47 -26.5 -72.5t-68.5 -31.5q47 -6 60 -31.5t6 -72.5l-7 -49q-16 -114 -129 -114h-303l5 36h301q42 0 61 17t25 60l8 60q6 40 -9 58t-53 18h-227l5 36h227q38 0 58 18t26 58l8 60q6 43 -8 60t-56 17h-301l5 36h303q58 0 81.5 -28t15.5 -86z" />
    <glyph glyph-name="partialdiff" unicode="&#x2202;" 
d="M582 501v-361q0 -73 -33.5 -106.5t-106.5 -33.5h-247q-73 0 -106 33.5t-33 106.5v88q0 73 33 106.5t106 33.5h347v129q0 86 -41.5 126.5t-124.5 40.5h-295v36h303q97 0 147.5 -50t50.5 -149zM96 223v-78q0 -58 24 -83.5t79 -25.5h239q55 0 79.5 25.5t24.5 83.5v187h-343
q-55 0 -79 -25.5t-24 -83.5z" />
    <glyph glyph-name="uni2206" unicode="&#x2206;" 
d="M57 0l270 715l270 -715h-540zM327 612l-218 -576h435z" />
    <glyph glyph-name="product" unicode="&#x220f;" 
d="M540 -132v796h-424v-796h-40v832h504v-832h-40z" />
    <glyph glyph-name="summation" unicode="&#x2211;" 
d="M580 -96v-36h-504v28l321 388l-321 388v28h504v-36h-453l315 -380l-315 -380h453z" />
    <glyph glyph-name="minus" unicode="&#x2212;" 
d="M76 331v36h504v-36h-504z" />
    <glyph glyph-name="radical" unicode="&#x221a;" 
d="M371 0l-96 331h-199v36h226l92 -322l186 655h38l-199 -700h-48z" />
    <glyph glyph-name="infinity" unicode="&#x221e;" horiz-adv-x="733" 
d="M345 317q-12 0 -23.5 12.5t-14.5 12.5t-11 -2t-14 -2q-8 0 -14.5 8t-6.5 17q0 22 8 35q-7 -7 -16 -37t-26 -41q-18 -12 -18 -40q0 -11 11 -21.5t11 -12.5q0 -4 -3 -4q-7 0 -12 5q13 -68 48 -104h-55q-35 114 -35 226q0 105 40.5 171.5t135.5 66.5q190 0 190 -254
q0 -75 -25 -210h-73q53 47 62 117q-4 -8 -13 -8q-3 0 -3 2l4 4q5 3 9.5 11.5t4.5 21.5q-4 -6 -15 -6q-1 0 -10.5 -4.5t-15.5 -4.5q-14 0 -40 3.5t-70 3.5q-22 0 -52.5 -6t-38.5 -6q-5 0 -13 2t-11 2q-28 0 -28 12q0 10 37 18.5t74 8.5q5 0 12 -0.5t12 -0.5t15.5 2t14.5 2
q112 0 127 -20q-1 16 -14 29t-30 13q-6 0 -6 7q0 57 -16 58q4 -7 4 -17q0 -18 -11 -32t-27 -14q-4 0 -10 2l-7 2q-1 0 -14.5 -14t-27.5 -14zM733 291v-148q-22 48 -69 112.5t-67 64.5q6 -85 -12 -177h-42q16 104 16 199q0 319 -213 319q-53 0 -91.5 -26.5t-59 -72.5
t-30 -97.5t-9.5 -111.5q0 -123 29 -210h-47q-19 67 -19 184q-17 -9 -39.5 -43.5t-49 -84.5t-30.5 -56v148q11 27 33 54t50 53.5t30 28.5q3 72 27 135t75.5 107.5t120.5 44.5q67 0 115.5 -22.5t76.5 -64t42.5 -87t22.5 -105.5q22 -5 68 -48t72 -96zM345 503q-3 3 -3 6
q0 2 2 2q1 0 6 -4.5t15 -8.5t22 -4q16 0 29 4t20 8l6 5q4 0 4 -2l-8 -8q24 0 52 -11q-29 80 -139 80q-55 0 -92 -33t-50 -85q37 20 41 39q-6 4 -6 7q0 4 3 4l2 -2q2 -1 6.5 -3.5t10 -5t13.5 -4t17 -1.5q24 0 49 17zM371 416q0 20 -4.5 40t-9.5 20q-10 0 -19 -39t-14 -39
q-3 0 -9.5 3t-11.5 3q-13 0 -21 -10.5t-8 -24.5t11 -14t18 6.5t9 6.5t12 -13.5t20 -13.5q14 0 25 10.5t12 10.5q3 0 10 -3.5t9 -3.5q10 0 18 11t8 24q0 10 -6 18t-16 8q-7 0 -14.5 -6.5t-11.5 -6.5q-7 0 -7 13zM510 318q0 95 -12 147l-5 3q0 -21 -18 -32t-41 -11
q-21 0 -37 12.5t-16 29.5q0 6 2 9q-12 2 -15 4q6 -9 10 -24t5.5 -24t4.5 -9q7 2 15 2q19 0 31 -14q34 0 34 -51q0 -3 8 -7t18.5 -13t15.5 -22zM383 310q-1 0 -8 -1t-15.5 -2t-13.5 -1t-13 1.5t-11 1.5q-15 0 -36 -4t-35 -9t-14 -8q0 -10 20 -10q24 0 54 6.5t44 6.5
q19 0 57.5 -3.5t52.5 -3.5q5 0 9.5 2t7.5 4t3 3q0 5 -36 11t-66 6zM267 413q-18 0 -31 10t-15 21q-4 -2 -15 -5q-4 -21 -4 -43q0 -50 3 -78q4 6 22 22t20 31q5 37 38 41q12 5 23 5q5 0 8.5 8.5t9.5 24.5t16 28l-13 -4q-1 -24 -18.5 -42.5t-43.5 -18.5zM419 465q-13 0 -16 13
q-5 0 -8.5 -5.5t-3.5 -9.5q0 -10 15 -17t31 -7q14 0 29 8.5t15 21.5q0 8 -14.5 12.5t-28.5 4.5q-5 -21 -19 -21zM267 427q14 0 30 11t16 24q0 6 -1 9q-20 0 -27 1q-5 -14 -18 -14q-10 0 -15 5q-4 -4 -18 -12q4 -24 33 -24zM266 288q-2 0 -2 3q0 12 107 12q93 0 93 -8
q0 -3 -3 -3q-1 0 -4 0.5t-10 1t-16 1.5t-24.5 1.5t-33.5 0.5q-36 0 -61 -2.5t-36 -4.5zM305 262q0 10 63 10q31 0 31 -8q0 -3 -2 -3q-4 0 -10 2t-10 2q-11 0 -26 -0.5t-20 -0.5q-4 0 -11.5 -3t-10.5 -3q-4 0 -4 4zM417 473q9 0 9 13q-1 0 -16 -6q0 -7 7 -7zM266 466
q7 0 10 9q-6 1 -11 4q0 -4 -6 -10q1 -3 7 -3zM325 34l-3 48l-10 -82h-21l15 125h25l4 -60l21 60h26l-15 -125h-22l10 82l-16 -48h-14zM21 125h35q23 0 20 -21l-10 -82q-3 -22 -22 -22h-38zM282 44q-1 -12 -10 -17l8 -27h-21l-7 23h-7l-3 -23h-22l15 125h36q21 0 18 -24z
M183 0l3 23h-14l-3 -23h-21l12 104q2 21 22 21h17q19 0 18 -21l-12 -104h-22zM594 0l15 125h35q23 0 20 -21l-8 -62q-3 -19 -22 -19h-15l-3 -23h-22zM111 0l3 23h-13l-3 -23h-22l15 125h22l-10 -83h13l10 83h22l-15 -125h-22zM539 125h22l-10 -79q0 -4 4 -4h5q5 0 5 4l9 79
h22l-10 -81q-3 -21 -19 -21l-9 -23h-23l9 23q-18 0 -15 21zM477 106l3 19h50l-3 -19h-13l-12 -106h-23l12 106h-14zM41 106l-11 -88h11q3 0 3 4l9 80q0 4 -4 4h-8zM629 106l-8 -64h8q5 0 5 4l7 56q0 4 -4 4h-8zM174 42h14l7 60q0 4 -4 4h-5q-5 0 -5 -4zM255 106l-8 -64h8
q5 0 5 4l7 56q0 4 -3 4h-9zM711 57l-3 -18h-19l-3 -21h27l-2 -18h-49l15 125h47l-3 -19h-24l-6 -49h20zM417 0l3 23h-14l-3 -23h-21l12 104q2 21 22 21h17q19 0 18 -21l-12 -104h-22zM408 42h14l7 60q0 4 -4 4h-5q-5 0 -5 -4z" />
    <glyph glyph-name="integral" unicode="&#x222b;" 
d="M386 556l-75 -548q-10 -72 -48.5 -106t-111.5 -34h-75v36h73q60 0 87.5 24t36.5 84l75 548q10 72 48.5 106t111.5 34h72v-36h-70q-60 0 -87.5 -24t-36.5 -84z" />
    <glyph glyph-name="approxequal" unicode="&#x2248;" 
d="M76 188v47q47 54 113 54q46 0 139.5 -37t137.5 -37q67 0 114 64v-49q-48 -53 -113 -53q-46 0 -140.5 37t-138.5 37q-66 0 -112 -63zM76 424v48q47 54 112 54q46 0 140 -37.5t138 -37.5q69 0 114 64v-48q-49 -54 -114 -54q-46 0 -140 37t-137 37q-67 0 -113 -63z" />
    <glyph glyph-name="notequal" unicode="&#x2260;" 
d="M194 0h-39l93 211h-161v36h177l91 204h-268v36h284l95 213h39l-95 -213h158v-36h-174l-91 -204h265v-36h-281z" />
    <glyph glyph-name="lessequal" unicode="&#x2264;" 
d="M580 0h-504v36h504v-36zM76 350l208 206h48l-190 -189h438v-36h-437l189 -188h-48z" />
    <glyph glyph-name="greaterequal" unicode="&#x2265;" 
d="M580 0h-504v36h504v-36zM372 556l208 -206l-208 -207h-48l189 188h-437v36h438l-190 189h48z" />
    <glyph glyph-name="lozenge" unicode="&#x25ca;" 
d="M327 -15l-270 362l270 362l270 -362zM327 47l223 300l-223 300l-223 -300z" />
    <glyph glyph-name="commaaccent" horiz-adv-x="268" 
d="M111 -87l-5 -37q-10 -68 -65 -68h-7l2 20h9q27 0 31 34l2 14h-36l5 37h64z" />
    <glyph glyph-name="i.alt" horiz-adv-x="229" 
d="M53 0l84 603h40l-84 -603h-40zM209 730l-6 -41h-69l6 41h69z" />
    <glyph glyph-name="i.trk" horiz-adv-x="292" 
d="M191 36h49l-5 -36h-55q-71 0 -97 30t-16 101l66 472h40l-66 -469q-8 -58 9 -78t75 -20zM205 730l-6 -41h-69l6 41h69z" />
    <glyph glyph-name="one.pnum" horiz-adv-x="325" 
d="M286 700l-98 -700h-40l93 664h-166l5 36h206z" />
    </font>
</defs>
</svg>
