<?xml version="1.0" standalone="no"?>
<!DOCTYPE svg PUBLIC "-//W3C//DTD SVG 1.1//EN" "http://www.w3.org/Graphics/SVG/1.1/DTD/svg11.dtd" >
<svg xmlns="http://www.w3.org/2000/svg" xmlns:xlink="http://www.w3.org/1999/xlink" version="1.1">
<metadata>
Created by FontForge 20170731 at Sat Mar 14 00:16:18 2015
 By ,,,
Copyright (c) 2011 by Ryoichi Tsunekawa. All rights reserved.
</metadata>
<defs>
<font id="DesignSystemG-900I" horiz-adv-x="3399" >
  <font-face 
    font-family="DesignSystemG-900I"
    font-weight="400"
    font-style="italic"
    font-stretch="normal"
    units-per-em="1000"
    panose-1="4 5 8 8 2 11 2 2 3 2"
    ascent="822"
    descent="-178"
    x-height="603"
    cap-height="700"
    bbox="-233 -283 6061.25 938"
    underline-thickness="36"
    underline-position="-156"
    slope="-8"
    unicode-range="U+0020-FB02"
  />
<missing-glyph horiz-adv-x="1500" 
d="M8 700h1500v-700h-1500v700zM88 620v-536l1240 536h-1240zM188 80h1240v535z" />
    <glyph glyph-name="ij" unicode="ij" horiz-adv-x="621" 
d="M214 -7h83q43 0 49 43l79 567h184l-83 -592q-13 -91 -62 -134.5t-141 -43.5h-132zM409 657l16 113h232l-16 -113h-232zM19 0l84 603h184l-84 -603h-184zM335 770l-16 -113h-232l16 113h232z" />
    <glyph glyph-name="fi" unicode="fi" horiz-adv-x="3419" 
d="M314 443q-29 0 -44 -12.5t-19 -41.5l-1 -8h2591l-22 -159h-2591l-55 -389h-184l79 565q15 105 72 155t162 50h2660l-22 -160h-2626zM3214 160h161l-22 -160h-210q-92 0 -129 43.5t-24 134.5l59 425h184l-56 -400q-3 -20 7 -31.5t30 -11.5zM3281 770l-16 -113h-232l16 113
h232z" />
    <glyph glyph-name="fl" unicode="fl" horiz-adv-x="3415" 
d="M314 443q-29 0 -44 -12.5t-19 -41.5l-1 -8h2591l-22 -159h-2591l-55 -389h-184l79 565q15 105 72 155t162 50h2660l-22 -160h-2626zM3210 160h161l-22 -160h-210q-92 0 -129 43.5t-24 134.5l83 592h184l-80 -567q-3 -20 7 -31.5t30 -11.5z" />
    <glyph glyph-name=".notdef" horiz-adv-x="1500" 
d="M8 700h1500v-700h-1500v700zM88 620v-536l1240 536h-1240zM188 80h1240v535z" />
    <glyph glyph-name=".null" horiz-adv-x="0" 
 />
    <glyph glyph-name="nonmarkingreturn" horiz-adv-x="333" 
 />
    <glyph glyph-name="space" unicode=" " horiz-adv-x="780" 
 />
    <glyph glyph-name="exclam" unicode="!" horiz-adv-x="350" 
d="M269 130l-18 -130h-236l18 130h236zM327 700l-30 -216q-23 -158 -58 -269h-152q-4 116 18 269l30 216h192z" />
    <glyph glyph-name="quotedbl" unicode="&#x22;" horiz-adv-x="591" 
d="M282 700v-39q0 -127 -25 -269h-142q-25 142 -25 269v39h192zM567 700v-39q0 -127 -25 -269h-142q-25 142 -25 269v39h192z" />
    <glyph glyph-name="numbersign" unicode="#" 
d="M2991 0l6 111h-2614l-6 -111h-184l6 111h-154l8 160h154l9 158h-154l8 160h154l6 111h184l-6 -111h2614l6 111h184l-6 -111h154l-8 -160h-154l-9 -158h154l-8 -160h-154l-6 -111h-184zM400 429l-9 -158h2614l9 158h-2614z" />
    <glyph glyph-name="dollar" unicode="$" 
d="M34 210h3089q30 0 34 30l2 10q4 30 -26 30h-2930q-82 0 -115 39t-22 122l7 47q12 84 56 123t126 39h1409l13 90h167l-13 -90h1546l-23 -160h-3067q-30 0 -34 -30l-1 -10q-4 -30 26 -30h2930q82 0 115 -39t21 -122l-7 -47q-11 -83 -55 -122.5t-126 -39.5h-1409l-13 -90
h-167l13 90h-1568z" />
    <glyph glyph-name="percent" unicode="%" horiz-adv-x="4264" 
d="M1600 0l890 700h206l-890 -700h-206zM2476 130l39 274q9 66 45 98t103 32h1461q67 0 94 -32t18 -98l-39 -274q-18 -130 -148 -130h-1461q-67 0 -94 32t-18 98zM4044 168l28 198q4 30 -24 30h-1348q-29 0 -33 -30l-28 -198q-4 -30 25 -30h1348q28 0 32 30zM59 296l39 274
q9 66 45 98t103 32h1461q67 0 94 -32t18 -98l-39 -274q-18 -130 -148 -130h-1461q-67 0 -94 32t-18 98zM1627 334l28 198q4 30 -24 30h-1348q-29 0 -33 -30l-28 -198q-4 -30 25 -30h1348q28 0 32 30z" />
    <glyph glyph-name="ampersand" unicode="&#x26;" horiz-adv-x="3506" 
d="M3162 268h-2871q-22 0 -32 -9t-13 -31l-4 -22q-3 -22 5 -31.5t30 -9.5h2834q22 0 30.5 8t11.5 30zM46 175l3 24q10 66 48.5 104.5t124.5 46.5q-84 8 -111.5 46.5t-18.5 104.5l3 24q13 91 60.5 133t139.5 42h3070l-23 -165h-3013q-41 0 -46 -41l-3 -22q-3 -22 4.5 -31
t29.5 -9h3193l-23 -164h-130l-14 -101q-13 -90 -56 -128.5t-134 -38.5h-2953q-92 0 -128 42t-23 133z" />
    <glyph glyph-name="quotesingle" unicode="'" horiz-adv-x="306" 
d="M282 700v-39q0 -127 -25 -269h-142q-25 142 -25 269v39h192z" />
    <glyph glyph-name="parenleft" unicode="(" horiz-adv-x="401" 
d="M222 111q-3 -23 4.5 -32t29.5 -9h78l-21 -150h-116q-92 0 -127.5 42t-22.5 133l60 430q13 91 60.5 133t139.5 42h116l-21 -150h-78q-41 0 -46 -41z" />
    <glyph glyph-name="parenright" unicode=")" horiz-adv-x="401" 
d="M138 111l56 398q3 23 -4.5 32t-29.5 9h-78l21 150h116q92 0 127.5 -42t22.5 -133l-60 -430q-13 -91 -60.5 -133t-139.5 -42h-116l21 150h78q41 0 46 41z" />
    <glyph glyph-name="asterisk" unicode="*" horiz-adv-x="654" 
d="M362 433q107 103 183 126l66 20l35 -159l-66 -20q-65 -14 -120.5 -11t-90.5 12q32 -13 82.5 -49t73.5 -74l31 -53l-147 -99l-30 54q-22 39 -32 102t-9 99q-8 -38 -33 -100t-58 -101l-46 -54l-125 99l47 53q34 38 94 74t96 49q-37 -9 -93.5 -12t-117.5 11l-60 20l67 159
l60 -20q43 -14 91 -56t68 -70q-15 33 -29.5 93.5t-7.5 107.5l9 66h167l-9 -66q-7 -47 -39 -107.5t-57 -93.5z" />
    <glyph glyph-name="plus" unicode="+" 
d="M60 271v158h1563v271h158v-271h1564v-158h-1564v-271h-158v271h-1563z" />
    <glyph glyph-name="comma" unicode="," horiz-adv-x="352" 
d="M271 150l-21 -150q-11 -77 -61 -122t-130 -45h-65l12 86h49q34 0 51 14.5t22 47.5l3 19h-113l21 150h232z" />
    <glyph glyph-name="hyphen" unicode="-" horiz-adv-x="1140" 
d="M1110 409l-23 -164h-1050l23 164h1050z" />
    <glyph glyph-name="period" unicode="." horiz-adv-x="352" 
d="M271 150l-21 -150h-232l21 150h232z" />
    <glyph glyph-name="slash" unicode="/" horiz-adv-x="1154" 
d="M32 0l858 700h242l-858 -700h-242z" />
    <glyph glyph-name="zero" unicode="0" 
d="M208 0q-92 0 -130 44.5t-25 135.5l48 340q13 91 63 135.5t142 44.5h2925q92 0 130 -44.5t25 -135.5l-48 -340q-13 -91 -63 -135.5t-142 -44.5h-2925zM3150 208l40 284q3 22 -5 31.5t-30 9.5h-2821q-22 0 -32 -9t-13 -32l-40 -284q-3 -23 4.5 -32t29.5 -9h2821q41 0 46 41
z" />
    <glyph glyph-name="one" unicode="1" 
d="M2429 700l-75 -533h966l-23 -167h-3219l23 167h2061l51 366h-2061l24 167h2253z" />
    <glyph glyph-name="two" unicode="2" 
d="M3167 492q3 22 -5 31.5t-31 9.5h-3019l24 167h3072q92 0 130 -44.5t25 -135.5l-11 -73q-13 -91 -63 -135.5t-142 -44.5h-2850q-33 0 -48.5 -13t-19.5 -46l-6 -41h3110l-23 -167h-3302l30 215q30 218 248 218h2831q23 0 33.5 9t13.5 31z" />
    <glyph glyph-name="three" unicode="3" 
d="M3111 267h-2944l23 166h2944q22 0 32.5 9t13.5 31l3 19q3 22 -5 31.5t-30 9.5h-3069l24 167h3126q92 0 127.5 -42t22.5 -133l-3 -24q-9 -66 -48 -104.5t-124 -46.5q83 -8 111 -46.5t18 -104.5l-3 -24q-13 -91 -60 -133t-139 -42h-3126l23 167h3069q41 0 46 41l2 19
q3 22 -4.5 31t-29.5 9z" />
    <glyph glyph-name="four" unicode="4" 
d="M3171 433l38 267h192l-98 -700h-192l37 267h-2913q-92 0 -130 44.5t-25 135.5l36 253h192l-32 -227q-3 -22 4.5 -31t29.5 -9h2861z" />
    <glyph glyph-name="five" unicode="5" 
d="M64 267l61 433h3251l-24 -167h-3059l-14 -100h2908q93 0 131 -44.5t25 -135.5l-10 -73q-25 -180 -206 -180h-3110l23 167h3059q22 0 32.5 9t13.5 32l2 19q3 22 -4.5 31t-29.5 9h-3049z" />
    <glyph glyph-name="six" unicode="6" 
d="M282 457l-4 -24h2922q93 0 131 -44.5t25 -135.5l-10 -73q-25 -180 -206 -180h-2934q-92 0 -130 44.5t-25 135.5l38 270q17 123 90 186.5t196 63.5h3014l-24 -167h-2998q-75 0 -85 -76zM3126 267h-2871l-8 -59q-3 -23 4.5 -32t29.5 -9h2831q22 0 32.5 9t13.5 32l2 19
q3 22 -4.5 31t-29.5 9z" />
    <glyph glyph-name="seven" unicode="7" 
d="M3119 433q33 0 48 13t20 46l5 41h-3130l24 167h3322l-30 -215q-32 -218 -249 -218h-1737q-33 0 -48 -13t-19 -46l-29 -208h-192l30 215q30 218 248 218h1737z" />
    <glyph glyph-name="eight" unicode="8" 
d="M3392 525l-3 -24q-9 -66 -48 -104.5t-124 -46.5q83 -8 111 -46.5t18 -104.5l-3 -24q-13 -91 -60 -133t-139 -42h-2947q-92 0 -128 42t-23 133l3 24q10 66 48.5 104.5t124.5 46.5q-84 8 -111.5 46.5t-18.5 104.5l3 24q13 91 60.5 133t139.5 42h2947q92 0 127.5 -42
t22.5 -133zM314 433h2833q22 0 32.5 9t13.5 31l3 19q3 22 -5 31.5t-30 9.5h-2833q-22 0 -32 -9t-13 -32l-3 -19q-3 -22 4.5 -31t29.5 -9zM3124 267h-2833q-22 0 -32.5 -9t-13.5 -31l-2 -19q-3 -23 4.5 -32t29.5 -9h2833q41 0 46 41l2 19q3 22 -4.5 31t-29.5 9z" />
    <glyph glyph-name="nine" unicode="9" 
d="M3220 700q92 0 130 -44.5t25 -135.5l-38 -270q-17 -123 -90 -186.5t-196 -63.5h-3014l23 167h2998q74 0 86 76l3 24h-2922q-93 0 -131 44.5t-25 135.5l11 73q25 180 206 180h2934zM268 492l-3 -19q-3 -22 4.5 -31t29.5 -9h2871l9 59q3 22 -5 31.5t-30 9.5h-2831
q-22 0 -32 -9t-13 -32z" />
    <glyph glyph-name="colon" unicode=":" horiz-adv-x="352" 
d="M334 603l-21 -150h-232l21 150h232zM271 150l-21 -150h-232l21 150h232z" />
    <glyph glyph-name="semicolon" unicode=";" horiz-adv-x="352" 
d="M271 150l-21 -150q-11 -77 -61 -122t-130 -45h-65l12 86h49q34 0 51 14.5t22 47.5l3 19h-113l21 150h232zM334 603l-21 -150h-232l21 150h232z" />
    <glyph glyph-name="less" unicode="&#x3c;" 
d="M60 350l305 350h206l-239 -271h3013v-158h-3013l239 -271h-206z" />
    <glyph glyph-name="equal" unicode="=" 
d="M90 131v158h3225v-158h-3225zM90 411v158h3225v-158h-3225z" />
    <glyph glyph-name="greater" unicode="&#x3e;" 
d="M3040 700l305 -350l-305 -350h-206l239 271h-3013v158h3013l-239 271h206z" />
    <glyph glyph-name="question" unicode="?" horiz-adv-x="3371" 
d="M3167 473l3 19q3 22 -5 31.5t-31 9.5h-3072l24 167h3125q92 0 130 -44.5t25 -135.5l-11 -73q-13 -91 -63 -135.5t-142 -44.5h-1441q-22 0 -31 -7.5t-12 -30.5l-4 -24h-192l9 61q13 90 56.5 128.5t133.5 38.5h1451q23 0 33.5 9t13.5 31zM1674 130l-18 -130h-236l18 130
h236z" />
    <glyph glyph-name="at" unicode="@" horiz-adv-x="3241" 
d="M198 0q-88 0 -124 42t-24 128l51 360q12 86 59.5 128t135.5 42h2785q88 0 123.5 -42t23.5 -128l-51 -360q-12 -86 -59 -128t-135 -42h-2785zM213 72h2775q94 0 107 94l52 368q12 94 -81 94h-2775q-95 0 -107 -94l-52 -368q-13 -94 81 -94zM2903 188h-2576q-76 0 -64 77
l6 41q10 76 85 76h2582l6 43q3 20 -17 20h-2623l9 66h2637q84 0 72 -84l-22 -156q-6 -43 -29 -63t-66 -20zM365 317q-19 0 -20 -17l-4 -28q-3 -18 15 -18h2542q20 0 23 20l6 43h-2562z" />
    <glyph glyph-name="A" unicode="A" horiz-adv-x="3421" 
d="M3316 0h-192l37 267h-2911l-37 -267h-192l73 520q25 180 206 180h2933q93 0 131 -44.5t25 -135.5zM3158 533h-2831q-22 0 -32 -9t-13 -32l-9 -59h2911l9 59q3 23 -5 32t-30 9z" />
    <glyph glyph-name="B" unicode="B" horiz-adv-x="3413" 
d="M3347 199l-3 -24q-13 -91 -60 -133t-139 -42h-3120l98 700h3120q92 0 127.5 -42t22.5 -133l-3 -24q-9 -66 -48 -104.5t-124 -46.5q83 -8 111 -46.5t18 -104.5zM3148 433q22 0 32.5 9t13.5 31l3 19q3 22 -5 31.5t-30 9.5h-2871l-14 -100h2871zM254 267l-14 -100h2871
q41 0 46 41l2 19q3 22 -4.5 31t-29.5 9h-2871z" />
    <glyph glyph-name="C" unicode="C" horiz-adv-x="3324" 
d="M208 0q-92 0 -130 44.5t-25 135.5l48 340q13 91 63 135.5t142 44.5h3040l-24 -167h-2988q-22 0 -32 -9t-13 -32l-40 -284q-3 -23 4.5 -32t29.5 -9h2988l-23 -167h-3040z" />
    <glyph glyph-name="D" unicode="D" horiz-adv-x="3413" 
d="M3167 700q123 0 178 -63.5t38 -186.5l-28 -200q-17 -122 -90 -186t-196 -64h-3044l98 700h3044zM3076 167q74 0 86 76l30 214q10 76 -65 76h-2836l-51 -366h2836z" />
    <glyph glyph-name="E" unicode="E" horiz-adv-x="3389" 
d="M25 0l98 700h3275l-24 -167h-3083l-14 -100h2958l-23 -166h-2958l-14 -100h3083l-23 -167h-3275z" />
    <glyph glyph-name="F" unicode="F" horiz-adv-x="3357" 
d="M25 0l98 700h3260l-24 -167h-3068l-14 -100h2943l-23 -167h-2943l-37 -266h-192z" />
    <glyph glyph-name="G" unicode="G" horiz-adv-x="3419" 
d="M3127 167q22 0 30.5 8t11.5 30l9 62h-1732l23 166h1924l-37 -266q-13 -90 -56.5 -128.5t-133.5 -38.5h-2958q-92 0 -130 44.5t-25 135.5l48 340q13 91 63 135.5t142 44.5h3100l-24 -167h-3048q-22 0 -32 -9t-13 -32l-40 -284q-3 -23 4.5 -32t29.5 -9h2844z" />
    <glyph glyph-name="H" unicode="H" horiz-adv-x="3439" 
d="M3138 0l37 266h-2921l-37 -266h-192l98 700h192l-38 -267h2921l38 267h192l-98 -700h-192z" />
    <glyph glyph-name="I" unicode="I" horiz-adv-x="326" 
d="M25 0l98 700h192l-98 -700h-192z" />
    <glyph glyph-name="J" unicode="J" horiz-adv-x="3405" 
d="M41 167l25 175h192l-20 -137q-3 -22 3.5 -30t28.5 -8h2834q22 0 32.5 9t13.5 32l69 492h192l-73 -520q-25 -180 -206 -180h-2947q-90 0 -123.5 38.5t-20.5 128.5z" />
    <glyph glyph-name="K" unicode="K" horiz-adv-x="3419" 
d="M3418 700l-24 -167q-12 -83 -55.5 -129t-146.5 -54q101 -8 132 -54.5t19 -128.5l-23 -167h-192l30 216q7 51 -44 51h-2860l-37 -267h-192l98 700h192l-38 -267h2860q52 0 59 51l30 216h192z" />
    <glyph glyph-name="L" unicode="L" horiz-adv-x="3342" 
d="M3293 168l-23 -168h-3245l98 700h192l-75 -532h3053z" />
    <glyph glyph-name="M" unicode="M" horiz-adv-x="4020" 
d="M2246 700h1586q93 0 131 -44.5t25 -135.5l-73 -520h-192l69 492q3 22 -5 31.5t-30 9.5h-1573q-46 0 -52 -46l-68 -487h-192l68 487q6 46 -40 46h-1573q-22 0 -32 -9t-13 -32l-69 -492h-192l73 520q13 91 63 135.5t142 44.5h1587q86 0 123.5 -35t35.5 -111q20 77 68 111.5
t133 34.5z" />
    <glyph glyph-name="N" unicode="N" horiz-adv-x="3421" 
d="M327 533q-22 0 -32 -9t-13 -32l-69 -492h-192l73 520q25 180 206 180h2933q93 0 131 -44.5t25 -135.5l-73 -520h-192l69 492q3 23 -5 32t-30 9h-2831z" />
    <glyph glyph-name="O" unicode="O" horiz-adv-x="3419" 
d="M208 0q-92 0 -130 44.5t-25 135.5l48 340q13 91 63 135.5t142 44.5h2945q92 0 130 -44.5t25 -135.5l-48 -340q-25 -180 -205 -180h-2945zM3170 207l40 285q3 22 -5 31.5t-30 9.5h-2841q-22 0 -32 -9t-13 -32l-40 -284q-6 -41 34 -41h2841q22 0 32.5 9t13.5 31z" />
    <glyph glyph-name="P" unicode="P" horiz-adv-x="3388" 
d="M25 0l98 700h3105q92 0 130 -44.5t25 -135.5l-11 -74q-13 -91 -63 -135.5t-142 -44.5h-2913l-37 -266h-192zM3187 492q3 22 -5 31.5t-31 9.5h-2860l-14 -100h2860q23 0 33.5 9t13.5 31z" />
    <glyph glyph-name="Q" unicode="Q" horiz-adv-x="3419" 
d="M208 0q-92 0 -130 44.5t-25 135.5l48 340q13 91 63 135.5t142 44.5h2945q92 0 130 -44.5t25 -135.5l-48 -340q-25 -180 -205 -180h-1390l-23 -167h-167l23 167h-1388zM3170 207l40 285q3 22 -5 31.5t-30 9.5h-2841q-22 0 -32 -9t-13 -32l-40 -284q-6 -41 34 -41h1337
l18 128h167l-18 -128h1337q22 0 32.5 9t13.5 31z" />
    <glyph glyph-name="R" unicode="R" horiz-adv-x="3419" 
d="M3393 525l-3 -24q-10 -69 -51 -107.5t-134 -44.5q64 -7 97.5 -33.5t40.5 -61.5t0 -87l-23 -167h-192l30 216q7 51 -44 51h-2860l-37 -267h-192l98 700h3120q92 0 127.5 -42t22.5 -133zM3148 433q22 0 32.5 9t13.5 31l3 19q3 22 -5 31.5t-30 9.5h-2871l-14 -100h2871z" />
    <glyph glyph-name="S" unicode="S" horiz-adv-x="3381" 
d="M242 267q-92 0 -130 44.5t-25 135.5l11 73q25 180 205 180h3055l-24 -167h-3002q-22 0 -32.5 -9t-13.5 -32l-3 -19q-3 -22 5 -31t30 -9h2851q93 0 131 -44.5t25 -135.5l-10 -73q-25 -180 -206 -180h-3104l23 167h3053q22 0 32.5 9t13.5 32l2 19q3 22 -4.5 31t-29.5 9
h-2853z" />
    <glyph glyph-name="T" unicode="T" horiz-adv-x="3364" 
d="M3390 700l-24 -167h-1556l-74 -533h-192l74 533h-1556l24 167h3304z" />
    <glyph glyph-name="U" unicode="U" horiz-adv-x="3421" 
d="M215 0q-93 0 -131 44.5t-25 135.5l73 520h192l-69 -492q-3 -23 4.5 -32t29.5 -9h2831q22 0 32.5 9t13.5 32l69 492h192l-73 -520q-25 -180 -206 -180h-2933z" />
    <glyph glyph-name="V" unicode="V" horiz-adv-x="3405" 
d="M25 0l98 700h192l-75 -533h2821q74 0 86 76l64 457h192l-63 -450q-17 -123 -90 -186.5t-196 -63.5h-3029z" />
    <glyph glyph-name="W" unicode="W" horiz-adv-x="4020" 
d="M3747 0h-1586q-85 0 -123.5 34.5t-36.5 111.5q-20 -77 -67.5 -111.5t-132.5 -34.5h-1587q-92 0 -130 44.5t-25 135.5l73 520h192l-69 -492q-3 -23 4.5 -32t29.5 -9h1573q46 0 52 46l69 487h192l-69 -487q-6 -46 40 -46h1573q41 0 46 41l69 492h192l-73 -520
q-25 -180 -206 -180z" />
    <glyph glyph-name="X" unicode="X" horiz-adv-x="3419" 
d="M89 533l24 167h192l-30 -216q-7 -51 43 -51h2819q52 0 59 51l30 216h192l-24 -167q-12 -83 -55.5 -129t-146.5 -54q101 -8 132 -54.5t19 -128.5l-23 -167h-192l30 216q7 51 -44 51h-2819q-51 0 -58 -51l-30 -216h-192l23 167q12 83 55.5 129t146.5 54q-101 8 -132 54
t-19 129z" />
    <glyph glyph-name="Y" unicode="Y" horiz-adv-x="3398" 
d="M3228 700h192l-36 -253q-13 -91 -63 -135.5t-142 -44.5h-1376l-37 -267h-192l37 267h-1376q-92 0 -130 44.5t-25 135.5l36 253h192l-32 -227q-3 -22 4.5 -31t29.5 -9h2840q22 0 32.5 9t13.5 31z" />
    <glyph glyph-name="Z" unicode="Z" horiz-adv-x="3383" 
d="M3097 433q33 0 48 13t20 46l5 41h-3058l24 167h3250l-30 -215q-32 -218 -249 -218h-2810q-33 0 -48.5 -13t-19.5 -46l-6 -41h3088l-23 -167h-3280l30 215q30 218 248 218h2811z" />
    <glyph glyph-name="bracketleft" unicode="[" horiz-adv-x="405" 
d="M123 700h291l-20 -140h-130l-70 -500h130l-20 -140h-291z" />
    <glyph glyph-name="backslash" unicode="\" horiz-adv-x="1154" 
d="M274 700l858 -700h-242l-858 700h242z" />
    <glyph glyph-name="bracketright" unicode="]" horiz-adv-x="405" 
d="M103 700h291l-110 -780h-291l20 140h130l70 500h-130z" />
    <glyph glyph-name="asciicircum" unicode="^" 
d="M1702 720l1643 -280v-159l-1643 280l-1642 -280v159z" />
    <glyph glyph-name="underscore" unicode="_" horiz-adv-x="1500" 
d="M1458 -26v-106h-1500v106h1500z" />
    <glyph glyph-name="grave" unicode="`" horiz-adv-x="750" 
d="M497 657l-352 113h316l262 -113h-226z" />
    <glyph glyph-name="a" unicode="a" horiz-adv-x="3047" 
d="M2833 371l4 29q6 43 -37 43h-2700l22 160h2750q92 0 128.5 -43t23.5 -135l-34 -247q-13 -91 -61.5 -134.5t-140.5 -43.5h-2619q-81 0 -114.5 39.5t-22.5 122.5l7 47q11 83 56 122.5t126 39.5h2612zM2813 232h-2557q-30 0 -34 -29l-2 -13q-4 -30 26 -30h2514q43 0 49 43z
" />
    <glyph glyph-name="b" unicode="b" horiz-adv-x="3036" 
d="M51 178l83 592h184l-36 -253q20 45 57.5 65.5t102.5 20.5h2423q91 0 127 -43t23 -135l-34 -247q-13 -91 -61.5 -134.5t-138.5 -43.5h-2577q-92 0 -129 43.5t-24 134.5zM266 400l-28 -197q-6 -43 37 -43h2476q43 0 49 43l28 197q6 43 -37 43h-2476q-43 0 -49 -43z" />
    <glyph glyph-name="c" unicode="c" horiz-adv-x="2969" 
d="M199 0q-92 0 -128.5 43.5t-23.5 134.5l34 247q13 92 61 135t141 43h2698l-22 -160h-2648q-43 0 -49 -43l-28 -197q-6 -43 37 -43h2648l-22 -160h-2698z" />
    <glyph glyph-name="d" unicode="d" horiz-adv-x="3036" 
d="M3060 770l-83 -592q-13 -91 -62 -134.5t-141 -43.5h-2577q-90 0 -126.5 43.5t-23.5 134.5l34 247q13 92 61 135t139 43h2423q65 0 96.5 -20.5t39.5 -65.5l36 253h184zM2796 203l28 197q6 43 -37 43h-2476q-43 0 -49 -43l-28 -197q-6 -43 37 -43h2476q43 0 49 43z" />
    <glyph glyph-name="e" unicode="e" horiz-adv-x="3047" 
d="M3033 394q-12 -83 -56.5 -122.5t-125.5 -39.5h-2612l-4 -29q-6 -43 37 -43h2698l-22 -160h-2748q-92 0 -129 43t-23 135l34 247q13 91 61.5 134.5t140.5 43.5h2619q81 0 114.5 -39.5t21.5 -122.5zM2826 443h-2514q-43 0 -49 -43l-4 -29h2557q30 0 34 29l2 13q3 30 -26 30
z" />
    <glyph glyph-name="f" unicode="f" horiz-adv-x="2948" 
d="M314 443q-29 0 -44 -12.5t-19 -41.5l-1 -8h2591l-22 -159h-2591l-55 -389h-184l79 565q15 105 72 155t162 50h2660l-22 -160h-2626z" />
    <glyph glyph-name="g" unicode="g" horiz-adv-x="3036" 
d="M2743 225q43 0 49 43l19 132q6 43 -37 43h-2476q-43 0 -49 -43l-19 -132q-6 -43 37 -43h2476zM2616 65h-2420q-92 0 -129 43.5t-24 134.5l25 182q13 92 61.5 135t141.5 43h2574q93 0 129.5 -43t23.5 -135l-49 -352q-17 -124 -82.5 -182t-190.5 -58h-2651l23 160h2632
q39 0 58.5 16.5t25.5 56.5l12 85q-21 -45 -58.5 -65.5t-101.5 -20.5z" />
    <glyph glyph-name="h" unicode="h" horiz-adv-x="3034" 
d="M2809 400q6 43 -38 43h-2465q-43 0 -49 -43l-56 -400h-184l108 770h184l-36 -253q20 45 57.5 65.5t102.5 20.5h2413q91 0 127 -43t23 -135l-59 -425h-184z" />
    <glyph glyph-name="i" unicode="i" horiz-adv-x="471" 
d="M279 160h161l-22 -160h-210q-92 0 -129 43.5t-24 134.5l59 425h184l-56 -400q-3 -20 7 -31.5t30 -11.5zM346 770l-16 -113h-232l16 113h232z" />
    <glyph glyph-name="j" unicode="j" horiz-adv-x="315" 
d="M-92 -7h83q43 0 49 43l79 567h184l-83 -592q-13 -91 -62 -134.5t-141 -43.5h-132zM103 657l16 113h232l-16 -113h-232z" />
    <glyph glyph-name="k" unicode="k" horiz-adv-x="3028" 
d="M2813 429l24 174h184l-20 -145q-20 -139 -167 -157q143 -18 123 -156l-20 -145h-184l24 174q6 48 -42 48h-2503l-31 -222h-184l108 770h184l-55 -389h2503q49 0 56 48z" />
    <glyph glyph-name="l" unicode="l" horiz-adv-x="467" 
d="M275 160h161l-22 -160h-210q-92 0 -129 43.5t-24 134.5l83 592h184l-80 -567q-3 -20 7 -31.5t30 -11.5z" />
    <glyph glyph-name="m" unicode="m" horiz-adv-x="3550" 
d="M1797 459q16 77 59 110.5t127 33.5h1379q91 0 127 -43t23 -135l-59 -425h-184l56 400q6 43 -37 43h-1358q-43 0 -49 -43l-56 -400h-184l56 400q6 43 -37 43h-1358q-43 0 -49 -43l-56 -400h-184l59 425q13 92 61 135t139 43h1379q84 0 117.5 -33.5t28.5 -110.5z" />
    <glyph glyph-name="n" unicode="n" horiz-adv-x="3030" 
d="M13 0l59 425q13 92 61 135t139 43h2570q91 0 127 -43t23 -135l-59 -425h-184l56 400q6 43 -37 43h-2466q-43 0 -49 -43l-56 -400h-184z" />
    <glyph glyph-name="o" unicode="o" horiz-adv-x="3032" 
d="M2859 603q92 0 128.5 -43t23.5 -135l-34 -247q-13 -91 -61.5 -134.5t-140.5 -43.5h-2576q-92 0 -128.5 43.5t-23.5 134.5l34 247q13 92 61 135t141 43h2576zM2747 160q43 0 49 43l28 197q6 43 -37 43h-2476q-43 0 -49 -43l-28 -197q-6 -43 37 -43h2476z" />
    <glyph glyph-name="p" unicode="p" horiz-adv-x="3036" 
d="M-11 -167l83 592q13 91 62 134.5t141 43.5h2577q90 0 126.5 -43.5t23.5 -134.5l-34 -247q-14 -92 -62 -135t-138 -43h-2423q-65 0 -97 20.5t-39 65.5l-36 -253h-184zM253 400l-28 -197q-6 -43 37 -43h2476q43 0 49 43l28 197q6 43 -37 43h-2476q-43 0 -49 -43z" />
    <glyph glyph-name="q" unicode="q" horiz-adv-x="3036" 
d="M3012 425l-83 -592h-184l36 253q-21 -45 -58.5 -65.5t-101.5 -20.5h-2423q-91 0 -127.5 43t-22.5 135l34 247q13 91 61.5 134.5t138.5 43.5h2577q92 0 129 -43.5t24 -134.5zM2797 203l28 197q6 43 -37 43h-2476q-43 0 -49 -43l-28 -197q-6 -43 37 -43h2476q43 0 49 43z
" />
    <glyph glyph-name="r" unicode="r" horiz-adv-x="2833" 
d="M2847 603l-22 -160h-2523q-20 0 -33 -11.5t-16 -31.5l-56 -400h-184l59 425q13 92 61.5 135t141.5 43h2572z" />
    <glyph glyph-name="s" unicode="s" horiz-adv-x="3021" 
d="M2970 443h-2691q-31 0 -34 -29l-2 -13q-4 -30 26 -30h2562q81 0 114 -39.5t22 -122.5l-7 -47q-11 -83 -55.5 -122.5t-125.5 -39.5h-2776l22 160h2721q30 0 34 29l2 13q4 30 -26 30h-2562q-81 0 -114.5 39.5t-21.5 122.5l6 47q12 83 56.5 122.5t125.5 39.5h2746z" />
    <glyph glyph-name="t" unicode="t" horiz-adv-x="2868" 
d="M204 0q-92 0 -129 43.5t-24 134.5l83 592h184l-24 -167h2586l-22 -160h-2586l-34 -240q-6 -43 37 -43h2543l-22 -160h-2592z" />
    <glyph glyph-name="u" unicode="u" horiz-adv-x="3030" 
d="M2742 160q43 0 49 43l56 400h184l-59 -425q-14 -92 -62 -135t-138 -43h-2570q-91 0 -127.5 43t-22.5 135l59 425h184l-56 -400q-6 -43 37 -43h2466z" />
    <glyph glyph-name="v" unicode="v" horiz-adv-x="3022" 
d="M3011 603l-51 -363q-17 -124 -82 -182t-190 -58h-2671l84 603h184l-62 -443h2468q40 0 59.5 16.5t24.5 56.5l52 370h184z" />
    <glyph glyph-name="w" unicode="w" horiz-adv-x="3550" 
d="M1767 144q-17 -77 -59.5 -110.5t-126.5 -33.5h-1379q-91 0 -127.5 43t-22.5 135l59 425h184l-56 -400q-6 -43 37 -43h1358q43 0 49 43l56 400h184l-56 -400q-6 -43 37 -43h1358q43 0 49 43l56 400h184l-59 -425q-14 -92 -62 -135t-138 -43h-1379q-84 0 -118 33.5
t-28 110.5z" />
    <glyph glyph-name="x" unicode="x" horiz-adv-x="3043" 
d="M2828 429l24 174h184l-20 -145q-20 -139 -167 -157q143 -18 123 -156l-20 -145h-184l24 174q6 48 -42 48h-2479q-50 0 -56 -48l-24 -174h-184l20 145q20 138 167 156q-143 17 -123 157l20 145h184l-24 -174q-7 -48 42 -48h2479q48 0 56 48z" />
    <glyph glyph-name="y" unicode="y" horiz-adv-x="3034" 
d="M2670 -167h-2641l23 160h2622q39 0 58.5 16.5t25.5 56.5l12 85q-21 -45 -58.5 -65.5t-101.5 -20.5h-2411q-92 0 -128.5 43.5t-23.5 134.5l50 360h184l-47 -335q-6 -43 37 -43h2466q43 0 49 43l47 335h184l-74 -530q-17 -124 -82.5 -182t-190.5 -58z" />
    <glyph glyph-name="z" unicode="z" horiz-adv-x="3022" 
d="M259 232q-43 0 -49 -43l-4 -29h2751l-22 -160h-2935l23 166q28 205 234 205h2503q42 0 49 43l4 29h-2726l22 160h2910l-23 -166q-28 -205 -234 -205h-2503z" />
    <glyph glyph-name="braceleft" unicode="{" horiz-adv-x="456" 
d="M323 509l-9 -65q-10 -68 -42.5 -99.5t-97.5 -34.5q64 -3 88 -34.5t14 -99.5l-9 -65q-3 -23 4.5 -32t29.5 -9h78l-21 -150h-116q-92 0 -127.5 42t-22.5 133l14 104q3 20 -4 28t-26 8h-52l21 150h52q19 0 28.5 8t12.5 28l14 104q13 91 60.5 133t139.5 42h116l-21 -150h-78
q-41 0 -46 -41z" />
    <glyph glyph-name="bar" unicode="|" horiz-adv-x="346" 
d="M85 -167v907h192v-907h-192z" />
    <glyph glyph-name="braceright" unicode="}" horiz-adv-x="456" 
d="M182 444l9 65q3 23 -4.5 32t-29.5 9h-78l21 150h116q92 0 127.5 -42t22.5 -133l-14 -104q-6 -36 31 -36h52l-21 -150h-52q-20 0 -29.5 -8.5t-12.5 -27.5l-14 -104q-13 -91 -60.5 -133t-139.5 -42h-116l21 150h78q41 0 46 41l9 65q10 68 43 99.5t97 34.5q-64 3 -88 34.5
t-14 99.5z" />
    <glyph glyph-name="asciitilde" unicode="~" 
d="M60 241v163q324 98 743 98q247 0 574 -35t653.5 -70t574.5 -35q415 0 740 97v-163q-326 -98 -747 -98q-198 0 -448.5 21.5t-452.5 48t-452.5 48t-447.5 21.5q-414 0 -737 -96z" />
    <glyph glyph-name="uni00A0" unicode="&#xa0;" horiz-adv-x="780" 
 />
    <glyph glyph-name="exclamdown" unicode="&#xa1;" horiz-adv-x="350" 
d="M85 500l18 130h236l-18 -130h-236zM27 -70l30 216q23 158 58 269h152q4 -116 -18 -269l-30 -216h-192z" />
    <glyph glyph-name="cent" unicode="&#xa2;" 
d="M1621 -40l13 90h-1422q-92 0 -128.5 43.5t-23.5 134.5l34 244q13 92 61 135t141 43h1422l13 90h167l-13 -90h1529l-23 -160h-1529l-39 -280h1529l-22 -160h-1529l-13 -90h-167zM284 210h1372l39 280h-1372q-43 0 -49 -43l-27 -194q-6 -43 37 -43z" />
    <glyph glyph-name="sterling" unicode="&#xa3;" 
d="M420 167h2913l-23 -167h-3305l23 167h200l14 100h-200l23 166h200l13 87q13 91 63 135.5t142 44.5h2825l-24 -167h-2773q-22 0 -32 -9t-13 -32l-9 -59h2813l-23 -166h-2813z" />
    <glyph glyph-name="currency" unicode="&#xa4;" 
d="M143 473q0 92 42.5 135t134.5 43h1300v89h166v-89h1299q92 0 134.5 -43t42.5 -135v-43h110v-161h-110v-43q0 -91 -42.5 -134.5t-134.5 -43.5h-1299v-88h-166v88h-1300q-92 0 -134.5 43.5t-42.5 134.5v43h-110v161h110v43zM3035 486h-2665q-43 0 -43 -43v-187
q0 -43 43 -43h2665q43 0 43 43v187q0 43 -43 43z" />
    <glyph glyph-name="yen" unicode="&#xa5;" 
d="M3213 700h192l-19 -135q-13 -91 -63 -135.5t-142 -44.5h-1374l-14 -100h1524l-24 -167h-1524l-16 -118h-192l16 118h-1524l24 167h1524l14 100h-1374q-92 0 -130 44.5t-25 135.5l19 135h192l-15 -108q-3 -22 4.5 -31t29.5 -9h2836q22 0 32.5 9t13.5 31z" />
    <glyph glyph-name="brokenbar" unicode="&#xa6;" horiz-adv-x="346" 
d="M85 -167v394h192v-394h-192zM85 347v393h192v-393h-192z" />
    <glyph glyph-name="section" unicode="&#xa7;" horiz-adv-x="3306" 
d="M291 478h2851q71 0 100.5 -33.5t19.5 -103.5l-5 -40q-8 -58 -38 -91.5t-93 -40.5q61 -6 81.5 -40t12.5 -91l-3 -18q-20 -152 -176 -152h-3020l21 150h2961q30 0 34 30l2 13q4 29 -26 29h-2851q-71 0 -101 33.5t-20 103.5l6 40q8 58 37.5 91.5t92.5 39.5q-61 7 -81 40.5
t-12 91.5l3 18q20 152 176 152h3020l-21 -150h-2961q-30 0 -34 -29l-2 -13q-4 -30 26 -30zM3049 324h-2783q-26 0 -31 -27l-3 -26q-4 -27 23 -27h2783q27 0 31 27l3 26q4 27 -23 27z" />
    <glyph glyph-name="dieresis" unicode="&#xa8;" horiz-adv-x="750" 
d="M295 770l-16 -113h-194l16 113h194zM780 770l-16 -113h-194l16 113h194z" />
    <glyph glyph-name="copyright" unicode="&#xa9;" horiz-adv-x="3241" 
d="M333 188q-44 0 -63.5 20.5t-19.5 63.5v155q0 43 19.5 63.5t63.5 20.5h2653v-66h-2639q-20 0 -20 -20v-151q0 -20 20 -20h2639v-66h-2653zM236 0q-88 0 -129.5 42t-41.5 128v360q0 86 41.5 128t129.5 42h2785q88 0 129.5 -42t41.5 -128v-360q0 -86 -41.5 -128t-129.5 -42
h-2785zM241 72h2775q94 0 94 94v368q0 94 -94 94h-2775q-94 0 -94 -94v-368q0 -94 94 -94z" />
    <glyph glyph-name="ordfeminine" unicode="&#xaa;" horiz-adv-x="2426" 
d="M2266 494l5 38q4 30 -25 30h-2129l20 138h2186q67 0 94 -32t18 -98l-39 -274q-9 -66 -45 -98t-103 -32h-2078q-131 0 -113 130l10 68q18 130 149 130h2050zM222 343l-2 -9q-2 -16 3.5 -23t21.5 -7h1965q29 0 33 30l6 38h-1994q-29 0 -33 -29zM1184 150l94 -150h-230z" />
    <glyph glyph-name="guillemotleft" unicode="&#xab;" horiz-adv-x="892" 
d="M466 51h-212l-224 249l294 249h224l-306 -255zM821 51h-212l-224 249l294 249h224l-306 -255z" />
    <glyph glyph-name="logicalnot" unicode="&#xac;" 
d="M60 271v158h3285v-429h-158v271h-3127z" />
    <glyph glyph-name="uni00AD" unicode="&#xad;" horiz-adv-x="1140" 
d="M1110 409l-23 -164h-1050l23 164h1050z" />
    <glyph glyph-name="registered" unicode="&#xae;" horiz-adv-x="3241" 
d="M236 0q-88 0 -129.5 42t-41.5 128v360q0 86 41.5 128t129.5 42h2785q88 0 129.5 -42t41.5 -128v-360q0 -86 -41.5 -128t-129.5 -42h-2785zM241 72h2775q94 0 94 94v368q0 94 -94 94h-2775q-94 0 -94 -94v-368q0 -94 94 -94zM2997 413q0 -58 -67 -64q67 -6 67 -68v-93h-77
v106q0 23 -20 23h-2561v-129h-78v323h2672q64 0 64 -65v-33zM2920 428q0 17 -18 17h-2563v-63h2563q18 0 18 18v28z" />
    <glyph glyph-name="macron" unicode="&#xaf;" horiz-adv-x="750" 
d="M741 664h-630l14 100h630z" />
    <glyph glyph-name="degree" unicode="&#xb0;" horiz-adv-x="1392" 
d="M63 538q0 162 171 162h970q171 0 171 -162v-71q0 -162 -171 -162h-970q-171 0 -171 162v71zM279 548q-22 0 -31 -9t-9 -31v-10q0 -23 9 -32t31 -9h880q22 0 31 9t9 32v10q0 22 -9 31t-31 9h-880z" />
    <glyph glyph-name="plusminus" unicode="&#xb1;" 
d="M60 271v158h1563v271h158v-271h1564v-158h-1564v-113h1564v-158h-3285v158h1563v113h-1563z" />
    <glyph glyph-name="twosuperior" unicode="&#xb2;" horiz-adv-x="1823" 
d="M1656 523l1 9q2 16 -3.5 23t-21.5 7h-1533l20 138h1591q66 0 93 -32t18 -98l-10 -68q-9 -66 -45 -98t-102 -32h-1409q-25 0 -35.5 -9t-13.5 -33l-4 -26h1581l-19 -138h-1739l24 171q22 157 179 157h1395q16 0 23.5 6.5t9.5 22.5z" />
    <glyph glyph-name="threesuperior" unicode="&#xb3;" horiz-adv-x="1823" 
d="M1817 574l-4 -30q-7 -49 -37 -77.5t-95 -33.5q64 -5 86 -33.5t15 -77.5l-4 -30q-10 -66 -44 -96t-100 -30h-1611l19 138h1550q29 0 33 30l1 7q2 16 -3 22.5t-21 6.5h-1457l17 126h1457q29 0 33 29l1 7q2 16 -3.5 23t-21.5 7h-1550l20 138h1611q66 0 91.5 -30t16.5 -96z
" />
    <glyph glyph-name="acute" unicode="&#xb4;" horiz-adv-x="750" 
d="M745 770l-390 -113h-230l292 113h328z" />
    <glyph glyph-name="uni00B5" unicode="&#xb5;" horiz-adv-x="3034" 
d="M266 160h2465q44 0 50 43l56 400h184l-59 -425q-14 -92 -61.5 -135t-138.5 -43h-2413q-65 0 -97 20.5t-39 65.5l-36 -253h-184l108 770h184l-56 -400q-6 -43 37 -43z" />
    <glyph glyph-name="paragraph" unicode="&#xb6;" horiz-adv-x="2848" 
d="M2850 700l-117 -832h-184l94 672h-147l-94 -672h-184l57 407h-2050q-92 0 -130 44.5t-25 135.5l10 65q13 91 63 135.5t142 44.5h2565z" />
    <glyph glyph-name="periodcentered" unicode="&#xb7;" horiz-adv-x="352" 
d="M309 425l-21 -150h-232l21 150h232z" />
    <glyph glyph-name="cedilla" unicode="&#xb8;" horiz-adv-x="750" 
d="M303 -41h203q68 0 95 -13t27 -44q0 -50 -41 -80t-149 -30h-445l15 106h442q34 0 34 20q0 8 -4.5 11t-18.5 3h-208l46 68h31z" />
    <glyph glyph-name="onesuperior" unicode="&#xb9;" horiz-adv-x="1823" 
d="M82 166l19 138h862l36 258h-863l20 138h1021l-56 -396h645l-19 -138h-1665z" />
    <glyph glyph-name="ordmasculine" unicode="&#xba;" horiz-adv-x="2434" 
d="M55 296l39 274q9 66 45 98t103 32h2080q67 0 94 -32t18 -98l-39 -274q-18 -130 -148 -130h-2080q-67 0 -94 32t-18 98zM2210 304q28 0 32 30l28 198q4 30 -24 30h-1967q-29 0 -33 -30l-28 -198q-4 -30 25 -30h1967zM1182 150l94 -150h-230z" />
    <glyph glyph-name="guillemotright" unicode="&#xbb;" horiz-adv-x="892" 
d="M213 51h-218l299 249l-229 249h218l224 -249zM568 51h-218l299 249l-229 249h218l224 -249z" />
    <glyph glyph-name="onequarter" unicode="&#xbc;" horiz-adv-x="4264" 
d="M1591 0l890 700h206l-890 -700h-206zM82 166l19 138h862l36 258h-863l20 138h1021l-56 -396h645l-19 -138h-1665zM4050 336l28 198h158l-75 -534h-158l28 198h-1433q-67 0 -94 32t-18 98l29 206h158l-24 -169q-4 -29 25 -29h1376z" />
    <glyph glyph-name="onehalf" unicode="&#xbd;" horiz-adv-x="4264" 
d="M1591 0l890 700h206l-890 -700h-206zM82 166l19 138h862l36 258h-863l20 138h1021l-56 -396h645l-19 -138h-1665zM4073 357l1 9q2 16 -3.5 23t-21.5 7h-1533l20 138h1591q66 0 93 -32t18 -98l-10 -68q-9 -66 -45 -98t-102 -32h-1409q-25 0 -35.5 -9t-13.5 -33l-4 -26
h1581l-19 -138h-1739l24 171q22 157 179 157h1395q16 0 23.5 6.5t9.5 22.5z" />
    <glyph glyph-name="threequarters" unicode="&#xbe;" horiz-adv-x="4264" 
d="M1591 0l890 700h206l-890 -700h-206zM4050 336l28 198h158l-75 -534h-158l28 198h-1433q-67 0 -94 32t-18 98l29 206h158l-24 -169q-4 -29 25 -29h1376zM1817 574l-4 -30q-7 -49 -37 -77.5t-95 -33.5q64 -5 86 -33.5t15 -77.5l-4 -30q-10 -66 -44 -96t-100 -30h-1611
l19 138h1550q29 0 33 30l1 7q2 16 -3 22.5t-21 6.5h-1457l17 126h1457q29 0 33 29l1 7q2 16 -3.5 23t-21.5 7h-1550l20 138h1611q66 0 91.5 -30t16.5 -96z" />
    <glyph glyph-name="questiondown" unicode="&#xbf;" horiz-adv-x="3371" 
d="M221 157l-3 -19q-3 -23 5 -32t30 -9h3072l-23 -167h-3125q-92 0 -130 44.5t-25 135.5l10 73q25 180 206 180h1441q22 0 31 7.5t12 30.5l3 24h192l-8 -61q-13 -90 -57 -128.5t-134 -38.5h-1451q-22 0 -32.5 -9t-13.5 -31zM1714 500l18 130h236l-18 -130h-236z" />
    <glyph glyph-name="Agrave" unicode="&#xc0;" horiz-adv-x="3421" 
d="M3316 0h-192l37 267h-2911l-37 -267h-192l73 520q25 180 206 180h2933q93 0 131 -44.5t25 -135.5zM3158 533h-2831q-22 0 -32 -9t-13 -32l-9 -59h2911l9 59q3 23 -5 32t-30 9zM1756 759l-352 113h316l262 -113h-226z" />
    <glyph glyph-name="Aacute" unicode="&#xc1;" horiz-adv-x="3421" 
d="M3316 0h-192l37 267h-2911l-37 -267h-192l73 520q25 180 206 180h2933q93 0 131 -44.5t25 -135.5zM3158 533h-2831q-22 0 -32 -9t-13 -32l-9 -59h2911l9 59q3 23 -5 32t-30 9zM2184 872l-390 -113h-230l292 113h328z" />
    <glyph glyph-name="Acircumflex" unicode="&#xc2;" horiz-adv-x="3421" 
d="M3316 0h-192l37 267h-2911l-37 -267h-192l73 520q25 180 206 180h2933q93 0 131 -44.5t25 -135.5zM3158 533h-2831q-22 0 -32 -9t-13 -32l-9 -59h2911l9 59q3 23 -5 32t-30 9zM1783 809l-184 -50h-202l239 113h308l207 -113h-198z" />
    <glyph glyph-name="Atilde" unicode="&#xc3;" horiz-adv-x="3421" 
d="M3316 0h-192l37 267h-2911l-37 -267h-192l73 520q25 180 206 180h2933q93 0 131 -44.5t25 -135.5zM3158 533h-2831q-22 0 -32 -9t-13 -32l-9 -59h2911l9 59q3 23 -5 32t-30 9zM1459 738l16 112q89 47 179 47q55 0 149.5 -24t142.5 -24q80 0 158 47l-16 -112
q-89 -47 -180 -47q-55 0 -149.5 24t-142.5 24q-79 0 -157 -47z" />
    <glyph glyph-name="Adieresis" unicode="&#xc4;" horiz-adv-x="3421" 
d="M3316 0h-192l37 267h-2911l-37 -267h-192l73 520q25 180 206 180h2933q93 0 131 -44.5t25 -135.5zM3158 533h-2831q-22 0 -32 -9t-13 -32l-9 -59h2911l9 59q3 23 -5 32t-30 9zM1645 872l-16 -113h-194l16 113h194zM2130 872l-16 -113h-194l16 113h194z" />
    <glyph glyph-name="Aring" unicode="&#xc5;" horiz-adv-x="3421" 
d="M3316 0h-192l37 267h-2911l-37 -267h-192l73 520q25 180 206 180h2933q93 0 131 -44.5t25 -135.5zM3158 533h-2831q-22 0 -32 -9t-13 -32l-9 -59h2911l9 59q3 23 -5 32t-30 9zM1946 860h-316q-25 0 -25 -27q0 -17 19 -17h316q25 0 25 27q0 17 -19 17zM1917 749h-289
q-53 0 -75 17t-22 51q0 110 122 110h289q53 0 75 -17t22 -51q0 -110 -122 -110z" />
    <glyph glyph-name="AE" unicode="&#xc6;" horiz-adv-x="5242" 
d="M2503 0l37 267h-2290l-37 -267h-192l73 520q25 180 206 180h4951l-24 -167h-2458l-14 -100h2333l-23 -166h-2333l-14 -100h2458l-23 -167h-2650zM327 533q-22 0 -32 -9t-13 -32l-9 -59h2290l14 100h-2250z" />
    <glyph glyph-name="Ccedilla" unicode="&#xc7;" horiz-adv-x="3324" 
d="M1805 -68h-208l46 68h-1435q-92 0 -130 44.5t-25 135.5l48 340q13 91 63 135.5t142 44.5h3040l-24 -167h-2988q-22 0 -32 -9t-13 -32l-40 -284q-3 -23 4.5 -32t29.5 -9h2988l-23 -167h-1574l-27 -41h203q68 0 95 -13t27 -44q0 -50 -41 -80t-149 -30h-445l15 106h442
q34 0 34 20q0 8 -4.5 11t-18.5 3z" />
    <glyph glyph-name="Egrave" unicode="&#xc8;" horiz-adv-x="3389" 
d="M25 0l98 700h3275l-24 -167h-3083l-14 -100h2958l-23 -166h-2958l-14 -100h3083l-23 -167h-3275zM1773 759l-352 113h316l262 -113h-226z" />
    <glyph glyph-name="Eacute" unicode="&#xc9;" horiz-adv-x="3389" 
d="M25 0l98 700h3275l-24 -167h-3083l-14 -100h2958l-23 -166h-2958l-14 -100h3083l-23 -167h-3275zM2191 872l-390 -113h-230l292 113h328z" />
    <glyph glyph-name="Ecircumflex" unicode="&#xca;" horiz-adv-x="3389" 
d="M25 0l98 700h3275l-24 -167h-3083l-14 -100h2958l-23 -166h-2958l-14 -100h3083l-23 -167h-3275zM1800 809l-184 -50h-202l239 113h308l207 -113h-198z" />
    <glyph glyph-name="Edieresis" unicode="&#xcb;" horiz-adv-x="3389" 
d="M25 0l98 700h3275l-24 -167h-3083l-14 -100h2958l-23 -166h-2958l-14 -100h3083l-23 -167h-3275zM1662 872l-16 -113h-194l16 113h194zM2147 872l-16 -113h-194l16 113h194z" />
    <glyph glyph-name="Igrave" unicode="&#xcc;" horiz-adv-x="326" 
d="M25 0l98 700h192l-98 -700h-192zM240 759l-352 113h316l262 -113h-226z" />
    <glyph glyph-name="Iacute" unicode="&#xcd;" horiz-adv-x="326" 
d="M25 0l98 700h192l-98 -700h-192zM608 872l-390 -113h-230l292 113h328z" />
    <glyph glyph-name="Icircumflex" unicode="&#xce;" horiz-adv-x="326" 
d="M25 0l98 700h192l-98 -700h-192zM237 809l-184 -50h-202l239 113h308l207 -113h-198z" />
    <glyph glyph-name="Idieresis" unicode="&#xcf;" horiz-adv-x="326" 
d="M513 872l-16 -113h-194l16 113h194zM168 872l-16 -113h-194l16 113h194zM25 0l98 700h192l-98 -700h-192z" />
    <glyph glyph-name="Eth" unicode="&#xd0;" horiz-adv-x="3413" 
d="M3167 700q123 0 178 -63.5t38 -186.5l-28 -200q-17 -122 -90 -186t-196 -64h-3044l37 267h-67l24 166h66l38 267h3044zM3076 167q74 0 86 76l30 214q10 76 -65 76h-2836l-14 -100h435l-24 -166h-434l-14 -100h2836z" />
    <glyph glyph-name="Ntilde" unicode="&#xd1;" horiz-adv-x="3421" 
d="M327 533q-22 0 -32 -9t-13 -32l-69 -492h-192l73 520q25 180 206 180h2933q93 0 131 -44.5t25 -135.5l-73 -520h-192l69 492q3 23 -5 32t-30 9h-2831zM1459 738l16 112q89 47 179 47q55 0 149.5 -24t142.5 -24q80 0 158 47l-16 -112q-89 -47 -180 -47q-55 0 -149.5 24
t-142.5 24q-79 0 -157 -47z" />
    <glyph glyph-name="Ograve" unicode="&#xd2;" horiz-adv-x="3419" 
d="M208 0q-92 0 -130 44.5t-25 135.5l48 340q13 91 63 135.5t142 44.5h2945q92 0 130 -44.5t25 -135.5l-48 -340q-25 -180 -205 -180h-2945zM3170 207l40 285q3 22 -5 31.5t-30 9.5h-2841q-22 0 -32 -9t-13 -32l-40 -284q-6 -41 34 -41h2841q22 0 32.5 9t13.5 31zM1768 759
l-352 113h316l262 -113h-226z" />
    <glyph glyph-name="Oacute" unicode="&#xd3;" horiz-adv-x="3419" 
d="M208 0q-92 0 -130 44.5t-25 135.5l48 340q13 91 63 135.5t142 44.5h2945q92 0 130 -44.5t25 -135.5l-48 -340q-25 -180 -205 -180h-2945zM3170 207l40 285q3 22 -5 31.5t-30 9.5h-2841q-22 0 -32 -9t-13 -32l-40 -284q-6 -41 34 -41h2841q22 0 32.5 9t13.5 31zM2196 872
l-390 -113h-230l292 113h328z" />
    <glyph glyph-name="Ocircumflex" unicode="&#xd4;" horiz-adv-x="3419" 
d="M208 0q-92 0 -130 44.5t-25 135.5l48 340q13 91 63 135.5t142 44.5h2945q92 0 130 -44.5t25 -135.5l-48 -340q-25 -180 -205 -180h-2945zM3170 207l40 285q3 22 -5 31.5t-30 9.5h-2841q-22 0 -32 -9t-13 -32l-40 -284q-6 -41 34 -41h2841q22 0 32.5 9t13.5 31zM1795 809
l-184 -50h-202l239 113h308l207 -113h-198z" />
    <glyph glyph-name="Otilde" unicode="&#xd5;" horiz-adv-x="3419" 
d="M208 0q-92 0 -130 44.5t-25 135.5l48 340q13 91 63 135.5t142 44.5h2945q92 0 130 -44.5t25 -135.5l-48 -340q-25 -180 -205 -180h-2945zM3170 207l40 285q3 22 -5 31.5t-30 9.5h-2841q-22 0 -32 -9t-13 -32l-40 -284q-6 -41 34 -41h2841q22 0 32.5 9t13.5 31zM1471 738
l16 112q89 47 179 47q55 0 149.5 -24t142.5 -24q80 0 158 47l-16 -112q-89 -47 -180 -47q-55 0 -149.5 24t-142.5 24q-79 0 -157 -47z" />
    <glyph glyph-name="Odieresis" unicode="&#xd6;" horiz-adv-x="3419" 
d="M208 0q-92 0 -130 44.5t-25 135.5l48 340q13 91 63 135.5t142 44.5h2945q92 0 130 -44.5t25 -135.5l-48 -340q-25 -180 -205 -180h-2945zM3170 207l40 285q3 22 -5 31.5t-30 9.5h-2841q-22 0 -32 -9t-13 -32l-40 -284q-6 -41 34 -41h2841q22 0 32.5 9t13.5 31zM1657 872
l-16 -113h-194l16 113h194zM2142 872l-16 -113h-194l16 113h194z" />
    <glyph glyph-name="multiply" unicode="&#xd7;" 
d="M1904 271l225 -271h-206l-221 271l-220 -271h-206l224 271h-1440v158h1440l-224 271h206l220 -271l221 271h206l-225 -271h1441v-158h-1441z" />
    <glyph glyph-name="Oslash" unicode="&#xd8;" horiz-adv-x="3419" 
d="M208 0q-92 0 -130 44.5t-25 135.5l48 340q13 91 63 135.5t142 44.5h2945q92 0 130 -44.5t25 -135.5l-48 -340q-25 -180 -205 -180h-2945zM3170 207l40 285q3 22 -5 31.5t-30 9.5h-26l-2117 -366h2092q22 0 32.5 9t13.5 31zM283 167h26l2117 366h-2092q-22 0 -32 -9
t-13 -32l-40 -284q-6 -41 34 -41z" />
    <glyph glyph-name="Ugrave" unicode="&#xd9;" horiz-adv-x="3421" 
d="M215 0q-93 0 -131 44.5t-25 135.5l73 520h192l-69 -492q-3 -23 4.5 -32t29.5 -9h2831q22 0 32.5 9t13.5 32l69 492h192l-73 -520q-25 -180 -206 -180h-2933zM1769 759l-352 113h316l262 -113h-226z" />
    <glyph glyph-name="Uacute" unicode="&#xda;" horiz-adv-x="3421" 
d="M215 0q-93 0 -131 44.5t-25 135.5l73 520h192l-69 -492q-3 -23 4.5 -32t29.5 -9h2831q22 0 32.5 9t13.5 32l69 492h192l-73 -520q-25 -180 -206 -180h-2933zM2188 872l-390 -113h-230l292 113h328z" />
    <glyph glyph-name="Ucircumflex" unicode="&#xdb;" horiz-adv-x="3421" 
d="M215 0q-93 0 -131 44.5t-25 135.5l73 520h192l-69 -492q-3 -23 4.5 -32t29.5 -9h2831q22 0 32.5 9t13.5 32l69 492h192l-73 -520q-25 -180 -206 -180h-2933zM1796 809l-184 -50h-202l239 113h308l207 -113h-198z" />
    <glyph glyph-name="Udieresis" unicode="&#xdc;" horiz-adv-x="3421" 
d="M215 0q-93 0 -131 44.5t-25 135.5l73 520h192l-69 -492q-3 -23 4.5 -32t29.5 -9h2831q22 0 32.5 9t13.5 32l69 492h192l-73 -520q-25 -180 -206 -180h-2933zM1658 872l-16 -113h-194l16 113h194zM2143 872l-16 -113h-194l16 113h194z" />
    <glyph glyph-name="Yacute" unicode="&#xdd;" horiz-adv-x="3398" 
d="M3228 700h192l-36 -253q-13 -91 -63 -135.5t-142 -44.5h-1376l-37 -267h-192l37 267h-1376q-92 0 -130 44.5t-25 135.5l36 253h192l-32 -227q-3 -22 4.5 -31t29.5 -9h2840q22 0 32.5 9t13.5 31zM2186 872l-390 -113h-230l292 113h328z" />
    <glyph glyph-name="Thorn" unicode="&#xde;" horiz-adv-x="3388" 
d="M25 0l98 700h192l-14 -97h2913q92 0 130 -44.5t25 -135.5l-10 -74q-25 -180 -206 -180h-2913l-23 -169h-192zM3173 395q3 23 -5 32t-30 9h-2860l-14 -100h2860q22 0 32.5 9t13.5 31z" />
    <glyph glyph-name="germandbls" unicode="&#xdf;" horiz-adv-x="3064" 
d="M2796 232h-2227l20 139h2227q30 0 34 30l2 13q3 29 -26 29h-2507q-31 0 -47.5 -13.5t-21.5 -45.5l-77 -551h-184l80 571q14 101 69.5 150t158.5 49h2620q77 0 106.5 -33t19.5 -104l-5 -33q-15 -119 -130 -132q61 -6 81 -39.5t12 -91.5l-4 -33q-10 -72 -50.5 -104.5
t-113.5 -32.5h-2296l22 160h2227q30 0 34 30l2 13q4 29 -26 29z" />
    <glyph glyph-name="agrave" unicode="&#xe0;" horiz-adv-x="3047" 
d="M2833 371l4 29q6 43 -37 43h-2700l22 160h2750q92 0 128.5 -43t23.5 -135l-34 -247q-13 -91 -61.5 -134.5t-140.5 -43.5h-2619q-81 0 -114.5 39.5t-22.5 122.5l7 47q11 83 56 122.5t126 39.5h2612zM2813 232h-2557q-30 0 -34 -29l-2 -13q-4 -30 26 -30h2514q43 0 49 43z
M1556 657l-352 113h316l262 -113h-226z" />
    <glyph glyph-name="aacute" unicode="&#xe1;" horiz-adv-x="3047" 
d="M2833 371l4 29q6 43 -37 43h-2700l22 160h2750q92 0 128.5 -43t23.5 -135l-34 -247q-13 -91 -61.5 -134.5t-140.5 -43.5h-2619q-81 0 -114.5 39.5t-22.5 122.5l7 47q11 83 56 122.5t126 39.5h2612zM2813 232h-2557q-30 0 -34 -29l-2 -13q-4 -30 26 -30h2514q43 0 49 43z
M1984 770l-390 -113h-230l292 113h328z" />
    <glyph glyph-name="acircumflex" unicode="&#xe2;" horiz-adv-x="3047" 
d="M2833 371l4 29q6 43 -37 43h-2700l22 160h2750q92 0 128.5 -43t23.5 -135l-34 -247q-13 -91 -61.5 -134.5t-140.5 -43.5h-2619q-81 0 -114.5 39.5t-22.5 122.5l7 47q11 83 56 122.5t126 39.5h2612zM2813 232h-2557q-30 0 -34 -29l-2 -13q-4 -30 26 -30h2514q43 0 49 43z
M1583 707l-184 -50h-202l239 113h308l207 -113h-198z" />
    <glyph glyph-name="atilde" unicode="&#xe3;" horiz-adv-x="3047" 
d="M2833 371l4 29q6 43 -37 43h-2700l22 160h2750q92 0 128.5 -43t23.5 -135l-34 -247q-13 -91 -61.5 -134.5t-140.5 -43.5h-2619q-81 0 -114.5 39.5t-22.5 122.5l7 47q11 83 56 122.5t126 39.5h2612zM2813 232h-2557q-30 0 -34 -29l-2 -13q-4 -30 26 -30h2514q43 0 49 43z
M1259 636l16 112q89 47 179 47q55 0 149.5 -24t142.5 -24q80 0 158 47l-16 -112q-89 -47 -180 -47q-55 0 -149.5 24t-142.5 24q-79 0 -157 -47z" />
    <glyph glyph-name="adieresis" unicode="&#xe4;" horiz-adv-x="3047" 
d="M2833 371l4 29q6 43 -37 43h-2700l22 160h2750q92 0 128.5 -43t23.5 -135l-34 -247q-13 -91 -61.5 -134.5t-140.5 -43.5h-2619q-81 0 -114.5 39.5t-22.5 122.5l7 47q11 83 56 122.5t126 39.5h2612zM2813 232h-2557q-30 0 -34 -29l-2 -13q-4 -30 26 -30h2514q43 0 49 43z
M1445 770l-16 -113h-194l16 113h194zM1930 770l-16 -113h-194l16 113h194z" />
    <glyph glyph-name="aring" unicode="&#xe5;" horiz-adv-x="3047" 
d="M2833 371l4 29q6 43 -37 43h-2700l22 160h2750q92 0 128.5 -43t23.5 -135l-34 -247q-13 -91 -61.5 -134.5t-140.5 -43.5h-2619q-81 0 -114.5 39.5t-22.5 122.5l7 47q11 83 56 122.5t126 39.5h2612zM2813 232h-2557q-30 0 -34 -29l-2 -13q-4 -30 26 -30h2514q43 0 49 43z
M1746 758h-316q-25 0 -25 -27q0 -17 19 -17h316q25 0 25 27q0 17 -19 17zM1717 647h-289q-53 0 -75 17t-22 51q0 110 122 110h289q53 0 75 -17t22 -51q0 -110 -122 -110z" />
    <glyph glyph-name="ae" unicode="&#xe6;" horiz-adv-x="4544" 
d="M4344 401l2 13q3 29 -26 29h-1882q-43 0 -49 -43l-4 -29h1925q30 0 34 30zM222 203l-2 -13q-4 -30 26 -30h1882q43 0 49 43l4 29h-1925q-30 0 -34 -29zM2075 0h-1906q-81 0 -114.5 39.5t-22.5 122.5l7 47q11 83 56 122.5t126 39.5h1980l4 29q6 43 -37 43h-2069l22 160
h2038q84 0 117.5 -33.5t28.5 -110.5q16 77 59 110.5t127 33.5h1906q81 0 114.5 -39.5t21.5 -122.5l-6 -47q-12 -83 -56.5 -122.5t-125.5 -39.5h-1980l-4 -29q-6 -43 37 -43h2069l-22 -160h-2038q-84 0 -118 33.5t-28 110.5q-17 -77 -59.5 -110.5t-126.5 -33.5z" />
    <glyph glyph-name="ccedilla" unicode="&#xe7;" horiz-adv-x="2969" 
d="M1623 -68h-208l46 68h-1262q-92 0 -128.5 43.5t-23.5 134.5l34 247q13 92 61 135t141 43h2698l-22 -160h-2648q-43 0 -49 -43l-28 -197q-6 -43 37 -43h2648l-22 -160h-1405l-27 -41h203q68 0 95 -13t27 -44q0 -50 -41 -80t-149 -30h-445l15 106h442q34 0 34 20
q0 8 -4.5 11t-18.5 3z" />
    <glyph glyph-name="egrave" unicode="&#xe8;" horiz-adv-x="3047" 
d="M3033 394q-12 -83 -56.5 -122.5t-125.5 -39.5h-2612l-4 -29q-6 -43 37 -43h2698l-22 -160h-2748q-92 0 -129 43t-23 135l34 247q13 91 61.5 134.5t140.5 43.5h2619q81 0 114.5 -39.5t21.5 -122.5zM2826 443h-2514q-43 0 -49 -43l-4 -29h2557q30 0 34 29l2 13q3 30 -26 30
zM1595 657l-352 113h316l262 -113h-226z" />
    <glyph glyph-name="eacute" unicode="&#xe9;" horiz-adv-x="3047" 
d="M3033 394q-12 -83 -56.5 -122.5t-125.5 -39.5h-2612l-4 -29q-6 -43 37 -43h2698l-22 -160h-2748q-92 0 -129 43t-23 135l34 247q13 91 61.5 134.5t140.5 43.5h2619q81 0 114.5 -39.5t21.5 -122.5zM2826 443h-2514q-43 0 -49 -43l-4 -29h2557q30 0 34 29l2 13q3 30 -26 30
zM2023 770l-390 -113h-230l292 113h328z" />
    <glyph glyph-name="ecircumflex" unicode="&#xea;" horiz-adv-x="3047" 
d="M3033 394q-12 -83 -56.5 -122.5t-125.5 -39.5h-2612l-4 -29q-6 -43 37 -43h2698l-22 -160h-2748q-92 0 -129 43t-23 135l34 247q13 91 61.5 134.5t140.5 43.5h2619q81 0 114.5 -39.5t21.5 -122.5zM2826 443h-2514q-43 0 -49 -43l-4 -29h2557q30 0 34 29l2 13q3 30 -26 30
zM1622 707l-184 -50h-202l239 113h308l207 -113h-198z" />
    <glyph glyph-name="edieresis" unicode="&#xeb;" horiz-adv-x="3047" 
d="M3033 394q-12 -83 -56.5 -122.5t-125.5 -39.5h-2612l-4 -29q-6 -43 37 -43h2698l-22 -160h-2748q-92 0 -129 43t-23 135l34 247q13 91 61.5 134.5t140.5 43.5h2619q81 0 114.5 -39.5t21.5 -122.5zM2826 443h-2514q-43 0 -49 -43l-4 -29h2557q30 0 34 29l2 13q3 30 -26 30
zM1484 770l-16 -113h-194l16 113h194zM1969 770l-16 -113h-194l16 113h194z" />
    <glyph glyph-name="igrave" unicode="&#xec;" horiz-adv-x="471" 
d="M273 657l-352 113h316l262 -113h-226zM266 160h161l-22 -160h-210q-92 0 -129 43.5t-24 134.5l59 425h184l-56 -400q-3 -20 7 -31.5t30 -11.5z" />
    <glyph glyph-name="iacute" unicode="&#xed;" horiz-adv-x="471" 
d="M581 770l-390 -113h-230l292 113h328zM266 160h161l-22 -160h-210q-92 0 -129 43.5t-24 134.5l59 425h184l-56 -400q-3 -20 7 -31.5t30 -11.5z" />
    <glyph glyph-name="icircumflex" unicode="&#xee;" horiz-adv-x="471" 
d="M266 160h161l-22 -160h-210q-92 0 -129 43.5t-24 134.5l59 425h184l-56 -400q-3 -20 7 -31.5t30 -11.5zM210 707l-184 -50h-202l239 113h308l207 -113h-198z" />
    <glyph glyph-name="idieresis" unicode="&#xef;" horiz-adv-x="471" 
d="M486 770l-16 -113h-194l16 113h194zM141 770l-16 -113h-193l16 113h193zM266 160h161l-22 -160h-210q-92 0 -129 43.5t-24 134.5l59 425h184l-56 -400q-3 -20 7 -31.5t30 -11.5z" />
    <glyph glyph-name="eth" unicode="&#xf0;" horiz-adv-x="3036" 
d="M277 549h2420q65 0 96.5 -20.5t39.5 -65.5l10 75q6 40 -9 56.5t-55 16.5h-1177l-3 -32h-145l3 32h-1310l23 160h1310l7 49h145l-7 -49h1196q125 0 173.5 -58t31.5 -182l-49 -352q-13 -92 -61.5 -135t-141.5 -43h-2574q-93 0 -129.5 43t-23.5 135l27 192q13 91 62 134.5
t141 43.5zM2779 389h-2476q-43 0 -49 -43l-20 -142q-6 -43 37 -43h2476q43 0 49 43l20 142q6 43 -37 43z" />
    <glyph glyph-name="ntilde" unicode="&#xf1;" horiz-adv-x="3030" 
d="M13 0l59 425q13 92 61 135t139 43h2570q91 0 127 -43t23 -135l-59 -425h-184l56 400q6 43 -37 43h-2466q-43 0 -49 -43l-56 -400h-184zM1250 636l16 112q89 47 179 47q55 0 149.5 -24t142.5 -24q80 0 158 47l-16 -112q-89 -47 -180 -47q-55 0 -149.5 24t-142.5 24
q-79 0 -157 -47z" />
    <glyph glyph-name="ograve" unicode="&#xf2;" horiz-adv-x="3032" 
d="M2859 603q92 0 128.5 -43t23.5 -135l-34 -247q-13 -91 -61.5 -134.5t-140.5 -43.5h-2576q-92 0 -128.5 43.5t-23.5 134.5l34 247q13 92 61 135t141 43h2576zM2747 160q43 0 49 43l28 197q6 43 -37 43h-2476q-43 0 -49 -43l-28 -197q-6 -43 37 -43h2476zM1561 657
l-352 113h316l262 -113h-226z" />
    <glyph glyph-name="oacute" unicode="&#xf3;" horiz-adv-x="3032" 
d="M2859 603q92 0 128.5 -43t23.5 -135l-34 -247q-13 -91 -61.5 -134.5t-140.5 -43.5h-2576q-92 0 -128.5 43.5t-23.5 134.5l34 247q13 92 61 135t141 43h2576zM2747 160q43 0 49 43l28 197q6 43 -37 43h-2476q-43 0 -49 -43l-28 -197q-6 -43 37 -43h2476zM1989 770
l-390 -113h-230l292 113h328z" />
    <glyph glyph-name="ocircumflex" unicode="&#xf4;" horiz-adv-x="3032" 
d="M2859 603q92 0 128.5 -43t23.5 -135l-34 -247q-13 -91 -61.5 -134.5t-140.5 -43.5h-2576q-92 0 -128.5 43.5t-23.5 134.5l34 247q13 92 61 135t141 43h2576zM2747 160q43 0 49 43l28 197q6 43 -37 43h-2476q-43 0 -49 -43l-28 -197q-6 -43 37 -43h2476zM1588 707
l-184 -50h-202l239 113h308l207 -113h-198z" />
    <glyph glyph-name="otilde" unicode="&#xf5;" horiz-adv-x="3032" 
d="M2859 603q92 0 128.5 -43t23.5 -135l-34 -247q-13 -91 -61.5 -134.5t-140.5 -43.5h-2576q-92 0 -128.5 43.5t-23.5 134.5l34 247q13 92 61 135t141 43h2576zM2747 160q43 0 49 43l28 197q6 43 -37 43h-2476q-43 0 -49 -43l-28 -197q-6 -43 37 -43h2476zM1264 636l16 112
q89 47 179 47q55 0 149.5 -24t142.5 -24q80 0 158 47l-16 -112q-89 -47 -180 -47q-55 0 -149.5 24t-142.5 24q-79 0 -157 -47z" />
    <glyph glyph-name="odieresis" unicode="&#xf6;" horiz-adv-x="3032" 
d="M2859 603q92 0 128.5 -43t23.5 -135l-34 -247q-13 -91 -61.5 -134.5t-140.5 -43.5h-2576q-92 0 -128.5 43.5t-23.5 134.5l34 247q13 92 61 135t141 43h2576zM2747 160q43 0 49 43l28 197q6 43 -37 43h-2476q-43 0 -49 -43l-28 -197q-6 -43 37 -43h2476zM1449 770
l-16 -113h-194l16 113h194zM1934 770l-16 -113h-194l16 113h194z" />
    <glyph glyph-name="divide" unicode="&#xf7;" 
d="M1818 150v-150h-232v150h232zM1818 700v-150h-232v150h232zM3345 271h-3285v158h3285v-158z" />
    <glyph glyph-name="oslash" unicode="&#xf8;" horiz-adv-x="3032" 
d="M2859 603q92 0 128.5 -43t23.5 -135l-34 -247q-13 -91 -61.5 -134.5t-140.5 -43.5h-2576q-92 0 -128.5 43.5t-23.5 134.5l34 247q13 92 61 135t141 43h2576zM2747 160q43 0 49 43l28 197q6 43 -37 43h-4l-1803 -283h1767zM274 160l1803 283h-1766q-43 0 -49 -43l-28 -197
q-6 -43 37 -43h3z" />
    <glyph glyph-name="ugrave" unicode="&#xf9;" horiz-adv-x="3030" 
d="M2742 160q43 0 49 43l56 400h184l-59 -425q-14 -92 -62 -135t-138 -43h-2570q-91 0 -127.5 43t-22.5 135l59 425h184l-56 -400q-6 -43 37 -43h2466zM1561 657l-352 113h316l262 -113h-226z" />
    <glyph glyph-name="uacute" unicode="&#xfa;" horiz-adv-x="3030" 
d="M2742 160q43 0 49 43l56 400h184l-59 -425q-14 -92 -62 -135t-138 -43h-2570q-91 0 -127.5 43t-22.5 135l59 425h184l-56 -400q-6 -43 37 -43h2466zM1989 770l-390 -113h-230l292 113h328z" />
    <glyph glyph-name="ucircumflex" unicode="&#xfb;" horiz-adv-x="3030" 
d="M2742 160q43 0 49 43l56 400h184l-59 -425q-14 -92 -62 -135t-138 -43h-2570q-91 0 -127.5 43t-22.5 135l59 425h184l-56 -400q-6 -43 37 -43h2466zM1588 707l-184 -50h-202l239 113h308l207 -113h-198z" />
    <glyph glyph-name="udieresis" unicode="&#xfc;" horiz-adv-x="3030" 
d="M2742 160q43 0 49 43l56 400h184l-59 -425q-14 -92 -62 -135t-138 -43h-2570q-91 0 -127.5 43t-22.5 135l59 425h184l-56 -400q-6 -43 37 -43h2466zM1449 770l-16 -113h-194l16 113h194zM1934 770l-16 -113h-194l16 113h194z" />
    <glyph glyph-name="yacute" unicode="&#xfd;" horiz-adv-x="3034" 
d="M2670 -167h-2641l23 160h2622q39 0 58.5 16.5t25.5 56.5l12 85q-21 -45 -58.5 -65.5t-101.5 -20.5h-2411q-92 0 -128.5 43.5t-23.5 134.5l50 360h184l-47 -335q-6 -43 37 -43h2466q43 0 49 43l47 335h184l-74 -530q-17 -124 -82.5 -182t-190.5 -58zM1977 770l-390 -113
h-230l292 113h328z" />
    <glyph glyph-name="thorn" unicode="&#xfe;" horiz-adv-x="3040" 
d="M309 770l-24 -167h2571q91 0 127 -43t23 -135l-34 -247q-13 -91 -61.5 -134.5t-138.5 -43.5h-2423q-65 0 -97 20.5t-39 65.5l-36 -253h-184l132 937h184zM263 443l-34 -240q-6 -43 37 -43h2476q43 0 49 43l28 197q6 43 -37 43h-2519z" />
    <glyph glyph-name="ydieresis" unicode="&#xff;" horiz-adv-x="3034" 
d="M2670 -167h-2641l23 160h2622q39 0 58.5 16.5t25.5 56.5l12 85q-21 -45 -58.5 -65.5t-101.5 -20.5h-2411q-92 0 -128.5 43.5t-23.5 134.5l50 360h184l-47 -335q-6 -43 37 -43h2466q43 0 49 43l47 335h184l-74 -530q-17 -124 -82.5 -182t-190.5 -58zM1437 770l-16 -113
h-194l16 113h194zM1922 770l-16 -113h-194l16 113h194z" />
    <glyph glyph-name="Amacron" unicode="&#x100;" horiz-adv-x="3421" 
d="M3316 0h-192l37 267h-2911l-37 -267h-192l73 520q25 180 206 180h2933q93 0 131 -44.5t25 -135.5zM3158 533h-2831q-22 0 -32 -9t-13 -32l-9 -59h2911l9 59q3 23 -5 32t-30 9zM2090 766h-630l14 100h630z" />
    <glyph glyph-name="amacron" unicode="&#x101;" horiz-adv-x="3047" 
d="M2833 371l4 29q6 43 -37 43h-2700l22 160h2750q92 0 128.5 -43t23.5 -135l-34 -247q-13 -91 -61.5 -134.5t-140.5 -43.5h-2619q-81 0 -114.5 39.5t-22.5 122.5l7 47q11 83 56 122.5t126 39.5h2612zM2813 232h-2557q-30 0 -34 -29l-2 -13q-4 -30 26 -30h2514q43 0 49 43z
M1890 664h-630l14 100h630z" />
    <glyph glyph-name="Abreve" unicode="&#x102;" horiz-adv-x="3421" 
d="M3316 0h-192l37 267h-2911l-37 -267h-192l73 520q25 180 206 180h2933q93 0 131 -44.5t25 -135.5zM3158 533h-2831q-22 0 -32 -9t-13 -32l-9 -59h2911l9 59q3 23 -5 32t-30 9zM1467 796l11 106q119 -50 305 -50q184 0 318 50l-11 -106q-118 -55 -319 -55t-304 55z" />
    <glyph glyph-name="abreve" unicode="&#x103;" horiz-adv-x="3047" 
d="M2833 371l4 29q6 43 -37 43h-2700l22 160h2750q92 0 128.5 -43t23.5 -135l-34 -247q-13 -91 -61.5 -134.5t-140.5 -43.5h-2619q-81 0 -114.5 39.5t-22.5 122.5l7 47q11 83 56 122.5t126 39.5h2612zM2813 232h-2557q-30 0 -34 -29l-2 -13q-4 -30 26 -30h2514q43 0 49 43z
M1267 694l11 106q119 -50 305 -50q184 0 318 50l-11 -106q-118 -55 -319 -55t-304 55z" />
    <glyph glyph-name="Aogonek" unicode="&#x104;" horiz-adv-x="3421" 
d="M3158 533h-2831q-22 0 -32 -9t-13 -32l-9 -59h2911l9 59q3 23 -5 32t-30 9zM3262 -208h-484q-74 0 -105.5 12t-31.5 45q0 26 4.5 41.5t25 29.5t51.5 20.5t94.5 11.5t142 6t206.5 1h40l6 41h-87l37 267h-2911l-37 -267h-192l73 520q25 180 206 180h2933q93 0 131 -44.5
t25 -135.5l-73 -520h-76l-9 -68h-50q-187 0 -275.5 -3t-105.5 -7t-17 -14t23 -10h471z" />
    <glyph glyph-name="aogonek" unicode="&#x105;" horiz-adv-x="3047" 
d="M2911 -208h-484q-74 0 -105.5 12t-31.5 45q0 26 4.5 41.5t25 29.5t51.5 20.5t94.5 11.5t142 6t206.5 1h40l6 49q-28 -8 -72 -8h-2619q-81 0 -114.5 39.5t-22.5 122.5l7 47q11 83 56 122.5t126 39.5h2612l4 29q6 43 -37 43h-2700l22 160h2750q92 0 128.5 -43t23.5 -135
l-34 -247q-18 -121 -98 -159l-12 -87h-50q-187 0 -275.5 -3t-105.5 -7t-17 -14t23 -10h471zM2813 232h-2557q-30 0 -34 -29l-2 -13q-4 -30 26 -30h2514q43 0 49 43z" />
    <glyph glyph-name="Cacute" unicode="&#x106;" horiz-adv-x="3324" 
d="M208 0q-92 0 -130 44.5t-25 135.5l48 340q13 91 63 135.5t142 44.5h3040l-24 -167h-2988q-22 0 -32 -9t-13 -32l-40 -284q-3 -23 4.5 -32t29.5 -9h2988l-23 -167h-3040zM2194 872l-390 -113h-230l292 113h328z" />
    <glyph glyph-name="cacute" unicode="&#x107;" horiz-adv-x="2969" 
d="M199 0q-92 0 -128.5 43.5t-23.5 134.5l34 247q13 92 61 135t141 43h2698l-22 -160h-2648q-43 0 -49 -43l-28 -197q-6 -43 37 -43h2648l-22 -160h-2698zM2007 770l-390 -113h-230l292 113h328z" />
    <glyph glyph-name="Ccircumflex" unicode="&#x108;" horiz-adv-x="3324" 
d="M208 0q-92 0 -130 44.5t-25 135.5l48 340q13 91 63 135.5t142 44.5h3040l-24 -167h-2988q-22 0 -32 -9t-13 -32l-40 -284q-3 -23 4.5 -32t29.5 -9h2988l-23 -167h-3040zM1798 809l-184 -50h-202l239 113h308l207 -113h-198z" />
    <glyph glyph-name="ccircumflex" unicode="&#x109;" horiz-adv-x="2969" 
d="M199 0q-92 0 -128.5 43.5t-23.5 134.5l34 247q13 92 61 135t141 43h2698l-22 -160h-2648q-43 0 -49 -43l-28 -197q-6 -43 37 -43h2648l-22 -160h-2698zM1606 707l-184 -50h-202l239 113h308l207 -113h-198z" />
    <glyph glyph-name="Cdotaccent" unicode="&#x10a;" horiz-adv-x="3324" 
d="M208 0q-92 0 -130 44.5t-25 135.5l48 340q13 91 63 135.5t142 44.5h3040l-24 -167h-2988q-22 0 -32 -9t-13 -32l-40 -284q-3 -23 4.5 -32t29.5 -9h2988l-23 -167h-3040zM1902 872l-16 -113h-194l16 113h194z" />
    <glyph glyph-name="cdotaccent" unicode="&#x10b;" horiz-adv-x="2969" 
d="M199 0q-92 0 -128.5 43.5t-23.5 134.5l34 247q13 92 61 135t141 43h2698l-22 -160h-2648q-43 0 -49 -43l-28 -197q-6 -43 37 -43h2648l-22 -160h-2698zM1710 770l-16 -113h-194l16 113h194z" />
    <glyph glyph-name="Ccaron" unicode="&#x10c;" horiz-adv-x="3324" 
d="M208 0q-92 0 -130 44.5t-25 135.5l48 340q13 91 63 135.5t142 44.5h3040l-24 -167h-2988q-22 0 -32 -9t-13 -32l-40 -284q-3 -23 4.5 -32t29.5 -9h2988l-23 -167h-3040zM1626 872l170 -50l184 50h202l-239 -113h-308l-207 113h198z" />
    <glyph glyph-name="ccaron" unicode="&#x10d;" horiz-adv-x="2969" 
d="M199 0q-92 0 -128.5 43.5t-23.5 134.5l34 247q13 92 61 135t141 43h2698l-22 -160h-2648q-43 0 -49 -43l-28 -197q-6 -43 37 -43h2648l-22 -160h-2698zM1434 770l170 -50l184 50h202l-239 -113h-308l-207 113h198z" />
    <glyph glyph-name="Dcaron" unicode="&#x10e;" horiz-adv-x="3413" 
d="M3167 700q123 0 178 -63.5t38 -186.5l-28 -200q-17 -122 -90 -186t-196 -64h-3044l98 700h3044zM3076 167q74 0 86 76l30 214q10 76 -65 76h-2836l-51 -366h2836zM1593 872l170 -50l184 50h202l-239 -113h-308l-207 113h198z" />
    <glyph glyph-name="dcaron" unicode="&#x10f;" horiz-adv-x="3388" 
d="M3060 770l-83 -592q-13 -91 -62 -134.5t-141 -43.5h-2577q-90 0 -126.5 43.5t-23.5 134.5l34 247q13 92 61 135t139 43h2423q65 0 96.5 -20.5t39.5 -65.5l36 253h184zM2796 203l28 197q6 43 -37 43h-2476q-43 0 -49 -43l-28 -197q-6 -43 37 -43h2476q43 0 49 43z
M3397 700l-21 -150q-11 -77 -61 -122t-130 -45h-65l12 86h49q34 0 51 14.5t22 47.5l3 19h-113l21 150h232z" />
    <glyph glyph-name="Dcroat" unicode="&#x110;" horiz-adv-x="3413" 
d="M3167 700q123 0 178 -63.5t38 -186.5l-28 -200q-17 -122 -90 -186t-196 -64h-3044l37 267h-67l24 166h66l38 267h3044zM3076 167q74 0 86 76l30 214q10 76 -65 76h-2836l-14 -100h435l-24 -166h-434l-14 -100h2836z" />
    <glyph glyph-name="dcroat" unicode="&#x111;" horiz-adv-x="3036" 
d="M3060 770l-6 -44h54l-14 -100h-54l-63 -448q-13 -91 -62 -134.5t-141 -43.5h-2577q-90 0 -126.5 43.5t-23.5 134.5l34 247q13 92 61 135t139 43h2423q65 0 96.5 -20.5t39.5 -65.5l15 109h-391l14 100h391l7 44h184zM2796 203l28 197q6 43 -37 43h-2476q-43 0 -49 -43
l-28 -197q-6 -43 37 -43h2476q43 0 49 43z" />
    <glyph glyph-name="Emacron" unicode="&#x112;" horiz-adv-x="3389" 
d="M25 0l98 700h3275l-24 -167h-3083l-14 -100h2958l-23 -166h-2958l-14 -100h3083l-23 -167h-3275zM2107 766h-630l14 100h630z" />
    <glyph glyph-name="emacron" unicode="&#x113;" horiz-adv-x="3047" 
d="M3033 394q-12 -83 -56.5 -122.5t-125.5 -39.5h-2612l-4 -29q-6 -43 37 -43h2698l-22 -160h-2748q-92 0 -129 43t-23 135l34 247q13 91 61.5 134.5t140.5 43.5h2619q81 0 114.5 -39.5t21.5 -122.5zM2826 443h-2514q-43 0 -49 -43l-4 -29h2557q30 0 34 29l2 13q3 30 -26 30
zM1929 664h-630l14 100h630z" />
    <glyph glyph-name="Ebreve" unicode="&#x114;" horiz-adv-x="3389" 
d="M25 0l98 700h3275l-24 -167h-3083l-14 -100h2958l-23 -166h-2958l-14 -100h3083l-23 -167h-3275zM1484 796l11 106q119 -50 305 -50q184 0 318 50l-11 -106q-118 -55 -319 -55t-304 55z" />
    <glyph glyph-name="ebreve" unicode="&#x115;" horiz-adv-x="3047" 
d="M3033 394q-12 -83 -56.5 -122.5t-125.5 -39.5h-2612l-4 -29q-6 -43 37 -43h2698l-22 -160h-2748q-92 0 -129 43t-23 135l34 247q13 91 61.5 134.5t140.5 43.5h2619q81 0 114.5 -39.5t21.5 -122.5zM2826 443h-2514q-43 0 -49 -43l-4 -29h2557q30 0 34 29l2 13q3 30 -26 30
zM1306 694l11 106q119 -50 305 -50q184 0 318 50l-11 -106q-118 -55 -319 -55t-304 55z" />
    <glyph glyph-name="Edotaccent" unicode="&#x116;" horiz-adv-x="3389" 
d="M25 0l98 700h3275l-24 -167h-3083l-14 -100h2958l-23 -166h-2958l-14 -100h3083l-23 -167h-3275zM1904 872l-16 -113h-194l16 113h194z" />
    <glyph glyph-name="edotaccent" unicode="&#x117;" horiz-adv-x="3047" 
d="M3033 394q-12 -83 -56.5 -122.5t-125.5 -39.5h-2612l-4 -29q-6 -43 37 -43h2698l-22 -160h-2748q-92 0 -129 43t-23 135l34 247q13 91 61.5 134.5t140.5 43.5h2619q81 0 114.5 -39.5t21.5 -122.5zM2826 443h-2514q-43 0 -49 -43l-4 -29h2557q30 0 34 29l2 13q3 30 -26 30
zM1726 770l-16 -113h-194l16 113h194z" />
    <glyph glyph-name="Eogonek" unicode="&#x118;" horiz-adv-x="3389" 
d="M3270 -208h-484q-74 0 -105.5 12t-31.5 45q0 26 4.5 41.5t25 29.5t51.5 20.5t94.5 11.5t142 6t206.5 1h40l6 41h-3194l98 700h3275l-24 -167h-3083l-14 -100h2958l-23 -166h-2958l-14 -100h3083l-23 -167h-52l-9 -68h-50q-187 0 -275.5 -3t-105.5 -7t-17 -14t23 -10h471z
" />
    <glyph glyph-name="eogonek" unicode="&#x119;" horiz-adv-x="3047" 
d="M2826 443h-2514q-43 0 -49 -43l-4 -29h2557q30 0 34 29l2 13q3 30 -26 30zM2918 -208h-484q-74 0 -105.5 12t-31.5 45q0 26 4.5 41.5t25 29.5t51.5 20.5t94.5 11.5t142 6t206.5 1h61l6 41h-2688q-92 0 -129 43t-23 135l34 247q13 91 61.5 134.5t140.5 43.5h2619
q81 0 114.5 -39.5t21.5 -122.5l-6 -47q-12 -83 -56.5 -122.5t-125.5 -39.5h-2612l-4 -29q-6 -43 37 -43h2698l-22 -160h-31l-9 -68h-71q-187 0 -275.5 -3t-105.5 -7t-17 -14t23 -10h471z" />
    <glyph glyph-name="Ecaron" unicode="&#x11a;" horiz-adv-x="3389" 
d="M25 0l98 700h3275l-24 -167h-3083l-14 -100h2958l-23 -166h-2958l-14 -100h3083l-23 -167h-3275zM1628 872l170 -50l184 50h202l-239 -113h-308l-207 113h198z" />
    <glyph glyph-name="ecaron" unicode="&#x11b;" horiz-adv-x="3047" 
d="M3033 394q-12 -83 -56.5 -122.5t-125.5 -39.5h-2612l-4 -29q-6 -43 37 -43h2698l-22 -160h-2748q-92 0 -129 43t-23 135l34 247q13 91 61.5 134.5t140.5 43.5h2619q81 0 114.5 -39.5t21.5 -122.5zM2826 443h-2514q-43 0 -49 -43l-4 -29h2557q30 0 34 29l2 13q3 30 -26 30
zM1450 770l170 -50l184 50h202l-239 -113h-308l-207 113h198z" />
    <glyph glyph-name="Gcircumflex" unicode="&#x11c;" horiz-adv-x="3419" 
d="M3127 167q22 0 30.5 8t11.5 30l9 62h-1732l23 166h1924l-37 -266q-13 -90 -56.5 -128.5t-133.5 -38.5h-2958q-92 0 -130 44.5t-25 135.5l48 340q13 91 63 135.5t142 44.5h3100l-24 -167h-3048q-22 0 -32 -9t-13 -32l-40 -284q-3 -23 4.5 -32t29.5 -9h2844zM1811 809
l-184 -50h-202l239 113h308l207 -113h-198z" />
    <glyph glyph-name="gcircumflex" unicode="&#x11d;" horiz-adv-x="3036" 
d="M2743 225q43 0 49 43l19 132q6 43 -37 43h-2476q-43 0 -49 -43l-19 -132q-6 -43 37 -43h2476zM2616 65h-2420q-92 0 -129 43.5t-24 134.5l25 182q13 92 61.5 135t141.5 43h2574q93 0 129.5 -43t23.5 -135l-49 -352q-17 -124 -82.5 -182t-190.5 -58h-2651l23 160h2632
q39 0 58.5 16.5t25.5 56.5l12 85q-21 -45 -58.5 -65.5t-101.5 -20.5zM1577 707l-184 -50h-202l239 113h308l207 -113h-198z" />
    <glyph glyph-name="Gbreve" unicode="&#x11e;" horiz-adv-x="3419" 
d="M3127 167q22 0 30.5 8t11.5 30l9 62h-1732l23 166h1924l-37 -266q-13 -90 -56.5 -128.5t-133.5 -38.5h-2958q-92 0 -130 44.5t-25 135.5l48 340q13 91 63 135.5t142 44.5h3100l-24 -167h-3048q-22 0 -32 -9t-13 -32l-40 -284q-3 -23 4.5 -32t29.5 -9h2844zM1495 796
l11 106q119 -50 305 -50q184 0 318 50l-11 -106q-118 -55 -319 -55t-304 55z" />
    <glyph glyph-name="gbreve" unicode="&#x11f;" horiz-adv-x="3036" 
d="M2743 225q43 0 49 43l19 132q6 43 -37 43h-2476q-43 0 -49 -43l-19 -132q-6 -43 37 -43h2476zM2616 65h-2420q-92 0 -129 43.5t-24 134.5l25 182q13 92 61.5 135t141.5 43h2574q93 0 129.5 -43t23.5 -135l-49 -352q-17 -124 -82.5 -182t-190.5 -58h-2651l23 160h2632
q39 0 58.5 16.5t25.5 56.5l12 85q-21 -45 -58.5 -65.5t-101.5 -20.5zM1261 694l11 106q119 -50 305 -50q184 0 318 50l-11 -106q-118 -55 -319 -55t-304 55z" />
    <glyph glyph-name="Gdotaccent" unicode="&#x120;" horiz-adv-x="3419" 
d="M3127 167q22 0 30.5 8t11.5 30l9 62h-1732l23 166h1924l-37 -266q-13 -90 -56.5 -128.5t-133.5 -38.5h-2958q-92 0 -130 44.5t-25 135.5l48 340q13 91 63 135.5t142 44.5h3100l-24 -167h-3048q-22 0 -32 -9t-13 -32l-40 -284q-3 -23 4.5 -32t29.5 -9h2844zM1915 872
l-16 -113h-194l16 113h194z" />
    <glyph glyph-name="gdotaccent" unicode="&#x121;" horiz-adv-x="3036" 
d="M2743 225q43 0 49 43l19 132q6 43 -37 43h-2476q-43 0 -49 -43l-19 -132q-6 -43 37 -43h2476zM2616 65h-2420q-92 0 -129 43.5t-24 134.5l25 182q13 92 61.5 135t141.5 43h2574q93 0 129.5 -43t23.5 -135l-49 -352q-17 -124 -82.5 -182t-190.5 -58h-2651l23 160h2632
q39 0 58.5 16.5t25.5 56.5l12 85q-21 -45 -58.5 -65.5t-101.5 -20.5zM1681 770l-16 -113h-194l16 113h194z" />
    <glyph glyph-name="uni0122" unicode="&#x122;" horiz-adv-x="3419" 
d="M3127 167q22 0 30.5 8t11.5 30l9 62h-1732l23 166h1924l-37 -266q-13 -90 -56.5 -128.5t-133.5 -38.5h-2958q-92 0 -130 44.5t-25 135.5l48 340q13 91 63 135.5t142 44.5h3100l-24 -167h-3048q-22 0 -32 -9t-13 -32l-40 -284q-3 -23 4.5 -32t29.5 -9h2844zM1785 -55
l-13 -88q-9 -65 -50.5 -102.5t-108.5 -37.5h-54l7 49h46q53 0 60 52l2 14h-99l16 113h194z" />
    <glyph glyph-name="uni0123" unicode="&#x123;" horiz-adv-x="3036" 
d="M1471 657l12 88q9 65 51 102.5t109 37.5h54l-7 -49h-46q-53 0 -60 -52l-2 -14h99l-16 -113h-194zM2743 225q43 0 49 43l19 132q6 43 -37 43h-2476q-43 0 -49 -43l-19 -132q-6 -43 37 -43h2476zM2616 65h-2420q-92 0 -129 43.5t-24 134.5l25 182q13 92 61.5 135t141.5 43
h2574q93 0 129.5 -43t23.5 -135l-49 -352q-17 -124 -82.5 -182t-190.5 -58h-2651l23 160h2632q39 0 58.5 16.5t25.5 56.5l12 85q-21 -45 -58.5 -65.5t-101.5 -20.5z" />
    <glyph glyph-name="Hcircumflex" unicode="&#x124;" horiz-adv-x="3439" 
d="M3138 0l37 266h-2921l-37 -266h-192l98 700h192l-38 -267h2921l38 267h192l-98 -700h-192zM1792 809l-184 -50h-202l239 113h308l207 -113h-198z" />
    <glyph glyph-name="hcircumflex" unicode="&#x125;" horiz-adv-x="3034" 
d="M2809 400q6 43 -38 43h-2465q-43 0 -49 -43l-56 -400h-184l108 770h184l-36 -253q20 45 57.5 65.5t102.5 20.5h2413q91 0 127 -43t23 -135l-59 -425h-184zM1618 707l-184 -50h-202l239 113h308l207 -113h-198z" />
    <glyph glyph-name="Hbar" unicode="&#x126;" horiz-adv-x="3439" 
d="M3138 0l37 266h-2921l-37 -266h-192l70 500h-45l17 120h45l11 80h192l-12 -80h2921l12 80h192l-11 -80h45l-17 -120h-45l-70 -500h-192zM277 433h2921l9 67h-2921z" />
    <glyph glyph-name="hbar" unicode="&#x127;" horiz-adv-x="3034" 
d="M2809 400q6 43 -38 43h-2465q-43 0 -49 -43l-56 -400h-184l88 626h-59l14 100h59l6 44h184l-7 -44h388l-14 -100h-388l-15 -109q20 45 57.5 65.5t102.5 20.5h2413q91 0 127 -43t23 -135l-59 -425h-184z" />
    <glyph glyph-name="Itilde" unicode="&#x128;" horiz-adv-x="326" 
d="M25 0l98 700h192l-98 -700h-192zM-87 738l16 112q89 47 179 47q55 0 149.5 -24t142.5 -24q80 0 158 47l-16 -112q-89 -47 -180 -47q-55 0 -149.5 24t-142.5 24q-79 0 -157 -47z" />
    <glyph glyph-name="itilde" unicode="&#x129;" horiz-adv-x="471" 
d="M-114 636l16 112q89 47 179 47q55 0 149.5 -24t142.5 -24q80 0 158 47l-16 -112q-89 -47 -180 -47q-55 0 -149.5 24t-142.5 24q-79 0 -157 -47zM266 160h161l-22 -160h-210q-92 0 -129 43.5t-24 134.5l59 425h184l-56 -400q-3 -20 7 -31.5t30 -11.5z" />
    <glyph glyph-name="Imacron" unicode="&#x12a;" horiz-adv-x="326" 
d="M493 768h-530l14 96h530zM25 0l98 700h192l-98 -700h-192z" />
    <glyph glyph-name="imacron" unicode="&#x12b;" horiz-adv-x="471" 
d="M467 666h-529l14 96h529zM266 160h161l-22 -160h-210q-92 0 -129 43.5t-24 134.5l59 425h184l-56 -400q-3 -20 7 -31.5t30 -11.5z" />
    <glyph glyph-name="Ibreve" unicode="&#x12c;" horiz-adv-x="326" 
d="M25 0l98 700h192l-98 -700h-192zM-79 796l11 106q119 -50 305 -50q184 0 318 50l-11 -106q-118 -55 -319 -55t-304 55z" />
    <glyph glyph-name="ibreve" unicode="&#x12d;" horiz-adv-x="471" 
d="M-106 694l11 106q119 -50 305 -50q184 0 318 50l-11 -106q-118 -55 -319 -55t-304 55zM266 160h161l-22 -160h-210q-92 0 -129 43.5t-24 134.5l59 425h184l-56 -400q-3 -20 7 -31.5t30 -11.5z" />
    <glyph glyph-name="Iogonek" unicode="&#x12e;" horiz-adv-x="326" 
d="M187 -208h-283q-75 0 -106 11.5t-31 46.5q0 71 76 90t309 19l6 41h-133l98 700h192l-98 -700h-30l-10 -68h-29q-104 0 -159.5 -3.5t-67.5 -8t-12 -12.5q0 -10 23 -10h270z" />
    <glyph glyph-name="iogonek" unicode="&#x12f;" horiz-adv-x="471" 
d="M375 -208h-284q-74 0 -105 12t-31 46q0 69 77.5 89t307.5 20l6 41h-151q-92 0 -129 43.5t-24 134.5l59 425h184l-56 -400q-3 -20 7 -31.5t30 -11.5h161l-22 -160h-30l-10 -68h-29q-103 0 -158.5 -3.5t-68 -8t-13.5 -12.5q0 -10 23 -10h271zM333 770l-16 -113h-232l16 113
h232z" />
    <glyph glyph-name="Idotaccent" unicode="&#x130;" horiz-adv-x="326" 
d="M25 0l98 700h192l-98 -700h-192zM341 872l-16 -113h-194l16 113h194z" />
    <glyph glyph-name="dotlessi" unicode="&#x131;" horiz-adv-x="471" 
d="M279 160h161l-22 -160h-210q-92 0 -129 43.5t-24 134.5l59 425h184l-56 -400q-3 -20 7 -31.5t30 -11.5z" />
    <glyph glyph-name="IJ" unicode="&#x132;" horiz-adv-x="3731" 
d="M25 0l98 700h192l-98 -700h-192zM354 167l25 175h192l-20 -137q-3 -22 3.5 -30t28.5 -8h2834q22 0 32.5 9t13.5 32l69 492h192l-73 -520q-25 -180 -206 -180h-2947q-90 0 -123.5 38.5t-20.5 128.5z" />
    <glyph glyph-name="Jcircumflex" unicode="&#x134;" horiz-adv-x="3405" 
d="M41 167l25 175h192l-20 -137q-3 -22 3.5 -30t28.5 -8h2834q22 0 32.5 9t13.5 32l69 492h192l-73 -520q-25 -180 -206 -180h-2947q-90 0 -123.5 38.5t-20.5 128.5zM3133 809l-184 -50h-202l239 113h308l207 -113h-198z" />
    <glyph glyph-name="jcircumflex" unicode="&#x135;" horiz-adv-x="315" 
d="M-92 -7h83q43 0 49 43l79 567h184l-83 -592q-13 -91 -62 -134.5t-141 -43.5h-132zM231 707l-184 -50h-202l239 113h308l207 -113h-198z" />
    <glyph glyph-name="uni0136" unicode="&#x136;" horiz-adv-x="3419" 
d="M3418 700l-24 -167q-12 -83 -55.5 -129t-146.5 -54q101 -8 132 -54.5t19 -128.5l-23 -167h-192l30 216q7 51 -44 51h-2860l-37 -267h-192l98 700h192l-38 -267h2860q52 0 59 51l30 216h192zM1756 -55l-13 -88q-9 -65 -50.5 -102.5t-108.5 -37.5h-54l7 49h46q53 0 60 52
l2 14h-99l16 113h194z" />
    <glyph glyph-name="uni0137" unicode="&#x137;" horiz-adv-x="3028" 
d="M2813 429l24 174h184l-20 -145q-20 -139 -167 -157q143 -18 123 -156l-20 -145h-184l24 174q6 48 -42 48h-2503l-31 -222h-184l108 770h184l-55 -389h2503q49 0 56 48zM1586 -55l-13 -88q-9 -65 -50.5 -102.5t-108.5 -37.5h-54l7 49h46q53 0 60 52l2 14h-99l16 113h194z
" />
    <glyph glyph-name="kgreenlandic" unicode="&#x138;" horiz-adv-x="3028" 
d="M2813 429l24 174h184l-20 -145q-20 -139 -167 -157q143 -18 123 -156l-20 -145h-184l24 174q6 48 -42 48h-2503l-31 -222h-184l84 603h184l-31 -222h2503q49 0 56 48z" />
    <glyph glyph-name="Lacute" unicode="&#x139;" horiz-adv-x="3342" 
d="M3293 168l-23 -168h-3245l98 700h192l-75 -532h3053zM669 872l-390 -113h-230l292 113h328z" />
    <glyph glyph-name="lacute" unicode="&#x13a;" horiz-adv-x="467" 
d="M262 160h161l-22 -160h-210q-92 0 -129 43.5t-24 134.5l83 592h184l-80 -567q-3 -20 7 -31.5t30 -11.5zM601 938l-390 -113h-230l292 113h328z" />
    <glyph glyph-name="uni013B" unicode="&#x13b;" horiz-adv-x="3342" 
d="M3293 168l-23 -168h-3245l98 700h192l-75 -532h3053zM1718 -55l-13 -88q-9 -65 -50.5 -102.5t-108.5 -37.5h-54l7 49h46q53 0 60 52l2 14h-99l16 113h194z" />
    <glyph glyph-name="uni013C" unicode="&#x13c;" horiz-adv-x="467" 
d="M275 160h161l-22 -160h-210q-92 0 -129 43.5t-24 134.5l83 592h184l-80 -567q-3 -20 7 -31.5t30 -11.5zM294 -55l-13 -88q-9 -65 -50.5 -102.5t-108.5 -37.5h-54l7 49h46q53 0 60 52l2 14h-99l16 113h194z" />
    <glyph glyph-name="Lcaron" unicode="&#x13d;" horiz-adv-x="3342" 
d="M3293 168l-23 -168h-3245l98 700h192l-75 -532h3053zM3015 700l-21 -150q-11 -77 -61 -122t-130 -45h-65l12 86h49q34 0 51 14.5t22 47.5l3 19h-113l21 150h232z" />
    <glyph glyph-name="lcaron" unicode="&#x13e;" horiz-adv-x="639" 
d="M275 160h161l-22 -160h-210q-92 0 -129 43.5t-24 134.5l83 592h184l-80 -567q-3 -20 7 -31.5t30 -11.5zM648 700l-21 -150q-11 -77 -61 -122t-130 -45h-65l12 86h49q34 0 51 14.5t22 47.5l3 19h-113l21 150h232z" />
    <glyph glyph-name="Ldot" unicode="&#x13f;" horiz-adv-x="3342" 
d="M3293 168l-23 -168h-3245l98 700h192l-75 -532h3053zM1864 425l-21 -150h-232l21 150h232z" />
    <glyph glyph-name="ldot" unicode="&#x140;" horiz-adv-x="659" 
d="M275 160h161l-22 -160h-210q-92 0 -129 43.5t-24 134.5l83 592h184l-80 -567q-3 -20 7 -31.5t30 -11.5zM629 425l-21 -150h-232l21 150h232z" />
    <glyph glyph-name="Lslash" unicode="&#x141;" horiz-adv-x="3342" 
d="M3293 168l-23 -168h-3245l23 165l-70 -20l23 164l70 20l52 371h192l-45 -314l773 223l-23 -164l-773 -223l-7 -54h3053z" />
    <glyph glyph-name="lslash" unicode="&#x142;" horiz-adv-x="467" 
d="M262 160h161l-22 -160h-210q-92 0 -129 43.5t-24 134.5l11 83l-57 -16l23 164l57 16l49 345h184l-41 -290l238 69l-23 -164l-238 -69l-16 -113q-3 -20 7 -31.5t30 -11.5z" />
    <glyph glyph-name="Nacute" unicode="&#x143;" horiz-adv-x="3421" 
d="M327 533q-22 0 -32 -9t-13 -32l-69 -492h-192l73 520q25 180 206 180h2933q93 0 131 -44.5t25 -135.5l-73 -520h-192l69 492q3 23 -5 32t-30 9h-2831zM2184 872l-390 -113h-230l292 113h328z" />
    <glyph glyph-name="nacute" unicode="&#x144;" horiz-adv-x="3030" 
d="M13 0l59 425q13 92 61 135t139 43h2570q91 0 127 -43t23 -135l-59 -425h-184l56 400q6 43 -37 43h-2466q-43 0 -49 -43l-56 -400h-184zM1966 770l-390 -113h-230l292 113h328z" />
    <glyph glyph-name="uni0145" unicode="&#x145;" horiz-adv-x="3421" 
d="M327 533q-22 0 -32 -9t-13 -32l-69 -492h-192l73 520q25 180 206 180h2933q93 0 131 -44.5t25 -135.5l-73 -520h-192l69 492q3 23 -5 32t-30 9h-2831zM1757 -55l-13 -88q-9 -65 -50.5 -102.5t-108.5 -37.5h-54l7 49h46q53 0 60 52l2 14h-99l16 113h194z" />
    <glyph glyph-name="uni0146" unicode="&#x146;" horiz-adv-x="3030" 
d="M13 0l59 425q13 92 61 135t139 43h2570q91 0 127 -43t23 -135l-59 -425h-184l56 400q6 43 -37 43h-2466q-43 0 -49 -43l-56 -400h-184zM1562 -55l-13 -88q-9 -65 -50.5 -102.5t-108.5 -37.5h-54l7 49h46q53 0 60 52l2 14h-99l16 113h194z" />
    <glyph glyph-name="Ncaron" unicode="&#x147;" horiz-adv-x="3421" 
d="M327 533q-22 0 -32 -9t-13 -32l-69 -492h-192l73 520q25 180 206 180h2933q93 0 131 -44.5t25 -135.5l-73 -520h-192l69 492q3 23 -5 32t-30 9h-2831zM1611 872l170 -50l184 50h202l-239 -113h-308l-207 113h198z" />
    <glyph glyph-name="ncaron" unicode="&#x148;" horiz-adv-x="3030" 
d="M13 0l59 425q13 92 61 135t139 43h2570q91 0 127 -43t23 -135l-59 -425h-184l56 400q6 43 -37 43h-2466q-43 0 -49 -43l-56 -400h-184zM1402 770l170 -50l184 50h202l-239 -113h-308l-207 113h198z" />
    <glyph glyph-name="napostrophe" unicode="&#x149;" horiz-adv-x="3342" 
d="M325 0l59 425q13 92 61 135t139 43h2570q91 0 127 -43t23 -135l-59 -425h-184l56 400q6 43 -37 43h-2466q-43 0 -49 -43l-56 -400h-184zM348 700l-21 -150q-11 -77 -61 -122t-130 -45h-65l12 86h49q34 0 51 14.5t22 47.5l3 19h-113l21 150h232z" />
    <glyph glyph-name="Eng" unicode="&#x14a;" horiz-adv-x="3421" 
d="M327 533q-22 0 -32 -9t-13 -32l-69 -492h-192l73 520q25 180 206 180h2933q93 0 131 -44.5t25 -135.5l-72 -507q-25 -180 -206 -180h-917l24 167h866q22 0 32 9t13 32l64 451q3 23 -5 32t-30 9h-2831z" />
    <glyph glyph-name="eng" unicode="&#x14b;" horiz-adv-x="3030" 
d="M2621 -7h84q43 0 49 43l51 364q6 43 -37 43h-2466q-43 0 -49 -43l-56 -400h-184l59 425q13 92 61 135t139 43h2570q91 0 127 -43t23 -135l-58 -414q-13 -91 -62 -134.5t-141 -43.5h-133z" />
    <glyph glyph-name="Omacron" unicode="&#x14c;" horiz-adv-x="3419" 
d="M208 0q-92 0 -130 44.5t-25 135.5l48 340q13 91 63 135.5t142 44.5h2945q92 0 130 -44.5t25 -135.5l-48 -340q-25 -180 -205 -180h-2945zM3170 207l40 285q3 22 -5 31.5t-30 9.5h-2841q-22 0 -32 -9t-13 -32l-40 -284q-6 -41 34 -41h2841q22 0 32.5 9t13.5 31zM2102 766
h-630l14 100h630z" />
    <glyph glyph-name="omacron" unicode="&#x14d;" horiz-adv-x="3032" 
d="M2859 603q92 0 128.5 -43t23.5 -135l-34 -247q-13 -91 -61.5 -134.5t-140.5 -43.5h-2576q-92 0 -128.5 43.5t-23.5 134.5l34 247q13 92 61 135t141 43h2576zM2747 160q43 0 49 43l28 197q6 43 -37 43h-2476q-43 0 -49 -43l-28 -197q-6 -43 37 -43h2476zM1895 664h-630
l14 100h630z" />
    <glyph glyph-name="Obreve" unicode="&#x14e;" horiz-adv-x="3419" 
d="M208 0q-92 0 -130 44.5t-25 135.5l48 340q13 91 63 135.5t142 44.5h2945q92 0 130 -44.5t25 -135.5l-48 -340q-25 -180 -205 -180h-2945zM3170 207l40 285q3 22 -5 31.5t-30 9.5h-2841q-22 0 -32 -9t-13 -32l-40 -284q-6 -41 34 -41h2841q22 0 32.5 9t13.5 31zM1479 796
l11 106q119 -50 305 -50q184 0 318 50l-11 -106q-118 -55 -319 -55t-304 55z" />
    <glyph glyph-name="obreve" unicode="&#x14f;" horiz-adv-x="3032" 
d="M2859 603q92 0 128.5 -43t23.5 -135l-34 -247q-13 -91 -61.5 -134.5t-140.5 -43.5h-2576q-92 0 -128.5 43.5t-23.5 134.5l34 247q13 92 61 135t141 43h2576zM2747 160q43 0 49 43l28 197q6 43 -37 43h-2476q-43 0 -49 -43l-28 -197q-6 -43 37 -43h2476zM1272 694l11 106
q119 -50 305 -50q184 0 318 50l-11 -106q-118 -55 -319 -55t-304 55z" />
    <glyph glyph-name="Ohungarumlaut" unicode="&#x150;" horiz-adv-x="3419" 
d="M208 0q-92 0 -130 44.5t-25 135.5l48 340q13 91 63 135.5t142 44.5h2945q92 0 130 -44.5t25 -135.5l-48 -340q-25 -180 -205 -180h-2945zM3170 207l40 285q3 22 -5 31.5t-30 9.5h-2841q-22 0 -32 -9t-13 -32l-40 -284q-6 -41 34 -41h2841q22 0 32.5 9t13.5 31zM2467 872
l-390 -113h-230l292 113h328zM1927 872l-390 -113h-230l292 113h328z" />
    <glyph glyph-name="ohungarumlaut" unicode="&#x151;" horiz-adv-x="3032" 
d="M2859 603q92 0 128.5 -43t23.5 -135l-34 -247q-13 -91 -61.5 -134.5t-140.5 -43.5h-2576q-92 0 -128.5 43.5t-23.5 134.5l34 247q13 92 61 135t141 43h2576zM2747 160q43 0 49 43l28 197q6 43 -37 43h-2476q-43 0 -49 -43l-28 -197q-6 -43 37 -43h2476zM2260 770
l-390 -113h-230l292 113h328zM1720 770l-390 -113h-230l292 113h328z" />
    <glyph glyph-name="OE" unicode="&#x152;" horiz-adv-x="5276" 
d="M212 0q-92 0 -130 44.5t-25 135.5l48 340q13 91 63 135.5t142 44.5h4964l-24 -167h-2458l-14 -100h2333l-23 -166h-2333l-14 -100h2458l-23 -167h-4964zM2549 167l51 366h-2262q-22 0 -32 -9t-13 -32l-40 -284q-3 -23 4.5 -32t29.5 -9h2262z" />
    <glyph glyph-name="oe" unicode="&#x153;" horiz-adv-x="4548" 
d="M2183 203l28 197q6 43 -37 43h-1863q-43 0 -49 -43l-28 -197q-6 -43 37 -43h1863q43 0 49 43zM4350 400l2 13q3 30 -26 30h-1882q-43 0 -49 -43l-4 -29h1925q30 0 34 29zM2371 232l-4 -29q-6 -43 37 -43h2069l-22 -160h-2038q-84 0 -118 33.5t-28 110.5
q-17 -77 -59.5 -110.5t-126.5 -33.5h-1882q-92 0 -128.5 43.5t-23.5 134.5l34 247q13 92 61 135t141 43h1882q84 0 117.5 -33.5t28.5 -110.5q16 77 59 110.5t127 33.5h1906q81 0 114.5 -39.5t21.5 -122.5l-6 -47q-12 -83 -56.5 -122.5t-125.5 -39.5h-1980z" />
    <glyph glyph-name="Racute" unicode="&#x154;" horiz-adv-x="3419" 
d="M3393 525l-3 -24q-10 -69 -51 -107.5t-134 -44.5q64 -7 97.5 -33.5t40.5 -61.5t0 -87l-23 -167h-192l30 216q7 51 -44 51h-2860l-37 -267h-192l98 700h3120q92 0 127.5 -42t22.5 -133zM3148 433q22 0 32.5 9t13.5 31l3 19q3 22 -5 31.5t-30 9.5h-2871l-14 -100h2871z
M2183 872l-390 -113h-230l292 113h328z" />
    <glyph glyph-name="racute" unicode="&#x155;" horiz-adv-x="2833" 
d="M2847 603l-22 -160h-2523q-20 0 -33 -11.5t-16 -31.5l-56 -400h-184l59 425q13 92 61.5 135t141.5 43h2572zM1916 770l-390 -113h-230l292 113h328z" />
    <glyph glyph-name="uni0156" unicode="&#x156;" horiz-adv-x="3419" 
d="M3393 525l-3 -24q-10 -69 -51 -107.5t-134 -44.5q64 -7 97.5 -33.5t40.5 -61.5t0 -87l-23 -167h-192l30 216q7 51 -44 51h-2860l-37 -267h-192l98 700h3120q92 0 127.5 -42t22.5 -133zM3148 433q22 0 32.5 9t13.5 31l3 19q3 22 -5 31.5t-30 9.5h-2871l-14 -100h2871z
M1786 -55l-13 -88q-9 -65 -50.5 -102.5t-108.5 -37.5h-54l7 49h46q53 0 60 52l2 14h-99l16 113h194z" />
    <glyph glyph-name="uni0157" unicode="&#x157;" horiz-adv-x="2833" 
d="M2847 603l-22 -160h-2523q-20 0 -33 -11.5t-16 -31.5l-56 -400h-184l59 425q13 92 61.5 135t141.5 43h2572zM193 -55l-13 -88q-9 -65 -50.5 -102.5t-108.5 -37.5h-54l7 49h46q53 0 60 52l2 14h-99l16 113h194z" />
    <glyph glyph-name="Rcaron" unicode="&#x158;" horiz-adv-x="3419" 
d="M3393 525l-3 -24q-10 -69 -51 -107.5t-134 -44.5q64 -7 97.5 -33.5t40.5 -61.5t0 -87l-23 -167h-192l30 216q7 51 -44 51h-2860l-37 -267h-192l98 700h3120q92 0 127.5 -42t22.5 -133zM3148 433q22 0 32.5 9t13.5 31l3 19q3 22 -5 31.5t-30 9.5h-2871l-14 -100h2871z
M1610 872l170 -50l184 50h202l-239 -113h-308l-207 113h198z" />
    <glyph glyph-name="rcaron" unicode="&#x159;" horiz-adv-x="2833" 
d="M2847 603l-22 -160h-2523q-20 0 -33 -11.5t-16 -31.5l-56 -400h-184l59 425q13 92 61.5 135t141.5 43h2572zM1343 770l170 -50l184 50h202l-239 -113h-308l-207 113h198z" />
    <glyph glyph-name="Sacute" unicode="&#x15a;" horiz-adv-x="3381" 
d="M242 267q-92 0 -130 44.5t-25 135.5l11 73q25 180 205 180h3055l-24 -167h-3002q-22 0 -32.5 -9t-13.5 -32l-3 -19q-3 -22 5 -31t30 -9h2851q93 0 131 -44.5t25 -135.5l-10 -73q-25 -180 -206 -180h-3104l23 167h3053q22 0 32.5 9t13.5 32l2 19q3 22 -4.5 31t-29.5 9
h-2853zM2164 872l-390 -113h-230l292 113h328z" />
    <glyph glyph-name="sacute" unicode="&#x15b;" horiz-adv-x="3021" 
d="M2970 443h-2691q-31 0 -34 -29l-2 -13q-4 -30 26 -30h2562q81 0 114 -39.5t22 -122.5l-7 -47q-11 -83 -55.5 -122.5t-125.5 -39.5h-2776l22 160h2721q30 0 34 29l2 13q4 30 -26 30h-2562q-81 0 -114.5 39.5t-21.5 122.5l6 47q12 83 56.5 122.5t125.5 39.5h2746zM1970 770
l-390 -113h-230l292 113h328z" />
    <glyph glyph-name="Scircumflex" unicode="&#x15c;" horiz-adv-x="3381" 
d="M242 267q-92 0 -130 44.5t-25 135.5l11 73q25 180 205 180h3055l-24 -167h-3002q-22 0 -32.5 -9t-13.5 -32l-3 -19q-3 -22 5 -31t30 -9h2851q93 0 131 -44.5t25 -135.5l-10 -73q-25 -180 -206 -180h-3104l23 167h3053q22 0 32.5 9t13.5 32l2 19q3 22 -4.5 31t-29.5 9
h-2853zM1763 809l-184 -50h-202l239 113h308l207 -113h-198z" />
    <glyph glyph-name="scircumflex" unicode="&#x15d;" horiz-adv-x="3021" 
d="M2970 443h-2691q-31 0 -34 -29l-2 -13q-4 -30 26 -30h2562q81 0 114 -39.5t22 -122.5l-7 -47q-11 -83 -55.5 -122.5t-125.5 -39.5h-2776l22 160h2721q30 0 34 29l2 13q4 30 -26 30h-2562q-81 0 -114.5 39.5t-21.5 122.5l6 47q12 83 56.5 122.5t125.5 39.5h2746zM1569 707
l-184 -50h-202l239 113h308l207 -113h-198z" />
    <glyph glyph-name="Scedilla" unicode="&#x15e;" horiz-adv-x="3381" 
d="M1781 -68h-208l46 68h-1614l23 167h3053q22 0 32.5 9t13.5 32l2 19q3 22 -4.5 31t-29.5 9h-2853q-92 0 -130 44.5t-25 135.5l11 73q25 180 205 180h3055l-24 -167h-3002q-22 0 -32.5 -9t-13.5 -32l-3 -19q-3 -22 5 -31t30 -9h2851q93 0 131 -44.5t25 -135.5l-10 -73
q-25 -180 -206 -180h-1459l-27 -41h203q68 0 95 -13t27 -44q0 -50 -41 -80t-149 -30h-445l15 106h442q34 0 34 20q0 8 -4.5 11t-18.5 3z" />
    <glyph glyph-name="scedilla" unicode="&#x15f;" horiz-adv-x="3021" 
d="M1586 -68h-208l46 68h-1421l22 160h2721q30 0 34 29v3q4 30 -25 30h-2562q-81 0 -114.5 39.5t-22.5 122.5l8 57q12 83 56.5 122.5t125.5 39.5h2746l-22 -160h-2691q-31 0 -34 -29l-1 -3q-4 -30 26 -30h2562q81 0 114.5 -39.5t21.5 -122.5l-8 -57q-11 -83 -55.5 -122.5
t-125.5 -39.5h-1324l-27 -41h203q68 0 95 -13t27 -44q0 -50 -41 -80t-149 -30h-445l15 106h442q34 0 34 20q0 8 -4.5 11t-18.5 3z" />
    <glyph glyph-name="Scaron" unicode="&#x160;" horiz-adv-x="3381" 
d="M242 267q-92 0 -130 44.5t-25 135.5l11 73q25 180 205 180h3055l-24 -167h-3002q-22 0 -32.5 -9t-13.5 -32l-3 -19q-3 -22 5 -31t30 -9h2851q93 0 131 -44.5t25 -135.5l-10 -73q-25 -180 -206 -180h-3104l23 167h3053q22 0 32.5 9t13.5 32l2 19q3 22 -4.5 31t-29.5 9
h-2853zM1591 872l170 -50l184 50h202l-239 -113h-308l-207 113h198z" />
    <glyph glyph-name="scaron" unicode="&#x161;" horiz-adv-x="3021" 
d="M2970 443h-2691q-31 0 -34 -29l-2 -13q-4 -30 26 -30h2562q81 0 114 -39.5t22 -122.5l-7 -47q-11 -83 -55.5 -122.5t-125.5 -39.5h-2776l22 160h2721q30 0 34 29l2 13q4 30 -26 30h-2562q-81 0 -114.5 39.5t-21.5 122.5l6 47q12 83 56.5 122.5t125.5 39.5h2746zM1397 770
l170 -50l184 50h202l-239 -113h-308l-207 113h198z" />
    <glyph glyph-name="uni0162" unicode="&#x162;" horiz-adv-x="3364" 
d="M1774 -68h-208l46 68h-68l74 533h-1556l24 167h3304l-24 -167h-1556l-74 -533h-93l-27 -41h203q68 0 95 -13t27 -44q0 -50 -41 -80t-149 -30h-445l15 106h442q34 0 34 20q0 8 -4.5 11t-18.5 3z" />
    <glyph glyph-name="uni0163" unicode="&#x163;" horiz-adv-x="2868" 
d="M1341 -68l46 68h-1183q-92 0 -129 43.5t-24 134.5l83 592h184l-24 -167h2586l-22 -160h-2586l-34 -240q-6 -43 37 -43h2543l-22 -160h-1378l-27 -41h203q68 0 95 -13t27 -44q0 -50 -41 -80t-149 -30h-445l15 106h442q34 0 34 20q0 8 -4.5 11t-18.5 3h-208z" />
    <glyph glyph-name="Tcaron" unicode="&#x164;" horiz-adv-x="3364" 
d="M3390 700l-24 -167h-1556l-74 -533h-192l74 533h-1556l24 167h3304zM1583 872l170 -50l184 50h202l-239 -113h-308l-207 113h198z" />
    <glyph glyph-name="tcaron" unicode="&#x165;" horiz-adv-x="3220" 
d="M204 0q-92 0 -129 43.5t-24 134.5l83 592h184l-24 -167h2586l-22 -160h-2586l-34 -240q-6 -43 37 -43h2543l-22 -160h-2592zM3229 700l-21 -150q-11 -77 -61 -122t-130 -45h-65l12 86h49q34 0 51 14.5t22 47.5l3 19h-113l21 150h232z" />
    <glyph glyph-name="Tbar" unicode="&#x166;" horiz-adv-x="3364" 
d="M3390 700l-24 -167h-1556l-15 -103h220l-17 -120h-219l-43 -310h-192l43 310h-219l17 120h218l15 103h-1556l24 167h3304z" />
    <glyph glyph-name="tbar" unicode="&#x167;" horiz-adv-x="2868" 
d="M621 243h-391l-5 -40q-6 -43 37 -43h2543l-22 -160h-2592q-92 0 -129 43.5t-24 134.5l9 65h-56l17 120h56l57 407h184l-24 -167h2586l-22 -160h-2586l-12 -80h391z" />
    <glyph glyph-name="Utilde" unicode="&#x168;" horiz-adv-x="3421" 
d="M215 0q-93 0 -131 44.5t-25 135.5l73 520h192l-69 -492q-3 -23 4.5 -32t29.5 -9h2831q22 0 32.5 9t13.5 32l69 492h192l-73 -520q-25 -180 -206 -180h-2933zM1472 738l16 112q89 47 179 47q55 0 149.5 -24t142.5 -24q80 0 158 47l-16 -112q-89 -47 -180 -47
q-55 0 -149.5 24t-142.5 24q-79 0 -157 -47z" />
    <glyph glyph-name="utilde" unicode="&#x169;" horiz-adv-x="3030" 
d="M2742 160q43 0 49 43l56 400h184l-59 -425q-14 -92 -62 -135t-138 -43h-2570q-91 0 -127.5 43t-22.5 135l59 425h184l-56 -400q-6 -43 37 -43h2466zM1264 636l16 112q89 47 179 47q55 0 149.5 -24t142.5 -24q80 0 158 47l-16 -112q-89 -47 -180 -47q-55 0 -149.5 24
t-142.5 24q-79 0 -157 -47z" />
    <glyph glyph-name="Umacron" unicode="&#x16a;" horiz-adv-x="3421" 
d="M215 0q-93 0 -131 44.5t-25 135.5l73 520h192l-69 -492q-3 -23 4.5 -32t29.5 -9h2831q22 0 32.5 9t13.5 32l69 492h192l-73 -520q-25 -180 -206 -180h-2933zM2103 766h-630l14 100h630z" />
    <glyph glyph-name="umacron" unicode="&#x16b;" horiz-adv-x="3030" 
d="M2742 160q43 0 49 43l56 400h184l-59 -425q-14 -92 -62 -135t-138 -43h-2570q-91 0 -127.5 43t-22.5 135l59 425h184l-56 -400q-6 -43 37 -43h2466zM1895 664h-630l14 100h630z" />
    <glyph glyph-name="Ubreve" unicode="&#x16c;" horiz-adv-x="3421" 
d="M215 0q-93 0 -131 44.5t-25 135.5l73 520h192l-69 -492q-3 -23 4.5 -32t29.5 -9h2831q22 0 32.5 9t13.5 32l69 492h192l-73 -520q-25 -180 -206 -180h-2933zM1480 796l11 106q119 -50 305 -50q184 0 318 50l-11 -106q-118 -55 -319 -55t-304 55z" />
    <glyph glyph-name="ubreve" unicode="&#x16d;" horiz-adv-x="3030" 
d="M2742 160q43 0 49 43l56 400h184l-59 -425q-14 -92 -62 -135t-138 -43h-2570q-91 0 -127.5 43t-22.5 135l59 425h184l-56 -400q-6 -43 37 -43h2466zM1272 694l11 106q119 -50 305 -50q184 0 318 50l-11 -106q-118 -55 -319 -55t-304 55z" />
    <glyph glyph-name="Uring" unicode="&#x16e;" horiz-adv-x="3421" 
d="M215 0q-93 0 -131 44.5t-25 135.5l73 520h192l-69 -492q-3 -23 4.5 -32t29.5 -9h2831q22 0 32.5 9t13.5 32l69 492h192l-73 -520q-25 -180 -206 -180h-2933zM1959 860h-316q-25 0 -25 -27q0 -17 19 -17h316q25 0 25 27q0 17 -19 17zM1930 749h-289q-53 0 -75 17t-22 51
q0 110 122 110h289q53 0 75 -17t22 -51q0 -110 -122 -110z" />
    <glyph glyph-name="uring" unicode="&#x16f;" horiz-adv-x="3030" 
d="M2742 160q43 0 49 43l56 400h184l-59 -425q-14 -92 -62 -135t-138 -43h-2570q-91 0 -127.5 43t-22.5 135l59 425h184l-56 -400q-6 -43 37 -43h2466zM1751 758h-316q-25 0 -25 -27q0 -17 19 -17h316q25 0 25 27q0 17 -19 17zM1722 647h-289q-53 0 -75 17t-22 51
q0 110 122 110h289q53 0 75 -17t22 -51q0 -110 -122 -110z" />
    <glyph glyph-name="Uhungarumlaut" unicode="&#x170;" horiz-adv-x="3421" 
d="M215 0q-93 0 -131 44.5t-25 135.5l73 520h192l-69 -492q-3 -23 4.5 -32t29.5 -9h2831q22 0 32.5 9t13.5 32l69 492h192l-73 -520q-25 -180 -206 -180h-2933zM2467 872l-390 -113h-230l292 113h328zM1927 872l-390 -113h-230l292 113h328z" />
    <glyph glyph-name="uhungarumlaut" unicode="&#x171;" horiz-adv-x="3030" 
d="M2742 160q43 0 49 43l56 400h184l-59 -425q-14 -92 -62 -135t-138 -43h-2570q-91 0 -127.5 43t-22.5 135l59 425h184l-56 -400q-6 -43 37 -43h2466zM2260 770l-390 -113h-230l292 113h328zM1720 770l-390 -113h-230l292 113h328z" />
    <glyph glyph-name="Uogonek" unicode="&#x172;" horiz-adv-x="3421" 
d="M3274 -208h-484q-74 0 -105.5 12t-31.5 45q0 26 4.5 41.5t25 29.5t51.5 20.5t94.5 11.5t142 6t206.5 1h40l7 50q-35 -9 -76 -9h-2933q-93 0 -131 44.5t-25 135.5l73 520h192l-69 -492q-3 -23 4.5 -32t29.5 -9h2831q22 0 32.5 9t13.5 32l69 492h192l-73 -520
q-17 -119 -98 -159l-13 -89h-50q-187 0 -275.5 -3t-105.5 -7t-17 -14t23 -10h471z" />
    <glyph glyph-name="uogonek" unicode="&#x173;" horiz-adv-x="3030" 
d="M2897 -208h-484q-74 0 -105.5 12t-31.5 45q0 26 4.5 41.5t25 29.5t51.5 20.5t94.5 11.5t142 6t206.5 1h40l7 50q-33 -9 -75 -9h-2570q-91 0 -127.5 43t-22.5 135l59 425h184l-56 -400q-6 -43 37 -43h2466q43 0 49 43l56 400h184l-59 -425q-18 -118 -93 -157l-13 -89h-50
q-187 0 -275.5 -3t-105.5 -7t-17 -14t23 -10h471z" />
    <glyph glyph-name="Wcircumflex" unicode="&#x174;" horiz-adv-x="4020" 
d="M3747 0h-1586q-85 0 -123.5 34.5t-36.5 111.5q-20 -77 -67.5 -111.5t-132.5 -34.5h-1587q-92 0 -130 44.5t-25 135.5l73 520h192l-69 -492q-3 -23 4.5 -32t29.5 -9h1573q46 0 52 46l69 487h192l-69 -487q-6 -46 40 -46h1573q41 0 46 41l69 492h192l-73 -520
q-25 -180 -206 -180zM2096 809l-184 -50h-202l239 113h308l207 -113h-198z" />
    <glyph glyph-name="wcircumflex" unicode="&#x175;" horiz-adv-x="3550" 
d="M1767 144q-17 -77 -59.5 -110.5t-126.5 -33.5h-1379q-91 0 -127.5 43t-22.5 135l59 425h184l-56 -400q-6 -43 37 -43h1358q43 0 49 43l56 400h184l-56 -400q-6 -43 37 -43h1358q43 0 49 43l56 400h184l-59 -425q-14 -92 -62 -135t-138 -43h-1379q-84 0 -118 33.5
t-28 110.5zM1848 707l-184 -50h-202l239 113h308l207 -113h-198z" />
    <glyph glyph-name="Ycircumflex" unicode="&#x176;" horiz-adv-x="3398" 
d="M3228 700h192l-36 -253q-13 -91 -63 -135.5t-142 -44.5h-1376l-37 -267h-192l37 267h-1376q-92 0 -130 44.5t-25 135.5l36 253h192l-32 -227q-3 -22 4.5 -31t29.5 -9h2840q22 0 32.5 9t13.5 31zM1785 809l-184 -50h-202l239 113h308l207 -113h-198z" />
    <glyph glyph-name="ycircumflex" unicode="&#x177;" horiz-adv-x="3034" 
d="M2670 -167h-2641l23 160h2622q39 0 58.5 16.5t25.5 56.5l12 85q-21 -45 -58.5 -65.5t-101.5 -20.5h-2411q-92 0 -128.5 43.5t-23.5 134.5l50 360h184l-47 -335q-6 -43 37 -43h2466q43 0 49 43l47 335h184l-74 -530q-17 -124 -82.5 -182t-190.5 -58zM1576 707l-184 -50
h-202l239 113h308l207 -113h-198z" />
    <glyph glyph-name="Ydieresis" unicode="&#x178;" horiz-adv-x="3398" 
d="M3228 700h192l-36 -253q-13 -91 -63 -135.5t-142 -44.5h-1376l-37 -267h-192l37 267h-1376q-92 0 -130 44.5t-25 135.5l36 253h192l-32 -227q-3 -22 4.5 -31t29.5 -9h2840q22 0 32.5 9t13.5 31zM1646 872l-16 -113h-194l16 113h194zM2131 872l-16 -113h-194l16 113h194z
" />
    <glyph glyph-name="Zacute" unicode="&#x179;" horiz-adv-x="3383" 
d="M3097 433q33 0 48 13t20 46l5 41h-3058l24 167h3250l-30 -215q-32 -218 -249 -218h-2810q-33 0 -48.5 -13t-19.5 -46l-6 -41h3088l-23 -167h-3280l30 215q30 218 248 218h2811zM2175 872l-390 -113h-230l292 113h328z" />
    <glyph glyph-name="zacute" unicode="&#x17a;" horiz-adv-x="3022" 
d="M259 232q-43 0 -49 -43l-4 -29h2751l-22 -160h-2935l23 166q28 205 234 205h2503q42 0 49 43l4 29h-2726l22 160h2910l-23 -166q-28 -205 -234 -205h-2503zM1991 770l-390 -113h-230l292 113h328z" />
    <glyph glyph-name="Zdotaccent" unicode="&#x17b;" horiz-adv-x="3383" 
d="M3097 433q33 0 48 13t20 46l5 41h-3058l24 167h3250l-30 -215q-32 -218 -249 -218h-2810q-33 0 -48.5 -13t-19.5 -46l-6 -41h3088l-23 -167h-3280l30 215q30 218 248 218h2811zM1878 872l-16 -113h-194l16 113h194z" />
    <glyph glyph-name="zdotaccent" unicode="&#x17c;" horiz-adv-x="3022" 
d="M259 232q-43 0 -49 -43l-4 -29h2751l-22 -160h-2935l23 166q28 205 234 205h2503q42 0 49 43l4 29h-2726l22 160h2910l-23 -166q-28 -205 -234 -205h-2503zM1694 770l-16 -113h-194l16 113h194z" />
    <glyph glyph-name="Zcaron" unicode="&#x17d;" horiz-adv-x="3383" 
d="M3097 433q33 0 48 13t20 46l5 41h-3058l24 167h3250l-30 -215q-32 -218 -249 -218h-2810q-33 0 -48.5 -13t-19.5 -46l-6 -41h3088l-23 -167h-3280l30 215q30 218 248 218h2811zM1602 872l170 -50l184 50h202l-239 -113h-308l-207 113h198z" />
    <glyph glyph-name="zcaron" unicode="&#x17e;" horiz-adv-x="3022" 
d="M259 232q-43 0 -49 -43l-4 -29h2751l-22 -160h-2935l23 166q28 205 234 205h2503q42 0 49 43l4 29h-2726l22 160h2910l-23 -166q-28 -205 -234 -205h-2503zM1418 770l170 -50l184 50h202l-239 -113h-308l-207 113h198z" />
    <glyph glyph-name="florin" unicode="&#x192;" 
d="M3262 433l-23 -166h-2748l-14 -100q-13 -90 -56.5 -128.5t-133.5 -38.5h-282l23 167h220q22 0 30.5 8t11.5 30l9 62h-257l23 166h257l13 87q13 91 63 135.5t142 44.5h2885l-24 -167h-2833q-22 0 -32 -9t-13 -32l-9 -59h2748z" />
    <glyph glyph-name="AEacute" unicode="&#x1fc;" horiz-adv-x="5242" 
d="M2503 0l37 267h-2290l-37 -267h-192l73 520q25 180 206 180h4951l-24 -167h-2458l-14 -100h2333l-23 -166h-2333l-14 -100h2458l-23 -167h-2650zM327 533q-22 0 -32 -9t-13 -32l-9 -59h2290l14 100h-2250zM3115 872l-390 -113h-230l292 113h328z" />
    <glyph glyph-name="aeacute" unicode="&#x1fd;" horiz-adv-x="4544" 
d="M4344 401l2 13q3 29 -26 29h-1882q-43 0 -49 -43l-4 -29h1925q30 0 34 30zM222 203l-2 -13q-4 -30 26 -30h1882q43 0 49 43l4 29h-1925q-30 0 -34 -29zM2075 0h-1906q-81 0 -114.5 39.5t-22.5 122.5l7 47q11 83 56 122.5t126 39.5h1980l4 29q6 43 -37 43h-2069l22 160
h2038q84 0 117.5 -33.5t28.5 -110.5q16 77 59 110.5t127 33.5h1906q81 0 114.5 -39.5t21.5 -122.5l-6 -47q-12 -83 -56.5 -122.5t-125.5 -39.5h-1980l-4 -29q-6 -43 37 -43h2069l-22 -160h-2038q-84 0 -118 33.5t-28 110.5q-17 -77 -59.5 -110.5t-126.5 -33.5zM2743 770
l-390 -113h-230l292 113h328z" />
    <glyph glyph-name="Oslashacute" unicode="&#x1fe;" horiz-adv-x="3419" 
d="M208 0q-92 0 -130 44.5t-25 135.5l48 340q13 91 63 135.5t142 44.5h2945q92 0 130 -44.5t25 -135.5l-48 -340q-25 -180 -205 -180h-2945zM3170 207l40 285q3 22 -5 31.5t-30 9.5h-26l-2117 -366h2092q22 0 32.5 9t13.5 31zM283 167h26l2117 366h-2092q-22 0 -32 -9
t-13 -32l-40 -284q-6 -41 34 -41zM2196 872l-390 -113h-230l292 113h328z" />
    <glyph glyph-name="oslashacute" unicode="&#x1ff;" horiz-adv-x="3032" 
d="M2859 603q92 0 128.5 -43t23.5 -135l-34 -247q-13 -91 -61.5 -134.5t-140.5 -43.5h-2576q-92 0 -128.5 43.5t-23.5 134.5l34 247q13 92 61 135t141 43h2576zM2747 160q43 0 49 43l28 197q6 43 -37 43h-4l-1803 -283h1767zM274 160l1803 283h-1766q-43 0 -49 -43l-28 -197
q-6 -43 37 -43h3zM1989 770l-390 -113h-230l292 113h328z" />
    <glyph glyph-name="uni0218" unicode="&#x218;" horiz-adv-x="3381" 
d="M242 267q-92 0 -130 44.5t-25 135.5l11 73q25 180 205 180h3055l-24 -167h-3002q-22 0 -32.5 -9t-13.5 -32l-3 -19q-3 -22 5 -31t30 -9h2851q93 0 131 -44.5t25 -135.5l-10 -73q-25 -180 -206 -180h-3104l23 167h3053q22 0 32.5 9t13.5 32l2 19q3 22 -4.5 31t-29.5 9
h-2853zM1737 -55l-13 -88q-9 -65 -50.5 -102.5t-108.5 -37.5h-54l7 49h46q53 0 60 52l2 14h-99l16 113h194z" />
    <glyph glyph-name="uni0219" unicode="&#x219;" horiz-adv-x="3021" 
d="M2970 443h-2691q-31 0 -34 -29l-2 -13q-4 -30 26 -30h2562q81 0 114 -39.5t22 -122.5l-7 -47q-11 -83 -55.5 -122.5t-125.5 -39.5h-2776l22 160h2721q30 0 34 29l2 13q4 30 -26 30h-2562q-81 0 -114.5 39.5t-21.5 122.5l6 47q12 83 56.5 122.5t125.5 39.5h2746zM1537 -55
l-13 -88q-9 -65 -50.5 -102.5t-108.5 -37.5h-54l7 49h46q53 0 60 52l2 14h-99l16 113h194z" />
    <glyph glyph-name="uni021A" unicode="&#x21a;" horiz-adv-x="3364" 
d="M3390 700l-24 -167h-1556l-74 -533h-192l74 533h-1556l24 167h3304zM1729 -55l-13 -88q-9 -65 -50.5 -102.5t-108.5 -37.5h-54l7 49h46q53 0 60 52l2 14h-99l16 113h194z" />
    <glyph glyph-name="uni021B" unicode="&#x21b;" horiz-adv-x="2868" 
d="M204 0q-92 0 -129 43.5t-24 134.5l83 592h184l-24 -167h2586l-22 -160h-2586l-34 -240q-6 -43 37 -43h2543l-22 -160h-2592zM1494 -55l-13 -88q-9 -65 -50.5 -102.5t-108.5 -37.5h-54l7 49h46q53 0 60 52l2 14h-99l16 113h194z" />
    <glyph glyph-name="uni0237" unicode="&#x237;" horiz-adv-x="315" 
d="M-92 -7h83q43 0 49 43l79 567h184l-83 -592q-13 -91 -62 -134.5t-141 -43.5h-132z" />
    <glyph glyph-name="circumflex" unicode="&#x2c6;" horiz-adv-x="750" 
d="M434 707l-184 -50h-202l239 113h308l207 -113h-198z" />
    <glyph glyph-name="caron" unicode="&#x2c7;" horiz-adv-x="750" 
d="M262 770l170 -50l184 50h202l-239 -113h-308l-207 113h198z" />
    <glyph glyph-name="breve" unicode="&#x2d8;" horiz-adv-x="750" 
d="M118 694l11 106q119 -50 305 -50q184 0 318 50l-11 -106q-118 -55 -319 -55t-304 55z" />
    <glyph glyph-name="dotaccent" unicode="&#x2d9;" horiz-adv-x="750" 
d="M538 770l-16 -113h-194l16 113h194z" />
    <glyph glyph-name="ring" unicode="&#x2da;" horiz-adv-x="750" 
d="M597 758h-316q-25 0 -25 -27q0 -17 19 -17h316q25 0 25 27q0 17 -19 17zM568 647h-289q-53 0 -75 17t-22 51q0 110 122 110h289q53 0 75 -17t22 -51q0 -110 -122 -110z" />
    <glyph glyph-name="ogonek" unicode="&#x2db;" horiz-adv-x="750" 
d="M587 -68h-50q-187 0 -275.5 -3t-105.5 -7t-17 -14t23 -10h471l-15 -106h-484q-74 0 -105.5 12t-31.5 45q0 26 4.5 41.5t25 29.5t51.5 20.5t94.5 11.5t142 6t206.5 1h40l6 41h30z" />
    <glyph glyph-name="tilde" unicode="&#x2dc;" horiz-adv-x="750" 
d="M110 636l16 112q89 47 179 47q55 0 149.5 -24t142.5 -24q80 0 158 47l-16 -112q-89 -47 -180 -47q-55 0 -149.5 24t-142.5 24q-79 0 -157 -47z" />
    <glyph glyph-name="hungarumlaut" unicode="&#x2dd;" horiz-adv-x="750" 
d="M1015 770l-390 -113h-230l292 113h328zM475 770l-390 -113h-230l292 113h328z" />
    <glyph glyph-name="pi" unicode="&#x3c0;" 
d="M197 0l84 603h2920l-84 -603h-184l62 443h-2552l-62 -443h-184z" />
    <glyph glyph-name="uni1E02" unicode="&#x1e02;" horiz-adv-x="3413" 
d="M3347 199l-3 -24q-13 -91 -60 -133t-139 -42h-3120l98 700h3120q92 0 127.5 -42t22.5 -133l-3 -24q-9 -66 -48 -104.5t-124 -46.5q83 -8 111 -46.5t18 -104.5zM3148 433q22 0 32.5 9t13.5 31l3 19q3 22 -5 31.5t-30 9.5h-2871l-14 -100h2871zM254 267l-14 -100h2871
q41 0 46 41l2 19q3 22 -4.5 31t-29.5 9h-2871zM1882 872l-16 -113h-194l16 113h194z" />
    <glyph glyph-name="uni1E03" unicode="&#x1e03;" horiz-adv-x="3036" 
d="M51 178l83 592h184l-36 -253q20 45 57.5 65.5t102.5 20.5h2423q91 0 127 -43t23 -135l-34 -247q-13 -91 -61.5 -134.5t-138.5 -43.5h-2577q-92 0 -129 43.5t-24 134.5zM266 400l-28 -197q-6 -43 37 -43h2476q43 0 49 43l28 197q6 43 -37 43h-2476q-43 0 -49 -43z
M1694 770l-16 -113h-194l16 113h194z" />
    <glyph glyph-name="uni1E0A" unicode="&#x1e0a;" horiz-adv-x="3413" 
d="M3167 700q123 0 178 -63.5t38 -186.5l-28 -200q-17 -122 -90 -186t-196 -64h-3044l98 700h3044zM3076 167q74 0 86 76l30 214q10 76 -65 76h-2836l-51 -366h2836zM1869 872l-16 -113h-194l16 113h194z" />
    <glyph glyph-name="uni1E0B" unicode="&#x1e0b;" horiz-adv-x="3036" 
d="M3060 770l-83 -592q-13 -91 -62 -134.5t-141 -43.5h-2577q-90 0 -126.5 43.5t-23.5 134.5l34 247q13 92 61 135t139 43h2423q65 0 96.5 -20.5t39.5 -65.5l36 253h184zM2796 203l28 197q6 43 -37 43h-2476q-43 0 -49 -43l-28 -197q-6 -43 37 -43h2476q43 0 49 43z
M1694 770l-16 -113h-194l16 113h194z" />
    <glyph glyph-name="uni1E1E" unicode="&#x1e1e;" horiz-adv-x="3357" 
d="M25 0l98 700h3260l-24 -167h-3068l-14 -100h2943l-23 -167h-2943l-37 -266h-192zM1885 872l-16 -113h-194l16 113h194z" />
    <glyph glyph-name="uni1E1F" unicode="&#x1e1f;" horiz-adv-x="2948" 
d="M314 443q-29 0 -44 -12.5t-19 -41.5l-1 -8h2591l-22 -159h-2591l-55 -389h-184l79 565q15 105 72 155t162 50h2660l-22 -160h-2626zM1687 770l-16 -113h-194l16 113h194z" />
    <glyph glyph-name="uni1E40" unicode="&#x1e40;" horiz-adv-x="4020" 
d="M2246 700h1586q93 0 131 -44.5t25 -135.5l-73 -520h-192l69 492q3 22 -5 31.5t-30 9.5h-1573q-46 0 -52 -46l-68 -487h-192l68 487q6 46 -40 46h-1573q-22 0 -32 -9t-13 -32l-69 -492h-192l73 520q13 91 63 135.5t142 44.5h1587q86 0 123.5 -35t35.5 -111q20 77 68 111.5
t133 34.5zM2187 872l-16 -113h-194l16 113h194z" />
    <glyph glyph-name="uni1E41" unicode="&#x1e41;" horiz-adv-x="3550" 
d="M1797 459q16 77 59 110.5t127 33.5h1379q91 0 127 -43t23 -135l-59 -425h-184l56 400q6 43 -37 43h-1358q-43 0 -49 -43l-56 -400h-184l56 400q6 43 -37 43h-1358q-43 0 -49 -43l-56 -400h-184l59 425q13 92 61 135t139 43h1379q84 0 117.5 -33.5t28.5 -110.5zM1938 770
l-16 -113h-194l16 113h194z" />
    <glyph glyph-name="uni1E56" unicode="&#x1e56;" horiz-adv-x="3388" 
d="M25 0l98 700h3105q92 0 130 -44.5t25 -135.5l-11 -74q-13 -91 -63 -135.5t-142 -44.5h-2913l-37 -266h-192zM3187 492q3 22 -5 31.5t-31 9.5h-2860l-14 -100h2860q23 0 33.5 9t13.5 31zM1879 872l-16 -113h-194l16 113h194z" />
    <glyph glyph-name="uni1E57" unicode="&#x1e57;" horiz-adv-x="3036" 
d="M-11 -167l83 592q13 91 62 134.5t141 43.5h2577q90 0 126.5 -43.5t23.5 -134.5l-34 -247q-14 -92 -62 -135t-138 -43h-2423q-65 0 -97 20.5t-39 65.5l-36 -253h-184zM253 400l-28 -197q-6 -43 37 -43h2476q43 0 49 43l28 197q6 43 -37 43h-2476q-43 0 -49 -43zM1681 770
l-16 -113h-194l16 113h194z" />
    <glyph glyph-name="uni1E60" unicode="&#x1e60;" horiz-adv-x="3381" 
d="M242 267q-92 0 -130 44.5t-25 135.5l11 73q25 180 205 180h3055l-24 -167h-3002q-22 0 -32.5 -9t-13.5 -32l-3 -19q-3 -22 5 -31t30 -9h2851q93 0 131 -44.5t25 -135.5l-10 -73q-25 -180 -206 -180h-3104l23 167h3053q22 0 32.5 9t13.5 32l2 19q3 22 -4.5 31t-29.5 9
h-2853zM1867 872l-16 -113h-194l16 113h194z" />
    <glyph glyph-name="uni1E61" unicode="&#x1e61;" horiz-adv-x="3021" 
d="M2970 443h-2691q-31 0 -34 -29l-2 -13q-4 -30 26 -30h2562q81 0 114 -39.5t22 -122.5l-7 -47q-11 -83 -55.5 -122.5t-125.5 -39.5h-2776l22 160h2721q30 0 34 29l2 13q4 30 -26 30h-2562q-81 0 -114.5 39.5t-21.5 122.5l6 47q12 83 56.5 122.5t125.5 39.5h2746zM1673 770
l-16 -113h-194l16 113h194z" />
    <glyph glyph-name="uni1E6A" unicode="&#x1e6a;" horiz-adv-x="3364" 
d="M3390 700l-24 -167h-1556l-74 -533h-192l74 533h-1556l24 167h3304zM1859 872l-16 -113h-194l16 113h194z" />
    <glyph glyph-name="uni1E6B" unicode="&#x1e6b;" horiz-adv-x="2868" 
d="M204 0q-92 0 -129 43.5t-24 134.5l83 592h184l-24 -167h2586l-22 -160h-2586l-34 -240q-6 -43 37 -43h2543l-22 -160h-2592zM1610 770l-16 -113h-194l16 113h194z" />
    <glyph glyph-name="Wgrave" unicode="&#x1e80;" horiz-adv-x="4020" 
d="M3747 0h-1586q-85 0 -123.5 34.5t-36.5 111.5q-20 -77 -67.5 -111.5t-132.5 -34.5h-1587q-92 0 -130 44.5t-25 135.5l73 520h192l-69 -492q-3 -23 4.5 -32t29.5 -9h1573q46 0 52 46l69 487h192l-69 -487q-6 -46 40 -46h1573q41 0 46 41l69 492h192l-73 -520
q-25 -180 -206 -180zM2069 759l-352 113h316l262 -113h-226z" />
    <glyph glyph-name="wgrave" unicode="&#x1e81;" horiz-adv-x="3550" 
d="M1767 144q-17 -77 -59.5 -110.5t-126.5 -33.5h-1379q-91 0 -127.5 43t-22.5 135l59 425h184l-56 -400q-6 -43 37 -43h1358q43 0 49 43l56 400h184l-56 -400q-6 -43 37 -43h1358q43 0 49 43l56 400h184l-59 -425q-14 -92 -62 -135t-138 -43h-1379q-84 0 -118 33.5
t-28 110.5zM1821 657l-352 113h316l262 -113h-226z" />
    <glyph glyph-name="Wacute" unicode="&#x1e82;" horiz-adv-x="4020" 
d="M3747 0h-1586q-85 0 -123.5 34.5t-36.5 111.5q-20 -77 -67.5 -111.5t-132.5 -34.5h-1587q-92 0 -130 44.5t-25 135.5l73 520h192l-69 -492q-3 -23 4.5 -32t29.5 -9h1573q46 0 52 46l69 487h192l-69 -487q-6 -46 40 -46h1573q41 0 46 41l69 492h192l-73 -520
q-25 -180 -206 -180zM2497 872l-390 -113h-230l292 113h328z" />
    <glyph glyph-name="wacute" unicode="&#x1e83;" horiz-adv-x="3550" 
d="M1767 144q-17 -77 -59.5 -110.5t-126.5 -33.5h-1379q-91 0 -127.5 43t-22.5 135l59 425h184l-56 -400q-6 -43 37 -43h1358q43 0 49 43l56 400h184l-56 -400q-6 -43 37 -43h1358q43 0 49 43l56 400h184l-59 -425q-14 -92 -62 -135t-138 -43h-1379q-84 0 -118 33.5
t-28 110.5zM2249 770l-390 -113h-230l292 113h328z" />
    <glyph glyph-name="Wdieresis" unicode="&#x1e84;" horiz-adv-x="4020" 
d="M3747 0h-1586q-85 0 -123.5 34.5t-36.5 111.5q-20 -77 -67.5 -111.5t-132.5 -34.5h-1587q-92 0 -130 44.5t-25 135.5l73 520h192l-69 -492q-3 -23 4.5 -32t29.5 -9h1573q46 0 52 46l69 487h192l-69 -487q-6 -46 40 -46h1573q41 0 46 41l69 492h192l-73 -520
q-25 -180 -206 -180zM1957 872l-16 -113h-194l16 113h194zM2442 872l-16 -113h-194l16 113h194z" />
    <glyph glyph-name="wdieresis" unicode="&#x1e85;" horiz-adv-x="3550" 
d="M1767 144q-17 -77 -59.5 -110.5t-126.5 -33.5h-1379q-91 0 -127.5 43t-22.5 135l59 425h184l-56 -400q-6 -43 37 -43h1358q43 0 49 43l56 400h184l-56 -400q-6 -43 37 -43h1358q43 0 49 43l56 400h184l-59 -425q-14 -92 -62 -135t-138 -43h-1379q-84 0 -118 33.5
t-28 110.5zM1709 770l-16 -113h-194l16 113h194zM2194 770l-16 -113h-194l16 113h194z" />
    <glyph glyph-name="Ygrave" unicode="&#x1ef2;" horiz-adv-x="3398" 
d="M3228 700h192l-36 -253q-13 -91 -63 -135.5t-142 -44.5h-1376l-37 -267h-192l37 267h-1376q-92 0 -130 44.5t-25 135.5l36 253h192l-32 -227q-3 -22 4.5 -31t29.5 -9h2840q22 0 32.5 9t13.5 31zM1758 759l-352 113h316l262 -113h-226z" />
    <glyph glyph-name="ygrave" unicode="&#x1ef3;" horiz-adv-x="3034" 
d="M2670 -167h-2641l23 160h2622q39 0 58.5 16.5t25.5 56.5l12 85q-21 -45 -58.5 -65.5t-101.5 -20.5h-2411q-92 0 -128.5 43.5t-23.5 134.5l50 360h184l-47 -335q-6 -43 37 -43h2466q43 0 49 43l47 335h184l-74 -530q-17 -124 -82.5 -182t-190.5 -58zM1549 657l-352 113
h316l262 -113h-226z" />
    <glyph glyph-name="uni2010" unicode="&#x2010;" horiz-adv-x="1140" 
d="M1110 409l-23 -164h-1050l23 164h1050z" />
    <glyph glyph-name="figuredash" unicode="&#x2012;" 
d="M3414 409l-23 -164h-3399l23 164h3399z" />
    <glyph glyph-name="endash" unicode="&#x2013;" horiz-adv-x="1500" 
d="M1515 409l-23 -164h-1500l23 164h1500z" />
    <glyph glyph-name="emdash" unicode="&#x2014;" horiz-adv-x="3000" 
d="M3015 409l-23 -164h-3000l23 164h3000z" />
    <glyph glyph-name="quoteleft" unicode="&#x2018;" horiz-adv-x="352" 
d="M71 383l21 150q11 77 61 122t130 45h65l-12 -86h-49q-34 0 -51 -14.5t-22 -47.5l-3 -19h113l-21 -150h-232z" />
    <glyph glyph-name="quoteright" unicode="&#x2019;" horiz-adv-x="352" 
d="M348 700l-21 -150q-11 -77 -61 -122t-130 -45h-65l12 86h49q34 0 51 14.5t22 47.5l3 19h-113l21 150h232z" />
    <glyph glyph-name="quotesinglbase" unicode="&#x201a;" horiz-adv-x="352" 
d="M271 150l-21 -150q-11 -77 -61 -122t-130 -45h-65l12 86h49q34 0 51 14.5t22 47.5l3 19h-113l21 150h232z" />
    <glyph glyph-name="quotedblleft" unicode="&#x201c;" horiz-adv-x="660" 
d="M379 383l21 150q11 77 61 122t130 45h65l-12 -86h-49q-34 0 -51 -14.5t-22 -47.5l-3 -19h113l-21 -150h-232zM71 383l21 150q11 77 61 122t130 45h65l-12 -86h-49q-34 0 -51 -14.5t-22 -47.5l-3 -19h113l-21 -150h-232z" />
    <glyph glyph-name="quotedblright" unicode="&#x201d;" horiz-adv-x="660" 
d="M656 700l-21 -150q-11 -77 -61 -122t-130 -45h-65l12 86h49q34 0 51 14.5t22 47.5l3 19h-113l21 150h232zM348 700l-21 -150q-11 -77 -61 -122t-130 -45h-65l12 86h49q34 0 51 14.5t22 47.5l3 19h-113l21 150h232z" />
    <glyph glyph-name="quotedblbase" unicode="&#x201e;" horiz-adv-x="660" 
d="M579 150l-21 -150q-11 -77 -61 -122t-130 -45h-65l12 86h49q34 0 51 14.5t22 47.5l3 19h-113l21 150h232zM271 150l-21 -150q-11 -77 -61 -122t-130 -45h-65l12 86h49q34 0 51 14.5t22 47.5l3 19h-113l21 150h232z" />
    <glyph glyph-name="dagger" unicode="&#x2020;" horiz-adv-x="3156" 
d="M3149 546l-23 -166h-1441l-72 -512h-192l72 512h-1441l23 166h1441l28 194h192l-28 -194h1441z" />
    <glyph glyph-name="daggerdbl" unicode="&#x2021;" horiz-adv-x="3156" 
d="M3111 271l-24 -166h-1441l-33 -237h-192l33 237h-1441l24 166h1441l15 109h-1441l23 166h1441l28 194h192l-28 -194h1441l-23 -166h-1441l-15 -109h1441z" />
    <glyph glyph-name="bullet" unicode="&#x2022;" horiz-adv-x="1500" 
d="M875 116h-244q-208 0 -208 198v72q0 198 208 198h244q208 0 208 -198v-72q0 -198 -208 -198z" />
    <glyph glyph-name="ellipsis" unicode="&#x2026;" horiz-adv-x="968" 
d="M271 150l-21 -150h-232l21 150h232zM579 150l-21 -150h-232l21 150h232zM887 150l-21 -150h-232l21 150h232z" />
    <glyph glyph-name="perthousand" unicode="&#x2030;" horiz-adv-x="6087" 
d="M1600 0l890 700h206l-890 -700h-206zM2476 130l39 274q9 66 45 98t103 32h1461q67 0 94 -32t18 -98l-39 -274q-18 -130 -148 -130h-1461q-67 0 -94 32t-18 98zM4044 168l28 198q4 30 -24 30h-1348q-29 0 -33 -30l-28 -198q-4 -30 25 -30h1348q28 0 32 30zM4299 130
l39 274q9 66 45 98t103 32h1461q67 0 94 -32t18 -98l-39 -274q-18 -130 -148 -130h-1461q-67 0 -94 32t-18 98zM5867 168l28 198q4 30 -24 30h-1348q-29 0 -33 -30l-28 -198q-4 -30 25 -30h1348q28 0 32 30zM59 296l39 274q9 66 45 98t103 32h1461q67 0 94 -32t18 -98
l-39 -274q-18 -130 -148 -130h-1461q-67 0 -94 32t-18 98zM1627 334l28 198q4 30 -24 30h-1348q-29 0 -33 -30l-28 -198q-4 -30 25 -30h1348q28 0 32 30z" />
    <glyph glyph-name="guilsinglleft" unicode="&#x2039;" horiz-adv-x="537" 
d="M466 51h-212l-224 249l294 249h224l-306 -255z" />
    <glyph glyph-name="guilsinglright" unicode="&#x203a;" horiz-adv-x="537" 
d="M71 549h212l224 -249l-294 -249h-224l306 254z" />
    <glyph glyph-name="fraction" unicode="&#x2044;" horiz-adv-x="1052" 
d="M-15 0l890 700h206l-890 -700h-206z" />
    <glyph glyph-name="zerosuperior" unicode="&#x2070;" horiz-adv-x="1823" 
d="M59 296l39 274q9 66 45 98t103 32h1461q67 0 94 -32t18 -98l-39 -274q-18 -130 -148 -130h-1461q-67 0 -94 32t-18 98zM1627 334l28 198q4 30 -24 30h-1348q-29 0 -33 -30l-28 -198q-4 -30 25 -30h1348q28 0 32 30z" />
    <glyph glyph-name="foursuperior" unicode="&#x2074;" horiz-adv-x="1823" 
d="M1642 502l28 198h158l-75 -534h-158l28 198h-1433q-67 0 -94 32t-18 98l29 206h158l-24 -169q-4 -29 25 -29h1376z" />
    <glyph glyph-name="zeroinferior" unicode="&#x2080;" horiz-adv-x="1823" 
d="M36 130l39 274q9 66 45 98t103 32h1461q67 0 94 -32t18 -98l-39 -274q-18 -130 -148 -130h-1461q-67 0 -94 32t-18 98zM1604 168l28 198q4 30 -24 30h-1348q-29 0 -33 -30l-28 -198q-4 -30 25 -30h1348q28 0 32 30z" />
    <glyph glyph-name="oneinferior" unicode="&#x2081;" horiz-adv-x="1823" 
d="M59 0l19 138h862l36 258h-863l20 138h1021l-56 -396h645l-19 -138h-1665z" />
    <glyph glyph-name="twoinferior" unicode="&#x2082;" horiz-adv-x="1823" 
d="M1633 357l1 9q2 16 -3.5 23t-21.5 7h-1533l20 138h1591q66 0 93 -32t18 -98l-10 -68q-9 -66 -45 -98t-102 -32h-1409q-25 0 -35.5 -9t-13.5 -33l-4 -26h1581l-19 -138h-1739l24 171q22 157 179 157h1395q16 0 23.5 6.5t9.5 22.5z" />
    <glyph glyph-name="threeinferior" unicode="&#x2083;" horiz-adv-x="1823" 
d="M1794 408l-4 -30q-7 -49 -37 -77.5t-95 -33.5q64 -5 86 -33.5t15 -77.5l-4 -30q-10 -66 -44 -96t-100 -30h-1611l19 138h1550q29 0 33 30l1 7q2 16 -3 22.5t-21 6.5h-1457l17 126h1457q29 0 33 29l1 7q2 16 -3.5 23t-21.5 7h-1550l20 138h1611q66 0 91.5 -30t16.5 -96z
" />
    <glyph glyph-name="fourinferior" unicode="&#x2084;" horiz-adv-x="1823" 
d="M1619 336l28 198h158l-75 -534h-158l28 198h-1433q-67 0 -94 32t-18 98l29 206h158l-24 -169q-4 -29 25 -29h1376z" />
    <glyph glyph-name="Euro" unicode="&#x20ac;" 
d="M298 0q-92 0 -130 44.5t-25 135.5l12 87h-130l23 166h130l13 87q13 91 63 135.5t142 44.5h3012l-24 -167h-2960q-22 0 -32 -9t-13 -32l-9 -59h2875l-23 -166h-2875l-8 -59q-3 -23 4.5 -32t29.5 -9h2960l-23 -167h-3012z" />
    <glyph glyph-name="uni2117" unicode="&#x2117;" horiz-adv-x="3241" 
d="M349 382h2563q18 0 18 17v29q0 17 -18 17h-2563v-63zM3007 446v-64q0 -65 -64 -65h-2594v-129h-78v323h2672q64 0 64 -65zM236 0q-88 0 -129.5 42t-41.5 128v360q0 86 41.5 128t129.5 42h2785q88 0 129.5 -42t41.5 -128v-360q0 -86 -41.5 -128t-129.5 -42h-2785zM241 72
h2775q94 0 94 94v368q0 94 -94 94h-2775q-94 0 -94 -94v-368q0 -94 94 -94z" />
    <glyph glyph-name="trademark" unicode="&#x2122;" horiz-adv-x="4499" 
d="M3192 166v363q0 33 -33 33h-888q-16 0 -22.5 -6.5t-6.5 -22.5v-367h-158v404q0 130 130 130h914q70 0 104 -28t39 -90q5 62 39 90t104 28h913q131 0 131 -130v-404h-158v367q0 16 -6.5 22.5t-22.5 6.5h-888q-33 0 -33 -33v-363h-158zM1991 700v-138h-890v-396h-158v396
h-890v138h1938z" />
    <glyph glyph-name="uni2126" unicode="&#x2126;" 
d="M3143 443v49q0 22 -9.5 31.5t-31.5 9.5h-2799q-23 0 -32 -9.5t-9 -31.5v-49q0 -22 9.5 -31t31.5 -9h1203v-403h-1456v167h1274v70h-1074q-92 0 -136 44.5t-44 135.5v103q0 91 44 135.5t136 44.5h2905q92 0 136 -44.5t44 -135.5v-103q0 -91 -44 -135.5t-136 -44.5h-1074
v-70h1274v-167h-1456v403h1203q22 0 31.5 9t9.5 31z" />
    <glyph glyph-name="onethird" unicode="&#x2153;" horiz-adv-x="4264" 
d="M82 166l19 138h862l36 258h-863l20 138h1021l-56 -396h645l-19 -138h-1665zM1591 0l890 700h206l-890 -700h-206zM4234 408l-4 -30q-7 -49 -37 -77.5t-95 -33.5q64 -5 86 -33.5t15 -77.5l-4 -30q-10 -66 -44 -96t-100 -30h-1611l19 138h1550q29 0 33 30l1 7q2 16 -3 22.5
t-21 6.5h-1457l17 126h1457q29 0 33 29l1 7q2 16 -3.5 23t-21.5 7h-1550l20 138h1611q66 0 91.5 -30t16.5 -96z" />
    <glyph glyph-name="twothirds" unicode="&#x2154;" horiz-adv-x="4264" 
d="M1656 523l1 9q2 16 -3.5 23t-21.5 7h-1533l20 138h1591q66 0 93 -32t18 -98l-10 -68q-9 -66 -45 -98t-102 -32h-1409q-25 0 -35.5 -9t-13.5 -33l-4 -26h1581l-19 -138h-1739l24 171q22 157 179 157h1395q16 0 23.5 6.5t9.5 22.5zM1591 0l890 700h206l-890 -700h-206z
M4234 408l-4 -30q-7 -49 -37 -77.5t-95 -33.5q64 -5 86 -33.5t15 -77.5l-4 -30q-10 -66 -44 -96t-100 -30h-1611l19 138h1550q29 0 33 30l1 7q2 16 -3 22.5t-21 6.5h-1457l17 126h1457q29 0 33 29l1 7q2 16 -3.5 23t-21.5 7h-1550l20 138h1611q66 0 91.5 -30t16.5 -96z" />
    <glyph glyph-name="partialdiff" unicode="&#x2202;" 
d="M3347 450v-270q0 -91 -44 -135.5t-136 -44.5h-2936q-93 0 -137 44.5t-44 135.5v73q0 91 44 135.5t137 44.5h2924v24q0 76 -75 76h-3000v167h3016q123 0 187 -63.5t64 -186.5zM242 227v-19q0 -23 9 -32t31 -9h2833q22 0 31 9.5t9 31.5v59h-2873q-22 0 -31 -9t-9 -31z" />
    <glyph glyph-name="uni2206" unicode="&#x2206;" 
d="M3375 0h-3346l1673 738zM1702 560l-891 -393h1781z" />
    <glyph glyph-name="product" unicode="&#x220f;" 
d="M3153 -132v665h-2901v-665h-192v832h3285v-832h-192z" />
    <glyph glyph-name="summation" unicode="&#x2211;" 
d="M3345 35v-167h-3286v137l993 279l-993 279v137h3286v-167h-2592l889 -249l-889 -249h2592z" />
    <glyph glyph-name="minus" unicode="&#x2212;" 
d="M60 271v158h3285v-158h-3285z" />
    <glyph glyph-name="radical" unicode="&#x221a;" 
d="M2363 0l-327 271h-1976v158h2038l354 -295l682 566h251l-843 -700h-179z" />
    <glyph glyph-name="infinity" unicode="&#x221e;" horiz-adv-x="733" 
d="M345 317q-12 0 -23.5 12.5t-14.5 12.5t-11 -2t-14 -2q-8 0 -14.5 8t-6.5 17q0 22 8 35q-7 -7 -16 -37t-26 -41q-18 -12 -18 -40q0 -11 11 -21.5t11 -12.5q0 -4 -3 -4q-7 0 -12 5q13 -68 48 -104h-55q-35 114 -35 226q0 105 40.5 171.5t135.5 66.5q190 0 190 -254
q0 -75 -25 -210h-73q53 47 62 117q-4 -8 -13 -8q-3 0 -3 2l4 4q5 3 9.5 11.5t4.5 21.5q-4 -6 -15 -6q-1 0 -10.5 -4.5t-15.5 -4.5q-14 0 -40 3.5t-70 3.5q-22 0 -52.5 -6t-38.5 -6q-5 0 -13 2t-11 2q-28 0 -28 12q0 10 37 18.5t74 8.5q5 0 12 -0.5t12 -0.5t15.5 2t14.5 2
q112 0 127 -20q-1 16 -14 29t-30 13q-6 0 -6 7q0 57 -16 58q4 -7 4 -17q0 -18 -11 -32t-27 -14q-4 0 -10 2l-7 2q-1 0 -14.5 -14t-27.5 -14zM733 291v-148q-22 48 -69 112.5t-67 64.5q6 -85 -12 -177h-42q16 104 16 199q0 319 -213 319q-53 0 -91.5 -26.5t-59 -72.5
t-30 -97.5t-9.5 -111.5q0 -123 29 -210h-47q-19 67 -19 184q-17 -9 -39.5 -43.5t-49 -84.5t-30.5 -56v148q11 27 33 54t50 53.5t30 28.5q3 72 27 135t75.5 107.5t120.5 44.5q67 0 115.5 -22.5t76.5 -64t42.5 -87t22.5 -105.5q22 -5 68 -48t72 -96zM345 503q-3 3 -3 6
q0 2 2 2q1 0 6 -4.5t15 -8.5t22 -4q16 0 29 4t20 8l6 5q4 0 4 -2l-8 -8q24 0 52 -11q-29 80 -139 80q-55 0 -92 -33t-50 -85q37 20 41 39q-6 4 -6 7q0 4 3 4l2 -2q2 -1 6.5 -3.5t10 -5t13.5 -4t17 -1.5q24 0 49 17zM371 416q0 20 -4.5 40t-9.5 20q-10 0 -19 -39t-14 -39
q-3 0 -9.5 3t-11.5 3q-13 0 -21 -10.5t-8 -24.5t11 -14t18 6.5t9 6.5t12 -13.5t20 -13.5q14 0 25 10.5t12 10.5q3 0 10 -3.5t9 -3.5q10 0 18 11t8 24q0 10 -6 18t-16 8q-7 0 -14.5 -6.5t-11.5 -6.5q-7 0 -7 13zM510 318q0 95 -12 147l-5 3q0 -21 -18 -32t-41 -11
q-21 0 -37 12.5t-16 29.5q0 6 2 9q-12 2 -15 4q6 -9 10 -24t5.5 -24t4.5 -9q7 2 15 2q19 0 31 -14q34 0 34 -51q0 -3 8 -7t18.5 -13t15.5 -22zM383 310q-1 0 -8 -1t-15.5 -2t-13.5 -1t-13 1.5t-11 1.5q-15 0 -36 -4t-35 -9t-14 -8q0 -10 20 -10q24 0 54 6.5t44 6.5
q19 0 57.5 -3.5t52.5 -3.5q5 0 9.5 2t7.5 4t3 3q0 5 -36 11t-66 6zM267 413q-18 0 -31 10t-15 21q-4 -2 -15 -5q-4 -21 -4 -43q0 -50 3 -78q4 6 22 22t20 31q5 37 38 41q12 5 23 5q5 0 8.5 8.5t9.5 24.5t16 28l-13 -4q-1 -24 -18.5 -42.5t-43.5 -18.5zM419 465q-13 0 -16 13
q-5 0 -8.5 -5.5t-3.5 -9.5q0 -10 15 -17t31 -7q14 0 29 8.5t15 21.5q0 8 -14.5 12.5t-28.5 4.5q-5 -21 -19 -21zM267 427q14 0 30 11t16 24q0 6 -1 9q-20 0 -27 1q-5 -14 -18 -14q-10 0 -15 5q-4 -4 -18 -12q4 -24 33 -24zM266 288q-2 0 -2 3q0 12 107 12q93 0 93 -8
q0 -3 -3 -3q-1 0 -4 0.5t-10 1t-16 1.5t-24.5 1.5t-33.5 0.5q-36 0 -61 -2.5t-36 -4.5zM305 262q0 10 63 10q31 0 31 -8q0 -3 -2 -3q-4 0 -10 2t-10 2q-11 0 -26 -0.5t-20 -0.5q-4 0 -11.5 -3t-10.5 -3q-4 0 -4 4zM417 473q9 0 9 13q-1 0 -16 -6q0 -7 7 -7zM266 466
q7 0 10 9q-6 1 -11 4q0 -4 -6 -10q1 -3 7 -3zM325 34l-3 48l-10 -82h-21l15 125h25l4 -60l21 60h26l-15 -125h-22l10 82l-16 -48h-14zM21 125h35q23 0 20 -21l-10 -82q-3 -22 -22 -22h-38zM282 44q-1 -12 -10 -17l8 -27h-21l-7 23h-7l-3 -23h-22l15 125h36q21 0 18 -24z
M183 0l3 23h-14l-3 -23h-21l12 104q2 21 22 21h17q19 0 18 -21l-12 -104h-22zM594 0l15 125h35q23 0 20 -21l-8 -62q-3 -19 -22 -19h-15l-3 -23h-22zM111 0l3 23h-13l-3 -23h-22l15 125h22l-10 -83h13l10 83h22l-15 -125h-22zM539 125h22l-10 -79q0 -4 4 -4h5q5 0 5 4l9 79
h22l-10 -81q-3 -21 -19 -21l-9 -23h-23l9 23q-18 0 -15 21zM477 106l3 19h50l-3 -19h-13l-12 -106h-23l12 106h-14zM41 106l-11 -88h11q3 0 3 4l9 80q0 4 -4 4h-8zM629 106l-8 -64h8q5 0 5 4l7 56q0 4 -4 4h-8zM174 42h14l7 60q0 4 -4 4h-5q-5 0 -5 -4zM255 106l-8 -64h8
q5 0 5 4l7 56q0 4 -3 4h-9zM711 57l-3 -18h-19l-3 -21h27l-2 -18h-49l15 125h47l-3 -19h-24l-6 -49h20zM417 0l3 23h-14l-3 -23h-21l12 104q2 21 22 21h17q19 0 18 -21l-12 -104h-22zM408 42h14l7 60q0 4 -4 4h-5q-5 0 -5 -4z" />
    <glyph glyph-name="integral" unicode="&#x222b;" 
d="M1912 477l-274 -468q-47 -81 -100.5 -111t-157.5 -30h-1320v167h1330q38 0 62 12.5t42 43.5l274 468q47 81 100.5 111t157.5 30h1319v-167h-1329q-38 0 -62 -12.5t-42 -43.5z" />
    <glyph glyph-name="approxequal" unicode="&#x2248;" 
d="M60 98v163q324 98 743 98q247 0 574 -35t653.5 -70t574.5 -35q415 0 740 97v-163q-326 -98 -747 -98q-198 0 -448.5 21.5t-452.5 48t-452.5 48t-447.5 21.5q-414 0 -737 -96zM60 383v163q324 98 743 98q247 0 574 -35t653.5 -70t574.5 -35q415 0 740 97v-163
q-326 -98 -747 -98q-198 0 -448.5 21.5t-452.5 48t-452.5 48t-447.5 21.5q-414 0 -737 -96z" />
    <glyph glyph-name="notequal" unicode="&#x2260;" 
d="M1415 0h-218l148 131h-1255v158h1434l138 122h-1572v158h1751l148 131h218l-148 -131h1256v-158h-1435l-138 -122h1573v-158h-1752z" />
    <glyph glyph-name="lessequal" unicode="&#x2264;" 
d="M60 350l305 350h206l-239 -271h3013v-158h-3013l99 -113h2914v-158h-3285v158h167z" />
    <glyph glyph-name="greaterequal" unicode="&#x2265;" 
d="M3040 700l305 -350l-167 -192h167v-158h-3285v158h2914l99 113h-3013v158h3013l-239 271h206z" />
    <glyph glyph-name="lozenge" unicode="&#x25ca;" 
d="M1702 -38l-1673 385l1673 385l1673 -385zM1702 128l951 219l-951 219l-951 -219z" />
    <glyph glyph-name="commaaccent" horiz-adv-x="750" 
d="M422 -55l-13 -88q-9 -65 -50.5 -102.5t-108.5 -37.5h-54l7 49h46q53 0 60 52l2 14h-99l16 113h194z" />
    <glyph glyph-name="i.alt" horiz-adv-x="306" 
d="M19 0l84 603h184l-84 -603h-184zM335 770l-16 -113h-232l16 113h232z" />
    <glyph glyph-name="i.trk" horiz-adv-x="471" 
d="M279 160h161l-22 -160h-210q-92 0 -129 43.5t-24 134.5l59 425h184l-56 -400q-3 -20 7 -31.5t30 -11.5zM346 770l-16 -113h-232l16 113h232z" />
    <glyph glyph-name="one.pnum" horiz-adv-x="636" 
d="M625 700l-98 -700h-192l74 533h-347l24 167h539z" />
    </font>
</defs>
</svg>
