<?xml version="1.0" standalone="no"?>
<!DOCTYPE svg PUBLIC "-//W3C//DTD SVG 1.1//EN" "http://www.w3.org/Graphics/SVG/1.1/DTD/svg11.dtd" >
<svg xmlns="http://www.w3.org/2000/svg" xmlns:xlink="http://www.w3.org/1999/xlink" version="1.1">
<metadata>
Created by FontForge 20170731 at Sat Mar 14 00:16:17 2015
 By ,,,
Copyright (c) 2011 by Ryoichi Tsunekawa. All rights reserved.
</metadata>
<defs>
<font id="DesignSystemA-100R" horiz-adv-x="545" >
  <font-face 
    font-family="DesignSystemA-100R"
    font-weight="400"
    font-stretch="normal"
    units-per-em="1000"
    panose-1="4 5 4 4 2 11 2 2 3 2"
    ascent="822"
    descent="-178"
    x-height="603"
    cap-height="700"
    bbox="-36 -191 1331 931"
    underline-thickness="36"
    underline-position="-156"
    unicode-range="U+0020-FB02"
  />
<missing-glyph horiz-adv-x="500" 
d="M0 700h500v-700h-500v700zM40 664v-612l386 612h-386zM73 36h387v611z" />
    <glyph glyph-name="ij" unicode="ij" horiz-adv-x="459" 
d="M203 -131h30q59 0 78 19t19 78v637h40v-640q0 -72 -29 -101t-102 -29h-36v36zM316 689v41h68v-41h-68zM94 0v603h40v-603h-40zM148 730v-41h-68v41h68z" />
    <glyph glyph-name="fi" unicode="fi" horiz-adv-x="707" 
d="M244 567q-66 0 -96 -29t-30 -97v-122h232v-36h-232v-283h-40v441q0 83 40 122.5t123 39.5h154v-36h-151zM637 36h45v-36h-51q-71 0 -101 30t-30 100v473h40v-470q0 -58 19.5 -77.5t77.5 -19.5zM554 730v-41h-68v41h68z" />
    <glyph glyph-name="fl" unicode="fl" horiz-adv-x="705" 
d="M244 567q-66 0 -96 -29t-30 -97v-122h232v-36h-232v-283h-40v441q0 83 40 122.5t123 39.5h154v-36h-151zM635 36h45v-36h-51q-71 0 -101 30t-30 100v640h40v-637q0 -58 19.5 -77.5t77.5 -19.5z" />
    <glyph glyph-name=".notdef" horiz-adv-x="500" 
d="M0 700h500v-700h-500v700zM40 664v-612l386 612h-386zM73 36h387v611z" />
    <glyph glyph-name=".null" horiz-adv-x="0" 
 />
    <glyph glyph-name="nonmarkingreturn" horiz-adv-x="333" 
 />
    <glyph glyph-name="space" unicode=" " horiz-adv-x="250" 
 />
    <glyph glyph-name="exclam" unicode="!" horiz-adv-x="278" 
d="M173 51v-51h-68v51h68zM159 700v-236q0 -109 -10 -299h-20q-10 190 -10 299v236h40z" />
    <glyph glyph-name="quotedbl" unicode="&#x22;" horiz-adv-x="348" 
d="M112 700v-49q0 -38 -13 -259h-14q-13 221 -13 259v49h40zM276 700v-49q0 -38 -13 -259h-14q-13 221 -13 259v49h40z" />
    <glyph glyph-name="numbersign" unicode="#" 
d="M366 0l8 151h-224l-8 -151h-40l8 151h-74l2 36h74l17 326h-74l2 36h74l8 151h40l-8 -151h224l8 151h40l-8 -151h74l-2 -36h-74l-17 -326h74l-2 -36h-74l-8 -151h-40zM169 513l-17 -326h224l17 326h-224z" />
    <glyph glyph-name="dollar" unicode="$" 
d="M52 86h312q47 0 67 20t20 67v73q0 47 -20 67t-67 20h-187q-64 0 -94.5 31t-30.5 97v64q0 66 30.5 97t94.5 31h76v87h36v-87h172v-36h-282q-47 0 -67 -20t-20 -67v-74q0 -47 20 -67t67 -20h187q64 0 94.5 -31t30.5 -97v-63q0 -66 -30.5 -97t-94.5 -31h-77v-90h-36v90h-201
v36z" />
    <glyph glyph-name="percent" unicode="%" horiz-adv-x="995" 
d="M380 0l199 700h36l-199 -700h-36zM599 114v306q0 58 27.5 86t86.5 28h104q59 0 86.5 -28t27.5 -86v-306q0 -58 -27.5 -86t-86.5 -28h-104q-59 0 -86.5 28t-27.5 86zM891 111v312q0 40 -18 57.5t-56 17.5h-104q-38 0 -56 -17.5t-18 -57.5v-312q0 -40 18 -57.5t56 -17.5
h104q38 0 56 17.5t18 57.5zM64 280v306q0 58 27.5 86t86.5 28h104q59 0 86.5 -28t27.5 -86v-306q0 -58 -27.5 -86t-86.5 -28h-104q-59 0 -86.5 28t-27.5 86zM356 277v312q0 40 -18 57.5t-56 17.5h-104q-38 0 -56 -17.5t-18 -57.5v-312q0 -40 18 -57.5t56 -17.5h104
q38 0 56 17.5t18 57.5z" />
    <glyph glyph-name="ampersand" unicode="&#x26;" horiz-adv-x="637" 
d="M505 332h-295q-59 0 -81.5 -25t-22.5 -84v-79q0 -58 24 -83t79 -25h196q58 0 79 20.5t21 80.5v195zM66 139v84q0 56 22 87t76 40q-54 9 -76 40t-22 87v84q0 72 33 105.5t106 33.5h290v-36h-286q-55 0 -79 -25t-24 -83v-79q0 -59 22.5 -84t81.5 -25h405v-36h-70v-199
q0 -71 -30.5 -102t-102.5 -31h-207q-73 0 -106 33.5t-33 105.5z" />
    <glyph glyph-name="quotesingle" unicode="'" horiz-adv-x="184" 
d="M112 700v-49q0 -38 -13 -259h-14q-13 221 -13 259v49h40z" />
    <glyph glyph-name="parenleft" unicode="(" horiz-adv-x="312" 
d="M123 68q0 -62 24.5 -87t84.5 -25h32v-36h-41q-140 0 -140 139v502q0 139 140 139h41v-36h-32q-60 0 -84.5 -25t-24.5 -87v-484z" />
    <glyph glyph-name="parenright" unicode=")" horiz-adv-x="312" 
d="M189 68v484q0 62 -24.5 87t-84.5 25h-32v36h41q140 0 140 -139v-502q0 -139 -140 -139h-41v36h32q60 0 84.5 25t24.5 87z" />
    <glyph glyph-name="asterisk" unicode="*" horiz-adv-x="500" 
d="M256 469q60 31 143 58l74 23l10 -31l-74 -23q-86 -26 -149 -39q59 -62 99 -118l45 -63l-26 -19l-46 63q-46 63 -82 129q-36 -66 -82 -129l-46 -63l-26 19l45 63q40 56 99 118q-63 13 -149 39l-74 23l10 31l74 -23q83 -27 143 -58q-10 63 -10 154v77h32v-77
q0 -91 -10 -154z" />
    <glyph glyph-name="plus" unicode="+" 
d="M72 331v36h182v183h36v-183h183v-36h-183v-183h-36v183h-182z" />
    <glyph glyph-name="comma" unicode="," horiz-adv-x="272" 
d="M170 51v-47q0 -46 -13.5 -65.5t-48.5 -19.5h-6v16h7q17 0 24.5 11.5t7.5 40.5v17h-39v47h68z" />
    <glyph glyph-name="hyphen" unicode="-" horiz-adv-x="380" 
d="M336 345v-36h-292v36h292z" />
    <glyph glyph-name="period" unicode="." horiz-adv-x="272" 
d="M170 51v-51h-68v51h68z" />
    <glyph glyph-name="slash" unicode="/" horiz-adv-x="396" 
d="M32 0l292 700h40l-292 -700h-40z" />
    <glyph glyph-name="zero" unicode="0" 
d="M215 0q-143 0 -143 143v414q0 143 143 143h115q143 0 143 -143v-414q0 -143 -143 -143h-115zM433 149v402q0 62 -24.5 87.5t-84.5 25.5h-103q-60 0 -84.5 -25.5t-24.5 -87.5v-402q0 -62 24.5 -87.5t84.5 -25.5h103q60 0 84.5 25.5t24.5 87.5z" />
    <glyph glyph-name="one" unicode="1" 
d="M344 700v-664h131v-36h-333v36h162v629h-162v35h202z" />
    <glyph glyph-name="two" unicode="2" 
d="M446 556q0 58 -24 83t-79 25h-266v36h270q73 0 106 -33.5t33 -105.5v-90q0 -72 -33 -105.5t-106 -33.5h-113q-78 0 -110 -31t-32 -111v-154h399v-36h-439v196q0 172 172 172h119q55 0 79 25t24 83v80z" />
    <glyph glyph-name="three" unicode="3" 
d="M335 332h-195v36h195q59 0 81.5 25t22.5 84v79q0 58 -24 83t-79 25h-286v36h290q73 0 106 -33.5t33 -105.5v-84q0 -56 -22 -87t-76 -40q54 -9 76 -40t22 -87v-84q0 -72 -33 -105.5t-106 -33.5h-290v36h286q55 0 79 25t24 83v79q0 59 -22.5 84t-81.5 25z" />
    <glyph glyph-name="four" unicode="4" 
d="M421 368v332h40v-700h-40v332h-227q-143 0 -143 143v225h40v-219q0 -62 24.5 -87.5t84.5 -25.5h221z" />
    <glyph glyph-name="five" unicode="5" 
d="M75 332v368h390v-36h-350v-296h236q73 0 106 -33.5t33 -105.5v-90q0 -72 -33 -105.5t-106 -33.5h-286v36h282q55 0 79 25t24 83v80q0 58 -24 83t-79 25h-272z" />
    <glyph glyph-name="six" unicode="6" 
d="M110 498v-130h241q73 0 106 -33.5t33 -105.5v-90q0 -72 -33 -105.5t-106 -33.5h-142q-73 0 -106 33.5t-33 105.5v363q0 198 197 198h198v-36h-190q-83 0 -124 -40t-41 -126zM347 332h-237v-188q0 -58 24 -83t79 -25h134q55 0 79 25t24 83v80q0 58 -24 83t-79 25z" />
    <glyph glyph-name="seven" unicode="7" 
d="M340 368q63 0 88.5 25t25.5 89v182h-431v36h471v-230q0 -138 -138 -138h-11q-63 0 -88.5 -25t-25.5 -89v-218h-40v230q0 138 138 138h11z" />
    <glyph glyph-name="eight" unicode="8" 
d="M485 561v-84q0 -56 -22 -87t-76 -40q54 -9 76 -40t22 -87v-84q0 -72 -33 -105.5t-106 -33.5h-147q-73 0 -106 33.5t-33 105.5v84q0 56 22 87t76 40q-54 9 -76 40t-22 87v84q0 72 33 105.5t106 33.5h147q73 0 106 -33.5t33 -105.5zM204 368h137q59 0 81.5 25t22.5 84v79
q0 58 -24 83t-79 25h-139q-55 0 -79 -25t-24 -83v-79q0 -59 22.5 -84t81.5 -25zM341 332h-137q-59 0 -81.5 -25t-22.5 -84v-79q0 -58 24 -83t79 -25h139q55 0 79 25t24 83v79q0 59 -22.5 84t-81.5 25z" />
    <glyph glyph-name="nine" unicode="9" 
d="M336 700q73 0 106 -33.5t33 -105.5v-363q0 -198 -197 -198h-198v36h190q83 0 124 40t41 126v130h-241q-73 0 -106 33.5t-33 105.5v90q0 72 33 105.5t106 33.5h142zM95 556v-80q0 -58 24 -83t79 -25h237v188q0 58 -24 83t-79 25h-134q-55 0 -79 -25t-24 -83z" />
    <glyph glyph-name="colon" unicode=":" horiz-adv-x="272" 
d="M170 524v-51h-68v51h68zM170 51v-51h-68v51h68z" />
    <glyph glyph-name="semicolon" unicode=";" horiz-adv-x="272" 
d="M170 51v-47q0 -46 -13.5 -65.5t-48.5 -19.5h-6v16h7q17 0 24.5 11.5t7.5 40.5v17h-39v47h68zM170 524v-51h-68v51h68z" />
    <glyph glyph-name="less" unicode="&#x3c;" 
d="M72 350l199 200h48l-181 -183h335v-36h-334l180 -183h-48z" />
    <glyph glyph-name="equal" unicode="=" 
d="M82 211v36h381v-36h-381zM82 451v36h381v-36h-381z" />
    <glyph glyph-name="greater" unicode="&#x3e;" 
d="M274 550l199 -200l-199 -202h-48l180 183h-334v36h335l-181 183h48z" />
    <glyph glyph-name="question" unicode="?" horiz-adv-x="479" 
d="M403 476v80q0 58 -24 83t-79 25h-278v36h282q73 0 106 -33.5t33 -105.5v-90q0 -72 -33 -105.5t-106 -33.5h-38q-45 0 -64.5 -19t-19.5 -66v-82h-40v86q0 117 117 117h41q55 0 79 25t24 83zM196 51v-51h-68v51h68z" />
    <glyph glyph-name="at" unicode="@" horiz-adv-x="681" 
d="M231 0q-81 0 -120 39t-39 119v384q0 80 39 119t120 39h219q81 0 120 -39t39 -119v-384q0 -80 -39 -119t-120 -39h-219zM233 36h215q62 0 91.5 30t29.5 92v384q0 62 -29.5 92t-91.5 30h-215q-62 0 -91.5 -30t-29.5 -92v-384q0 -62 29.5 -92t91.5 -30zM357 189h-39
q-79 0 -79 81v16q0 81 79 81h87v59q0 48 -48 48h-103v36h96q50 0 72.5 -23t22.5 -73v-136q0 -46 -21 -67.5t-67 -21.5zM320 331q-23 0 -32 -8.5t-9 -30.5v-28q0 -22 9 -30.5t32 -8.5h44q19 0 30 11t11 30v65h-85z" />
    <glyph glyph-name="A" unicode="A" horiz-adv-x="585" 
d="M502 0h-40v332h-339v-332h-40v557q0 143 143 143h133q143 0 143 -143v-557zM353 664h-121q-60 0 -84.5 -25.5t-24.5 -87.5v-183h339v183q0 62 -24.5 87.5t-84.5 25.5z" />
    <glyph glyph-name="B" unicode="B" horiz-adv-x="579" 
d="M513 223v-84q0 -72 -33 -105.5t-106 -33.5h-280v700h280q73 0 106 -33.5t33 -105.5v-84q0 -56 -22 -87t-76 -40q54 -9 76 -40t22 -87zM369 368q59 0 81.5 25t22.5 84v79q0 58 -24 83t-79 25h-236v-296h235zM134 332v-296h236q55 0 79 25t24 83v79q0 59 -22.5 84t-81.5 25
h-235z" />
    <glyph glyph-name="C" unicode="C" horiz-adv-x="483" 
d="M215 0q-143 0 -143 143v414q0 143 143 143h218v-36h-212q-60 0 -84.5 -25.5t-24.5 -87.5v-402q0 -62 24.5 -87.5t84.5 -25.5h212v-36h-218z" />
    <glyph glyph-name="D" unicode="D" horiz-adv-x="579" 
d="M315 700q198 0 198 -198v-304q0 -198 -198 -198h-221v700h221zM308 36q83 0 124 40t41 126v296q0 86 -40.5 126t-124.5 40h-174v-628h174z" />
    <glyph glyph-name="E" unicode="E" horiz-adv-x="538" 
d="M94 0v700h394v-36h-354v-296h264v-36h-264v-296h354v-36h-394z" />
    <glyph glyph-name="F" unicode="F" horiz-adv-x="505" 
d="M94 0v700h391v-36h-351v-296h261v-36h-261v-332h-40z" />
    <glyph glyph-name="G" unicode="G" horiz-adv-x="557" 
d="M353 36q59 0 79.5 20.5t20.5 80.5v195h-175v36h215v-235q0 -71 -30.5 -102t-102.5 -31h-145q-143 0 -143 143v414q0 143 143 143h253v-36h-247q-60 0 -84.5 -25.5t-24.5 -87.5v-402q0 -62 24.5 -87.5t84.5 -25.5h132z" />
    <glyph glyph-name="H" unicode="H" horiz-adv-x="625" 
d="M491 0v332h-357v-332h-40v700h40v-332h357v332h40v-700h-40z" />
    <glyph glyph-name="I" unicode="I" horiz-adv-x="228" 
d="M94 0v700h40v-700h-40z" />
    <glyph glyph-name="J" unicode="J" 
d="M51 133v209h40v-205q0 -60 20 -80.5t79 -20.5h123q60 0 84.5 25.5t24.5 87.5v551h40v-557q0 -143 -143 -143h-135q-72 0 -102.5 31t-30.5 102z" />
    <glyph glyph-name="K" unicode="K" horiz-adv-x="588" 
d="M513 700v-220q0 -58 -23 -90t-79 -40q56 -8 79 -40t23 -90v-220h-40v220q0 60 -23 86t-81 26h-235v-332h-40v700h40v-332h235q58 0 81 26t23 86v220h40z" />
    <glyph glyph-name="L" unicode="L" horiz-adv-x="500" 
d="M480 36v-36h-386v700h40v-664h346z" />
    <glyph glyph-name="M" unicode="M" horiz-adv-x="862" 
d="M570 700h66q143 0 143 -143v-557h-40v551q0 62 -24.5 87.5t-84.5 25.5h-70q-60 0 -84.5 -25.5t-24.5 -87.5v-551h-40v551q0 62 -24.5 87.5t-84.5 25.5h-70q-60 0 -84.5 -25.5t-24.5 -87.5v-551h-40v557q0 143 143 143h66q66 0 99 -24t40 -81q7 57 40 81t99 24z" />
    <glyph glyph-name="N" unicode="N" horiz-adv-x="585" 
d="M232 664q-60 0 -84.5 -25.5t-24.5 -87.5v-551h-40v557q0 143 143 143h133q143 0 143 -143v-557h-40v551q0 62 -24.5 87.5t-84.5 25.5h-121z" />
    <glyph glyph-name="O" unicode="O" horiz-adv-x="565" 
d="M215 0q-143 0 -143 143v414q0 143 143 143h135q143 0 143 -143v-414q0 -143 -143 -143h-135zM453 149v402q0 62 -24.5 87.5t-84.5 25.5h-123q-60 0 -84.5 -25.5t-24.5 -87.5v-402q0 -62 24.5 -87.5t84.5 -25.5h123q60 0 84.5 25.5t24.5 87.5z" />
    <glyph glyph-name="P" unicode="P" horiz-adv-x="548" 
d="M94 0v700h279q73 0 106 -33.5t33 -105.5v-90q0 -72 -33 -105.5t-106 -33.5h-239v-332h-40zM472 556q0 58 -24 83t-79 25h-235v-296h235q55 0 79 25t24 83v80z" />
    <glyph glyph-name="Q" unicode="Q" horiz-adv-x="565" 
d="M215 0q-143 0 -143 143v414q0 143 143 143h135q143 0 143 -143v-414q0 -143 -143 -143h-49v-107h-37v107h-49zM453 149v402q0 62 -24.5 87.5t-84.5 25.5h-123q-60 0 -84.5 -25.5t-24.5 -87.5v-402q0 -62 24.5 -87.5t84.5 -25.5h43v199h37v-199h43q60 0 84.5 25.5
t24.5 87.5z" />
    <glyph glyph-name="R" unicode="R" horiz-adv-x="586" 
d="M513 561v-84q0 -56 -22.5 -87.5t-77.5 -40.5q55 -9 77.5 -40.5t22.5 -88.5v-220h-40v220q0 60 -23 86t-81 26h-235v-332h-40v700h280q73 0 106 -33.5t33 -105.5zM369 368q59 0 81.5 25t22.5 84v79q0 58 -24 83t-79 25h-236v-296h235z" />
    <glyph glyph-name="S" unicode="S" horiz-adv-x="510" 
d="M198 332q-73 0 -106 33.5t-33 105.5v90q0 72 33 105.5t106 33.5h232v-36h-228q-55 0 -79 -25t-24 -83v-80q0 -58 24 -83t79 -25h114q73 0 106 -33.5t33 -105.5v-90q0 -72 -33 -105.5t-106 -33.5h-262v36h258q55 0 79 25t24 83v80q0 58 -24 83t-79 25h-114z" />
    <glyph glyph-name="T" unicode="T" horiz-adv-x="461" 
d="M441 700v-36h-190v-664h-40v664h-191v36h421z" />
    <glyph glyph-name="U" unicode="U" horiz-adv-x="585" 
d="M226 0q-143 0 -143 143v557h40v-551q0 -62 24.5 -87.5t84.5 -25.5h121q60 0 84.5 25.5t24.5 87.5v551h40v-557q0 -143 -143 -143h-133z" />
    <glyph glyph-name="V" unicode="V" horiz-adv-x="581" 
d="M94 0v700h40v-664h164q83 0 123.5 40t40.5 126v498h40v-502q0 -97 -50.5 -147.5t-147.5 -50.5h-210z" />
    <glyph glyph-name="W" unicode="W" horiz-adv-x="862" 
d="M636 0h-66q-66 0 -99 24t-40 81q-7 -57 -40 -81t-99 -24h-66q-143 0 -143 143v557h40v-551q0 -62 24.5 -87.5t84.5 -25.5h70q60 0 84.5 25.5t24.5 87.5v551h40v-551q0 -62 24.5 -87.5t84.5 -25.5h70q60 0 84.5 25.5t24.5 87.5v551h40v-557q0 -143 -143 -143z" />
    <glyph glyph-name="X" unicode="X" horiz-adv-x="571" 
d="M75 480v220h40v-220q0 -60 23 -86t81 -26h133q58 0 81 26t23 86v220h40v-220q0 -58 -23 -90t-79 -40q56 -8 79 -40t23 -90v-220h-40v220q0 60 -23 86t-81 26h-133q-58 0 -81 -26t-23 -86v-220h-40v220q0 58 23 90t79 40q-56 8 -79 40t-23 90z" />
    <glyph glyph-name="Y" unicode="Y" horiz-adv-x="544" 
d="M453 700h40v-225q0 -143 -143 -143h-58v-332h-40v332h-58q-143 0 -143 143v225h40v-219q0 -62 24.5 -87.5t84.5 -25.5h144q60 0 84.5 25.5t24.5 87.5v219z" />
    <glyph glyph-name="Z" unicode="Z" horiz-adv-x="522" 
d="M285 368q78 0 110 31t32 111v154h-350v36h390v-196q0 -172 -172 -172h-61q-78 0 -110 -31t-32 -111v-154h375v-36h-415v196q0 172 172 172h61z" />
    <glyph glyph-name="bracketleft" unicode="[" horiz-adv-x="343" 
d="M94 700h201v-36h-161v-708h161v-36h-201v780z" />
    <glyph glyph-name="backslash" unicode="\" horiz-adv-x="396" 
d="M72 700l292 -700h-40l-292 700h40z" />
    <glyph glyph-name="bracketright" unicode="]" horiz-adv-x="343" 
d="M48 700h201v-780h-201v36h161v708h-161v36z" />
    <glyph glyph-name="asciicircum" unicode="^" 
d="M272 710l200 -330v-69l-200 330l-200 -330v69z" />
    <glyph glyph-name="underscore" unicode="_" horiz-adv-x="500" 
d="M500 -64v-36h-500v36h500z" />
    <glyph glyph-name="grave" unicode="`" horiz-adv-x="230" 
d="M147 663l-122 101h53l107 -101h-38z" />
    <glyph glyph-name="a" unicode="a" horiz-adv-x="496" 
d="M389 319v141q0 59 -24 83t-83 24h-202v36h209q72 0 106 -34t34 -106v-323q0 -72 -34 -106t-106 -34h-114q-64 0 -94.5 31t-30.5 97v63q0 66 30.5 97t94.5 31h214zM389 283h-212q-47 0 -67 -20t-20 -67v-73q0 -47 20 -67t67 -20h105q59 0 83 24t24 83v140z" />
    <glyph glyph-name="b" unicode="b" horiz-adv-x="511" 
d="M78 140v630h40v-230q22 63 115 63h71q72 0 106 -34t34 -106v-323q0 -72 -34 -106t-106 -34h-86q-72 0 -106 34t-34 106zM118 460v-317q0 -59 24 -83t83 -24h72q59 0 83 24t24 83v317q0 59 -24 83t-83 24h-72q-59 0 -83 -24t-24 -83z" />
    <glyph glyph-name="c" unicode="c" horiz-adv-x="442" 
d="M207 0q-72 0 -106 34t-34 106v323q0 72 34 106t106 34h183v-36h-176q-59 0 -83 -24t-24 -83v-317q0 -59 24 -83t83 -24h176v-36h-183z" />
    <glyph glyph-name="d" unicode="d" horiz-adv-x="511" 
d="M433 770v-630q0 -72 -34 -106t-106 -34h-86q-72 0 -106 34t-34 106v323q0 72 34 106t106 34h71q93 0 115 -63v230h40zM393 143v317q0 59 -24 83t-83 24h-72q-59 0 -83 -24t-24 -83v-317q0 -59 24 -83t83 -24h72q59 0 83 24t24 83z" />
    <glyph glyph-name="e" unicode="e" horiz-adv-x="496" 
d="M446 411q0 -66 -30.5 -97t-94.5 -31h-214v-140q0 -59 24 -83t83 -24h202v-36h-209q-72 0 -106 34t-34 106v323q0 72 34 106t106 34h114q64 0 94.5 -31t30.5 -97v-64zM319 567h-105q-59 0 -83 -24t-24 -83v-141h212q47 0 67 20t20 67v74q0 47 -20 67t-67 20z" />
    <glyph glyph-name="f" unicode="f" horiz-adv-x="420" 
d="M244 567q-66 0 -96 -29t-30 -97v-122h232v-36h-232v-283h-40v441q0 83 40 122.5t123 39.5h154v-36h-151z" />
    <glyph glyph-name="g" unicode="g" horiz-adv-x="511" 
d="M286 36q59 0 83 24t24 83v317q0 59 -24 83t-83 24h-72q-59 0 -83 -24t-24 -83v-317q0 -59 24 -83t83 -24h72zM278 0h-71q-72 0 -106 34t-34 106v323q0 72 34 106t106 34h86q72 0 106 -34t34 -106v-450q0 -92 -44 -136t-136 -44h-146v36h142q75 0 109.5 33t34.5 111v49
q-22 -62 -115 -62z" />
    <glyph glyph-name="h" unicode="h" horiz-adv-x="533" 
d="M415 460q0 59 -24 83t-83 24h-72q-59 0 -83 -24t-24 -83v-460h-40v770h40v-230q22 63 115 63h71q72 0 106 -34t34 -106v-463h-40v460z" />
    <glyph glyph-name="i" unicode="i" horiz-adv-x="287" 
d="M217 36h45v-36h-51q-71 0 -101 30t-30 100v473h40v-470q0 -58 19.5 -77.5t77.5 -19.5zM134 730v-41h-68v41h68z" />
    <glyph glyph-name="j" unicode="j" horiz-adv-x="231" 
d="M-25 -131h30q59 0 78 19t19 78v637h40v-640q0 -72 -29 -101t-102 -29h-36v36zM88 689v41h68v-41h-68z" />
    <glyph glyph-name="k" unicode="k" horiz-adv-x="518" 
d="M413 390v213h40v-187q0 -55 -18 -82t-59 -33q41 -6 59 -33t18 -82v-186h-40v212q0 38 -17 54.5t-55 16.5h-212v-283h-40v770h40v-451h212q38 0 55 16.5t17 54.5z" />
    <glyph glyph-name="l" unicode="l" horiz-adv-x="285" 
d="M215 36h45v-36h-51q-71 0 -101 30t-30 100v640h40v-637q0 -58 19.5 -77.5t77.5 -19.5z" />
    <glyph glyph-name="m" unicode="m" horiz-adv-x="800" 
d="M400 507q8 53 41 74.5t101 21.5h40q72 0 106 -34t34 -106v-463h-40v460q0 59 -24 83t-83 24h-48q-59 0 -83 -24t-24 -83v-460h-40v460q0 59 -24 83t-83 24h-48q-59 0 -83 -24t-24 -83v-460h-40v463q0 72 34 106t106 34h40q68 0 101 -21.5t41 -74.5z" />
    <glyph glyph-name="n" unicode="n" horiz-adv-x="520" 
d="M78 0v463q0 72 34 106t106 34h84q72 0 106 -34t34 -106v-463h-40v460q0 59 -24 83t-83 24h-70q-59 0 -83 -24t-24 -83v-460h-40z" />
    <glyph glyph-name="o" unicode="o" horiz-adv-x="498" 
d="M291 603q72 0 106 -34t34 -106v-323q0 -72 -34 -106t-106 -34h-84q-72 0 -106 34t-34 106v323q0 72 34 106t106 34h84zM284 36q59 0 83 24t24 83v317q0 59 -24 83t-83 24h-70q-59 0 -83 -24t-24 -83v-317q0 -59 24 -83t83 -24h70z" />
    <glyph glyph-name="p" unicode="p" horiz-adv-x="511" 
d="M78 -167v630q0 72 34 106t106 34h86q72 0 106 -34t34 -106v-323q0 -72 -34 -106t-106 -34h-71q-93 0 -115 63v-230h-40zM118 460v-317q0 -59 24 -83t83 -24h72q59 0 83 24t24 83v317q0 59 -24 83t-83 24h-72q-59 0 -83 -24t-24 -83z" />
    <glyph glyph-name="q" unicode="q" horiz-adv-x="511" 
d="M433 463v-630h-40v230q-22 -63 -115 -63h-71q-72 0 -106 34t-34 106v323q0 72 34 106t106 34h86q72 0 106 -34t34 -106zM393 143v317q0 58 -24 82.5t-83 24.5h-72q-58 0 -82.5 -24.5t-24.5 -82.5v-317q0 -58 24 -82.5t83 -24.5h72q58 0 82.5 24.5t24.5 82.5z" />
    <glyph glyph-name="r" unicode="r" horiz-adv-x="345" 
d="M320 603v-36h-95q-59 0 -83 -24t-24 -83v-460h-40v463q0 72 34 106t106 34h102z" />
    <glyph glyph-name="s" unicode="s" horiz-adv-x="458" 
d="M378 567h-197q-47 0 -67 -20t-20 -67v-74q0 -47 20 -67t67 -20h102q64 0 94.5 -31t30.5 -97v-63q0 -66 -30.5 -97t-94.5 -31h-229v36h227q47 0 67 20t20 67v73q0 47 -20 67t-67 20h-102q-64 0 -94.5 31t-30.5 97v64q0 66 30.5 97t94.5 31h199v-36z" />
    <glyph glyph-name="t" unicode="t" horiz-adv-x="380" 
d="M218 0q-72 0 -106 34t-34 106v630h40v-167h210v-36h-210v-424q0 -59 24 -83t83 -24h103v-36h-110z" />
    <glyph glyph-name="u" unicode="u" horiz-adv-x="520" 
d="M295 36q59 0 83 24t24 83v460h40v-463q0 -72 -34 -106t-106 -34h-84q-72 0 -106 34t-34 106v463h40v-460q0 -59 24 -83t83 -24h70z" />
    <glyph glyph-name="v" unicode="v" horiz-adv-x="516" 
d="M443 603v-413q0 -99 -45 -144.5t-144 -45.5h-165v603h40v-567h122q81 0 116.5 34.5t35.5 117.5v415h40z" />
    <glyph glyph-name="w" unicode="w" horiz-adv-x="800" 
d="M400 96q-8 -53 -41 -74.5t-101 -21.5h-40q-72 0 -106 34t-34 106v463h40v-460q0 -59 24 -83t83 -24h48q59 0 83 24t24 83v460h40v-460q0 -59 24 -83t83 -24h48q59 0 83 24t24 83v460h40v-463q0 -72 -34 -106t-106 -34h-40q-68 0 -101 21.5t-41 74.5z" />
    <glyph glyph-name="x" unicode="x" horiz-adv-x="516" 
d="M411 390v213h40v-187q0 -55 -18 -82t-59 -33q41 -6 59 -33t18 -82v-186h-40v212q0 37 -16.5 54t-55.5 17h-162q-38 0 -55 -16.5t-17 -54.5v-212h-40v186q0 55 18 82t59 33q-41 6 -59 33t-18 82v187h40v-213q0 -37 16.5 -54t55.5 -17h162q38 0 55 16.5t17 54.5z" />
    <glyph glyph-name="y" unicode="y" horiz-adv-x="533" 
d="M264 -167h-146v36h142q75 0 109.5 33t34.5 111v49q-22 -62 -115 -62h-71q-72 0 -106 34t-34 106v463h40v-460q0 -59 24 -83t83 -24h72q59 0 83 24t24 83v460h40v-590q0 -92 -44 -136t-136 -44z" />
    <glyph glyph-name="z" unicode="z" horiz-adv-x="471" 
d="M217 283q-65 0 -94.5 -29.5t-29.5 -94.5v-123h324v-36h-364v156q0 163 163 163h37q65 0 94.5 29.5t29.5 94.5v124h-304v36h344v-157q0 -163 -163 -163h-37z" />
    <glyph glyph-name="braceleft" unicode="{" horiz-adv-x="314" 
d="M131 552v-135q0 -56 -14 -81.5t-56 -25.5q42 0 56 -25.5t14 -81.5v-135q0 -62 24.5 -87t84.5 -25h32v-36h-41q-140 0 -140 139v168q0 38 -9 51.5t-42 13.5h-12v36h12q33 0 42 13.5t9 51.5v168q0 139 140 139h41v-36h-32q-60 0 -84.5 -25t-24.5 -87z" />
    <glyph glyph-name="bar" unicode="|" horiz-adv-x="262" 
d="M113 -167v907h36v-907h-36z" />
    <glyph glyph-name="braceright" unicode="}" horiz-adv-x="314" 
d="M183 417v135q0 62 -24.5 87t-84.5 25h-32v36h41q140 0 140 -139v-168q0 -38 9 -51.5t42 -13.5h12v-36h-12q-33 0 -42 -13.5t-9 -51.5v-168q0 -139 -140 -139h-41v36h32q60 0 84.5 25t24.5 87v135q0 56 14 81.5t56 25.5q-42 0 -56 25.5t-14 81.5z" />
    <glyph glyph-name="asciitilde" unicode="~" 
d="M72 306v48q39 52 92 52q37 0 110.5 -36t107.5 -36q53 0 91 63v-49q-39 -52 -92 -52q-37 0 -111 36t-108 36q-54 0 -90 -62z" />
    <glyph glyph-name="uni00A0" unicode="&#xa0;" horiz-adv-x="250" 
 />
    <glyph glyph-name="exclamdown" unicode="&#xa1;" horiz-adv-x="278" 
d="M105 579v51h68v-51h-68zM119 -70v236q0 109 10 299h20q10 -190 10 -299v-236h-40z" />
    <glyph glyph-name="cent" unicode="&#xa2;" 
d="M281 -40v90h-69q-72 0 -106 34t-34 106v320q0 72 34 106t106 34h69v90h36v-90h171v-36h-171v-528h171v-36h-171v-90h-36zM219 86h62v528h-62q-59 0 -83 -24t-24 -83v-314q0 -59 24 -83t83 -24z" />
    <glyph glyph-name="sterling" unicode="&#xa3;" 
d="M188 36h309v-36h-449v36h100v296h-100v36h100v190q0 72 34.5 107t107.5 35h162v-36h-157q-59 0 -83 -24t-24 -83v-189h264v-36h-264v-296z" />
    <glyph glyph-name="currency" unicode="&#xa4;" 
d="M93 511q0 72 33.5 106t105.5 34h23v89h36v-89h22q72 0 105.5 -34t33.5 -106v-143h70v-36h-70v-144q0 -72 -33.5 -106t-105.5 -34h-22v-88h-36v88h-23q-72 0 -105.5 34t-33.5 106v144h-70v36h70v143zM305 615h-65q-58 0 -82.5 -24t-24.5 -83v-317q0 -58 24 -82.5t83 -24.5
h65q58 0 82.5 24.5t24.5 82.5v317q0 58 -24 82.5t-83 24.5z" />
    <glyph glyph-name="yen" unicode="&#xa5;" 
d="M448 700h40v-173q0 -72 -34.5 -107t-107.5 -35h-54v-171h181v-36h-181v-178h-40v178h-180v36h180v171h-54q-73 0 -107.5 35t-34.5 107v173h40v-167q0 -61 24 -86.5t86 -25.5h132q61 0 85.5 25t24.5 87v167z" />
    <glyph glyph-name="brokenbar" unicode="&#xa6;" horiz-adv-x="262" 
d="M113 -167v394h36v-394h-36zM113 347v393h36v-393h-36z" />
    <glyph glyph-name="section" unicode="&#xa7;" horiz-adv-x="571" 
d="M197 435h181q71 0 103.5 -33t32.5 -106v-31q0 -99 -94 -114q94 -15 94 -114v-30q0 -73 -32.5 -106t-103.5 -33h-305v36h302q54 0 76.5 22.5t22.5 76.5v34q0 51 -21.5 73.5t-72.5 22.5h-181q-71 0 -103.5 33t-32.5 106v31q0 99 94 114q-94 15 -94 114v30q0 73 32.5 106
t103.5 33h305v-36h-302q-54 0 -76.5 -22.5t-22.5 -76.5v-34q0 -51 21.5 -73.5t72.5 -22.5zM375 399h-178q-51 0 -72.5 -22.5t-21.5 -73.5v-35q0 -54 22.5 -76.5t76.5 -22.5h178q51 0 72.5 22.5t21.5 73.5v35q0 54 -22.5 76.5t-76.5 22.5z" />
    <glyph glyph-name="dieresis" unicode="&#xa8;" horiz-adv-x="230" 
d="M60 730v-41h-68v41h68zM238 730v-41h-68v41h68z" />
    <glyph glyph-name="copyright" unicode="&#xa9;" horiz-adv-x="681" 
d="M319 189q-46 0 -67 21.5t-21 67.5v143q0 46 21 67.5t67 21.5h117v-36h-124q-19 0 -30 -11t-11 -30v-167q0 -19 11 -30t30 -11h124v-36h-117zM231 0q-81 0 -120 39t-39 119v384q0 80 39 119t120 39h219q81 0 120 -39t39 -119v-384q0 -80 -39 -119t-120 -39h-219zM233 36
h215q62 0 91.5 30t29.5 92v384q0 62 -29.5 92t-91.5 30h-215q-62 0 -91.5 -30t-29.5 -92v-384q0 -62 29.5 -92t91.5 -30z" />
    <glyph glyph-name="ordfeminine" unicode="&#xaa;" horiz-adv-x="443" 
d="M344 451v141q0 39 -16 55.5t-54 16.5h-205v36h201q59 0 86.5 -28t27.5 -86v-306q0 -58 -27.5 -86t-86.5 -28h-111q-59 0 -86 28t-27 86v57q0 58 27 86t86 28h185zM86 343v-69q0 -39 16 -55.5t54 -16.5h118q38 0 54 16.5t16 55.5v141h-188q-38 0 -54 -16.5t-16 -55.5z
M215 70l53 -70h-106z" />
    <glyph glyph-name="guillemotleft" unicode="&#xab;" horiz-adv-x="427" 
d="M229 51h-41l-159 249l159 249h41l-159 -249zM398 51h-41l-159 249l159 249h41l-159 -249z" />
    <glyph glyph-name="logicalnot" unicode="&#xac;" 
d="M72 331v36h401v-219h-36v183h-365z" />
    <glyph glyph-name="uni00AD" unicode="&#xad;" horiz-adv-x="380" 
d="M336 345v-36h-292v36h292z" />
    <glyph glyph-name="registered" unicode="&#xae;" horiz-adv-x="681" 
d="M231 0q-81 0 -120 39t-39 119v384q0 80 39 119t120 39h219q81 0 120 -39t39 -119v-384q0 -80 -39 -119t-120 -39h-219zM233 36h215q62 0 91.5 30t29.5 92v384q0 62 -29.5 92t-91.5 30h-215q-62 0 -91.5 -30t-29.5 -92v-384q0 -62 29.5 -92t91.5 -30zM446 414
q0 -61 -55 -65q55 -5 55 -68v-92h-40v110q0 32 -30 32h-96v-142h-40v321h138q68 0 68 -68v-28zM406 448q0 26 -27 26h-99v-107h99q27 0 27 26v55z" />
    <glyph glyph-name="macron" unicode="&#xaf;" horiz-adv-x="230" 
d="M226 696h-222v28h222v-28z" />
    <glyph glyph-name="degree" unicode="&#xb0;" horiz-adv-x="391" 
d="M42 575q0 125 133 125h41q133 0 133 -125v-134q0 -125 -133 -125h-41q-133 0 -133 125v134zM182 664q-56 0 -78 -21.5t-22 -76.5v-116q0 -55 22 -76.5t78 -21.5h27q56 0 78 21.5t22 76.5v116q0 55 -22 76.5t-78 21.5h-27z" />
    <glyph glyph-name="plusminus" unicode="&#xb1;" 
d="M473 0h-401v36h401v-36zM72 331v36h182v183h36v-183h183v-36h-183v-183h-36v183h-182z" />
    <glyph glyph-name="twosuperior" unicode="&#xb2;" horiz-adv-x="460" 
d="M374 528v59q0 43 -16.5 60t-58.5 17h-227v36h229q58 0 85.5 -28t27.5 -86v-57q0 -58 -27.5 -86t-85.5 -28h-101q-63 0 -86.5 -23.5t-23.5 -85.5v-104h324v-36h-364v146q0 139 139 139h110q42 0 58.5 17t16.5 60z" />
    <glyph glyph-name="threesuperior" unicode="&#xb3;" horiz-adv-x="460" 
d="M410 586v-49q0 -47 -16.5 -72.5t-63.5 -31.5q47 -6 63.5 -31.5t16.5 -72.5v-49q0 -58 -27.5 -86t-85.5 -28h-255v36h253q42 0 58.5 17t16.5 60v60q0 40 -17.5 58t-55.5 18h-179v36h179q38 0 55.5 18t17.5 58v60q0 43 -16.5 60t-58.5 17h-253v36h255q58 0 85.5 -28
t27.5 -86z" />
    <glyph glyph-name="acute" unicode="&#xb4;" horiz-adv-x="230" 
d="M207 764l-125 -101h-38l106 101h57z" />
    <glyph glyph-name="uni00B5" unicode="&#xb5;" horiz-adv-x="533" 
d="M236 36h72q59 0 83 24t24 83v460h40v-463q0 -72 -34 -106t-106 -34h-71q-93 0 -115 63v-230h-40v770h40v-460q0 -59 24 -83t83 -24z" />
    <glyph glyph-name="paragraph" unicode="&#xb6;" horiz-adv-x="615" 
d="M521 700v-832h-40v796h-162v-796h-40v407h-81q-83 0 -122.5 40t-39.5 122v101q0 82 39.5 122t122.5 40h323z" />
    <glyph glyph-name="periodcentered" unicode="&#xb7;" horiz-adv-x="272" 
d="M170 375v-51h-68v51h68z" />
    <glyph glyph-name="cedilla" unicode="&#xb8;" horiz-adv-x="250" 
d="M123 -44h52q31 0 47.5 -9.5t16.5 -36.5q0 -61 -98 -61h-131v33h130q35 0 51.5 6.5t16.5 25.5q0 15 -7.5 21t-27.5 6h-72l18 59h16z" />
    <glyph glyph-name="onesuperior" unicode="&#xb9;" horiz-adv-x="460" 
d="M126 166v36h129v462h-129v36h169v-498h103v-36h-272z" />
    <glyph glyph-name="ordmasculine" unicode="&#xba;" horiz-adv-x="456" 
d="M59 280v306q0 58 27.5 86t86.5 28h110q59 0 86.5 -28t27.5 -86v-306q0 -58 -27.5 -86t-86.5 -28h-110q-59 0 -86.5 28t-27.5 86zM287 202q38 0 54 16.5t16 55.5v318q0 39 -16 55.5t-54 16.5h-118q-38 0 -54 -16.5t-16 -55.5v-318q0 -39 16 -55.5t54 -16.5h118zM228 70
l53 -70h-106z" />
    <glyph glyph-name="guillemotright" unicode="&#xbb;" horiz-adv-x="427" 
d="M239 51h-41l159 249l-159 249h41l159 -249zM70 51h-41l159 249l-159 249h41l159 -249z" />
    <glyph glyph-name="onequarter" unicode="&#xbc;" horiz-adv-x="995" 
d="M380 0l199 700h36l-199 -700h-36zM126 166v36h129v462h-129v36h169v-498h103v-36h-272zM871 285v249h40v-534h-40v249h-176q-59 0 -86.5 28t-27.5 86v171h40v-174q0 -40 18 -57.5t56 -17.5h176z" />
    <glyph glyph-name="onehalf" unicode="&#xbd;" horiz-adv-x="995" 
d="M380 0l199 700h36l-199 -700h-36zM126 166v36h129v462h-129v36h169v-498h103v-36h-272zM909 362v59q0 43 -16.5 60t-58.5 17h-227v36h229q58 0 85.5 -28t27.5 -86v-57q0 -58 -27.5 -86t-85.5 -28h-101q-63 0 -86.5 -23.5t-23.5 -85.5v-104h324v-36h-364v146
q0 139 139 139h110q42 0 58.5 17t16.5 60z" />
    <glyph glyph-name="threequarters" unicode="&#xbe;" horiz-adv-x="995" 
d="M380 0l199 700h36l-199 -700h-36zM871 285v249h40v-534h-40v249h-176q-59 0 -86.5 28t-27.5 86v171h40v-174q0 -40 18 -57.5t56 -17.5h176zM410 586v-49q0 -47 -16.5 -72.5t-63.5 -31.5q47 -6 63.5 -31.5t16.5 -72.5v-49q0 -58 -27.5 -86t-85.5 -28h-255v36h253
q42 0 58.5 17t16.5 60v60q0 40 -17.5 58t-55.5 18h-179v36h179q38 0 55.5 18t17.5 58v60q0 43 -16.5 60t-58.5 17h-253v36h255q58 0 85.5 -28t27.5 -86z" />
    <glyph glyph-name="questiondown" unicode="&#xbf;" horiz-adv-x="475" 
d="M76 154v-80q0 -58 24 -83t79 -25h278v-36h-282q-73 0 -106 33.5t-33 105.5v90q0 72 33 105.5t106 33.5h38q45 0 64.5 19t19.5 66v82h40v-86q0 -117 -117 -117h-41q-55 0 -79 -25t-24 -83zM283 579v51h68v-51h-68z" />
    <glyph glyph-name="Agrave" unicode="&#xc0;" horiz-adv-x="585" 
d="M502 0h-40v332h-339v-332h-40v557q0 143 143 143h133q143 0 143 -143v-557zM353 664h-121q-60 0 -84.5 -25.5t-24.5 -87.5v-183h339v183q0 62 -24.5 87.5t-84.5 25.5zM304 750l-122 101h53l107 -101h-38z" />
    <glyph glyph-name="Aacute" unicode="&#xc1;" horiz-adv-x="585" 
d="M502 0h-40v332h-339v-332h-40v557q0 143 143 143h133q143 0 143 -143v-557zM353 664h-121q-60 0 -84.5 -25.5t-24.5 -87.5v-183h339v183q0 62 -24.5 87.5t-84.5 25.5zM404 851l-125 -101h-38l106 101h57z" />
    <glyph glyph-name="Acircumflex" unicode="&#xc2;" horiz-adv-x="585" 
d="M502 0h-40v332h-339v-332h-40v557q0 143 143 143h133q143 0 143 -143v-557zM353 664h-121q-60 0 -84.5 -25.5t-24.5 -87.5v-183h339v183q0 62 -24.5 87.5t-84.5 25.5zM292 824l-100 -74h-36l116 101h40l116 -101h-36z" />
    <glyph glyph-name="Atilde" unicode="&#xc3;" horiz-adv-x="585" 
d="M502 0h-40v332h-339v-332h-40v557q0 143 143 143h133q143 0 143 -143v-557zM353 664h-121q-60 0 -84.5 -25.5t-24.5 -87.5v-183h339v183q0 62 -24.5 87.5t-84.5 25.5zM181 758v34q31 36 61 36q19 0 53 -20t51 -20q28 0 57 38v-34q-31 -36 -62 -36q-19 0 -53 19.5
t-51 19.5q-28 0 -56 -37z" />
    <glyph glyph-name="Adieresis" unicode="&#xc4;" horiz-adv-x="585" 
d="M502 0h-40v332h-339v-332h-40v557q0 143 143 143h133q143 0 143 -143v-557zM353 664h-121q-60 0 -84.5 -25.5t-24.5 -87.5v-183h339v183q0 62 -24.5 87.5t-84.5 25.5zM237 817v-41h-68v41h68zM415 817v-41h-68v41h68z" />
    <glyph glyph-name="Aring" unicode="&#xc5;" horiz-adv-x="585" 
d="M502 0h-40v332h-339v-332h-40v557q0 143 143 143h133q143 0 143 -143v-557zM353 664h-121q-60 0 -84.5 -25.5t-24.5 -87.5v-183h339v183q0 62 -24.5 87.5t-84.5 25.5zM249 801q0 -30 36 -30h16q36 0 36 30t-36 30h-16q-36 0 -36 -30zM301 750h-16q-60 0 -60 51t60 51h16
q59 0 59 -51t-59 -51z" />
    <glyph glyph-name="AE" unicode="&#xc6;" horiz-adv-x="866" 
d="M440 0v332h-317v-332h-40v557q0 143 143 143h590v-36h-340v-296h250v-36h-250v-296h340v-36h-376zM232 664q-60 0 -84.5 -25.5t-24.5 -87.5v-183h317v296h-208z" />
    <glyph glyph-name="Ccedilla" unicode="&#xc7;" horiz-adv-x="483" 
d="M284 0l-12 -44h52q31 0 47.5 -9.5t16.5 -36.5q0 -61 -98 -61h-131v33h130q35 0 51.5 6.5t16.5 25.5q0 15 -7.5 21t-27.5 6h-72l18 59h-53q-143 0 -143 143v414q0 143 143 143h218v-36h-212q-60 0 -84.5 -25.5t-24.5 -87.5v-402q0 -62 24.5 -87.5t84.5 -25.5h212v-36h-149
z" />
    <glyph glyph-name="Egrave" unicode="&#xc8;" horiz-adv-x="538" 
d="M94 0v700h394v-36h-354v-296h264v-36h-264v-296h354v-36h-394zM297 750l-122 101h53l107 -101h-38z" />
    <glyph glyph-name="Eacute" unicode="&#xc9;" horiz-adv-x="538" 
d="M94 0v700h394v-36h-354v-296h264v-36h-264v-296h354v-36h-394zM397 851l-125 -101h-38l106 101h57z" />
    <glyph glyph-name="Ecircumflex" unicode="&#xca;" horiz-adv-x="538" 
d="M94 0v700h394v-36h-354v-296h264v-36h-264v-296h354v-36h-394zM285 824l-100 -74h-36l116 101h40l116 -101h-36z" />
    <glyph glyph-name="Edieresis" unicode="&#xcb;" horiz-adv-x="538" 
d="M94 0v700h394v-36h-354v-296h264v-36h-264v-296h354v-36h-394zM230 817v-41h-68v41h68zM408 817v-41h-68v41h68z" />
    <glyph glyph-name="Igrave" unicode="&#xcc;" horiz-adv-x="228" 
d="M94 0v700h40v-700h-40zM126 750l-122 101h53l107 -101h-38z" />
    <glyph glyph-name="Iacute" unicode="&#xcd;" horiz-adv-x="228" 
d="M94 0v700h40v-700h-40zM226 851l-125 -101h-38l106 101h57z" />
    <glyph glyph-name="Icircumflex" unicode="&#xce;" horiz-adv-x="228" 
d="M94 0v700h40v-700h-40zM114 824l-100 -74h-36l116 101h40l116 -101h-36z" />
    <glyph glyph-name="Idieresis" unicode="&#xcf;" horiz-adv-x="228" 
d="M227 817v-41h-68v41h68zM69 817v-41h-68v41h68zM94 0v700h40v-700h-40z" />
    <glyph glyph-name="Eth" unicode="&#xd0;" horiz-adv-x="580" 
d="M315 700q198 0 198 -198v-304q0 -198 -198 -198h-221v332h-74v36h74v332h221zM308 36q83 0 124 40t41 126v296q0 86 -40.5 126t-124.5 40h-174v-296h108v-36h-108v-296h174z" />
    <glyph glyph-name="Ntilde" unicode="&#xd1;" horiz-adv-x="585" 
d="M232 664q-60 0 -84.5 -25.5t-24.5 -87.5v-551h-40v557q0 143 143 143h133q143 0 143 -143v-557h-40v551q0 62 -24.5 87.5t-84.5 25.5h-121zM181 758v34q31 36 61 36q19 0 53 -20t51 -20q28 0 57 38v-34q-31 -36 -62 -36q-19 0 -53 19.5t-51 19.5q-28 0 -56 -37z" />
    <glyph glyph-name="Ograve" unicode="&#xd2;" horiz-adv-x="565" 
d="M215 0q-143 0 -143 143v414q0 143 143 143h135q143 0 143 -143v-414q0 -143 -143 -143h-135zM453 149v402q0 62 -24.5 87.5t-84.5 25.5h-123q-60 0 -84.5 -25.5t-24.5 -87.5v-402q0 -62 24.5 -87.5t84.5 -25.5h123q60 0 84.5 25.5t24.5 87.5zM294 750l-122 101h53
l107 -101h-38z" />
    <glyph glyph-name="Oacute" unicode="&#xd3;" horiz-adv-x="565" 
d="M215 0q-143 0 -143 143v414q0 143 143 143h135q143 0 143 -143v-414q0 -143 -143 -143h-135zM453 149v402q0 62 -24.5 87.5t-84.5 25.5h-123q-60 0 -84.5 -25.5t-24.5 -87.5v-402q0 -62 24.5 -87.5t84.5 -25.5h123q60 0 84.5 25.5t24.5 87.5zM394 851l-125 -101h-38
l106 101h57z" />
    <glyph glyph-name="Ocircumflex" unicode="&#xd4;" horiz-adv-x="565" 
d="M215 0q-143 0 -143 143v414q0 143 143 143h135q143 0 143 -143v-414q0 -143 -143 -143h-135zM453 149v402q0 62 -24.5 87.5t-84.5 25.5h-123q-60 0 -84.5 -25.5t-24.5 -87.5v-402q0 -62 24.5 -87.5t84.5 -25.5h123q60 0 84.5 25.5t24.5 87.5zM282 824l-100 -74h-36
l116 101h40l116 -101h-36z" />
    <glyph glyph-name="Otilde" unicode="&#xd5;" horiz-adv-x="565" 
d="M215 0q-143 0 -143 143v414q0 143 143 143h135q143 0 143 -143v-414q0 -143 -143 -143h-135zM453 149v402q0 62 -24.5 87.5t-84.5 25.5h-123q-60 0 -84.5 -25.5t-24.5 -87.5v-402q0 -62 24.5 -87.5t84.5 -25.5h123q60 0 84.5 25.5t24.5 87.5zM171 758v34q31 36 61 36
q19 0 53 -20t51 -20q28 0 57 38v-34q-31 -36 -62 -36q-19 0 -53 19.5t-51 19.5q-28 0 -56 -37z" />
    <glyph glyph-name="Odieresis" unicode="&#xd6;" horiz-adv-x="565" 
d="M215 0q-143 0 -143 143v414q0 143 143 143h135q143 0 143 -143v-414q0 -143 -143 -143h-135zM453 149v402q0 62 -24.5 87.5t-84.5 25.5h-123q-60 0 -84.5 -25.5t-24.5 -87.5v-402q0 -62 24.5 -87.5t84.5 -25.5h123q60 0 84.5 25.5t24.5 87.5zM227 817v-41h-68v41h68z
M405 817v-41h-68v41h68z" />
    <glyph glyph-name="multiply" unicode="&#xd7;" 
d="M313 331l131 -183h-42l-130 183l-131 -183h-41l131 183h-159v36h159l-131 183h41l131 -183l130 183h42l-131 -183h160v-36h-160z" />
    <glyph glyph-name="Oslash" unicode="&#xd8;" horiz-adv-x="565" 
d="M215 0q-143 0 -143 143v414q0 143 143 143h135q143 0 143 -143v-414q0 -143 -143 -143h-135zM112 149q0 -67 29 -92l251 601q-20 6 -48 6h-123q-60 0 -84.5 -25.5t-24.5 -87.5v-402zM453 149v402q0 66 -29 91l-252 -601q23 -5 49 -5h123q60 0 84.5 25.5t24.5 87.5z" />
    <glyph glyph-name="Ugrave" unicode="&#xd9;" horiz-adv-x="585" 
d="M226 0q-143 0 -143 143v557h40v-551q0 -62 24.5 -87.5t84.5 -25.5h121q60 0 84.5 25.5t24.5 87.5v551h40v-557q0 -143 -143 -143h-133zM304 750l-122 101h53l107 -101h-38z" />
    <glyph glyph-name="Uacute" unicode="&#xda;" horiz-adv-x="585" 
d="M226 0q-143 0 -143 143v557h40v-551q0 -62 24.5 -87.5t84.5 -25.5h121q60 0 84.5 25.5t24.5 87.5v551h40v-557q0 -143 -143 -143h-133zM404 851l-125 -101h-38l106 101h57z" />
    <glyph glyph-name="Ucircumflex" unicode="&#xdb;" horiz-adv-x="585" 
d="M226 0q-143 0 -143 143v557h40v-551q0 -62 24.5 -87.5t84.5 -25.5h121q60 0 84.5 25.5t24.5 87.5v551h40v-557q0 -143 -143 -143h-133zM292 824l-100 -74h-36l116 101h40l116 -101h-36z" />
    <glyph glyph-name="Udieresis" unicode="&#xdc;" horiz-adv-x="585" 
d="M226 0q-143 0 -143 143v557h40v-551q0 -62 24.5 -87.5t84.5 -25.5h121q60 0 84.5 25.5t24.5 87.5v551h40v-557q0 -143 -143 -143h-133zM237 817v-41h-68v41h68zM415 817v-41h-68v41h68z" />
    <glyph glyph-name="Yacute" unicode="&#xdd;" horiz-adv-x="544" 
d="M453 700h40v-225q0 -143 -143 -143h-58v-332h-40v332h-58q-143 0 -143 143v225h40v-219q0 -62 24.5 -87.5t84.5 -25.5h144q60 0 84.5 25.5t24.5 87.5v219zM384 851l-125 -101h-38l106 101h57z" />
    <glyph glyph-name="Thorn" unicode="&#xde;" horiz-adv-x="548" 
d="M94 0v700h40v-97h239q73 0 106 -33.5t33 -105.5v-90q0 -72 -33 -105.5t-106 -33.5h-239v-235h-40zM472 459q0 58 -24 83t-79 25h-235v-296h235q55 0 79 25t24 83v80z" />
    <glyph glyph-name="germandbls" unicode="&#xdf;" horiz-adv-x="531" 
d="M348 283h-134v36h134q51 0 70 19.5t19 71.5v58q0 54 -22.5 76.5t-76.5 22.5h-94q-66 0 -96 -29t-30 -97v-441h-40v441q0 83 40 122.5t123 39.5h100q71 0 103.5 -33t32.5 -106v-54q0 -50 -20.5 -76.5t-69.5 -32.5q49 -6 69.5 -32.5t20.5 -76.5v-53q0 -73 -32.5 -106
t-103.5 -33h-127v36h124q54 0 76.5 22.5t22.5 76.5v57q0 52 -19 71.5t-70 19.5z" />
    <glyph glyph-name="agrave" unicode="&#xe0;" horiz-adv-x="496" 
d="M389 319v141q0 59 -24 83t-83 24h-202v36h209q72 0 106 -34t34 -106v-323q0 -72 -34 -106t-106 -34h-114q-64 0 -94.5 31t-30.5 97v63q0 66 30.5 97t94.5 31h214zM389 283h-212q-47 0 -67 -20t-20 -67v-73q0 -47 20 -67t67 -20h105q59 0 83 24t24 83v140zM255 663
l-122 101h53l107 -101h-38z" />
    <glyph glyph-name="aacute" unicode="&#xe1;" horiz-adv-x="496" 
d="M389 319v141q0 59 -24 83t-83 24h-202v36h209q72 0 106 -34t34 -106v-323q0 -72 -34 -106t-106 -34h-114q-64 0 -94.5 31t-30.5 97v63q0 66 30.5 97t94.5 31h214zM389 283h-212q-47 0 -67 -20t-20 -67v-73q0 -47 20 -67t67 -20h105q59 0 83 24t24 83v140zM355 764
l-125 -101h-38l106 101h57z" />
    <glyph glyph-name="acircumflex" unicode="&#xe2;" horiz-adv-x="496" 
d="M389 319v141q0 59 -24 83t-83 24h-202v36h209q72 0 106 -34t34 -106v-323q0 -72 -34 -106t-106 -34h-114q-64 0 -94.5 31t-30.5 97v63q0 66 30.5 97t94.5 31h214zM389 283h-212q-47 0 -67 -20t-20 -67v-73q0 -47 20 -67t67 -20h105q59 0 83 24t24 83v140zM243 737
l-100 -74h-36l116 101h40l116 -101h-36z" />
    <glyph glyph-name="atilde" unicode="&#xe3;" horiz-adv-x="496" 
d="M389 319v141q0 59 -24 83t-83 24h-202v36h209q72 0 106 -34t34 -106v-323q0 -72 -34 -106t-106 -34h-114q-64 0 -94.5 31t-30.5 97v63q0 66 30.5 97t94.5 31h214zM389 283h-212q-47 0 -67 -20t-20 -67v-73q0 -47 20 -67t67 -20h105q59 0 83 24t24 83v140zM132 671v34
q31 36 61 36q19 0 53 -20t51 -20q29 0 57 38v-34q-31 -36 -62 -36q-19 0 -53 19.5t-51 19.5q-28 0 -56 -37z" />
    <glyph glyph-name="adieresis" unicode="&#xe4;" horiz-adv-x="496" 
d="M389 319v141q0 59 -24 83t-83 24h-202v36h209q72 0 106 -34t34 -106v-323q0 -72 -34 -106t-106 -34h-114q-64 0 -94.5 31t-30.5 97v63q0 66 30.5 97t94.5 31h214zM389 283h-212q-47 0 -67 -20t-20 -67v-73q0 -47 20 -67t67 -20h105q59 0 83 24t24 83v140zM188 730v-41
h-68v41h68zM366 730v-41h-68v41h68z" />
    <glyph glyph-name="aring" unicode="&#xe5;" horiz-adv-x="496" 
d="M389 319v141q0 59 -24 83t-83 24h-202v36h209q72 0 106 -34t34 -106v-323q0 -72 -34 -106t-106 -34h-114q-64 0 -94.5 31t-30.5 97v63q0 66 30.5 97t94.5 31h214zM389 283h-212q-47 0 -67 -20t-20 -67v-73q0 -47 20 -67t67 -20h105q59 0 83 24t24 83v140zM199 714
q0 -30 36 -30h16q36 0 36 30t-36 30h-16q-36 0 -36 -30zM251 663h-16q-60 0 -60 51t60 51h16q59 0 59 -51t-59 -51z" />
    <glyph glyph-name="ae" unicode="&#xe6;" horiz-adv-x="732" 
d="M642 406v74q0 47 -20 67t-67 20h-62q-59 0 -83 -24t-24 -83v-141h169q47 0 67 20t20 67zM90 196v-73q0 -47 20 -67t67 -20h62q59 0 83 24t24 83v140h-169q-47 0 -67 -20t-20 -67zM224 0h-49q-64 0 -94.5 31t-30.5 97v63q0 66 30.5 97t94.5 31h171v141q0 59 -24 83t-83 24
h-159v36h144q68 0 101 -21.5t41 -74.5q8 53 41 74.5t101 21.5h49q64 0 94.5 -31t30.5 -97v-64q0 -66 -30.5 -97t-94.5 -31h-171v-140q0 -59 24 -83t83 -24h159v-36h-144q-68 0 -101 21.5t-41 74.5q-8 -53 -41 -74.5t-101 -21.5z" />
    <glyph glyph-name="ccedilla" unicode="&#xe7;" horiz-adv-x="442" 
d="M255 0l-12 -44h52q31 0 47.5 -9.5t16.5 -36.5q0 -61 -98 -61h-131v33h130q35 0 51.5 6.5t16.5 25.5q0 15 -7.5 21t-27.5 6h-72l18 59h-32q-72 0 -106 34t-34 106v323q0 72 34 106t106 34h183v-36h-176q-59 0 -83 -24t-24 -83v-317q0 -59 24 -83t83 -24h176v-36h-135z" />
    <glyph glyph-name="egrave" unicode="&#xe8;" horiz-adv-x="496" 
d="M446 411q0 -66 -30.5 -97t-94.5 -31h-214v-140q0 -59 24 -83t83 -24h202v-36h-209q-72 0 -106 34t-34 106v323q0 72 34 106t106 34h114q64 0 94.5 -31t30.5 -97v-64zM319 567h-105q-59 0 -83 -24t-24 -83v-141h212q47 0 67 20t20 67v74q0 47 -20 67t-67 20zM275 663
l-122 101h53l107 -101h-38z" />
    <glyph glyph-name="eacute" unicode="&#xe9;" horiz-adv-x="496" 
d="M446 411q0 -66 -30.5 -97t-94.5 -31h-214v-140q0 -59 24 -83t83 -24h202v-36h-209q-72 0 -106 34t-34 106v323q0 72 34 106t106 34h114q64 0 94.5 -31t30.5 -97v-64zM319 567h-105q-59 0 -83 -24t-24 -83v-141h212q47 0 67 20t20 67v74q0 47 -20 67t-67 20zM375 764
l-125 -101h-38l106 101h57z" />
    <glyph glyph-name="ecircumflex" unicode="&#xea;" horiz-adv-x="496" 
d="M446 411q0 -66 -30.5 -97t-94.5 -31h-214v-140q0 -59 24 -83t83 -24h202v-36h-209q-72 0 -106 34t-34 106v323q0 72 34 106t106 34h114q64 0 94.5 -31t30.5 -97v-64zM319 567h-105q-59 0 -83 -24t-24 -83v-141h212q47 0 67 20t20 67v74q0 47 -20 67t-67 20zM263 737
l-100 -74h-36l116 101h40l116 -101h-36z" />
    <glyph glyph-name="edieresis" unicode="&#xeb;" horiz-adv-x="496" 
d="M446 411q0 -66 -30.5 -97t-94.5 -31h-214v-140q0 -59 24 -83t83 -24h202v-36h-209q-72 0 -106 34t-34 106v323q0 72 34 106t106 34h114q64 0 94.5 -31t30.5 -97v-64zM319 567h-105q-59 0 -83 -24t-24 -83v-141h212q47 0 67 20t20 67v74q0 47 -20 67t-67 20zM208 730v-41
h-68v41h68zM386 730v-41h-68v41h68z" />
    <glyph glyph-name="igrave" unicode="&#xec;" horiz-adv-x="287" 
d="M132 663l-122 101h53l107 -101h-38zM217 36h45v-36h-51q-71 0 -101 30t-30 100v473h40v-470q0 -58 19.5 -77.5t77.5 -19.5z" />
    <glyph glyph-name="iacute" unicode="&#xed;" horiz-adv-x="287" 
d="M222 764l-125 -101h-38l106 101h57zM217 36h45v-36h-51q-71 0 -101 30t-30 100v473h40v-470q0 -58 19.5 -77.5t77.5 -19.5z" />
    <glyph glyph-name="icircumflex" unicode="&#xee;" horiz-adv-x="287" 
d="M217 36h45v-36h-51q-71 0 -101 30t-30 100v473h40v-470q0 -58 19.5 -77.5t77.5 -19.5zM100 737l-100 -74h-36l116 101h40l116 -101h-36z" />
    <glyph glyph-name="idieresis" unicode="&#xef;" horiz-adv-x="287" 
d="M223 730v-41h-68v41h68zM45 730v-41h-68v41h68zM217 36h45v-36h-51q-71 0 -101 30t-30 100v473h40v-470q0 -58 19.5 -77.5t77.5 -19.5z" />
    <glyph glyph-name="eth" unicode="&#xf0;" horiz-adv-x="511" 
d="M207 603h71q93 0 115 -62v49q0 73 -30.5 106.5t-96.5 36.5v-85h-33v86h-126v36h126v50h33v-50q85 -3 126 -47t41 -133v-450q0 -72 -34 -106t-106 -34h-86q-72 0 -106 34t-34 106v323q0 72 34 106t106 34zM286 567h-72q-59 0 -83 -24t-24 -83v-317q0 -59 24 -83t83 -24h72
q59 0 83 24t24 83v317q0 59 -24 83t-83 24z" />
    <glyph glyph-name="ntilde" unicode="&#xf1;" horiz-adv-x="520" 
d="M78 0v463q0 72 34 106t106 34h84q72 0 106 -34t34 -106v-463h-40v460q0 59 -24 83t-83 24h-70q-59 0 -83 -24t-24 -83v-460h-40zM149 671v34q31 36 61 36q19 0 53 -20t51 -20q28 0 57 38v-34q-31 -36 -62 -36q-19 0 -53 19.5t-51 19.5q-28 0 -56 -37z" />
    <glyph glyph-name="ograve" unicode="&#xf2;" horiz-adv-x="498" 
d="M291 603q72 0 106 -34t34 -106v-323q0 -72 -34 -106t-106 -34h-84q-72 0 -106 34t-34 106v323q0 72 34 106t106 34h84zM284 36q59 0 83 24t24 83v317q0 59 -24 83t-83 24h-70q-59 0 -83 -24t-24 -83v-317q0 -59 24 -83t83 -24h70zM261 663l-122 101h53l107 -101h-38z" />
    <glyph glyph-name="oacute" unicode="&#xf3;" horiz-adv-x="498" 
d="M291 603q72 0 106 -34t34 -106v-323q0 -72 -34 -106t-106 -34h-84q-72 0 -106 34t-34 106v323q0 72 34 106t106 34h84zM284 36q59 0 83 24t24 83v317q0 59 -24 83t-83 24h-70q-59 0 -83 -24t-24 -83v-317q0 -59 24 -83t83 -24h70zM361 764l-125 -101h-38l106 101h57z" />
    <glyph glyph-name="ocircumflex" unicode="&#xf4;" horiz-adv-x="498" 
d="M291 603q72 0 106 -34t34 -106v-323q0 -72 -34 -106t-106 -34h-84q-72 0 -106 34t-34 106v323q0 72 34 106t106 34h84zM284 36q59 0 83 24t24 83v317q0 59 -24 83t-83 24h-70q-59 0 -83 -24t-24 -83v-317q0 -59 24 -83t83 -24h70zM249 737l-100 -74h-36l116 101h40
l116 -101h-36z" />
    <glyph glyph-name="otilde" unicode="&#xf5;" horiz-adv-x="498" 
d="M291 603q72 0 106 -34t34 -106v-323q0 -72 -34 -106t-106 -34h-84q-72 0 -106 34t-34 106v323q0 72 34 106t106 34h84zM284 36q59 0 83 24t24 83v317q0 59 -24 83t-83 24h-70q-59 0 -83 -24t-24 -83v-317q0 -59 24 -83t83 -24h70zM138 671v34q31 36 61 36q19 0 53 -20
t51 -20q29 0 57 38v-34q-31 -36 -62 -36q-19 0 -53 19.5t-51 19.5q-28 0 -56 -37z" />
    <glyph glyph-name="odieresis" unicode="&#xf6;" horiz-adv-x="498" 
d="M291 603q72 0 106 -34t34 -106v-323q0 -72 -34 -106t-106 -34h-84q-72 0 -106 34t-34 106v323q0 72 34 106t106 34h84zM284 36q59 0 83 24t24 83v317q0 59 -24 83t-83 24h-70q-59 0 -83 -24t-24 -83v-317q0 -59 24 -83t83 -24h70zM194 730v-41h-68v41h68zM372 730v-41
h-68v41h68z" />
    <glyph glyph-name="divide" unicode="&#xf7;" 
d="M309 151v-51h-71v51h71zM309 600v-51h-71v51h71zM473 331h-401v36h401v-36z" />
    <glyph glyph-name="oslash" unicode="&#xf8;" horiz-adv-x="498" 
d="M291 603q72 0 106 -34t34 -106v-323q0 -72 -34 -106t-106 -34h-84q-72 0 -106 34t-34 106v323q0 72 34 106t106 34h84zM284 36q59 0 83 24t24 83v317q0 78 -46 98l-173 -519q12 -3 42 -3h70zM107 143q0 -69 32 -91l171 513q-8 2 -26 2h-70q-59 0 -83 -24t-24 -83v-317z
" />
    <glyph glyph-name="ugrave" unicode="&#xf9;" horiz-adv-x="520" 
d="M295 36q59 0 83 24t24 83v460h40v-463q0 -72 -34 -106t-106 -34h-84q-72 0 -106 34t-34 106v463h40v-460q0 -59 24 -83t83 -24h70zM272 663l-122 101h53l107 -101h-38z" />
    <glyph glyph-name="uacute" unicode="&#xfa;" horiz-adv-x="520" 
d="M295 36q59 0 83 24t24 83v460h40v-463q0 -72 -34 -106t-106 -34h-84q-72 0 -106 34t-34 106v463h40v-460q0 -59 24 -83t83 -24h70zM372 764l-125 -101h-38l106 101h57z" />
    <glyph glyph-name="ucircumflex" unicode="&#xfb;" horiz-adv-x="520" 
d="M295 36q59 0 83 24t24 83v460h40v-463q0 -72 -34 -106t-106 -34h-84q-72 0 -106 34t-34 106v463h40v-460q0 -59 24 -83t83 -24h70zM260 737l-100 -74h-36l116 101h40l116 -101h-36z" />
    <glyph glyph-name="udieresis" unicode="&#xfc;" horiz-adv-x="520" 
d="M295 36q59 0 83 24t24 83v460h40v-463q0 -72 -34 -106t-106 -34h-84q-72 0 -106 34t-34 106v463h40v-460q0 -59 24 -83t83 -24h70zM205 730v-41h-68v41h68zM383 730v-41h-68v41h68z" />
    <glyph glyph-name="yacute" unicode="&#xfd;" horiz-adv-x="533" 
d="M264 -167h-146v36h142q75 0 109.5 33t34.5 111v49q-22 -62 -115 -62h-71q-72 0 -106 34t-34 106v463h40v-460q0 -59 24 -83t83 -24h72q59 0 83 24t24 83v460h40v-590q0 -92 -44 -136t-136 -44zM378 764l-125 -101h-38l106 101h57z" />
    <glyph glyph-name="thorn" unicode="&#xfe;" horiz-adv-x="522" 
d="M129 770v-167h186q72 0 106 -34t34 -106v-323q0 -72 -34 -106t-106 -34h-71q-93 0 -115 62v-229h-40v937h40zM129 567v-424q0 -59 24 -83t83 -24h72q59 0 83 24t24 83v317q0 59 -24 83t-83 24h-179z" />
    <glyph glyph-name="ydieresis" unicode="&#xff;" horiz-adv-x="533" 
d="M264 -167h-146v36h142q75 0 109.5 33t34.5 111v49q-22 -62 -115 -62h-71q-72 0 -106 34t-34 106v463h40v-460q0 -59 24 -83t83 -24h72q59 0 83 24t24 83v460h40v-590q0 -92 -44 -136t-136 -44zM211 730v-41h-68v41h68zM389 730v-41h-68v41h68z" />
    <glyph glyph-name="Amacron" unicode="&#x100;" horiz-adv-x="585" 
d="M502 0h-40v332h-339v-332h-40v557q0 143 143 143h133q143 0 143 -143v-557zM353 664h-121q-60 0 -84.5 -25.5t-24.5 -87.5v-183h339v183q0 62 -24.5 87.5t-84.5 25.5zM403 783h-222v28h222v-28z" />
    <glyph glyph-name="amacron" unicode="&#x101;" horiz-adv-x="496" 
d="M389 319v141q0 59 -24 83t-83 24h-202v36h209q72 0 106 -34t34 -106v-323q0 -72 -34 -106t-106 -34h-114q-64 0 -94.5 31t-30.5 97v63q0 66 30.5 97t94.5 31h214zM389 283h-212q-47 0 -67 -20t-20 -67v-73q0 -47 20 -67t67 -20h105q59 0 83 24t24 83v140zM354 696h-222
v28h222v-28z" />
    <glyph glyph-name="Abreve" unicode="&#x102;" horiz-adv-x="585" 
d="M502 0h-40v332h-339v-332h-40v557q0 143 143 143h133q143 0 143 -143v-557zM353 664h-121q-60 0 -84.5 -25.5t-24.5 -87.5v-183h339v183q0 62 -24.5 87.5t-84.5 25.5zM181 810v38q31 -62 111 -62t111 62v-38q-33 -57 -111 -57t-111 57z" />
    <glyph glyph-name="abreve" unicode="&#x103;" horiz-adv-x="496" 
d="M389 319v141q0 59 -24 83t-83 24h-202v36h209q72 0 106 -34t34 -106v-323q0 -72 -34 -106t-106 -34h-114q-64 0 -94.5 31t-30.5 97v63q0 66 30.5 97t94.5 31h214zM389 283h-212q-47 0 -67 -20t-20 -67v-73q0 -47 20 -67t67 -20h105q59 0 83 24t24 83v140zM132 723v38
q31 -62 111 -62t111 62v-38q-33 -57 -111 -57t-111 57z" />
    <glyph glyph-name="Aogonek" unicode="&#x104;" horiz-adv-x="585" 
d="M480 0v-62h-18q-87 0 -120.5 -8t-33.5 -29q0 -19 46 -19h155v-33h-156q-67 0 -67 44q0 36 37 49.5t129 13.5h10v376h-339v-332h-40v557q0 143 143 143h133q143 0 143 -143v-557h-22zM353 664h-121q-60 0 -84.5 -25.5t-24.5 -87.5v-183h339v183q0 62 -24.5 87.5
t-84.5 25.5z" />
    <glyph glyph-name="aogonek" unicode="&#x105;" horiz-adv-x="496" 
d="M407 -62h-18q-87 0 -120.5 -8t-33.5 -29q0 -19 46 -19h155v-33h-156q-67 0 -67 44q0 36 37 49.5t129 13.5h10v72q-34 -28 -100 -28h-114q-64 0 -94.5 31t-30.5 97v63q0 66 30.5 97t94.5 31h214v141q0 59 -24 83t-83 24h-202v36h209q72 0 106 -34t34 -106v-323
q0 -58 -22 -92v-110zM389 283h-212q-47 0 -67 -20t-20 -67v-73q0 -47 20 -67t67 -20h105q59 0 83 24t24 83v140z" />
    <glyph glyph-name="Cacute" unicode="&#x106;" horiz-adv-x="483" 
d="M215 0q-143 0 -143 143v414q0 143 143 143h218v-36h-212q-60 0 -84.5 -25.5t-24.5 -87.5v-402q0 -62 24.5 -87.5t84.5 -25.5h212v-36h-218zM367 851l-125 -101h-38l106 101h57z" />
    <glyph glyph-name="cacute" unicode="&#x107;" horiz-adv-x="442" 
d="M207 0q-72 0 -106 34t-34 106v323q0 72 34 106t106 34h183v-36h-176q-59 0 -83 -24t-24 -83v-317q0 -59 24 -83t83 -24h176v-36h-183zM358 764l-125 -101h-38l106 101h57z" />
    <glyph glyph-name="Ccircumflex" unicode="&#x108;" horiz-adv-x="483" 
d="M215 0q-143 0 -143 143v414q0 143 143 143h218v-36h-212q-60 0 -84.5 -25.5t-24.5 -87.5v-402q0 -62 24.5 -87.5t84.5 -25.5h212v-36h-218zM270 824l-100 -74h-36l116 101h40l116 -101h-36z" />
    <glyph glyph-name="ccircumflex" unicode="&#x109;" horiz-adv-x="442" 
d="M207 0q-72 0 -106 34t-34 106v323q0 72 34 106t106 34h183v-36h-176q-59 0 -83 -24t-24 -83v-317q0 -59 24 -83t83 -24h176v-36h-183zM246 737l-100 -74h-36l116 101h40l116 -101h-36z" />
    <glyph glyph-name="Cdotaccent" unicode="&#x10a;" horiz-adv-x="483" 
d="M215 0q-143 0 -143 143v414q0 143 143 143h218v-36h-212q-60 0 -84.5 -25.5t-24.5 -87.5v-402q0 -62 24.5 -87.5t84.5 -25.5h212v-36h-218zM304 817v-41h-68v41h68z" />
    <glyph glyph-name="cdotaccent" unicode="&#x10b;" horiz-adv-x="442" 
d="M207 0q-72 0 -106 34t-34 106v323q0 72 34 106t106 34h183v-36h-176q-59 0 -83 -24t-24 -83v-317q0 -59 24 -83t83 -24h176v-36h-183zM280 730v-41h-68v41h68z" />
    <glyph glyph-name="Ccaron" unicode="&#x10c;" horiz-adv-x="483" 
d="M215 0q-143 0 -143 143v414q0 143 143 143h218v-36h-212q-60 0 -84.5 -25.5t-24.5 -87.5v-402q0 -62 24.5 -87.5t84.5 -25.5h212v-36h-218zM170 851l100 -74l100 74h36l-116 -101h-40l-116 101h36z" />
    <glyph glyph-name="ccaron" unicode="&#x10d;" horiz-adv-x="442" 
d="M207 0q-72 0 -106 34t-34 106v323q0 72 34 106t106 34h183v-36h-176q-59 0 -83 -24t-24 -83v-317q0 -59 24 -83t83 -24h176v-36h-183zM146 764l100 -74l100 74h36l-116 -101h-40l-116 101h36z" />
    <glyph glyph-name="Dcaron" unicode="&#x10e;" horiz-adv-x="580" 
d="M315 700q198 0 198 -198v-304q0 -198 -198 -198h-221v700h221zM308 36q83 0 124 40t41 126v296q0 86 -40.5 126t-124.5 40h-174v-628h174zM182 851l100 -74l100 74h36l-116 -101h-40l-116 101h36z" />
    <glyph glyph-name="dcaron" unicode="&#x10f;" horiz-adv-x="683" 
d="M433 770v-630q0 -72 -34 -106t-106 -34h-86q-72 0 -106 34t-34 106v323q0 72 34 106t106 34h71q93 0 115 -63v230h40zM393 143v317q0 59 -24 83t-83 24h-72q-59 0 -83 -24t-24 -83v-317q0 -59 24 -83t83 -24h72q59 0 83 24t24 83zM631 700v-47q0 -46 -13.5 -65.5
t-48.5 -19.5h-6v16h7q17 0 24.5 11.5t7.5 40.5v17h-39v47h68z" />
    <glyph glyph-name="Dcroat" unicode="&#x110;" horiz-adv-x="580" 
d="M315 700q198 0 198 -198v-304q0 -198 -198 -198h-221v332h-74v36h74v332h221zM308 36q83 0 124 40t41 126v296q0 86 -40.5 126t-124.5 40h-174v-296h108v-36h-108v-296h174z" />
    <glyph glyph-name="dcroat" unicode="&#x111;" horiz-adv-x="511" 
d="M433 770v-79h78v-28h-78v-523q0 -72 -34 -106t-106 -34h-86q-72 0 -106 34t-34 106v323q0 72 34 106t106 34h71q93 0 115 -63v123h-104v28h104v79h40zM393 143v317q0 59 -24 83t-83 24h-72q-59 0 -83 -24t-24 -83v-317q0 -59 24 -83t83 -24h72q59 0 83 24t24 83z" />
    <glyph glyph-name="Emacron" unicode="&#x112;" horiz-adv-x="538" 
d="M94 0v700h394v-36h-354v-296h264v-36h-264v-296h354v-36h-394zM396 783h-222v28h222v-28z" />
    <glyph glyph-name="emacron" unicode="&#x113;" horiz-adv-x="496" 
d="M446 411q0 -66 -30.5 -97t-94.5 -31h-214v-140q0 -59 24 -83t83 -24h202v-36h-209q-72 0 -106 34t-34 106v323q0 72 34 106t106 34h114q64 0 94.5 -31t30.5 -97v-64zM319 567h-105q-59 0 -83 -24t-24 -83v-141h212q47 0 67 20t20 67v74q0 47 -20 67t-67 20zM374 696h-222
v28h222v-28z" />
    <glyph glyph-name="Ebreve" unicode="&#x114;" horiz-adv-x="538" 
d="M94 0v700h394v-36h-354v-296h264v-36h-264v-296h354v-36h-394zM174 810v38q31 -62 111 -62t111 62v-38q-33 -57 -111 -57t-111 57z" />
    <glyph glyph-name="ebreve" unicode="&#x115;" horiz-adv-x="496" 
d="M446 411q0 -66 -30.5 -97t-94.5 -31h-214v-140q0 -59 24 -83t83 -24h202v-36h-209q-72 0 -106 34t-34 106v323q0 72 34 106t106 34h114q64 0 94.5 -31t30.5 -97v-64zM319 567h-105q-59 0 -83 -24t-24 -83v-141h212q47 0 67 20t20 67v74q0 47 -20 67t-67 20zM152 723v38
q31 -62 111 -62t111 62v-38q-33 -57 -111 -57t-111 57z" />
    <glyph glyph-name="Edotaccent" unicode="&#x116;" horiz-adv-x="538" 
d="M94 0v700h394v-36h-354v-296h264v-36h-264v-296h354v-36h-394zM319 817v-41h-68v41h68z" />
    <glyph glyph-name="edotaccent" unicode="&#x117;" horiz-adv-x="496" 
d="M446 411q0 -66 -30.5 -97t-94.5 -31h-214v-140q0 -59 24 -83t83 -24h202v-36h-209q-72 0 -106 34t-34 106v323q0 72 34 106t106 34h114q64 0 94.5 -31t30.5 -97v-64zM319 567h-105q-59 0 -83 -24t-24 -83v-141h212q47 0 67 20t20 67v74q0 47 -20 67t-67 20zM297 730v-41
h-68v41h68z" />
    <glyph glyph-name="Eogonek" unicode="&#x118;" horiz-adv-x="538" 
d="M459 0v-62h-18q-87 0 -120.5 -8t-33.5 -29q0 -19 46 -19h155v-33h-156q-67 0 -67 44q0 36 37 49.5t129 13.5h10v44h-347v700h394v-36h-354v-296h264v-36h-264v-296h354v-36h-29z" />
    <glyph glyph-name="eogonek" unicode="&#x119;" horiz-adv-x="496" 
d="M319 567h-105q-59 0 -83 -24t-24 -83v-141h212q47 0 67 20t20 67v74q0 47 -20 67t-67 20zM380 0h-173q-72 0 -106 34t-34 106v323q0 72 34 106t106 34h114q64 0 94.5 -31t30.5 -97v-64q0 -66 -30.5 -97t-94.5 -31h-214v-140q0 -59 24 -83t83 -24h202v-36h-18v-62h-29
q-87 0 -120.5 -8t-33.5 -29q0 -19 46 -19h155v-33h-156q-67 0 -67 44q0 36 37 49.5t129 13.5h21v44z" />
    <glyph glyph-name="Ecaron" unicode="&#x11a;" horiz-adv-x="538" 
d="M94 0v700h394v-36h-354v-296h264v-36h-264v-296h354v-36h-394zM185 851l100 -74l100 74h36l-116 -101h-40l-116 101h36z" />
    <glyph glyph-name="ecaron" unicode="&#x11b;" horiz-adv-x="496" 
d="M446 411q0 -66 -30.5 -97t-94.5 -31h-214v-140q0 -59 24 -83t83 -24h202v-36h-209q-72 0 -106 34t-34 106v323q0 72 34 106t106 34h114q64 0 94.5 -31t30.5 -97v-64zM319 567h-105q-59 0 -83 -24t-24 -83v-141h212q47 0 67 20t20 67v74q0 47 -20 67t-67 20zM163 764
l100 -74l100 74h36l-116 -101h-40l-116 101h36z" />
    <glyph glyph-name="Gcircumflex" unicode="&#x11c;" horiz-adv-x="557" 
d="M353 36q59 0 79.5 20.5t20.5 80.5v195h-175v36h215v-235q0 -71 -30.5 -102t-102.5 -31h-145q-143 0 -143 143v414q0 143 143 143h253v-36h-247q-60 0 -84.5 -25.5t-24.5 -87.5v-402q0 -62 24.5 -87.5t84.5 -25.5h132zM288 824l-100 -74h-36l116 101h40l116 -101h-36z" />
    <glyph glyph-name="gcircumflex" unicode="&#x11d;" horiz-adv-x="511" 
d="M286 36q59 0 83 24t24 83v317q0 59 -24 83t-83 24h-72q-59 0 -83 -24t-24 -83v-317q0 -59 24 -83t83 -24h72zM278 0h-71q-72 0 -106 34t-34 106v323q0 72 34 106t106 34h86q72 0 106 -34t34 -106v-450q0 -92 -44 -136t-136 -44h-146v36h142q75 0 109.5 33t34.5 111v49
q-22 -62 -115 -62zM255 737l-100 -74h-36l116 101h40l116 -101h-36z" />
    <glyph glyph-name="Gbreve" unicode="&#x11e;" horiz-adv-x="557" 
d="M353 36q59 0 79.5 20.5t20.5 80.5v195h-175v36h215v-235q0 -71 -30.5 -102t-102.5 -31h-145q-143 0 -143 143v414q0 143 143 143h253v-36h-247q-60 0 -84.5 -25.5t-24.5 -87.5v-402q0 -62 24.5 -87.5t84.5 -25.5h132zM177 810v38q31 -62 111 -62t111 62v-38
q-33 -57 -111 -57t-111 57z" />
    <glyph glyph-name="gbreve" unicode="&#x11f;" horiz-adv-x="511" 
d="M286 36q59 0 83 24t24 83v317q0 59 -24 83t-83 24h-72q-59 0 -83 -24t-24 -83v-317q0 -59 24 -83t83 -24h72zM278 0h-71q-72 0 -106 34t-34 106v323q0 72 34 106t106 34h86q72 0 106 -34t34 -106v-450q0 -92 -44 -136t-136 -44h-146v36h142q75 0 109.5 33t34.5 111v49
q-22 -62 -115 -62zM144 723v38q31 -62 111 -62t111 62v-38q-33 -57 -111 -57t-111 57z" />
    <glyph glyph-name="Gdotaccent" unicode="&#x120;" horiz-adv-x="557" 
d="M353 36q59 0 79.5 20.5t20.5 80.5v195h-175v36h215v-235q0 -71 -30.5 -102t-102.5 -31h-145q-143 0 -143 143v414q0 143 143 143h253v-36h-247q-60 0 -84.5 -25.5t-24.5 -87.5v-402q0 -62 24.5 -87.5t84.5 -25.5h132zM322 817v-41h-68v41h68z" />
    <glyph glyph-name="gdotaccent" unicode="&#x121;" horiz-adv-x="511" 
d="M286 36q59 0 83 24t24 83v317q0 59 -24 83t-83 24h-72q-59 0 -83 -24t-24 -83v-317q0 -59 24 -83t83 -24h72zM278 0h-71q-72 0 -106 34t-34 106v323q0 72 34 106t106 34h86q72 0 106 -34t34 -106v-450q0 -92 -44 -136t-136 -44h-146v36h142q75 0 109.5 33t34.5 111v49
q-22 -62 -115 -62zM289 730v-41h-68v41h68z" />
    <glyph glyph-name="uni0122" unicode="&#x122;" horiz-adv-x="557" 
d="M353 36q59 0 79.5 20.5t20.5 80.5v195h-175v36h215v-235q0 -71 -30.5 -102t-102.5 -31h-145q-143 0 -143 143v414q0 143 143 143h253v-36h-247q-60 0 -84.5 -25.5t-24.5 -87.5v-402q0 -62 24.5 -87.5t84.5 -25.5h132zM319 -87v-37q0 -67 -56 -67h-6v20h8q26 0 26 34v13
h-34v37h62z" />
    <glyph glyph-name="uni0123" unicode="&#x123;" horiz-adv-x="511" 
d="M225 689v37q0 67 56 67h6v-20h-8q-26 0 -26 -34v-13h34v-37h-62zM286 36q59 0 83 24t24 83v317q0 59 -24 83t-83 24h-72q-59 0 -83 -24t-24 -83v-317q0 -59 24 -83t83 -24h72zM278 0h-71q-72 0 -106 34t-34 106v323q0 72 34 106t106 34h86q72 0 106 -34t34 -106v-450
q0 -92 -44 -136t-136 -44h-146v36h142q75 0 109.5 33t34.5 111v49q-22 -62 -115 -62z" />
    <glyph glyph-name="Hcircumflex" unicode="&#x124;" horiz-adv-x="625" 
d="M491 0v332h-357v-332h-40v700h40v-332h357v332h40v-700h-40zM312 824l-100 -74h-36l116 101h40l116 -101h-36z" />
    <glyph glyph-name="hcircumflex" unicode="&#x125;" horiz-adv-x="533" 
d="M415 460q0 59 -24 83t-83 24h-72q-59 0 -83 -24t-24 -83v-460h-40v770h40v-230q22 63 115 63h71q72 0 106 -34t34 -106v-463h-40v460zM276 737l-100 -74h-36l116 101h40l116 -101h-36z" />
    <glyph glyph-name="Hbar" unicode="&#x126;" horiz-adv-x="625" 
d="M491 0v332h-357v-332h-40v506h-36v36h36v158h40v-158h357v158h40v-158h36v-36h-36v-506h-40zM134 368h357v138h-357v-138z" />
    <glyph glyph-name="hbar" unicode="&#x127;" horiz-adv-x="533" 
d="M415 460q0 59 -24 83t-83 24h-72q-59 0 -83 -24t-24 -83v-460h-40v663h-89v28h89v79h40v-79h93v-28h-93v-123q22 63 115 63h71q72 0 106 -34t34 -106v-463h-40v460z" />
    <glyph glyph-name="Itilde" unicode="&#x128;" horiz-adv-x="228" 
d="M94 0v700h40v-700h-40zM3 758v34q31 36 61 36q19 0 53 -20t51 -20q28 0 57 38v-34q-31 -36 -62 -36q-19 0 -53 19.5t-51 19.5q-28 0 -56 -37z" />
    <glyph glyph-name="itilde" unicode="&#x129;" horiz-adv-x="287" 
d="M-11 671v34q31 36 61 36q19 0 53 -20t51 -20q28 0 57 38v-34q-31 -36 -62 -36q-19 0 -53 19.5t-51 19.5q-28 0 -56 -37zM217 36h45v-36h-51q-71 0 -101 30t-30 100v473h40v-470q0 -58 19.5 -77.5t77.5 -19.5z" />
    <glyph glyph-name="Imacron" unicode="&#x12a;" horiz-adv-x="228" 
d="M225 785h-222v24h222v-24zM94 0v700h40v-700h-40z" />
    <glyph glyph-name="imacron" unicode="&#x12b;" horiz-adv-x="287" 
d="M211 698h-222v24h222v-24zM217 36h45v-36h-51q-71 0 -101 30t-30 100v473h40v-470q0 -58 19.5 -77.5t77.5 -19.5z" />
    <glyph glyph-name="Ibreve" unicode="&#x12c;" horiz-adv-x="228" 
d="M94 0v700h40v-700h-40zM3 810v38q31 -62 111 -62t111 62v-38q-33 -57 -111 -57t-111 57z" />
    <glyph glyph-name="ibreve" unicode="&#x12d;" horiz-adv-x="287" 
d="M-11 723v38q31 -62 111 -62t111 62v-38q-33 -57 -111 -57t-111 57zM217 36h45v-36h-51q-71 0 -101 30t-30 100v473h40v-470q0 -58 19.5 -77.5t77.5 -19.5z" />
    <glyph glyph-name="Iogonek" unicode="&#x12e;" horiz-adv-x="228" 
d="M94 0v700h40v-700h-5v-62h-18q-116 0 -116 -37q0 -19 47 -19h105v-33h-106q-67 0 -67 44q0 35 34 49t103 14v44h-17z" />
    <glyph glyph-name="iogonek" unicode="&#x12f;" horiz-adv-x="287" 
d="M134 730v-41h-68v41h68zM226 0h-15q-71 0 -101 30t-30 100v473h40v-470q0 -58 19.5 -77.5t77.5 -19.5h45v-36h-18v-62h-29q-87 0 -120.5 -8t-33.5 -29q0 -19 46 -19h155v-33h-156q-67 0 -67 44q0 36 37 49.5t129 13.5h21v44z" />
    <glyph glyph-name="Idotaccent" unicode="&#x130;" horiz-adv-x="228" 
d="M94 0v700h40v-700h-40zM148 817v-41h-68v41h68z" />
    <glyph glyph-name="dotlessi" unicode="&#x131;" horiz-adv-x="287" 
d="M217 36h45v-36h-51q-71 0 -101 30t-30 100v473h40v-470q0 -58 19.5 -77.5t77.5 -19.5z" />
    <glyph glyph-name="IJ" unicode="&#x132;" horiz-adv-x="773" 
d="M94 0v700h40v-700h-40zM279 133v209h40v-205q0 -60 20 -80.5t79 -20.5h123q60 0 84.5 25.5t24.5 87.5v551h40v-557q0 -143 -143 -143h-135q-72 0 -102.5 31t-30.5 102z" />
    <glyph glyph-name="Jcircumflex" unicode="&#x134;" 
d="M51 133v209h40v-205q0 -60 20 -80.5t79 -20.5h123q60 0 84.5 25.5t24.5 87.5v551h40v-557q0 -143 -143 -143h-135q-72 0 -102.5 31t-30.5 102zM423 824l-100 -74h-36l116 101h40l116 -101h-36z" />
    <glyph glyph-name="jcircumflex" unicode="&#x135;" horiz-adv-x="231" 
d="M-25 -131h30q59 0 78 19t19 78v637h40v-640q0 -72 -29 -101t-102 -29h-36v36zM122 737l-100 -74h-36l116 101h40l116 -101h-36z" />
    <glyph glyph-name="uni0136" unicode="&#x136;" horiz-adv-x="588" 
d="M513 700v-220q0 -58 -23 -90t-79 -40q56 -8 79 -40t23 -90v-220h-40v220q0 60 -23 86t-81 26h-235v-332h-40v700h40v-332h235q58 0 81 26t23 86v220h40zM325 -87v-37q0 -67 -56 -67h-6v20h8q26 0 26 34v13h-34v37h62z" />
    <glyph glyph-name="uni0137" unicode="&#x137;" horiz-adv-x="518" 
d="M413 390v213h40v-187q0 -55 -18 -82t-59 -33q41 -6 59 -33t18 -82v-186h-40v212q0 38 -17 54.5t-55 16.5h-212v-283h-40v770h40v-451h212q38 0 55 16.5t17 54.5zM302 -87v-37q0 -67 -56 -67h-6v20h8q26 0 26 34v13h-34v37h62z" />
    <glyph glyph-name="kgreenlandic" unicode="&#x138;" horiz-adv-x="518" 
d="M413 390v213h40v-187q0 -55 -18 -82t-59 -33q41 -6 59 -33t18 -82v-186h-40v212q0 38 -17 54.5t-55 16.5h-212v-283h-40v603h40v-284h212q38 0 55 16.5t17 54.5z" />
    <glyph glyph-name="Lacute" unicode="&#x139;" horiz-adv-x="500" 
d="M480 36v-36h-386v700h40v-664h346zM266 851l-125 -101h-38l106 101h57z" />
    <glyph glyph-name="lacute" unicode="&#x13a;" horiz-adv-x="285" 
d="M215 36h45v-36h-51q-71 0 -101 30t-30 100v640h40v-637q0 -58 19.5 -77.5t77.5 -19.5zM220 931l-125 -101h-38l106 101h57z" />
    <glyph glyph-name="uni013B" unicode="&#x13b;" horiz-adv-x="500" 
d="M480 36v-36h-386v700h40v-664h346zM301 -87v-37q0 -67 -56 -67h-6v20h8q26 0 26 34v13h-34v37h62z" />
    <glyph glyph-name="uni013C" unicode="&#x13c;" horiz-adv-x="285" 
d="M215 36h45v-36h-51q-71 0 -101 30t-30 100v640h40v-637q0 -58 19.5 -77.5t77.5 -19.5zM173 -87v-37q0 -67 -56 -67h-6v20h8q26 0 26 34v13h-34v37h62z" />
    <glyph glyph-name="Lcaron" unicode="&#x13d;" horiz-adv-x="500" 
d="M480 36v-36h-386v700h40v-664h346zM435 700v-47q0 -46 -13.5 -65.5t-48.5 -19.5h-6v16h7q17 0 24.5 11.5t7.5 40.5v17h-39v47h68z" />
    <glyph glyph-name="lcaron" unicode="&#x13e;" horiz-adv-x="397" 
d="M215 36h45v-36h-51q-71 0 -101 30t-30 100v640h40v-637q0 -58 19.5 -77.5t77.5 -19.5zM345 700v-47q0 -46 -13.5 -65.5t-48.5 -19.5h-6v16h7q17 0 24.5 11.5t7.5 40.5v17h-39v47h68z" />
    <glyph glyph-name="Ldot" unicode="&#x13f;" horiz-adv-x="500" 
d="M480 36v-36h-386v700h40v-664h346zM388 375v-51h-68v51h68z" />
    <glyph glyph-name="ldot" unicode="&#x140;" horiz-adv-x="457" 
d="M215 36h45v-36h-51q-71 0 -101 30t-30 100v640h40v-637q0 -58 19.5 -77.5t77.5 -19.5zM355 375v-51h-68v51h68z" />
    <glyph glyph-name="Lslash" unicode="&#x141;" horiz-adv-x="500" 
d="M480 36v-36h-386v258l-74 -49v36l74 49v406h40v-379l186 124v-36l-186 -124v-249h346z" />
    <glyph glyph-name="lslash" unicode="&#x142;" horiz-adv-x="285" 
d="M215 36h45v-36h-51q-71 0 -101 30t-30 100v218l-58 -39v36l58 39v386h40v-360l147 99v-36l-147 -99v-241q0 -58 19.5 -77.5t77.5 -19.5z" />
    <glyph glyph-name="Nacute" unicode="&#x143;" horiz-adv-x="585" 
d="M232 664q-60 0 -84.5 -25.5t-24.5 -87.5v-551h-40v557q0 143 143 143h133q143 0 143 -143v-557h-40v551q0 62 -24.5 87.5t-84.5 25.5h-121zM404 851l-125 -101h-38l106 101h57z" />
    <glyph glyph-name="nacute" unicode="&#x144;" horiz-adv-x="520" 
d="M78 0v463q0 72 34 106t106 34h84q72 0 106 -34t34 -106v-463h-40v460q0 59 -24 83t-83 24h-70q-59 0 -83 -24t-24 -83v-460h-40zM372 764l-125 -101h-38l106 101h57z" />
    <glyph glyph-name="uni0145" unicode="&#x145;" horiz-adv-x="585" 
d="M232 664q-60 0 -84.5 -25.5t-24.5 -87.5v-551h-40v557q0 143 143 143h133q143 0 143 -143v-557h-40v551q0 62 -24.5 87.5t-84.5 25.5h-121zM323 -87v-37q0 -67 -56 -67h-6v20h8q26 0 26 34v13h-34v37h62z" />
    <glyph glyph-name="uni0146" unicode="&#x146;" horiz-adv-x="520" 
d="M78 0v463q0 72 34 106t106 34h84q72 0 106 -34t34 -106v-463h-40v460q0 59 -24 83t-83 24h-70q-59 0 -83 -24t-24 -83v-460h-40zM291 -87v-37q0 -67 -56 -67h-6v20h8q26 0 26 34v13h-34v37h62z" />
    <glyph glyph-name="Ncaron" unicode="&#x147;" horiz-adv-x="585" 
d="M232 664q-60 0 -84.5 -25.5t-24.5 -87.5v-551h-40v557q0 143 143 143h133q143 0 143 -143v-557h-40v551q0 62 -24.5 87.5t-84.5 25.5h-121zM192 851l100 -74l100 74h36l-116 -101h-40l-116 101h36z" />
    <glyph glyph-name="ncaron" unicode="&#x148;" horiz-adv-x="520" 
d="M78 0v463q0 72 34 106t106 34h84q72 0 106 -34t34 -106v-463h-40v460q0 59 -24 83t-83 24h-70q-59 0 -83 -24t-24 -83v-460h-40zM160 764l100 -74l100 74h36l-116 -101h-40l-116 101h36z" />
    <glyph glyph-name="napostrophe" unicode="&#x149;" horiz-adv-x="622" 
d="M180 0v463q0 72 34 106t106 34h84q72 0 106 -34t34 -106v-463h-40v460q0 59 -24 83t-83 24h-70q-59 0 -83 -24t-24 -83v-460h-40zM120 700v-47q0 -46 -13.5 -65.5t-48.5 -19.5h-6v16h7q17 0 24.5 11.5t7.5 40.5v17h-39v47h68z" />
    <glyph glyph-name="Eng" unicode="&#x14a;" horiz-adv-x="585" 
d="M232 664q-60 0 -84.5 -25.5t-24.5 -87.5v-551h-40v557q0 143 143 143h133q143 0 143 -143v-581q0 -143 -143 -143h-67v36h61q60 0 84.5 25.5t24.5 87.5v569q0 62 -24.5 87.5t-84.5 25.5h-121z" />
    <glyph glyph-name="eng" unicode="&#x14b;" horiz-adv-x="520" 
d="M275 -131h30q59 0 78 19t19 78v494q0 59 -24 83t-83 24h-70q-59 0 -83 -24t-24 -83v-460h-40v463q0 72 34 106t106 34h84q72 0 106 -34t34 -106v-500q0 -72 -29 -101t-102 -29h-36v36z" />
    <glyph glyph-name="Omacron" unicode="&#x14c;" horiz-adv-x="565" 
d="M215 0q-143 0 -143 143v414q0 143 143 143h135q143 0 143 -143v-414q0 -143 -143 -143h-135zM453 149v402q0 62 -24.5 87.5t-84.5 25.5h-123q-60 0 -84.5 -25.5t-24.5 -87.5v-402q0 -62 24.5 -87.5t84.5 -25.5h123q60 0 84.5 25.5t24.5 87.5zM393 783h-222v28h222v-28z
" />
    <glyph glyph-name="omacron" unicode="&#x14d;" horiz-adv-x="498" 
d="M291 603q72 0 106 -34t34 -106v-323q0 -72 -34 -106t-106 -34h-84q-72 0 -106 34t-34 106v323q0 72 34 106t106 34h84zM284 36q59 0 83 24t24 83v317q0 59 -24 83t-83 24h-70q-59 0 -83 -24t-24 -83v-317q0 -59 24 -83t83 -24h70zM360 696h-222v28h222v-28z" />
    <glyph glyph-name="Obreve" unicode="&#x14e;" horiz-adv-x="565" 
d="M215 0q-143 0 -143 143v414q0 143 143 143h135q143 0 143 -143v-414q0 -143 -143 -143h-135zM453 149v402q0 62 -24.5 87.5t-84.5 25.5h-123q-60 0 -84.5 -25.5t-24.5 -87.5v-402q0 -62 24.5 -87.5t84.5 -25.5h123q60 0 84.5 25.5t24.5 87.5zM171 810v38q31 -62 111 -62
t111 62v-38q-33 -57 -111 -57t-111 57z" />
    <glyph glyph-name="obreve" unicode="&#x14f;" horiz-adv-x="498" 
d="M291 603q72 0 106 -34t34 -106v-323q0 -72 -34 -106t-106 -34h-84q-72 0 -106 34t-34 106v323q0 72 34 106t106 34h84zM284 36q59 0 83 24t24 83v317q0 59 -24 83t-83 24h-70q-59 0 -83 -24t-24 -83v-317q0 -59 24 -83t83 -24h70zM138 723v38q31 -62 111 -62t111 62v-38
q-33 -57 -111 -57t-111 57z" />
    <glyph glyph-name="Ohungarumlaut" unicode="&#x150;" horiz-adv-x="565" 
d="M215 0q-143 0 -143 143v414q0 143 143 143h135q143 0 143 -143v-414q0 -143 -143 -143h-135zM453 149v402q0 62 -24.5 87.5t-84.5 25.5h-123q-60 0 -84.5 -25.5t-24.5 -87.5v-402q0 -62 24.5 -87.5t84.5 -25.5h123q60 0 84.5 25.5t24.5 87.5zM468 851l-125 -101h-38
l106 101h57zM322 851l-125 -101h-38l106 101h57z" />
    <glyph glyph-name="ohungarumlaut" unicode="&#x151;" horiz-adv-x="498" 
d="M291 603q72 0 106 -34t34 -106v-323q0 -72 -34 -106t-106 -34h-84q-72 0 -106 34t-34 106v323q0 72 34 106t106 34h84zM284 36q59 0 83 24t24 83v317q0 59 -24 83t-83 24h-70q-59 0 -83 -24t-24 -83v-317q0 -59 24 -83t83 -24h70zM434 764l-125 -101h-38l106 101h57z
M288 764l-125 -101h-38l106 101h57z" />
    <glyph glyph-name="OE" unicode="&#x152;" horiz-adv-x="858" 
d="M215 0q-143 0 -143 143v414q0 143 143 143h593v-36h-338v-296h248v-36h-248v-296h338v-36h-593zM430 36v628h-209q-60 0 -84.5 -25.5t-24.5 -87.5v-402q0 -62 24.5 -87.5t84.5 -25.5h209z" />
    <glyph glyph-name="oe" unicode="&#x153;" horiz-adv-x="748" 
d="M362 143v317q0 59 -24 83t-83 24h-41q-59 0 -83 -24t-24 -83v-317q0 -59 24 -83t83 -24h41q59 0 83 24t24 83zM658 406v74q0 47 -20 67t-67 20h-62q-59 0 -83 -24t-24 -83v-141h169q47 0 67 20t20 67zM402 283v-140q0 -59 24 -83t83 -24h159v-36h-144q-68 0 -101 21.5
t-41 74.5q-8 -53 -41 -74.5t-101 -21.5h-33q-72 0 -106 34t-34 106v323q0 72 34 106t106 34h33q68 0 101 -21.5t41 -74.5q8 53 41 74.5t101 21.5h49q64 0 94.5 -31t30.5 -97v-64q0 -66 -30.5 -97t-94.5 -31h-171z" />
    <glyph glyph-name="Racute" unicode="&#x154;" horiz-adv-x="586" 
d="M513 561v-84q0 -56 -22.5 -87.5t-77.5 -40.5q55 -9 77.5 -40.5t22.5 -88.5v-220h-40v220q0 60 -23 86t-81 26h-235v-332h-40v700h280q73 0 106 -33.5t33 -105.5zM369 368q59 0 81.5 25t22.5 84v79q0 58 -24 83t-79 25h-236v-296h235zM405 851l-125 -101h-38l106 101h57z
" />
    <glyph glyph-name="racute" unicode="&#x155;" horiz-adv-x="345" 
d="M320 603v-36h-95q-59 0 -83 -24t-24 -83v-460h-40v463q0 72 34 106t106 34h102zM324 764l-125 -101h-38l106 101h57z" />
    <glyph glyph-name="uni0156" unicode="&#x156;" horiz-adv-x="586" 
d="M513 561v-84q0 -56 -22.5 -87.5t-77.5 -40.5q55 -9 77.5 -40.5t22.5 -88.5v-220h-40v220q0 60 -23 86t-81 26h-235v-332h-40v700h280q73 0 106 -33.5t33 -105.5zM369 368q59 0 81.5 25t22.5 84v79q0 58 -24 83t-79 25h-236v-296h235zM339 -87v-37q0 -67 -56 -67h-6v20h8
q26 0 26 34v13h-34v37h62z" />
    <glyph glyph-name="uni0157" unicode="&#x157;" horiz-adv-x="345" 
d="M320 603v-36h-95q-59 0 -83 -24t-24 -83v-460h-40v463q0 72 34 106t106 34h102zM129 -87v-37q0 -67 -56 -67h-6v20h8q26 0 26 34v13h-34v37h62z" />
    <glyph glyph-name="Rcaron" unicode="&#x158;" horiz-adv-x="586" 
d="M513 561v-84q0 -56 -22.5 -87.5t-77.5 -40.5q55 -9 77.5 -40.5t22.5 -88.5v-220h-40v220q0 60 -23 86t-81 26h-235v-332h-40v700h280q73 0 106 -33.5t33 -105.5zM369 368q59 0 81.5 25t22.5 84v79q0 58 -24 83t-79 25h-236v-296h235zM193 851l100 -74l100 74h36
l-116 -101h-40l-116 101h36z" />
    <glyph glyph-name="rcaron" unicode="&#x159;" horiz-adv-x="345" 
d="M320 603v-36h-95q-59 0 -83 -24t-24 -83v-460h-40v463q0 72 34 106t106 34h102zM112 764l100 -74l100 74h36l-116 -101h-40l-116 101h36z" />
    <glyph glyph-name="Sacute" unicode="&#x15a;" horiz-adv-x="510" 
d="M198 332q-73 0 -106 33.5t-33 105.5v90q0 72 33 105.5t106 33.5h232v-36h-228q-55 0 -79 -25t-24 -83v-80q0 -58 24 -83t79 -25h114q73 0 106 -33.5t33 -105.5v-90q0 -72 -33 -105.5t-106 -33.5h-262v36h258q55 0 79 25t24 83v80q0 58 -24 83t-79 25h-114zM367 851
l-125 -101h-38l106 101h57z" />
    <glyph glyph-name="sacute" unicode="&#x15b;" horiz-adv-x="458" 
d="M378 567h-197q-47 0 -67 -20t-20 -67v-74q0 -47 20 -67t67 -20h102q64 0 94.5 -31t30.5 -97v-63q0 -66 -30.5 -97t-94.5 -31h-229v36h227q47 0 67 20t20 67v73q0 47 -20 67t-67 20h-102q-64 0 -94.5 31t-30.5 97v64q0 66 30.5 97t94.5 31h199v-36zM341 764l-125 -101h-38
l106 101h57z" />
    <glyph glyph-name="Scircumflex" unicode="&#x15c;" horiz-adv-x="510" 
d="M198 332q-73 0 -106 33.5t-33 105.5v90q0 72 33 105.5t106 33.5h232v-36h-228q-55 0 -79 -25t-24 -83v-80q0 -58 24 -83t79 -25h114q73 0 106 -33.5t33 -105.5v-90q0 -72 -33 -105.5t-106 -33.5h-262v36h258q55 0 79 25t24 83v80q0 58 -24 83t-79 25h-114zM255 824
l-100 -74h-36l116 101h40l116 -101h-36z" />
    <glyph glyph-name="scircumflex" unicode="&#x15d;" horiz-adv-x="458" 
d="M378 567h-197q-47 0 -67 -20t-20 -67v-74q0 -47 20 -67t67 -20h102q64 0 94.5 -31t30.5 -97v-63q0 -66 -30.5 -97t-94.5 -31h-229v36h227q47 0 67 20t20 67v73q0 47 -20 67t-67 20h-102q-64 0 -94.5 31t-30.5 97v64q0 66 30.5 97t94.5 31h199v-36zM229 737l-100 -74h-36
l116 101h40l116 -101h-36z" />
    <glyph glyph-name="Scedilla" unicode="&#x15e;" horiz-adv-x="510" 
d="M266 0l-12 -44h52q31 0 47.5 -9.5t16.5 -36.5q0 -61 -98 -61h-131v33h130q35 0 51.5 6.5t16.5 25.5q0 15 -7.5 21t-27.5 6h-72l18 59h-196v36h258q55 0 79 25t24 83v80q0 58 -24 83t-79 25h-114q-73 0 -106 33.5t-33 105.5v90q0 72 33 105.5t106 33.5h232v-36h-228
q-55 0 -79 -25t-24 -83v-80q0 -58 24 -83t79 -25h114q73 0 106 -33.5t33 -105.5v-90q0 -72 -33 -105.5t-106 -33.5h-50z" />
    <glyph glyph-name="scedilla" unicode="&#x15f;" horiz-adv-x="458" 
d="M234 0l-12 -44h52q31 0 47.5 -9.5t16.5 -36.5q0 -61 -98 -61h-131v33h130q35 0 51.5 6.5t16.5 25.5q0 15 -7.5 21t-27.5 6h-72l18 59h-164v36h227q47 0 67 20t20 67v73q0 47 -20 67t-67 20h-102q-64 0 -94.5 31t-30.5 97v64q0 66 30.5 97t94.5 31h199v-36h-197
q-47 0 -67 -20t-20 -67v-74q0 -47 20 -67t67 -20h102q64 0 94.5 -31t30.5 -97v-63q0 -66 -30.5 -97t-94.5 -31h-49z" />
    <glyph glyph-name="Scaron" unicode="&#x160;" horiz-adv-x="510" 
d="M198 332q-73 0 -106 33.5t-33 105.5v90q0 72 33 105.5t106 33.5h232v-36h-228q-55 0 -79 -25t-24 -83v-80q0 -58 24 -83t79 -25h114q73 0 106 -33.5t33 -105.5v-90q0 -72 -33 -105.5t-106 -33.5h-262v36h258q55 0 79 25t24 83v80q0 58 -24 83t-79 25h-114zM155 851
l100 -74l100 74h36l-116 -101h-40l-116 101h36z" />
    <glyph glyph-name="scaron" unicode="&#x161;" horiz-adv-x="458" 
d="M378 567h-197q-47 0 -67 -20t-20 -67v-74q0 -47 20 -67t67 -20h102q64 0 94.5 -31t30.5 -97v-63q0 -66 -30.5 -97t-94.5 -31h-229v36h227q47 0 67 20t20 67v73q0 47 -20 67t-67 20h-102q-64 0 -94.5 31t-30.5 97v64q0 66 30.5 97t94.5 31h199v-36zM129 764l100 -74
l100 74h36l-116 -101h-40l-116 101h36z" />
    <glyph glyph-name="uni0162" unicode="&#x162;" horiz-adv-x="461" 
d="M242 0l-12 -44h52q31 0 47.5 -9.5t16.5 -36.5q0 -61 -98 -61h-131v33h130q35 0 51.5 6.5t16.5 25.5q0 15 -7.5 21t-27.5 6h-72l18 59h-15v664h-191v36h421v-36h-190v-664h-9z" />
    <glyph glyph-name="uni0163" unicode="&#x163;" horiz-adv-x="380" 
d="M201 0l-13 -44h52q31 0 47.5 -9.5t16.5 -36.5q0 -61 -98 -61h-131v33h130q35 0 51.5 6.5t16.5 25.5q0 15 -7.5 21t-27.5 6h-72l19 61q-107 13 -107 138v630h40v-167h210v-36h-210v-424q0 -59 24 -83t83 -24h103v-36h-127z" />
    <glyph glyph-name="Tcaron" unicode="&#x164;" horiz-adv-x="461" 
d="M441 700v-36h-190v-664h-40v664h-191v36h421zM130 851l100 -74l100 74h36l-116 -101h-40l-116 101h36z" />
    <glyph glyph-name="tcaron" unicode="&#x165;" horiz-adv-x="562" 
d="M218 0q-72 0 -106 34t-34 106v630h40v-167h210v-36h-210v-424q0 -59 24 -83t83 -24h103v-36h-110zM510 700v-47q0 -46 -13.5 -65.5t-48.5 -19.5h-6v16h7q17 0 24.5 11.5t7.5 40.5v17h-39v47h68z" />
    <glyph glyph-name="Tbar" unicode="&#x166;" horiz-adv-x="461" 
d="M441 700v-36h-190v-200h90v-36h-90v-428h-40v428h-92v36h92v200h-191v36h421z" />
    <glyph glyph-name="tbar" unicode="&#x167;" horiz-adv-x="380" 
d="M218 0q-72 0 -106 34t-34 106v263h-78v36h78v331h40v-167h210v-36h-210v-128h148v-36h-148v-260q0 -59 24 -83t83 -24h103v-36h-110z" />
    <glyph glyph-name="Utilde" unicode="&#x168;" horiz-adv-x="585" 
d="M226 0q-143 0 -143 143v557h40v-551q0 -62 24.5 -87.5t84.5 -25.5h121q60 0 84.5 25.5t24.5 87.5v551h40v-557q0 -143 -143 -143h-133zM181 758v34q31 36 61 36q19 0 53 -20t51 -20q28 0 57 38v-34q-31 -36 -62 -36q-19 0 -53 19.5t-51 19.5q-28 0 -56 -37z" />
    <glyph glyph-name="utilde" unicode="&#x169;" horiz-adv-x="520" 
d="M295 36q59 0 83 24t24 83v460h40v-463q0 -72 -34 -106t-106 -34h-84q-72 0 -106 34t-34 106v463h40v-460q0 -59 24 -83t83 -24h70zM149 671v34q31 36 61 36q19 0 53 -20t51 -20q28 0 57 38v-34q-31 -36 -62 -36q-19 0 -53 19.5t-51 19.5q-28 0 -56 -37z" />
    <glyph glyph-name="Umacron" unicode="&#x16a;" horiz-adv-x="585" 
d="M226 0q-143 0 -143 143v557h40v-551q0 -62 24.5 -87.5t84.5 -25.5h121q60 0 84.5 25.5t24.5 87.5v551h40v-557q0 -143 -143 -143h-133zM403 783h-222v28h222v-28z" />
    <glyph glyph-name="umacron" unicode="&#x16b;" horiz-adv-x="520" 
d="M295 36q59 0 83 24t24 83v460h40v-463q0 -72 -34 -106t-106 -34h-84q-72 0 -106 34t-34 106v463h40v-460q0 -59 24 -83t83 -24h70zM371 696h-222v28h222v-28z" />
    <glyph glyph-name="Ubreve" unicode="&#x16c;" horiz-adv-x="585" 
d="M226 0q-143 0 -143 143v557h40v-551q0 -62 24.5 -87.5t84.5 -25.5h121q60 0 84.5 25.5t24.5 87.5v551h40v-557q0 -143 -143 -143h-133zM181 810v38q31 -62 111 -62t111 62v-38q-33 -57 -111 -57t-111 57z" />
    <glyph glyph-name="ubreve" unicode="&#x16d;" horiz-adv-x="520" 
d="M295 36q59 0 83 24t24 83v460h40v-463q0 -72 -34 -106t-106 -34h-84q-72 0 -106 34t-34 106v463h40v-460q0 -59 24 -83t83 -24h70zM149 723v38q31 -62 111 -62t111 62v-38q-33 -57 -111 -57t-111 57z" />
    <glyph glyph-name="Uring" unicode="&#x16e;" horiz-adv-x="585" 
d="M226 0q-143 0 -143 143v557h40v-551q0 -62 24.5 -87.5t84.5 -25.5h121q60 0 84.5 25.5t24.5 87.5v551h40v-557q0 -143 -143 -143h-133zM249 801q0 -30 36 -30h16q36 0 36 30t-36 30h-16q-36 0 -36 -30zM301 750h-16q-60 0 -60 51t60 51h16q59 0 59 -51t-59 -51z" />
    <glyph glyph-name="uring" unicode="&#x16f;" horiz-adv-x="520" 
d="M295 36q59 0 83 24t24 83v460h40v-463q0 -72 -34 -106t-106 -34h-84q-72 0 -106 34t-34 106v463h40v-460q0 -59 24 -83t83 -24h70zM216 714q0 -30 36 -30h16q36 0 36 30t-36 30h-16q-36 0 -36 -30zM268 663h-16q-60 0 -60 51t60 51h16q59 0 59 -51t-59 -51z" />
    <glyph glyph-name="Uhungarumlaut" unicode="&#x170;" horiz-adv-x="585" 
d="M226 0q-143 0 -143 143v557h40v-551q0 -62 24.5 -87.5t84.5 -25.5h121q60 0 84.5 25.5t24.5 87.5v551h40v-557q0 -143 -143 -143h-133zM477 851l-125 -101h-38l106 101h57zM331 851l-125 -101h-38l106 101h57z" />
    <glyph glyph-name="uhungarumlaut" unicode="&#x171;" horiz-adv-x="520" 
d="M295 36q59 0 83 24t24 83v460h40v-463q0 -72 -34 -106t-106 -34h-84q-72 0 -106 34t-34 106v463h40v-460q0 -59 24 -83t83 -24h70zM445 764l-125 -101h-38l106 101h57zM299 764l-125 -101h-38l106 101h57z" />
    <glyph glyph-name="Uogonek" unicode="&#x172;" horiz-adv-x="585" 
d="M480 -62h-18q-87 0 -120.5 -8t-33.5 -29q0 -19 46 -19h155v-33h-156q-67 0 -67 44q0 36 37 49.5t129 13.5h10v74q-36 -30 -103 -30h-133q-143 0 -143 143v557h40v-551q0 -62 24.5 -87.5t84.5 -25.5h121q60 0 84.5 25.5t24.5 87.5v551h40v-557q0 -58 -22 -92v-113z" />
    <glyph glyph-name="uogonek" unicode="&#x173;" horiz-adv-x="520" 
d="M421 -62h-18q-87 0 -120.5 -8t-33.5 -29q0 -19 46 -19h155v-33h-156q-67 0 -67 44q0 36 37 49.5t129 13.5h10v73q-33 -29 -101 -29h-84q-72 0 -106 34t-34 106v463h40v-460q0 -59 24 -83t83 -24h70q59 0 83 24t24 83v460h40v-463q0 -57 -21 -90v-112z" />
    <glyph glyph-name="Wcircumflex" unicode="&#x174;" horiz-adv-x="862" 
d="M636 0h-66q-66 0 -99 24t-40 81q-7 -57 -40 -81t-99 -24h-66q-143 0 -143 143v557h40v-551q0 -62 24.5 -87.5t84.5 -25.5h70q60 0 84.5 25.5t24.5 87.5v551h40v-551q0 -62 24.5 -87.5t84.5 -25.5h70q60 0 84.5 25.5t24.5 87.5v551h40v-557q0 -143 -143 -143zM431 824
l-100 -74h-36l116 101h40l116 -101h-36z" />
    <glyph glyph-name="wcircumflex" unicode="&#x175;" horiz-adv-x="800" 
d="M400 96q-8 -53 -41 -74.5t-101 -21.5h-40q-72 0 -106 34t-34 106v463h40v-460q0 -59 24 -83t83 -24h48q59 0 83 24t24 83v460h40v-460q0 -59 24 -83t83 -24h48q59 0 83 24t24 83v460h40v-463q0 -72 -34 -106t-106 -34h-40q-68 0 -101 21.5t-41 74.5zM400 737l-100 -74
h-36l116 101h40l116 -101h-36z" />
    <glyph glyph-name="Ycircumflex" unicode="&#x176;" horiz-adv-x="544" 
d="M453 700h40v-225q0 -143 -143 -143h-58v-332h-40v332h-58q-143 0 -143 143v225h40v-219q0 -62 24.5 -87.5t84.5 -25.5h144q60 0 84.5 25.5t24.5 87.5v219zM272 824l-100 -74h-36l116 101h40l116 -101h-36z" />
    <glyph glyph-name="ycircumflex" unicode="&#x177;" horiz-adv-x="533" 
d="M264 -167h-146v36h142q75 0 109.5 33t34.5 111v49q-22 -62 -115 -62h-71q-72 0 -106 34t-34 106v463h40v-460q0 -59 24 -83t83 -24h72q59 0 83 24t24 83v460h40v-590q0 -92 -44 -136t-136 -44zM266 737l-100 -74h-36l116 101h40l116 -101h-36z" />
    <glyph glyph-name="Ydieresis" unicode="&#x178;" horiz-adv-x="544" 
d="M453 700h40v-225q0 -143 -143 -143h-58v-332h-40v332h-58q-143 0 -143 143v225h40v-219q0 -62 24.5 -87.5t84.5 -25.5h144q60 0 84.5 25.5t24.5 87.5v219zM217 817v-41h-68v41h68zM395 817v-41h-68v41h68z" />
    <glyph glyph-name="Zacute" unicode="&#x179;" horiz-adv-x="522" 
d="M285 368q78 0 110 31t32 111v154h-350v36h390v-196q0 -172 -172 -172h-61q-78 0 -110 -31t-32 -111v-154h375v-36h-415v196q0 172 172 172h61zM383 851l-125 -101h-38l106 101h57z" />
    <glyph glyph-name="zacute" unicode="&#x17a;" horiz-adv-x="471" 
d="M217 283q-65 0 -94.5 -29.5t-29.5 -94.5v-123h324v-36h-364v156q0 163 163 163h37q65 0 94.5 29.5t29.5 94.5v124h-304v36h344v-157q0 -163 -163 -163h-37zM362 764l-125 -101h-38l106 101h57z" />
    <glyph glyph-name="Zdotaccent" unicode="&#x17b;" horiz-adv-x="522" 
d="M285 368q78 0 110 31t32 111v154h-350v36h390v-196q0 -172 -172 -172h-61q-78 0 -110 -31t-32 -111v-154h375v-36h-415v196q0 172 172 172h61zM305 817v-41h-68v41h68z" />
    <glyph glyph-name="zdotaccent" unicode="&#x17c;" horiz-adv-x="471" 
d="M217 283q-65 0 -94.5 -29.5t-29.5 -94.5v-123h324v-36h-364v156q0 163 163 163h37q65 0 94.5 29.5t29.5 94.5v124h-304v36h344v-157q0 -163 -163 -163h-37zM284 730v-41h-68v41h68z" />
    <glyph glyph-name="Zcaron" unicode="&#x17d;" horiz-adv-x="522" 
d="M285 368q78 0 110 31t32 111v154h-350v36h390v-196q0 -172 -172 -172h-61q-78 0 -110 -31t-32 -111v-154h375v-36h-415v196q0 172 172 172h61zM171 851l100 -74l100 74h36l-116 -101h-40l-116 101h36z" />
    <glyph glyph-name="zcaron" unicode="&#x17e;" horiz-adv-x="471" 
d="M217 283q-65 0 -94.5 -29.5t-29.5 -94.5v-123h324v-36h-364v156q0 163 163 163h37q65 0 94.5 29.5t29.5 94.5v124h-304v36h344v-157q0 -163 -163 -163h-37zM150 764l100 -74l100 74h36l-116 -101h-40l-116 101h36z" />
    <glyph glyph-name="florin" unicode="&#x192;" 
d="M442 368v-36h-218v-190q0 -72 -34.5 -107t-107.5 -35h-34v36h29q59 0 83 24t24 83v189h-136v36h136v190q0 72 34.5 107t107.5 35h196v-36h-191q-59 0 -83 -24t-24 -83v-189h218z" />
    <glyph glyph-name="AEacute" unicode="&#x1fc;" horiz-adv-x="866" 
d="M440 0v332h-317v-332h-40v557q0 143 143 143h590v-36h-340v-296h250v-36h-250v-296h340v-36h-376zM232 664q-60 0 -84.5 -25.5t-24.5 -87.5v-183h317v296h-208zM570 851l-125 -101h-38l106 101h57z" />
    <glyph glyph-name="aeacute" unicode="&#x1fd;" horiz-adv-x="732" 
d="M642 406v74q0 47 -20 67t-67 20h-62q-59 0 -83 -24t-24 -83v-141h169q47 0 67 20t20 67zM90 196v-73q0 -47 20 -67t67 -20h62q59 0 83 24t24 83v140h-169q-47 0 -67 -20t-20 -67zM224 0h-49q-64 0 -94.5 31t-30.5 97v63q0 66 30.5 97t94.5 31h171v141q0 59 -24 83t-83 24
h-159v36h144q68 0 101 -21.5t41 -74.5q8 53 41 74.5t101 21.5h49q64 0 94.5 -31t30.5 -97v-64q0 -66 -30.5 -97t-94.5 -31h-171v-140q0 -59 24 -83t83 -24h159v-36h-144q-68 0 -101 21.5t-41 74.5q-8 -53 -41 -74.5t-101 -21.5zM478 764l-125 -101h-38l106 101h57z" />
    <glyph glyph-name="Oslashacute" unicode="&#x1fe;" horiz-adv-x="565" 
d="M215 0q-143 0 -143 143v414q0 143 143 143h135q143 0 143 -143v-414q0 -143 -143 -143h-135zM112 149q0 -67 29 -92l251 601q-20 6 -48 6h-123q-60 0 -84.5 -25.5t-24.5 -87.5v-402zM453 149v402q0 66 -29 91l-252 -601q23 -5 49 -5h123q60 0 84.5 25.5t24.5 87.5z
M394 851l-125 -101h-38l106 101h57z" />
    <glyph glyph-name="oslashacute" unicode="&#x1ff;" horiz-adv-x="498" 
d="M291 603q72 0 106 -34t34 -106v-323q0 -72 -34 -106t-106 -34h-84q-72 0 -106 34t-34 106v323q0 72 34 106t106 34h84zM284 36q59 0 83 24t24 83v317q0 78 -46 98l-173 -519q12 -3 42 -3h70zM107 143q0 -69 32 -91l171 513q-8 2 -26 2h-70q-59 0 -83 -24t-24 -83v-317z
M361 764l-125 -101h-38l106 101h57z" />
    <glyph glyph-name="uni0218" unicode="&#x218;" horiz-adv-x="510" 
d="M198 332q-73 0 -106 33.5t-33 105.5v90q0 72 33 105.5t106 33.5h232v-36h-228q-55 0 -79 -25t-24 -83v-80q0 -58 24 -83t79 -25h114q73 0 106 -33.5t33 -105.5v-90q0 -72 -33 -105.5t-106 -33.5h-262v36h258q55 0 79 25t24 83v80q0 58 -24 83t-79 25h-114zM286 -87v-37
q0 -67 -56 -67h-6v20h8q26 0 26 34v13h-34v37h62z" />
    <glyph glyph-name="uni0219" unicode="&#x219;" horiz-adv-x="458" 
d="M378 567h-197q-47 0 -67 -20t-20 -67v-74q0 -47 20 -67t67 -20h102q64 0 94.5 -31t30.5 -97v-63q0 -66 -30.5 -97t-94.5 -31h-229v36h227q47 0 67 20t20 67v73q0 47 -20 67t-67 20h-102q-64 0 -94.5 31t-30.5 97v64q0 66 30.5 97t94.5 31h199v-36zM250 -87v-37
q0 -67 -56 -67h-6v20h8q26 0 26 34v13h-34v37h62z" />
    <glyph glyph-name="uni021A" unicode="&#x21a;" horiz-adv-x="461" 
d="M441 700v-36h-190v-664h-40v664h-191v36h421zM261 -87v-37q0 -67 -56 -67h-6v20h8q26 0 26 34v13h-34v37h62z" />
    <glyph glyph-name="uni021B" unicode="&#x21b;" horiz-adv-x="380" 
d="M218 0q-72 0 -106 34t-34 106v630h40v-167h210v-36h-210v-424q0 -59 24 -83t83 -24h103v-36h-110zM221 -87v-37q0 -67 -56 -67h-6v20h8q26 0 26 34v13h-34v37h62z" />
    <glyph glyph-name="uni0237" unicode="&#x237;" horiz-adv-x="231" 
d="M-25 -131h30q59 0 78 19t19 78v637h40v-640q0 -72 -29 -101t-102 -29h-36v36z" />
    <glyph glyph-name="circumflex" unicode="&#x2c6;" horiz-adv-x="230" 
d="M115 737l-100 -74h-36l116 101h40l116 -101h-36z" />
    <glyph glyph-name="caron" unicode="&#x2c7;" horiz-adv-x="230" 
d="M15 764l100 -74l100 74h36l-116 -101h-40l-116 101h36z" />
    <glyph glyph-name="breve" unicode="&#x2d8;" horiz-adv-x="230" 
d="M4 723v38q31 -62 111 -62t111 62v-38q-33 -57 -111 -57t-111 57z" />
    <glyph glyph-name="dotaccent" unicode="&#x2d9;" horiz-adv-x="230" 
d="M149 730v-41h-68v41h68z" />
    <glyph glyph-name="ring" unicode="&#x2da;" horiz-adv-x="230" 
d="M71 714q0 -30 36 -30h16q36 0 36 30t-36 30h-16q-36 0 -36 -30zM123 663h-16q-60 0 -60 51t60 51h16q59 0 59 -51t-59 -51z" />
    <glyph glyph-name="ogonek" unicode="&#x2db;" horiz-adv-x="250" 
d="M207 -62h-18q-87 0 -120.5 -8t-33.5 -29q0 -19 46 -19h155v-33h-156q-67 0 -67 44q0 36 37 49.5t129 13.5h10v44h18v-62z" />
    <glyph glyph-name="tilde" unicode="&#x2dc;" horiz-adv-x="230" 
d="M4 671v34q31 36 61 36q19 0 53 -20t51 -20q29 0 57 38v-34q-31 -36 -62 -36q-19 0 -53 19.5t-51 19.5q-28 0 -56 -37z" />
    <glyph glyph-name="hungarumlaut" unicode="&#x2dd;" horiz-adv-x="230" 
d="M280 764l-125 -101h-38l106 101h57zM134 764l-125 -101h-38l106 101h57z" />
    <glyph glyph-name="pi" unicode="&#x3c0;" 
d="M91 0v603h363v-603h-40v567h-283v-567h-40z" />
    <glyph glyph-name="uni1E02" unicode="&#x1e02;" horiz-adv-x="579" 
d="M513 223v-84q0 -72 -33 -105.5t-106 -33.5h-280v700h280q73 0 106 -33.5t33 -105.5v-84q0 -56 -22 -87t-76 -40q54 -9 76 -40t22 -87zM369 368q59 0 81.5 25t22.5 84v79q0 58 -24 83t-79 25h-236v-296h235zM134 332v-296h236q55 0 79 25t24 83v79q0 59 -22.5 84t-81.5 25
h-235zM327 817v-41h-68v41h68z" />
    <glyph glyph-name="uni1E03" unicode="&#x1e03;" horiz-adv-x="511" 
d="M78 140v630h40v-230q22 63 115 63h71q72 0 106 -34t34 -106v-323q0 -72 -34 -106t-106 -34h-86q-72 0 -106 34t-34 106zM118 460v-317q0 -59 24 -83t83 -24h72q59 0 83 24t24 83v317q0 59 -24 83t-83 24h-72q-59 0 -83 -24t-24 -83zM309 730v-41h-68v41h68z" />
    <glyph glyph-name="uni1E0A" unicode="&#x1e0a;" horiz-adv-x="580" 
d="M315 700q198 0 198 -198v-304q0 -198 -198 -198h-221v700h221zM308 36q83 0 124 40t41 126v296q0 86 -40.5 126t-124.5 40h-174v-628h174zM316 817v-41h-68v41h68z" />
    <glyph glyph-name="uni1E0B" unicode="&#x1e0b;" horiz-adv-x="511" 
d="M433 770v-630q0 -72 -34 -106t-106 -34h-86q-72 0 -106 34t-34 106v323q0 72 34 106t106 34h71q93 0 115 -63v230h40zM393 143v317q0 59 -24 83t-83 24h-72q-59 0 -83 -24t-24 -83v-317q0 -59 24 -83t83 -24h72q59 0 83 24t24 83zM269 730v-41h-68v41h68z" />
    <glyph glyph-name="uni1E1E" unicode="&#x1e1e;" horiz-adv-x="505" 
d="M94 0v700h391v-36h-351v-296h261v-36h-261v-332h-40zM307 817v-41h-68v41h68z" />
    <glyph glyph-name="uni1E1F" unicode="&#x1e1f;" horiz-adv-x="420" 
d="M244 567q-66 0 -96 -29t-30 -97v-122h232v-36h-232v-283h-40v441q0 83 40 122.5t123 39.5h154v-36h-151zM279 730v-41h-68v41h68z" />
    <glyph glyph-name="uni1E40" unicode="&#x1e40;" horiz-adv-x="862" 
d="M570 700h66q143 0 143 -143v-557h-40v551q0 62 -24.5 87.5t-84.5 25.5h-70q-60 0 -84.5 -25.5t-24.5 -87.5v-551h-40v551q0 62 -24.5 87.5t-84.5 25.5h-70q-60 0 -84.5 -25.5t-24.5 -87.5v-551h-40v557q0 143 143 143h66q66 0 99 -24t40 -81q7 57 40 81t99 24zM465 817
v-41h-68v41h68z" />
    <glyph glyph-name="uni1E41" unicode="&#x1e41;" horiz-adv-x="800" 
d="M400 507q8 53 41 74.5t101 21.5h40q72 0 106 -34t34 -106v-463h-40v460q0 59 -24 83t-83 24h-48q-59 0 -83 -24t-24 -83v-460h-40v460q0 59 -24 83t-83 24h-48q-59 0 -83 -24t-24 -83v-460h-40v463q0 72 34 106t106 34h40q68 0 101 -21.5t41 -74.5zM434 730v-41h-68v41
h68z" />
    <glyph glyph-name="uni1E56" unicode="&#x1e56;" horiz-adv-x="548" 
d="M94 0v700h279q73 0 106 -33.5t33 -105.5v-90q0 -72 -33 -105.5t-106 -33.5h-239v-332h-40zM472 556q0 58 -24 83t-79 25h-235v-296h235q55 0 79 25t24 83v80zM326 817v-41h-68v41h68z" />
    <glyph glyph-name="uni1E57" unicode="&#x1e57;" horiz-adv-x="511" 
d="M78 -167v630q0 72 34 106t106 34h86q72 0 106 -34t34 -106v-323q0 -72 -34 -106t-106 -34h-71q-93 0 -115 63v-230h-40zM118 460v-317q0 -59 24 -83t83 -24h72q59 0 83 24t24 83v317q0 59 -24 83t-83 24h-72q-59 0 -83 -24t-24 -83zM289 730v-41h-68v41h68z" />
    <glyph glyph-name="uni1E60" unicode="&#x1e60;" horiz-adv-x="510" 
d="M198 332q-73 0 -106 33.5t-33 105.5v90q0 72 33 105.5t106 33.5h232v-36h-228q-55 0 -79 -25t-24 -83v-80q0 -58 24 -83t79 -25h114q73 0 106 -33.5t33 -105.5v-90q0 -72 -33 -105.5t-106 -33.5h-262v36h258q55 0 79 25t24 83v80q0 58 -24 83t-79 25h-114zM289 817v-41
h-68v41h68z" />
    <glyph glyph-name="uni1E61" unicode="&#x1e61;" horiz-adv-x="458" 
d="M378 567h-197q-47 0 -67 -20t-20 -67v-74q0 -47 20 -67t67 -20h102q64 0 94.5 -31t30.5 -97v-63q0 -66 -30.5 -97t-94.5 -31h-229v36h227q47 0 67 20t20 67v73q0 47 -20 67t-67 20h-102q-64 0 -94.5 31t-30.5 97v64q0 66 30.5 97t94.5 31h199v-36zM263 730v-41h-68v41h68
z" />
    <glyph glyph-name="uni1E6A" unicode="&#x1e6a;" horiz-adv-x="461" 
d="M441 700v-36h-190v-664h-40v664h-191v36h421zM264 817v-41h-68v41h68z" />
    <glyph glyph-name="uni1E6B" unicode="&#x1e6b;" horiz-adv-x="380" 
d="M218 0q-72 0 -106 34t-34 106v630h40v-167h210v-36h-210v-424q0 -59 24 -83t83 -24h103v-36h-110zM263 730v-41h-68v41h68z" />
    <glyph glyph-name="Wgrave" unicode="&#x1e80;" horiz-adv-x="862" 
d="M636 0h-66q-66 0 -99 24t-40 81q-7 -57 -40 -81t-99 -24h-66q-143 0 -143 143v557h40v-551q0 -62 24.5 -87.5t84.5 -25.5h70q60 0 84.5 25.5t24.5 87.5v551h40v-551q0 -62 24.5 -87.5t84.5 -25.5h70q60 0 84.5 25.5t24.5 87.5v551h40v-557q0 -143 -143 -143zM443 750
l-122 101h53l107 -101h-38z" />
    <glyph glyph-name="wgrave" unicode="&#x1e81;" horiz-adv-x="800" 
d="M400 96q-8 -53 -41 -74.5t-101 -21.5h-40q-72 0 -106 34t-34 106v463h40v-460q0 -59 24 -83t83 -24h48q59 0 83 24t24 83v460h40v-460q0 -59 24 -83t83 -24h48q59 0 83 24t24 83v460h40v-463q0 -72 -34 -106t-106 -34h-40q-68 0 -101 21.5t-41 74.5zM412 663l-122 101h53
l107 -101h-38z" />
    <glyph glyph-name="Wacute" unicode="&#x1e82;" horiz-adv-x="862" 
d="M636 0h-66q-66 0 -99 24t-40 81q-7 -57 -40 -81t-99 -24h-66q-143 0 -143 143v557h40v-551q0 -62 24.5 -87.5t84.5 -25.5h70q60 0 84.5 25.5t24.5 87.5v551h40v-551q0 -62 24.5 -87.5t84.5 -25.5h70q60 0 84.5 25.5t24.5 87.5v551h40v-557q0 -143 -143 -143zM543 851
l-125 -101h-38l106 101h57z" />
    <glyph glyph-name="wacute" unicode="&#x1e83;" horiz-adv-x="800" 
d="M400 96q-8 -53 -41 -74.5t-101 -21.5h-40q-72 0 -106 34t-34 106v463h40v-460q0 -59 24 -83t83 -24h48q59 0 83 24t24 83v460h40v-460q0 -59 24 -83t83 -24h48q59 0 83 24t24 83v460h40v-463q0 -72 -34 -106t-106 -34h-40q-68 0 -101 21.5t-41 74.5zM512 764l-125 -101
h-38l106 101h57z" />
    <glyph glyph-name="Wdieresis" unicode="&#x1e84;" horiz-adv-x="862" 
d="M636 0h-66q-66 0 -99 24t-40 81q-7 -57 -40 -81t-99 -24h-66q-143 0 -143 143v557h40v-551q0 -62 24.5 -87.5t84.5 -25.5h70q60 0 84.5 25.5t24.5 87.5v551h40v-551q0 -62 24.5 -87.5t84.5 -25.5h70q60 0 84.5 25.5t24.5 87.5v551h40v-557q0 -143 -143 -143zM376 817v-41
h-68v41h68zM554 817v-41h-68v41h68z" />
    <glyph glyph-name="wdieresis" unicode="&#x1e85;" horiz-adv-x="800" 
d="M400 96q-8 -53 -41 -74.5t-101 -21.5h-40q-72 0 -106 34t-34 106v463h40v-460q0 -59 24 -83t83 -24h48q59 0 83 24t24 83v460h40v-460q0 -59 24 -83t83 -24h48q59 0 83 24t24 83v460h40v-463q0 -72 -34 -106t-106 -34h-40q-68 0 -101 21.5t-41 74.5zM345 730v-41h-68v41
h68zM523 730v-41h-68v41h68z" />
    <glyph glyph-name="Ygrave" unicode="&#x1ef2;" horiz-adv-x="544" 
d="M453 700h40v-225q0 -143 -143 -143h-58v-332h-40v332h-58q-143 0 -143 143v225h40v-219q0 -62 24.5 -87.5t84.5 -25.5h144q60 0 84.5 25.5t24.5 87.5v219zM284 750l-122 101h53l107 -101h-38z" />
    <glyph glyph-name="ygrave" unicode="&#x1ef3;" horiz-adv-x="533" 
d="M264 -167h-146v36h142q75 0 109.5 33t34.5 111v49q-22 -62 -115 -62h-71q-72 0 -106 34t-34 106v463h40v-460q0 -59 24 -83t83 -24h72q59 0 83 24t24 83v460h40v-590q0 -92 -44 -136t-136 -44zM278 663l-122 101h53l107 -101h-38z" />
    <glyph glyph-name="uni2010" unicode="&#x2010;" horiz-adv-x="398" 
d="M354 345v-36h-310v36h310z" />
    <glyph glyph-name="figuredash" unicode="&#x2012;" 
d="M545 345v-36h-545v36h545z" />
    <glyph glyph-name="endash" unicode="&#x2013;" horiz-adv-x="500" 
d="M500 345v-36h-500v36h500z" />
    <glyph glyph-name="emdash" unicode="&#x2014;" horiz-adv-x="1000" 
d="M1000 345v-36h-1000v36h1000z" />
    <glyph glyph-name="quoteleft" unicode="&#x2018;" horiz-adv-x="272" 
d="M102 568v47q0 46 13.5 65.5t48.5 19.5h6v-16h-7q-17 0 -24.5 -11.5t-7.5 -40.5v-17h39v-47h-68z" />
    <glyph glyph-name="quoteright" unicode="&#x2019;" horiz-adv-x="272" 
d="M170 700v-47q0 -46 -13.5 -65.5t-48.5 -19.5h-6v16h7q17 0 24.5 11.5t7.5 40.5v17h-39v47h68z" />
    <glyph glyph-name="quotesinglbase" unicode="&#x201a;" horiz-adv-x="272" 
d="M170 51v-47q0 -46 -13.5 -65.5t-48.5 -19.5h-6v16h7q17 0 24.5 11.5t7.5 40.5v17h-39v47h68z" />
    <glyph glyph-name="quotedblleft" unicode="&#x201c;" horiz-adv-x="432" 
d="M262 568v47q0 46 13.5 65.5t48.5 19.5h6v-16h-7q-17 0 -24.5 -11.5t-7.5 -40.5v-17h39v-47h-68zM102 568v47q0 46 13.5 65.5t48.5 19.5h6v-16h-7q-17 0 -24.5 -11.5t-7.5 -40.5v-17h39v-47h-68z" />
    <glyph glyph-name="quotedblright" unicode="&#x201d;" horiz-adv-x="432" 
d="M330 700v-47q0 -46 -13.5 -65.5t-48.5 -19.5h-6v16h7q17 0 24.5 11.5t7.5 40.5v17h-39v47h68zM170 700v-47q0 -46 -13.5 -65.5t-48.5 -19.5h-6v16h7q17 0 24.5 11.5t7.5 40.5v17h-39v47h68z" />
    <glyph glyph-name="quotedblbase" unicode="&#x201e;" horiz-adv-x="432" 
d="M330 51v-47q0 -46 -13.5 -65.5t-48.5 -19.5h-6v16h7q17 0 24.5 11.5t7.5 40.5v17h-39v47h68zM170 51v-47q0 -46 -13.5 -65.5t-48.5 -19.5h-6v16h7q17 0 24.5 11.5t7.5 40.5v17h-39v47h68z" />
    <glyph glyph-name="dagger" unicode="&#x2020;" horiz-adv-x="487" 
d="M451 481v-36h-188v-577h-40v577h-187v36h187v259h40v-259h188z" />
    <glyph glyph-name="daggerdbl" unicode="&#x2021;" horiz-adv-x="487" 
d="M451 206v-36h-188v-302h-40v302h-187v36h187v239h-187v36h187v259h40v-259h188v-36h-188v-239h188z" />
    <glyph glyph-name="bullet" unicode="&#x2022;" horiz-adv-x="500" 
d="M301 163h-102q-133 0 -133 125v124q0 125 133 125h102q133 0 133 -125v-124q0 -125 -133 -125z" />
    <glyph glyph-name="ellipsis" unicode="&#x2026;" horiz-adv-x="592" 
d="M170 51v-51h-68v51h68zM330 51v-51h-68v51h68zM490 51v-51h-68v51h68z" />
    <glyph glyph-name="perthousand" unicode="&#x2030;" horiz-adv-x="1395" 
d="M380 0l199 700h36l-199 -700h-36zM599 114v306q0 58 27.5 86t86.5 28h104q59 0 86.5 -28t27.5 -86v-306q0 -58 -27.5 -86t-86.5 -28h-104q-59 0 -86.5 28t-27.5 86zM891 111v312q0 40 -18 57.5t-56 17.5h-104q-38 0 -56 -17.5t-18 -57.5v-312q0 -40 18 -57.5t56 -17.5
h104q38 0 56 17.5t18 57.5zM999 114v306q0 58 27.5 86t86.5 28h104q59 0 86.5 -28t27.5 -86v-306q0 -58 -27.5 -86t-86.5 -28h-104q-59 0 -86.5 28t-27.5 86zM1291 111v312q0 40 -18 57.5t-56 17.5h-104q-38 0 -56 -17.5t-18 -57.5v-312q0 -40 18 -57.5t56 -17.5h104
q38 0 56 17.5t18 57.5zM64 280v306q0 58 27.5 86t86.5 28h104q59 0 86.5 -28t27.5 -86v-306q0 -58 -27.5 -86t-86.5 -28h-104q-59 0 -86.5 28t-27.5 86zM356 277v312q0 40 -18 57.5t-56 17.5h-104q-38 0 -56 -17.5t-18 -57.5v-312q0 -40 18 -57.5t56 -17.5h104q38 0 56 17.5
t18 57.5z" />
    <glyph glyph-name="guilsinglleft" unicode="&#x2039;" horiz-adv-x="258" 
d="M229 51h-41l-159 249l159 249h41l-159 -249z" />
    <glyph glyph-name="guilsinglright" unicode="&#x203a;" horiz-adv-x="258" 
d="M70 51h-41l159 249l-159 249h41l159 -249z" />
    <glyph glyph-name="fraction" unicode="&#x2044;" horiz-adv-x="299" 
d="M32 0l199 700h36l-199 -700h-36z" />
    <glyph glyph-name="zerosuperior" unicode="&#x2070;" horiz-adv-x="460" 
d="M64 280v306q0 58 27.5 86t86.5 28h104q59 0 86.5 -28t27.5 -86v-306q0 -58 -27.5 -86t-86.5 -28h-104q-59 0 -86.5 28t-27.5 86zM356 277v312q0 40 -18 57.5t-56 17.5h-104q-38 0 -56 -17.5t-18 -57.5v-312q0 -40 18 -57.5t56 -17.5h104q38 0 56 17.5t18 57.5z" />
    <glyph glyph-name="foursuperior" unicode="&#x2074;" horiz-adv-x="460" 
d="M336 451v249h40v-534h-40v249h-176q-59 0 -86.5 28t-27.5 86v171h40v-174q0 -40 18 -57.5t56 -17.5h176z" />
    <glyph glyph-name="zeroinferior" unicode="&#x2080;" horiz-adv-x="460" 
d="M64 114v306q0 58 27.5 86t86.5 28h104q59 0 86.5 -28t27.5 -86v-306q0 -58 -27.5 -86t-86.5 -28h-104q-59 0 -86.5 28t-27.5 86zM356 111v312q0 40 -18 57.5t-56 17.5h-104q-38 0 -56 -17.5t-18 -57.5v-312q0 -40 18 -57.5t56 -17.5h104q38 0 56 17.5t18 57.5z" />
    <glyph glyph-name="oneinferior" unicode="&#x2081;" horiz-adv-x="460" 
d="M126 0v36h129v462h-129v36h169v-498h103v-36h-272z" />
    <glyph glyph-name="twoinferior" unicode="&#x2082;" horiz-adv-x="460" 
d="M374 362v59q0 43 -16.5 60t-58.5 17h-227v36h229q58 0 85.5 -28t27.5 -86v-57q0 -58 -27.5 -86t-85.5 -28h-101q-63 0 -86.5 -23.5t-23.5 -85.5v-104h324v-36h-364v146q0 139 139 139h110q42 0 58.5 17t16.5 60z" />
    <glyph glyph-name="threeinferior" unicode="&#x2083;" horiz-adv-x="460" 
d="M410 420v-49q0 -47 -16.5 -72.5t-63.5 -31.5q47 -6 63.5 -31.5t16.5 -72.5v-49q0 -58 -27.5 -86t-85.5 -28h-255v36h253q42 0 58.5 17t16.5 60v60q0 40 -17.5 58t-55.5 18h-179v36h179q38 0 55.5 18t17.5 58v60q0 43 -16.5 60t-58.5 17h-253v36h255q58 0 85.5 -28
t27.5 -86z" />
    <glyph glyph-name="fourinferior" unicode="&#x2084;" horiz-adv-x="460" 
d="M336 285v249h40v-534h-40v249h-176q-59 0 -86.5 28t-27.5 86v171h40v-174q0 -40 18 -57.5t56 -17.5h176z" />
    <glyph glyph-name="Euro" unicode="&#x20ac;" 
d="M236 0q-143 0 -143 143v189h-70v36h70v189q0 143 143 143h261v-36h-255q-60 0 -84.5 -25.5t-24.5 -87.5v-183h267v-36h-267v-183q0 -62 24.5 -87.5t84.5 -25.5h255v-36h-261z" />
    <glyph glyph-name="uni2117" unicode="&#x2117;" horiz-adv-x="681" 
d="M288 367h99q27 0 27 26v55q0 26 -27 26h-99v-107zM454 442v-43q0 -68 -68 -68h-98v-142h-40v321h138q68 0 68 -68zM231 0q-81 0 -120 39t-39 119v384q0 80 39 119t120 39h219q81 0 120 -39t39 -119v-384q0 -80 -39 -119t-120 -39h-219zM233 36h215q62 0 91.5 30t29.5 92
v384q0 62 -29.5 92t-91.5 30h-215q-62 0 -91.5 -30t-29.5 -92v-384q0 -62 29.5 -92t91.5 -30z" />
    <glyph glyph-name="trademark" unicode="&#x2122;" horiz-adv-x="1049" 
d="M661 167v405q0 47 -19.5 69.5t-62.5 22.5h-80q-38 0 -54 -16.5t-16 -55.5v-425h-40v419q0 58 27.5 86t86.5 28h56q58 0 87 -22t35 -70q6 48 35 70t87 22h56q59 0 86.5 -28t27.5 -86v-419h-40v425q0 39 -16 55.5t-54 16.5h-80q-43 0 -62.5 -22.5t-19.5 -69.5v-405h-40z
M316 700v-36h-124v-497h-40v497h-124v36h288z" />
    <glyph glyph-name="uni2126" unicode="&#x2126;" 
d="M446 357v199q0 58 -24 83t-79 25h-141q-55 0 -79 -25t-24 -83v-199q0 -58 24 -83t79 -25h16v-249h-164v36h124v177q-62 4 -90.5 38t-28.5 101v209q0 72 33 105.5t106 33.5h149q73 0 106 -33.5t33 -105.5v-209q0 -67 -28.5 -101t-90.5 -38v-177h124v-36h-164v249h16
q55 0 79 25t24 83z" />
    <glyph glyph-name="onethird" unicode="&#x2153;" horiz-adv-x="995" 
d="M126 166v36h129v462h-129v36h169v-498h103v-36h-272zM380 0l199 700h36l-199 -700h-36zM945 420v-49q0 -47 -16.5 -72.5t-63.5 -31.5q47 -6 63.5 -31.5t16.5 -72.5v-49q0 -58 -27.5 -86t-85.5 -28h-255v36h253q42 0 58.5 17t16.5 60v60q0 40 -17.5 58t-55.5 18h-179v36
h179q38 0 55.5 18t17.5 58v60q0 43 -16.5 60t-58.5 17h-253v36h255q58 0 85.5 -28t27.5 -86z" />
    <glyph glyph-name="twothirds" unicode="&#x2154;" horiz-adv-x="995" 
d="M374 528v59q0 43 -16.5 60t-58.5 17h-227v36h229q58 0 85.5 -28t27.5 -86v-57q0 -58 -27.5 -86t-85.5 -28h-101q-63 0 -86.5 -23.5t-23.5 -85.5v-104h324v-36h-364v146q0 139 139 139h110q42 0 58.5 17t16.5 60zM380 0l199 700h36l-199 -700h-36zM945 420v-49
q0 -47 -16.5 -72.5t-63.5 -31.5q47 -6 63.5 -31.5t16.5 -72.5v-49q0 -58 -27.5 -86t-85.5 -28h-255v36h253q42 0 58.5 17t16.5 60v60q0 40 -17.5 58t-55.5 18h-179v36h179q38 0 55.5 18t17.5 58v60q0 43 -16.5 60t-58.5 17h-253v36h255q58 0 85.5 -28t27.5 -86z" />
    <glyph glyph-name="partialdiff" unicode="&#x2202;" 
d="M475 502v-363q0 -72 -33 -105.5t-106 -33.5h-145q-73 0 -106 33.5t-33 105.5v90q0 72 33 105.5t106 33.5h244v130q0 86 -41 126t-124 40h-193v36h201q197 0 197 -198zM92 224v-80q0 -58 24 -83t79 -25h137q55 0 79 25t24 83v188h-240q-55 0 -79 -25t-24 -83z" />
    <glyph glyph-name="uni2206" unicode="&#x2206;" 
d="M54 0l218 714l218 -714h-436zM272 593l-170 -557h340z" />
    <glyph glyph-name="product" unicode="&#x220f;" 
d="M433 -132v796h-321v-796h-40v832h401v-832h-40z" />
    <glyph glyph-name="summation" unicode="&#x2211;" 
d="M473 -96v-36h-401v28l289 388l-289 388v28h401v-36h-352l283 -380l-283 -380h352z" />
    <glyph glyph-name="minus" unicode="&#x2212;" 
d="M72 331v36h401v-36h-401z" />
    <glyph glyph-name="radical" unicode="&#x221a;" 
d="M289 0l-85 331h-132v36h160l80 -322l162 655h37l-174 -700h-48z" />
    <glyph glyph-name="infinity" unicode="&#x221e;" horiz-adv-x="733" 
d="M345 317q-12 0 -23.5 12.5t-14.5 12.5t-11 -2t-14 -2q-8 0 -14.5 8t-6.5 17q0 22 8 35q-7 -7 -16 -37t-26 -41q-18 -12 -18 -40q0 -11 11 -21.5t11 -12.5q0 -4 -3 -4q-7 0 -12 5q13 -68 48 -104h-55q-35 114 -35 226q0 105 40.5 171.5t135.5 66.5q190 0 190 -254
q0 -75 -25 -210h-73q53 47 62 117q-4 -8 -13 -8q-3 0 -3 2l4 4q5 3 9.5 11.5t4.5 21.5q-4 -6 -15 -6q-1 0 -10.5 -4.5t-15.5 -4.5q-14 0 -40 3.5t-70 3.5q-22 0 -52.5 -6t-38.5 -6q-5 0 -13 2t-11 2q-28 0 -28 12q0 10 37 18.5t74 8.5q5 0 12 -0.5t12 -0.5t15.5 2t14.5 2
q112 0 127 -20q-1 16 -14 29t-30 13q-6 0 -6 7q0 57 -16 58q4 -7 4 -17q0 -18 -11 -32t-27 -14q-4 0 -10 2l-7 2q-1 0 -14.5 -14t-27.5 -14zM733 291v-148q-22 48 -69 112.5t-67 64.5q6 -85 -12 -177h-42q16 104 16 199q0 319 -213 319q-53 0 -91.5 -26.5t-59 -72.5
t-30 -97.5t-9.5 -111.5q0 -123 29 -210h-47q-19 67 -19 184q-17 -9 -39.5 -43.5t-49 -84.5t-30.5 -56v148q11 27 33 54t50 53.5t30 28.5q3 72 27 135t75.5 107.5t120.5 44.5q67 0 115.5 -22.5t76.5 -64t42.5 -87t22.5 -105.5q22 -5 68 -48t72 -96zM345 503q-3 3 -3 6
q0 2 2 2q1 0 6 -4.5t15 -8.5t22 -4q16 0 29 4t20 8l6 5q4 0 4 -2l-8 -8q24 0 52 -11q-29 80 -139 80q-55 0 -92 -33t-50 -85q37 20 41 39q-6 4 -6 7q0 4 3 4l2 -2q2 -1 6.5 -3.5t10 -5t13.5 -4t17 -1.5q24 0 49 17zM371 416q0 20 -4.5 40t-9.5 20q-10 0 -19 -39t-14 -39
q-3 0 -9.5 3t-11.5 3q-13 0 -21 -10.5t-8 -24.5t11 -14t18 6.5t9 6.5t12 -13.5t20 -13.5q14 0 25 10.5t12 10.5q3 0 10 -3.5t9 -3.5q10 0 18 11t8 24q0 10 -6 18t-16 8q-7 0 -14.5 -6.5t-11.5 -6.5q-7 0 -7 13zM510 318q0 95 -12 147l-5 3q0 -21 -18 -32t-41 -11
q-21 0 -37 12.5t-16 29.5q0 6 2 9q-12 2 -15 4q6 -9 10 -24t5.5 -24t4.5 -9q7 2 15 2q19 0 31 -14q34 0 34 -51q0 -3 8 -7t18.5 -13t15.5 -22zM383 310q-1 0 -8 -1t-15.5 -2t-13.5 -1t-13 1.5t-11 1.5q-15 0 -36 -4t-35 -9t-14 -8q0 -10 20 -10q24 0 54 6.5t44 6.5
q19 0 57.5 -3.5t52.5 -3.5q5 0 9.5 2t7.5 4t3 3q0 5 -36 11t-66 6zM267 413q-18 0 -31 10t-15 21q-4 -2 -15 -5q-4 -21 -4 -43q0 -50 3 -78q4 6 22 22t20 31q5 37 38 41q12 5 23 5q5 0 8.5 8.5t9.5 24.5t16 28l-13 -4q-1 -24 -18.5 -42.5t-43.5 -18.5zM419 465q-13 0 -16 13
q-5 0 -8.5 -5.5t-3.5 -9.5q0 -10 15 -17t31 -7q14 0 29 8.5t15 21.5q0 8 -14.5 12.5t-28.5 4.5q-5 -21 -19 -21zM267 427q14 0 30 11t16 24q0 6 -1 9q-20 0 -27 1q-5 -14 -18 -14q-10 0 -15 5q-4 -4 -18 -12q4 -24 33 -24zM266 288q-2 0 -2 3q0 12 107 12q93 0 93 -8
q0 -3 -3 -3q-1 0 -4 0.5t-10 1t-16 1.5t-24.5 1.5t-33.5 0.5q-36 0 -61 -2.5t-36 -4.5zM305 262q0 10 63 10q31 0 31 -8q0 -3 -2 -3q-4 0 -10 2t-10 2q-11 0 -26 -0.5t-20 -0.5q-4 0 -11.5 -3t-10.5 -3q-4 0 -4 4zM417 473q9 0 9 13q-1 0 -16 -6q0 -7 7 -7zM266 466
q7 0 10 9q-6 1 -11 4q0 -4 -6 -10q1 -3 7 -3zM325 34l-3 48l-10 -82h-21l15 125h25l4 -60l21 60h26l-15 -125h-22l10 82l-16 -48h-14zM21 125h35q23 0 20 -21l-10 -82q-3 -22 -22 -22h-38zM282 44q-1 -12 -10 -17l8 -27h-21l-7 23h-7l-3 -23h-22l15 125h36q21 0 18 -24z
M183 0l3 23h-14l-3 -23h-21l12 104q2 21 22 21h17q19 0 18 -21l-12 -104h-22zM594 0l15 125h35q23 0 20 -21l-8 -62q-3 -19 -22 -19h-15l-3 -23h-22zM111 0l3 23h-13l-3 -23h-22l15 125h22l-10 -83h13l10 83h22l-15 -125h-22zM539 125h22l-10 -79q0 -4 4 -4h5q5 0 5 4l9 79
h22l-10 -81q-3 -21 -19 -21l-9 -23h-23l9 23q-18 0 -15 21zM477 106l3 19h50l-3 -19h-13l-12 -106h-23l12 106h-14zM41 106l-11 -88h11q3 0 3 4l9 80q0 4 -4 4h-8zM629 106l-8 -64h8q5 0 5 4l7 56q0 4 -4 4h-8zM174 42h14l7 60q0 4 -4 4h-5q-5 0 -5 -4zM255 106l-8 -64h8
q5 0 5 4l7 56q0 4 -3 4h-9zM711 57l-3 -18h-19l-3 -21h27l-2 -18h-49l15 125h47l-3 -19h-24l-6 -49h20zM417 0l3 23h-14l-3 -23h-21l12 104q2 21 22 21h17q19 0 18 -21l-12 -104h-22zM408 42h14l7 60q0 4 -4 4h-5q-5 0 -5 -4z" />
    <glyph glyph-name="integral" unicode="&#x222b;" 
d="M327 557l-66 -549q-9 -72 -47 -106t-111 -34h-31v36h29q59 0 86.5 24t34.5 83l66 549q9 72 47 106t111 34h27v-36h-25q-59 0 -86.5 -24t-34.5 -83z" />
    <glyph glyph-name="approxequal" unicode="&#x2248;" 
d="M72 188v48q39 52 92 52q37 0 110.5 -36t107.5 -36q53 0 91 63v-49q-39 -52 -92 -52q-37 0 -111 36t-108 36q-54 0 -90 -62zM72 424v48q39 52 92 52q37 0 110.5 -36t107.5 -36q53 0 91 63v-49q-39 -52 -92 -52q-37 0 -111 36t-108 36q-54 0 -90 -62z" />
    <glyph glyph-name="notequal" unicode="&#x2260;" 
d="M146 0h-38l88 211h-114v36h129l86 204h-215v36h230l89 213h38l-89 -213h113v-36h-128l-86 -204h214v-36h-229z" />
    <glyph glyph-name="lessequal" unicode="&#x2264;" 
d="M473 0h-401v36h401v-36zM72 350l199 200h48l-181 -183h335v-36h-334l180 -183h-48z" />
    <glyph glyph-name="greaterequal" unicode="&#x2265;" 
d="M473 0h-401v36h401v-36zM274 550l199 -200l-199 -202h-48l180 183h-334v36h335l-181 183h48z" />
    <glyph glyph-name="lozenge" unicode="&#x25ca;" 
d="M272 -14l-218 361l218 361l218 -361zM272 56l176 291l-176 291l-176 -291z" />
    <glyph glyph-name="commaaccent" horiz-adv-x="250" 
d="M156 -87v-37q0 -67 -56 -67h-6v20h8q26 0 26 34v13h-34v37h62z" />
    <glyph glyph-name="f.alt" horiz-adv-x="420" 
d="M244 567q-66 0 -96 -29t-30 -97v-122h232v-36h-232v-450h-40v608q0 83 40 122.5t123 39.5h154v-36h-151z" />
    <glyph glyph-name="i.alt" horiz-adv-x="228" 
d="M94 0v603h40v-603h-40zM148 730v-41h-68v41h68z" />
    <glyph glyph-name="i.trk" horiz-adv-x="287" 
d="M217 36h45v-36h-51q-71 0 -101 30t-30 100v473h40v-470q0 -58 19.5 -77.5t77.5 -19.5zM134 730v-41h-68v41h68z" />
    <glyph glyph-name="germandbls.alt" horiz-adv-x="531" 
d="M348 283h-134v36h134q51 0 70 19.5t19 71.5v58q0 54 -22.5 76.5t-76.5 22.5h-94q-66 0 -96 -29t-30 -97v-608h-40v608q0 83 40 122.5t123 39.5h100q71 0 103.5 -33t32.5 -106v-54q0 -50 -20.5 -76.5t-69.5 -32.5q49 -6 69.5 -32.5t20.5 -76.5v-53q0 -73 -32.5 -106
t-103.5 -33h-127v36h124q54 0 76.5 22.5t22.5 76.5v57q0 52 -19 71.5t-70 19.5z" />
    <glyph glyph-name="one.pnum" horiz-adv-x="319" 
d="M225 700v-700h-40v664h-162v36h202z" />
    </font>
</defs>
</svg>
