<?xml version="1.0" standalone="no"?>
<!DOCTYPE svg PUBLIC "-//W3C//DTD SVG 1.1//EN" "http://www.w3.org/Graphics/SVG/1.1/DTD/svg11.dtd" >
<svg xmlns="http://www.w3.org/2000/svg" xmlns:xlink="http://www.w3.org/1999/xlink" version="1.1">
<metadata>
Created by FontForge 20170731 at Sat Mar 14 00:16:18 2015
 By ,,,
Copyright (c) 2011 by Ryoichi Tsunekawa. All rights reserved.
</metadata>
<defs>
<font id="DesignSystemF-900R" horiz-adv-x="2563" >
  <font-face 
    font-family="DesignSystemF-900R"
    font-weight="400"
    font-stretch="normal"
    units-per-em="1000"
    panose-1="4 5 8 8 2 11 2 2 3 2"
    ascent="822"
    descent="-178"
    x-height="603"
    cap-height="700"
    bbox="-174 -275 4721 936"
    underline-thickness="36"
    underline-position="-156"
    unicode-range="U+0020-FB02"
  />
<missing-glyph horiz-adv-x="1203" 
d="M0 700h1203v-700h-1203v700zM80 620v-534l958 534h-958zM165 80h958v533z" />
    <glyph glyph-name="ij" unicode="ij" horiz-adv-x="607" 
d="M259 -7h71q38 0 38 38v572h184v-602q0 -86 -40.5 -127t-127.5 -41h-125v160zM348 657v113h224v-113h-224zM57 0v603h184v-603h-184zM260 770v-113h-223v113h223z" />
    <glyph glyph-name="fi" unicode="fi" horiz-adv-x="2643" 
d="M285 443q-26 0 -38 -11.5t-12 -38.5v-12h1877v-159h-1877v-222h-184v410q0 99 47 146t146 47h1944v-160h-1903zM2490 160h132v-160h-187q-87 0 -127.5 41t-40.5 127v435h184v-404q0 -18 10.5 -28.5t28.5 -10.5zM2470 770v-113h-223v113h223z" />
    <glyph glyph-name="fl" unicode="fl" horiz-adv-x="2639" 
d="M285 443q-26 0 -38 -11.5t-12 -38.5v-12h1877v-159h-1877v-222h-184v410q0 99 47 146t146 47h1944v-160h-1903zM2486 160h132v-160h-187q-87 0 -127.5 41t-40.5 127v602h184v-571q0 -18 10.5 -28.5t28.5 -10.5z" />
    <glyph glyph-name=".notdef" horiz-adv-x="1203" 
d="M0 700h1203v-700h-1203v700zM80 620v-534l958 534h-958zM165 80h958v533z" />
    <glyph glyph-name=".null" horiz-adv-x="0" 
 />
    <glyph glyph-name="nonmarkingreturn" horiz-adv-x="333" 
 />
    <glyph glyph-name="space" unicode=" " horiz-adv-x="626" 
 />
    <glyph glyph-name="exclam" unicode="!" horiz-adv-x="335" 
d="M283 130v-130h-230v130h230zM264 700v-216q0 -156 -20 -269h-152q-20 113 -20 269v216h192z" />
    <glyph glyph-name="quotedbl" unicode="&#x22;" horiz-adv-x="575" 
d="M245 700v-39q0 -127 -25 -269h-142q-25 142 -25 269v39h192zM523 700v-39q0 -127 -25 -269h-142q-25 142 -25 269v39h192z" />
    <glyph glyph-name="numbersign" unicode="#" 
d="M2193 0l6 111h-1860l-6 -111h-177l6 111h-124l8 160h124l9 158h-124l8 160h124l6 111h177l-6 -111h1860l6 111h177l-6 -111h124l-8 -160h-124l-9 -158h124l-8 -160h-124l-6 -111h-177zM356 429l-9 -158h1860l9 158h-1860z" />
    <glyph glyph-name="dollar" unicode="$" 
d="M43 210h2263q29 0 29 29v10q0 30 -29 30h-2113q-78 0 -114 36.5t-36 115.5v67q0 79 36 116t113 37h1005v89h167v-89h1131v-160h-2239q-29 0 -29 -33v-11q0 -14 6.5 -19.5t22.5 -5.5h2113q78 0 114 -36.5t36 -115.5v-67q0 -79 -36.5 -116t-113.5 -37h-1005v-90h-167v90
h-1154v160z" />
    <glyph glyph-name="percent" unicode="%" horiz-adv-x="3344" 
d="M1271 0l616 700h186l-616 -700h-186zM1966 130v274q0 66 31.5 98t98.5 32h1072q67 0 98.5 -32t31.5 -98v-274q0 -66 -31.5 -98t-98.5 -32h-1072q-67 0 -98.5 32t-31.5 98zM3140 168v198q0 30 -28 30h-959q-29 0 -29 -30v-198q0 -30 29 -30h959q28 0 28 30zM47 296v274
q0 66 31.5 98t98.5 32h1072q67 0 98.5 -32t31.5 -98v-274q0 -66 -31.5 -98t-98.5 -32h-1072q-67 0 -98.5 32t-31.5 98zM1221 334v198q0 30 -28 30h-959q-29 0 -29 -30v-198q0 -30 29 -30h959q28 0 28 30z" />
    <glyph glyph-name="ampersand" unicode="&#x26;" horiz-adv-x="2673" 
d="M2343 268h-2068q-20 0 -28 -8.5t-8 -28.5v-28q0 -20 8 -28.5t28 -8.5h2034q20 0 27 7t7 27v68zM47 165v39q0 66 31 102.5t107 43.5q-76 7 -107 43.5t-31 102.5v39q0 86 39 125.5t126 39.5h2273v-166h-2210q-20 0 -28 -8.5t-8 -28.5v-28q0 -20 8 -28.5t28 -8.5h2372v-164
h-112v-111q0 -84 -36 -120.5t-122 -36.5h-2165q-87 0 -126 39.5t-39 125.5z" />
    <glyph glyph-name="quotesingle" unicode="'" horiz-adv-x="297" 
d="M245 700v-39q0 -127 -25 -269h-142q-25 142 -25 269v39h192z" />
    <glyph glyph-name="parenleft" unicode="(" horiz-adv-x="386" 
d="M232 108q0 -21 8 -29.5t28 -8.5h76v-150h-120q-87 0 -126 39.5t-39 125.5v450q0 86 39 125.5t126 39.5h120v-150h-76q-20 0 -28 -8.5t-8 -29.5v-404z" />
    <glyph glyph-name="parenright" unicode=")" horiz-adv-x="386" 
d="M154 108v404q0 21 -8 29.5t-28 8.5h-76v150h120q87 0 126 -39.5t39 -125.5v-450q0 -86 -39 -125.5t-126 -39.5h-120v150h76q20 0 28 8.5t8 29.5z" />
    <glyph glyph-name="asterisk" unicode="*" horiz-adv-x="627" 
d="M330 441q26 30 74 69t92 53l61 20l50 -155l-61 -19q-61 -13 -116 -10.5t-89 11.5q34 -14 87 -48.5t81 -71.5l38 -51l-132 -96l-37 52q-27 37 -44 98t-20 98q-3 -37 -20 -98t-44 -98l-37 -52l-132 96l38 51q27 38 80.5 72.5t87.5 47.5q-35 -9 -90 -11.5t-115 10.5l-61 19
l49 155l61 -20q44 -14 92 -53t74 -69q-19 33 -41.5 91t-22.5 104v64h162v-64q0 -46 -23 -105t-42 -90z" />
    <glyph glyph-name="plus" unicode="+" 
d="M53 271v158h1149v241h158v-241h1150v-158h-1150v-241h-158v241h-1149z" />
    <glyph glyph-name="comma" unicode="," horiz-adv-x="334" 
d="M279 150v-150q0 -77 -43.5 -122t-123.5 -45h-56v86h43q33 0 47 13.5t14 45.5v22h-104v150h223z" />
    <glyph glyph-name="hyphen" unicode="-" horiz-adv-x="914" 
d="M874 409v-164h-833v164h833z" />
    <glyph glyph-name="period" unicode="." horiz-adv-x="334" 
d="M279 150v-150h-223v150h223z" />
    <glyph glyph-name="slash" unicode="/" horiz-adv-x="946" 
d="M24 0l672 700h226l-672 -700h-226z" />
    <glyph glyph-name="zero" unicode="0" 
d="M223 0q-87 0 -128.5 42t-41.5 128v360q0 86 41.5 128t128.5 42h2117q87 0 128.5 -42t41.5 -128v-360q0 -86 -41.5 -128t-128.5 -42h-2117zM2318 205v290q0 21 -8.5 29.5t-28.5 8.5h-2000q-20 0 -28 -8.5t-8 -29.5v-290q0 -21 8 -29.5t28 -8.5h2000q20 0 28.5 8.5
t8.5 29.5z" />
    <glyph glyph-name="one" unicode="1" 
d="M1799 700v-533h707v-167h-2392v167h1499v366h-1499v167h1685z" />
    <glyph glyph-name="two" unicode="2" 
d="M2313 495q0 21 -9 29.5t-29 8.5h-2201v167h2260q88 0 129.5 -42t41.5 -128v-93q0 -87 -41.5 -128.5t-129.5 -41.5h-2042q-30 0 -42 -11.5t-12 -42.5v-46h2282v-167h-2474v227q0 206 205 206h2024q20 0 29 8.5t9 28.5v25z" />
    <glyph glyph-name="three" unicode="3" 
d="M2287 267h-2127v166h2127q20 0 28.5 8.5t8.5 28.5v25q0 21 -8.5 29.5t-28.5 8.5h-2244v167h2308q87 0 126 -39.5t39 -125.5v-39q0 -66 -31.5 -102.5t-107.5 -43.5q76 -7 107.5 -43.5t31.5 -102.5v-39q0 -86 -39 -125.5t-126 -39.5h-2308v167h2244q20 0 28.5 8.5t8.5 29.5
v25q0 20 -8.5 28.5t-28.5 8.5z" />
    <glyph glyph-name="four" unicode="4" 
d="M2311 433v267h192v-700h-192v267h-2098q-87 0 -128.5 42t-41.5 128v263h192v-230q0 -20 8 -28.5t28 -8.5h2040z" />
    <glyph glyph-name="five" unicode="5" 
d="M65 267v433h2425v-167h-2233v-100h2090q87 0 129 -42t42 -128v-93q0 -86 -42 -128t-129 -42h-2292v167h2234q21 0 29 8.5t8 29.5v25q0 20 -8 28.5t-29 8.5h-2224z" />
    <glyph glyph-name="six" unicode="6" 
d="M243 463v-30h2104q87 0 129 -42t42 -128v-93q0 -86 -42 -128t-129 -42h-2127q-87 0 -128 42t-41 128v294q0 116 60 176t176 60h2203v-167h-2178q-69 0 -69 -70zM2289 267h-2046v-62q0 -21 8.5 -29.5t28.5 -8.5h2009q21 0 29 8.5t8 29.5v25q0 20 -8 28.5t-29 8.5z" />
    <glyph glyph-name="seven" unicode="7" 
d="M2274 433q30 0 42 12t12 42v46h-2302v167h2494v-227q0 -206 -205 -206h-1224q-30 0 -42 -12t-12 -42v-213h-192v227q0 206 205 206h1224z" />
    <glyph glyph-name="eight" unicode="8" 
d="M2517 535v-39q0 -66 -31.5 -102.5t-107.5 -43.5q76 -7 107.5 -43.5t31.5 -102.5v-39q0 -86 -39 -125.5t-126 -39.5h-2141q-87 0 -126 39.5t-39 125.5v39q0 66 31 102.5t107 43.5q-76 7 -107 43.5t-31 102.5v39q0 86 39 125.5t126 39.5h2141q87 0 126 -39.5t39 -125.5z
M274 433h2014q20 0 28.5 8.5t8.5 28.5v25q0 21 -8.5 29.5t-28.5 8.5h-2014q-20 0 -28 -8.5t-8 -29.5v-25q0 -20 8 -28.5t28 -8.5zM2288 267h-2014q-20 0 -28 -8.5t-8 -28.5v-25q0 -21 8 -29.5t28 -8.5h2014q20 0 28.5 8.5t8.5 29.5v25q0 20 -8.5 28.5t-28.5 8.5z" />
    <glyph glyph-name="nine" unicode="9" 
d="M2342 700q87 0 128.5 -42t41.5 -128v-294q0 -116 -60.5 -176t-176.5 -60h-2202v167h2178q69 0 69 70v30h-2105q-87 0 -128.5 42t-41.5 128v93q0 86 41.5 128t128.5 42h2127zM237 495v-25q0 -20 8 -28.5t28 -8.5h2047v62q0 21 -8.5 29.5t-28.5 8.5h-2010q-20 0 -28 -8.5
t-8 -29.5z" />
    <glyph glyph-name="colon" unicode=":" horiz-adv-x="334" 
d="M279 603v-150h-223v150h223zM279 150v-150h-223v150h223z" />
    <glyph glyph-name="semicolon" unicode=";" horiz-adv-x="334" 
d="M279 150v-150q0 -77 -43.5 -122t-123.5 -45h-56v86h43q33 0 47 13.5t14 45.5v22h-104v150h223zM279 603v-150h-223v150h223z" />
    <glyph glyph-name="less" unicode="&#x3c;" 
d="M53 350l267 320h205l-207 -241h2192v-158h-2192l207 -241h-205z" />
    <glyph glyph-name="equal" unicode="=" 
d="M83 131v158h2397v-158h-2397zM83 411v158h2397v-158h-2397z" />
    <glyph glyph-name="greater" unicode="&#x3e;" 
d="M2510 350l-267 -320h-205l207 241h-2192v158h2192l-207 241h205z" />
    <glyph glyph-name="question" unicode="?" horiz-adv-x="2535" 
d="M2312 470v25q0 21 -8.5 29.5t-29.5 8.5h-2248v167h2307q88 0 129.5 -42t41.5 -128v-93q0 -86 -41.5 -128t-129.5 -42h-1031q-21 0 -27.5 -7t-6.5 -28v-27h-192v75q0 81 35.5 117t116.5 36h1046q21 0 29.5 8.5t8.5 28.5zM1287 130v-130h-230v130h230z" />
    <glyph glyph-name="at" unicode="@" horiz-adv-x="2496" 
d="M224 0q-88 0 -129.5 42t-41.5 128v360q0 86 41.5 128t129.5 42h2048q88 0 129.5 -42t41.5 -128v-360q0 -86 -41.5 -128t-129.5 -42h-2048zM229 72h2038q94 0 94 94v368q0 94 -94 94h-2038q-94 0 -94 -94v-368q0 -94 94 -94zM2169 188h-1845q-72 0 -72 75v45q0 74 72 74
h1848v42q0 21 -20 21h-1886v66h1903q80 0 80 -81v-161q0 -42 -19 -61.5t-61 -19.5zM346 317q-17 0 -17 -17v-29q0 -17 17 -17h1806q20 0 20 21v42h-1826z" />
    <glyph glyph-name="A" unicode="A" horiz-adv-x="2588" 
d="M2529 0h-192v267h-2086v-267h-192v530q0 86 41.5 128t128.5 42h2129q87 0 129 -42t42 -128v-530zM2300 533h-2013q-20 0 -28 -8.5t-8 -29.5v-62h2086v62q0 21 -8 29.5t-29 8.5z" />
    <glyph glyph-name="B" unicode="B" horiz-adv-x="2580" 
d="M2533 204v-39q0 -86 -39 -125.5t-126 -39.5h-2305v700h2305q87 0 126 -39.5t39 -125.5v-39q0 -66 -31.5 -102.5t-107.5 -43.5q76 -7 107.5 -43.5t31.5 -102.5zM2304 433q20 0 28.5 8.5t8.5 28.5v25q0 21 -8.5 29.5t-28.5 8.5h-2049v-100h2049zM255 267v-100h2049
q20 0 28.5 8.5t8.5 29.5v25q0 20 -8.5 28.5t-28.5 8.5h-2049z" />
    <glyph glyph-name="C" unicode="C" horiz-adv-x="2494" 
d="M222 0q-87 0 -128 42t-41 128v360q0 86 41 128t128 42h2230v-167h-2171q-20 0 -28 -8.5t-8 -29.5v-290q0 -21 8 -29.5t28 -8.5h2171v-167h-2230z" />
    <glyph glyph-name="D" unicode="D" horiz-adv-x="2580" 
d="M2297 700q116 0 176 -60t60 -176v-228q0 -116 -60.5 -176t-175.5 -60h-2234v700h2234zM2272 167q69 0 69 70v226q0 70 -69 70h-2017v-366h2017z" />
    <glyph glyph-name="E" unicode="E" horiz-adv-x="2554" 
d="M63 0v700h2449v-167h-2257v-100h2142v-166h-2142v-100h2257v-167h-2449z" />
    <glyph glyph-name="F" unicode="F" horiz-adv-x="2526" 
d="M63 0v700h2437v-167h-2245v-100h2131v-167h-2131v-266h-192z" />
    <glyph glyph-name="G" unicode="G" horiz-adv-x="2583" 
d="M2305 167q20 0 27 7t7 28v65h-1240v166h1432v-276q0 -84 -36.5 -120.5t-121.5 -36.5h-2151q-87 0 -128 42t-41 128v360q0 86 41 128t128 42h2284v-167h-2225q-20 0 -28 -8.5t-8 -29.5v-290q0 -21 8 -29.5t28 -8.5h2024z" />
    <glyph glyph-name="H" unicode="H" horiz-adv-x="2608" 
d="M2353 0v266h-2098v-266h-192v700h192v-267h2098v267h192v-700h-192z" />
    <glyph glyph-name="I" unicode="I" horiz-adv-x="317" 
d="M63 0v700h192v-700h-192z" />
    <glyph glyph-name="J" unicode="J" horiz-adv-x="2569" 
d="M43 158v184h192v-140q0 -21 6.5 -28t26.5 -7h2014q21 0 29 8.5t8 29.5v495h192v-530q0 -86 -42 -128t-129 -42h-2140q-85 0 -121 36.5t-36 121.5z" />
    <glyph glyph-name="K" unicode="K" horiz-adv-x="2586" 
d="M2533 700v-178q0 -78 -34.5 -121t-126.5 -51q92 -8 126.5 -51.5t34.5 -120.5v-178h-192v220q0 47 -47 47h-2039v-267h-192v700h192v-267h2039q47 0 47 47v220h192z" />
    <glyph glyph-name="L" unicode="L" horiz-adv-x="2514" 
d="M2488 168v-168h-2425v700h192v-532h2233z" />
    <glyph glyph-name="M" unicode="M" horiz-adv-x="3091" 
d="M1716 700h1146q87 0 128.5 -42t41.5 -128v-530h-192v495q0 21 -8 29.5t-28 8.5h-1122q-41 0 -41 -41v-492h-192v492q0 41 -40 41h-1122q-20 0 -28 -8.5t-8 -29.5v-495h-192v530q0 86 41.5 128t128.5 42h1146q81 0 121 -31.5t49 -102.5q9 71 49.5 102.5t121.5 31.5z" />
    <glyph glyph-name="N" unicode="N" horiz-adv-x="2588" 
d="M287 533q-20 0 -28 -8.5t-8 -29.5v-495h-192v530q0 86 41.5 128t128.5 42h2129q87 0 129 -42t42 -128v-530h-192v495q0 21 -8 29.5t-29 8.5h-2013z" />
    <glyph glyph-name="O" unicode="O" horiz-adv-x="2583" 
d="M223 0q-87 0 -128.5 42t-41.5 128v360q0 86 41.5 128t128.5 42h2137q87 0 128.5 -42t41.5 -128v-360q0 -86 -41.5 -128t-128.5 -42h-2137zM2338 204v291q0 21 -8.5 29.5t-28.5 8.5h-2020q-20 0 -28 -8.5t-8 -29.5v-290q0 -38 36 -38h2020q20 0 28.5 8.5t8.5 28.5z" />
    <glyph glyph-name="P" unicode="P" horiz-adv-x="2557" 
d="M63 0v700h2292q87 0 128.5 -42t41.5 -128v-94q0 -86 -41.5 -128t-128.5 -42h-2100v-266h-192zM2333 495q0 21 -8.5 29.5t-28.5 8.5h-2041v-100h2041q20 0 28.5 8.5t8.5 28.5v25z" />
    <glyph glyph-name="Q" unicode="Q" horiz-adv-x="2583" 
d="M223 0q-87 0 -128.5 42t-41.5 128v360q0 86 41.5 128t128.5 42h2137q87 0 128.5 -42t41.5 -128v-360q0 -86 -41.5 -128t-128.5 -42h-985v-149h-167v149h-985zM2338 204v291q0 21 -8.5 29.5t-28.5 8.5h-2020q-20 0 -28 -8.5t-8 -29.5v-290q0 -38 36 -38h927v110h167v-110
h926q20 0 28.5 8.5t8.5 28.5z" />
    <glyph glyph-name="R" unicode="R" horiz-adv-x="2586" 
d="M2533 535v-39q0 -68 -33.5 -105t-116.5 -42q85 -10 117.5 -53t32.5 -118v-178h-192v220q0 47 -47 47h-2039v-267h-192v700h2305q87 0 126 -39.5t39 -125.5zM2304 433q20 0 28.5 8.5t8.5 28.5v25q0 21 -8.5 29.5t-28.5 8.5h-2049v-100h2049z" />
    <glyph glyph-name="S" unicode="S" horiz-adv-x="2545" 
d="M228 267q-170 0 -170 170v93q0 86 42 128t129 42h2243v-167h-2184q-21 0 -29.5 -8.5t-8.5 -29.5v-25q0 -20 8.5 -28.5t29.5 -8.5h2041q88 0 130 -42t42 -128v-93q0 -86 -42 -128t-129 -42h-2287v167h2229q20 0 28.5 8.5t8.5 29.5v25q0 20 -8.5 28.5t-28.5 8.5h-2044z" />
    <glyph glyph-name="T" unicode="T" horiz-adv-x="2529" 
d="M2503 700v-167h-1143v-533h-192v533h-1142v167h2477z" />
    <glyph glyph-name="U" unicode="U" horiz-adv-x="2588" 
d="M229 0q-87 0 -128.5 42t-41.5 128v530h192v-495q0 -21 8 -29.5t28 -8.5h2013q21 0 29 8.5t8 29.5v495h192v-530q0 -86 -42 -128t-129 -42h-2129z" />
    <glyph glyph-name="V" unicode="V" horiz-adv-x="2573" 
d="M63 0v700h192v-533h2003q69 0 69 70v463h192v-464q0 -116 -60.5 -176t-175.5 -60h-2220z" />
    <glyph glyph-name="W" unicode="W" horiz-adv-x="3091" 
d="M2862 0h-1146q-81 0 -121.5 31.5t-49.5 102.5q-9 -71 -49 -102.5t-121 -31.5h-1146q-87 0 -128.5 42t-41.5 128v530h192v-495q0 -21 8 -29.5t28 -8.5h1122q40 0 40 41v492h192v-492q0 -41 41 -41h1122q20 0 28 8.5t8 29.5v495h192v-530q0 -86 -41.5 -128t-128.5 -42z" />
    <glyph glyph-name="X" unicode="X" horiz-adv-x="2582" 
d="M52 522v178h192v-220q0 -47 47 -47h2000q47 0 47 47v220h192v-178q0 -78 -34.5 -121t-126.5 -51q92 -8 126.5 -51.5t34.5 -120.5v-178h-192v220q0 47 -47 47h-2000q-47 0 -47 -47v-220h-192v178q0 77 34.5 120.5t125.5 51.5q-91 8 -125.5 51t-34.5 121z" />
    <glyph glyph-name="Y" unicode="Y" horiz-adv-x="2566" 
d="M2331 700h192v-263q0 -86 -41 -128t-129 -42h-974v-267h-192v267h-975q-87 0 -128 42t-41 128v263h192v-230q0 -20 8 -28.5t28 -8.5h2024q20 0 28 8.5t8 28.5v230z" />
    <glyph glyph-name="Z" unicode="Z" horiz-adv-x="2548" 
d="M2254 433q30 0 42 12t12 42v46h-2234v167h2426v-227q0 -206 -206 -206h-2002q-30 0 -42 -11.5t-12 -42.5v-46h2262v-167h-2454v227q0 206 205 206h2003z" />
    <glyph glyph-name="bracketleft" unicode="[" horiz-adv-x="387" 
d="M63 700h282v-140h-121v-500h121v-140h-282v780z" />
    <glyph glyph-name="backslash" unicode="\" horiz-adv-x="946" 
d="M250 700l672 -700h-226l-672 700h226z" />
    <glyph glyph-name="bracketright" unicode="]" horiz-adv-x="387" 
d="M42 700h282v-780h-282v140h121v500h-121v140z" />
    <glyph glyph-name="asciicircum" unicode="^" 
d="M1281 717l1229 -272v-165l-1229 272l-1228 -272v165z" />
    <glyph glyph-name="underscore" unicode="_" horiz-adv-x="1203" 
d="M1203 -26v-106h-1203v106h1203z" />
    <glyph glyph-name="grave" unicode="`" horiz-adv-x="601" 
d="M346 658l-290 110h271l219 -110h-200z" />
    <glyph glyph-name="a" unicode="a" horiz-adv-x="2303" 
d="M2072 371v33q0 18 -10.5 28.5t-28.5 10.5h-1968v160h2025q86 0 126 -40.5t40 -127.5v-267q0 -86 -40 -127t-126 -41h-1903q-77 0 -113.5 37t-36.5 116v65q0 79 36.5 116t112.5 37h1886zM2072 232h-1822q-29 0 -29 -28v-15q0 -29 29 -29h1783q39 0 39 39v33z" />
    <glyph glyph-name="b" unicode="b" horiz-adv-x="2295" 
d="M51 168v602h184v-253q12 45 45 65.5t96 20.5h1708q85 0 125 -41t40 -127v-267q0 -86 -40 -127t-125 -41h-1866q-86 0 -126.5 41t-40.5 127zM235 404v-205q0 -39 39 -39h1751q40 0 40 39v205q0 39 -40 39h-1751q-39 0 -39 -39z" />
    <glyph glyph-name="c" unicode="c" horiz-adv-x="2232" 
d="M213 0q-86 0 -126 41t-40 127v267q0 87 39.5 127.5t126.5 40.5h1980v-160h-1923q-39 0 -39 -39v-205q0 -39 39 -39h1923v-160h-1980z" />
    <glyph glyph-name="d" unicode="d" horiz-adv-x="2295" 
d="M2245 770v-602q0 -86 -40.5 -127t-127.5 -41h-1865q-85 0 -125 41t-40 127v267q0 86 40 127t125 41h1707q63 0 96.5 -20.5t45.5 -65.5v253h184zM2061 199v205q0 39 -40 39h-1751q-39 0 -39 -39v-205q0 -39 39 -39h1751q40 0 40 39z" />
    <glyph glyph-name="e" unicode="e" horiz-adv-x="2303" 
d="M2266 385q0 -79 -36.5 -116t-113.5 -37h-1885v-33q0 -39 39 -39h1966v-160h-2023q-86 0 -126 40.5t-40 127.5v267q0 86 40 127t126 41h1903q77 0 113.5 -37t36.5 -116v-65zM2053 443h-1783q-39 0 -39 -39v-33h1822q29 0 29 28v15q0 29 -29 29z" />
    <glyph glyph-name="f" unicode="f" horiz-adv-x="2212" 
d="M285 443q-26 0 -38 -11.5t-12 -38.5v-12h1877v-159h-1877v-222h-184v410q0 99 47 146t146 47h1944v-160h-1903z" />
    <glyph glyph-name="g" unicode="g" horiz-adv-x="2295" 
d="M2021 225q40 0 40 39v140q0 18 -10.5 28.5t-29.5 10.5h-1751q-39 0 -39 -39v-140q0 -39 39 -39h1751zM1919 65h-1705q-86 0 -126.5 41t-40.5 127v202q0 87 40 127.5t127 40.5h1863q87 0 127.5 -40.5t40.5 -127.5v-369q0 -121 -55.5 -177t-176.5 -56h-1926v160h1904
q37 0 53.5 15.5t16.5 53.5v89q-12 -45 -45.5 -65.5t-96.5 -20.5z" />
    <glyph glyph-name="h" unicode="h" horiz-adv-x="2296" 
d="M2062 404q0 39 -40 39h-1744q-39 0 -39 -39v-404h-184v770h184v-253q12 45 45 65.5t96 20.5h1701q85 0 125 -41t40 -127v-435h-184v404z" />
    <glyph glyph-name="i" unicode="i" horiz-adv-x="431" 
d="M278 160h132v-160h-187q-87 0 -127.5 41t-40.5 127v435h184v-404q0 -18 10.5 -28.5t28.5 -10.5zM258 770v-113h-223v113h223z" />
    <glyph glyph-name="j" unicode="j" horiz-adv-x="310" 
d="M-38 -7h71q38 0 38 38v572h184v-602q0 -86 -40.5 -127t-127.5 -41h-125v160zM51 657v113h224v-113h-224z" />
    <glyph glyph-name="k" unicode="k" horiz-adv-x="2290" 
d="M2061 425v178h184v-152q0 -134 -135 -150q70 -8 102.5 -45t32.5 -104v-152h-184v178q0 44 -45 44h-1777v-222h-184v770h184v-389h1777q45 0 45 44z" />
    <glyph glyph-name="l" unicode="l" horiz-adv-x="427" 
d="M274 160h132v-160h-187q-87 0 -127.5 41t-40.5 127v602h184v-571q0 -18 10.5 -28.5t28.5 -10.5z" />
    <glyph glyph-name="m" unicode="m" horiz-adv-x="2740" 
d="M1370 469q6 71 43 102.5t115 31.5h997q85 0 125 -41t40 -127v-435h-184v404q0 39 -40 39h-964q-40 0 -40 -39v-404h-184v404q0 39 -39 39h-965q-39 0 -39 -39v-404h-184v435q0 86 40 127t125 41h997q78 0 114.5 -31.5t42.5 -102.5z" />
    <glyph glyph-name="n" unicode="n" horiz-adv-x="2292" 
d="M51 0v435q0 86 40 127t125 41h1860q85 0 125 -41t40 -127v-435h-184v404q0 39 -39 39h-1744q-39 0 -39 -39v-404h-184z" />
    <glyph glyph-name="o" unicode="o" horiz-adv-x="2291" 
d="M2078 603q86 0 126 -40.5t40 -127.5v-267q0 -86 -40 -127t-126 -41h-1865q-86 0 -126 41t-40 127v267q0 87 39.5 127.5t126.5 40.5h1865zM2021 160q39 0 39 39v205q0 39 -39 39h-1751q-39 0 -39 -39v-205q0 -39 39 -39h1751z" />
    <glyph glyph-name="p" unicode="p" horiz-adv-x="2295" 
d="M51 -167v602q0 86 40.5 127t126.5 41h1866q85 0 125 -41t40 -127v-267q0 -86 -40 -127t-125 -41h-1708q-63 0 -96 20.5t-45 65.5v-253h-184zM235 404v-205q0 -39 39 -39h1751q40 0 40 39v205q0 39 -40 39h-1751q-39 0 -39 -39z" />
    <glyph glyph-name="q" unicode="q" horiz-adv-x="2295" 
d="M2245 435v-602h-184v253q-12 -45 -45.5 -65.5t-96.5 -20.5h-1707q-85 0 -125 41t-40 127v267q0 86 40 127t125 41h1865q87 0 127.5 -41t40.5 -127zM2061 199v205q0 39 -40 39h-1751q-39 0 -39 -39v-205q0 -39 39 -39h1751q40 0 40 39z" />
    <glyph glyph-name="r" unicode="r" horiz-adv-x="2109" 
d="M2085 603v-160h-1811q-18 0 -28.5 -10.5t-10.5 -28.5v-404h-184v435q0 87 40 127.5t127 40.5h1867z" />
    <glyph glyph-name="s" unicode="s" horiz-adv-x="2275" 
d="M2209 443h-1955q-29 0 -29 -28v-15q0 -29 29 -29h1835q77 0 113.5 -37t36.5 -116v-65q0 -78 -37 -115.5t-113 -37.5h-2048v160h1985q29 0 29 28v15q0 29 -29 29h-1835q-77 0 -113.5 37t-36.5 116v65q0 79 36.5 116t112.5 37h2019v-160z" />
    <glyph glyph-name="t" unicode="t" horiz-adv-x="2140" 
d="M219 0q-87 0 -127.5 41t-40.5 127v602h184v-167h1867v-160h-1867v-244q0 -39 39 -39h1828v-160h-1883z" />
    <glyph glyph-name="u" unicode="u" horiz-adv-x="2292" 
d="M2018 160q39 0 39 39v404h184v-435q0 -86 -40 -127t-125 -41h-1860q-85 0 -125 41t-40 127v435h184v-404q0 -39 39 -39h1744z" />
    <glyph glyph-name="v" unicode="v" horiz-adv-x="2284" 
d="M2235 603v-377q0 -117 -54 -171.5t-172 -54.5h-1954v603h184v-443h1744q37 0 52.5 15t15.5 52v376h184z" />
    <glyph glyph-name="w" unicode="w" horiz-adv-x="2740" 
d="M1370 134q-6 -71 -42.5 -102.5t-114.5 -31.5h-997q-85 0 -125 41t-40 127v435h184v-404q0 -39 39 -39h965q39 0 39 39v404h184v-404q0 -39 40 -39h964q40 0 40 39v404h184v-435q0 -86 -40 -127t-125 -41h-997q-78 0 -115 31.5t-43 102.5z" />
    <glyph glyph-name="x" unicode="x" horiz-adv-x="2302" 
d="M2074 425v178h184v-152q0 -134 -135 -150q135 -16 135 -149v-152h-184v178q0 44 -45 44h-1756q-44 0 -44 -44v-178h-184v152q0 68 32 104.5t102 44.5q-134 16 -134 150v152h184v-178q0 -44 44 -44h1756q45 0 45 44z" />
    <glyph glyph-name="y" unicode="y" horiz-adv-x="2296" 
d="M2010 -167h-1919v160h1897q37 0 53.5 15.5t16.5 53.5v89q-13 -45 -46 -65.5t-96 -20.5h-1699q-86 0 -126 41t-40 127v370h184v-339q0 -39 39 -39h1744q40 0 40 39v339h184v-537q0 -121 -55.5 -177t-176.5 -56z" />
    <glyph glyph-name="z" unicode="z" horiz-adv-x="2278" 
d="M261 232q-39 0 -39 -39v-33h2015v-160h-2199v178q0 193 193 193h1783q39 0 39 39v33h-1992v160h2176v-178q0 -193 -193 -193h-1783z" />
    <glyph glyph-name="braceleft" unicode="{" horiz-adv-x="432" 
d="M281 512v-76q0 -64 -28.5 -93.5t-90.5 -32.5q62 -3 90.5 -32.5t28.5 -93.5v-76q0 -21 8 -29.5t28 -8.5h76v-150h-120q-87 0 -126 39.5t-39 125.5v117q0 33 -34 33h-45v150h45q34 0 34 33v117q0 86 39 125.5t126 39.5h120v-150h-76q-20 0 -28 -8.5t-8 -29.5z" />
    <glyph glyph-name="bar" unicode="|" horiz-adv-x="337" 
d="M73 -167v907h192v-907h-192z" />
    <glyph glyph-name="braceright" unicode="}" horiz-adv-x="432" 
d="M151 436v76q0 21 -8 29.5t-28 8.5h-76v150h120q87 0 126 -39.5t39 -125.5v-117q0 -33 34 -33h45v-150h-45q-34 0 -34 -33v-117q0 -86 -39 -125.5t-126 -39.5h-120v150h76q20 0 28 8.5t8 29.5v76q0 64 28.5 93.5t90.5 32.5q-62 3 -90.5 32.5t-28.5 93.5z" />
    <glyph glyph-name="asciitilde" unicode="~" 
d="M53 242v163q248 88 564 88q147 0 332.5 -18.5t335.5 -41t336 -41t333 -18.5q312 0 556 85v-164q-246 -87 -565 -87q-184 0 -427 29.5t-485.5 59t-425.5 29.5q-310 0 -554 -84z" />
    <glyph glyph-name="uni00A0" unicode="&#xa0;" horiz-adv-x="626" 
 />
    <glyph glyph-name="exclamdown" unicode="&#xa1;" horiz-adv-x="335" 
d="M53 500v130h230v-130h-230zM72 -70v216q0 156 20 269h152q20 -113 20 -269v-216h-192z" />
    <glyph glyph-name="cent" unicode="&#xa2;" 
d="M1251 -40v90h-1032q-86 0 -126 41t-40 127v264q0 87 39.5 127.5t126.5 40.5h1032v90h167v-90h1102v-160h-1102v-280h1102v-160h-1102v-90h-167zM276 210h975v280h-975q-39 0 -39 -39v-202q0 -39 39 -39z" />
    <glyph glyph-name="sterling" unicode="&#xa3;" 
d="M399 167h2121v-167h-2477v167h164v100h-164v166h164v97q0 86 41.5 128t128.5 42h2059v-167h-2000q-20 0 -28.5 -8.5t-8.5 -29.5v-62h2037v-166h-2037v-100z" />
    <glyph glyph-name="currency" unicode="&#xa4;" 
d="M115 483q0 87 40 127.5t127 40.5h917v89h166v-89h916q87 0 127 -40.5t40 -127.5v-53h89v-161h-89v-53q0 -87 -40 -127.5t-127 -40.5h-916v-88h-166v88h-917q-87 0 -127 40.5t-40 127.5v53h-89v161h89v53zM2224 486h-1886q-39 0 -39 -39v-195q0 -39 39 -39h1886
q19 0 29.5 10.5t10.5 28.5v195q0 18 -10.5 28.5t-29.5 10.5z" />
    <glyph glyph-name="yen" unicode="&#xa5;" 
d="M2325 700h192v-145q0 -86 -41.5 -128t-128.5 -42h-970v-100h1115v-167h-1115v-118h-192v118h-1115v167h1115v100h-971q-87 0 -128 42t-41 128v145h192v-112q0 -20 8.5 -28t27.5 -8h2015q20 0 28.5 8t8.5 28v112z" />
    <glyph glyph-name="brokenbar" unicode="&#xa6;" horiz-adv-x="337" 
d="M73 -167v394h192v-394h-192zM73 347v393h192v-393h-192z" />
    <glyph glyph-name="section" unicode="&#xa7;" horiz-adv-x="2509" 
d="M258 478h2076q130 0 130 -129v-53q0 -56 -23.5 -88t-82.5 -39q59 -6 82.5 -38t23.5 -88v-27q0 -76 -36.5 -112t-112.5 -36h-2240v150h2179q29 0 29 29v15q0 28 -29 28h-2076q-130 0 -130 129v53q0 57 23 88.5t83 37.5q-60 7 -83 38.5t-23 88.5v27q0 76 36.5 112t112.5 36
h2240v-150h-2179q-29 0 -29 -28v-15q0 -29 29 -29zM2253 324h-1994q-27 0 -27 -27v-26q0 -27 27 -27h1994q27 0 27 27v26q0 27 -27 27z" />
    <glyph glyph-name="dieresis" unicode="&#xa8;" horiz-adv-x="601" 
d="M187 769v-112h-185v112h185zM598 769v-112h-185v112h185z" />
    <glyph glyph-name="copyright" unicode="&#xa9;" horiz-adv-x="2496" 
d="M318 188q-42 0 -61 20t-19 62v159q0 42 19 62t61 20h1919v-66h-1903q-19 0 -19 -19v-153q0 -19 19 -19h1903v-66h-1919zM224 0q-88 0 -129.5 42t-41.5 128v360q0 86 41.5 128t129.5 42h2048q88 0 129.5 -42t41.5 -128v-360q0 -86 -41.5 -128t-129.5 -42h-2048zM229 72
h2038q94 0 94 94v368q0 94 -94 94h-2038q-94 0 -94 -94v-368q0 -94 94 -94z" />
    <glyph glyph-name="ordfeminine" unicode="&#xaa;" horiz-adv-x="1847" 
d="M1646 494v38q0 30 -29 30h-1558v138h1615q67 0 98.5 -32t31.5 -98v-274q0 -66 -31.5 -98t-98.5 -32h-1507q-131 0 -131 130v68q0 130 131 130h1479zM194 343v-9q0 -16 6.5 -23t22.5 -7h1394q29 0 29 30v38h-1423q-16 0 -22.5 -6.5t-6.5 -22.5zM904 150l115 -150h-230z
" />
    <glyph glyph-name="guillemotleft" unicode="&#xab;" horiz-adv-x="806" 
d="M455 51h-209l-220 249l220 249h209l-225 -249zM781 51h-209l-220 249l220 249h209l-225 -249z" />
    <glyph glyph-name="logicalnot" unicode="&#xac;" 
d="M53 271v158h2457v-399h-158v241h-2299z" />
    <glyph glyph-name="uni00AD" unicode="&#xad;" horiz-adv-x="914" 
d="M874 409v-164h-833v164h833z" />
    <glyph glyph-name="registered" unicode="&#xae;" horiz-adv-x="2496" 
d="M224 0q-88 0 -129.5 42t-41.5 128v360q0 86 41.5 128t129.5 42h2048q88 0 129.5 -42t41.5 -128v-360q0 -86 -41.5 -128t-129.5 -42h-2048zM229 72h2038q94 0 94 94v368q0 94 -94 94h-2038q-94 0 -94 -94v-368q0 -94 94 -94zM2248 409q0 -54 -64 -60q32 -3 48 -21t16 -46
v-94h-77v106q0 23 -20 23h-1824v-129h-78v323h1937q32 0 47 -15t15 -48v-39zM2171 429q0 16 -17 16h-1827v-63h1827q17 0 17 17v30z" />
    <glyph glyph-name="macron" unicode="&#xaf;" horiz-adv-x="601" 
d="M563 665h-524v97h524v-97z" />
    <glyph glyph-name="degree" unicode="&#xb0;" horiz-adv-x="1114" 
d="M36 547q0 153 161 153h720q161 0 161 -153v-89q0 -153 -161 -153h-720q-161 0 -161 153v89zM247 555q-25 0 -33.5 -9t-8.5 -33v-21q0 -24 8.5 -33t33.5 -9h620q25 0 33.5 9t8.5 33v21q0 24 -8.5 33t-33.5 9h-620z" />
    <glyph glyph-name="plusminus" unicode="&#xb1;" 
d="M53 271v158h1149v241h158v-241h1150v-158h-1150v-113h1150v-158h-2457v158h1149v113h-1149z" />
    <glyph glyph-name="twosuperior" unicode="&#xb2;" horiz-adv-x="1425" 
d="M1232 523v9q0 16 -6.5 23t-22.5 7h-1144v138h1202q66 0 97.5 -32t31.5 -98v-68q0 -66 -31.5 -98t-97.5 -32h-1020q-25 0 -34 -9t-9 -33v-26h1192v-138h-1350v171q0 157 157 157h1006q16 0 22.5 6.5t6.5 22.5z" />
    <glyph glyph-name="threesuperior" unicode="&#xb3;" horiz-adv-x="1425" 
d="M1386 574v-30q0 -48 -23.5 -76.5t-85.5 -34.5q62 -6 85.5 -34.5t23.5 -76.5v-30q0 -65 -30 -95.5t-96 -30.5h-1222v138h1161q16 0 22.5 7t6.5 23v9q0 16 -6.5 22.5t-22.5 6.5h-1074v122h1074q29 0 29 29v9q0 16 -6.5 23t-22.5 7h-1161v138h1222q66 0 96 -30.5t30 -95.5z
" />
    <glyph glyph-name="acute" unicode="&#xb4;" horiz-adv-x="601" 
d="M550 768l-296 -110h-200l218 110h278z" />
    <glyph glyph-name="uni00B5" unicode="&#xb5;" horiz-adv-x="2296" 
d="M278 160h1744q40 0 40 39v404h184v-435q0 -86 -40 -127t-125 -41h-1701q-63 0 -96 20.5t-45 65.5v-253h-184v770h184v-404q0 -39 39 -39z" />
    <glyph glyph-name="paragraph" unicode="&#xb6;" horiz-adv-x="2227" 
d="M2164 700v-832h-178v672h-133v-672h-178v407h-1474q-87 0 -128 42t-41 128v85q0 86 41 128t128 42h1963z" />
    <glyph glyph-name="periodcentered" unicode="&#xb7;" horiz-adv-x="334" 
d="M279 425v-150h-223v150h223z" />
    <glyph glyph-name="cedilla" unicode="&#xb8;" horiz-adv-x="601" 
d="M277 -40h165q66 0 92.5 -16t26.5 -53q0 -46 -34.5 -69.5t-124.5 -23.5h-361v103h351q29 0 29 18q0 14 -24 14h-164l32 67h30z" />
    <glyph glyph-name="onesuperior" unicode="&#xb9;" horiz-adv-x="1425" 
d="M97 166v138h639v258h-640v138h798v-396h479v-138h-1276z" />
    <glyph glyph-name="ordmasculine" unicode="&#xba;" horiz-adv-x="1854" 
d="M43 296v274q0 66 31.5 98t98.5 32h1509q67 0 98.5 -32t31.5 -98v-274q0 -66 -31.5 -98t-98.5 -32h-1509q-67 0 -98.5 32t-31.5 98zM1626 304q28 0 28 30v198q0 30 -28 30h-1396q-29 0 -29 -30v-198q0 -30 29 -30h1396zM911 150l115 -150h-230z" />
    <glyph glyph-name="guillemotright" unicode="&#xbb;" horiz-adv-x="806" 
d="M560 51h-209l225 249l-225 249h209l220 -249zM234 51h-209l225 249l-225 249h209l220 -249z" />
    <glyph glyph-name="onequarter" unicode="&#xbc;" horiz-adv-x="3344" 
d="M1271 0l616 700h186l-616 -700h-186zM97 166v138h639v258h-640v138h798v-396h479v-138h-1276zM3131 336v198h158v-534h-158v198h-1044q-67 0 -98.5 32t-31.5 98v206h158v-169q0 -29 29 -29h987z" />
    <glyph glyph-name="onehalf" unicode="&#xbd;" horiz-adv-x="3344" 
d="M1271 0l616 700h186l-616 -700h-186zM97 166v138h639v258h-640v138h798v-396h479v-138h-1276zM3151 357v9q0 16 -6.5 23t-22.5 7h-1144v138h1202q66 0 97.5 -32t31.5 -98v-68q0 -66 -31.5 -98t-97.5 -32h-1020q-25 0 -34 -9t-9 -33v-26h1192v-138h-1350v171
q0 157 157 157h1006q16 0 22.5 6.5t6.5 22.5z" />
    <glyph glyph-name="threequarters" unicode="&#xbe;" horiz-adv-x="3344" 
d="M1271 0l616 700h186l-616 -700h-186zM3131 336v198h158v-534h-158v198h-1044q-67 0 -98.5 32t-31.5 98v206h158v-169q0 -29 29 -29h987zM1386 574v-30q0 -48 -23.5 -76.5t-85.5 -34.5q62 -6 85.5 -34.5t23.5 -76.5v-30q0 -65 -30 -95.5t-96 -30.5h-1222v138h1161
q16 0 22.5 7t6.5 23v9q0 16 -6.5 22.5t-22.5 6.5h-1074v122h1074q29 0 29 29v9q0 16 -6.5 23t-22.5 7h-1161v138h1222q66 0 96 -30.5t30 -95.5z" />
    <glyph glyph-name="questiondown" unicode="&#xbf;" horiz-adv-x="2535" 
d="M223 160v-25q0 -21 8.5 -29.5t29.5 -8.5h2248v-167h-2307q-88 0 -129.5 42t-41.5 128v93q0 86 41.5 128t129.5 42h1031q21 0 27.5 7t6.5 28v27h192v-75q0 -81 -35.5 -117t-116.5 -36h-1046q-21 0 -29.5 -8.5t-8.5 -28.5zM1248 500v130h230v-130h-230z" />
    <glyph glyph-name="Agrave" unicode="&#xc0;" horiz-adv-x="2588" 
d="M2529 0h-192v267h-2086v-267h-192v530q0 86 41.5 128t128.5 42h2129q87 0 129 -42t42 -128v-530zM2300 533h-2013q-20 0 -28 -8.5t-8 -29.5v-62h2086v62q0 21 -8 29.5t-29 8.5zM1266 756l-290 110h271l219 -110h-200z" />
    <glyph glyph-name="Aacute" unicode="&#xc1;" horiz-adv-x="2588" 
d="M2529 0h-192v267h-2086v-267h-192v530q0 86 41.5 128t128.5 42h2129q87 0 129 -42t42 -128v-530zM2300 533h-2013q-20 0 -28 -8.5t-8 -29.5v-62h2086v62q0 21 -8 29.5t-29 8.5zM1615 866l-296 -110h-200l218 110h278z" />
    <glyph glyph-name="Acircumflex" unicode="&#xc2;" horiz-adv-x="2588" 
d="M2529 0h-192v267h-2086v-267h-192v530q0 86 41.5 128t128.5 42h2129q87 0 129 -42t42 -128v-530zM2300 533h-2013q-20 0 -28 -8.5t-8 -29.5v-62h2086v62q0 21 -8 29.5t-29 8.5zM1294 804l-141 -48h-180l186 110h269l186 -110h-180z" />
    <glyph glyph-name="Atilde" unicode="&#xc3;" horiz-adv-x="2588" 
d="M2529 0h-192v267h-2086v-267h-192v530q0 86 41.5 128t128.5 42h2129q87 0 129 -42t42 -128v-530zM2300 533h-2013q-20 0 -28 -8.5t-8 -29.5v-62h2086v62q0 21 -8 29.5t-29 8.5zM1033 736v108q69 44 144 44q46 0 127.5 -22.5t121.5 -22.5q67 0 127 45v-107
q-70 -46 -146 -46q-46 0 -127.5 22.5t-121.5 22.5q-66 0 -125 -44z" />
    <glyph glyph-name="Adieresis" unicode="&#xc4;" horiz-adv-x="2588" 
d="M2529 0h-192v267h-2086v-267h-192v530q0 86 41.5 128t128.5 42h2129q87 0 129 -42t42 -128v-530zM2300 533h-2013q-20 0 -28 -8.5t-8 -29.5v-62h2086v62q0 21 -8 29.5t-29 8.5zM1180 867v-112h-185v112h185zM1591 867v-112h-185v112h185z" />
    <glyph glyph-name="Aring" unicode="&#xc5;" horiz-adv-x="2588" 
d="M2529 0h-192v267h-2086v-267h-192v530q0 86 41.5 128t128.5 42h2129q87 0 129 -42t42 -128v-530zM2300 533h-2013q-20 0 -28 -8.5t-8 -29.5v-62h2086v62q0 21 -8 29.5t-29 8.5zM1153 833q0 -22 22 -22h238q21 0 21 22t-21 22h-238q-22 0 -22 -22zM1400 747h-212
q-58 0 -81 21.5t-23 64.5q0 44 23 65.5t81 21.5h212q58 0 81 -22t23 -65t-23 -64.5t-81 -21.5z" />
    <glyph glyph-name="AE" unicode="&#xc6;" horiz-adv-x="3956" 
d="M1901 0v267h-1650v-267h-192v530q0 86 41.5 128t128.5 42h3685v-167h-1821v-100h1706v-166h-1706v-100h1821v-167h-2013zM287 533q-20 0 -28 -8.5t-8 -29.5v-62h1650v100h-1614z" />
    <glyph glyph-name="Ccedilla" unicode="&#xc7;" horiz-adv-x="2494" 
d="M1280 0l-18 -40h165q66 0 92.5 -16t26.5 -53q0 -46 -34.5 -69.5t-124.5 -23.5h-361v103h351q29 0 29 18q0 14 -24 14h-164l32 67h-1028q-87 0 -128 42t-41 128v360q0 86 41 128t128 42h2230v-167h-2171q-20 0 -28 -8.5t-8 -29.5v-290q0 -21 8 -29.5t28 -8.5h2171v-167
h-1172z" />
    <glyph glyph-name="Egrave" unicode="&#xc8;" horiz-adv-x="2554" 
d="M63 0v700h2449v-167h-2257v-100h2142v-166h-2142v-100h2257v-167h-2449zM1279 756l-290 110h271l219 -110h-200z" />
    <glyph glyph-name="Eacute" unicode="&#xc9;" horiz-adv-x="2554" 
d="M63 0v700h2449v-167h-2257v-100h2142v-166h-2142v-100h2257v-167h-2449zM1620 866l-296 -110h-200l218 110h278z" />
    <glyph glyph-name="Ecircumflex" unicode="&#xca;" horiz-adv-x="2554" 
d="M63 0v700h2449v-167h-2257v-100h2142v-166h-2142v-100h2257v-167h-2449zM1306 804l-141 -48h-180l186 110h269l186 -110h-180z" />
    <glyph glyph-name="Edieresis" unicode="&#xcb;" horiz-adv-x="2554" 
d="M63 0v700h2449v-167h-2257v-100h2142v-166h-2142v-100h2257v-167h-2449zM1193 867v-112h-185v112h185zM1604 867v-112h-185v112h185z" />
    <glyph glyph-name="Igrave" unicode="&#xcc;" horiz-adv-x="317" 
d="M63 0v700h192v-700h-192zM152 756l-290 110h271l219 -110h-200z" />
    <glyph glyph-name="Iacute" unicode="&#xcd;" horiz-adv-x="317" 
d="M63 0v700h192v-700h-192zM459 866l-296 -110h-200l218 110h278z" />
    <glyph glyph-name="Icircumflex" unicode="&#xce;" horiz-adv-x="317" 
d="M63 0v700h192v-700h-192zM159 804l-141 -48h-180l186 110h269l186 -110h-180z" />
    <glyph glyph-name="Idieresis" unicode="&#xcf;" horiz-adv-x="317" 
d="M405 866v-111h-185v111h185zM98 866v-111h-185v111h185zM63 0v700h192v-700h-192z" />
    <glyph glyph-name="Eth" unicode="&#xd0;" horiz-adv-x="2580" 
d="M2297 700q116 0 176 -60t60 -176v-228q0 -116 -60.5 -176t-175.5 -60h-2234v267h-62v166h62v267h2234zM2272 167q69 0 69 70v226q0 70 -69 70h-2017v-100h322v-166h-322v-100h2017z" />
    <glyph glyph-name="Ntilde" unicode="&#xd1;" horiz-adv-x="2588" 
d="M287 533q-20 0 -28 -8.5t-8 -29.5v-495h-192v530q0 86 41.5 128t128.5 42h2129q87 0 129 -42t42 -128v-530h-192v495q0 21 -8 29.5t-29 8.5h-2013zM1033 736v108q69 44 144 44q46 0 127.5 -22.5t121.5 -22.5q67 0 127 45v-107q-70 -46 -146 -46q-46 0 -127.5 22.5
t-121.5 22.5q-66 0 -125 -44z" />
    <glyph glyph-name="Ograve" unicode="&#xd2;" horiz-adv-x="2583" 
d="M223 0q-87 0 -128.5 42t-41.5 128v360q0 86 41.5 128t128.5 42h2137q87 0 128.5 -42t41.5 -128v-360q0 -86 -41.5 -128t-128.5 -42h-2137zM2338 204v291q0 21 -8.5 29.5t-28.5 8.5h-2020q-20 0 -28 -8.5t-8 -29.5v-290q0 -38 36 -38h2020q20 0 28.5 8.5t8.5 28.5z
M1264 756l-290 110h271l219 -110h-200z" />
    <glyph glyph-name="Oacute" unicode="&#xd3;" horiz-adv-x="2583" 
d="M223 0q-87 0 -128.5 42t-41.5 128v360q0 86 41.5 128t128.5 42h2137q87 0 128.5 -42t41.5 -128v-360q0 -86 -41.5 -128t-128.5 -42h-2137zM2338 204v291q0 21 -8.5 29.5t-28.5 8.5h-2020q-20 0 -28 -8.5t-8 -29.5v-290q0 -38 36 -38h2020q20 0 28.5 8.5t8.5 28.5z
M1612 866l-296 -110h-200l218 110h278z" />
    <glyph glyph-name="Ocircumflex" unicode="&#xd4;" horiz-adv-x="2583" 
d="M223 0q-87 0 -128.5 42t-41.5 128v360q0 86 41.5 128t128.5 42h2137q87 0 128.5 -42t41.5 -128v-360q0 -86 -41.5 -128t-128.5 -42h-2137zM2338 204v291q0 21 -8.5 29.5t-28.5 8.5h-2020q-20 0 -28 -8.5t-8 -29.5v-290q0 -38 36 -38h2020q20 0 28.5 8.5t8.5 28.5z
M1291 804l-141 -48h-180l186 110h269l186 -110h-180z" />
    <glyph glyph-name="Otilde" unicode="&#xd5;" horiz-adv-x="2583" 
d="M223 0q-87 0 -128.5 42t-41.5 128v360q0 86 41.5 128t128.5 42h2137q87 0 128.5 -42t41.5 -128v-360q0 -86 -41.5 -128t-128.5 -42h-2137zM2338 204v291q0 21 -8.5 29.5t-28.5 8.5h-2020q-20 0 -28 -8.5t-8 -29.5v-290q0 -38 36 -38h2020q20 0 28.5 8.5t8.5 28.5z
M1030 736v108q69 44 144 44q46 0 127.5 -22.5t121.5 -22.5q67 0 127 45v-107q-70 -46 -146 -46q-46 0 -127.5 22.5t-121.5 22.5q-66 0 -125 -44z" />
    <glyph glyph-name="Odieresis" unicode="&#xd6;" horiz-adv-x="2583" 
d="M223 0q-87 0 -128.5 42t-41.5 128v360q0 86 41.5 128t128.5 42h2137q87 0 128.5 -42t41.5 -128v-360q0 -86 -41.5 -128t-128.5 -42h-2137zM2338 204v291q0 21 -8.5 29.5t-28.5 8.5h-2020q-20 0 -28 -8.5t-8 -29.5v-290q0 -38 36 -38h2020q20 0 28.5 8.5t8.5 28.5z
M1178 867v-112h-185v112h185zM1589 867v-112h-185v112h185z" />
    <glyph glyph-name="multiply" unicode="&#xd7;" 
d="M1472 271l179 -241h-195l-175 241l-174 -241h-195l177 241h-1036v158h1036l-177 241h195l174 -241l175 241h195l-179 -241h1038v-158h-1038z" />
    <glyph glyph-name="Oslash" unicode="&#xd8;" horiz-adv-x="2583" 
d="M223 0q-87 0 -128.5 42t-41.5 128v360q0 86 41.5 128t128.5 42h2137q87 0 128.5 -42t41.5 -128v-360q0 -86 -41.5 -128t-128.5 -42h-2137zM2338 204v291q0 21 -8.5 29.5t-29.5 8.5l-1498 -366h1499q20 0 28.5 8.5t8.5 28.5zM281 167l1497 366h-1497q-20 0 -28 -8.5
t-8 -29.5v-290q0 -38 36 -38z" />
    <glyph glyph-name="Ugrave" unicode="&#xd9;" horiz-adv-x="2588" 
d="M229 0q-87 0 -128.5 42t-41.5 128v530h192v-495q0 -21 8 -29.5t28 -8.5h2013q21 0 29 8.5t8 29.5v495h192v-530q0 -86 -42 -128t-129 -42h-2129zM1266 756l-290 110h271l219 -110h-200z" />
    <glyph glyph-name="Uacute" unicode="&#xda;" horiz-adv-x="2588" 
d="M229 0q-87 0 -128.5 42t-41.5 128v530h192v-495q0 -21 8 -29.5t28 -8.5h2013q21 0 29 8.5t8 29.5v495h192v-530q0 -86 -42 -128t-129 -42h-2129zM1608 866l-296 -110h-200l218 110h278z" />
    <glyph glyph-name="Ucircumflex" unicode="&#xdb;" horiz-adv-x="2588" 
d="M229 0q-87 0 -128.5 42t-41.5 128v530h192v-495q0 -21 8 -29.5t28 -8.5h2013q21 0 29 8.5t8 29.5v495h192v-530q0 -86 -42 -128t-129 -42h-2129zM1294 804l-141 -48h-180l186 110h269l186 -110h-180z" />
    <glyph glyph-name="Udieresis" unicode="&#xdc;" horiz-adv-x="2588" 
d="M229 0q-87 0 -128.5 42t-41.5 128v530h192v-495q0 -21 8 -29.5t28 -8.5h2013q21 0 29 8.5t8 29.5v495h192v-530q0 -86 -42 -128t-129 -42h-2129zM1180 867v-112h-185v112h185zM1591 867v-112h-185v112h185z" />
    <glyph glyph-name="Yacute" unicode="&#xdd;" horiz-adv-x="2566" 
d="M2331 700h192v-263q0 -86 -41 -128t-129 -42h-974v-267h-192v267h-975q-87 0 -128 42t-41 128v263h192v-230q0 -20 8 -28.5t28 -8.5h2024q20 0 28 8.5t8 28.5v230zM1604 866l-296 -110h-200l218 110h278z" />
    <glyph glyph-name="Thorn" unicode="&#xde;" horiz-adv-x="2557" 
d="M63 0v700h192v-97h2100q87 0 128.5 -42t41.5 -128v-94q0 -86 -41.5 -128t-128.5 -42h-2100v-169h-192zM2333 398q0 21 -8.5 29.5t-28.5 8.5h-2041v-100h2041q20 0 28.5 8.5t8.5 28.5v25z" />
    <glyph glyph-name="germandbls" unicode="&#xdf;" horiz-adv-x="2323" 
d="M2071 232h-1585v139h1585q29 0 29 29v15q0 28 -29 28h-1782q-28 0 -41 -12.5t-13 -41.5v-389h-184v414q0 96 46 142.5t144 46.5h1902q74 0 107.5 -33t33.5 -103v-38q0 -56 -24.5 -89t-82.5 -39q58 -6 82.5 -38.5t24.5 -88.5v-38q0 -71 -35 -103.5t-106 -32.5h-1657v160
h1585q29 0 29 29v15q0 28 -29 28z" />
    <glyph glyph-name="agrave" unicode="&#xe0;" horiz-adv-x="2303" 
d="M2072 371v33q0 18 -10.5 28.5t-28.5 10.5h-1968v160h2025q86 0 126 -40.5t40 -127.5v-267q0 -86 -40 -127t-126 -41h-1903q-77 0 -113.5 37t-36.5 116v65q0 79 36.5 116t112.5 37h1886zM2072 232h-1822q-29 0 -29 -28v-15q0 -29 29 -29h1783q39 0 39 39v33zM1115 658
l-290 110h271l219 -110h-200z" />
    <glyph glyph-name="aacute" unicode="&#xe1;" horiz-adv-x="2303" 
d="M2072 371v33q0 18 -10.5 28.5t-28.5 10.5h-1968v160h2025q86 0 126 -40.5t40 -127.5v-267q0 -86 -40 -127t-126 -41h-1903q-77 0 -113.5 37t-36.5 116v65q0 79 36.5 116t112.5 37h1886zM2072 232h-1822q-29 0 -29 -28v-15q0 -29 29 -29h1783q39 0 39 39v33zM1464 768
l-296 -110h-200l218 110h278z" />
    <glyph glyph-name="acircumflex" unicode="&#xe2;" horiz-adv-x="2303" 
d="M2072 371v33q0 18 -10.5 28.5t-28.5 10.5h-1968v160h2025q86 0 126 -40.5t40 -127.5v-267q0 -86 -40 -127t-126 -41h-1903q-77 0 -113.5 37t-36.5 116v65q0 79 36.5 116t112.5 37h1886zM2072 232h-1822q-29 0 -29 -28v-15q0 -29 29 -29h1783q39 0 39 39v33zM1143 706
l-141 -48h-180l186 110h269l186 -110h-180z" />
    <glyph glyph-name="atilde" unicode="&#xe3;" horiz-adv-x="2303" 
d="M2072 371v33q0 18 -10.5 28.5t-28.5 10.5h-1968v160h2025q86 0 126 -40.5t40 -127.5v-267q0 -86 -40 -127t-126 -41h-1903q-77 0 -113.5 37t-36.5 116v65q0 79 36.5 116t112.5 37h1886zM2072 232h-1822q-29 0 -29 -28v-15q0 -29 29 -29h1783q39 0 39 39v33zM882 638v108
q69 44 144 44q46 0 127.5 -22.5t121.5 -22.5q67 0 127 45v-107q-70 -46 -146 -46q-46 0 -127.5 22.5t-121.5 22.5q-66 0 -125 -44z" />
    <glyph glyph-name="adieresis" unicode="&#xe4;" horiz-adv-x="2303" 
d="M2072 371v33q0 18 -10.5 28.5t-28.5 10.5h-1968v160h2025q86 0 126 -40.5t40 -127.5v-267q0 -86 -40 -127t-126 -41h-1903q-77 0 -113.5 37t-36.5 116v65q0 79 36.5 116t112.5 37h1886zM2072 232h-1822q-29 0 -29 -28v-15q0 -29 29 -29h1783q39 0 39 39v33zM1029 769
v-112h-185v112h185zM1440 769v-112h-185v112h185z" />
    <glyph glyph-name="aring" unicode="&#xe5;" horiz-adv-x="2303" 
d="M2072 371v33q0 18 -10.5 28.5t-28.5 10.5h-1968v160h2025q86 0 126 -40.5t40 -127.5v-267q0 -86 -40 -127t-126 -41h-1903q-77 0 -113.5 37t-36.5 116v65q0 79 36.5 116t112.5 37h1886zM2072 232h-1822q-29 0 -29 -28v-15q0 -29 29 -29h1783q39 0 39 39v33zM1002 735
q0 -22 22 -22h238q21 0 21 22t-21 22h-238q-22 0 -22 -22zM1249 649h-212q-58 0 -81 21.5t-23 64.5q0 44 23 65.5t81 21.5h212q58 0 81 -22t23 -65t-23 -64.5t-81 -21.5z" />
    <glyph glyph-name="ae" unicode="&#xe6;" horiz-adv-x="3427" 
d="M3207 400v15q0 28 -29 28h-1333q-39 0 -39 -39v-33h1372q29 0 29 29zM221 204v-15q0 -29 29 -29h1332q40 0 40 39v33h-1372q-29 0 -29 -28zM1556 0h-1369q-77 0 -113.5 37t-36.5 116v65q0 79 36.5 116t112.5 37h1436v33q0 39 -40 39h-1518v160h1492q78 0 115 -31.5
t43 -102.5q6 71 42.5 102.5t114.5 31.5h1370q76 0 113 -37.5t37 -115.5v-65q0 -79 -36.5 -116t-113.5 -37h-1435v-33q0 -39 39 -39h1518v-160h-1492q-78 0 -114.5 31.5t-42.5 102.5q-6 -71 -43 -102.5t-115 -31.5z" />
    <glyph glyph-name="ccedilla" unicode="&#xe7;" horiz-adv-x="2232" 
d="M1114 0h-901q-86 0 -126 41t-40 127v267q0 87 39.5 127.5t126.5 40.5h1980v-160h-1923q-39 0 -39 -39v-205q0 -39 39 -39h1923v-160h-1049l-18 -40h165q66 0 92.5 -16t26.5 -53q0 -46 -34.5 -69.5t-124.5 -23.5h-361v103h351q29 0 29 18q0 14 -24 14h-164z" />
    <glyph glyph-name="egrave" unicode="&#xe8;" horiz-adv-x="2303" 
d="M2266 385q0 -79 -36.5 -116t-113.5 -37h-1885v-33q0 -39 39 -39h1966v-160h-2023q-86 0 -126 40.5t-40 127.5v267q0 86 40 127t126 41h1903q77 0 113.5 -37t36.5 -116v-65zM2053 443h-1783q-39 0 -39 -39v-33h1822q29 0 29 28v15q0 29 -29 29zM1146 658l-290 110h271
l219 -110h-200z" />
    <glyph glyph-name="eacute" unicode="&#xe9;" horiz-adv-x="2303" 
d="M2266 385q0 -79 -36.5 -116t-113.5 -37h-1885v-33q0 -39 39 -39h1966v-160h-2023q-86 0 -126 40.5t-40 127.5v267q0 86 40 127t126 41h1903q77 0 113.5 -37t36.5 -116v-65zM2053 443h-1783q-39 0 -39 -39v-33h1822q29 0 29 28v15q0 29 -29 29zM1494 768l-296 -110h-200
l218 110h278z" />
    <glyph glyph-name="ecircumflex" unicode="&#xea;" horiz-adv-x="2303" 
d="M2266 385q0 -79 -36.5 -116t-113.5 -37h-1885v-33q0 -39 39 -39h1966v-160h-2023q-86 0 -126 40.5t-40 127.5v267q0 86 40 127t126 41h1903q77 0 113.5 -37t36.5 -116v-65zM2053 443h-1783q-39 0 -39 -39v-33h1822q29 0 29 28v15q0 29 -29 29zM1173 706l-141 -48h-180
l186 110h269l186 -110h-180z" />
    <glyph glyph-name="edieresis" unicode="&#xeb;" horiz-adv-x="2303" 
d="M2266 385q0 -79 -36.5 -116t-113.5 -37h-1885v-33q0 -39 39 -39h1966v-160h-2023q-86 0 -126 40.5t-40 127.5v267q0 86 40 127t126 41h1903q77 0 113.5 -37t36.5 -116v-65zM2053 443h-1783q-39 0 -39 -39v-33h1822q29 0 29 28v15q0 29 -29 29zM1060 769v-112h-185v112
h185zM1471 769v-112h-185v112h185z" />
    <glyph glyph-name="igrave" unicode="&#xec;" horiz-adv-x="431" 
d="M183 658l-290 110h271l219 -110h-200zM278 160h132v-160h-187q-87 0 -127.5 41t-40.5 127v435h184v-404q0 -18 10.5 -28.5t28.5 -10.5z" />
    <glyph glyph-name="iacute" unicode="&#xed;" horiz-adv-x="431" 
d="M447 768l-296 -110h-200l218 110h278zM278 160h132v-160h-187q-87 0 -127.5 41t-40.5 127v435h184v-404q0 -18 10.5 -28.5t28.5 -10.5z" />
    <glyph glyph-name="icircumflex" unicode="&#xee;" horiz-adv-x="431" 
d="M278 160h132v-160h-187q-87 0 -127.5 41t-40.5 127v435h184v-404q0 -18 10.5 -28.5t28.5 -10.5zM147 706l-141 -48h-180l186 110h269l186 -110h-180z" />
    <glyph glyph-name="idieresis" unicode="&#xef;" horiz-adv-x="431" 
d="M395 769v-112h-185v112h185zM82 769v-112h-185v112h185zM278 160h132v-160h-187q-87 0 -127.5 41t-40.5 127v435h184v-404q0 -18 10.5 -28.5t28.5 -10.5z" />
    <glyph glyph-name="eth" unicode="&#xf0;" horiz-adv-x="2295" 
d="M214 549h1705q63 0 96.5 -20.5t45.5 -65.5v79q0 38 -16.5 53.5t-53.5 15.5h-840v-31h-111v31h-953v160h953v49h111v-49h862q121 0 176.5 -56t55.5 -177v-369q0 -87 -40.5 -127.5t-127.5 -40.5h-1863q-87 0 -127 40.5t-40 127.5v212q0 86 40.5 127t126.5 41zM2021 389
h-1751q-39 -2 -39 -40v-149q0 -39 39 -39h1751q40 0 40 39v149q0 40 -40 40z" />
    <glyph glyph-name="ntilde" unicode="&#xf1;" horiz-adv-x="2292" 
d="M51 0v435q0 86 40 127t125 41h1860q85 0 125 -41t40 -127v-435h-184v404q0 39 -39 39h-1744q-39 0 -39 -39v-404h-184zM885 638v108q69 44 144 44q46 0 127.5 -22.5t121.5 -22.5q67 0 127 45v-107q-70 -46 -146 -46q-46 0 -127.5 22.5t-121.5 22.5q-66 0 -125 -44z" />
    <glyph glyph-name="ograve" unicode="&#xf2;" horiz-adv-x="2291" 
d="M2078 603q86 0 126 -40.5t40 -127.5v-267q0 -86 -40 -127t-126 -41h-1865q-86 0 -126 41t-40 127v267q0 87 39.5 127.5t126.5 40.5h1865zM2021 160q39 0 39 39v205q0 39 -39 39h-1751q-39 0 -39 -39v-205q0 -39 39 -39h1751zM1118 658l-290 110h271l219 -110h-200z" />
    <glyph glyph-name="oacute" unicode="&#xf3;" horiz-adv-x="2291" 
d="M2078 603q86 0 126 -40.5t40 -127.5v-267q0 -86 -40 -127t-126 -41h-1865q-86 0 -126 41t-40 127v267q0 87 39.5 127.5t126.5 40.5h1865zM2021 160q39 0 39 39v205q0 39 -39 39h-1751q-39 0 -39 -39v-205q0 -39 39 -39h1751zM1466 768l-296 -110h-200l218 110h278z" />
    <glyph glyph-name="ocircumflex" unicode="&#xf4;" horiz-adv-x="2291" 
d="M2078 603q86 0 126 -40.5t40 -127.5v-267q0 -86 -40 -127t-126 -41h-1865q-86 0 -126 41t-40 127v267q0 87 39.5 127.5t126.5 40.5h1865zM2021 160q39 0 39 39v205q0 39 -39 39h-1751q-39 0 -39 -39v-205q0 -39 39 -39h1751zM1146 706l-141 -48h-180l186 110h269
l186 -110h-180z" />
    <glyph glyph-name="otilde" unicode="&#xf5;" horiz-adv-x="2291" 
d="M2078 603q86 0 126 -40.5t40 -127.5v-267q0 -86 -40 -127t-126 -41h-1865q-86 0 -126 41t-40 127v267q0 87 39.5 127.5t126.5 40.5h1865zM2021 160q39 0 39 39v205q0 39 -39 39h-1751q-39 0 -39 -39v-205q0 -39 39 -39h1751zM885 638v108q69 44 144 44q46 0 127.5 -22.5
t121.5 -22.5q67 0 127 45v-107q-70 -46 -146 -46q-46 0 -127.5 22.5t-121.5 22.5q-66 0 -125 -44z" />
    <glyph glyph-name="odieresis" unicode="&#xf6;" horiz-adv-x="2291" 
d="M2078 603q86 0 126 -40.5t40 -127.5v-267q0 -86 -40 -127t-126 -41h-1865q-86 0 -126 41t-40 127v267q0 87 39.5 127.5t126.5 40.5h1865zM2021 160q39 0 39 39v205q0 39 -39 39h-1751q-39 0 -39 -39v-205q0 -39 39 -39h1751zM1032 769v-112h-185v112h185zM1443 769v-112
h-185v112h185z" />
    <glyph glyph-name="divide" unicode="&#xf7;" 
d="M1386 159v-150h-210v150h210zM1386 691v-150h-210v150h210zM2510 271h-2457v158h2457v-158z" />
    <glyph glyph-name="oslash" unicode="&#xf8;" horiz-adv-x="2291" 
d="M2078 603q86 0 126 -40.5t40 -127.5v-267q0 -86 -40 -127t-126 -41h-1865q-86 0 -126 41t-40 127v267q0 87 39.5 127.5t126.5 40.5h1865zM260 160l1265 283h-1255q-39 0 -39 -39v-205q0 -33 29 -39zM2021 160q39 0 39 39v205q0 33 -29 38l-1264 -282h1254z" />
    <glyph glyph-name="ugrave" unicode="&#xf9;" horiz-adv-x="2292" 
d="M2018 160q39 0 39 39v404h184v-435q0 -86 -40 -127t-125 -41h-1860q-85 0 -125 41t-40 127v435h184v-404q0 -39 39 -39h1744zM1119 658l-290 110h271l219 -110h-200z" />
    <glyph glyph-name="uacute" unicode="&#xfa;" horiz-adv-x="2292" 
d="M2018 160q39 0 39 39v404h184v-435q0 -86 -40 -127t-125 -41h-1860q-85 0 -125 41t-40 127v435h184v-404q0 -39 39 -39h1744zM1467 768l-296 -110h-200l218 110h278z" />
    <glyph glyph-name="ucircumflex" unicode="&#xfb;" horiz-adv-x="2292" 
d="M2018 160q39 0 39 39v404h184v-435q0 -86 -40 -127t-125 -41h-1860q-85 0 -125 41t-40 127v435h184v-404q0 -39 39 -39h1744zM1146 706l-141 -48h-180l186 110h269l186 -110h-180z" />
    <glyph glyph-name="udieresis" unicode="&#xfc;" horiz-adv-x="2292" 
d="M2018 160q39 0 39 39v404h184v-435q0 -86 -40 -127t-125 -41h-1860q-85 0 -125 41t-40 127v435h184v-404q0 -39 39 -39h1744zM1032 769v-112h-185v112h185zM1443 769v-112h-185v112h185z" />
    <glyph glyph-name="yacute" unicode="&#xfd;" horiz-adv-x="2296" 
d="M2010 -167h-1919v160h1897q37 0 53.5 15.5t16.5 53.5v89q-13 -45 -46 -65.5t-96 -20.5h-1699q-86 0 -126 41t-40 127v370h184v-339q0 -39 39 -39h1744q40 0 40 39v339h184v-537q0 -121 -55.5 -177t-176.5 -56zM1469 768l-296 -110h-200l218 110h278z" />
    <glyph glyph-name="thorn" unicode="&#xfe;" horiz-adv-x="2299" 
d="M239 770v-167h1849q85 0 125 -41t40 -127v-267q0 -86 -40 -127t-125 -41h-1708q-63 0 -96 20.5t-45 65.5v-253h-184v937h184zM239 443v-244q0 -39 39 -39h1751q40 0 40 39v205q0 39 -40 39h-1790z" />
    <glyph glyph-name="ydieresis" unicode="&#xff;" horiz-adv-x="2296" 
d="M2010 -167h-1919v160h1897q37 0 53.5 15.5t16.5 53.5v89q-13 -45 -46 -65.5t-96 -20.5h-1699q-86 0 -126 41t-40 127v370h184v-339q0 -39 39 -39h1744q40 0 40 39v339h184v-537q0 -121 -55.5 -177t-176.5 -56zM1034 769v-112h-185v112h185zM1445 769v-112h-185v112h185z
" />
    <glyph glyph-name="Amacron" unicode="&#x100;" horiz-adv-x="2588" 
d="M2529 0h-192v267h-2086v-267h-192v530q0 86 41.5 128t128.5 42h2129q87 0 129 -42t42 -128v-530zM2300 533h-2013q-20 0 -28 -8.5t-8 -29.5v-62h2086v62q0 21 -8 29.5t-29 8.5zM1556 763h-524v97h524v-97z" />
    <glyph glyph-name="amacron" unicode="&#x101;" horiz-adv-x="2303" 
d="M2072 371v33q0 18 -10.5 28.5t-28.5 10.5h-1968v160h2025q86 0 126 -40.5t40 -127.5v-267q0 -86 -40 -127t-126 -41h-1903q-77 0 -113.5 37t-36.5 116v65q0 79 36.5 116t112.5 37h1886zM2072 232h-1822q-29 0 -29 -28v-15q0 -29 29 -29h1783q39 0 39 39v33zM1405 665
h-524v97h524v-97z" />
    <glyph glyph-name="Abreve" unicode="&#x102;" horiz-adv-x="2588" 
d="M2529 0h-192v267h-2086v-267h-192v530q0 86 41.5 128t128.5 42h2129q87 0 129 -42t42 -128v-530zM2300 533h-2013q-20 0 -28 -8.5t-8 -29.5v-62h2086v62q0 21 -8 29.5t-29 8.5zM1033 791v103q101 -49 261 -49q159 0 259 49v-103q-91 -52 -259 -52t-261 52z" />
    <glyph glyph-name="abreve" unicode="&#x103;" horiz-adv-x="2303" 
d="M2072 371v33q0 18 -10.5 28.5t-28.5 10.5h-1968v160h2025q86 0 126 -40.5t40 -127.5v-267q0 -86 -40 -127t-126 -41h-1903q-77 0 -113.5 37t-36.5 116v65q0 79 36.5 116t112.5 37h1886zM2072 232h-1822q-29 0 -29 -28v-15q0 -29 29 -29h1783q39 0 39 39v33zM882 693v103
q101 -49 261 -49q159 0 259 49v-103q-91 -52 -259 -52t-261 52z" />
    <glyph glyph-name="Aogonek" unicode="&#x104;" horiz-adv-x="2588" 
d="M2449 0v-66h-43q-150 0 -221.5 -3t-85.5 -7t-14 -13q0 -10 26 -10h385v-103h-391q-72 0 -103 14t-31 55q0 21 4.5 34t21 24.5t42.5 17.5t75.5 10t113 5.5t161.5 1.5h31v40h-83v267h-2086v-267h-192v530q0 86 41.5 128t128.5 42h2129q87 0 129 -42t42 -128v-530h-80z
M2300 533h-2013q-20 0 -28 -8.5t-8 -29.5v-62h2086v62q0 21 -8 29.5t-29 8.5z" />
    <glyph glyph-name="aogonek" unicode="&#x105;" horiz-adv-x="2303" 
d="M2177 -66h-43q-150 0 -221.5 -3t-85.5 -7t-14 -13q0 -10 26 -10h385v-103h-391q-72 0 -103 14t-31 55q0 21 4.5 34t21 24.5t42.5 17.5t75.5 10t113 5.5t161.5 1.5h31v45q-21 -5 -58 -5h-1903q-77 0 -113.5 37t-36.5 116v65q0 79 36.5 116t112.5 37h1886v33
q0 18 -10.5 28.5t-28.5 10.5h-1968v160h2025q86 0 126 -40.5t40 -127.5v-267q0 -120 -79 -154v-80zM2072 232h-1822q-29 0 -29 -28v-15q0 -29 29 -29h1783q39 0 39 39v33z" />
    <glyph glyph-name="Cacute" unicode="&#x106;" horiz-adv-x="2494" 
d="M222 0q-87 0 -128 42t-41 128v360q0 86 41 128t128 42h2230v-167h-2171q-20 0 -28 -8.5t-8 -29.5v-290q0 -21 8 -29.5t28 -8.5h2171v-167h-2230zM1603 866l-296 -110h-200l218 110h278z" />
    <glyph glyph-name="cacute" unicode="&#x107;" horiz-adv-x="2232" 
d="M213 0q-86 0 -126 41t-40 127v267q0 87 39.5 127.5t126.5 40.5h1980v-160h-1923q-39 0 -39 -39v-205q0 -39 39 -39h1923v-160h-1980zM1479 768l-296 -110h-200l218 110h278z" />
    <glyph glyph-name="Ccircumflex" unicode="&#x108;" horiz-adv-x="2494" 
d="M222 0q-87 0 -128 42t-41 128v360q0 86 41 128t128 42h2230v-167h-2171q-20 0 -28 -8.5t-8 -29.5v-290q0 -21 8 -29.5t28 -8.5h2171v-167h-2230zM1288 804l-141 -48h-180l186 110h269l186 -110h-180z" />
    <glyph glyph-name="ccircumflex" unicode="&#x109;" horiz-adv-x="2232" 
d="M213 0q-86 0 -126 41t-40 127v267q0 87 39.5 127.5t126.5 40.5h1980v-160h-1923q-39 0 -39 -39v-205q0 -39 39 -39h1923v-160h-1980zM1158 706l-141 -48h-180l186 110h269l186 -110h-180z" />
    <glyph glyph-name="Cdotaccent" unicode="&#x10a;" horiz-adv-x="2494" 
d="M222 0q-87 0 -128 42t-41 128v360q0 86 41 128t128 42h2230v-167h-2171q-20 0 -28 -8.5t-8 -29.5v-290q0 -21 8 -29.5t28 -8.5h2171v-167h-2230zM1380 867v-112h-185v112h185z" />
    <glyph glyph-name="cdotaccent" unicode="&#x10b;" horiz-adv-x="2232" 
d="M213 0q-86 0 -126 41t-40 127v267q0 87 39.5 127.5t126.5 40.5h1980v-160h-1923q-39 0 -39 -39v-205q0 -39 39 -39h1923v-160h-1980zM1250 769v-112h-185v112h185z" />
    <glyph glyph-name="Ccaron" unicode="&#x10c;" horiz-adv-x="2494" 
d="M222 0q-87 0 -128 42t-41 128v360q0 86 41 128t128 42h2230v-167h-2171q-20 0 -28 -8.5t-8 -29.5v-290q0 -21 8 -29.5t28 -8.5h2171v-167h-2230zM1147 866l141 -48l140 48h180l-186 -110h-269l-186 110h180z" />
    <glyph glyph-name="ccaron" unicode="&#x10d;" horiz-adv-x="2232" 
d="M213 0q-86 0 -126 41t-40 127v267q0 87 39.5 127.5t126.5 40.5h1980v-160h-1923q-39 0 -39 -39v-205q0 -39 39 -39h1923v-160h-1980zM1017 768l141 -48l140 48h180l-186 -110h-269l-186 110h180z" />
    <glyph glyph-name="Dcaron" unicode="&#x10e;" horiz-adv-x="2580" 
d="M2297 700q116 0 176 -60t60 -176v-228q0 -116 -60.5 -176t-175.5 -60h-2234v700h2234zM2272 167q69 0 69 70v226q0 70 -69 70h-2017v-366h2017zM1137 866l141 -48l140 48h180l-186 -110h-269l-186 110h180z" />
    <glyph glyph-name="dcaron" unicode="&#x10f;" horiz-adv-x="2629" 
d="M2245 770v-602q0 -86 -40.5 -127t-127.5 -41h-1865q-85 0 -125 41t-40 127v267q0 86 40 127t125 41h1707q63 0 96.5 -20.5t45.5 -65.5v253h184zM2061 199v205q0 39 -40 39h-1751q-39 0 -39 -39v-205q0 -39 39 -39h1751q40 0 40 39zM2574 700v-150q0 -77 -43.5 -122
t-123.5 -45h-56v86h43q33 0 47 13.5t14 45.5v22h-104v150h223z" />
    <glyph glyph-name="Dcroat" unicode="&#x110;" horiz-adv-x="2580" 
d="M2297 700q116 0 176 -60t60 -176v-228q0 -116 -60.5 -176t-175.5 -60h-2234v267h-62v166h62v267h2234zM2272 167q69 0 69 70v226q0 70 -69 70h-2017v-100h322v-166h-322v-100h2017z" />
    <glyph glyph-name="dcroat" unicode="&#x111;" horiz-adv-x="2295" 
d="M2245 770v-47h50v-97h-50v-458q0 -86 -40.5 -127t-127.5 -41h-1865q-85 0 -125 41t-40 127v267q0 86 40 127t125 41h1707q63 0 96.5 -20.5t45.5 -65.5v109h-291v97h291v47h184zM2061 199v205q0 39 -40 39h-1751q-39 0 -39 -39v-205q0 -39 39 -39h1751q40 0 40 39z" />
    <glyph glyph-name="Emacron" unicode="&#x112;" horiz-adv-x="2554" 
d="M63 0v700h2449v-167h-2257v-100h2142v-166h-2142v-100h2257v-167h-2449zM1568 763h-524v97h524v-97z" />
    <glyph glyph-name="emacron" unicode="&#x113;" horiz-adv-x="2303" 
d="M2266 385q0 -79 -36.5 -116t-113.5 -37h-1885v-33q0 -39 39 -39h1966v-160h-2023q-86 0 -126 40.5t-40 127.5v267q0 86 40 127t126 41h1903q77 0 113.5 -37t36.5 -116v-65zM2053 443h-1783q-39 0 -39 -39v-33h1822q29 0 29 28v15q0 29 -29 29zM1435 665h-524v97h524v-97z
" />
    <glyph glyph-name="Ebreve" unicode="&#x114;" horiz-adv-x="2554" 
d="M63 0v700h2449v-167h-2257v-100h2142v-166h-2142v-100h2257v-167h-2449zM1045 791v103q101 -49 261 -49q159 0 259 49v-103q-91 -52 -259 -52t-261 52z" />
    <glyph glyph-name="ebreve" unicode="&#x115;" horiz-adv-x="2303" 
d="M2266 385q0 -79 -36.5 -116t-113.5 -37h-1885v-33q0 -39 39 -39h1966v-160h-2023q-86 0 -126 40.5t-40 127.5v267q0 86 40 127t126 41h1903q77 0 113.5 -37t36.5 -116v-65zM2053 443h-1783q-39 0 -39 -39v-33h1822q29 0 29 28v15q0 29 -29 29zM912 693v103
q101 -49 261 -49q159 0 259 49v-103q-91 -52 -259 -52t-261 52z" />
    <glyph glyph-name="Edotaccent" unicode="&#x116;" horiz-adv-x="2554" 
d="M63 0v700h2449v-167h-2257v-100h2142v-166h-2142v-100h2257v-167h-2449zM1398 867v-112h-185v112h185z" />
    <glyph glyph-name="edotaccent" unicode="&#x117;" horiz-adv-x="2303" 
d="M2266 385q0 -79 -36.5 -116t-113.5 -37h-1885v-33q0 -39 39 -39h1966v-160h-2023q-86 0 -126 40.5t-40 127.5v267q0 86 40 127t126 41h1903q77 0 113.5 -37t36.5 -116v-65zM2053 443h-1783q-39 0 -39 -39v-33h1822q29 0 29 28v15q0 29 -29 29zM1265 769v-112h-185v112
h185z" />
    <glyph glyph-name="Eogonek" unicode="&#x118;" horiz-adv-x="2554" 
d="M2464 0v-66h-43q-150 0 -221.5 -3t-85.5 -7t-14 -13q0 -10 26 -10h385v-103h-391q-72 0 -103 14t-31 55q0 21 4.5 34t21 24.5t42.5 17.5t75.5 10t113 5.5t161.5 1.5h31v40h-2372v700h2449v-167h-2257v-100h2142v-166h-2142v-100h2257v-167h-48z" />
    <glyph glyph-name="eogonek" unicode="&#x119;" horiz-adv-x="2303" 
d="M2053 443h-1783q-39 0 -39 -39v-33h1822q29 0 29 28v15q0 29 -29 29zM2181 -40v40h-1968q-86 0 -126 40.5t-40 127.5v267q0 86 40 127t126 41h1903q77 0 113.5 -37t36.5 -116v-65q0 -79 -36.5 -116t-113.5 -37h-1885v-33q0 -39 39 -39h1966v-160h-26v-66h-64
q-150 0 -221.5 -3t-85.5 -7t-14 -13q0 -10 26 -10h385v-103h-391q-72 0 -103 14t-31 55q0 21 4.5 34t21 24.5t42.5 17.5t75.5 10t113 5.5t161.5 1.5h52z" />
    <glyph glyph-name="Ecaron" unicode="&#x11a;" horiz-adv-x="2554" 
d="M63 0v700h2449v-167h-2257v-100h2142v-166h-2142v-100h2257v-167h-2449zM1165 866l141 -48l140 48h180l-186 -110h-269l-186 110h180z" />
    <glyph glyph-name="ecaron" unicode="&#x11b;" horiz-adv-x="2303" 
d="M2266 385q0 -79 -36.5 -116t-113.5 -37h-1885v-33q0 -39 39 -39h1966v-160h-2023q-86 0 -126 40.5t-40 127.5v267q0 86 40 127t126 41h1903q77 0 113.5 -37t36.5 -116v-65zM2053 443h-1783q-39 0 -39 -39v-33h1822q29 0 29 28v15q0 29 -29 29zM1032 768l141 -48l140 48
h180l-186 -110h-269l-186 110h180z" />
    <glyph glyph-name="Gcircumflex" unicode="&#x11c;" horiz-adv-x="2583" 
d="M2305 167q20 0 27 7t7 28v65h-1240v166h1432v-276q0 -84 -36.5 -120.5t-121.5 -36.5h-2151q-87 0 -128 42t-41 128v360q0 86 41 128t128 42h2284v-167h-2225q-20 0 -28 -8.5t-8 -29.5v-290q0 -21 8 -29.5t28 -8.5h2024zM1305 804l-141 -48h-180l186 110h269l186 -110
h-180z" />
    <glyph glyph-name="gcircumflex" unicode="&#x11d;" horiz-adv-x="2295" 
d="M2021 225q40 0 40 39v140q0 18 -10.5 28.5t-29.5 10.5h-1751q-39 0 -39 -39v-140q0 -39 39 -39h1751zM1919 65h-1705q-86 0 -126.5 41t-40.5 127v202q0 87 40 127.5t127 40.5h1863q87 0 127.5 -40.5t40.5 -127.5v-369q0 -121 -55.5 -177t-176.5 -56h-1926v160h1904
q37 0 53.5 15.5t16.5 53.5v89q-12 -45 -45.5 -65.5t-96.5 -20.5zM1148 706l-141 -48h-180l186 110h269l186 -110h-180z" />
    <glyph glyph-name="Gbreve" unicode="&#x11e;" horiz-adv-x="2583" 
d="M2305 167q20 0 27 7t7 28v65h-1240v166h1432v-276q0 -84 -36.5 -120.5t-121.5 -36.5h-2151q-87 0 -128 42t-41 128v360q0 86 41 128t128 42h2284v-167h-2225q-20 0 -28 -8.5t-8 -29.5v-290q0 -21 8 -29.5t28 -8.5h2024zM1044 791v103q101 -49 261 -49q159 0 259 49v-103
q-91 -52 -259 -52t-261 52z" />
    <glyph glyph-name="gbreve" unicode="&#x11f;" horiz-adv-x="2295" 
d="M2021 225q40 0 40 39v140q0 18 -10.5 28.5t-29.5 10.5h-1751q-39 0 -39 -39v-140q0 -39 39 -39h1751zM1919 65h-1705q-86 0 -126.5 41t-40.5 127v202q0 87 40 127.5t127 40.5h1863q87 0 127.5 -40.5t40.5 -127.5v-369q0 -121 -55.5 -177t-176.5 -56h-1926v160h1904
q37 0 53.5 15.5t16.5 53.5v89q-12 -45 -45.5 -65.5t-96.5 -20.5zM887 693v103q101 -49 261 -49q159 0 259 49v-103q-91 -52 -259 -52t-261 52z" />
    <glyph glyph-name="Gdotaccent" unicode="&#x120;" horiz-adv-x="2583" 
d="M2305 167q20 0 27 7t7 28v65h-1240v166h1432v-276q0 -84 -36.5 -120.5t-121.5 -36.5h-2151q-87 0 -128 42t-41 128v360q0 86 41 128t128 42h2284v-167h-2225q-20 0 -28 -8.5t-8 -29.5v-290q0 -21 8 -29.5t28 -8.5h2024zM1397 867v-112h-185v112h185z" />
    <glyph glyph-name="gdotaccent" unicode="&#x121;" horiz-adv-x="2295" 
d="M2021 225q40 0 40 39v140q0 18 -10.5 28.5t-29.5 10.5h-1751q-39 0 -39 -39v-140q0 -39 39 -39h1751zM1919 65h-1705q-86 0 -126.5 41t-40.5 127v202q0 87 40 127.5t127 40.5h1863q87 0 127.5 -40.5t40.5 -127.5v-369q0 -121 -55.5 -177t-176.5 -56h-1926v160h1904
q37 0 53.5 15.5t16.5 53.5v89q-12 -45 -45.5 -65.5t-96.5 -20.5zM1240 769v-112h-185v112h185z" />
    <glyph glyph-name="uni0122" unicode="&#x122;" horiz-adv-x="2583" 
d="M2305 167q20 0 27 7t7 28v65h-1240v166h1432v-276q0 -84 -36.5 -120.5t-121.5 -36.5h-2151q-87 0 -128 42t-41 128v360q0 86 41 128t128 42h2284v-167h-2225q-20 0 -28 -8.5t-8 -29.5v-290q0 -21 8 -29.5t28 -8.5h2024zM1396 -59v-85q0 -60 -34.5 -95.5t-97.5 -35.5h-50
v48h42q49 0 49 48v11h-91v109h182z" />
    <glyph glyph-name="uni0123" unicode="&#x123;" horiz-adv-x="2295" 
d="M1056 657v85q0 60 34.5 95.5t97.5 35.5h50v-48h-42q-49 0 -49 -48v-11h91v-109h-182zM2021 225q40 0 40 39v140q0 18 -10.5 28.5t-29.5 10.5h-1751q-39 0 -39 -39v-140q0 -39 39 -39h1751zM1919 65h-1705q-86 0 -126.5 41t-40.5 127v202q0 87 40 127.5t127 40.5h1863
q87 0 127.5 -40.5t40.5 -127.5v-369q0 -121 -55.5 -177t-176.5 -56h-1926v160h1904q37 0 53.5 15.5t16.5 53.5v89q-12 -45 -45.5 -65.5t-96.5 -20.5z" />
    <glyph glyph-name="Hcircumflex" unicode="&#x124;" horiz-adv-x="2608" 
d="M2353 0v266h-2098v-266h-192v700h192v-267h2098v267h192v-700h-192zM1304 804l-141 -48h-180l186 110h269l186 -110h-180z" />
    <glyph glyph-name="hcircumflex" unicode="&#x125;" horiz-adv-x="2296" 
d="M2062 404q0 39 -40 39h-1744q-39 0 -39 -39v-404h-184v770h184v-253q12 45 45 65.5t96 20.5h1701q85 0 125 -41t40 -127v-435h-184v404zM1194 706l-141 -48h-180l186 110h269l186 -110h-180z" />
    <glyph glyph-name="Hbar" unicode="&#x126;" horiz-adv-x="2608" 
d="M2353 0v266h-2098v-266h-192v502h-41v117h41v81h192v-81h2098v81h192v-81h41v-117h-41v-502h-192zM255 433h2098v69h-2098v-69z" />
    <glyph glyph-name="hbar" unicode="&#x127;" horiz-adv-x="2296" 
d="M2062 404q0 39 -40 39h-1744q-39 0 -39 -39v-404h-184v626h-54v97h54v47h184v-47h286v-97h-286v-109q12 45 45 65.5t96 20.5h1701q85 0 125 -41t40 -127v-435h-184v404z" />
    <glyph glyph-name="Itilde" unicode="&#x128;" horiz-adv-x="317" 
d="M63 0v700h192v-700h-192zM-102 736v108q69 44 144 44q46 0 127.5 -22.5t121.5 -22.5q67 0 127 45v-107q-70 -46 -146 -46q-46 0 -127.5 22.5t-121.5 22.5q-66 0 -125 -44z" />
    <glyph glyph-name="itilde" unicode="&#x129;" horiz-adv-x="431" 
d="M-114 638v108q69 44 144 44q46 0 127.5 -22.5t121.5 -22.5q67 0 127 45v-107q-70 -46 -146 -46q-46 0 -127.5 22.5t-121.5 22.5q-66 0 -125 -44zM278 160h132v-160h-187q-87 0 -127.5 41t-40.5 127v435h184v-404q0 -18 10.5 -28.5t28.5 -10.5z" />
    <glyph glyph-name="Imacron" unicode="&#x12a;" horiz-adv-x="317" 
d="M386 764h-455v93h455v-93zM63 0v700h192v-700h-192z" />
    <glyph glyph-name="imacron" unicode="&#x12b;" horiz-adv-x="431" 
d="M374 667h-455v93h455v-93zM278 160h132v-160h-187q-87 0 -127.5 41t-40.5 127v435h184v-404q0 -18 10.5 -28.5t28.5 -10.5z" />
    <glyph glyph-name="Ibreve" unicode="&#x12c;" horiz-adv-x="317" 
d="M63 0v700h192v-700h-192zM-102 791v103q101 -49 261 -49q159 0 259 49v-103q-91 -52 -259 -52t-261 52z" />
    <glyph glyph-name="ibreve" unicode="&#x12d;" horiz-adv-x="431" 
d="M-114 693v103q101 -49 261 -49q159 0 259 49v-103q-91 -52 -259 -52t-261 52zM278 160h132v-160h-187q-87 0 -127.5 41t-40.5 127v435h184v-404q0 -18 10.5 -28.5t28.5 -10.5z" />
    <glyph glyph-name="Iogonek" unicode="&#x12e;" horiz-adv-x="317" 
d="M63 0v700h192v-700h-27v-66h-29q-93 0 -141 -3.5t-58 -7.5t-10 -12q0 -10 26 -10h239v-103h-245q-72 0 -103 14t-31 55q0 58 63.5 75.5t259.5 17.5v40h-136z" />
    <glyph glyph-name="iogonek" unicode="&#x12f;" horiz-adv-x="431" 
d="M383 -66h-28q-98 0 -145.5 -2.5t-59 -7t-11.5 -13.5q0 -10 27 -10h244v-103h-251q-72 0 -103 14t-31 55q0 40 28.5 59.5t95.5 26.5t205 7v40h-131q-87 0 -127.5 41t-40.5 127v435h184v-404q0 -18 10.5 -28.5t28.5 -10.5h132v-160h-27v-66zM258 770v-113h-223v113h223z
" />
    <glyph glyph-name="Idotaccent" unicode="&#x130;" horiz-adv-x="317" 
d="M63 0v700h192v-700h-192zM251 867v-112h-185v112h185z" />
    <glyph glyph-name="dotlessi" unicode="&#x131;" horiz-adv-x="431" 
d="M278 160h132v-160h-187q-87 0 -127.5 41t-40.5 127v435h184v-404q0 -18 10.5 -28.5t28.5 -10.5z" />
    <glyph glyph-name="IJ" unicode="&#x132;" horiz-adv-x="2886" 
d="M63 0v700h192v-700h-192zM360 158v184h192v-140q0 -21 6.5 -28t26.5 -7h2014q21 0 29 8.5t8 29.5v495h192v-530q0 -86 -42 -128t-129 -42h-2140q-85 0 -121 36.5t-36 121.5z" />
    <glyph glyph-name="Jcircumflex" unicode="&#x134;" horiz-adv-x="2569" 
d="M43 158v184h192v-140q0 -21 6.5 -28t26.5 -7h2014q21 0 29 8.5t8 29.5v495h192v-530q0 -86 -42 -128t-129 -42h-2140q-85 0 -121 36.5t-36 121.5zM2269 804l-141 -48h-180l186 110h269l186 -110h-180z" />
    <glyph glyph-name="jcircumflex" unicode="&#x135;" horiz-adv-x="310" 
d="M-38 -7h71q38 0 38 38v572h184v-602q0 -86 -40.5 -127t-127.5 -41h-125v160zM165 706l-141 -48h-180l186 110h269l186 -110h-180z" />
    <glyph glyph-name="uni0136" unicode="&#x136;" horiz-adv-x="2586" 
d="M2533 700v-178q0 -78 -34.5 -121t-126.5 -51q92 -8 126.5 -51.5t34.5 -120.5v-178h-192v220q0 47 -47 47h-2039v-267h-192v700h192v-267h2039q47 0 47 47v220h192zM1384 -59v-85q0 -60 -34.5 -95.5t-97.5 -35.5h-50v48h42q49 0 49 48v11h-91v109h182z" />
    <glyph glyph-name="uni0137" unicode="&#x137;" horiz-adv-x="2290" 
d="M2061 425v178h184v-152q0 -134 -135 -150q70 -8 102.5 -45t32.5 -104v-152h-184v178q0 44 -45 44h-1777v-222h-184v770h184v-389h1777q45 0 45 44zM1256 -59v-85q0 -60 -34.5 -95.5t-97.5 -35.5h-50v48h42q49 0 49 48v11h-91v109h182z" />
    <glyph glyph-name="kgreenlandic" unicode="&#x138;" horiz-adv-x="2290" 
d="M2061 425v178h184v-152q0 -134 -135 -150q70 -8 102.5 -45t32.5 -104v-152h-184v178q0 44 -45 44h-1777v-222h-184v603h184v-222h1777q45 0 45 44z" />
    <glyph glyph-name="Lacute" unicode="&#x139;" horiz-adv-x="2514" 
d="M2488 168v-168h-2425v700h192v-532h2233zM511 866l-296 -110h-200l218 110h278z" />
    <glyph glyph-name="lacute" unicode="&#x13a;" horiz-adv-x="427" 
d="M274 160h132v-160h-187q-87 0 -127.5 41t-40.5 127v602h184v-571q0 -18 10.5 -28.5t28.5 -10.5zM443 936l-296 -110h-200l218 110h278z" />
    <glyph glyph-name="uni013B" unicode="&#x13b;" horiz-adv-x="2514" 
d="M2488 168v-168h-2425v700h192v-532h2233zM1351 -59v-85q0 -60 -34.5 -95.5t-97.5 -35.5h-50v48h42q49 0 49 48v11h-91v109h182z" />
    <glyph glyph-name="uni013C" unicode="&#x13c;" horiz-adv-x="427" 
d="M274 160h132v-160h-187q-87 0 -127.5 41t-40.5 127v602h184v-571q0 -18 10.5 -28.5t28.5 -10.5zM305 -59v-85q0 -60 -34.5 -95.5t-97.5 -35.5h-50v48h42q49 0 49 48v11h-91v109h182z" />
    <glyph glyph-name="Lcaron" unicode="&#x13d;" horiz-adv-x="2514" 
d="M2488 168v-168h-2425v700h192v-532h2233zM2237 700v-150q0 -77 -43.5 -122t-123.5 -45h-56v86h43q33 0 47 13.5t14 45.5v22h-104v150h223z" />
    <glyph glyph-name="lcaron" unicode="&#x13e;" horiz-adv-x="616" 
d="M274 160h132v-160h-187q-87 0 -127.5 41t-40.5 127v602h184v-571q0 -18 10.5 -28.5t28.5 -10.5zM561 700v-150q0 -77 -43.5 -122t-123.5 -45h-56v86h43q33 0 47 13.5t14 45.5v22h-104v150h223z" />
    <glyph glyph-name="Ldot" unicode="&#x13f;" horiz-adv-x="2514" 
d="M2488 168v-168h-2425v700h192v-532h2233zM1454 425v-150h-223v150h223z" />
    <glyph glyph-name="ldot" unicode="&#x140;" horiz-adv-x="628" 
d="M274 160h132v-160h-187q-87 0 -127.5 41t-40.5 127v602h184v-571q0 -18 10.5 -28.5t28.5 -10.5zM572 425v-150h-223v150h223z" />
    <glyph glyph-name="Lslash" unicode="&#x141;" horiz-adv-x="2514" 
d="M2488 168v-168h-2425v165l-63 -20v164l63 20v371h192v-308l567 187v-164l-567 -187v-60h2233z" />
    <glyph glyph-name="lslash" unicode="&#x142;" horiz-adv-x="427" 
d="M274 160h132v-160h-187q-87 0 -127.5 41t-40.5 127v94l-51 -17v164l51 17v344h184v-280l192 66v-164l-192 -66v-127q0 -18 10.5 -28.5t28.5 -10.5z" />
    <glyph glyph-name="Nacute" unicode="&#x143;" horiz-adv-x="2588" 
d="M287 533q-20 0 -28 -8.5t-8 -29.5v-495h-192v530q0 86 41.5 128t128.5 42h2129q87 0 129 -42t42 -128v-530h-192v495q0 21 -8 29.5t-29 8.5h-2013zM1615 866l-296 -110h-200l218 110h278z" />
    <glyph glyph-name="nacute" unicode="&#x144;" horiz-adv-x="2292" 
d="M51 0v435q0 86 40 127t125 41h1860q85 0 125 -41t40 -127v-435h-184v404q0 39 -39 39h-1744q-39 0 -39 -39v-404h-184zM1461 768l-296 -110h-200l218 110h278z" />
    <glyph glyph-name="uni0145" unicode="&#x145;" horiz-adv-x="2588" 
d="M287 533q-20 0 -28 -8.5t-8 -29.5v-495h-192v530q0 86 41.5 128t128.5 42h2129q87 0 129 -42t42 -128v-530h-192v495q0 21 -8 29.5t-29 8.5h-2013zM1385 -59v-85q0 -60 -34.5 -95.5t-97.5 -35.5h-50v48h42q49 0 49 48v11h-91v109h182z" />
    <glyph glyph-name="uni0146" unicode="&#x146;" horiz-adv-x="2292" 
d="M51 0v435q0 86 40 127t125 41h1860q85 0 125 -41t40 -127v-435h-184v404q0 39 -39 39h-1744q-39 0 -39 -39v-404h-184zM1237 -59v-85q0 -60 -34.5 -95.5t-97.5 -35.5h-50v48h42q49 0 49 48v11h-91v109h182z" />
    <glyph glyph-name="Ncaron" unicode="&#x147;" horiz-adv-x="2588" 
d="M287 533q-20 0 -28 -8.5t-8 -29.5v-495h-192v530q0 86 41.5 128t128.5 42h2129q87 0 129 -42t42 -128v-530h-192v495q0 21 -8 29.5t-29 8.5h-2013zM1153 866l141 -48l140 48h180l-186 -110h-269l-186 110h180z" />
    <glyph glyph-name="ncaron" unicode="&#x148;" horiz-adv-x="2292" 
d="M51 0v435q0 86 40 127t125 41h1860q85 0 125 -41t40 -127v-435h-184v404q0 39 -39 39h-1744q-39 0 -39 -39v-404h-184zM1005 768l141 -48l140 48h180l-186 -110h-269l-186 110h180z" />
    <glyph glyph-name="napostrophe" unicode="&#x149;" horiz-adv-x="2586" 
d="M345 0v435q0 86 40 127t125 41h1860q85 0 125 -41t40 -127v-435h-184v404q0 39 -39 39h-1744q-39 0 -39 -39v-404h-184zM279 700v-150q0 -77 -43.5 -122t-123.5 -45h-56v86h43q33 0 47 13.5t14 45.5v22h-104v150h223z" />
    <glyph glyph-name="Eng" unicode="&#x14a;" horiz-adv-x="2588" 
d="M287 533q-20 0 -28 -8.5t-8 -29.5v-495h-192v530q0 86 41.5 128t128.5 42h2129q87 0 129 -42t42 -128v-527q0 -86 -42 -128t-129 -42h-678v167h620q21 0 29 8.5t8 29.5v457q0 21 -8 29.5t-29 8.5h-2013z" />
    <glyph glyph-name="eng" unicode="&#x14b;" horiz-adv-x="2292" 
d="M1949 -7h70q38 0 38 38v373q0 39 -39 39h-1744q-39 0 -39 -39v-404h-184v435q0 86 40 127t125 41h1860q85 0 125 -41t40 -127v-434q0 -86 -40.5 -127t-127.5 -41h-124v160z" />
    <glyph glyph-name="Omacron" unicode="&#x14c;" horiz-adv-x="2583" 
d="M223 0q-87 0 -128.5 42t-41.5 128v360q0 86 41.5 128t128.5 42h2137q87 0 128.5 -42t41.5 -128v-360q0 -86 -41.5 -128t-128.5 -42h-2137zM2338 204v291q0 21 -8.5 29.5t-28.5 8.5h-2020q-20 0 -28 -8.5t-8 -29.5v-290q0 -38 36 -38h2020q20 0 28.5 8.5t8.5 28.5z
M1553 763h-524v97h524v-97z" />
    <glyph glyph-name="omacron" unicode="&#x14d;" horiz-adv-x="2291" 
d="M2078 603q86 0 126 -40.5t40 -127.5v-267q0 -86 -40 -127t-126 -41h-1865q-86 0 -126 41t-40 127v267q0 87 39.5 127.5t126.5 40.5h1865zM2021 160q39 0 39 39v205q0 39 -39 39h-1751q-39 0 -39 -39v-205q0 -39 39 -39h1751zM1408 665h-524v97h524v-97z" />
    <glyph glyph-name="Obreve" unicode="&#x14e;" horiz-adv-x="2583" 
d="M223 0q-87 0 -128.5 42t-41.5 128v360q0 86 41.5 128t128.5 42h2137q87 0 128.5 -42t41.5 -128v-360q0 -86 -41.5 -128t-128.5 -42h-2137zM2338 204v291q0 21 -8.5 29.5t-28.5 8.5h-2020q-20 0 -28 -8.5t-8 -29.5v-290q0 -38 36 -38h2020q20 0 28.5 8.5t8.5 28.5z
M1030 791v103q101 -49 261 -49q159 0 259 49v-103q-91 -52 -259 -52t-261 52z" />
    <glyph glyph-name="obreve" unicode="&#x14f;" horiz-adv-x="2291" 
d="M2078 603q86 0 126 -40.5t40 -127.5v-267q0 -86 -40 -127t-126 -41h-1865q-86 0 -126 41t-40 127v267q0 87 39.5 127.5t126.5 40.5h1865zM2021 160q39 0 39 39v205q0 39 -39 39h-1751q-39 0 -39 -39v-205q0 -39 39 -39h1751zM885 693v103q101 -49 261 -49q159 0 259 49
v-103q-91 -52 -259 -52t-261 52z" />
    <glyph glyph-name="Ohungarumlaut" unicode="&#x150;" horiz-adv-x="2583" 
d="M223 0q-87 0 -128.5 42t-41.5 128v360q0 86 41.5 128t128.5 42h2137q87 0 128.5 -42t41.5 -128v-360q0 -86 -41.5 -128t-128.5 -42h-2137zM2338 204v291q0 21 -8.5 29.5t-28.5 8.5h-2020q-20 0 -28 -8.5t-8 -29.5v-290q0 -38 36 -38h2020q20 0 28.5 8.5t8.5 28.5z
M1833 866l-296 -110h-200l218 110h278zM1393 866l-296 -110h-200l218 110h278z" />
    <glyph glyph-name="ohungarumlaut" unicode="&#x151;" horiz-adv-x="2291" 
d="M2078 603q86 0 126 -40.5t40 -127.5v-267q0 -86 -40 -127t-126 -41h-1865q-86 0 -126 41t-40 127v267q0 87 39.5 127.5t126.5 40.5h1865zM2021 160q39 0 39 39v205q0 39 -39 39h-1751q-39 0 -39 -39v-205q0 -39 39 -39h1751zM1687 768l-296 -110h-200l218 110h278z
M1247 768l-296 -110h-200l218 110h278z" />
    <glyph glyph-name="OE" unicode="&#x152;" horiz-adv-x="3988" 
d="M226 0q-87 0 -128 42t-41 128v360q0 86 41 128t128 42h3695v-167h-1821v-100h1706v-166h-1706v-100h1821v-167h-3695zM1908 167v366h-1623q-20 0 -28 -8.5t-8 -29.5v-290q0 -21 8 -29.5t28 -8.5h1623z" />
    <glyph glyph-name="oe" unicode="&#x153;" horiz-adv-x="3433" 
d="M1627 199v205q0 39 -39 39h-1318q-39 0 -39 -39v-205q0 -39 39 -39h1318q39 0 39 39zM3212 399v15q0 29 -29 29h-1332q-40 0 -40 -39v-33h1372q29 0 29 28zM1811 232v-33q0 -39 40 -39h1517v-160h-1491q-78 0 -115 31.5t-43 102.5q-6 -71 -42.5 -102.5t-114.5 -31.5
h-1349q-86 0 -126 41t-40 127v267q0 87 39.5 127.5t126.5 40.5h1349q78 0 114.5 -31.5t42.5 -102.5q6 71 43 102.5t115 31.5h1369q77 0 113.5 -37t36.5 -116v-65q0 -78 -37 -115.5t-113 -37.5h-1435z" />
    <glyph glyph-name="Racute" unicode="&#x154;" horiz-adv-x="2586" 
d="M2533 535v-39q0 -68 -33.5 -105t-116.5 -42q85 -10 117.5 -53t32.5 -118v-178h-192v220q0 47 -47 47h-2039v-267h-192v700h2305q87 0 126 -39.5t39 -125.5zM2304 433q20 0 28.5 8.5t8.5 28.5v25q0 21 -8.5 29.5t-28.5 8.5h-2049v-100h2049zM1614 866l-296 -110h-200
l218 110h278z" />
    <glyph glyph-name="racute" unicode="&#x155;" horiz-adv-x="2109" 
d="M2085 603v-160h-1811q-18 0 -28.5 -10.5t-10.5 -28.5v-404h-184v435q0 87 40 127.5t127 40.5h1867zM1409 768l-296 -110h-200l218 110h278z" />
    <glyph glyph-name="uni0156" unicode="&#x156;" horiz-adv-x="2586" 
d="M2533 535v-39q0 -68 -33.5 -105t-116.5 -42q85 -10 117.5 -53t32.5 -118v-178h-192v220q0 47 -47 47h-2039v-267h-192v700h2305q87 0 126 -39.5t39 -125.5zM2304 433q20 0 28.5 8.5t8.5 28.5v25q0 21 -8.5 29.5t-28.5 8.5h-2049v-100h2049zM1409 -59v-85
q0 -60 -34.5 -95.5t-97.5 -35.5h-50v48h42q49 0 49 48v11h-91v109h182z" />
    <glyph glyph-name="uni0157" unicode="&#x157;" horiz-adv-x="2109" 
d="M2085 603v-160h-1811q-18 0 -28.5 -10.5t-10.5 -28.5v-404h-184v435q0 87 40 127.5t127 40.5h1867zM235 -59v-85q0 -60 -34.5 -95.5t-97.5 -35.5h-50v48h42q49 0 49 48v11h-91v109h182z" />
    <glyph glyph-name="Rcaron" unicode="&#x158;" horiz-adv-x="2586" 
d="M2533 535v-39q0 -68 -33.5 -105t-116.5 -42q85 -10 117.5 -53t32.5 -118v-178h-192v220q0 47 -47 47h-2039v-267h-192v700h2305q87 0 126 -39.5t39 -125.5zM2304 433q20 0 28.5 8.5t8.5 28.5v25q0 21 -8.5 29.5t-28.5 8.5h-2049v-100h2049zM1152 866l141 -48l140 48h180
l-186 -110h-269l-186 110h180z" />
    <glyph glyph-name="rcaron" unicode="&#x159;" horiz-adv-x="2109" 
d="M2085 603v-160h-1811q-18 0 -28.5 -10.5t-10.5 -28.5v-404h-184v435q0 87 40 127.5t127 40.5h1867zM947 768l141 -48l140 48h180l-186 -110h-269l-186 110h180z" />
    <glyph glyph-name="Sacute" unicode="&#x15a;" horiz-adv-x="2545" 
d="M228 267q-170 0 -170 170v93q0 86 42 128t129 42h2243v-167h-2184q-21 0 -29.5 -8.5t-8.5 -29.5v-25q0 -20 8.5 -28.5t29.5 -8.5h2041q88 0 130 -42t42 -128v-93q0 -86 -42 -128t-129 -42h-2287v167h2229q20 0 28.5 8.5t8.5 29.5v25q0 20 -8.5 28.5t-28.5 8.5h-2044z
M1594 866l-296 -110h-200l218 110h278z" />
    <glyph glyph-name="sacute" unicode="&#x15b;" horiz-adv-x="2275" 
d="M2209 443h-1955q-29 0 -29 -28v-15q0 -29 29 -29h1835q77 0 113.5 -37t36.5 -116v-65q0 -78 -37 -115.5t-113 -37.5h-2048v160h1985q29 0 29 28v15q0 29 -29 29h-1835q-77 0 -113.5 37t-36.5 116v65q0 79 36.5 116t112.5 37h2019v-160zM1458 768l-296 -110h-200l218 110
h278z" />
    <glyph glyph-name="Scircumflex" unicode="&#x15c;" horiz-adv-x="2545" 
d="M228 267q-170 0 -170 170v93q0 86 42 128t129 42h2243v-167h-2184q-21 0 -29.5 -8.5t-8.5 -29.5v-25q0 -20 8.5 -28.5t29.5 -8.5h2041q88 0 130 -42t42 -128v-93q0 -86 -42 -128t-129 -42h-2287v167h2229q20 0 28.5 8.5t8.5 29.5v25q0 20 -8.5 28.5t-28.5 8.5h-2044z
M1272 804l-141 -48h-180l186 110h269l186 -110h-180z" />
    <glyph glyph-name="scircumflex" unicode="&#x15d;" horiz-adv-x="2275" 
d="M2209 443h-1955q-29 0 -29 -28v-15q0 -29 29 -29h1835q77 0 113.5 -37t36.5 -116v-65q0 -78 -37 -115.5t-113 -37.5h-2048v160h1985q29 0 29 28v15q0 29 -29 29h-1835q-77 0 -113.5 37t-36.5 116v65q0 79 36.5 116t112.5 37h2019v-160zM1138 706l-141 -48h-180l186 110
h269l186 -110h-180z" />
    <glyph glyph-name="Scedilla" unicode="&#x15e;" horiz-adv-x="2545" 
d="M1240 0h-1197v167h2229q20 0 28.5 8.5t8.5 29.5v25q0 20 -8.5 28.5t-28.5 8.5h-2044q-170 0 -170 170v93q0 86 42 128t129 42h2243v-167h-2184q-21 0 -29.5 -8.5t-8.5 -29.5v-25q0 -20 8.5 -28.5t29.5 -8.5h2041q88 0 130 -42t42 -128v-93q0 -86 -42 -128t-129 -42h-1060
l-18 -40h165q66 0 92.5 -16t26.5 -53q0 -46 -34.5 -69.5t-124.5 -23.5h-361v103h351q29 0 29 18q0 14 -24 14h-164z" />
    <glyph glyph-name="scedilla" unicode="&#x15f;" horiz-adv-x="2275" 
d="M1094 0h-1053v160h1985q29 0 29 28v15q0 29 -29 29h-1835q-77 0 -113.5 37t-36.5 116v65q0 79 36.5 116t112.5 37h2019v-160h-1955q-29 0 -29 -28v-15q0 -29 29 -29h1835q77 0 113.5 -37t36.5 -116v-65q0 -78 -37 -115.5t-113 -37.5h-965l-18 -40h165q66 0 92.5 -16
t26.5 -53q0 -46 -34.5 -69.5t-124.5 -23.5h-361v103h351q29 0 29 18q0 14 -24 14h-164z" />
    <glyph glyph-name="Scaron" unicode="&#x160;" horiz-adv-x="2545" 
d="M228 267q-170 0 -170 170v93q0 86 42 128t129 42h2243v-167h-2184q-21 0 -29.5 -8.5t-8.5 -29.5v-25q0 -20 8.5 -28.5t29.5 -8.5h2041q88 0 130 -42t42 -128v-93q0 -86 -42 -128t-129 -42h-2287v167h2229q20 0 28.5 8.5t8.5 29.5v25q0 20 -8.5 28.5t-28.5 8.5h-2044z
M1131 866l141 -48l140 48h180l-186 -110h-269l-186 110h180z" />
    <glyph glyph-name="scaron" unicode="&#x161;" horiz-adv-x="2275" 
d="M2209 443h-1955q-29 0 -29 -28v-15q0 -29 29 -29h1835q77 0 113.5 -37t36.5 -116v-65q0 -78 -37 -115.5t-113 -37.5h-2048v160h1985q29 0 29 28v15q0 29 -29 29h-1835q-77 0 -113.5 37t-36.5 116v65q0 79 36.5 116t112.5 37h2019v-160zM997 768l141 -48l140 48h180
l-186 -110h-269l-186 110h180z" />
    <glyph glyph-name="uni0162" unicode="&#x162;" horiz-adv-x="2529" 
d="M1234 0h-66v533h-1142v167h2477v-167h-1143v-533h-96l-18 -40h165q66 0 92.5 -16t26.5 -53q0 -46 -34.5 -69.5t-124.5 -23.5h-361v103h351q29 0 29 18q0 14 -24 14h-164z" />
    <glyph glyph-name="uni0163" unicode="&#x163;" horiz-adv-x="2140" 
d="M1077 0l-18 -40h165q66 0 92.5 -16t26.5 -53q0 -46 -34.5 -69.5t-124.5 -23.5h-361v103h351q29 0 29 18q0 14 -24 14h-164l32 67h-828q-87 0 -127.5 41t-40.5 127v602h184v-167h1867v-160h-1867v-244q0 -39 39 -39h1828v-160h-1025z" />
    <glyph glyph-name="Tcaron" unicode="&#x164;" horiz-adv-x="2529" 
d="M2503 700v-167h-1143v-533h-192v533h-1142v167h2477zM1123 866l141 -48l140 48h180l-186 -110h-269l-186 110h180z" />
    <glyph glyph-name="tcaron" unicode="&#x165;" horiz-adv-x="2475" 
d="M219 0q-87 0 -127.5 41t-40.5 127v602h184v-167h1867v-160h-1867v-244q0 -39 39 -39h1828v-160h-1883zM2419 700v-150q0 -77 -43.5 -122t-123.5 -45h-56v86h43q33 0 47 13.5t14 45.5v22h-104v150h223z" />
    <glyph glyph-name="Tbar" unicode="&#x166;" horiz-adv-x="2529" 
d="M2503 700v-167h-1143v-105h183v-117h-183v-311h-192v311h-182v117h182v105h-1142v167h2477z" />
    <glyph glyph-name="tbar" unicode="&#x167;" horiz-adv-x="2140" 
d="M219 0q-87 0 -127.5 41t-40.5 127v77h-50v116h50v409h184v-167h1867v-160h-1867v-82h315v-116h-315v-46q0 -39 39 -39h1828v-160h-1883z" />
    <glyph glyph-name="Utilde" unicode="&#x168;" horiz-adv-x="2588" 
d="M229 0q-87 0 -128.5 42t-41.5 128v530h192v-495q0 -21 8 -29.5t28 -8.5h2013q21 0 29 8.5t8 29.5v495h192v-530q0 -86 -42 -128t-129 -42h-2129zM1033 736v108q69 44 144 44q46 0 127.5 -22.5t121.5 -22.5q67 0 127 45v-107q-70 -46 -146 -46q-46 0 -127.5 22.5
t-121.5 22.5q-66 0 -125 -44z" />
    <glyph glyph-name="utilde" unicode="&#x169;" horiz-adv-x="2292" 
d="M2018 160q39 0 39 39v404h184v-435q0 -86 -40 -127t-125 -41h-1860q-85 0 -125 41t-40 127v435h184v-404q0 -39 39 -39h1744zM885 638v108q69 44 144 44q46 0 127.5 -22.5t121.5 -22.5q67 0 127 45v-107q-70 -46 -146 -46q-46 0 -127.5 22.5t-121.5 22.5q-66 0 -125 -44z
" />
    <glyph glyph-name="Umacron" unicode="&#x16a;" horiz-adv-x="2588" 
d="M229 0q-87 0 -128.5 42t-41.5 128v530h192v-495q0 -21 8 -29.5t28 -8.5h2013q21 0 29 8.5t8 29.5v495h192v-530q0 -86 -42 -128t-129 -42h-2129zM1556 763h-524v97h524v-97z" />
    <glyph glyph-name="umacron" unicode="&#x16b;" horiz-adv-x="2292" 
d="M2018 160q39 0 39 39v404h184v-435q0 -86 -40 -127t-125 -41h-1860q-85 0 -125 41t-40 127v435h184v-404q0 -39 39 -39h1744zM1408 665h-524v97h524v-97z" />
    <glyph glyph-name="Ubreve" unicode="&#x16c;" horiz-adv-x="2588" 
d="M229 0q-87 0 -128.5 42t-41.5 128v530h192v-495q0 -21 8 -29.5t28 -8.5h2013q21 0 29 8.5t8 29.5v495h192v-530q0 -86 -42 -128t-129 -42h-2129zM1033 791v103q101 -49 261 -49q159 0 259 49v-103q-91 -52 -259 -52t-261 52z" />
    <glyph glyph-name="ubreve" unicode="&#x16d;" horiz-adv-x="2292" 
d="M2018 160q39 0 39 39v404h184v-435q0 -86 -40 -127t-125 -41h-1860q-85 0 -125 41t-40 127v435h184v-404q0 -39 39 -39h1744zM885 693v103q101 -49 261 -49q159 0 259 49v-103q-91 -52 -259 -52t-261 52z" />
    <glyph glyph-name="Uring" unicode="&#x16e;" horiz-adv-x="2588" 
d="M229 0q-87 0 -128.5 42t-41.5 128v530h192v-495q0 -21 8 -29.5t28 -8.5h2013q21 0 29 8.5t8 29.5v495h192v-530q0 -86 -42 -128t-129 -42h-2129zM1153 833q0 -22 22 -22h238q21 0 21 22t-21 22h-238q-22 0 -22 -22zM1400 747h-212q-58 0 -81 21.5t-23 64.5q0 44 23 65.5
t81 21.5h212q58 0 81 -22t23 -65t-23 -64.5t-81 -21.5z" />
    <glyph glyph-name="uring" unicode="&#x16f;" horiz-adv-x="2292" 
d="M2018 160q39 0 39 39v404h184v-435q0 -86 -40 -127t-125 -41h-1860q-85 0 -125 41t-40 127v435h184v-404q0 -39 39 -39h1744zM1005 735q0 -22 22 -22h238q21 0 21 22t-21 22h-238q-22 0 -22 -22zM1252 649h-212q-58 0 -81 21.5t-23 64.5q0 44 23 65.5t81 21.5h212
q58 0 81 -22t23 -65t-23 -64.5t-81 -21.5z" />
    <glyph glyph-name="Uhungarumlaut" unicode="&#x170;" horiz-adv-x="2588" 
d="M229 0q-87 0 -128.5 42t-41.5 128v530h192v-495q0 -21 8 -29.5t28 -8.5h2013q21 0 29 8.5t8 29.5v495h192v-530q0 -86 -42 -128t-129 -42h-2129zM1834 866l-296 -110h-200l218 110h278zM1394 866l-296 -110h-200l218 110h278z" />
    <glyph glyph-name="uhungarumlaut" unicode="&#x171;" horiz-adv-x="2292" 
d="M2018 160q39 0 39 39v404h184v-435q0 -86 -40 -127t-125 -41h-1860q-85 0 -125 41t-40 127v435h184v-404q0 -39 39 -39h1744zM1687 768l-296 -110h-200l218 110h278zM1247 768l-296 -110h-200l218 110h278z" />
    <glyph glyph-name="Uogonek" unicode="&#x172;" horiz-adv-x="2588" 
d="M2449 -66h-43q-150 0 -221.5 -3t-85.5 -7t-14 -13q0 -10 26 -10h385v-103h-391q-72 0 -103 14t-31 55q0 21 4.5 34t21 24.5t42.5 17.5t75.5 10t113 5.5t161.5 1.5h31v46q-28 -6 -62 -6h-2129q-87 0 -128.5 42t-41.5 128v530h192v-495q0 -21 8 -29.5t28 -8.5h2013
q21 0 29 8.5t8 29.5v495h192v-530q0 -118 -80 -154v-82z" />
    <glyph glyph-name="uogonek" unicode="&#x173;" horiz-adv-x="2292" 
d="M2165 -66h-43q-150 0 -221.5 -3t-85.5 -7t-14 -13q0 -10 26 -10h385v-103h-391q-72 0 -103 14t-31 55q0 21 4.5 34t21 24.5t42.5 17.5t75.5 10t113 5.5t161.5 1.5h31v46q-27 -6 -60 -6h-1860q-85 0 -125 41t-40 127v435h184v-404q0 -39 39 -39h1744q39 0 39 39v404h184
v-435q0 -118 -76 -152v-82z" />
    <glyph glyph-name="Wcircumflex" unicode="&#x174;" horiz-adv-x="3091" 
d="M2862 0h-1146q-81 0 -121.5 31.5t-49.5 102.5q-9 -71 -49 -102.5t-121 -31.5h-1146q-87 0 -128.5 42t-41.5 128v530h192v-495q0 -21 8 -29.5t28 -8.5h1122q40 0 40 41v492h192v-492q0 -41 41 -41h1122q20 0 28 8.5t8 29.5v495h192v-530q0 -86 -41.5 -128t-128.5 -42z
M1546 804l-141 -48h-180l186 110h269l186 -110h-180z" />
    <glyph glyph-name="wcircumflex" unicode="&#x175;" horiz-adv-x="2740" 
d="M1370 134q-6 -71 -42.5 -102.5t-114.5 -31.5h-997q-85 0 -125 41t-40 127v435h184v-404q0 -39 39 -39h965q39 0 39 39v404h184v-404q0 -39 40 -39h964q40 0 40 39v404h184v-435q0 -86 -40 -127t-125 -41h-997q-78 0 -115 31.5t-43 102.5zM1370 706l-141 -48h-180l186 110
h269l186 -110h-180z" />
    <glyph glyph-name="Ycircumflex" unicode="&#x176;" horiz-adv-x="2566" 
d="M2331 700h192v-263q0 -86 -41 -128t-129 -42h-974v-267h-192v267h-975q-87 0 -128 42t-41 128v263h192v-230q0 -20 8 -28.5t28 -8.5h2024q20 0 28 8.5t8 28.5v230zM1283 804l-141 -48h-180l186 110h269l186 -110h-180z" />
    <glyph glyph-name="ycircumflex" unicode="&#x177;" horiz-adv-x="2296" 
d="M2010 -167h-1919v160h1897q37 0 53.5 15.5t16.5 53.5v89q-13 -45 -46 -65.5t-96 -20.5h-1699q-86 0 -126 41t-40 127v370h184v-339q0 -39 39 -39h1744q40 0 40 39v339h184v-537q0 -121 -55.5 -177t-176.5 -56zM1148 706l-141 -48h-180l186 110h269l186 -110h-180z" />
    <glyph glyph-name="Ydieresis" unicode="&#x178;" horiz-adv-x="2566" 
d="M2331 700h192v-263q0 -86 -41 -128t-129 -42h-974v-267h-192v267h-975q-87 0 -128 42t-41 128v263h192v-230q0 -20 8 -28.5t28 -8.5h2024q20 0 28 8.5t8 28.5v230zM1169 867v-112h-185v112h185zM1580 867v-112h-185v112h185z" />
    <glyph glyph-name="Zacute" unicode="&#x179;" horiz-adv-x="2548" 
d="M2254 433q30 0 42 12t12 42v46h-2234v167h2426v-227q0 -206 -206 -206h-2002q-30 0 -42 -11.5t-12 -42.5v-46h2262v-167h-2454v227q0 206 205 206h2003zM1605 866l-296 -110h-200l218 110h278z" />
    <glyph glyph-name="zacute" unicode="&#x17a;" horiz-adv-x="2278" 
d="M261 232q-39 0 -39 -39v-33h2015v-160h-2199v178q0 193 193 193h1783q39 0 39 39v33h-1992v160h2176v-178q0 -193 -193 -193h-1783zM1477 768l-296 -110h-200l218 110h278z" />
    <glyph glyph-name="Zdotaccent" unicode="&#x17b;" horiz-adv-x="2548" 
d="M2254 433q30 0 42 12t12 42v46h-2234v167h2426v-227q0 -206 -206 -206h-2002q-30 0 -42 -11.5t-12 -42.5v-46h2262v-167h-2454v227q0 206 205 206h2003zM1376 867v-112h-185v112h185z" />
    <glyph glyph-name="zdotaccent" unicode="&#x17c;" horiz-adv-x="2278" 
d="M261 232q-39 0 -39 -39v-33h2015v-160h-2199v178q0 193 193 193h1783q39 0 39 39v33h-1992v160h2176v-178q0 -193 -193 -193h-1783zM1248 769v-112h-185v112h185z" />
    <glyph glyph-name="Zcaron" unicode="&#x17d;" horiz-adv-x="2548" 
d="M2254 433q30 0 42 12t12 42v46h-2234v167h2426v-227q0 -206 -206 -206h-2002q-30 0 -42 -11.5t-12 -42.5v-46h2262v-167h-2454v227q0 206 205 206h2003zM1143 866l141 -48l140 48h180l-186 -110h-269l-186 110h180z" />
    <glyph glyph-name="zcaron" unicode="&#x17e;" horiz-adv-x="2278" 
d="M261 232q-39 0 -39 -39v-33h2015v-160h-2199v178q0 193 193 193h1783q39 0 39 39v33h-1992v160h2176v-178q0 -193 -193 -193h-1783zM1015 768l141 -48l140 48h180l-186 -110h-269l-186 110h180z" />
    <glyph glyph-name="florin" unicode="&#x192;" 
d="M2425 433v-166h-1980v-109q0 -85 -36.5 -121.5t-121.5 -36.5h-244v167h176q20 0 27 7t7 28v65h-210v166h210v97q0 86 41.5 128t128.5 42h2114v-167h-2055q-20 0 -28.5 -8.5t-8.5 -29.5v-62h1980z" />
    <glyph glyph-name="AEacute" unicode="&#x1fc;" horiz-adv-x="3956" 
d="M1901 0v267h-1650v-267h-192v530q0 86 41.5 128t128.5 42h3685v-167h-1821v-100h1706v-166h-1706v-100h1821v-167h-2013zM287 533q-20 0 -28 -8.5t-8 -29.5v-62h1650v100h-1614zM2319 866l-296 -110h-200l218 110h278z" />
    <glyph glyph-name="aeacute" unicode="&#x1fd;" horiz-adv-x="3427" 
d="M3207 400v15q0 28 -29 28h-1333q-39 0 -39 -39v-33h1372q29 0 29 29zM221 204v-15q0 -29 29 -29h1332q40 0 40 39v33h-1372q-29 0 -29 -28zM1556 0h-1369q-77 0 -113.5 37t-36.5 116v65q0 79 36.5 116t112.5 37h1436v33q0 39 -40 39h-1518v160h1492q78 0 115 -31.5
t43 -102.5q6 71 42.5 102.5t114.5 31.5h1370q76 0 113 -37.5t37 -115.5v-65q0 -79 -36.5 -116t-113.5 -37h-1435v-33q0 -39 39 -39h1518v-160h-1492q-78 0 -114.5 31.5t-42.5 102.5q-6 -71 -43 -102.5t-115 -31.5zM2035 768l-296 -110h-200l218 110h278z" />
    <glyph glyph-name="Oslashacute" unicode="&#x1fe;" horiz-adv-x="2583" 
d="M223 0q-87 0 -128.5 42t-41.5 128v360q0 86 41.5 128t128.5 42h2137q87 0 128.5 -42t41.5 -128v-360q0 -86 -41.5 -128t-128.5 -42h-2137zM2338 204v291q0 21 -8.5 29.5t-29.5 8.5l-1498 -366h1499q20 0 28.5 8.5t8.5 28.5zM281 167l1497 366h-1497q-20 0 -28 -8.5
t-8 -29.5v-290q0 -38 36 -38zM1612 866l-296 -110h-200l218 110h278z" />
    <glyph glyph-name="oslashacute" unicode="&#x1ff;" horiz-adv-x="2291" 
d="M2078 603q86 0 126 -40.5t40 -127.5v-267q0 -86 -40 -127t-126 -41h-1865q-86 0 -126 41t-40 127v267q0 87 39.5 127.5t126.5 40.5h1865zM260 160l1265 283h-1255q-39 0 -39 -39v-205q0 -33 29 -39zM2021 160q39 0 39 39v205q0 33 -29 38l-1264 -282h1254zM1466 768
l-296 -110h-200l218 110h278z" />
    <glyph glyph-name="uni0218" unicode="&#x218;" horiz-adv-x="2545" 
d="M228 267q-170 0 -170 170v93q0 86 42 128t129 42h2243v-167h-2184q-21 0 -29.5 -8.5t-8.5 -29.5v-25q0 -20 8.5 -28.5t29.5 -8.5h2041q88 0 130 -42t42 -128v-93q0 -86 -42 -128t-129 -42h-2287v167h2229q20 0 28.5 8.5t8.5 29.5v25q0 20 -8.5 28.5t-28.5 8.5h-2044z
M1364 -59v-85q0 -60 -34.5 -95.5t-97.5 -35.5h-50v48h42q49 0 49 48v11h-91v109h182z" />
    <glyph glyph-name="uni0219" unicode="&#x219;" horiz-adv-x="2275" 
d="M2209 443h-1955q-29 0 -29 -28v-15q0 -29 29 -29h1835q77 0 113.5 -37t36.5 -116v-65q0 -78 -37 -115.5t-113 -37.5h-2048v160h1985q29 0 29 28v15q0 29 -29 29h-1835q-77 0 -113.5 37t-36.5 116v65q0 79 36.5 116t112.5 37h2019v-160zM1211 -59v-85q0 -60 -34.5 -95.5
t-97.5 -35.5h-50v48h42q49 0 49 48v11h-91v109h182z" />
    <glyph glyph-name="uni021A" unicode="&#x21a;" horiz-adv-x="2529" 
d="M2503 700v-167h-1143v-533h-192v533h-1142v167h2477zM1356 -59v-85q0 -60 -34.5 -95.5t-97.5 -35.5h-50v48h42q49 0 49 48v11h-91v109h182z" />
    <glyph glyph-name="uni021B" unicode="&#x21b;" horiz-adv-x="2140" 
d="M219 0q-87 0 -127.5 41t-40.5 127v602h184v-167h1867v-160h-1867v-244q0 -39 39 -39h1828v-160h-1883zM1161 -59v-85q0 -60 -34.5 -95.5t-97.5 -35.5h-50v48h42q49 0 49 48v11h-91v109h182z" />
    <glyph glyph-name="uni0237" unicode="&#x237;" horiz-adv-x="310" 
d="M-38 -7h71q38 0 38 38v572h184v-602q0 -86 -40.5 -127t-127.5 -41h-125v160z" />
    <glyph glyph-name="circumflex" unicode="&#x2c6;" horiz-adv-x="601" 
d="M301 706l-141 -48h-180l186 110h269l186 -110h-180z" />
    <glyph glyph-name="caron" unicode="&#x2c7;" horiz-adv-x="601" 
d="M160 768l141 -48l140 48h180l-186 -110h-269l-186 110h180z" />
    <glyph glyph-name="breve" unicode="&#x2d8;" horiz-adv-x="601" 
d="M40 693v103q101 -49 261 -49q159 0 259 49v-103q-91 -52 -259 -52t-261 52z" />
    <glyph glyph-name="dotaccent" unicode="&#x2d9;" horiz-adv-x="601" 
d="M393 769v-112h-185v112h185z" />
    <glyph glyph-name="ring" unicode="&#x2da;" horiz-adv-x="601" 
d="M160 735q0 -22 22 -22h238q21 0 21 22t-21 22h-238q-22 0 -22 -22zM407 649h-212q-58 0 -81 21.5t-23 64.5q0 44 23 65.5t81 21.5h212q58 0 81 -22t23 -65t-23 -64.5t-81 -21.5z" />
    <glyph glyph-name="ogonek" unicode="&#x2db;" horiz-adv-x="601" 
d="M516 -66h-43q-150 0 -221.5 -3t-85.5 -7t-14 -13q0 -10 26 -10h385v-103h-391q-72 0 -103 14t-31 55q0 21 4.5 34t21 24.5t42.5 17.5t75.5 10t113 5.5t161.5 1.5h31v40h29v-66z" />
    <glyph glyph-name="tilde" unicode="&#x2dc;" horiz-adv-x="601" 
d="M40 638v108q69 44 144 44q46 0 127.5 -22.5t121.5 -22.5q67 0 127 45v-107q-70 -46 -146 -46q-46 0 -127.5 22.5t-121.5 22.5q-66 0 -125 -44z" />
    <glyph glyph-name="hungarumlaut" unicode="&#x2dd;" horiz-adv-x="601" 
d="M770 768l-296 -110h-200l218 110h278zM330 768l-296 -110h-200l218 110h278z" />
    <glyph glyph-name="pi" unicode="&#x3c0;" 
d="M186 0v603h2190v-603h-184v443h-1822v-443h-184z" />
    <glyph glyph-name="uni1E02" unicode="&#x1e02;" horiz-adv-x="2580" 
d="M2533 204v-39q0 -86 -39 -125.5t-126 -39.5h-2305v700h2305q87 0 126 -39.5t39 -125.5v-39q0 -66 -31.5 -102.5t-107.5 -43.5q76 -7 107.5 -43.5t31.5 -102.5zM2304 433q20 0 28.5 8.5t8.5 28.5v25q0 21 -8.5 29.5t-28.5 8.5h-2049v-100h2049zM255 267v-100h2049
q20 0 28.5 8.5t8.5 29.5v25q0 20 -8.5 28.5t-28.5 8.5h-2049zM1382 867v-112h-185v112h185z" />
    <glyph glyph-name="uni1E03" unicode="&#x1e03;" horiz-adv-x="2295" 
d="M51 168v602h184v-253q12 45 45 65.5t96 20.5h1708q85 0 125 -41t40 -127v-267q0 -86 -40 -127t-125 -41h-1866q-86 0 -126.5 41t-40.5 127zM235 404v-205q0 -39 39 -39h1751q40 0 40 39v205q0 39 -40 39h-1751q-39 0 -39 -39zM1267 769v-112h-185v112h185z" />
    <glyph glyph-name="uni1E0A" unicode="&#x1e0a;" horiz-adv-x="2580" 
d="M2297 700q116 0 176 -60t60 -176v-228q0 -116 -60.5 -176t-175.5 -60h-2234v700h2234zM2272 167q69 0 69 70v226q0 70 -69 70h-2017v-366h2017zM1370 867v-112h-185v112h185z" />
    <glyph glyph-name="uni1E0B" unicode="&#x1e0b;" horiz-adv-x="2295" 
d="M2245 770v-602q0 -86 -40.5 -127t-127.5 -41h-1865q-85 0 -125 41t-40 127v267q0 86 40 127t125 41h1707q63 0 96.5 -20.5t45.5 -65.5v253h184zM2061 199v205q0 39 -40 39h-1751q-39 0 -39 -39v-205q0 -39 39 -39h1751q40 0 40 39zM1210 769v-112h-185v112h185z" />
    <glyph glyph-name="uni1E1E" unicode="&#x1e1e;" horiz-adv-x="2526" 
d="M63 0v700h2437v-167h-2245v-100h2131v-167h-2131v-266h-192zM1382 867v-112h-185v112h185z" />
    <glyph glyph-name="uni1E1F" unicode="&#x1e1f;" horiz-adv-x="2212" 
d="M285 443q-26 0 -38 -11.5t-12 -38.5v-12h1877v-159h-1877v-222h-184v410q0 99 47 146t146 47h1944v-160h-1903zM1242 769v-112h-185v112h185z" />
    <glyph glyph-name="uni1E40" unicode="&#x1e40;" horiz-adv-x="3091" 
d="M1716 700h1146q87 0 128.5 -42t41.5 -128v-530h-192v495q0 21 -8 29.5t-28 8.5h-1122q-41 0 -41 -41v-492h-192v492q0 41 -40 41h-1122q-20 0 -28 -8.5t-8 -29.5v-495h-192v530q0 86 41.5 128t128.5 42h1146q81 0 121 -31.5t49 -102.5q9 71 49.5 102.5t121.5 31.5z
M1638 867v-112h-185v112h185z" />
    <glyph glyph-name="uni1E41" unicode="&#x1e41;" horiz-adv-x="2740" 
d="M1370 469q6 71 43 102.5t115 31.5h997q85 0 125 -41t40 -127v-435h-184v404q0 39 -40 39h-964q-40 0 -40 -39v-404h-184v404q0 39 -39 39h-965q-39 0 -39 -39v-404h-184v435q0 86 40 127t125 41h997q78 0 114.5 -31.5t42.5 -102.5zM1462 769v-112h-185v112h185z" />
    <glyph glyph-name="uni1E56" unicode="&#x1e56;" horiz-adv-x="2557" 
d="M63 0v700h2292q87 0 128.5 -42t41.5 -128v-94q0 -86 -41.5 -128t-128.5 -42h-2100v-266h-192zM2333 495q0 21 -8.5 29.5t-28.5 8.5h-2041v-100h2041q20 0 28.5 8.5t8.5 28.5v25zM1378 867v-112h-185v112h185z" />
    <glyph glyph-name="uni1E57" unicode="&#x1e57;" horiz-adv-x="2295" 
d="M51 -167v602q0 86 40.5 127t126.5 41h1866q85 0 125 -41t40 -127v-267q0 -86 -40 -127t-125 -41h-1708q-63 0 -96 20.5t-45 65.5v-253h-184zM235 404v-205q0 -39 39 -39h1751q40 0 40 39v205q0 39 -40 39h-1751q-39 0 -39 -39zM1240 769v-112h-185v112h185z" />
    <glyph glyph-name="uni1E60" unicode="&#x1e60;" horiz-adv-x="2545" 
d="M228 267q-170 0 -170 170v93q0 86 42 128t129 42h2243v-167h-2184q-21 0 -29.5 -8.5t-8.5 -29.5v-25q0 -20 8.5 -28.5t29.5 -8.5h2041q88 0 130 -42t42 -128v-93q0 -86 -42 -128t-129 -42h-2287v167h2229q20 0 28.5 8.5t8.5 29.5v25q0 20 -8.5 28.5t-28.5 8.5h-2044z
M1364 867v-112h-185v112h185z" />
    <glyph glyph-name="uni1E61" unicode="&#x1e61;" horiz-adv-x="2275" 
d="M2209 443h-1955q-29 0 -29 -28v-15q0 -29 29 -29h1835q77 0 113.5 -37t36.5 -116v-65q0 -78 -37 -115.5t-113 -37.5h-2048v160h1985q29 0 29 28v15q0 29 -29 29h-1835q-77 0 -113.5 37t-36.5 116v65q0 79 36.5 116t112.5 37h2019v-160zM1230 769v-112h-185v112h185z" />
    <glyph glyph-name="uni1E6A" unicode="&#x1e6a;" horiz-adv-x="2529" 
d="M2503 700v-167h-1143v-533h-192v533h-1142v167h2477zM1356 867v-112h-185v112h185z" />
    <glyph glyph-name="uni1E6B" unicode="&#x1e6b;" horiz-adv-x="2140" 
d="M219 0q-87 0 -127.5 41t-40.5 127v602h184v-167h1867v-160h-1867v-244q0 -39 39 -39h1828v-160h-1883zM1198 769v-112h-185v112h185z" />
    <glyph glyph-name="Wgrave" unicode="&#x1e80;" horiz-adv-x="3091" 
d="M2862 0h-1146q-81 0 -121.5 31.5t-49.5 102.5q-9 -71 -49 -102.5t-121 -31.5h-1146q-87 0 -128.5 42t-41.5 128v530h192v-495q0 -21 8 -29.5t28 -8.5h1122q40 0 40 41v492h192v-492q0 -41 41 -41h1122q20 0 28 8.5t8 29.5v495h192v-530q0 -86 -41.5 -128t-128.5 -42z
M1518 756l-290 110h271l219 -110h-200z" />
    <glyph glyph-name="wgrave" unicode="&#x1e81;" horiz-adv-x="2740" 
d="M1370 134q-6 -71 -42.5 -102.5t-114.5 -31.5h-997q-85 0 -125 41t-40 127v435h184v-404q0 -39 39 -39h965q39 0 39 39v404h184v-404q0 -39 40 -39h964q40 0 40 39v404h184v-435q0 -86 -40 -127t-125 -41h-997q-78 0 -115 31.5t-43 102.5zM1343 658l-290 110h271l219 -110
h-200z" />
    <glyph glyph-name="Wacute" unicode="&#x1e82;" horiz-adv-x="3091" 
d="M2862 0h-1146q-81 0 -121.5 31.5t-49.5 102.5q-9 -71 -49 -102.5t-121 -31.5h-1146q-87 0 -128.5 42t-41.5 128v530h192v-495q0 -21 8 -29.5t28 -8.5h1122q40 0 40 41v492h192v-492q0 -41 41 -41h1122q20 0 28 8.5t8 29.5v495h192v-530q0 -86 -41.5 -128t-128.5 -42z
M1867 866l-296 -110h-200l218 110h278z" />
    <glyph glyph-name="wacute" unicode="&#x1e83;" horiz-adv-x="2740" 
d="M1370 134q-6 -71 -42.5 -102.5t-114.5 -31.5h-997q-85 0 -125 41t-40 127v435h184v-404q0 -39 39 -39h965q39 0 39 39v404h184v-404q0 -39 40 -39h964q40 0 40 39v404h184v-435q0 -86 -40 -127t-125 -41h-997q-78 0 -115 31.5t-43 102.5zM1691 768l-296 -110h-200
l218 110h278z" />
    <glyph glyph-name="Wdieresis" unicode="&#x1e84;" horiz-adv-x="3091" 
d="M2862 0h-1146q-81 0 -121.5 31.5t-49.5 102.5q-9 -71 -49 -102.5t-121 -31.5h-1146q-87 0 -128.5 42t-41.5 128v530h192v-495q0 -21 8 -29.5t28 -8.5h1122q40 0 40 41v492h192v-492q0 -41 41 -41h1122q20 0 28 8.5t8 29.5v495h192v-530q0 -86 -41.5 -128t-128.5 -42z
M1432 867v-112h-185v112h185zM1843 867v-112h-185v112h185z" />
    <glyph glyph-name="wdieresis" unicode="&#x1e85;" horiz-adv-x="2740" 
d="M1370 134q-6 -71 -42.5 -102.5t-114.5 -31.5h-997q-85 0 -125 41t-40 127v435h184v-404q0 -39 39 -39h965q39 0 39 39v404h184v-404q0 -39 40 -39h964q40 0 40 39v404h184v-435q0 -86 -40 -127t-125 -41h-997q-78 0 -115 31.5t-43 102.5zM1256 769v-112h-185v112h185z
M1667 769v-112h-185v112h185z" />
    <glyph glyph-name="Ygrave" unicode="&#x1ef2;" horiz-adv-x="2566" 
d="M2331 700h192v-263q0 -86 -41 -128t-129 -42h-974v-267h-192v267h-975q-87 0 -128 42t-41 128v263h192v-230q0 -20 8 -28.5t28 -8.5h2024q20 0 28 8.5t8 28.5v230zM1256 756l-290 110h271l219 -110h-200z" />
    <glyph glyph-name="ygrave" unicode="&#x1ef3;" horiz-adv-x="2296" 
d="M2010 -167h-1919v160h1897q37 0 53.5 15.5t16.5 53.5v89q-13 -45 -46 -65.5t-96 -20.5h-1699q-86 0 -126 41t-40 127v370h184v-339q0 -39 39 -39h1744q40 0 40 39v339h184v-537q0 -121 -55.5 -177t-176.5 -56zM1121 658l-290 110h271l219 -110h-200z" />
    <glyph glyph-name="uni2010" unicode="&#x2010;" horiz-adv-x="911" 
d="M871 409v-164h-830v164h830z" />
    <glyph glyph-name="figuredash" unicode="&#x2012;" 
d="M2563 409v-164h-2563v164h2563z" />
    <glyph glyph-name="endash" unicode="&#x2013;" horiz-adv-x="1203" 
d="M1203 409v-164h-1203v164h1203z" />
    <glyph glyph-name="emdash" unicode="&#x2014;" horiz-adv-x="2406" 
d="M2406 409v-164h-2406v164h2406z" />
    <glyph glyph-name="quoteleft" unicode="&#x2018;" horiz-adv-x="334" 
d="M55 383v150q0 77 43.5 122t123.5 45h56v-86h-43q-33 0 -47 -13.5t-14 -45.5v-22h104v-150h-223z" />
    <glyph glyph-name="quoteright" unicode="&#x2019;" horiz-adv-x="334" 
d="M279 700v-150q0 -77 -43.5 -122t-123.5 -45h-56v86h43q33 0 47 13.5t14 45.5v22h-104v150h223z" />
    <glyph glyph-name="quotesinglbase" unicode="&#x201a;" horiz-adv-x="334" 
d="M279 150v-150q0 -77 -43.5 -122t-123.5 -45h-56v86h43q33 0 47 13.5t14 45.5v22h-104v150h223z" />
    <glyph glyph-name="quotedblleft" unicode="&#x201c;" horiz-adv-x="628" 
d="M349 383v150q0 77 43.5 122t123.5 45h56v-86h-43q-33 0 -47 -13.5t-14 -45.5v-22h104v-150h-223zM55 383v150q0 77 43.5 122t123.5 45h56v-86h-43q-33 0 -47 -13.5t-14 -45.5v-22h104v-150h-223z" />
    <glyph glyph-name="quotedblright" unicode="&#x201d;" horiz-adv-x="628" 
d="M572 700v-150q0 -77 -43.5 -122t-123.5 -45h-56v86h43q33 0 47 13.5t14 45.5v22h-104v150h223zM279 700v-150q0 -77 -43.5 -122t-123.5 -45h-56v86h43q33 0 47 13.5t14 45.5v22h-104v150h223z" />
    <glyph glyph-name="quotedblbase" unicode="&#x201e;" horiz-adv-x="628" 
d="M572 150v-150q0 -77 -43.5 -122t-123.5 -45h-56v86h43q33 0 47 13.5t14 45.5v22h-104v150h223zM279 150v-150q0 -77 -43.5 -122t-123.5 -45h-56v86h43q33 0 47 13.5t14 45.5v22h-104v150h223z" />
    <glyph glyph-name="dagger" unicode="&#x2020;" horiz-adv-x="2387" 
d="M2351 546v-166h-1062v-512h-192v512h-1060v166h1060v194h192v-194h1062z" />
    <glyph glyph-name="daggerdbl" unicode="&#x2021;" horiz-adv-x="2387" 
d="M2351 271v-166h-1062v-237h-192v237h-1060v166h1060v109h-1060v166h1060v194h192v-194h1062v-166h-1062v-109h1062z" />
    <glyph glyph-name="bullet" unicode="&#x2022;" horiz-adv-x="1203" 
d="M703 124h-203q-190 0 -190 181v90q0 181 190 181h203q190 0 190 -181v-90q0 -181 -190 -181z" />
    <glyph glyph-name="ellipsis" unicode="&#x2026;" horiz-adv-x="921" 
d="M279 150v-150h-223v150h223zM572 150v-150h-223v150h223zM866 150v-150h-223v150h223z" />
    <glyph glyph-name="perthousand" unicode="&#x2030;" horiz-adv-x="4767" 
d="M1271 0l616 700h186l-616 -700h-186zM1966 130v274q0 66 31.5 98t98.5 32h1072q67 0 98.5 -32t31.5 -98v-274q0 -66 -31.5 -98t-98.5 -32h-1072q-67 0 -98.5 32t-31.5 98zM3140 168v198q0 30 -28 30h-959q-29 0 -29 -30v-198q0 -30 29 -30h959q28 0 28 30zM3389 130v274
q0 66 31.5 98t98.5 32h1072q67 0 98.5 -32t31.5 -98v-274q0 -66 -31.5 -98t-98.5 -32h-1072q-67 0 -98.5 32t-31.5 98zM4563 168v198q0 30 -28 30h-959q-29 0 -29 -30v-198q0 -30 29 -30h959q28 0 28 30zM47 296v274q0 66 31.5 98t98.5 32h1072q67 0 98.5 -32t31.5 -98v-274
q0 -66 -31.5 -98t-98.5 -32h-1072q-67 0 -98.5 32t-31.5 98zM1221 334v198q0 30 -28 30h-959q-29 0 -29 -30v-198q0 -30 29 -30h959q28 0 28 30z" />
    <glyph glyph-name="guilsinglleft" unicode="&#x2039;" horiz-adv-x="481" 
d="M455 51h-209l-220 249l220 249h209l-225 -249z" />
    <glyph glyph-name="guilsinglright" unicode="&#x203a;" horiz-adv-x="481" 
d="M235 51h-209l225 249l-225 249h209l220 -249z" />
    <glyph glyph-name="fraction" unicode="&#x2044;" horiz-adv-x="850" 
d="M24 0l616 700h186l-616 -700h-186z" />
    <glyph glyph-name="zerosuperior" unicode="&#x2070;" horiz-adv-x="1425" 
d="M47 296v274q0 66 31.5 98t98.5 32h1072q67 0 98.5 -32t31.5 -98v-274q0 -66 -31.5 -98t-98.5 -32h-1072q-67 0 -98.5 32t-31.5 98zM1221 334v198q0 30 -28 30h-959q-29 0 -29 -30v-198q0 -30 29 -30h959q28 0 28 30z" />
    <glyph glyph-name="foursuperior" unicode="&#x2074;" horiz-adv-x="1425" 
d="M1212 502v198h158v-534h-158v198h-1044q-67 0 -98.5 32t-31.5 98v206h158v-169q0 -29 29 -29h987z" />
    <glyph glyph-name="zeroinferior" unicode="&#x2080;" horiz-adv-x="1425" 
d="M47 130v274q0 66 31.5 98t98.5 32h1072q67 0 98.5 -32t31.5 -98v-274q0 -66 -31.5 -98t-98.5 -32h-1072q-67 0 -98.5 32t-31.5 98zM1221 168v198q0 30 -28 30h-959q-29 0 -29 -30v-198q0 -30 29 -30h959q28 0 28 30z" />
    <glyph glyph-name="oneinferior" unicode="&#x2081;" horiz-adv-x="1425" 
d="M97 0v138h639v258h-640v138h798v-396h479v-138h-1276z" />
    <glyph glyph-name="twoinferior" unicode="&#x2082;" horiz-adv-x="1425" 
d="M1232 357v9q0 16 -6.5 23t-22.5 7h-1144v138h1202q66 0 97.5 -32t31.5 -98v-68q0 -66 -31.5 -98t-97.5 -32h-1020q-25 0 -34 -9t-9 -33v-26h1192v-138h-1350v171q0 157 157 157h1006q16 0 22.5 6.5t6.5 22.5z" />
    <glyph glyph-name="threeinferior" unicode="&#x2083;" horiz-adv-x="1425" 
d="M1386 408v-30q0 -48 -23.5 -76.5t-85.5 -34.5q62 -6 85.5 -34.5t23.5 -76.5v-30q0 -65 -30 -95.5t-96 -30.5h-1222v138h1161q16 0 22.5 7t6.5 23v9q0 16 -6.5 22.5t-22.5 6.5h-1074v122h1074q29 0 29 29v9q0 16 -6.5 23t-22.5 7h-1161v138h1222q66 0 96 -30.5t30 -95.5z
" />
    <glyph glyph-name="fourinferior" unicode="&#x2084;" horiz-adv-x="1425" 
d="M1212 336v198h158v-534h-158v198h-1044q-67 0 -98.5 32t-31.5 98v206h158v-169q0 -29 29 -29h987z" />
    <glyph glyph-name="Euro" unicode="&#x20ac;" 
d="M308 0q-88 0 -129 42t-41 128v97h-112v166h112v97q0 86 41 128t129 42h2212v-167h-2154q-20 0 -28 -8.5t-8 -29.5v-62h2078v-166h-2078v-62q0 -21 8 -29.5t28 -8.5h2154v-167h-2212z" />
    <glyph glyph-name="uni2117" unicode="&#x2117;" horiz-adv-x="2496" 
d="M336 382h1827q17 0 17 16v31q0 16 -17 16h-1827v-63zM2257 448v-68q0 -33 -15 -48t-47 -15h-1859v-129h-78v323h1937q32 0 47 -15t15 -48zM224 0q-88 0 -129.5 42t-41.5 128v360q0 86 41.5 128t129.5 42h2048q88 0 129.5 -42t41.5 -128v-360q0 -86 -41.5 -128t-129.5 -42
h-2048zM229 72h2038q94 0 94 94v368q0 94 -94 94h-2038q-94 0 -94 -94v-368q0 -94 94 -94z" />
    <glyph glyph-name="trademark" unicode="&#x2122;" horiz-adv-x="3496" 
d="M2429 166v364q0 32 -32 32h-635q-16 0 -22.5 -6.5t-6.5 -22.5v-367h-158v408q0 126 126 126h672q66 0 98 -26.5t37 -84.5q6 58 38 84.5t98 26.5h670q127 0 127 -126v-408h-158v367q0 16 -6.5 22.5t-22.5 6.5h-635q-32 0 -32 -32v-364h-158zM1496 700v-138h-654v-396h-158
v396h-653v138h1465z" />
    <glyph glyph-name="uni2126" unicode="&#x2126;" 
d="M2313 440v55q0 21 -9 29.5t-29 8.5h-1987q-21 0 -29.5 -8.5t-8.5 -29.5v-55q0 -20 8.5 -28.5t29.5 -8.5h849v-403h-1094v167h926v70h-741q-170 0 -170 170v123q0 86 42 128t129 42h2105q87 0 129 -42t42 -128v-123q0 -86 -42 -128t-129 -42h-741v-70h927v-167h-1094v403
h849q20 0 29 8.5t9 28.5z" />
    <glyph glyph-name="onethird" unicode="&#x2153;" horiz-adv-x="3344" 
d="M97 166v138h639v258h-640v138h798v-396h479v-138h-1276zM1271 0l616 700h186l-616 -700h-186zM3305 408v-30q0 -48 -23.5 -76.5t-85.5 -34.5q62 -6 85.5 -34.5t23.5 -76.5v-30q0 -65 -30 -95.5t-96 -30.5h-1222v138h1161q16 0 22.5 7t6.5 23v9q0 16 -6.5 22.5t-22.5 6.5
h-1074v122h1074q29 0 29 29v9q0 16 -6.5 23t-22.5 7h-1161v138h1222q66 0 96 -30.5t30 -95.5z" />
    <glyph glyph-name="twothirds" unicode="&#x2154;" horiz-adv-x="3344" 
d="M1232 523v9q0 16 -6.5 23t-22.5 7h-1144v138h1202q66 0 97.5 -32t31.5 -98v-68q0 -66 -31.5 -98t-97.5 -32h-1020q-25 0 -34 -9t-9 -33v-26h1192v-138h-1350v171q0 157 157 157h1006q16 0 22.5 6.5t6.5 22.5zM1271 0l616 700h186l-616 -700h-186zM3305 408v-30
q0 -48 -23.5 -76.5t-85.5 -34.5q62 -6 85.5 -34.5t23.5 -76.5v-30q0 -65 -30 -95.5t-96 -30.5h-1222v138h1161q16 0 22.5 7t6.5 23v9q0 16 -6.5 22.5t-22.5 6.5h-1074v122h1074q29 0 29 29v9q0 16 -6.5 23t-22.5 7h-1161v138h1222q66 0 96 -30.5t30 -95.5z" />
    <glyph glyph-name="partialdiff" unicode="&#x2202;" 
d="M2512 464v-294q0 -86 -41.5 -128t-128.5 -42h-2128q-87 0 -129 42t-42 128v93q0 86 42 128t129 42h2106v30q0 70 -69 70h-2179v167h2203q116 0 176.5 -60t60.5 -176zM235 230v-25q0 -21 8.5 -29.5t28.5 -8.5h2011q20 0 28.5 8.5t8.5 29.5v62h-2048q-20 0 -28.5 -8.5
t-8.5 -28.5z" />
    <glyph glyph-name="uni2206" unicode="&#x2206;" 
d="M2538 0h-2514l1257 731zM1281 538l-653 -379h1305z" />
    <glyph glyph-name="product" unicode="&#x220f;" 
d="M2318 -132v665h-2073v-665h-192v832h2457v-832h-192z" />
    <glyph glyph-name="summation" unicode="&#x2211;" 
d="M2510 35v-167h-2458v143l764 273l-764 273v143h2458v-167h-1903l690 -249l-690 -249h1903z" />
    <glyph glyph-name="minus" unicode="&#x2212;" 
d="M53 271v158h2457v-158h-2457z" />
    <glyph glyph-name="radical" unicode="&#x221a;" 
d="M1711 0l-251 271h-1407v158h1495l258 -273l515 544h226l-645 -700h-191z" />
    <glyph glyph-name="infinity" unicode="&#x221e;" horiz-adv-x="733" 
d="M345 317q-12 0 -23.5 12.5t-14.5 12.5t-11 -2t-14 -2q-8 0 -14.5 8t-6.5 17q0 22 8 35q-7 -7 -16 -37t-26 -41q-18 -12 -18 -40q0 -11 11 -21.5t11 -12.5q0 -4 -3 -4q-7 0 -12 5q13 -68 48 -104h-55q-35 114 -35 226q0 105 40.5 171.5t135.5 66.5q190 0 190 -254
q0 -75 -25 -210h-73q53 47 62 117q-4 -8 -13 -8q-3 0 -3 2l4 4q5 3 9.5 11.5t4.5 21.5q-4 -6 -15 -6q-1 0 -10.5 -4.5t-15.5 -4.5q-14 0 -40 3.5t-70 3.5q-22 0 -52.5 -6t-38.5 -6q-5 0 -13 2t-11 2q-28 0 -28 12q0 10 37 18.5t74 8.5q5 0 12 -0.5t12 -0.5t15.5 2t14.5 2
q112 0 127 -20q-1 16 -14 29t-30 13q-6 0 -6 7q0 57 -16 58q4 -7 4 -17q0 -18 -11 -32t-27 -14q-4 0 -10 2l-7 2q-1 0 -14.5 -14t-27.5 -14zM733 291v-148q-22 48 -69 112.5t-67 64.5q6 -85 -12 -177h-42q16 104 16 199q0 319 -213 319q-53 0 -91.5 -26.5t-59 -72.5
t-30 -97.5t-9.5 -111.5q0 -123 29 -210h-47q-19 67 -19 184q-17 -9 -39.5 -43.5t-49 -84.5t-30.5 -56v148q11 27 33 54t50 53.5t30 28.5q3 72 27 135t75.5 107.5t120.5 44.5q67 0 115.5 -22.5t76.5 -64t42.5 -87t22.5 -105.5q22 -5 68 -48t72 -96zM345 503q-3 3 -3 6
q0 2 2 2q1 0 6 -4.5t15 -8.5t22 -4q16 0 29 4t20 8l6 5q4 0 4 -2l-8 -8q24 0 52 -11q-29 80 -139 80q-55 0 -92 -33t-50 -85q37 20 41 39q-6 4 -6 7q0 4 3 4l2 -2q2 -1 6.5 -3.5t10 -5t13.5 -4t17 -1.5q24 0 49 17zM371 416q0 20 -4.5 40t-9.5 20q-10 0 -19 -39t-14 -39
q-3 0 -9.5 3t-11.5 3q-13 0 -21 -10.5t-8 -24.5t11 -14t18 6.5t9 6.5t12 -13.5t20 -13.5q14 0 25 10.5t12 10.5q3 0 10 -3.5t9 -3.5q10 0 18 11t8 24q0 10 -6 18t-16 8q-7 0 -14.5 -6.5t-11.5 -6.5q-7 0 -7 13zM510 318q0 95 -12 147l-5 3q0 -21 -18 -32t-41 -11
q-21 0 -37 12.5t-16 29.5q0 6 2 9q-12 2 -15 4q6 -9 10 -24t5.5 -24t4.5 -9q7 2 15 2q19 0 31 -14q34 0 34 -51q0 -3 8 -7t18.5 -13t15.5 -22zM383 310q-1 0 -8 -1t-15.5 -2t-13.5 -1t-13 1.5t-11 1.5q-15 0 -36 -4t-35 -9t-14 -8q0 -10 20 -10q24 0 54 6.5t44 6.5
q19 0 57.5 -3.5t52.5 -3.5q5 0 9.5 2t7.5 4t3 3q0 5 -36 11t-66 6zM267 413q-18 0 -31 10t-15 21q-4 -2 -15 -5q-4 -21 -4 -43q0 -50 3 -78q4 6 22 22t20 31q5 37 38 41q12 5 23 5q5 0 8.5 8.5t9.5 24.5t16 28l-13 -4q-1 -24 -18.5 -42.5t-43.5 -18.5zM419 465q-13 0 -16 13
q-5 0 -8.5 -5.5t-3.5 -9.5q0 -10 15 -17t31 -7q14 0 29 8.5t15 21.5q0 8 -14.5 12.5t-28.5 4.5q-5 -21 -19 -21zM267 427q14 0 30 11t16 24q0 6 -1 9q-20 0 -27 1q-5 -14 -18 -14q-10 0 -15 5q-4 -4 -18 -12q4 -24 33 -24zM266 288q-2 0 -2 3q0 12 107 12q93 0 93 -8
q0 -3 -3 -3q-1 0 -4 0.5t-10 1t-16 1.5t-24.5 1.5t-33.5 0.5q-36 0 -61 -2.5t-36 -4.5zM305 262q0 10 63 10q31 0 31 -8q0 -3 -2 -3q-4 0 -10 2t-10 2q-11 0 -26 -0.5t-20 -0.5q-4 0 -11.5 -3t-10.5 -3q-4 0 -4 4zM417 473q9 0 9 13q-1 0 -16 -6q0 -7 7 -7zM266 466
q7 0 10 9q-6 1 -11 4q0 -4 -6 -10q1 -3 7 -3zM325 34l-3 48l-10 -82h-21l15 125h25l4 -60l21 60h26l-15 -125h-22l10 82l-16 -48h-14zM21 125h35q23 0 20 -21l-10 -82q-3 -22 -22 -22h-38zM282 44q-1 -12 -10 -17l8 -27h-21l-7 23h-7l-3 -23h-22l15 125h36q21 0 18 -24z
M183 0l3 23h-14l-3 -23h-21l12 104q2 21 22 21h17q19 0 18 -21l-12 -104h-22zM594 0l15 125h35q23 0 20 -21l-8 -62q-3 -19 -22 -19h-15l-3 -23h-22zM111 0l3 23h-13l-3 -23h-22l15 125h22l-10 -83h13l10 83h22l-15 -125h-22zM539 125h22l-10 -79q0 -4 4 -4h5q5 0 5 4l9 79
h22l-10 -81q-3 -21 -19 -21l-9 -23h-23l9 23q-18 0 -15 21zM477 106l3 19h50l-3 -19h-13l-12 -106h-23l12 106h-14zM41 106l-11 -88h11q3 0 3 4l9 80q0 4 -4 4h-8zM629 106l-8 -64h8q5 0 5 4l7 56q0 4 -4 4h-8zM174 42h14l7 60q0 4 -4 4h-5q-5 0 -5 -4zM255 106l-8 -64h8
q5 0 5 4l7 56q0 4 -3 4h-9zM711 57l-3 -18h-19l-3 -21h27l-2 -18h-49l15 125h47l-3 -19h-24l-6 -49h20zM417 0l3 23h-14l-3 -23h-21l12 104q2 21 22 21h17q19 0 18 -21l-12 -104h-22zM408 42h14l7 60q0 4 -4 4h-5q-5 0 -5 -4z" />
    <glyph glyph-name="integral" unicode="&#x222b;" 
d="M1472 483l-217 -468q-37 -82 -88 -114.5t-149 -32.5h-965v167h961q32 0 51.5 11t33.5 39l217 468q37 82 88.5 114.5t149.5 32.5h956v-167h-952q-32 0 -52 -11t-34 -39z" />
    <glyph glyph-name="approxequal" unicode="&#x2248;" 
d="M53 98v164q248 88 564 88q147 0 332.5 -18.5t335.5 -41t336 -41t333 -18.5q312 0 556 85v-164q-246 -87 -566 -87q-184 0 -426.5 29.5t-484.5 59t-425 29.5q-312 0 -555 -85zM53 383v164q248 88 564 88q147 0 332.5 -18.5t335.5 -41t336 -41t333 -18.5q312 0 556 85v-164
q-246 -87 -566 -87q-184 0 -426.5 29.5t-484.5 59t-425 29.5q-312 0 -555 -85z" />
    <glyph glyph-name="notequal" unicode="&#x2260;" 
d="M1073 0h-199l115 131h-906v158h1045l107 122h-1152v158h1291l115 131h199l-115 -131h907v-158h-1046l-107 -122h1153v-158h-1292z" />
    <glyph glyph-name="lessequal" unicode="&#x2264;" 
d="M53 350l267 320h205l-207 -241h2192v-158h-2192l97 -113h2095v-158h-2457v158h160z" />
    <glyph glyph-name="greaterequal" unicode="&#x2265;" 
d="M2243 670l267 -320l-160 -192h160v-158h-2457v158h2095l97 113h-2192v158h2192l-207 241h205z" />
    <glyph glyph-name="lozenge" unicode="&#x25ca;" 
d="M1281 -31l-1258 378l1258 378l1257 -378zM1281 139l692 208l-693 208l-691 -208z" />
    <glyph glyph-name="commaaccent" horiz-adv-x="601" 
d="M392 -59v-85q0 -60 -34.5 -95.5t-97.5 -35.5h-50v48h42q49 0 49 48v11h-91v109h182z" />
    <glyph glyph-name="f.alt" horiz-adv-x="2212" 
d="M285 443q-26 0 -38 -11.5t-12 -38.5v-12h1877v-159h-1877v-389h-184v577q0 99 47 146t146 47h1944v-160h-1903z" />
    <glyph glyph-name="i.alt" horiz-adv-x="297" 
d="M57 0v603h184v-603h-184zM260 770v-113h-223v113h223z" />
    <glyph glyph-name="i.trk" horiz-adv-x="431" 
d="M278 160h132v-160h-187q-87 0 -127.5 41t-40.5 127v435h184v-404q0 -18 10.5 -28.5t28.5 -10.5zM258 770v-113h-223v113h223z" />
    <glyph glyph-name="germandbls.alt" horiz-adv-x="2323" 
d="M2071 232h-1585v139h1585q29 0 29 29v15q0 28 -29 28h-1782q-28 0 -41 -12.5t-13 -41.5v-556h-184v581q0 96 46 142.5t144 46.5h1902q74 0 107.5 -33t33.5 -103v-38q0 -56 -24.5 -89t-82.5 -39q58 -6 82.5 -38.5t24.5 -88.5v-38q0 -71 -35 -103.5t-106 -32.5h-1657v160
h1585q29 0 29 29v15q0 28 -29 28z" />
    <glyph glyph-name="one.pnum" horiz-adv-x="564" 
d="M502 700v-700h-192v533h-284v167h476z" />
    </font>
</defs>
</svg>
