<?xml version="1.0" standalone="no"?>
<!DOCTYPE svg PUBLIC "-//W3C//DTD SVG 1.1//EN" "http://www.w3.org/Graphics/SVG/1.1/DTD/svg11.dtd" >
<svg xmlns="http://www.w3.org/2000/svg" xmlns:xlink="http://www.w3.org/1999/xlink" version="1.1">
<metadata>
Created by FontForge 20170731 at Sat Mar 14 00:16:18 2015
 By ,,,
Copyright (c) 2011 by Ryoichi Tsunekawa. All rights reserved.
</metadata>
<defs>
<font id="DesignSystemE-300R" horiz-adv-x="1843" >
  <font-face 
    font-family="DesignSystemE-300R"
    font-weight="400"
    font-stretch="normal"
    units-per-em="1000"
    panose-1="4 5 4 7 2 11 2 2 3 2"
    ascent="822"
    descent="-178"
    x-height="603"
    cap-height="700"
    bbox="-121 -212 3459 934"
    underline-thickness="36"
    underline-position="-156"
    unicode-range="U+0020-FB02"
  />
<missing-glyph horiz-adv-x="959" 
d="M0 700h959v-700h-959v700zM47 656v-604l808 604h-808zM104 44h808v603z" />
    <glyph glyph-name="ij" unicode="ij" horiz-adv-x="509" 
d="M209 -110h54q53 0 72.5 19t19.5 73v621h65v-628q0 -77 -32.5 -109.5t-109.5 -32.5h-69v57zM333 683v54h109v-54h-109zM93 0v603h64v-603h-64zM179 737v-54h-108v54h108z" />
    <glyph glyph-name="fi" unicode="fi" horiz-adv-x="1923" 
d="M262 546q-62 0 -90.5 -28t-28.5 -92v-96h1328v-57h-1328v-273h-65v430q0 89 42 131t131 42h1285v-57h-1274zM1803 57h93v-57h-108q-75 0 -108 33.5t-33 108.5v461h64v-454q0 -53 19.5 -72.5t72.5 -19.5zM1733 737v-54h-108v54h108z" />
    <glyph glyph-name="fl" unicode="fl" horiz-adv-x="1921" 
d="M262 546q-62 0 -90.5 -28t-28.5 -92v-96h1328v-57h-1328v-273h-65v430q0 89 42 131t131 42h1285v-57h-1274zM1801 57h92v-57h-107q-76 0 -109 33.5t-33 108.5v628h65v-621q0 -53 19.5 -72.5t72.5 -19.5z" />
    <glyph glyph-name=".notdef" horiz-adv-x="959" 
d="M0 700h959v-700h-959v700zM47 656v-604l808 604h-808zM104 44h808v603z" />
    <glyph glyph-name=".null" horiz-adv-x="0" 
 />
    <glyph glyph-name="nonmarkingreturn" horiz-adv-x="333" 
 />
    <glyph glyph-name="space" unicode=" " horiz-adv-x="490" 
 />
    <glyph glyph-name="exclam" unicode="!" horiz-adv-x="305" 
d="M204 65v-65h-103v65h103zM185 700v-233q0 -123 -11 -293h-43q-12 159 -12 293v233h66z" />
    <glyph glyph-name="quotedbl" unicode="&#x22;" horiz-adv-x="406" 
d="M140 700v-47q0 -79 -15 -261h-36q-15 182 -15 261v47h66zM332 700v-47q0 -79 -15 -261h-36q-15 182 -15 261v47h66z" />
    <glyph glyph-name="numbersign" unicode="#" 
d="M1594 0l7 144h-1381l-7 -144h-63l8 144h-117l3 57h117l15 298h-116l3 57h116l8 144h63l-8 -144h1381l8 144h62l-7 -144h116l-3 -57h-117l-15 -298h116l-3 -57h-116l-8 -144h-62zM239 499l-16 -298h1381l16 298h-1381z" />
    <glyph glyph-name="dollar" unicode="$" 
d="M55 107h1585q44 0 62.5 19t18.5 63v51q0 45 -18.5 63.5t-62.5 18.5h-1452q-69 0 -101 32.5t-32 102.5v59q0 70 32.5 103t100.5 33h703v88h59v-88h810v-58h-1558q-44 0 -63 -18.5t-19 -62.5v-52q0 -44 19 -63t63 -19h1452q68 0 100 -32.5t32 -102.5v-59q0 -70 -32 -102.5
t-100 -32.5h-704v-90h-59v90h-836v57z" />
    <glyph glyph-name="percent" unicode="%" horiz-adv-x="2471" 
d="M968 0l471 700h64l-471 -700h-64zM1455 117v300q0 60 28.5 88.5t88.5 28.5h716q60 0 88.5 -28.5t28.5 -88.5v-300q0 -60 -28.5 -88.5t-88.5 -28.5h-716q-60 0 -88.5 28.5t-28.5 88.5zM2345 121v292q0 36 -16 51.5t-50 15.5h-697q-35 0 -51 -15.5t-16 -51.5v-292
q0 -36 16 -51.5t51 -15.5h697q34 0 50 15.5t16 51.5zM66 283v300q0 60 28.5 88.5t88.5 28.5h716q60 0 88.5 -28.5t28.5 -88.5v-300q0 -60 -28.5 -88.5t-88.5 -28.5h-716q-60 0 -88.5 28.5t-28.5 88.5zM956 287v292q0 36 -16 51.5t-50 15.5h-697q-35 0 -51 -15.5t-16 -51.5
v-292q0 -36 16 -51.5t51 -15.5h697q34 0 50 15.5t16 51.5z" />
    <glyph glyph-name="ampersand" unicode="&#x26;" horiz-adv-x="1940" 
d="M1744 321h-1512q-55 0 -76.5 -23t-21.5 -80v-59q0 -54 22.5 -77.5t73.5 -23.5h1421q55 0 74 19.5t19 75.5v168zM68 148v63q0 66 25.5 99t87.5 40q-62 7 -87.5 39.5t-25.5 99.5v63q0 76 35.5 112t112.5 36h1545v-58h-1531q-51 0 -73.5 -23.5t-22.5 -77.5v-59
q0 -57 21.5 -80t76.5 -23h1680v-58h-101v-180q0 -75 -33 -108t-109 -33h-1453q-77 0 -112.5 36t-35.5 112z" />
    <glyph glyph-name="quotesingle" unicode="'" horiz-adv-x="214" 
d="M140 700v-47q0 -79 -15 -261h-36q-15 182 -15 261v47h66z" />
    <glyph glyph-name="parenleft" unicode="(" horiz-adv-x="342" 
d="M147 80q0 -58 23 -81t79 -23h41v-56h-56q-77 0 -113.5 37t-36.5 112v482q0 75 36.5 112t113.5 37h56v-56h-41q-56 0 -79 -23t-23 -81v-460z" />
    <glyph glyph-name="parenright" unicode=")" horiz-adv-x="342" 
d="M195 80v460q0 58 -23 81t-79 23h-41v56h56q77 0 113.5 -37t36.5 -112v-482q0 -75 -36.5 -112t-113.5 -37h-56v56h41q56 0 79 23t23 81z" />
    <glyph glyph-name="asterisk" unicode="*" horiz-adv-x="549" 
d="M283 455q67 43 152 71l75 24l17 -53l-75 -23q-88 -28 -164 -34q81 -77 114 -123l46 -64l-45 -32l-46 63q-52 72 -82 146q-35 -80 -82 -146l-47 -63l-44 32l45 64q33 46 114 123q-76 6 -164 34l-74 23l17 53l74 -24q82 -26 153 -71q-20 77 -20 167v78h55v-78
q0 -82 -19 -167z" />
    <glyph glyph-name="plus" unicode="+" 
d="M74 321v57h819v245h57v-245h820v-57h-820v-245h-57v245h-819z" />
    <glyph glyph-name="comma" unicode="," horiz-adv-x="299" 
d="M200 68v-65q0 -99 -84 -99h-17v32h16q20 0 28.5 10.5t8.5 38.5v18h-53v65h101z" />
    <glyph glyph-name="hyphen" unicode="-" horiz-adv-x="729" 
d="M680 356v-58h-632v58h632z" />
    <glyph glyph-name="period" unicode="." horiz-adv-x="299" 
d="M200 68v-68h-101v68h101z" />
    <glyph glyph-name="slash" unicode="/" horiz-adv-x="657" 
d="M34 0l516 700h73l-516 -700h-73z" />
    <glyph glyph-name="zero" unicode="0" 
d="M226 0q-152 0 -152 152v396q0 152 152 152h1391q78 0 115.5 -37.5t37.5 -114.5v-396q0 -77 -37.5 -114.5t-115.5 -37.5h-1391zM1703 164v372q0 58 -22.5 81.5t-78.5 23.5h-1360q-56 0 -79 -23.5t-23 -81.5v-372q0 -58 23 -81.5t79 -23.5h1360q56 0 78.5 23.5t22.5 81.5z
" />
    <glyph glyph-name="one" unicode="1" 
d="M1260 700v-641h512v-59h-1628v59h1052v583h-1052v58h1116z" />
    <glyph glyph-name="two" unicode="2" 
d="M1708 541q0 54 -22.5 77t-73.5 23h-1529v59h1542q78 0 113.5 -36t35.5 -113v-81q0 -77 -35.5 -113t-113.5 -36h-1369q-74 0 -104 -29t-30 -105v-128h1664v-59h-1730v196q0 183 184 183h1372q51 0 73.5 23.5t22.5 77.5v61z" />
    <glyph glyph-name="three" unicode="3" 
d="M1611 321h-1450v58h1450q55 0 76.5 23t21.5 80v59q0 54 -22.5 77t-73.5 23h-1559v59h1573q77 0 113 -36t36 -112v-63q0 -67 -25.5 -99.5t-88.5 -39.5q62 -7 88 -40t26 -99v-63q0 -76 -36 -112t-113 -36h-1573v59h1559q51 0 73.5 23t22.5 77v59q0 57 -21.5 80t-76.5 23z
" />
    <glyph glyph-name="four" unicode="4" 
d="M1689 379v321h66v-700h-66v321h-1482q-78 0 -115 37.5t-37 114.5v227h66v-216q0 -58 23 -81.5t79 -23.5h1466z" />
    <glyph glyph-name="five" unicode="5" 
d="M78 321v379h1680v-59h-1614v-262h1492q77 0 113 -36t36 -113v-81q0 -77 -36 -113t-113 -36h-1568v59h1554q52 0 74.5 23t22.5 77v61q0 54 -22.5 77.5t-74.5 23.5h-1544z" />
    <glyph glyph-name="six" unicode="6" 
d="M138 484v-105h1498q77 0 113 -36t36 -113v-81q0 -77 -36 -113t-113 -36h-1414q-78 0 -114 36.5t-36 113.5v339q0 104 53.5 157.5t157.5 53.5h1475v-59h-1464q-78 0 -117 -38t-39 -119zM1622 321h-1484v-159q0 -56 23 -79.5t76 -23.5h1385q52 0 74.5 23t22.5 77v61
q0 54 -22.5 77.5t-74.5 23.5z" />
    <glyph glyph-name="seven" unicode="7" 
d="M1601 379q67 0 94.5 26.5t27.5 94.5v141h-1694v59h1760v-211q0 -168 -169 -168h-773q-67 0 -94.5 -26.5t-27.5 -94.5v-200h-66v211q0 168 169 168h773z" />
    <glyph glyph-name="eight" unicode="8" 
d="M1779 552v-63q0 -67 -25.5 -99.5t-88.5 -39.5q62 -7 88 -40t26 -99v-63q0 -76 -36 -112t-113 -36h-1417q-77 0 -112.5 36t-35.5 112v63q0 66 25.5 99t87.5 40q-62 7 -87.5 39.5t-25.5 99.5v63q0 76 35.5 112t112.5 36h1417q77 0 113 -36t36 -112zM229 379h1385
q55 0 76.5 23t21.5 80v59q0 54 -22.5 77t-73.5 23h-1389q-51 0 -73.5 -23t-22.5 -77v-59q0 -57 21.5 -80t76.5 -23zM1614 321h-1385q-55 0 -76.5 -23t-21.5 -80v-59q0 -54 22.5 -77t73.5 -23h1389q51 0 73.5 23t22.5 77v59q0 57 -21.5 80t-76.5 23z" />
    <glyph glyph-name="nine" unicode="9" 
d="M1621 700q78 0 114.5 -36.5t36.5 -113.5v-339q0 -104 -54 -157.5t-157 -53.5h-1475v59h1463q78 0 117 38t39 119v105h-1498q-77 0 -113 36t-36 113v81q0 77 36 113t113 36h1414zM124 541v-61q0 -54 23 -77.5t74 -23.5h1484v159q0 56 -22.5 79.5t-76.5 23.5h-1385
q-51 0 -74 -23t-23 -77z" />
    <glyph glyph-name="colon" unicode=":" horiz-adv-x="299" 
d="M200 538v-68h-101v68h101zM200 68v-68h-101v68h101z" />
    <glyph glyph-name="semicolon" unicode=";" horiz-adv-x="299" 
d="M200 68v-65q0 -99 -84 -99h-17v32h16q20 0 28.5 10.5t8.5 38.5v18h-53v65h101zM200 538v-68h-101v68h101z" />
    <glyph glyph-name="less" unicode="&#x3c;" 
d="M74 350l304 273h79l-273 -245h1586v-57h-1586l273 -245h-79z" />
    <glyph glyph-name="equal" unicode="=" 
d="M102 194v57h1639v-57h-1639zM102 448v57h1639v-57h-1639z" />
    <glyph glyph-name="greater" unicode="&#x3e;" 
d="M1769 350l-304 -274h-79l273 245h-1586v57h1586l-273 245h79z" />
    <glyph glyph-name="question" unicode="?" horiz-adv-x="1784" 
d="M1678 480v61q0 54 -23 77t-74 23h-1553v59h1567q77 0 113 -36t36 -113v-81q0 -77 -36 -113t-113 -36h-697q-44 0 -62 -18t-18 -63v-68h-66v80q0 127 127 127h702q51 0 74 23.5t23 77.5zM837 65v-65h-103v65h103z" />
    <glyph glyph-name="at" unicode="@" horiz-adv-x="1913" 
d="M235 0q-83 0 -122 39.5t-39 120.5v380q0 81 39 120.5t122 39.5h1443q83 0 122 -39.5t39 -120.5v-380q0 -81 -39 -120.5t-122 -39.5h-1443zM237 42h1439q60 0 88 29t28 88v382q0 59 -28 88t-88 29h-1439q-116 0 -116 -117v-382q0 -117 116 -117zM1584 189h-1260
q-40 0 -58.5 19t-18.5 60v22q0 80 77 80h1300v56q0 43 -43 43h-1320v41h1317q48 0 70 -22.5t22 -70.5v-141q0 -45 -20.5 -66t-65.5 -21zM330 329q-21 0 -29 -8t-8 -28v-28q0 -20 8 -27.5t29 -7.5h1256q38 0 38 38v61h-1294z" />
    <glyph glyph-name="A" unicode="A" horiz-adv-x="1878" 
d="M1794 0h-66v321h-1578v-321h-66v548q0 152 152 152h1406q152 0 152 -152v-548zM1626 641h-1374q-56 0 -79 -23.5t-23 -81.5v-157h1578v157q0 58 -23 81.5t-79 23.5z" />
    <glyph glyph-name="B" unicode="B" horiz-adv-x="1872" 
d="M1804 211v-63q0 -76 -35.5 -112t-112.5 -36h-1562v700h1562q77 0 112.5 -36t35.5 -112v-63q0 -67 -25.5 -99.5t-88.5 -39.5q62 -7 88 -40t26 -99zM1639 379q56 0 77.5 23t21.5 80v59q0 54 -22.5 77t-74.5 23h-1481v-262h1479zM160 321v-262h1481q52 0 74.5 23t22.5 77v59
q0 57 -21.5 80t-77.5 23h-1479z" />
    <glyph glyph-name="C" unicode="C" horiz-adv-x="1774" 
d="M226 0q-78 0 -115 37.5t-37 114.5v396q0 77 37 114.5t115 37.5h1494v-59h-1478q-56 0 -79 -23.5t-23 -81.5v-372q0 -58 23 -81.5t79 -23.5h1478v-59h-1494z" />
    <glyph glyph-name="D" unicode="D" horiz-adv-x="1872" 
d="M1593 700q104 0 157.5 -53.5t53.5 -157.5v-278q0 -104 -53.5 -157.5t-157.5 -53.5h-1499v700h1499zM1582 59q78 0 117 38t39 119v268q0 81 -39 119t-117 38h-1422v-582h1422z" />
    <glyph glyph-name="E" unicode="E" horiz-adv-x="1835" 
d="M94 0v700h1687v-59h-1621v-262h1515v-58h-1515v-262h1621v-59h-1687z" />
    <glyph glyph-name="F" unicode="F" horiz-adv-x="1799" 
d="M94 0v700h1679v-59h-1613v-262h1507v-58h-1507v-321h-66z" />
    <glyph glyph-name="G" unicode="G" horiz-adv-x="1857" 
d="M1630 59q55 0 74.5 19t19.5 75v168h-919v58h985v-238q0 -75 -32.5 -108t-108.5 -33h-1423q-78 0 -115 37.5t-37 114.5v396q0 77 37 114.5t115 37.5h1539v-59h-1523q-56 0 -79 -23.5t-23 -81.5v-372q0 -58 23 -81.5t79 -23.5h1388z" />
    <glyph glyph-name="H" unicode="H" horiz-adv-x="1912" 
d="M1752 0v321h-1592v-321h-66v700h66v-321h1592v321h66v-700h-66z" />
    <glyph glyph-name="I" unicode="I" horiz-adv-x="253" 
d="M94 0v700h66v-700h-66z" />
    <glyph glyph-name="J" unicode="J" horiz-adv-x="1845" 
d="M55 141v201h66v-189q0 -56 18.5 -75t73.5 -19h1380q56 0 79 23.5t23 81.5v536h66v-548q0 -77 -37.5 -114.5t-115.5 -37.5h-1412q-76 0 -108.5 33t-32.5 108z" />
    <glyph glyph-name="K" unicode="K" horiz-adv-x="1880" 
d="M1804 700v-204q0 -69 -26.5 -104t-91.5 -42q65 -7 91.5 -42t26.5 -104v-204h-66v213q0 58 -22.5 83t-77.5 25h-1478v-321h-66v700h66v-321h1478q55 0 77.5 25t22.5 83v213h66z" />
    <glyph glyph-name="L" unicode="L" horiz-adv-x="1789" 
d="M1763 59v-59h-1669v700h66v-641h1603z" />
    <glyph glyph-name="M" unicode="M" horiz-adv-x="2303" 
d="M1304 700h763q152 0 152 -152v-548h-66v536q0 58 -23 81.5t-79 23.5h-760q-59 0 -82.5 -24.5t-23.5 -85.5v-531h-67v531q0 61 -23.5 85.5t-82.5 24.5h-760q-56 0 -79 -23.5t-23 -81.5v-536h-66v548q0 152 152 152h763q73 0 108.5 -28t43.5 -91q8 63 44 91t109 28z" />
    <glyph glyph-name="N" unicode="N" horiz-adv-x="1878" 
d="M252 641q-56 0 -79 -23.5t-23 -81.5v-536h-66v548q0 152 152 152h1406q152 0 152 -152v-548h-66v536q0 58 -22.5 81.5t-78.5 23.5h-1375z" />
    <glyph glyph-name="O" unicode="O" horiz-adv-x="1863" 
d="M226 0q-152 0 -152 152v396q0 152 152 152h1411q78 0 115.5 -37.5t37.5 -114.5v-396q0 -77 -37.5 -114.5t-115.5 -37.5h-1411zM1723 164v372q0 58 -22.5 81.5t-78.5 23.5h-1380q-55 0 -78.5 -24t-23.5 -81v-372q0 -58 23 -81.5t79 -23.5h1380q56 0 78.5 23.5t22.5 81.5z
" />
    <glyph glyph-name="P" unicode="P" horiz-adv-x="1839" 
d="M94 0v700h1556q77 0 113 -36t36 -113v-81q0 -77 -36 -113t-113 -36h-1490v-321h-66zM1733 541q0 54 -23 77t-74 23h-1476v-262h1476q51 0 74 23.5t23 77.5v61z" />
    <glyph glyph-name="Q" unicode="Q" horiz-adv-x="1863" 
d="M226 0q-152 0 -152 152v396q0 152 152 152h1411q78 0 115.5 -37.5t37.5 -114.5v-396q0 -77 -37.5 -114.5t-115.5 -37.5h-676v-135h-59v135h-676zM1723 164v372q0 58 -22.5 81.5t-78.5 23.5h-1380q-55 0 -78.5 -24t-23.5 -81v-372q0 -58 23 -81.5t79 -23.5h660v204h59
v-204h661q56 0 78.5 23.5t22.5 81.5z" />
    <glyph glyph-name="R" unicode="R" horiz-adv-x="1879" 
d="M1804 552v-63q0 -67 -26 -100t-90 -40q64 -7 90 -42t26 -103v-204h-66v213q0 58 -22.5 83t-77.5 25h-1478v-321h-66v700h1562q77 0 112.5 -36t35.5 -112zM1639 379q56 0 77.5 23t21.5 80v59q0 54 -22.5 77t-74.5 23h-1481v-262h1479z" />
    <glyph glyph-name="S" unicode="S" horiz-adv-x="1811" 
d="M218 321q-77 0 -113 36t-36 113v81q0 77 36 113t113 36h1508v-59h-1494q-52 0 -74.5 -23t-22.5 -77v-61q0 -54 22.5 -77.5t74.5 -23.5h1372q77 0 113 -36t36 -113v-81q0 -77 -36 -113t-113 -36h-1547v59h1534q51 0 73.5 23t22.5 77v61q0 54 -22.5 77.5t-73.5 23.5h-1373z
" />
    <glyph glyph-name="T" unicode="T" horiz-adv-x="1768" 
d="M1742 700v-59h-825v-641h-66v641h-825v59h1716z" />
    <glyph glyph-name="U" unicode="U" horiz-adv-x="1878" 
d="M236 0q-152 0 -152 152v548h66v-536q0 -58 23 -81.5t79 -23.5h1375q56 0 78.5 23.5t22.5 81.5v536h66v-548q0 -152 -152 -152h-1406z" />
    <glyph glyph-name="V" unicode="V" horiz-adv-x="1871" 
d="M94 0v700h66v-641h1409q78 0 117 38t39 119v484h66v-489q0 -103 -53.5 -157t-157.5 -54h-1486z" />
    <glyph glyph-name="W" unicode="W" horiz-adv-x="2303" 
d="M2067 0h-763q-73 0 -109 28t-44 91q-8 -63 -43.5 -91t-108.5 -28h-763q-152 0 -152 152v548h66v-536q0 -58 23 -81.5t79 -23.5h760q59 0 82.5 24.5t23.5 85.5v531h67v-531q0 -61 23.5 -85.5t82.5 -24.5h760q56 0 79 23.5t23 81.5v536h66v-548q0 -152 -152 -152z" />
    <glyph glyph-name="X" unicode="X" horiz-adv-x="1868" 
d="M76 496v204h66v-213q0 -58 22.5 -83t77.5 -25h1384q55 0 77.5 25t22.5 83v213h66v-204q0 -69 -26.5 -104t-91.5 -42q65 -7 91.5 -42t26.5 -104v-204h-66v213q0 58 -22.5 83t-77.5 25h-1384q-55 0 -77.5 -25t-22.5 -83v-213h-66v204q0 69 26.5 104t91.5 42q-65 7 -91.5 42
t-26.5 104z" />
    <glyph glyph-name="Y" unicode="Y" horiz-adv-x="1835" 
d="M1715 700h66v-227q0 -77 -37.5 -114.5t-115.5 -37.5h-677v-321h-66v321h-678q-78 0 -115 37.5t-37 114.5v227h66v-216q0 -57 23 -81t79 -24h1390q56 0 79 23.5t23 81.5v216z" />
    <glyph glyph-name="Z" unicode="Z" horiz-adv-x="1821" 
d="M1562 379q74 0 103.5 29t29.5 105v128h-1612v59h1679v-196q0 -183 -184 -183h-1322q-74 0 -104 -29t-30 -105v-128h1640v-59h-1706v196q0 183 184 183h1322z" />
    <glyph glyph-name="bracketleft" unicode="[" horiz-adv-x="375" 
d="M94 700h229v-54h-169v-672h169v-54h-229v780z" />
    <glyph glyph-name="backslash" unicode="\" horiz-adv-x="657" 
d="M107 700l516 -700h-73l-516 700h73z" />
    <glyph glyph-name="bracketright" unicode="]" horiz-adv-x="375" 
d="M52 700h229v-780h-229v54h169v672h-169v54z" />
    <glyph glyph-name="asciicircum" unicode="^" 
d="M922 715l847 -350v-62l-847 350l-848 -350v62z" />
    <glyph glyph-name="underscore" unicode="_" horiz-adv-x="959" 
d="M959 -57v-49h-959v49h959z" />
    <glyph glyph-name="grave" unicode="`" horiz-adv-x="471" 
d="M290 660l-216 107h104l187 -107h-75z" />
    <glyph glyph-name="a" unicode="a" horiz-adv-x="1654" 
d="M1521 330v115q0 55 -22.5 78t-78.5 23h-1337v57h1353q77 0 113 -36.5t36 -113.5v-303q0 -77 -36 -113.5t-113 -36.5h-1251q-68 0 -100 32.5t-32 102.5v59q0 70 32 103t100 33h1336zM1521 273h-1322q-44 0 -62.5 -19t-18.5 -63v-52q0 -44 18.5 -63t62.5 -19h1221
q56 0 78.5 22.5t22.5 78.5v115z" />
    <glyph glyph-name="b" unicode="b" horiz-adv-x="1661" 
d="M78 150v620h65v-238q22 71 124 71h1176q77 0 113.5 -36.5t36.5 -113.5v-303q0 -77 -36.5 -113.5t-113.5 -36.5h-1215q-77 0 -113.5 36.5t-36.5 113.5zM143 445v-287q0 -55 22.5 -78t77.5 -23h1185q55 0 77.5 23t22.5 78v287q0 55 -22.5 78t-77.5 23h-1185
q-55 0 -77.5 -23t-22.5 -78z" />
    <glyph glyph-name="c" unicode="c" horiz-adv-x="1589" 
d="M218 0q-77 0 -113 36.5t-36 113.5v303q0 77 36 113.5t113 36.5h1316v-57h-1300q-56 0 -78.5 -23t-22.5 -78v-287q0 -56 22.5 -78.5t78.5 -22.5h1300v-57h-1316z" />
    <glyph glyph-name="d" unicode="d" horiz-adv-x="1661" 
d="M1583 770v-620q0 -77 -36.5 -113.5t-113.5 -36.5h-1215q-77 0 -113 36.5t-36 113.5v303q0 77 36 113.5t113 36.5h1176q102 0 124 -71v238h65zM1518 158v287q0 55 -22.5 78t-77.5 23h-1184q-56 0 -78.5 -23t-22.5 -78v-287q0 -56 22.5 -78.5t78.5 -22.5h1184q55 0 77.5 23
t22.5 78z" />
    <glyph glyph-name="e" unicode="e" horiz-adv-x="1654" 
d="M1601 408q0 -70 -32 -102.5t-100 -32.5h-1336v-115q0 -55 24 -78t77 -23h1337v-57h-1353q-83 0 -116 41t-33 127v285q0 76 36 113t113 37h1251q69 0 100.5 -32.5t31.5 -102.5v-60zM1455 546h-1221q-61 0 -81 -27t-20 -98v-91h1322q43 0 62 18t19 63v48q0 48 -17.5 67.5
t-63.5 19.5z" />
    <glyph glyph-name="f" unicode="f" horiz-adv-x="1566" 
d="M262 546q-62 0 -90.5 -28t-28.5 -92v-96h1328v-57h-1328v-273h-65v430q0 89 42 131t131 42h1285v-57h-1274z" />
    <glyph glyph-name="g" unicode="g" horiz-adv-x="1661" 
d="M1418 81q55 0 77.5 22.5t22.5 77.5v264q0 55 -22.5 78t-77.5 23h-1184q-56 0 -78.5 -23t-22.5 -78v-264q0 -55 23 -77.5t78 -22.5h1184zM1394 24h-1176q-77 0 -113 36t-36 113v280q0 77 36 113.5t113 36.5h1215q77 0 113.5 -36.5t36.5 -113.5v-432q0 -97 -45.5 -142.5
t-142.5 -45.5h-1286v57h1278q68 0 99.5 30.5t31.5 100.5v73q-23 -70 -124 -70z" />
    <glyph glyph-name="h" unicode="h" horiz-adv-x="1676" 
d="M1533 445q0 55 -22.5 78t-77.5 23h-1180q-55 0 -77.5 -23t-22.5 -78v-445h-65v770h65v-238q22 71 124 71h1172q77 0 113 -36.5t36 -113.5v-453h-65v445z" />
    <glyph glyph-name="i" unicode="i" horiz-adv-x="357" 
d="M237 57h93v-57h-108q-75 0 -108 33.5t-33 108.5v461h64v-454q0 -53 19.5 -72.5t72.5 -19.5zM167 737v-54h-108v54h108z" />
    <glyph glyph-name="j" unicode="j" horiz-adv-x="259" 
d="M-41 -110h54q53 0 72.5 19t19.5 73v621h65v-628q0 -77 -32.5 -109.5t-109.5 -32.5h-69v57zM83 683v54h109v-54h-109z" />
    <glyph glyph-name="k" unicode="k" horiz-adv-x="1663" 
d="M1532 399v204h65v-178q0 -57 -21 -87.5t-71 -36.5q51 -7 71.5 -37t20.5 -87v-177h-65v203q0 37 -17 53.5t-54 16.5h-1308v-273h-65v770h65v-440h1308q37 0 54 16.5t17 52.5z" />
    <glyph glyph-name="l" unicode="l" horiz-adv-x="355" 
d="M235 57h92v-57h-107q-76 0 -109 33.5t-33 108.5v628h65v-621q0 -53 19.5 -72.5t72.5 -19.5z" />
    <glyph glyph-name="m" unicode="m" horiz-adv-x="2055" 
d="M1028 498q7 57 40.5 81t102.5 24h657q77 0 113 -36.5t36 -113.5v-453h-65v445q0 56 -22.5 78.5t-77.5 22.5h-660q-49 0 -70.5 -22t-21.5 -71v-453h-65v453q0 49 -21 71t-71 22h-660q-55 0 -77.5 -23t-22.5 -78v-445h-65v453q0 77 36 113.5t113 36.5h658q69 0 102 -24
t41 -81z" />
    <glyph glyph-name="n" unicode="n" horiz-adv-x="1665" 
d="M78 0v453q0 77 36 113.5t113 36.5h1211q77 0 113 -36.5t36 -113.5v-453h-65v445q0 55 -22.5 78t-77.5 23h-1179q-55 0 -77.5 -23t-22.5 -78v-445h-65z" />
    <glyph glyph-name="o" unicode="o" horiz-adv-x="1650" 
d="M1432 603q77 0 113.5 -36.5t36.5 -113.5v-303q0 -77 -36.5 -113.5t-113.5 -36.5h-1214q-77 0 -113 36.5t-36 113.5v303q0 77 36 113.5t113 36.5h1214zM1417 57q55 0 77.5 23t22.5 78v287q0 55 -22.5 78t-77.5 23h-1183q-56 0 -78.5 -23t-22.5 -78v-287q0 -56 22.5 -78.5
t78.5 -22.5h1183z" />
    <glyph glyph-name="p" unicode="p" horiz-adv-x="1661" 
d="M78 -167v620q0 77 36.5 113.5t113.5 36.5h1215q77 0 113.5 -36.5t36.5 -113.5v-303q0 -77 -36.5 -113.5t-113.5 -36.5h-1176q-102 0 -124 71v-238h-65zM143 445v-287q0 -55 22.5 -78t77.5 -23h1185q55 0 77.5 23t22.5 78v287q0 55 -22.5 78t-77.5 23h-1185
q-55 0 -77.5 -23t-22.5 -78z" />
    <glyph glyph-name="q" unicode="q" horiz-adv-x="1661" 
d="M1583 453v-620h-65v238q-22 -71 -124 -71h-1176q-77 0 -113 36.5t-36 113.5v303q0 77 36 113.5t113 36.5h1215q77 0 113.5 -36.5t36.5 -113.5zM1518 158v287q0 55 -22.5 78t-77.5 23h-1184q-55 0 -78 -23t-23 -78v-287q0 -55 23 -78t78 -23h1184q55 0 77.5 23t22.5 78z
" />
    <glyph glyph-name="r" unicode="r" horiz-adv-x="1473" 
d="M1443 603v-57h-1200q-55 0 -77.5 -23t-22.5 -78v-445h-65v453q0 77 36.5 113.5t113.5 36.5h1215z" />
    <glyph glyph-name="s" unicode="s" horiz-adv-x="1619" 
d="M1537 546h-1334q-44 0 -62.5 -19t-18.5 -63v-53q0 -44 18.5 -62.5t62.5 -18.5h1232q68 0 100 -33t32 -103v-59q0 -70 -32 -102.5t-101 -32.5h-1377v57h1363q44 0 63 19t19 63v52q0 44 -18.5 63t-63.5 19h-1231q-68 0 -100 32.5t-32 102.5v60q0 70 32 102.5t100 32.5h1348
v-57z" />
    <glyph glyph-name="t" unicode="t" horiz-adv-x="1511" 
d="M228 0q-77 0 -113.5 36.5t-36.5 113.5v620h65v-167h1313v-57h-1313v-388q0 -55 22.5 -78t77.5 -23h1213v-57h-1228z" />
    <glyph glyph-name="u" unicode="u" horiz-adv-x="1665" 
d="M1422 57q55 0 77.5 23t22.5 78v445h65v-453q0 -77 -36 -113.5t-113 -36.5h-1211q-77 0 -113 36.5t-36 113.5v453h65v-445q0 -55 22.5 -78t77.5 -23h1179z" />
    <glyph glyph-name="v" unicode="v" horiz-adv-x="1661" 
d="M1587 603v-412q0 -98 -46 -144.5t-144 -46.5h-1309v603h65v-546h1235q71 0 102.5 30.5t31.5 103.5v412h65z" />
    <glyph glyph-name="w" unicode="w" horiz-adv-x="2055" 
d="M1028 105q-8 -57 -41 -81t-102 -24h-658q-77 0 -113 36.5t-36 113.5v453h65v-445q0 -55 22.5 -78t77.5 -23h660q50 0 71 22t21 71v453h65v-453q0 -49 21.5 -71t70.5 -22h660q55 0 77.5 22.5t22.5 78.5v445h65v-453q0 -77 -36 -113.5t-113 -36.5h-657q-69 0 -102.5 24
t-40.5 81z" />
    <glyph glyph-name="x" unicode="x" horiz-adv-x="1666" 
d="M1535 399v204h65v-178q0 -57 -21 -87.5t-71 -36.5q51 -7 71.5 -37t20.5 -87v-177h-65v203q0 36 -16.5 53t-53.5 17h-1263q-37 0 -54 -16.5t-17 -53.5v-203h-64v177q0 57 20.5 87.5t70.5 36.5q-50 6 -70.5 36.5t-20.5 87.5v178h64v-204q0 -36 16.5 -52.5t54.5 -16.5h1263
q37 0 53.5 16.5t16.5 52.5z" />
    <glyph glyph-name="y" unicode="y" horiz-adv-x="1676" 
d="M1400 -167h-1281v57h1274q68 0 99 30.5t31 100.5v73q-23 -70 -124 -70h-1171q-77 0 -113.5 36t-36.5 113v430h65v-422q0 -55 22.5 -77.5t77.5 -22.5h1180q55 0 77.5 22.5t22.5 77.5v422h65v-582q0 -97 -45.5 -142.5t-142.5 -45.5z" />
    <glyph glyph-name="z" unicode="z" horiz-adv-x="1629" 
d="M235 273q-60 0 -87.5 -27.5t-27.5 -88.5v-100h1452v-57h-1517v156q0 174 174 174h1163q61 0 88 27t27 88v101h-1429v57h1494v-157q0 -173 -173 -173h-1164z" />
    <glyph glyph-name="braceleft" unicode="{" horiz-adv-x="358" 
d="M168 540v-121q0 -55 -17 -81.5t-61 -27.5q44 -1 61 -27.5t17 -81.5v-121q0 -58 23 -81t79 -23h41v-56h-56q-77 0 -113.5 37t-36.5 112v154q0 34 -10 46.5t-41 12.5h-21v56h21q31 0 41 12.5t10 46.5v154q0 75 36.5 112t113.5 37h56v-56h-41q-56 0 -79 -23t-23 -81z" />
    <glyph glyph-name="bar" unicode="|" horiz-adv-x="285" 
d="M111 -167v907h63v-907h-63z" />
    <glyph glyph-name="braceright" unicode="}" horiz-adv-x="358" 
d="M190 419v121q0 58 -23 81t-79 23h-41v56h56q77 0 113.5 -37t36.5 -112v-154q0 -34 10 -46.5t41 -12.5h21v-56h-21q-31 0 -41 -12.5t-10 -46.5v-154q0 -75 -36.5 -112t-113.5 -37h-56v56h41q56 0 79 23t23 81v121q0 55 17 81.5t61 27.5q-44 1 -61 27.5t-17 81.5z" />
    <glyph glyph-name="asciitilde" unicode="~" 
d="M74 294v64q147 74 365 74q153 0 480 -51.5t479 -51.5q223 0 372 78v-64q-148 -74 -366 -74q-154 0 -480.5 51.5t-478.5 51.5q-223 0 -371 -78z" />
    <glyph glyph-name="uni00A0" unicode="&#xa0;" horiz-adv-x="490" 
 />
    <glyph glyph-name="exclamdown" unicode="&#xa1;" horiz-adv-x="305" 
d="M101 565v65h103v-65h-103zM119 -70v233q0 134 12 293h43q11 -171 11 -293v-233h-66z" />
    <glyph glyph-name="cent" unicode="&#xa2;" 
d="M934 -40v90h-711q-77 0 -113 36.5t-36 113.5v300q0 77 36 113.5t113 36.5h711v90h59v-90h791v-57h-791v-486h791v-57h-791v-90h-59zM239 107h695v486h-695q-55 0 -78 -22.5t-23 -78.5v-284q0 -56 23 -78.5t78 -22.5z" />
    <glyph glyph-name="sterling" unicode="&#xa3;" 
d="M274 59h1517v-59h-1739v59h156v262h-156v58h156v170q0 77 36.5 114t114.5 37h1362v-59h-1347q-55 0 -77.5 -22t-22.5 -77v-163h1447v-58h-1447v-262z" />
    <glyph glyph-name="currency" unicode="&#xa4;" 
d="M114 501q0 78 35.5 114t113.5 36h630v89h58v-89h629q78 0 113.5 -36t35.5 -114v-122h86v-58h-86v-123q0 -78 -35.5 -114t-113.5 -36h-629v-88h-58v88h-630q-78 0 -113.5 36t-35.5 114v123h-85v58h85v122zM1564 593h-1285q-54 0 -77 -22.5t-23 -77.5v-287q0 -54 22.5 -77
t77.5 -23h1285q55 0 77.5 23t22.5 77v287q0 54 -22.5 77t-77.5 23z" />
    <glyph glyph-name="yen" unicode="&#xa5;" 
d="M1717 700h66v-164q0 -77 -37 -114t-115 -37h-677v-159h807v-58h-807v-168h-66v168h-806v58h806v159h-677q-78 0 -115 37t-37 114v164h66v-152q0 -57 23 -81t80 -24h1387q56 0 79 23.5t23 81.5v152z" />
    <glyph glyph-name="brokenbar" unicode="&#xa6;" horiz-adv-x="285" 
d="M111 -167v394h63v-394h-63zM111 347v393h63v-393h-63z" />
    <glyph glyph-name="section" unicode="&#xa7;" horiz-adv-x="1812" 
d="M212 442h1406q70 0 102 -32t32 -104v-36q0 -52 -22 -80.5t-74 -35.5q52 -7 74 -35t22 -80v-31q0 -73 -33 -106.5t-105 -33.5h-1528v57h1515q47 0 67 20t20 67v31q0 45 -18.5 64t-64.5 19h-1406q-70 0 -102 32t-32 104v36q0 53 22 81t74 35q-52 7 -74 35t-22 80v31
q0 73 33 106.5t105 33.5h1529v-57h-1516q-47 0 -67 -20t-20 -67v-31q0 -45 18.5 -64t64.5 -19zM1600 385h-1387q-45 0 -64 -18.5t-19 -63.5v-34q0 -46 19.5 -66t67.5 -20h1387q46 0 64.5 18.5t18.5 63.5v34q0 47 -20 66.5t-67 19.5z" />
    <glyph glyph-name="dieresis" unicode="&#xa8;" horiz-adv-x="471" 
d="M127 737v-54h-102v54h102zM446 737v-54h-103v54h103z" />
    <glyph glyph-name="copyright" unicode="&#xa9;" horiz-adv-x="1913" 
d="M324 189q-46 0 -66.5 21t-20.5 66v147q0 45 20.5 66t66.5 21h1337v-41h-1340q-37 0 -37 -37v-165q0 -37 37 -37h1340v-41h-1337zM235 0q-83 0 -122 39.5t-39 120.5v380q0 81 39 120.5t122 39.5h1443q83 0 122 -39.5t39 -120.5v-380q0 -81 -39 -120.5t-122 -39.5h-1443z
M237 42h1439q60 0 88 29t28 88v382q0 59 -28 88t-88 29h-1439q-116 0 -116 -117v-382q0 -117 116 -117z" />
    <glyph glyph-name="ordfeminine" unicode="&#xaa;" horiz-adv-x="1344" 
d="M1222 460v122q0 35 -14.5 49.5t-47.5 14.5h-1088v54h1094q60 0 88.5 -28.5t28.5 -88.5v-300q0 -60 -28.5 -88.5t-88.5 -28.5h-1001q-60 0 -88 28.5t-28 88.5v60q0 60 28 88.5t88 28.5h1057zM110 342v-57q0 -36 14.5 -50.5t48.5 -14.5h987q33 0 47.5 14.5t14.5 49.5v122
h-1049q-34 0 -48.5 -14.5t-14.5 -49.5zM671 84l64 -84h-128z" />
    <glyph glyph-name="guillemotleft" unicode="&#xab;" horiz-adv-x="581" 
d="M326 51h-73l-220 249l220 249h73l-220 -249zM548 51h-73l-220 249l220 249h73l-220 -249z" />
    <glyph glyph-name="logicalnot" unicode="&#xac;" 
d="M73 321v57h1697v-302h-57v245h-1640z" />
    <glyph glyph-name="uni00AD" unicode="&#xad;" horiz-adv-x="729" 
d="M680 356v-58h-632v58h632z" />
    <glyph glyph-name="registered" unicode="&#xae;" horiz-adv-x="1913" 
d="M235 0q-83 0 -122 39.5t-39 120.5v380q0 81 39 120.5t122 39.5h1443q83 0 122 -39.5t39 -120.5v-380q0 -81 -39 -120.5t-122 -39.5h-1443zM237 42h1439q60 0 88 29t28 88v382q0 59 -28 88t-88 29h-1439q-116 0 -116 -117v-382q0 -117 116 -117zM1671 414q0 -30 -12.5 -46
t-43.5 -19q56 -5 56 -68v-92h-46v111q0 29 -28 29h-1304v-140h-46v321h1357q35 0 51 -16t16 -51v-29zM1625 445q0 24 -26 24h-1306v-99h1306q26 0 26 24v51z" />
    <glyph glyph-name="macron" unicode="&#xaf;" horiz-adv-x="471" 
d="M438 693h-406v39h406v-39z" />
    <glyph glyph-name="degree" unicode="&#xb0;" horiz-adv-x="847" 
d="M46 565q0 135 143 135h468q144 0 144 -135v-116q0 -135 -144 -135h-468q-143 0 -143 135v116zM202 646q-54 0 -74.5 -20.5t-20.5 -73.5v-90q0 -53 20.5 -73.5t74.5 -20.5h442q54 0 74.5 20.5t20.5 73.5v90q0 53 -20.5 73.5t-74.5 20.5h-442z" />
    <glyph glyph-name="plusminus" unicode="&#xb1;" 
d="M74 321v57h819v245h57v-245h820v-57h-820v-264h820v-57h-1696v57h819v264h-819z" />
    <glyph glyph-name="twosuperior" unicode="&#xb2;" horiz-adv-x="1082" 
d="M973 529v49q0 38 -15 53.5t-53 15.5h-831v53h843q60 0 88 -28.5t28 -88.5v-60q0 -60 -28 -88.5t-88 -28.5h-705q-56 0 -77 -20.5t-21 -76.5v-89h919v-54h-980v152q0 142 142 142h710q38 0 53 15t15 54z" />
    <glyph glyph-name="threesuperior" unicode="&#xb3;" horiz-adv-x="1082" 
d="M1029 584v-47q0 -47 -18 -72.5t-70 -31.5q52 -6 70 -31.5t18 -72.5v-47q0 -59 -28 -87.5t-87 -28.5h-868v54h855q38 0 53 15t15 53v50q0 37 -15.5 52.5t-50.5 15.5h-773v54h773q35 0 50.5 15.5t15.5 52.5v50q0 38 -15 53t-53 15h-855v54h868q59 0 87 -28.5t28 -87.5z" />
    <glyph glyph-name="acute" unicode="&#xb4;" horiz-adv-x="471" 
d="M400 767l-221 -107h-75l185 107h111z" />
    <glyph glyph-name="uni00B5" unicode="&#xb5;" horiz-adv-x="1676" 
d="M253 57h1180q55 0 77.5 23t22.5 78v445h65v-453q0 -77 -36 -113.5t-113 -36.5h-1172q-102 0 -124 71v-238h-65v770h65v-445q0 -55 22.5 -78t77.5 -23z" />
    <glyph glyph-name="paragraph" unicode="&#xb6;" horiz-adv-x="1637" 
d="M1543 700v-832h-63v775h-192v-775h-63v407h-1016q-87 0 -128 41.5t-41 127.5v87q0 86 41 127.5t128 41.5h1334z" />
    <glyph glyph-name="periodcentered" unicode="&#xb7;" horiz-adv-x="299" 
d="M200 384v-68h-101v68h101z" />
    <glyph glyph-name="cedilla" unicode="&#xb8;" horiz-adv-x="480" 
d="M225 -47h132q45 0 66 -10t21 -40q0 -36 -29.5 -52t-93.5 -16h-286v46h286q40 0 56.5 6.5t16.5 23.5q0 15 -10 20t-38 5h-147l23 64h18z" />
    <glyph glyph-name="onesuperior" unicode="&#xb9;" horiz-adv-x="1082" 
d="M126 166v54h474v426h-474v54h535v-480h356v-54h-891z" />
    <glyph glyph-name="ordmasculine" unicode="&#xba;" horiz-adv-x="1356" 
d="M61 283v300q0 60 28.5 88.5t88.5 28.5h1000q60 0 88.5 -28.5t28.5 -88.5v-300q0 -60 -28.5 -88.5t-88.5 -28.5h-1000q-60 0 -88.5 28.5t-28.5 88.5zM1172 220q34 0 48.5 14.5t14.5 49.5v298q0 35 -14.5 49.5t-48.5 14.5h-988q-33 0 -47.5 -14.5t-14.5 -49.5v-298
q0 -35 14.5 -49.5t47.5 -14.5h988zM683 84l64 -84h-128z" />
    <glyph glyph-name="guillemotright" unicode="&#xbb;" horiz-adv-x="581" 
d="M328 51h-73l220 249l-220 249h73l220 -249zM106 51h-73l220 249l-220 249h73l220 -249z" />
    <glyph glyph-name="onequarter" unicode="&#xbc;" horiz-adv-x="2471" 
d="M968 0l471 700h64l-471 -700h-64zM126 166v54h474v426h-474v54h535v-480h356v-54h-891zM2327 294v240h60v-534h-60v240h-772q-60 0 -88 28.5t-28 88.5v177h60v-173q0 -36 16 -51.5t50 -15.5h762z" />
    <glyph glyph-name="onehalf" unicode="&#xbd;" horiz-adv-x="2471" 
d="M968 0l471 700h64l-471 -700h-64zM126 166v54h474v426h-474v54h535v-480h356v-54h-891zM2362 363v49q0 38 -15 53.5t-53 15.5h-831v53h843q60 0 88 -28.5t28 -88.5v-60q0 -60 -28 -88.5t-88 -28.5h-705q-56 0 -77 -20.5t-21 -76.5v-89h919v-54h-980v152q0 142 142 142
h710q38 0 53 15t15 54z" />
    <glyph glyph-name="threequarters" unicode="&#xbe;" horiz-adv-x="2471" 
d="M968 0l471 700h64l-471 -700h-64zM2327 294v240h60v-534h-60v240h-772q-60 0 -88 28.5t-28 88.5v177h60v-173q0 -36 16 -51.5t50 -15.5h762zM1029 584v-47q0 -47 -18 -72.5t-70 -31.5q52 -6 70 -31.5t18 -72.5v-47q0 -59 -28 -87.5t-87 -28.5h-868v54h855q38 0 53 15
t15 53v50q0 37 -15.5 52.5t-50.5 15.5h-773v54h773q35 0 50.5 15.5t15.5 52.5v50q0 38 -15 53t-53 15h-855v54h868q59 0 87 -28.5t28 -87.5z" />
    <glyph glyph-name="questiondown" unicode="&#xbf;" horiz-adv-x="1781" 
d="M106 150v-61q0 -54 23 -77t74 -23h1553v-59h-1567q-77 0 -113 36t-36 113v81q0 77 36 113t113 36h697q44 0 62 18t18 63v68h66v-80q0 -127 -127 -127h-702q-51 0 -74 -23.5t-23 -77.5zM947 565v65h103v-65h-103z" />
    <glyph glyph-name="Agrave" unicode="&#xc0;" horiz-adv-x="1878" 
d="M1794 0h-66v321h-1578v-321h-66v548q0 152 152 152h1406q152 0 152 -152v-548zM1626 641h-1374q-56 0 -79 -23.5t-23 -81.5v-157h1578v157q0 58 -23 81.5t-79 23.5zM952 754l-216 107h104l187 -107h-75z" />
    <glyph glyph-name="Aacute" unicode="&#xc1;" horiz-adv-x="1878" 
d="M1794 0h-66v321h-1578v-321h-66v548q0 152 152 152h1406q152 0 152 -152v-548zM1626 641h-1374q-56 0 -79 -23.5t-23 -81.5v-157h1578v157q0 58 -23 81.5t-79 23.5zM1145 861l-221 -107h-75l185 107h111z" />
    <glyph glyph-name="Acircumflex" unicode="&#xc2;" horiz-adv-x="1878" 
d="M1794 0h-66v321h-1578v-321h-66v548q0 152 152 152h1406q152 0 152 -152v-548zM1626 641h-1374q-56 0 -79 -23.5t-23 -81.5v-157h1578v157q0 58 -23 81.5t-79 23.5zM938 828l-167 -74h-67l190 107h88l191 -107h-68z" />
    <glyph glyph-name="Atilde" unicode="&#xc3;" horiz-adv-x="1878" 
d="M1794 0h-66v321h-1578v-321h-66v548q0 152 152 152h1406q152 0 152 -152v-548zM1626 641h-1374q-56 0 -79 -23.5t-23 -81.5v-157h1578v157q0 58 -23 81.5t-79 23.5zM736 760v45q56 49 110 49q35 0 96 -27.5t94 -27.5q52 0 105 50v-46q-56 -49 -111 -49q-35 0 -96.5 27.5
t-94.5 27.5q-51 0 -103 -49z" />
    <glyph glyph-name="Adieresis" unicode="&#xc4;" horiz-adv-x="1878" 
d="M1794 0h-66v321h-1578v-321h-66v548q0 152 152 152h1406q152 0 152 -152v-548zM1626 641h-1374q-56 0 -79 -23.5t-23 -81.5v-157h1578v157q0 58 -23 81.5t-79 23.5zM830 831v-54h-102v54h102zM1149 831v-54h-103v54h103z" />
    <glyph glyph-name="Aring" unicode="&#xc5;" horiz-adv-x="1878" 
d="M1794 0h-66v321h-1578v-321h-66v548q0 152 152 152h1406q152 0 152 -152v-548zM1626 641h-1374q-56 0 -79 -23.5t-23 -81.5v-157h1578v157q0 58 -23 81.5t-79 23.5zM841 812q0 -30 39 -30h119q39 0 39 30q0 29 -39 29h-119q-39 0 -39 -29zM996 753h-113q-75 0 -75 59
q0 58 75 58h113q74 0 74 -58q0 -59 -74 -59z" />
    <glyph glyph-name="AE" unicode="&#xc6;" horiz-adv-x="2861" 
d="M1424 0v321h-1274v-321h-66v548q0 152 152 152h2571v-59h-1319v-262h1213v-58h-1213v-262h1319v-59h-1383zM252 641q-56 0 -79 -23.5t-23 -81.5v-157h1274v262h-1172z" />
    <glyph glyph-name="Ccedilla" unicode="&#xc7;" horiz-adv-x="1774" 
d="M922 0l-15 -47h132q45 0 66 -10t21 -40q0 -36 -29.5 -52t-93.5 -16h-286v46h286q40 0 56.5 6.5t16.5 23.5q0 15 -10 20t-38 5h-147l23 64h-678q-78 0 -115 37.5t-37 114.5v396q0 77 37 114.5t115 37.5h1494v-59h-1478q-56 0 -79 -23.5t-23 -81.5v-372q0 -58 23 -81.5
t79 -23.5h1478v-59h-798z" />
    <glyph glyph-name="Egrave" unicode="&#xc8;" horiz-adv-x="1835" 
d="M94 0v700h1687v-59h-1621v-262h1515v-58h-1515v-262h1621v-59h-1687zM957 754l-216 107h104l187 -107h-75z" />
    <glyph glyph-name="Eacute" unicode="&#xc9;" horiz-adv-x="1835" 
d="M94 0v700h1687v-59h-1621v-262h1515v-58h-1515v-262h1621v-59h-1687zM1149 861l-221 -107h-75l185 107h111z" />
    <glyph glyph-name="Ecircumflex" unicode="&#xca;" horiz-adv-x="1835" 
d="M94 0v700h1687v-59h-1621v-262h1515v-58h-1515v-262h1621v-59h-1687zM943 828l-167 -74h-67l190 107h88l191 -107h-68z" />
    <glyph glyph-name="Edieresis" unicode="&#xcb;" horiz-adv-x="1835" 
d="M94 0v700h1687v-59h-1621v-262h1515v-58h-1515v-262h1621v-59h-1687zM836 831v-54h-102v54h102zM1155 831v-54h-103v54h103z" />
    <glyph glyph-name="Igrave" unicode="&#xcc;" horiz-adv-x="253" 
d="M94 0v700h66v-700h-66zM142 754l-216 107h104l187 -107h-75z" />
    <glyph glyph-name="Iacute" unicode="&#xcd;" horiz-adv-x="253" 
d="M94 0v700h66v-700h-66zM331 861l-221 -107h-75l185 107h111z" />
    <glyph glyph-name="Icircumflex" unicode="&#xce;" horiz-adv-x="253" 
d="M94 0v700h66v-700h-66zM126 828l-167 -74h-67l190 107h88l191 -107h-68z" />
    <glyph glyph-name="Idieresis" unicode="&#xcf;" horiz-adv-x="253" 
d="M292 830v-53h-102v53h102zM64 830v-53h-102v53h102zM94 0v700h66v-700h-66z" />
    <glyph glyph-name="Eth" unicode="&#xd0;" horiz-adv-x="1873" 
d="M1593 700q104 0 157.5 -53.5t53.5 -157.5v-278q0 -104 -53.5 -157.5t-157.5 -53.5h-1499v321h-77v58h77v321h1499zM1582 59q78 0 117 38t39 119v268q0 81 -39 119t-117 38h-1422v-262h270v-58h-270v-262h1422z" />
    <glyph glyph-name="Ntilde" unicode="&#xd1;" horiz-adv-x="1878" 
d="M252 641q-56 0 -79 -23.5t-23 -81.5v-536h-66v548q0 152 152 152h1406q152 0 152 -152v-548h-66v536q0 58 -22.5 81.5t-78.5 23.5h-1375zM736 760v45q56 49 110 49q35 0 96 -27.5t94 -27.5q52 0 105 50v-46q-56 -49 -111 -49q-35 0 -96.5 27.5t-94.5 27.5q-51 0 -103 -49
z" />
    <glyph glyph-name="Ograve" unicode="&#xd2;" horiz-adv-x="1863" 
d="M226 0q-152 0 -152 152v396q0 152 152 152h1411q78 0 115.5 -37.5t37.5 -114.5v-396q0 -77 -37.5 -114.5t-115.5 -37.5h-1411zM1723 164v372q0 58 -22.5 81.5t-78.5 23.5h-1380q-55 0 -78.5 -24t-23.5 -81v-372q0 -58 23 -81.5t79 -23.5h1380q56 0 78.5 23.5t22.5 81.5z
M944 754l-216 107h104l187 -107h-75z" />
    <glyph glyph-name="Oacute" unicode="&#xd3;" horiz-adv-x="1863" 
d="M226 0q-152 0 -152 152v396q0 152 152 152h1411q78 0 115.5 -37.5t37.5 -114.5v-396q0 -77 -37.5 -114.5t-115.5 -37.5h-1411zM1723 164v372q0 58 -22.5 81.5t-78.5 23.5h-1380q-55 0 -78.5 -24t-23.5 -81v-372q0 -58 23 -81.5t79 -23.5h1380q56 0 78.5 23.5t22.5 81.5z
M1138 861l-221 -107h-75l185 107h111z" />
    <glyph glyph-name="Ocircumflex" unicode="&#xd4;" horiz-adv-x="1863" 
d="M226 0q-152 0 -152 152v396q0 152 152 152h1411q78 0 115.5 -37.5t37.5 -114.5v-396q0 -77 -37.5 -114.5t-115.5 -37.5h-1411zM1723 164v372q0 58 -22.5 81.5t-78.5 23.5h-1380q-55 0 -78.5 -24t-23.5 -81v-372q0 -58 23 -81.5t79 -23.5h1380q56 0 78.5 23.5t22.5 81.5z
M931 828l-167 -74h-67l190 107h88l191 -107h-68z" />
    <glyph glyph-name="Otilde" unicode="&#xd5;" horiz-adv-x="1863" 
d="M226 0q-152 0 -152 152v396q0 152 152 152h1411q78 0 115.5 -37.5t37.5 -114.5v-396q0 -77 -37.5 -114.5t-115.5 -37.5h-1411zM1723 164v372q0 58 -22.5 81.5t-78.5 23.5h-1380q-55 0 -78.5 -24t-23.5 -81v-372q0 -58 23 -81.5t79 -23.5h1380q56 0 78.5 23.5t22.5 81.5z
M729 760v45q56 49 110 49q35 0 96 -27.5t94 -27.5q52 0 105 50v-46q-56 -49 -111 -49q-35 0 -96.5 27.5t-94.5 27.5q-51 0 -103 -49z" />
    <glyph glyph-name="Odieresis" unicode="&#xd6;" horiz-adv-x="1863" 
d="M226 0q-152 0 -152 152v396q0 152 152 152h1411q78 0 115.5 -37.5t37.5 -114.5v-396q0 -77 -37.5 -114.5t-115.5 -37.5h-1411zM1723 164v372q0 58 -22.5 81.5t-78.5 23.5h-1380q-55 0 -78.5 -24t-23.5 -81v-372q0 -58 23 -81.5t79 -23.5h1380q56 0 78.5 23.5t22.5 81.5z
M823 831v-54h-102v54h102zM1142 831v-54h-103v54h103z" />
    <glyph glyph-name="multiply" unicode="&#xd7;" 
d="M991 321l223 -245h-72l-221 245l-222 -245h-70l222 245h-777v57h777l-222 245h70l222 -245l221 245h72l-223 -245h779v-57h-779z" />
    <glyph glyph-name="Oslash" unicode="&#xd8;" horiz-adv-x="1863" 
d="M226 0q-152 0 -152 152v396q0 152 152 152h1411q78 0 115.5 -37.5t37.5 -114.5v-396q0 -77 -37.5 -114.5t-115.5 -37.5h-1411zM206 61l1320 580h-1284q-55 0 -78.5 -24t-23.5 -81v-372q0 -48 15 -72t51 -31zM1723 164v372q0 47 -15 71t-50 31l-1320 -579h1284
q56 0 78.5 23.5t22.5 81.5z" />
    <glyph glyph-name="Ugrave" unicode="&#xd9;" horiz-adv-x="1878" 
d="M236 0q-152 0 -152 152v548h66v-536q0 -58 23 -81.5t79 -23.5h1375q56 0 78.5 23.5t22.5 81.5v536h66v-548q0 -152 -152 -152h-1406zM952 754l-216 107h104l187 -107h-75z" />
    <glyph glyph-name="Uacute" unicode="&#xda;" horiz-adv-x="1878" 
d="M236 0q-152 0 -152 152v548h66v-536q0 -58 23 -81.5t79 -23.5h1375q56 0 78.5 23.5t22.5 81.5v536h66v-548q0 -152 -152 -152h-1406zM1141 861l-221 -107h-75l185 107h111z" />
    <glyph glyph-name="Ucircumflex" unicode="&#xdb;" horiz-adv-x="1878" 
d="M236 0q-152 0 -152 152v548h66v-536q0 -58 23 -81.5t79 -23.5h1375q56 0 78.5 23.5t22.5 81.5v536h66v-548q0 -152 -152 -152h-1406zM938 828l-167 -74h-67l190 107h88l191 -107h-68z" />
    <glyph glyph-name="Udieresis" unicode="&#xdc;" horiz-adv-x="1878" 
d="M236 0q-152 0 -152 152v548h66v-536q0 -58 23 -81.5t79 -23.5h1375q56 0 78.5 23.5t22.5 81.5v536h66v-548q0 -152 -152 -152h-1406zM830 831v-54h-102v54h102zM1149 831v-54h-103v54h103z" />
    <glyph glyph-name="Yacute" unicode="&#xdd;" horiz-adv-x="1835" 
d="M1715 700h66v-227q0 -77 -37.5 -114.5t-115.5 -37.5h-677v-321h-66v321h-678q-78 0 -115 37.5t-37 114.5v227h66v-216q0 -57 23 -81t79 -24h1390q56 0 79 23.5t23 81.5v216zM1121 861l-221 -107h-75l185 107h111z" />
    <glyph glyph-name="Thorn" unicode="&#xde;" horiz-adv-x="1839" 
d="M94 0v700h66v-97h1490q77 0 113 -36t36 -113v-81q0 -77 -36 -113t-113 -36h-1490v-224h-66zM1733 444q0 54 -23 77t-74 23h-1476v-262h1476q51 0 74 23.5t23 77.5v61z" />
    <glyph glyph-name="germandbls" unicode="&#xdf;" horiz-adv-x="1683" 
d="M1481 273h-1099v57h1099q46 0 63.5 17.5t17.5 62.5v49q0 47 -20 67t-67 20h-1212q-63 0 -91.5 -28t-28.5 -92v-426h-65v431q0 88 42 130t131 42h1239q72 0 104.5 -32.5t32.5 -105.5v-50q0 -54 -21.5 -81.5t-73.5 -32.5q52 -5 73.5 -32.5t21.5 -80.5v-50q0 -72 -32.5 -105
t-104.5 -33h-1108v57h1093q47 0 67 20t20 67v48q0 45 -17.5 63t-63.5 18z" />
    <glyph glyph-name="agrave" unicode="&#xe0;" horiz-adv-x="1654" 
d="M1521 330v115q0 55 -22.5 78t-78.5 23h-1337v57h1353q77 0 113 -36.5t36 -113.5v-303q0 -77 -36 -113.5t-113 -36.5h-1251q-68 0 -100 32.5t-32 102.5v59q0 70 32 103t100 33h1336zM1521 273h-1322q-44 0 -62.5 -19t-18.5 -63v-52q0 -44 18.5 -63t62.5 -19h1221
q56 0 78.5 22.5t22.5 78.5v115zM833 660l-216 107h104l187 -107h-75z" />
    <glyph glyph-name="aacute" unicode="&#xe1;" horiz-adv-x="1654" 
d="M1521 330v115q0 55 -22.5 78t-78.5 23h-1337v57h1353q77 0 113 -36.5t36 -113.5v-303q0 -77 -36 -113.5t-113 -36.5h-1251q-68 0 -100 32.5t-32 102.5v59q0 70 32 103t100 33h1336zM1521 273h-1322q-44 0 -62.5 -19t-18.5 -63v-52q0 -44 18.5 -63t62.5 -19h1221
q56 0 78.5 22.5t22.5 78.5v115zM1015 767l-221 -107h-75l185 107h111z" />
    <glyph glyph-name="acircumflex" unicode="&#xe2;" horiz-adv-x="1654" 
d="M1521 330v115q0 55 -22.5 78t-78.5 23h-1337v57h1353q77 0 113 -36.5t36 -113.5v-303q0 -77 -36 -113.5t-113 -36.5h-1251q-68 0 -100 32.5t-32 102.5v59q0 70 32 103t100 33h1336zM1521 273h-1322q-44 0 -62.5 -19t-18.5 -63v-52q0 -44 18.5 -63t62.5 -19h1221
q56 0 78.5 22.5t22.5 78.5v115zM819 734l-167 -74h-67l190 107h88l191 -107h-68z" />
    <glyph glyph-name="atilde" unicode="&#xe3;" horiz-adv-x="1654" 
d="M1521 330v115q0 55 -22.5 78t-78.5 23h-1337v57h1353q77 0 113 -36.5t36 -113.5v-303q0 -77 -36 -113.5t-113 -36.5h-1251q-68 0 -100 32.5t-32 102.5v59q0 70 32 103t100 33h1336zM1521 273h-1322q-44 0 -62.5 -19t-18.5 -63v-52q0 -44 18.5 -63t62.5 -19h1221
q56 0 78.5 22.5t22.5 78.5v115zM617 666v45q56 49 110 49q35 0 96 -27.5t94 -27.5q52 0 105 50v-46q-56 -49 -111 -49q-35 0 -96.5 27.5t-94.5 27.5q-51 0 -103 -49z" />
    <glyph glyph-name="adieresis" unicode="&#xe4;" horiz-adv-x="1654" 
d="M1521 330v115q0 55 -22.5 78t-78.5 23h-1337v57h1353q77 0 113 -36.5t36 -113.5v-303q0 -77 -36 -113.5t-113 -36.5h-1251q-68 0 -100 32.5t-32 102.5v59q0 70 32 103t100 33h1336zM1521 273h-1322q-44 0 -62.5 -19t-18.5 -63v-52q0 -44 18.5 -63t62.5 -19h1221
q56 0 78.5 22.5t22.5 78.5v115zM711 737v-54h-102v54h102zM1030 737v-54h-103v54h103z" />
    <glyph glyph-name="aring" unicode="&#xe5;" horiz-adv-x="1654" 
d="M1521 330v115q0 55 -22.5 78t-78.5 23h-1337v57h1353q77 0 113 -36.5t36 -113.5v-303q0 -77 -36 -113.5t-113 -36.5h-1251q-68 0 -100 32.5t-32 102.5v59q0 70 32 103t100 33h1336zM1521 273h-1322q-44 0 -62.5 -19t-18.5 -63v-52q0 -44 18.5 -63t62.5 -19h1221
q56 0 78.5 22.5t22.5 78.5v115zM721 718q0 -30 39 -30h119q39 0 39 30q0 29 -39 29h-119q-39 0 -39 -29zM876 659h-113q-75 0 -75 59q0 58 75 58h113q74 0 74 -58q0 -59 -74 -59z" />
    <glyph glyph-name="ae" unicode="&#xe6;" horiz-adv-x="2467" 
d="M2349 411v53q0 44 -18.5 63t-62.5 19h-910q-50 0 -71 -22t-21 -71v-123h1002q44 0 62.5 18.5t18.5 62.5zM118 191v-52q0 -44 18.5 -63t62.5 -19h910q49 0 70.5 22t21.5 71v123h-1002q-44 0 -62.5 -19t-18.5 -63zM1090 0h-905q-68 0 -100 32.5t-32 102.5v59q0 70 32 103
t100 33h1016v123q0 49 -21.5 71t-70.5 22h-1026v57h1007q69 0 102.5 -24t40.5 -81q8 57 41 81t102 24h906q68 0 100 -32.5t32 -102.5v-60q0 -70 -32 -102.5t-100 -32.5h-1016v-123q0 -49 21 -71t71 -22h1026v-57h-1008q-69 0 -102 24t-41 81q-7 -57 -40.5 -81t-102.5 -24z
" />
    <glyph glyph-name="ccedilla" unicode="&#xe7;" horiz-adv-x="1589" 
d="M825 0l-15 -47h132q45 0 66 -10t21 -40q0 -36 -29.5 -52t-93.5 -16h-286v46h286q40 0 56.5 6.5t16.5 23.5q0 15 -10 20t-38 5h-147l23 64h-589q-77 0 -113 36.5t-36 113.5v303q0 77 36 113.5t113 36.5h1316v-57h-1300q-56 0 -78.5 -23t-22.5 -78v-287q0 -56 22.5 -78.5
t78.5 -22.5h1300v-57h-709z" />
    <glyph glyph-name="egrave" unicode="&#xe8;" horiz-adv-x="1654" 
d="M1601 408q0 -70 -32 -102.5t-100 -32.5h-1336v-115q0 -55 24 -78t77 -23h1337v-57h-1353q-83 0 -116 41t-33 127v285q0 76 36 113t113 37h1251q69 0 100.5 -32.5t31.5 -102.5v-60zM1455 546h-1221q-61 0 -81 -27t-20 -98v-91h1322q43 0 62 18t19 63v48q0 48 -17.5 67.5
t-63.5 19.5zM861 660l-216 107h104l187 -107h-75z" />
    <glyph glyph-name="eacute" unicode="&#xe9;" horiz-adv-x="1654" 
d="M1601 408q0 -70 -32 -102.5t-100 -32.5h-1336v-115q0 -55 24 -78t77 -23h1337v-57h-1353q-83 0 -116 41t-33 127v285q0 76 36 113t113 37h1251q69 0 100.5 -32.5t31.5 -102.5v-60zM1455 546h-1221q-61 0 -81 -27t-20 -98v-91h1322q43 0 62 18t19 63v48q0 48 -17.5 67.5
t-63.5 19.5zM1055 767l-221 -107h-75l185 107h111z" />
    <glyph glyph-name="ecircumflex" unicode="&#xea;" horiz-adv-x="1654" 
d="M1601 408q0 -70 -32 -102.5t-100 -32.5h-1336v-115q0 -55 24 -78t77 -23h1337v-57h-1353q-83 0 -116 41t-33 127v285q0 76 36 113t113 37h1251q69 0 100.5 -32.5t31.5 -102.5v-60zM1455 546h-1221q-61 0 -81 -27t-20 -98v-91h1322q43 0 62 18t19 63v48q0 48 -17.5 67.5
t-63.5 19.5zM848 734l-167 -74h-67l190 107h88l191 -107h-68z" />
    <glyph glyph-name="edieresis" unicode="&#xeb;" horiz-adv-x="1654" 
d="M1601 408q0 -70 -32 -102.5t-100 -32.5h-1336v-115q0 -55 24 -78t77 -23h1337v-57h-1353q-83 0 -116 41t-33 127v285q0 76 36 113t113 37h1251q69 0 100.5 -32.5t31.5 -102.5v-60zM1455 546h-1221q-61 0 -81 -27t-20 -98v-91h1322q43 0 62 18t19 63v48q0 48 -17.5 67.5
t-63.5 19.5zM740 737v-54h-102v54h102zM1059 737v-54h-103v54h103z" />
    <glyph glyph-name="igrave" unicode="&#xec;" horiz-adv-x="357" 
d="M165 660l-216 107h104l187 -107h-75zM237 57h93v-57h-108q-75 0 -108 33.5t-33 108.5v461h64v-454q0 -53 19.5 -72.5t72.5 -19.5z" />
    <glyph glyph-name="iacute" unicode="&#xed;" horiz-adv-x="357" 
d="M322 767l-221 -107h-75l185 107h111zM237 57h93v-57h-108q-75 0 -108 33.5t-33 108.5v461h64v-454q0 -53 19.5 -72.5t72.5 -19.5z" />
    <glyph glyph-name="icircumflex" unicode="&#xee;" horiz-adv-x="357" 
d="M237 57h93v-57h-108q-75 0 -108 33.5t-33 108.5v461h64v-454q0 -53 19.5 -72.5t72.5 -19.5zM113 734l-167 -74h-67l190 107h88l191 -107h-68z" />
    <glyph glyph-name="idieresis" unicode="&#xef;" horiz-adv-x="357" 
d="M284 737v-54h-102v54h102zM45 737v-54h-103v54h103zM237 57h93v-57h-108q-75 0 -108 33.5t-33 108.5v461h64v-454q0 -53 19.5 -72.5t72.5 -19.5z" />
    <glyph glyph-name="eth" unicode="&#xf0;" horiz-adv-x="1661" 
d="M218 580h1176q53 0 82.5 -17t41.5 -54v73q0 70 -31.5 100.5t-99.5 30.5h-548v-81h-41v81h-689v57h689v50h41v-50h556q97 0 142.5 -45.5t45.5 -142.5v-432q0 -77 -36.5 -113.5t-113.5 -36.5h-1215q-77 0 -113 36.5t-36 113.5v280q0 77 36 113.5t113 36.5zM1418 522h-1184
q-55 0 -78 -22.5t-23 -77.5v-264q0 -56 22.5 -78.5t78.5 -22.5h1184q55 0 77.5 23t22.5 78v264q0 55 -22.5 77.5t-77.5 22.5z" />
    <glyph glyph-name="ntilde" unicode="&#xf1;" horiz-adv-x="1665" 
d="M78 0v453q0 77 36 113.5t113 36.5h1211q77 0 113 -36.5t36 -113.5v-453h-65v445q0 55 -22.5 78t-77.5 23h-1179q-55 0 -77.5 -23t-22.5 -78v-445h-65zM630 666v45q56 49 110 49q35 0 96 -27.5t94 -27.5q52 0 105 50v-46q-56 -49 -111 -49q-35 0 -96.5 27.5t-94.5 27.5
q-51 0 -103 -49z" />
    <glyph glyph-name="ograve" unicode="&#xf2;" horiz-adv-x="1650" 
d="M1432 603q77 0 113.5 -36.5t36.5 -113.5v-303q0 -77 -36.5 -113.5t-113.5 -36.5h-1214q-77 0 -113 36.5t-36 113.5v303q0 77 36 113.5t113 36.5h1214zM1417 57q55 0 77.5 23t22.5 78v287q0 55 -22.5 78t-77.5 23h-1183q-56 0 -78.5 -23t-22.5 -78v-287q0 -56 22.5 -78.5
t78.5 -22.5h1183zM838 660l-216 107h104l187 -107h-75z" />
    <glyph glyph-name="oacute" unicode="&#xf3;" horiz-adv-x="1650" 
d="M1432 603q77 0 113.5 -36.5t36.5 -113.5v-303q0 -77 -36.5 -113.5t-113.5 -36.5h-1214q-77 0 -113 36.5t-36 113.5v303q0 77 36 113.5t113 36.5h1214zM1417 57q55 0 77.5 23t22.5 78v287q0 55 -22.5 78t-77.5 23h-1183q-56 0 -78.5 -23t-22.5 -78v-287q0 -56 22.5 -78.5
t78.5 -22.5h1183zM1031 767l-221 -107h-75l185 107h111z" />
    <glyph glyph-name="ocircumflex" unicode="&#xf4;" horiz-adv-x="1650" 
d="M1432 603q77 0 113.5 -36.5t36.5 -113.5v-303q0 -77 -36.5 -113.5t-113.5 -36.5h-1214q-77 0 -113 36.5t-36 113.5v303q0 77 36 113.5t113 36.5h1214zM1417 57q55 0 77.5 23t22.5 78v287q0 55 -22.5 78t-77.5 23h-1183q-56 0 -78.5 -23t-22.5 -78v-287q0 -56 22.5 -78.5
t78.5 -22.5h1183zM825 734l-167 -74h-67l190 107h88l191 -107h-68z" />
    <glyph glyph-name="otilde" unicode="&#xf5;" horiz-adv-x="1650" 
d="M1432 603q77 0 113.5 -36.5t36.5 -113.5v-303q0 -77 -36.5 -113.5t-113.5 -36.5h-1214q-77 0 -113 36.5t-36 113.5v303q0 77 36 113.5t113 36.5h1214zM1417 57q55 0 77.5 23t22.5 78v287q0 55 -22.5 78t-77.5 23h-1183q-56 0 -78.5 -23t-22.5 -78v-287q0 -56 22.5 -78.5
t78.5 -22.5h1183zM623 666v45q56 49 110 49q35 0 96 -27.5t94 -27.5q52 0 105 50v-46q-56 -49 -111 -49q-35 0 -96.5 27.5t-94.5 27.5q-51 0 -103 -49z" />
    <glyph glyph-name="odieresis" unicode="&#xf6;" horiz-adv-x="1650" 
d="M1432 603q77 0 113.5 -36.5t36.5 -113.5v-303q0 -77 -36.5 -113.5t-113.5 -36.5h-1214q-77 0 -113 36.5t-36 113.5v303q0 77 36 113.5t113 36.5h1214zM1417 57q55 0 77.5 23t22.5 78v287q0 55 -22.5 78t-77.5 23h-1183q-56 0 -78.5 -23t-22.5 -78v-287q0 -56 22.5 -78.5
t78.5 -22.5h1183zM717 737v-54h-102v54h102zM1036 737v-54h-103v54h103z" />
    <glyph glyph-name="divide" unicode="&#xf7;" 
d="M971 142v-68h-98v68h98zM971 626v-68h-98v68h98zM1770 321h-1696v57h1696v-57z" />
    <glyph glyph-name="oslash" unicode="&#xf8;" horiz-adv-x="1650" 
d="M1432 603q77 0 113.5 -36.5t36.5 -113.5v-303q0 -77 -36.5 -113.5t-113.5 -36.5h-1214q-77 0 -113 36.5t-36 113.5v303q0 77 36 113.5t113 36.5h1214zM1417 57q55 0 77.5 23t22.5 78v287q0 46 -15.5 69t-51.5 29l-1126 -486h1093zM195 60l1124 486h-1085q-56 0 -78.5 -23
t-22.5 -78v-287q0 -45 14.5 -68t47.5 -30z" />
    <glyph glyph-name="ugrave" unicode="&#xf9;" horiz-adv-x="1665" 
d="M1422 57q55 0 77.5 23t22.5 78v445h65v-453q0 -77 -36 -113.5t-113 -36.5h-1211q-77 0 -113 36.5t-36 113.5v453h65v-445q0 -55 22.5 -78t77.5 -23h1179zM849 660l-216 107h104l187 -107h-75z" />
    <glyph glyph-name="uacute" unicode="&#xfa;" horiz-adv-x="1665" 
d="M1422 57q55 0 77.5 23t22.5 78v445h65v-453q0 -77 -36 -113.5t-113 -36.5h-1211q-77 0 -113 36.5t-36 113.5v453h65v-445q0 -55 22.5 -78t77.5 -23h1179zM1039 767l-221 -107h-75l185 107h111z" />
    <glyph glyph-name="ucircumflex" unicode="&#xfb;" horiz-adv-x="1665" 
d="M1422 57q55 0 77.5 23t22.5 78v445h65v-453q0 -77 -36 -113.5t-113 -36.5h-1211q-77 0 -113 36.5t-36 113.5v453h65v-445q0 -55 22.5 -78t77.5 -23h1179zM832 734l-167 -74h-67l190 107h88l191 -107h-68z" />
    <glyph glyph-name="udieresis" unicode="&#xfc;" horiz-adv-x="1665" 
d="M1422 57q55 0 77.5 23t22.5 78v445h65v-453q0 -77 -36 -113.5t-113 -36.5h-1211q-77 0 -113 36.5t-36 113.5v453h65v-445q0 -55 22.5 -78t77.5 -23h1179zM724 737v-54h-102v54h102zM1043 737v-54h-103v54h103z" />
    <glyph glyph-name="yacute" unicode="&#xfd;" horiz-adv-x="1676" 
d="M1400 -167h-1281v57h1274q68 0 99 30.5t31 100.5v73q-23 -70 -124 -70h-1171q-77 0 -113.5 36t-36.5 113v430h65v-422q0 -55 22.5 -77.5t77.5 -22.5h1180q55 0 77.5 22.5t22.5 77.5v422h65v-582q0 -97 -45.5 -142.5t-142.5 -45.5zM1044 767l-221 -107h-75l185 107h111z
" />
    <glyph glyph-name="thorn" unicode="&#xfe;" horiz-adv-x="1671" 
d="M153 770v-167h1300q77 0 113 -36.5t36 -113.5v-303q0 -77 -36 -113.5t-113 -36.5h-1176q-102 0 -124 71v-238h-65v937h65zM153 546v-388q0 -55 22.5 -78t77.5 -23h1184q55 0 78 22.5t23 78.5v287q0 55 -23 78t-78 23h-1284z" />
    <glyph glyph-name="ydieresis" unicode="&#xff;" horiz-adv-x="1676" 
d="M1400 -167h-1281v57h1274q68 0 99 30.5t31 100.5v73q-23 -70 -124 -70h-1171q-77 0 -113.5 36t-36.5 113v430h65v-422q0 -55 22.5 -77.5t77.5 -22.5h1180q55 0 77.5 22.5t22.5 77.5v422h65v-582q0 -97 -45.5 -142.5t-142.5 -45.5zM729 737v-54h-102v54h102zM1048 737v-54
h-103v54h103z" />
    <glyph glyph-name="Amacron" unicode="&#x100;" horiz-adv-x="1878" 
d="M1794 0h-66v321h-1578v-321h-66v548q0 152 152 152h1406q152 0 152 -152v-548zM1626 641h-1374q-56 0 -79 -23.5t-23 -81.5v-157h1578v157q0 58 -23 81.5t-79 23.5zM1141 787h-406v39h406v-39z" />
    <glyph glyph-name="amacron" unicode="&#x101;" horiz-adv-x="1654" 
d="M1521 330v115q0 55 -22.5 78t-78.5 23h-1337v57h1353q77 0 113 -36.5t36 -113.5v-303q0 -77 -36 -113.5t-113 -36.5h-1251q-68 0 -100 32.5t-32 102.5v59q0 70 32 103t100 33h1336zM1521 273h-1322q-44 0 -62.5 -19t-18.5 -63v-52q0 -44 18.5 -63t62.5 -19h1221
q56 0 78.5 22.5t22.5 78.5v115zM1022 693h-406v39h406v-39z" />
    <glyph glyph-name="Abreve" unicode="&#x102;" horiz-adv-x="1878" 
d="M1794 0h-66v321h-1578v-321h-66v548q0 152 152 152h1406q152 0 152 -152v-548zM1626 641h-1374q-56 0 -79 -23.5t-23 -81.5v-157h1578v157q0 58 -23 81.5t-79 23.5zM736 822v45q72 -69 202 -69q131 0 203 69v-45q-73 -70 -203 -70q-129 0 -202 70z" />
    <glyph glyph-name="abreve" unicode="&#x103;" horiz-adv-x="1654" 
d="M1521 330v115q0 55 -22.5 78t-78.5 23h-1337v57h1353q77 0 113 -36.5t36 -113.5v-303q0 -77 -36 -113.5t-113 -36.5h-1251q-68 0 -100 32.5t-32 102.5v59q0 70 32 103t100 33h1336zM1521 273h-1322q-44 0 -62.5 -19t-18.5 -63v-52q0 -44 18.5 -63t62.5 -19h1221
q56 0 78.5 22.5t22.5 78.5v115zM617 728v45q72 -69 202 -69q131 0 203 69v-45q-73 -70 -203 -70q-129 0 -202 70z" />
    <glyph glyph-name="Aogonek" unicode="&#x104;" horiz-adv-x="1878" 
d="M1762 0v-64h-22q-129 0 -196 -4t-88.5 -12t-21.5 -22q0 -17 45 -17h323v-46h-323q-84 0 -84 48q0 31 24 45.5t93 21t213 6.5h17v44h-14v321h-1578v-321h-66v548q0 152 152 152h1406q152 0 152 -152v-548h-32zM1626 641h-1374q-56 0 -79 -23.5t-23 -81.5v-157h1578v157
q0 58 -23 81.5t-79 23.5z" />
    <glyph glyph-name="aogonek" unicode="&#x105;" horiz-adv-x="1654" 
d="M1554 -64h-22q-129 0 -196 -4t-88.5 -12t-21.5 -22q0 -17 45 -17h323v-46h-323q-84 0 -84 48q0 31 24 45.5t93 21t213 6.5h17v67q-34 -23 -98 -23h-1251q-68 0 -100 32.5t-32 102.5v59q0 70 32 103t100 33h1336v115q0 55 -22.5 78t-78.5 23h-1337v57h1353q77 0 113 -36.5
t36 -113.5v-303q0 -72 -31 -109v-105zM1521 273h-1322q-44 0 -62.5 -19t-18.5 -63v-52q0 -44 18.5 -63t62.5 -19h1221q56 0 78.5 22.5t22.5 78.5v115z" />
    <glyph glyph-name="Cacute" unicode="&#x106;" horiz-adv-x="1774" 
d="M226 0q-78 0 -115 37.5t-37 114.5v396q0 77 37 114.5t115 37.5h1494v-59h-1478q-56 0 -79 -23.5t-23 -81.5v-372q0 -58 23 -81.5t79 -23.5h1478v-59h-1494zM1124 861l-221 -107h-75l185 107h111z" />
    <glyph glyph-name="cacute" unicode="&#x107;" horiz-adv-x="1589" 
d="M218 0q-77 0 -113 36.5t-36 113.5v303q0 77 36 113.5t113 36.5h1316v-57h-1300q-56 0 -78.5 -23t-22.5 -78v-287q0 -56 22.5 -78.5t78.5 -22.5h1300v-57h-1316zM1037 767l-221 -107h-75l185 107h111z" />
    <glyph glyph-name="Ccircumflex" unicode="&#x108;" horiz-adv-x="1774" 
d="M226 0q-78 0 -115 37.5t-37 114.5v396q0 77 37 114.5t115 37.5h1494v-59h-1478q-56 0 -79 -23.5t-23 -81.5v-372q0 -58 23 -81.5t79 -23.5h1478v-59h-1494zM925 828l-167 -74h-67l190 107h88l191 -107h-68z" />
    <glyph glyph-name="ccircumflex" unicode="&#x109;" horiz-adv-x="1589" 
d="M218 0q-77 0 -113 36.5t-36 113.5v303q0 77 36 113.5t113 36.5h1316v-57h-1300q-56 0 -78.5 -23t-22.5 -78v-287q0 -56 22.5 -78.5t78.5 -22.5h1300v-57h-1316zM831 734l-167 -74h-67l190 107h88l191 -107h-68z" />
    <glyph glyph-name="Cdotaccent" unicode="&#x10a;" horiz-adv-x="1774" 
d="M226 0q-78 0 -115 37.5t-37 114.5v396q0 77 37 114.5t115 37.5h1494v-59h-1478q-56 0 -79 -23.5t-23 -81.5v-372q0 -58 23 -81.5t79 -23.5h1478v-59h-1494zM976 831v-54h-102v54h102z" />
    <glyph glyph-name="cdotaccent" unicode="&#x10b;" horiz-adv-x="1589" 
d="M218 0q-77 0 -113 36.5t-36 113.5v303q0 77 36 113.5t113 36.5h1316v-57h-1300q-56 0 -78.5 -23t-22.5 -78v-287q0 -56 22.5 -78.5t78.5 -22.5h1300v-57h-1316zM882 737v-54h-102v54h102z" />
    <glyph glyph-name="Ccaron" unicode="&#x10c;" horiz-adv-x="1774" 
d="M226 0q-78 0 -115 37.5t-37 114.5v396q0 77 37 114.5t115 37.5h1494v-59h-1478q-56 0 -79 -23.5t-23 -81.5v-372q0 -58 23 -81.5t79 -23.5h1478v-59h-1494zM758 861l167 -75l167 75h68l-191 -107h-88l-190 107h67z" />
    <glyph glyph-name="ccaron" unicode="&#x10d;" horiz-adv-x="1589" 
d="M218 0q-77 0 -113 36.5t-36 113.5v303q0 77 36 113.5t113 36.5h1316v-57h-1300q-56 0 -78.5 -23t-22.5 -78v-287q0 -56 22.5 -78.5t78.5 -22.5h1300v-57h-1316zM664 767l167 -75l167 75h68l-191 -107h-88l-190 107h67z" />
    <glyph glyph-name="Dcaron" unicode="&#x10e;" horiz-adv-x="1873" 
d="M1593 700q104 0 157.5 -53.5t53.5 -157.5v-278q0 -104 -53.5 -157.5t-157.5 -53.5h-1499v700h1499zM1582 59q78 0 117 38t39 119v268q0 81 -39 119t-117 38h-1422v-582h1422zM758 861l167 -75l167 75h68l-191 -107h-88l-190 107h67z" />
    <glyph glyph-name="dcaron" unicode="&#x10f;" horiz-adv-x="1877" 
d="M1583 770v-620q0 -77 -36.5 -113.5t-113.5 -36.5h-1215q-77 0 -113 36.5t-36 113.5v303q0 77 36 113.5t113 36.5h1176q102 0 124 -71v238h65zM1518 158v287q0 55 -22.5 78t-77.5 23h-1184q-56 0 -78.5 -23t-22.5 -78v-287q0 -56 22.5 -78.5t78.5 -22.5h1184q55 0 77.5 23
t22.5 78zM1820 700v-65q0 -99 -84 -99h-17v32h16q20 0 28.5 10.5t8.5 38.5v18h-53v65h101z" />
    <glyph glyph-name="Dcroat" unicode="&#x110;" horiz-adv-x="1873" 
d="M1593 700q104 0 157.5 -53.5t53.5 -157.5v-278q0 -104 -53.5 -157.5t-157.5 -53.5h-1499v321h-77v58h77v321h1499zM1582 59q78 0 117 38t39 119v268q0 81 -39 119t-117 38h-1422v-262h270v-58h-270v-262h1422z" />
    <glyph glyph-name="dcroat" unicode="&#x111;" horiz-adv-x="1661" 
d="M1583 770v-72h78v-40h-78v-508q0 -77 -36.5 -113.5t-113.5 -36.5h-1215q-77 0 -113 36.5t-36 113.5v303q0 77 36 113.5t113 36.5h1176q102 0 124 -71v126h-263v40h263v72h65zM1518 158v287q0 55 -22.5 78t-77.5 23h-1184q-56 0 -78.5 -23t-22.5 -78v-287
q0 -56 22.5 -78.5t78.5 -22.5h1184q55 0 77.5 23t22.5 78z" />
    <glyph glyph-name="Emacron" unicode="&#x112;" horiz-adv-x="1835" 
d="M94 0v700h1687v-59h-1621v-262h1515v-58h-1515v-262h1621v-59h-1687zM1146 787h-406v39h406v-39z" />
    <glyph glyph-name="emacron" unicode="&#x113;" horiz-adv-x="1654" 
d="M1601 408q0 -70 -32 -102.5t-100 -32.5h-1336v-115q0 -55 24 -78t77 -23h1337v-57h-1353q-83 0 -116 41t-33 127v285q0 76 36 113t113 37h1251q69 0 100.5 -32.5t31.5 -102.5v-60zM1455 546h-1221q-61 0 -81 -27t-20 -98v-91h1322q43 0 62 18t19 63v48q0 48 -17.5 67.5
t-63.5 19.5zM1051 693h-406v39h406v-39z" />
    <glyph glyph-name="Ebreve" unicode="&#x114;" horiz-adv-x="1835" 
d="M94 0v700h1687v-59h-1621v-262h1515v-58h-1515v-262h1621v-59h-1687zM741 822v45q72 -69 202 -69q131 0 203 69v-45q-73 -70 -203 -70q-129 0 -202 70z" />
    <glyph glyph-name="ebreve" unicode="&#x115;" horiz-adv-x="1654" 
d="M1601 408q0 -70 -32 -102.5t-100 -32.5h-1336v-115q0 -55 24 -78t77 -23h1337v-57h-1353q-83 0 -116 41t-33 127v285q0 76 36 113t113 37h1251q69 0 100.5 -32.5t31.5 -102.5v-60zM1455 546h-1221q-61 0 -81 -27t-20 -98v-91h1322q43 0 62 18t19 63v48q0 48 -17.5 67.5
t-63.5 19.5zM646 728v45q72 -69 202 -69q131 0 203 69v-45q-73 -70 -203 -70q-129 0 -202 70z" />
    <glyph glyph-name="Edotaccent" unicode="&#x116;" horiz-adv-x="1835" 
d="M94 0v700h1687v-59h-1621v-262h1515v-58h-1515v-262h1621v-59h-1687zM994 831v-54h-102v54h102z" />
    <glyph glyph-name="edotaccent" unicode="&#x117;" horiz-adv-x="1654" 
d="M1601 408q0 -70 -32 -102.5t-100 -32.5h-1336v-115q0 -55 24 -78t77 -23h1337v-57h-1353q-83 0 -116 41t-33 127v285q0 76 36 113t113 37h1251q69 0 100.5 -32.5t31.5 -102.5v-60zM1455 546h-1221q-61 0 -81 -27t-20 -98v-91h1322q43 0 62 18t19 63v48q0 48 -17.5 67.5
t-63.5 19.5zM899 737v-54h-102v54h102z" />
    <glyph glyph-name="Eogonek" unicode="&#x118;" horiz-adv-x="1835" 
d="M1742 0v-64h-22q-129 0 -196 -4t-88.5 -12t-21.5 -22q0 -17 45 -17h323v-46h-323q-84 0 -84 48q0 31 24 45.5t93 21t213 6.5h17v44h-1628v700h1687v-59h-1621v-262h1515v-58h-1515v-262h1621v-59h-39z" />
    <glyph glyph-name="eogonek" unicode="&#x119;" horiz-adv-x="1654" 
d="M1455 546h-1221q-61 0 -81 -27t-20 -98v-91h1322q43 0 62 18t19 63v48q0 48 -17.5 67.5t-63.5 19.5zM1524 -44v44h-1306q-83 0 -116 41t-33 127v285q0 76 36 113t113 37h1251q69 0 100.5 -32.5t31.5 -102.5v-60q0 -70 -32 -102.5t-100 -32.5h-1336v-115q0 -55 24 -78
t77 -23h1337v-57h-27v-64h-35q-129 0 -196 -4t-88.5 -12t-21.5 -22q0 -17 45 -17h323v-46h-323q-84 0 -84 48q0 31 24 45.5t93 21t213 6.5h30z" />
    <glyph glyph-name="Ecaron" unicode="&#x11a;" horiz-adv-x="1835" 
d="M94 0v700h1687v-59h-1621v-262h1515v-58h-1515v-262h1621v-59h-1687zM776 861l167 -75l167 75h68l-191 -107h-88l-190 107h67z" />
    <glyph glyph-name="ecaron" unicode="&#x11b;" horiz-adv-x="1654" 
d="M1601 408q0 -70 -32 -102.5t-100 -32.5h-1336v-115q0 -55 24 -78t77 -23h1337v-57h-1353q-83 0 -116 41t-33 127v285q0 76 36 113t113 37h1251q69 0 100.5 -32.5t31.5 -102.5v-60zM1455 546h-1221q-61 0 -81 -27t-20 -98v-91h1322q43 0 62 18t19 63v48q0 48 -17.5 67.5
t-63.5 19.5zM681 767l167 -75l167 75h68l-191 -107h-88l-190 107h67z" />
    <glyph glyph-name="Gcircumflex" unicode="&#x11c;" horiz-adv-x="1857" 
d="M1630 59q55 0 74.5 19t19.5 75v168h-919v58h985v-238q0 -75 -32.5 -108t-108.5 -33h-1423q-78 0 -115 37.5t-37 114.5v396q0 77 37 114.5t115 37.5h1539v-59h-1523q-56 0 -79 -23.5t-23 -81.5v-372q0 -58 23 -81.5t79 -23.5h1388zM942 828l-167 -74h-67l190 107h88
l191 -107h-68z" />
    <glyph glyph-name="gcircumflex" unicode="&#x11d;" horiz-adv-x="1661" 
d="M1418 81q55 0 77.5 22.5t22.5 77.5v264q0 55 -22.5 78t-77.5 23h-1184q-56 0 -78.5 -23t-22.5 -78v-264q0 -55 23 -77.5t78 -22.5h1184zM1394 24h-1176q-77 0 -113 36t-36 113v280q0 77 36 113.5t113 36.5h1215q77 0 113.5 -36.5t36.5 -113.5v-432q0 -97 -45.5 -142.5
t-142.5 -45.5h-1286v57h1278q68 0 99.5 30.5t31.5 100.5v73q-23 -70 -124 -70zM830 734l-167 -74h-67l190 107h88l191 -107h-68z" />
    <glyph glyph-name="Gbreve" unicode="&#x11e;" horiz-adv-x="1857" 
d="M1630 59q55 0 74.5 19t19.5 75v168h-919v58h985v-238q0 -75 -32.5 -108t-108.5 -33h-1423q-78 0 -115 37.5t-37 114.5v396q0 77 37 114.5t115 37.5h1539v-59h-1523q-56 0 -79 -23.5t-23 -81.5v-372q0 -58 23 -81.5t79 -23.5h1388zM740 822v45q72 -69 202 -69
q131 0 203 69v-45q-73 -70 -203 -70q-129 0 -202 70z" />
    <glyph glyph-name="gbreve" unicode="&#x11f;" horiz-adv-x="1661" 
d="M1418 81q55 0 77.5 22.5t22.5 77.5v264q0 55 -22.5 78t-77.5 23h-1184q-56 0 -78.5 -23t-22.5 -78v-264q0 -55 23 -77.5t78 -22.5h1184zM1394 24h-1176q-77 0 -113 36t-36 113v280q0 77 36 113.5t113 36.5h1215q77 0 113.5 -36.5t36.5 -113.5v-432q0 -97 -45.5 -142.5
t-142.5 -45.5h-1286v57h1278q68 0 99.5 30.5t31.5 100.5v73q-23 -70 -124 -70zM628 728v45q72 -69 202 -69q131 0 203 69v-45q-73 -70 -203 -70q-129 0 -202 70z" />
    <glyph glyph-name="Gdotaccent" unicode="&#x120;" horiz-adv-x="1857" 
d="M1630 59q55 0 74.5 19t19.5 75v168h-919v58h985v-238q0 -75 -32.5 -108t-108.5 -33h-1423q-78 0 -115 37.5t-37 114.5v396q0 77 37 114.5t115 37.5h1539v-59h-1523q-56 0 -79 -23.5t-23 -81.5v-372q0 -58 23 -81.5t79 -23.5h1388zM993 831v-54h-102v54h102z" />
    <glyph glyph-name="gdotaccent" unicode="&#x121;" horiz-adv-x="1661" 
d="M1418 81q55 0 77.5 22.5t22.5 77.5v264q0 55 -22.5 78t-77.5 23h-1184q-56 0 -78.5 -23t-22.5 -78v-264q0 -55 23 -77.5t78 -22.5h1184zM1394 24h-1176q-77 0 -113 36t-36 113v280q0 77 36 113.5t113 36.5h1215q77 0 113.5 -36.5t36.5 -113.5v-432q0 -97 -45.5 -142.5
t-142.5 -45.5h-1286v57h1278q68 0 99.5 30.5t31.5 100.5v73q-23 -70 -124 -70zM881 737v-54h-102v54h102z" />
    <glyph glyph-name="uni0122" unicode="&#x122;" horiz-adv-x="1857" 
d="M1630 59q55 0 74.5 19t19.5 75v168h-919v58h985v-238q0 -75 -32.5 -108t-108.5 -33h-1423q-78 0 -115 37.5t-37 114.5v396q0 77 37 114.5t115 37.5h1539v-59h-1523q-56 0 -79 -23.5t-23 -81.5v-372q0 -58 23 -81.5t79 -23.5h1388zM991 -86v-46q0 -80 -70 -80h-25v25h24
q31 0 31 38v13h-58v50h98z" />
    <glyph glyph-name="uni0123" unicode="&#x123;" horiz-adv-x="1661" 
d="M781 683v46q0 80 70 80h25v-25h-24q-31 0 -31 -38v-13h58v-50h-98zM1418 81q55 0 77.5 22.5t22.5 77.5v264q0 55 -22.5 78t-77.5 23h-1184q-56 0 -78.5 -23t-22.5 -78v-264q0 -55 23 -77.5t78 -22.5h1184zM1394 24h-1176q-77 0 -113 36t-36 113v280q0 77 36 113.5
t113 36.5h1215q77 0 113.5 -36.5t36.5 -113.5v-432q0 -97 -45.5 -142.5t-142.5 -45.5h-1286v57h1278q68 0 99.5 30.5t31.5 100.5v73q-23 -70 -124 -70z" />
    <glyph glyph-name="Hcircumflex" unicode="&#x124;" horiz-adv-x="1912" 
d="M1752 0v321h-1592v-321h-66v700h66v-321h1592v321h66v-700h-66zM955 828l-167 -74h-67l190 107h88l191 -107h-68z" />
    <glyph glyph-name="hcircumflex" unicode="&#x125;" horiz-adv-x="1676" 
d="M1533 445q0 55 -22.5 78t-77.5 23h-1180q-55 0 -77.5 -23t-22.5 -78v-445h-65v770h65v-238q22 71 124 71h1172q77 0 113 -36.5t36 -113.5v-453h-65v445zM854 734l-167 -74h-67l190 107h88l191 -107h-68z" />
    <glyph glyph-name="Hbar" unicode="&#x126;" horiz-adv-x="1912" 
d="M1752 0v321h-1592v-321h-66v506h-44v49h44v145h66v-145h1592v145h66v-145h44v-49h-44v-506h-66zM160 379h1592v127h-1592v-127z" />
    <glyph glyph-name="hbar" unicode="&#x127;" horiz-adv-x="1676" 
d="M1533 445q0 55 -22.5 78t-77.5 23h-1180q-55 0 -77.5 -23t-22.5 -78v-445h-65v658h-88v40h88v72h65v-72h253v-40h-253v-126q22 71 124 71h1172q77 0 113 -36.5t36 -113.5v-453h-65v445z" />
    <glyph glyph-name="Itilde" unicode="&#x128;" horiz-adv-x="253" 
d="M94 0v700h66v-700h-66zM-76 760v45q56 49 110 49q35 0 96 -27.5t94 -27.5q52 0 105 50v-46q-56 -49 -111 -49q-35 0 -96.5 27.5t-94.5 27.5q-51 0 -103 -49z" />
    <glyph glyph-name="itilde" unicode="&#x129;" horiz-adv-x="357" 
d="M-89 666v45q56 49 110 49q35 0 96 -27.5t94 -27.5q52 0 105 50v-46q-56 -49 -111 -49q-35 0 -96.5 27.5t-94.5 27.5q-51 0 -103 -49zM237 57h93v-57h-108q-75 0 -108 33.5t-33 108.5v461h64v-454q0 -53 19.5 -72.5t72.5 -19.5z" />
    <glyph glyph-name="Imacron" unicode="&#x12a;" horiz-adv-x="253" 
d="M288 788h-322v36h322v-36zM94 0v700h66v-700h-66z" />
    <glyph glyph-name="imacron" unicode="&#x12b;" horiz-adv-x="357" 
d="M274 694h-322v37h322v-37zM237 57h93v-57h-108q-75 0 -108 33.5t-33 108.5v461h64v-454q0 -53 19.5 -72.5t72.5 -19.5z" />
    <glyph glyph-name="Ibreve" unicode="&#x12c;" horiz-adv-x="253" 
d="M94 0v700h66v-700h-66zM-76 822v45q72 -69 202 -69q131 0 203 69v-45q-73 -70 -203 -70q-129 0 -202 70z" />
    <glyph glyph-name="ibreve" unicode="&#x12d;" horiz-adv-x="357" 
d="M-89 728v45q72 -69 202 -69q131 0 203 69v-45q-73 -70 -203 -70q-129 0 -202 70zM237 57h93v-57h-108q-75 0 -108 33.5t-33 108.5v461h64v-454q0 -53 19.5 -72.5t72.5 -19.5z" />
    <glyph glyph-name="Iogonek" unicode="&#x12e;" horiz-adv-x="253" 
d="M94 0v700h66v-700h-11v-64h-20q-95 0 -130.5 -8.5t-35.5 -29.5q0 -10 10 -13.5t36 -3.5h168v-46h-169q-84 0 -84 48q0 43 41 58t164 15v44h-35z" />
    <glyph glyph-name="iogonek" unicode="&#x12f;" horiz-adv-x="357" 
d="M302 -64h-20q-111 0 -150.5 -8t-39.5 -30q0 -10 10 -13.5t36 -3.5h192v-46h-193q-44 0 -64 11t-20 37q0 43 45.5 58t183.5 15v44h-60q-75 0 -108 33.5t-33 108.5v461h64v-454q0 -53 19.5 -72.5t72.5 -19.5h93v-57h-28v-64zM167 737v-54h-108v54h108z" />
    <glyph glyph-name="Idotaccent" unicode="&#x130;" horiz-adv-x="253" 
d="M94 0v700h66v-700h-66zM177 831v-54h-102v54h102z" />
    <glyph glyph-name="dotlessi" unicode="&#x131;" horiz-adv-x="357" 
d="M237 57h93v-57h-108q-75 0 -108 33.5t-33 108.5v461h64v-454q0 -53 19.5 -72.5t72.5 -19.5z" />
    <glyph glyph-name="IJ" unicode="&#x132;" horiz-adv-x="2098" 
d="M94 0v700h66v-700h-66zM308 141v201h66v-189q0 -56 18.5 -75t73.5 -19h1380q56 0 79 23.5t23 81.5v536h66v-548q0 -77 -37.5 -114.5t-115.5 -37.5h-1412q-76 0 -108.5 33t-32.5 108z" />
    <glyph glyph-name="Jcircumflex" unicode="&#x134;" horiz-adv-x="1845" 
d="M55 141v201h66v-189q0 -56 18.5 -75t73.5 -19h1380q56 0 79 23.5t23 81.5v536h66v-548q0 -77 -37.5 -114.5t-115.5 -37.5h-1412q-76 0 -108.5 33t-32.5 108zM1625 828l-167 -74h-67l190 107h88l191 -107h-68z" />
    <glyph glyph-name="jcircumflex" unicode="&#x135;" horiz-adv-x="259" 
d="M-41 -110h54q53 0 72.5 19t19.5 73v621h65v-628q0 -77 -32.5 -109.5t-109.5 -32.5h-69v57zM137 734l-167 -74h-67l190 107h88l191 -107h-68z" />
    <glyph glyph-name="uni0136" unicode="&#x136;" horiz-adv-x="1880" 
d="M1804 700v-204q0 -69 -26.5 -104t-91.5 -42q65 -7 91.5 -42t26.5 -104v-204h-66v213q0 58 -22.5 83t-77.5 25h-1478v-321h-66v700h66v-321h1478q55 0 77.5 25t22.5 83v213h66zM989 -86v-46q0 -80 -70 -80h-25v25h24q31 0 31 38v13h-58v50h98z" />
    <glyph glyph-name="uni0137" unicode="&#x137;" horiz-adv-x="1663" 
d="M1532 399v204h65v-178q0 -57 -21 -87.5t-71 -36.5q51 -7 71.5 -37t20.5 -87v-177h-65v203q0 37 -17 53.5t-54 16.5h-1308v-273h-65v770h65v-440h1308q37 0 54 16.5t17 52.5zM901 -86v-46q0 -80 -70 -80h-25v25h24q31 0 31 38v13h-58v50h98z" />
    <glyph glyph-name="kgreenlandic" unicode="&#x138;" horiz-adv-x="1663" 
d="M1532 399v204h65v-178q0 -57 -21 -87.5t-71 -36.5q51 -7 71.5 -37t20.5 -87v-177h-65v203q0 37 -17 53.5t-54 16.5h-1308v-273h-65v603h65v-273h1308q37 0 54 16.5t17 52.5z" />
    <glyph glyph-name="Lacute" unicode="&#x139;" horiz-adv-x="1789" 
d="M1763 59v-59h-1669v700h66v-641h1603zM379 861l-221 -107h-75l185 107h111z" />
    <glyph glyph-name="lacute" unicode="&#x13a;" horiz-adv-x="355" 
d="M235 57h92v-57h-107q-76 0 -109 33.5t-33 108.5v628h65v-621q0 -53 19.5 -72.5t72.5 -19.5zM319 934l-221 -107h-75l185 107h111z" />
    <glyph glyph-name="uni013B" unicode="&#x13b;" horiz-adv-x="1789" 
d="M1763 59v-59h-1669v700h66v-641h1603zM957 -86v-46q0 -80 -70 -80h-25v25h24q31 0 31 38v13h-58v50h98z" />
    <glyph glyph-name="uni013C" unicode="&#x13c;" horiz-adv-x="355" 
d="M235 57h92v-57h-107q-76 0 -109 33.5t-33 108.5v628h65v-621q0 -53 19.5 -72.5t72.5 -19.5zM227 -86v-46q0 -80 -70 -80h-25v25h24q31 0 31 38v13h-58v50h98z" />
    <glyph glyph-name="Lcaron" unicode="&#x13d;" horiz-adv-x="1789" 
d="M1763 59v-59h-1669v700h66v-641h1603zM1561 700v-65q0 -99 -84 -99h-17v32h16q20 0 28.5 10.5t8.5 38.5v18h-53v65h101z" />
    <glyph glyph-name="lcaron" unicode="&#x13e;" horiz-adv-x="456" 
d="M235 57h92v-57h-107q-76 0 -109 33.5t-33 108.5v628h65v-621q0 -53 19.5 -72.5t72.5 -19.5zM398 700v-65q0 -99 -84 -99h-17v32h16q20 0 28.5 10.5t8.5 38.5v18h-53v65h101z" />
    <glyph glyph-name="Ldot" unicode="&#x13f;" horiz-adv-x="1789" 
d="M1763 59v-59h-1669v700h66v-641h1603zM1040 384v-68h-101v68h101z" />
    <glyph glyph-name="ldot" unicode="&#x140;" horiz-adv-x="514" 
d="M235 57h92v-57h-107q-76 0 -109 33.5t-33 108.5v628h65v-621q0 -53 19.5 -72.5t72.5 -19.5zM415 384v-68h-101v68h101z" />
    <glyph glyph-name="Lslash" unicode="&#x141;" horiz-adv-x="1789" 
d="M1763 59v-59h-1669v228l-77 -30v58l77 30v414h66v-388l487 190v-58l-487 -190v-195h1603z" />
    <glyph glyph-name="lslash" unicode="&#x142;" horiz-adv-x="355" 
d="M235 57h92v-57h-107q-76 0 -109 33.5t-33 108.5v183l-61 -27v58l61 27v387h65v-358l195 87v-58l-195 -87v-205q0 -53 19.5 -72.5t72.5 -19.5z" />
    <glyph glyph-name="Nacute" unicode="&#x143;" horiz-adv-x="1878" 
d="M252 641q-56 0 -79 -23.5t-23 -81.5v-536h-66v548q0 152 152 152h1406q152 0 152 -152v-548h-66v536q0 58 -22.5 81.5t-78.5 23.5h-1375zM1145 861l-221 -107h-75l185 107h111z" />
    <glyph glyph-name="nacute" unicode="&#x144;" horiz-adv-x="1665" 
d="M78 0v453q0 77 36 113.5t113 36.5h1211q77 0 113 -36.5t36 -113.5v-453h-65v445q0 55 -22.5 78t-77.5 23h-1179q-55 0 -77.5 -23t-22.5 -78v-445h-65zM1035 767l-221 -107h-75l185 107h111z" />
    <glyph glyph-name="uni0145" unicode="&#x145;" horiz-adv-x="1878" 
d="M252 641q-56 0 -79 -23.5t-23 -81.5v-536h-66v548q0 152 152 152h1406q152 0 152 -152v-548h-66v536q0 58 -22.5 81.5t-78.5 23.5h-1375zM988 -86v-46q0 -80 -70 -80h-25v25h24q31 0 31 38v13h-58v50h98z" />
    <glyph glyph-name="uni0146" unicode="&#x146;" horiz-adv-x="1665" 
d="M78 0v453q0 77 36 113.5t113 36.5h1211q77 0 113 -36.5t36 -113.5v-453h-65v445q0 55 -22.5 78t-77.5 23h-1179q-55 0 -77.5 -23t-22.5 -78v-445h-65zM882 -86v-46q0 -80 -70 -80h-25v25h24q31 0 31 38v13h-58v50h98z" />
    <glyph glyph-name="Ncaron" unicode="&#x147;" horiz-adv-x="1878" 
d="M252 641q-56 0 -79 -23.5t-23 -81.5v-536h-66v548q0 152 152 152h1406q152 0 152 -152v-548h-66v536q0 58 -22.5 81.5t-78.5 23.5h-1375zM771 861l167 -75l167 75h68l-191 -107h-88l-190 107h67z" />
    <glyph glyph-name="ncaron" unicode="&#x148;" horiz-adv-x="1665" 
d="M78 0v453q0 77 36 113.5t113 36.5h1211q77 0 113 -36.5t36 -113.5v-453h-65v445q0 55 -22.5 78t-77.5 23h-1179q-55 0 -77.5 -23t-22.5 -78v-445h-65zM665 767l167 -75l167 75h68l-191 -107h-88l-190 107h67z" />
    <glyph glyph-name="napostrophe" unicode="&#x149;" horiz-adv-x="1817" 
d="M230 0v453q0 77 36 113.5t113 36.5h1211q77 0 113 -36.5t36 -113.5v-453h-65v445q0 55 -22.5 78t-77.5 23h-1179q-55 0 -77.5 -23t-22.5 -78v-445h-65zM159 700v-65q0 -99 -84 -99h-17v32h16q20 0 28.5 10.5t8.5 38.5v18h-53v65h101z" />
    <glyph glyph-name="Eng" unicode="&#x14a;" horiz-adv-x="1878" 
d="M252 641q-56 0 -79 -23.5t-23 -81.5v-536h-66v548q0 152 152 152h1406q152 0 152 -152v-563q0 -152 -152 -152h-457v59h441q56 0 79 23.5t23 81.5v539q0 58 -22.5 81.5t-78.5 23.5h-1375z" />
    <glyph glyph-name="eng" unicode="&#x14b;" horiz-adv-x="1665" 
d="M1376 -110h55q53 0 72 19t19 73v463q0 55 -22.5 78t-77.5 23h-1179q-55 0 -77.5 -23t-22.5 -78v-445h-65v453q0 77 36 113.5t113 36.5h1211q77 0 113 -36.5t36 -113.5v-478q0 -77 -32.5 -109.5t-109.5 -32.5h-69v57z" />
    <glyph glyph-name="Omacron" unicode="&#x14c;" horiz-adv-x="1863" 
d="M226 0q-152 0 -152 152v396q0 152 152 152h1411q78 0 115.5 -37.5t37.5 -114.5v-396q0 -77 -37.5 -114.5t-115.5 -37.5h-1411zM1723 164v372q0 58 -22.5 81.5t-78.5 23.5h-1380q-55 0 -78.5 -24t-23.5 -81v-372q0 -58 23 -81.5t79 -23.5h1380q56 0 78.5 23.5t22.5 81.5z
M1134 787h-406v39h406v-39z" />
    <glyph glyph-name="omacron" unicode="&#x14d;" horiz-adv-x="1650" 
d="M1432 603q77 0 113.5 -36.5t36.5 -113.5v-303q0 -77 -36.5 -113.5t-113.5 -36.5h-1214q-77 0 -113 36.5t-36 113.5v303q0 77 36 113.5t113 36.5h1214zM1417 57q55 0 77.5 23t22.5 78v287q0 55 -22.5 78t-77.5 23h-1183q-56 0 -78.5 -23t-22.5 -78v-287q0 -56 22.5 -78.5
t78.5 -22.5h1183zM1028 693h-406v39h406v-39z" />
    <glyph glyph-name="Obreve" unicode="&#x14e;" horiz-adv-x="1863" 
d="M226 0q-152 0 -152 152v396q0 152 152 152h1411q78 0 115.5 -37.5t37.5 -114.5v-396q0 -77 -37.5 -114.5t-115.5 -37.5h-1411zM1723 164v372q0 58 -22.5 81.5t-78.5 23.5h-1380q-55 0 -78.5 -24t-23.5 -81v-372q0 -58 23 -81.5t79 -23.5h1380q56 0 78.5 23.5t22.5 81.5z
M729 822v45q72 -69 202 -69q131 0 203 69v-45q-73 -70 -203 -70q-129 0 -202 70z" />
    <glyph glyph-name="obreve" unicode="&#x14f;" horiz-adv-x="1650" 
d="M1432 603q77 0 113.5 -36.5t36.5 -113.5v-303q0 -77 -36.5 -113.5t-113.5 -36.5h-1214q-77 0 -113 36.5t-36 113.5v303q0 77 36 113.5t113 36.5h1214zM1417 57q55 0 77.5 23t22.5 78v287q0 55 -22.5 78t-77.5 23h-1183q-56 0 -78.5 -23t-22.5 -78v-287q0 -56 22.5 -78.5
t78.5 -22.5h1183zM623 728v45q72 -69 202 -69q131 0 203 69v-45q-73 -70 -203 -70q-129 0 -202 70z" />
    <glyph glyph-name="Ohungarumlaut" unicode="&#x150;" horiz-adv-x="1863" 
d="M226 0q-152 0 -152 152v396q0 152 152 152h1411q78 0 115.5 -37.5t37.5 -114.5v-396q0 -77 -37.5 -114.5t-115.5 -37.5h-1411zM1723 164v372q0 58 -22.5 81.5t-78.5 23.5h-1380q-55 0 -78.5 -24t-23.5 -81v-372q0 -58 23 -81.5t79 -23.5h1380q56 0 78.5 23.5t22.5 81.5z
M1258 861l-221 -107h-75l185 107h111zM972 861l-221 -107h-75l185 107h111z" />
    <glyph glyph-name="ohungarumlaut" unicode="&#x151;" horiz-adv-x="1650" 
d="M1432 603q77 0 113.5 -36.5t36.5 -113.5v-303q0 -77 -36.5 -113.5t-113.5 -36.5h-1214q-77 0 -113 36.5t-36 113.5v303q0 77 36 113.5t113 36.5h1214zM1417 57q55 0 77.5 23t22.5 78v287q0 55 -22.5 78t-77.5 23h-1183q-56 0 -78.5 -23t-22.5 -78v-287q0 -56 22.5 -78.5
t78.5 -22.5h1183zM1175 767l-221 -107h-75l185 107h111zM889 767l-221 -107h-75l185 107h111z" />
    <glyph glyph-name="OE" unicode="&#x152;" horiz-adv-x="2863" 
d="M227 0q-78 0 -115.5 37.5t-37.5 114.5v396q0 77 37.5 114.5t115.5 37.5h2578v-59h-1319v-262h1213v-58h-1213v-262h1319v-59h-2578zM1420 59v582h-1178q-56 0 -78.5 -23.5t-22.5 -81.5v-372q0 -58 22.5 -81.5t78.5 -23.5h1178z" />
    <glyph glyph-name="oe" unicode="&#x153;" horiz-adv-x="2479" 
d="M1214 150v303q0 49 -21.5 71t-70.5 22h-888q-56 0 -78.5 -23t-22.5 -78v-287q0 -56 22.5 -78.5t78.5 -22.5h888q49 0 70.5 22t21.5 71zM2362 411v53q0 44 -19 63t-63 19h-910q-49 0 -70.5 -22t-21.5 -71v-123h1002q44 0 63 18.5t19 62.5zM1278 273v-123q0 -49 21.5 -71
t70.5 -22h1027v-57h-1008q-69 0 -102.5 24t-40.5 81q-7 -57 -40.5 -81t-102.5 -24h-885q-77 0 -113 36.5t-36 113.5v303q0 77 36 113.5t113 36.5h885q69 0 102.5 -24t40.5 -81q7 57 40.5 81t102.5 24h905q69 0 101 -32.5t32 -102.5v-60q0 -70 -32 -102.5t-101 -32.5h-1016z
" />
    <glyph glyph-name="Racute" unicode="&#x154;" horiz-adv-x="1879" 
d="M1804 552v-63q0 -67 -26 -100t-90 -40q64 -7 90 -42t26 -103v-204h-66v213q0 58 -22.5 83t-77.5 25h-1478v-321h-66v700h1562q77 0 112.5 -36t35.5 -112zM1639 379q56 0 77.5 23t21.5 80v59q0 54 -22.5 77t-74.5 23h-1481v-262h1479zM1146 861l-221 -107h-75l185 107h111
z" />
    <glyph glyph-name="racute" unicode="&#x155;" horiz-adv-x="1473" 
d="M1443 603v-57h-1200q-55 0 -77.5 -23t-22.5 -78v-445h-65v453q0 77 36.5 113.5t113.5 36.5h1215zM996 767l-221 -107h-75l185 107h111z" />
    <glyph glyph-name="uni0156" unicode="&#x156;" horiz-adv-x="1879" 
d="M1804 552v-63q0 -67 -26 -100t-90 -40q64 -7 90 -42t26 -103v-204h-66v213q0 58 -22.5 83t-77.5 25h-1478v-321h-66v700h1562q77 0 112.5 -36t35.5 -112zM1639 379q56 0 77.5 23t21.5 80v59q0 54 -22.5 77t-74.5 23h-1481v-262h1479zM1010 -86v-46q0 -80 -70 -80h-25v25
h24q31 0 31 38v13h-58v50h98z" />
    <glyph glyph-name="uni0157" unicode="&#x157;" horiz-adv-x="1473" 
d="M1443 603v-57h-1200q-55 0 -77.5 -23t-22.5 -78v-445h-65v453q0 77 36.5 113.5t113.5 36.5h1215zM160 -86v-46q0 -80 -70 -80h-25v25h24q31 0 31 38v13h-58v50h98z" />
    <glyph glyph-name="Rcaron" unicode="&#x158;" horiz-adv-x="1879" 
d="M1804 552v-63q0 -67 -26 -100t-90 -40q64 -7 90 -42t26 -103v-204h-66v213q0 58 -22.5 83t-77.5 25h-1478v-321h-66v700h1562q77 0 112.5 -36t35.5 -112zM1639 379q56 0 77.5 23t21.5 80v59q0 54 -22.5 77t-74.5 23h-1481v-262h1479zM772 861l167 -75l167 75h68
l-191 -107h-88l-190 107h67z" />
    <glyph glyph-name="rcaron" unicode="&#x159;" horiz-adv-x="1473" 
d="M1443 603v-57h-1200q-55 0 -77.5 -23t-22.5 -78v-445h-65v453q0 77 36.5 113.5t113.5 36.5h1215zM622 767l167 -75l167 75h68l-191 -107h-88l-190 107h67z" />
    <glyph glyph-name="Sacute" unicode="&#x15a;" horiz-adv-x="1811" 
d="M218 321q-77 0 -113 36t-36 113v81q0 77 36 113t113 36h1508v-59h-1494q-52 0 -74.5 -23t-22.5 -77v-61q0 -54 22.5 -77.5t74.5 -23.5h1372q77 0 113 -36t36 -113v-81q0 -77 -36 -113t-113 -36h-1547v59h1534q51 0 73.5 23t22.5 77v61q0 54 -22.5 77.5t-73.5 23.5h-1373z
M1112 861l-221 -107h-75l185 107h111z" />
    <glyph glyph-name="sacute" unicode="&#x15b;" horiz-adv-x="1619" 
d="M1537 546h-1334q-44 0 -62.5 -19t-18.5 -63v-53q0 -44 18.5 -62.5t62.5 -18.5h1232q68 0 100 -33t32 -103v-59q0 -70 -32 -102.5t-101 -32.5h-1377v57h1363q44 0 63 19t19 63v52q0 44 -18.5 63t-63.5 19h-1231q-68 0 -100 32.5t-32 102.5v60q0 70 32 102.5t100 32.5h1348
v-57zM1016 767l-221 -107h-75l185 107h111z" />
    <glyph glyph-name="Scircumflex" unicode="&#x15c;" horiz-adv-x="1811" 
d="M218 321q-77 0 -113 36t-36 113v81q0 77 36 113t113 36h1508v-59h-1494q-52 0 -74.5 -23t-22.5 -77v-61q0 -54 22.5 -77.5t74.5 -23.5h1372q77 0 113 -36t36 -113v-81q0 -77 -36 -113t-113 -36h-1547v59h1534q51 0 73.5 23t22.5 77v61q0 54 -22.5 77.5t-73.5 23.5h-1373z
M905 828l-167 -74h-67l190 107h88l191 -107h-68z" />
    <glyph glyph-name="scircumflex" unicode="&#x15d;" horiz-adv-x="1619" 
d="M1537 546h-1334q-44 0 -62.5 -19t-18.5 -63v-53q0 -44 18.5 -62.5t62.5 -18.5h1232q68 0 100 -33t32 -103v-59q0 -70 -32 -102.5t-101 -32.5h-1377v57h1363q44 0 63 19t19 63v52q0 44 -18.5 63t-63.5 19h-1231q-68 0 -100 32.5t-32 102.5v60q0 70 32 102.5t100 32.5h1348
v-57zM809 734l-167 -74h-67l190 107h88l191 -107h-68z" />
    <glyph glyph-name="Scedilla" unicode="&#x15e;" horiz-adv-x="1811" 
d="M911 0l-15 -47h132q45 0 66 -10t21 -40q0 -36 -29.5 -52t-93.5 -16h-286v46h286q40 0 56.5 6.5t16.5 23.5q0 15 -10 20t-38 5h-147l23 64h-836v59h1534q51 0 73.5 23t22.5 77v61q0 54 -22.5 77.5t-73.5 23.5h-1373q-77 0 -113 36t-36 113v81q0 77 36 113t113 36h1508v-59
h-1494q-52 0 -74.5 -23t-22.5 -77v-61q0 -54 22.5 -77.5t74.5 -23.5h1372q77 0 113 -36t36 -113v-81q0 -77 -36 -113t-113 -36h-693z" />
    <glyph glyph-name="scedilla" unicode="&#x15f;" horiz-adv-x="1619" 
d="M805 0l-15 -47h132q45 0 66 -10t21 -40q0 -36 -29.5 -52t-93.5 -16h-286v46h286q40 0 56.5 6.5t16.5 23.5q0 15 -10 20t-38 5h-147l23 64h-730v57h1363q44 0 63 19t19 63v52q0 44 -18.5 63t-63.5 19h-1231q-68 0 -100 32.5t-32 102.5v60q0 70 32 102.5t100 32.5h1348v-57
h-1334q-44 0 -62.5 -19t-18.5 -63v-53q0 -44 18.5 -62.5t62.5 -18.5h1232q68 0 100 -33t32 -103v-59q0 -70 -32 -102.5t-101 -32.5h-629z" />
    <glyph glyph-name="Scaron" unicode="&#x160;" horiz-adv-x="1811" 
d="M218 321q-77 0 -113 36t-36 113v81q0 77 36 113t113 36h1508v-59h-1494q-52 0 -74.5 -23t-22.5 -77v-61q0 -54 22.5 -77.5t74.5 -23.5h1372q77 0 113 -36t36 -113v-81q0 -77 -36 -113t-113 -36h-1547v59h1534q51 0 73.5 23t22.5 77v61q0 54 -22.5 77.5t-73.5 23.5h-1373z
M738 861l167 -75l167 75h68l-191 -107h-88l-190 107h67z" />
    <glyph glyph-name="scaron" unicode="&#x161;" horiz-adv-x="1619" 
d="M1537 546h-1334q-44 0 -62.5 -19t-18.5 -63v-53q0 -44 18.5 -62.5t62.5 -18.5h1232q68 0 100 -33t32 -103v-59q0 -70 -32 -102.5t-101 -32.5h-1377v57h1363q44 0 63 19t19 63v52q0 44 -18.5 63t-63.5 19h-1231q-68 0 -100 32.5t-32 102.5v60q0 70 32 102.5t100 32.5h1348
v-57zM642 767l167 -75l167 75h68l-191 -107h-88l-190 107h67z" />
    <glyph glyph-name="uni0162" unicode="&#x162;" horiz-adv-x="1768" 
d="M891 0l-15 -47h132q45 0 66 -10t21 -40q0 -36 -29.5 -52t-93.5 -16h-286v46h286q40 0 56.5 6.5t16.5 23.5q0 15 -10 20t-38 5h-147l23 64h-22v641h-825v59h1716v-59h-825v-641h-26z" />
    <glyph glyph-name="uni0163" unicode="&#x163;" horiz-adv-x="1511" 
d="M761 0l-15 -47h132q45 0 66 -10t21 -40q0 -36 -29.5 -52t-93.5 -16h-286v46h286q40 0 56.5 6.5t16.5 23.5q0 15 -10 20t-38 5h-147l23 64h-515q-77 0 -113.5 36.5t-36.5 113.5v620h65v-167h1313v-57h-1313v-388q0 -55 22.5 -78t77.5 -23h1213v-57h-695z" />
    <glyph glyph-name="Tcaron" unicode="&#x164;" horiz-adv-x="1768" 
d="M1742 700v-59h-825v-641h-66v641h-825v59h1716zM716 861l167 -75l167 75h68l-191 -107h-88l-190 107h67z" />
    <glyph glyph-name="tcaron" unicode="&#x165;" horiz-adv-x="1743" 
d="M228 0q-77 0 -113.5 36.5t-36.5 113.5v620h65v-167h1313v-57h-1313v-388q0 -55 22.5 -78t77.5 -23h1213v-57h-1228zM1686 700v-65q0 -99 -84 -99h-17v32h16q20 0 28.5 10.5t8.5 38.5v18h-53v65h101z" />
    <glyph glyph-name="Tbar" unicode="&#x166;" horiz-adv-x="1768" 
d="M1742 700v-59h-825v-182h175v-49h-175v-410h-66v410h-175v49h175v182h-825v59h1716z" />
    <glyph glyph-name="tbar" unicode="&#x167;" horiz-adv-x="1511" 
d="M228 0q-77 0 -113.5 36.5t-36.5 113.5v226h-78v49h78v345h65v-167h1313v-57h-1313v-121h290v-49h-290v-218q0 -55 22.5 -78t77.5 -23h1213v-57h-1228z" />
    <glyph glyph-name="Utilde" unicode="&#x168;" horiz-adv-x="1878" 
d="M236 0q-152 0 -152 152v548h66v-536q0 -58 23 -81.5t79 -23.5h1375q56 0 78.5 23.5t22.5 81.5v536h66v-548q0 -152 -152 -152h-1406zM736 760v45q56 49 110 49q35 0 96 -27.5t94 -27.5q52 0 105 50v-46q-56 -49 -111 -49q-35 0 -96.5 27.5t-94.5 27.5q-51 0 -103 -49z
" />
    <glyph glyph-name="utilde" unicode="&#x169;" horiz-adv-x="1665" 
d="M1422 57q55 0 77.5 23t22.5 78v445h65v-453q0 -77 -36 -113.5t-113 -36.5h-1211q-77 0 -113 36.5t-36 113.5v453h65v-445q0 -55 22.5 -78t77.5 -23h1179zM630 666v45q56 49 110 49q35 0 96 -27.5t94 -27.5q52 0 105 50v-46q-56 -49 -111 -49q-35 0 -96.5 27.5t-94.5 27.5
q-51 0 -103 -49z" />
    <glyph glyph-name="Umacron" unicode="&#x16a;" horiz-adv-x="1878" 
d="M236 0q-152 0 -152 152v548h66v-536q0 -58 23 -81.5t79 -23.5h1375q56 0 78.5 23.5t22.5 81.5v536h66v-548q0 -152 -152 -152h-1406zM1141 787h-406v39h406v-39z" />
    <glyph glyph-name="umacron" unicode="&#x16b;" horiz-adv-x="1665" 
d="M1422 57q55 0 77.5 23t22.5 78v445h65v-453q0 -77 -36 -113.5t-113 -36.5h-1211q-77 0 -113 36.5t-36 113.5v453h65v-445q0 -55 22.5 -78t77.5 -23h1179zM1035 693h-406v39h406v-39z" />
    <glyph glyph-name="Ubreve" unicode="&#x16c;" horiz-adv-x="1878" 
d="M236 0q-152 0 -152 152v548h66v-536q0 -58 23 -81.5t79 -23.5h1375q56 0 78.5 23.5t22.5 81.5v536h66v-548q0 -152 -152 -152h-1406zM736 822v45q72 -69 202 -69q131 0 203 69v-45q-73 -70 -203 -70q-129 0 -202 70z" />
    <glyph glyph-name="ubreve" unicode="&#x16d;" horiz-adv-x="1665" 
d="M1422 57q55 0 77.5 23t22.5 78v445h65v-453q0 -77 -36 -113.5t-113 -36.5h-1211q-77 0 -113 36.5t-36 113.5v453h65v-445q0 -55 22.5 -78t77.5 -23h1179zM630 728v45q72 -69 202 -69q131 0 203 69v-45q-73 -70 -203 -70q-129 0 -202 70z" />
    <glyph glyph-name="Uring" unicode="&#x16e;" horiz-adv-x="1878" 
d="M236 0q-152 0 -152 152v548h66v-536q0 -58 23 -81.5t79 -23.5h1375q56 0 78.5 23.5t22.5 81.5v536h66v-548q0 -152 -152 -152h-1406zM841 812q0 -30 39 -30h119q39 0 39 30q0 29 -39 29h-119q-39 0 -39 -29zM996 753h-113q-75 0 -75 59q0 58 75 58h113q74 0 74 -58
q0 -59 -74 -59z" />
    <glyph glyph-name="uring" unicode="&#x16f;" horiz-adv-x="1665" 
d="M1422 57q55 0 77.5 23t22.5 78v445h65v-453q0 -77 -36 -113.5t-113 -36.5h-1211q-77 0 -113 36.5t-36 113.5v453h65v-445q0 -55 22.5 -78t77.5 -23h1179zM734 718q0 -30 39 -30h119q39 0 39 30q0 29 -39 29h-119q-39 0 -39 -29zM889 659h-113q-75 0 -75 59q0 58 75 58
h113q74 0 74 -58q0 -59 -74 -59z" />
    <glyph glyph-name="Uhungarumlaut" unicode="&#x170;" horiz-adv-x="1878" 
d="M236 0q-152 0 -152 152v548h66v-536q0 -58 23 -81.5t79 -23.5h1375q56 0 78.5 23.5t22.5 81.5v536h66v-548q0 -152 -152 -152h-1406zM1288 861l-221 -107h-75l185 107h111zM1002 861l-221 -107h-75l185 107h111z" />
    <glyph glyph-name="uhungarumlaut" unicode="&#x171;" horiz-adv-x="1665" 
d="M1422 57q55 0 77.5 23t22.5 78v445h65v-453q0 -77 -36 -113.5t-113 -36.5h-1211q-77 0 -113 36.5t-36 113.5v453h65v-445q0 -55 22.5 -78t77.5 -23h1179zM1182 767l-221 -107h-75l185 107h111zM896 767l-221 -107h-75l185 107h111z" />
    <glyph glyph-name="Uogonek" unicode="&#x172;" horiz-adv-x="1878" 
d="M1762 -64h-22q-129 0 -196 -4t-88.5 -12t-21.5 -22q0 -17 45 -17h323v-46h-323q-84 0 -84 48q0 31 24 45.5t93 21t213 6.5h17v69q-37 -25 -100 -25h-1406q-152 0 -152 152v548h66v-536q0 -58 23 -81.5t79 -23.5h1375q56 0 78.5 23.5t22.5 81.5v536h66v-548
q0 -71 -32 -109v-107z" />
    <glyph glyph-name="uogonek" unicode="&#x173;" horiz-adv-x="1665" 
d="M1556 -64h-22q-129 0 -196 -4t-88.5 -12t-21.5 -22q0 -17 45 -17h323v-46h-323q-84 0 -84 48q0 31 24 45.5t93 21t213 6.5h17v67q-34 -23 -98 -23h-1211q-77 0 -113 36.5t-36 113.5v453h65v-445q0 -55 22.5 -78t77.5 -23h1179q55 0 77.5 23t22.5 78v445h65v-453
q0 -72 -31 -109v-105z" />
    <glyph glyph-name="Wcircumflex" unicode="&#x174;" horiz-adv-x="2303" 
d="M2067 0h-763q-73 0 -109 28t-44 91q-8 -63 -43.5 -91t-108.5 -28h-763q-152 0 -152 152v548h66v-536q0 -58 23 -81.5t79 -23.5h760q59 0 82.5 24.5t23.5 85.5v531h67v-531q0 -61 23.5 -85.5t82.5 -24.5h760q56 0 79 23.5t23 81.5v536h66v-548q0 -152 -152 -152zM1151 828
l-167 -74h-67l190 107h88l191 -107h-68z" />
    <glyph glyph-name="wcircumflex" unicode="&#x175;" horiz-adv-x="2055" 
d="M1028 105q-8 -57 -41 -81t-102 -24h-658q-77 0 -113 36.5t-36 113.5v453h65v-445q0 -55 22.5 -78t77.5 -23h660q50 0 71 22t21 71v453h65v-453q0 -49 21.5 -71t70.5 -22h660q55 0 77.5 22.5t22.5 78.5v445h65v-453q0 -77 -36 -113.5t-113 -36.5h-657q-69 0 -102.5 24
t-40.5 81zM1027 734l-167 -74h-67l190 107h88l191 -107h-68z" />
    <glyph glyph-name="Ycircumflex" unicode="&#x176;" horiz-adv-x="1835" 
d="M1715 700h66v-227q0 -77 -37.5 -114.5t-115.5 -37.5h-677v-321h-66v321h-678q-78 0 -115 37.5t-37 114.5v227h66v-216q0 -57 23 -81t79 -24h1390q56 0 79 23.5t23 81.5v216zM917 828l-167 -74h-67l190 107h88l191 -107h-68z" />
    <glyph glyph-name="ycircumflex" unicode="&#x177;" horiz-adv-x="1676" 
d="M1400 -167h-1281v57h1274q68 0 99 30.5t31 100.5v73q-23 -70 -124 -70h-1171q-77 0 -113.5 36t-36.5 113v430h65v-422q0 -55 22.5 -77.5t77.5 -22.5h1180q55 0 77.5 22.5t22.5 77.5v422h65v-582q0 -97 -45.5 -142.5t-142.5 -45.5zM837 734l-167 -74h-67l190 107h88
l191 -107h-68z" />
    <glyph glyph-name="Ydieresis" unicode="&#x178;" horiz-adv-x="1835" 
d="M1715 700h66v-227q0 -77 -37.5 -114.5t-115.5 -37.5h-677v-321h-66v321h-678q-78 0 -115 37.5t-37 114.5v227h66v-216q0 -57 23 -81t79 -24h1390q56 0 79 23.5t23 81.5v216zM809 831v-54h-102v54h102zM1128 831v-54h-103v54h103z" />
    <glyph glyph-name="Zacute" unicode="&#x179;" horiz-adv-x="1821" 
d="M1562 379q74 0 103.5 29t29.5 105v128h-1612v59h1679v-196q0 -183 -184 -183h-1322q-74 0 -104 -29t-30 -105v-128h1640v-59h-1706v196q0 183 184 183h1322zM1127 861l-221 -107h-75l185 107h111z" />
    <glyph glyph-name="zacute" unicode="&#x17a;" horiz-adv-x="1629" 
d="M235 273q-60 0 -87.5 -27.5t-27.5 -88.5v-100h1452v-57h-1517v156q0 174 174 174h1163q61 0 88 27t27 88v101h-1429v57h1494v-157q0 -173 -173 -173h-1164zM1041 767l-221 -107h-75l185 107h111z" />
    <glyph glyph-name="Zdotaccent" unicode="&#x17b;" horiz-adv-x="1821" 
d="M1562 379q74 0 103.5 29t29.5 105v128h-1612v59h1679v-196q0 -183 -184 -183h-1322q-74 0 -104 -29t-30 -105v-128h1640v-59h-1706v196q0 183 184 183h1322zM971 831v-54h-102v54h102z" />
    <glyph glyph-name="zdotaccent" unicode="&#x17c;" horiz-adv-x="1629" 
d="M235 273q-60 0 -87.5 -27.5t-27.5 -88.5v-100h1452v-57h-1517v156q0 174 174 174h1163q61 0 88 27t27 88v101h-1429v57h1494v-157q0 -173 -173 -173h-1164zM885 737v-54h-102v54h102z" />
    <glyph glyph-name="Zcaron" unicode="&#x17d;" horiz-adv-x="1821" 
d="M1562 379q74 0 103.5 29t29.5 105v128h-1612v59h1679v-196q0 -183 -184 -183h-1322q-74 0 -104 -29t-30 -105v-128h1640v-59h-1706v196q0 183 184 183h1322zM753 861l167 -75l167 75h68l-191 -107h-88l-190 107h67z" />
    <glyph glyph-name="zcaron" unicode="&#x17e;" horiz-adv-x="1629" 
d="M235 273q-60 0 -87.5 -27.5t-27.5 -88.5v-100h1452v-57h-1517v156q0 174 174 174h1163q61 0 88 27t27 88v101h-1429v57h1494v-157q0 -173 -173 -173h-1164zM667 767l167 -75l167 75h68l-191 -107h-88l-190 107h67z" />
    <glyph glyph-name="florin" unicode="&#x192;" 
d="M1714 379v-58h-1417v-176q0 -76 -34.5 -110.5t-111.5 -34.5h-99v59h82q56 0 76 20.5t20 76.5v165h-178v58h178v170q0 77 36.5 114t114.5 37h1434v-59h-1419q-55 0 -77 -22t-22 -77v-163h1417z" />
    <glyph glyph-name="AEacute" unicode="&#x1fc;" horiz-adv-x="2861" 
d="M1424 0v321h-1274v-321h-66v548q0 152 152 152h2571v-59h-1319v-262h1213v-58h-1213v-262h1319v-59h-1383zM252 641q-56 0 -79 -23.5t-23 -81.5v-157h1274v262h-1172zM1662 861l-221 -107h-75l185 107h111z" />
    <glyph glyph-name="aeacute" unicode="&#x1fd;" horiz-adv-x="2467" 
d="M2349 411v53q0 44 -18.5 63t-62.5 19h-910q-50 0 -71 -22t-21 -71v-123h1002q44 0 62.5 18.5t18.5 62.5zM118 191v-52q0 -44 18.5 -63t62.5 -19h910q49 0 70.5 22t21.5 71v123h-1002q-44 0 -62.5 -19t-18.5 -63zM1090 0h-905q-68 0 -100 32.5t-32 102.5v59q0 70 32 103
t100 33h1016v123q0 49 -21.5 71t-70.5 22h-1026v57h1007q69 0 102.5 -24t40.5 -81q8 57 41 81t102 24h906q68 0 100 -32.5t32 -102.5v-60q0 -70 -32 -102.5t-100 -32.5h-1016v-123q0 -49 21 -71t71 -22h1026v-57h-1008q-69 0 -102 24t-41 81q-7 -57 -40.5 -81t-102.5 -24z
M1440 767l-221 -107h-75l185 107h111z" />
    <glyph glyph-name="Oslashacute" unicode="&#x1fe;" horiz-adv-x="1863" 
d="M226 0q-152 0 -152 152v396q0 152 152 152h1411q78 0 115.5 -37.5t37.5 -114.5v-396q0 -77 -37.5 -114.5t-115.5 -37.5h-1411zM206 61l1320 580h-1284q-55 0 -78.5 -24t-23.5 -81v-372q0 -48 15 -72t51 -31zM1723 164v372q0 47 -15 71t-50 31l-1320 -579h1284
q56 0 78.5 23.5t22.5 81.5zM1138 861l-221 -107h-75l185 107h111z" />
    <glyph glyph-name="oslashacute" unicode="&#x1ff;" horiz-adv-x="1650" 
d="M1432 603q77 0 113.5 -36.5t36.5 -113.5v-303q0 -77 -36.5 -113.5t-113.5 -36.5h-1214q-77 0 -113 36.5t-36 113.5v303q0 77 36 113.5t113 36.5h1214zM1417 57q55 0 77.5 23t22.5 78v287q0 46 -15.5 69t-51.5 29l-1126 -486h1093zM195 60l1124 486h-1085q-56 0 -78.5 -23
t-22.5 -78v-287q0 -45 14.5 -68t47.5 -30zM1031 767l-221 -107h-75l185 107h111z" />
    <glyph glyph-name="uni0218" unicode="&#x218;" horiz-adv-x="1811" 
d="M218 321q-77 0 -113 36t-36 113v81q0 77 36 113t113 36h1508v-59h-1494q-52 0 -74.5 -23t-22.5 -77v-61q0 -54 22.5 -77.5t74.5 -23.5h1372q77 0 113 -36t36 -113v-81q0 -77 -36 -113t-113 -36h-1547v59h1534q51 0 73.5 23t22.5 77v61q0 54 -22.5 77.5t-73.5 23.5h-1373z
M955 -86v-46q0 -80 -70 -80h-25v25h24q31 0 31 38v13h-58v50h98z" />
    <glyph glyph-name="uni0219" unicode="&#x219;" horiz-adv-x="1619" 
d="M1537 546h-1334q-44 0 -62.5 -19t-18.5 -63v-53q0 -44 18.5 -62.5t62.5 -18.5h1232q68 0 100 -33t32 -103v-59q0 -70 -32 -102.5t-101 -32.5h-1377v57h1363q44 0 63 19t19 63v52q0 44 -18.5 63t-63.5 19h-1231q-68 0 -100 32.5t-32 102.5v60q0 70 32 102.5t100 32.5h1348
v-57zM844 -86v-46q0 -80 -70 -80h-25v25h24q31 0 31 38v13h-58v50h98z" />
    <glyph glyph-name="uni021A" unicode="&#x21a;" horiz-adv-x="1768" 
d="M1742 700v-59h-825v-641h-66v641h-825v59h1716zM933 -86v-46q0 -80 -70 -80h-25v25h24q31 0 31 38v13h-58v50h98z" />
    <glyph glyph-name="uni021B" unicode="&#x21b;" horiz-adv-x="1511" 
d="M228 0q-77 0 -113.5 36.5t-36.5 113.5v620h65v-167h1313v-57h-1313v-388q0 -55 22.5 -78t77.5 -23h1213v-57h-1228zM805 -86v-46q0 -80 -70 -80h-25v25h24q31 0 31 38v13h-58v50h98z" />
    <glyph glyph-name="uni0237" unicode="&#x237;" horiz-adv-x="259" 
d="M-41 -110h54q53 0 72.5 19t19.5 73v621h65v-628q0 -77 -32.5 -109.5t-109.5 -32.5h-69v57z" />
    <glyph glyph-name="circumflex" unicode="&#x2c6;" horiz-adv-x="471" 
d="M235 734l-167 -74h-67l190 107h88l191 -107h-68z" />
    <glyph glyph-name="caron" unicode="&#x2c7;" horiz-adv-x="471" 
d="M68 767l167 -75l167 75h68l-191 -107h-88l-190 107h67z" />
    <glyph glyph-name="breve" unicode="&#x2d8;" horiz-adv-x="471" 
d="M33 728v45q72 -69 202 -69q131 0 203 69v-45q-73 -70 -203 -70q-129 0 -202 70z" />
    <glyph glyph-name="dotaccent" unicode="&#x2d9;" horiz-adv-x="471" 
d="M286 737v-54h-102v54h102z" />
    <glyph glyph-name="ring" unicode="&#x2da;" horiz-adv-x="471" 
d="M137 718q0 -30 39 -30h119q39 0 39 30q0 29 -39 29h-119q-39 0 -39 -29zM292 659h-113q-75 0 -75 59q0 58 75 58h113q74 0 74 -58q0 -59 -74 -59z" />
    <glyph glyph-name="ogonek" unicode="&#x2db;" horiz-adv-x="480" 
d="M403 -64h-22q-129 0 -196 -4t-88.5 -12t-21.5 -22q0 -17 45 -17h323v-46h-323q-84 0 -84 48q0 31 24 45.5t93 21t213 6.5h17v44h20v-64z" />
    <glyph glyph-name="tilde" unicode="&#x2dc;" horiz-adv-x="471" 
d="M33 666v45q56 49 110 49q35 0 96 -27.5t94 -27.5q52 0 105 50v-46q-56 -49 -111 -49q-35 0 -96.5 27.5t-94.5 27.5q-51 0 -103 -49z" />
    <glyph glyph-name="hungarumlaut" unicode="&#x2dd;" horiz-adv-x="471" 
d="M543 767l-221 -107h-75l185 107h111zM257 767l-221 -107h-75l185 107h111z" />
    <glyph glyph-name="pi" unicode="&#x3c0;" 
d="M167 0v603h1509v-603h-65v546h-1379v-546h-65z" />
    <glyph glyph-name="uni1E02" unicode="&#x1e02;" horiz-adv-x="1872" 
d="M1804 211v-63q0 -76 -35.5 -112t-112.5 -36h-1562v700h1562q77 0 112.5 -36t35.5 -112v-63q0 -67 -25.5 -99.5t-88.5 -39.5q62 -7 88 -40t26 -99zM1639 379q56 0 77.5 23t21.5 80v59q0 54 -22.5 77t-74.5 23h-1481v-262h1479zM160 321v-262h1481q52 0 74.5 23t22.5 77v59
q0 57 -21.5 80t-77.5 23h-1479zM987 831v-54h-102v54h102z" />
    <glyph glyph-name="uni1E03" unicode="&#x1e03;" horiz-adv-x="1661" 
d="M78 150v620h65v-238q22 71 124 71h1176q77 0 113.5 -36.5t36.5 -113.5v-303q0 -77 -36.5 -113.5t-113.5 -36.5h-1215q-77 0 -113.5 36.5t-36.5 113.5zM143 445v-287q0 -55 22.5 -78t77.5 -23h1185q55 0 77.5 23t22.5 78v287q0 55 -22.5 78t-77.5 23h-1185
q-55 0 -77.5 -23t-22.5 -78zM898 737v-54h-102v54h102z" />
    <glyph glyph-name="uni1E0A" unicode="&#x1e0a;" horiz-adv-x="1873" 
d="M1593 700q104 0 157.5 -53.5t53.5 -157.5v-278q0 -104 -53.5 -157.5t-157.5 -53.5h-1499v700h1499zM1582 59q78 0 117 38t39 119v268q0 81 -39 119t-117 38h-1422v-582h1422zM976 831v-54h-102v54h102z" />
    <glyph glyph-name="uni1E0B" unicode="&#x1e0b;" horiz-adv-x="1661" 
d="M1583 770v-620q0 -77 -36.5 -113.5t-113.5 -36.5h-1215q-77 0 -113 36.5t-36 113.5v303q0 77 36 113.5t113 36.5h1176q102 0 124 -71v238h65zM1518 158v287q0 55 -22.5 78t-77.5 23h-1184q-56 0 -78.5 -23t-22.5 -78v-287q0 -56 22.5 -78.5t78.5 -22.5h1184q55 0 77.5 23
t22.5 78zM863 737v-54h-102v54h102z" />
    <glyph glyph-name="uni1E1E" unicode="&#x1e1e;" horiz-adv-x="1799" 
d="M94 0v700h1679v-59h-1613v-262h1507v-58h-1507v-321h-66zM975 831v-54h-102v54h102z" />
    <glyph glyph-name="uni1E1F" unicode="&#x1e1f;" horiz-adv-x="1566" 
d="M262 546q-62 0 -90.5 -28t-28.5 -92v-96h1328v-57h-1328v-273h-65v430q0 89 42 131t131 42h1285v-57h-1274zM879 737v-54h-102v54h102z" />
    <glyph glyph-name="uni1E40" unicode="&#x1e40;" horiz-adv-x="2303" 
d="M1304 700h763q152 0 152 -152v-548h-66v536q0 58 -23 81.5t-79 23.5h-760q-59 0 -82.5 -24.5t-23.5 -85.5v-531h-67v531q0 61 -23.5 85.5t-82.5 24.5h-760q-56 0 -79 -23.5t-23 -81.5v-536h-66v548q0 152 152 152h763q73 0 108.5 -28t43.5 -91q8 63 44 91t109 28z
M1202 831v-54h-102v54h102z" />
    <glyph glyph-name="uni1E41" unicode="&#x1e41;" horiz-adv-x="2055" 
d="M1028 498q7 57 40.5 81t102.5 24h657q77 0 113 -36.5t36 -113.5v-453h-65v445q0 56 -22.5 78.5t-77.5 22.5h-660q-49 0 -70.5 -22t-21.5 -71v-453h-65v453q0 49 -21 71t-71 22h-660q-55 0 -77.5 -23t-22.5 -78v-445h-65v453q0 77 36 113.5t113 36.5h658q69 0 102 -24
t41 -81zM1078 737v-54h-102v54h102z" />
    <glyph glyph-name="uni1E56" unicode="&#x1e56;" horiz-adv-x="1839" 
d="M94 0v700h1556q77 0 113 -36t36 -113v-81q0 -77 -36 -113t-113 -36h-1490v-321h-66zM1733 541q0 54 -23 77t-74 23h-1476v-262h1476q51 0 74 23.5t23 77.5v61zM993 831v-54h-102v54h102z" />
    <glyph glyph-name="uni1E57" unicode="&#x1e57;" horiz-adv-x="1661" 
d="M78 -167v620q0 77 36.5 113.5t113.5 36.5h1215q77 0 113.5 -36.5t36.5 -113.5v-303q0 -77 -36.5 -113.5t-113.5 -36.5h-1176q-102 0 -124 71v-238h-65zM143 445v-287q0 -55 22.5 -78t77.5 -23h1185q55 0 77.5 23t22.5 78v287q0 55 -22.5 78t-77.5 23h-1185
q-55 0 -77.5 -23t-22.5 -78zM881 737v-54h-102v54h102z" />
    <glyph glyph-name="uni1E60" unicode="&#x1e60;" horiz-adv-x="1811" 
d="M218 321q-77 0 -113 36t-36 113v81q0 77 36 113t113 36h1508v-59h-1494q-52 0 -74.5 -23t-22.5 -77v-61q0 -54 22.5 -77.5t74.5 -23.5h1372q77 0 113 -36t36 -113v-81q0 -77 -36 -113t-113 -36h-1547v59h1534q51 0 73.5 23t22.5 77v61q0 54 -22.5 77.5t-73.5 23.5h-1373z
M956 831v-54h-102v54h102z" />
    <glyph glyph-name="uni1E61" unicode="&#x1e61;" horiz-adv-x="1619" 
d="M1537 546h-1334q-44 0 -62.5 -19t-18.5 -63v-53q0 -44 18.5 -62.5t62.5 -18.5h1232q68 0 100 -33t32 -103v-59q0 -70 -32 -102.5t-101 -32.5h-1377v57h1363q44 0 63 19t19 63v52q0 44 -18.5 63t-63.5 19h-1231q-68 0 -100 32.5t-32 102.5v60q0 70 32 102.5t100 32.5h1348
v-57zM860 737v-54h-102v54h102z" />
    <glyph glyph-name="uni1E6A" unicode="&#x1e6a;" horiz-adv-x="1768" 
d="M1742 700v-59h-825v-641h-66v641h-825v59h1716zM934 831v-54h-102v54h102z" />
    <glyph glyph-name="uni1E6B" unicode="&#x1e6b;" horiz-adv-x="1511" 
d="M228 0q-77 0 -113.5 36.5t-36.5 113.5v620h65v-167h1313v-57h-1313v-388q0 -55 22.5 -78t77.5 -23h1213v-57h-1228zM835 737v-54h-102v54h102z" />
    <glyph glyph-name="Wgrave" unicode="&#x1e80;" horiz-adv-x="2303" 
d="M2067 0h-763q-73 0 -109 28t-44 91q-8 -63 -43.5 -91t-108.5 -28h-763q-152 0 -152 152v548h66v-536q0 -58 23 -81.5t79 -23.5h760q59 0 82.5 24.5t23.5 85.5v531h67v-531q0 -61 23.5 -85.5t82.5 -24.5h760q56 0 79 23.5t23 81.5v536h66v-548q0 -152 -152 -152zM1164 754
l-216 107h104l187 -107h-75z" />
    <glyph glyph-name="wgrave" unicode="&#x1e81;" horiz-adv-x="2055" 
d="M1028 105q-8 -57 -41 -81t-102 -24h-658q-77 0 -113 36.5t-36 113.5v453h65v-445q0 -55 22.5 -78t77.5 -23h660q50 0 71 22t21 71v453h65v-453q0 -49 21.5 -71t70.5 -22h660q55 0 77.5 22.5t22.5 78.5v445h65v-453q0 -77 -36 -113.5t-113 -36.5h-657q-69 0 -102.5 24
t-40.5 81zM1041 660l-216 107h104l187 -107h-75z" />
    <glyph glyph-name="Wacute" unicode="&#x1e82;" horiz-adv-x="2303" 
d="M2067 0h-763q-73 0 -109 28t-44 91q-8 -63 -43.5 -91t-108.5 -28h-763q-152 0 -152 152v548h66v-536q0 -58 23 -81.5t79 -23.5h760q59 0 82.5 24.5t23.5 85.5v531h67v-531q0 -61 23.5 -85.5t82.5 -24.5h760q56 0 79 23.5t23 81.5v536h66v-548q0 -152 -152 -152zM1358 861
l-221 -107h-75l185 107h111z" />
    <glyph glyph-name="wacute" unicode="&#x1e83;" horiz-adv-x="2055" 
d="M1028 105q-8 -57 -41 -81t-102 -24h-658q-77 0 -113 36.5t-36 113.5v453h65v-445q0 -55 22.5 -78t77.5 -23h660q50 0 71 22t21 71v453h65v-453q0 -49 21.5 -71t70.5 -22h660q55 0 77.5 22.5t22.5 78.5v445h65v-453q0 -77 -36 -113.5t-113 -36.5h-657q-69 0 -102.5 24
t-40.5 81zM1234 767l-221 -107h-75l185 107h111z" />
    <glyph glyph-name="Wdieresis" unicode="&#x1e84;" horiz-adv-x="2303" 
d="M2067 0h-763q-73 0 -109 28t-44 91q-8 -63 -43.5 -91t-108.5 -28h-763q-152 0 -152 152v548h66v-536q0 -58 23 -81.5t79 -23.5h760q59 0 82.5 24.5t23.5 85.5v531h67v-531q0 -61 23.5 -85.5t82.5 -24.5h760q56 0 79 23.5t23 81.5v536h66v-548q0 -152 -152 -152zM1043 831
v-54h-102v54h102zM1362 831v-54h-103v54h103z" />
    <glyph glyph-name="wdieresis" unicode="&#x1e85;" horiz-adv-x="2055" 
d="M1028 105q-8 -57 -41 -81t-102 -24h-658q-77 0 -113 36.5t-36 113.5v453h65v-445q0 -55 22.5 -78t77.5 -23h660q50 0 71 22t21 71v453h65v-453q0 -49 21.5 -71t70.5 -22h660q55 0 77.5 22.5t22.5 78.5v445h65v-453q0 -77 -36 -113.5t-113 -36.5h-657q-69 0 -102.5 24
t-40.5 81zM919 737v-54h-102v54h102zM1238 737v-54h-103v54h103z" />
    <glyph glyph-name="Ygrave" unicode="&#x1ef2;" horiz-adv-x="1835" 
d="M1715 700h66v-227q0 -77 -37.5 -114.5t-115.5 -37.5h-677v-321h-66v321h-678q-78 0 -115 37.5t-37 114.5v227h66v-216q0 -57 23 -81t79 -24h1390q56 0 79 23.5t23 81.5v216zM931 754l-216 107h104l187 -107h-75z" />
    <glyph glyph-name="ygrave" unicode="&#x1ef3;" horiz-adv-x="1676" 
d="M1400 -167h-1281v57h1274q68 0 99 30.5t31 100.5v73q-23 -70 -124 -70h-1171q-77 0 -113.5 36t-36.5 113v430h65v-422q0 -55 22.5 -77.5t77.5 -22.5h1180q55 0 77.5 22.5t22.5 77.5v422h65v-582q0 -97 -45.5 -142.5t-142.5 -45.5zM851 660l-216 107h104l187 -107h-75z
" />
    <glyph glyph-name="uni2010" unicode="&#x2010;" horiz-adv-x="736" 
d="M687 356v-58h-639v58h639z" />
    <glyph glyph-name="figuredash" unicode="&#x2012;" 
d="M1843 356v-58h-1843v58h1843z" />
    <glyph glyph-name="endash" unicode="&#x2013;" horiz-adv-x="959" 
d="M959 356v-58h-959v58h959z" />
    <glyph glyph-name="emdash" unicode="&#x2014;" horiz-adv-x="1918" 
d="M1918 356v-58h-1918v58h1918z" />
    <glyph glyph-name="quoteleft" unicode="&#x2018;" horiz-adv-x="299" 
d="M99 536v65q0 99 84 99h17v-32h-16q-20 0 -28.5 -10.5t-8.5 -38.5v-18h53v-65h-101z" />
    <glyph glyph-name="quoteright" unicode="&#x2019;" horiz-adv-x="299" 
d="M200 700v-65q0 -99 -84 -99h-17v32h16q20 0 28.5 10.5t8.5 38.5v18h-53v65h101z" />
    <glyph glyph-name="quotesinglbase" unicode="&#x201a;" horiz-adv-x="299" 
d="M200 68v-65q0 -99 -84 -99h-17v32h16q20 0 28.5 10.5t8.5 38.5v18h-53v65h101z" />
    <glyph glyph-name="quotedblleft" unicode="&#x201c;" horiz-adv-x="493" 
d="M293 536v65q0 99 84 99h17v-32h-16q-20 0 -28.5 -10.5t-8.5 -38.5v-18h53v-65h-101zM99 536v65q0 99 84 99h17v-32h-16q-20 0 -28.5 -10.5t-8.5 -38.5v-18h53v-65h-101z" />
    <glyph glyph-name="quotedblright" unicode="&#x201d;" horiz-adv-x="493" 
d="M394 700v-65q0 -99 -84 -99h-17v32h16q20 0 28.5 10.5t8.5 38.5v18h-53v65h101zM200 700v-65q0 -99 -84 -99h-17v32h16q20 0 28.5 10.5t8.5 38.5v18h-53v65h101z" />
    <glyph glyph-name="quotedblbase" unicode="&#x201e;" horiz-adv-x="493" 
d="M394 68v-65q0 -99 -84 -99h-17v32h16q20 0 28.5 10.5t8.5 38.5v18h-53v65h101zM200 68v-65q0 -99 -84 -99h-17v32h16q20 0 28.5 10.5t8.5 38.5v18h-53v65h101z" />
    <glyph glyph-name="dagger" unicode="&#x2020;" horiz-adv-x="1689" 
d="M1648 492v-58h-771v-566h-66v566h-770v58h770v248h66v-248h771z" />
    <glyph glyph-name="daggerdbl" unicode="&#x2021;" horiz-adv-x="1689" 
d="M1648 217v-58h-771v-291h-66v291h-770v58h770v217h-770v58h770v248h66v-248h771v-58h-771v-217h771z" />
    <glyph glyph-name="bullet" unicode="&#x2022;" horiz-adv-x="959" 
d="M550 166h-141q-145 0 -145 137v94q0 137 145 137h141q145 0 145 -137v-94q0 -137 -145 -137z" />
    <glyph glyph-name="ellipsis" unicode="&#x2026;" horiz-adv-x="687" 
d="M200 68v-68h-101v68h101zM394 68v-68h-101v68h101zM588 68v-68h-101v68h101z" />
    <glyph glyph-name="perthousand" unicode="&#x2030;" horiz-adv-x="3525" 
d="M968 0l471 700h64l-471 -700h-64zM1455 117v300q0 60 28.5 88.5t88.5 28.5h716q60 0 88.5 -28.5t28.5 -88.5v-300q0 -60 -28.5 -88.5t-88.5 -28.5h-716q-60 0 -88.5 28.5t-28.5 88.5zM2345 121v292q0 36 -16 51.5t-50 15.5h-697q-35 0 -51 -15.5t-16 -51.5v-292
q0 -36 16 -51.5t51 -15.5h697q34 0 50 15.5t16 51.5zM2509 117v300q0 60 28.5 88.5t88.5 28.5h716q60 0 88.5 -28.5t28.5 -88.5v-300q0 -60 -28.5 -88.5t-88.5 -28.5h-716q-60 0 -88.5 28.5t-28.5 88.5zM3399 121v292q0 36 -16 51.5t-50 15.5h-697q-35 0 -51 -15.5
t-16 -51.5v-292q0 -36 16 -51.5t51 -15.5h697q34 0 50 15.5t16 51.5zM66 283v300q0 60 28.5 88.5t88.5 28.5h716q60 0 88.5 -28.5t28.5 -88.5v-300q0 -60 -28.5 -88.5t-88.5 -28.5h-716q-60 0 -88.5 28.5t-28.5 88.5zM956 287v292q0 36 -16 51.5t-50 15.5h-697
q-35 0 -51 -15.5t-16 -51.5v-292q0 -36 16 -51.5t51 -15.5h697q34 0 50 15.5t16 51.5z" />
    <glyph glyph-name="guilsinglleft" unicode="&#x2039;" horiz-adv-x="359" 
d="M326 51h-73l-220 249l220 249h73l-220 -249z" />
    <glyph glyph-name="guilsinglright" unicode="&#x203a;" horiz-adv-x="359" 
d="M106 51h-73l220 249l-220 249h73l220 -249z" />
    <glyph glyph-name="fraction" unicode="&#x2044;" horiz-adv-x="603" 
d="M34 0l471 700h64l-471 -700h-64z" />
    <glyph glyph-name="zerosuperior" unicode="&#x2070;" horiz-adv-x="1082" 
d="M66 283v300q0 60 28.5 88.5t88.5 28.5h716q60 0 88.5 -28.5t28.5 -88.5v-300q0 -60 -28.5 -88.5t-88.5 -28.5h-716q-60 0 -88.5 28.5t-28.5 88.5zM956 287v292q0 36 -16 51.5t-50 15.5h-697q-35 0 -51 -15.5t-16 -51.5v-292q0 -36 16 -51.5t51 -15.5h697q34 0 50 15.5
t16 51.5z" />
    <glyph glyph-name="foursuperior" unicode="&#x2074;" horiz-adv-x="1082" 
d="M938 460v240h60v-534h-60v240h-772q-60 0 -88 28.5t-28 88.5v177h60v-173q0 -36 16 -51.5t50 -15.5h762z" />
    <glyph glyph-name="zeroinferior" unicode="&#x2080;" horiz-adv-x="1082" 
d="M66 117v300q0 60 28.5 88.5t88.5 28.5h716q60 0 88.5 -28.5t28.5 -88.5v-300q0 -60 -28.5 -88.5t-88.5 -28.5h-716q-60 0 -88.5 28.5t-28.5 88.5zM956 121v292q0 36 -16 51.5t-50 15.5h-697q-35 0 -51 -15.5t-16 -51.5v-292q0 -36 16 -51.5t51 -15.5h697q34 0 50 15.5
t16 51.5z" />
    <glyph glyph-name="oneinferior" unicode="&#x2081;" horiz-adv-x="1082" 
d="M126 0v54h474v426h-474v54h535v-480h356v-54h-891z" />
    <glyph glyph-name="twoinferior" unicode="&#x2082;" horiz-adv-x="1082" 
d="M973 363v49q0 38 -15 53.5t-53 15.5h-831v53h843q60 0 88 -28.5t28 -88.5v-60q0 -60 -28 -88.5t-88 -28.5h-705q-56 0 -77 -20.5t-21 -76.5v-89h919v-54h-980v152q0 142 142 142h710q38 0 53 15t15 54z" />
    <glyph glyph-name="threeinferior" unicode="&#x2083;" horiz-adv-x="1082" 
d="M1029 418v-47q0 -47 -18 -72.5t-70 -31.5q52 -6 70 -31.5t18 -72.5v-47q0 -59 -28 -87.5t-87 -28.5h-868v54h855q38 0 53 15t15 53v50q0 37 -15.5 52.5t-50.5 15.5h-773v54h773q35 0 50.5 15.5t15.5 52.5v50q0 38 -15 53t-53 15h-855v54h868q59 0 87 -28.5t28 -87.5z" />
    <glyph glyph-name="fourinferior" unicode="&#x2084;" horiz-adv-x="1082" 
d="M938 294v240h60v-534h-60v240h-772q-60 0 -88 28.5t-28 88.5v177h60v-173q0 -36 16 -51.5t50 -15.5h762z" />
    <glyph glyph-name="Euro" unicode="&#x20ac;" 
d="M278 0q-152 0 -152 152v169h-97v58h97v169q0 152 152 152h1513v-59h-1497q-56 0 -79 -23.5t-23 -81.5v-157h1491v-58h-1491v-157q0 -58 23 -81.5t79 -23.5h1497v-59h-1513z" />
    <glyph glyph-name="uni2117" unicode="&#x2117;" horiz-adv-x="1913" 
d="M302 370h1306q25 0 25 24v51q0 24 -25 24h-1306v-99zM1680 443v-47q0 -35 -16 -51t-51 -16h-1311v-140h-47v321h1358q35 0 51 -16t16 -51zM235 0q-83 0 -122 39.5t-39 120.5v380q0 81 39 120.5t122 39.5h1443q83 0 122 -39.5t39 -120.5v-380q0 -81 -39 -120.5t-122 -39.5
h-1443zM237 42h1439q60 0 88 29t28 88v382q0 59 -28 88t-88 29h-1439q-116 0 -116 -117v-382q0 -117 116 -117z" />
    <glyph glyph-name="trademark" unicode="&#x2122;" horiz-adv-x="2616" 
d="M1817 167v398q0 81 -73 81h-465q-34 0 -48.5 -14.5t-14.5 -49.5v-415h-60v417q0 59 28 87.5t87 28.5h452q59 0 88.5 -23t35.5 -72q6 50 35.5 72.5t88.5 22.5h452q59 0 87 -28.5t28 -87.5v-417h-60v415q0 35 -14.5 49.5t-48.5 14.5h-465q-73 0 -73 -81v-398h-60zM1054 700
v-54h-480v-479h-60v479h-480v54h1020z" />
    <glyph glyph-name="uni2126" unicode="&#x2126;" 
d="M1708 376v165q0 54 -22.5 77t-73.5 23h-1380q-52 0 -74.5 -23t-22.5 -77v-165q0 -54 22.5 -77.5t74.5 -23.5h568v-275h-743v59h683v158h-522q-77 0 -113 36.5t-36 112.5v185q0 77 36 113t113 36h1407q77 0 113 -36t36 -113v-185q0 -76 -36 -112.5t-113 -36.5h-522v-158
h683v-59h-743v275h569q51 0 73.5 23.5t22.5 77.5z" />
    <glyph glyph-name="onethird" unicode="&#x2153;" horiz-adv-x="2471" 
d="M126 166v54h474v426h-474v54h535v-480h356v-54h-891zM968 0l471 700h64l-471 -700h-64zM2418 418v-47q0 -47 -18 -72.5t-70 -31.5q52 -6 70 -31.5t18 -72.5v-47q0 -59 -28 -87.5t-87 -28.5h-868v54h855q38 0 53 15t15 53v50q0 37 -15.5 52.5t-50.5 15.5h-773v54h773
q35 0 50.5 15.5t15.5 52.5v50q0 38 -15 53t-53 15h-855v54h868q59 0 87 -28.5t28 -87.5z" />
    <glyph glyph-name="twothirds" unicode="&#x2154;" horiz-adv-x="2471" 
d="M973 529v49q0 38 -15 53.5t-53 15.5h-831v53h843q60 0 88 -28.5t28 -88.5v-60q0 -60 -28 -88.5t-88 -28.5h-705q-56 0 -77 -20.5t-21 -76.5v-89h919v-54h-980v152q0 142 142 142h710q38 0 53 15t15 54zM968 0l471 700h64l-471 -700h-64zM2418 418v-47q0 -47 -18 -72.5
t-70 -31.5q52 -6 70 -31.5t18 -72.5v-47q0 -59 -28 -87.5t-87 -28.5h-868v54h855q38 0 53 15t15 53v50q0 37 -15.5 52.5t-50.5 15.5h-773v54h773q35 0 50.5 15.5t15.5 52.5v50q0 38 -15 53t-53 15h-855v54h868q59 0 87 -28.5t28 -87.5z" />
    <glyph glyph-name="partialdiff" unicode="&#x2202;" 
d="M1772 489v-339q0 -77 -36.5 -113.5t-114.5 -36.5h-1415q-78 0 -114 36t-36 113v81q0 77 36 113t114 36h1499v105q0 81 -39 119t-117 38h-1465v59h1477q103 0 157 -53.5t54 -157.5zM123 220v-61q0 -54 22.5 -77t73.5 -23h1387q54 0 76.5 23.5t22.5 79.5v159h-1486
q-51 0 -73.5 -23.5t-22.5 -77.5z" />
    <glyph glyph-name="uni2206" unicode="&#x2206;" 
d="M53 0l868 725l869 -725h-1737zM921 643l-704 -587h1408z" />
    <glyph glyph-name="product" unicode="&#x220f;" 
d="M1703 -132v773h-1563v-773h-66v832h1696v-832h-67z" />
    <glyph glyph-name="summation" unicode="&#x2211;" 
d="M1770 -73v-59h-1696v51l668 365l-668 365v51h1696v-59h-1552l653 -357l-653 -357h1552z" />
    <glyph glyph-name="minus" unicode="&#x2212;" 
d="M74 321v57h1696v-57h-1696z" />
    <glyph glyph-name="radical" unicode="&#x221a;" 
d="M1256 0l-223 321h-959v57h996l220 -315l445 637h75l-485 -700h-69z" />
    <glyph glyph-name="infinity" unicode="&#x221e;" horiz-adv-x="733" 
d="M345 317q-12 0 -23.5 12.5t-14.5 12.5t-11 -2t-14 -2q-8 0 -14.5 8t-6.5 17q0 22 8 35q-7 -7 -16 -37t-26 -41q-18 -12 -18 -40q0 -11 11 -21.5t11 -12.5q0 -4 -3 -4q-7 0 -12 5q13 -68 48 -104h-55q-35 114 -35 226q0 105 40.5 171.5t135.5 66.5q190 0 190 -254
q0 -75 -25 -210h-73q53 47 62 117q-4 -8 -13 -8q-3 0 -3 2l4 4q5 3 9.5 11.5t4.5 21.5q-4 -6 -15 -6q-1 0 -10.5 -4.5t-15.5 -4.5q-14 0 -40 3.5t-70 3.5q-22 0 -52.5 -6t-38.5 -6q-5 0 -13 2t-11 2q-28 0 -28 12q0 10 37 18.5t74 8.5q5 0 12 -0.5t12 -0.5t15.5 2t14.5 2
q112 0 127 -20q-1 16 -14 29t-30 13q-6 0 -6 7q0 57 -16 58q4 -7 4 -17q0 -18 -11 -32t-27 -14q-4 0 -10 2l-7 2q-1 0 -14.5 -14t-27.5 -14zM733 291v-148q-22 48 -69 112.5t-67 64.5q6 -85 -12 -177h-42q16 104 16 199q0 319 -213 319q-53 0 -91.5 -26.5t-59 -72.5
t-30 -97.5t-9.5 -111.5q0 -123 29 -210h-47q-19 67 -19 184q-17 -9 -39.5 -43.5t-49 -84.5t-30.5 -56v148q11 27 33 54t50 53.5t30 28.5q3 72 27 135t75.5 107.5t120.5 44.5q67 0 115.5 -22.5t76.5 -64t42.5 -87t22.5 -105.5q22 -5 68 -48t72 -96zM345 503q-3 3 -3 6
q0 2 2 2q1 0 6 -4.5t15 -8.5t22 -4q16 0 29 4t20 8l6 5q4 0 4 -2l-8 -8q24 0 52 -11q-29 80 -139 80q-55 0 -92 -33t-50 -85q37 20 41 39q-6 4 -6 7q0 4 3 4l2 -2q2 -1 6.5 -3.5t10 -5t13.5 -4t17 -1.5q24 0 49 17zM371 416q0 20 -4.5 40t-9.5 20q-10 0 -19 -39t-14 -39
q-3 0 -9.5 3t-11.5 3q-13 0 -21 -10.5t-8 -24.5t11 -14t18 6.5t9 6.5t12 -13.5t20 -13.5q14 0 25 10.5t12 10.5q3 0 10 -3.5t9 -3.5q10 0 18 11t8 24q0 10 -6 18t-16 8q-7 0 -14.5 -6.5t-11.5 -6.5q-7 0 -7 13zM510 318q0 95 -12 147l-5 3q0 -21 -18 -32t-41 -11
q-21 0 -37 12.5t-16 29.5q0 6 2 9q-12 2 -15 4q6 -9 10 -24t5.5 -24t4.5 -9q7 2 15 2q19 0 31 -14q34 0 34 -51q0 -3 8 -7t18.5 -13t15.5 -22zM383 310q-1 0 -8 -1t-15.5 -2t-13.5 -1t-13 1.5t-11 1.5q-15 0 -36 -4t-35 -9t-14 -8q0 -10 20 -10q24 0 54 6.5t44 6.5
q19 0 57.5 -3.5t52.5 -3.5q5 0 9.5 2t7.5 4t3 3q0 5 -36 11t-66 6zM267 413q-18 0 -31 10t-15 21q-4 -2 -15 -5q-4 -21 -4 -43q0 -50 3 -78q4 6 22 22t20 31q5 37 38 41q12 5 23 5q5 0 8.5 8.5t9.5 24.5t16 28l-13 -4q-1 -24 -18.5 -42.5t-43.5 -18.5zM419 465q-13 0 -16 13
q-5 0 -8.5 -5.5t-3.5 -9.5q0 -10 15 -17t31 -7q14 0 29 8.5t15 21.5q0 8 -14.5 12.5t-28.5 4.5q-5 -21 -19 -21zM267 427q14 0 30 11t16 24q0 6 -1 9q-20 0 -27 1q-5 -14 -18 -14q-10 0 -15 5q-4 -4 -18 -12q4 -24 33 -24zM266 288q-2 0 -2 3q0 12 107 12q93 0 93 -8
q0 -3 -3 -3q-1 0 -4 0.5t-10 1t-16 1.5t-24.5 1.5t-33.5 0.5q-36 0 -61 -2.5t-36 -4.5zM305 262q0 10 63 10q31 0 31 -8q0 -3 -2 -3q-4 0 -10 2t-10 2q-11 0 -26 -0.5t-20 -0.5q-4 0 -11.5 -3t-10.5 -3q-4 0 -4 4zM417 473q9 0 9 13q-1 0 -16 -6q0 -7 7 -7zM266 466
q7 0 10 9q-6 1 -11 4q0 -4 -6 -10q1 -3 7 -3zM325 34l-3 48l-10 -82h-21l15 125h25l4 -60l21 60h26l-15 -125h-22l10 82l-16 -48h-14zM21 125h35q23 0 20 -21l-10 -82q-3 -22 -22 -22h-38zM282 44q-1 -12 -10 -17l8 -27h-21l-7 23h-7l-3 -23h-22l15 125h36q21 0 18 -24z
M183 0l3 23h-14l-3 -23h-21l12 104q2 21 22 21h17q19 0 18 -21l-12 -104h-22zM594 0l15 125h35q23 0 20 -21l-8 -62q-3 -19 -22 -19h-15l-3 -23h-22zM111 0l3 23h-13l-3 -23h-22l15 125h22l-10 -83h13l10 83h22l-15 -125h-22zM539 125h22l-10 -79q0 -4 4 -4h5q5 0 5 4l9 79
h22l-10 -81q-3 -21 -19 -21l-9 -23h-23l9 23q-18 0 -15 21zM477 106l3 19h50l-3 -19h-13l-12 -106h-23l12 106h-14zM41 106l-11 -88h11q3 0 3 4l9 80q0 4 -4 4h-8zM629 106l-8 -64h8q5 0 5 4l7 56q0 4 -4 4h-8zM174 42h14l7 60q0 4 -4 4h-5q-5 0 -5 -4zM255 106l-8 -64h8
q5 0 5 4l7 56q0 4 -3 4h-9zM711 57l-3 -18h-19l-3 -21h27l-2 -18h-49l15 125h47l-3 -19h-24l-6 -49h20zM417 0l3 23h-14l-3 -23h-21l12 104q2 21 22 21h17q19 0 18 -21l-12 -104h-22zM408 42h14l7 60q0 4 -4 4h-5q-5 0 -5 -4z" />
    <glyph glyph-name="integral" unicode="&#x222b;" 
d="M1041 540l-176 -530q-25 -75 -69 -108.5t-123 -33.5h-599v59h594q58 0 88.5 22t50.5 79l176 530q26 76 70 109t123 33h594v-59h-590q-58 0 -88.5 -22.5t-50.5 -78.5z" />
    <glyph glyph-name="approxequal" unicode="&#x2248;" 
d="M74 170v64q147 74 365 74q153 0 480 -51.5t479 -51.5q223 0 372 78v-63q-148 -74 -368 -74q-153 0 -479.5 51t-477.5 51q-223 0 -371 -78zM74 419v63q147 74 365 74q153 0 479 -51t479 -51q224 0 373 78v-64q-148 -74 -368 -74q-153 0 -480 51t-479 51q-220 0 -369 -77z
" />
    <glyph glyph-name="notequal" unicode="&#x2260;" 
d="M716 0h-66l140 194h-688v57h730l142 197h-872v57h914l141 195h67l-142 -195h659v-57h-700l-143 -197h843v-57h-885z" />
    <glyph glyph-name="lessequal" unicode="&#x2264;" 
d="M74 350l304 273h79l-273 -245h1586v-57h-1586l294 -264h1292v-57h-1696v57h325z" />
    <glyph glyph-name="greaterequal" unicode="&#x2265;" 
d="M1466 623l304 -273l-325 -293h325v-57h-1696v57h1292l294 264h-1586v57h1586l-273 245h79z" />
    <glyph glyph-name="lozenge" unicode="&#x25ca;" 
d="M921 -25l-868 373l868 373l869 -373zM921 41l714 307l-714 306l-714 -306z" />
    <glyph glyph-name="commaaccent" horiz-adv-x="480" 
d="M289 -86v-46q0 -80 -70 -80h-25v25h24q31 0 31 38v13h-58v50h98z" />
    <glyph glyph-name="f.alt" horiz-adv-x="1566" 
d="M262 546q-62 0 -90.5 -28t-28.5 -92v-96h1328v-57h-1328v-440h-65v597q0 89 42 131t131 42h1285v-57h-1274z" />
    <glyph glyph-name="i.alt" horiz-adv-x="250" 
d="M93 0v603h64v-603h-64zM179 737v-54h-108v54h108z" />
    <glyph glyph-name="i.trk" horiz-adv-x="357" 
d="M237 57h93v-57h-108q-75 0 -108 33.5t-33 108.5v461h64v-454q0 -53 19.5 -72.5t72.5 -19.5zM167 737v-54h-108v54h108z" />
    <glyph glyph-name="germandbls.alt" horiz-adv-x="1683" 
d="M1481 273h-1099v57h1099q46 0 63.5 17.5t17.5 62.5v49q0 47 -20 67t-67 20h-1212q-63 0 -91.5 -28t-28.5 -92v-593h-65v598q0 88 42 130t131 42h1239q72 0 104.5 -32.5t32.5 -105.5v-50q0 -54 -21.5 -81.5t-73.5 -32.5q52 -5 73.5 -32.5t21.5 -80.5v-50q0 -72 -32.5 -105
t-104.5 -33h-1108v57h1093q47 0 67 20t20 67v48q0 45 -17.5 63t-63.5 18z" />
    <glyph glyph-name="one.pnum" horiz-adv-x="412" 
d="M318 700v-700h-66v641h-223v59h289z" />
    </font>
</defs>
</svg>
