<?xml version="1.0" standalone="no"?>
<!DOCTYPE svg PUBLIC "-//W3C//DTD SVG 1.1//EN" "http://www.w3.org/Graphics/SVG/1.1/DTD/svg11.dtd" >
<svg xmlns="http://www.w3.org/2000/svg" xmlns:xlink="http://www.w3.org/1999/xlink" version="1.1">
<metadata>
Created by FontForge 20170731 at Sat Mar 14 00:16:18 2015
 By ,,,
Copyright (c) 2011 by Ryoichi Tsunekawa. All rights reserved.
</metadata>
<defs>
<font id="DesignSystemE-700R" horiz-adv-x="1863" >
  <font-face 
    font-family="DesignSystemE-700R"
    font-weight="400"
    font-stretch="normal"
    units-per-em="1000"
    panose-1="4 5 7 8 2 11 2 2 3 2"
    ascent="822"
    descent="-178"
    x-height="603"
    cap-height="700"
    bbox="-127 -247 3568 933"
    underline-thickness="36"
    underline-position="-156"
    unicode-range="U+0020-FB02"
  />
<missing-glyph horiz-adv-x="959" 
d="M0 700h959v-700h-959v700zM67 634v-560l758 560h-758zM133 66h759v559z" />
    <glyph glyph-name="ij" unicode="ij" horiz-adv-x="561" 
d="M241 -48h58q31 0 43.5 12.5t12.5 44.5v594h137v-618q0 -79 -36 -115.5t-117 -36.5h-98v119zM337 667v90h174v-90h-174zM69 0v603h136v-603h-136zM224 757v-90h-174v90h174z" />
    <glyph glyph-name="fi" unicode="fi" horiz-adv-x="1973" 
d="M272 484q-40 0 -58 -17.5t-18 -58.5v-47h1306v-119h-1306v-242h-137v424q0 92 44 135.5t136 43.5h1328v-119h-1295zM1849 119h102v-119h-144q-81 0 -117 36.5t-36 115.5v451h136v-425q0 -32 14 -45.5t45 -13.5zM1809 757v-90h-174v90h174z" />
    <glyph glyph-name="fl" unicode="fl" horiz-adv-x="1969" 
d="M272 484q-40 0 -58 -17.5t-18 -58.5v-47h1306v-119h-1306v-242h-137v424q0 92 44 135.5t136 43.5h1328v-119h-1295zM1846 119h101v-119h-144q-80 0 -116.5 36.5t-36.5 115.5v618h137v-592q0 -32 13.5 -45.5t45.5 -13.5z" />
    <glyph glyph-name=".notdef" horiz-adv-x="959" 
d="M0 700h959v-700h-959v700zM67 634v-560l758 560h-758zM133 66h759v559z" />
    <glyph glyph-name=".null" horiz-adv-x="0" 
 />
    <glyph glyph-name="nonmarkingreturn" horiz-adv-x="333" 
 />
    <glyph glyph-name="space" unicode=" " horiz-adv-x="495" 
 />
    <glyph glyph-name="exclam" unicode="!" horiz-adv-x="316" 
d="M246 104v-104h-176v104h176zM229 700v-223q0 -153 -17 -278h-108q-17 125 -17 278v223h142z" />
    <glyph glyph-name="quotedbl" unicode="&#x22;" horiz-adv-x="500" 
d="M201 700v-42q0 -117 -21 -266h-100q-21 149 -21 266v42h142zM442 700v-42q0 -117 -21 -266h-100q-21 149 -21 266v42h142z" />
    <glyph glyph-name="numbersign" unicode="#" 
d="M1561 0l7 124h-1297l-6 -124h-128l6 124h-106l6 119h106l12 214h-107l7 119h106l7 124h128l-7 -124h1296l7 124h128l-7 -124h107l-6 -119h-107l-11 -214h106l-6 -119h-106l-7 -124h-128zM289 457l-12 -214h1297l11 214h-1296z" />
    <glyph glyph-name="dollar" unicode="$" 
d="M45 169h1586q26 0 37.5 12t11.5 38v25q0 26 -11.5 37.5t-37.5 11.5h-1447q-71 0 -105 34.5t-34 107.5v75q0 73 34 107.5t105 34.5h685v88h124v-88h797v-120h-1558q-27 0 -38.5 -11.5t-11.5 -37.5v-25q0 -26 12 -38t38 -12h1447q71 0 104.5 -34t33.5 -107v-75
q0 -73 -34 -107.5t-105 -34.5h-685v-90h-124v90h-824v119z" />
    <glyph glyph-name="percent" unicode="%" horiz-adv-x="2542" 
d="M971 0l471 700h129l-471 -700h-129zM1502 125v284q0 64 30 94.5t95 30.5h738q64 0 94.5 -30.5t30.5 -94.5v-284q0 -64 -30.5 -94.5t-94.5 -30.5h-738q-65 0 -95 30.5t-30 94.5zM2371 149v236q0 44 -43 44h-663q-23 0 -33.5 -10t-10.5 -34v-236q0 -24 10.5 -34t33.5 -10
h663q43 0 43 44zM52 291v284q0 64 30 94.5t95 30.5h738q64 0 94.5 -30.5t30.5 -94.5v-284q0 -64 -30.5 -94.5t-94.5 -30.5h-738q-65 0 -95 30.5t-30 94.5zM921 315v236q0 44 -43 44h-663q-23 0 -33.5 -10t-10.5 -34v-236q0 -24 10.5 -34t33.5 -10h663q43 0 43 44z" />
    <glyph glyph-name="ampersand" unicode="&#x26;" horiz-adv-x="1969" 
d="M1703 289h-1449q-33 0 -46 -14t-13 -48v-43q0 -33 13.5 -47t45.5 -14h1393q33 0 44.5 11.5t11.5 45.5v109zM53 153v56q0 66 28 100t95 41q-67 7 -95 40.5t-28 100.5v56q0 80 36.5 116.5t116.5 36.5h1590v-123h-1542q-32 0 -45.5 -14t-13.5 -47v-43q0 -34 13 -48t46 -14
h1691v-122h-99v-143q0 -78 -34 -112t-113 -34h-1493q-80 0 -116.5 36.5t-36.5 116.5z" />
    <glyph glyph-name="quotesingle" unicode="'" horiz-adv-x="260" 
d="M201 700v-42q0 -117 -21 -266h-100q-21 149 -21 266v42h142z" />
    <glyph glyph-name="parenleft" unicode="(" horiz-adv-x="361" 
d="M196 95q0 -34 13.5 -48t47.5 -14h60v-113h-96q-81 0 -118 37t-37 117v472q0 80 37 117t118 37h96v-113h-60q-34 0 -47.5 -14t-13.5 -48v-430z" />
    <glyph glyph-name="parenright" unicode=")" horiz-adv-x="361" 
d="M165 95v430q0 34 -13.5 48t-47.5 14h-60v113h96q81 0 118 -37t37 -117v-472q0 -80 -37 -117t-118 -37h-96v113h60q34 0 47.5 14t13.5 48z" />
    <glyph glyph-name="asterisk" unicode="*" horiz-adv-x="583" 
d="M304 451q84 76 158 100l66 20l36 -111l-66 -21q-75 -24 -185 -13q30 -16 73.5 -49t70.5 -70l40 -55l-95 -69l-40 55q-47 64 -70 173q-29 -115 -71 -173l-40 -55l-95 69l40 55q48 65 144 119q-110 -11 -185 13l-66 21l36 111l66 -20q74 -24 158 -100q-14 29 -30 82.5
t-16 98.5v68h118v-68q0 -45 -16 -98t-31 -83z" />
    <glyph glyph-name="plus" unicode="+" 
d="M59 291v118h813v228h118v-228h814v-118h-814v-228h-118v228h-813z" />
    <glyph glyph-name="comma" unicode="," horiz-adv-x="311" 
d="M241 118v-117q0 -66 -34 -103t-100 -37h-36v65h29q26 0 38 11.5t12 41.5v22h-79v117h170z" />
    <glyph glyph-name="hyphen" unicode="-" horiz-adv-x="729" 
d="M687 388v-122h-646v122h646z" />
    <glyph glyph-name="period" unicode="." horiz-adv-x="311" 
d="M241 118v-118h-170v118h170z" />
    <glyph glyph-name="slash" unicode="/" horiz-adv-x="729" 
d="M27 0l517 700h158l-518 -700h-157z" />
    <glyph glyph-name="zero" unicode="0" 
d="M217 0q-81 0 -119.5 39t-38.5 119v384q0 80 38.5 119t119.5 39h1429q81 0 119.5 -39t38.5 -119v-384q0 -80 -38.5 -119t-119.5 -39h-1429zM1662 187v326q0 34 -14 48.5t-47 14.5h-1339q-34 0 -47.5 -14t-13.5 -49v-326q0 -35 13.5 -49t47.5 -14h1339q33 0 47 14.5
t14 48.5z" />
    <glyph glyph-name="one" unicode="1" 
d="M1301 700v-576h501v-124h-1679v124h1043v452h-1043v124h1178z" />
    <glyph glyph-name="two" unicode="2" 
d="M1663 515q0 33 -13.5 47t-45.5 14h-1529v124h1573q81 0 119 -38.5t38 -118.5v-98q0 -80 -38 -118.5t-119 -38.5h-1375q-46 0 -64.5 -18t-18.5 -65v-81h1627v-124h-1770v221q0 191 191 191h1366q32 0 45.5 14t13.5 46v43z" />
    <glyph glyph-name="three" unicode="3" 
d="M1608 288h-1454v124h1454q34 0 47 13.5t13 47.5v42q0 33 -13.5 47t-45.5 14h-1564v124h1611q81 0 117.5 -36.5t36.5 -116.5v-56q0 -67 -28 -100.5t-95 -40.5q67 -7 95 -41t28 -100v-56q0 -80 -36.5 -116.5t-117.5 -36.5h-1611v124h1564q32 0 45.5 14t13.5 47v42
q0 34 -13 47.5t-47 13.5z" />
    <glyph glyph-name="four" unicode="4" 
d="M1653 412v288h143v-700h-143v288h-1450q-158 0 -158 158v254h142v-226q0 -34 14 -48t47 -14h1405z" />
    <glyph glyph-name="five" unicode="5" 
d="M68 288v412h1720v-124h-1578v-164h1448q81 0 119 -38.5t38 -118.5v-98q0 -80 -38 -118.5t-119 -38.5h-1600v124h1556q32 0 45.5 14t13.5 47v43q0 32 -13.5 46t-45.5 14h-1546z" />
    <glyph glyph-name="six" unicode="6" 
d="M199 474v-62h1459q81 0 119 -38.5t38 -118.5v-98q0 -80 -38 -118.5t-119 -38.5h-1444q-81 0 -119 38.5t-38 118.5v324q0 108 56 163.5t163 55.5h1512v-124h-1488q-101 0 -101 -102zM1614 288h-1415v-102q0 -34 14 -48t46 -14h1355q32 0 45.5 14t13.5 47v43q0 32 -13.5 46
t-45.5 14z" />
    <glyph glyph-name="seven" unicode="7" 
d="M1597 412q44 0 61.5 17t17.5 61v86h-1651v124h1793v-227q0 -185 -185 -185h-791q-43 0 -60.5 -17t-17.5 -61v-210h-142v227q0 185 185 185h790z" />
    <glyph glyph-name="eight" unicode="8" 
d="M1812 547v-56q0 -67 -28 -100.5t-95 -40.5q67 -7 95 -41t28 -100v-56q0 -80 -36.5 -116.5t-116.5 -36.5h-1455q-80 0 -116.5 36.5t-36.5 116.5v56q0 66 28 100t94 41q-66 7 -94 40.5t-28 100.5v56q0 80 36.5 116.5t116.5 36.5h1455q80 0 116.5 -36.5t36.5 -116.5z
M252 412h1359q33 0 46 13.5t13 47.5v42q0 33 -13.5 47t-45.5 14h-1360q-31 0 -44.5 -14t-13.5 -47v-42q0 -34 13 -47.5t46 -13.5zM1611 288h-1359q-33 0 -46 -13.5t-13 -47.5v-42q0 -33 13.5 -47t44.5 -14h1360q32 0 45.5 14t13.5 47v42q0 34 -13 47.5t-46 13.5z" />
    <glyph glyph-name="nine" unicode="9" 
d="M1649 700q81 0 119 -38.5t38 -118.5v-324q0 -108 -56 -163.5t-163 -55.5h-1512v124h1488q101 0 101 102v62h-1459q-81 0 -119 38.5t-38 118.5v98q0 80 38 118.5t119 38.5h1444zM190 515v-43q0 -32 13.5 -46t45.5 -14h1415v102q0 34 -14 48t-47 14h-1354q-32 0 -45.5 -14
t-13.5 -47z" />
    <glyph glyph-name="colon" unicode=":" horiz-adv-x="311" 
d="M241 578v-118h-170v118h170zM241 118v-118h-170v118h170z" />
    <glyph glyph-name="semicolon" unicode=";" horiz-adv-x="311" 
d="M241 118v-117q0 -66 -34 -103t-100 -37h-36v65h29q26 0 38 11.5t12 41.5v22h-79v117h170zM241 578v-118h-170v118h170z" />
    <glyph glyph-name="less" unicode="&#x3c;" 
d="M59 350l269 287h155l-218 -228h1539v-118h-1539l218 -228h-155z" />
    <glyph glyph-name="equal" unicode="=" 
d="M88 156v118h1687v-118h-1687zM88 426v118h1687v-118h-1687z" />
    <glyph glyph-name="greater" unicode="&#x3e;" 
d="M1804 350l-269 -287h-155l218 228h-1539v118h1539l-218 228h155z" />
    <glyph glyph-name="question" unicode="?" horiz-adv-x="1823" 
d="M1648 472v43q0 33 -13.5 47t-45.5 14h-1565v124h1609q81 0 119 -38.5t38 -118.5v-98q0 -80 -38 -118.5t-119 -38.5h-695q-29 0 -40 -10.5t-11 -40.5v-45h-142v84q0 70 32.5 103t102.5 33h709q32 0 45.5 14t13.5 46zM904 104v-104h-176v104h176z" />
    <glyph glyph-name="at" unicode="@" horiz-adv-x="1895" 
d="M226 0q-86 0 -126.5 41t-40.5 125v368q0 84 40.5 125t126.5 41h1443q86 0 126.5 -41t40.5 -125v-368q0 -84 -40.5 -125t-126.5 -41h-1443zM230 60h1435q103 0 103 103v374q0 103 -103 103h-1435q-103 0 -103 -103v-374q0 -103 103 -103zM1571 188h-1250q-74 0 -74 76v38
q0 75 74 75h1267v48q0 30 -30 30h-1296v56h1306q84 0 84 -85v-156q0 -82 -81 -82zM337 322q-24 0 -24 -24v-29q0 -25 24 -25h1223q28 0 28 28v50h-1251z" />
    <glyph glyph-name="A" unicode="A" horiz-adv-x="1893" 
d="M1827 0h-142v288h-1476v-288h-143v542q0 80 39 119t120 39h1443q81 0 120 -39t39 -119v-542zM1624 576h-1355q-33 0 -46.5 -14t-13.5 -49v-101h1476v101q0 34 -14 48.5t-47 14.5z" />
    <glyph glyph-name="B" unicode="B" horiz-adv-x="1886" 
d="M1833 209v-56q0 -80 -36.5 -116.5t-117.5 -36.5h-1606v700h1606q81 0 117.5 -36.5t36.5 -116.5v-56q0 -67 -28 -100.5t-95 -40.5q67 -7 95 -41t28 -100zM1631 412q34 0 47 13.5t13 47.5v42q0 33 -13.5 47t-45.5 14h-1417v-164h1416zM215 288v-164h1417q32 0 45.5 14
t13.5 47v42q0 34 -13 47.5t-47 13.5h-1416z" />
    <glyph glyph-name="C" unicode="C" horiz-adv-x="1797" 
d="M217 0q-81 0 -119.5 39t-38.5 119v384q0 80 38.5 119t119.5 39h1535v-124h-1490q-34 0 -47.5 -14t-13.5 -49v-326q0 -35 13.5 -49t47.5 -14h1490v-124h-1535z" />
    <glyph glyph-name="D" unicode="D" horiz-adv-x="1886" 
d="M1614 700q107 0 163 -55.5t56 -163.5v-262q0 -107 -56 -163t-163 -56h-1541v700h1541zM1590 124q101 0 101 102v248q0 102 -101 102h-1375v-452h1375z" />
    <glyph glyph-name="E" unicode="E" horiz-adv-x="1855" 
d="M73 0v700h1737v-124h-1595v-164h1489v-124h-1489v-164h1595v-124h-1737z" />
    <glyph glyph-name="F" unicode="F" horiz-adv-x="1825" 
d="M73 0v700h1729v-124h-1587v-164h1481v-124h-1481v-288h-142z" />
    <glyph glyph-name="G" unicode="G" horiz-adv-x="1881" 
d="M1627 124q33 0 44.5 12t11.5 45v107h-868v124h1010v-266q0 -78 -34 -112t-113 -34h-1461q-81 0 -119.5 39t-38.5 119v384q0 80 38.5 119t119.5 39h1583v-124h-1538q-34 0 -47.5 -14t-13.5 -49v-326q0 -35 13.5 -49t47.5 -14h1365z" />
    <glyph glyph-name="H" unicode="H" horiz-adv-x="1920" 
d="M1705 0v288h-1490v-288h-142v700h142v-288h1490v288h142v-700h-142z" />
    <glyph glyph-name="I" unicode="I" horiz-adv-x="287" 
d="M73 0v700h142v-700h-142z" />
    <glyph glyph-name="J" unicode="J" horiz-adv-x="1868" 
d="M45 147v195h142v-161q0 -34 11.5 -45.5t44.5 -11.5h1355q34 0 47.5 14t13.5 49v513h142v-542q0 -158 -158 -158h-1451q-79 0 -113 34t-34 113z" />
    <glyph glyph-name="K" unicode="K" horiz-adv-x="1893" 
d="M1833 700v-194q0 -72 -30 -110.5t-106 -45.5q76 -7 106 -46t30 -110v-194h-142v220q0 36 -15 52t-51 16h-1410v-288h-142v700h142v-288h1410q36 0 51 16t15 52v220h142z" />
    <glyph glyph-name="L" unicode="L" horiz-adv-x="1816" 
d="M1792 124v-124h-1719v700h142v-576h1577z" />
    <glyph glyph-name="M" unicode="M" horiz-adv-x="2318" 
d="M1317 700h776q81 0 120 -39t39 -119v-542h-143v513q0 35 -13.5 49t-46.5 14h-755q-34 0 -49 -15.5t-15 -50.5v-510h-142v510q0 35 -15 50.5t-49 15.5h-755q-33 0 -46.5 -14t-13.5 -49v-513h-143v542q0 80 39 119t120 39h775q75 0 112.5 -29t46.5 -93q8 64 45.5 93
t112.5 29z" />
    <glyph glyph-name="N" unicode="N" horiz-adv-x="1893" 
d="M269 576q-33 0 -46.5 -14t-13.5 -49v-513h-143v542q0 80 39 119t120 39h1443q81 0 120 -39t39 -119v-542h-142v513q0 35 -13.5 49t-47.5 14h-1355z" />
    <glyph glyph-name="O" unicode="O" horiz-adv-x="1883" 
d="M217 0q-81 0 -119.5 39t-38.5 119v384q0 80 38.5 119t119.5 39h1449q81 0 119.5 -39t38.5 -119v-384q0 -80 -38.5 -119t-119.5 -39h-1449zM1682 187v326q0 34 -14 48.5t-47 14.5h-1359q-33 0 -47 -14.5t-14 -48.5v-326q0 -35 13.5 -49t47.5 -14h1359q33 0 47 14.5
t14 48.5z" />
    <glyph glyph-name="P" unicode="P" horiz-adv-x="1860" 
d="M73 0v700h1598q81 0 119 -38.5t38 -118.5v-99q0 -80 -38 -118t-119 -38h-1456v-288h-142zM1685 515q0 33 -13.5 47t-45.5 14h-1411v-164h1411q32 0 45.5 14t13.5 46v43z" />
    <glyph glyph-name="Q" unicode="Q" horiz-adv-x="1883" 
d="M217 0q-81 0 -119.5 39t-38.5 119v384q0 80 38.5 119t119.5 39h1449q81 0 119.5 -39t38.5 -119v-384q0 -80 -38.5 -119t-119.5 -39h-662v-135h-124v135h-663zM1682 187v326q0 34 -14 48.5t-47 14.5h-1359q-33 0 -47 -14.5t-14 -48.5v-326q0 -35 13.5 -49t47.5 -14h618
v139h124v-139h617q33 0 47 14.5t14 48.5z" />
    <glyph glyph-name="R" unicode="R" horiz-adv-x="1892" 
d="M1833 547v-56q0 -68 -29.5 -102t-100.5 -40q72 -8 101 -46.5t29 -108.5v-194h-142v220q0 36 -15 52t-51 16h-1410v-288h-142v700h1606q81 0 117.5 -36.5t36.5 -116.5zM1631 412q34 0 47 13.5t13 47.5v42q0 33 -13.5 47t-45.5 14h-1417v-164h1416z" />
    <glyph glyph-name="S" unicode="S" horiz-adv-x="1840" 
d="M215 288q-81 0 -119 38.5t-38 118.5v98q0 80 38 118.5t119 38.5h1550v-124h-1506q-32 0 -45.5 -14t-13.5 -47v-43q0 -32 13.5 -46t45.5 -14h1376q81 0 119 -38.5t38 -118.5v-98q0 -80 -38 -118.5t-119 -38.5h-1589v124h1545q32 0 45.5 14t13.5 47v43q0 32 -13.5 46
t-45.5 14h-1376z" />
    <glyph glyph-name="T" unicode="T" horiz-adv-x="1813" 
d="M1789 700v-124h-811v-576h-142v576h-812v124h1765z" />
    <glyph glyph-name="U" unicode="U" horiz-adv-x="1893" 
d="M225 0q-81 0 -120 39t-39 119v542h143v-513q0 -35 13.5 -49t46.5 -14h1355q34 0 47.5 14t13.5 49v513h142v-542q0 -80 -39 -119t-120 -39h-1443z" />
    <glyph glyph-name="V" unicode="V" horiz-adv-x="1882" 
d="M73 0v700h142v-576h1363q100 0 100 102v474h142v-481q0 -107 -56 -163t-163 -56h-1528z" />
    <glyph glyph-name="W" unicode="W" horiz-adv-x="2318" 
d="M2093 0h-776q-75 0 -112.5 29t-45.5 93q-9 -64 -46.5 -93t-112.5 -29h-775q-81 0 -120 39t-39 119v542h143v-513q0 -35 13.5 -49t46.5 -14h755q34 0 49 15.5t15 50.5v510h142v-510q0 -35 15 -50.5t49 -15.5h755q33 0 46.5 14t13.5 49v513h143v-542q0 -80 -39 -119
t-120 -39z" />
    <glyph glyph-name="X" unicode="X" horiz-adv-x="1884" 
d="M59 506v194h142v-220q0 -36 15 -52t51 -16h1350q36 0 51 16t15 52v220h142v-194q0 -72 -30 -110.5t-106 -45.5q76 -7 106 -46t30 -110v-194h-142v220q0 36 -15 52t-51 16h-1350q-36 0 -51 -16t-15 -52v-220h-142v194q0 71 30 110t106 46q-76 7 -106 45.5t-30 110.5z" />
    <glyph glyph-name="Y" unicode="Y" horiz-adv-x="1864" 
d="M1676 700h142v-254q0 -80 -38.5 -119t-118.5 -39h-658v-288h-142v288h-658q-81 0 -119.5 39t-38.5 119v254h142v-226q0 -34 14 -48t47 -14h1367q34 0 47.5 14t13.5 48v226z" />
    <glyph glyph-name="Z" unicode="Z" horiz-adv-x="1846" 
d="M1570 412q46 0 64.5 18t18.5 65v81h-1578v124h1721v-221q0 -191 -191 -191h-1332q-46 0 -64.5 -18t-18.5 -65v-81h1606v-124h-1749v221q0 191 191 191h1332z" />
    <glyph glyph-name="bracketleft" unicode="[" horiz-adv-x="373" 
d="M73 700h256v-106h-135v-568h135v-106h-256v780z" />
    <glyph glyph-name="backslash" unicode="\" horiz-adv-x="729" 
d="M184 700l518 -700h-158l-517 700h157z" />
    <glyph glyph-name="bracketright" unicode="]" horiz-adv-x="373" 
d="M44 700h256v-780h-256v106h135v568h-135v106z" />
    <glyph glyph-name="asciicircum" unicode="^" 
d="M931 715l873 -299v-125l-873 299l-872 -299v125z" />
    <glyph glyph-name="underscore" unicode="_" horiz-adv-x="959" 
d="M959 -38v-84h-959v84h959z" />
    <glyph glyph-name="grave" unicode="`" horiz-adv-x="476" 
d="M275 660l-223 106h182l178 -106h-137z" />
    <glyph glyph-name="a" unicode="a" horiz-adv-x="1676" 
d="M1487 357v65q0 62 -62 62h-1355v119h1399q80 0 117 -37.5t37 -118.5v-291q0 -80 -37 -118t-117 -38h-1290q-71 0 -104.5 34.5t-33.5 107.5v73q0 73 33.5 107.5t104.5 34.5h1308zM1487 246h-1260q-26 0 -37.5 -11.5t-11.5 -37.5v-28q0 -26 11.5 -38t37.5 -12h1198
q62 0 62 62v65z" />
    <glyph glyph-name="b" unicode="b" horiz-adv-x="1677" 
d="M59 156v614h137v-247q11 41 42.5 60.5t89.5 19.5h1142q79 0 116.5 -38t37.5 -118v-291q0 -80 -37.5 -118t-116.5 -38h-1256q-80 0 -117.5 38t-37.5 118zM196 422v-241q0 -32 14.5 -47t47.5 -15h1167q33 0 47.5 15t14.5 47v241q0 32 -14.5 47t-47.5 15h-1167
q-33 0 -47.5 -15t-14.5 -47z" />
    <glyph glyph-name="c" unicode="c" horiz-adv-x="1611" 
d="M208 0q-80 0 -117.5 38t-37.5 118v291q0 81 37 118.5t118 37.5h1361v-119h-1317q-62 0 -62 -62v-241q0 -62 62 -62h1317v-119h-1361z" />
    <glyph glyph-name="d" unicode="d" horiz-adv-x="1677" 
d="M1617 770v-614q0 -80 -37.5 -118t-117.5 -38h-1255q-79 0 -116.5 38t-37.5 118v291q0 80 37.5 118t116.5 38h1142q58 0 89 -19.5t42 -60.5v247h137zM1480 181v241q0 32 -14.5 47t-46.5 15h-1167q-33 0 -47.5 -15t-14.5 -47v-241q0 -32 14.5 -47t47.5 -15h1167
q32 0 46.5 15t14.5 47z" />
    <glyph glyph-name="e" unicode="e" horiz-adv-x="1676" 
d="M1636 388q0 -73 -33.5 -107.5t-104.5 -34.5h-1308v-65q0 -33 15 -47.5t47 -14.5h1354v-119h-1398q-82 0 -118.5 40t-36.5 123v284q0 80 37.5 118t117.5 38h1289q71 0 105 -34.5t34 -107.5v-73zM1450 484h-1198q-35 0 -48.5 -16.5t-13.5 -55.5v-55h1260q26 0 37.5 11
t11.5 38v26q0 28 -11 40t-38 12z" />
    <glyph glyph-name="f" unicode="f" horiz-adv-x="1591" 
d="M272 484q-40 0 -58 -17.5t-18 -58.5v-47h1306v-119h-1306v-242h-137v424q0 92 44 135.5t136 43.5h1328v-119h-1295z" />
    <glyph glyph-name="g" unicode="g" horiz-adv-x="1677" 
d="M1419 166q32 0 46.5 15t14.5 47v194q0 32 -14.5 47t-46.5 15h-1167q-62 0 -62 -62v-194q0 -62 62 -62h1167zM1349 47h-1141q-80 0 -117.5 37.5t-37.5 117.5v245q0 80 37.5 118t117.5 38h1254q81 0 118 -37.5t37 -118.5v-403q0 -109 -50.5 -160t-160.5 -51h-1313v119h1296
q48 0 69.5 21t21.5 71v82q-11 -41 -42 -60t-89 -19z" />
    <glyph glyph-name="h" unicode="h" horiz-adv-x="1685" 
d="M1488 422q0 32 -14.5 47t-47.5 15h-1162q-62 0 -62 -62v-422h-136v770h136v-247q11 41 42.5 60.5t89.5 19.5h1137q80 0 117 -37.5t37 -118.5v-447h-137v422z" />
    <glyph glyph-name="i" unicode="i" horiz-adv-x="382" 
d="M258 119h102v-119h-144q-81 0 -117 36.5t-36 115.5v451h136v-425q0 -32 13.5 -45.5t45.5 -13.5zM218 757v-90h-174v90h174z" />
    <glyph glyph-name="j" unicode="j" horiz-adv-x="287" 
d="M-33 -48h58q31 0 43.5 12.5t12.5 44.5v594h137v-618q0 -79 -36 -115.5t-117 -36.5h-98v119zM63 667v90h174v-90h-174z" />
    <glyph glyph-name="k" unicode="k" horiz-adv-x="1675" 
d="M1487 413v190h137v-166q0 -62 -26.5 -95.5t-86.5 -40.5q60 -7 86.5 -40t26.5 -95v-166h-137v190q0 52 -53 52h-1232v-242h-136v770h136v-409h1232q53 0 53 52z" />
    <glyph glyph-name="l" unicode="l" horiz-adv-x="378" 
d="M255 119h101v-119h-144q-80 0 -116.5 36.5t-36.5 115.5v618h137v-592q0 -32 14 -45.5t45 -13.5z" />
    <glyph glyph-name="m" unicode="m" horiz-adv-x="2067" 
d="M1034 486q7 62 41.5 89.5t105.5 27.5h673q79 0 116.5 -38t37.5 -118v-447h-137v422q0 33 -14 47.5t-47 14.5h-650q-58 0 -58 -59v-425h-137v425q0 59 -58 59h-649q-33 0 -47.5 -15t-14.5 -47v-422h-137v447q0 80 37.5 118t116.5 38h673q72 0 106 -27.5t42 -89.5z" />
    <glyph glyph-name="n" unicode="n" horiz-adv-x="1677" 
d="M59 0v447q0 80 37.5 118t116.5 38h1251q79 0 116.5 -38t37.5 -118v-447h-137v422q0 32 -14.5 47t-47.5 15h-1161q-33 0 -47.5 -15t-14.5 -47v-422h-137z" />
    <glyph glyph-name="o" unicode="o" horiz-adv-x="1669" 
d="M1462 603q79 0 116.5 -38t37.5 -118v-291q0 -80 -37.5 -118t-116.5 -38h-1254q-80 0 -117.5 38t-37.5 118v291q0 81 37 118.5t118 37.5h1254zM1418 119q32 0 46.5 15t14.5 47v241q0 32 -14.5 47t-46.5 15h-1166q-33 0 -47.5 -15t-14.5 -47v-241q0 -32 14.5 -47t47.5 -15
h1166z" />
    <glyph glyph-name="p" unicode="p" horiz-adv-x="1677" 
d="M59 -167v614q0 80 37.5 118t117.5 38h1256q79 0 116.5 -38t37.5 -118v-291q0 -80 -37.5 -118t-116.5 -38h-1142q-59 0 -90 19t-42 61v-247h-137zM196 422v-241q0 -32 14.5 -47t47.5 -15h1167q33 0 47.5 15t14.5 47v241q0 32 -14.5 47t-47.5 15h-1167q-33 0 -47.5 -15
t-14.5 -47z" />
    <glyph glyph-name="q" unicode="q" horiz-adv-x="1677" 
d="M1617 447v-614h-137v247q-11 -42 -41.5 -61t-89.5 -19h-1142q-79 0 -116.5 38t-37.5 118v291q0 80 37.5 118t116.5 38h1255q80 0 117.5 -38t37.5 -118zM1480 181v241q0 32 -14.5 47t-46.5 15h-1167q-33 0 -47.5 -15t-14.5 -47v-241q0 -32 14.5 -47t47.5 -15h1167
q32 0 46.5 15t14.5 47z" />
    <glyph glyph-name="r" unicode="r" horiz-adv-x="1498" 
d="M1474 603v-119h-1216q-62 0 -62 -62v-422h-137v447q0 80 37.5 118t117.5 38h1260z" />
    <glyph glyph-name="s" unicode="s" horiz-adv-x="1645" 
d="M1575 484h-1344q-26 0 -37.5 -11.5t-11.5 -37.5v-29q0 -26 11.5 -37.5t37.5 -11.5h1236q71 0 104.5 -34.5t33.5 -107.5v-73q0 -73 -34 -107.5t-105 -34.5h-1421v119h1374q26 0 37.5 11.5t11.5 37.5v29q0 26 -11.5 37.5t-37.5 11.5h-1236q-71 0 -104.5 34.5t-33.5 107.5
v73q0 73 33.5 107.5t104.5 34.5h1392v-119z" />
    <glyph glyph-name="t" unicode="t" horiz-adv-x="1530" 
d="M215 0q-81 0 -118.5 38t-37.5 118v614h137v-167h1291v-119h-1291v-303q0 -32 14.5 -47t47.5 -15h1229v-119h-1272z" />
    <glyph glyph-name="u" unicode="u" horiz-adv-x="1677" 
d="M1419 119q33 0 47.5 15t14.5 47v422h137v-447q0 -80 -37.5 -118t-116.5 -38h-1251q-79 0 -116.5 38t-37.5 118v447h137v-422q0 -32 14.5 -47t47.5 -15h1161z" />
    <glyph glyph-name="v" unicode="v" horiz-adv-x="1671" 
d="M1614 603v-398q0 -106 -49 -155.5t-156 -49.5h-1343v603h136v-484h1184q49 0 70 20.5t21 70.5v393h137z" />
    <glyph glyph-name="w" unicode="w" horiz-adv-x="2067" 
d="M1034 117q-8 -62 -42 -89.5t-106 -27.5h-673q-79 0 -116.5 38t-37.5 118v447h137v-422q0 -32 14.5 -47t47.5 -15h649q58 0 58 59v425h137v-425q0 -59 58 -59h650q33 0 47 14.5t14 47.5v422h137v-447q0 -80 -37.5 -118t-116.5 -38h-673q-71 0 -105.5 27.5t-41.5 89.5z" />
    <glyph glyph-name="x" unicode="x" horiz-adv-x="1683" 
d="M1495 413v190h137v-166q0 -62 -26.5 -95.5t-86.5 -40.5q60 -7 86.5 -40t26.5 -95v-166h-137v190q0 52 -53 52h-1201q-53 0 -53 -52v-190h-137v166q0 62 26.5 95t86.5 40q-60 7 -86.5 40.5t-26.5 95.5v166h137v-190q0 -52 53 -52h1201q53 0 53 52z" />
    <glyph glyph-name="y" unicode="y" horiz-adv-x="1685" 
d="M1408 -167h-1308v119h1290q49 0 70.5 21t21.5 71v82q-11 -41 -42 -60t-89 -19h-1137q-80 0 -117.5 37.5t-37.5 117.5v401h137v-375q0 -62 62 -62h1162q33 0 47.5 15t14.5 47v375h137v-559q0 -109 -51 -160t-160 -51z" />
    <glyph glyph-name="z" unicode="z" horiz-adv-x="1651" 
d="M247 246q-36 0 -52 -16.5t-16 -51.5v-59h1428v-119h-1565v177q0 180 180 180h1180q36 0 52 16t16 51v60h-1405v119h1542v-177q0 -180 -180 -180h-1180z" />
    <glyph glyph-name="braceleft" unicode="{" horiz-adv-x="391" 
d="M229 525v-99q0 -58 -23.5 -86.5t-77.5 -29.5q54 -1 77.5 -29.5t23.5 -86.5v-99q0 -34 14 -48t47 -14h61v-113h-97q-80 0 -117 37t-37 117v137q0 23 -8.5 33t-30.5 10h-33v112h33q22 0 30.5 10t8.5 33v137q0 80 37 117t117 37h97v-113h-61q-33 0 -47 -14t-14 -48z" />
    <glyph glyph-name="bar" unicode="|" horiz-adv-x="312" 
d="M86 -167v907h140v-907h-140z" />
    <glyph glyph-name="braceright" unicode="}" horiz-adv-x="391" 
d="M162 426v99q0 34 -14 48t-47 14h-61v113h97q80 0 117 -37t37 -117v-137q0 -23 8.5 -33t30.5 -10h33v-112h-33q-22 0 -30.5 -10t-8.5 -33v-137q0 -80 -37 -117t-117 -37h-97v113h61q33 0 47 14t14 48v99q0 58 23.5 86.5t77.5 29.5q-54 1 -77.5 29.5t-23.5 86.5z" />
    <glyph glyph-name="asciitilde" unicode="~" 
d="M59 263v124q168 77 395 77q156 0 479 -50.5t479 -50.5q228 0 392 76v-125q-169 -77 -396 -77q-157 0 -480.5 51t-478.5 51q-224 0 -390 -76z" />
    <glyph glyph-name="uni00A0" unicode="&#xa0;" horiz-adv-x="495" 
 />
    <glyph glyph-name="exclamdown" unicode="&#xa1;" horiz-adv-x="316" 
d="M70 526v104h176v-104h-176zM87 -70v223q0 153 17 278h108q17 -125 17 -278v-223h-142z" />
    <glyph glyph-name="cent" unicode="&#xa2;" 
d="M925 -40v90h-712q-80 0 -117 38t-37 118v288q0 81 37 118.5t117 37.5h712v90h124v-90h767v-119h-767v-362h767v-119h-767v-90h-124zM257 169h668v362h-668q-62 0 -62 -62v-238q0 -62 62 -62z" />
    <glyph glyph-name="sterling" unicode="&#xa3;" 
d="M330 124h1489v-124h-1775v124h143v164h-143v124h143v131q0 80 38.5 118.5t119.5 38.5h1403v-124h-1358q-33 0 -46.5 -13.5t-13.5 -47.5v-103h1418v-124h-1418v-164z" />
    <glyph glyph-name="currency" unicode="&#xa4;" 
d="M102 495q0 81 37 118.5t118 37.5h613v89h124v-89h612q81 0 118 -37.5t37 -118.5v-85h77v-120h-77v-86q0 -81 -37 -118.5t-118 -37.5h-612v-88h-124v88h-613q-81 0 -118 37.5t-37 118.5v86h-77v120h77v85zM1562 528h-1262q-32 0 -46.5 -14.5t-14.5 -46.5v-235
q0 -32 14.5 -46.5t46.5 -14.5h1262q62 0 62 61v235q0 61 -62 61z" />
    <glyph glyph-name="yen" unicode="&#xa5;" 
d="M1672 700h142v-157q0 -80 -38.5 -119t-119.5 -39h-654v-123h790v-124h-790v-138h-142v138h-789v124h789v123h-654q-81 0 -119.5 39t-38.5 119v157h142v-129q0 -34 13.5 -48t47.5 -14h1359q34 0 48 14t14 48v129z" />
    <glyph glyph-name="brokenbar" unicode="&#xa6;" horiz-adv-x="312" 
d="M86 -167v394h140v-394h-140zM86 347v393h140v-393h-140z" />
    <glyph glyph-name="section" unicode="&#xa7;" horiz-adv-x="1837" 
d="M235 464h1426q66 0 97 -31t31 -97v-53q0 -53 -22.5 -83t-77.5 -37q55 -6 77.5 -35.5t22.5 -83.5v-34q0 -73 -34.5 -107.5t-107.5 -34.5h-1572v119h1529q28 0 40 12t12 40v16q0 26 -11.5 37.5t-38.5 11.5h-1426q-66 0 -97 31t-31 97v53q0 54 22 83.5t78 35.5q-56 6 -78 36
t-22 84v34q0 73 34.5 107.5t107.5 34.5h1572v-119h-1529q-28 0 -39.5 -12t-11.5 -40v-15q0 -27 11 -38.5t38 -11.5zM1601 345h-1362q-27 0 -38 -11.5t-11 -37.5v-23q0 -27 11 -38.5t39 -11.5h1363q26 0 37.5 11.5t11.5 37.5v23q0 27 -12 38.5t-39 11.5z" />
    <glyph glyph-name="dieresis" unicode="&#xa8;" horiz-adv-x="476" 
d="M143 755v-88h-148v88h148zM481 755v-88h-148v88h148z" />
    <glyph glyph-name="copyright" unicode="&#xa9;" horiz-adv-x="1895" 
d="M317 188q-43 0 -62 20t-19 63v157q0 43 19 63t62 20h1324v-56h-1314q-27 0 -27 -27v-157q0 -27 27 -27h1314v-56h-1324zM226 0q-86 0 -126.5 41t-40.5 125v368q0 84 40.5 125t126.5 41h1443q86 0 126.5 -41t40.5 -125v-368q0 -84 -40.5 -125t-126.5 -41h-1443zM230 60
h1435q103 0 103 103v374q0 103 -103 103h-1435q-103 0 -103 -103v-374q0 -103 103 -103z" />
    <glyph glyph-name="ordfeminine" unicode="&#xaa;" horiz-adv-x="1360" 
d="M1193 485v67q0 24 -10 33.5t-32 9.5h-1089v105h1126q64 0 94 -30.5t30 -94.5v-284q0 -64 -30 -94.5t-94 -30.5h-1024q-64 0 -94.5 30.5t-30.5 94.5v70q0 63 30.5 93.5t94.5 30.5h1029zM158 338v-24q0 -24 10 -33.5t33 -9.5h950q22 0 32 9.5t10 33.5v67h-992
q-23 0 -33 -10t-10 -33zM671 124l95 -124h-189z" />
    <glyph glyph-name="guillemotleft" unicode="&#xab;" horiz-adv-x="675" 
d="M378 51h-151l-201 249l201 249h151l-204 -249zM648 51h-151l-201 249l201 249h151l-204 -249z" />
    <glyph glyph-name="logicalnot" unicode="&#xac;" 
d="M59 291v118h1745v-346h-118v228h-1627z" />
    <glyph glyph-name="uni00AD" unicode="&#xad;" horiz-adv-x="729" 
d="M687 388v-122h-646v122h646z" />
    <glyph glyph-name="registered" unicode="&#xae;" horiz-adv-x="1895" 
d="M226 0q-86 0 -126.5 41t-40.5 125v368q0 84 40.5 125t126.5 41h1443q86 0 126.5 -41t40.5 -125v-368q0 -84 -40.5 -125t-126.5 -41h-1443zM230 60h1435q103 0 103 103v374q0 103 -103 103h-1435q-103 0 -103 -103v-374q0 -103 103 -103zM1652 409q0 -54 -60 -60
q60 -6 60 -67v-94h-65v109q0 25 -23 25h-1253v-134h-65v323h1343q63 0 63 -64v-38zM1587 435q0 20 -20 20h-1256v-78h1256q20 0 20 20v38z" />
    <glyph glyph-name="macron" unicode="&#xaf;" horiz-adv-x="476" 
d="M450 676h-424v73h424v-73z" />
    <glyph glyph-name="degree" unicode="&#xb0;" horiz-adv-x="870" 
d="M37 559q0 141 150 141h496q150 0 150 -141v-109q0 -141 -150 -141h-496q-150 0 -150 141v109zM225 594q-38 0 -51 -13t-13 -50v-54q0 -36 13 -49.5t51 -13.5h421q37 0 50 13.5t13 49.5v54q0 37 -13 50t-50 13h-421z" />
    <glyph glyph-name="plusminus" unicode="&#xb1;" 
d="M59 291v118h813v228h118v-228h814v-118h-814v-173h814v-118h-1745v118h813v173h-813z" />
    <glyph glyph-name="twosuperior" unicode="&#xb2;" horiz-adv-x="1092" 
d="M934 530v20q0 25 -10 35.5t-34 10.5h-827v104h867q63 0 93 -30.5t30 -93.5v-70q0 -64 -30 -94.5t-93 -30.5h-703q-37 0 -51 -13.5t-14 -50.5v-46h891v-105h-1010v169q0 151 151 151h696q24 0 34 9.5t10 34.5z" />
    <glyph glyph-name="threesuperior" unicode="&#xb3;" horiz-adv-x="1092" 
d="M1049 578v-37q0 -48 -20.5 -75t-76.5 -33q56 -6 76.5 -33t20.5 -75v-37q0 -63 -29 -92.5t-92 -29.5h-889v105h847q24 0 34 10t10 35v20q0 24 -10 34.5t-33 10.5h-764v104h764q43 0 43 45v20q0 25 -10 35t-34 10h-847v105h889q63 0 92 -29.5t29 -92.5z" />
    <glyph glyph-name="acute" unicode="&#xb4;" horiz-adv-x="476" 
d="M427 766l-227 -106h-137l176 106h188z" />
    <glyph glyph-name="uni00B5" unicode="&#xb5;" horiz-adv-x="1685" 
d="M264 119h1162q33 0 47.5 15t14.5 47v422h137v-447q0 -81 -37 -118.5t-117 -37.5h-1137q-58 0 -89.5 19.5t-42.5 60.5v-247h-136v770h136v-422q0 -62 62 -62z" />
    <glyph glyph-name="paragraph" unicode="&#xb6;" horiz-adv-x="1685" 
d="M1612 700v-832h-129v713h-150v-713h-129v407h-1007q-84 0 -124 40.5t-40 123.5v97q0 83 40 123.5t124 40.5h1415z" />
    <glyph glyph-name="periodcentered" unicode="&#xb7;" horiz-adv-x="311" 
d="M241 409v-118h-170v118h170z" />
    <glyph glyph-name="cedilla" unicode="&#xb8;" horiz-adv-x="479" 
d="M219 -42h134q52 0 76 -13.5t24 -47.5q0 -42 -31.5 -61.5t-105.5 -19.5h-290v78h280q46 0 46 23q0 18 -32 18h-137l27 65h25z" />
    <glyph glyph-name="onesuperior" unicode="&#xb9;" horiz-adv-x="1092" 
d="M106 166v105h464v324h-464v105h583v-429h348v-105h-931z" />
    <glyph glyph-name="ordmasculine" unicode="&#xba;" horiz-adv-x="1369" 
d="M48 291v284q0 64 30 94.5t94 30.5h1025q64 0 94.5 -30.5t30.5 -94.5v-284q0 -64 -30.5 -94.5t-94.5 -30.5h-1025q-64 0 -94 30.5t-30 94.5zM1161 271q22 0 31.5 9.5t9.5 33.5v238q0 24 -9.5 33.5t-31.5 9.5h-952q-22 0 -32 -9.5t-10 -33.5v-238q0 -24 10 -33.5t32 -9.5
h952zM680 124l95 -124h-189z" />
    <glyph glyph-name="guillemotright" unicode="&#xbb;" horiz-adv-x="675" 
d="M178 51h-151l204 249l-204 249h151l201 -249zM448 51h-151l204 249l-204 249h151l201 -249z" />
    <glyph glyph-name="onequarter" unicode="&#xbc;" horiz-adv-x="2542" 
d="M971 0l471 700h129l-471 -700h-129zM106 166v105h464v324h-464v105h583v-429h348v-105h-931zM2358 319v215h119v-534h-119v215h-743q-64 0 -94.5 30.5t-30.5 93.5v195h119v-171q0 -44 44 -44h705z" />
    <glyph glyph-name="onehalf" unicode="&#xbd;" horiz-adv-x="2542" 
d="M971 0l471 700h129l-471 -700h-129zM106 166v105h464v324h-464v105h583v-429h348v-105h-931zM2384 364v20q0 25 -10 35.5t-34 10.5h-827v104h867q63 0 93 -30.5t30 -93.5v-70q0 -64 -30 -94.5t-93 -30.5h-703q-37 0 -51 -13.5t-14 -50.5v-46h891v-105h-1010v169
q0 151 151 151h696q24 0 34 9.5t10 34.5z" />
    <glyph glyph-name="threequarters" unicode="&#xbe;" horiz-adv-x="2542" 
d="M971 0l471 700h129l-471 -700h-129zM2358 319v215h119v-534h-119v215h-743q-64 0 -94.5 30.5t-30.5 93.5v195h119v-171q0 -44 44 -44h705zM1049 578v-37q0 -48 -20.5 -75t-76.5 -33q56 -6 76.5 -33t20.5 -75v-37q0 -63 -29 -92.5t-92 -29.5h-889v105h847q24 0 34 10
t10 35v20q0 24 -10 34.5t-33 10.5h-764v104h764q43 0 43 45v20q0 25 -10 35t-34 10h-847v105h889q63 0 92 -29.5t29 -92.5z" />
    <glyph glyph-name="questiondown" unicode="&#xbf;" horiz-adv-x="1822" 
d="M175 158v-43q0 -33 13.5 -47t45.5 -14h1565v-124h-1609q-81 0 -119 38.5t-38 118.5v98q0 80 38 118.5t119 38.5h695q29 0 40 10.5t11 40.5v45h142v-84q0 -70 -32.5 -103t-102.5 -33h-709q-32 0 -45.5 -14t-13.5 -46zM919 526v104h176v-104h-176z" />
    <glyph glyph-name="Agrave" unicode="&#xc0;" horiz-adv-x="1893" 
d="M1827 0h-142v288h-1476v-288h-143v542q0 80 39 119t120 39h1443q81 0 120 -39t39 -119v-542zM1624 576h-1355q-33 0 -46.5 -14t-13.5 -49v-101h1476v101q0 34 -14 48.5t-47 14.5zM932 754l-223 106h182l178 -106h-137z" />
    <glyph glyph-name="Aacute" unicode="&#xc1;" horiz-adv-x="1893" 
d="M1827 0h-142v288h-1476v-288h-143v542q0 80 39 119t120 39h1443q81 0 120 -39t39 -119v-542zM1624 576h-1355q-33 0 -46.5 -14t-13.5 -49v-101h1476v101q0 34 -14 48.5t-47 14.5zM1186 860l-227 -106h-137l176 106h188z" />
    <glyph glyph-name="Acircumflex" unicode="&#xc2;" horiz-adv-x="1893" 
d="M1827 0h-142v288h-1476v-288h-143v542q0 80 39 119t120 39h1443q81 0 120 -39t39 -119v-542zM1624 576h-1355q-33 0 -46.5 -14t-13.5 -49v-101h1476v101q0 34 -14 48.5t-47 14.5zM946 810l-133 -56h-125l169 106h178l169 -106h-125z" />
    <glyph glyph-name="Atilde" unicode="&#xc3;" horiz-adv-x="1893" 
d="M1827 0h-142v288h-1476v-288h-143v542q0 80 39 119t120 39h1443q81 0 120 -39t39 -119v-542zM1624 576h-1355q-33 0 -46.5 -14t-13.5 -49v-101h1476v101q0 34 -14 48.5t-47 14.5zM734 744v82q56 44 116 44q36 0 102 -23.5t99 -23.5q56 0 106 46v-82q-58 -47 -118 -47
q-37 0 -103 24.5t-99 24.5q-54 0 -103 -45z" />
    <glyph glyph-name="Adieresis" unicode="&#xc4;" horiz-adv-x="1893" 
d="M1827 0h-142v288h-1476v-288h-143v542q0 80 39 119t120 39h1443q81 0 120 -39t39 -119v-542zM1624 576h-1355q-33 0 -46.5 -14t-13.5 -49v-101h1476v101q0 34 -14 48.5t-47 14.5zM851 849v-88h-148v88h148zM1189 849v-88h-148v88h148z" />
    <glyph glyph-name="Aring" unicode="&#xc5;" horiz-adv-x="1893" 
d="M1827 0h-142v288h-1476v-288h-143v542q0 80 39 119t120 39h1443q81 0 120 -39t39 -119v-542zM1624 576h-1355q-33 0 -46.5 -14t-13.5 -49v-101h1476v101q0 34 -14 48.5t-47 14.5zM841 822q0 -25 29 -25h152q28 0 28 25t-28 25h-152q-29 0 -29 -25zM1013 748h-134
q-50 0 -70.5 18.5t-20.5 55.5t20.5 55.5t70.5 18.5h134q50 0 70.5 -18.5t20.5 -55.5t-20.5 -55.5t-70.5 -18.5z" />
    <glyph glyph-name="AE" unicode="&#xc6;" horiz-adv-x="2885" 
d="M1392 0v288h-1183v-288h-143v542q0 80 39 119t120 39h2615v-124h-1306v-164h1200v-124h-1200v-164h1306v-124h-1448zM269 576q-33 0 -46.5 -14t-13.5 -49v-101h1183v164h-1123z" />
    <glyph glyph-name="Ccedilla" unicode="&#xc7;" horiz-adv-x="1797" 
d="M903 0h-686q-81 0 -119.5 39t-38.5 119v384q0 80 38.5 119t119.5 39h1535v-124h-1490q-34 0 -47.5 -14t-13.5 -49v-326q0 -35 13.5 -49t47.5 -14h1490v-124h-824l-16 -42h134q52 0 76 -13.5t24 -47.5q0 -42 -31.5 -61.5t-105.5 -19.5h-290v78h280q46 0 46 23q0 18 -32 18
h-137z" />
    <glyph glyph-name="Egrave" unicode="&#xc8;" horiz-adv-x="1855" 
d="M73 0v700h1737v-124h-1595v-164h1489v-124h-1489v-164h1595v-124h-1737zM939 754l-223 106h182l178 -106h-137z" />
    <glyph glyph-name="Eacute" unicode="&#xc9;" horiz-adv-x="1855" 
d="M73 0v700h1737v-124h-1595v-164h1489v-124h-1489v-164h1595v-124h-1737zM1190 860l-227 -106h-137l176 106h188z" />
    <glyph glyph-name="Ecircumflex" unicode="&#xca;" horiz-adv-x="1855" 
d="M73 0v700h1737v-124h-1595v-164h1489v-124h-1489v-164h1595v-124h-1737zM953 810l-133 -56h-125l169 106h178l169 -106h-125z" />
    <glyph glyph-name="Edieresis" unicode="&#xcb;" horiz-adv-x="1855" 
d="M73 0v700h1737v-124h-1595v-164h1489v-124h-1489v-164h1595v-124h-1737zM858 849v-88h-148v88h148zM1196 849v-88h-148v88h148z" />
    <glyph glyph-name="Igrave" unicode="&#xcc;" horiz-adv-x="287" 
d="M73 0v700h142v-700h-142zM138 754l-223 106h182l178 -106h-137z" />
    <glyph glyph-name="Iacute" unicode="&#xcd;" horiz-adv-x="287" 
d="M73 0v700h142v-700h-142zM374 860l-227 -106h-137l176 106h188z" />
    <glyph glyph-name="Icircumflex" unicode="&#xce;" horiz-adv-x="287" 
d="M73 0v700h142v-700h-142zM144 810l-133 -56h-125l169 106h178l169 -106h-125z" />
    <glyph glyph-name="Idieresis" unicode="&#xcf;" horiz-adv-x="287" 
d="M346 849v-88h-148v88h148zM89 849v-88h-147v88h147zM73 0v700h142v-700h-142z" />
    <glyph glyph-name="Eth" unicode="&#xd0;" horiz-adv-x="1886" 
d="M1614 700q107 0 163 -55.5t56 -163.5v-262q0 -107 -56 -163t-163 -56h-1541v288h-66v124h66v288h1541zM1590 124q101 0 101 102v248q0 102 -101 102h-1375v-164h246v-124h-246v-164h1375z" />
    <glyph glyph-name="Ntilde" unicode="&#xd1;" horiz-adv-x="1893" 
d="M269 576q-33 0 -46.5 -14t-13.5 -49v-513h-143v542q0 80 39 119t120 39h1443q81 0 120 -39t39 -119v-542h-142v513q0 35 -13.5 49t-47.5 14h-1355zM734 744v82q56 44 116 44q36 0 102 -23.5t99 -23.5q56 0 106 46v-82q-58 -47 -118 -47q-37 0 -103 24.5t-99 24.5
q-54 0 -103 -45z" />
    <glyph glyph-name="Ograve" unicode="&#xd2;" horiz-adv-x="1883" 
d="M217 0q-81 0 -119.5 39t-38.5 119v384q0 80 38.5 119t119.5 39h1449q81 0 119.5 -39t38.5 -119v-384q0 -80 -38.5 -119t-119.5 -39h-1449zM1682 187v326q0 34 -14 48.5t-47 14.5h-1359q-33 0 -47 -14.5t-14 -48.5v-326q0 -35 13.5 -49t47.5 -14h1359q33 0 47 14.5
t14 48.5zM927 754l-223 106h182l178 -106h-137z" />
    <glyph glyph-name="Oacute" unicode="&#xd3;" horiz-adv-x="1883" 
d="M217 0q-81 0 -119.5 39t-38.5 119v384q0 80 38.5 119t119.5 39h1449q81 0 119.5 -39t38.5 -119v-384q0 -80 -38.5 -119t-119.5 -39h-1449zM1682 187v326q0 34 -14 48.5t-47 14.5h-1359q-33 0 -47 -14.5t-14 -48.5v-326q0 -35 13.5 -49t47.5 -14h1359q33 0 47 14.5
t14 48.5zM1181 860l-227 -106h-137l176 106h188z" />
    <glyph glyph-name="Ocircumflex" unicode="&#xd4;" horiz-adv-x="1883" 
d="M217 0q-81 0 -119.5 39t-38.5 119v384q0 80 38.5 119t119.5 39h1449q81 0 119.5 -39t38.5 -119v-384q0 -80 -38.5 -119t-119.5 -39h-1449zM1682 187v326q0 34 -14 48.5t-47 14.5h-1359q-33 0 -47 -14.5t-14 -48.5v-326q0 -35 13.5 -49t47.5 -14h1359q33 0 47 14.5
t14 48.5zM941 810l-133 -56h-125l169 106h178l169 -106h-125z" />
    <glyph glyph-name="Otilde" unicode="&#xd5;" horiz-adv-x="1883" 
d="M217 0q-81 0 -119.5 39t-38.5 119v384q0 80 38.5 119t119.5 39h1449q81 0 119.5 -39t38.5 -119v-384q0 -80 -38.5 -119t-119.5 -39h-1449zM1682 187v326q0 34 -14 48.5t-47 14.5h-1359q-33 0 -47 -14.5t-14 -48.5v-326q0 -35 13.5 -49t47.5 -14h1359q33 0 47 14.5
t14 48.5zM729 744v82q56 44 116 44q37 0 102 -23.5t99 -23.5q56 0 106 46v-82q-58 -47 -118 -47q-37 0 -103 24.5t-99 24.5q-54 0 -103 -45z" />
    <glyph glyph-name="Odieresis" unicode="&#xd6;" horiz-adv-x="1883" 
d="M217 0q-81 0 -119.5 39t-38.5 119v384q0 80 38.5 119t119.5 39h1449q81 0 119.5 -39t38.5 -119v-384q0 -80 -38.5 -119t-119.5 -39h-1449zM1682 187v326q0 34 -14 48.5t-47 14.5h-1359q-33 0 -47 -14.5t-14 -48.5v-326q0 -35 13.5 -49t47.5 -14h1359q33 0 47 14.5
t14 48.5zM846 849v-88h-148v88h148zM1184 849v-88h-148v88h148z" />
    <glyph glyph-name="multiply" unicode="&#xd7;" 
d="M1069 291l173 -228h-141l-169 227l-171 -227h-141l172 228h-733v118h733l-172 228h141l171 -228l169 228h141l-173 -228h735v-118h-735z" />
    <glyph glyph-name="Oslash" unicode="&#xd8;" horiz-adv-x="1883" 
d="M217 0q-81 0 -119.5 39t-38.5 119v384q0 80 38.5 119t119.5 39h1449q81 0 119.5 -39t38.5 -119v-384q0 -80 -38.5 -119t-119.5 -39h-1449zM500 124h1121q33 0 47 14.5t14 48.5v326q0 53 -38 61zM237 126l1143 450h-1118q-33 0 -47 -14.5t-14 -48.5v-326q0 -53 36 -61z
" />
    <glyph glyph-name="Ugrave" unicode="&#xd9;" horiz-adv-x="1893" 
d="M225 0q-81 0 -120 39t-39 119v542h143v-513q0 -35 13.5 -49t46.5 -14h1355q34 0 47.5 14t13.5 49v513h142v-542q0 -80 -39 -119t-120 -39h-1443zM932 754l-223 106h182l178 -106h-137z" />
    <glyph glyph-name="Uacute" unicode="&#xda;" horiz-adv-x="1893" 
d="M225 0q-81 0 -120 39t-39 119v542h143v-513q0 -35 13.5 -49t46.5 -14h1355q34 0 47.5 14t13.5 49v513h142v-542q0 -80 -39 -119t-120 -39h-1443zM1182 860l-227 -106h-137l176 106h188z" />
    <glyph glyph-name="Ucircumflex" unicode="&#xdb;" horiz-adv-x="1893" 
d="M225 0q-81 0 -120 39t-39 119v542h143v-513q0 -35 13.5 -49t46.5 -14h1355q34 0 47.5 14t13.5 49v513h142v-542q0 -80 -39 -119t-120 -39h-1443zM946 810l-133 -56h-125l169 106h178l169 -106h-125z" />
    <glyph glyph-name="Udieresis" unicode="&#xdc;" horiz-adv-x="1893" 
d="M225 0q-81 0 -120 39t-39 119v542h143v-513q0 -35 13.5 -49t46.5 -14h1355q34 0 47.5 14t13.5 49v513h142v-542q0 -80 -39 -119t-120 -39h-1443zM851 849v-88h-148v88h148zM1189 849v-88h-148v88h148z" />
    <glyph glyph-name="Yacute" unicode="&#xdd;" horiz-adv-x="1864" 
d="M1676 700h142v-254q0 -80 -38.5 -119t-118.5 -39h-658v-288h-142v288h-658q-81 0 -119.5 39t-38.5 119v254h142v-226q0 -34 14 -48t47 -14h1367q34 0 47.5 14t13.5 48v226zM1170 860l-227 -106h-137l176 106h188z" />
    <glyph glyph-name="Thorn" unicode="&#xde;" horiz-adv-x="1860" 
d="M73 0v700h142v-97h1456q81 0 119 -38.5t38 -118.5v-99q0 -80 -38 -118t-119 -38h-1456v-191h-142zM1685 418q0 33 -13.5 47t-45.5 14h-1411v-164h1411q32 0 45.5 14t13.5 46v43z" />
    <glyph glyph-name="germandbls" unicode="&#xdf;" horiz-adv-x="1702" 
d="M1472 246h-1073v111h1073q27 0 38 11t11 38v26q0 28 -11.5 40t-39.5 12h-1196q-40 0 -59 -18t-19 -59v-407h-137v425q0 91 44 134.5t135 43.5h1283q72 0 104.5 -33t32.5 -103v-46q0 -55 -22.5 -84.5t-76.5 -35.5q54 -6 76.5 -35.5t22.5 -83.5v-46q0 -71 -33.5 -103.5
t-103.5 -32.5h-1122v119h1071q28 0 39.5 12t11.5 40v26q0 26 -11 37.5t-38 11.5z" />
    <glyph glyph-name="agrave" unicode="&#xe0;" horiz-adv-x="1676" 
d="M1487 357v65q0 62 -62 62h-1355v119h1399q80 0 117 -37.5t37 -118.5v-291q0 -80 -37 -118t-117 -38h-1290q-71 0 -104.5 34.5t-33.5 107.5v73q0 73 33.5 107.5t104.5 34.5h1308zM1487 246h-1260q-26 0 -37.5 -11.5t-11.5 -37.5v-28q0 -26 11.5 -38t37.5 -12h1198
q62 0 62 62v65zM816 660l-223 106h182l178 -106h-137z" />
    <glyph glyph-name="aacute" unicode="&#xe1;" horiz-adv-x="1676" 
d="M1487 357v65q0 62 -62 62h-1355v119h1399q80 0 117 -37.5t37 -118.5v-291q0 -80 -37 -118t-117 -38h-1290q-71 0 -104.5 34.5t-33.5 107.5v73q0 73 33.5 107.5t104.5 34.5h1308zM1487 246h-1260q-26 0 -37.5 -11.5t-11.5 -37.5v-28q0 -26 11.5 -38t37.5 -12h1198
q62 0 62 62v65zM1066 766l-227 -106h-137l176 106h188z" />
    <glyph glyph-name="acircumflex" unicode="&#xe2;" horiz-adv-x="1676" 
d="M1487 357v65q0 62 -62 62h-1355v119h1399q80 0 117 -37.5t37 -118.5v-291q0 -80 -37 -118t-117 -38h-1290q-71 0 -104.5 34.5t-33.5 107.5v73q0 73 33.5 107.5t104.5 34.5h1308zM1487 246h-1260q-26 0 -37.5 -11.5t-11.5 -37.5v-28q0 -26 11.5 -38t37.5 -12h1198
q62 0 62 62v65zM831 716l-133 -56h-125l169 106h178l169 -106h-125z" />
    <glyph glyph-name="atilde" unicode="&#xe3;" horiz-adv-x="1676" 
d="M1487 357v65q0 62 -62 62h-1355v119h1399q80 0 117 -37.5t37 -118.5v-291q0 -80 -37 -118t-117 -38h-1290q-71 0 -104.5 34.5t-33.5 107.5v73q0 73 33.5 107.5t104.5 34.5h1308zM1487 246h-1260q-26 0 -37.5 -11.5t-11.5 -37.5v-28q0 -26 11.5 -38t37.5 -12h1198
q62 0 62 62v65zM619 650v82q56 44 116 44q37 0 102 -23.5t99 -23.5q56 0 106 46v-82q-58 -47 -118 -47q-37 0 -103 24.5t-99 24.5q-54 0 -103 -45z" />
    <glyph glyph-name="adieresis" unicode="&#xe4;" horiz-adv-x="1676" 
d="M1487 357v65q0 62 -62 62h-1355v119h1399q80 0 117 -37.5t37 -118.5v-291q0 -80 -37 -118t-117 -38h-1290q-71 0 -104.5 34.5t-33.5 107.5v73q0 73 33.5 107.5t104.5 34.5h1308zM1487 246h-1260q-26 0 -37.5 -11.5t-11.5 -37.5v-28q0 -26 11.5 -38t37.5 -12h1198
q62 0 62 62v65zM736 755v-88h-148v88h148zM1074 755v-88h-148v88h148z" />
    <glyph glyph-name="aring" unicode="&#xe5;" horiz-adv-x="1676" 
d="M1487 357v65q0 62 -62 62h-1355v119h1399q80 0 117 -37.5t37 -118.5v-291q0 -80 -37 -118t-117 -38h-1290q-71 0 -104.5 34.5t-33.5 107.5v73q0 73 33.5 107.5t104.5 34.5h1308zM1487 246h-1260q-26 0 -37.5 -11.5t-11.5 -37.5v-28q0 -26 11.5 -38t37.5 -12h1198
q62 0 62 62v65zM726 728q0 -25 29 -25h152q28 0 28 25t-28 25h-152q-29 0 -29 -25zM898 654h-134q-50 0 -70.5 18.5t-20.5 55.5t20.5 55.5t70.5 18.5h134q50 0 70.5 -18.5t20.5 -55.5t-20.5 -55.5t-70.5 -18.5z" />
    <glyph glyph-name="ae" unicode="&#xe6;" horiz-adv-x="2493" 
d="M2315 406v29q0 26 -11.5 37.5t-37.5 11.5h-893q-58 0 -58 -59v-68h951q26 0 37.5 11.5t11.5 37.5zM178 197v-28q0 -26 11.5 -38t37.5 -12h893q58 0 58 59v68h-951q-26 0 -37.5 -11.5t-11.5 -37.5zM1099 0h-920q-71 0 -104.5 34.5t-33.5 107.5v73q0 73 33.5 107.5
t104.5 34.5h999v68q0 59 -58 59h-1050v119h1029q71 0 105.5 -27.5t41.5 -89.5q8 62 42 89.5t106 27.5h919q71 0 105 -34.5t34 -107.5v-73q0 -73 -33.5 -107.5t-104.5 -34.5h-999v-68q0 -59 58 -59h1050v-119h-1029q-72 0 -106 27.5t-42 89.5q-7 -62 -41.5 -89.5
t-105.5 -27.5z" />
    <glyph glyph-name="ccedilla" unicode="&#xe7;" horiz-adv-x="1611" 
d="M806 0h-598q-80 0 -117.5 38t-37.5 118v291q0 81 37 118.5t118 37.5h1361v-119h-1317q-62 0 -62 -62v-241q0 -62 62 -62h1317v-119h-738l-16 -42h134q52 0 76 -13.5t24 -47.5q0 -42 -31.5 -61.5t-105.5 -19.5h-290v78h280q46 0 46 23q0 18 -32 18h-137z" />
    <glyph glyph-name="egrave" unicode="&#xe8;" horiz-adv-x="1676" 
d="M1636 388q0 -73 -33.5 -107.5t-104.5 -34.5h-1308v-65q0 -33 15 -47.5t47 -14.5h1354v-119h-1398q-82 0 -118.5 40t-36.5 123v284q0 80 37.5 118t117.5 38h1289q71 0 105 -34.5t34 -107.5v-73zM1450 484h-1198q-35 0 -48.5 -16.5t-13.5 -55.5v-55h1260q26 0 37.5 11
t11.5 38v26q0 28 -11 40t-38 12zM844 660l-223 106h182l178 -106h-137z" />
    <glyph glyph-name="eacute" unicode="&#xe9;" horiz-adv-x="1676" 
d="M1636 388q0 -73 -33.5 -107.5t-104.5 -34.5h-1308v-65q0 -33 15 -47.5t47 -14.5h1354v-119h-1398q-82 0 -118.5 40t-36.5 123v284q0 80 37.5 118t117.5 38h1289q71 0 105 -34.5t34 -107.5v-73zM1450 484h-1198q-35 0 -48.5 -16.5t-13.5 -55.5v-55h1260q26 0 37.5 11
t11.5 38v26q0 28 -11 40t-38 12zM1098 766l-227 -106h-137l176 106h188z" />
    <glyph glyph-name="ecircumflex" unicode="&#xea;" horiz-adv-x="1676" 
d="M1636 388q0 -73 -33.5 -107.5t-104.5 -34.5h-1308v-65q0 -33 15 -47.5t47 -14.5h1354v-119h-1398q-82 0 -118.5 40t-36.5 123v284q0 80 37.5 118t117.5 38h1289q71 0 105 -34.5t34 -107.5v-73zM1450 484h-1198q-35 0 -48.5 -16.5t-13.5 -55.5v-55h1260q26 0 37.5 11
t11.5 38v26q0 28 -11 40t-38 12zM858 716l-133 -56h-125l169 106h178l169 -106h-125z" />
    <glyph glyph-name="edieresis" unicode="&#xeb;" horiz-adv-x="1676" 
d="M1636 388q0 -73 -33.5 -107.5t-104.5 -34.5h-1308v-65q0 -33 15 -47.5t47 -14.5h1354v-119h-1398q-82 0 -118.5 40t-36.5 123v284q0 80 37.5 118t117.5 38h1289q71 0 105 -34.5t34 -107.5v-73zM1450 484h-1198q-35 0 -48.5 -16.5t-13.5 -55.5v-55h1260q26 0 37.5 11
t11.5 38v26q0 28 -11 40t-38 12zM763 755v-88h-148v88h148zM1101 755v-88h-148v88h148z" />
    <glyph glyph-name="igrave" unicode="&#xec;" horiz-adv-x="382" 
d="M157 660l-223 106h182l178 -106h-137zM258 119h102v-119h-144q-81 0 -117 36.5t-36 115.5v451h136v-425q0 -32 13.5 -45.5t45.5 -13.5z" />
    <glyph glyph-name="iacute" unicode="&#xed;" horiz-adv-x="382" 
d="M365 766l-227 -106h-137l176 106h188zM258 119h102v-119h-144q-81 0 -117 36.5t-36 115.5v451h136v-425q0 -32 13.5 -45.5t45.5 -13.5z" />
    <glyph glyph-name="icircumflex" unicode="&#xee;" horiz-adv-x="382" 
d="M258 119h102v-119h-144q-81 0 -117 36.5t-36 115.5v451h136v-425q0 -32 13.5 -45.5t45.5 -13.5zM131 716l-133 -56h-125l169 106h178l169 -106h-125z" />
    <glyph glyph-name="idieresis" unicode="&#xef;" horiz-adv-x="382" 
d="M339 755v-88h-148v88h148zM71 755v-88h-148v88h148zM258 119h102v-119h-144q-81 0 -117 36.5t-36 115.5v451h136v-425q0 -32 13.5 -45.5t45.5 -13.5z" />
    <glyph glyph-name="eth" unicode="&#xf0;" horiz-adv-x="1677" 
d="M208 561h1141q58 0 89 -19t42 -61v79q0 49 -21.5 70t-69.5 21h-558v-55h-66v55h-672v119h672v50h66v-50h575q110 0 160.5 -51t50.5 -160v-403q0 -80 -37.5 -118t-117.5 -38h-1254q-80 0 -117.5 38t-37.5 118v249q0 80 37.5 118t117.5 38zM1419 441h-1167q-62 0 -62 -61
v-199q0 -32 15 -46.5t47 -14.5h1167q32 0 46.5 14.5t14.5 46.5v199q0 32 -14.5 46.5t-46.5 14.5z" />
    <glyph glyph-name="ntilde" unicode="&#xf1;" horiz-adv-x="1677" 
d="M59 0v447q0 80 37.5 118t116.5 38h1251q79 0 116.5 -38t37.5 -118v-447h-137v422q0 32 -14.5 47t-47.5 15h-1161q-33 0 -47.5 -15t-14.5 -47v-422h-137zM627 650v82q56 44 116 44q37 0 102.5 -23.5t98.5 -23.5q56 0 106 46v-82q-58 -47 -118 -47q-37 0 -103 24.5
t-99 24.5q-54 0 -103 -45z" />
    <glyph glyph-name="ograve" unicode="&#xf2;" horiz-adv-x="1669" 
d="M1462 603q79 0 116.5 -38t37.5 -118v-291q0 -80 -37.5 -118t-116.5 -38h-1254q-80 0 -117.5 38t-37.5 118v291q0 81 37 118.5t118 37.5h1254zM1418 119q32 0 46.5 15t14.5 47v241q0 32 -14.5 47t-46.5 15h-1166q-33 0 -47.5 -15t-14.5 -47v-241q0 -32 14.5 -47t47.5 -15
h1166zM820 660l-223 106h182l178 -106h-137z" />
    <glyph glyph-name="oacute" unicode="&#xf3;" horiz-adv-x="1669" 
d="M1462 603q79 0 116.5 -38t37.5 -118v-291q0 -80 -37.5 -118t-116.5 -38h-1254q-80 0 -117.5 38t-37.5 118v291q0 81 37 118.5t118 37.5h1254zM1418 119q32 0 46.5 15t14.5 47v241q0 32 -14.5 47t-46.5 15h-1166q-33 0 -47.5 -15t-14.5 -47v-241q0 -32 14.5 -47t47.5 -15
h1166zM1075 766l-227 -106h-137l176 106h188z" />
    <glyph glyph-name="ocircumflex" unicode="&#xf4;" horiz-adv-x="1669" 
d="M1462 603q79 0 116.5 -38t37.5 -118v-291q0 -80 -37.5 -118t-116.5 -38h-1254q-80 0 -117.5 38t-37.5 118v291q0 81 37 118.5t118 37.5h1254zM1418 119q32 0 46.5 15t14.5 47v241q0 32 -14.5 47t-46.5 15h-1166q-33 0 -47.5 -15t-14.5 -47v-241q0 -32 14.5 -47t47.5 -15
h1166zM835 716l-133 -56h-125l169 106h178l169 -106h-125z" />
    <glyph glyph-name="otilde" unicode="&#xf5;" horiz-adv-x="1669" 
d="M1462 603q79 0 116.5 -38t37.5 -118v-291q0 -80 -37.5 -118t-116.5 -38h-1254q-80 0 -117.5 38t-37.5 118v291q0 81 37 118.5t118 37.5h1254zM1418 119q32 0 46.5 15t14.5 47v241q0 32 -14.5 47t-46.5 15h-1166q-33 0 -47.5 -15t-14.5 -47v-241q0 -32 14.5 -47t47.5 -15
h1166zM623 650v82q56 44 116 44q37 0 102 -23.5t99 -23.5q56 0 106 46v-82q-58 -47 -118 -47q-37 0 -103 24.5t-99 24.5q-54 0 -103 -45z" />
    <glyph glyph-name="odieresis" unicode="&#xf6;" horiz-adv-x="1669" 
d="M1462 603q79 0 116.5 -38t37.5 -118v-291q0 -80 -37.5 -118t-116.5 -38h-1254q-80 0 -117.5 38t-37.5 118v291q0 81 37 118.5t118 37.5h1254zM1418 119q32 0 46.5 15t14.5 47v241q0 32 -14.5 47t-46.5 15h-1166q-33 0 -47.5 -15t-14.5 -47v-241q0 -32 14.5 -47t47.5 -15
h1166zM740 755v-88h-148v88h148zM1078 755v-88h-148v88h148z" />
    <glyph glyph-name="divide" unicode="&#xf7;" 
d="M1009 157v-118h-156v118h156zM1009 661v-118h-156v118h156zM1804 291h-1745v118h1745v-118z" />
    <glyph glyph-name="oslash" unicode="&#xf8;" horiz-adv-x="1669" 
d="M1462 603q79 0 116.5 -38t37.5 -118v-291q0 -80 -37.5 -118t-116.5 -38h-1254q-80 0 -117.5 38t-37.5 118v291q0 81 37 118.5t118 37.5h1254zM1418 119q32 0 46.5 15t14.5 47v241q0 50 -37 59l-960 -362h936zM226 122l960 362h-934q-33 0 -47.5 -15t-14.5 -47v-241
q0 -50 36 -59z" />
    <glyph glyph-name="ugrave" unicode="&#xf9;" horiz-adv-x="1677" 
d="M1419 119q33 0 47.5 15t14.5 47v422h137v-447q0 -80 -37.5 -118t-116.5 -38h-1251q-79 0 -116.5 38t-37.5 118v447h137v-422q0 -32 14.5 -47t47.5 -15h1161zM825 660l-223 106h182l178 -106h-137z" />
    <glyph glyph-name="uacute" unicode="&#xfa;" horiz-adv-x="1677" 
d="M1419 119q33 0 47.5 15t14.5 47v422h137v-447q0 -80 -37.5 -118t-116.5 -38h-1251q-79 0 -116.5 38t-37.5 118v447h137v-422q0 -32 14.5 -47t47.5 -15h1161zM1079 766l-227 -106h-137l176 106h188z" />
    <glyph glyph-name="ucircumflex" unicode="&#xfb;" horiz-adv-x="1677" 
d="M1419 119q33 0 47.5 15t14.5 47v422h137v-447q0 -80 -37.5 -118t-116.5 -38h-1251q-79 0 -116.5 38t-37.5 118v447h137v-422q0 -32 14.5 -47t47.5 -15h1161zM839 716l-133 -56h-125l169 106h178l169 -106h-125z" />
    <glyph glyph-name="udieresis" unicode="&#xfc;" horiz-adv-x="1677" 
d="M1419 119q33 0 47.5 15t14.5 47v422h137v-447q0 -80 -37.5 -118t-116.5 -38h-1251q-79 0 -116.5 38t-37.5 118v447h137v-422q0 -32 14.5 -47t47.5 -15h1161zM744 755v-88h-148v88h148zM1082 755v-88h-148v88h148z" />
    <glyph glyph-name="yacute" unicode="&#xfd;" horiz-adv-x="1685" 
d="M1408 -167h-1308v119h1290q49 0 70.5 21t21.5 71v82q-11 -41 -42 -60t-89 -19h-1137q-80 0 -117.5 37.5t-37.5 117.5v401h137v-375q0 -62 62 -62h1162q33 0 47.5 15t14.5 47v375h137v-559q0 -109 -51 -160t-160 -51zM1082 766l-227 -106h-137l176 106h188z" />
    <glyph glyph-name="thorn" unicode="&#xfe;" horiz-adv-x="1683" 
d="M202 770v-167h1274q79 0 116.5 -38t37.5 -118v-291q0 -80 -37.5 -118t-116.5 -38h-1142q-59 0 -90 19t-42 61v-247h-136v937h136zM202 484v-303q0 -62 62 -62h1167q33 0 47.5 15t14.5 47v241q0 32 -14.5 47t-47.5 15h-1229z" />
    <glyph glyph-name="ydieresis" unicode="&#xff;" horiz-adv-x="1685" 
d="M1408 -167h-1308v119h1290q49 0 70.5 21t21.5 71v82q-11 -41 -42 -60t-89 -19h-1137q-80 0 -117.5 37.5t-37.5 117.5v401h137v-375q0 -62 62 -62h1162q33 0 47.5 15t14.5 47v375h137v-559q0 -109 -51 -160t-160 -51zM747 755v-88h-148v88h148zM1085 755v-88h-148v88h148z
" />
    <glyph glyph-name="Amacron" unicode="&#x100;" horiz-adv-x="1893" 
d="M1827 0h-142v288h-1476v-288h-143v542q0 80 39 119t120 39h1443q81 0 120 -39t39 -119v-542zM1624 576h-1355q-33 0 -46.5 -14t-13.5 -49v-101h1476v101q0 34 -14 48.5t-47 14.5zM1158 770h-424v73h424v-73z" />
    <glyph glyph-name="amacron" unicode="&#x101;" horiz-adv-x="1676" 
d="M1487 357v65q0 62 -62 62h-1355v119h1399q80 0 117 -37.5t37 -118.5v-291q0 -80 -37 -118t-117 -38h-1290q-71 0 -104.5 34.5t-33.5 107.5v73q0 73 33.5 107.5t104.5 34.5h1308zM1487 246h-1260q-26 0 -37.5 -11.5t-11.5 -37.5v-28q0 -26 11.5 -38t37.5 -12h1198
q62 0 62 62v65zM1043 676h-424v73h424v-73z" />
    <glyph glyph-name="Abreve" unicode="&#x102;" horiz-adv-x="1893" 
d="M1827 0h-142v288h-1476v-288h-143v542q0 80 39 119t120 39h1443q81 0 120 -39t39 -119v-542zM1624 576h-1355q-33 0 -46.5 -14t-13.5 -49v-101h1476v101q0 34 -14 48.5t-47 14.5zM734 801v77q77 -55 212 -55t211 55v-77q-73 -58 -211 -58t-212 58z" />
    <glyph glyph-name="abreve" unicode="&#x103;" horiz-adv-x="1676" 
d="M1487 357v65q0 62 -62 62h-1355v119h1399q80 0 117 -37.5t37 -118.5v-291q0 -80 -37 -118t-117 -38h-1290q-71 0 -104.5 34.5t-33.5 107.5v73q0 73 33.5 107.5t104.5 34.5h1308zM1487 246h-1260q-26 0 -37.5 -11.5t-11.5 -37.5v-28q0 -26 11.5 -38t37.5 -12h1198
q62 0 62 62v65zM619 707v77q77 -55 212 -55t211 55v-77q-72 -58 -211 -58q-138 0 -212 58z" />
    <glyph glyph-name="Aogonek" unicode="&#x104;" horiz-adv-x="1893" 
d="M1624 576h-1355q-33 0 -46.5 -14t-13.5 -49v-101h1476v101q0 34 -14 48.5t-47 14.5zM1738 0h-53v288h-1476v-288h-143v542q0 80 39 119t120 39h1443q81 0 120 -39t39 -119v-542h-64v-64h-31q-75 0 -126.5 -1.5t-81.5 -3.5t-45.5 -6t-20 -8t-4.5 -10q0 -13 34 -13h318v-78
h-318q-57 0 -83 13t-26 47q0 35 24 51.5t94.5 24t219.5 7.5h21v41z" />
    <glyph glyph-name="aogonek" unicode="&#x105;" horiz-adv-x="1676" 
d="M1561 -64h-31q-75 0 -126.5 -1.5t-81.5 -3.5t-45.5 -6t-20 -8t-4.5 -10q0 -13 34 -13h318v-78h-318q-57 0 -83 13t-26 47q0 35 24 51.5t94.5 24t219.5 7.5h21v49q-25 -8 -67 -8h-1290q-71 0 -104.5 34.5t-33.5 107.5v73q0 73 33.5 107.5t104.5 34.5h1308v65q0 62 -62 62
h-1355v119h1399q80 0 117 -37.5t37 -118.5v-291q0 -103 -62 -137v-83zM1487 246h-1260q-26 0 -37.5 -11.5t-11.5 -37.5v-28q0 -26 11.5 -38t37.5 -12h1198q62 0 62 62v65z" />
    <glyph glyph-name="Cacute" unicode="&#x106;" horiz-adv-x="1797" 
d="M217 0q-81 0 -119.5 39t-38.5 119v384q0 80 38.5 119t119.5 39h1535v-124h-1490q-34 0 -47.5 -14t-13.5 -49v-326q0 -35 13.5 -49t47.5 -14h1490v-124h-1535zM1167 860l-227 -106h-137l176 106h188z" />
    <glyph glyph-name="cacute" unicode="&#x107;" horiz-adv-x="1611" 
d="M208 0q-80 0 -117.5 38t-37.5 118v291q0 81 37 118.5t118 37.5h1361v-119h-1317q-62 0 -62 -62v-241q0 -62 62 -62h1317v-119h-1361zM1082 766l-227 -106h-137l176 106h188z" />
    <glyph glyph-name="Ccircumflex" unicode="&#x108;" horiz-adv-x="1797" 
d="M217 0q-81 0 -119.5 39t-38.5 119v384q0 80 38.5 119t119.5 39h1535v-124h-1490q-34 0 -47.5 -14t-13.5 -49v-326q0 -35 13.5 -49t47.5 -14h1490v-124h-1535zM934 810l-133 -56h-125l169 106h178l169 -106h-125z" />
    <glyph glyph-name="ccircumflex" unicode="&#x109;" horiz-adv-x="1611" 
d="M208 0q-80 0 -117.5 38t-37.5 118v291q0 81 37 118.5t118 37.5h1361v-119h-1317q-62 0 -62 -62v-241q0 -62 62 -62h1317v-119h-1361zM842 716l-133 -56h-125l169 106h178l169 -106h-125z" />
    <glyph glyph-name="Cdotaccent" unicode="&#x10a;" horiz-adv-x="1797" 
d="M217 0q-81 0 -119.5 39t-38.5 119v384q0 80 38.5 119t119.5 39h1535v-124h-1490q-34 0 -47.5 -14t-13.5 -49v-326q0 -35 13.5 -49t47.5 -14h1490v-124h-1535zM1008 849v-88h-148v88h148z" />
    <glyph glyph-name="cdotaccent" unicode="&#x10b;" horiz-adv-x="1611" 
d="M208 0q-80 0 -117.5 38t-37.5 118v291q0 81 37 118.5t118 37.5h1361v-119h-1317q-62 0 -62 -62v-241q0 -62 62 -62h1317v-119h-1361zM916 755v-88h-148v88h148z" />
    <glyph glyph-name="Ccaron" unicode="&#x10c;" horiz-adv-x="1797" 
d="M217 0q-81 0 -119.5 39t-38.5 119v384q0 80 38.5 119t119.5 39h1535v-124h-1490q-34 0 -47.5 -14t-13.5 -49v-326q0 -35 13.5 -49t47.5 -14h1490v-124h-1535zM801 860l133 -57l133 57h125l-169 -106h-178l-169 106h125z" />
    <glyph glyph-name="ccaron" unicode="&#x10d;" horiz-adv-x="1611" 
d="M208 0q-80 0 -117.5 38t-37.5 118v291q0 81 37 118.5t118 37.5h1361v-119h-1317q-62 0 -62 -62v-241q0 -62 62 -62h1317v-119h-1361zM709 766l133 -57l133 57h125l-169 -106h-178l-169 106h125z" />
    <glyph glyph-name="Dcaron" unicode="&#x10e;" horiz-adv-x="1886" 
d="M1614 700q107 0 163 -55.5t56 -163.5v-262q0 -107 -56 -163t-163 -56h-1541v700h1541zM1590 124q101 0 101 102v248q0 102 -101 102h-1375v-452h1375zM799 860l133 -57l133 57h125l-169 -106h-178l-169 106h125z" />
    <glyph glyph-name="dcaron" unicode="&#x10f;" horiz-adv-x="1955" 
d="M1617 770v-614q0 -80 -37.5 -118t-117.5 -38h-1255q-79 0 -116.5 38t-37.5 118v291q0 80 37.5 118t116.5 38h1142q58 0 89 -19.5t42 -60.5v247h137zM1480 181v241q0 32 -14.5 47t-46.5 15h-1167q-33 0 -47.5 -15t-14.5 -47v-241q0 -32 14.5 -47t47.5 -15h1167
q32 0 46.5 15t14.5 47zM1901 700v-117q0 -66 -34 -103t-100 -37h-36v65h29q26 0 38 11.5t12 41.5v22h-79v117h170z" />
    <glyph glyph-name="Dcroat" unicode="&#x110;" horiz-adv-x="1886" 
d="M1614 700q107 0 163 -55.5t56 -163.5v-262q0 -107 -56 -163t-163 -56h-1541v288h-66v124h66v288h1541zM1590 124q101 0 101 102v248q0 102 -101 102h-1375v-164h246v-124h-246v-164h1375z" />
    <glyph glyph-name="dcroat" unicode="&#x111;" horiz-adv-x="1677" 
d="M1617 770v-59h59v-72h-59v-483q0 -80 -37.5 -118t-117.5 -38h-1255q-79 0 -116.5 38t-37.5 118v291q0 80 37.5 118t116.5 38h1142q58 0 89 -19.5t42 -60.5v116h-229v72h229v59h137zM1480 181v241q0 32 -14.5 47t-46.5 15h-1167q-33 0 -47.5 -15t-14.5 -47v-241
q0 -32 14.5 -47t47.5 -15h1167q32 0 46.5 15t14.5 47z" />
    <glyph glyph-name="Emacron" unicode="&#x112;" horiz-adv-x="1855" 
d="M73 0v700h1737v-124h-1595v-164h1489v-124h-1489v-164h1595v-124h-1737zM1165 770h-424v73h424v-73z" />
    <glyph glyph-name="emacron" unicode="&#x113;" horiz-adv-x="1676" 
d="M1636 388q0 -73 -33.5 -107.5t-104.5 -34.5h-1308v-65q0 -33 15 -47.5t47 -14.5h1354v-119h-1398q-82 0 -118.5 40t-36.5 123v284q0 80 37.5 118t117.5 38h1289q71 0 105 -34.5t34 -107.5v-73zM1450 484h-1198q-35 0 -48.5 -16.5t-13.5 -55.5v-55h1260q26 0 37.5 11
t11.5 38v26q0 28 -11 40t-38 12zM1070 676h-424v73h424v-73z" />
    <glyph glyph-name="Ebreve" unicode="&#x114;" horiz-adv-x="1855" 
d="M73 0v700h1737v-124h-1595v-164h1489v-124h-1489v-164h1595v-124h-1737zM741 801v77q77 -55 212 -55t211 55v-77q-72 -58 -211 -58q-138 0 -212 58z" />
    <glyph glyph-name="ebreve" unicode="&#x115;" horiz-adv-x="1676" 
d="M1636 388q0 -73 -33.5 -107.5t-104.5 -34.5h-1308v-65q0 -33 15 -47.5t47 -14.5h1354v-119h-1398q-82 0 -118.5 40t-36.5 123v284q0 80 37.5 118t117.5 38h1289q71 0 105 -34.5t34 -107.5v-73zM1450 484h-1198q-35 0 -48.5 -16.5t-13.5 -55.5v-55h1260q26 0 37.5 11
t11.5 38v26q0 28 -11 40t-38 12zM646 707v77q77 -55 212 -55t211 55v-77q-73 -58 -211 -58t-212 58z" />
    <glyph glyph-name="Edotaccent" unicode="&#x116;" horiz-adv-x="1855" 
d="M73 0v700h1737v-124h-1595v-164h1489v-124h-1489v-164h1595v-124h-1737zM1027 849v-88h-148v88h148z" />
    <glyph glyph-name="edotaccent" unicode="&#x117;" horiz-adv-x="1676" 
d="M1636 388q0 -73 -33.5 -107.5t-104.5 -34.5h-1308v-65q0 -33 15 -47.5t47 -14.5h1354v-119h-1398q-82 0 -118.5 40t-36.5 123v284q0 80 37.5 118t117.5 38h1289q71 0 105 -34.5t34 -107.5v-73zM1450 484h-1198q-35 0 -48.5 -16.5t-13.5 -55.5v-55h1260q26 0 37.5 11
t11.5 38v26q0 28 -11 40t-38 12zM932 755v-88h-148v88h148z" />
    <glyph glyph-name="Eogonek" unicode="&#x118;" horiz-adv-x="1855" 
d="M1767 0v-64h-31q-75 0 -126.5 -1.5t-81.5 -3.5t-45.5 -6t-20 -8t-4.5 -10q0 -13 34 -13h318v-78h-318q-57 0 -83 13t-26 47q0 35 24 51.5t94.5 24t219.5 7.5h21v41h-1669v700h1737v-124h-1595v-164h1489v-124h-1489v-164h1595v-124h-43z" />
    <glyph glyph-name="eogonek" unicode="&#x119;" horiz-adv-x="1676" 
d="M1450 484h-1198q-35 0 -48.5 -16.5t-13.5 -55.5v-55h1260q26 0 37.5 11t11.5 38v26q0 28 -11 40t-38 12zM1556 -41v41h-1348q-82 0 -118.5 40t-36.5 123v284q0 80 37.5 118t117.5 38h1289q71 0 105 -34.5t34 -107.5v-73q0 -73 -33.5 -107.5t-104.5 -34.5h-1308v-65
q0 -33 15 -47.5t47 -14.5h1354v-119h-25v-64h-49q-75 0 -126.5 -1.5t-81.5 -3.5t-45.5 -6t-20 -8t-4.5 -10q0 -13 34 -13h318v-78h-318q-57 0 -83 13t-26 47q0 35 24 51.5t94.5 24t219.5 7.5h39z" />
    <glyph glyph-name="Ecaron" unicode="&#x11a;" horiz-adv-x="1855" 
d="M73 0v700h1737v-124h-1595v-164h1489v-124h-1489v-164h1595v-124h-1737zM820 860l133 -57l133 57h125l-169 -106h-178l-169 106h125z" />
    <glyph glyph-name="ecaron" unicode="&#x11b;" horiz-adv-x="1676" 
d="M1636 388q0 -73 -33.5 -107.5t-104.5 -34.5h-1308v-65q0 -33 15 -47.5t47 -14.5h1354v-119h-1398q-82 0 -118.5 40t-36.5 123v284q0 80 37.5 118t117.5 38h1289q71 0 105 -34.5t34 -107.5v-73zM1450 484h-1198q-35 0 -48.5 -16.5t-13.5 -55.5v-55h1260q26 0 37.5 11
t11.5 38v26q0 28 -11 40t-38 12zM725 766l133 -57l133 57h125l-169 -106h-178l-169 106h125z" />
    <glyph glyph-name="Gcircumflex" unicode="&#x11c;" horiz-adv-x="1881" 
d="M1627 124q33 0 44.5 12t11.5 45v107h-868v124h1010v-266q0 -78 -34 -112t-113 -34h-1461q-81 0 -119.5 39t-38.5 119v384q0 80 38.5 119t119.5 39h1583v-124h-1538q-34 0 -47.5 -14t-13.5 -49v-326q0 -35 13.5 -49t47.5 -14h1365zM953 810l-133 -56h-125l169 106h178
l169 -106h-125z" />
    <glyph glyph-name="gcircumflex" unicode="&#x11d;" horiz-adv-x="1677" 
d="M1419 166q32 0 46.5 15t14.5 47v194q0 32 -14.5 47t-46.5 15h-1167q-62 0 -62 -62v-194q0 -62 62 -62h1167zM1349 47h-1141q-80 0 -117.5 37.5t-37.5 117.5v245q0 80 37.5 118t117.5 38h1254q81 0 118 -37.5t37 -118.5v-403q0 -109 -50.5 -160t-160.5 -51h-1313v119h1296
q48 0 69.5 21t21.5 71v82q-11 -41 -42 -60t-89 -19zM838 716l-133 -56h-125l169 106h178l169 -106h-125z" />
    <glyph glyph-name="Gbreve" unicode="&#x11e;" horiz-adv-x="1881" 
d="M1627 124q33 0 44.5 12t11.5 45v107h-868v124h1010v-266q0 -78 -34 -112t-113 -34h-1461q-81 0 -119.5 39t-38.5 119v384q0 80 38.5 119t119.5 39h1583v-124h-1538q-34 0 -47.5 -14t-13.5 -49v-326q0 -35 13.5 -49t47.5 -14h1365zM741 801v77q77 -55 212 -55t211 55v-77
q-72 -58 -211 -58q-138 0 -212 58z" />
    <glyph glyph-name="gbreve" unicode="&#x11f;" horiz-adv-x="1677" 
d="M1419 166q32 0 46.5 15t14.5 47v194q0 32 -14.5 47t-46.5 15h-1167q-62 0 -62 -62v-194q0 -62 62 -62h1167zM1349 47h-1141q-80 0 -117.5 37.5t-37.5 117.5v245q0 80 37.5 118t117.5 38h1254q81 0 118 -37.5t37 -118.5v-403q0 -109 -50.5 -160t-160.5 -51h-1313v119h1296
q48 0 69.5 21t21.5 71v82q-11 -41 -42 -60t-89 -19zM626 707v77q77 -55 212 -55t211 55v-77q-73 -58 -211 -58t-212 58z" />
    <glyph glyph-name="Gdotaccent" unicode="&#x120;" horiz-adv-x="1881" 
d="M1627 124q33 0 44.5 12t11.5 45v107h-868v124h1010v-266q0 -78 -34 -112t-113 -34h-1461q-81 0 -119.5 39t-38.5 119v384q0 80 38.5 119t119.5 39h1583v-124h-1538q-34 0 -47.5 -14t-13.5 -49v-326q0 -35 13.5 -49t47.5 -14h1365zM1027 849v-88h-148v88h148z" />
    <glyph glyph-name="gdotaccent" unicode="&#x121;" horiz-adv-x="1677" 
d="M1419 166q32 0 46.5 15t14.5 47v194q0 32 -14.5 47t-46.5 15h-1167q-62 0 -62 -62v-194q0 -62 62 -62h1167zM1349 47h-1141q-80 0 -117.5 37.5t-37.5 117.5v245q0 80 37.5 118t117.5 38h1254q81 0 118 -37.5t37 -118.5v-403q0 -109 -50.5 -160t-160.5 -51h-1313v119h1296
q48 0 69.5 21t21.5 71v82q-11 -41 -42 -60t-89 -19zM912 755v-88h-148v88h148z" />
    <glyph glyph-name="uni0122" unicode="&#x122;" horiz-adv-x="1881" 
d="M1627 124q33 0 44.5 12t11.5 45v107h-868v124h1010v-266q0 -78 -34 -112t-113 -34h-1461q-81 0 -119.5 39t-38.5 119v384q0 80 38.5 119t119.5 39h1583v-124h-1538q-34 0 -47.5 -14t-13.5 -49v-326q0 -35 13.5 -49t47.5 -14h1365zM1024 -72v-68q0 -50 -26.5 -78.5
t-76.5 -28.5h-38v39h33q40 0 40 43v10h-75v83h143z" />
    <glyph glyph-name="uni0123" unicode="&#x123;" horiz-adv-x="1677" 
d="M767 668v68q0 50 26.5 78.5t76.5 28.5h38v-39h-33q-40 0 -40 -43v-10h75v-83h-143zM1419 166q32 0 46.5 15t14.5 47v194q0 32 -14.5 47t-46.5 15h-1167q-62 0 -62 -62v-194q0 -62 62 -62h1167zM1349 47h-1141q-80 0 -117.5 37.5t-37.5 117.5v245q0 80 37.5 118t117.5 38
h1254q81 0 118 -37.5t37 -118.5v-403q0 -109 -50.5 -160t-160.5 -51h-1313v119h1296q48 0 69.5 21t21.5 71v82q-11 -41 -42 -60t-89 -19z" />
    <glyph glyph-name="Hcircumflex" unicode="&#x124;" horiz-adv-x="1920" 
d="M1705 0v288h-1490v-288h-142v700h142v-288h1490v288h142v-700h-142zM960 810l-133 -56h-125l169 106h178l169 -106h-125z" />
    <glyph glyph-name="hcircumflex" unicode="&#x125;" horiz-adv-x="1685" 
d="M1488 422q0 32 -14.5 47t-47.5 15h-1162q-62 0 -62 -62v-422h-136v770h136v-247q11 41 42.5 60.5t89.5 19.5h1137q80 0 117 -37.5t37 -118.5v-447h-137v422zM878 716l-133 -56h-125l169 106h178l169 -106h-125z" />
    <glyph glyph-name="Hbar" unicode="&#x126;" horiz-adv-x="1920" 
d="M1705 0v288h-1490v-288h-142v505h-40v88h40v107h142v-107h1490v107h142v-107h40v-88h-40v-505h-142zM215 412h1490v93h-1490v-93z" />
    <glyph glyph-name="hbar" unicode="&#x127;" horiz-adv-x="1685" 
d="M1488 422q0 32 -14.5 47t-47.5 15h-1162q-62 0 -62 -62v-422h-136v639h-65v72h65v59h136v-59h224v-72h-224v-116q11 41 42.5 60.5t89.5 19.5h1137q80 0 117 -37.5t37 -118.5v-447h-137v422z" />
    <glyph glyph-name="Itilde" unicode="&#x128;" horiz-adv-x="287" 
d="M73 0v700h142v-700h-142zM-68 744v82q56 44 116 44q36 0 102 -23.5t99 -23.5q56 0 106 46v-82q-58 -47 -118 -47q-37 0 -103 24.5t-99 24.5q-54 0 -103 -45z" />
    <glyph glyph-name="itilde" unicode="&#x129;" horiz-adv-x="382" 
d="M-81 650v82q56 44 116 44q36 0 101.5 -23.5t99.5 -23.5q56 0 106 46v-82q-58 -47 -118 -47q-37 0 -103 24.5t-99 24.5q-54 0 -103 -45zM258 119h102v-119h-144q-81 0 -117 36.5t-36 115.5v451h136v-425q0 -32 13.5 -45.5t45.5 -13.5z" />
    <glyph glyph-name="Imacron" unicode="&#x12a;" horiz-adv-x="287" 
d="M326 772h-365v69h365v-69zM73 0v700h142v-700h-142z" />
    <glyph glyph-name="imacron" unicode="&#x12b;" horiz-adv-x="382" 
d="M314 678h-366v69h366v-69zM258 119h102v-119h-144q-81 0 -117 36.5t-36 115.5v451h136v-425q0 -32 13.5 -45.5t45.5 -13.5z" />
    <glyph glyph-name="Ibreve" unicode="&#x12c;" horiz-adv-x="287" 
d="M73 0v700h142v-700h-142zM-68 801v77q77 -55 212 -55t211 55v-77q-73 -58 -211 -58t-212 58z" />
    <glyph glyph-name="ibreve" unicode="&#x12d;" horiz-adv-x="382" 
d="M-81 707v77q77 -55 212 -55t211 55v-77q-72 -58 -211 -58q-138 0 -212 58zM258 119h102v-119h-144q-81 0 -117 36.5t-36 115.5v451h136v-425q0 -32 13.5 -45.5t45.5 -13.5z" />
    <glyph glyph-name="Iogonek" unicode="&#x12e;" horiz-adv-x="287" 
d="M73 0v700h142v-700h-19v-64h-24q-102 0 -140.5 -6.5t-38.5 -22.5q0 -13 34 -13h194v-78h-194q-57 0 -83 12.5t-26 47.5q0 49 50.5 66t202.5 17v41h-98z" />
    <glyph glyph-name="iogonek" unicode="&#x12f;" horiz-adv-x="382" 
d="M335 -64h-25q-80 0 -124 -3.5t-57.5 -9.5t-13.5 -16q0 -13 34 -13h211v-78h-211q-57 0 -83 12.5t-26 47.5q0 34 21.5 51t78.5 24.5t170 7.5v41h-94q-81 0 -117 36.5t-36 115.5v451h136v-425q0 -32 13.5 -45.5t45.5 -13.5h102v-119h-25v-64zM218 757v-90h-174v90h174z" />
    <glyph glyph-name="Idotaccent" unicode="&#x130;" horiz-adv-x="287" 
d="M73 0v700h142v-700h-142zM218 849v-88h-148v88h148z" />
    <glyph glyph-name="dotlessi" unicode="&#x131;" horiz-adv-x="382" 
d="M258 119h102v-119h-144q-81 0 -117 36.5t-36 115.5v451h136v-425q0 -32 13.5 -45.5t45.5 -13.5z" />
    <glyph glyph-name="IJ" unicode="&#x132;" horiz-adv-x="2155" 
d="M73 0v700h142v-700h-142zM332 147v195h142v-161q0 -34 11.5 -45.5t44.5 -11.5h1355q34 0 47.5 14t13.5 49v513h142v-542q0 -158 -158 -158h-1451q-79 0 -113 34t-34 113z" />
    <glyph glyph-name="Jcircumflex" unicode="&#x134;" horiz-adv-x="1868" 
d="M45 147v195h142v-161q0 -34 11.5 -45.5t44.5 -11.5h1355q34 0 47.5 14t13.5 49v513h142v-542q0 -158 -158 -158h-1451q-79 0 -113 34t-34 113zM1628 810l-133 -56h-125l169 106h178l169 -106h-125z" />
    <glyph glyph-name="jcircumflex" unicode="&#x135;" horiz-adv-x="287" 
d="M-33 -48h58q31 0 43.5 12.5t12.5 44.5v594h137v-618q0 -79 -36 -115.5t-117 -36.5h-98v119zM151 716l-133 -56h-125l169 106h178l169 -106h-125z" />
    <glyph glyph-name="uni0136" unicode="&#x136;" horiz-adv-x="1893" 
d="M1833 700v-194q0 -72 -30 -110.5t-106 -45.5q76 -7 106 -46t30 -110v-194h-142v220q0 36 -15 52t-51 16h-1410v-288h-142v700h142v-288h1410q36 0 51 16t15 52v220h142zM1018 -72v-68q0 -50 -26.5 -78.5t-76.5 -28.5h-38v39h33q40 0 40 43v10h-75v83h143z" />
    <glyph glyph-name="uni0137" unicode="&#x137;" horiz-adv-x="1675" 
d="M1487 413v190h137v-166q0 -62 -26.5 -95.5t-86.5 -40.5q60 -7 86.5 -40t26.5 -95v-166h-137v190q0 52 -53 52h-1232v-242h-136v770h136v-409h1232q53 0 53 52zM926 -72v-68q0 -50 -26.5 -78.5t-76.5 -28.5h-38v39h33q40 0 40 43v10h-75v83h143z" />
    <glyph glyph-name="kgreenlandic" unicode="&#x138;" horiz-adv-x="1675" 
d="M1487 413v190h137v-166q0 -62 -26.5 -95.5t-86.5 -40.5q60 -7 86.5 -40t26.5 -95v-166h-137v190q0 52 -53 52h-1232v-242h-136v603h136v-242h1232q53 0 53 52z" />
    <glyph glyph-name="Lacute" unicode="&#x139;" horiz-adv-x="1816" 
d="M1792 124v-124h-1719v700h142v-576h1577zM421 860l-227 -106h-137l176 106h188z" />
    <glyph glyph-name="lacute" unicode="&#x13a;" horiz-adv-x="378" 
d="M255 119h101v-119h-144q-80 0 -116.5 36.5t-36.5 115.5v618h137v-592q0 -32 14 -45.5t45 -13.5zM361 933l-227 -106h-137l176 106h188z" />
    <glyph glyph-name="uni013B" unicode="&#x13b;" horiz-adv-x="1816" 
d="M1792 124v-124h-1719v700h142v-576h1577zM988 -72v-68q0 -50 -26.5 -78.5t-76.5 -28.5h-38v39h33q40 0 40 43v10h-75v83h143z" />
    <glyph glyph-name="uni013C" unicode="&#x13c;" horiz-adv-x="378" 
d="M255 119h101v-119h-144q-80 0 -116.5 36.5t-36.5 115.5v618h137v-592q0 -32 14 -45.5t45 -13.5zM261 -72v-68q0 -50 -26.5 -78.5t-76.5 -28.5h-38v39h33q40 0 40 43v10h-75v83h143z" />
    <glyph glyph-name="Lcaron" unicode="&#x13d;" horiz-adv-x="1816" 
d="M1792 124v-124h-1719v700h142v-576h1577zM1611 700v-117q0 -66 -34 -103t-100 -37h-36v65h29q26 0 38 11.5t12 41.5v22h-79v117h170z" />
    <glyph glyph-name="lcaron" unicode="&#x13e;" horiz-adv-x="542" 
d="M255 119h101v-119h-144q-80 0 -116.5 36.5t-36.5 115.5v618h137v-592q0 -32 14 -45.5t45 -13.5zM488 700v-117q0 -66 -34 -103t-100 -37h-36v65h29q26 0 38 11.5t12 41.5v22h-79v117h170z" />
    <glyph glyph-name="Ldot" unicode="&#x13f;" horiz-adv-x="1816" 
d="M1792 124v-124h-1719v700h142v-576h1577zM1095 409v-118h-170v118h170z" />
    <glyph glyph-name="ldot" unicode="&#x140;" horiz-adv-x="567" 
d="M255 119h101v-119h-144q-80 0 -116.5 36.5t-36.5 115.5v618h137v-592q0 -32 14 -45.5t45 -13.5zM497 409v-118h-170v118h170z" />
    <glyph glyph-name="Lslash" unicode="&#x141;" horiz-adv-x="1816" 
d="M1792 124v-124h-1719v190l-66 -24v122l66 24v388h142v-335l449 169v-122l-449 -169v-119h1577z" />
    <glyph glyph-name="lslash" unicode="&#x142;" horiz-adv-x="378" 
d="M255 119h101v-119h-144q-80 0 -116.5 36.5t-36.5 115.5v135l-52 -21v122l52 21v361h137v-305l176 72v-122l-176 -72v-165q0 -32 14 -45.5t45 -13.5z" />
    <glyph glyph-name="Nacute" unicode="&#x143;" horiz-adv-x="1893" 
d="M269 576q-33 0 -46.5 -14t-13.5 -49v-513h-143v542q0 80 39 119t120 39h1443q81 0 120 -39t39 -119v-542h-142v513q0 35 -13.5 49t-47.5 14h-1355zM1186 860l-227 -106h-137l176 106h188z" />
    <glyph glyph-name="nacute" unicode="&#x144;" horiz-adv-x="1677" 
d="M59 0v447q0 80 37.5 118t116.5 38h1251q79 0 116.5 -38t37.5 -118v-447h-137v422q0 32 -14.5 47t-47.5 15h-1161q-33 0 -47.5 -15t-14.5 -47v-422h-137zM1074 766l-227 -106h-137l176 106h188z" />
    <glyph glyph-name="uni0145" unicode="&#x145;" horiz-adv-x="1893" 
d="M269 576q-33 0 -46.5 -14t-13.5 -49v-513h-143v542q0 80 39 119t120 39h1443q81 0 120 -39t39 -119v-542h-142v513q0 35 -13.5 49t-47.5 14h-1355zM1018 -72v-68q0 -50 -26.5 -78.5t-76.5 -28.5h-38v39h33q40 0 40 43v10h-75v83h143z" />
    <glyph glyph-name="uni0146" unicode="&#x146;" horiz-adv-x="1677" 
d="M59 0v447q0 80 37.5 118t116.5 38h1251q79 0 116.5 -38t37.5 -118v-447h-137v422q0 32 -14.5 47t-47.5 15h-1161q-33 0 -47.5 -15t-14.5 -47v-422h-137zM910 -72v-68q0 -50 -26.5 -78.5t-76.5 -28.5h-38v39h33q40 0 40 43v10h-75v83h143z" />
    <glyph glyph-name="Ncaron" unicode="&#x147;" horiz-adv-x="1893" 
d="M269 576q-33 0 -46.5 -14t-13.5 -49v-513h-143v542q0 80 39 119t120 39h1443q81 0 120 -39t39 -119v-542h-142v513q0 35 -13.5 49t-47.5 14h-1355zM813 860l133 -57l133 57h125l-169 -106h-178l-169 106h125z" />
    <glyph glyph-name="ncaron" unicode="&#x148;" horiz-adv-x="1677" 
d="M59 0v447q0 80 37.5 118t116.5 38h1251q79 0 116.5 -38t37.5 -118v-447h-137v422q0 32 -14.5 47t-47.5 15h-1161q-33 0 -47.5 -15t-14.5 -47v-422h-137zM706 766l133 -57l133 57h125l-169 -106h-178l-169 106h125z" />
    <glyph glyph-name="napostrophe" unicode="&#x149;" horiz-adv-x="1906" 
d="M288 0v447q0 80 37.5 118t116.5 38h1251q79 0 116.5 -38t37.5 -118v-447h-137v422q0 32 -14.5 47t-47.5 15h-1161q-33 0 -47.5 -15t-14.5 -47v-422h-137zM225 700v-117q0 -66 -34 -103t-100 -37h-36v65h29q26 0 38 11.5t12 41.5v22h-79v117h170z" />
    <glyph glyph-name="Eng" unicode="&#x14a;" horiz-adv-x="1893" 
d="M269 576q-33 0 -46.5 -14t-13.5 -49v-513h-143v542q0 80 39 119t120 39h1443q81 0 120 -39t39 -119v-551q0 -80 -39 -119t-120 -39h-472v124h428q34 0 47.5 14t13.5 49v493q0 35 -13.5 49t-47.5 14h-1355z" />
    <glyph glyph-name="eng" unicode="&#x14b;" horiz-adv-x="1677" 
d="M1367 -48h57q32 0 44.5 12.5t12.5 44.5v413q0 32 -14.5 47t-47.5 15h-1161q-33 0 -47.5 -15t-14.5 -47v-422h-137v447q0 80 37.5 118t116.5 38h1251q79 0 116.5 -38t37.5 -118v-462q0 -79 -36 -115.5t-117 -36.5h-98v119z" />
    <glyph glyph-name="Omacron" unicode="&#x14c;" horiz-adv-x="1883" 
d="M217 0q-81 0 -119.5 39t-38.5 119v384q0 80 38.5 119t119.5 39h1449q81 0 119.5 -39t38.5 -119v-384q0 -80 -38.5 -119t-119.5 -39h-1449zM1682 187v326q0 34 -14 48.5t-47 14.5h-1359q-33 0 -47 -14.5t-14 -48.5v-326q0 -35 13.5 -49t47.5 -14h1359q33 0 47 14.5
t14 48.5zM1153 770h-424v73h424v-73z" />
    <glyph glyph-name="omacron" unicode="&#x14d;" horiz-adv-x="1669" 
d="M1462 603q79 0 116.5 -38t37.5 -118v-291q0 -80 -37.5 -118t-116.5 -38h-1254q-80 0 -117.5 38t-37.5 118v291q0 81 37 118.5t118 37.5h1254zM1418 119q32 0 46.5 15t14.5 47v241q0 32 -14.5 47t-46.5 15h-1166q-33 0 -47.5 -15t-14.5 -47v-241q0 -32 14.5 -47t47.5 -15
h1166zM1047 676h-424v73h424v-73z" />
    <glyph glyph-name="Obreve" unicode="&#x14e;" horiz-adv-x="1883" 
d="M217 0q-81 0 -119.5 39t-38.5 119v384q0 80 38.5 119t119.5 39h1449q81 0 119.5 -39t38.5 -119v-384q0 -80 -38.5 -119t-119.5 -39h-1449zM1682 187v326q0 34 -14 48.5t-47 14.5h-1359q-33 0 -47 -14.5t-14 -48.5v-326q0 -35 13.5 -49t47.5 -14h1359q33 0 47 14.5
t14 48.5zM729 801v77q77 -55 212 -55t211 55v-77q-72 -58 -211 -58q-138 0 -212 58z" />
    <glyph glyph-name="obreve" unicode="&#x14f;" horiz-adv-x="1669" 
d="M1462 603q79 0 116.5 -38t37.5 -118v-291q0 -80 -37.5 -118t-116.5 -38h-1254q-80 0 -117.5 38t-37.5 118v291q0 81 37 118.5t118 37.5h1254zM1418 119q32 0 46.5 15t14.5 47v241q0 32 -14.5 47t-46.5 15h-1166q-33 0 -47.5 -15t-14.5 -47v-241q0 -32 14.5 -47t47.5 -15
h1166zM623 707v77q77 -55 212 -55t211 55v-77q-72 -58 -211 -58q-138 0 -212 58z" />
    <glyph glyph-name="Ohungarumlaut" unicode="&#x150;" horiz-adv-x="1883" 
d="M217 0q-81 0 -119.5 39t-38.5 119v384q0 80 38.5 119t119.5 39h1449q81 0 119.5 -39t38.5 -119v-384q0 -80 -38.5 -119t-119.5 -39h-1449zM1682 187v326q0 34 -14 48.5t-47 14.5h-1359q-33 0 -47 -14.5t-14 -48.5v-326q0 -35 13.5 -49t47.5 -14h1359q33 0 47 14.5
t14 48.5zM1337 860l-227 -106h-137l176 106h188zM1007 860l-227 -106h-137l176 106h188z" />
    <glyph glyph-name="ohungarumlaut" unicode="&#x151;" horiz-adv-x="1669" 
d="M1462 603q79 0 116.5 -38t37.5 -118v-291q0 -80 -37.5 -118t-116.5 -38h-1254q-80 0 -117.5 38t-37.5 118v291q0 81 37 118.5t118 37.5h1254zM1418 119q32 0 46.5 15t14.5 47v241q0 32 -14.5 47t-46.5 15h-1166q-33 0 -47.5 -15t-14.5 -47v-241q0 -32 14.5 -47t47.5 -15
h1166zM1240 766l-227 -106h-137l176 106h188zM910 766l-227 -106h-137l176 106h188z" />
    <glyph glyph-name="OE" unicode="&#x152;" horiz-adv-x="2903" 
d="M219 0q-158 0 -158 158v384q0 158 158 158h2623v-124h-1306v-164h1200v-124h-1200v-164h1306v-124h-2623zM1394 124v452h-1130q-33 0 -46.5 -14t-13.5 -49v-326q0 -35 13.5 -49t46.5 -14h1130z" />
    <glyph glyph-name="oe" unicode="&#x153;" horiz-adv-x="2502" 
d="M1187 178v247q0 59 -58 59h-877q-33 0 -47.5 -15t-14.5 -47v-241q0 -32 14.5 -47t47.5 -15h877q58 0 58 59zM2324 406v28q0 26 -11.5 38t-37.5 12h-893q-58 0 -58 -59v-68h951q26 0 37.5 11.5t11.5 37.5zM1324 246v-68q0 -59 58 -59h1050v-119h-1029q-72 0 -106 27.5
t-42 89.5q-7 -62 -41.5 -89.5t-105.5 -27.5h-900q-80 0 -117.5 38t-37.5 118v291q0 81 37 118.5t118 37.5h900q71 0 105.5 -27.5t41.5 -89.5q8 62 42 89.5t106 27.5h919q71 0 105 -34.5t34 -107.5v-73q0 -73 -33.5 -107.5t-104.5 -34.5h-999z" />
    <glyph glyph-name="Racute" unicode="&#x154;" horiz-adv-x="1892" 
d="M1833 547v-56q0 -68 -29.5 -102t-100.5 -40q72 -8 101 -46.5t29 -108.5v-194h-142v220q0 36 -15 52t-51 16h-1410v-288h-142v700h1606q81 0 117.5 -36.5t36.5 -116.5zM1631 412q34 0 47 13.5t13 47.5v42q0 33 -13.5 47t-45.5 14h-1417v-164h1416zM1186 860l-227 -106
h-137l176 106h188z" />
    <glyph glyph-name="racute" unicode="&#x155;" horiz-adv-x="1498" 
d="M1474 603v-119h-1216q-62 0 -62 -62v-422h-137v447q0 80 37.5 118t117.5 38h1260zM1027 766l-227 -106h-137l176 106h188z" />
    <glyph glyph-name="uni0156" unicode="&#x156;" horiz-adv-x="1892" 
d="M1833 547v-56q0 -68 -29.5 -102t-100.5 -40q72 -8 101 -46.5t29 -108.5v-194h-142v220q0 36 -15 52t-51 16h-1410v-288h-142v700h1606q81 0 117.5 -36.5t36.5 -116.5zM1631 412q34 0 47 13.5t13 47.5v42q0 33 -13.5 47t-45.5 14h-1417v-164h1416zM1039 -72v-68
q0 -50 -26.5 -78.5t-76.5 -28.5h-38v39h33q40 0 40 43v10h-75v83h143z" />
    <glyph glyph-name="uni0157" unicode="&#x157;" horiz-adv-x="1498" 
d="M1474 603v-119h-1216q-62 0 -62 -62v-422h-137v447q0 80 37.5 118t117.5 38h1260zM200 -72v-68q0 -50 -26.5 -78.5t-76.5 -28.5h-38v39h33q40 0 40 43v10h-75v83h143z" />
    <glyph glyph-name="Rcaron" unicode="&#x158;" horiz-adv-x="1892" 
d="M1833 547v-56q0 -68 -29.5 -102t-100.5 -40q72 -8 101 -46.5t29 -108.5v-194h-142v220q0 36 -15 52t-51 16h-1410v-288h-142v700h1606q81 0 117.5 -36.5t36.5 -116.5zM1631 412q34 0 47 13.5t13 47.5v42q0 33 -13.5 47t-45.5 14h-1417v-164h1416zM813 860l133 -57l133 57
h125l-169 -106h-178l-169 106h125z" />
    <glyph glyph-name="rcaron" unicode="&#x159;" horiz-adv-x="1498" 
d="M1474 603v-119h-1216q-62 0 -62 -62v-422h-137v447q0 80 37.5 118t117.5 38h1260zM654 766l133 -57l133 57h125l-169 -106h-178l-169 106h125z" />
    <glyph glyph-name="Sacute" unicode="&#x15a;" horiz-adv-x="1840" 
d="M215 288q-81 0 -119 38.5t-38 118.5v98q0 80 38 118.5t119 38.5h1550v-124h-1506q-32 0 -45.5 -14t-13.5 -47v-43q0 -32 13.5 -46t45.5 -14h1376q81 0 119 -38.5t38 -118.5v-98q0 -80 -38 -118.5t-119 -38.5h-1589v124h1545q32 0 45.5 14t13.5 47v43q0 32 -13.5 46
t-45.5 14h-1376zM1160 860l-227 -106h-137l176 106h188z" />
    <glyph glyph-name="sacute" unicode="&#x15b;" horiz-adv-x="1645" 
d="M1575 484h-1344q-26 0 -37.5 -11.5t-11.5 -37.5v-29q0 -26 11.5 -37.5t37.5 -11.5h1236q71 0 104.5 -34.5t33.5 -107.5v-73q0 -73 -34 -107.5t-105 -34.5h-1421v119h1374q26 0 37.5 11.5t11.5 37.5v29q0 26 -11.5 37.5t-37.5 11.5h-1236q-71 0 -104.5 34.5t-33.5 107.5
v73q0 73 33.5 107.5t104.5 34.5h1392v-119zM1062 766l-227 -106h-137l176 106h188z" />
    <glyph glyph-name="Scircumflex" unicode="&#x15c;" horiz-adv-x="1840" 
d="M215 288q-81 0 -119 38.5t-38 118.5v98q0 80 38 118.5t119 38.5h1550v-124h-1506q-32 0 -45.5 -14t-13.5 -47v-43q0 -32 13.5 -46t45.5 -14h1376q81 0 119 -38.5t38 -118.5v-98q0 -80 -38 -118.5t-119 -38.5h-1589v124h1545q32 0 45.5 14t13.5 47v43q0 32 -13.5 46
t-45.5 14h-1376zM920 810l-133 -56h-125l169 106h178l169 -106h-125z" />
    <glyph glyph-name="scircumflex" unicode="&#x15d;" horiz-adv-x="1645" 
d="M1575 484h-1344q-26 0 -37.5 -11.5t-11.5 -37.5v-29q0 -26 11.5 -37.5t37.5 -11.5h1236q71 0 104.5 -34.5t33.5 -107.5v-73q0 -73 -34 -107.5t-105 -34.5h-1421v119h1374q26 0 37.5 11.5t11.5 37.5v29q0 26 -11.5 37.5t-37.5 11.5h-1236q-71 0 -104.5 34.5t-33.5 107.5
v73q0 73 33.5 107.5t104.5 34.5h1392v-119zM823 716l-133 -56h-125l169 106h178l169 -106h-125z" />
    <glyph glyph-name="Scedilla" unicode="&#x15e;" horiz-adv-x="1840" 
d="M893 0h-847v124h1545q32 0 45.5 14t13.5 47v43q0 32 -13.5 46t-45.5 14h-1376q-81 0 -119 38.5t-38 118.5v98q0 80 38 118.5t119 38.5h1550v-124h-1506q-32 0 -45.5 -14t-13.5 -47v-43q0 -32 13.5 -46t45.5 -14h1376q81 0 119 -38.5t38 -118.5v-98q0 -80 -38 -118.5
t-119 -38.5h-717l-16 -42h134q52 0 76 -13.5t24 -47.5q0 -42 -31.5 -61.5t-105.5 -19.5h-290v78h280q46 0 46 23q0 18 -32 18h-137z" />
    <glyph glyph-name="scedilla" unicode="&#x15f;" horiz-adv-x="1645" 
d="M788 0h-743v119h1374q26 0 37.5 11.5t11.5 37.5v29q0 26 -11.5 37.5t-37.5 11.5h-1236q-71 0 -104.5 34.5t-33.5 107.5v73q0 73 33.5 107.5t104.5 34.5h1392v-119h-1344q-26 0 -37.5 -11.5t-11.5 -37.5v-29q0 -26 11.5 -37.5t37.5 -11.5h1236q71 0 104.5 -34.5
t33.5 -107.5v-73q0 -73 -34 -107.5t-105 -34.5h-653l-16 -42h134q52 0 76 -13.5t24 -47.5q0 -42 -31.5 -61.5t-105.5 -19.5h-290v78h280q46 0 46 23q0 18 -32 18h-137z" />
    <glyph glyph-name="Scaron" unicode="&#x160;" horiz-adv-x="1840" 
d="M215 288q-81 0 -119 38.5t-38 118.5v98q0 80 38 118.5t119 38.5h1550v-124h-1506q-32 0 -45.5 -14t-13.5 -47v-43q0 -32 13.5 -46t45.5 -14h1376q81 0 119 -38.5t38 -118.5v-98q0 -80 -38 -118.5t-119 -38.5h-1589v124h1545q32 0 45.5 14t13.5 47v43q0 32 -13.5 46
t-45.5 14h-1376zM787 860l133 -57l133 57h125l-169 -106h-178l-169 106h125z" />
    <glyph glyph-name="scaron" unicode="&#x161;" horiz-adv-x="1645" 
d="M1575 484h-1344q-26 0 -37.5 -11.5t-11.5 -37.5v-29q0 -26 11.5 -37.5t37.5 -11.5h1236q71 0 104.5 -34.5t33.5 -107.5v-73q0 -73 -34 -107.5t-105 -34.5h-1421v119h1374q26 0 37.5 11.5t11.5 37.5v29q0 26 -11.5 37.5t-37.5 11.5h-1236q-71 0 -104.5 34.5t-33.5 107.5
v73q0 73 33.5 107.5t104.5 34.5h1392v-119zM690 766l133 -57l133 57h125l-169 -106h-178l-169 106h125z" />
    <glyph glyph-name="uni0162" unicode="&#x162;" horiz-adv-x="1813" 
d="M883 0h-47v576h-812v124h1765v-124h-811v-576h-70l-16 -42h134q52 0 76 -13.5t24 -47.5q0 -42 -31.5 -61.5t-105.5 -19.5h-290v78h280q46 0 46 23q0 18 -32 18h-137z" />
    <glyph glyph-name="uni0163" unicode="&#x163;" horiz-adv-x="1530" 
d="M744 0h-529q-81 0 -118.5 38t-37.5 118v614h137v-167h1291v-119h-1291v-303q0 -32 14.5 -47t47.5 -15h1229v-119h-718l-16 -42h134q52 0 76 -13.5t24 -47.5q0 -42 -31.5 -61.5t-105.5 -19.5h-290v78h280q46 0 46 23q0 18 -32 18h-137z" />
    <glyph glyph-name="Tcaron" unicode="&#x164;" horiz-adv-x="1813" 
d="M1789 700v-124h-811v-576h-142v576h-812v124h1765zM773 860l133 -57l133 57h125l-169 -106h-178l-169 106h125z" />
    <glyph glyph-name="tcaron" unicode="&#x165;" horiz-adv-x="1815" 
d="M215 0q-81 0 -118.5 38t-37.5 118v614h137v-167h1291v-119h-1291v-303q0 -32 14.5 -47t47.5 -15h1229v-119h-1272zM1761 700v-117q0 -66 -34 -103t-100 -37h-36v65h29q26 0 38 11.5t12 41.5v22h-79v117h170z" />
    <glyph glyph-name="Tbar" unicode="&#x166;" horiz-adv-x="1813" 
d="M1789 700v-124h-811v-137h160v-88h-160v-351h-142v351h-162v88h162v137h-812v124h1765z" />
    <glyph glyph-name="tbar" unicode="&#x167;" horiz-adv-x="1530" 
d="M215 0q-81 0 -118.5 38t-37.5 118v142h-58v88h58v384h137v-167h1291v-119h-1291v-98h268v-88h-268v-117q0 -32 14.5 -47t47.5 -15h1229v-119h-1272z" />
    <glyph glyph-name="Utilde" unicode="&#x168;" horiz-adv-x="1893" 
d="M225 0q-81 0 -120 39t-39 119v542h143v-513q0 -35 13.5 -49t46.5 -14h1355q34 0 47.5 14t13.5 49v513h142v-542q0 -80 -39 -119t-120 -39h-1443zM734 744v82q56 44 116 44q36 0 102 -23.5t99 -23.5q56 0 106 46v-82q-58 -47 -118 -47q-37 0 -103 24.5t-99 24.5
q-54 0 -103 -45z" />
    <glyph glyph-name="utilde" unicode="&#x169;" horiz-adv-x="1677" 
d="M1419 119q33 0 47.5 15t14.5 47v422h137v-447q0 -80 -37.5 -118t-116.5 -38h-1251q-79 0 -116.5 38t-37.5 118v447h137v-422q0 -32 14.5 -47t47.5 -15h1161zM627 650v82q56 44 116 44q37 0 102.5 -23.5t98.5 -23.5q56 0 106 46v-82q-58 -47 -118 -47q-37 0 -103 24.5
t-99 24.5q-54 0 -103 -45z" />
    <glyph glyph-name="Umacron" unicode="&#x16a;" horiz-adv-x="1893" 
d="M225 0q-81 0 -120 39t-39 119v542h143v-513q0 -35 13.5 -49t46.5 -14h1355q34 0 47.5 14t13.5 49v513h142v-542q0 -80 -39 -119t-120 -39h-1443zM1158 770h-424v73h424v-73z" />
    <glyph glyph-name="umacron" unicode="&#x16b;" horiz-adv-x="1677" 
d="M1419 119q33 0 47.5 15t14.5 47v422h137v-447q0 -80 -37.5 -118t-116.5 -38h-1251q-79 0 -116.5 38t-37.5 118v447h137v-422q0 -32 14.5 -47t47.5 -15h1161zM1051 676h-424v73h424v-73z" />
    <glyph glyph-name="Ubreve" unicode="&#x16c;" horiz-adv-x="1893" 
d="M225 0q-81 0 -120 39t-39 119v542h143v-513q0 -35 13.5 -49t46.5 -14h1355q34 0 47.5 14t13.5 49v513h142v-542q0 -80 -39 -119t-120 -39h-1443zM734 801v77q77 -55 212 -55t211 55v-77q-73 -58 -211 -58t-212 58z" />
    <glyph glyph-name="ubreve" unicode="&#x16d;" horiz-adv-x="1677" 
d="M1419 119q33 0 47.5 15t14.5 47v422h137v-447q0 -80 -37.5 -118t-116.5 -38h-1251q-79 0 -116.5 38t-37.5 118v447h137v-422q0 -32 14.5 -47t47.5 -15h1161zM627 707v77q77 -55 212 -55t211 55v-77q-72 -58 -211 -58q-138 0 -212 58z" />
    <glyph glyph-name="Uring" unicode="&#x16e;" horiz-adv-x="1893" 
d="M225 0q-81 0 -120 39t-39 119v542h143v-513q0 -35 13.5 -49t46.5 -14h1355q34 0 47.5 14t13.5 49v513h142v-542q0 -80 -39 -119t-120 -39h-1443zM841 822q0 -25 29 -25h152q28 0 28 25t-28 25h-152q-29 0 -29 -25zM1013 748h-134q-50 0 -70.5 18.5t-20.5 55.5t20.5 55.5
t70.5 18.5h134q50 0 70.5 -18.5t20.5 -55.5t-20.5 -55.5t-70.5 -18.5z" />
    <glyph glyph-name="uring" unicode="&#x16f;" horiz-adv-x="1677" 
d="M1419 119q33 0 47.5 15t14.5 47v422h137v-447q0 -80 -37.5 -118t-116.5 -38h-1251q-79 0 -116.5 38t-37.5 118v447h137v-422q0 -32 14.5 -47t47.5 -15h1161zM734 728q0 -25 29 -25h152q28 0 28 25t-28 25h-152q-29 0 -29 -25zM906 654h-134q-50 0 -70.5 18.5t-20.5 55.5
t20.5 55.5t70.5 18.5h134q50 0 70.5 -18.5t20.5 -55.5t-20.5 -55.5t-70.5 -18.5z" />
    <glyph glyph-name="Uhungarumlaut" unicode="&#x170;" horiz-adv-x="1893" 
d="M225 0q-81 0 -120 39t-39 119v542h143v-513q0 -35 13.5 -49t46.5 -14h1355q34 0 47.5 14t13.5 49v513h142v-542q0 -80 -39 -119t-120 -39h-1443zM1351 860l-227 -106h-137l176 106h188zM1021 860l-227 -106h-137l176 106h188z" />
    <glyph glyph-name="uhungarumlaut" unicode="&#x171;" horiz-adv-x="1677" 
d="M1419 119q33 0 47.5 15t14.5 47v422h137v-447q0 -80 -37.5 -118t-116.5 -38h-1251q-79 0 -116.5 38t-37.5 118v447h137v-422q0 -32 14.5 -47t47.5 -15h1161zM1244 766l-227 -106h-137l176 106h188zM914 766l-227 -106h-137l176 106h188z" />
    <glyph glyph-name="Uogonek" unicode="&#x172;" horiz-adv-x="1893" 
d="M1763 -64h-31q-75 0 -126.5 -1.5t-81.5 -3.5t-45.5 -6t-20 -8t-4.5 -10q0 -13 34 -13h318v-78h-318q-57 0 -83 13t-26 47q0 35 24 51.5t94.5 24t219.5 7.5h21v50q-30 -9 -70 -9h-1443q-81 0 -120 39t-39 119v542h143v-513q0 -35 13.5 -49t46.5 -14h1355q34 0 47.5 14
t13.5 49v513h142v-542q0 -102 -64 -138v-84z" />
    <glyph glyph-name="uogonek" unicode="&#x173;" horiz-adv-x="1677" 
d="M1557 -64h-31q-75 0 -126.5 -1.5t-81.5 -3.5t-45.5 -6t-20 -8t-4.5 -10q0 -13 34 -13h318v-78h-318q-57 0 -83 13t-26 47q0 35 24 51.5t94.5 24t219.5 7.5h21v50q-28 -9 -68 -9h-1251q-79 0 -116.5 38t-37.5 118v447h137v-422q0 -32 14.5 -47t47.5 -15h1161q33 0 47.5 15
t14.5 47v422h137v-447q0 -101 -61 -137v-83z" />
    <glyph glyph-name="Wcircumflex" unicode="&#x174;" horiz-adv-x="2318" 
d="M2093 0h-776q-75 0 -112.5 29t-45.5 93q-9 -64 -46.5 -93t-112.5 -29h-775q-81 0 -120 39t-39 119v542h143v-513q0 -35 13.5 -49t46.5 -14h755q34 0 49 15.5t15 50.5v510h142v-510q0 -35 15 -50.5t49 -15.5h755q33 0 46.5 14t13.5 49v513h143v-542q0 -80 -39 -119
t-120 -39zM1159 810l-133 -56h-125l169 106h178l169 -106h-125z" />
    <glyph glyph-name="wcircumflex" unicode="&#x175;" horiz-adv-x="2067" 
d="M1034 117q-8 -62 -42 -89.5t-106 -27.5h-673q-79 0 -116.5 38t-37.5 118v447h137v-422q0 -32 14.5 -47t47.5 -15h649q58 0 58 59v425h137v-425q0 -59 58 -59h650q33 0 47 14.5t14 47.5v422h137v-447q0 -80 -37.5 -118t-116.5 -38h-673q-71 0 -105.5 27.5t-41.5 89.5z
M1034 716l-133 -56h-125l169 106h178l169 -106h-125z" />
    <glyph glyph-name="Ycircumflex" unicode="&#x176;" horiz-adv-x="1864" 
d="M1676 700h142v-254q0 -80 -38.5 -119t-118.5 -39h-658v-288h-142v288h-658q-81 0 -119.5 39t-38.5 119v254h142v-226q0 -34 14 -48t47 -14h1367q34 0 47.5 14t13.5 48v226zM932 810l-133 -56h-125l169 106h178l169 -106h-125z" />
    <glyph glyph-name="ycircumflex" unicode="&#x177;" horiz-adv-x="1685" 
d="M1408 -167h-1308v119h1290q49 0 70.5 21t21.5 71v82q-11 -41 -42 -60t-89 -19h-1137q-80 0 -117.5 37.5t-37.5 117.5v401h137v-375q0 -62 62 -62h1162q33 0 47.5 15t14.5 47v375h137v-559q0 -109 -51 -160t-160 -51zM842 716l-133 -56h-125l169 106h178l169 -106h-125z
" />
    <glyph glyph-name="Ydieresis" unicode="&#x178;" horiz-adv-x="1864" 
d="M1676 700h142v-254q0 -80 -38.5 -119t-118.5 -39h-658v-288h-142v288h-658q-81 0 -119.5 39t-38.5 119v254h142v-226q0 -34 14 -48t47 -14h1367q34 0 47.5 14t13.5 48v226zM837 849v-88h-148v88h148zM1175 849v-88h-148v88h148z" />
    <glyph glyph-name="Zacute" unicode="&#x179;" horiz-adv-x="1846" 
d="M1570 412q46 0 64.5 18t18.5 65v81h-1578v124h1721v-221q0 -191 -191 -191h-1332q-46 0 -64.5 -18t-18.5 -65v-81h1606v-124h-1749v221q0 191 191 191h1332zM1173 860l-227 -106h-137l176 106h188z" />
    <glyph glyph-name="zacute" unicode="&#x17a;" horiz-adv-x="1651" 
d="M247 246q-36 0 -52 -16.5t-16 -51.5v-59h1428v-119h-1565v177q0 180 180 180h1180q36 0 52 16t16 51v60h-1405v119h1542v-177q0 -180 -180 -180h-1180zM1082 766l-227 -106h-137l176 106h188z" />
    <glyph glyph-name="Zdotaccent" unicode="&#x17b;" horiz-adv-x="1846" 
d="M1570 412q46 0 64.5 18t18.5 65v81h-1578v124h1721v-221q0 -191 -191 -191h-1332q-46 0 -64.5 -18t-18.5 -65v-81h1606v-124h-1749v221q0 191 191 191h1332zM1007 849v-88h-148v88h148z" />
    <glyph glyph-name="zdotaccent" unicode="&#x17c;" horiz-adv-x="1651" 
d="M247 246q-36 0 -52 -16.5t-16 -51.5v-59h1428v-119h-1565v177q0 180 180 180h1180q36 0 52 16t16 51v60h-1405v119h1542v-177q0 -180 -180 -180h-1180zM917 755v-88h-148v88h148z" />
    <glyph glyph-name="Zcaron" unicode="&#x17d;" horiz-adv-x="1846" 
d="M1570 412q46 0 64.5 18t18.5 65v81h-1578v124h1721v-221q0 -191 -191 -191h-1332q-46 0 -64.5 -18t-18.5 -65v-81h1606v-124h-1749v221q0 191 191 191h1332zM800 860l133 -57l133 57h125l-169 -106h-178l-169 106h125z" />
    <glyph glyph-name="zcaron" unicode="&#x17e;" horiz-adv-x="1651" 
d="M247 246q-36 0 -52 -16.5t-16 -51.5v-59h1428v-119h-1565v177q0 180 180 180h1180q36 0 52 16t16 51v60h-1405v119h1542v-177q0 -180 -180 -180h-1180zM710 766l133 -57l133 57h125l-169 -106h-178l-169 106h125z" />
    <glyph glyph-name="florin" unicode="&#x192;" 
d="M1738 412v-124h-1377v-140q0 -79 -34.5 -113.5t-113.5 -34.5h-169v124h118q33 0 45 12t12 46v106h-175v124h175v131q0 80 38 118.5t119 38.5h1462v-124h-1417q-33 0 -46.5 -13.5t-13.5 -47.5v-103h1377z" />
    <glyph glyph-name="AEacute" unicode="&#x1fc;" horiz-adv-x="2885" 
d="M1392 0v288h-1183v-288h-143v542q0 80 39 119t120 39h2615v-124h-1306v-164h1200v-124h-1200v-164h1306v-124h-1448zM269 576q-33 0 -46.5 -14t-13.5 -49v-101h1183v164h-1123zM1704 860l-227 -106h-137l176 106h188z" />
    <glyph glyph-name="aeacute" unicode="&#x1fd;" horiz-adv-x="2493" 
d="M2315 406v29q0 26 -11.5 37.5t-37.5 11.5h-893q-58 0 -58 -59v-68h951q26 0 37.5 11.5t11.5 37.5zM178 197v-28q0 -26 11.5 -38t37.5 -12h893q58 0 58 59v68h-951q-26 0 -37.5 -11.5t-11.5 -37.5zM1099 0h-920q-71 0 -104.5 34.5t-33.5 107.5v73q0 73 33.5 107.5
t104.5 34.5h999v68q0 59 -58 59h-1050v119h1029q71 0 105.5 -27.5t41.5 -89.5q8 62 42 89.5t106 27.5h919q71 0 105 -34.5t34 -107.5v-73q0 -73 -33.5 -107.5t-104.5 -34.5h-999v-68q0 -59 58 -59h1050v-119h-1029q-72 0 -106 27.5t-42 89.5q-7 -62 -41.5 -89.5
t-105.5 -27.5zM1486 766l-227 -106h-137l176 106h188z" />
    <glyph glyph-name="Oslashacute" unicode="&#x1fe;" horiz-adv-x="1883" 
d="M217 0q-81 0 -119.5 39t-38.5 119v384q0 80 38.5 119t119.5 39h1449q81 0 119.5 -39t38.5 -119v-384q0 -80 -38.5 -119t-119.5 -39h-1449zM500 124h1121q33 0 47 14.5t14 48.5v326q0 53 -38 61zM237 126l1143 450h-1118q-33 0 -47 -14.5t-14 -48.5v-326q0 -53 36 -61z
M1181 860l-227 -106h-137l176 106h188z" />
    <glyph glyph-name="oslashacute" unicode="&#x1ff;" horiz-adv-x="1669" 
d="M1462 603q79 0 116.5 -38t37.5 -118v-291q0 -80 -37.5 -118t-116.5 -38h-1254q-80 0 -117.5 38t-37.5 118v291q0 81 37 118.5t118 37.5h1254zM1418 119q32 0 46.5 15t14.5 47v241q0 50 -37 59l-960 -362h936zM226 122l960 362h-934q-33 0 -47.5 -15t-14.5 -47v-241
q0 -50 36 -59zM1075 766l-227 -106h-137l176 106h188z" />
    <glyph glyph-name="uni0218" unicode="&#x218;" horiz-adv-x="1840" 
d="M215 288q-81 0 -119 38.5t-38 118.5v98q0 80 38 118.5t119 38.5h1550v-124h-1506q-32 0 -45.5 -14t-13.5 -47v-43q0 -32 13.5 -46t45.5 -14h1376q81 0 119 -38.5t38 -118.5v-98q0 -80 -38 -118.5t-119 -38.5h-1589v124h1545q32 0 45.5 14t13.5 47v43q0 32 -13.5 46
t-45.5 14h-1376zM991 -72v-68q0 -50 -26.5 -78.5t-76.5 -28.5h-38v39h33q40 0 40 43v10h-75v83h143z" />
    <glyph glyph-name="uni0219" unicode="&#x219;" horiz-adv-x="1645" 
d="M1575 484h-1344q-26 0 -37.5 -11.5t-11.5 -37.5v-29q0 -26 11.5 -37.5t37.5 -11.5h1236q71 0 104.5 -34.5t33.5 -107.5v-73q0 -73 -34 -107.5t-105 -34.5h-1421v119h1374q26 0 37.5 11.5t11.5 37.5v29q0 26 -11.5 37.5t-37.5 11.5h-1236q-71 0 -104.5 34.5t-33.5 107.5
v73q0 73 33.5 107.5t104.5 34.5h1392v-119zM879 -72v-68q0 -50 -26.5 -78.5t-76.5 -28.5h-38v39h33q40 0 40 43v10h-75v83h143z" />
    <glyph glyph-name="uni021A" unicode="&#x21a;" horiz-adv-x="1813" 
d="M1789 700v-124h-811v-576h-142v576h-812v124h1765zM978 -72v-68q0 -50 -26.5 -78.5t-76.5 -28.5h-38v39h33q40 0 40 43v10h-75v83h143z" />
    <glyph glyph-name="uni021B" unicode="&#x21b;" horiz-adv-x="1530" 
d="M215 0q-81 0 -118.5 38t-37.5 118v614h137v-167h1291v-119h-1291v-303q0 -32 14.5 -47t47.5 -15h1229v-119h-1272zM836 -72v-68q0 -50 -26.5 -78.5t-76.5 -28.5h-38v39h33q40 0 40 43v10h-75v83h143z" />
    <glyph glyph-name="uni0237" unicode="&#x237;" horiz-adv-x="287" 
d="M-33 -48h58q31 0 43.5 12.5t12.5 44.5v594h137v-618q0 -79 -36 -115.5t-117 -36.5h-98v119z" />
    <glyph glyph-name="circumflex" unicode="&#x2c6;" horiz-adv-x="476" 
d="M238 716l-133 -56h-125l169 106h178l169 -106h-125z" />
    <glyph glyph-name="caron" unicode="&#x2c7;" horiz-adv-x="476" 
d="M105 766l133 -57l133 57h125l-169 -106h-178l-169 106h125z" />
    <glyph glyph-name="breve" unicode="&#x2d8;" horiz-adv-x="476" 
d="M26 707v77q77 -55 212 -55t211 55v-77q-72 -58 -211 -58q-138 0 -212 58z" />
    <glyph glyph-name="dotaccent" unicode="&#x2d9;" horiz-adv-x="476" 
d="M312 755v-88h-148v88h148z" />
    <glyph glyph-name="ring" unicode="&#x2da;" horiz-adv-x="476" 
d="M133 728q0 -25 29 -25h152q28 0 28 25t-28 25h-152q-29 0 -29 -25zM305 654h-134q-50 0 -70.5 18.5t-20.5 55.5t20.5 55.5t70.5 18.5h134q50 0 70.5 -18.5t20.5 -55.5t-20.5 -55.5t-70.5 -18.5z" />
    <glyph glyph-name="ogonek" unicode="&#x2db;" horiz-adv-x="479" 
d="M410 -64h-31q-75 0 -126.5 -1.5t-81.5 -3.5t-45.5 -6t-20 -8t-4.5 -10q0 -13 34 -13h318v-78h-318q-57 0 -83 13t-26 47q0 35 24 51.5t94.5 24t219.5 7.5h21v41h25v-64z" />
    <glyph glyph-name="tilde" unicode="&#x2dc;" horiz-adv-x="476" 
d="M26 650v82q56 44 116 44q36 0 102 -23.5t99 -23.5q56 0 106 46v-82q-58 -47 -118 -47q-37 0 -103 24.5t-99 24.5q-54 0 -103 -45z" />
    <glyph glyph-name="hungarumlaut" unicode="&#x2dd;" horiz-adv-x="476" 
d="M592 766l-227 -106h-137l176 106h188zM262 766l-227 -106h-137l176 106h188z" />
    <glyph glyph-name="pi" unicode="&#x3c0;" 
d="M152 0v603h1559v-603h-137v484h-1285v-484h-137z" />
    <glyph glyph-name="uni1E02" unicode="&#x1e02;" horiz-adv-x="1886" 
d="M1833 209v-56q0 -80 -36.5 -116.5t-117.5 -36.5h-1606v700h1606q81 0 117.5 -36.5t36.5 -116.5v-56q0 -67 -28 -100.5t-95 -40.5q67 -7 95 -41t28 -100zM1631 412q34 0 47 13.5t13 47.5v42q0 33 -13.5 47t-45.5 14h-1417v-164h1416zM215 288v-164h1417q32 0 45.5 14
t13.5 47v42q0 34 -13 47.5t-47 13.5h-1416zM1017 849v-88h-148v88h148z" />
    <glyph glyph-name="uni1E03" unicode="&#x1e03;" horiz-adv-x="1677" 
d="M59 156v614h137v-247q11 41 42.5 60.5t89.5 19.5h1142q79 0 116.5 -38t37.5 -118v-291q0 -80 -37.5 -118t-116.5 -38h-1256q-80 0 -117.5 38t-37.5 118zM196 422v-241q0 -32 14.5 -47t47.5 -15h1167q33 0 47.5 15t14.5 47v241q0 32 -14.5 47t-47.5 15h-1167
q-33 0 -47.5 -15t-14.5 -47zM948 755v-88h-148v88h148z" />
    <glyph glyph-name="uni1E0A" unicode="&#x1e0a;" horiz-adv-x="1886" 
d="M1614 700q107 0 163 -55.5t56 -163.5v-262q0 -107 -56 -163t-163 -56h-1541v700h1541zM1590 124q101 0 101 102v248q0 102 -101 102h-1375v-452h1375zM1006 849v-88h-148v88h148z" />
    <glyph glyph-name="uni1E0B" unicode="&#x1e0b;" horiz-adv-x="1677" 
d="M1617 770v-614q0 -80 -37.5 -118t-117.5 -38h-1255q-79 0 -116.5 38t-37.5 118v291q0 80 37.5 118t116.5 38h1142q58 0 89 -19.5t42 -60.5v247h137zM1480 181v241q0 32 -14.5 47t-46.5 15h-1167q-33 0 -47.5 -15t-14.5 -47v-241q0 -32 14.5 -47t47.5 -15h1167
q32 0 46.5 15t14.5 47zM872 755v-88h-148v88h148z" />
    <glyph glyph-name="uni1E1E" unicode="&#x1e1e;" horiz-adv-x="1825" 
d="M73 0v700h1729v-124h-1587v-164h1481v-124h-1481v-288h-142zM1011 849v-88h-148v88h148z" />
    <glyph glyph-name="uni1E1F" unicode="&#x1e1f;" horiz-adv-x="1591" 
d="M272 484q-40 0 -58 -17.5t-18 -58.5v-47h1306v-119h-1306v-242h-137v424q0 92 44 135.5t136 43.5h1328v-119h-1295zM911 755v-88h-148v88h148z" />
    <glyph glyph-name="uni1E40" unicode="&#x1e40;" horiz-adv-x="2318" 
d="M1317 700h776q81 0 120 -39t39 -119v-542h-143v513q0 35 -13.5 49t-46.5 14h-755q-34 0 -49 -15.5t-15 -50.5v-510h-142v510q0 35 -15 50.5t-49 15.5h-755q-33 0 -46.5 -14t-13.5 -49v-513h-143v542q0 80 39 119t120 39h775q75 0 112.5 -29t46.5 -93q8 64 45.5 93
t112.5 29zM1233 849v-88h-148v88h148z" />
    <glyph glyph-name="uni1E41" unicode="&#x1e41;" horiz-adv-x="2067" 
d="M1034 486q7 62 41.5 89.5t105.5 27.5h673q79 0 116.5 -38t37.5 -118v-447h-137v422q0 33 -14 47.5t-47 14.5h-650q-58 0 -58 -59v-425h-137v425q0 59 -58 59h-649q-33 0 -47.5 -15t-14.5 -47v-422h-137v447q0 80 37.5 118t116.5 38h673q72 0 106 -27.5t42 -89.5z
M1108 755v-88h-148v88h148z" />
    <glyph glyph-name="uni1E56" unicode="&#x1e56;" horiz-adv-x="1860" 
d="M73 0v700h1598q81 0 119 -38.5t38 -118.5v-99q0 -80 -38 -118t-119 -38h-1456v-288h-142zM1685 515q0 33 -13.5 47t-45.5 14h-1411v-164h1411q32 0 45.5 14t13.5 46v43zM1017 849v-88h-148v88h148z" />
    <glyph glyph-name="uni1E57" unicode="&#x1e57;" horiz-adv-x="1677" 
d="M59 -167v614q0 80 37.5 118t117.5 38h1256q79 0 116.5 -38t37.5 -118v-291q0 -80 -37.5 -118t-116.5 -38h-1142q-59 0 -90 19t-42 61v-247h-137zM196 422v-241q0 -32 14.5 -47t47.5 -15h1167q33 0 47.5 15t14.5 47v241q0 32 -14.5 47t-47.5 15h-1167q-33 0 -47.5 -15
t-14.5 -47zM912 755v-88h-148v88h148z" />
    <glyph glyph-name="uni1E60" unicode="&#x1e60;" horiz-adv-x="1840" 
d="M215 288q-81 0 -119 38.5t-38 118.5v98q0 80 38 118.5t119 38.5h1550v-124h-1506q-32 0 -45.5 -14t-13.5 -47v-43q0 -32 13.5 -46t45.5 -14h1376q81 0 119 -38.5t38 -118.5v-98q0 -80 -38 -118.5t-119 -38.5h-1589v124h1545q32 0 45.5 14t13.5 47v43q0 32 -13.5 46
t-45.5 14h-1376zM994 849v-88h-148v88h148z" />
    <glyph glyph-name="uni1E61" unicode="&#x1e61;" horiz-adv-x="1645" 
d="M1575 484h-1344q-26 0 -37.5 -11.5t-11.5 -37.5v-29q0 -26 11.5 -37.5t37.5 -11.5h1236q71 0 104.5 -34.5t33.5 -107.5v-73q0 -73 -34 -107.5t-105 -34.5h-1421v119h1374q26 0 37.5 11.5t11.5 37.5v29q0 26 -11.5 37.5t-37.5 11.5h-1236q-71 0 -104.5 34.5t-33.5 107.5
v73q0 73 33.5 107.5t104.5 34.5h1392v-119zM897 755v-88h-148v88h148z" />
    <glyph glyph-name="uni1E6A" unicode="&#x1e6a;" horiz-adv-x="1813" 
d="M1789 700v-124h-811v-576h-142v576h-812v124h1765zM980 849v-88h-148v88h148z" />
    <glyph glyph-name="uni1E6B" unicode="&#x1e6b;" horiz-adv-x="1530" 
d="M215 0q-81 0 -118.5 38t-37.5 118v614h137v-167h1291v-119h-1291v-303q0 -32 14.5 -47t47.5 -15h1229v-119h-1272zM890 755v-88h-148v88h148z" />
    <glyph glyph-name="Wgrave" unicode="&#x1e80;" horiz-adv-x="2318" 
d="M2093 0h-776q-75 0 -112.5 29t-45.5 93q-9 -64 -46.5 -93t-112.5 -29h-775q-81 0 -120 39t-39 119v542h143v-513q0 -35 13.5 -49t46.5 -14h755q34 0 49 15.5t15 50.5v510h142v-510q0 -35 15 -50.5t49 -15.5h755q33 0 46.5 14t13.5 49v513h143v-542q0 -80 -39 -119
t-120 -39zM1144 754l-223 106h182l178 -106h-137z" />
    <glyph glyph-name="wgrave" unicode="&#x1e81;" horiz-adv-x="2067" 
d="M1034 117q-8 -62 -42 -89.5t-106 -27.5h-673q-79 0 -116.5 38t-37.5 118v447h137v-422q0 -32 14.5 -47t47.5 -15h649q58 0 58 59v425h137v-425q0 -59 58 -59h650q33 0 47 14.5t14 47.5v422h137v-447q0 -80 -37.5 -118t-116.5 -38h-673q-71 0 -105.5 27.5t-41.5 89.5z
M1019 660l-223 106h182l178 -106h-137z" />
    <glyph glyph-name="Wacute" unicode="&#x1e82;" horiz-adv-x="2318" 
d="M2093 0h-776q-75 0 -112.5 29t-45.5 93q-9 -64 -46.5 -93t-112.5 -29h-775q-81 0 -120 39t-39 119v542h143v-513q0 -35 13.5 -49t46.5 -14h755q34 0 49 15.5t15 50.5v510h142v-510q0 -35 15 -50.5t49 -15.5h755q33 0 46.5 14t13.5 49v513h143v-542q0 -80 -39 -119
t-120 -39zM1399 860l-227 -106h-137l176 106h188z" />
    <glyph glyph-name="wacute" unicode="&#x1e83;" horiz-adv-x="2067" 
d="M1034 117q-8 -62 -42 -89.5t-106 -27.5h-673q-79 0 -116.5 38t-37.5 118v447h137v-422q0 -32 14.5 -47t47.5 -15h649q58 0 58 59v425h137v-425q0 -59 58 -59h650q33 0 47 14.5t14 47.5v422h137v-447q0 -80 -37.5 -118t-116.5 -38h-673q-71 0 -105.5 27.5t-41.5 89.5z
M1274 766l-227 -106h-137l176 106h188z" />
    <glyph glyph-name="Wdieresis" unicode="&#x1e84;" horiz-adv-x="2318" 
d="M2093 0h-776q-75 0 -112.5 29t-45.5 93q-9 -64 -46.5 -93t-112.5 -29h-775q-81 0 -120 39t-39 119v542h143v-513q0 -35 13.5 -49t46.5 -14h755q34 0 49 15.5t15 50.5v510h142v-510q0 -35 15 -50.5t49 -15.5h755q33 0 46.5 14t13.5 49v513h143v-542q0 -80 -39 -119
t-120 -39zM1064 849v-88h-148v88h148zM1402 849v-88h-148v88h148z" />
    <glyph glyph-name="wdieresis" unicode="&#x1e85;" horiz-adv-x="2067" 
d="M1034 117q-8 -62 -42 -89.5t-106 -27.5h-673q-79 0 -116.5 38t-37.5 118v447h137v-422q0 -32 14.5 -47t47.5 -15h649q58 0 58 59v425h137v-425q0 -59 58 -59h650q33 0 47 14.5t14 47.5v422h137v-447q0 -80 -37.5 -118t-116.5 -38h-673q-71 0 -105.5 27.5t-41.5 89.5z
M939 755v-88h-148v88h148zM1277 755v-88h-148v88h148z" />
    <glyph glyph-name="Ygrave" unicode="&#x1ef2;" horiz-adv-x="1864" 
d="M1676 700h142v-254q0 -80 -38.5 -119t-118.5 -39h-658v-288h-142v288h-658q-81 0 -119.5 39t-38.5 119v254h142v-226q0 -34 14 -48t47 -14h1367q34 0 47.5 14t13.5 48v226zM917 754l-223 106h182l178 -106h-137z" />
    <glyph glyph-name="ygrave" unicode="&#x1ef3;" horiz-adv-x="1685" 
d="M1408 -167h-1308v119h1290q49 0 70.5 21t21.5 71v82q-11 -41 -42 -60t-89 -19h-1137q-80 0 -117.5 37.5t-37.5 117.5v401h137v-375q0 -62 62 -62h1162q33 0 47.5 15t14.5 47v375h137v-559q0 -109 -51 -160t-160 -51zM828 660l-223 106h182l178 -106h-137z" />
    <glyph glyph-name="uni2010" unicode="&#x2010;" horiz-adv-x="728" 
d="M687 388v-122h-646v122h646z" />
    <glyph glyph-name="figuredash" unicode="&#x2012;" 
d="M1863 388v-122h-1863v122h1863z" />
    <glyph glyph-name="endash" unicode="&#x2013;" horiz-adv-x="959" 
d="M959 388v-122h-959v122h959z" />
    <glyph glyph-name="emdash" unicode="&#x2014;" horiz-adv-x="1918" 
d="M1918 388v-122h-1918v122h1918z" />
    <glyph glyph-name="quoteleft" unicode="&#x2018;" horiz-adv-x="311" 
d="M70 443v117q0 66 34 103t100 37h36v-65h-29q-26 0 -38 -11.5t-12 -41.5v-22h79v-117h-170z" />
    <glyph glyph-name="quoteright" unicode="&#x2019;" horiz-adv-x="311" 
d="M241 700v-117q0 -66 -34 -103t-100 -37h-36v65h29q26 0 38 11.5t12 41.5v22h-79v117h170z" />
    <glyph glyph-name="quotesinglbase" unicode="&#x201a;" horiz-adv-x="311" 
d="M241 118v-117q0 -66 -34 -103t-100 -37h-36v65h29q26 0 38 11.5t12 41.5v22h-79v117h170z" />
    <glyph glyph-name="quotedblleft" unicode="&#x201c;" horiz-adv-x="558" 
d="M317 443v117q0 66 34 103t100 37h36v-65h-29q-26 0 -38 -11.5t-12 -41.5v-22h79v-117h-170zM70 443v117q0 66 34 103t100 37h36v-65h-29q-26 0 -38 -11.5t-12 -41.5v-22h79v-117h-170z" />
    <glyph glyph-name="quotedblright" unicode="&#x201d;" horiz-adv-x="558" 
d="M488 700v-117q0 -66 -34 -103t-100 -37h-36v65h29q26 0 38 11.5t12 41.5v22h-79v117h170zM241 700v-117q0 -66 -34 -103t-100 -37h-36v65h29q26 0 38 11.5t12 41.5v22h-79v117h170z" />
    <glyph glyph-name="quotedblbase" unicode="&#x201e;" horiz-adv-x="558" 
d="M488 118v-117q0 -66 -34 -103t-100 -37h-36v65h29q26 0 38 11.5t12 41.5v22h-79v117h170zM241 118v-117q0 -66 -34 -103t-100 -37h-36v65h29q26 0 38 11.5t12 41.5v22h-79v117h170z" />
    <glyph glyph-name="dagger" unicode="&#x2020;" horiz-adv-x="1729" 
d="M1693 525v-124h-758v-533h-142v533h-757v124h757v215h142v-215h758z" />
    <glyph glyph-name="daggerdbl" unicode="&#x2021;" horiz-adv-x="1729" 
d="M1693 250v-124h-758v-258h-142v258h-757v124h757v151h-757v124h757v215h142v-215h758v-124h-758v-151h758z" />
    <glyph glyph-name="bullet" unicode="&#x2022;" horiz-adv-x="959" 
d="M558 145h-157q-164 0 -164 155v100q0 155 164 155h157q164 0 164 -155v-100q0 -155 -164 -155z" />
    <glyph glyph-name="ellipsis" unicode="&#x2026;" horiz-adv-x="805" 
d="M241 118v-118h-170v118h170zM488 118v-118h-170v118h170zM735 118v-118h-170v118h170z" />
    <glyph glyph-name="perthousand" unicode="&#x2030;" horiz-adv-x="3620" 
d="M971 0l471 700h129l-471 -700h-129zM1502 125v284q0 64 30 94.5t95 30.5h738q64 0 94.5 -30.5t30.5 -94.5v-284q0 -64 -30.5 -94.5t-94.5 -30.5h-738q-65 0 -95 30.5t-30 94.5zM2371 149v236q0 44 -43 44h-663q-23 0 -33.5 -10t-10.5 -34v-236q0 -24 10.5 -34t33.5 -10
h663q43 0 43 44zM2580 125v284q0 64 30 94.5t95 30.5h738q64 0 94.5 -30.5t30.5 -94.5v-284q0 -64 -30.5 -94.5t-94.5 -30.5h-738q-65 0 -95 30.5t-30 94.5zM3449 149v236q0 44 -43 44h-663q-23 0 -33.5 -10t-10.5 -34v-236q0 -24 10.5 -34t33.5 -10h663q43 0 43 44zM52 291
v284q0 64 30 94.5t95 30.5h738q64 0 94.5 -30.5t30.5 -94.5v-284q0 -64 -30.5 -94.5t-94.5 -30.5h-738q-65 0 -95 30.5t-30 94.5zM921 315v236q0 44 -43 44h-663q-23 0 -33.5 -10t-10.5 -34v-236q0 -24 10.5 -34t33.5 -10h663q43 0 43 44z" />
    <glyph glyph-name="guilsinglleft" unicode="&#x2039;" horiz-adv-x="405" 
d="M378 51h-151l-201 249l201 249h151l-204 -249z" />
    <glyph glyph-name="guilsinglright" unicode="&#x203a;" horiz-adv-x="405" 
d="M178 51h-151l204 249l-204 249h151l201 -249z" />
    <glyph glyph-name="fraction" unicode="&#x2044;" horiz-adv-x="654" 
d="M27 0l471 700h129l-471 -700h-129z" />
    <glyph glyph-name="zerosuperior" unicode="&#x2070;" horiz-adv-x="1092" 
d="M52 291v284q0 64 30 94.5t95 30.5h738q64 0 94.5 -30.5t30.5 -94.5v-284q0 -64 -30.5 -94.5t-94.5 -30.5h-738q-65 0 -95 30.5t-30 94.5zM921 315v236q0 44 -43 44h-663q-23 0 -33.5 -10t-10.5 -34v-236q0 -24 10.5 -34t33.5 -10h663q43 0 43 44z" />
    <glyph glyph-name="foursuperior" unicode="&#x2074;" horiz-adv-x="1092" 
d="M908 485v215h119v-534h-119v215h-743q-64 0 -94.5 30.5t-30.5 93.5v195h119v-171q0 -44 44 -44h705z" />
    <glyph glyph-name="zeroinferior" unicode="&#x2080;" horiz-adv-x="1092" 
d="M52 125v284q0 64 30 94.5t95 30.5h738q64 0 94.5 -30.5t30.5 -94.5v-284q0 -64 -30.5 -94.5t-94.5 -30.5h-738q-65 0 -95 30.5t-30 94.5zM921 149v236q0 44 -43 44h-663q-23 0 -33.5 -10t-10.5 -34v-236q0 -24 10.5 -34t33.5 -10h663q43 0 43 44z" />
    <glyph glyph-name="oneinferior" unicode="&#x2081;" horiz-adv-x="1092" 
d="M106 0v105h464v324h-464v105h583v-429h348v-105h-931z" />
    <glyph glyph-name="twoinferior" unicode="&#x2082;" horiz-adv-x="1092" 
d="M934 364v20q0 25 -10 35.5t-34 10.5h-827v104h867q63 0 93 -30.5t30 -93.5v-70q0 -64 -30 -94.5t-93 -30.5h-703q-37 0 -51 -13.5t-14 -50.5v-46h891v-105h-1010v169q0 151 151 151h696q24 0 34 9.5t10 34.5z" />
    <glyph glyph-name="threeinferior" unicode="&#x2083;" horiz-adv-x="1092" 
d="M1049 412v-37q0 -48 -20.5 -75t-76.5 -33q56 -6 76.5 -33t20.5 -75v-37q0 -63 -29 -92.5t-92 -29.5h-889v105h847q24 0 34 10t10 35v20q0 24 -10 34.5t-33 10.5h-764v104h764q43 0 43 45v20q0 25 -10 35t-34 10h-847v105h889q63 0 92 -29.5t29 -92.5z" />
    <glyph glyph-name="fourinferior" unicode="&#x2084;" horiz-adv-x="1092" 
d="M908 319v215h119v-534h-119v215h-743q-64 0 -94.5 30.5t-30.5 93.5v195h119v-171q0 -44 44 -44h705z" />
    <glyph glyph-name="Euro" unicode="&#x20ac;" 
d="M280 0q-81 0 -119.5 39t-38.5 119v130h-97v124h97v130q0 80 38.5 119t119.5 39h1539v-124h-1494q-33 0 -47 -14.5t-14 -48.5v-101h1450v-124h-1450v-101q0 -34 14 -48.5t47 -14.5h1494v-124h-1539z" />
    <glyph glyph-name="uni2117" unicode="&#x2117;" horiz-adv-x="1895" 
d="M320 377h1256q20 0 20 19v39q0 20 -20 20h-1256v-78zM1661 447v-62q0 -63 -63 -63h-1278v-134h-66v323h1344q63 0 63 -64zM226 0q-86 0 -126.5 41t-40.5 125v368q0 84 40.5 125t126.5 41h1443q86 0 126.5 -41t40.5 -125v-368q0 -84 -40.5 -125t-126.5 -41h-1443zM230 60
h1435q103 0 103 103v374q0 103 -103 103h-1435q-103 0 -103 -103v-374q0 -103 103 -103z" />
    <glyph glyph-name="trademark" unicode="&#x2122;" horiz-adv-x="2649" 
d="M1817 167v378q0 50 -48 50h-442q-23 0 -32.5 -9.5t-9.5 -33.5v-385h-120v413q0 120 120 120h465q61 0 90.5 -24t36.5 -77q6 53 36 77t91 24h464q62 0 91 -29.5t29 -90.5v-413h-119v385q0 24 -10 33.5t-33 9.5h-442q-48 0 -48 -50v-378h-119zM1085 700v-105h-468v-428
h-120v428h-467v105h1055z" />
    <glyph glyph-name="uni2126" unicode="&#x2126;" 
d="M1663 413v102q0 33 -13.5 47t-45.5 14h-1345q-32 0 -45.5 -14t-13.5 -47v-102q0 -32 14 -46.5t45 -14.5h562v-352h-775v124h658v105h-489q-81 0 -119 38.5t-38 118.5v157q0 80 38 118.5t119 38.5h1432q81 0 119.5 -38.5t38.5 -118.5v-157q0 -80 -38 -118.5t-119 -38.5
h-489v-105h658v-124h-776v352h563q31 0 45 14.5t14 46.5z" />
    <glyph glyph-name="onethird" unicode="&#x2153;" horiz-adv-x="2542" 
d="M106 166v105h464v324h-464v105h583v-429h348v-105h-931zM971 0l471 700h129l-471 -700h-129zM2499 412v-37q0 -48 -20.5 -75t-76.5 -33q56 -6 76.5 -33t20.5 -75v-37q0 -63 -29 -92.5t-92 -29.5h-889v105h847q24 0 34 10t10 35v20q0 24 -10 34.5t-33 10.5h-764v104h764
q43 0 43 45v20q0 25 -10 35t-34 10h-847v105h889q63 0 92 -29.5t29 -92.5z" />
    <glyph glyph-name="twothirds" unicode="&#x2154;" horiz-adv-x="2542" 
d="M934 530v20q0 25 -10 35.5t-34 10.5h-827v104h867q63 0 93 -30.5t30 -93.5v-70q0 -64 -30 -94.5t-93 -30.5h-703q-37 0 -51 -13.5t-14 -50.5v-46h891v-105h-1010v169q0 151 151 151h696q24 0 34 9.5t10 34.5zM971 0l471 700h129l-471 -700h-129zM2499 412v-37
q0 -48 -20.5 -75t-76.5 -33q56 -6 76.5 -33t20.5 -75v-37q0 -63 -29 -92.5t-92 -29.5h-889v105h847q24 0 34 10t10 35v20q0 24 -10 34.5t-33 10.5h-764v104h764q43 0 43 45v20q0 25 -10 35t-34 10h-847v105h889q63 0 92 -29.5t29 -92.5z" />
    <glyph glyph-name="partialdiff" unicode="&#x2202;" 
d="M1806 481v-324q0 -80 -38 -118.5t-119 -38.5h-1445q-81 0 -119.5 38.5t-38.5 118.5v98q0 80 38.5 118.5t119.5 38.5h1460v62q0 102 -101 102h-1489v124h1513q107 0 163 -55.5t56 -163.5zM189 228v-43q0 -33 13.5 -47t44.5 -14h1356q33 0 47 14t14 48v102h-1417
q-31 0 -44.5 -14t-13.5 -46z" />
    <glyph glyph-name="uni2206" unicode="&#x2206;" 
d="M34 0l897 725l897 -725h-1794zM931 561l-553 -447h1106z" />
    <glyph glyph-name="product" unicode="&#x220f;" 
d="M1662 -132v708h-1461v-708h-142v832h1745v-832h-142z" />
    <glyph glyph-name="summation" unicode="&#x2211;" 
d="M1804 -8v-124h-1746v109l614 307l-614 307v109h1746v-124h-1432l576 -292l-576 -292h1432z" />
    <glyph glyph-name="minus" unicode="&#x2212;" 
d="M59 291v118h1745v-118h-1745z" />
    <glyph glyph-name="radical" unicode="&#x221a;" 
d="M1209 0l-202 291h-948v118h1026l198 -279l405 570h153l-484 -700h-148z" />
    <glyph glyph-name="infinity" unicode="&#x221e;" horiz-adv-x="733" 
d="M345 317q-12 0 -23.5 12.5t-14.5 12.5t-11 -2t-14 -2q-8 0 -14.5 8t-6.5 17q0 22 8 35q-7 -7 -16 -37t-26 -41q-18 -12 -18 -40q0 -11 11 -21.5t11 -12.5q0 -4 -3 -4q-7 0 -12 5q13 -68 48 -104h-55q-35 114 -35 226q0 105 40.5 171.5t135.5 66.5q190 0 190 -254
q0 -75 -25 -210h-73q53 47 62 117q-4 -8 -13 -8q-3 0 -3 2l4 4q5 3 9.5 11.5t4.5 21.5q-4 -6 -15 -6q-1 0 -10.5 -4.5t-15.5 -4.5q-14 0 -40 3.5t-70 3.5q-22 0 -52.5 -6t-38.5 -6q-5 0 -13 2t-11 2q-28 0 -28 12q0 10 37 18.5t74 8.5q5 0 12 -0.5t12 -0.5t15.5 2t14.5 2
q112 0 127 -20q-1 16 -14 29t-30 13q-6 0 -6 7q0 57 -16 58q4 -7 4 -17q0 -18 -11 -32t-27 -14q-4 0 -10 2l-7 2q-1 0 -14.5 -14t-27.5 -14zM733 291v-148q-22 48 -69 112.5t-67 64.5q6 -85 -12 -177h-42q16 104 16 199q0 319 -213 319q-53 0 -91.5 -26.5t-59 -72.5
t-30 -97.5t-9.5 -111.5q0 -123 29 -210h-47q-19 67 -19 184q-17 -9 -39.5 -43.5t-49 -84.5t-30.5 -56v148q11 27 33 54t50 53.5t30 28.5q3 72 27 135t75.5 107.5t120.5 44.5q67 0 115.5 -22.5t76.5 -64t42.5 -87t22.5 -105.5q22 -5 68 -48t72 -96zM345 503q-3 3 -3 6
q0 2 2 2q1 0 6 -4.5t15 -8.5t22 -4q16 0 29 4t20 8l6 5q4 0 4 -2l-8 -8q24 0 52 -11q-29 80 -139 80q-55 0 -92 -33t-50 -85q37 20 41 39q-6 4 -6 7q0 4 3 4l2 -2q2 -1 6.5 -3.5t10 -5t13.5 -4t17 -1.5q24 0 49 17zM371 416q0 20 -4.5 40t-9.5 20q-10 0 -19 -39t-14 -39
q-3 0 -9.5 3t-11.5 3q-13 0 -21 -10.5t-8 -24.5t11 -14t18 6.5t9 6.5t12 -13.5t20 -13.5q14 0 25 10.5t12 10.5q3 0 10 -3.5t9 -3.5q10 0 18 11t8 24q0 10 -6 18t-16 8q-7 0 -14.5 -6.5t-11.5 -6.5q-7 0 -7 13zM510 318q0 95 -12 147l-5 3q0 -21 -18 -32t-41 -11
q-21 0 -37 12.5t-16 29.5q0 6 2 9q-12 2 -15 4q6 -9 10 -24t5.5 -24t4.5 -9q7 2 15 2q19 0 31 -14q34 0 34 -51q0 -3 8 -7t18.5 -13t15.5 -22zM383 310q-1 0 -8 -1t-15.5 -2t-13.5 -1t-13 1.5t-11 1.5q-15 0 -36 -4t-35 -9t-14 -8q0 -10 20 -10q24 0 54 6.5t44 6.5
q19 0 57.5 -3.5t52.5 -3.5q5 0 9.5 2t7.5 4t3 3q0 5 -36 11t-66 6zM267 413q-18 0 -31 10t-15 21q-4 -2 -15 -5q-4 -21 -4 -43q0 -50 3 -78q4 6 22 22t20 31q5 37 38 41q12 5 23 5q5 0 8.5 8.5t9.5 24.5t16 28l-13 -4q-1 -24 -18.5 -42.5t-43.5 -18.5zM419 465q-13 0 -16 13
q-5 0 -8.5 -5.5t-3.5 -9.5q0 -10 15 -17t31 -7q14 0 29 8.5t15 21.5q0 8 -14.5 12.5t-28.5 4.5q-5 -21 -19 -21zM267 427q14 0 30 11t16 24q0 6 -1 9q-20 0 -27 1q-5 -14 -18 -14q-10 0 -15 5q-4 -4 -18 -12q4 -24 33 -24zM266 288q-2 0 -2 3q0 12 107 12q93 0 93 -8
q0 -3 -3 -3q-1 0 -4 0.5t-10 1t-16 1.5t-24.5 1.5t-33.5 0.5q-36 0 -61 -2.5t-36 -4.5zM305 262q0 10 63 10q31 0 31 -8q0 -3 -2 -3q-4 0 -10 2t-10 2q-11 0 -26 -0.5t-20 -0.5q-4 0 -11.5 -3t-10.5 -3q-4 0 -4 4zM417 473q9 0 9 13q-1 0 -16 -6q0 -7 7 -7zM266 466
q7 0 10 9q-6 1 -11 4q0 -4 -6 -10q1 -3 7 -3zM325 34l-3 48l-10 -82h-21l15 125h25l4 -60l21 60h26l-15 -125h-22l10 82l-16 -48h-14zM21 125h35q23 0 20 -21l-10 -82q-3 -22 -22 -22h-38zM282 44q-1 -12 -10 -17l8 -27h-21l-7 23h-7l-3 -23h-22l15 125h36q21 0 18 -24z
M183 0l3 23h-14l-3 -23h-21l12 104q2 21 22 21h17q19 0 18 -21l-12 -104h-22zM594 0l15 125h35q23 0 20 -21l-8 -62q-3 -19 -22 -19h-15l-3 -23h-22zM111 0l3 23h-13l-3 -23h-22l15 125h22l-10 -83h13l10 83h22l-15 -125h-22zM539 125h22l-10 -79q0 -4 4 -4h5q5 0 5 4l9 79
h22l-10 -81q-3 -21 -19 -21l-9 -23h-23l9 23q-18 0 -15 21zM477 106l3 19h50l-3 -19h-13l-12 -106h-23l12 106h-14zM41 106l-11 -88h11q3 0 3 4l9 80q0 4 -4 4h-8zM629 106l-8 -64h8q5 0 5 4l7 56q0 4 -4 4h-8zM174 42h14l7 60q0 4 -4 4h-5q-5 0 -5 -4zM255 106l-8 -64h8
q5 0 5 4l7 56q0 4 -3 4h-9zM711 57l-3 -18h-19l-3 -21h27l-2 -18h-49l15 125h47l-3 -19h-24l-6 -49h20zM417 0l3 23h-14l-3 -23h-21l12 104q2 21 22 21h17q19 0 18 -21l-12 -104h-22zM408 42h14l7 60q0 4 -4 4h-5q-5 0 -5 -4z" />
    <glyph glyph-name="integral" unicode="&#x222b;" 
d="M1085 508l-172 -492q-28 -79 -75.5 -113.5t-134.5 -34.5h-644v124h632q40 0 62 15t36 53l172 492q28 79 75.5 113.5t134.5 34.5h633v-124h-622q-40 0 -61.5 -15t-35.5 -53z" />
    <glyph glyph-name="approxequal" unicode="&#x2248;" 
d="M59 127v124q168 77 395 77q156 0 479 -50.5t479 -50.5q228 0 392 76v-125q-169 -77 -396 -77q-156 0 -480 51t-479 51q-224 0 -390 -76zM59 397v125q166 77 393 77q156 0 479.5 -51t478.5 -51q226 0 394 77v-125q-169 -77 -396 -77q-157 0 -480 50.5t-478 50.5
q-227 0 -391 -76z" />
    <glyph glyph-name="notequal" unicode="&#x2260;" 
d="M764 0h-138l108 156h-646v118h728l105 152h-833v118h915l108 156h138l-108 -156h634v-118h-716l-105 -152h821v-118h-903z" />
    <glyph glyph-name="lessequal" unicode="&#x2264;" 
d="M59 350l269 287h155l-218 -228h1539v-118h-1539l165 -173h1374v-118h-1745v118h217z" />
    <glyph glyph-name="greaterequal" unicode="&#x2265;" 
d="M1535 637l269 -287l-217 -232h217v-118h-1745v118h1374l165 173h-1539v118h1539l-218 228h155z" />
    <glyph glyph-name="lozenge" unicode="&#x25ca;" 
d="M931 -25l-897 373l897 373l897 -373zM931 110l572 238l-572 238l-572 -238z" />
    <glyph glyph-name="commaaccent" horiz-adv-x="479" 
d="M311 -72v-68q0 -50 -26.5 -78.5t-76.5 -28.5h-38v39h33q40 0 40 43v10h-75v83h143z" />
    <glyph glyph-name="f.alt" horiz-adv-x="1591" 
d="M272 484q-40 0 -58 -17.5t-18 -58.5v-47h1306v-119h-1306v-409h-137v591q0 92 44 135.5t136 43.5h1328v-119h-1295z" />
    <glyph glyph-name="i.alt" horiz-adv-x="274" 
d="M69 0v603h136v-603h-136zM224 757v-90h-174v90h174z" />
    <glyph glyph-name="i.trk" horiz-adv-x="382" 
d="M258 119h102v-119h-144q-81 0 -117 36.5t-36 115.5v451h136v-425q0 -32 13.5 -45.5t45.5 -13.5zM218 757v-90h-174v90h174z" />
    <glyph glyph-name="germandbls.alt" horiz-adv-x="1702" 
d="M1472 246h-1073v111h1073q27 0 38 11t11 38v26q0 28 -11.5 40t-39.5 12h-1196q-40 0 -59 -18t-19 -59v-574h-137v592q0 91 44 134.5t135 43.5h1283q72 0 104.5 -33t32.5 -103v-46q0 -55 -22.5 -84.5t-76.5 -35.5q54 -6 76.5 -35.5t22.5 -83.5v-46q0 -71 -33.5 -103.5
t-103.5 -32.5h-1122v119h1071q28 0 39.5 12t11.5 40v26q0 26 -11 37.5t-38 11.5z" />
    <glyph glyph-name="one.pnum" horiz-adv-x="468" 
d="M396 700v-700h-142v576h-229v124h371z" />
    </font>
</defs>
</svg>
