<?xml version="1.0" standalone="no"?>
<!DOCTYPE svg PUBLIC "-//W3C//DTD SVG 1.1//EN" "http://www.w3.org/Graphics/SVG/1.1/DTD/svg11.dtd" >
<svg xmlns="http://www.w3.org/2000/svg" xmlns:xlink="http://www.w3.org/1999/xlink" version="1.1">
<metadata>
Created by FontForge 20170731 at Sat Mar 14 00:16:18 2015
 By ,,,
Copyright (c) 2011 by Ryoichi Tsunekawa. All rights reserved.
</metadata>
<defs>
<font id="DesignSystemE-100I" horiz-adv-x="1837" >
  <font-face 
    font-family="DesignSystemE-100I"
    font-weight="400"
    font-style="italic"
    font-stretch="normal"
    units-per-em="1000"
    panose-1="4 5 4 8 2 11 2 2 3 2"
    ascent="822"
    descent="-178"
    x-height="603"
    cap-height="700"
    bbox="-132 -201 3448.03 934"
    underline-thickness="36"
    underline-position="-156"
    slope="-8"
    unicode-range="U+0020-FB02"
  />
<missing-glyph horiz-adv-x="959" 
d="M8 700h959v-700h-959v700zM48 664v-619l825 619h-825zM102 36h825v619z" />
    <glyph glyph-name="ij" unicode="ij" horiz-adv-x="491" 
d="M138 -131h54q59 0 83.5 21t33.5 82l88 631h40l-89 -632q-11 -75 -46 -106.5t-110 -31.5h-59zM386 689l6 41h86l-6 -41h-86zM59 0l84 603h40l-84 -603h-40zM224 730l-6 -41h-86l6 41h86z" />
    <glyph glyph-name="fi" unicode="fi" horiz-adv-x="1906" 
d="M296 567q-70 0 -106.5 -31t-46.5 -103l-16 -114h1335l-5 -36h-1335l-63 -450h-40l84 600q12 87 59.5 128.5t135.5 41.5h1270l-5 -36h-1267zM1750 36h89l-5 -36h-94q-75 0 -102.5 32t-16.5 106l65 465h40l-65 -464q-9 -60 10 -81.5t79 -21.5zM1767 730l-6 -41h-86l6 41h86
z" />
    <glyph glyph-name="fl" unicode="fl" horiz-adv-x="1904" 
d="M296 567q-70 0 -106.5 -31t-46.5 -103l-16 -114h1335l-5 -36h-1335l-63 -450h-40l84 600q12 87 59.5 128.5t135.5 41.5h1270l-5 -36h-1267zM1748 36h89l-5 -36h-94q-75 0 -102.5 32t-16.5 106l89 632h40l-89 -631q-9 -60 10 -81.5t79 -21.5z" />
    <glyph glyph-name=".notdef" horiz-adv-x="959" 
d="M8 700h959v-700h-959v700zM48 664v-619l825 619h-825zM102 36h825v619z" />
    <glyph glyph-name=".null" horiz-adv-x="0" 
 />
    <glyph glyph-name="nonmarkingreturn" horiz-adv-x="333" 
 />
    <glyph glyph-name="space" unicode=" " horiz-adv-x="489" 
 />
    <glyph glyph-name="exclam" unicode="!" horiz-adv-x="301" 
d="M154 51l-7 -51h-77l7 51h77zM226 700l-33 -236q-15 -103 -52 -299h-20q16 186 32 299l33 236h40z" />
    <glyph glyph-name="quotedbl" unicode="&#x22;" horiz-adv-x="374" 
d="M152 700v-49q0 -38 -13 -259h-14q-13 221 -13 259v49h40zM328 700v-49q0 -38 -13 -259h-14q-13 221 -13 259v49h40z" />
    <glyph glyph-name="numbersign" unicode="#" 
d="M1608 0l8 151h-1410l-8 -151h-40l8 151h-120l2 36h120l17 326h-120l2 36h120l8 151h40l-8 -151h1410l8 151h40l-8 -151h120l-2 -36h-120l-17 -326h120l-2 -36h-120l-8 -151h-40zM225 513l-17 -326h1410l17 326h-1410z" />
    <glyph glyph-name="dollar" unicode="$" 
d="M29 86h1584q50 0 74.5 21t31.5 72l8 61q7 50 -11.5 71.5t-68.5 21.5h-1454q-68 0 -94.5 31.5t-16.5 101.5l7 53q10 69 45.5 101t103.5 32h710l13 88h36l-13 -88h814l-5 -36h-1558q-50 0 -74 -21.5t-31 -71.5l-9 -62q-7 -50 11 -71t68 -21h1455q67 0 94 -32t17 -102
l-7 -52q-10 -69 -45.5 -101t-102.5 -32h-711l-13 -90h-36l13 90h-840z" />
    <glyph glyph-name="percent" unicode="%" horiz-adv-x="2446" 
d="M933 0l569 700h42l-569 -700h-42zM1420 114l43 306q16 114 130 114h709q59 0 82.5 -28t15.5 -86l-43 -306q-16 -114 -130 -114h-709q-59 0 -82.5 28t-15.5 86zM2316 111l44 312q6 40 -9.5 57.5t-53.5 17.5h-709q-38 0 -58.5 -17.5t-26.5 -57.5l-44 -312
q-5 -40 10.5 -57.5t53.5 -17.5h709q38 0 58.5 17.5t25.5 57.5zM76 280l43 306q16 114 130 114h709q59 0 82.5 -28t15.5 -86l-43 -306q-16 -114 -130 -114h-709q-59 0 -82.5 28t-15.5 86zM972 277l44 312q6 40 -9.5 57.5t-53.5 17.5h-709q-38 0 -58.5 -17.5t-26.5 -57.5
l-44 -312q-5 -40 10.5 -57.5t53.5 -17.5h709q38 0 58.5 17.5t25.5 57.5z" />
    <glyph glyph-name="ampersand" unicode="&#x26;" horiz-adv-x="1930" 
d="M1774 332h-1534q-63 0 -91 -26t-37 -91l-9 -65q-9 -61 13 -87.5t80 -26.5h1431q62 0 87 22t33 85zM62 146l9 66q9 66 38.5 98.5t91.5 39.5q-60 7 -80 39t-11 99l9 66q11 75 51 110.5t116 35.5h1530l-5 -36h-1527q-58 0 -87.5 -26.5t-37.5 -87.5l-9 -65q-9 -65 11.5 -91
t83.5 -26h1676l-5 -36h-102l-28 -193q-10 -75 -46.5 -107t-111.5 -32h-1440q-76 0 -106.5 35.5t-19.5 110.5z" />
    <glyph glyph-name="quotesingle" unicode="'" horiz-adv-x="198" 
d="M152 700v-49q0 -38 -13 -259h-14q-13 221 -13 259v49h40z" />
    <glyph glyph-name="parenleft" unicode="(" horiz-adv-x="335" 
d="M119 75q-10 -66 12.5 -92.5t86.5 -26.5h34l-5 -36h-41q-149 0 -128 148l68 484q21 148 170 148h41l-5 -36h-34q-64 0 -94 -26.5t-39 -92.5z" />
    <glyph glyph-name="parenright" unicode=")" horiz-adv-x="335" 
d="M173 75l66 470q10 66 -12.5 92.5t-86.5 26.5h-34l5 36h41q149 0 128 -148l-68 -484q-19 -148 -170 -148h-41l5 36h34q64 0 94 26.5t39 92.5z" />
    <glyph glyph-name="asterisk" unicode="*" horiz-adv-x="538" 
d="M297 457q68 34 157 61l80 25l9 -33l-81 -25q-109 -32 -163 -40q62 -82 87 -125l38 -66l-29 -20l-39 66q-42 72 -67 136q-54 -78 -106 -136l-56 -66l-27 20l57 66q40 47 122 125q-52 8 -152 40l-74 25l13 32l75 -24q93 -32 143 -61q0 71 12 162l12 81h34l-12 -81
q-13 -96 -33 -162z" />
    <glyph glyph-name="plus" unicode="+" 
d="M82 331v36h821v252h36v-252h822v-36h-822v-251h-36v251h-821z" />
    <glyph glyph-name="comma" unicode="," horiz-adv-x="295" 
d="M151 51l-7 -47q-6 -45 -24.5 -65t-54.5 -20h-10l3 21h11q32 0 39 47l2 17h-43l7 47h77z" />
    <glyph glyph-name="hyphen" unicode="-" horiz-adv-x="729" 
d="M684 345l-5 -36h-627l5 36h627z" />
    <glyph glyph-name="period" unicode="." horiz-adv-x="295" 
d="M151 51l-7 -51h-77l7 51h77z" />
    <glyph glyph-name="slash" unicode="/" horiz-adv-x="632" 
d="M38 0l515 700h44l-515 -700h-44z" />
    <glyph glyph-name="zero" unicode="0" 
d="M198 0q-77 0 -108.5 37t-20.5 113l56 400q11 76 52.5 113t118.5 37h1378q151 0 130 -150l-56 -400q-22 -150 -172 -150h-1378zM1708 156l55 388q9 66 -13.5 93t-85.5 27h-1367q-64 0 -94 -27t-39 -93l-55 -388q-9 -66 13.5 -93t86.5 -27h1367q64 0 93.5 27t38.5 93z" />
    <glyph glyph-name="one" unicode="1" 
d="M1302 700l-93 -664h516l-5 -36h-1611l5 36h1055l88 629h-1055l5 35h1095z" />
    <glyph glyph-name="two" unicode="2" 
d="M1759 550q8 61 -14 87.5t-80 26.5h-1528l5 36h1532q75 0 105.5 -35.5t19.5 -110.5l-10 -76q-11 -75 -51.5 -110.5t-115.5 -35.5h-1368q-83 0 -121.5 -33t-50.5 -118l-20 -145h1677l-5 -36h-1717l26 187q24 181 206 181h1374q59 0 88.5 26.5t37.5 87.5z" />
    <glyph glyph-name="three" unicode="3" 
d="M1616 332h-1449l5 36h1449q63 0 91.5 26.5t37.5 90.5l9 65q8 61 -14 87.5t-80 26.5h-1557l5 36h1560q76 0 106.5 -35.5t19.5 -110.5l-9 -66q-9 -66 -38.5 -98.5t-91.5 -39.5q60 -7 80 -39.5t11 -98.5l-9 -66q-11 -75 -51 -110.5t-116 -35.5h-1560l5 36h1557
q58 0 87.5 26.5t38.5 87.5l8 65q10 64 -11 90.5t-84 26.5z" />
    <glyph glyph-name="four" unicode="4" 
d="M1721 368l47 332h40l-98 -700h-40l46 332h-1493q-77 0 -108.5 37t-20.5 113l31 218h40l-30 -212q-10 -66 12.5 -93t86.5 -27h1487z" />
    <glyph glyph-name="five" unicode="5" 
d="M86 332l52 368h1665l-5 -36h-1625l-42 -296h1506q76 0 106.5 -35.5t19.5 -110.5l-10 -76q-11 -75 -51 -110.5t-116 -35.5h-1556l5 36h1553q58 0 87.5 26.5t38.5 87.5l9 68q8 61 -14 87.5t-80 26.5h-1543z" />
    <glyph glyph-name="six" unicode="6" 
d="M154 488l-17 -120h1511q76 0 106.5 -35.5t19.5 -110.5l-10 -76q-11 -75 -51 -110.5t-116 -35.5h-1403q-76 0 -107.5 36t-20.5 112l49 344q13 102 74 155t163 53h1462l-5 -36h-1455q-176 0 -200 -176zM1640 332h-1508l-25 -179q-9 -64 13 -90.5t84 -26.5h1395
q58 0 87.5 26.5t38.5 87.5l9 68q8 61 -14 87.5t-80 26.5z" />
    <glyph glyph-name="seven" unicode="7" 
d="M1612 368q75 0 110 30t45 106l23 160h-1709l5 36h1749l-29 -205q-23 -163 -186 -163h-768q-75 0 -109.5 -29.5t-45.5 -106.5l-27 -196h-40l28 205q24 163 186 163h768z" />
    <glyph glyph-name="eight" unicode="8" 
d="M1813 554l-9 -66q-9 -66 -38.5 -98.5t-91.5 -39.5q60 -7 80 -39.5t11 -98.5l-9 -66q-11 -75 -50.5 -110.5t-115.5 -35.5h-1405q-76 0 -106.5 35.5t-19.5 110.5l9 66q9 66 38.5 98.5t91.5 39.5q-60 7 -80 39t-11 99l9 66q11 75 51 110.5t116 35.5h1405q76 0 106 -35.5
t19 -110.5zM241 368h1394q63 0 91.5 26.5t37.5 90.5l9 65q8 61 -13.5 87.5t-79.5 26.5h-1399q-58 0 -87.5 -26.5t-37.5 -87.5l-9 -65q-9 -65 11.5 -91t82.5 -26zM1630 332h-1394q-62 0 -90 -26t-38 -91l-8 -65q-9 -61 13 -87.5t80 -26.5h1399q58 0 87 26.5t38 87.5l9 65
q9 64 -12 90.5t-84 26.5z" />
    <glyph glyph-name="nine" unicode="9" 
d="M1668 700q76 0 107 -36t20 -112l-49 -344q-29 -208 -236 -208h-1463l5 36h1456q88 0 137 42.5t62 133.5l17 120h-1512q-76 0 -106 35.5t-19 110.5l10 76q11 75 51 110.5t116 35.5h1404zM137 550l-10 -68q-8 -61 13.5 -87.5t79.5 -26.5h1509l25 179q9 64 -13 90.5
t-83 26.5h-1396q-58 0 -87.5 -26.5t-37.5 -87.5z" />
    <glyph glyph-name="colon" unicode=":" horiz-adv-x="295" 
d="M217 524l-7 -51h-77l7 51h77zM151 51l-7 -51h-77l7 51h77z" />
    <glyph glyph-name="semicolon" unicode=";" horiz-adv-x="295" 
d="M151 51l-7 -47q-6 -45 -24.5 -65t-54.5 -20h-10l3 21h11q32 0 39 47l2 17h-43l7 47h77zM217 524l-7 -51h-77l7 51h77z" />
    <glyph glyph-name="less" unicode="&#x3c;" 
d="M82 350l313 269h54l-293 -252h1605v-36h-1604l292 -251h-54z" />
    <glyph glyph-name="equal" unicode="=" 
d="M110 207v36h1622v-36h-1622zM110 456v36h1622v-36h-1622z" />
    <glyph glyph-name="greater" unicode="&#x3e;" 
d="M1448 619l313 -269l-313 -270h-54l292 251h-1604v36h1605l-293 252h54z" />
    <glyph glyph-name="question" unicode="?" horiz-adv-x="1771" 
d="M1713 482l10 68q8 61 -14 87.5t-80 26.5h-1549l5 36h1552q76 0 106.5 -35.5t19.5 -110.5l-10 -76q-11 -75 -51.5 -110.5t-116.5 -35.5h-697q-48 0 -71.5 -20t-30.5 -71l-10 -76h-40l11 79q17 124 141 124h699q58 0 88 27t38 87zM778 51l-7 -51h-77l7 51h77z" />
    <glyph glyph-name="at" unicode="@" horiz-adv-x="1919" 
d="M207 0q-81 0 -114.5 39t-22.5 119l54 384q22 158 181 158h1443q81 0 114.5 -39t22.5 -119l-54 -384q-22 -158 -181 -158h-1443zM214 36h1439q62 0 95.5 30t42.5 92l54 384q8 62 -17 92t-87 30h-1439q-122 0 -138 -122l-54 -384q-18 -122 104 -122zM1583 189h-1263
q-41 0 -57 19.5t-11 61.5l3 16q6 42 27.5 61.5t62.5 19.5h1311l8 59q7 48 -41 48h-1327l5 36h1320q50 0 69.5 -23t12.5 -73l-19 -136q-7 -46 -31 -67.5t-70 -21.5zM342 331q-23 0 -33 -8.5t-13 -30.5l-4 -28q-3 -22 4.5 -30.5t30.5 -8.5h1268q40 0 47 41l9 65h-1309z" />
    <glyph glyph-name="A" unicode="A" horiz-adv-x="1873" 
d="M1741 0h-40l46 332h-1613l-46 -332h-40l77 550q11 76 52.5 113t118.5 37h1393q77 0 108.5 -37t20.5 -113zM1678 664h-1381q-64 0 -94 -27t-39 -93l-25 -176h1613l25 176q10 66 -12.5 93t-86.5 27z" />
    <glyph glyph-name="B" unicode="B" horiz-adv-x="1867" 
d="M1781 212l-9 -66q-10 -75 -50 -110.5t-116 -35.5h-1547l98 700h1547q76 0 106 -35.5t19 -110.5l-9 -66q-9 -66 -38.5 -98.5t-91.5 -39.5q60 -7 80.5 -39.5t10.5 -98.5zM1651 368q63 0 91.5 26.5t37.5 90.5l9 65q8 61 -13.5 87.5t-79.5 26.5h-1504l-42 -296h1501zM145 332
l-41 -296h1504q58 0 87 26.5t38 87.5l9 65q9 64 -12 90.5t-84 26.5h-1501z" />
    <glyph glyph-name="C" unicode="C" horiz-adv-x="1765" 
d="M198 0q-77 0 -108.5 37t-20.5 113l56 400q11 76 52.5 113t118.5 37h1480l-5 -36h-1474q-64 0 -94 -27t-39 -93l-55 -388q-9 -66 13.5 -93t86.5 -27h1474l-5 -36h-1480z" />
    <glyph glyph-name="D" unicode="D" horiz-adv-x="1867" 
d="M1642 700q102 0 147.5 -52.5t31.5 -155.5l-41 -284q-13 -102 -73.5 -155t-162.5 -53h-1485l98 700h1485zM1542 36q88 0 137.5 42.5t61.5 133.5l39 276q13 91 -24.5 133.5t-125.5 42.5h-1438l-88 -628h1438z" />
    <glyph glyph-name="E" unicode="E" horiz-adv-x="1828" 
d="M59 0l98 700h1670l-5 -36h-1630l-42 -296h1524l-5 -36h-1524l-41 -296h1630l-5 -36h-1670z" />
    <glyph glyph-name="F" unicode="F" horiz-adv-x="1790" 
d="M59 0l98 700h1662l-5 -36h-1622l-42 -296h1516l-5 -36h-1516l-46 -332h-40z" />
    <glyph glyph-name="G" unicode="G" horiz-adv-x="1849" 
d="M1606 36q62 0 87 21.5t34 85.5l26 189h-937l5 36h977l-32 -229q-11 -75 -47.5 -107t-111.5 -32h-1409q-77 0 -108.5 37t-20.5 113l56 400q11 76 52.5 113t118.5 37h1524l-5 -36h-1518q-64 0 -94 -27t-39 -93l-55 -388q-9 -66 13.5 -93t86.5 -27h1397z" />
    <glyph glyph-name="H" unicode="H" horiz-adv-x="1909" 
d="M1726 0l46 332h-1627l-46 -332h-40l98 700h40l-47 -332h1627l47 332h40l-98 -700h-40z" />
    <glyph glyph-name="I" unicode="I" horiz-adv-x="242" 
d="M59 0l98 700h40l-98 -700h-40z" />
    <glyph glyph-name="J" unicode="J" 
d="M46 139l29 203h40l-28 -199q-9 -64 9.5 -85.5t80.5 -21.5h1388q64 0 93.5 27t38.5 93l77 544h40l-77 -550q-22 -150 -172 -150h-1399q-75 0 -103 32.5t-17 106.5z" />
    <glyph glyph-name="K" unicode="K" horiz-adv-x="1876" 
d="M1850 700l-29 -208q-9 -68 -39.5 -101.5t-92.5 -40.5q60 -7 81 -40.5t11 -101.5l-29 -208h-40l29 211q9 65 -11.5 93t-83.5 28h-1501l-46 -332h-40l98 700h40l-47 -332h1501q63 0 91.5 28t37.5 93l30 211h40z" />
    <glyph glyph-name="L" unicode="L" horiz-adv-x="1780" 
d="M1716 36l-5 -36h-1652l98 700h40l-93 -664h1612z" />
    <glyph glyph-name="M" unicode="M" horiz-adv-x="2298" 
d="M1355 700h759q77 0 108.5 -37t20.5 -113l-77 -550h-40l76 544q9 66 -13 93t-86 27h-762q-67 0 -98 -28t-41 -97l-75 -539h-40l75 539q10 69 -13 97t-90 28h-762q-64 0 -94 -27t-39 -93l-76 -544h-40l77 550q11 76 52.5 113t118.5 37h759q72 0 103 -28t30 -90q17 62 56 90
t111 28z" />
    <glyph glyph-name="N" unicode="N" horiz-adv-x="1873" 
d="M297 664q-64 0 -94 -27t-39 -93l-76 -544h-40l77 550q11 76 52.5 113t118.5 37h1393q77 0 108.5 -37t20.5 -113l-77 -550h-40l77 544q9 66 -13 93t-86 27h-1382z" />
    <glyph glyph-name="O" unicode="O" horiz-adv-x="1857" 
d="M198 0q-77 0 -108.5 37t-20.5 113l56 400q11 76 52.5 113t118.5 37h1398q151 0 130 -150l-56 -400q-11 -76 -53 -113t-119 -37h-1398zM1728 156l55 388q9 66 -13 93t-86 27h-1387q-62 0 -93 -27.5t-40 -92.5l-55 -388q-9 -67 13.5 -93.5t86.5 -26.5h1387q64 0 93.5 27
t38.5 93z" />
    <glyph glyph-name="P" unicode="P" horiz-adv-x="1832" 
d="M59 0l98 700h1542q75 0 105.5 -35.5t19.5 -110.5l-10 -76q-11 -75 -51.5 -110.5t-115.5 -35.5h-1502l-46 -332h-40zM1784 550q8 61 -13.5 87.5t-79.5 26.5h-1499l-42 -296h1499q58 0 87.5 26.5t37.5 87.5z" />
    <glyph glyph-name="Q" unicode="Q" horiz-adv-x="1857" 
d="M198 0q-77 0 -108.5 37t-20.5 113l56 400q11 76 52.5 113t118.5 37h1398q151 0 130 -150l-56 -400q-11 -76 -53 -113t-119 -37h-681l-19 -135h-37l19 135h-680zM1728 156l55 388q9 66 -13 93t-86 27h-1387q-62 0 -93 -27.5t-40 -92.5l-55 -388q-9 -67 13.5 -93.5
t86.5 -26.5h674l32 227h37l-32 -227h676q64 0 93.5 27t38.5 93z" />
    <glyph glyph-name="R" unicode="R" horiz-adv-x="1874" 
d="M1829 554l-9 -66q-9 -66 -38.5 -99t-91.5 -40q59 -7 79.5 -40.5t11.5 -100.5l-29 -208h-40l29 211q9 65 -11.5 93t-83.5 28h-1501l-46 -332h-40l98 700h1547q76 0 106 -35.5t19 -110.5zM1651 368q63 0 91.5 26.5t37.5 90.5l9 65q8 61 -13.5 87.5t-79.5 26.5h-1504
l-42 -296h1501z" />
    <glyph glyph-name="S" unicode="S" horiz-adv-x="1802" 
d="M223 332q-76 0 -106 35.5t-19 110.5l10 76q11 75 51 110.5t116 35.5h1493l-5 -36h-1490q-58 0 -87.5 -26.5t-37.5 -87.5l-10 -68q-8 -61 13.5 -87.5t79.5 -26.5h1371q76 0 106.5 -35.5t19.5 -110.5l-10 -76q-11 -75 -51 -110.5t-116 -35.5h-1532l5 36h1529
q58 0 87.5 26.5t38.5 87.5l9 68q8 61 -14 87.5t-80 26.5h-1371z" />
    <glyph glyph-name="T" unicode="T" horiz-adv-x="1752" 
d="M1781 700l-5 -36h-829l-93 -664h-40l93 664h-829l5 36h1698z" />
    <glyph glyph-name="U" unicode="U" horiz-adv-x="1873" 
d="M209 0q-77 0 -108.5 37t-20.5 113l77 550h40l-77 -544q-9 -66 13.5 -93t86.5 -27h1382q64 0 93.5 27t38.5 93l76 544h40l-77 -550q-11 -76 -52.5 -113t-118.5 -37h-1393z" />
    <glyph glyph-name="V" unicode="V" horiz-adv-x="1867" 
d="M59 0l98 700h40l-93 -664h1426q88 0 137 42.5t62 133.5l68 488h40l-69 -492q-14 -102 -74.5 -155t-162.5 -53h-1472z" />
    <glyph glyph-name="W" unicode="W" horiz-adv-x="2298" 
d="M2027 0h-759q-72 0 -103.5 28t-30.5 90q-17 -62 -56 -90t-110 -28h-759q-77 0 -108.5 37t-20.5 113l77 550h40l-77 -544q-9 -66 13.5 -93t86.5 -27h762q67 0 97.5 28t40.5 97l76 539h40l-76 -539q-10 -69 13.5 -97t90.5 -28h762q64 0 93.5 27t38.5 93l77 544h40l-77 -550
q-11 -76 -52.5 -113t-118.5 -37z" />
    <glyph glyph-name="X" unicode="X" horiz-adv-x="1863" 
d="M109 492l29 208h40l-30 -211q-9 -65 11.5 -93t83.5 -28h1395q63 0 91.5 28t37.5 93l30 211h40l-29 -208q-10 -68 -40 -101.5t-92 -40.5q60 -7 80.5 -40.5t10.5 -101.5l-28 -208h-40l29 211q9 65 -11.5 93t-83.5 28h-1395q-63 0 -91.5 -28t-37.5 -93l-29 -211h-40l29 208
q9 68 39.5 101.5t92.5 40.5q-61 7 -81.5 40.5t-10.5 101.5z" />
    <glyph glyph-name="Y" unicode="Y" horiz-adv-x="1826" 
d="M1795 700h40l-31 -218q-21 -150 -172 -150h-684l-46 -332h-40l46 332h-685q-77 0 -108.5 37t-20.5 113l31 218h40l-30 -212q-9 -66 13 -93t86 -27h1398q64 0 93.5 27t39.5 93z" />
    <glyph glyph-name="Z" unicode="Z" horiz-adv-x="1812" 
d="M1568 368q83 0 121.5 33t50.5 118l21 145h-1624l5 36h1664l-27 -187q-26 -181 -206 -181h-1319q-83 0 -121.5 -33t-50.5 -118l-20 -145h1651l-5 -36h-1691l26 187q24 181 206 181h1319z" />
    <glyph glyph-name="bracketleft" unicode="[" horiz-adv-x="375" 
d="M157 700h219l-5 -36h-179l-100 -708h179l-5 -36h-219z" />
    <glyph glyph-name="backslash" unicode="\" horiz-adv-x="632" 
d="M82 700l515 -700h-44l-515 700h44z" />
    <glyph glyph-name="bracketright" unicode="]" horiz-adv-x="375" 
d="M111 700h219l-110 -780h-219l5 36h179l100 708h-179z" />
    <glyph glyph-name="asciicircum" unicode="^" 
d="M921 715l839 -368v-39l-839 367l-839 -367v39z" />
    <glyph glyph-name="underscore" unicode="_" horiz-adv-x="959" 
d="M917 -64v-36h-959v36h959z" />
    <glyph glyph-name="grave" unicode="`" horiz-adv-x="469" 
d="M347 660l-200 107h78l175 -107h-53z" />
    <glyph glyph-name="a" unicode="a" horiz-adv-x="1646" 
d="M1544 319l19 135q9 62 -12.5 87.5t-84.5 25.5h-1332l5 36h1338q76 0 107 -36t20 -112l-43 -307q-11 -76 -51.5 -112t-116.5 -36h-1238q-68 0 -95 32t-17 101l7 53q10 70 45.5 101.5t103.5 31.5h1345zM1539 283h-1343q-50 0 -74 -21t-31 -72l-9 -61q-7 -51 11.5 -72
t68.5 -21h1230q63 0 91.5 25.5t37.5 87.5z" />
    <glyph glyph-name="b" unicode="b" horiz-adv-x="1656" 
d="M74 148l88 622h40l-34 -235q33 68 132 68h1188q76 0 106.5 -36t19.5 -112l-43 -307q-11 -76 -51 -112t-116 -36h-1203q-76 0 -107 36t-20 112zM157 454l-42 -305q-10 -62 12.5 -87.5t84.5 -25.5h1190q63 0 91.5 25t38.5 88l42 305q9 62 -13 87.5t-85 25.5h-1190
q-62 0 -91 -25.5t-38 -87.5z" />
    <glyph glyph-name="c" unicode="c" horiz-adv-x="1581" 
d="M190 0q-76 0 -107 36t-20 112l44 307q10 76 50.5 112t116.5 36h1301l-5 -36h-1295q-62 0 -91 -25.5t-38 -87.5l-42 -305q-10 -62 12.5 -87.5t84.5 -25.5h1295l-5 -36h-1301z" />
    <glyph glyph-name="d" unicode="d" horiz-adv-x="1656" 
d="M1648 770l-88 -622q-11 -76 -51 -112t-116 -36h-1203q-76 0 -107 36t-20 112l44 307q10 76 50.5 112t116.5 36h1188q99 0 112 -68l34 235h40zM1521 149l42 305q9 62 -13 87.5t-85 25.5h-1190q-62 0 -91 -25.5t-38 -87.5l-42 -305q-10 -62 12.5 -87.5t84.5 -25.5h1190
q63 0 91.5 25t38.5 88z" />
    <glyph glyph-name="e" unicode="e" horiz-adv-x="1646" 
d="M1617 416q-10 -70 -45.5 -101.5t-103.5 -31.5h-1345l-18 -134q-10 -62 13 -87.5t84 -25.5h1332l-5 -36h-1338q-84 0 -110 41.5t-14 128.5l41 285q10 75 50.5 111.5t116.5 36.5h1238q68 0 95 -32t17 -101zM1506 567h-1230q-70 0 -95.5 -30.5t-37.5 -112.5l-15 -105h1343
q49 0 74 21t32 72l8 56q8 55 -9 77t-70 22z" />
    <glyph glyph-name="f" unicode="f" horiz-adv-x="1557" 
d="M296 567q-70 0 -106.5 -31t-46.5 -103l-16 -114h1335l-5 -36h-1335l-63 -450h-40l84 600q12 87 59.5 128.5t135.5 41.5h1270l-5 -36h-1267z" />
    <glyph glyph-name="g" unicode="g" horiz-adv-x="1656" 
d="M1387 53q62 0 91 25.5t38 87.5l40 288q9 62 -13 87.5t-85 25.5h-1190q-62 0 -91 -25.5t-38 -87.5l-40 -288q-9 -62 13 -87.5t85 -25.5h1190zM1373 17h-1187q-76 0 -107 36t-20 112l41 290q10 76 50.5 112t116.5 36h1203q76 0 106.5 -36t19.5 -112l-62 -442
q-13 -92 -63 -136t-142 -44h-1277l5 36h1273q76 0 115 33t49 111l10 71q-32 -67 -131 -67z" />
    <glyph glyph-name="h" unicode="h" horiz-adv-x="1673" 
d="M1569 454q9 62 -13 87.5t-84 25.5h-1186q-62 0 -91 -25.5t-38 -87.5l-63 -454h-40l108 770h40l-34 -235q33 68 132 68h1183q76 0 107 -36t20 -112l-64 -455h-40z" />
    <glyph glyph-name="i" unicode="i" horiz-adv-x="349" 
d="M204 36h89l-5 -36h-94q-75 0 -102.5 32t-16.5 106l65 465h40l-65 -464q-9 -60 10 -81.5t79 -21.5zM221 730l-6 -41h-86l6 41h86z" />
    <glyph glyph-name="j" unicode="j" horiz-adv-x="249" 
d="M-104 -131h54q59 0 83.5 21t33.5 82l88 631h40l-89 -632q-11 -75 -46 -106.5t-110 -31.5h-59zM144 689l6 41h86l-6 -41h-86z" />
    <glyph glyph-name="k" unicode="k" horiz-adv-x="1659" 
d="M1560 395l29 208h40l-25 -181q-8 -56 -30.5 -85.5t-70.5 -35.5q46 -6 60.5 -35.5t6.5 -85.5l-25 -180h-40l29 207q5 41 -10.5 58.5t-55.5 17.5h-1335l-39 -283h-40l108 770h40l-64 -451h1335q41 0 61.5 18t25.5 58z" />
    <glyph glyph-name="l" unicode="l" horiz-adv-x="347" 
d="M202 36h89l-5 -36h-94q-75 0 -102.5 32t-16.5 106l89 632h40l-89 -631q-9 -60 10 -81.5t79 -21.5z" />
    <glyph glyph-name="m" unicode="m" horiz-adv-x="2051" 
d="M1054 502q16 54 52 77.5t103 23.5h652q76 0 107 -36t20 -112l-64 -455h-40l63 454q9 62 -12.5 87.5t-84.5 25.5h-664q-56 0 -83 -25t-35 -80l-64 -462h-40l64 462q8 55 -12.5 80t-76.5 25h-664q-62 0 -91 -25.5t-38 -87.5l-63 -454h-40l64 455q10 76 50.5 112t116.5 36
h652q68 0 98 -23.5t30 -77.5z" />
    <glyph glyph-name="n" unicode="n" horiz-adv-x="1661" 
d="M43 0l64 455q10 76 50.5 112t116.5 36h1197q76 0 107 -36t20 -112l-64 -455h-40l63 454q9 62 -13 87.5t-84 25.5h-1185q-62 0 -91 -25.5t-38 -87.5l-63 -454h-40z" />
    <glyph glyph-name="o" unicode="o" horiz-adv-x="1644" 
d="M1475 603q76 0 107 -36t20 -112l-43 -307q-11 -76 -51.5 -112t-116.5 -36h-1201q-76 0 -107 36t-20 112l44 307q10 76 50.5 112t116.5 36h1201zM1390 36q63 0 91.5 25t38.5 88l42 305q9 62 -13 87.5t-85 25.5h-1189q-62 0 -91 -25.5t-38 -87.5l-42 -305
q-10 -62 12.5 -87.5t84.5 -25.5h1189z" />
    <glyph glyph-name="p" unicode="p" horiz-adv-x="1656" 
d="M19 -167l88 622q10 76 50.5 112t116.5 36h1203q76 0 106.5 -36t19.5 -112l-43 -307q-11 -76 -51 -112t-116 -36h-1188q-100 0 -113 68l-33 -235h-40zM146 454l-42 -305q-10 -62 12.5 -87.5t84.5 -25.5h1190q63 0 91.5 25t38.5 88l42 305q9 62 -13 87.5t-85 25.5h-1190
q-62 0 -91 -25.5t-38 -87.5z" />
    <glyph glyph-name="q" unicode="q" horiz-adv-x="1656" 
d="M1603 455l-87 -622h-40l33 235q-33 -68 -131 -68h-1188q-76 0 -107 36t-20 112l44 307q10 76 50.5 112t116.5 36h1203q76 0 106.5 -36t19.5 -112zM1521 149l42 305q9 62 -13 87.5t-85 25.5h-1190q-62 0 -91 -25.5t-38 -87.5l-42 -305q-9 -62 13 -87.5t84 -25.5h1190
q62 0 91.5 25.5t38.5 87.5z" />
    <glyph glyph-name="r" unicode="r" horiz-adv-x="1464" 
d="M1474 603l-5 -36h-1194q-62 0 -91 -25.5t-38 -87.5l-63 -454h-40l64 455q10 76 50.5 112t116.5 36h1200z" />
    <glyph glyph-name="s" unicode="s" horiz-adv-x="1611" 
d="M1561 567h-1331q-50 0 -74 -21t-31 -72l-9 -62q-7 -51 11 -72t68 -21h1231q67 0 94 -32t17 -101l-7 -53q-10 -69 -45.5 -101t-102.5 -32h-1363l5 36h1360q50 0 74 21t31 72l9 61q7 51 -11.5 72t-68.5 21h-1230q-68 0 -94.5 31.5t-16.5 101.5l7 54q10 70 45.5 101.5
t103.5 31.5h1333z" />
    <glyph glyph-name="t" unicode="t" horiz-adv-x="1505" 
d="M201 0q-76 0 -107 36t-20 112l88 622h40l-24 -167h1321l-5 -36h-1321l-58 -418q-10 -62 12.5 -87.5t84.5 -25.5h1208l-5 -36h-1214z" />
    <glyph glyph-name="u" unicode="u" horiz-adv-x="1661" 
d="M1397 36q62 0 91 25.5t38 87.5l63 454h40l-63 -455q-11 -76 -51.5 -112t-116.5 -36h-1197q-76 0 -107 36t-20 112l64 455h40l-63 -454q-10 -62 12.5 -87.5t84.5 -25.5h1185z" />
    <glyph glyph-name="v" unicode="v" horiz-adv-x="1657" 
d="M1619 603l-58 -418q-14 -95 -64.5 -140t-146.5 -45h-1296l84 603h40l-79 -567h1253q78 0 117.5 34t51.5 114l58 419h40z" />
    <glyph glyph-name="w" unicode="w" horiz-adv-x="2051" 
d="M1008 101q-15 -54 -51 -77.5t-104 -23.5h-652q-76 0 -107 36t-20 112l64 455h40l-63 -454q-10 -62 12.5 -87.5t84.5 -25.5h664q56 0 83 25t35 80l65 462h40l-65 -462q-8 -55 12.5 -80t76.5 -25h664q63 0 91.5 25.5t37.5 87.5l63 454h40l-63 -455q-11 -76 -51.5 -112
t-116.5 -36h-652q-67 0 -97 23.5t-31 77.5z" />
    <glyph glyph-name="x" unicode="x" horiz-adv-x="1661" 
d="M1562 395l29 208h40l-25 -181q-8 -56 -30.5 -85.5t-70.5 -35.5q46 -6 60.5 -35.5t6.5 -85.5l-25 -180h-40l28 207q6 40 -9 58t-57 18h-1284q-40 0 -60.5 -17.5t-26.5 -58.5l-28 -207h-40l25 180q8 56 30.5 85.5t70.5 35.5q-47 6 -61 35.5t-6 85.5l25 181h40l-29 -208
q-6 -40 9 -58t56 -18h1284q41 0 61.5 18t26.5 58z" />
    <glyph glyph-name="y" unicode="y" horiz-adv-x="1673" 
d="M1335 -167h-1272l5 36h1268q76 0 115 33t49 111l10 71q-32 -67 -130 -67h-1183q-76 0 -107 36t-20 112l61 438h40l-61 -437q-9 -62 13 -87.5t85 -25.5h1185q63 0 91.5 25.5t37.5 87.5l61 437h40l-83 -590q-13 -92 -63 -136t-142 -44z" />
    <glyph glyph-name="z" unicode="z" horiz-adv-x="1621" 
d="M228 283q-69 0 -104.5 -31t-44.5 -100l-16 -116h1460l-5 -36h-1500l20 148q24 171 195 171h1158q69 0 104.5 31t45.5 100l16 117h-1438l5 36h1478l-20 -149q-24 -171 -196 -171h-1158z" />
    <glyph glyph-name="braceleft" unicode="{" horiz-adv-x="346" 
d="M181 545l-18 -128q-7 -54 -26 -80.5t-59 -26.5q40 0 51.5 -26.5t3.5 -80.5l-18 -128q-9 -66 13 -92.5t86 -26.5h34l-5 -36h-41q-76 0 -107 36.5t-21 111.5l22 159q6 37 -3 51t-43 14h-16l5 36h16q34 0 46.5 14t18.5 51l22 159q21 148 170 148h41l-5 -36h-34
q-64 0 -93.5 -26.5t-39.5 -92.5z" />
    <glyph glyph-name="bar" unicode="|" horiz-adv-x="276" 
d="M128 -167v907h36v-907h-36z" />
    <glyph glyph-name="braceright" unicode="}" horiz-adv-x="346" 
d="M215 417l18 128q10 66 -12.5 92.5t-86.5 26.5h-34l5 36h41q149 0 128 -148l-22 -159q-5 -37 4 -51t43 -14h16l-5 -36h-16q-34 0 -47.5 -14t-18.5 -51l-22 -159q-19 -148 -170 -148h-41l5 36h34q64 0 94 26.5t39 92.5l18 128q8 54 27 80.5t59 26.5q-40 0 -51.5 26.5
t-4.5 80.5z" />
    <glyph glyph-name="asciitilde" unicode="~" 
d="M82 305v43q141 73 355 73q151 0 479 -51.5t480 -51.5q223 0 365 79v-43q-142 -73 -358 -73q-152 0 -479.5 51t-478.5 51q-222 0 -363 -78z" />
    <glyph glyph-name="uni00A0" unicode="&#xa0;" horiz-adv-x="489" 
 />
    <glyph glyph-name="exclamdown" unicode="&#xa1;" horiz-adv-x="301" 
d="M151 579l7 51h77l-7 -51h-77zM78 -70l33 236q11 83 52 299h20q-13 -160 -32 -299l-33 -236h-40z" />
    <glyph glyph-name="cent" unicode="&#xa2;" 
d="M900 -40l13 90h-711q-76 0 -107 36t-20 112l43 304q11 76 51.5 112t116.5 36h711l13 90h36l-13 -90h800l-5 -36h-800l-74 -528h800l-5 -36h-800l-13 -90h-36zM213 86h705l74 528h-705q-62 0 -91.5 -25.5t-37.5 -87.5l-42 -302q-9 -62 13 -87.5t84 -25.5z" />
    <glyph glyph-name="sterling" unicode="&#xa3;" 
d="M218 36h1527l-5 -36h-1727l5 36h160l41 296h-160l5 36h160l26 183q11 76 52 112.5t117 36.5h1348l-5 -36h-1343q-62 0 -91 -25.5t-38 -87.5l-26 -183h1456l-5 -36h-1456z" />
    <glyph glyph-name="currency" unicode="&#xa4;" 
d="M121 503q0 76 35.5 112t111.5 36h636v89h36v-89h635q76 0 111 -36t35 -112v-135h89v-36h-89v-136q0 -76 -35 -112t-111 -36h-635v-88h-36v88h-636q-76 0 -111.5 36t-35.5 112v136h-88v36h88v135zM1568 615h-1293q-62 0 -88 -25.5t-26 -87.5v-305q0 -62 25.5 -87.5
t88.5 -25.5h1293q62 0 87.5 25.5t25.5 87.5v305q0 62 -25 87.5t-88 25.5z" />
    <glyph glyph-name="yen" unicode="&#xa5;" 
d="M1789 700h40l-23 -166q-22 -149 -171 -149h-685l-24 -171h813l-5 -36h-813l-25 -178h-40l25 178h-813l5 36h813l24 171h-685q-151 0 -129 149l23 166h40l-23 -160q-9 -65 13 -92t87 -27h1397q65 0 94.5 26.5t38.5 92.5z" />
    <glyph glyph-name="brokenbar" unicode="&#xa6;" horiz-adv-x="276" 
d="M128 -167v394h36v-394h-36zM128 347v393h36v-393h-36z" />
    <glyph glyph-name="section" unicode="&#xa7;" horiz-adv-x="1803" 
d="M223 435h1399q71 0 98.5 -33t17.5 -106l-4 -31q-7 -52 -33 -79.5t-78 -34.5q50 -7 68 -34.5t11 -79.5l-5 -30q-10 -73 -47 -106t-108 -33h-1514l5 36h1511q54 0 80 22.5t33 76.5l5 36q8 51 -10.5 72.5t-70.5 21.5h-1399q-71 0 -98.5 33t-17.5 106l4 31q7 52 33 79.5
t77 34.5q-50 7 -68 34.5t-10 79.5l4 30q10 73 47.5 106t108.5 33h1514l-5 -36h-1511q-54 0 -80 -22.5t-33 -76.5l-6 -36q-7 -51 11.5 -72.5t70.5 -21.5zM1614 399h-1396q-52 0 -76 -21.5t-32 -72.5l-5 -37q-8 -54 11.5 -76.5t73.5 -22.5h1396q52 0 76 21.5t32 72.5l5 37
q8 54 -11.5 76.5t-73.5 22.5z" />
    <glyph glyph-name="dieresis" unicode="&#xa8;" horiz-adv-x="469" 
d="M182 730l-6 -41h-87l6 41h87zM494 730l-6 -41h-87l6 41h87z" />
    <glyph glyph-name="copyright" unicode="&#xa9;" horiz-adv-x="1919" 
d="M334 189q-46 0 -67 21t-21 68v143q0 47 21 68t67 21h1341v-36h-1348q-19 0 -30 -11t-11 -30v-167q0 -19 11 -30t30 -11h1348v-36h-1341zM246 0q-81 0 -120 39t-39 119v384q0 80 39 119t120 39h1443q81 0 120 -39t39 -119v-384q0 -80 -39 -119t-120 -39h-1443zM248 36
h1439q62 0 91.5 30t29.5 92v384q0 62 -29.5 92t-91.5 30h-1439q-62 0 -91.5 -30t-29.5 -92v-384q0 -62 29.5 -92t91.5 -30z" />
    <glyph glyph-name="ordfeminine" unicode="&#xaa;" horiz-adv-x="1339" 
d="M1262 451l20 141q5 40 -8.5 56t-51.5 16h-1087l5 36h1083q59 0 82.5 -28t15.5 -86l-43 -306q-16 -114 -130 -114h-993q-59 0 -82 28t-15 86l8 57q8 58 39 86t90 28h1067zM107 343l-10 -69q-5 -40 8.5 -56t51.5 -16h1000q38 0 56.5 16.5t23.5 55.5l20 141h-1070
q-38 0 -56.5 -16.5t-23.5 -55.5zM646 70l44 -70h-106z" />
    <glyph glyph-name="guillemotleft" unicode="&#xab;" horiz-adv-x="549" 
d="M271 51h-45l-190 249l260 249h49l-263 -252zM476 51h-45l-190 249l260 249h49l-263 -252z" />
    <glyph glyph-name="logicalnot" unicode="&#xac;" 
d="M81 331v36h1680v-287h-36v251h-1644z" />
    <glyph glyph-name="uni00AD" unicode="&#xad;" horiz-adv-x="729" 
d="M684 345l-5 -36h-627l5 36h627z" />
    <glyph glyph-name="registered" unicode="&#xae;" horiz-adv-x="1919" 
d="M246 0q-81 0 -120 39t-39 119v384q0 80 39 119t120 39h1443q81 0 120 -39t39 -119v-384q0 -80 -39 -119t-120 -39h-1443zM248 36h1439q62 0 91.5 30t29.5 92v384q0 62 -29.5 92t-91.5 30h-1439q-62 0 -91.5 -30t-29.5 -92v-384q0 -62 29.5 -92t91.5 -30zM1685 415
q0 -31 -11.5 -47t-43.5 -19q31 -3 43 -20t12 -48v-92h-40v113q0 29 -28 29h-1322v-142h-40v321h1362q68 0 68 -68v-27zM1645 448q0 26 -27 26h-1323v-107h1323q27 0 27 26v55z" />
    <glyph glyph-name="macron" unicode="&#xaf;" horiz-adv-x="469" 
d="M489 698h-399l4 28h399z" />
    <glyph glyph-name="degree" unicode="&#xb0;" horiz-adv-x="839" 
d="M72 567q0 133 141 133h458q142 0 142 -133v-118q0 -133 -142 -133h-458q-141 0 -141 133v118zM218 664q-60 0 -83 -23t-23 -81v-104q0 -58 23 -81t83 -23h449q59 0 82.5 23t23.5 81v104q0 58 -23.5 81t-82.5 23h-449z" />
    <glyph glyph-name="plusminus" unicode="&#xb1;" 
d="M1761 0h-1679v36h1679v-36zM82 331v36h821v252h36v-252h822v-36h-822v-251h-36v251h-821z" />
    <glyph glyph-name="twosuperior" unicode="&#xb2;" horiz-adv-x="1079" 
d="M1018 528l8 59q6 43 -8 60t-56 17h-833l5 36h835q58 0 81.5 -28t15.5 -86l-8 -57q-16 -114 -129 -114h-706q-63 0 -90 -23.5t-35 -85.5l-15 -104h929l-5 -36h-969l20 146q19 139 159 139h715q42 0 61 17t25 60z" />
    <glyph glyph-name="threesuperior" unicode="&#xb3;" horiz-adv-x="1079" 
d="M1062 586l-7 -50q-7 -47 -27.5 -72t-72.5 -31q50 -6 64 -31t7 -72l-7 -50q-16 -114 -129 -114h-860l5 36h858q42 0 61 17t25 60l8 60q6 41 -8.5 58.5t-53.5 17.5h-776l5 36h776q39 0 58.5 17.5t25.5 58.5l8 60q6 43 -8 60t-56 17h-858l5 36h860q58 0 81.5 -28t15.5 -86z
" />
    <glyph glyph-name="acute" unicode="&#xb4;" horiz-adv-x="469" 
d="M457 767l-234 -107h-55l204 107h85z" />
    <glyph glyph-name="uni00B5" unicode="&#xb5;" horiz-adv-x="1673" 
d="M212 36h1186q62 0 91 25.5t38 87.5l63 454h40l-63 -455q-11 -76 -51.5 -112t-116.5 -36h-1183q-100 0 -113 68l-33 -235h-40l108 770h40l-63 -454q-10 -62 12.5 -87.5t84.5 -25.5z" />
    <glyph glyph-name="paragraph" unicode="&#xb6;" horiz-adv-x="1620" 
d="M1587 700l-117 -832h-40l112 796h-207l-112 -796h-40l57 407h-1019q-87 0 -122.5 42t-23.5 128l12 85q12 86 59.5 128t134.5 42h1306z" />
    <glyph glyph-name="periodcentered" unicode="&#xb7;" horiz-adv-x="295" 
d="M196 375l-7 -51h-77l7 51h77z" />
    <glyph glyph-name="cedilla" unicode="&#xb8;" horiz-adv-x="479" 
d="M178 -48h131q39 0 58 -7.5t19 -30.5q0 -39 -32 -55.5t-96 -16.5h-284l5 34h287q49 0 68.5 8t19.5 32q0 12 -11 16t-39 4h-151l31 64h16z" />
    <glyph glyph-name="onesuperior" unicode="&#xb9;" horiz-adv-x="1079" 
d="M114 166l5 36h478l65 462h-478l5 36h518l-70 -498h359l-5 -36h-877z" />
    <glyph glyph-name="ordmasculine" unicode="&#xba;" horiz-adv-x="1352" 
d="M71 280l43 306q16 114 130 114h992q59 0 82.5 -28t15.5 -86l-43 -306q-16 -114 -130 -114h-992q-59 0 -82.5 28t-15.5 86zM1170 202q38 0 56.5 16.5t23.5 55.5l45 318q5 40 -8.5 56t-51.5 16h-1000q-38 0 -56.5 -16.5t-23.5 -55.5l-45 -318q-5 -40 8.5 -56t51.5 -16h1000
zM659 70l44 -70h-106z" />
    <glyph glyph-name="guillemotright" unicode="&#xbb;" horiz-adv-x="549" 
d="M47 51h-46l260 249l-190 249h46l191 -249zM252 51h-46l260 249l-190 249h46l191 -249z" />
    <glyph glyph-name="onequarter" unicode="&#xbc;" horiz-adv-x="2446" 
d="M925 0l569 700h42l-569 -700h-42zM114 166l5 36h478l65 462h-478l5 36h518l-70 -498h359l-5 -36h-877zM2313 285l35 249h40l-75 -534h-40l35 249h-781q-59 0 -82.5 28t-15.5 86l24 171h40l-25 -174q-5 -40 10.5 -57.5t53.5 -17.5h781z" />
    <glyph glyph-name="onehalf" unicode="&#xbd;" horiz-adv-x="2446" 
d="M925 0l569 700h42l-569 -700h-42zM114 166l5 36h478l65 462h-478l5 36h518l-70 -498h359l-5 -36h-877zM2362 362l8 59q6 43 -8 60t-56 17h-833l5 36h835q58 0 81.5 -28t15.5 -86l-8 -57q-16 -114 -129 -114h-706q-63 0 -90 -23.5t-35 -85.5l-15 -104h929l-5 -36h-969
l20 146q19 139 159 139h715q42 0 61 17t25 60z" />
    <glyph glyph-name="threequarters" unicode="&#xbe;" horiz-adv-x="2446" 
d="M925 0l569 700h42l-569 -700h-42zM2313 285l35 249h40l-75 -534h-40l35 249h-781q-59 0 -82.5 28t-15.5 86l24 171h40l-25 -174q-5 -40 10.5 -57.5t53.5 -17.5h781zM1062 586l-7 -50q-7 -47 -27.5 -72t-72.5 -31q50 -6 64 -31t7 -72l-7 -50q-16 -114 -129 -114h-860l5 36
h858q42 0 61 17t25 60l8 60q6 41 -8.5 58.5t-53.5 17.5h-776l5 36h776q39 0 58.5 17.5t25.5 58.5l8 60q6 43 -8 60t-56 17h-858l5 36h860q58 0 81.5 -28t15.5 -86z" />
    <glyph glyph-name="questiondown" unicode="&#xbf;" horiz-adv-x="1767" 
d="M72 148l-9 -68q-9 -61 13 -87.5t80 -26.5h1550l-5 -36h-1553q-76 0 -106.5 35.5t-19.5 110.5l11 76q10 75 50 110.5t116 35.5h697q49 0 72.5 20.5t30.5 70.5l11 76h40l-11 -79q-18 -124 -142 -124h-700q-58 0 -87.5 -26.5t-37.5 -87.5zM1007 579l7 51h77l-7 -51h-77z" />
    <glyph glyph-name="Agrave" unicode="&#xc0;" horiz-adv-x="1873" 
d="M1741 0h-40l46 332h-1613l-46 -332h-40l77 550q11 76 52.5 113t118.5 37h1393q77 0 108.5 -37t20.5 -113zM1678 664h-1381q-64 0 -94 -27t-39 -93l-25 -176h1613l25 176q10 66 -12.5 93t-86.5 27zM1023 754l-200 107h78l175 -107h-53z" />
    <glyph glyph-name="Aacute" unicode="&#xc1;" horiz-adv-x="1873" 
d="M1741 0h-40l46 332h-1613l-46 -332h-40l77 550q11 76 52.5 113t118.5 37h1393q77 0 108.5 -37t20.5 -113zM1678 664h-1381q-64 0 -94 -27t-39 -93l-25 -176h1613l25 176q10 66 -12.5 93t-86.5 27zM1210 861l-234 -107h-55l204 107h85z" />
    <glyph glyph-name="Acircumflex" unicode="&#xc2;" horiz-adv-x="1873" 
d="M1741 0h-40l46 332h-1613l-46 -332h-40l77 550q11 76 52.5 113t118.5 37h1393q77 0 108.5 -37t20.5 -113zM1678 664h-1381q-64 0 -94 -27t-39 -93l-25 -176h1613l25 176q10 66 -12.5 93t-86.5 27zM1012 834l-190 -80h-49l213 107h58l182 -107h-46z" />
    <glyph glyph-name="Atilde" unicode="&#xc3;" horiz-adv-x="1873" 
d="M1741 0h-40l46 332h-1613l-46 -332h-40l77 550q11 76 52.5 113t118.5 37h1393q77 0 108.5 -37t20.5 -113zM1678 664h-1381q-64 0 -94 -27t-39 -93l-25 -176h1613l25 176q10 66 -12.5 93t-86.5 27zM802 765l4 34q62 50 115 50q34 0 90.5 -29t88.5 -29q52 0 111 51l-4 -33
q-62 -50 -116 -50q-34 0 -90.5 28.5t-88.5 28.5q-51 0 -110 -51z" />
    <glyph glyph-name="Adieresis" unicode="&#xc4;" horiz-adv-x="1873" 
d="M1741 0h-40l46 332h-1613l-46 -332h-40l77 550q11 76 52.5 113t118.5 37h1393q77 0 108.5 -37t20.5 -113zM1678 664h-1381q-64 0 -94 -27t-39 -93l-25 -176h1613l25 176q10 66 -12.5 93t-86.5 27zM897 824l-6 -41h-87l6 41h87zM1209 824l-6 -41h-87l6 41h87z" />
    <glyph glyph-name="Aring" unicode="&#xc5;" horiz-adv-x="1873" 
d="M1741 0h-40l46 332h-1613l-46 -332h-40l77 550q11 76 52.5 113t118.5 37h1393q77 0 108.5 -37t20.5 -113zM1678 664h-1381q-64 0 -94 -27t-39 -93l-25 -176h1613l25 176q10 66 -12.5 93t-86.5 27zM1053 754h-107q-61 0 -61 44q0 29 19.5 46t56.5 17h107q61 0 61 -44
q0 -29 -19.5 -46t-56.5 -17zM949 777h108q47 0 47 36q0 26 -39 26h-108q-47 0 -47 -36q0 -26 39 -26z" />
    <glyph glyph-name="AE" unicode="&#xc6;" horiz-adv-x="2853" 
d="M1392 0l46 332h-1304l-46 -332h-40l77 550q11 76 52.5 113t118.5 37h2556l-5 -36h-1324l-42 -296h1218l-5 -36h-1218l-41 -296h1324l-5 -36h-1362zM297 664q-64 0 -94 -27t-39 -93l-25 -176h1304l42 296h-1188z" />
    <glyph glyph-name="Ccedilla" unicode="&#xc7;" horiz-adv-x="1765" 
d="M668 -124h287q48 0 67.5 8t19.5 31q0 13 -10.5 17t-38.5 4h-151l31 64h-675q-77 0 -108.5 37t-20.5 113l56 400q11 76 52.5 113t118.5 37h1480l-5 -36h-1474q-64 0 -94 -27t-39 -93l-55 -388q-9 -66 13.5 -93t86.5 -27h1474l-5 -36h-789l-22 -48h131q39 0 58 -7.5
t19 -30.5q0 -39 -32 -55.5t-96 -16.5h-284z" />
    <glyph glyph-name="Egrave" unicode="&#xc8;" horiz-adv-x="1828" 
d="M59 0l98 700h1670l-5 -36h-1630l-42 -296h1524l-5 -36h-1524l-41 -296h1630l-5 -36h-1670zM1028 754l-200 107h78l175 -107h-53z" />
    <glyph glyph-name="Eacute" unicode="&#xc9;" horiz-adv-x="1828" 
d="M59 0l98 700h1670l-5 -36h-1630l-42 -296h1524l-5 -36h-1524l-41 -296h1630l-5 -36h-1670zM1214 861l-234 -107h-55l204 107h85z" />
    <glyph glyph-name="Ecircumflex" unicode="&#xca;" horiz-adv-x="1828" 
d="M59 0l98 700h1670l-5 -36h-1630l-42 -296h1524l-5 -36h-1524l-41 -296h1630l-5 -36h-1670zM1016 834l-190 -80h-49l213 107h58l182 -107h-46z" />
    <glyph glyph-name="Edieresis" unicode="&#xcb;" horiz-adv-x="1828" 
d="M59 0l98 700h1670l-5 -36h-1630l-42 -296h1524l-5 -36h-1524l-41 -296h1630l-5 -36h-1670zM901 824l-6 -41h-87l6 41h87zM1213 824l-6 -41h-87l6 41h87z" />
    <glyph glyph-name="Igrave" unicode="&#xcc;" horiz-adv-x="242" 
d="M59 0l98 700h40l-98 -700h-40zM209 754l-200 107h78l175 -107h-53z" />
    <glyph glyph-name="Iacute" unicode="&#xcd;" horiz-adv-x="242" 
d="M59 0l98 700h40l-98 -700h-40zM395 861l-234 -107h-55l204 107h85z" />
    <glyph glyph-name="Icircumflex" unicode="&#xce;" horiz-adv-x="242" 
d="M59 0l98 700h40l-98 -700h-40zM197 834l-190 -80h-49l213 107h58l182 -107h-46z" />
    <glyph glyph-name="Idieresis" unicode="&#xcf;" horiz-adv-x="242" 
d="M346 824l-5 -41h-86l5 41h86zM128 824l-5 -41h-87l5 41h87zM59 0l98 700h40l-98 -700h-40z" />
    <glyph glyph-name="Eth" unicode="&#xd0;" horiz-adv-x="1868" 
d="M1642 700q102 0 147.5 -52.5t31.5 -155.5l-41 -284q-13 -102 -73.5 -155t-162.5 -53h-1485l46 332h-80l5 36h80l47 332h1485zM1542 36q88 0 137.5 42.5t61.5 133.5l39 276q13 91 -24.5 133.5t-125.5 42.5h-1438l-42 -296h279l-5 -36h-279l-41 -296h1438z" />
    <glyph glyph-name="Ntilde" unicode="&#xd1;" horiz-adv-x="1873" 
d="M297 664q-64 0 -94 -27t-39 -93l-76 -544h-40l77 550q11 76 52.5 113t118.5 37h1393q77 0 108.5 -37t20.5 -113l-77 -550h-40l77 544q9 66 -13 93t-86 27h-1382zM802 765l4 34q62 50 115 50q34 0 90.5 -29t88.5 -29q52 0 111 51l-4 -33q-62 -50 -116 -50
q-34 0 -90.5 28.5t-88.5 28.5q-51 0 -110 -51z" />
    <glyph glyph-name="Ograve" unicode="&#xd2;" horiz-adv-x="1857" 
d="M198 0q-77 0 -108.5 37t-20.5 113l56 400q11 76 52.5 113t118.5 37h1398q151 0 130 -150l-56 -400q-11 -76 -53 -113t-119 -37h-1398zM1728 156l55 388q9 66 -13 93t-86 27h-1387q-62 0 -93 -27.5t-40 -92.5l-55 -388q-9 -67 13.5 -93.5t86.5 -26.5h1387q64 0 93.5 27
t38.5 93zM1026 754l-200 107h78l175 -107h-53z" />
    <glyph glyph-name="Oacute" unicode="&#xd3;" horiz-adv-x="1857" 
d="M198 0q-77 0 -108.5 37t-20.5 113l56 400q11 76 52.5 113t118.5 37h1398q151 0 130 -150l-56 -400q-11 -76 -53 -113t-119 -37h-1398zM1728 156l55 388q9 66 -13 93t-86 27h-1387q-62 0 -93 -27.5t-40 -92.5l-55 -388q-9 -67 13.5 -93.5t86.5 -26.5h1387q64 0 93.5 27
t38.5 93zM1213 861l-234 -107h-55l204 107h85z" />
    <glyph glyph-name="Ocircumflex" unicode="&#xd4;" horiz-adv-x="1857" 
d="M198 0q-77 0 -108.5 37t-20.5 113l56 400q11 76 52.5 113t118.5 37h1398q151 0 130 -150l-56 -400q-11 -76 -53 -113t-119 -37h-1398zM1728 156l55 388q9 66 -13 93t-86 27h-1387q-62 0 -93 -27.5t-40 -92.5l-55 -388q-9 -67 13.5 -93.5t86.5 -26.5h1387q64 0 93.5 27
t38.5 93zM1014 834l-190 -80h-49l213 107h58l182 -107h-46z" />
    <glyph glyph-name="Otilde" unicode="&#xd5;" horiz-adv-x="1857" 
d="M198 0q-77 0 -108.5 37t-20.5 113l56 400q11 76 52.5 113t118.5 37h1398q151 0 130 -150l-56 -400q-11 -76 -53 -113t-119 -37h-1398zM1728 156l55 388q9 66 -13 93t-86 27h-1387q-62 0 -93 -27.5t-40 -92.5l-55 -388q-9 -67 13.5 -93.5t86.5 -26.5h1387q64 0 93.5 27
t38.5 93zM804 765l4 34q62 50 115 50q34 0 90.5 -29t88.5 -29q52 0 111 51l-4 -33q-62 -50 -116 -50q-34 0 -90.5 28.5t-88.5 28.5q-51 0 -110 -51z" />
    <glyph glyph-name="Odieresis" unicode="&#xd6;" horiz-adv-x="1857" 
d="M198 0q-77 0 -108.5 37t-20.5 113l56 400q11 76 52.5 113t118.5 37h1398q151 0 130 -150l-56 -400q-11 -76 -53 -113t-119 -37h-1398zM1728 156l55 388q9 66 -13 93t-86 27h-1387q-62 0 -93 -27.5t-40 -92.5l-55 -388q-9 -67 13.5 -93.5t86.5 -26.5h1387q64 0 93.5 27
t38.5 93zM899 824l-6 -41h-87l6 41h87zM1211 824l-6 -41h-87l6 41h87z" />
    <glyph glyph-name="multiply" unicode="&#xd7;" 
d="M967 331l240 -251h-47l-239 251l-240 -251h-46l239 251h-792v36h792l-239 252h46l240 -252l239 252h47l-240 -252h794v-36h-794z" />
    <glyph glyph-name="Oslash" unicode="&#xd8;" horiz-adv-x="1857" 
d="M198 0q-77 0 -108.5 37t-20.5 113l56 400q11 76 52.5 113t118.5 37h1398q151 0 130 -150l-56 -400q-11 -76 -53 -113t-119 -37h-1398zM253 36h1343q64 0 93.5 27t38.5 93l55 388q8 55 -6 82.5t-53 34.5zM168 39l1471 625h-1342q-62 0 -93 -27.5t-40 -92.5l-55 -388
q-8 -56 5.5 -83t53.5 -34z" />
    <glyph glyph-name="Ugrave" unicode="&#xd9;" horiz-adv-x="1873" 
d="M209 0q-77 0 -108.5 37t-20.5 113l77 550h40l-77 -544q-9 -66 13.5 -93t86.5 -27h1382q64 0 93.5 27t38.5 93l76 544h40l-77 -550q-11 -76 -52.5 -113t-118.5 -37h-1393zM1034 754l-200 107h78l175 -107h-53z" />
    <glyph glyph-name="Uacute" unicode="&#xda;" horiz-adv-x="1873" 
d="M209 0q-77 0 -108.5 37t-20.5 113l77 550h40l-77 -544q-9 -66 13.5 -93t86.5 -27h1382q64 0 93.5 27t38.5 93l76 544h40l-77 -550q-11 -76 -52.5 -113t-118.5 -37h-1393zM1217 861l-234 -107h-55l204 107h85z" />
    <glyph glyph-name="Ucircumflex" unicode="&#xdb;" horiz-adv-x="1873" 
d="M209 0q-77 0 -108.5 37t-20.5 113l77 550h40l-77 -544q-9 -66 13.5 -93t86.5 -27h1382q64 0 93.5 27t38.5 93l76 544h40l-77 -550q-11 -76 -52.5 -113t-118.5 -37h-1393zM1023 834l-190 -80h-49l213 107h58l182 -107h-46z" />
    <glyph glyph-name="Udieresis" unicode="&#xdc;" horiz-adv-x="1873" 
d="M209 0q-77 0 -108.5 37t-20.5 113l77 550h40l-77 -544q-9 -66 13.5 -93t86.5 -27h1382q64 0 93.5 27t38.5 93l76 544h40l-77 -550q-11 -76 -52.5 -113t-118.5 -37h-1393zM908 824l-6 -41h-87l6 41h87zM1220 824l-6 -41h-87l6 41h87z" />
    <glyph glyph-name="Yacute" unicode="&#xdd;" horiz-adv-x="1826" 
d="M1795 700h40l-31 -218q-21 -150 -172 -150h-684l-46 -332h-40l46 332h-685q-77 0 -108.5 37t-20.5 113l31 218h40l-30 -212q-9 -66 13 -93t86 -27h1398q64 0 93.5 27t39.5 93zM1194 861l-234 -107h-55l204 107h85z" />
    <glyph glyph-name="Thorn" unicode="&#xde;" horiz-adv-x="1832" 
d="M59 0l98 700h40l-14 -97h1502q75 0 105.5 -35.5t20.5 -110.5l-11 -76q-11 -75 -50.5 -110.5t-115.5 -35.5h-1502l-33 -235h-40zM1770 453q8 61 -13.5 87.5t-79.5 26.5h-1499l-41 -296h1499q58 0 87 26.5t38 87.5z" />
    <glyph glyph-name="germandbls" unicode="&#xdf;" horiz-adv-x="1677" 
d="M1481 283h-1108l5 36h1108q52 0 75 20t30 71l8 58q8 54 -11.5 76.5t-73.5 22.5h-1218q-70 0 -106.5 -31t-46.5 -103l-84 -600h-40l84 600q12 87 59.5 128.5t135.5 41.5h1224q71 0 99 -33t18 -106l-8 -52q-7 -52 -32 -79t-76 -32q50 -5 67 -31.5t10 -79.5l-7 -51
q-10 -73 -47 -106t-108 -33h-1104l5 36h1101q54 0 79 22.5t33 76.5l8 57q7 51 -10 71t-69 20z" />
    <glyph glyph-name="agrave" unicode="&#xe0;" horiz-adv-x="1646" 
d="M1544 319l19 135q9 62 -12.5 87.5t-84.5 25.5h-1332l5 36h1338q76 0 107 -36t20 -112l-43 -307q-11 -76 -51.5 -112t-116.5 -36h-1238q-68 0 -95 32t-17 101l7 53q10 70 45.5 101.5t103.5 31.5h1345zM1539 283h-1343q-50 0 -74 -21t-31 -72l-9 -61q-7 -51 11.5 -72
t68.5 -21h1230q63 0 91.5 25.5t37.5 87.5zM900 660l-200 107h78l175 -107h-53z" />
    <glyph glyph-name="aacute" unicode="&#xe1;" horiz-adv-x="1646" 
d="M1544 319l19 135q9 62 -12.5 87.5t-84.5 25.5h-1332l5 36h1338q76 0 107 -36t20 -112l-43 -307q-11 -76 -51.5 -112t-116.5 -36h-1238q-68 0 -95 32t-17 101l7 53q10 70 45.5 101.5t103.5 31.5h1345zM1539 283h-1343q-50 0 -74 -21t-31 -72l-9 -61q-7 -51 11.5 -72
t68.5 -21h1230q63 0 91.5 25.5t37.5 87.5zM1073 767l-234 -107h-55l204 107h85z" />
    <glyph glyph-name="acircumflex" unicode="&#xe2;" horiz-adv-x="1646" 
d="M1544 319l19 135q9 62 -12.5 87.5t-84.5 25.5h-1332l5 36h1338q76 0 107 -36t20 -112l-43 -307q-11 -76 -51.5 -112t-116.5 -36h-1238q-68 0 -95 32t-17 101l7 53q10 70 45.5 101.5t103.5 31.5h1345zM1539 283h-1343q-50 0 -74 -21t-31 -72l-9 -61q-7 -51 11.5 -72
t68.5 -21h1230q63 0 91.5 25.5t37.5 87.5zM888 740l-190 -80h-49l213 107h58l182 -107h-46z" />
    <glyph glyph-name="atilde" unicode="&#xe3;" horiz-adv-x="1646" 
d="M1544 319l19 135q9 62 -12.5 87.5t-84.5 25.5h-1332l5 36h1338q76 0 107 -36t20 -112l-43 -307q-11 -76 -51.5 -112t-116.5 -36h-1238q-68 0 -95 32t-17 101l7 53q10 70 45.5 101.5t103.5 31.5h1345zM1539 283h-1343q-50 0 -74 -21t-31 -72l-9 -61q-7 -51 11.5 -72
t68.5 -21h1230q63 0 91.5 25.5t37.5 87.5zM678 671l4 34q62 50 115 50q34 0 90.5 -29t88.5 -29q52 0 111 51l-4 -33q-62 -50 -116 -50q-34 0 -90.5 28.5t-88.5 28.5q-51 0 -110 -51z" />
    <glyph glyph-name="adieresis" unicode="&#xe4;" horiz-adv-x="1646" 
d="M1544 319l19 135q9 62 -12.5 87.5t-84.5 25.5h-1332l5 36h1338q76 0 107 -36t20 -112l-43 -307q-11 -76 -51.5 -112t-116.5 -36h-1238q-68 0 -95 32t-17 101l7 53q10 70 45.5 101.5t103.5 31.5h1345zM1539 283h-1343q-50 0 -74 -21t-31 -72l-9 -61q-7 -51 11.5 -72
t68.5 -21h1230q63 0 91.5 25.5t37.5 87.5zM773 730l-6 -41h-87l6 41h87zM1085 730l-6 -41h-87l6 41h87z" />
    <glyph glyph-name="aring" unicode="&#xe5;" horiz-adv-x="1646" 
d="M1544 319l19 135q9 62 -12.5 87.5t-84.5 25.5h-1332l5 36h1338q76 0 107 -36t20 -112l-43 -307q-11 -76 -51.5 -112t-116.5 -36h-1238q-68 0 -95 32t-17 101l7 53q10 70 45.5 101.5t103.5 31.5h1345zM1539 283h-1343q-50 0 -74 -21t-31 -72l-9 -61q-7 -51 11.5 -72
t68.5 -21h1230q63 0 91.5 25.5t37.5 87.5zM929 660h-107q-61 0 -61 44q0 29 19.5 46t56.5 17h107q61 0 61 -44q0 -29 -19.5 -46t-56.5 -17zM825 683h108q47 0 47 36q0 26 -39 26h-108q-47 0 -47 -36q0 -26 39 -26z" />
    <glyph glyph-name="ae" unicode="&#xe6;" horiz-adv-x="2458" 
d="M2386 412l9 62q7 51 -11 72t-69 21h-916q-56 0 -83 -25t-35 -80l-20 -143h1019q51 0 75 21t31 72zM91 190l-9 -61q-7 -51 11.5 -72t68.5 -21h917q55 0 82 25t35 80l20 142h-1020q-50 0 -74 -21t-31 -72zM1055 0h-900q-68 0 -95 32t-17 101l7 53q10 70 45.5 101.5
t103.5 31.5h1022l20 143q8 55 -12.5 80t-75.5 25h-1019l5 36h1000q68 0 98 -23.5t30 -77.5q16 54 52 77.5t103 23.5h901q67 0 94 -32t17 -101l-7 -54q-10 -69 -46 -101t-103 -32h-1022l-20 -142q-8 -55 12.5 -80t76.5 -25h1019l-5 -36h-1001q-67 0 -97 23.5t-31 77.5
q-15 -54 -51 -77.5t-104 -23.5z" />
    <glyph glyph-name="ccedilla" unicode="&#xe7;" horiz-adv-x="1581" 
d="M571 -124h287q48 0 67.5 8t19.5 31q0 13 -10.5 17t-38.5 4h-151l31 64h-586q-76 0 -107 36t-20 112l44 307q10 76 50.5 112t116.5 36h1301l-5 -36h-1295q-62 0 -91 -25.5t-38 -87.5l-42 -305q-10 -62 12.5 -87.5t84.5 -25.5h1295l-5 -36h-699l-22 -48h131q39 0 58 -7.5
t19 -30.5q0 -39 -32 -55.5t-96 -16.5h-284z" />
    <glyph glyph-name="egrave" unicode="&#xe8;" horiz-adv-x="1646" 
d="M1617 416q-10 -70 -45.5 -101.5t-103.5 -31.5h-1345l-18 -134q-10 -62 13 -87.5t84 -25.5h1332l-5 -36h-1338q-84 0 -110 41.5t-14 128.5l41 285q10 75 50.5 111.5t116.5 36.5h1238q68 0 95 -32t17 -101zM1506 567h-1230q-70 0 -95.5 -30.5t-37.5 -112.5l-15 -105h1343
q49 0 74 21t32 72l8 56q8 55 -9 77t-70 22zM931 660l-200 107h78l175 -107h-53z" />
    <glyph glyph-name="eacute" unicode="&#xe9;" horiz-adv-x="1646" 
d="M1617 416q-10 -70 -45.5 -101.5t-103.5 -31.5h-1345l-18 -134q-10 -62 13 -87.5t84 -25.5h1332l-5 -36h-1338q-84 0 -110 41.5t-14 128.5l41 285q10 75 50.5 111.5t116.5 36.5h1238q68 0 95 -32t17 -101zM1506 567h-1230q-70 0 -95.5 -30.5t-37.5 -112.5l-15 -105h1343
q49 0 74 21t32 72l8 56q8 55 -9 77t-70 22zM1118 767l-234 -107h-55l204 107h85z" />
    <glyph glyph-name="ecircumflex" unicode="&#xea;" horiz-adv-x="1646" 
d="M1617 416q-10 -70 -45.5 -101.5t-103.5 -31.5h-1345l-18 -134q-10 -62 13 -87.5t84 -25.5h1332l-5 -36h-1338q-84 0 -110 41.5t-14 128.5l41 285q10 75 50.5 111.5t116.5 36.5h1238q68 0 95 -32t17 -101zM1506 567h-1230q-70 0 -95.5 -30.5t-37.5 -112.5l-15 -105h1343
q49 0 74 21t32 72l8 56q8 55 -9 77t-70 22zM920 740l-190 -80h-49l213 107h58l182 -107h-46z" />
    <glyph glyph-name="edieresis" unicode="&#xeb;" horiz-adv-x="1646" 
d="M1617 416q-10 -70 -45.5 -101.5t-103.5 -31.5h-1345l-18 -134q-10 -62 13 -87.5t84 -25.5h1332l-5 -36h-1338q-84 0 -110 41.5t-14 128.5l41 285q10 75 50.5 111.5t116.5 36.5h1238q68 0 95 -32t17 -101zM1506 567h-1230q-70 0 -95.5 -30.5t-37.5 -112.5l-15 -105h1343
q49 0 74 21t32 72l8 56q8 55 -9 77t-70 22zM805 730l-6 -41h-87l6 41h87zM1117 730l-6 -41h-87l6 41h87z" />
    <glyph glyph-name="igrave" unicode="&#xec;" horiz-adv-x="349" 
d="M220 660l-200 107h78l175 -107h-53zM193 36h89l-5 -36h-94q-75 0 -102.5 32t-16.5 106l65 465h40l-65 -464q-9 -60 10 -81.5t79 -21.5z" />
    <glyph glyph-name="iacute" unicode="&#xed;" horiz-adv-x="349" 
d="M384 767l-234 -107h-55l204 107h85zM204 36h89l-5 -36h-94q-75 0 -102.5 32t-16.5 106l65 465h40l-65 -464q-9 -60 10 -81.5t79 -21.5z" />
    <glyph glyph-name="icircumflex" unicode="&#xee;" horiz-adv-x="349" 
d="M193 36h89l-5 -36h-94q-75 0 -102.5 32t-16.5 106l65 465h40l-65 -464q-9 -60 10 -81.5t79 -21.5zM170 740l-190 -80h-49l213 107h58l182 -107h-46z" />
    <glyph glyph-name="idieresis" unicode="&#xef;" horiz-adv-x="349" 
d="M325 730l-6 -41h-87l6 41h87zM95 730l-6 -41h-86l6 41h86zM193 36h89l-5 -36h-94q-75 0 -102.5 32t-16.5 106l65 465h40l-65 -464q-9 -60 10 -81.5t79 -21.5z" />
    <glyph glyph-name="eth" unicode="&#xf0;" horiz-adv-x="1656" 
d="M272 586h1188q52 0 78.5 -16t34.5 -51l9 71q11 78 -18.5 111t-104.5 33h-545l-13 -90h-33l13 90h-695l5 36h695l7 50h33l-7 -50h549q92 0 129.5 -44t24.5 -136l-62 -442q-11 -76 -51 -112t-116 -36h-1203q-76 0 -107 36t-20 112l41 290q11 76 51.5 112t116.5 36z
M1463 550h-1190q-63 0 -92 -25.5t-37 -87.5l-40 -288q-10 -62 12.5 -87.5t84.5 -25.5h1190q63 0 91.5 25t38.5 88l40 288q8 62 -13.5 87.5t-84.5 25.5z" />
    <glyph glyph-name="ntilde" unicode="&#xf1;" horiz-adv-x="1661" 
d="M43 0l64 455q10 76 50.5 112t116.5 36h1197q76 0 107 -36t20 -112l-64 -455h-40l63 454q9 62 -13 87.5t-84 25.5h-1185q-62 0 -91 -25.5t-38 -87.5l-63 -454h-40zM683 671l4 34q62 50 115 50q34 0 90.5 -29t88.5 -29q52 0 111 51l-4 -33q-62 -50 -116 -50
q-34 0 -90.5 28.5t-88.5 28.5q-51 0 -110 -51z" />
    <glyph glyph-name="ograve" unicode="&#xf2;" horiz-adv-x="1644" 
d="M1475 603q76 0 107 -36t20 -112l-43 -307q-11 -76 -51.5 -112t-116.5 -36h-1201q-76 0 -107 36t-20 112l44 307q10 76 50.5 112t116.5 36h1201zM1390 36q63 0 91.5 25t38.5 88l42 305q9 62 -13 87.5t-85 25.5h-1189q-62 0 -91 -25.5t-38 -87.5l-42 -305
q-10 -62 12.5 -87.5t84.5 -25.5h1189zM907 660l-200 107h78l175 -107h-53z" />
    <glyph glyph-name="oacute" unicode="&#xf3;" horiz-adv-x="1644" 
d="M1475 603q76 0 107 -36t20 -112l-43 -307q-11 -76 -51.5 -112t-116.5 -36h-1201q-76 0 -107 36t-20 112l44 307q10 76 50.5 112t116.5 36h1201zM1390 36q63 0 91.5 25t38.5 88l42 305q9 62 -13 87.5t-85 25.5h-1189q-62 0 -91 -25.5t-38 -87.5l-42 -305
q-10 -62 12.5 -87.5t84.5 -25.5h1189zM1094 767l-234 -107h-55l204 107h85z" />
    <glyph glyph-name="ocircumflex" unicode="&#xf4;" horiz-adv-x="1644" 
d="M1475 603q76 0 107 -36t20 -112l-43 -307q-11 -76 -51.5 -112t-116.5 -36h-1201q-76 0 -107 36t-20 112l44 307q10 76 50.5 112t116.5 36h1201zM1390 36q63 0 91.5 25t38.5 88l42 305q9 62 -13 87.5t-85 25.5h-1189q-62 0 -91 -25.5t-38 -87.5l-42 -305
q-10 -62 12.5 -87.5t84.5 -25.5h1189zM895 740l-190 -80h-49l213 107h58l182 -107h-46z" />
    <glyph glyph-name="otilde" unicode="&#xf5;" horiz-adv-x="1644" 
d="M1475 603q76 0 107 -36t20 -112l-43 -307q-11 -76 -51.5 -112t-116.5 -36h-1201q-76 0 -107 36t-20 112l44 307q10 76 50.5 112t116.5 36h1201zM1390 36q63 0 91.5 25t38.5 88l42 305q9 62 -13 87.5t-85 25.5h-1189q-62 0 -91 -25.5t-38 -87.5l-42 -305
q-10 -62 12.5 -87.5t84.5 -25.5h1189zM685 671l4 34q62 50 115 50q34 0 90.5 -29t88.5 -29q52 0 111 51l-4 -33q-62 -50 -116 -50q-34 0 -90.5 28.5t-88.5 28.5q-51 0 -110 -51z" />
    <glyph glyph-name="odieresis" unicode="&#xf6;" horiz-adv-x="1644" 
d="M1475 603q76 0 107 -36t20 -112l-43 -307q-11 -76 -51.5 -112t-116.5 -36h-1201q-76 0 -107 36t-20 112l44 307q10 76 50.5 112t116.5 36h1201zM1390 36q63 0 91.5 25t38.5 88l42 305q9 62 -13 87.5t-85 25.5h-1189q-62 0 -91 -25.5t-38 -87.5l-42 -305
q-10 -62 12.5 -87.5t84.5 -25.5h1189zM780 730l-6 -41h-87l6 41h87zM1092 730l-6 -41h-87l6 41h87z" />
    <glyph glyph-name="divide" unicode="&#xf7;" 
d="M961 137v-51h-79v51h79zM961 614v-51h-79v51h79zM1761 331h-1679v36h1679v-36z" />
    <glyph glyph-name="oslash" unicode="&#xf8;" horiz-adv-x="1644" 
d="M1475 603q76 0 107 -36t20 -112l-43 -307q-11 -76 -51.5 -112t-116.5 -36h-1201q-76 0 -107 36t-20 112l44 307q10 76 50.5 112t116.5 36h1201zM1390 36q63 0 91.5 25t38.5 88l42 305q8 52 -6.5 78t-55.5 32l-1257 -528h1147zM104 149q-8 -50 5 -76.5t50 -33.5l1254 528
h-1138q-62 0 -91 -25.5t-38 -87.5z" />
    <glyph glyph-name="ugrave" unicode="&#xf9;" horiz-adv-x="1661" 
d="M1397 36q62 0 91 25.5t38 87.5l63 454h40l-63 -455q-11 -76 -51.5 -112t-116.5 -36h-1197q-76 0 -107 36t-20 112l64 455h40l-63 -454q-10 -62 12.5 -87.5t84.5 -25.5h1185zM920 660l-200 107h78l175 -107h-53z" />
    <glyph glyph-name="uacute" unicode="&#xfa;" horiz-adv-x="1661" 
d="M1397 36q62 0 91 25.5t38 87.5l63 454h40l-63 -455q-11 -76 -51.5 -112t-116.5 -36h-1197q-76 0 -107 36t-20 112l64 455h40l-63 -454q-10 -62 12.5 -87.5t84.5 -25.5h1185zM1103 767l-234 -107h-55l204 107h85z" />
    <glyph glyph-name="ucircumflex" unicode="&#xfb;" horiz-adv-x="1661" 
d="M1397 36q62 0 91 25.5t38 87.5l63 454h40l-63 -455q-11 -76 -51.5 -112t-116.5 -36h-1197q-76 0 -107 36t-20 112l64 455h40l-63 -454q-10 -62 12.5 -87.5t84.5 -25.5h1185zM904 740l-190 -80h-49l213 107h58l182 -107h-46z" />
    <glyph glyph-name="udieresis" unicode="&#xfc;" horiz-adv-x="1661" 
d="M1397 36q62 0 91 25.5t38 87.5l63 454h40l-63 -455q-11 -76 -51.5 -112t-116.5 -36h-1197q-76 0 -107 36t-20 112l64 455h40l-63 -454q-10 -62 12.5 -87.5t84.5 -25.5h1185zM789 730l-6 -41h-87l6 41h87zM1101 730l-6 -41h-87l6 41h87z" />
    <glyph glyph-name="yacute" unicode="&#xfd;" horiz-adv-x="1673" 
d="M1335 -167h-1272l5 36h1268q76 0 115 33t49 111l10 71q-32 -67 -130 -67h-1183q-76 0 -107 36t-20 112l61 438h40l-61 -437q-9 -62 13 -87.5t85 -25.5h1185q63 0 91.5 25.5t37.5 87.5l61 437h40l-83 -590q-13 -92 -63 -136t-142 -44zM1101 767l-234 -107h-55l204 107h85z
" />
    <glyph glyph-name="thorn" unicode="&#xfe;" horiz-adv-x="1667" 
d="M202 770l-24 -167h1310q76 0 106.5 -36t19.5 -112l-43 -307q-11 -76 -51 -112t-116 -36h-1188q-100 0 -113 68l-33 -235h-40l132 937h40zM173 567l-58 -418q-10 -62 12.5 -87.5t84.5 -25.5h1190q63 0 91.5 25t38.5 88l42 305q9 62 -13 87.5t-85 25.5h-1303z" />
    <glyph glyph-name="ydieresis" unicode="&#xff;" horiz-adv-x="1673" 
d="M1335 -167h-1272l5 36h1268q76 0 115 33t49 111l10 71q-32 -67 -130 -67h-1183q-76 0 -107 36t-20 112l61 438h40l-61 -437q-9 -62 13 -87.5t85 -25.5h1185q63 0 91.5 25.5t37.5 87.5l61 437h40l-83 -590q-13 -92 -63 -136t-142 -44zM788 730l-6 -41h-87l6 41h87z
M1100 730l-6 -41h-87l6 41h87z" />
    <glyph glyph-name="Amacron" unicode="&#x100;" horiz-adv-x="1873" 
d="M1741 0h-40l46 332h-1613l-46 -332h-40l77 550q11 76 52.5 113t118.5 37h1393q77 0 108.5 -37t20.5 -113zM1678 664h-1381q-64 0 -94 -27t-39 -93l-25 -176h1613l25 176q10 66 -12.5 93t-86.5 27zM1204 792h-399l4 28h399z" />
    <glyph glyph-name="amacron" unicode="&#x101;" horiz-adv-x="1646" 
d="M1544 319l19 135q9 62 -12.5 87.5t-84.5 25.5h-1332l5 36h1338q76 0 107 -36t20 -112l-43 -307q-11 -76 -51.5 -112t-116.5 -36h-1238q-68 0 -95 32t-17 101l7 53q10 70 45.5 101.5t103.5 31.5h1345zM1539 283h-1343q-50 0 -74 -21t-31 -72l-9 -61q-7 -51 11.5 -72
t68.5 -21h1230q63 0 91.5 25.5t37.5 87.5zM1080 698h-399l4 28h399z" />
    <glyph glyph-name="Abreve" unicode="&#x102;" horiz-adv-x="1873" 
d="M1741 0h-40l46 332h-1613l-46 -332h-40l77 550q11 76 52.5 113t118.5 37h1393q77 0 108.5 -37t20.5 -113zM1678 664h-1381q-64 0 -94 -27t-39 -93l-25 -176h1613l25 176q10 66 -12.5 93t-86.5 27zM811 829l2 34q61 -74 190 -74t209 74l-2 -34q-83 -74 -210 -74t-189 74z
" />
    <glyph glyph-name="abreve" unicode="&#x103;" horiz-adv-x="1646" 
d="M1544 319l19 135q9 62 -12.5 87.5t-84.5 25.5h-1332l5 36h1338q76 0 107 -36t20 -112l-43 -307q-11 -76 -51.5 -112t-116.5 -36h-1238q-68 0 -95 32t-17 101l7 53q10 70 45.5 101.5t103.5 31.5h1345zM1539 283h-1343q-50 0 -74 -21t-31 -72l-9 -61q-7 -51 11.5 -72
t68.5 -21h1230q63 0 91.5 25.5t37.5 87.5zM687 735l2 34q61 -74 190 -74t209 74l-2 -34q-83 -74 -210 -74t-189 74z" />
    <glyph glyph-name="Aogonek" unicode="&#x104;" horiz-adv-x="1873" 
d="M1679 -45h15l53 377h-1613l-46 -332h-40l77 550q11 76 52.5 113t118.5 37h1393q77 0 108.5 -37t20.5 -113l-77 -550h-22l-9 -64h-19q-135 0 -205.5 -5t-93.5 -14t-23 -26q0 -15 48 -15h323l-5 -34h-324q-70 0 -70 37q0 32 25 47t95.5 22t217.5 7zM1678 664h-1381
q-64 0 -94 -27t-39 -93l-25 -176h1613l25 176q10 66 -12.5 93t-86.5 27z" />
    <glyph glyph-name="aogonek" unicode="&#x105;" horiz-adv-x="1646" 
d="M1539 283h-1343q-50 0 -74 -21t-31 -72l-9 -61q-7 -51 11.5 -72t68.5 -21h1230q63 0 91.5 25.5t37.5 87.5zM1535 -158h-324q-70 0 -70 37q0 32 25 47t95.5 22t217.5 7h15l11 77q-39 -32 -112 -32h-1238q-68 0 -95 32t-17 101l7 53q10 70 45.5 101.5t103.5 31.5h1345
l19 135q9 62 -12.5 87.5t-84.5 25.5h-1332l5 36h1338q76 0 107 -36t20 -112l-43 -307q-9 -59 -34 -93l-17 -119h-19q-135 0 -205.5 -5t-93.5 -14t-23 -26q0 -15 48 -15h323z" />
    <glyph glyph-name="Cacute" unicode="&#x106;" horiz-adv-x="1765" 
d="M198 0q-77 0 -108.5 37t-20.5 113l56 400q11 76 52.5 113t118.5 37h1480l-5 -36h-1474q-64 0 -94 -27t-39 -93l-55 -388q-9 -66 13.5 -93t86.5 -27h1474l-5 -36h-1480zM1200 861l-234 -107h-55l204 107h85z" />
    <glyph glyph-name="cacute" unicode="&#x107;" horiz-adv-x="1581" 
d="M190 0q-76 0 -107 36t-20 112l44 307q10 76 50.5 112t116.5 36h1301l-5 -36h-1295q-62 0 -91 -25.5t-38 -87.5l-42 -305q-10 -62 12.5 -87.5t84.5 -25.5h1295l-5 -36h-1301zM1099 767l-234 -107h-55l204 107h85z" />
    <glyph glyph-name="Ccircumflex" unicode="&#x108;" horiz-adv-x="1765" 
d="M198 0q-77 0 -108.5 37t-20.5 113l56 400q11 76 52.5 113t118.5 37h1480l-5 -36h-1474q-64 0 -94 -27t-39 -93l-55 -388q-9 -66 13.5 -93t86.5 -27h1474l-5 -36h-1480zM1009 834l-190 -80h-49l213 107h58l182 -107h-46z" />
    <glyph glyph-name="ccircumflex" unicode="&#x109;" horiz-adv-x="1581" 
d="M190 0q-76 0 -107 36t-20 112l44 307q10 76 50.5 112t116.5 36h1301l-5 -36h-1295q-62 0 -91 -25.5t-38 -87.5l-42 -305q-10 -62 12.5 -87.5t84.5 -25.5h1295l-5 -36h-1301zM901 740l-190 -80h-49l213 107h58l182 -107h-46z" />
    <glyph glyph-name="Cdotaccent" unicode="&#x10a;" horiz-adv-x="1765" 
d="M198 0q-77 0 -108.5 37t-20.5 113l56 400q11 76 52.5 113t118.5 37h1480l-5 -36h-1474q-64 0 -94 -27t-39 -93l-55 -388q-9 -66 13.5 -93t86.5 -27h1474l-5 -36h-1480zM1050 824l-6 -41h-87l6 41h87z" />
    <glyph glyph-name="cdotaccent" unicode="&#x10b;" horiz-adv-x="1581" 
d="M190 0q-76 0 -107 36t-20 112l44 307q10 76 50.5 112t116.5 36h1301l-5 -36h-1295q-62 0 -91 -25.5t-38 -87.5l-42 -305q-10 -62 12.5 -87.5t84.5 -25.5h1295l-5 -36h-1301zM942 730l-6 -41h-87l6 41h87z" />
    <glyph glyph-name="Ccaron" unicode="&#x10c;" horiz-adv-x="1765" 
d="M198 0q-77 0 -108.5 37t-20.5 113l56 400q11 76 52.5 113t118.5 37h1480l-5 -36h-1474q-64 0 -94 -27t-39 -93l-55 -388q-9 -66 13.5 -93t86.5 -27h1474l-5 -36h-1480zM832 861l167 -80l191 80h48l-212 -107h-58l-183 107h47z" />
    <glyph glyph-name="ccaron" unicode="&#x10d;" horiz-adv-x="1581" 
d="M190 0q-76 0 -107 36t-20 112l44 307q10 76 50.5 112t116.5 36h1301l-5 -36h-1295q-62 0 -91 -25.5t-38 -87.5l-42 -305q-10 -62 12.5 -87.5t84.5 -25.5h1295l-5 -36h-1301zM724 767l167 -80l191 80h48l-212 -107h-58l-183 107h47z" />
    <glyph glyph-name="Dcaron" unicode="&#x10e;" horiz-adv-x="1868" 
d="M1642 700q102 0 147.5 -52.5t31.5 -155.5l-41 -284q-13 -102 -73.5 -155t-162.5 -53h-1485l98 700h1485zM1542 36q88 0 137.5 42.5t61.5 133.5l39 276q13 91 -24.5 133.5t-125.5 42.5h-1438l-88 -628h1438zM821 861l167 -80l191 80h48l-212 -107h-58l-183 107h47z" />
    <glyph glyph-name="dcaron" unicode="&#x10f;" horiz-adv-x="1851" 
d="M1648 770l-88 -622q-11 -76 -51 -112t-116 -36h-1203q-76 0 -107 36t-20 112l44 307q10 76 50.5 112t116.5 36h1188q99 0 112 -68l34 235h40zM1521 149l42 305q9 62 -13 87.5t-85 25.5h-1190q-62 0 -91 -25.5t-38 -87.5l-42 -305q-10 -62 12.5 -87.5t84.5 -25.5h1190
q63 0 91.5 25t38.5 88zM1859 700l-7 -47q-6 -45 -24.5 -65t-54.5 -20h-10l3 21h11q32 0 39 47l2 17h-43l7 47h77z" />
    <glyph glyph-name="Dcroat" unicode="&#x110;" horiz-adv-x="1868" 
d="M1642 700q102 0 147.5 -52.5t31.5 -155.5l-41 -284q-13 -102 -73.5 -155t-162.5 -53h-1485l46 332h-80l5 36h80l47 332h1485zM1542 36q88 0 137.5 42.5t61.5 133.5l39 276q13 91 -24.5 133.5t-125.5 42.5h-1438l-42 -296h279l-5 -36h-279l-41 -296h1438z" />
    <glyph glyph-name="dcroat" unicode="&#x111;" horiz-adv-x="1656" 
d="M1648 770l-11 -77h84l-4 -28h-84l-73 -517q-11 -76 -51 -112t-116 -36h-1203q-76 0 -107 36t-20 112l44 307q10 76 50.5 112t116.5 36h1188q99 0 112 -68l19 130h-275l4 28h275l11 77h40zM1521 149l42 305q9 62 -13 87.5t-85 25.5h-1190q-62 0 -91 -25.5t-38 -87.5
l-42 -305q-10 -62 12.5 -87.5t84.5 -25.5h1190q63 0 91.5 25t38.5 88z" />
    <glyph glyph-name="Emacron" unicode="&#x112;" horiz-adv-x="1828" 
d="M59 0l98 700h1670l-5 -36h-1630l-42 -296h1524l-5 -36h-1524l-41 -296h1630l-5 -36h-1670zM1208 792h-399l4 28h399z" />
    <glyph glyph-name="emacron" unicode="&#x113;" horiz-adv-x="1646" 
d="M1617 416q-10 -70 -45.5 -101.5t-103.5 -31.5h-1345l-18 -134q-10 -62 13 -87.5t84 -25.5h1332l-5 -36h-1338q-84 0 -110 41.5t-14 128.5l41 285q10 75 50.5 111.5t116.5 36.5h1238q68 0 95 -32t17 -101zM1506 567h-1230q-70 0 -95.5 -30.5t-37.5 -112.5l-15 -105h1343
q49 0 74 21t32 72l8 56q8 55 -9 77t-70 22zM1112 698h-399l4 28h399z" />
    <glyph glyph-name="Ebreve" unicode="&#x114;" horiz-adv-x="1828" 
d="M59 0l98 700h1670l-5 -36h-1630l-42 -296h1524l-5 -36h-1524l-41 -296h1630l-5 -36h-1670zM815 829l2 34q61 -74 190 -74t209 74l-2 -34q-83 -74 -210 -74t-189 74z" />
    <glyph glyph-name="ebreve" unicode="&#x115;" horiz-adv-x="1646" 
d="M1617 416q-10 -70 -45.5 -101.5t-103.5 -31.5h-1345l-18 -134q-10 -62 13 -87.5t84 -25.5h1332l-5 -36h-1338q-84 0 -110 41.5t-14 128.5l41 285q10 75 50.5 111.5t116.5 36.5h1238q68 0 95 -32t17 -101zM1506 567h-1230q-70 0 -95.5 -30.5t-37.5 -112.5l-15 -105h1343
q49 0 74 21t32 72l8 56q8 55 -9 77t-70 22zM719 735l2 34q61 -74 190 -74t209 74l-2 -34q-83 -74 -210 -74t-189 74z" />
    <glyph glyph-name="Edotaccent" unicode="&#x116;" horiz-adv-x="1828" 
d="M59 0l98 700h1670l-5 -36h-1630l-42 -296h1524l-5 -36h-1524l-41 -296h1630l-5 -36h-1670zM1057 824l-6 -41h-87l6 41h87z" />
    <glyph glyph-name="edotaccent" unicode="&#x117;" horiz-adv-x="1646" 
d="M1617 416q-10 -70 -45.5 -101.5t-103.5 -31.5h-1345l-18 -134q-10 -62 13 -87.5t84 -25.5h1332l-5 -36h-1338q-84 0 -110 41.5t-14 128.5l41 285q10 75 50.5 111.5t116.5 36.5h1238q68 0 95 -32t17 -101zM1506 567h-1230q-70 0 -95.5 -30.5t-37.5 -112.5l-15 -105h1343
q49 0 74 21t32 72l8 56q8 55 -9 77t-70 22zM961 730l-6 -41h-87l6 41h87z" />
    <glyph glyph-name="Eogonek" unicode="&#x118;" horiz-adv-x="1828" 
d="M1650 -45h15l6 45h-1612l98 700h1670l-5 -36h-1630l-42 -296h1524l-5 -36h-1524l-41 -296h1630l-5 -36h-39l-9 -64h-19q-135 0 -205.5 -5t-93.5 -14t-23 -26q0 -15 48 -15h323l-5 -34h-324q-70 0 -70 37q0 32 25 47t95.5 22t217.5 7z" />
    <glyph glyph-name="eogonek" unicode="&#x119;" horiz-adv-x="1646" 
d="M1506 567h-1230q-70 0 -95.5 -30.5t-37.5 -112.5l-15 -105h1343q49 0 74 21t32 72l8 56q8 55 -9 77t-70 22zM1506 -158h-324q-70 0 -70 37q0 32 25 47t95.5 22t217.5 7h26l6 45h-1291q-84 0 -110 41.5t-14 128.5l41 285q10 75 50.5 111.5t116.5 36.5h1238q68 0 95 -32
t17 -101l-8 -54q-10 -70 -45.5 -101.5t-103.5 -31.5h-1345l-18 -134q-10 -62 13 -87.5t84 -25.5h1332l-5 -36h-28l-9 -64h-30q-135 0 -205.5 -5t-93.5 -14t-23 -26q0 -15 48 -15h323z" />
    <glyph glyph-name="Ecaron" unicode="&#x11a;" horiz-adv-x="1828" 
d="M59 0l98 700h1670l-5 -36h-1630l-42 -296h1524l-5 -36h-1524l-41 -296h1630l-5 -36h-1670zM839 861l167 -80l191 80h48l-212 -107h-58l-183 107h47z" />
    <glyph glyph-name="ecaron" unicode="&#x11b;" horiz-adv-x="1646" 
d="M1617 416q-10 -70 -45.5 -101.5t-103.5 -31.5h-1345l-18 -134q-10 -62 13 -87.5t84 -25.5h1332l-5 -36h-1338q-84 0 -110 41.5t-14 128.5l41 285q10 75 50.5 111.5t116.5 36.5h1238q68 0 95 -32t17 -101zM1506 567h-1230q-70 0 -95.5 -30.5t-37.5 -112.5l-15 -105h1343
q49 0 74 21t32 72l8 56q8 55 -9 77t-70 22zM743 767l167 -80l191 80h48l-212 -107h-58l-183 107h47z" />
    <glyph glyph-name="Gcircumflex" unicode="&#x11c;" horiz-adv-x="1849" 
d="M1606 36q62 0 87 21.5t34 85.5l26 189h-937l5 36h977l-32 -229q-11 -75 -47.5 -107t-111.5 -32h-1409q-77 0 -108.5 37t-20.5 113l56 400q11 76 52.5 113t118.5 37h1524l-5 -36h-1518q-64 0 -94 -27t-39 -93l-55 -388q-9 -66 13.5 -93t86.5 -27h1397zM1025 834l-190 -80
h-49l213 107h58l182 -107h-46z" />
    <glyph glyph-name="gcircumflex" unicode="&#x11d;" horiz-adv-x="1656" 
d="M1387 53q62 0 91 25.5t38 87.5l40 288q9 62 -13 87.5t-85 25.5h-1190q-62 0 -91 -25.5t-38 -87.5l-40 -288q-9 -62 13 -87.5t85 -25.5h1190zM1373 17h-1187q-76 0 -107 36t-20 112l41 290q10 76 50.5 112t116.5 36h1203q76 0 106.5 -36t19.5 -112l-62 -442
q-13 -92 -63 -136t-142 -44h-1277l5 36h1273q76 0 115 33t49 111l10 71q-32 -67 -131 -67zM894 740l-190 -80h-49l213 107h58l182 -107h-46z" />
    <glyph glyph-name="Gbreve" unicode="&#x11e;" horiz-adv-x="1849" 
d="M1606 36q62 0 87 21.5t34 85.5l26 189h-937l5 36h977l-32 -229q-11 -75 -47.5 -107t-111.5 -32h-1409q-77 0 -108.5 37t-20.5 113l56 400q11 76 52.5 113t118.5 37h1524l-5 -36h-1518q-64 0 -94 -27t-39 -93l-55 -388q-9 -66 13.5 -93t86.5 -27h1397zM824 829l2 34
q61 -74 190 -74t209 74l-2 -34q-83 -74 -210 -74t-189 74z" />
    <glyph glyph-name="gbreve" unicode="&#x11f;" horiz-adv-x="1656" 
d="M1387 53q62 0 91 25.5t38 87.5l40 288q9 62 -13 87.5t-85 25.5h-1190q-62 0 -91 -25.5t-38 -87.5l-40 -288q-9 -62 13 -87.5t85 -25.5h1190zM1373 17h-1187q-76 0 -107 36t-20 112l41 290q10 76 50.5 112t116.5 36h1203q76 0 106.5 -36t19.5 -112l-62 -442
q-13 -92 -63 -136t-142 -44h-1277l5 36h1273q76 0 115 33t49 111l10 71q-32 -67 -131 -67zM693 735l2 34q61 -74 190 -74t209 74l-2 -34q-83 -74 -210 -74t-189 74z" />
    <glyph glyph-name="Gdotaccent" unicode="&#x120;" horiz-adv-x="1849" 
d="M1606 36q62 0 87 21.5t34 85.5l26 189h-937l5 36h977l-32 -229q-11 -75 -47.5 -107t-111.5 -32h-1409q-77 0 -108.5 37t-20.5 113l56 400q11 76 52.5 113t118.5 37h1524l-5 -36h-1518q-64 0 -94 -27t-39 -93l-55 -388q-9 -66 13.5 -93t86.5 -27h1397zM1066 824l-6 -41
h-87l6 41h87z" />
    <glyph glyph-name="gdotaccent" unicode="&#x121;" horiz-adv-x="1656" 
d="M1387 53q62 0 91 25.5t38 87.5l40 288q9 62 -13 87.5t-85 25.5h-1190q-62 0 -91 -25.5t-38 -87.5l-40 -288q-9 -62 13 -87.5t85 -25.5h1190zM1373 17h-1187q-76 0 -107 36t-20 112l41 290q10 76 50.5 112t116.5 36h1203q76 0 106.5 -36t19.5 -112l-62 -442
q-13 -92 -63 -136t-142 -44h-1277l5 36h1273q76 0 115 33t49 111l10 71q-32 -67 -131 -67zM935 730l-6 -41h-87l6 41h87z" />
    <glyph glyph-name="uni0122" unicode="&#x122;" horiz-adv-x="1849" 
d="M1606 36q62 0 87 21.5t34 85.5l26 189h-937l5 36h977l-32 -229q-11 -75 -47.5 -107t-111.5 -32h-1409q-77 0 -108.5 37t-20.5 113l56 400q11 76 52.5 113t118.5 37h1524l-5 -36h-1518q-64 0 -94 -27t-39 -93l-55 -388q-9 -66 13.5 -93t86.5 -27h1397zM936 -91l-6 -39
q-10 -71 -68 -71h-20l3 22h21q27 0 32 35l2 14h-53l6 39h83z" />
    <glyph glyph-name="uni0123" unicode="&#x123;" horiz-adv-x="1656" 
d="M844 689l6 39q10 71 69 71h20l-4 -22h-21q-26 0 -31 -35l-2 -14h52l-6 -39h-83zM1387 53q62 0 91 25.5t38 87.5l40 288q9 62 -13 87.5t-85 25.5h-1190q-62 0 -91 -25.5t-38 -87.5l-40 -288q-9 -62 13 -87.5t85 -25.5h1190zM1373 17h-1187q-76 0 -107 36t-20 112l41 290
q10 76 50.5 112t116.5 36h1203q76 0 106.5 -36t19.5 -112l-62 -442q-13 -92 -63 -136t-142 -44h-1277l5 36h1273q76 0 115 33t49 111l10 71q-32 -67 -131 -67z" />
    <glyph glyph-name="Hcircumflex" unicode="&#x124;" horiz-adv-x="1909" 
d="M1726 0l46 332h-1627l-46 -332h-40l98 700h40l-47 -332h1627l47 332h40l-98 -700h-40zM1030 834l-190 -80h-49l213 107h58l182 -107h-46z" />
    <glyph glyph-name="hcircumflex" unicode="&#x125;" horiz-adv-x="1673" 
d="M1569 454q9 62 -13 87.5t-84 25.5h-1186q-62 0 -91 -25.5t-38 -87.5l-63 -454h-40l108 770h40l-34 -235q33 68 132 68h1183q76 0 107 -36t20 -112l-64 -455h-40zM909 740l-190 -80h-49l213 107h58l182 -107h-46z" />
    <glyph glyph-name="Hbar" unicode="&#x126;" horiz-adv-x="1909" 
d="M1726 0l46 332h-1627l-46 -332h-40l71 506h-46l5 36h46l22 158h40l-23 -158h1627l23 158h40l-22 -158h46l-5 -36h-46l-71 -506h-40zM150 368h1627l19 138h-1627z" />
    <glyph glyph-name="hbar" unicode="&#x127;" horiz-adv-x="1673" 
d="M1569 454q9 62 -13 87.5t-84 25.5h-1186q-62 0 -91 -25.5t-38 -87.5l-63 -454h-40l93 665h-96l4 28h96l11 77h40l-11 -77h264l-4 -28h-264l-19 -130q33 68 132 68h1183q76 0 107 -36t20 -112l-64 -455h-40z" />
    <glyph glyph-name="Itilde" unicode="&#x128;" horiz-adv-x="242" 
d="M59 0l98 700h40l-98 -700h-40zM-13 765l4 34q62 50 115 50q34 0 90.5 -29t88.5 -29q52 0 111 51l-4 -33q-62 -50 -116 -50q-34 0 -90.5 28.5t-88.5 28.5q-51 0 -110 -51z" />
    <glyph glyph-name="itilde" unicode="&#x129;" horiz-adv-x="349" 
d="M-40 671l4 34q62 50 115 50q34 0 90.5 -29t88.5 -29q52 0 111 51l-4 -33q-62 -50 -116 -50q-34 0 -90.5 28.5t-88.5 28.5q-51 0 -110 -51zM193 36h89l-5 -36h-94q-75 0 -102.5 32t-16.5 106l65 465h40l-65 -464q-9 -60 10 -81.5t79 -21.5z" />
    <glyph glyph-name="Imacron" unicode="&#x12a;" horiz-adv-x="242" 
d="M343 794h-307l4 25h307zM59 0l98 700h40l-98 -700h-40z" />
    <glyph glyph-name="imacron" unicode="&#x12b;" horiz-adv-x="349" 
d="M317 700h-308l4 25h307zM193 36h89l-5 -36h-94q-75 0 -102.5 32t-16.5 106l65 465h40l-65 -464q-9 -60 10 -81.5t79 -21.5z" />
    <glyph glyph-name="Ibreve" unicode="&#x12c;" horiz-adv-x="242" 
d="M59 0l98 700h40l-98 -700h-40zM-4 829l2 34q61 -74 190 -74t209 74l-2 -34q-83 -74 -210 -74t-189 74z" />
    <glyph glyph-name="ibreve" unicode="&#x12d;" horiz-adv-x="349" 
d="M-31 735l2 34q61 -74 190 -74t209 74l-2 -34q-83 -74 -210 -74t-189 74zM193 36h89l-5 -36h-94q-75 0 -102.5 32t-16.5 106l65 465h40l-65 -464q-9 -60 10 -81.5t79 -21.5z" />
    <glyph glyph-name="Iogonek" unicode="&#x12e;" horiz-adv-x="242" 
d="M96 -158h-158q-70 0 -70 36q0 44 46.5 60.5t150.5 16.5l7 45h-13l98 700h40l-98 -700h-8l-9 -64h-19q-167 0 -167 -45q0 -9 10.5 -12t36.5 -3h158z" />
    <glyph glyph-name="iogonek" unicode="&#x12f;" horiz-adv-x="349" 
d="M254 -158h-186q-70 0 -70 37q0 43 49.5 59.5t175.5 16.5l7 45h-47q-75 0 -102.5 32t-16.5 106l65 465h40l-65 -464q-9 -60 10 -81.5t79 -21.5h89l-5 -36h-28l-9 -64h-19q-103 0 -149 -10.5t-46 -34.5q0 -9 10.5 -12t36.5 -3h186zM210 730l-6 -41h-86l6 41h86z" />
    <glyph glyph-name="Idotaccent" unicode="&#x130;" horiz-adv-x="242" 
d="M59 0l98 700h40l-98 -700h-40zM238 824l-6 -41h-87l6 41h87z" />
    <glyph glyph-name="dotlessi" unicode="&#x131;" horiz-adv-x="349" 
d="M204 36h89l-5 -36h-94q-75 0 -102.5 32t-16.5 106l65 465h40l-65 -464q-9 -60 10 -81.5t79 -21.5z" />
    <glyph glyph-name="IJ" unicode="&#x132;" horiz-adv-x="2078" 
d="M59 0l98 700h40l-98 -700h-40zM277 139l29 203h40l-28 -199q-9 -64 9.5 -85.5t80.5 -21.5h1388q64 0 93.5 27t38.5 93l77 544h40l-77 -550q-22 -150 -172 -150h-1399q-75 0 -103 32.5t-17 106.5z" />
    <glyph glyph-name="Jcircumflex" unicode="&#x134;" 
d="M46 139l29 203h40l-28 -199q-9 -64 9.5 -85.5t80.5 -21.5h1388q64 0 93.5 27t38.5 93l77 544h40l-77 -550q-22 -150 -172 -150h-1399q-75 0 -103 32.5t-17 106.5zM1711 834l-190 -80h-49l213 107h58l182 -107h-46z" />
    <glyph glyph-name="jcircumflex" unicode="&#x135;" horiz-adv-x="249" 
d="M-104 -131h54q59 0 83.5 21t33.5 82l88 631h40l-89 -632q-11 -75 -46 -106.5t-110 -31.5h-59zM196 740l-190 -80h-49l213 107h58l182 -107h-46z" />
    <glyph glyph-name="uni0136" unicode="&#x136;" horiz-adv-x="1876" 
d="M1850 700l-29 -208q-9 -68 -39.5 -101.5t-92.5 -40.5q60 -7 81 -40.5t11 -101.5l-29 -208h-40l29 211q9 65 -11.5 93t-83.5 28h-1501l-46 -332h-40l98 700h40l-47 -332h1501q63 0 91.5 28t37.5 93l30 211h40zM924 -91l-6 -39q-10 -71 -68 -71h-20l3 22h21q27 0 32 35
l2 14h-53l6 39h83z" />
    <glyph glyph-name="uni0137" unicode="&#x137;" horiz-adv-x="1659" 
d="M1560 395l29 208h40l-25 -181q-8 -56 -30.5 -85.5t-70.5 -35.5q46 -6 60.5 -35.5t6.5 -85.5l-25 -180h-40l29 207q5 41 -10.5 58.5t-55.5 17.5h-1335l-39 -283h-40l108 770h40l-64 -451h1335q41 0 61.5 18t25.5 58zM837 -91l-6 -39q-10 -71 -68 -71h-20l3 22h21
q27 0 32 35l2 14h-53l6 39h83z" />
    <glyph glyph-name="kgreenlandic" unicode="&#x138;" horiz-adv-x="1659" 
d="M1560 395l29 208h40l-25 -181q-8 -56 -30.5 -85.5t-70.5 -35.5q46 -6 60.5 -35.5t6.5 -85.5l-25 -180h-40l29 207q5 41 -10.5 58.5t-55.5 17.5h-1335l-39 -283h-40l84 603h40l-40 -284h1335q41 0 61.5 18t25.5 58z" />
    <glyph glyph-name="Lacute" unicode="&#x139;" horiz-adv-x="1780" 
d="M1716 36l-5 -36h-1652l98 700h40l-93 -664h1612zM444 861l-234 -107h-55l204 107h85z" />
    <glyph glyph-name="lacute" unicode="&#x13a;" horiz-adv-x="347" 
d="M202 36h89l-5 -36h-94q-75 0 -102.5 32t-16.5 106l89 632h40l-89 -631q-9 -60 10 -81.5t79 -21.5zM406 934l-234 -107h-55l204 107h85z" />
    <glyph glyph-name="uni013B" unicode="&#x13b;" horiz-adv-x="1780" 
d="M1716 36l-5 -36h-1652l98 700h40l-93 -664h1612zM892 -91l-6 -39q-10 -71 -68 -71h-20l3 22h21q27 0 32 35l2 14h-53l6 39h83z" />
    <glyph glyph-name="uni013C" unicode="&#x13c;" horiz-adv-x="347" 
d="M202 36h89l-5 -36h-94q-75 0 -102.5 32t-16.5 106l89 632h40l-89 -631q-9 -60 10 -81.5t79 -21.5zM170 -91l-6 -39q-10 -71 -68 -71h-20l3 22h21q27 0 32 35l2 14h-53l6 39h83z" />
    <glyph glyph-name="Lcaron" unicode="&#x13d;" horiz-adv-x="1780" 
d="M1716 36l-5 -36h-1652l98 700h40l-93 -664h1612zM1600 700l-7 -47q-6 -45 -24.5 -65t-54.5 -20h-10l3 21h11q32 0 39 47l2 17h-43l7 47h77z" />
    <glyph glyph-name="lcaron" unicode="&#x13e;" horiz-adv-x="427" 
d="M202 36h89l-5 -36h-94q-75 0 -102.5 32t-16.5 106l89 632h40l-89 -631q-9 -60 10 -81.5t79 -21.5zM435 700l-7 -47q-6 -45 -24.5 -65t-54.5 -20h-10l3 21h11q32 0 39 47l2 17h-43l7 47h77z" />
    <glyph glyph-name="Ldot" unicode="&#x13f;" horiz-adv-x="1780" 
d="M1716 36l-5 -36h-1652l98 700h40l-93 -664h1612zM1031 376l-7 -51h-77l7 51h77z" />
    <glyph glyph-name="ldot" unicode="&#x140;" horiz-adv-x="496" 
d="M202 36h89l-5 -36h-94q-75 0 -102.5 32t-16.5 106l89 632h40l-89 -631q-9 -60 10 -81.5t79 -21.5zM408 375l-7 -51h-77l7 51h77z" />
    <glyph glyph-name="Lslash" unicode="&#x141;" horiz-adv-x="1780" 
d="M1716 36l-5 -36h-1652l34 241l-86 -32l5 36l86 32l59 423h40l-57 -407l528 198l-5 -36l-528 -199l-31 -220h1612z" />
    <glyph glyph-name="lslash" unicode="&#x142;" horiz-adv-x="347" 
d="M191 36h89l-5 -36h-94q-75 0 -102.5 32t-16.5 106l28 201l-69 -30l5 36l69 30l56 395h40l-53 -377l215 93l-5 -36l-215 -93l-31 -218q-9 -60 10 -81.5t79 -21.5z" />
    <glyph glyph-name="Nacute" unicode="&#x143;" horiz-adv-x="1873" 
d="M297 664q-64 0 -94 -27t-39 -93l-76 -544h-40l77 550q11 76 52.5 113t118.5 37h1393q77 0 108.5 -37t20.5 -113l-77 -550h-40l77 544q9 66 -13 93t-86 27h-1382zM1210 861l-234 -107h-55l204 107h85z" />
    <glyph glyph-name="nacute" unicode="&#x144;" horiz-adv-x="1661" 
d="M43 0l64 455q10 76 50.5 112t116.5 36h1197q76 0 107 -36t20 -112l-64 -455h-40l63 454q9 62 -13 87.5t-84 25.5h-1185q-62 0 -91 -25.5t-38 -87.5l-63 -454h-40zM1087 767l-234 -107h-55l204 107h85z" />
    <glyph glyph-name="uni0145" unicode="&#x145;" horiz-adv-x="1873" 
d="M297 664q-64 0 -94 -27t-39 -93l-76 -544h-40l77 550q11 76 52.5 113t118.5 37h1393q77 0 108.5 -37t20.5 -113l-77 -550h-40l77 544q9 66 -13 93t-86 27h-1382zM922 -91l-6 -39q-10 -71 -68 -71h-20l3 22h21q27 0 32 35l2 14h-53l6 39h83z" />
    <glyph glyph-name="uni0146" unicode="&#x146;" horiz-adv-x="1661" 
d="M43 0l64 455q10 76 50.5 112t116.5 36h1197q76 0 107 -36t20 -112l-64 -455h-40l63 454q9 62 -13 87.5t-84 25.5h-1185q-62 0 -91 -25.5t-38 -87.5l-63 -454h-40zM817 -91l-6 -39q-10 -71 -68 -71h-20l3 22h21q27 0 32 35l2 14h-53l6 39h83z" />
    <glyph glyph-name="Ncaron" unicode="&#x147;" horiz-adv-x="1873" 
d="M297 664q-64 0 -94 -27t-39 -93l-76 -544h-40l77 550q11 76 52.5 113t118.5 37h1393q77 0 108.5 -37t20.5 -113l-77 -550h-40l77 544q9 66 -13 93t-86 27h-1382zM835 861l167 -80l191 80h48l-212 -107h-58l-183 107h47z" />
    <glyph glyph-name="ncaron" unicode="&#x148;" horiz-adv-x="1661" 
d="M43 0l64 455q10 76 50.5 112t116.5 36h1197q76 0 107 -36t20 -112l-64 -455h-40l63 454q9 62 -13 87.5t-84 25.5h-1185q-62 0 -91 -25.5t-38 -87.5l-63 -454h-40zM716 767l167 -80l191 80h48l-212 -107h-58l-183 107h47z" />
    <glyph glyph-name="napostrophe" unicode="&#x149;" horiz-adv-x="1786" 
d="M168 0l64 455q10 76 50.5 112t116.5 36h1197q76 0 107 -36t20 -112l-64 -455h-40l63 454q9 62 -13 87.5t-84 25.5h-1185q-62 0 -91 -25.5t-38 -87.5l-63 -454h-40zM192 700l-7 -47q-6 -45 -24.5 -65t-54.5 -20h-10l3 21h11q32 0 39 47l2 17h-43l7 47h77z" />
    <glyph glyph-name="Eng" unicode="&#x14a;" horiz-adv-x="1873" 
d="M297 664q-64 0 -94 -27t-39 -93l-76 -544h-40l77 550q11 76 52.5 113t118.5 37h1393q77 0 108.5 -37t20.5 -113l-80 -567q-11 -76 -52.5 -113t-118.5 -37h-452l5 36h446q64 0 94 27t39 93l79 555q9 66 -13 93t-86 27h-1382z" />
    <glyph glyph-name="eng" unicode="&#x14b;" horiz-adv-x="1661" 
d="M1318 -131h54q61 0 85.5 21t32.5 82l67 482q9 62 -13 87.5t-84 25.5h-1185q-62 0 -91 -25.5t-38 -87.5l-63 -454h-40l64 455q10 76 50.5 112t116.5 36h1197q76 0 107 -36t20 -112l-68 -484q-11 -75 -46.5 -106.5t-111.5 -31.5h-59z" />
    <glyph glyph-name="Omacron" unicode="&#x14c;" horiz-adv-x="1857" 
d="M198 0q-77 0 -108.5 37t-20.5 113l56 400q11 76 52.5 113t118.5 37h1398q151 0 130 -150l-56 -400q-11 -76 -53 -113t-119 -37h-1398zM1728 156l55 388q9 66 -13 93t-86 27h-1387q-62 0 -93 -27.5t-40 -92.5l-55 -388q-9 -67 13.5 -93.5t86.5 -26.5h1387q64 0 93.5 27
t38.5 93zM1206 792h-399l4 28h399z" />
    <glyph glyph-name="omacron" unicode="&#x14d;" horiz-adv-x="1644" 
d="M1475 603q76 0 107 -36t20 -112l-43 -307q-11 -76 -51.5 -112t-116.5 -36h-1201q-76 0 -107 36t-20 112l44 307q10 76 50.5 112t116.5 36h1201zM1390 36q63 0 91.5 25t38.5 88l42 305q9 62 -13 87.5t-85 25.5h-1189q-62 0 -91 -25.5t-38 -87.5l-42 -305
q-10 -62 12.5 -87.5t84.5 -25.5h1189zM1087 698h-399l4 28h399z" />
    <glyph glyph-name="Obreve" unicode="&#x14e;" horiz-adv-x="1857" 
d="M198 0q-77 0 -108.5 37t-20.5 113l56 400q11 76 52.5 113t118.5 37h1398q151 0 130 -150l-56 -400q-11 -76 -53 -113t-119 -37h-1398zM1728 156l55 388q9 66 -13 93t-86 27h-1387q-62 0 -93 -27.5t-40 -92.5l-55 -388q-9 -67 13.5 -93.5t86.5 -26.5h1387q64 0 93.5 27
t38.5 93zM813 829l2 34q61 -74 190 -74t209 74l-2 -34q-83 -74 -210 -74t-189 74z" />
    <glyph glyph-name="obreve" unicode="&#x14f;" horiz-adv-x="1644" 
d="M1475 603q76 0 107 -36t20 -112l-43 -307q-11 -76 -51.5 -112t-116.5 -36h-1201q-76 0 -107 36t-20 112l44 307q10 76 50.5 112t116.5 36h1201zM1390 36q63 0 91.5 25t38.5 88l42 305q9 62 -13 87.5t-85 25.5h-1189q-62 0 -91 -25.5t-38 -87.5l-42 -305
q-10 -62 12.5 -87.5t84.5 -25.5h1189zM694 735l2 34q61 -74 190 -74t209 74l-2 -34q-83 -74 -210 -74t-189 74z" />
    <glyph glyph-name="Ohungarumlaut" unicode="&#x150;" horiz-adv-x="1857" 
d="M198 0q-77 0 -108.5 37t-20.5 113l56 400q11 76 52.5 113t118.5 37h1398q151 0 130 -150l-56 -400q-11 -76 -53 -113t-119 -37h-1398zM1728 156l55 388q9 66 -13 93t-86 27h-1387q-62 0 -93 -27.5t-40 -92.5l-55 -388q-9 -67 13.5 -93.5t86.5 -26.5h1387q64 0 93.5 27
t38.5 93zM1321 861l-234 -107h-55l204 107h85zM1049 861l-234 -107h-55l204 107h85z" />
    <glyph glyph-name="ohungarumlaut" unicode="&#x151;" horiz-adv-x="1644" 
d="M1475 603q76 0 107 -36t20 -112l-43 -307q-11 -76 -51.5 -112t-116.5 -36h-1201q-76 0 -107 36t-20 112l44 307q10 76 50.5 112t116.5 36h1201zM1390 36q63 0 91.5 25t38.5 88l42 305q9 62 -13 87.5t-85 25.5h-1189q-62 0 -91 -25.5t-38 -87.5l-42 -305
q-10 -62 12.5 -87.5t84.5 -25.5h1189zM1230 767l-234 -107h-55l204 107h85zM958 767l-234 -107h-55l204 107h85z" />
    <glyph glyph-name="OE" unicode="&#x152;" horiz-adv-x="2849" 
d="M198 0q-77 0 -108.5 37t-20.5 113l56 400q11 76 52.5 113t118.5 37h2563l-5 -36h-1323l-42 -296h1217l-5 -36h-1217l-41 -296h1323l-5 -36h-2563zM1403 36l88 628h-1194q-64 0 -94 -27t-39 -93l-55 -388q-9 -66 13.5 -93t86.5 -27h1194z" />
    <glyph glyph-name="oe" unicode="&#x153;" horiz-adv-x="2472" 
d="M1211 141l45 321q8 55 -12.5 80t-76.5 25h-892q-62 0 -91 -25.5t-38 -87.5l-42 -305q-10 -62 12.5 -87.5t84.5 -25.5h892q56 0 83 25t35 80zM2401 412l9 62q7 51 -11.5 72t-68.5 21h-916q-56 0 -83 -25t-35 -80l-20 -143h1019q51 0 75 21t31 72zM1271 283l-20 -142
q-8 -55 12.5 -80t76.5 -25h1019l-5 -36h-1001q-67 0 -97 23.5t-31 77.5q-15 -54 -51 -77.5t-104 -23.5h-880q-76 0 -107 36t-20 112l44 307q10 76 50.5 112t116.5 36h880q68 0 98 -23.5t30 -77.5q16 54 52 77.5t103 23.5h901q67 0 94 -32t17 -101l-7 -54q-10 -69 -46 -101
t-103 -32h-1022z" />
    <glyph glyph-name="Racute" unicode="&#x154;" horiz-adv-x="1874" 
d="M1829 554l-9 -66q-9 -66 -38.5 -99t-91.5 -40q59 -7 79.5 -40.5t11.5 -100.5l-29 -208h-40l29 211q9 65 -11.5 93t-83.5 28h-1501l-46 -332h-40l98 700h1547q76 0 106 -35.5t19 -110.5zM1651 368q63 0 91.5 26.5t37.5 90.5l9 65q8 61 -13.5 87.5t-79.5 26.5h-1504
l-42 -296h1501zM1211 861l-234 -107h-55l204 107h85z" />
    <glyph glyph-name="racute" unicode="&#x155;" horiz-adv-x="1464" 
d="M1474 603l-5 -36h-1194q-62 0 -91 -25.5t-38 -87.5l-63 -454h-40l64 455q10 76 50.5 112t116.5 36h1200zM1051 767l-234 -107h-55l204 107h85z" />
    <glyph glyph-name="uni0156" unicode="&#x156;" horiz-adv-x="1874" 
d="M1829 554l-9 -66q-9 -66 -38.5 -99t-91.5 -40q59 -7 79.5 -40.5t11.5 -100.5l-29 -208h-40l29 211q9 65 -11.5 93t-83.5 28h-1501l-46 -332h-40l98 700h1547q76 0 106 -35.5t19 -110.5zM1651 368q63 0 91.5 26.5t37.5 90.5l9 65q8 61 -13.5 87.5t-79.5 26.5h-1504
l-42 -296h1501zM945 -91l-6 -39q-10 -71 -68 -71h-20l3 22h21q27 0 32 35l2 14h-53l6 39h83z" />
    <glyph glyph-name="uni0157" unicode="&#x157;" horiz-adv-x="1464" 
d="M1474 603l-5 -36h-1194q-62 0 -91 -25.5t-38 -87.5l-63 -454h-40l64 455q10 76 50.5 112t116.5 36h1200zM91 -91l-6 -39q-10 -71 -68 -71h-20l3 22h21q27 0 32 35l2 14h-53l6 39h83z" />
    <glyph glyph-name="Rcaron" unicode="&#x158;" horiz-adv-x="1874" 
d="M1829 554l-9 -66q-9 -66 -38.5 -99t-91.5 -40q59 -7 79.5 -40.5t11.5 -100.5l-29 -208h-40l29 211q9 65 -11.5 93t-83.5 28h-1501l-46 -332h-40l98 700h1547q76 0 106 -35.5t19 -110.5zM1651 368q63 0 91.5 26.5t37.5 90.5l9 65q8 61 -13.5 87.5t-79.5 26.5h-1504
l-42 -296h1501zM836 861l167 -80l191 80h48l-212 -107h-58l-183 107h47z" />
    <glyph glyph-name="rcaron" unicode="&#x159;" horiz-adv-x="1464" 
d="M1474 603l-5 -36h-1194q-62 0 -91 -25.5t-38 -87.5l-63 -454h-40l64 455q10 76 50.5 112t116.5 36h1200zM676 767l167 -80l191 80h48l-212 -107h-58l-183 107h47z" />
    <glyph glyph-name="Sacute" unicode="&#x15a;" horiz-adv-x="1802" 
d="M223 332q-76 0 -106 35.5t-19 110.5l10 76q11 75 51 110.5t116 35.5h1493l-5 -36h-1490q-58 0 -87.5 -26.5t-37.5 -87.5l-10 -68q-8 -61 13.5 -87.5t79.5 -26.5h1371q76 0 106.5 -35.5t19.5 -110.5l-10 -76q-11 -75 -51 -110.5t-116 -35.5h-1532l5 36h1529
q58 0 87.5 26.5t38.5 87.5l9 68q8 61 -14 87.5t-80 26.5h-1371zM1175 861l-234 -107h-55l204 107h85z" />
    <glyph glyph-name="sacute" unicode="&#x15b;" horiz-adv-x="1611" 
d="M1561 567h-1331q-50 0 -74 -21t-31 -72l-9 -62q-7 -51 11 -72t68 -21h1231q67 0 94 -32t17 -101l-7 -53q-10 -69 -45.5 -101t-102.5 -32h-1363l5 36h1360q50 0 74 21t31 72l9 61q7 51 -11.5 72t-68.5 21h-1230q-68 0 -94.5 31.5t-16.5 101.5l7 54q10 70 45.5 101.5
t103.5 31.5h1333zM1066 767l-234 -107h-55l204 107h85z" />
    <glyph glyph-name="Scircumflex" unicode="&#x15c;" horiz-adv-x="1802" 
d="M223 332q-76 0 -106 35.5t-19 110.5l10 76q11 75 51 110.5t116 35.5h1493l-5 -36h-1490q-58 0 -87.5 -26.5t-37.5 -87.5l-10 -68q-8 -61 13.5 -87.5t79.5 -26.5h1371q76 0 106.5 -35.5t19.5 -110.5l-10 -76q-11 -75 -51 -110.5t-116 -35.5h-1532l5 36h1529
q58 0 87.5 26.5t38.5 87.5l9 68q8 61 -14 87.5t-80 26.5h-1371zM976 834l-190 -80h-49l213 107h58l182 -107h-46z" />
    <glyph glyph-name="scircumflex" unicode="&#x15d;" horiz-adv-x="1611" 
d="M1561 567h-1331q-50 0 -74 -21t-31 -72l-9 -62q-7 -51 11 -72t68 -21h1231q67 0 94 -32t17 -101l-7 -53q-10 -69 -45.5 -101t-102.5 -32h-1363l5 36h1360q50 0 74 21t31 72l9 61q7 51 -11.5 72t-68.5 21h-1230q-68 0 -94.5 31.5t-16.5 101.5l7 54q10 70 45.5 101.5
t103.5 31.5h1333zM868 740l-190 -80h-49l213 107h58l182 -107h-46z" />
    <glyph glyph-name="Scedilla" unicode="&#x15e;" horiz-adv-x="1802" 
d="M646 -124h287q48 0 67.5 8t19.5 31q0 13 -10.5 17t-38.5 4h-151l31 64h-832l5 36h1529q58 0 87.5 26.5t38.5 87.5l9 68q8 61 -14 87.5t-80 26.5h-1371q-76 0 -106 35.5t-19 110.5l10 76q11 75 51 110.5t116 35.5h1493l-5 -36h-1490q-58 0 -87.5 -26.5t-37.5 -87.5
l-10 -68q-8 -61 13.5 -87.5t79.5 -26.5h1371q76 0 106.5 -35.5t19.5 -110.5l-10 -76q-11 -75 -51 -110.5t-116 -35.5h-684l-22 -48h131q39 0 58 -7.5t19 -30.5q0 -39 -32 -55.5t-96 -16.5h-284z" />
    <glyph glyph-name="scedilla" unicode="&#x15f;" horiz-adv-x="1611" 
d="M540 -124h287q48 0 67.5 8t19.5 31q0 13 -10.5 17t-38.5 4h-151l31 64h-726l5 36h1360q50 0 74 21t31 72l9 61q7 51 -11.5 72t-68.5 21h-1230q-68 0 -94.5 31.5t-16.5 101.5l7 54q10 70 45.5 101.5t103.5 31.5h1333l-5 -36h-1331q-50 0 -74 -21t-31 -72l-9 -62
q-7 -51 11 -72t68 -21h1231q67 0 94 -32t17 -101l-7 -53q-10 -69 -45.5 -101t-102.5 -32h-621l-22 -48h131q39 0 58 -7.5t19 -30.5q0 -39 -32 -55.5t-96 -16.5h-284z" />
    <glyph glyph-name="Scaron" unicode="&#x160;" horiz-adv-x="1802" 
d="M223 332q-76 0 -106 35.5t-19 110.5l10 76q11 75 51 110.5t116 35.5h1493l-5 -36h-1490q-58 0 -87.5 -26.5t-37.5 -87.5l-10 -68q-8 -61 13.5 -87.5t79.5 -26.5h1371q76 0 106.5 -35.5t19.5 -110.5l-10 -76q-11 -75 -51 -110.5t-116 -35.5h-1532l5 36h1529
q58 0 87.5 26.5t38.5 87.5l9 68q8 61 -14 87.5t-80 26.5h-1371zM799 861l167 -80l191 80h48l-212 -107h-58l-183 107h47z" />
    <glyph glyph-name="scaron" unicode="&#x161;" horiz-adv-x="1611" 
d="M1561 567h-1331q-50 0 -74 -21t-31 -72l-9 -62q-7 -51 11 -72t68 -21h1231q67 0 94 -32t17 -101l-7 -53q-10 -69 -45.5 -101t-102.5 -32h-1363l5 36h1360q50 0 74 21t31 72l9 61q7 51 -11.5 72t-68.5 21h-1230q-68 0 -94.5 31.5t-16.5 101.5l7 54q10 70 45.5 101.5
t103.5 31.5h1333zM691 767l167 -80l191 80h48l-212 -107h-58l-183 107h47z" />
    <glyph glyph-name="uni0162" unicode="&#x162;" horiz-adv-x="1752" 
d="M622 -124h287q48 0 67.5 8t19.5 31q0 13 -10.5 17t-38.5 4h-151l31 64h-13l93 664h-829l5 36h1698l-5 -36h-829l-93 -664h-11l-22 -48h131q39 0 58 -7.5t19 -30.5q0 -39 -32 -55.5t-96 -16.5h-284z" />
    <glyph glyph-name="uni0163" unicode="&#x163;" horiz-adv-x="1505" 
d="M506 -124h287q48 0 67.5 8t19.5 31q0 13 -10.5 17t-38.5 4h-151l31 64h-510q-76 0 -107 36t-20 112l88 622h40l-24 -167h1321l-5 -36h-1321l-58 -418q-10 -62 12.5 -87.5t84.5 -25.5h1208l-5 -36h-688l-22 -48h131q39 0 58 -7.5t19 -30.5q0 -39 -32 -55.5t-96 -16.5h-284
z" />
    <glyph glyph-name="Tcaron" unicode="&#x164;" horiz-adv-x="1752" 
d="M1781 700l-5 -36h-829l-93 -664h-40l93 664h-829l5 36h1698zM774 861l167 -80l191 80h48l-212 -107h-58l-183 107h47z" />
    <glyph glyph-name="tcaron" unicode="&#x165;" horiz-adv-x="1719" 
d="M201 0q-76 0 -107 36t-20 112l88 622h40l-24 -167h1321l-5 -36h-1321l-58 -418q-10 -62 12.5 -87.5t84.5 -25.5h1208l-5 -36h-1214zM1727 700l-7 -47q-6 -45 -24.5 -65t-54.5 -20h-10l3 21h11q32 0 39 47l2 17h-43l7 47h77z" />
    <glyph glyph-name="Tbar" unicode="&#x166;" horiz-adv-x="1752" 
d="M1781 700l-5 -36h-829l-28 -198h180l-5 -36h-180l-60 -430h-40l60 430h-179l5 36h179l28 198h-829l5 36h1698z" />
    <glyph glyph-name="tbar" unicode="&#x167;" horiz-adv-x="1505" 
d="M437 403h-298l-35 -254q-10 -62 12.5 -87.5t84.5 -25.5h1208l-5 -36h-1214q-76 0 -107 36t-20 112l36 255h-85l5 36h85l47 331h40l-24 -167h1321l-5 -36h-1321l-18 -128h298z" />
    <glyph glyph-name="Utilde" unicode="&#x168;" horiz-adv-x="1873" 
d="M209 0q-77 0 -108.5 37t-20.5 113l77 550h40l-77 -544q-9 -66 13.5 -93t86.5 -27h1382q64 0 93.5 27t38.5 93l76 544h40l-77 -550q-11 -76 -52.5 -113t-118.5 -37h-1393zM813 765l4 34q62 50 115 50q34 0 90.5 -29t88.5 -29q52 0 111 51l-4 -33q-62 -50 -116 -50
q-34 0 -90.5 28.5t-88.5 28.5q-51 0 -110 -51z" />
    <glyph glyph-name="utilde" unicode="&#x169;" horiz-adv-x="1661" 
d="M1397 36q62 0 91 25.5t38 87.5l63 454h40l-63 -455q-11 -76 -51.5 -112t-116.5 -36h-1197q-76 0 -107 36t-20 112l64 455h40l-63 -454q-10 -62 12.5 -87.5t84.5 -25.5h1185zM694 671l4 34q62 50 115 50q34 0 90.5 -29t88.5 -29q52 0 111 51l-4 -33q-62 -50 -116 -50
q-34 0 -90.5 28.5t-88.5 28.5q-51 0 -110 -51z" />
    <glyph glyph-name="Umacron" unicode="&#x16a;" horiz-adv-x="1873" 
d="M209 0q-77 0 -108.5 37t-20.5 113l77 550h40l-77 -544q-9 -66 13.5 -93t86.5 -27h1382q64 0 93.5 27t38.5 93l76 544h40l-77 -550q-11 -76 -52.5 -113t-118.5 -37h-1393zM1215 792h-399l4 28h399z" />
    <glyph glyph-name="umacron" unicode="&#x16b;" horiz-adv-x="1661" 
d="M1397 36q62 0 91 25.5t38 87.5l63 454h40l-63 -455q-11 -76 -51.5 -112t-116.5 -36h-1197q-76 0 -107 36t-20 112l64 455h40l-63 -454q-10 -62 12.5 -87.5t84.5 -25.5h1185zM1096 698h-399l4 28h399z" />
    <glyph glyph-name="Ubreve" unicode="&#x16c;" horiz-adv-x="1873" 
d="M209 0q-77 0 -108.5 37t-20.5 113l77 550h40l-77 -544q-9 -66 13.5 -93t86.5 -27h1382q64 0 93.5 27t38.5 93l76 544h40l-77 -550q-11 -76 -52.5 -113t-118.5 -37h-1393zM822 829l2 34q61 -74 190 -74t209 74l-2 -34q-83 -74 -210 -74t-189 74z" />
    <glyph glyph-name="ubreve" unicode="&#x16d;" horiz-adv-x="1661" 
d="M1397 36q62 0 91 25.5t38 87.5l63 454h40l-63 -455q-11 -76 -51.5 -112t-116.5 -36h-1197q-76 0 -107 36t-20 112l64 455h40l-63 -454q-10 -62 12.5 -87.5t84.5 -25.5h1185zM703 735l2 34q61 -74 190 -74t209 74l-2 -34q-83 -74 -210 -74t-189 74z" />
    <glyph glyph-name="Uring" unicode="&#x16e;" horiz-adv-x="1873" 
d="M209 0q-77 0 -108.5 37t-20.5 113l77 550h40l-77 -544q-9 -66 13.5 -93t86.5 -27h1382q64 0 93.5 27t38.5 93l76 544h40l-77 -550q-11 -76 -52.5 -113t-118.5 -37h-1393zM1064 754h-107q-61 0 -61 44q0 29 19.5 46t56.5 17h107q61 0 61 -44q0 -29 -19.5 -46t-56.5 -17z
M960 777h108q47 0 47 36q0 26 -39 26h-108q-47 0 -47 -36q0 -26 39 -26z" />
    <glyph glyph-name="uring" unicode="&#x16f;" horiz-adv-x="1661" 
d="M1397 36q62 0 91 25.5t38 87.5l63 454h40l-63 -455q-11 -76 -51.5 -112t-116.5 -36h-1197q-76 0 -107 36t-20 112l64 455h40l-63 -454q-10 -62 12.5 -87.5t84.5 -25.5h1185zM945 660h-107q-61 0 -61 44q0 29 19.5 46t56.5 17h107q61 0 61 -44q0 -29 -19.5 -46t-56.5 -17z
M841 683h108q47 0 47 36q0 26 -39 26h-108q-47 0 -47 -36q0 -26 39 -26z" />
    <glyph glyph-name="Uhungarumlaut" unicode="&#x170;" horiz-adv-x="1873" 
d="M209 0q-77 0 -108.5 37t-20.5 113l77 550h40l-77 -544q-9 -66 13.5 -93t86.5 -27h1382q64 0 93.5 27t38.5 93l76 544h40l-77 -550q-11 -76 -52.5 -113t-118.5 -37h-1393zM1357 861l-234 -107h-55l204 107h85zM1085 861l-234 -107h-55l204 107h85z" />
    <glyph glyph-name="uhungarumlaut" unicode="&#x171;" horiz-adv-x="1661" 
d="M1397 36q62 0 91 25.5t38 87.5l63 454h40l-63 -455q-11 -76 -51.5 -112t-116.5 -36h-1197q-76 0 -107 36t-20 112l64 455h40l-63 -454q-10 -62 12.5 -87.5t84.5 -25.5h1185zM1239 767l-234 -107h-55l204 107h85zM967 767l-234 -107h-55l204 107h85z" />
    <glyph glyph-name="Uogonek" unicode="&#x172;" horiz-adv-x="1873" 
d="M1746 -158h-324q-70 0 -70 37q0 32 25 47t95.5 22t217.5 7h15l11 78q-42 -33 -114 -33h-1393q-77 0 -108.5 37t-20.5 113l77 550h40l-77 -544q-9 -66 13.5 -93t86.5 -27h1382q64 0 93.5 27t38.5 93l76 544h40l-77 -550q-9 -61 -35 -94l-17 -120h-19q-135 0 -205.5 -5
t-93.5 -14t-23 -26q0 -15 48 -15h323z" />
    <glyph glyph-name="uogonek" unicode="&#x173;" horiz-adv-x="1661" 
d="M1539 -158h-324q-70 0 -70 37q0 32 25 47t95.5 22t217.5 7h15l11 76q-40 -31 -111 -31h-1197q-76 0 -107 36t-20 112l64 455h40l-63 -454q-10 -62 12.5 -87.5t84.5 -25.5h1185q62 0 91 25.5t38 87.5l63 454h40l-63 -455q-9 -61 -35 -94l-17 -118h-19q-135 0 -205.5 -5
t-93.5 -14t-23 -26q0 -15 48 -15h323z" />
    <glyph glyph-name="Wcircumflex" unicode="&#x174;" horiz-adv-x="2298" 
d="M2027 0h-759q-72 0 -103.5 28t-30.5 90q-17 -62 -56 -90t-110 -28h-759q-77 0 -108.5 37t-20.5 113l77 550h40l-77 -544q-9 -66 13.5 -93t86.5 -27h762q67 0 97.5 28t40.5 97l76 539h40l-76 -539q-10 -69 13.5 -97t90.5 -28h762q64 0 93.5 27t38.5 93l77 544h40l-77 -550
q-11 -76 -52.5 -113t-118.5 -37zM1235 834l-190 -80h-49l213 107h58l182 -107h-46z" />
    <glyph glyph-name="wcircumflex" unicode="&#x175;" horiz-adv-x="2051" 
d="M1008 101q-15 -54 -51 -77.5t-104 -23.5h-652q-76 0 -107 36t-20 112l64 455h40l-63 -454q-10 -62 12.5 -87.5t84.5 -25.5h664q56 0 83 25t35 80l65 462h40l-65 -462q-8 -55 12.5 -80t76.5 -25h664q63 0 91.5 25.5t37.5 87.5l63 454h40l-63 -455q-11 -76 -51.5 -112
t-116.5 -36h-652q-67 0 -97 23.5t-31 77.5zM1099 740l-190 -80h-49l213 107h58l182 -107h-46z" />
    <glyph glyph-name="Ycircumflex" unicode="&#x176;" horiz-adv-x="1826" 
d="M1795 700h40l-31 -218q-21 -150 -172 -150h-684l-46 -332h-40l46 332h-685q-77 0 -108.5 37t-20.5 113l31 218h40l-30 -212q-9 -66 13 -93t86 -27h1398q64 0 93.5 27t39.5 93zM999 834l-190 -80h-49l213 107h58l182 -107h-46z" />
    <glyph glyph-name="ycircumflex" unicode="&#x177;" horiz-adv-x="1673" 
d="M1335 -167h-1272l5 36h1268q76 0 115 33t49 111l10 71q-32 -67 -130 -67h-1183q-76 0 -107 36t-20 112l61 438h40l-61 -437q-9 -62 13 -87.5t85 -25.5h1185q63 0 91.5 25.5t37.5 87.5l61 437h40l-83 -590q-13 -92 -63 -136t-142 -44zM903 740l-190 -80h-49l213 107h58
l182 -107h-46z" />
    <glyph glyph-name="Ydieresis" unicode="&#x178;" horiz-adv-x="1826" 
d="M1795 700h40l-31 -218q-21 -150 -172 -150h-684l-46 -332h-40l46 332h-685q-77 0 -108.5 37t-20.5 113l31 218h40l-30 -212q-9 -66 13 -93t86 -27h1398q64 0 93.5 27t39.5 93zM884 824l-6 -41h-87l6 41h87zM1196 824l-6 -41h-87l6 41h87z" />
    <glyph glyph-name="Zacute" unicode="&#x179;" horiz-adv-x="1812" 
d="M1568 368q83 0 121.5 33t50.5 118l21 145h-1624l5 36h1664l-27 -187q-26 -181 -206 -181h-1319q-83 0 -121.5 -33t-50.5 -118l-20 -145h1651l-5 -36h-1691l26 187q24 181 206 181h1319zM1190 861l-234 -107h-55l204 107h85z" />
    <glyph glyph-name="zacute" unicode="&#x17a;" horiz-adv-x="1621" 
d="M228 283q-69 0 -104.5 -31t-44.5 -100l-16 -116h1460l-5 -36h-1500l20 148q24 171 195 171h1158q69 0 104.5 31t45.5 100l16 117h-1438l5 36h1478l-20 -149q-24 -171 -196 -171h-1158zM1093 767l-234 -107h-55l204 107h85z" />
    <glyph glyph-name="Zdotaccent" unicode="&#x17b;" horiz-adv-x="1812" 
d="M1568 368q83 0 121.5 33t50.5 118l21 145h-1624l5 36h1664l-27 -187q-26 -181 -206 -181h-1319q-83 0 -121.5 -33t-50.5 -118l-20 -145h1651l-5 -36h-1691l26 187q24 181 206 181h1319zM1032 824l-6 -41h-87l6 41h87z" />
    <glyph glyph-name="zdotaccent" unicode="&#x17c;" horiz-adv-x="1621" 
d="M228 283q-69 0 -104.5 -31t-44.5 -100l-16 -116h1460l-5 -36h-1500l20 148q24 171 195 171h1158q69 0 104.5 31t45.5 100l16 117h-1438l5 36h1478l-20 -149q-24 -171 -196 -171h-1158zM936 730l-6 -41h-87l6 41h87z" />
    <glyph glyph-name="Zcaron" unicode="&#x17d;" horiz-adv-x="1812" 
d="M1568 368q83 0 121.5 33t50.5 118l21 145h-1624l5 36h1664l-27 -187q-26 -181 -206 -181h-1319q-83 0 -121.5 -33t-50.5 -118l-20 -145h1651l-5 -36h-1691l26 187q24 181 206 181h1319zM814 861l167 -80l191 80h48l-212 -107h-58l-183 107h47z" />
    <glyph glyph-name="zcaron" unicode="&#x17e;" horiz-adv-x="1621" 
d="M228 283q-69 0 -104.5 -31t-44.5 -100l-16 -116h1460l-5 -36h-1500l20 148q24 171 195 171h1158q69 0 104.5 31t45.5 100l16 117h-1438l5 36h1478l-20 -149q-24 -171 -196 -171h-1158zM718 767l167 -80l191 80h48l-212 -107h-58l-183 107h47z" />
    <glyph glyph-name="florin" unicode="&#x192;" 
d="M1715 368l-5 -36h-1432l-26 -188q-11 -75 -49.5 -109.5t-114.5 -34.5h-75l5 36h70q62 0 88.5 23.5t36.5 87.5l25 185h-179l5 36h179l27 183q10 76 51 112.5t118 36.5h1424l-5 -36h-1419q-63 0 -92 -25.5t-37 -87.5l-27 -183h1432z" />
    <glyph glyph-name="AEacute" unicode="&#x1fc;" horiz-adv-x="2853" 
d="M1392 0l46 332h-1304l-46 -332h-40l77 550q11 76 52.5 113t118.5 37h2556l-5 -36h-1324l-42 -296h1218l-5 -36h-1218l-41 -296h1324l-5 -36h-1362zM297 664q-64 0 -94 -27t-39 -93l-25 -176h1304l42 296h-1188zM1727 861l-234 -107h-55l204 107h85z" />
    <glyph glyph-name="aeacute" unicode="&#x1fd;" horiz-adv-x="2458" 
d="M2386 412l9 62q7 51 -11 72t-69 21h-916q-56 0 -83 -25t-35 -80l-20 -143h1019q51 0 75 21t31 72zM91 190l-9 -61q-7 -51 11.5 -72t68.5 -21h917q55 0 82 25t35 80l20 142h-1020q-50 0 -74 -21t-31 -72zM1055 0h-900q-68 0 -95 32t-17 101l7 53q10 70 45.5 101.5
t103.5 31.5h1022l20 143q8 55 -12.5 80t-75.5 25h-1019l5 36h1000q68 0 98 -23.5t30 -77.5q16 54 52 77.5t103 23.5h901q67 0 94 -32t17 -101l-7 -54q-10 -69 -46 -101t-103 -32h-1022l-20 -142q-8 -55 12.5 -80t76.5 -25h1019l-5 -36h-1001q-67 0 -97 23.5t-31 77.5
q-15 -54 -51 -77.5t-104 -23.5zM1500 767l-234 -107h-55l204 107h85z" />
    <glyph glyph-name="Oslashacute" unicode="&#x1fe;" horiz-adv-x="1857" 
d="M198 0q-77 0 -108.5 37t-20.5 113l56 400q11 76 52.5 113t118.5 37h1398q151 0 130 -150l-56 -400q-11 -76 -53 -113t-119 -37h-1398zM253 36h1343q64 0 93.5 27t38.5 93l55 388q8 55 -6 82.5t-53 34.5zM168 39l1471 625h-1342q-62 0 -93 -27.5t-40 -92.5l-55 -388
q-8 -56 5.5 -83t53.5 -34zM1213 861l-234 -107h-55l204 107h85z" />
    <glyph glyph-name="oslashacute" unicode="&#x1ff;" horiz-adv-x="1644" 
d="M1475 603q76 0 107 -36t20 -112l-43 -307q-11 -76 -51.5 -112t-116.5 -36h-1201q-76 0 -107 36t-20 112l44 307q10 76 50.5 112t116.5 36h1201zM1390 36q63 0 91.5 25t38.5 88l42 305q8 52 -6.5 78t-55.5 32l-1257 -528h1147zM159 39l1254 528h-1138q-62 0 -91 -25.5
t-38 -87.5l-42 -305q-8 -50 5 -76.5t50 -33.5zM1094 767l-234 -107h-55l204 107h85z" />
    <glyph glyph-name="uni0218" unicode="&#x218;" horiz-adv-x="1802" 
d="M223 332q-76 0 -106 35.5t-19 110.5l10 76q11 75 51 110.5t116 35.5h1493l-5 -36h-1490q-58 0 -87.5 -26.5t-37.5 -87.5l-10 -68q-8 -61 13.5 -87.5t79.5 -26.5h1371q76 0 106.5 -35.5t19.5 -110.5l-10 -76q-11 -75 -51 -110.5t-116 -35.5h-1532l5 36h1529
q58 0 87.5 26.5t38.5 87.5l9 68q8 61 -14 87.5t-80 26.5h-1371zM887 -91l-6 -39q-10 -71 -68 -71h-20l3 22h21q27 0 32 35l2 14h-53l6 39h83z" />
    <glyph glyph-name="uni0219" unicode="&#x219;" horiz-adv-x="1611" 
d="M1561 567h-1331q-50 0 -74 -21t-31 -72l-9 -62q-7 -51 11 -72t68 -21h1231q67 0 94 -32t17 -101l-7 -53q-10 -69 -45.5 -101t-102.5 -32h-1363l5 36h1360q50 0 74 21t31 72l9 61q7 51 -11.5 72t-68.5 21h-1230q-68 0 -94.5 31.5t-16.5 101.5l7 54q10 70 45.5 101.5
t103.5 31.5h1333zM777 -91l-6 -39q-10 -71 -68 -71h-20l3 22h21q27 0 32 35l2 14h-53l6 39h83z" />
    <glyph glyph-name="uni021A" unicode="&#x21a;" horiz-adv-x="1752" 
d="M1781 700l-5 -36h-829l-93 -664h-40l93 664h-829l5 36h1698zM862 -91l-6 -39q-10 -71 -68 -71h-20l3 22h21q27 0 32 35l2 14h-53l6 39h83z" />
    <glyph glyph-name="uni021B" unicode="&#x21b;" horiz-adv-x="1505" 
d="M201 0q-76 0 -107 36t-20 112l88 622h40l-24 -167h1321l-5 -36h-1321l-58 -418q-10 -62 12.5 -87.5t84.5 -25.5h1208l-5 -36h-1214zM750 -91l-6 -39q-10 -71 -68 -71h-20l3 22h21q27 0 32 35l2 14h-53l6 39h83z" />
    <glyph glyph-name="uni0237" unicode="&#x237;" horiz-adv-x="249" 
d="M-104 -131h54q59 0 83.5 21t33.5 82l88 631h40l-89 -632q-11 -75 -46 -106.5t-110 -31.5h-59z" />
    <glyph glyph-name="circumflex" unicode="&#x2c6;" horiz-adv-x="469" 
d="M297 740l-190 -80h-49l213 107h58l182 -107h-46z" />
    <glyph glyph-name="caron" unicode="&#x2c7;" horiz-adv-x="469" 
d="M120 767l167 -80l191 80h48l-212 -107h-58l-183 107h47z" />
    <glyph glyph-name="breve" unicode="&#x2d8;" horiz-adv-x="469" 
d="M96 735l2 34q61 -74 190 -74t209 74l-2 -34q-83 -74 -210 -74t-189 74z" />
    <glyph glyph-name="dotaccent" unicode="&#x2d9;" horiz-adv-x="469" 
d="M338 730l-6 -41h-87l6 41h87z" />
    <glyph glyph-name="ring" unicode="&#x2da;" horiz-adv-x="469" 
d="M338 660h-107q-61 0 -61 44q0 29 19.5 46t56.5 17h107q61 0 61 -44q0 -29 -19.5 -46t-56.5 -17zM234 683h108q47 0 47 36q0 26 -39 26h-108q-47 0 -47 -36q0 -26 39 -26z" />
    <glyph glyph-name="ogonek" unicode="&#x2db;" horiz-adv-x="479" 
d="M349 -64h-19q-135 0 -205.5 -5t-93.5 -14t-23 -26q0 -15 48 -15h323l-5 -34h-324q-70 0 -70 37q0 32 25 47t95.5 22t217.5 7h15l7 45h19z" />
    <glyph glyph-name="tilde" unicode="&#x2dc;" horiz-adv-x="469" 
d="M87 671l4 34q62 50 115 50q34 0 90.5 -29t88.5 -29q52 0 111 51l-4 -33q-62 -50 -116 -50q-34 0 -90.5 28.5t-88.5 28.5q-51 0 -110 -51z" />
    <glyph glyph-name="hungarumlaut" unicode="&#x2dd;" horiz-adv-x="469" 
d="M593 767l-234 -107h-55l204 107h85zM321 767l-234 -107h-55l204 107h85z" />
    <glyph glyph-name="pi" unicode="&#x3c0;" 
d="M131 0l84 603h1490l-84 -603h-40l79 567h-1410l-79 -567h-40z" />
    <glyph glyph-name="uni1E02" unicode="&#x1e02;" horiz-adv-x="1867" 
d="M1781 212l-9 -66q-10 -75 -50 -110.5t-116 -35.5h-1547l98 700h1547q76 0 106 -35.5t19 -110.5l-9 -66q-9 -66 -38.5 -98.5t-91.5 -39.5q60 -7 80.5 -39.5t10.5 -98.5zM1651 368q63 0 91.5 26.5t37.5 90.5l9 65q8 61 -13.5 87.5t-79.5 26.5h-1504l-42 -296h1501zM145 332
l-41 -296h1504q58 0 87 26.5t38 87.5l9 65q9 64 -12 90.5t-84 26.5h-1501zM1050 824l-6 -41h-87l6 41h87z" />
    <glyph glyph-name="uni1E03" unicode="&#x1e03;" horiz-adv-x="1656" 
d="M74 148l88 622h40l-34 -235q33 68 132 68h1188q76 0 106.5 -36t19.5 -112l-43 -307q-11 -76 -51 -112t-116 -36h-1203q-76 0 -107 36t-20 112zM157 454l-42 -305q-10 -62 12.5 -87.5t84.5 -25.5h1190q63 0 91.5 25t38.5 88l42 305q9 62 -13 87.5t-85 25.5h-1190
q-62 0 -91 -25.5t-38 -87.5zM953 730l-6 -41h-87l6 41h87z" />
    <glyph glyph-name="uni1E0A" unicode="&#x1e0a;" horiz-adv-x="1868" 
d="M1642 700q102 0 147.5 -52.5t31.5 -155.5l-41 -284q-13 -102 -73.5 -155t-162.5 -53h-1485l98 700h1485zM1542 36q88 0 137.5 42.5t61.5 133.5l39 276q13 91 -24.5 133.5t-125.5 42.5h-1438l-88 -628h1438zM1039 824l-6 -41h-87l6 41h87z" />
    <glyph glyph-name="uni1E0B" unicode="&#x1e0b;" horiz-adv-x="1656" 
d="M1648 770l-88 -622q-11 -76 -51 -112t-116 -36h-1203q-76 0 -107 36t-20 112l44 307q10 76 50.5 112t116.5 36h1188q99 0 112 -68l34 235h40zM1521 149l42 305q9 62 -13 87.5t-85 25.5h-1190q-62 0 -91 -25.5t-38 -87.5l-42 -305q-10 -62 12.5 -87.5t84.5 -25.5h1190
q63 0 91.5 25t38.5 88zM931 730l-6 -41h-87l6 41h87z" />
    <glyph glyph-name="uni1E1E" unicode="&#x1e1e;" horiz-adv-x="1790" 
d="M59 0l98 700h1662l-5 -36h-1622l-42 -296h1516l-5 -36h-1516l-46 -332h-40zM1037 824l-6 -41h-87l6 41h87z" />
    <glyph glyph-name="uni1E1F" unicode="&#x1e1f;" horiz-adv-x="1557" 
d="M296 567q-70 0 -106.5 -31t-46.5 -103l-16 -114h1335l-5 -36h-1335l-63 -450h-40l84 600q12 87 59.5 128.5t135.5 41.5h1270l-5 -36h-1267zM929 730l-6 -41h-87l6 41h87z" />
    <glyph glyph-name="uni1E40" unicode="&#x1e40;" horiz-adv-x="2298" 
d="M1355 700h759q77 0 108.5 -37t20.5 -113l-77 -550h-40l76 544q9 66 -13 93t-86 27h-762q-67 0 -98 -28t-41 -97l-75 -539h-40l75 539q10 69 -13 97t-90 28h-762q-64 0 -94 -27t-39 -93l-76 -544h-40l77 550q11 76 52.5 113t118.5 37h759q72 0 103 -28t30 -90q17 62 56 90
t111 28zM1265 824l-6 -41h-87l6 41h87z" />
    <glyph glyph-name="uni1E41" unicode="&#x1e41;" horiz-adv-x="2051" 
d="M1054 502q16 54 52 77.5t103 23.5h652q76 0 107 -36t20 -112l-64 -455h-40l63 454q9 62 -12.5 87.5t-84.5 25.5h-664q-56 0 -83 -25t-35 -80l-64 -462h-40l64 462q8 55 -12.5 80t-76.5 25h-664q-62 0 -91 -25.5t-38 -87.5l-63 -454h-40l64 455q10 76 50.5 112t116.5 36
h652q68 0 98 -23.5t30 -77.5zM1129 730l-6 -41h-87l6 41h87z" />
    <glyph glyph-name="uni1E56" unicode="&#x1e56;" horiz-adv-x="1832" 
d="M59 0l98 700h1542q75 0 105.5 -35.5t19.5 -110.5l-10 -76q-11 -75 -51.5 -110.5t-115.5 -35.5h-1502l-46 -332h-40zM1784 550q8 61 -13.5 87.5t-79.5 26.5h-1499l-42 -296h1499q58 0 87.5 26.5t37.5 87.5zM1059 824l-6 -41h-87l6 41h87z" />
    <glyph glyph-name="uni1E57" unicode="&#x1e57;" horiz-adv-x="1656" 
d="M19 -167l88 622q10 76 50.5 112t116.5 36h1203q76 0 106.5 -36t19.5 -112l-43 -307q-11 -76 -51 -112t-116 -36h-1188q-100 0 -113 68l-33 -235h-40zM146 454l-42 -305q-10 -62 12.5 -87.5t84.5 -25.5h1190q63 0 91.5 25t38.5 88l42 305q9 62 -13 87.5t-85 25.5h-1190
q-62 0 -91 -25.5t-38 -87.5zM931 730l-6 -41h-87l6 41h87z" />
    <glyph glyph-name="uni1E60" unicode="&#x1e60;" horiz-adv-x="1802" 
d="M223 332q-76 0 -106 35.5t-19 110.5l10 76q11 75 51 110.5t116 35.5h1493l-5 -36h-1490q-58 0 -87.5 -26.5t-37.5 -87.5l-10 -68q-8 -61 13.5 -87.5t79.5 -26.5h1371q76 0 106.5 -35.5t19.5 -110.5l-10 -76q-11 -75 -51 -110.5t-116 -35.5h-1532l5 36h1529
q58 0 87.5 26.5t38.5 87.5l9 68q8 61 -14 87.5t-80 26.5h-1371zM1017 824l-6 -41h-87l6 41h87z" />
    <glyph glyph-name="uni1E61" unicode="&#x1e61;" horiz-adv-x="1611" 
d="M1561 567h-1331q-50 0 -74 -21t-31 -72l-9 -62q-7 -51 11 -72t68 -21h1231q67 0 94 -32t17 -101l-7 -53q-10 -69 -45.5 -101t-102.5 -32h-1363l5 36h1360q50 0 74 21t31 72l9 61q7 51 -11.5 72t-68.5 21h-1230q-68 0 -94.5 31.5t-16.5 101.5l7 54q10 70 45.5 101.5
t103.5 31.5h1333zM909 730l-6 -41h-87l6 41h87z" />
    <glyph glyph-name="uni1E6A" unicode="&#x1e6a;" horiz-adv-x="1752" 
d="M1781 700l-5 -36h-829l-93 -664h-40l93 664h-829l5 36h1698zM992 824l-6 -41h-87l6 41h87z" />
    <glyph glyph-name="uni1E6B" unicode="&#x1e6b;" horiz-adv-x="1505" 
d="M201 0q-76 0 -107 36t-20 112l88 622h40l-24 -167h1321l-5 -36h-1321l-58 -418q-10 -62 12.5 -87.5t84.5 -25.5h1208l-5 -36h-1214zM888 730l-6 -41h-87l6 41h87z" />
    <glyph glyph-name="Wgrave" unicode="&#x1e80;" horiz-adv-x="2298" 
d="M2027 0h-759q-72 0 -103.5 28t-30.5 90q-17 -62 -56 -90t-110 -28h-759q-77 0 -108.5 37t-20.5 113l77 550h40l-77 -544q-9 -66 13.5 -93t86.5 -27h762q67 0 97.5 28t40.5 97l76 539h40l-76 -539q-10 -69 13.5 -97t90.5 -28h762q64 0 93.5 27t38.5 93l77 544h40l-77 -550
q-11 -76 -52.5 -113t-118.5 -37zM1247 754l-200 107h78l175 -107h-53z" />
    <glyph glyph-name="wgrave" unicode="&#x1e81;" horiz-adv-x="2051" 
d="M1008 101q-15 -54 -51 -77.5t-104 -23.5h-652q-76 0 -107 36t-20 112l64 455h40l-63 -454q-10 -62 12.5 -87.5t84.5 -25.5h664q56 0 83 25t35 80l65 462h40l-65 -462q-8 -55 12.5 -80t76.5 -25h664q63 0 91.5 25.5t37.5 87.5l63 454h40l-63 -455q-11 -76 -51.5 -112
t-116.5 -36h-652q-67 0 -97 23.5t-31 77.5zM1111 660l-200 107h78l175 -107h-53z" />
    <glyph glyph-name="Wacute" unicode="&#x1e82;" horiz-adv-x="2298" 
d="M2027 0h-759q-72 0 -103.5 28t-30.5 90q-17 -62 -56 -90t-110 -28h-759q-77 0 -108.5 37t-20.5 113l77 550h40l-77 -544q-9 -66 13.5 -93t86.5 -27h762q67 0 97.5 28t40.5 97l76 539h40l-76 -539q-10 -69 13.5 -97t90.5 -28h762q64 0 93.5 27t38.5 93l77 544h40l-77 -550
q-11 -76 -52.5 -113t-118.5 -37zM1434 861l-234 -107h-55l204 107h85z" />
    <glyph glyph-name="wacute" unicode="&#x1e83;" horiz-adv-x="2051" 
d="M1008 101q-15 -54 -51 -77.5t-104 -23.5h-652q-76 0 -107 36t-20 112l64 455h40l-63 -454q-10 -62 12.5 -87.5t84.5 -25.5h664q56 0 83 25t35 80l65 462h40l-65 -462q-8 -55 12.5 -80t76.5 -25h664q63 0 91.5 25.5t37.5 87.5l63 454h40l-63 -455q-11 -76 -51.5 -112
t-116.5 -36h-652q-67 0 -97 23.5t-31 77.5zM1298 767l-234 -107h-55l204 107h85z" />
    <glyph glyph-name="Wdieresis" unicode="&#x1e84;" horiz-adv-x="2298" 
d="M2027 0h-759q-72 0 -103.5 28t-30.5 90q-17 -62 -56 -90t-110 -28h-759q-77 0 -108.5 37t-20.5 113l77 550h40l-77 -544q-9 -66 13.5 -93t86.5 -27h762q67 0 97.5 28t40.5 97l76 539h40l-76 -539q-10 -69 13.5 -97t90.5 -28h762q64 0 93.5 27t38.5 93l77 544h40l-77 -550
q-11 -76 -52.5 -113t-118.5 -37zM1120 824l-6 -41h-87l6 41h87zM1432 824l-6 -41h-87l6 41h87z" />
    <glyph glyph-name="wdieresis" unicode="&#x1e85;" horiz-adv-x="2051" 
d="M1008 101q-15 -54 -51 -77.5t-104 -23.5h-652q-76 0 -107 36t-20 112l64 455h40l-63 -454q-10 -62 12.5 -87.5t84.5 -25.5h664q56 0 83 25t35 80l65 462h40l-65 -462q-8 -55 12.5 -80t76.5 -25h664q63 0 91.5 25.5t37.5 87.5l63 454h40l-63 -455q-11 -76 -51.5 -112
t-116.5 -36h-652q-67 0 -97 23.5t-31 77.5zM984 730l-6 -41h-87l6 41h87zM1296 730l-6 -41h-87l6 41h87z" />
    <glyph glyph-name="Ygrave" unicode="&#x1ef2;" horiz-adv-x="1826" 
d="M1795 700h40l-31 -218q-21 -150 -172 -150h-684l-46 -332h-40l46 332h-685q-77 0 -108.5 37t-20.5 113l31 218h40l-30 -212q-9 -66 13 -93t86 -27h1398q64 0 93.5 27t39.5 93zM1011 754l-200 107h78l175 -107h-53z" />
    <glyph glyph-name="ygrave" unicode="&#x1ef3;" horiz-adv-x="1673" 
d="M1335 -167h-1272l5 36h1268q76 0 115 33t49 111l10 71q-32 -67 -130 -67h-1183q-76 0 -107 36t-20 112l61 438h40l-61 -437q-9 -62 13 -87.5t85 -25.5h1185q63 0 91.5 25.5t37.5 87.5l61 437h40l-83 -590q-13 -92 -63 -136t-142 -44zM914 660l-200 107h78l175 -107h-53z
" />
    <glyph glyph-name="uni2010" unicode="&#x2010;" horiz-adv-x="739" 
d="M694 345l-5 -36h-637l5 36h637z" />
    <glyph glyph-name="figuredash" unicode="&#x2012;" 
d="M1843 345l-5 -36h-1837l5 36h1837z" />
    <glyph glyph-name="endash" unicode="&#x2013;" horiz-adv-x="959" 
d="M965 345l-5 -36h-959l5 36h959z" />
    <glyph glyph-name="emdash" unicode="&#x2014;" horiz-adv-x="1918" 
d="M1924 345l-5 -36h-1918l5 36h1918z" />
    <glyph glyph-name="quoteleft" unicode="&#x2018;" horiz-adv-x="295" 
d="M146 568l7 47q6 45 24 65t54 20h11l-3 -21h-11q-32 0 -40 -47l-2 -17h44l-7 -47h-77z" />
    <glyph glyph-name="quoteright" unicode="&#x2019;" horiz-adv-x="295" 
d="M242 700l-7 -47q-6 -45 -24.5 -65t-54.5 -20h-10l3 21h11q32 0 39 47l2 17h-43l7 47h77z" />
    <glyph glyph-name="quotesinglbase" unicode="&#x201a;" horiz-adv-x="295" 
d="M151 51l-7 -47q-6 -45 -24.5 -65t-54.5 -20h-10l3 21h11q32 0 39 47l2 17h-43l7 47h77z" />
    <glyph glyph-name="quotedblleft" unicode="&#x201c;" horiz-adv-x="471" 
d="M321 568l7 47q6 45 24.5 65t54.5 20h11l-3 -21h-12q-16 0 -25.5 -10.5t-13.5 -36.5l-2 -17h44l-7 -47h-78zM146 568l7 47q6 45 24 65t54 20h11l-3 -21h-11q-32 0 -40 -47l-2 -17h44l-7 -47h-77z" />
    <glyph glyph-name="quotedblright" unicode="&#x201d;" horiz-adv-x="471" 
d="M418 700l-7 -47q-6 -45 -24.5 -65t-54.5 -20h-10l3 21h11q32 0 39 47l2 17h-43l7 47h77zM242 700l-7 -47q-6 -45 -24.5 -65t-54.5 -20h-10l3 21h11q32 0 39 47l2 17h-43l7 47h77z" />
    <glyph glyph-name="quotedblbase" unicode="&#x201e;" horiz-adv-x="471" 
d="M327 51l-7 -47q-6 -45 -24.5 -65t-54.5 -20h-10l3 21h11q32 0 39 47l2 17h-43l7 47h77zM151 51l-7 -47q-6 -45 -24.5 -65t-54.5 -20h-10l3 21h11q32 0 39 47l2 17h-43l7 47h77z" />
    <glyph glyph-name="dagger" unicode="&#x2020;" horiz-adv-x="1675" 
d="M1657 481l-5 -36h-775l-81 -577h-40l81 577h-774l5 36h774l37 259h40l-37 -259h775z" />
    <glyph glyph-name="daggerdbl" unicode="&#x2021;" horiz-adv-x="1675" 
d="M1618 206l-5 -36h-775l-42 -302h-40l42 302h-774l5 36h774l34 239h-774l5 36h774l37 259h40l-37 -259h775l-5 -36h-775l-34 -239h775z" />
    <glyph glyph-name="bullet" unicode="&#x2022;" horiz-adv-x="959" 
d="M550 173h-135q-139 0 -139 132v90q0 132 139 132h135q139 0 139 -132v-90q0 -132 -139 -132z" />
    <glyph glyph-name="ellipsis" unicode="&#x2026;" horiz-adv-x="646" 
d="M151 51l-7 -51h-77l7 51h77zM327 51l-7 -51h-77l7 51h77zM502 51l-7 -51h-77l7 51h77z" />
    <glyph glyph-name="perthousand" unicode="&#x2030;" horiz-adv-x="3493" 
d="M933 0l569 700h42l-569 -700h-42zM1420 114l43 306q16 114 130 114h709q59 0 82.5 -28t15.5 -86l-43 -306q-16 -114 -130 -114h-709q-59 0 -82.5 28t-15.5 86zM2316 111l44 312q6 40 -9.5 57.5t-53.5 17.5h-709q-38 0 -58.5 -17.5t-26.5 -57.5l-44 -312
q-5 -40 10.5 -57.5t53.5 -17.5h709q38 0 58.5 17.5t25.5 57.5zM2466 114l43 306q16 114 130 114h709q59 0 82.5 -28t15.5 -86l-43 -306q-16 -114 -130 -114h-709q-59 0 -82.5 28t-15.5 86zM3362 111l44 312q6 40 -9.5 57.5t-53.5 17.5h-709q-38 0 -58.5 -17.5t-26.5 -57.5
l-44 -312q-5 -40 10.5 -57.5t53.5 -17.5h709q38 0 58.5 17.5t25.5 57.5zM76 280l43 306q16 114 130 114h709q59 0 82.5 -28t15.5 -86l-43 -306q-16 -114 -130 -114h-709q-59 0 -82.5 28t-15.5 86zM972 277l44 312q6 40 -9.5 57.5t-53.5 17.5h-709q-38 0 -58.5 -17.5
t-26.5 -57.5l-44 -312q-5 -40 10.5 -57.5t53.5 -17.5h709q38 0 58.5 17.5t25.5 57.5z" />
    <glyph glyph-name="guilsinglleft" unicode="&#x2039;" horiz-adv-x="344" 
d="M271 51h-45l-190 249l260 249h49l-263 -252z" />
    <glyph glyph-name="guilsinglright" unicode="&#x203a;" horiz-adv-x="344" 
d="M73 549h44l191 -249l-261 -249h-48l262 251z" />
    <glyph glyph-name="fraction" unicode="&#x2044;" horiz-adv-x="586" 
d="M-6 0l569 700h42l-569 -700h-42z" />
    <glyph glyph-name="zerosuperior" unicode="&#x2070;" horiz-adv-x="1079" 
d="M76 280l43 306q16 114 130 114h709q59 0 82.5 -28t15.5 -86l-43 -306q-16 -114 -130 -114h-709q-59 0 -82.5 28t-15.5 86zM972 277l44 312q6 40 -9.5 57.5t-53.5 17.5h-709q-38 0 -58.5 -17.5t-26.5 -57.5l-44 -312q-5 -40 10.5 -57.5t53.5 -17.5h709q38 0 58.5 17.5
t25.5 57.5z" />
    <glyph glyph-name="foursuperior" unicode="&#x2074;" horiz-adv-x="1079" 
d="M977 451l35 249h40l-75 -534h-40l35 249h-781q-59 0 -82.5 28t-15.5 86l24 171h40l-25 -174q-5 -40 10.5 -57.5t53.5 -17.5h781z" />
    <glyph glyph-name="zeroinferior" unicode="&#x2080;" horiz-adv-x="1079" 
d="M53 114l43 306q16 114 130 114h709q59 0 82.5 -28t15.5 -86l-43 -306q-16 -114 -130 -114h-709q-59 0 -82.5 28t-15.5 86zM949 111l44 312q6 40 -9.5 57.5t-53.5 17.5h-709q-38 0 -58.5 -17.5t-26.5 -57.5l-44 -312q-5 -40 10.5 -57.5t53.5 -17.5h709q38 0 58.5 17.5
t25.5 57.5z" />
    <glyph glyph-name="oneinferior" unicode="&#x2081;" horiz-adv-x="1079" 
d="M91 0l5 36h478l65 462h-478l5 36h518l-70 -498h359l-5 -36h-877z" />
    <glyph glyph-name="twoinferior" unicode="&#x2082;" horiz-adv-x="1079" 
d="M995 362l8 59q6 43 -8 60t-56 17h-833l5 36h835q58 0 81.5 -28t15.5 -86l-8 -57q-16 -114 -129 -114h-706q-63 0 -90 -23.5t-35 -85.5l-15 -104h929l-5 -36h-969l20 146q19 139 159 139h715q42 0 61 17t25 60z" />
    <glyph glyph-name="threeinferior" unicode="&#x2083;" horiz-adv-x="1079" 
d="M1039 420l-7 -50q-7 -47 -27.5 -72t-72.5 -31q50 -6 64 -31t7 -72l-7 -50q-16 -114 -129 -114h-860l5 36h858q42 0 61 17t25 60l8 60q6 41 -8.5 58.5t-53.5 17.5h-776l5 36h776q39 0 58.5 17.5t25.5 58.5l8 60q6 43 -8 60t-56 17h-858l5 36h860q58 0 81.5 -28t15.5 -86z
" />
    <glyph glyph-name="fourinferior" unicode="&#x2084;" horiz-adv-x="1079" 
d="M954 285l35 249h40l-75 -534h-40l35 249h-781q-59 0 -82.5 28t-15.5 86l24 171h40l-25 -174q-5 -40 10.5 -57.5t53.5 -17.5h781z" />
    <glyph glyph-name="Euro" unicode="&#x20ac;" 
d="M236 0q-151 0 -130 150l25 182h-97l5 36h97l27 182q19 150 171 150h1504l-5 -36h-1499q-64 0 -93.5 -27t-38.5 -93l-26 -176h1505l-5 -36h-1505l-24 -176q-10 -66 12.5 -93t86.5 -27h1499l-5 -36h-1504z" />
    <glyph glyph-name="uni2117" unicode="&#x2117;" horiz-adv-x="1919" 
d="M304 367h1323q27 0 27 26v55q0 26 -27 26h-1323v-107zM1694 442v-43q0 -68 -68 -68h-1322v-142h-40v321h1362q68 0 68 -68zM246 0q-81 0 -120 39t-39 119v384q0 80 39 119t120 39h1443q81 0 120 -39t39 -119v-384q0 -80 -39 -119t-120 -39h-1443zM248 36h1439
q62 0 91.5 30t29.5 92v384q0 62 -29.5 92t-91.5 30h-1439q-62 0 -91.5 -30t-29.5 -92v-384q0 -62 29.5 -92t91.5 -30z" />
    <glyph glyph-name="trademark" unicode="&#x2122;" horiz-adv-x="2604" 
d="M1835 167v405q0 47 -19.5 69.5t-62.5 22.5h-473q-38 0 -54 -16.5t-16 -55.5v-425h-40v419q0 58 27.5 86t86.5 28h448q58 0 87 -22t36 -71q6 49 35 71t87 22h448q59 0 86.5 -28t27.5 -86v-419h-40v425q0 39 -16 55.5t-54 16.5h-472q-43 0 -62.5 -22.5t-19.5 -69.5v-405
h-40zM1062 700v-36h-485v-497h-40v497h-484v36h1009z" />
    <glyph glyph-name="uni2126" unicode="&#x2126;" 
d="M1727 363v187q0 61 -25.5 87.5t-84.5 26.5h-1392q-58 0 -83.5 -26.5t-25.5 -87.5v-187q0 -61 25.5 -87.5t83.5 -26.5h571v-249h-732v36h692v177h-534q-76 0 -111 35.5t-35 110.5v195q0 75 35 110.5t111 35.5h1399q76 0 111 -35.5t35 -110.5v-195q0 -75 -35 -110.5
t-111 -35.5h-534v-177h692v-36h-732v249h570q59 0 84.5 26.5t25.5 87.5z" />
    <glyph glyph-name="onethird" unicode="&#x2153;" horiz-adv-x="2446" 
d="M114 166l5 36h478l65 462h-478l5 36h518l-70 -498h359l-5 -36h-877zM925 0l569 700h42l-569 -700h-42zM2406 420l-7 -50q-7 -47 -27.5 -72t-72.5 -31q50 -6 64 -31t7 -72l-7 -50q-16 -114 -129 -114h-860l5 36h858q42 0 61 17t25 60l8 60q6 41 -8.5 58.5t-53.5 17.5h-776
l5 36h776q39 0 58.5 17.5t25.5 58.5l8 60q6 43 -8 60t-56 17h-858l5 36h860q58 0 81.5 -28t15.5 -86z" />
    <glyph glyph-name="twothirds" unicode="&#x2154;" horiz-adv-x="2446" 
d="M1018 528l8 59q6 43 -8 60t-56 17h-833l5 36h835q58 0 81.5 -28t15.5 -86l-8 -57q-16 -114 -129 -114h-706q-63 0 -90 -23.5t-35 -85.5l-15 -104h929l-5 -36h-969l20 146q19 139 159 139h715q42 0 61 17t25 60zM925 0l569 700h42l-569 -700h-42zM2406 420l-7 -50
q-7 -47 -27.5 -72t-72.5 -31q50 -6 64 -31t7 -72l-7 -50q-16 -114 -129 -114h-860l5 36h858q42 0 61 17t25 60l8 60q6 41 -8.5 58.5t-53.5 17.5h-776l5 36h776q39 0 58.5 17.5t25.5 58.5l8 60q6 43 -8 60t-56 17h-858l5 36h860q58 0 81.5 -28t15.5 -86z" />
    <glyph glyph-name="partialdiff" unicode="&#x2202;" 
d="M1763 492v-344q0 -76 -36 -112t-112 -36h-1406q-76 0 -111 35.5t-35 110.5v76q0 75 35 110.5t111 35.5h1514v120q0 91 -43.5 133.5t-131.5 42.5h-1458v36h1465q102 0 155 -52.5t53 -155.5zM103 218v-68q0 -61 25.5 -87.5t83.5 -26.5h1398q61 0 87 26.5t26 90.5v179h-1511
q-58 0 -83.5 -26.5t-25.5 -87.5z" />
    <glyph glyph-name="uni2206" unicode="&#x2206;" 
d="M62 0l859 725l859 -725h-1718zM921 673l-755 -637h1509z" />
    <glyph glyph-name="product" unicode="&#x220f;" 
d="M1721 -132v796h-1599v-796h-40v832h1679v-832h-40z" />
    <glyph glyph-name="summation" unicode="&#x2211;" 
d="M1761 -96v-36h-1679v30l687 386l-687 386v30h1679v-36h-1597l680 -380l-680 -380h1597z" />
    <glyph glyph-name="minus" unicode="&#x2212;" 
d="M82 331v36h1679v-36h-1679z" />
    <glyph glyph-name="radical" unicode="&#x221a;" 
d="M1275 0l-232 331h-961v36h984l229 -327l460 660h47l-485 -700h-42z" />
    <glyph glyph-name="infinity" unicode="&#x221e;" horiz-adv-x="733" 
d="M345 317q-12 0 -23.5 12.5t-14.5 12.5t-11 -2t-14 -2q-8 0 -14.5 8t-6.5 17q0 22 8 35q-7 -7 -16 -37t-26 -41q-18 -12 -18 -40q0 -11 11 -21.5t11 -12.5q0 -4 -3 -4q-7 0 -12 5q13 -68 48 -104h-55q-35 114 -35 226q0 105 40.5 171.5t135.5 66.5q190 0 190 -254
q0 -75 -25 -210h-73q53 47 62 117q-4 -8 -13 -8q-3 0 -3 2l4 4q5 3 9.5 11.5t4.5 21.5q-4 -6 -15 -6q-1 0 -10.5 -4.5t-15.5 -4.5q-14 0 -40 3.5t-70 3.5q-22 0 -52.5 -6t-38.5 -6q-5 0 -13 2t-11 2q-28 0 -28 12q0 10 37 18.5t74 8.5q5 0 12 -0.5t12 -0.5t15.5 2t14.5 2
q112 0 127 -20q-1 16 -14 29t-30 13q-6 0 -6 7q0 57 -16 58q4 -7 4 -17q0 -18 -11 -32t-27 -14q-4 0 -10 2l-7 2q-1 0 -14.5 -14t-27.5 -14zM733 291v-148q-22 48 -69 112.5t-67 64.5q6 -85 -12 -177h-42q16 104 16 199q0 319 -213 319q-53 0 -91.5 -26.5t-59 -72.5
t-30 -97.5t-9.5 -111.5q0 -123 29 -210h-47q-19 67 -19 184q-17 -9 -39.5 -43.5t-49 -84.5t-30.5 -56v148q11 27 33 54t50 53.5t30 28.5q3 72 27 135t75.5 107.5t120.5 44.5q67 0 115.5 -22.5t76.5 -64t42.5 -87t22.5 -105.5q22 -5 68 -48t72 -96zM345 503q-3 3 -3 6
q0 2 2 2q1 0 6 -4.5t15 -8.5t22 -4q16 0 29 4t20 8l6 5q4 0 4 -2l-8 -8q24 0 52 -11q-29 80 -139 80q-55 0 -92 -33t-50 -85q37 20 41 39q-6 4 -6 7q0 4 3 4l2 -2q2 -1 6.5 -3.5t10 -5t13.5 -4t17 -1.5q24 0 49 17zM371 416q0 20 -4.5 40t-9.5 20q-10 0 -19 -39t-14 -39
q-3 0 -9.5 3t-11.5 3q-13 0 -21 -10.5t-8 -24.5t11 -14t18 6.5t9 6.5t12 -13.5t20 -13.5q14 0 25 10.5t12 10.5q3 0 10 -3.5t9 -3.5q10 0 18 11t8 24q0 10 -6 18t-16 8q-7 0 -14.5 -6.5t-11.5 -6.5q-7 0 -7 13zM510 318q0 95 -12 147l-5 3q0 -21 -18 -32t-41 -11
q-21 0 -37 12.5t-16 29.5q0 6 2 9q-12 2 -15 4q6 -9 10 -24t5.5 -24t4.5 -9q7 2 15 2q19 0 31 -14q34 0 34 -51q0 -3 8 -7t18.5 -13t15.5 -22zM383 310q-1 0 -8 -1t-15.5 -2t-13.5 -1t-13 1.5t-11 1.5q-15 0 -36 -4t-35 -9t-14 -8q0 -10 20 -10q24 0 54 6.5t44 6.5
q19 0 57.5 -3.5t52.5 -3.5q5 0 9.5 2t7.5 4t3 3q0 5 -36 11t-66 6zM267 413q-18 0 -31 10t-15 21q-4 -2 -15 -5q-4 -21 -4 -43q0 -50 3 -78q4 6 22 22t20 31q5 37 38 41q12 5 23 5q5 0 8.5 8.5t9.5 24.5t16 28l-13 -4q-1 -24 -18.5 -42.5t-43.5 -18.5zM419 465q-13 0 -16 13
q-5 0 -8.5 -5.5t-3.5 -9.5q0 -10 15 -17t31 -7q14 0 29 8.5t15 21.5q0 8 -14.5 12.5t-28.5 4.5q-5 -21 -19 -21zM267 427q14 0 30 11t16 24q0 6 -1 9q-20 0 -27 1q-5 -14 -18 -14q-10 0 -15 5q-4 -4 -18 -12q4 -24 33 -24zM266 288q-2 0 -2 3q0 12 107 12q93 0 93 -8
q0 -3 -3 -3q-1 0 -4 0.5t-10 1t-16 1.5t-24.5 1.5t-33.5 0.5q-36 0 -61 -2.5t-36 -4.5zM305 262q0 10 63 10q31 0 31 -8q0 -3 -2 -3q-4 0 -10 2t-10 2q-11 0 -26 -0.5t-20 -0.5q-4 0 -11.5 -3t-10.5 -3q-4 0 -4 4zM417 473q9 0 9 13q-1 0 -16 -6q0 -7 7 -7zM266 466
q7 0 10 9q-6 1 -11 4q0 -4 -6 -10q1 -3 7 -3zM325 34l-3 48l-10 -82h-21l15 125h25l4 -60l21 60h26l-15 -125h-22l10 82l-16 -48h-14zM21 125h35q23 0 20 -21l-10 -82q-3 -22 -22 -22h-38zM282 44q-1 -12 -10 -17l8 -27h-21l-7 23h-7l-3 -23h-22l15 125h36q21 0 18 -24z
M183 0l3 23h-14l-3 -23h-21l12 104q2 21 22 21h17q19 0 18 -21l-12 -104h-22zM594 0l15 125h35q23 0 20 -21l-8 -62q-3 -19 -22 -19h-15l-3 -23h-22zM111 0l3 23h-13l-3 -23h-22l15 125h22l-10 -83h13l10 83h22l-15 -125h-22zM539 125h22l-10 -79q0 -4 4 -4h5q5 0 5 4l9 79
h22l-10 -81q-3 -21 -19 -21l-9 -23h-23l9 23q-18 0 -15 21zM477 106l3 19h50l-3 -19h-13l-12 -106h-23l12 106h-14zM41 106l-11 -88h11q3 0 3 4l9 80q0 4 -4 4h-8zM629 106l-8 -64h8q5 0 5 4l7 56q0 4 -4 4h-8zM174 42h14l7 60q0 4 -4 4h-5q-5 0 -5 -4zM255 106l-8 -64h8
q5 0 5 4l7 56q0 4 -3 4h-9zM711 57l-3 -18h-19l-3 -21h27l-2 -18h-49l15 125h47l-3 -19h-24l-6 -49h20zM417 0l3 23h-14l-3 -23h-21l12 104q2 21 22 21h17q19 0 18 -21l-12 -104h-22zM408 42h14l7 60q0 4 -4 4h-5q-5 0 -5 -4z" />
    <glyph glyph-name="integral" unicode="&#x222b;" 
d="M1030 551l-178 -543q-25 -74 -68 -107t-119 -33h-583v36h581q64 0 97.5 25t55.5 88l177 543q25 74 68.5 107t118.5 33h581v-36h-578q-65 0 -98.5 -25t-54.5 -88z" />
    <glyph glyph-name="approxequal" unicode="&#x2248;" 
d="M82 185v43q141 73 355 73q151 0 479 -51.5t480 -51.5q223 0 365 79v-43q-142 -73 -358 -73q-152 0 -479 51t-478 51q-223 0 -364 -78zM82 426v42q141 73 356 73q152 0 480 -51t479 -51q221 0 364 78v-43q-142 -73 -357 -73q-152 0 -480 51.5t-479 51.5q-222 0 -363 -78z
" />
    <glyph glyph-name="notequal" unicode="&#x2260;" 
d="M703 0h-42l152 207h-703v36h730l156 213h-886v36h913l153 208h43l-154 -208h667v-36h-693l-157 -213h850v-36h-877z" />
    <glyph glyph-name="lessequal" unicode="&#x2264;" 
d="M1761 0h-1679v36h1679v-36zM82 350l313 269h54l-293 -252h1605v-36h-1604l292 -251h-54z" />
    <glyph glyph-name="greaterequal" unicode="&#x2265;" 
d="M1761 0h-1679v36h1679v-36zM1448 619l313 -269l-313 -270h-54l292 251h-1604v36h1605l-293 252h54z" />
    <glyph glyph-name="lozenge" unicode="&#x25ca;" 
d="M921 -25l-859 373l859 374l859 -374zM921 16l763 332l-763 332l-763 -332z" />
    <glyph glyph-name="commaaccent" horiz-adv-x="479" 
d="M226 -91l-6 -39q-10 -71 -68 -71h-20l3 22h21q27 0 32 35l2 14h-53l6 39h83z" />
    <glyph glyph-name="i.alt" horiz-adv-x="242" 
d="M59 0l84 603h40l-84 -603h-40zM224 730l-6 -41h-86l6 41h86z" />
    <glyph glyph-name="i.trk" horiz-adv-x="349" 
d="M204 36h89l-5 -36h-94q-75 0 -102.5 32t-16.5 106l65 465h40l-65 -464q-9 -60 10 -81.5t79 -21.5zM221 730l-6 -41h-86l6 41h86z" />
    <glyph glyph-name="one.pnum" horiz-adv-x="392" 
d="M348 700l-98 -700h-40l93 664h-222l5 36h262z" />
    </font>
</defs>
</svg>
