<?xml version="1.0" standalone="no"?>
<!DOCTYPE svg PUBLIC "-//W3C//DTD SVG 1.1//EN" "http://www.w3.org/Graphics/SVG/1.1/DTD/svg11.dtd" >
<svg xmlns="http://www.w3.org/2000/svg" xmlns:xlink="http://www.w3.org/1999/xlink" version="1.1">
<metadata>
Created by FontForge 20170731 at Sat Mar 14 00:16:18 2015
 By ,,,
Copyright (c) 2011 by Ryoichi Tsunekawa. All rights reserved.
</metadata>
<defs>
<font id="DesignSystemG-700R" horiz-adv-x="3386" >
  <font-face 
    font-family="DesignSystemG-700R"
    font-weight="400"
    font-stretch="normal"
    units-per-em="1000"
    panose-1="4 5 7 8 2 11 2 2 3 2"
    ascent="822"
    descent="-178"
    x-height="603"
    cap-height="700"
    bbox="-224 -260 5987 938"
    underline-thickness="36"
    underline-position="-156"
    unicode-range="U+0020-FB02"
  />
<missing-glyph horiz-adv-x="1500" 
d="M0 700h1500v-700h-1500v700zM67 634v-566l1273 566h-1273zM160 66h1273v565z" />
    <glyph glyph-name="ij" unicode="ij" horiz-adv-x="590" 
d="M235 -48h83q34 0 49.5 16t15.5 50v585h137v-602q0 -87 -40 -127.5t-128 -40.5h-117v119zM356 667v90h191v-90h-191zM77 0v603h137v-603h-137zM241 757v-90h-192v90h192z" />
    <glyph glyph-name="fi" unicode="fi" horiz-adv-x="3387" 
d="M288 484q-44 0 -64 -19.5t-20 -64.5v-39h2606v-119h-2606v-242h-137v406q0 101 48 149t149 48h2636v-119h-2612zM3205 119h154v-119h-189q-87 0 -127 40.5t-40 127.5v435h137v-418q0 -34 15.5 -50t49.5 -16zM3167 757v-90h-191v90h191z" />
    <glyph glyph-name="fl" unicode="fl" horiz-adv-x="3383" 
d="M288 484q-44 0 -64 -19.5t-20 -64.5v-39h2606v-119h-2606v-242h-137v406q0 101 48 149t149 48h2636v-119h-2612zM3202 119h154v-119h-189q-88 0 -128 40.5t-40 127.5v602h137v-585q0 -66 66 -66z" />
    <glyph glyph-name=".notdef" horiz-adv-x="1500" 
d="M0 700h1500v-700h-1500v700zM67 634v-566l1273 566h-1273zM160 66h1273v565z" />
    <glyph glyph-name=".null" horiz-adv-x="0" 
 />
    <glyph glyph-name="nonmarkingreturn" horiz-adv-x="333" 
 />
    <glyph glyph-name="space" unicode=" " horiz-adv-x="777" 
 />
    <glyph glyph-name="exclam" unicode="!" horiz-adv-x="343" 
d="M265 104v-104h-187v104h187zM242 700v-223q0 -150 -16 -278h-109q-17 125 -17 278v223h142z" />
    <glyph glyph-name="quotedbl" unicode="&#x22;" horiz-adv-x="530" 
d="M209 700v-42q0 -117 -21 -266h-100q-21 149 -21 266v42h142zM463 700v-42q0 -117 -21 -266h-100q-21 149 -21 266v42h142z" />
    <glyph glyph-name="numbersign" unicode="#" 
d="M3013 0l7 124h-2678l-6 -124h-137l7 124h-161l6 119h161l11 214h-160l6 119h160l7 124h137l-7 -124h2678l6 124h137l-7 -124h161l-6 -119h-161l-11 -214h160l-6 -119h-160l-7 -124h-137zM360 457l-12 -214h2678l12 214h-2678z" />
    <glyph glyph-name="dollar" unicode="$" 
d="M54 169h3087q29 0 41 12.5t12 40.5v18q0 28 -12.5 40t-40.5 12h-2936q-79 0 -115 37t-36 117v50q0 80 36 117t115 37h1425v90h124v-90h1554v-119h-3065q-29 0 -41 -12.5t-12 -40.5v-18q0 -28 12.5 -40t40.5 -12h2936q79 0 115 -37t36 -117v-50q0 -80 -36 -117t-115 -37
h-1425v-90h-124v90h-1576v119z" />
    <glyph glyph-name="percent" unicode="%" horiz-adv-x="4229" 
d="M1641 0l792 700h155l-792 -700h-155zM2471 125v284q0 64 30.5 94.5t94.5 30.5h1448q64 0 94.5 -30.5t30.5 -94.5v-284q0 -64 -30.5 -94.5t-94.5 -30.5h-1448q-64 0 -94.5 30.5t-30.5 94.5zM4050 149v236q0 44 -43 44h-1373q-23 0 -33.5 -10t-10.5 -34v-236
q0 -24 10.5 -34t33.5 -10h1373q43 0 43 44zM60 291v284q0 64 30.5 94.5t94.5 30.5h1448q64 0 94.5 -30.5t30.5 -94.5v-284q0 -64 -30.5 -94.5t-94.5 -30.5h-1448q-64 0 -94.5 30.5t-30.5 94.5zM1639 315v236q0 44 -43 44h-1373q-23 0 -33.5 -10t-10.5 -34v-236
q0 -24 10.5 -34t33.5 -10h1373q43 0 43 44z" />
    <glyph glyph-name="ampersand" unicode="&#x26;" horiz-adv-x="3489" 
d="M3181 289h-2911q-37 0 -52 -15.5t-15 -52.5v-31q0 -36 15 -51.5t50 -15.5h2851q37 0 49.5 13t12.5 50v103zM61 168v31q0 70 31.5 107t110.5 44q-79 7 -110.5 44t-31.5 107v31q0 87 40.5 127.5t127.5 40.5h3044v-123h-3005q-35 0 -50 -15.5t-15 -51.5v-31q0 -37 15 -52.5
t52 -15.5h3186v-122h-133v-129q0 -86 -36.5 -123t-123.5 -37h-2934q-87 0 -127.5 40.5t-40.5 127.5z" />
    <glyph glyph-name="quotesingle" unicode="'" horiz-adv-x="276" 
d="M209 700v-42q0 -117 -21 -266h-100q-21 149 -21 266v42h142z" />
    <glyph glyph-name="parenleft" unicode="(" horiz-adv-x="388" 
d="M204 102q0 -38 15 -53.5t52 -15.5h65v-113h-92q-88 0 -129 41t-41 128v442q0 87 41 128t129 41h92v-113h-65q-37 0 -52 -15.5t-15 -53.5v-416z" />
    <glyph glyph-name="parenright" unicode=")" horiz-adv-x="388" 
d="M184 102v416q0 38 -15 53.5t-52 15.5h-65v113h92q88 0 129 -41t41 -128v-442q0 -87 -41 -128t-129 -41h-92v113h65q37 0 52 15.5t15 53.5z" />
    <glyph glyph-name="asterisk" unicode="*" horiz-adv-x="630" 
d="M329 436q89 81 167 106l69 22l38 -118l-69 -22q-45 -15 -112 -17t-84 4q104 -62 152 -126l43 -59l-101 -73l-43 59q-27 38 -47 92.5t-27 89.5q-7 -35 -27 -89.5t-47 -92.5l-42 -59l-101 73l42 59q47 63 153 126q-17 -6 -84 -4t-112 17l-70 22l38 118l69 -22
q78 -25 167 -106q-47 110 -47 191v73h124v-73q0 -85 -49 -191z" />
    <glyph glyph-name="plus" unicode="+" 
d="M67 291v118h1566v291h118v-291h1568v-118h-1568v-291h-118v291h-1566z" />
    <glyph glyph-name="comma" unicode="," horiz-adv-x="342" 
d="M263 118v-117q0 -66 -34.5 -103t-100.5 -37h-49v67h38q29 0 41.5 13t12.5 42v18h-92v117h184z" />
    <glyph glyph-name="hyphen" unicode="-" horiz-adv-x="1140" 
d="M1090 388v-122h-1040v122h1040z" />
    <glyph glyph-name="period" unicode="." horiz-adv-x="342" 
d="M263 118v-118h-184v118h184z" />
    <glyph glyph-name="slash" unicode="/" horiz-adv-x="1074" 
d="M32 0l832 700h178l-831 -700h-179z" />
    <glyph glyph-name="zero" unicode="0" 
d="M240 0q-89 0 -131 42.5t-42 130.5v354q0 88 42 130.5t131 42.5h2906q89 0 131 -42.5t42 -130.5v-354q0 -88 -42 -130.5t-131 -42.5h-2906zM3177 194v312q0 38 -15.5 54t-52.5 16h-2832q-37 0 -52.5 -16t-15.5 -54v-312q0 -38 15.5 -54t52.5 -16h2832q37 0 52.5 16
t15.5 54z" />
    <glyph glyph-name="one" unicode="1" 
d="M2352 700v-576h967v-124h-3185v124h2076v452h-2076v124h2218z" />
    <glyph glyph-name="two" unicode="2" 
d="M3170 508q0 37 -15.5 52.5t-50.5 15.5h-3018v124h3054q88 0 130 -42.5t42 -129.5v-68q0 -87 -42 -129.5t-130 -42.5h-2849q-52 0 -72.5 -20t-20.5 -72v-72h3134v-124h-3276v202q0 210 209 210h2839q35 0 50.5 15.5t15.5 51.5v29z" />
    <glyph glyph-name="three" unicode="3" 
d="M3116 288h-2938v124h2938q37 0 52 15.5t15 52.5v28q0 37 -15 52.5t-50 15.5h-3065v124h3104q87 0 127.5 -40.5t40.5 -127.5v-31q0 -70 -31.5 -107t-111.5 -44q80 -7 111.5 -44t31.5 -107v-31q0 -87 -40.5 -127.5t-127.5 -40.5h-3104v124h3065q35 0 50 15.5t15 52.5v28
q0 37 -15 52.5t-52 15.5z" />
    <glyph glyph-name="four" unicode="4" 
d="M3163 412v288h142v-700h-142v288h-2937q-89 0 -131 42.5t-42 130.5v239h142v-219q0 -38 15.5 -53.5t52.5 -15.5h2900z" />
    <glyph glyph-name="five" unicode="5" 
d="M76 288v412h3224v-124h-3082v-164h2940q88 0 130 -42.5t42 -129.5v-68q0 -87 -42 -129.5t-130 -42.5h-3092v124h3057q35 0 50 15.5t15 52.5v29q0 36 -15 51.5t-50 15.5h-3047z" />
    <glyph glyph-name="six" unicode="6" 
d="M207 463v-51h2951q88 0 130 -42.5t42 -129.5v-68q0 -87 -42 -129.5t-130 -42.5h-2920q-89 0 -131 42.5t-42 130.5v287q0 118 61.5 179t179.5 61h2994v-124h-2981q-112 0 -112 -113zM3123 288h-2916v-94q0 -38 15.5 -54t52.5 -16h2848q35 0 50 15.5t15 52.5v29
q0 36 -15 51.5t-50 15.5z" />
    <glyph glyph-name="seven" unicode="7" 
d="M3098 412q51 0 72 20t21 72v72h-3158v124h3300v-202q0 -210 -210 -210h-1712q-51 0 -71.5 -20t-20.5 -72v-196h-142v202q0 210 209 210h1712z" />
    <glyph glyph-name="eight" unicode="8" 
d="M3325 532v-31q0 -70 -31.5 -107t-111.5 -44q80 -7 111.5 -44t31.5 -107v-31q0 -87 -40 -127.5t-128 -40.5h-2928q-87 0 -127.5 40.5t-40.5 127.5v31q0 70 31.5 107t110.5 44q-79 7 -110.5 44t-31.5 107v31q0 87 40.5 127.5t127.5 40.5h2928q88 0 128 -40.5t40 -127.5z
M270 412h2846q37 0 52 15.5t15 52.5v28q0 37 -15 52.5t-50 15.5h-2850q-35 0 -50 -15.5t-15 -52.5v-28q0 -37 15 -52.5t52 -15.5zM3116 288h-2846q-37 0 -52 -15.5t-15 -52.5v-28q0 -37 15 -52.5t50 -15.5h2850q35 0 50 15.5t15 52.5v28q0 37 -15 52.5t-52 15.5z" />
    <glyph glyph-name="nine" unicode="9" 
d="M3148 700q89 0 131 -42.5t42 -130.5v-287q0 -118 -61.5 -179t-179.5 -61h-2994v124h2981q112 0 112 113v51h-2951q-88 0 -130 42.5t-42 129.5v68q0 87 42 129.5t130 42.5h2920zM198 508v-29q0 -36 15 -51.5t50 -15.5h2916v94q0 38 -15.5 54t-52.5 16h-2848
q-35 0 -50 -15.5t-15 -52.5z" />
    <glyph glyph-name="colon" unicode=":" horiz-adv-x="342" 
d="M263 578v-118h-184v118h184zM263 118v-118h-184v118h184z" />
    <glyph glyph-name="semicolon" unicode=";" horiz-adv-x="342" 
d="M263 118v-117q0 -66 -34.5 -103t-100.5 -37h-49v67h38q29 0 41.5 13t12.5 42v18h-92v117h184zM263 578v-118h-184v118h184z" />
    <glyph glyph-name="less" unicode="&#x3c;" 
d="M67 350l360 350h158l-300 -291h3034v-118h-3034l300 -291h-158z" />
    <glyph glyph-name="equal" unicode="=" 
d="M103 154v118h3179v-118h-3179zM103 428v118h3179v-118h-3179z" />
    <glyph glyph-name="greater" unicode="&#x3e;" 
d="M3319 350l-360 -350h-158l300 291h-3034v118h3034l-300 291h158z" />
    <glyph glyph-name="question" unicode="?" horiz-adv-x="3345" 
d="M3162 479v29q0 37 -15.5 52.5t-50.5 15.5h-3064v124h3101q88 0 129.5 -42t41.5 -130v-68q0 -88 -41.5 -130t-129.5 -42h-1452q-32 0 -44.5 -12t-12.5 -45v-39h-142v64q0 82 36.5 119t118.5 37h1459q35 0 50.5 15.5t15.5 51.5zM1647 104v-104h-188v104h188z" />
    <glyph glyph-name="at" unicode="@" horiz-adv-x="3286" 
d="M234 0q-86 0 -126.5 41t-40.5 125v368q0 84 40.5 125t126.5 41h2818q86 0 126.5 -41t40.5 -125v-368q0 -84 -40.5 -125t-126.5 -41h-2818zM238 60h2810q53 0 78 25.5t25 77.5v374q0 52 -25 77.5t-78 25.5h-2810q-103 0 -103 -103v-374q0 -103 103 -103zM2951 188h-2619
q-76 0 -76 79v32q0 78 76 78h2638v48q0 30 -29 30h-2671v56h2678q45 0 66 -21.5t21 -66.5v-150q0 -44 -20 -64.5t-64 -20.5zM346 322q-14 0 -19.5 -5.5t-5.5 -19.5v-28q0 -25 25 -25h2598q26 0 26 27v51h-2624z" />
    <glyph glyph-name="A" unicode="A" horiz-adv-x="3411" 
d="M3337 0h-142v288h-2978v-288h-143v527q0 87 42.5 130t131.5 43h2915q89 0 131.5 -43t42.5 -130v-527zM3127 576h-2843q-37 0 -52 -16t-15 -54v-94h2978v94q0 38 -15.5 54t-52.5 16z" />
    <glyph glyph-name="B" unicode="B" horiz-adv-x="3404" 
d="M3343 199v-31q0 -87 -40.5 -127.5t-127.5 -40.5h-3094v700h3094q87 0 127.5 -40.5t40.5 -127.5v-31q0 -70 -31.5 -107t-111.5 -44q80 -7 111.5 -44t31.5 -107zM3134 412q37 0 52 15.5t15 52.5v28q0 37 -15 52.5t-50 15.5h-2913v-164h2911zM223 288v-164h2913
q35 0 50 15.5t15 52.5v28q0 37 -15 52.5t-52 15.5h-2911z" />
    <glyph glyph-name="C" unicode="C" horiz-adv-x="3309" 
d="M240 0q-89 0 -131 42.5t-42 130.5v354q0 88 42 130.5t131 42.5h3016v-124h-2979q-37 0 -52.5 -16t-15.5 -54v-312q0 -38 15.5 -54t52.5 -16h2979v-124h-3016z" />
    <glyph glyph-name="D" unicode="D" horiz-adv-x="3404" 
d="M3102 700q118 0 179.5 -61t61.5 -179v-220q0 -118 -61.5 -179t-179.5 -61h-3021v700h3021zM3089 124q112 0 112 113v226q0 113 -112 113h-2866v-452h2866z" />
    <glyph glyph-name="E" unicode="E" horiz-adv-x="3376" 
d="M81 0v700h3242v-124h-3100v-164h2975v-124h-2975v-164h3100v-124h-3242z" />
    <glyph glyph-name="F" unicode="F" horiz-adv-x="3340" 
d="M81 0v700h3227v-124h-3085v-164h2960v-124h-2960v-288h-142z" />
    <glyph glyph-name="G" unicode="G" horiz-adv-x="3403" 
d="M3135 124q37 0 49.5 13t12.5 50v101h-1766v124h1908v-252q0 -86 -36.5 -123t-123.5 -37h-2939q-89 0 -131 42.5t-42 130.5v354q0 88 42 130.5t131 42.5h3074v-124h-3037q-37 0 -52.5 -16t-15.5 -54v-312q0 -38 15.5 -54t52.5 -16h2858z" />
    <glyph glyph-name="H" unicode="H" horiz-adv-x="3434" 
d="M3211 0v288h-2988v-288h-142v700h142v-288h2988v288h142v-700h-142z" />
    <glyph glyph-name="I" unicode="I" horiz-adv-x="304" 
d="M81 0v700h142v-700h-142z" />
    <glyph glyph-name="J" unicode="J" horiz-adv-x="3390" 
d="M53 160v182h142v-155q0 -37 13 -50t49 -13h2849q37 0 52 16t15 54v506h142v-527q0 -88 -42 -130.5t-131 -42.5h-2928q-87 0 -124 37t-37 123z" />
    <glyph glyph-name="K" unicode="K" horiz-adv-x="3411" 
d="M3343 700v-176q0 -82 -34.5 -124.5t-125.5 -49.5q91 -7 125.5 -50t34.5 -124v-176h-142v211q0 41 -17 59t-57 18h-2904v-288h-142v700h142v-288h2904q40 0 57 18t17 59v211h142z" />
    <glyph glyph-name="L" unicode="L" horiz-adv-x="3325" 
d="M3293 125v-125h-3212v700h142v-575h3070z" />
    <glyph glyph-name="M" unicode="M" horiz-adv-x="4010" 
d="M2180 700h1582q89 0 131.5 -43t42.5 -130v-527h-142v506q0 38 -15.5 54t-52.5 16h-1575q-40 0 -57.5 -18t-17.5 -59v-499h-142v499q0 41 -17.5 59t-57.5 18h-1575q-37 0 -52 -16t-15 -54v-506h-143v527q0 87 42.5 130t131.5 43h1583q83 0 124 -34t50 -108q9 74 50.5 108
t124.5 34z" />
    <glyph glyph-name="N" unicode="N" horiz-adv-x="3411" 
d="M284 576q-37 0 -52 -16t-15 -54v-506h-143v527q0 87 42.5 130t131.5 43h2915q89 0 131.5 -43t42.5 -130v-527h-142v506q0 38 -15.5 54t-52.5 16h-2843z" />
    <glyph glyph-name="O" unicode="O" horiz-adv-x="3406" 
d="M240 0q-89 0 -131 42.5t-42 130.5v354q0 88 42 130.5t131 42.5h2926q89 0 131 -42.5t42 -130.5v-354q0 -173 -173 -173h-2926zM3197 193v313q0 38 -15.5 54t-52.5 16h-2852q-36 0 -52 -16t-16 -54v-312q0 -38 15.5 -54t52.5 -16h2852q37 0 52.5 15.5t15.5 53.5z" />
    <glyph glyph-name="P" unicode="P" horiz-adv-x="3374" 
d="M81 0v700h3080q89 0 130.5 -42t41.5 -130v-69q0 -87 -41.5 -129t-130.5 -42h-2938v-288h-142zM3191 508q0 37 -15.5 52.5t-50.5 15.5h-2902v-164h2902q35 0 50.5 15.5t15.5 51.5v29z" />
    <glyph glyph-name="Q" unicode="Q" horiz-adv-x="3406" 
d="M240 0q-89 0 -131 42.5t-42 130.5v354q0 88 42 130.5t131 42.5h2926q89 0 131 -42.5t42 -130.5v-354q0 -173 -173 -173h-1401v-167h-124v167h-1401zM3197 193v313q0 38 -15.5 54t-52.5 16h-2852q-36 0 -52 -16t-16 -54v-312q0 -38 15.5 -54t52.5 -16h1364v171h124v-171
h1364q37 0 52.5 15.5t15.5 53.5z" />
    <glyph glyph-name="R" unicode="R" horiz-adv-x="3410" 
d="M3343 532v-31q0 -72 -33.5 -109t-117.5 -43q86 -9 118.5 -51.5t32.5 -121.5v-176h-142v211q0 41 -17 59t-57 18h-2904v-288h-142v700h3094q87 0 127.5 -40.5t40.5 -127.5zM3134 412q37 0 52 15.5t15 52.5v28q0 37 -15 52.5t-50 15.5h-2913v-164h2911z" />
    <glyph glyph-name="S" unicode="S" horiz-adv-x="3362" 
d="M246 288q-88 0 -130 42.5t-42 129.5v68q0 87 42 129.5t130 42.5h3030v-124h-2994q-35 0 -50.5 -15.5t-15.5 -52.5v-29q0 -36 15.5 -51.5t50.5 -15.5h2852q88 0 130 -42.5t42 -129.5v-68q0 -87 -42 -129.5t-130 -42.5h-3080v124h3045q35 0 50 15.5t15 52.5v29
q0 36 -15 51.5t-50 15.5h-2853z" />
    <glyph glyph-name="T" unicode="T" horiz-adv-x="3334" 
d="M3303 700v-124h-1565v-576h-142v576h-1564v124h3271z" />
    <glyph glyph-name="U" unicode="U" horiz-adv-x="3411" 
d="M248 0q-89 0 -131.5 43t-42.5 130v527h143v-506q0 -38 15 -54t52 -16h2843q37 0 52.5 16t15.5 54v506h142v-527q0 -87 -42.5 -130t-131.5 -43h-2915z" />
    <glyph glyph-name="V" unicode="V" horiz-adv-x="3398" 
d="M81 0v700h142v-576h2851q112 0 112 113v463h142v-460q0 -118 -61.5 -179t-179.5 -61h-3006z" />
    <glyph glyph-name="W" unicode="W" horiz-adv-x="4010" 
d="M3762 0h-1582q-83 0 -124.5 34t-50.5 108q-9 -74 -50 -108t-124 -34h-1583q-89 0 -131.5 43t-42.5 130v527h143v-506q0 -38 15 -54t52 -16h1575q40 0 57.5 18t17.5 59v499h142v-499q0 -41 17.5 -59t57.5 -18h1575q37 0 52.5 16t15.5 54v506h142v-527q0 -87 -42.5 -130
t-131.5 -43z" />
    <glyph glyph-name="X" unicode="X" horiz-adv-x="3408" 
d="M68 524v176h142v-211q0 -41 17 -59t57 -18h2840q40 0 57 18t17 59v211h142v-176q0 -82 -34.5 -124.5t-125.5 -49.5q91 -7 125.5 -50t34.5 -124v-176h-142v211q0 41 -17 59t-57 18h-2840q-40 0 -57 -18t-17 -59v-211h-142v176q0 81 34 124t125 50q-91 7 -125 49.5
t-34 124.5z" />
    <glyph glyph-name="Y" unicode="Y" horiz-adv-x="3378" 
d="M3182 700h142v-239q0 -88 -42 -130.5t-131 -42.5h-1391v-288h-142v288h-1392q-89 0 -131 42.5t-42 130.5v239h142v-219q0 -38 15.5 -53.5t52.5 -15.5h2852q37 0 52 15.5t15 53.5v219z" />
    <glyph glyph-name="Z" unicode="Z" horiz-adv-x="3366" 
d="M3073 412q51 0 72 20t21 72v72h-3080v124h3222v-202q0 -210 -210 -210h-2807q-52 0 -72.5 -20t-20.5 -72v-72h3110v-124h-3252v202q0 210 209 210h2808z" />
    <glyph glyph-name="bracketleft" unicode="[" horiz-adv-x="408" 
d="M81 700h274v-106h-153v-568h153v-106h-274v780z" />
    <glyph glyph-name="backslash" unicode="\" horiz-adv-x="1074" 
d="M211 700l831 -700h-178l-832 700h179z" />
    <glyph glyph-name="bracketright" unicode="]" horiz-adv-x="408" 
d="M53 700h274v-780h-274v106h153v568h-153v106z" />
    <glyph glyph-name="asciicircum" unicode="^" 
d="M1693 720l1626 -323v-119l-1626 323l-1626 -323v119z" />
    <glyph glyph-name="underscore" unicode="_" horiz-adv-x="1500" 
d="M1500 -38v-84h-1500v84h1500z" />
    <glyph glyph-name="grave" unicode="`" horiz-adv-x="750" 
d="M454 657l-354 113h249l281 -113h-176z" />
    <glyph glyph-name="a" unicode="a" horiz-adv-x="3032" 
d="M2834 357v58q0 69 -68 69h-2688v119h2723q88 0 129 -41.5t41 -129.5v-261q0 -88 -41 -129.5t-129 -41.5h-2601q-77 0 -114 37.5t-37 116.5v48q0 80 37 117.5t114 37.5h2634zM2834 246h-2596q-28 0 -40 -12t-12 -40v-22q0 -28 12 -40.5t40 -12.5h2528q68 0 68 69v58z" />
    <glyph glyph-name="b" unicode="b" horiz-adv-x="3026" 
d="M67 171v599h137v-249q14 43 47.5 62.5t94.5 19.5h2450q87 0 128 -41.5t41 -129.5v-261q0 -87 -41 -129t-128 -42h-2558q-89 0 -130 41.5t-41 129.5zM204 415v-227q0 -36 16.5 -52.5t52.5 -16.5h2486q36 0 52.5 16.5t16.5 52.5v227q0 36 -16.5 52.5t-52.5 16.5h-2486
q-36 0 -52.5 -16.5t-16.5 -52.5z" />
    <glyph glyph-name="c" unicode="c" horiz-adv-x="2954" 
d="M231 0q-88 0 -129 41.5t-41 129.5v261q0 88 41 129.5t129 41.5h2672v-119h-2636q-69 0 -69 -69v-227q0 -69 69 -69h2636v-119h-2672z" />
    <glyph glyph-name="d" unicode="d" horiz-adv-x="3026" 
d="M2958 770v-599q0 -88 -41 -129.5t-129 -41.5h-2558q-87 0 -128 42t-41 129v261q0 88 41 129.5t128 41.5h2450q61 0 94.5 -19.5t47.5 -62.5v249h136zM2822 188v227q0 36 -16.5 52.5t-52.5 16.5h-2486q-36 0 -52.5 -16.5t-16.5 -52.5v-227q0 -36 16.5 -52.5t52.5 -16.5
h2486q36 0 52.5 16.5t16.5 52.5z" />
    <glyph glyph-name="e" unicode="e" horiz-adv-x="3032" 
d="M2983 400q0 -80 -36.5 -117t-114.5 -37h-2634v-58q0 -69 69 -69h2686v-119h-2722q-94 0 -132 45.5t-38 141.5v245q0 87 41 129t129 42h2601q78 0 114.5 -37t36.5 -117v-49zM2794 484h-2527q-42 0 -55.5 -20.5t-13.5 -69.5v-37h2596q27 0 40 12t13 40v17q0 32 -11.5 45
t-41.5 13z" />
    <glyph glyph-name="f" unicode="f" horiz-adv-x="2932" 
d="M288 484q-44 0 -64 -19.5t-20 -64.5v-39h2606v-119h-2606v-242h-137v406q0 101 48 149t149 48h2636v-119h-2612z" />
    <glyph glyph-name="g" unicode="g" horiz-adv-x="3026" 
d="M2753 172q36 0 52.5 16.5t16.5 52.5v174q0 69 -69 69h-2486q-69 0 -69 -69v-174q0 -69 69 -69h2486zM2680 53h-2448q-89 0 -130 41.5t-41 129.5v208q0 88 41 129.5t130 41.5h2556q88 0 129 -41.5t41 -129.5v-379q0 -114 -52.5 -167t-166.5 -53h-2638v119h2624
q51 0 74 22.5t23 74.5v86q-14 -43 -47.5 -62.5t-94.5 -19.5z" />
    <glyph glyph-name="h" unicode="h" horiz-adv-x="3028" 
d="M2824 415q0 36 -16.5 52.5t-52.5 16.5h-2476q-36 0 -52 -16.5t-16 -52.5v-415h-137v770h137v-249q13 43 46.5 62.5t95.5 19.5h2439q88 0 128.5 -41.5t40.5 -129.5v-432h-137v415z" />
    <glyph glyph-name="i" unicode="i" horiz-adv-x="455" 
d="M273 119h154v-119h-189q-87 0 -127 40.5t-40 127.5v435h137v-418q0 -34 15.5 -50t49.5 -16zM235 757v-90h-191v90h191z" />
    <glyph glyph-name="j" unicode="j" horiz-adv-x="300" 
d="M-55 -48h83q34 0 49.5 16t15.5 50v585h137v-602q0 -87 -40 -127.5t-128 -40.5h-117v119zM66 667v90h191v-90h-191z" />
    <glyph glyph-name="k" unicode="k" horiz-adv-x="3020" 
d="M2824 419v184h137v-155q0 -132 -128 -147q128 -15 128 -146v-155h-137v183q0 59 -60 59h-2553v-242h-137v770h137v-409h2553q60 0 60 58z" />
    <glyph glyph-name="l" unicode="l" horiz-adv-x="452" 
d="M270 119h154v-119h-189q-88 0 -128 40.5t-40 127.5v602h137v-585q0 -66 66 -66z" />
    <glyph glyph-name="m" unicode="m" horiz-adv-x="3542" 
d="M1771 471q6 71 42.5 101.5t115.5 30.5h1377q87 0 128 -41.5t41 -129.5v-432h-137v415q0 36 -16 52.5t-53 16.5h-1368q-62 0 -62 -63v-421h-136v421q0 63 -62 63h-1368q-36 0 -52.5 -16.5t-16.5 -52.5v-415h-137v432q0 88 41 129.5t128 41.5h1377q79 0 115.5 -30.5
t42.5 -101.5z" />
    <glyph glyph-name="n" unicode="n" horiz-adv-x="3022" 
d="M67 0v432q0 88 41 129.5t128 41.5h2550q87 0 128 -41.5t41 -129.5v-432h-137v415q0 36 -16.5 52.5t-52.5 16.5h-2476q-36 0 -52.5 -16.5t-16.5 -52.5v-415h-137z" />
    <glyph glyph-name="o" unicode="o" horiz-adv-x="3020" 
d="M2788 603q88 0 129 -41.5t41 -129.5v-261q0 -88 -41 -129.5t-129 -41.5h-2557q-88 0 -129 41.5t-41 129.5v261q0 88 41 129.5t129 41.5h2557zM2753 119q69 0 69 69v227q0 69 -69 69h-2486q-69 0 -69 -69v-227q0 -69 69 -69h2486z" />
    <glyph glyph-name="p" unicode="p" horiz-adv-x="3026" 
d="M67 -167v599q0 88 41 129.5t130 41.5h2558q87 0 128 -42t41 -129v-261q0 -88 -41 -129.5t-128 -41.5h-2450q-61 0 -94.5 19.5t-47.5 62.5v-249h-137zM204 415v-227q0 -36 16.5 -52.5t52.5 -16.5h2486q36 0 52.5 16.5t16.5 52.5v227q0 36 -16.5 52.5t-52.5 16.5h-2486
q-36 0 -52.5 -16.5t-16.5 -52.5z" />
    <glyph glyph-name="q" unicode="q" horiz-adv-x="3026" 
d="M2958 432v-599h-136v249q-14 -43 -47.5 -62.5t-94.5 -19.5h-2450q-87 0 -128 41.5t-41 129.5v261q0 87 41 129t128 42h2558q88 0 129 -41.5t41 -129.5zM2822 188v227q0 36 -16.5 52.5t-52.5 16.5h-2486q-36 0 -52.5 -16.5t-16.5 -52.5v-227q0 -36 16.5 -52.5t52.5 -16.5
h2486q36 0 52.5 16.5t16.5 52.5z" />
    <glyph glyph-name="r" unicode="r" horiz-adv-x="2817" 
d="M2785 603v-119h-2512q-69 0 -69 -69v-415h-137v432q0 88 41 129.5t130 41.5h2547z" />
    <glyph glyph-name="s" unicode="s" horiz-adv-x="3004" 
d="M2925 484h-2683q-28 0 -40 -12t-12 -40v-23q0 -28 12 -40t40 -12h2562q77 0 114 -37.5t37 -117.5v-48q0 -79 -37 -116.5t-114 -37.5h-2751v119h2713q28 0 40 12t12 40v22q0 28 -12 40.5t-40 12.5h-2562q-77 0 -114 37.5t-37 116.5v49q0 79 37 116.5t114 37.5h2721v-119z
" />
    <glyph glyph-name="t" unicode="t" horiz-adv-x="2856" 
d="M238 0q-89 0 -130 41.5t-41 129.5v599h137v-167h2601v-119h-2601v-296q0 -36 16.5 -52.5t52.5 -16.5h2532v-119h-2567z" />
    <glyph glyph-name="u" unicode="u" horiz-adv-x="3022" 
d="M2749 119q36 0 52.5 16.5t16.5 52.5v415h137v-432q0 -88 -41 -129.5t-128 -41.5h-2550q-87 0 -128 41.5t-41 129.5v432h137v-415q0 -36 16.5 -52.5t52.5 -16.5h2476z" />
    <glyph glyph-name="v" unicode="v" horiz-adv-x="3015" 
d="M2951 603v-383q0 -114 -53 -167t-167 -53h-2657v603h137v-484h2506q52 0 74.5 22t22.5 75v387h137z" />
    <glyph glyph-name="w" unicode="w" horiz-adv-x="3542" 
d="M1771 132q-6 -71 -42.5 -101.5t-115.5 -30.5h-1377q-87 0 -128 41.5t-41 129.5v432h137v-415q0 -36 16.5 -52.5t52.5 -16.5h1368q62 0 62 63v421h136v-421q0 -63 62 -63h1368q37 0 53 16.5t16 52.5v415h137v-432q0 -88 -41 -129.5t-128 -41.5h-1377q-79 0 -115.5 30.5
t-42.5 101.5z" />
    <glyph glyph-name="x" unicode="x" horiz-adv-x="3032" 
d="M2836 419v184h137v-155q0 -132 -128 -147q128 -15 128 -146v-155h-137v183q0 59 -60 59h-2520q-60 0 -60 -59v-183h-137v155q0 131 128 146q-128 15 -128 147v155h137v-184q0 -58 60 -58h2520q60 0 60 58z" />
    <glyph glyph-name="y" unicode="y" horiz-adv-x="3028" 
d="M2735 -167h-2628v119h2614q51 0 74 22.5t23 74.5v86q-14 -43 -47.5 -62.5t-94.5 -19.5h-2438q-89 0 -130 41.5t-41 129.5v379h137v-362q0 -69 69 -69h2476q36 0 52.5 16.5t16.5 52.5v362h137v-550q0 -114 -53 -167t-167 -53z" />
    <glyph glyph-name="z" unicode="z" horiz-adv-x="3007" 
d="M262 246q-39 0 -57 -18t-18 -57v-52h2767v-119h-2903v160q0 197 197 197h2495q39 0 57 17.5t18 56.5v53h-2742v119h2878v-160q0 -197 -197 -197h-2495z" />
    <glyph glyph-name="braceleft" unicode="{" horiz-adv-x="432" 
d="M252 518v-83q0 -63 -24.5 -93t-80.5 -32q56 -2 80.5 -32t24.5 -93v-83q0 -38 15 -53.5t53 -15.5h64v-113h-92q-88 0 -128.5 41t-40.5 128v119q0 25 -10 35.5t-35 10.5h-42v112h42q25 0 35 10.5t10 35.5v119q0 87 40.5 128t128.5 41h92v-113h-64q-38 0 -53 -15.5
t-15 -53.5z" />
    <glyph glyph-name="bar" unicode="|" horiz-adv-x="328" 
d="M94 -167v907h141v-907h-141z" />
    <glyph glyph-name="braceright" unicode="}" horiz-adv-x="432" 
d="M180 435v83q0 38 -15 53.5t-53 15.5h-64v113h92q88 0 128.5 -41t40.5 -128v-119q0 -25 10 -35.5t35 -10.5h42v-112h-42q-25 0 -35 -10.5t-10 -35.5v-119q0 -87 -40.5 -128t-128.5 -41h-92v113h64q38 0 53 15.5t15 53.5v83q0 63 24.5 93t80.5 32q-56 2 -80.5 32t-24.5 93z
" />
    <glyph glyph-name="asciitilde" unicode="~" 
d="M67 262v121q303 98 719 98q245 0 576.5 -35l663 -70t577.5 -35q413 0 716 97v-121q-305 -98 -723 -98q-197 0 -450 21.5t-458.5 48t-458 48t-448.5 21.5q-411 0 -714 -96z" />
    <glyph glyph-name="uni00A0" unicode="&#xa0;" horiz-adv-x="777" 
 />
    <glyph glyph-name="exclamdown" unicode="&#xa1;" horiz-adv-x="343" 
d="M78 526v104h187v-104h-187zM100 -70v223q0 153 17 278h109q16 -128 16 -278v-223h-142z" />
    <glyph glyph-name="cent" unicode="&#xa2;" 
d="M1674 -40v90h-1437q-89 0 -129.5 41.5t-40.5 129.5v258q0 88 40.5 129.5t129.5 41.5h1437v90h124v-90h1533v-119h-1533v-362h1533v-119h-1533v-90h-124zM272 169h1402v362h-1402q-68 0 -68 -69v-224q0 -69 68 -69z" />
    <glyph glyph-name="sterling" unicode="&#xa3;" 
d="M405 124h2929v-124h-3282v124h210v164h-210v124h210v116q0 87 42 129.5t131 42.5h2799v-124h-2763q-37 0 -51.5 -15t-14.5 -52v-97h2829v-124h-2829v-164z" />
    <glyph glyph-name="currency" unicode="&#xa4;" 
d="M143 480q0 88 40.5 129.5t129.5 41.5h1319v89h123v-89h1318q88 0 129 -41.5t41 -129.5v-70h110v-120h-110v-71q0 -88 -41 -129.5t-129 -41.5h-1318v-88h-123v88h-1319q-89 0 -129.5 41.5t-40.5 129.5v71h-110v120h110v70zM3038 528h-2690q-69 0 -69 -68v-221
q0 -68 69 -68h2690q68 0 68 68v221q0 68 -68 68z" />
    <glyph glyph-name="yen" unicode="&#xa5;" 
d="M3187 700h142v-142q0 -88 -42 -130.5t-131 -42.5h-1392v-123h1535v-124h-1535v-138h-143v138h-1535v124h1535v123h-1392q-89 0 -131 42.5t-42 130.5v142h142v-122q0 -37 15.5 -53t52.5 -16h2853q37 0 52.5 16t15.5 53v122z" />
    <glyph glyph-name="brokenbar" unicode="&#xa6;" horiz-adv-x="328" 
d="M94 -167v394h141v-394h-141zM94 347v393h141v-393h-141z" />
    <glyph glyph-name="section" unicode="&#xa7;" horiz-adv-x="3289" 
d="M248 464h2846q71 0 105 -33.5t34 -104.5v-37q0 -56 -24 -88t-83 -38q59 -6 83 -37t24 -88v-22q0 -76 -36.5 -112t-112.5 -36h-2993v119h2952q29 0 41 12.5t12 40.5v15q0 27 -11.5 38t-39.5 11h-2846q-71 0 -104.5 33t-33.5 105v37q0 57 23.5 88t82.5 37q-59 6 -82.5 37.5
t-23.5 88.5v22q0 76 36 112t112 36h2994v-119h-2953q-28 0 -40.5 -12t-12.5 -40v-15q0 -27 12 -38.5t39 -11.5zM3045 345h-2799q-26 0 -37.5 -11t-11.5 -37v-24q0 -27 11.5 -38.5t39.5 -11.5h2799q26 0 37.5 11t11.5 37v24q0 27 -12 38.5t-39 11.5z" />
    <glyph glyph-name="dieresis" unicode="&#xa8;" horiz-adv-x="750" 
d="M218 757v-90h-166v90h166zM698 757v-90h-166v90h166z" />
    <glyph glyph-name="copyright" unicode="&#xa9;" horiz-adv-x="3286" 
d="M328 188q-44 0 -64.5 21t-20.5 65v151q0 44 20.5 65t64.5 21h2696v-56h-2689q-27 0 -27 -27v-157q0 -27 27 -27h2689v-56h-2696zM234 0q-86 0 -126.5 41t-40.5 125v368q0 84 40.5 125t126.5 41h2818q86 0 126.5 -41t40.5 -125v-368q0 -84 -40.5 -125t-126.5 -41h-2818z
M238 60h2810q53 0 78 25.5t25 77.5v374q0 52 -25 77.5t-78 25.5h-2810q-103 0 -103 -103v-374q0 -103 103 -103z" />
    <glyph glyph-name="ordfeminine" unicode="&#xaa;" horiz-adv-x="2416" 
d="M2240 485v67q0 24 -9.5 33.5t-32.5 9.5h-2128v105h2165q64 0 94.5 -30.5t30.5 -94.5v-284q0 -64 -30.5 -94.5t-94.5 -30.5h-2063q-64 0 -94.5 30.5t-30.5 94.5v70q0 63 30.5 93.5t94.5 30.5h2068zM166 338v-23q0 -25 10 -34.5t33 -9.5h1989q23 0 32.5 9.5t9.5 33.5v67
h-2031q-23 0 -33 -10t-10 -33zM1194 124l95 -124h-190z" />
    <glyph glyph-name="guillemotleft" unicode="&#xab;" horiz-adv-x="826" 
d="M472 51h-164l-273 249l273 249h164l-277 -249zM792 51h-164l-273 249l273 249h164l-277 -249z" />
    <glyph glyph-name="logicalnot" unicode="&#xac;" 
d="M67 291v118h3252v-409h-118v291h-3134z" />
    <glyph glyph-name="uni00AD" unicode="&#xad;" horiz-adv-x="1140" 
d="M1090 388v-122h-1040v122h1040z" />
    <glyph glyph-name="registered" unicode="&#xae;" horiz-adv-x="3286" 
d="M234 0q-86 0 -126.5 41t-40.5 125v368q0 84 40.5 125t126.5 41h2818q86 0 126.5 -41t40.5 -125v-368q0 -84 -40.5 -125t-126.5 -41h-2818zM238 60h2810q53 0 78 25.5t25 77.5v374q0 52 -25 77.5t-78 25.5h-2810q-103 0 -103 -103v-374q0 -103 103 -103zM3035 414
q0 -60 -63 -65q63 -5 63 -68v-93h-65v110q0 24 -22 24h-2629v-134h-65v323h2716q65 0 65 -66v-31zM2970 435q0 20 -21 20h-2630v-78h2630q21 0 21 21v37z" />
    <glyph glyph-name="macron" unicode="&#xaf;" horiz-adv-x="750" 
d="M686 676h-622v77h622v-77z" />
    <glyph glyph-name="degree" unicode="&#xb0;" horiz-adv-x="1383" 
d="M46 545q0 155 164 155h963q165 0 165 -155v-81q0 -155 -165 -155h-963q-164 0 -164 155v81zM241 586q-36 0 -50 -14.5t-14 -49.5v-35q0 -36 14 -50t50 -14h902q36 0 50 14t14 50v35q0 35 -14 49.5t-50 14.5h-902z" />
    <glyph glyph-name="plusminus" unicode="&#xb1;" 
d="M67 291v118h1566v291h118v-291h1568v-118h-1568v-173h1568v-118h-3252v118h1566v173h-1566z" />
    <glyph glyph-name="twosuperior" unicode="&#xb2;" horiz-adv-x="1818" 
d="M1652 530v20q0 25 -10 35t-34 10h-1538v105h1577q64 0 94 -30.5t30 -94.5v-70q0 -63 -30 -93.5t-94 -30.5h-1412q-37 0 -51 -14t-14 -50v-46h1601v-105h-1720v168q0 151 151 151h1406q24 0 34 10t10 35z" />
    <glyph glyph-name="threesuperior" unicode="&#xb3;" horiz-adv-x="1818" 
d="M1767 578v-37q0 -48 -23.5 -75t-83.5 -33q60 -6 83.5 -33t23.5 -75v-37q0 -63 -29 -92.5t-93 -29.5h-1598v105h1557q24 0 34 10t10 35v20q0 24 -10 34.5t-34 10.5h-1464v104h1464q23 0 33.5 10.5t10.5 34.5v20q0 25 -10 35t-34 10h-1557v105h1598q64 0 93 -29.5t29 -92.5
z" />
    <glyph glyph-name="acute" unicode="&#xb4;" horiz-adv-x="750" 
d="M654 770l-360 -113h-176l279 113h257z" />
    <glyph glyph-name="uni00B5" unicode="&#xb5;" horiz-adv-x="3028" 
d="M279 119h2476q36 0 52.5 16.5t16.5 52.5v415h137v-432q0 -88 -40.5 -129.5t-128.5 -41.5h-2439q-62 0 -95.5 19.5t-46.5 62.5v-249h-137v770h137v-415q0 -36 16 -52.5t52 -16.5z" />
    <glyph glyph-name="paragraph" unicode="&#xb6;" horiz-adv-x="2834" 
d="M2753 700v-832h-137v713h-184v-713h-137v407h-2074q-92 0 -136 44.5t-44 135.5v65q0 91 44 135.5t136 44.5h2532z" />
    <glyph glyph-name="periodcentered" unicode="&#xb7;" horiz-adv-x="342" 
d="M263 409v-118h-184v118h184z" />
    <glyph glyph-name="cedilla" unicode="&#xb8;" horiz-adv-x="750" 
d="M351 -45h210q68 0 95 -14t27 -49q0 -43 -36.5 -65t-127.5 -22h-452v83h452q30 0 42 5.5t12 19.5q0 11 -8.5 15t-32.5 4h-220l33 68h26z" />
    <glyph glyph-name="onesuperior" unicode="&#xb9;" horiz-adv-x="1818" 
d="M114 166v105h871v324h-872v105h991v-429h651v-105h-1641z" />
    <glyph glyph-name="ordmasculine" unicode="&#xba;" horiz-adv-x="2425" 
d="M56 291v284q0 64 30 94.5t95 30.5h2064q64 0 94.5 -30.5t30.5 -94.5v-284q0 -64 -30.5 -94.5t-94.5 -30.5h-2064q-65 0 -95 30.5t-30 94.5zM2209 271q22 0 31.5 9.5t9.5 33.5v238q0 24 -9.5 33.5t-31.5 9.5h-1991q-23 0 -33 -9.5t-10 -33.5v-238q0 -24 10 -33.5t33 -9.5
h1991zM1203 124l95 -124h-190z" />
    <glyph glyph-name="guillemotright" unicode="&#xbb;" horiz-adv-x="826" 
d="M518 51h-164l277 249l-277 249h164l273 -249zM198 51h-164l277 249l-277 249h164l273 -249z" />
    <glyph glyph-name="onequarter" unicode="&#xbc;" horiz-adv-x="4229" 
d="M1641 0l792 700h155l-792 -700h-155zM114 166v105h871v324h-872v105h991v-429h651v-105h-1641zM4037 319v215h119v-534h-119v215h-1453q-64 0 -94.5 30.5t-30.5 93.5v195h120v-171q0 -44 43 -44h1415z" />
    <glyph glyph-name="onehalf" unicode="&#xbd;" horiz-adv-x="4229" 
d="M1641 0l792 700h155l-792 -700h-155zM114 166v105h871v324h-872v105h991v-429h651v-105h-1641zM4063 364v20q0 25 -10 35t-34 10h-1538v105h1577q64 0 94 -30.5t30 -94.5v-70q0 -63 -30 -93.5t-94 -30.5h-1412q-37 0 -51 -14t-14 -50v-46h1601v-105h-1720v168
q0 151 151 151h1406q24 0 34 10t10 35z" />
    <glyph glyph-name="threequarters" unicode="&#xbe;" horiz-adv-x="4229" 
d="M1641 0l792 700h155l-792 -700h-155zM4037 319v215h119v-534h-119v215h-1453q-64 0 -94.5 30.5t-30.5 93.5v195h120v-171q0 -44 43 -44h1415zM1767 578v-37q0 -48 -23.5 -75t-83.5 -33q60 -6 83.5 -33t23.5 -75v-37q0 -63 -29 -92.5t-93 -29.5h-1598v105h1557q24 0 34 10
t10 35v20q0 24 -10 34.5t-34 10.5h-1464v104h1464q23 0 33.5 10.5t10.5 34.5v20q0 25 -10 35t-34 10h-1557v105h1598q64 0 93 -29.5t29 -92.5z" />
    <glyph glyph-name="questiondown" unicode="&#xbf;" horiz-adv-x="3344" 
d="M183 151v-29q0 -37 15.5 -52.5t50.5 -15.5h3064v-124h-3101q-88 0 -129.5 42t-41.5 130v68q0 88 41.5 130t129.5 42h1452q32 0 44.5 12t12.5 45v39h142v-64q0 -82 -36.5 -119t-118.5 -37h-1459q-35 0 -50.5 -15.5t-15.5 -51.5zM1698 526v104h188v-104h-188z" />
    <glyph glyph-name="Agrave" unicode="&#xc0;" horiz-adv-x="3411" 
d="M3337 0h-142v288h-2978v-288h-143v527q0 87 42.5 130t131.5 43h2915q89 0 131.5 -43t42.5 -130v-527zM3127 576h-2843q-37 0 -52 -16t-15 -54v-94h2978v94q0 38 -15.5 54t-52.5 16zM1704 759l-354 113h249l281 -113h-176z" />
    <glyph glyph-name="Aacute" unicode="&#xc1;" horiz-adv-x="3411" 
d="M3337 0h-142v288h-2978v-288h-143v527q0 87 42.5 130t131.5 43h2915q89 0 131.5 -43t42.5 -130v-527zM3127 576h-2843q-37 0 -52 -16t-15 -54v-94h2978v94q0 38 -15.5 54t-52.5 16zM2064 872l-360 -113h-176l279 113h257z" />
    <glyph glyph-name="Acircumflex" unicode="&#xc2;" horiz-adv-x="3411" 
d="M3337 0h-142v288h-2978v-288h-143v527q0 87 42.5 130t131.5 43h2915q89 0 131.5 -43t42.5 -130v-527zM3127 576h-2843q-37 0 -52 -16t-15 -54v-94h2978v94q0 38 -15.5 54t-52.5 16zM1705 821l-208 -62h-155l247 113h232l247 -113h-155z" />
    <glyph glyph-name="Atilde" unicode="&#xc3;" horiz-adv-x="3411" 
d="M3337 0h-142v288h-2978v-288h-143v527q0 87 42.5 130t131.5 43h2915q89 0 131.5 -43t42.5 -130v-527zM3127 576h-2843q-37 0 -52 -16t-15 -54v-94h2978v94q0 38 -15.5 54t-52.5 16zM1396 749v87q82 53 168 53q54 0 150.5 -29t145.5 -29q78 0 154 54v-87q-82 -53 -169 -53
q-55 0 -151 29t-145 29q-79 0 -153 -54z" />
    <glyph glyph-name="Adieresis" unicode="&#xc4;" horiz-adv-x="3411" 
d="M3337 0h-142v288h-2978v-288h-143v527q0 87 42.5 130t131.5 43h2915q89 0 131.5 -43t42.5 -130v-527zM3127 576h-2843q-37 0 -52 -16t-15 -54v-94h2978v94q0 38 -15.5 54t-52.5 16zM1549 859v-90h-166v90h166zM2029 859v-90h-166v90h166z" />
    <glyph glyph-name="Aring" unicode="&#xc5;" horiz-adv-x="3411" 
d="M3337 0h-142v288h-2978v-288h-143v527q0 87 42.5 130t131.5 43h2915q89 0 131.5 -43t42.5 -130v-527zM3127 576h-2843q-37 0 -52 -16t-15 -54v-94h2978v94q0 38 -15.5 54t-52.5 16zM1532 831q0 -26 31 -26h284q31 0 31 26q0 25 -31 25h-284q-31 0 -31 -25zM1837 752h-264
q-54 0 -76 20t-22 59q0 38 22 58t76 20h264q54 0 76 -20t22 -58q0 -39 -22 -59t-76 -20z" />
    <glyph glyph-name="AE" unicode="&#xc6;" horiz-adv-x="5227" 
d="M2565 0v288h-2348v-288h-143v527q0 87 42.5 130t131.5 43h4926v-124h-2467v-164h2342v-124h-2342v-164h2467v-124h-2609zM284 576q-37 0 -52 -16t-15 -54v-94h2348v164h-2281z" />
    <glyph glyph-name="Ccedilla" unicode="&#xc7;" horiz-adv-x="3309" 
d="M1667 0h-1427q-89 0 -131 42.5t-42 130.5v354q0 88 42 130.5t131 42.5h3016v-124h-2979q-37 0 -52.5 -16t-15.5 -54v-312q0 -38 15.5 -54t52.5 -16h2979v-124h-1563l-20 -45h210q68 0 95 -14t27 -49q0 -43 -36.5 -65t-127.5 -22h-452v83h452q30 0 42 5.5t12 19.5
q0 11 -8.5 15t-32.5 4h-220z" />
    <glyph glyph-name="Egrave" unicode="&#xc8;" horiz-adv-x="3376" 
d="M81 0v700h3242v-124h-3100v-164h2975v-124h-2975v-164h3100v-124h-3242zM1721 759l-354 113h249l281 -113h-176z" />
    <glyph glyph-name="Eacute" unicode="&#xc9;" horiz-adv-x="3376" 
d="M81 0v700h3242v-124h-3100v-164h2975v-124h-2975v-164h3100v-124h-3242zM2075 872l-360 -113h-176l279 113h257z" />
    <glyph glyph-name="Ecircumflex" unicode="&#xca;" horiz-adv-x="3376" 
d="M81 0v700h3242v-124h-3100v-164h2975v-124h-2975v-164h3100v-124h-3242zM1722 821l-208 -62h-155l247 113h232l247 -113h-155z" />
    <glyph glyph-name="Edieresis" unicode="&#xcb;" horiz-adv-x="3376" 
d="M81 0v700h3242v-124h-3100v-164h2975v-124h-2975v-164h3100v-124h-3242zM1566 859v-90h-166v90h166zM2046 859v-90h-166v90h166z" />
    <glyph glyph-name="Igrave" unicode="&#xcc;" horiz-adv-x="304" 
d="M81 0v700h142v-700h-142zM171 759l-354 113h249l281 -113h-176z" />
    <glyph glyph-name="Iacute" unicode="&#xcd;" horiz-adv-x="304" 
d="M81 0v700h142v-700h-142zM491 872l-360 -113h-176l279 113h257z" />
    <glyph glyph-name="Icircumflex" unicode="&#xce;" horiz-adv-x="304" 
d="M81 0v700h142v-700h-142zM152 821l-208 -62h-155l247 113h232l247 -113h-155z" />
    <glyph glyph-name="Idieresis" unicode="&#xcf;" horiz-adv-x="304" 
d="M399 859v-90h-166v90h166zM72 859v-90h-166v90h166zM81 0v700h142v-700h-142z" />
    <glyph glyph-name="Eth" unicode="&#xd0;" horiz-adv-x="3404" 
d="M3102 700q118 0 179.5 -61t61.5 -179v-220q0 -118 -61.5 -179t-179.5 -61h-3021v288h-74v124h74v288h3021zM3089 124q112 0 112 113v226q0 113 -112 113h-2866v-164h449v-124h-449v-164h2866z" />
    <glyph glyph-name="Ntilde" unicode="&#xd1;" horiz-adv-x="3411" 
d="M284 576q-37 0 -52 -16t-15 -54v-506h-143v527q0 87 42.5 130t131.5 43h2915q89 0 131.5 -43t42.5 -130v-527h-142v506q0 38 -15.5 54t-52.5 16h-2843zM1396 749v87q82 53 168 53q54 0 150.5 -29t145.5 -29q78 0 154 54v-87q-82 -53 -169 -53q-55 0 -151 29t-145 29
q-79 0 -153 -54z" />
    <glyph glyph-name="Ograve" unicode="&#xd2;" horiz-adv-x="3406" 
d="M240 0q-89 0 -131 42.5t-42 130.5v354q0 88 42 130.5t131 42.5h2926q89 0 131 -42.5t42 -130.5v-354q0 -173 -173 -173h-2926zM3197 193v313q0 38 -15.5 54t-52.5 16h-2852q-36 0 -52 -16t-16 -54v-312q0 -38 15.5 -54t52.5 -16h2852q37 0 52.5 15.5t15.5 53.5zM1701 759
l-354 113h249l281 -113h-176z" />
    <glyph glyph-name="Oacute" unicode="&#xd3;" horiz-adv-x="3406" 
d="M240 0q-89 0 -131 42.5t-42 130.5v354q0 88 42 130.5t131 42.5h2926q89 0 131 -42.5t42 -130.5v-354q0 -173 -173 -173h-2926zM3197 193v313q0 38 -15.5 54t-52.5 16h-2852q-36 0 -52 -16t-16 -54v-312q0 -38 15.5 -54t52.5 -16h2852q37 0 52.5 15.5t15.5 53.5zM2062 872
l-360 -113h-176l279 113h257z" />
    <glyph glyph-name="Ocircumflex" unicode="&#xd4;" horiz-adv-x="3406" 
d="M240 0q-89 0 -131 42.5t-42 130.5v354q0 88 42 130.5t131 42.5h2926q89 0 131 -42.5t42 -130.5v-354q0 -173 -173 -173h-2926zM3197 193v313q0 38 -15.5 54t-52.5 16h-2852q-36 0 -52 -16t-16 -54v-312q0 -38 15.5 -54t52.5 -16h2852q37 0 52.5 15.5t15.5 53.5zM1702 821
l-208 -62h-155l247 113h232l247 -113h-155z" />
    <glyph glyph-name="Otilde" unicode="&#xd5;" horiz-adv-x="3406" 
d="M240 0q-89 0 -131 42.5t-42 130.5v354q0 88 42 130.5t131 42.5h2926q89 0 131 -42.5t42 -130.5v-354q0 -173 -173 -173h-2926zM3197 193v313q0 38 -15.5 54t-52.5 16h-2852q-36 0 -52 -16t-16 -54v-312q0 -38 15.5 -54t52.5 -16h2852q37 0 52.5 15.5t15.5 53.5zM1393 749
v87q82 53 168 53q54 0 150.5 -29t145.5 -29q78 0 154 54v-87q-82 -53 -169 -53q-54 0 -151 29t-145 29q-79 0 -153 -54z" />
    <glyph glyph-name="Odieresis" unicode="&#xd6;" horiz-adv-x="3406" 
d="M240 0q-89 0 -131 42.5t-42 130.5v354q0 88 42 130.5t131 42.5h2926q89 0 131 -42.5t42 -130.5v-354q0 -173 -173 -173h-2926zM3197 193v313q0 38 -15.5 54t-52.5 16h-2852q-36 0 -52 -16t-16 -54v-312q0 -38 15.5 -54t52.5 -16h2852q37 0 52.5 15.5t15.5 53.5zM1546 859
v-90h-166v90h166zM2026 859v-90h-166v90h166z" />
    <glyph glyph-name="multiply" unicode="&#xd7;" 
d="M1846 291l271 -291h-156l-269 291l-268 -291h-156l271 291h-1472v118h1472l-271 291h156l268 -291l269 291h156l-271 -291h1473v-118h-1473z" />
    <glyph glyph-name="Oslash" unicode="&#xd8;" horiz-adv-x="3406" 
d="M240 0q-89 0 -131 42.5t-42 130.5v354q0 88 42 130.5t131 42.5h2926q89 0 131 -42.5t42 -130.5v-354q0 -173 -173 -173h-2926zM3197 193v313q0 38 -15.5 54t-52.5 16h-17l-2281 -452h2298q37 0 52.5 15.5t15.5 53.5zM294 124l2281 452h-2298q-36 0 -52 -16t-16 -54v-312
q0 -38 15.5 -54t52.5 -16h17z" />
    <glyph glyph-name="Ugrave" unicode="&#xd9;" horiz-adv-x="3411" 
d="M248 0q-89 0 -131.5 43t-42.5 130v527h143v-506q0 -38 15 -54t52 -16h2843q37 0 52.5 16t15.5 54v506h142v-527q0 -87 -42.5 -130t-131.5 -43h-2915zM1704 759l-354 113h249l281 -113h-176z" />
    <glyph glyph-name="Uacute" unicode="&#xda;" horiz-adv-x="3411" 
d="M248 0q-89 0 -131.5 43t-42.5 130v527h143v-506q0 -38 15 -54t52 -16h2843q37 0 52.5 16t15.5 54v506h142v-527q0 -87 -42.5 -130t-131.5 -43h-2915zM2055 872l-360 -113h-176l279 113h257z" />
    <glyph glyph-name="Ucircumflex" unicode="&#xdb;" horiz-adv-x="3411" 
d="M248 0q-89 0 -131.5 43t-42.5 130v527h143v-506q0 -38 15 -54t52 -16h2843q37 0 52.5 16t15.5 54v506h142v-527q0 -87 -42.5 -130t-131.5 -43h-2915zM1705 821l-208 -62h-155l247 113h232l247 -113h-155z" />
    <glyph glyph-name="Udieresis" unicode="&#xdc;" horiz-adv-x="3411" 
d="M248 0q-89 0 -131.5 43t-42.5 130v527h143v-506q0 -38 15 -54t52 -16h2843q37 0 52.5 16t15.5 54v506h142v-527q0 -87 -42.5 -130t-131.5 -43h-2915zM1549 859v-90h-166v90h166zM2029 859v-90h-166v90h166z" />
    <glyph glyph-name="Yacute" unicode="&#xdd;" horiz-adv-x="3378" 
d="M3182 700h142v-239q0 -88 -42 -130.5t-131 -42.5h-1391v-288h-142v288h-1392q-89 0 -131 42.5t-42 130.5v239h142v-219q0 -38 15.5 -53.5t52.5 -15.5h2852q37 0 52 15.5t15 53.5v219zM2045 872l-360 -113h-176l279 113h257z" />
    <glyph glyph-name="Thorn" unicode="&#xde;" horiz-adv-x="3374" 
d="M81 0v700h142v-97h2938q89 0 130.5 -42t41.5 -130v-69q0 -87 -41.5 -129t-130.5 -42h-2938v-191h-142zM3191 411q0 37 -15.5 52.5t-50.5 15.5h-2902v-164h2902q35 0 50.5 15.5t15.5 51.5v29z" />
    <glyph glyph-name="germandbls" unicode="&#xdf;" horiz-adv-x="3052" 
d="M2812 246h-2237v111h2237q28 0 39.5 11t11.5 39v25q0 28 -12.5 40t-40.5 12h-2518q-46 0 -67 -20t-21 -67v-397h-137v410q0 98 47.5 145.5t146.5 47.5h2597q75 0 108.5 -33t33.5 -105v-38q0 -57 -24 -88.5t-83 -37.5q59 -6 83 -37t24 -88v-38q0 -72 -35 -105t-107 -33
h-2283v119h2235q28 0 40.5 12.5t12.5 40.5v25q0 26 -11.5 37.5t-39.5 11.5z" />
    <glyph glyph-name="agrave" unicode="&#xe0;" horiz-adv-x="3032" 
d="M2834 357v58q0 69 -68 69h-2688v119h2723q88 0 129 -41.5t41 -129.5v-261q0 -88 -41 -129.5t-129 -41.5h-2601q-77 0 -114 37.5t-37 116.5v48q0 80 37 117.5t114 37.5h2634zM2834 246h-2596q-28 0 -40 -12t-12 -40v-22q0 -28 12 -40.5t40 -12.5h2528q68 0 68 69v58z
M1505 657l-354 113h249l281 -113h-176z" />
    <glyph glyph-name="aacute" unicode="&#xe1;" horiz-adv-x="3032" 
d="M2834 357v58q0 69 -68 69h-2688v119h2723q88 0 129 -41.5t41 -129.5v-261q0 -88 -41 -129.5t-129 -41.5h-2601q-77 0 -114 37.5t-37 116.5v48q0 80 37 117.5t114 37.5h2634zM2834 246h-2596q-28 0 -40 -12t-12 -40v-22q0 -28 12 -40.5t40 -12.5h2528q68 0 68 69v58z
M1855 770l-360 -113h-176l279 113h257z" />
    <glyph glyph-name="acircumflex" unicode="&#xe2;" horiz-adv-x="3032" 
d="M2834 357v58q0 69 -68 69h-2688v119h2723q88 0 129 -41.5t41 -129.5v-261q0 -88 -41 -129.5t-129 -41.5h-2601q-77 0 -114 37.5t-37 116.5v48q0 80 37 117.5t114 37.5h2634zM2834 246h-2596q-28 0 -40 -12t-12 -40v-22q0 -28 12 -40.5t40 -12.5h2528q68 0 68 69v58z
M1506 719l-208 -62h-155l247 113h232l247 -113h-155z" />
    <glyph glyph-name="atilde" unicode="&#xe3;" horiz-adv-x="3032" 
d="M2834 357v58q0 69 -68 69h-2688v119h2723q88 0 129 -41.5t41 -129.5v-261q0 -88 -41 -129.5t-129 -41.5h-2601q-77 0 -114 37.5t-37 116.5v48q0 80 37 117.5t114 37.5h2634zM2834 246h-2596q-28 0 -40 -12t-12 -40v-22q0 -28 12 -40.5t40 -12.5h2528q68 0 68 69v58z
M1197 647v87q82 53 168 53q54 0 150.5 -29t145.5 -29q78 0 154 54v-87q-82 -53 -169 -53q-54 0 -151 29t-145 29q-79 0 -153 -54z" />
    <glyph glyph-name="adieresis" unicode="&#xe4;" horiz-adv-x="3032" 
d="M2834 357v58q0 69 -68 69h-2688v119h2723q88 0 129 -41.5t41 -129.5v-261q0 -88 -41 -129.5t-129 -41.5h-2601q-77 0 -114 37.5t-37 116.5v48q0 80 37 117.5t114 37.5h2634zM2834 246h-2596q-28 0 -40 -12t-12 -40v-22q0 -28 12 -40.5t40 -12.5h2528q68 0 68 69v58z
M1349 757v-90h-166v90h166zM1829 757v-90h-166v90h166z" />
    <glyph glyph-name="aring" unicode="&#xe5;" horiz-adv-x="3032" 
d="M2834 357v58q0 69 -68 69h-2688v119h2723q88 0 129 -41.5t41 -129.5v-261q0 -88 -41 -129.5t-129 -41.5h-2601q-77 0 -114 37.5t-37 116.5v48q0 80 37 117.5t114 37.5h2634zM2834 246h-2596q-28 0 -40 -12t-12 -40v-22q0 -28 12 -40.5t40 -12.5h2528q68 0 68 69v58z
M1333 729q0 -26 31 -26h284q31 0 31 26q0 25 -31 25h-284q-31 0 -31 -25zM1638 650h-264q-54 0 -76 20t-22 59q0 38 22 58t76 20h264q54 0 76 -20t22 -58q0 -39 -22 -59t-76 -20z" />
    <glyph glyph-name="ae" unicode="&#xe6;" horiz-adv-x="4527" 
d="M4341 409v23q0 28 -12 40t-40 12h-1896q-61 0 -61 -63v-64h1957q28 0 40 12t12 40zM186 194v-22q0 -28 12 -40.5t40 -12.5h1896q61 0 61 63v64h-1957q-28 0 -40 -12t-12 -40zM2106 0h-1906q-77 0 -114 37.5t-37 116.5v48q0 80 37 117.5t114 37.5h1995v64q0 63 -61 63
h-2057v119h2029q78 0 114.5 -30.5t42.5 -101.5q6 71 42.5 101.5t115.5 30.5h1906q77 0 114 -37.5t37 -116.5v-49q0 -79 -37 -116.5t-114 -37.5h-1995v-64q0 -63 61 -63h2057v-119h-2029q-79 0 -115.5 30.5t-42.5 101.5q-6 -71 -42.5 -101.5t-114.5 -30.5z" />
    <glyph glyph-name="ccedilla" unicode="&#xe7;" horiz-adv-x="2954" 
d="M1486 0h-1255q-88 0 -129 41.5t-41 129.5v261q0 88 41 129.5t129 41.5h2672v-119h-2636q-69 0 -69 -69v-227q0 -69 69 -69h2636v-119h-1391l-20 -45h210q68 0 95 -14t27 -49q0 -43 -36.5 -65t-127.5 -22h-452v83h452q30 0 42 5.5t12 19.5q0 11 -8.5 15t-32.5 4h-220z" />
    <glyph glyph-name="egrave" unicode="&#xe8;" horiz-adv-x="3032" 
d="M2983 400q0 -80 -36.5 -117t-114.5 -37h-2634v-58q0 -69 69 -69h2686v-119h-2722q-94 0 -132 45.5t-38 141.5v245q0 87 41 129t129 42h2601q78 0 114.5 -37t36.5 -117v-49zM2794 484h-2527q-42 0 -55.5 -20.5t-13.5 -69.5v-37h2596q27 0 40 12t13 40v17q0 32 -11.5 45
t-41.5 13zM1542 657l-354 113h249l281 -113h-176z" />
    <glyph glyph-name="eacute" unicode="&#xe9;" horiz-adv-x="3032" 
d="M2983 400q0 -80 -36.5 -117t-114.5 -37h-2634v-58q0 -69 69 -69h2686v-119h-2722q-94 0 -132 45.5t-38 141.5v245q0 87 41 129t129 42h2601q78 0 114.5 -37t36.5 -117v-49zM2794 484h-2527q-42 0 -55.5 -20.5t-13.5 -69.5v-37h2596q27 0 40 12t13 40v17q0 32 -11.5 45
t-41.5 13zM1902 770l-360 -113h-176l279 113h257z" />
    <glyph glyph-name="ecircumflex" unicode="&#xea;" horiz-adv-x="3032" 
d="M2983 400q0 -80 -36.5 -117t-114.5 -37h-2634v-58q0 -69 69 -69h2686v-119h-2722q-94 0 -132 45.5t-38 141.5v245q0 87 41 129t129 42h2601q78 0 114.5 -37t36.5 -117v-49zM2794 484h-2527q-42 0 -55.5 -20.5t-13.5 -69.5v-37h2596q27 0 40 12t13 40v17q0 32 -11.5 45
t-41.5 13zM1543 719l-208 -62h-155l247 113h232l247 -113h-155z" />
    <glyph glyph-name="edieresis" unicode="&#xeb;" horiz-adv-x="3032" 
d="M2983 400q0 -80 -36.5 -117t-114.5 -37h-2634v-58q0 -69 69 -69h2686v-119h-2722q-94 0 -132 45.5t-38 141.5v245q0 87 41 129t129 42h2601q78 0 114.5 -37t36.5 -117v-49zM2794 484h-2527q-42 0 -55.5 -20.5t-13.5 -69.5v-37h2596q27 0 40 12t13 40v17q0 32 -11.5 45
t-41.5 13zM1387 757v-90h-166v90h166zM1867 757v-90h-166v90h166z" />
    <glyph glyph-name="igrave" unicode="&#xec;" horiz-adv-x="455" 
d="M218 657l-354 113h249l281 -113h-176zM273 119h154v-119h-189q-87 0 -127 40.5t-40 127.5v435h137v-418q0 -34 15.5 -50t49.5 -16z" />
    <glyph glyph-name="iacute" unicode="&#xed;" horiz-adv-x="455" 
d="M478 770l-360 -113h-176l279 113h257zM273 119h154v-119h-189q-87 0 -127 40.5t-40 127.5v435h137v-418q0 -34 15.5 -50t49.5 -16z" />
    <glyph glyph-name="icircumflex" unicode="&#xee;" horiz-adv-x="455" 
d="M273 119h154v-119h-189q-87 0 -127 40.5t-40 127.5v435h137v-418q0 -34 15.5 -50t49.5 -16zM139 719l-208 -62h-155l247 113h232l247 -113h-155z" />
    <glyph glyph-name="idieresis" unicode="&#xef;" horiz-adv-x="455" 
d="M385 757v-90h-166v90h166zM58 757v-90h-166v90h166zM273 119h154v-119h-189q-87 0 -127 40.5t-40 127.5v435h137v-418q0 -34 15.5 -50t49.5 -16z" />
    <glyph glyph-name="eth" unicode="&#xf0;" horiz-adv-x="3026" 
d="M232 555h2448q61 0 94.5 -19.5t47.5 -62.5v82q0 52 -23 74t-74 22h-1187v-58h-108v58h-1329v120h1329v49h108v-49h1201q114 0 166.5 -53.5t52.5 -167.5v-378q0 -88 -41 -129.5t-129 -41.5h-2556q-89 0 -130 41.5t-41 129.5v211q0 88 41 130t130 42zM2753 435h-2486
q-36 0 -52.5 -16.5t-16.5 -51.5v-178q0 -36 16.5 -52.5t52.5 -16.5h2486q69 0 69 69v178q0 35 -16 51.5t-53 16.5z" />
    <glyph glyph-name="ntilde" unicode="&#xf1;" horiz-adv-x="3022" 
d="M67 0v432q0 88 41 129.5t128 41.5h2550q87 0 128 -41.5t41 -129.5v-432h-137v415q0 36 -16.5 52.5t-52.5 16.5h-2476q-36 0 -52.5 -16.5t-16.5 -52.5v-415h-137zM1202 647v87q82 53 168 53q54 0 150.5 -29t145.5 -29q78 0 154 54v-87q-82 -53 -169 -53q-55 0 -151 29
t-145 29q-79 0 -153 -54z" />
    <glyph glyph-name="ograve" unicode="&#xf2;" horiz-adv-x="3020" 
d="M2788 603q88 0 129 -41.5t41 -129.5v-261q0 -88 -41 -129.5t-129 -41.5h-2557q-88 0 -129 41.5t-41 129.5v261q0 88 41 129.5t129 41.5h2557zM2753 119q69 0 69 69v227q0 69 -69 69h-2486q-69 0 -69 -69v-227q0 -69 69 -69h2486zM1509 657l-354 113h249l281 -113h-176z
" />
    <glyph glyph-name="oacute" unicode="&#xf3;" horiz-adv-x="3020" 
d="M2788 603q88 0 129 -41.5t41 -129.5v-261q0 -88 -41 -129.5t-129 -41.5h-2557q-88 0 -129 41.5t-41 129.5v261q0 88 41 129.5t129 41.5h2557zM2753 119q69 0 69 69v227q0 69 -69 69h-2486q-69 0 -69 -69v-227q0 -69 69 -69h2486zM1869 770l-360 -113h-176l279 113h257z
" />
    <glyph glyph-name="ocircumflex" unicode="&#xf4;" horiz-adv-x="3020" 
d="M2788 603q88 0 129 -41.5t41 -129.5v-261q0 -88 -41 -129.5t-129 -41.5h-2557q-88 0 -129 41.5t-41 129.5v261q0 88 41 129.5t129 41.5h2557zM2753 119q69 0 69 69v227q0 69 -69 69h-2486q-69 0 -69 -69v-227q0 -69 69 -69h2486zM1510 719l-208 -62h-155l247 113h232
l247 -113h-155z" />
    <glyph glyph-name="otilde" unicode="&#xf5;" horiz-adv-x="3020" 
d="M2788 603q88 0 129 -41.5t41 -129.5v-261q0 -88 -41 -129.5t-129 -41.5h-2557q-88 0 -129 41.5t-41 129.5v261q0 88 41 129.5t129 41.5h2557zM2753 119q69 0 69 69v227q0 69 -69 69h-2486q-69 0 -69 -69v-227q0 -69 69 -69h2486zM1201 647v87q82 53 168 53
q54 0 150.5 -29t145.5 -29q78 0 154 54v-87q-82 -53 -169 -53q-54 0 -151 29t-145 29q-79 0 -153 -54z" />
    <glyph glyph-name="odieresis" unicode="&#xf6;" horiz-adv-x="3020" 
d="M2788 603q88 0 129 -41.5t41 -129.5v-261q0 -88 -41 -129.5t-129 -41.5h-2557q-88 0 -129 41.5t-41 129.5v261q0 88 41 129.5t129 41.5h2557zM2753 119q69 0 69 69v227q0 69 -69 69h-2486q-69 0 -69 -69v-227q0 -69 69 -69h2486zM1353 757v-90h-166v90h166zM1833 757v-90
h-166v90h166z" />
    <glyph glyph-name="divide" unicode="&#xf7;" 
d="M1785 140v-117h-185v117h185zM1785 677v-117h-185v117h185zM3319 291h-3252v118h3252v-118z" />
    <glyph glyph-name="oslash" unicode="&#xf8;" horiz-adv-x="3020" 
d="M2788 603q88 0 129 -41.5t41 -129.5v-261q0 -88 -41 -129.5t-129 -41.5h-2557q-88 0 -129 41.5t-41 129.5v261q0 88 41 129.5t129 41.5h2557zM2753 119q69 0 69 69v227q0 68 -67 69l-1966 -365h1964zM264 119l1965 365h-1962q-69 0 -69 -69v-227q0 -68 66 -69z" />
    <glyph glyph-name="ugrave" unicode="&#xf9;" horiz-adv-x="3022" 
d="M2749 119q36 0 52.5 16.5t16.5 52.5v415h137v-432q0 -88 -41 -129.5t-128 -41.5h-2550q-87 0 -128 41.5t-41 129.5v432h137v-415q0 -36 16.5 -52.5t52.5 -16.5h2476zM1513 657l-354 113h249l281 -113h-176z" />
    <glyph glyph-name="uacute" unicode="&#xfa;" horiz-adv-x="3022" 
d="M2749 119q36 0 52.5 16.5t16.5 52.5v415h137v-432q0 -88 -41 -129.5t-128 -41.5h-2550q-87 0 -128 41.5t-41 129.5v432h137v-415q0 -36 16.5 -52.5t52.5 -16.5h2476zM1870 770l-360 -113h-176l279 113h257z" />
    <glyph glyph-name="ucircumflex" unicode="&#xfb;" horiz-adv-x="3022" 
d="M2749 119q36 0 52.5 16.5t16.5 52.5v415h137v-432q0 -88 -41 -129.5t-128 -41.5h-2550q-87 0 -128 41.5t-41 129.5v432h137v-415q0 -36 16.5 -52.5t52.5 -16.5h2476zM1511 719l-208 -62h-155l247 113h232l247 -113h-155z" />
    <glyph glyph-name="udieresis" unicode="&#xfc;" horiz-adv-x="3022" 
d="M2749 119q36 0 52.5 16.5t16.5 52.5v415h137v-432q0 -88 -41 -129.5t-128 -41.5h-2550q-87 0 -128 41.5t-41 129.5v432h137v-415q0 -36 16.5 -52.5t52.5 -16.5h2476zM1354 757v-90h-166v90h166zM1834 757v-90h-166v90h166z" />
    <glyph glyph-name="yacute" unicode="&#xfd;" horiz-adv-x="3028" 
d="M2735 -167h-2628v119h2614q51 0 74 22.5t23 74.5v86q-14 -43 -47.5 -62.5t-94.5 -19.5h-2438q-89 0 -130 41.5t-41 129.5v379h137v-362q0 -69 69 -69h2476q36 0 52.5 16.5t16.5 52.5v362h137v-550q0 -114 -53 -167t-167 -53zM1873 770l-360 -113h-176l279 113h257z" />
    <glyph glyph-name="thorn" unicode="&#xfe;" horiz-adv-x="3032" 
d="M211 770v-167h2591q87 0 128 -41.5t41 -129.5v-261q0 -87 -41 -129t-128 -42h-2449q-62 0 -95.5 19.5t-46.5 62.5v-249h-137v937h137zM211 484v-296q0 -36 16 -52.5t52 -16.5h2487q36 0 52 16.5t16 52.5v227q0 36 -16 52.5t-52 16.5h-2555z" />
    <glyph glyph-name="ydieresis" unicode="&#xff;" horiz-adv-x="3028" 
d="M2735 -167h-2628v119h2614q51 0 74 22.5t23 74.5v86q-14 -43 -47.5 -62.5t-94.5 -19.5h-2438q-89 0 -130 41.5t-41 129.5v379h137v-362q0 -69 69 -69h2476q36 0 52.5 16.5t16.5 52.5v362h137v-550q0 -114 -53 -167t-167 -53zM1357 757v-90h-166v90h166zM1837 757v-90
h-166v90h166z" />
    <glyph glyph-name="Amacron" unicode="&#x100;" horiz-adv-x="3411" 
d="M3337 0h-142v288h-2978v-288h-143v527q0 87 42.5 130t131.5 43h2915q89 0 131.5 -43t42.5 -130v-527zM3127 576h-2843q-37 0 -52 -16t-15 -54v-94h2978v94q0 38 -15.5 54t-52.5 16zM2016 778h-622v77h622v-77z" />
    <glyph glyph-name="amacron" unicode="&#x101;" horiz-adv-x="3032" 
d="M2834 357v58q0 69 -68 69h-2688v119h2723q88 0 129 -41.5t41 -129.5v-261q0 -88 -41 -129.5t-129 -41.5h-2601q-77 0 -114 37.5t-37 116.5v48q0 80 37 117.5t114 37.5h2634zM2834 246h-2596q-28 0 -40 -12t-12 -40v-22q0 -28 12 -40.5t40 -12.5h2528q68 0 68 69v58z
M1817 676h-622v77h622v-77z" />
    <glyph glyph-name="Abreve" unicode="&#x102;" horiz-adv-x="3411" 
d="M3337 0h-142v288h-2978v-288h-143v527q0 87 42.5 130t131.5 43h2915q89 0 131.5 -43t42.5 -130v-527zM3127 576h-2843q-37 0 -52 -16t-15 -54v-94h2978v94q0 38 -15.5 54t-52.5 16zM1396 814v81q122 -62 309 -62t309 62v-81q-115 -67 -309 -67t-309 67z" />
    <glyph glyph-name="abreve" unicode="&#x103;" horiz-adv-x="3032" 
d="M2834 357v58q0 69 -68 69h-2688v119h2723q88 0 129 -41.5t41 -129.5v-261q0 -88 -41 -129.5t-129 -41.5h-2601q-77 0 -114 37.5t-37 116.5v48q0 80 37 117.5t114 37.5h2634zM2834 246h-2596q-28 0 -40 -12t-12 -40v-22q0 -28 12 -40.5t40 -12.5h2528q68 0 68 69v58z
M1197 712v81q122 -62 309 -62t309 62v-81q-115 -67 -309 -67t-309 67z" />
    <glyph glyph-name="Aogonek" unicode="&#x104;" horiz-adv-x="3411" 
d="M3127 576h-2843q-37 0 -52 -16t-15 -54v-94h2978v94q0 38 -15.5 54t-52.5 16zM3253 0h-58v288h-2978v-288h-143v527q0 87 42.5 130t131.5 43h2915q89 0 131.5 -43t42.5 -130v-527h-57v-67h-40q-196 0 -292 -4t-118 -10t-22 -18q0 -13 34 -13h488v-83h-496q-69 0 -97.5 13
t-28.5 49q0 21 5 33.5t24.5 23.5t51 16.5t92 10t139 5.5t200.5 1h33v43z" />
    <glyph glyph-name="aogonek" unicode="&#x105;" horiz-adv-x="3032" 
d="M2914 -67h-40q-196 0 -292 -4t-118 -10t-22 -18q0 -13 34 -13h488v-83h-496q-69 0 -97.5 13t-28.5 49q0 21 5 33.5t24.5 23.5t51 16.5t92 10t139 5.5t200.5 1h33v57q-34 -14 -86 -14h-2601q-77 0 -114 37.5t-37 116.5v48q0 80 37 117.5t114 37.5h2634v58q0 69 -68 69
h-2688v119h2723q88 0 129 -41.5t41 -129.5v-261q0 -104 -57 -143v-95zM2834 246h-2596q-28 0 -40 -12t-12 -40v-22q0 -28 12 -40.5t40 -12.5h2528q68 0 68 69v58z" />
    <glyph glyph-name="Cacute" unicode="&#x106;" horiz-adv-x="3309" 
d="M240 0q-89 0 -131 42.5t-42 130.5v354q0 88 42 130.5t131 42.5h3016v-124h-2979q-37 0 -52.5 -16t-15.5 -54v-312q0 -38 15.5 -54t52.5 -16h2979v-124h-3016zM2061 872l-360 -113h-176l279 113h257z" />
    <glyph glyph-name="cacute" unicode="&#x107;" horiz-adv-x="2954" 
d="M231 0q-88 0 -129 41.5t-41 129.5v261q0 88 41 129.5t129 41.5h2672v-119h-2636q-69 0 -69 -69v-227q0 -69 69 -69h2636v-119h-2672zM1886 770l-360 -113h-176l279 113h257z" />
    <glyph glyph-name="Ccircumflex" unicode="&#x108;" horiz-adv-x="3309" 
d="M240 0q-89 0 -131 42.5t-42 130.5v354q0 88 42 130.5t131 42.5h3016v-124h-2979q-37 0 -52.5 -16t-15.5 -54v-312q0 -38 15.5 -54t52.5 -16h2979v-124h-3016zM1705 821l-208 -62h-155l247 113h232l247 -113h-155z" />
    <glyph glyph-name="ccircumflex" unicode="&#x109;" horiz-adv-x="2954" 
d="M231 0q-88 0 -129 41.5t-41 129.5v261q0 88 41 129.5t129 41.5h2672v-119h-2636q-69 0 -69 -69v-227q0 -69 69 -69h2636v-119h-2672zM1527 719l-208 -62h-155l247 113h232l247 -113h-155z" />
    <glyph glyph-name="Cdotaccent" unicode="&#x10a;" horiz-adv-x="3309" 
d="M240 0q-89 0 -131 42.5t-42 130.5v354q0 88 42 130.5t131 42.5h3016v-124h-2979q-37 0 -52.5 -16t-15.5 -54v-312q0 -38 15.5 -54t52.5 -16h2979v-124h-3016zM1788 859v-90h-166v90h166z" />
    <glyph glyph-name="cdotaccent" unicode="&#x10b;" horiz-adv-x="2954" 
d="M231 0q-88 0 -129 41.5t-41 129.5v261q0 88 41 129.5t129 41.5h2672v-119h-2636q-69 0 -69 -69v-227q0 -69 69 -69h2636v-119h-2672zM1610 757v-90h-166v90h166z" />
    <glyph glyph-name="Ccaron" unicode="&#x10c;" horiz-adv-x="3309" 
d="M240 0q-89 0 -131 42.5t-42 130.5v354q0 88 42 130.5t131 42.5h3016v-124h-2979q-37 0 -52.5 -16t-15.5 -54v-312q0 -38 15.5 -54t52.5 -16h2979v-124h-3016zM1497 872l208 -62l208 62h155l-247 -113h-232l-247 113h155z" />
    <glyph glyph-name="ccaron" unicode="&#x10d;" horiz-adv-x="2954" 
d="M231 0q-88 0 -129 41.5t-41 129.5v261q0 88 41 129.5t129 41.5h2672v-119h-2636q-69 0 -69 -69v-227q0 -69 69 -69h2636v-119h-2672zM1319 770l208 -62l208 62h155l-247 -113h-232l-247 113h155z" />
    <glyph glyph-name="Dcaron" unicode="&#x10e;" horiz-adv-x="3404" 
d="M3102 700q118 0 179.5 -61t61.5 -179v-220q0 -118 -61.5 -179t-179.5 -61h-3021v700h3021zM3089 124q112 0 112 113v226q0 113 -112 113h-2866v-452h2866zM1479 872l208 -62l208 62h155l-247 -113h-232l-247 113h155z" />
    <glyph glyph-name="dcaron" unicode="&#x10f;" horiz-adv-x="3335" 
d="M2958 770v-599q0 -88 -41 -129.5t-129 -41.5h-2558q-87 0 -128 42t-41 129v261q0 88 41 129.5t128 41.5h2450q61 0 94.5 -19.5t47.5 -62.5v249h136zM2822 188v227q0 36 -16.5 52.5t-52.5 16.5h-2486q-36 0 -52.5 -16.5t-16.5 -52.5v-227q0 -36 16.5 -52.5t52.5 -16.5
h2486q36 0 52.5 16.5t16.5 52.5zM3272 700v-117q0 -66 -34.5 -103t-100.5 -37h-49v67h38q29 0 41.5 13t12.5 42v18h-92v117h184z" />
    <glyph glyph-name="Dcroat" unicode="&#x110;" horiz-adv-x="3404" 
d="M3102 700q118 0 179.5 -61t61.5 -179v-220q0 -118 -61.5 -179t-179.5 -61h-3021v288h-74v124h74v288h3021zM3089 124q112 0 112 113v226q0 113 -112 113h-2866v-164h449v-124h-449v-164h2866z" />
    <glyph glyph-name="dcroat" unicode="&#x111;" horiz-adv-x="3026" 
d="M2958 770v-54h68v-76h-68v-469q0 -88 -41 -129.5t-129 -41.5h-2558q-87 0 -128 42t-41 129v261q0 88 41 129.5t128 41.5h2450q61 0 94.5 -19.5t47.5 -62.5v119h-419v76h419v54h136zM2822 188v227q0 36 -16.5 52.5t-52.5 16.5h-2486q-36 0 -52.5 -16.5t-16.5 -52.5v-227
q0 -36 16.5 -52.5t52.5 -16.5h2486q36 0 52.5 16.5t16.5 52.5z" />
    <glyph glyph-name="Emacron" unicode="&#x112;" horiz-adv-x="3376" 
d="M81 0v700h3242v-124h-3100v-164h2975v-124h-2975v-164h3100v-124h-3242zM2033 778h-622v77h622v-77z" />
    <glyph glyph-name="emacron" unicode="&#x113;" horiz-adv-x="3032" 
d="M2983 400q0 -80 -36.5 -117t-114.5 -37h-2634v-58q0 -69 69 -69h2686v-119h-2722q-94 0 -132 45.5t-38 141.5v245q0 87 41 129t129 42h2601q78 0 114.5 -37t36.5 -117v-49zM2794 484h-2527q-42 0 -55.5 -20.5t-13.5 -69.5v-37h2596q27 0 40 12t13 40v17q0 32 -11.5 45
t-41.5 13zM1854 676h-622v77h622v-77z" />
    <glyph glyph-name="Ebreve" unicode="&#x114;" horiz-adv-x="3376" 
d="M81 0v700h3242v-124h-3100v-164h2975v-124h-2975v-164h3100v-124h-3242zM1413 814v81q122 -62 309 -62t309 62v-81q-115 -67 -309 -67t-309 67z" />
    <glyph glyph-name="ebreve" unicode="&#x115;" horiz-adv-x="3032" 
d="M2983 400q0 -80 -36.5 -117t-114.5 -37h-2634v-58q0 -69 69 -69h2686v-119h-2722q-94 0 -132 45.5t-38 141.5v245q0 87 41 129t129 42h2601q78 0 114.5 -37t36.5 -117v-49zM2794 484h-2527q-42 0 -55.5 -20.5t-13.5 -69.5v-37h2596q27 0 40 12t13 40v17q0 32 -11.5 45
t-41.5 13zM1234 712v81q122 -62 309 -62t309 62v-81q-115 -67 -309 -67t-309 67z" />
    <glyph glyph-name="Edotaccent" unicode="&#x116;" horiz-adv-x="3376" 
d="M81 0v700h3242v-124h-3100v-164h2975v-124h-2975v-164h3100v-124h-3242zM1805 859v-90h-166v90h166z" />
    <glyph glyph-name="edotaccent" unicode="&#x117;" horiz-adv-x="3032" 
d="M2983 400q0 -80 -36.5 -117t-114.5 -37h-2634v-58q0 -69 69 -69h2686v-119h-2722q-94 0 -132 45.5t-38 141.5v245q0 87 41 129t129 42h2601q78 0 114.5 -37t36.5 -117v-49zM2794 484h-2527q-42 0 -55.5 -20.5t-13.5 -69.5v-37h2596q27 0 40 12t13 40v17q0 32 -11.5 45
t-41.5 13zM1626 757v-90h-166v90h166z" />
    <glyph glyph-name="Eogonek" unicode="&#x118;" horiz-adv-x="3376" 
d="M3273 0v-67h-40q-196 0 -292 -4t-118 -10t-22 -18q0 -13 34 -13h488v-83h-496q-69 0 -97.5 13t-28.5 49q0 21 5 33.5t24.5 23.5t51 16.5t92 10t139 5.5t200.5 1h33v43h-3165v700h3242v-124h-3100v-164h2975v-124h-2975v-164h3100v-124h-50z" />
    <glyph glyph-name="eogonek" unicode="&#x119;" horiz-adv-x="3032" 
d="M2794 484h-2527q-42 0 -55.5 -20.5t-13.5 -69.5v-37h2596q27 0 40 12t13 40v17q0 32 -11.5 45t-41.5 13zM2893 -43v43h-2662q-94 0 -132 45.5t-38 141.5v245q0 87 41 129t129 42h2601q78 0 114.5 -37t36.5 -117v-49q0 -80 -36.5 -117t-114.5 -37h-2634v-58q0 -69 69 -69
h2686v-119h-33v-67h-57q-196 0 -292 -4t-118 -10t-22 -18q0 -13 34 -13h488v-83h-496q-69 0 -97.5 13t-28.5 49q0 21 5 33.5t24.5 23.5t51 16.5t92 10t139 5.5t200.5 1h50z" />
    <glyph glyph-name="Ecaron" unicode="&#x11a;" horiz-adv-x="3376" 
d="M81 0v700h3242v-124h-3100v-164h2975v-124h-2975v-164h3100v-124h-3242zM1514 872l208 -62l208 62h155l-247 -113h-232l-247 113h155z" />
    <glyph glyph-name="ecaron" unicode="&#x11b;" horiz-adv-x="3032" 
d="M2983 400q0 -80 -36.5 -117t-114.5 -37h-2634v-58q0 -69 69 -69h2686v-119h-2722q-94 0 -132 45.5t-38 141.5v245q0 87 41 129t129 42h2601q78 0 114.5 -37t36.5 -117v-49zM2794 484h-2527q-42 0 -55.5 -20.5t-13.5 -69.5v-37h2596q27 0 40 12t13 40v17q0 32 -11.5 45
t-41.5 13zM1335 770l208 -62l208 62h155l-247 -113h-232l-247 113h155z" />
    <glyph glyph-name="Gcircumflex" unicode="&#x11c;" horiz-adv-x="3403" 
d="M3135 124q37 0 49.5 13t12.5 50v101h-1766v124h1908v-252q0 -86 -36.5 -123t-123.5 -37h-2939q-89 0 -131 42.5t-42 130.5v354q0 88 42 130.5t131 42.5h3074v-124h-3037q-37 0 -52.5 -16t-15.5 -54v-312q0 -38 15.5 -54t52.5 -16h2858zM1718 821l-208 -62h-155l247 113
h232l247 -113h-155z" />
    <glyph glyph-name="gcircumflex" unicode="&#x11d;" horiz-adv-x="3026" 
d="M2753 172q36 0 52.5 16.5t16.5 52.5v174q0 69 -69 69h-2486q-69 0 -69 -69v-174q0 -69 69 -69h2486zM2680 53h-2448q-89 0 -130 41.5t-41 129.5v208q0 88 41 129.5t130 41.5h2556q88 0 129 -41.5t41 -129.5v-379q0 -114 -52.5 -167t-166.5 -53h-2638v119h2624
q51 0 74 22.5t23 74.5v86q-14 -43 -47.5 -62.5t-94.5 -19.5zM1513 719l-208 -62h-155l247 113h232l247 -113h-155z" />
    <glyph glyph-name="Gbreve" unicode="&#x11e;" horiz-adv-x="3403" 
d="M3135 124q37 0 49.5 13t12.5 50v101h-1766v124h1908v-252q0 -86 -36.5 -123t-123.5 -37h-2939q-89 0 -131 42.5t-42 130.5v354q0 88 42 130.5t131 42.5h3074v-124h-3037q-37 0 -52.5 -16t-15.5 -54v-312q0 -38 15.5 -54t52.5 -16h2858zM1409 814v81q122 -62 309 -62
t309 62v-81q-115 -67 -309 -67t-309 67z" />
    <glyph glyph-name="gbreve" unicode="&#x11f;" horiz-adv-x="3026" 
d="M2753 172q36 0 52.5 16.5t16.5 52.5v174q0 69 -69 69h-2486q-69 0 -69 -69v-174q0 -69 69 -69h2486zM2680 53h-2448q-89 0 -130 41.5t-41 129.5v208q0 88 41 129.5t130 41.5h2556q88 0 129 -41.5t41 -129.5v-379q0 -114 -52.5 -167t-166.5 -53h-2638v119h2624
q51 0 74 22.5t23 74.5v86q-14 -43 -47.5 -62.5t-94.5 -19.5zM1204 712v81q122 -62 309 -62t309 62v-81q-115 -67 -309 -67t-309 67z" />
    <glyph glyph-name="Gdotaccent" unicode="&#x120;" horiz-adv-x="3403" 
d="M3135 124q37 0 49.5 13t12.5 50v101h-1766v124h1908v-252q0 -86 -36.5 -123t-123.5 -37h-2939q-89 0 -131 42.5t-42 130.5v354q0 88 42 130.5t131 42.5h3074v-124h-3037q-37 0 -52.5 -16t-15.5 -54v-312q0 -38 15.5 -54t52.5 -16h2858zM1801 859v-90h-166v90h166z" />
    <glyph glyph-name="gdotaccent" unicode="&#x121;" horiz-adv-x="3026" 
d="M2753 172q36 0 52.5 16.5t16.5 52.5v174q0 69 -69 69h-2486q-69 0 -69 -69v-174q0 -69 69 -69h2486zM2680 53h-2448q-89 0 -130 41.5t-41 129.5v208q0 88 41 129.5t130 41.5h2556q88 0 129 -41.5t41 -129.5v-379q0 -114 -52.5 -167t-166.5 -53h-2638v119h2624
q51 0 74 22.5t23 74.5v86q-14 -43 -47.5 -62.5t-94.5 -19.5zM1596 757v-90h-166v90h166z" />
    <glyph glyph-name="uni0122" unicode="&#x122;" horiz-adv-x="3403" 
d="M3135 124q37 0 49.5 13t12.5 50v101h-1766v124h1908v-252q0 -86 -36.5 -123t-123.5 -37h-2939q-89 0 -131 42.5t-42 130.5v354q0 88 42 130.5t131 42.5h3074v-124h-3037q-37 0 -52.5 -16t-15.5 -54v-312q0 -38 15.5 -54t52.5 -16h2858zM1801 -68v-73q0 -56 -29.5 -87.5
t-85.5 -31.5h-48v41h43q24 0 34.5 11t10.5 36v14h-91v90h166z" />
    <glyph glyph-name="uni0123" unicode="&#x123;" horiz-adv-x="3026" 
d="M1430 667v73q0 56 29.5 87.5t85.5 31.5h48v-41h-43q-24 0 -34.5 -11t-10.5 -36v-14h91v-90h-166zM2753 172q36 0 52.5 16.5t16.5 52.5v174q0 69 -69 69h-2486q-69 0 -69 -69v-174q0 -69 69 -69h2486zM2680 53h-2448q-89 0 -130 41.5t-41 129.5v208q0 88 41 129.5
t130 41.5h2556q88 0 129 -41.5t41 -129.5v-379q0 -114 -52.5 -167t-166.5 -53h-2638v119h2624q51 0 74 22.5t23 74.5v86q-14 -43 -47.5 -62.5t-94.5 -19.5z" />
    <glyph glyph-name="Hcircumflex" unicode="&#x124;" horiz-adv-x="3434" 
d="M3211 0v288h-2988v-288h-142v700h142v-288h2988v288h142v-700h-142zM1716 821l-208 -62h-155l247 113h232l247 -113h-155z" />
    <glyph glyph-name="hcircumflex" unicode="&#x125;" horiz-adv-x="3028" 
d="M2824 415q0 36 -16.5 52.5t-52.5 16.5h-2476q-36 0 -52 -16.5t-16 -52.5v-415h-137v770h137v-249q13 43 46.5 62.5t95.5 19.5h2439q88 0 128.5 -41.5t40.5 -129.5v-432h-137v415zM1545 719l-208 -62h-155l247 113h232l247 -113h-155z" />
    <glyph glyph-name="Hbar" unicode="&#x126;" horiz-adv-x="3434" 
d="M3211 0v288h-2988v-288h-142v502h-49v92h49v106h142v-106h2988v106h142v-106h49v-92h-49v-502h-142zM223 412h2988v90h-2988v-90z" />
    <glyph glyph-name="hbar" unicode="&#x127;" horiz-adv-x="3028" 
d="M2824 415q0 36 -16.5 52.5t-52.5 16.5h-2476q-36 0 -52 -16.5t-16 -52.5v-415h-137v640h-74v76h74v54h137v-54h412v-76h-412v-119q13 43 46.5 62.5t95.5 19.5h2439q88 0 128.5 -41.5t40.5 -129.5v-432h-137v415z" />
    <glyph glyph-name="Itilde" unicode="&#x128;" horiz-adv-x="304" 
d="M81 0v700h142v-700h-142zM-157 749v87q82 53 168 53q54 0 150.5 -29t145.5 -29q78 0 154 54v-87q-82 -53 -169 -53q-54 0 -151 29t-145 29q-79 0 -153 -54z" />
    <glyph glyph-name="itilde" unicode="&#x129;" horiz-adv-x="455" 
d="M-170 647v87q82 53 168 53q54 0 150.5 -29t145.5 -29q78 0 154 54v-87q-82 -53 -169 -53q-55 0 -151 29t-145 29q-79 0 -153 -54zM273 119h154v-119h-189q-87 0 -127 40.5t-40 127.5v435h137v-418q0 -34 15.5 -50t49.5 -16z" />
    <glyph glyph-name="Imacron" unicode="&#x12a;" horiz-adv-x="304" 
d="M397 780h-490v73h490v-73zM81 0v700h142v-700h-142z" />
    <glyph glyph-name="imacron" unicode="&#x12b;" horiz-adv-x="455" 
d="M384 678h-490v73h490v-73zM273 119h154v-119h-189q-87 0 -127 40.5t-40 127.5v435h137v-418q0 -34 15.5 -50t49.5 -16z" />
    <glyph glyph-name="Ibreve" unicode="&#x12c;" horiz-adv-x="304" 
d="M81 0v700h142v-700h-142zM-157 814v81q122 -62 309 -62t309 62v-81q-115 -67 -309 -67t-309 67z" />
    <glyph glyph-name="ibreve" unicode="&#x12d;" horiz-adv-x="455" 
d="M-170 712v81q122 -62 309 -62t309 62v-81q-115 -67 -309 -67t-309 67zM273 119h154v-119h-189q-87 0 -127 40.5t-40 127.5v435h137v-418q0 -34 15.5 -50t49.5 -16z" />
    <glyph glyph-name="Iogonek" unicode="&#x12e;" horiz-adv-x="304" 
d="M81 0v700h142v-700h-24v-67h-27q-103 0 -155.5 -4.5t-63.5 -10.5t-11 -17q0 -13 34 -13h256v-83h-263q-69 0 -98 13t-29 48q0 24 9.5 39t29.5 26t60.5 16.5t93.5 7.5t137 2v43h-91z" />
    <glyph glyph-name="iogonek" unicode="&#x12f;" horiz-adv-x="455" 
d="M273 119h154v-119h-33v-67h-60q-84 0 -129 -4.5t-56 -10.5t-11 -17q0 -13 34 -13h255v-83h-263q-68 0 -97 13.5t-29 48.5q0 56 61.5 73t234.5 17v43h-96q-87 0 -127 40.5t-40 127.5v435h137v-418q0 -34 15.5 -50t49.5 -16zM235 757v-90h-191v90h191z" />
    <glyph glyph-name="Idotaccent" unicode="&#x130;" horiz-adv-x="304" 
d="M81 0v700h142v-700h-142zM235 859v-90h-166v90h166z" />
    <glyph glyph-name="dotlessi" unicode="&#x131;" horiz-adv-x="455" 
d="M273 119h154v-119h-189q-87 0 -127 40.5t-40 127.5v435h137v-418q0 -34 15.5 -50t49.5 -16z" />
    <glyph glyph-name="IJ" unicode="&#x132;" horiz-adv-x="3694" 
d="M81 0v700h142v-700h-142zM357 160v182h142v-155q0 -37 13 -50t49 -13h2849q37 0 52 16t15 54v506h142v-527q0 -88 -42 -130.5t-131 -42.5h-2928q-87 0 -124 37t-37 123z" />
    <glyph glyph-name="Jcircumflex" unicode="&#x134;" horiz-adv-x="3390" 
d="M53 160v182h142v-155q0 -37 13 -50t49 -13h2849q37 0 52 16t15 54v506h142v-527q0 -88 -42 -130.5t-131 -42.5h-2928q-87 0 -124 37t-37 123zM3045 821l-208 -62h-155l247 113h232l247 -113h-155z" />
    <glyph glyph-name="jcircumflex" unicode="&#x135;" horiz-adv-x="300" 
d="M-55 -48h83q34 0 49.5 16t15.5 50v585h137v-602q0 -87 -40 -127.5t-128 -40.5h-117v119zM163 719l-208 -62h-155l247 113h232l247 -113h-155z" />
    <glyph glyph-name="uni0136" unicode="&#x136;" horiz-adv-x="3411" 
d="M3343 700v-176q0 -82 -34.5 -124.5t-125.5 -49.5q91 -7 125.5 -50t34.5 -124v-176h-142v211q0 41 -17 59t-57 18h-2904v-288h-142v700h142v-288h2904q40 0 57 18t17 59v211h142zM1788 -68v-73q0 -56 -29.5 -87.5t-85.5 -31.5h-48v41h43q24 0 34.5 11t10.5 36v14h-91v90
h166z" />
    <glyph glyph-name="uni0137" unicode="&#x137;" horiz-adv-x="3020" 
d="M2824 419v184h137v-155q0 -132 -128 -147q128 -15 128 -146v-155h-137v183q0 59 -60 59h-2553v-242h-137v770h137v-409h2553q60 0 60 58zM1620 -68v-73q0 -56 -29.5 -87.5t-85.5 -31.5h-48v41h43q24 0 34.5 11t10.5 36v14h-91v90h166z" />
    <glyph glyph-name="kgreenlandic" unicode="&#x138;" horiz-adv-x="3020" 
d="M2824 419v184h137v-155q0 -132 -128 -147q128 -15 128 -146v-155h-137v183q0 59 -60 59h-2553v-242h-137v603h137v-242h2553q60 0 60 58z" />
    <glyph glyph-name="Lacute" unicode="&#x139;" horiz-adv-x="3325" 
d="M3293 125v-125h-3212v700h142v-575h3070zM552 872l-360 -113h-176l279 113h257z" />
    <glyph glyph-name="lacute" unicode="&#x13a;" horiz-adv-x="452" 
d="M270 119h154v-119h-189q-88 0 -128 40.5t-40 127.5v602h137v-585q0 -66 66 -66zM475 938l-360 -113h-176l279 113h257z" />
    <glyph glyph-name="uni013B" unicode="&#x13b;" horiz-adv-x="3325" 
d="M3293 125v-125h-3212v700h142v-575h3070zM1748 -68v-73q0 -56 -29.5 -87.5t-85.5 -31.5h-48v41h43q24 0 34.5 11t10.5 36v14h-91v90h166z" />
    <glyph glyph-name="uni013C" unicode="&#x13c;" horiz-adv-x="452" 
d="M270 119h154v-119h-189q-88 0 -128 40.5t-40 127.5v602h137v-585q0 -66 66 -66zM309 -68v-73q0 -56 -29.5 -87.5t-85.5 -31.5h-48v41h43q24 0 34.5 11t10.5 36v14h-91v90h166z" />
    <glyph glyph-name="Lcaron" unicode="&#x13d;" horiz-adv-x="3325" 
d="M3293 125v-125h-3212v700h142v-575h3070zM2923 700v-117q0 -66 -34.5 -103t-100.5 -37h-49v67h38q29 0 41.5 13t12.5 42v18h-92v117h184z" />
    <glyph glyph-name="lcaron" unicode="&#x13e;" horiz-adv-x="581" 
d="M270 119h154v-119h-189q-88 0 -128 40.5t-40 127.5v602h137v-585q0 -66 66 -66zM518 700v-117q0 -66 -34.5 -103t-100.5 -37h-49v67h38q29 0 41.5 13t12.5 42v18h-92v117h184z" />
    <glyph glyph-name="Ldot" unicode="&#x13f;" horiz-adv-x="3325" 
d="M3293 125v-125h-3212v700h142v-575h3070zM1821 410v-118h-184v118h184z" />
    <glyph glyph-name="ldot" unicode="&#x140;" horiz-adv-x="621" 
d="M270 119h154v-119h-189q-88 0 -128 40.5t-40 127.5v602h137v-585q0 -66 66 -66zM541 409v-118h-184v118h184z" />
    <glyph glyph-name="Lslash" unicode="&#x141;" horiz-adv-x="3325" 
d="M3293 125v-125h-3212v188l-74 -22v122l74 22v390h142v-348l784 236v-122l-784 -236v-105h3070z" />
    <glyph glyph-name="lslash" unicode="&#x142;" horiz-adv-x="452" 
d="M270 119h154v-119h-189q-88 0 -128 40.5t-40 127.5v116l-60 -18v122l60 18v364h137v-323l241 72v-122l-241 -72v-140q0 -66 66 -66z" />
    <glyph glyph-name="Nacute" unicode="&#x143;" horiz-adv-x="3411" 
d="M284 576q-37 0 -52 -16t-15 -54v-506h-143v527q0 87 42.5 130t131.5 43h2915q89 0 131.5 -43t42.5 -130v-527h-142v506q0 38 -15.5 54t-52.5 16h-2843zM2064 872l-360 -113h-176l279 113h257z" />
    <glyph glyph-name="nacute" unicode="&#x144;" horiz-adv-x="3022" 
d="M67 0v432q0 88 41 129.5t128 41.5h2550q87 0 128 -41.5t41 -129.5v-432h-137v415q0 36 -16.5 52.5t-52.5 16.5h-2476q-36 0 -52.5 -16.5t-16.5 -52.5v-415h-137zM1861 770l-360 -113h-176l279 113h257z" />
    <glyph glyph-name="uni0145" unicode="&#x145;" horiz-adv-x="3411" 
d="M284 576q-37 0 -52 -16t-15 -54v-506h-143v527q0 87 42.5 130t131.5 43h2915q89 0 131.5 -43t42.5 -130v-527h-142v506q0 38 -15.5 54t-52.5 16h-2843zM1788 -68v-73q0 -56 -29.5 -87.5t-85.5 -31.5h-48v41h43q24 0 34.5 11t10.5 36v14h-91v90h166z" />
    <glyph glyph-name="uni0146" unicode="&#x146;" horiz-adv-x="3022" 
d="M67 0v432q0 88 41 129.5t128 41.5h2550q87 0 128 -41.5t41 -129.5v-432h-137v415q0 36 -16.5 52.5t-52.5 16.5h-2476q-36 0 -52.5 -16.5t-16.5 -52.5v-415h-137zM1594 -68v-73q0 -56 -29.5 -87.5t-85.5 -31.5h-48v41h43q24 0 34.5 11t10.5 36v14h-91v90h166z" />
    <glyph glyph-name="Ncaron" unicode="&#x147;" horiz-adv-x="3411" 
d="M284 576q-37 0 -52 -16t-15 -54v-506h-143v527q0 87 42.5 130t131.5 43h2915q89 0 131.5 -43t42.5 -130v-527h-142v506q0 38 -15.5 54t-52.5 16h-2843zM1497 872l208 -62l208 62h155l-247 -113h-232l-247 113h155z" />
    <glyph glyph-name="ncaron" unicode="&#x148;" horiz-adv-x="3022" 
d="M67 0v432q0 88 41 129.5t128 41.5h2550q87 0 128 -41.5t41 -129.5v-432h-137v415q0 36 -16.5 52.5t-52.5 16.5h-2476q-36 0 -52.5 -16.5t-16.5 -52.5v-415h-137zM1303 770l208 -62l208 62h155l-247 -113h-232l-247 113h155z" />
    <glyph glyph-name="napostrophe" unicode="&#x149;" horiz-adv-x="3282" 
d="M327 0v432q0 88 41 129.5t128 41.5h2550q87 0 128 -41.5t41 -129.5v-432h-137v415q0 36 -16.5 52.5t-52.5 16.5h-2476q-36 0 -52.5 -16.5t-16.5 -52.5v-415h-137zM247 700v-117q0 -66 -34.5 -103t-100.5 -37h-49v67h38q29 0 41.5 13t12.5 42v18h-92v117h184z" />
    <glyph glyph-name="Eng" unicode="&#x14a;" horiz-adv-x="3411" 
d="M284 576q-37 0 -52 -16t-15 -54v-506h-143v527q0 87 42.5 130t131.5 43h2915q89 0 131.5 -43t42.5 -130v-521q0 -87 -42.5 -130t-131.5 -43h-913v124h877q37 0 52.5 16t15.5 54v479q0 38 -15.5 54t-52.5 16h-2843z" />
    <glyph glyph-name="eng" unicode="&#x14b;" horiz-adv-x="3022" 
d="M2670 -48h83q34 0 49.5 16t15.5 50v397q0 36 -16.5 52.5t-52.5 16.5h-2476q-36 0 -52.5 -16.5t-16.5 -52.5v-415h-137v432q0 88 41 129.5t128 41.5h2550q87 0 128 -41.5t41 -129.5v-431q0 -87 -40 -127.5t-128 -40.5h-117v119z" />
    <glyph glyph-name="Omacron" unicode="&#x14c;" horiz-adv-x="3406" 
d="M240 0q-89 0 -131 42.5t-42 130.5v354q0 88 42 130.5t131 42.5h2926q89 0 131 -42.5t42 -130.5v-354q0 -173 -173 -173h-2926zM3197 193v313q0 38 -15.5 54t-52.5 16h-2852q-36 0 -52 -16t-16 -54v-312q0 -38 15.5 -54t52.5 -16h2852q37 0 52.5 15.5t15.5 53.5zM2013 778
h-622v77h622v-77z" />
    <glyph glyph-name="omacron" unicode="&#x14d;" horiz-adv-x="3020" 
d="M2788 603q88 0 129 -41.5t41 -129.5v-261q0 -88 -41 -129.5t-129 -41.5h-2557q-88 0 -129 41.5t-41 129.5v261q0 88 41 129.5t129 41.5h2557zM2753 119q69 0 69 69v227q0 69 -69 69h-2486q-69 0 -69 -69v-227q0 -69 69 -69h2486zM1821 676h-622v77h622v-77z" />
    <glyph glyph-name="Obreve" unicode="&#x14e;" horiz-adv-x="3406" 
d="M240 0q-89 0 -131 42.5t-42 130.5v354q0 88 42 130.5t131 42.5h2926q89 0 131 -42.5t42 -130.5v-354q0 -173 -173 -173h-2926zM3197 193v313q0 38 -15.5 54t-52.5 16h-2852q-36 0 -52 -16t-16 -54v-312q0 -38 15.5 -54t52.5 -16h2852q37 0 52.5 15.5t15.5 53.5zM1393 814
v81q122 -62 309 -62t309 62v-81q-115 -67 -309 -67t-309 67z" />
    <glyph glyph-name="obreve" unicode="&#x14f;" horiz-adv-x="3020" 
d="M2788 603q88 0 129 -41.5t41 -129.5v-261q0 -88 -41 -129.5t-129 -41.5h-2557q-88 0 -129 41.5t-41 129.5v261q0 88 41 129.5t129 41.5h2557zM2753 119q69 0 69 69v227q0 69 -69 69h-2486q-69 0 -69 -69v-227q0 -69 69 -69h2486zM1201 712v81q122 -62 309 -62t309 62v-81
q-115 -67 -309 -67t-309 67z" />
    <glyph glyph-name="Ohungarumlaut" unicode="&#x150;" horiz-adv-x="3406" 
d="M240 0q-89 0 -131 42.5t-42 130.5v354q0 88 42 130.5t131 42.5h2926q89 0 131 -42.5t42 -130.5v-354q0 -173 -173 -173h-2926zM3197 193v313q0 38 -15.5 54t-52.5 16h-2852q-36 0 -52 -16t-16 -54v-312q0 -38 15.5 -54t52.5 -16h2852q37 0 52.5 15.5t15.5 53.5zM2292 872
l-360 -113h-176l279 113h257zM1792 872l-360 -113h-176l279 113h257z" />
    <glyph glyph-name="ohungarumlaut" unicode="&#x151;" horiz-adv-x="3020" 
d="M2788 603q88 0 129 -41.5t41 -129.5v-261q0 -88 -41 -129.5t-129 -41.5h-2557q-88 0 -129 41.5t-41 129.5v261q0 88 41 129.5t129 41.5h2557zM2753 119q69 0 69 69v227q0 69 -69 69h-2486q-69 0 -69 -69v-227q0 -69 69 -69h2486zM2119 770l-360 -113h-176l279 113h257z
M1619 770l-360 -113h-176l279 113h257z" />
    <glyph glyph-name="OE" unicode="&#x152;" horiz-adv-x="5250" 
d="M243 0q-89 0 -131 42.5t-42 130.5v354q0 88 42 130.5t131 42.5h4938v-124h-2467v-164h2342v-124h-2342v-164h2467v-124h-4938zM2572 124v452h-2293q-37 0 -52 -16t-15 -54v-312q0 -38 15 -54t52 -16h2293z" />
    <glyph glyph-name="oe" unicode="&#x153;" horiz-adv-x="4533" 
d="M2201 182v239q0 63 -61 63h-1873q-69 0 -69 -69v-227q0 -69 69 -69h1873q61 0 61 63zM4348 409v22q0 29 -12 41t-41 12h-1895q-62 0 -62 -63v-64h1957q28 0 40.5 12t12.5 40zM2338 246v-64q0 -63 62 -63h2056v-119h-2028q-79 0 -115.5 30.5t-42.5 101.5
q-6 -71 -42.5 -101.5t-115.5 -30.5h-1881q-88 0 -129 41.5t-41 129.5v261q0 88 41 129.5t129 41.5h1881q79 0 115.5 -30.5t42.5 -101.5q6 71 42.5 101.5t115.5 30.5h1905q78 0 114.5 -37t36.5 -117v-49q0 -80 -36.5 -117t-114.5 -37h-1995z" />
    <glyph glyph-name="Racute" unicode="&#x154;" horiz-adv-x="3410" 
d="M3343 532v-31q0 -72 -33.5 -109t-117.5 -43q86 -9 118.5 -51.5t32.5 -121.5v-176h-142v211q0 41 -17 59t-57 18h-2904v-288h-142v700h3094q87 0 127.5 -40.5t40.5 -127.5zM3134 412q37 0 52 15.5t15 52.5v28q0 37 -15 52.5t-50 15.5h-2913v-164h2911zM2064 872l-360 -113
h-176l279 113h257z" />
    <glyph glyph-name="racute" unicode="&#x155;" horiz-adv-x="2817" 
d="M2785 603v-119h-2512q-69 0 -69 -69v-415h-137v432q0 88 41 129.5t130 41.5h2547zM1820 770l-360 -113h-176l279 113h257z" />
    <glyph glyph-name="uni0156" unicode="&#x156;" horiz-adv-x="3410" 
d="M3343 532v-31q0 -72 -33.5 -109t-117.5 -43q86 -9 118.5 -51.5t32.5 -121.5v-176h-142v211q0 41 -17 59t-57 18h-2904v-288h-142v700h3094q87 0 127.5 -40.5t40.5 -127.5zM3134 412q37 0 52 15.5t15 52.5v28q0 37 -15 52.5t-50 15.5h-2913v-164h2911zM1818 -68v-73
q0 -56 -29.5 -87.5t-85.5 -31.5h-48v41h43q24 0 34.5 11t10.5 36v14h-91v90h166z" />
    <glyph glyph-name="uni0157" unicode="&#x157;" horiz-adv-x="2817" 
d="M2785 603v-119h-2512q-69 0 -69 -69v-415h-137v432q0 88 41 129.5t130 41.5h2547zM218 -68v-73q0 -56 -29.5 -87.5t-85.5 -31.5h-48v41h43q24 0 34.5 11t10.5 36v14h-91v90h166z" />
    <glyph glyph-name="Rcaron" unicode="&#x158;" horiz-adv-x="3410" 
d="M3343 532v-31q0 -72 -33.5 -109t-117.5 -43q86 -9 118.5 -51.5t32.5 -121.5v-176h-142v211q0 41 -17 59t-57 18h-2904v-288h-142v700h3094q87 0 127.5 -40.5t40.5 -127.5zM3134 412q37 0 52 15.5t15 52.5v28q0 37 -15 52.5t-50 15.5h-2913v-164h2911zM1497 872l208 -62
l208 62h155l-247 -113h-232l-247 113h155z" />
    <glyph glyph-name="rcaron" unicode="&#x159;" horiz-adv-x="2817" 
d="M2785 603v-119h-2512q-69 0 -69 -69v-415h-137v432q0 88 41 129.5t130 41.5h2547zM1253 770l208 -62l208 62h155l-247 -113h-232l-247 113h155z" />
    <glyph glyph-name="Sacute" unicode="&#x15a;" horiz-adv-x="3362" 
d="M246 288q-88 0 -130 42.5t-42 129.5v68q0 87 42 129.5t130 42.5h3030v-124h-2994q-35 0 -50.5 -15.5t-15.5 -52.5v-29q0 -36 15.5 -51.5t50.5 -15.5h2852q88 0 130 -42.5t42 -129.5v-68q0 -87 -42 -129.5t-130 -42.5h-3080v124h3045q35 0 50 15.5t15 52.5v29
q0 36 -15 51.5t-50 15.5h-2853zM2040 872l-360 -113h-176l279 113h257z" />
    <glyph glyph-name="sacute" unicode="&#x15b;" horiz-adv-x="3004" 
d="M2925 484h-2683q-28 0 -40 -12t-12 -40v-23q0 -28 12 -40t40 -12h2562q77 0 114 -37.5t37 -117.5v-48q0 -79 -37 -116.5t-114 -37.5h-2751v119h2713q28 0 40 12t12 40v22q0 28 -12 40.5t-40 12.5h-2562q-77 0 -114 37.5t-37 116.5v49q0 79 37 116.5t114 37.5h2721v-119z
M1861 770l-360 -113h-176l279 113h257z" />
    <glyph glyph-name="Scircumflex" unicode="&#x15c;" horiz-adv-x="3362" 
d="M246 288q-88 0 -130 42.5t-42 129.5v68q0 87 42 129.5t130 42.5h3030v-124h-2994q-35 0 -50.5 -15.5t-15.5 -52.5v-29q0 -36 15.5 -51.5t50.5 -15.5h2852q88 0 130 -42.5t42 -129.5v-68q0 -87 -42 -129.5t-130 -42.5h-3080v124h3045q35 0 50 15.5t15 52.5v29
q0 36 -15 51.5t-50 15.5h-2853zM1681 821l-208 -62h-155l247 113h232l247 -113h-155z" />
    <glyph glyph-name="scircumflex" unicode="&#x15d;" horiz-adv-x="3004" 
d="M2925 484h-2683q-28 0 -40 -12t-12 -40v-23q0 -28 12 -40t40 -12h2562q77 0 114 -37.5t37 -117.5v-48q0 -79 -37 -116.5t-114 -37.5h-2751v119h2713q28 0 40 12t12 40v22q0 28 -12 40.5t-40 12.5h-2562q-77 0 -114 37.5t-37 116.5v49q0 79 37 116.5t114 37.5h2721v-119z
M1501 719l-208 -62h-155l247 113h232l247 -113h-155z" />
    <glyph glyph-name="Scedilla" unicode="&#x15e;" horiz-adv-x="3362" 
d="M1658 0h-1604v124h3045q35 0 50 15.5t15 52.5v29q0 36 -15 51.5t-50 15.5h-2853q-88 0 -130 42.5t-42 129.5v68q0 87 42 129.5t130 42.5h3030v-124h-2994q-35 0 -50.5 -15.5t-15.5 -52.5v-29q0 -36 15.5 -51.5t50.5 -15.5h2852q88 0 130 -42.5t42 -129.5v-68
q0 -87 -42 -129.5t-130 -42.5h-1450l-20 -45h210q68 0 95 -14t27 -49q0 -43 -36.5 -65t-127.5 -22h-452v83h452q30 0 42 5.5t12 19.5q0 11 -8.5 15t-32.5 4h-220z" />
    <glyph glyph-name="scedilla" unicode="&#x15f;" horiz-adv-x="3004" 
d="M1464 0h-1411v119h2713q28 0 40 12t12 40v22q0 28 -12 40.5t-40 12.5h-2562q-77 0 -114 37.5t-37 116.5v49q0 79 37 116.5t114 37.5h2721v-119h-2683q-28 0 -40 -12t-12 -40v-23q0 -28 12 -40t40 -12h2562q77 0 114 -37.5t37 -117.5v-48q0 -79 -37 -116.5t-114 -37.5
h-1314l-20 -45h210q68 0 95 -14t27 -49q0 -43 -36.5 -65t-127.5 -22h-452v83h452q30 0 42 5.5t12 19.5q0 11 -8.5 15t-32.5 4h-220z" />
    <glyph glyph-name="Scaron" unicode="&#x160;" horiz-adv-x="3362" 
d="M246 288q-88 0 -130 42.5t-42 129.5v68q0 87 42 129.5t130 42.5h3030v-124h-2994q-35 0 -50.5 -15.5t-15.5 -52.5v-29q0 -36 15.5 -51.5t50.5 -15.5h2852q88 0 130 -42.5t42 -129.5v-68q0 -87 -42 -129.5t-130 -42.5h-3080v124h3045q35 0 50 15.5t15 52.5v29
q0 36 -15 51.5t-50 15.5h-2853zM1473 872l208 -62l208 62h155l-247 -113h-232l-247 113h155z" />
    <glyph glyph-name="scaron" unicode="&#x161;" horiz-adv-x="3004" 
d="M2925 484h-2683q-28 0 -40 -12t-12 -40v-23q0 -28 12 -40t40 -12h2562q77 0 114 -37.5t37 -117.5v-48q0 -79 -37 -116.5t-114 -37.5h-2751v119h2713q28 0 40 12t12 40v22q0 28 -12 40.5t-40 12.5h-2562q-77 0 -114 37.5t-37 116.5v49q0 79 37 116.5t114 37.5h2721v-119z
M1293 770l208 -62l208 62h155l-247 -113h-232l-247 113h155z" />
    <glyph glyph-name="uni0162" unicode="&#x162;" horiz-adv-x="3334" 
d="M1646 0h-50v576h-1564v124h3271v-124h-1565v-576h-66l-20 -45h210q68 0 95 -14t27 -49q0 -43 -36.5 -65t-127.5 -22h-452v83h452q30 0 42 5.5t12 19.5q0 11 -8.5 15t-32.5 4h-220z" />
    <glyph glyph-name="uni0163" unicode="&#x163;" horiz-adv-x="2856" 
d="M1411 0h-1173q-89 0 -130 41.5t-41 129.5v599h137v-167h2601v-119h-2601v-296q0 -36 16.5 -52.5t52.5 -16.5h2532v-119h-1368l-20 -45h210q68 0 95 -14t27 -49q0 -43 -36.5 -65t-127.5 -22h-452v83h452q30 0 42 5.5t12 19.5q0 11 -8.5 15t-32.5 4h-220z" />
    <glyph glyph-name="Tcaron" unicode="&#x164;" horiz-adv-x="3334" 
d="M3303 700v-124h-1565v-576h-142v576h-1564v124h3271zM1459 872l208 -62l208 62h155l-247 -113h-232l-247 113h155z" />
    <glyph glyph-name="tcaron" unicode="&#x165;" horiz-adv-x="3175" 
d="M238 0q-89 0 -130 41.5t-41 129.5v599h137v-167h2601v-119h-2601v-296q0 -36 16.5 -52.5t52.5 -16.5h2532v-119h-2567zM3112 700v-117q0 -66 -34.5 -103t-100.5 -37h-49v67h38q29 0 41.5 13t12.5 42v18h-92v117h184z" />
    <glyph glyph-name="Tbar" unicode="&#x166;" horiz-adv-x="3334" 
d="M3303 700v-124h-1565v-133h241v-93h-241v-350h-142v350h-240v93h240v133h-1564v124h3271z" />
    <glyph glyph-name="tbar" unicode="&#x167;" horiz-adv-x="2856" 
d="M238 0q-89 0 -130 41.5t-41 129.5v124h-67v93h67v382h137v-167h2601v-119h-2601v-96h419v-93h-419v-107q0 -36 16.5 -52.5t52.5 -16.5h2532v-119h-2567z" />
    <glyph glyph-name="Utilde" unicode="&#x168;" horiz-adv-x="3411" 
d="M248 0q-89 0 -131.5 43t-42.5 130v527h143v-506q0 -38 15 -54t52 -16h2843q37 0 52.5 16t15.5 54v506h142v-527q0 -87 -42.5 -130t-131.5 -43h-2915zM1396 749v87q82 53 168 53q54 0 150.5 -29t145.5 -29q78 0 154 54v-87q-82 -53 -169 -53q-55 0 -151 29t-145 29
q-79 0 -153 -54z" />
    <glyph glyph-name="utilde" unicode="&#x169;" horiz-adv-x="3022" 
d="M2749 119q36 0 52.5 16.5t16.5 52.5v415h137v-432q0 -88 -41 -129.5t-128 -41.5h-2550q-87 0 -128 41.5t-41 129.5v432h137v-415q0 -36 16.5 -52.5t52.5 -16.5h2476zM1202 647v87q82 53 168 53q54 0 150.5 -29t145.5 -29q78 0 154 54v-87q-82 -53 -169 -53q-55 0 -151 29
t-145 29q-79 0 -153 -54z" />
    <glyph glyph-name="Umacron" unicode="&#x16a;" horiz-adv-x="3411" 
d="M248 0q-89 0 -131.5 43t-42.5 130v527h143v-506q0 -38 15 -54t52 -16h2843q37 0 52.5 16t15.5 54v506h142v-527q0 -87 -42.5 -130t-131.5 -43h-2915zM2016 778h-622v77h622v-77z" />
    <glyph glyph-name="umacron" unicode="&#x16b;" horiz-adv-x="3022" 
d="M2749 119q36 0 52.5 16.5t16.5 52.5v415h137v-432q0 -88 -41 -129.5t-128 -41.5h-2550q-87 0 -128 41.5t-41 129.5v432h137v-415q0 -36 16.5 -52.5t52.5 -16.5h2476zM1822 676h-622v77h622v-77z" />
    <glyph glyph-name="Ubreve" unicode="&#x16c;" horiz-adv-x="3411" 
d="M248 0q-89 0 -131.5 43t-42.5 130v527h143v-506q0 -38 15 -54t52 -16h2843q37 0 52.5 16t15.5 54v506h142v-527q0 -87 -42.5 -130t-131.5 -43h-2915zM1396 814v81q122 -62 309 -62t309 62v-81q-115 -67 -309 -67t-309 67z" />
    <glyph glyph-name="ubreve" unicode="&#x16d;" horiz-adv-x="3022" 
d="M2749 119q36 0 52.5 16.5t16.5 52.5v415h137v-432q0 -88 -41 -129.5t-128 -41.5h-2550q-87 0 -128 41.5t-41 129.5v432h137v-415q0 -36 16.5 -52.5t52.5 -16.5h2476zM1202 712v81q122 -62 309 -62t309 62v-81q-115 -67 -309 -67t-309 67z" />
    <glyph glyph-name="Uring" unicode="&#x16e;" horiz-adv-x="3411" 
d="M248 0q-89 0 -131.5 43t-42.5 130v527h143v-506q0 -38 15 -54t52 -16h2843q37 0 52.5 16t15.5 54v506h142v-527q0 -87 -42.5 -130t-131.5 -43h-2915zM1532 831q0 -26 31 -26h284q31 0 31 26q0 25 -31 25h-284q-31 0 -31 -25zM1837 752h-264q-54 0 -76 20t-22 59
q0 38 22 58t76 20h264q54 0 76 -20t22 -58q0 -39 -22 -59t-76 -20z" />
    <glyph glyph-name="uring" unicode="&#x16f;" horiz-adv-x="3022" 
d="M2749 119q36 0 52.5 16.5t16.5 52.5v415h137v-432q0 -88 -41 -129.5t-128 -41.5h-2550q-87 0 -128 41.5t-41 129.5v432h137v-415q0 -36 16.5 -52.5t52.5 -16.5h2476zM1338 729q0 -26 31 -26h284q31 0 31 26q0 25 -31 25h-284q-31 0 -31 -25zM1643 650h-264q-54 0 -76 20
t-22 59q0 38 22 58t76 20h264q54 0 76 -20t22 -58q0 -39 -22 -59t-76 -20z" />
    <glyph glyph-name="Uhungarumlaut" unicode="&#x170;" horiz-adv-x="3411" 
d="M248 0q-89 0 -131.5 43t-42.5 130v527h143v-506q0 -38 15 -54t52 -16h2843q37 0 52.5 16t15.5 54v506h142v-527q0 -87 -42.5 -130t-131.5 -43h-2915zM2315 872l-360 -113h-176l279 113h257zM1815 872l-360 -113h-176l279 113h257z" />
    <glyph glyph-name="uhungarumlaut" unicode="&#x171;" horiz-adv-x="3022" 
d="M2749 119q36 0 52.5 16.5t16.5 52.5v415h137v-432q0 -88 -41 -129.5t-128 -41.5h-2550q-87 0 -128 41.5t-41 129.5v432h137v-415q0 -36 16.5 -52.5t52.5 -16.5h2476zM2120 770l-360 -113h-176l279 113h257zM1620 770l-360 -113h-176l279 113h257z" />
    <glyph glyph-name="Uogonek" unicode="&#x172;" horiz-adv-x="3411" 
d="M3279 -67h-40q-196 0 -292 -4t-118 -10t-22 -18q0 -13 34 -13h488v-83h-496q-69 0 -97.5 13t-28.5 49q0 21 5 33.5t24.5 23.5t51 16.5t92 10t139 5.5t200.5 1h33v58q-36 -15 -89 -15h-2915q-89 0 -131.5 43t-42.5 130v527h143v-506q0 -38 15 -54t52 -16h2843
q37 0 52.5 16t15.5 54v506h142v-527q0 -101 -58 -143v-97z" />
    <glyph glyph-name="uogonek" unicode="&#x173;" horiz-adv-x="3022" 
d="M2900 -67h-40q-196 0 -292 -4t-118 -10t-22 -18q0 -13 34 -13h488v-83h-496q-69 0 -97.5 13t-28.5 49q0 21 5 33.5t24.5 23.5t51 16.5t92 10t139 5.5t200.5 1h33v57q-37 -14 -87 -14h-2550q-87 0 -128 41.5t-41 129.5v432h137v-415q0 -36 16.5 -52.5t52.5 -16.5h2476
q36 0 52.5 16.5t16.5 52.5v415h137v-432q0 -102 -55 -142v-96z" />
    <glyph glyph-name="Wcircumflex" unicode="&#x174;" horiz-adv-x="4010" 
d="M3762 0h-1582q-83 0 -124.5 34t-50.5 108q-9 -74 -50 -108t-124 -34h-1583q-89 0 -131.5 43t-42.5 130v527h143v-506q0 -38 15 -54t52 -16h1575q40 0 57.5 18t17.5 59v499h142v-499q0 -41 17.5 -59t57.5 -18h1575q37 0 52.5 16t15.5 54v506h142v-527q0 -87 -42.5 -130
t-131.5 -43zM2005 821l-208 -62h-155l247 113h232l247 -113h-155z" />
    <glyph glyph-name="wcircumflex" unicode="&#x175;" horiz-adv-x="3542" 
d="M1771 132q-6 -71 -42.5 -101.5t-115.5 -30.5h-1377q-87 0 -128 41.5t-41 129.5v432h137v-415q0 -36 16.5 -52.5t52.5 -16.5h1368q62 0 62 63v421h136v-421q0 -63 62 -63h1368q37 0 53 16.5t16 52.5v415h137v-432q0 -88 -41 -129.5t-128 -41.5h-1377q-79 0 -115.5 30.5
t-42.5 101.5zM1771 719l-208 -62h-155l247 113h232l247 -113h-155z" />
    <glyph glyph-name="Ycircumflex" unicode="&#x176;" horiz-adv-x="3378" 
d="M3182 700h142v-239q0 -88 -42 -130.5t-131 -42.5h-1391v-288h-142v288h-1392q-89 0 -131 42.5t-42 130.5v239h142v-219q0 -38 15.5 -53.5t52.5 -15.5h2852q37 0 52 15.5t15 53.5v219zM1689 821l-208 -62h-155l247 113h232l247 -113h-155z" />
    <glyph glyph-name="ycircumflex" unicode="&#x177;" horiz-adv-x="3028" 
d="M2735 -167h-2628v119h2614q51 0 74 22.5t23 74.5v86q-14 -43 -47.5 -62.5t-94.5 -19.5h-2438q-89 0 -130 41.5t-41 129.5v379h137v-362q0 -69 69 -69h2476q36 0 52.5 16.5t16.5 52.5v362h137v-550q0 -114 -53 -167t-167 -53zM1514 719l-208 -62h-155l247 113h232
l247 -113h-155z" />
    <glyph glyph-name="Ydieresis" unicode="&#x178;" horiz-adv-x="3378" 
d="M3182 700h142v-239q0 -88 -42 -130.5t-131 -42.5h-1391v-288h-142v288h-1392q-89 0 -131 42.5t-42 130.5v239h142v-219q0 -38 15.5 -53.5t52.5 -15.5h2852q37 0 52 15.5t15 53.5v219zM1532 859v-90h-166v90h166zM2012 859v-90h-166v90h166z" />
    <glyph glyph-name="Zacute" unicode="&#x179;" horiz-adv-x="3366" 
d="M3073 412q51 0 72 20t21 72v72h-3080v124h3222v-202q0 -210 -210 -210h-2807q-52 0 -72.5 -20t-20.5 -72v-72h3110v-124h-3252v202q0 210 209 210h2808zM2052 872l-360 -113h-176l279 113h257z" />
    <glyph glyph-name="zacute" unicode="&#x17a;" horiz-adv-x="3007" 
d="M262 246q-39 0 -57 -18t-18 -57v-52h2767v-119h-2903v160q0 197 197 197h2495q39 0 57 17.5t18 56.5v53h-2742v119h2878v-160q0 -197 -197 -197h-2495zM1886 770l-360 -113h-176l279 113h257z" />
    <glyph glyph-name="Zdotaccent" unicode="&#x17b;" horiz-adv-x="3366" 
d="M3073 412q51 0 72 20t21 72v72h-3080v124h3222v-202q0 -210 -210 -210h-2807q-52 0 -72.5 -20t-20.5 -72v-72h3110v-124h-3252v202q0 210 209 210h2808zM1776 859v-90h-166v90h166z" />
    <glyph glyph-name="zdotaccent" unicode="&#x17c;" horiz-adv-x="3007" 
d="M262 246q-39 0 -57 -18t-18 -57v-52h2767v-119h-2903v160q0 197 197 197h2495q39 0 57 17.5t18 56.5v53h-2742v119h2878v-160q0 -197 -197 -197h-2495zM1610 757v-90h-166v90h166z" />
    <glyph glyph-name="Zcaron" unicode="&#x17d;" horiz-adv-x="3366" 
d="M3073 412q51 0 72 20t21 72v72h-3080v124h3222v-202q0 -210 -210 -210h-2807q-52 0 -72.5 -20t-20.5 -72v-72h3110v-124h-3252v202q0 210 209 210h2808zM1485 872l208 -62l208 62h155l-247 -113h-232l-247 113h155z" />
    <glyph glyph-name="zcaron" unicode="&#x17e;" horiz-adv-x="3007" 
d="M262 246q-39 0 -57 -18t-18 -57v-52h2767v-119h-2903v160q0 197 197 197h2495q39 0 57 17.5t18 56.5v53h-2742v119h2878v-160q0 -197 -197 -197h-2495zM1319 770l208 -62l208 62h155l-247 -113h-232l-247 113h155z" />
    <glyph glyph-name="florin" unicode="&#x192;" 
d="M3228 412v-124h-2785v-128q0 -86 -37 -123t-124 -37h-230v124h187q36 0 49 13t13 50v101h-249v124h249v116q0 88 41.5 130t130.5 42h2880v-124h-2844q-36 0 -51 -15t-15 -52v-97h2785z" />
    <glyph glyph-name="AEacute" unicode="&#x1fc;" horiz-adv-x="5227" 
d="M2565 0v288h-2348v-288h-143v527q0 87 42.5 130t131.5 43h4926v-124h-2467v-164h2342v-124h-2342v-164h2467v-124h-2609zM284 576q-37 0 -52 -16t-15 -54v-94h2348v164h-2281zM2995 872l-360 -113h-176l279 113h257z" />
    <glyph glyph-name="aeacute" unicode="&#x1fd;" horiz-adv-x="4527" 
d="M4341 409v23q0 28 -12 40t-40 12h-1896q-61 0 -61 -63v-64h1957q28 0 40 12t12 40zM186 194v-22q0 -28 12 -40.5t40 -12.5h1896q61 0 61 63v64h-1957q-28 0 -40 -12t-12 -40zM2106 0h-1906q-77 0 -114 37.5t-37 116.5v48q0 80 37 117.5t114 37.5h1995v64q0 63 -61 63
h-2057v119h2029q78 0 114.5 -30.5t42.5 -101.5q6 71 42.5 101.5t115.5 30.5h1906q77 0 114 -37.5t37 -116.5v-49q0 -79 -37 -116.5t-114 -37.5h-1995v-64q0 -63 61 -63h2057v-119h-2029q-79 0 -115.5 30.5t-42.5 101.5q-6 -71 -42.5 -101.5t-114.5 -30.5zM2623 770
l-360 -113h-176l279 113h257z" />
    <glyph glyph-name="Oslashacute" unicode="&#x1fe;" horiz-adv-x="3406" 
d="M240 0q-89 0 -131 42.5t-42 130.5v354q0 88 42 130.5t131 42.5h2926q89 0 131 -42.5t42 -130.5v-354q0 -173 -173 -173h-2926zM3197 193v313q0 38 -15.5 54t-52.5 16h-17l-2281 -452h2298q37 0 52.5 15.5t15.5 53.5zM294 124l2281 452h-2298q-36 0 -52 -16t-16 -54v-312
q0 -38 15.5 -54t52.5 -16h17zM2062 872l-360 -113h-176l279 113h257z" />
    <glyph glyph-name="oslashacute" unicode="&#x1ff;" horiz-adv-x="3020" 
d="M2788 603q88 0 129 -41.5t41 -129.5v-261q0 -88 -41 -129.5t-129 -41.5h-2557q-88 0 -129 41.5t-41 129.5v261q0 88 41 129.5t129 41.5h2557zM2753 119q69 0 69 69v227q0 68 -67 69l-1966 -365h1964zM264 119l1965 365h-1962q-69 0 -69 -69v-227q0 -68 66 -69zM1869 770
l-360 -113h-176l279 113h257z" />
    <glyph glyph-name="uni0218" unicode="&#x218;" horiz-adv-x="3362" 
d="M246 288q-88 0 -130 42.5t-42 129.5v68q0 87 42 129.5t130 42.5h3030v-124h-2994q-35 0 -50.5 -15.5t-15.5 -52.5v-29q0 -36 15.5 -51.5t50.5 -15.5h2852q88 0 130 -42.5t42 -129.5v-68q0 -87 -42 -129.5t-130 -42.5h-3080v124h3045q35 0 50 15.5t15 52.5v29
q0 36 -15 51.5t-50 15.5h-2853zM1764 -68v-73q0 -56 -29.5 -87.5t-85.5 -31.5h-48v41h43q24 0 34.5 11t10.5 36v14h-91v90h166z" />
    <glyph glyph-name="uni0219" unicode="&#x219;" horiz-adv-x="3004" 
d="M2925 484h-2683q-28 0 -40 -12t-12 -40v-23q0 -28 12 -40t40 -12h2562q77 0 114 -37.5t37 -117.5v-48q0 -79 -37 -116.5t-114 -37.5h-2751v119h2713q28 0 40 12t12 40v22q0 28 -12 40.5t-40 12.5h-2562q-77 0 -114 37.5t-37 116.5v49q0 79 37 116.5t114 37.5h2721v-119z
M1564 -68v-73q0 -56 -29.5 -87.5t-85.5 -31.5h-48v41h43q24 0 34.5 11t10.5 36v14h-91v90h166z" />
    <glyph glyph-name="uni021A" unicode="&#x21a;" horiz-adv-x="3334" 
d="M3303 700v-124h-1565v-576h-142v576h-1564v124h3271zM1750 -68v-73q0 -56 -29.5 -87.5t-85.5 -31.5h-48v41h43q24 0 34.5 11t10.5 36v14h-91v90h166z" />
    <glyph glyph-name="uni021B" unicode="&#x21b;" horiz-adv-x="2856" 
d="M238 0q-89 0 -130 41.5t-41 129.5v599h137v-167h2601v-119h-2601v-296q0 -36 16.5 -52.5t52.5 -16.5h2532v-119h-2567zM1511 -68v-73q0 -56 -29.5 -87.5t-85.5 -31.5h-48v41h43q24 0 34.5 11t10.5 36v14h-91v90h166z" />
    <glyph glyph-name="uni0237" unicode="&#x237;" horiz-adv-x="300" 
d="M-55 -48h83q34 0 49.5 16t15.5 50v585h137v-602q0 -87 -40 -127.5t-128 -40.5h-117v119z" />
    <glyph glyph-name="circumflex" unicode="&#x2c6;" horiz-adv-x="750" 
d="M375 719l-208 -62h-155l247 113h232l247 -113h-155z" />
    <glyph glyph-name="caron" unicode="&#x2c7;" horiz-adv-x="750" 
d="M167 770l208 -62l208 62h155l-247 -113h-232l-247 113h155z" />
    <glyph glyph-name="breve" unicode="&#x2d8;" horiz-adv-x="750" 
d="M66 712v81q122 -62 309 -62t309 62v-81q-115 -67 -309 -67t-309 67z" />
    <glyph glyph-name="dotaccent" unicode="&#x2d9;" horiz-adv-x="750" 
d="M458 757v-90h-166v90h166z" />
    <glyph glyph-name="ring" unicode="&#x2da;" horiz-adv-x="750" 
d="M202 729q0 -26 31 -26h284q31 0 31 26q0 25 -31 25h-284q-31 0 -31 -25zM507 650h-264q-54 0 -76 20t-22 59q0 38 22 58t76 20h264q54 0 76 -20t22 -58q0 -39 -22 -59t-76 -20z" />
    <glyph glyph-name="ogonek" unicode="&#x2db;" horiz-adv-x="750" 
d="M636 -67h-40q-196 0 -292 -4t-118 -10t-22 -18q0 -13 34 -13h488v-83h-496q-69 0 -97.5 13t-28.5 49q0 21 5 33.5t24.5 23.5t51 16.5t92 10t139 5.5t200.5 1h33v43h27v-67z" />
    <glyph glyph-name="tilde" unicode="&#x2dc;" horiz-adv-x="750" 
d="M66 647v87q82 53 168 53q54 0 150.5 -29t145.5 -29q78 0 154 54v-87q-82 -53 -169 -53q-54 0 -150.5 29t-145.5 29q-79 0 -153 -54z" />
    <glyph glyph-name="hungarumlaut" unicode="&#x2dd;" horiz-adv-x="750" 
d="M904 770l-360 -113h-176l279 113h257zM404 770l-360 -113h-176l279 113h257z" />
    <glyph glyph-name="pi" unicode="&#x3c0;" 
d="M249 0v603h2887v-603h-137v484h-2613v-484h-137z" />
    <glyph glyph-name="uni1E02" unicode="&#x1e02;" horiz-adv-x="3404" 
d="M3343 199v-31q0 -87 -40.5 -127.5t-127.5 -40.5h-3094v700h3094q87 0 127.5 -40.5t40.5 -127.5v-31q0 -70 -31.5 -107t-111.5 -44q80 -7 111.5 -44t31.5 -107zM3134 412q37 0 52 15.5t15 52.5v28q0 37 -15 52.5t-50 15.5h-2913v-164h2911zM223 288v-164h2913
q35 0 50 15.5t15 52.5v28q0 37 -15 52.5t-52 15.5h-2911zM1782 859v-90h-166v90h166z" />
    <glyph glyph-name="uni1E03" unicode="&#x1e03;" horiz-adv-x="3026" 
d="M67 171v599h137v-249q14 43 47.5 62.5t94.5 19.5h2450q87 0 128 -41.5t41 -129.5v-261q0 -87 -41 -129t-128 -42h-2558q-89 0 -130 41.5t-41 129.5zM204 415v-227q0 -36 16.5 -52.5t52.5 -16.5h2486q36 0 52.5 16.5t16.5 52.5v227q0 36 -16.5 52.5t-52.5 16.5h-2486
q-36 0 -52.5 -16.5t-16.5 -52.5zM1596 757v-90h-166v90h166z" />
    <glyph glyph-name="uni1E0A" unicode="&#x1e0a;" horiz-adv-x="3404" 
d="M3102 700q118 0 179.5 -61t61.5 -179v-220q0 -118 -61.5 -179t-179.5 -61h-3021v700h3021zM3089 124q112 0 112 113v226q0 113 -112 113h-2866v-452h2866zM1770 859v-90h-166v90h166z" />
    <glyph glyph-name="uni1E0B" unicode="&#x1e0b;" horiz-adv-x="3026" 
d="M2958 770v-599q0 -88 -41 -129.5t-129 -41.5h-2558q-87 0 -128 42t-41 129v261q0 88 41 129.5t128 41.5h2450q61 0 94.5 -19.5t47.5 -62.5v249h136zM2822 188v227q0 36 -16.5 52.5t-52.5 16.5h-2486q-36 0 -52.5 -16.5t-16.5 -52.5v-227q0 -36 16.5 -52.5t52.5 -16.5
h2486q36 0 52.5 16.5t16.5 52.5zM1596 757v-90h-166v90h166z" />
    <glyph glyph-name="uni1E1E" unicode="&#x1e1e;" horiz-adv-x="3340" 
d="M81 0v700h3227v-124h-3085v-164h2960v-124h-2960v-288h-142zM1783 859v-90h-166v90h166z" />
    <glyph glyph-name="uni1E1F" unicode="&#x1e1f;" horiz-adv-x="2932" 
d="M288 484q-44 0 -64 -19.5t-20 -64.5v-39h2606v-119h-2606v-242h-137v406q0 101 48 149t149 48h2636v-119h-2612zM1602 757v-90h-166v90h166z" />
    <glyph glyph-name="uni1E40" unicode="&#x1e40;" horiz-adv-x="4010" 
d="M2180 700h1582q89 0 131.5 -43t42.5 -130v-527h-142v506q0 38 -15.5 54t-52.5 16h-1575q-40 0 -57.5 -18t-17.5 -59v-499h-142v499q0 41 -17.5 59t-57.5 18h-1575q-37 0 -52 -16t-15 -54v-506h-143v527q0 87 42.5 130t131.5 43h1583q83 0 124 -34t50 -108q9 74 50.5 108
t124.5 34zM2088 859v-90h-166v90h166z" />
    <glyph glyph-name="uni1E41" unicode="&#x1e41;" horiz-adv-x="3542" 
d="M1771 471q6 71 42.5 101.5t115.5 30.5h1377q87 0 128 -41.5t41 -129.5v-432h-137v415q0 36 -16 52.5t-53 16.5h-1368q-62 0 -62 -63v-421h-136v421q0 63 -62 63h-1368q-36 0 -52.5 -16.5t-16.5 -52.5v-415h-137v432q0 88 41 129.5t128 41.5h1377q79 0 115.5 -30.5
t42.5 -101.5zM1854 757v-90h-166v90h166z" />
    <glyph glyph-name="uni1E56" unicode="&#x1e56;" horiz-adv-x="3374" 
d="M81 0v700h3080q89 0 130.5 -42t41.5 -130v-69q0 -87 -41.5 -129t-130.5 -42h-2938v-288h-142zM3191 508q0 37 -15.5 52.5t-50.5 15.5h-2902v-164h2902q35 0 50.5 15.5t15.5 51.5v29zM1787 859v-90h-166v90h166z" />
    <glyph glyph-name="uni1E57" unicode="&#x1e57;" horiz-adv-x="3026" 
d="M67 -167v599q0 88 41 129.5t130 41.5h2558q87 0 128 -42t41 -129v-261q0 -88 -41 -129.5t-128 -41.5h-2450q-61 0 -94.5 19.5t-47.5 62.5v-249h-137zM204 415v-227q0 -36 16.5 -52.5t52.5 -16.5h2486q36 0 52.5 16.5t16.5 52.5v227q0 36 -16.5 52.5t-52.5 16.5h-2486
q-36 0 -52.5 -16.5t-16.5 -52.5zM1596 757v-90h-166v90h166z" />
    <glyph glyph-name="uni1E60" unicode="&#x1e60;" horiz-adv-x="3362" 
d="M246 288q-88 0 -130 42.5t-42 129.5v68q0 87 42 129.5t130 42.5h3030v-124h-2994q-35 0 -50.5 -15.5t-15.5 -52.5v-29q0 -36 15.5 -51.5t50.5 -15.5h2852q88 0 130 -42.5t42 -129.5v-68q0 -87 -42 -129.5t-130 -42.5h-3080v124h3045q35 0 50 15.5t15 52.5v29
q0 36 -15 51.5t-50 15.5h-2853zM1764 859v-90h-166v90h166z" />
    <glyph glyph-name="uni1E61" unicode="&#x1e61;" horiz-adv-x="3004" 
d="M2925 484h-2683q-28 0 -40 -12t-12 -40v-23q0 -28 12 -40t40 -12h2562q77 0 114 -37.5t37 -117.5v-48q0 -79 -37 -116.5t-114 -37.5h-2751v119h2713q28 0 40 12t12 40v22q0 28 -12 40.5t-40 12.5h-2562q-77 0 -114 37.5t-37 116.5v49q0 79 37 116.5t114 37.5h2721v-119z
M1584 757v-90h-166v90h166z" />
    <glyph glyph-name="uni1E6A" unicode="&#x1e6a;" horiz-adv-x="3334" 
d="M3303 700v-124h-1565v-576h-142v576h-1564v124h3271zM1750 859v-90h-166v90h166z" />
    <glyph glyph-name="uni1E6B" unicode="&#x1e6b;" horiz-adv-x="2856" 
d="M238 0q-89 0 -130 41.5t-41 129.5v599h137v-167h2601v-119h-2601v-296q0 -36 16.5 -52.5t52.5 -16.5h2532v-119h-2567zM1511 757v-90h-166v90h166z" />
    <glyph glyph-name="Wgrave" unicode="&#x1e80;" horiz-adv-x="4010" 
d="M3762 0h-1582q-83 0 -124.5 34t-50.5 108q-9 -74 -50 -108t-124 -34h-1583q-89 0 -131.5 43t-42.5 130v527h143v-506q0 -38 15 -54t52 -16h1575q40 0 57.5 18t17.5 59v499h142v-499q0 -41 17.5 -59t57.5 -18h1575q37 0 52.5 16t15.5 54v506h142v-527q0 -87 -42.5 -130
t-131.5 -43zM2004 759l-354 113h249l281 -113h-176z" />
    <glyph glyph-name="wgrave" unicode="&#x1e81;" horiz-adv-x="3542" 
d="M1771 132q-6 -71 -42.5 -101.5t-115.5 -30.5h-1377q-87 0 -128 41.5t-41 129.5v432h137v-415q0 -36 16.5 -52.5t52.5 -16.5h1368q62 0 62 63v421h136v-421q0 -63 62 -63h1368q37 0 53 16.5t16 52.5v415h137v-432q0 -88 -41 -129.5t-128 -41.5h-1377q-79 0 -115.5 30.5
t-42.5 101.5zM1770 657l-354 113h249l281 -113h-176z" />
    <glyph glyph-name="Wacute" unicode="&#x1e82;" horiz-adv-x="4010" 
d="M3762 0h-1582q-83 0 -124.5 34t-50.5 108q-9 -74 -50 -108t-124 -34h-1583q-89 0 -131.5 43t-42.5 130v527h143v-506q0 -38 15 -54t52 -16h1575q40 0 57.5 18t17.5 59v499h142v-499q0 -41 17.5 -59t57.5 -18h1575q37 0 52.5 16t15.5 54v506h142v-527q0 -87 -42.5 -130
t-131.5 -43zM2364 872l-360 -113h-176l279 113h257z" />
    <glyph glyph-name="wacute" unicode="&#x1e83;" horiz-adv-x="3542" 
d="M1771 132q-6 -71 -42.5 -101.5t-115.5 -30.5h-1377q-87 0 -128 41.5t-41 129.5v432h137v-415q0 -36 16.5 -52.5t52.5 -16.5h1368q62 0 62 63v421h136v-421q0 -63 62 -63h1368q37 0 53 16.5t16 52.5v415h137v-432q0 -88 -41 -129.5t-128 -41.5h-1377q-79 0 -115.5 30.5
t-42.5 101.5zM2130 770l-360 -113h-176l279 113h257z" />
    <glyph glyph-name="Wdieresis" unicode="&#x1e84;" horiz-adv-x="4010" 
d="M3762 0h-1582q-83 0 -124.5 34t-50.5 108q-9 -74 -50 -108t-124 -34h-1583q-89 0 -131.5 43t-42.5 130v527h143v-506q0 -38 15 -54t52 -16h1575q40 0 57.5 18t17.5 59v499h142v-499q0 -41 17.5 -59t57.5 -18h1575q37 0 52.5 16t15.5 54v506h142v-527q0 -87 -42.5 -130
t-131.5 -43zM1848 859v-90h-166v90h166zM2328 859v-90h-166v90h166z" />
    <glyph glyph-name="wdieresis" unicode="&#x1e85;" horiz-adv-x="3542" 
d="M1771 132q-6 -71 -42.5 -101.5t-115.5 -30.5h-1377q-87 0 -128 41.5t-41 129.5v432h137v-415q0 -36 16.5 -52.5t52.5 -16.5h1368q62 0 62 63v421h136v-421q0 -63 62 -63h1368q37 0 53 16.5t16 52.5v415h137v-432q0 -88 -41 -129.5t-128 -41.5h-1377q-79 0 -115.5 30.5
t-42.5 101.5zM1614 757v-90h-166v90h166zM2094 757v-90h-166v90h166z" />
    <glyph glyph-name="Ygrave" unicode="&#x1ef2;" horiz-adv-x="3378" 
d="M3182 700h142v-239q0 -88 -42 -130.5t-131 -42.5h-1391v-288h-142v288h-1392q-89 0 -131 42.5t-42 130.5v239h142v-219q0 -38 15.5 -53.5t52.5 -15.5h2852q37 0 52 15.5t15 53.5v219zM1688 759l-354 113h249l281 -113h-176z" />
    <glyph glyph-name="ygrave" unicode="&#x1ef3;" horiz-adv-x="3028" 
d="M2735 -167h-2628v119h2614q51 0 74 22.5t23 74.5v86q-14 -43 -47.5 -62.5t-94.5 -19.5h-2438q-89 0 -130 41.5t-41 129.5v379h137v-362q0 -69 69 -69h2476q36 0 52.5 16.5t16.5 52.5v362h137v-550q0 -114 -53 -167t-167 -53zM1513 657l-354 113h249l281 -113h-176z" />
    <glyph glyph-name="uni2010" unicode="&#x2010;" horiz-adv-x="1140" 
d="M1090 388v-122h-1040v122h1040z" />
    <glyph glyph-name="figuredash" unicode="&#x2012;" 
d="M3386 388v-122h-3386v122h3386z" />
    <glyph glyph-name="endash" unicode="&#x2013;" horiz-adv-x="1500" 
d="M1500 388v-122h-1500v122h1500z" />
    <glyph glyph-name="emdash" unicode="&#x2014;" horiz-adv-x="3000" 
d="M3000 388v-122h-3000v122h3000z" />
    <glyph glyph-name="quoteleft" unicode="&#x2018;" horiz-adv-x="342" 
d="M79 443v117q0 66 34.5 103t100.5 37h49v-67h-38q-29 0 -41.5 -13t-12.5 -42v-18h92v-117h-184z" />
    <glyph glyph-name="quoteright" unicode="&#x2019;" horiz-adv-x="342" 
d="M263 700v-117q0 -66 -34.5 -103t-100.5 -37h-49v67h38q29 0 41.5 13t12.5 42v18h-92v117h184z" />
    <glyph glyph-name="quotesinglbase" unicode="&#x201a;" horiz-adv-x="342" 
d="M263 118v-117q0 -66 -34.5 -103t-100.5 -37h-49v67h38q29 0 41.5 13t12.5 42v18h-92v117h184z" />
    <glyph glyph-name="quotedblleft" unicode="&#x201c;" horiz-adv-x="613" 
d="M350 443v117q0 66 34.5 103t100.5 37h49v-67h-38q-29 0 -41.5 -13t-12.5 -42v-18h92v-117h-184zM79 443v117q0 66 34.5 103t100.5 37h49v-67h-38q-29 0 -41.5 -13t-12.5 -42v-18h92v-117h-184z" />
    <glyph glyph-name="quotedblright" unicode="&#x201d;" horiz-adv-x="613" 
d="M534 700v-117q0 -66 -34.5 -103t-100.5 -37h-49v67h38q29 0 41.5 13t12.5 42v18h-92v117h184zM263 700v-117q0 -66 -34.5 -103t-100.5 -37h-49v67h38q29 0 41.5 13t12.5 42v18h-92v117h184z" />
    <glyph glyph-name="quotedblbase" unicode="&#x201e;" horiz-adv-x="613" 
d="M534 118v-117q0 -66 -34.5 -103t-100.5 -37h-49v67h38q29 0 41.5 13t12.5 42v18h-92v117h184zM263 118v-117q0 -66 -34.5 -103t-100.5 -37h-49v67h38q29 0 41.5 13t12.5 42v18h-92v117h184z" />
    <glyph glyph-name="dagger" unicode="&#x2020;" horiz-adv-x="3130" 
d="M3085 525v-124h-1449v-533h-142v533h-1450v124h1450v215h142v-215h1449z" />
    <glyph glyph-name="daggerdbl" unicode="&#x2021;" horiz-adv-x="3130" 
d="M3085 250v-124h-1449v-258h-142v258h-1450v124h1450v151h-1450v124h1450v215h142v-215h1449v-124h-1449v-151h1449z" />
    <glyph glyph-name="bullet" unicode="&#x2022;" horiz-adv-x="1500" 
d="M860 139h-220q-188 0 -188 178v66q0 178 188 178h220q188 0 188 -178v-66q0 -178 -188 -178z" />
    <glyph glyph-name="ellipsis" unicode="&#x2026;" horiz-adv-x="883" 
d="M263 118v-118h-184v118h184zM534 118v-118h-184v118h184zM804 118v-118h-184v118h184z" />
    <glyph glyph-name="perthousand" unicode="&#x2030;" horiz-adv-x="6047" 
d="M1641 0l792 700h155l-792 -700h-155zM2471 125v284q0 64 30.5 94.5t94.5 30.5h1448q64 0 94.5 -30.5t30.5 -94.5v-284q0 -64 -30.5 -94.5t-94.5 -30.5h-1448q-64 0 -94.5 30.5t-30.5 94.5zM4050 149v236q0 44 -43 44h-1373q-23 0 -33.5 -10t-10.5 -34v-236
q0 -24 10.5 -34t33.5 -10h1373q43 0 43 44zM4289 125v284q0 64 30.5 94.5t94.5 30.5h1448q64 0 94.5 -30.5t30.5 -94.5v-284q0 -64 -30.5 -94.5t-94.5 -30.5h-1448q-64 0 -94.5 30.5t-30.5 94.5zM5868 149v236q0 44 -43 44h-1373q-23 0 -33.5 -10t-10.5 -34v-236
q0 -24 10.5 -34t33.5 -10h1373q43 0 43 44zM60 291v284q0 64 30.5 94.5t94.5 30.5h1448q64 0 94.5 -30.5t30.5 -94.5v-284q0 -64 -30.5 -94.5t-94.5 -30.5h-1448q-64 0 -94.5 30.5t-30.5 94.5zM1639 315v236q0 44 -43 44h-1373q-23 0 -33.5 -10t-10.5 -34v-236
q0 -24 10.5 -34t33.5 -10h1373q43 0 43 44z" />
    <glyph glyph-name="guilsinglleft" unicode="&#x2039;" horiz-adv-x="507" 
d="M472 51h-164l-273 249l273 249h164l-277 -249z" />
    <glyph glyph-name="guilsinglright" unicode="&#x203a;" horiz-adv-x="507" 
d="M199 51h-164l277 249l-277 249h164l273 -249z" />
    <glyph glyph-name="fraction" unicode="&#x2044;" horiz-adv-x="1011" 
d="M32 0l792 700h155l-792 -700h-155z" />
    <glyph glyph-name="zerosuperior" unicode="&#x2070;" horiz-adv-x="1818" 
d="M60 291v284q0 64 30.5 94.5t94.5 30.5h1448q64 0 94.5 -30.5t30.5 -94.5v-284q0 -64 -30.5 -94.5t-94.5 -30.5h-1448q-64 0 -94.5 30.5t-30.5 94.5zM1639 315v236q0 44 -43 44h-1373q-23 0 -33.5 -10t-10.5 -34v-236q0 -24 10.5 -34t33.5 -10h1373q43 0 43 44z" />
    <glyph glyph-name="foursuperior" unicode="&#x2074;" horiz-adv-x="1818" 
d="M1626 485v215h119v-534h-119v215h-1453q-64 0 -94.5 30.5t-30.5 93.5v195h120v-171q0 -44 43 -44h1415z" />
    <glyph glyph-name="zeroinferior" unicode="&#x2080;" horiz-adv-x="1818" 
d="M60 125v284q0 64 30.5 94.5t94.5 30.5h1448q64 0 94.5 -30.5t30.5 -94.5v-284q0 -64 -30.5 -94.5t-94.5 -30.5h-1448q-64 0 -94.5 30.5t-30.5 94.5zM1639 149v236q0 44 -43 44h-1373q-23 0 -33.5 -10t-10.5 -34v-236q0 -24 10.5 -34t33.5 -10h1373q43 0 43 44z" />
    <glyph glyph-name="oneinferior" unicode="&#x2081;" horiz-adv-x="1818" 
d="M114 0v105h871v324h-872v105h991v-429h651v-105h-1641z" />
    <glyph glyph-name="twoinferior" unicode="&#x2082;" horiz-adv-x="1818" 
d="M1652 364v20q0 25 -10 35t-34 10h-1538v105h1577q64 0 94 -30.5t30 -94.5v-70q0 -63 -30 -93.5t-94 -30.5h-1412q-37 0 -51 -14t-14 -50v-46h1601v-105h-1720v168q0 151 151 151h1406q24 0 34 10t10 35z" />
    <glyph glyph-name="threeinferior" unicode="&#x2083;" horiz-adv-x="1818" 
d="M1767 412v-37q0 -48 -23.5 -75t-83.5 -33q60 -6 83.5 -33t23.5 -75v-37q0 -63 -29 -92.5t-93 -29.5h-1598v105h1557q24 0 34 10t10 35v20q0 24 -10 34.5t-34 10.5h-1464v104h1464q23 0 33.5 10.5t10.5 34.5v20q0 25 -10 35t-34 10h-1557v105h1598q64 0 93 -29.5t29 -92.5
z" />
    <glyph glyph-name="fourinferior" unicode="&#x2084;" horiz-adv-x="1818" 
d="M1626 319v215h119v-534h-119v215h-1453q-64 0 -94.5 30.5t-30.5 93.5v195h120v-171q0 -44 43 -44h1415z" />
    <glyph glyph-name="Euro" unicode="&#x20ac;" 
d="M336 0q-89 0 -131 42.5t-42 130.5v115h-130v124h130v115q0 88 42 130.5t131 42.5h2998v-124h-2962q-37 0 -52 -16t-15 -54v-94h2904v-124h-2904v-94q0 -38 15 -54t52 -16h2962v-124h-2998z" />
    <glyph glyph-name="uni2117" unicode="&#x2117;" horiz-adv-x="3286" 
d="M329 377h2630q21 0 21 20v38q0 20 -21 20h-2630v-78zM3045 445v-57q0 -34 -15.5 -50t-49.5 -16h-2651v-134h-65v323h2716q65 0 65 -66zM234 0q-86 0 -126.5 41t-40.5 125v368q0 84 40.5 125t126.5 41h2818q86 0 126.5 -41t40.5 -125v-368q0 -84 -40.5 -125t-126.5 -41
h-2818zM238 60h2810q53 0 78 25.5t25 77.5v374q0 52 -25 77.5t-78 25.5h-2810q-103 0 -103 -103v-374q0 -103 103 -103z" />
    <glyph glyph-name="trademark" unicode="&#x2122;" horiz-adv-x="4479" 
d="M3176 166v377q0 52 -49 52h-904q-23 0 -32.5 -9.5t-9.5 -33.5v-386h-120v409q0 125 125 125h913q66 0 98.5 -26t37.5 -84q6 58 38 84t99 26h912q125 0 125 -125v-409h-119v386q0 24 -10 33.5t-33 9.5h-903q-49 0 -49 -52v-377h-119zM1949 700v-105h-896v-429h-119v429
h-896v105h1911z" />
    <glyph glyph-name="uni2126" unicode="&#x2126;" 
d="M3170 419v89q0 37 -15.5 52.5t-50.5 15.5h-2822q-35 0 -50.5 -15.5t-15.5 -52.5v-89q0 -36 15.5 -51.5t50.5 -15.5h1210v-352h-1438v124h1303v105h-1111q-88 0 -130 42.5t-42 129.5v127q0 87 42 129.5t130 42.5h2894q88 0 130 -42.5t42 -129.5v-127q0 -87 -42 -129.5
t-130 -42.5h-1111v-105h1303v-124h-1438v352h1210q35 0 50.5 15.5t15.5 51.5z" />
    <glyph glyph-name="onethird" unicode="&#x2153;" horiz-adv-x="4229" 
d="M114 166v105h871v324h-872v105h991v-429h651v-105h-1641zM1641 0l792 700h155l-792 -700h-155zM4178 412v-37q0 -48 -23.5 -75t-83.5 -33q60 -6 83.5 -33t23.5 -75v-37q0 -63 -29 -92.5t-93 -29.5h-1598v105h1557q24 0 34 10t10 35v20q0 24 -10.5 34.5t-33.5 10.5h-1464
v104h1464q23 0 33.5 10.5t10.5 34.5v20q0 25 -10 35t-34 10h-1557v105h1598q64 0 93 -29.5t29 -92.5z" />
    <glyph glyph-name="twothirds" unicode="&#x2154;" horiz-adv-x="4229" 
d="M1652 530v20q0 25 -10 35t-34 10h-1538v105h1577q64 0 94 -30.5t30 -94.5v-70q0 -63 -30 -93.5t-94 -30.5h-1412q-37 0 -51 -14t-14 -50v-46h1601v-105h-1720v168q0 151 151 151h1406q24 0 34 10t10 35zM1641 0l792 700h155l-792 -700h-155zM4178 412v-37
q0 -48 -23.5 -75t-83.5 -33q60 -6 83.5 -33t23.5 -75v-37q0 -63 -29 -92.5t-93 -29.5h-1598v105h1557q24 0 34 10t10 35v20q0 24 -10.5 34.5t-33.5 10.5h-1464v104h1464q23 0 33.5 10.5t10.5 34.5v20q0 25 -10 35t-34 10h-1557v105h1598q64 0 93 -29.5t29 -92.5z" />
    <glyph glyph-name="partialdiff" unicode="&#x2202;" 
d="M3321 460v-287q0 -88 -42 -130.5t-131 -42.5h-2921q-89 0 -131 42.5t-42 129.5v68q0 87 42 129.5t131 42.5h2952v51q0 113 -112 113h-2983v124h2996q118 0 179.5 -61t61.5 -179zM196 221v-29q0 -37 15.5 -52.5t50.5 -15.5h2849q37 0 52.5 16t15.5 54v94h-2917
q-35 0 -50.5 -15.5t-15.5 -51.5z" />
    <glyph glyph-name="uni2206" unicode="&#x2206;" 
d="M3346 0h-3307l1653 738zM1692 603l-1074 -479h2149z" />
    <glyph glyph-name="product" unicode="&#x220f;" 
d="M3177 -132v708h-2968v-708h-142v832h3252v-832h-142z" />
    <glyph glyph-name="summation" unicode="&#x2211;" 
d="M3319 -8v-124h-3253v103l1047 313l-1047 313v103h3253v-124h-2747l974 -292l-974 -292h2747z" />
    <glyph glyph-name="minus" unicode="&#x2212;" 
d="M67 291v118h3252v-118h-3252z" />
    <glyph glyph-name="radical" unicode="&#x221a;" 
d="M2383 0l-354 291h-1962v118h2010l372 -307l724 598h188l-846 -700h-132z" />
    <glyph glyph-name="infinity" unicode="&#x221e;" horiz-adv-x="733" 
d="M345 317q-12 0 -23.5 12.5t-14.5 12.5t-11 -2t-14 -2q-8 0 -14.5 8t-6.5 17q0 22 8 35q-7 -7 -16 -37t-26 -41q-18 -12 -18 -40q0 -11 11 -21.5t11 -12.5q0 -4 -3 -4q-7 0 -12 5q13 -68 48 -104h-55q-35 114 -35 226q0 105 40.5 171.5t135.5 66.5q190 0 190 -254
q0 -75 -25 -210h-73q53 47 62 117q-4 -8 -13 -8q-3 0 -3 2l4 4q5 3 9.5 11.5t4.5 21.5q-4 -6 -15 -6q-1 0 -10.5 -4.5t-15.5 -4.5q-14 0 -40 3.5t-70 3.5q-22 0 -52.5 -6t-38.5 -6q-5 0 -13 2t-11 2q-28 0 -28 12q0 10 37 18.5t74 8.5q5 0 12 -0.5t12 -0.5t15.5 2t14.5 2
q112 0 127 -20q-1 16 -14 29t-30 13q-6 0 -6 7q0 57 -16 58q4 -7 4 -17q0 -18 -11 -32t-27 -14q-4 0 -10 2l-7 2q-1 0 -14.5 -14t-27.5 -14zM733 291v-148q-22 48 -69 112.5t-67 64.5q6 -85 -12 -177h-42q16 104 16 199q0 319 -213 319q-53 0 -91.5 -26.5t-59 -72.5
t-30 -97.5t-9.5 -111.5q0 -123 29 -210h-47q-19 67 -19 184q-17 -9 -39.5 -43.5t-49 -84.5t-30.5 -56v148q11 27 33 54t50 53.5t30 28.5q3 72 27 135t75.5 107.5t120.5 44.5q67 0 115.5 -22.5t76.5 -64t42.5 -87t22.5 -105.5q22 -5 68 -48t72 -96zM345 503q-3 3 -3 6
q0 2 2 2q1 0 6 -4.5t15 -8.5t22 -4q16 0 29 4t20 8l6 5q4 0 4 -2l-8 -8q24 0 52 -11q-29 80 -139 80q-55 0 -92 -33t-50 -85q37 20 41 39q-6 4 -6 7q0 4 3 4l2 -2q2 -1 6.5 -3.5t10 -5t13.5 -4t17 -1.5q24 0 49 17zM371 416q0 20 -4.5 40t-9.5 20q-10 0 -19 -39t-14 -39
q-3 0 -9.5 3t-11.5 3q-13 0 -21 -10.5t-8 -24.5t11 -14t18 6.5t9 6.5t12 -13.5t20 -13.5q14 0 25 10.5t12 10.5q3 0 10 -3.5t9 -3.5q10 0 18 11t8 24q0 10 -6 18t-16 8q-7 0 -14.5 -6.5t-11.5 -6.5q-7 0 -7 13zM510 318q0 95 -12 147l-5 3q0 -21 -18 -32t-41 -11
q-21 0 -37 12.5t-16 29.5q0 6 2 9q-12 2 -15 4q6 -9 10 -24t5.5 -24t4.5 -9q7 2 15 2q19 0 31 -14q34 0 34 -51q0 -3 8 -7t18.5 -13t15.5 -22zM383 310q-1 0 -8 -1t-15.5 -2t-13.5 -1t-13 1.5t-11 1.5q-15 0 -36 -4t-35 -9t-14 -8q0 -10 20 -10q24 0 54 6.5t44 6.5
q19 0 57.5 -3.5t52.5 -3.5q5 0 9.5 2t7.5 4t3 3q0 5 -36 11t-66 6zM267 413q-18 0 -31 10t-15 21q-4 -2 -15 -5q-4 -21 -4 -43q0 -50 3 -78q4 6 22 22t20 31q5 37 38 41q12 5 23 5q5 0 8.5 8.5t9.5 24.5t16 28l-13 -4q-1 -24 -18.5 -42.5t-43.5 -18.5zM419 465q-13 0 -16 13
q-5 0 -8.5 -5.5t-3.5 -9.5q0 -10 15 -17t31 -7q14 0 29 8.5t15 21.5q0 8 -14.5 12.5t-28.5 4.5q-5 -21 -19 -21zM267 427q14 0 30 11t16 24q0 6 -1 9q-20 0 -27 1q-5 -14 -18 -14q-10 0 -15 5q-4 -4 -18 -12q4 -24 33 -24zM266 288q-2 0 -2 3q0 12 107 12q93 0 93 -8
q0 -3 -3 -3q-1 0 -4 0.5t-10 1t-16 1.5t-24.5 1.5t-33.5 0.5q-36 0 -61 -2.5t-36 -4.5zM305 262q0 10 63 10q31 0 31 -8q0 -3 -2 -3q-4 0 -10 2t-10 2q-11 0 -26 -0.5t-20 -0.5q-4 0 -11.5 -3t-10.5 -3q-4 0 -4 4zM417 473q9 0 9 13q-1 0 -16 -6q0 -7 7 -7zM266 466
q7 0 10 9q-6 1 -11 4q0 -4 -6 -10q1 -3 7 -3zM325 34l-3 48l-10 -82h-21l15 125h25l4 -60l21 60h26l-15 -125h-22l10 82l-16 -48h-14zM21 125h35q23 0 20 -21l-10 -82q-3 -22 -22 -22h-38zM282 44q-1 -12 -10 -17l8 -27h-21l-7 23h-7l-3 -23h-22l15 125h36q21 0 18 -24z
M183 0l3 23h-14l-3 -23h-21l12 104q2 21 22 21h17q19 0 18 -21l-12 -104h-22zM594 0l15 125h35q23 0 20 -21l-8 -62q-3 -19 -22 -19h-15l-3 -23h-22zM111 0l3 23h-13l-3 -23h-22l15 125h22l-10 -83h13l10 83h22l-15 -125h-22zM539 125h22l-10 -79q0 -4 4 -4h5q5 0 5 4l9 79
h22l-10 -81q-3 -21 -19 -21l-9 -23h-23l9 23q-18 0 -15 21zM477 106l3 19h50l-3 -19h-13l-12 -106h-23l12 106h-14zM41 106l-11 -88h11q3 0 3 4l9 80q0 4 -4 4h-8zM629 106l-8 -64h8q5 0 5 4l7 56q0 4 -4 4h-8zM174 42h14l7 60q0 4 -4 4h-5q-5 0 -5 -4zM255 106l-8 -64h8
q5 0 5 4l7 56q0 4 -3 4h-9zM711 57l-3 -18h-19l-3 -21h27l-2 -18h-49l15 125h47l-3 -19h-24l-6 -49h20zM417 0l3 23h-14l-3 -23h-21l12 104q2 21 22 21h17q19 0 18 -21l-12 -104h-22zM408 42h14l7 60q0 4 -4 4h-5q-5 0 -5 -4z" />
    <glyph glyph-name="integral" unicode="&#x222b;" 
d="M1890 499l-286 -490q-46 -80 -97.5 -110.5t-147.5 -30.5h-1292v124h1297q48 0 78 17t55 60l285 490q47 80 98.5 110.5t147.5 30.5h1291v-124h-1296q-49 0 -78.5 -17t-54.5 -60z" />
    <glyph glyph-name="approxequal" unicode="&#x2248;" 
d="M67 126v121q303 98 719 98q245 0 576.5 -35l663 -70t577.5 -35q413 0 716 97v-121q-305 -98 -723 -98q-197 0 -450 21.5t-458.5 48t-458 48t-448.5 21.5q-411 0 -714 -96zM67 398v121q303 98 719 98q245 0 576.5 -35l663 -70t577.5 -35q413 0 716 97v-121
q-305 -98 -723 -98q-197 0 -450 21.5t-458.5 48t-458 48t-448.5 21.5q-411 0 -714 -96z" />
    <glyph glyph-name="notequal" unicode="&#x2260;" 
d="M1393 0h-162l173 154h-1301v118h1433l176 156h-1609v118h1741l174 154h162l-173 -154h1275v-118h-1408l-175 -156h1583v-118h-1716z" />
    <glyph glyph-name="lessequal" unicode="&#x2264;" 
d="M67 350l360 350h158l-300 -291h3034v-118h-3034l178 -173h2856v-118h-3252v118h238z" />
    <glyph glyph-name="greaterequal" unicode="&#x2265;" 
d="M2959 700l360 -350l-238 -232h238v-118h-3252v118h2856l178 173h-3034v118h3034l-300 291h158z" />
    <glyph glyph-name="lozenge" unicode="&#x25ca;" 
d="M1692 -38l-1653 386l1653 386l1654 -386zM1692 87l1117 261l-1117 260l-1116 -260z" />
    <glyph glyph-name="commaaccent" horiz-adv-x="750" 
d="M458 -68v-73q0 -56 -29.5 -87.5t-85.5 -31.5h-48v41h43q24 0 34.5 11t10.5 36v14h-91v90h166z" />
    <glyph glyph-name="f.alt" horiz-adv-x="2932" 
d="M288 484q-44 0 -64 -19.5t-20 -64.5v-39h2606v-119h-2606v-409h-137v573q0 101 48 149t149 48h2636v-119h-2612z" />
    <glyph glyph-name="i.alt" horiz-adv-x="290" 
d="M77 0v603h137v-603h-137zM241 757v-90h-192v90h192z" />
    <glyph glyph-name="i.trk" horiz-adv-x="455" 
d="M273 119h154v-119h-189q-87 0 -127 40.5t-40 127.5v435h137v-418q0 -34 15.5 -50t49.5 -16zM235 757v-90h-191v90h191z" />
    <glyph glyph-name="germandbls.alt" horiz-adv-x="3052" 
d="M2812 246h-2237v111h2237q28 0 39.5 11t11.5 39v25q0 28 -12.5 40t-40.5 12h-2518q-46 0 -67 -20t-21 -67v-564h-137v577q0 98 47.5 145.5t146.5 47.5h2597q75 0 108.5 -33t33.5 -105v-38q0 -57 -24 -88.5t-83 -37.5q59 -6 83 -37t24 -88v-38q0 -72 -35 -105t-107 -33
h-2283v119h2235q28 0 40.5 12.5t12.5 40.5v25q0 26 -11.5 37.5t-39.5 11.5z" />
    <glyph glyph-name="one.pnum" horiz-adv-x="585" 
d="M504 700v-700h-142v576h-329v124h471z" />
    </font>
</defs>
</svg>
