<?xml version="1.0" standalone="no"?>
<!DOCTYPE svg PUBLIC "-//W3C//DTD SVG 1.1//EN" "http://www.w3.org/Graphics/SVG/1.1/DTD/svg11.dtd" >
<svg xmlns="http://www.w3.org/2000/svg" xmlns:xlink="http://www.w3.org/1999/xlink" version="1.1">
<metadata>
Created by FontForge 20170731 at Sat Mar 14 00:16:18 2015
 By ,,,
Copyright (c) 2011 by Ryoichi Tsunekawa. All rights reserved.
</metadata>
<defs>
<font id="DesignSystemD-900R" horiz-adv-x="1332" >
  <font-face 
    font-family="DesignSystemD-900R"
    font-weight="400"
    font-stretch="normal"
    units-per-em="1000"
    panose-1="4 5 8 8 2 11 2 2 3 2"
    ascent="822"
    descent="-178"
    x-height="603"
    cap-height="700"
    bbox="-124 -264 2784 931"
    underline-thickness="36"
    underline-position="-156"
    unicode-range="U+0020-FB02"
  />
<missing-glyph horiz-adv-x="766" 
d="M0 700h766v-700h-766v700zM80 620v-530l543 530h-543zM143 80h543v529z" />
    <glyph glyph-name="ij" unicode="ij" horiz-adv-x="587" 
d="M265 -7h50q31 0 31 31v579h184v-617q0 -78 -37 -115.5t-117 -37.5h-111v160zM332 657v113h211v-113h-211zM50 0v603h184v-603h-184zM248 770v-113h-212v113h212z" />
    <glyph glyph-name="fi" unicode="fi" horiz-adv-x="1500" 
d="M273 443q-45 0 -45 -44v-18h827v-159h-827v-222h-184v427q0 91 43 133.5t134 42.5h891v-160h-839zM1395 160h89v-160h-153q-80 0 -117 37.5t-37 115.5v450h184v-409q0 -34 34 -34zM1375 770v-113h-212v113h212z" />
    <glyph glyph-name="fl" unicode="fl" horiz-adv-x="1496" 
d="M273 443q-45 0 -45 -44v-18h827v-159h-827v-222h-184v427q0 91 43 133.5t134 42.5h891v-160h-839zM1391 160h89v-160h-153q-80 0 -117 37.5t-37 115.5v617h184v-576q0 -34 34 -34z" />
    <glyph glyph-name=".notdef" horiz-adv-x="766" 
d="M0 700h766v-700h-766v700zM80 620v-530l543 530h-543zM143 80h543v529z" />
    <glyph glyph-name=".null" horiz-adv-x="0" 
 />
    <glyph glyph-name="nonmarkingreturn" horiz-adv-x="333" 
 />
    <glyph glyph-name="space" unicode=" " horiz-adv-x="398" 
 />
    <glyph glyph-name="exclam" unicode="!" horiz-adv-x="313" 
d="M267 130v-130h-221v130h221zM253 700v-216q0 -156 -20 -269h-152q-20 113 -20 269v216h192z" />
    <glyph glyph-name="quotedbl" unicode="&#x22;" horiz-adv-x="551" 
d="M238 700v-39q0 -127 -25 -269h-142q-25 142 -25 269v39h192zM505 700v-39q0 -127 -25 -269h-142q-25 142 -25 269v39h192z" />
    <glyph glyph-name="numbersign" unicode="#" 
d="M1023 0l6 111h-751l-6 -111h-166l6 111h-81l8 160h81l9 158h-81l8 160h81l6 111h166l-6 -111h751l6 111h166l-6 -111h81l-8 -160h-81l-9 -158h81l-8 -160h-81l-6 -111h-166zM295 429l-9 -158h751l9 158h-751z" />
    <glyph glyph-name="dollar" unicode="$" 
d="M36 210h1049q28 0 28 28v12q0 27 -28 27h-912q-137 0 -137 140v95q0 72 33 106t103 34h411v88h167v-88h519v-160h-1021q-28 0 -28 -28v-11q0 -28 28 -28h913q70 0 103 -34t33 -106v-95q0 -72 -33.5 -106t-103.5 -34h-410v-90h-167v90h-547v160z" />
    <glyph glyph-name="percent" unicode="%" horiz-adv-x="1992" 
d="M738 0l357 700h158l-357 -700h-158zM1191 130v274q0 66 31.5 98t98.5 32h500q67 0 98.5 -32t31.5 -98v-274q0 -66 -31.5 -98t-98.5 -32h-500q-67 0 -98.5 32t-31.5 98zM1793 168v198q0 30 -28 30h-387q-29 0 -29 -30v-198q0 -30 29 -30h387q28 0 28 30zM40 296v274
q0 66 31.5 98t98.5 32h500q67 0 98.5 -32t31.5 -98v-274q0 -66 -31.5 -98t-98.5 -32h-500q-67 0 -98.5 32t-31.5 98zM642 334v198q0 30 -28 30h-387q-29 0 -29 -30v-198q0 -30 29 -30h387q28 0 28 30z" />
    <glyph glyph-name="ampersand" unicode="&#x26;" horiz-adv-x="1446" 
d="M1149 267h-885q-17 0 -24.5 -7.5t-7.5 -24.5v-36q0 -18 7.5 -25.5t24.5 -7.5h856q17 0 23 6.5t6 23.5v71zM40 150v61q0 66 28 99.5t93 39.5q-65 6 -93 39.5t-28 99.5v61q0 78 36 114t115 36h1100v-166h-1027q-17 0 -24.5 -7.5t-7.5 -25.5v-36q0 -17 7.5 -24.5t24.5 -7.5
h1163v-166h-86v-123q0 -78 -32.5 -111t-110.5 -33h-1007q-79 0 -115 36t-36 114z" />
    <glyph glyph-name="quotesingle" unicode="'" horiz-adv-x="284" 
d="M238 700v-39q0 -127 -25 -269h-142q-25 142 -25 269v39h192z" />
    <glyph glyph-name="parenleft" unicode="(" horiz-adv-x="364" 
d="M225 103q0 -18 7.5 -25.5t24.5 -7.5h71v-150h-125q-79 0 -115 36t-36 114v480q0 78 36 114t115 36h125v-150h-71q-17 0 -24.5 -7.5t-7.5 -25.5v-414z" />
    <glyph glyph-name="parenright" unicode=")" horiz-adv-x="364" 
d="M139 103v414q0 18 -7.5 25.5t-24.5 7.5h-71v150h125q79 0 115 -36t36 -114v-480q0 -78 -36 -114t-115 -36h-125v150h71q17 0 24.5 7.5t7.5 25.5z" />
    <glyph glyph-name="asterisk" unicode="*" horiz-adv-x="588" 
d="M310 453q24 28 70 65.5t88 50.5l59 19l47 -147l-59 -19q-60 -13 -109.5 -10t-85.5 11q31 -12 82.5 -45t77.5 -69l36 -49l-125 -91l-36 49q-25 35 -41 93t-20 93q-4 -35 -20 -93t-41 -93l-36 -49l-125 91l36 49q26 36 77.5 69t82.5 45q-36 -8 -85.5 -11t-109.5 10l-59 19
l47 147l59 -19q42 -13 88 -50.5t70 -65.5q-18 30 -39.5 86t-21.5 100v61h155v-61q0 -44 -21.5 -100t-40.5 -86z" />
    <glyph glyph-name="plus" unicode="+" 
d="M46 271v158h541v197h158v-197h541v-158h-541v-198h-158v198h-541z" />
    <glyph glyph-name="comma" unicode="," horiz-adv-x="308" 
d="M259 150v-150q0 -77 -43.5 -122t-123.5 -45h-43v86h34q30 0 43.5 12t13.5 43v26h-91v150h210z" />
    <glyph glyph-name="hyphen" unicode="-" horiz-adv-x="582" 
d="M548 409v-164h-514v164h514z" />
    <glyph glyph-name="period" unicode="." horiz-adv-x="308" 
d="M259 150v-150h-210v150h210z" />
    <glyph glyph-name="slash" unicode="/" horiz-adv-x="641" 
d="M20 0l398 700h203l-398 -700h-203z" />
    <glyph glyph-name="zero" unicode="0" 
d="M202 0q-80 0 -118 38.5t-38 116.5v390q0 78 38 116.5t118 38.5h928q80 0 118 -38.5t38 -116.5v-390q0 -78 -38 -116.5t-118 -38.5h-928zM1094 200v300q0 18 -7.5 25.5t-24.5 7.5h-792q-17 0 -24.5 -7.5t-7.5 -25.5v-300q0 -18 7.5 -25.5t24.5 -7.5h792q17 0 24.5 7.5
t7.5 25.5z" />
    <glyph glyph-name="one" unicode="1" 
d="M954 700v-533h325v-167h-1174v167h672v366h-672v167h849z" />
    <glyph glyph-name="two" unicode="2" 
d="M1095 500q0 18 -7.5 25.5t-24.5 7.5h-998v167h1066q80 0 118 -38.5t38 -116.5v-124q0 -78 -38 -116.5t-118 -38.5h-853q-26 0 -36.5 -10t-10.5 -36v-53h1065v-167h-1257v246q0 187 187 187h837q17 0 24.5 7.5t7.5 25.5v34z" />
    <glyph glyph-name="three" unicode="3" 
d="M1068 267h-925v166h925q17 0 24.5 7.5t7.5 25.5v34q0 18 -7.5 25.5t-24.5 7.5h-1032v167h1105q79 0 115 -36t36 -114v-61q0 -66 -28 -99.5t-93 -39.5q65 -6 93 -39.5t28 -99.5v-61q0 -78 -36 -114t-115 -36h-1105v167h1032q17 0 24.5 7.5t7.5 25.5v34q0 18 -7.5 25.5
t-24.5 7.5z" />
    <glyph glyph-name="four" unicode="4" 
d="M1091 433v267h192v-700h-192v267h-899q-156 0 -156 154v279h192v-234q0 -18 7.5 -25.5t24.5 -7.5h831z" />
    <glyph glyph-name="five" unicode="5" 
d="M58 267v433h1210v-167h-1018v-100h888q80 0 118 -38.5t38 -116.5v-123q0 -78 -38 -116.5t-118 -38.5h-1090v167h1022q18 0 25 7.5t7 25.5v34q0 18 -7 25.5t-25 7.5h-1012z" />
    <glyph glyph-name="six" unicode="6" 
d="M237 472v-39h901q80 0 118 -38.5t38 -116.5v-123q0 -78 -38 -116.5t-118 -38.5h-939q-80 0 -117.5 38t-37.5 117v329q0 106 55 161t161 55h1008v-167h-971q-60 0 -60 -61zM1070 267h-833v-67q0 -18 7.5 -25.5t24.5 -7.5h801q18 0 25 7.5t7 25.5v34q0 18 -7 25.5t-25 7.5z
" />
    <glyph glyph-name="seven" unicode="7" 
d="M1057 433q26 0 36.5 10t10.5 37v53h-1085v167h1277v-246q0 -187 -187 -187h-468q-26 0 -36.5 -10t-10.5 -37v-220h-192v246q0 187 187 187h468z" />
    <glyph glyph-name="eight" unicode="8" 
d="M1294 550v-61q0 -66 -28 -99.5t-93 -39.5q65 -6 93 -39.5t28 -99.5v-61q0 -78 -36 -114t-115 -36h-954q-79 0 -115 36t-36 114v61q0 66 28 99.5t93 39.5q-65 6 -93 39.5t-28 99.5v61q0 78 36 114t115 36h954q79 0 115 -36t36 -114zM262 433h808q17 0 24.5 7.5t7.5 25.5
v34q0 18 -7.5 25.5t-24.5 7.5h-808q-17 0 -24.5 -7.5t-7.5 -25.5v-34q0 -18 7.5 -25.5t24.5 -7.5zM1070 267h-808q-17 0 -24.5 -7.5t-7.5 -25.5v-34q0 -18 7.5 -25.5t24.5 -7.5h808q17 0 24.5 7.5t7.5 25.5v34q0 18 -7.5 25.5t-24.5 7.5z" />
    <glyph glyph-name="nine" unicode="9" 
d="M1133 700q80 0 117.5 -38t37.5 -117v-329q0 -106 -55 -161t-161 -55h-1008v167h971q60 0 60 61v39h-901q-80 0 -118 38.5t-38 116.5v123q0 78 38 116.5t118 38.5h939zM230 500v-34q0 -18 7.5 -25.5t24.5 -7.5h833v67q0 18 -7 25.5t-25 7.5h-801q-17 0 -24.5 -7.5
t-7.5 -25.5z" />
    <glyph glyph-name="colon" unicode=":" horiz-adv-x="308" 
d="M259 603v-150h-210v150h210zM259 150v-150h-210v150h210z" />
    <glyph glyph-name="semicolon" unicode=";" horiz-adv-x="308" 
d="M259 150v-150q0 -77 -43.5 -122t-123.5 -45h-43v86h34q30 0 43.5 12t13.5 43v26h-91v150h210zM259 603v-150h-210v150h210z" />
    <glyph glyph-name="less" unicode="&#x3c;" 
d="M46 350l214 276h204l-160 -197h982v-158h-982l160 -198h-204z" />
    <glyph glyph-name="equal" unicode="=" 
d="M76 131v158h1180v-158h-1180zM76 411v158h1180v-158h-1180z" />
    <glyph glyph-name="greater" unicode="&#x3e;" 
d="M1286 350l-214 -277h-204l160 198h-982v158h982l-160 197h204z" />
    <glyph glyph-name="question" unicode="?" horiz-adv-x="1306" 
d="M1089 466v34q0 18 -7.5 25.5t-25.5 7.5h-1037v167h1106q80 0 118 -38.5t38 -116.5v-123q0 -78 -38 -116.5t-118 -38.5h-429q-18 0 -23.5 -5.5t-5.5 -24.5v-32h-192v96q0 69 31.5 100.5t100.5 31.5h449q18 0 25.5 7.5t7.5 25.5zM681 130v-130h-221v130h221z" />
    <glyph glyph-name="at" unicode="@" horiz-adv-x="1399" 
d="M217 0q-88 0 -129.5 42t-41.5 128v360q0 86 41.5 128t129.5 42h965q88 0 129.5 -42t41.5 -128v-360q0 -86 -41.5 -128t-129.5 -42h-965zM222 72h955q94 0 94 94v368q0 94 -94 94h-955q-94 0 -94 -94v-368q0 -94 94 -94zM1082 188h-768q-69 0 -69 71v52q0 71 69 71h768v42
q0 21 -21 21h-802v66h823q77 0 77 -77v-169q0 -77 -77 -77zM339 317q-16 0 -16 -16v-30q0 -17 16 -17h722q21 0 21 21v42h-743z" />
    <glyph glyph-name="A" unicode="A" horiz-adv-x="1361" 
d="M1309 0h-192v267h-873v-267h-192v545q0 78 38 116.5t118 38.5h945q80 0 118 -38.5t38 -116.5v-545zM1085 533h-809q-17 0 -24.5 -7.5t-7.5 -25.5v-67h873v67q0 18 -7 25.5t-25 7.5z" />
    <glyph glyph-name="B" unicode="B" horiz-adv-x="1353" 
d="M1313 211v-61q0 -78 -35.5 -114t-114.5 -36h-1107v700h1107q79 0 114.5 -36t35.5 -114v-61q0 -66 -28 -99.5t-93 -39.5q65 -6 93 -39.5t28 -99.5zM1089 433q18 0 25 7.5t7 25.5v34q0 18 -7 25.5t-25 7.5h-841v-100h841zM248 267v-100h841q18 0 25 7.5t7 25.5v34
q0 18 -7 25.5t-25 7.5h-841z" />
    <glyph glyph-name="C" unicode="C" horiz-adv-x="1273" 
d="M201 0q-80 0 -117.5 38t-37.5 117v390q0 79 37.5 117t117.5 38h1036v-167h-967q-17 0 -24.5 -7.5t-7.5 -25.5v-300q0 -18 7.5 -25.5t24.5 -7.5h967v-167h-1036z" />
    <glyph glyph-name="D" unicode="D" horiz-adv-x="1353" 
d="M1098 700q106 0 160.5 -55t54.5 -161v-268q0 -106 -54.5 -161t-160.5 -55h-1042v700h1042zM1061 167q60 0 60 61v244q0 61 -60 61h-813v-366h813z" />
    <glyph glyph-name="E" unicode="E" horiz-adv-x="1326" 
d="M56 0v700h1234v-167h-1042v-100h942v-166h-942v-100h1042v-167h-1234z" />
    <glyph glyph-name="F" unicode="F" horiz-adv-x="1303" 
d="M56 0v700h1228v-167h-1036v-100h936v-167h-936v-266h-192z" />
    <glyph glyph-name="G" unicode="G" horiz-adv-x="1354" 
d="M1086 167q17 0 23.5 6.5t6.5 23.5v70h-515v166h707v-289q0 -77 -33 -110.5t-111 -33.5h-963q-80 0 -117.5 38t-37.5 117v390q0 79 37.5 117t117.5 38h1082v-167h-1013q-17 0 -24.5 -7.5t-7.5 -25.5v-300q0 -18 7.5 -25.5t24.5 -7.5h816z" />
    <glyph glyph-name="H" unicode="H" horiz-adv-x="1385" 
d="M1137 0v266h-889v-266h-192v700h192v-267h889v267h192v-700h-192z" />
    <glyph glyph-name="I" unicode="I" horiz-adv-x="304" 
d="M56 0v700h192v-700h-192z" />
    <glyph glyph-name="J" unicode="J" horiz-adv-x="1340" 
d="M36 144v198h192v-145q0 -17 6 -23.5t23 -6.5h807q18 0 25 7.5t7 25.5v500h192v-545q0 -79 -38 -117t-119 -38h-951q-78 0 -111 33.5t-33 110.5z" />
    <glyph glyph-name="K" unicode="K" horiz-adv-x="1359" 
d="M1313 700v-193q0 -71 -30.5 -111t-106.5 -46q76 -6 106.5 -46.5t30.5 -110.5v-193h-192v226q0 41 -40 41h-833v-267h-192v700h192v-267h833q40 0 40 41v226h192z" />
    <glyph glyph-name="L" unicode="L" horiz-adv-x="1295" 
d="M1276 167v-167h-1220v700h192v-533h1028z" />
    <glyph glyph-name="M" unicode="M" horiz-adv-x="1724" 
d="M1019 700h497q80 0 118 -38.5t38 -116.5v-545h-192v500q0 18 -7.5 25.5t-24.5 7.5h-457q-33 0 -33 -34v-499h-192v499q0 34 -33 34h-457q-17 0 -24.5 -7.5t-7.5 -25.5v-500h-192v545q0 78 38 116.5t118 38.5h498q74 0 110.5 -27.5t45.5 -88.5q9 61 45.5 88.5t111.5 27.5z
" />
    <glyph glyph-name="N" unicode="N" horiz-adv-x="1361" 
d="M276 533q-17 0 -24.5 -7.5t-7.5 -25.5v-500h-192v545q0 78 38 116.5t118 38.5h945q80 0 118 -38.5t38 -116.5v-545h-192v500q0 18 -7 25.5t-25 7.5h-809z" />
    <glyph glyph-name="O" unicode="O" horiz-adv-x="1352" 
d="M202 0q-80 0 -118 38.5t-38 116.5v390q0 78 38 116.5t118 38.5h948q80 0 118 -38.5t38 -116.5v-390q0 -78 -38 -116.5t-118 -38.5h-948zM1114 200v300q0 18 -7.5 25.5t-24.5 7.5h-812q-17 0 -24.5 -7.5t-7.5 -25.5v-300q0 -33 32 -33h812q17 0 24.5 7.5t7.5 25.5z" />
    <glyph glyph-name="P" unicode="P" horiz-adv-x="1334" 
d="M56 0v700h1097q80 0 118 -38t38 -117v-124q0 -79 -38 -117t-118 -38h-905v-266h-192zM1117 500q0 18 -7.5 25.5t-24.5 7.5h-837v-100h837q17 0 24.5 7.5t7.5 25.5v34z" />
    <glyph glyph-name="Q" unicode="Q" horiz-adv-x="1352" 
d="M202 0q-80 0 -118 38.5t-38 116.5v390q0 78 38 116.5t118 38.5h948q80 0 118 -38.5t38 -116.5v-390q0 -78 -38 -116.5t-118 -38.5h-390v-123h-167v123h-391zM1114 200v300q0 18 -7.5 25.5t-24.5 7.5h-812q-17 0 -24.5 -7.5t-7.5 -25.5v-300q0 -33 32 -33h323v84h167v-84
h322q17 0 24.5 7.5t7.5 25.5z" />
    <glyph glyph-name="R" unicode="R" horiz-adv-x="1359" 
d="M1313 550v-61q0 -68 -30 -102t-99 -38q71 -8 100 -47.5t29 -108.5v-193h-192v226q0 41 -40 41h-833v-267h-192v700h1107q79 0 114.5 -36t35.5 -114zM1089 433q18 0 25 7.5t7 25.5v34q0 18 -7 25.5t-25 7.5h-841v-100h841z" />
    <glyph glyph-name="S" unicode="S" horiz-adv-x="1316" 
d="M201 267q-80 0 -118 38.5t-38 116.5v123q0 78 38 116.5t118 38.5h1050v-167h-982q-17 0 -24.5 -7.5t-7.5 -25.5v-34q0 -18 7.5 -25.5t24.5 -7.5h852q81 0 119 -38.5t38 -116.5v-123q0 -79 -38 -117t-119 -38h-1085v167h1018q17 0 24.5 7.5t7.5 25.5v34q0 18 -7.5 25.5
t-24.5 7.5h-853z" />
    <glyph glyph-name="T" unicode="T" horiz-adv-x="1299" 
d="M1280 700v-167h-534v-533h-192v533h-535v167h1261z" />
    <glyph glyph-name="U" unicode="U" horiz-adv-x="1361" 
d="M208 0q-80 0 -118 38.5t-38 116.5v545h192v-500q0 -18 7.5 -25.5t24.5 -7.5h809q18 0 25 7.5t7 25.5v500h192v-545q0 -78 -38 -116.5t-118 -38.5h-945z" />
    <glyph glyph-name="V" unicode="V" horiz-adv-x="1348" 
d="M56 0v700h192v-533h801q60 0 60 61v472h192v-484q0 -106 -54.5 -161t-160.5 -55h-1030z" />
    <glyph glyph-name="W" unicode="W" horiz-adv-x="1724" 
d="M1516 0h-497q-75 0 -111.5 27.5t-45.5 88.5q-9 -61 -45.5 -88.5t-110.5 -27.5h-498q-80 0 -118 38.5t-38 116.5v545h192v-500q0 -18 7.5 -25.5t24.5 -7.5h457q33 0 33 34v499h192v-499q0 -34 33 -34h457q17 0 24.5 7.5t7.5 25.5v500h192v-545q0 -78 -38 -116.5
t-118 -38.5z" />
    <glyph glyph-name="X" unicode="X" horiz-adv-x="1351" 
d="M45 507v193h192v-226q0 -41 40 -41h796q41 0 41 41v226h192v-193q0 -71 -30.5 -111t-106.5 -46q76 -6 106.5 -46.5t30.5 -110.5v-193h-192v226q0 41 -41 41h-796q-40 0 -40 -41v-226h-192v193q0 70 30.5 110.5t106.5 46.5q-76 6 -106.5 46t-30.5 111z" />
    <glyph glyph-name="Y" unicode="Y" horiz-adv-x="1341" 
d="M1113 700h192v-278q0 -79 -37.5 -117t-117.5 -38h-383v-267h-192v267h-384q-80 0 -117.5 38t-37.5 117v278h192v-235q0 -17 7.5 -24.5t24.5 -7.5h821q18 0 25 7.5t7 24.5v235z" />
    <glyph glyph-name="Z" unicode="Z" horiz-adv-x="1320" 
d="M1040 433q26 0 36 10t10 37v53h-1021v167h1213v-246q0 -187 -187 -187h-813q-26 0 -36.5 -10t-10.5 -37v-53h1047v-167h-1239v246q0 187 187 187h814z" />
    <glyph glyph-name="bracketleft" unicode="[" horiz-adv-x="361" 
d="M56 700h269v-140h-108v-500h108v-140h-269v780z" />
    <glyph glyph-name="backslash" unicode="\" horiz-adv-x="641" 
d="M223 700l398 -700h-203l-398 700h203z" />
    <glyph glyph-name="bracketright" unicode="]" horiz-adv-x="361" 
d="M36 700h269v-780h-269v140h108v500h-108v140z" />
    <glyph glyph-name="asciicircum" unicode="^" 
d="M666 713l620 -261v-171l-620 260l-620 -260v171z" />
    <glyph glyph-name="underscore" unicode="_" horiz-adv-x="766" 
d="M766 -26v-106h-766v106h766z" />
    <glyph glyph-name="grave" unicode="`" horiz-adv-x="383" 
d="M201 660l-177 104h202l134 -104h-159z" />
    <glyph glyph-name="a" unicode="a" horiz-adv-x="1208" 
d="M984 371v38q0 34 -35 34h-890v160h957q78 0 115 -37.5t37 -115.5v-297q0 -78 -37 -115.5t-115 -37.5h-849q-70 0 -103.5 34t-33.5 106v91q0 72 33.5 106t102.5 34h818zM984 232h-742q-28 0 -28 -28v-16q0 -28 28 -28h707q35 0 35 34v38z" />
    <glyph glyph-name="b" unicode="b" horiz-adv-x="1205" 
d="M44 153v617h184v-253q11 44 41.5 65t90.5 21h655q78 0 114 -37.5t36 -115.5v-297q0 -78 -36 -115.5t-114 -37.5h-819q-78 0 -115 37.5t-37 115.5zM228 409v-215q0 -34 34 -34h685q34 0 34 34v215q0 34 -34 34h-685q-34 0 -34 -34z" />
    <glyph glyph-name="c" unicode="c" horiz-adv-x="1147" 
d="M191 0q-78 0 -114.5 37.5t-36.5 115.5v297q0 78 36.5 115.5t114.5 37.5h924v-160h-857q-34 0 -34 -34v-215q0 -34 34 -34h857v-160h-924z" />
    <glyph glyph-name="d" unicode="d" horiz-adv-x="1205" 
d="M1161 770v-617q0 -78 -36.5 -115.5t-114.5 -37.5h-819q-78 0 -114.5 37.5t-36.5 115.5v297q0 78 36.5 115.5t114.5 37.5h655q60 0 90.5 -21t40.5 -65v253h184zM977 194v215q0 34 -34 34h-685q-34 0 -34 -34v-215q0 -34 34 -34h685q34 0 34 34z" />
    <glyph glyph-name="e" unicode="e" horiz-adv-x="1208" 
d="M1178 372q0 -72 -33.5 -106t-103.5 -34h-817v-38q0 -34 34 -34h890v-160h-957q-78 0 -114.5 37.5t-36.5 115.5v297q0 78 36.5 115.5t114.5 37.5h850q137 0 137 -140v-91zM966 443h-708q-34 0 -34 -34v-38h742q28 0 28 28v16q0 28 -28 28z" />
    <glyph glyph-name="f" unicode="f" horiz-adv-x="1129" 
d="M273 443q-45 0 -45 -44v-18h827v-159h-827v-222h-184v427q0 91 43 133.5t134 42.5h891v-160h-839z" />
    <glyph glyph-name="g" unicode="g" horiz-adv-x="1205" 
d="M943 225q34 0 34 34v150q0 34 -34 34h-685q-34 0 -34 -34v-150q0 -32 34 -34h685zM846 65h-654q-78 0 -115 37.5t-37 115.5v232q0 78 37 115.5t115 37.5h818q78 0 114.5 -37.5t36.5 -115.5v-395q0 -115 -52.5 -168.5t-168.5 -53.5h-859v160h833q33 0 48 14.5t15 48.5v94
q-10 -44 -41 -64.5t-90 -20.5z" />
    <glyph glyph-name="h" unicode="h" horiz-adv-x="1211" 
d="M983 409q0 34 -35 34h-682q-34 0 -34 -34v-409h-184v770h184v-253q11 44 41.5 65t90.5 21h652q78 0 114.5 -37.5t36.5 -115.5v-450h-184v409z" />
    <glyph glyph-name="i" unicode="i" horiz-adv-x="371" 
d="M266 160h89v-160h-153q-80 0 -117 37.5t-37 115.5v450h184v-409q0 -34 34 -34zM246 770v-113h-212v113h212z" />
    <glyph glyph-name="j" unicode="j" horiz-adv-x="303" 
d="M-19 -7h50q31 0 31 31v579h184v-617q0 -78 -37 -115.5t-117 -37.5h-111v160zM48 657v113h211v-113h-211z" />
    <glyph glyph-name="k" unicode="k" horiz-adv-x="1203" 
d="M981 419v184h184v-163q0 -64 -28.5 -98t-91.5 -41q63 -7 91.5 -40.5t28.5 -97.5v-163h-184v184q0 38 -38 38h-711v-222h-184v770h184v-389h711q38 0 38 38z" />
    <glyph glyph-name="l" unicode="l" horiz-adv-x="367" 
d="M262 160h89v-160h-153q-80 0 -117 37.5t-37 115.5v617h184v-576q0 -34 34 -34z" />
    <glyph glyph-name="m" unicode="m" horiz-adv-x="1549" 
d="M775 484q7 63 41 91t103 28h435q78 0 114.5 -37.5t36.5 -115.5v-450h-184v409q0 34 -34 34h-386q-34 0 -34 -34v-409h-184v409q0 34 -35 34h-386q-34 0 -34 -34v-409h-184v450q0 78 36.5 115.5t114.5 37.5h435q69 0 103 -28t42 -91z" />
    <glyph glyph-name="n" unicode="n" horiz-adv-x="1205" 
d="M44 0v450q0 78 36.5 115.5t114.5 37.5h816q78 0 114 -37.5t36 -115.5v-450h-184v409q0 34 -34 34h-681q-34 0 -34 -34v-409h-184z" />
    <glyph glyph-name="o" unicode="o" horiz-adv-x="1200" 
d="M1009 603q78 0 114.5 -37.5t36.5 -115.5v-297q0 -78 -36.5 -115.5t-114.5 -37.5h-818q-78 0 -114.5 37.5t-36.5 115.5v297q0 78 36.5 115.5t114.5 37.5h818zM942 160q34 0 34 34v215q0 34 -34 34h-684q-34 0 -34 -34v-215q0 -34 34 -34h684z" />
    <glyph glyph-name="p" unicode="p" horiz-adv-x="1205" 
d="M44 -167v617q0 78 37 115.5t115 37.5h819q78 0 114 -37.5t36 -115.5v-297q0 -78 -36 -115.5t-114 -37.5h-655q-60 0 -90.5 20.5t-41.5 64.5v-252h-184zM228 409v-215q0 -34 34 -34h685q34 0 34 34v215q0 34 -34 34h-685q-34 0 -34 -34z" />
    <glyph glyph-name="q" unicode="q" horiz-adv-x="1205" 
d="M1161 450v-617h-184v252q-10 -44 -40.5 -64.5t-90.5 -20.5h-655q-78 0 -114.5 37.5t-36.5 115.5v297q0 78 36.5 115.5t114.5 37.5h819q78 0 114.5 -37.5t36.5 -115.5zM977 194v215q0 34 -34 34h-685q-34 0 -34 -34v-215q0 -34 34 -34h685q34 0 34 34z" />
    <glyph glyph-name="r" unicode="r" horiz-adv-x="1044" 
d="M1027 603v-160h-765q-34 0 -34 -34v-409h-184v450q0 78 37 115.5t115 37.5h831z" />
    <glyph glyph-name="s" unicode="s" horiz-adv-x="1178" 
d="M1118 443h-872q-28 0 -28 -28v-16q0 -28 28 -28h766q69 0 102.5 -34t33.5 -106v-91q0 -72 -33.5 -106t-103.5 -34h-977v160h902q28 0 28 28v16q0 28 -28 28h-765q-70 0 -103.5 34t-33.5 106v91q0 72 33.5 106t102.5 34h948v-160z" />
    <glyph glyph-name="t" unicode="t" horiz-adv-x="1070" 
d="M198 0q-80 0 -117 37.5t-37 115.5v617h184v-167h810v-160h-810v-249q0 -34 34 -34h776v-160h-840z" />
    <glyph glyph-name="u" unicode="u" horiz-adv-x="1205" 
d="M943 160q34 0 34 34v409h184v-450q0 -78 -36 -115.5t-114 -37.5h-816q-78 0 -114.5 37.5t-36.5 115.5v450h184v-409q0 -34 34 -34h681z" />
    <glyph glyph-name="v" unicode="v" horiz-adv-x="1197" 
d="M1155 603v-397q0 -107 -49 -156.5t-157 -49.5h-901v603h184v-443h680q32 0 45.5 13t13.5 45v385h184z" />
    <glyph glyph-name="w" unicode="w" horiz-adv-x="1549" 
d="M775 119q-8 -63 -42 -91t-103 -28h-435q-78 0 -114.5 37.5t-36.5 115.5v450h184v-409q0 -34 34 -34h386q35 0 35 34v409h184v-409q0 -34 34 -34h386q34 0 34 34v409h184v-450q0 -78 -36.5 -115.5t-114.5 -37.5h-435q-69 0 -103 28t-41 91z" />
    <glyph glyph-name="x" unicode="x" horiz-adv-x="1212" 
d="M990 419v184h184v-163q0 -64 -28.5 -98t-91.5 -41q63 -7 91.5 -40.5t28.5 -97.5v-163h-184v184q0 38 -38 38h-691q-39 0 -39 -38v-184h-184v163q0 64 28.5 97.5t91.5 40.5q-63 7 -91.5 41t-28.5 98v163h184v-184q0 -38 39 -38h691q38 0 38 38z" />
    <glyph glyph-name="y" unicode="y" horiz-adv-x="1211" 
d="M941 -167h-856v160h830q34 0 49 14.5t15 48.5v94q-11 -44 -42 -64.5t-90 -20.5h-652q-78 0 -114.5 37.5t-36.5 115.5v385h184v-344q0 -34 34 -34h683q34 0 34 34v344h184v-548q0 -115 -53 -168.5t-169 -53.5z" />
    <glyph glyph-name="z" unicode="z" horiz-adv-x="1183" 
d="M249 232q-34 0 -34 -34v-38h934v-160h-1118v195q0 176 176 176h723q35 0 35 34v38h-913v160h1097v-195q0 -176 -177 -176h-723z" />
    <glyph glyph-name="braceleft" unicode="{" horiz-adv-x="397" 
d="M261 517v-92q0 -58 -28 -85.5t-88 -29.5q60 -2 88 -29.5t28 -85.5v-92q0 -18 7.5 -25.5t24.5 -7.5h71v-150h-125q-79 0 -115 36t-36 114v136q0 29 -29 29h-37v150h37q29 0 29 29v136q0 78 36 114t115 36h125v-150h-71q-17 0 -24.5 -7.5t-7.5 -25.5z" />
    <glyph glyph-name="bar" unicode="|" horiz-adv-x="324" 
d="M66 -167v907h192v-907h-192z" />
    <glyph glyph-name="braceright" unicode="}" horiz-adv-x="397" 
d="M136 425v92q0 18 -7.5 25.5t-24.5 7.5h-71v150h125q79 0 115 -36t36 -114v-136q0 -29 29 -29h37v-150h-37q-29 0 -29 -29v-136q0 -78 -36 -114t-115 -36h-125v150h71q17 0 24.5 7.5t7.5 25.5v92q0 58 28 85.5t88 29.5q-60 2 -88 29.5t-28 85.5z" />
    <glyph glyph-name="asciitilde" unicode="~" 
d="M46 242v165q125 72 292 72q109 0 331.5 -43.5t331.5 -43.5q162 0 285 68v-165q-127 -72 -294 -72q-109 0 -331.5 43t-330.5 43q-162 0 -284 -67z" />
    <glyph glyph-name="uni00A0" unicode="&#xa0;" horiz-adv-x="398" 
 />
    <glyph glyph-name="exclamdown" unicode="&#xa1;" horiz-adv-x="313" 
d="M46 500v130h221v-130h-221zM61 -70v216q0 156 20 269h152q20 -113 20 -269v-216h-192z" />
    <glyph glyph-name="cent" unicode="&#xa2;" 
d="M656 -40v90h-459q-78 0 -114.5 37.5t-36.5 115.5v294q0 78 36.5 115.5t114.5 37.5h459v90h167v-90h473v-160h-473v-280h473v-160h-473v-90h-167zM264 210h392v280h-392q-34 0 -34 -34v-212q0 -34 34 -34z" />
    <glyph glyph-name="sterling" unicode="&#xa3;" 
d="M340 167h956v-167h-1260v167h112v100h-112v166h112v112q0 79 37.5 117t117.5 38h933v-167h-864q-17 0 -24.5 -7.5t-7.5 -25.5v-67h895v-166h-895v-100z" />
    <glyph glyph-name="currency" unicode="&#xa4;" 
d="M78 498q0 79 36 116t116 37h354v89h166v-89h352q80 0 116 -37t36 -116v-68h59v-161h-59v-68q0 -79 -36 -116t-116 -37h-352v-88h-166v88h-354q-80 0 -116 37t-36 116v68h-59v161h59v68zM1036 486h-740q-34 0 -34 -34v-205q0 -34 34 -34h740q34 0 34 34v205q0 34 -34 34z
" />
    <glyph glyph-name="yen" unicode="&#xa5;" 
d="M1101 700h192v-160q0 -79 -37.5 -117t-117.5 -38h-376v-100h512v-167h-512v-118h-192v118h-512v167h512v100h-377q-80 0 -117.5 38t-37.5 117v160h192v-117q0 -17 7.5 -24.5t24.5 -7.5h807q17 0 24.5 7.5t7.5 24.5v117z" />
    <glyph glyph-name="brokenbar" unicode="&#xa6;" horiz-adv-x="324" 
d="M66 -167v394h192v-394h-192zM66 347v393h192v-393h-192z" />
    <glyph glyph-name="section" unicode="&#xa7;" horiz-adv-x="1336" 
d="M245 478h936q60 0 88.5 -28.5t28.5 -89.5v-71q0 -55 -21.5 -84t-77.5 -35q56 -6 77.5 -35.5t21.5 -84.5v-41q0 -72 -34 -106.5t-107 -34.5h-1093v150h1029q28 0 28 28v16q0 28 -28 28h-935q-61 0 -89 28.5t-28 89.5v71q0 55 21.5 83.5t77.5 35.5q-56 6 -77.5 35.5
t-21.5 84.5v41q0 72 34 106.5t107 34.5h1093v-150h-1030q-27 0 -27 -28v-16q0 -28 27 -28zM1086 324h-833q-27 0 -27 -27v-26q0 -27 27 -27h833q27 0 27 27v26q0 27 -27 27z" />
    <glyph glyph-name="dieresis" unicode="&#xa8;" horiz-adv-x="383" 
d="M126 767v-110h-172v110h172zM428 767v-110h-172v110h172z" />
    <glyph glyph-name="copyright" unicode="&#xa9;" horiz-adv-x="1399" 
d="M309 188q-41 0 -59 19t-18 59v167q0 40 18 59t59 19h838v-66h-820q-18 0 -18 -19v-153q0 -19 18 -19h820v-66h-838zM217 0q-88 0 -129.5 42t-41.5 128v360q0 86 41.5 128t129.5 42h965q88 0 129.5 -42t41.5 -128v-360q0 -86 -41.5 -128t-129.5 -42h-965zM222 72h955
q94 0 94 94v368q0 94 -94 94h-955q-94 0 -94 -94v-368q0 -94 94 -94z" />
    <glyph glyph-name="ordfeminine" unicode="&#xaa;" horiz-adv-x="994" 
d="M800 494v38q0 30 -29 30h-719v138h776q67 0 98.5 -32t31.5 -98v-274q0 -66 -31.5 -98t-98.5 -32h-668q-131 0 -131 130v68q0 130 131 130h640zM187 343v-9q0 -16 6.5 -23t22.5 -7h555q29 0 29 30v38h-584q-16 0 -22.5 -6.5t-6.5 -22.5zM487 150l115 -150h-230z" />
    <glyph glyph-name="guillemotleft" unicode="&#xab;" horiz-adv-x="681" 
d="M379 51h-196l-164 249l164 249h196l-169 -249zM662 51h-196l-164 249l164 249h196l-169 -249z" />
    <glyph glyph-name="logicalnot" unicode="&#xac;" 
d="M46 271v158h1240v-356h-158v198h-1082z" />
    <glyph glyph-name="uni00AD" unicode="&#xad;" horiz-adv-x="582" 
d="M548 409v-164h-514v164h514z" />
    <glyph glyph-name="registered" unicode="&#xae;" horiz-adv-x="1399" 
d="M217 0q-88 0 -129.5 42t-41.5 128v360q0 86 41.5 128t129.5 42h965q88 0 129.5 -42t41.5 -128v-360q0 -86 -41.5 -128t-129.5 -42h-965zM222 72h955q94 0 94 94v368q0 94 -94 94h-955q-94 0 -94 -94v-368q0 -94 94 -94zM1158 403q0 -50 -60 -54q29 -3 44.5 -21t15.5 -44
v-96h-77v106q0 23 -20 23h-741v-129h-78v323h857q59 0 59 -61v-47zM1081 429q0 16 -17 16h-744v-63h744q17 0 17 17v30z" />
    <glyph glyph-name="macron" unicode="&#xaf;" horiz-adv-x="383" 
d="M376 666h-369v93h369v-93z" />
    <glyph glyph-name="degree" unicode="&#xb0;" horiz-adv-x="705" 
d="M29 561q0 139 147 139h353q147 0 147 -139v-117q0 -139 -147 -139h-353q-147 0 -147 139v117zM233 565q-28 0 -35.5 -8t-7.5 -36v-37q0 -28 7.5 -36t35.5 -8h239q28 0 35.5 8t7.5 36v37q0 28 -7.5 36t-35.5 8h-239z" />
    <glyph glyph-name="plusminus" unicode="&#xb1;" 
d="M46 271v158h541v197h158v-197h541v-158h-541v-113h541v-158h-1240v158h541v113h-541z" />
    <glyph glyph-name="twosuperior" unicode="&#xb2;" horiz-adv-x="840" 
d="M653 524v9q0 16 -6.5 23t-22.5 7h-570v138h628q66 0 97.5 -32t31.5 -98v-68q0 -66 -31.5 -98t-97.5 -32h-448q-25 0 -34 -9t-9 -33v-26h620v-138h-778v171q0 157 157 157h434q16 0 22.5 6.5t6.5 22.5z" />
    <glyph glyph-name="threesuperior" unicode="&#xb3;" horiz-adv-x="840" 
d="M807 574v-30q0 -49 -20.5 -77t-78.5 -34q58 -6 78.5 -34t20.5 -77v-30q0 -65 -30 -95.5t-96 -30.5h-650v138h589q16 0 22.5 7t6.5 23v9q0 16 -6.5 22.5t-22.5 6.5h-508v121l508 1q16 0 22.5 6.5t6.5 22.5v9q0 16 -6.5 23t-22.5 7h-589v138h650q66 0 96 -30.5t30 -95.5z
" />
    <glyph glyph-name="acute" unicode="&#xb4;" horiz-adv-x="383" 
d="M362 764l-180 -104h-159l132 104h207z" />
    <glyph glyph-name="uni00B5" unicode="&#xb5;" horiz-adv-x="1211" 
d="M266 160h682q35 0 35 34v409h184v-450q0 -78 -36.5 -115.5t-114.5 -37.5h-652q-60 0 -90.5 21t-41.5 65v-253h-184v770h184v-409q0 -34 34 -34z" />
    <glyph glyph-name="paragraph" unicode="&#xb6;" horiz-adv-x="1313" 
d="M1257 700v-832h-169v672h-113v-672h-169v407h-626q-80 0 -117.5 38t-37.5 117v115q0 79 37.5 117t117.5 38h1077z" />
    <glyph glyph-name="periodcentered" unicode="&#xb7;" horiz-adv-x="308" 
d="M259 425v-150h-210v150h210z" />
    <glyph glyph-name="cedilla" unicode="&#xb8;" horiz-adv-x="383" 
d="M167 -38h110q53 0 77 -15.5t24 -51.5q0 -47 -31 -67.5t-104 -20.5h-238v98h217q26 0 26 17q0 12 -21 12h-101l28 66h28z" />
    <glyph glyph-name="onesuperior" unicode="&#xb9;" horiz-adv-x="840" 
d="M90 166v138h313v258h-313v138h471v-396h233v-138h-704z" />
    <glyph glyph-name="ordmasculine" unicode="&#xba;" horiz-adv-x="1001" 
d="M36 296v274q0 66 31.5 98t98.5 32h669q67 0 98.5 -32t31.5 -98v-274q0 -66 -31.5 -98t-98.5 -32h-669q-67 0 -98.5 32t-31.5 98zM779 304q28 0 28 30v198q0 30 -28 30h-556q-29 0 -29 -30v-198q0 -30 29 -30h556zM494 150l115 -150h-230z" />
    <glyph glyph-name="guillemotright" unicode="&#xbb;" horiz-adv-x="681" 
d="M215 51h-196l169 249l-169 249h196l164 -249zM498 51h-196l169 249l-169 249h196l164 -249z" />
    <glyph glyph-name="onequarter" unicode="&#xbc;" horiz-adv-x="1992" 
d="M738 0l357 700h158l-357 -700h-158zM90 166v138h313v258h-313v138h471v-396h233v-138h-704zM1784 336v198h158v-534h-158v198h-472q-67 0 -98.5 32t-31.5 98v206h158v-169q0 -29 29 -29h415z" />
    <glyph glyph-name="onehalf" unicode="&#xbd;" horiz-adv-x="1992" 
d="M738 0l357 700h158l-357 -700h-158zM90 166v138h313v258h-313v138h471v-396h233v-138h-704zM1804 357v9q0 16 -6.5 23t-22.5 7h-570v138h628q66 0 97.5 -32t31.5 -98v-68q0 -66 -31.5 -98t-97.5 -32h-448q-25 0 -34 -9t-9 -33v-26h620v-138h-778v171q0 157 157 157h434
q16 0 22.5 6.5t6.5 22.5z" />
    <glyph glyph-name="threequarters" unicode="&#xbe;" horiz-adv-x="1992" 
d="M738 0l357 700h158l-357 -700h-158zM1784 336v198h158v-534h-158v198h-472q-67 0 -98.5 32t-31.5 98v206h158v-169q0 -29 29 -29h415zM807 574v-30q0 -49 -20.5 -77t-78.5 -34q58 -6 78.5 -34t20.5 -77v-30q0 -65 -30 -95.5t-96 -30.5h-650v138h589q16 0 22.5 7t6.5 23v9
q0 16 -6.5 22.5t-22.5 6.5h-508v121l508 1q16 0 22.5 6.5t6.5 22.5v9q0 16 -6.5 23t-22.5 7h-589v138h650q66 0 96 -30.5t30 -95.5z" />
    <glyph glyph-name="questiondown" unicode="&#xbf;" horiz-adv-x="1306" 
d="M217 164v-34q0 -18 7.5 -25.5t25.5 -7.5h1037v-167h-1106q-80 0 -118 38.5t-38 116.5v123q0 78 38 116.5t118 38.5h429q18 0 23.5 5.5t5.5 24.5v32h192v-96q0 -69 -31.5 -100.5t-100.5 -31.5h-449q-18 0 -25.5 -7.5t-7.5 -25.5zM625 500v130h221v-130h-221z" />
    <glyph glyph-name="Agrave" unicode="&#xc0;" horiz-adv-x="1361" 
d="M1309 0h-192v267h-873v-267h-192v545q0 78 38 116.5t118 38.5h945q80 0 118 -38.5t38 -116.5v-545zM1085 533h-809q-17 0 -24.5 -7.5t-7.5 -25.5v-67h873v67q0 18 -7 25.5t-25 7.5zM644 751l-177 104h202l134 -104h-159z" />
    <glyph glyph-name="Aacute" unicode="&#xc1;" horiz-adv-x="1361" 
d="M1309 0h-192v267h-873v-267h-192v545q0 78 38 116.5t118 38.5h945q80 0 118 -38.5t38 -116.5v-545zM1085 533h-809q-17 0 -24.5 -7.5t-7.5 -25.5v-67h873v67q0 18 -7 25.5t-25 7.5zM897 855l-180 -104h-159l132 104h207z" />
    <glyph glyph-name="Acircumflex" unicode="&#xc2;" horiz-adv-x="1361" 
d="M1309 0h-192v267h-873v-267h-192v545q0 78 38 116.5t118 38.5h945q80 0 118 -38.5t38 -116.5v-545zM1085 533h-809q-17 0 -24.5 -7.5t-7.5 -25.5v-67h873v67q0 18 -7 25.5t-25 7.5zM680 795l-86 -44h-150l131 104h211l131 -104h-150z" />
    <glyph glyph-name="Atilde" unicode="&#xc3;" horiz-adv-x="1361" 
d="M1309 0h-192v267h-873v-267h-192v545q0 78 38 116.5t118 38.5h945q80 0 118 -38.5t38 -116.5v-545zM1085 533h-809q-17 0 -24.5 -7.5t-7.5 -25.5v-67h873v67q0 18 -7 25.5t-25 7.5zM496 733v102q49 40 101 40q32 0 90 -21t86 -21q48 0 91 43v-102q-51 -44 -104 -44
q-33 0 -91 22t-86 22q-46 0 -87 -41z" />
    <glyph glyph-name="Adieresis" unicode="&#xc4;" horiz-adv-x="1361" 
d="M1309 0h-192v267h-873v-267h-192v545q0 78 38 116.5t118 38.5h945q80 0 118 -38.5t38 -116.5v-545zM1085 533h-809q-17 0 -24.5 -7.5t-7.5 -25.5v-67h873v67q0 18 -7 25.5t-25 7.5zM615 858v-110h-172v110h172zM917 858v-110h-172v110h172z" />
    <glyph glyph-name="Aring" unicode="&#xc5;" horiz-adv-x="1361" 
d="M1309 0h-192v267h-873v-267h-192v545q0 78 38 116.5t118 38.5h945q80 0 118 -38.5t38 -116.5v-545zM1085 533h-809q-17 0 -24.5 -7.5t-7.5 -25.5v-67h873v67q0 18 -7 25.5t-25 7.5zM597 826q0 -22 22 -22h123q21 0 21 22t-21 22h-123q-22 0 -22 -22zM729 743h-97
q-56 0 -78 20.5t-22 62.5q0 40 22.5 61t77.5 21h97q55 0 77.5 -21t22.5 -61q0 -42 -22 -62.5t-78 -20.5z" />
    <glyph glyph-name="AE" unicode="&#xc6;" horiz-adv-x="2065" 
d="M954 0v267h-710v-267h-192v545q0 78 38 116.5t118 38.5h1821v-167h-883v-100h783v-166h-783v-100h883v-167h-1075zM276 533q-17 0 -24.5 -7.5t-7.5 -25.5v-67h710v100h-678z" />
    <glyph glyph-name="Ccedilla" unicode="&#xc7;" horiz-adv-x="1273" 
d="M629 0h-428q-80 0 -117.5 38t-37.5 117v390q0 79 37.5 117t117.5 38h1036v-167h-967q-17 0 -24.5 -7.5t-7.5 -25.5v-300q0 -18 7.5 -25.5t24.5 -7.5h967v-167h-580l-15 -38h110q53 0 77 -15.5t24 -51.5q0 -47 -30.5 -67.5t-104.5 -20.5h-238v98h217q26 0 26 17
q0 12 -21 12h-101z" />
    <glyph glyph-name="Egrave" unicode="&#xc8;" horiz-adv-x="1326" 
d="M56 0v700h1234v-167h-1042v-100h942v-166h-942v-100h1042v-167h-1234zM649 751l-177 104h202l134 -104h-159z" />
    <glyph glyph-name="Eacute" unicode="&#xc9;" horiz-adv-x="1326" 
d="M56 0v700h1234v-167h-1042v-100h942v-166h-942v-100h1042v-167h-1234zM899 855l-180 -104h-159l132 104h207z" />
    <glyph glyph-name="Ecircumflex" unicode="&#xca;" horiz-adv-x="1326" 
d="M56 0v700h1234v-167h-1042v-100h942v-166h-942v-100h1042v-167h-1234zM685 795l-86 -44h-150l131 104h211l131 -104h-150z" />
    <glyph glyph-name="Edieresis" unicode="&#xcb;" horiz-adv-x="1326" 
d="M56 0v700h1234v-167h-1042v-100h942v-166h-942v-100h1042v-167h-1234zM620 858v-110h-172v110h172zM922 858v-110h-172v110h172z" />
    <glyph glyph-name="Igrave" unicode="&#xcc;" horiz-adv-x="304" 
d="M56 0v700h192v-700h-192zM123 751l-177 104h202l134 -104h-159z" />
    <glyph glyph-name="Iacute" unicode="&#xcd;" horiz-adv-x="304" 
d="M56 0v700h192v-700h-192zM360 855l-180 -104h-159l132 104h207z" />
    <glyph glyph-name="Icircumflex" unicode="&#xce;" horiz-adv-x="304" 
d="M56 0v700h192v-700h-192zM151 795l-86 -44h-150l131 104h211l131 -104h-150z" />
    <glyph glyph-name="Idieresis" unicode="&#xcf;" horiz-adv-x="304" 
d="M363 858v-110h-172v110h172zM113 858v-110h-172v110h172zM56 0v700h192v-700h-192z" />
    <glyph glyph-name="Eth" unicode="&#xd0;" horiz-adv-x="1353" 
d="M1098 700q106 0 160.5 -55t54.5 -161v-268q0 -106 -54.5 -161t-160.5 -55h-1042v267h-55v166h55v267h1042zM1061 167q60 0 60 61v244q0 61 -60 61h-813v-100h159v-166h-159v-100h813z" />
    <glyph glyph-name="Ntilde" unicode="&#xd1;" horiz-adv-x="1361" 
d="M276 533q-17 0 -24.5 -7.5t-7.5 -25.5v-500h-192v545q0 78 38 116.5t118 38.5h945q80 0 118 -38.5t38 -116.5v-545h-192v500q0 18 -7 25.5t-25 7.5h-809zM496 733v102q49 40 101 40q32 0 90 -21t86 -21q48 0 91 43v-102q-51 -44 -104 -44q-33 0 -91 22t-86 22
q-46 0 -87 -41z" />
    <glyph glyph-name="Ograve" unicode="&#xd2;" horiz-adv-x="1352" 
d="M202 0q-80 0 -118 38.5t-38 116.5v390q0 78 38 116.5t118 38.5h948q80 0 118 -38.5t38 -116.5v-390q0 -78 -38 -116.5t-118 -38.5h-948zM1114 200v300q0 18 -7.5 25.5t-24.5 7.5h-812q-17 0 -24.5 -7.5t-7.5 -25.5v-300q0 -33 32 -33h812q17 0 24.5 7.5t7.5 25.5z
M639 751l-177 104h202l134 -104h-159z" />
    <glyph glyph-name="Oacute" unicode="&#xd3;" horiz-adv-x="1352" 
d="M202 0q-80 0 -118 38.5t-38 116.5v390q0 78 38 116.5t118 38.5h948q80 0 118 -38.5t38 -116.5v-390q0 -78 -38 -116.5t-118 -38.5h-948zM1114 200v300q0 18 -7.5 25.5t-24.5 7.5h-812q-17 0 -24.5 -7.5t-7.5 -25.5v-300q0 -33 32 -33h812q17 0 24.5 7.5t7.5 25.5z
M892 855l-180 -104h-159l132 104h207z" />
    <glyph glyph-name="Ocircumflex" unicode="&#xd4;" horiz-adv-x="1352" 
d="M202 0q-80 0 -118 38.5t-38 116.5v390q0 78 38 116.5t118 38.5h948q80 0 118 -38.5t38 -116.5v-390q0 -78 -38 -116.5t-118 -38.5h-948zM1114 200v300q0 18 -7.5 25.5t-24.5 7.5h-812q-17 0 -24.5 -7.5t-7.5 -25.5v-300q0 -33 32 -33h812q17 0 24.5 7.5t7.5 25.5z
M675 795l-86 -44h-150l131 104h211l131 -104h-150z" />
    <glyph glyph-name="Otilde" unicode="&#xd5;" horiz-adv-x="1352" 
d="M202 0q-80 0 -118 38.5t-38 116.5v390q0 78 38 116.5t118 38.5h948q80 0 118 -38.5t38 -116.5v-390q0 -78 -38 -116.5t-118 -38.5h-948zM1114 200v300q0 18 -7.5 25.5t-24.5 7.5h-812q-17 0 -24.5 -7.5t-7.5 -25.5v-300q0 -33 32 -33h812q17 0 24.5 7.5t7.5 25.5z
M491 733v102q49 40 101 40q32 0 90 -21t86 -21q48 0 91 43v-102q-51 -44 -104 -44q-33 0 -91 22t-86 22q-46 0 -87 -41z" />
    <glyph glyph-name="Odieresis" unicode="&#xd6;" horiz-adv-x="1352" 
d="M202 0q-80 0 -118 38.5t-38 116.5v390q0 78 38 116.5t118 38.5h948q80 0 118 -38.5t38 -116.5v-390q0 -78 -38 -116.5t-118 -38.5h-948zM1114 200v300q0 18 -7.5 25.5t-24.5 7.5h-812q-17 0 -24.5 -7.5t-7.5 -25.5v-300q0 -33 32 -33h812q17 0 24.5 7.5t7.5 25.5z
M610 858v-110h-172v110h172zM912 858v-110h-172v110h172z" />
    <glyph glyph-name="multiply" unicode="&#xd7;" 
d="M842 271l110 -198h-179l-106 197l-108 -197h-179l109 198h-443v158h443l-109 197h179l108 -197l106 197h179l-110 -197h444v-158h-444z" />
    <glyph glyph-name="Oslash" unicode="&#xd8;" horiz-adv-x="1352" 
d="M202 0q-80 0 -118 38.5t-38 116.5v390q0 78 38 116.5t118 38.5h948q80 0 118 -38.5t38 -116.5v-390q0 -78 -38 -116.5t-118 -38.5h-948zM454 167h628q17 0 24.5 7.5t7.5 25.5v300q0 20 -9 27zM245 175l647 358h-622q-17 0 -24.5 -7.5t-7.5 -25.5v-300q0 -18 7 -25z" />
    <glyph glyph-name="Ugrave" unicode="&#xd9;" horiz-adv-x="1361" 
d="M208 0q-80 0 -118 38.5t-38 116.5v545h192v-500q0 -18 7.5 -25.5t24.5 -7.5h809q18 0 25 7.5t7 25.5v500h192v-545q0 -78 -38 -116.5t-118 -38.5h-945zM644 751l-177 104h202l134 -104h-159z" />
    <glyph glyph-name="Uacute" unicode="&#xda;" horiz-adv-x="1361" 
d="M208 0q-80 0 -118 38.5t-38 116.5v545h192v-500q0 -18 7.5 -25.5t24.5 -7.5h809q18 0 25 7.5t7 25.5v500h192v-545q0 -78 -38 -116.5t-118 -38.5h-945zM894 855l-180 -104h-159l132 104h207z" />
    <glyph glyph-name="Ucircumflex" unicode="&#xdb;" horiz-adv-x="1361" 
d="M208 0q-80 0 -118 38.5t-38 116.5v545h192v-500q0 -18 7.5 -25.5t24.5 -7.5h809q18 0 25 7.5t7 25.5v500h192v-545q0 -78 -38 -116.5t-118 -38.5h-945zM680 795l-86 -44h-150l131 104h211l131 -104h-150z" />
    <glyph glyph-name="Udieresis" unicode="&#xdc;" horiz-adv-x="1361" 
d="M208 0q-80 0 -118 38.5t-38 116.5v545h192v-500q0 -18 7.5 -25.5t24.5 -7.5h809q18 0 25 7.5t7 25.5v500h192v-545q0 -78 -38 -116.5t-118 -38.5h-945zM615 858v-110h-172v110h172zM917 858v-110h-172v110h172z" />
    <glyph glyph-name="Yacute" unicode="&#xdd;" horiz-adv-x="1341" 
d="M1113 700h192v-278q0 -79 -37.5 -117t-117.5 -38h-383v-267h-192v267h-384q-80 0 -117.5 38t-37.5 117v278h192v-235q0 -17 7.5 -24.5t24.5 -7.5h821q18 0 25 7.5t7 24.5v235zM886 855l-180 -104h-159l132 104h207z" />
    <glyph glyph-name="Thorn" unicode="&#xde;" horiz-adv-x="1334" 
d="M56 0v700h192v-97h905q80 0 118 -38t38 -117v-124q0 -79 -38 -117t-118 -38h-905v-169h-192zM1117 403q0 18 -7.5 25.5t-24.5 7.5h-837v-100h837q17 0 24.5 7.5t7.5 25.5v34z" />
    <glyph glyph-name="germandbls" unicode="&#xdf;" horiz-adv-x="1233" 
d="M989 232h-639v139h639q27 0 27 28v16q0 28 -27 28h-715q-24 0 -35 -10.5t-11 -35.5v-397h-184v428q0 90 43 132.5t133 42.5h846q69 0 101.5 -33t32.5 -101v-46q0 -55 -22.5 -85.5t-75.5 -36.5q53 -6 75.5 -36t22.5 -85v-46q0 -134 -134 -134h-716v160h639q27 0 27 28v16
q0 28 -27 28z" />
    <glyph glyph-name="agrave" unicode="&#xe0;" horiz-adv-x="1208" 
d="M984 371v38q0 34 -35 34h-890v160h957q78 0 115 -37.5t37 -115.5v-297q0 -78 -37 -115.5t-115 -37.5h-849q-70 0 -103.5 34t-33.5 106v91q0 72 33.5 106t102.5 34h818zM984 232h-742q-28 0 -28 -28v-16q0 -28 28 -28h707q35 0 35 34v38zM561 660l-177 104h202l134 -104
h-159z" />
    <glyph glyph-name="aacute" unicode="&#xe1;" horiz-adv-x="1208" 
d="M984 371v38q0 34 -35 34h-890v160h957q78 0 115 -37.5t37 -115.5v-297q0 -78 -37 -115.5t-115 -37.5h-849q-70 0 -103.5 34t-33.5 106v91q0 72 33.5 106t102.5 34h818zM984 232h-742q-28 0 -28 -28v-16q0 -28 28 -28h707q35 0 35 34v38zM813 764l-180 -104h-159l132 104
h207z" />
    <glyph glyph-name="acircumflex" unicode="&#xe2;" horiz-adv-x="1208" 
d="M984 371v38q0 34 -35 34h-890v160h957q78 0 115 -37.5t37 -115.5v-297q0 -78 -37 -115.5t-115 -37.5h-849q-70 0 -103.5 34t-33.5 106v91q0 72 33.5 106t102.5 34h818zM984 232h-742q-28 0 -28 -28v-16q0 -28 28 -28h707q35 0 35 34v38zM596 704l-86 -44h-150l131 104
h211l131 -104h-150z" />
    <glyph glyph-name="atilde" unicode="&#xe3;" horiz-adv-x="1208" 
d="M984 371v38q0 34 -35 34h-890v160h957q78 0 115 -37.5t37 -115.5v-297q0 -78 -37 -115.5t-115 -37.5h-849q-70 0 -103.5 34t-33.5 106v91q0 72 33.5 106t102.5 34h818zM984 232h-742q-28 0 -28 -28v-16q0 -28 28 -28h707q35 0 35 34v38zM412 642v102q49 40 101 40
q32 0 90 -21t86 -21q48 0 91 43v-102q-51 -44 -104 -44q-33 0 -91 22t-86 22q-46 0 -87 -41z" />
    <glyph glyph-name="adieresis" unicode="&#xe4;" horiz-adv-x="1208" 
d="M984 371v38q0 34 -35 34h-890v160h957q78 0 115 -37.5t37 -115.5v-297q0 -78 -37 -115.5t-115 -37.5h-849q-70 0 -103.5 34t-33.5 106v91q0 72 33.5 106t102.5 34h818zM984 232h-742q-28 0 -28 -28v-16q0 -28 28 -28h707q35 0 35 34v38zM532 767v-110h-172v110h172z
M834 767v-110h-172v110h172z" />
    <glyph glyph-name="aring" unicode="&#xe5;" horiz-adv-x="1208" 
d="M984 371v38q0 34 -35 34h-890v160h957q78 0 115 -37.5t37 -115.5v-297q0 -78 -37 -115.5t-115 -37.5h-849q-70 0 -103.5 34t-33.5 106v91q0 72 33.5 106t102.5 34h818zM984 232h-742q-28 0 -28 -28v-16q0 -28 28 -28h707q35 0 35 34v38zM513 735q0 -22 22 -22h123
q21 0 21 22t-21 22h-123q-22 0 -22 -22zM645 652h-97q-56 0 -78 20.5t-22 62.5q0 40 22.5 61t77.5 21h97q55 0 77.5 -21t22.5 -61q0 -42 -22 -62.5t-78 -20.5z" />
    <glyph glyph-name="ae" unicode="&#xe6;" horiz-adv-x="1784" 
d="M1570 399v16q0 28 -28 28h-524q-34 0 -34 -34v-38h558q28 0 28 28zM214 204v-16q0 -28 28 -28h524q34 0 34 34v38h-558q-28 0 -28 -28zM747 0h-580q-70 0 -103.5 34t-33.5 106v91q0 72 33.5 106t102.5 34h634v38q0 34 -34 34h-707v160h688q70 0 104 -28t41 -91
q7 63 41 91t104 28h580q70 0 103.5 -34t33.5 -106v-91q0 -72 -33 -106t-103 -34h-634v-38q0 -34 34 -34h707v-160h-688q-70 0 -104 28t-41 91q-7 -63 -41 -91t-104 -28z" />
    <glyph glyph-name="ccedilla" unicode="&#xe7;" horiz-adv-x="1147" 
d="M562 0h-371q-78 0 -114.5 37.5t-36.5 115.5v297q0 78 36.5 115.5t114.5 37.5h924v-160h-857q-34 0 -34 -34v-215q0 -34 34 -34h857v-160h-525l-15 -38h110q53 0 77 -15.5t24 -51.5q0 -47 -31 -67.5t-104 -20.5h-238v98h217q26 0 26 17q0 12 -21 12h-101z" />
    <glyph glyph-name="egrave" unicode="&#xe8;" horiz-adv-x="1208" 
d="M1178 372q0 -72 -33.5 -106t-103.5 -34h-817v-38q0 -34 34 -34h890v-160h-957q-78 0 -114.5 37.5t-36.5 115.5v297q0 78 36.5 115.5t114.5 37.5h850q137 0 137 -140v-91zM966 443h-708q-34 0 -34 -34v-38h742q28 0 28 28v16q0 28 -28 28zM583 660l-177 104h202l134 -104
h-159z" />
    <glyph glyph-name="eacute" unicode="&#xe9;" horiz-adv-x="1208" 
d="M1178 372q0 -72 -33.5 -106t-103.5 -34h-817v-38q0 -34 34 -34h890v-160h-957q-78 0 -114.5 37.5t-36.5 115.5v297q0 78 36.5 115.5t114.5 37.5h850q137 0 137 -140v-91zM966 443h-708q-34 0 -34 -34v-38h742q28 0 28 28v16q0 28 -28 28zM836 764l-180 -104h-159l132 104
h207z" />
    <glyph glyph-name="ecircumflex" unicode="&#xea;" horiz-adv-x="1208" 
d="M1178 372q0 -72 -33.5 -106t-103.5 -34h-817v-38q0 -34 34 -34h890v-160h-957q-78 0 -114.5 37.5t-36.5 115.5v297q0 78 36.5 115.5t114.5 37.5h850q137 0 137 -140v-91zM966 443h-708q-34 0 -34 -34v-38h742q28 0 28 28v16q0 28 -28 28zM619 704l-86 -44h-150l131 104
h211l131 -104h-150z" />
    <glyph glyph-name="edieresis" unicode="&#xeb;" horiz-adv-x="1208" 
d="M1178 372q0 -72 -33.5 -106t-103.5 -34h-817v-38q0 -34 34 -34h890v-160h-957q-78 0 -114.5 37.5t-36.5 115.5v297q0 78 36.5 115.5t114.5 37.5h850q137 0 137 -140v-91zM966 443h-708q-34 0 -34 -34v-38h742q28 0 28 28v16q0 28 -28 28zM555 767v-110h-172v110h172z
M857 767v-110h-172v110h172z" />
    <glyph glyph-name="igrave" unicode="&#xec;" horiz-adv-x="371" 
d="M127 660l-177 104h202l134 -104h-159zM266 160h89v-160h-153q-80 0 -117 37.5t-37 115.5v450h184v-409q0 -34 34 -34z" />
    <glyph glyph-name="iacute" unicode="&#xed;" horiz-adv-x="371" 
d="M350 764l-180 -104h-159l132 104h207zM266 160h89v-160h-153q-80 0 -117 37.5t-37 115.5v450h184v-409q0 -34 34 -34z" />
    <glyph glyph-name="icircumflex" unicode="&#xee;" horiz-adv-x="371" 
d="M266 160h89v-160h-153q-80 0 -117 37.5t-37 115.5v450h184v-409q0 -34 34 -34zM139 704l-86 -44h-150l131 104h211l131 -104h-150z" />
    <glyph glyph-name="idieresis" unicode="&#xef;" horiz-adv-x="371" 
d="M358 767v-110h-172v110h172zM93 767v-110h-172v110h172zM266 160h89v-160h-153q-80 0 -117 37.5t-37 115.5v450h184v-409q0 -34 34 -34z" />
    <glyph glyph-name="eth" unicode="&#xf0;" horiz-adv-x="1205" 
d="M192 548h654q59 0 90 -20.5t41 -64.5v85q0 33 -15 47.5t-48 14.5h-345v-32h-60v32h-428v160h428v50h60v-50h371q116 0 168.5 -53t52.5 -168v-396q0 -78 -36.5 -115.5t-114.5 -37.5h-818q-78 0 -115 37.5t-37 115.5v242q0 78 37 115.5t115 37.5zM943 388h-685
q-34 0 -34 -34v-160q0 -34 34 -34h685q34 0 34 34v160q0 34 -34 34z" />
    <glyph glyph-name="ntilde" unicode="&#xf1;" horiz-adv-x="1205" 
d="M44 0v450q0 78 36.5 115.5t114.5 37.5h816q78 0 114 -37.5t36 -115.5v-450h-184v409q0 34 -34 34h-681q-34 0 -34 -34v-409h-184zM418 642v102q49 40 101 40q32 0 90 -21t86 -21q48 0 91 43v-102q-51 -44 -104 -44q-33 0 -91 22t-86 22q-46 0 -87 -41z" />
    <glyph glyph-name="ograve" unicode="&#xf2;" horiz-adv-x="1200" 
d="M1009 603q78 0 114.5 -37.5t36.5 -115.5v-297q0 -78 -36.5 -115.5t-114.5 -37.5h-818q-78 0 -114.5 37.5t-36.5 115.5v297q0 78 36.5 115.5t114.5 37.5h818zM942 160q34 0 34 34v215q0 34 -34 34h-684q-34 0 -34 -34v-215q0 -34 34 -34h684zM563 660l-177 104h202
l134 -104h-159z" />
    <glyph glyph-name="oacute" unicode="&#xf3;" horiz-adv-x="1200" 
d="M1009 603q78 0 114.5 -37.5t36.5 -115.5v-297q0 -78 -36.5 -115.5t-114.5 -37.5h-818q-78 0 -114.5 37.5t-36.5 115.5v297q0 78 36.5 115.5t114.5 37.5h818zM942 160q34 0 34 34v215q0 34 -34 34h-684q-34 0 -34 -34v-215q0 -34 34 -34h684zM816 764l-180 -104h-159
l132 104h207z" />
    <glyph glyph-name="ocircumflex" unicode="&#xf4;" horiz-adv-x="1200" 
d="M1009 603q78 0 114.5 -37.5t36.5 -115.5v-297q0 -78 -36.5 -115.5t-114.5 -37.5h-818q-78 0 -114.5 37.5t-36.5 115.5v297q0 78 36.5 115.5t114.5 37.5h818zM942 160q34 0 34 34v215q0 34 -34 34h-684q-34 0 -34 -34v-215q0 -34 34 -34h684zM599 704l-86 -44h-150
l131 104h211l131 -104h-150z" />
    <glyph glyph-name="otilde" unicode="&#xf5;" horiz-adv-x="1200" 
d="M1009 603q78 0 114.5 -37.5t36.5 -115.5v-297q0 -78 -36.5 -115.5t-114.5 -37.5h-818q-78 0 -114.5 37.5t-36.5 115.5v297q0 78 36.5 115.5t114.5 37.5h818zM942 160q34 0 34 34v215q0 34 -34 34h-684q-34 0 -34 -34v-215q0 -34 34 -34h684zM415 642v102q49 40 101 40
q32 0 90 -21t86 -21q48 0 91 43v-102q-51 -44 -104 -44q-33 0 -91 22t-86 22q-46 0 -87 -41z" />
    <glyph glyph-name="odieresis" unicode="&#xf6;" horiz-adv-x="1200" 
d="M1009 603q78 0 114.5 -37.5t36.5 -115.5v-297q0 -78 -36.5 -115.5t-114.5 -37.5h-818q-78 0 -114.5 37.5t-36.5 115.5v297q0 78 36.5 115.5t114.5 37.5h818zM942 160q34 0 34 34v215q0 34 -34 34h-684q-34 0 -34 -34v-215q0 -34 34 -34h684zM534 767v-110h-172v110h172z
M836 767v-110h-172v110h172z" />
    <glyph glyph-name="divide" unicode="&#xf7;" 
d="M756 173v-151h-180v151h180zM756 678v-151h-180v151h180zM1286 271h-1240v158h1240v-158z" />
    <glyph glyph-name="oslash" unicode="&#xf8;" horiz-adv-x="1200" 
d="M1009 603q78 0 114.5 -37.5t36.5 -115.5v-297q0 -78 -36.5 -115.5t-114.5 -37.5h-818q-78 0 -114.5 37.5t-36.5 115.5v297q0 78 36.5 115.5t114.5 37.5h818zM235 166l527 277h-504q-34 0 -34 -34v-215q0 -20 11 -28zM942 160q34 0 34 34v215q0 18 -10 26l-524 -275h500z
" />
    <glyph glyph-name="ugrave" unicode="&#xf9;" horiz-adv-x="1205" 
d="M943 160q34 0 34 34v409h184v-450q0 -78 -36 -115.5t-114 -37.5h-816q-78 0 -114.5 37.5t-36.5 115.5v450h184v-409q0 -34 34 -34h681zM565 660l-177 104h202l134 -104h-159z" />
    <glyph glyph-name="uacute" unicode="&#xfa;" horiz-adv-x="1205" 
d="M943 160q34 0 34 34v409h184v-450q0 -78 -36 -115.5t-114 -37.5h-816q-78 0 -114.5 37.5t-36.5 115.5v450h184v-409q0 -34 34 -34h681zM818 764l-180 -104h-159l132 104h207z" />
    <glyph glyph-name="ucircumflex" unicode="&#xfb;" horiz-adv-x="1205" 
d="M943 160q34 0 34 34v409h184v-450q0 -78 -36 -115.5t-114 -37.5h-816q-78 0 -114.5 37.5t-36.5 115.5v450h184v-409q0 -34 34 -34h681zM602 704l-86 -44h-150l131 104h211l131 -104h-150z" />
    <glyph glyph-name="udieresis" unicode="&#xfc;" horiz-adv-x="1205" 
d="M943 160q34 0 34 34v409h184v-450q0 -78 -36 -115.5t-114 -37.5h-816q-78 0 -114.5 37.5t-36.5 115.5v450h184v-409q0 -34 34 -34h681zM537 767v-110h-172v110h172zM839 767v-110h-172v110h172z" />
    <glyph glyph-name="yacute" unicode="&#xfd;" horiz-adv-x="1211" 
d="M941 -167h-856v160h830q34 0 49 14.5t15 48.5v94q-11 -44 -42 -64.5t-90 -20.5h-652q-78 0 -114.5 37.5t-36.5 115.5v385h184v-344q0 -34 34 -34h683q34 0 34 34v344h184v-548q0 -115 -53 -168.5t-169 -53.5zM821 764l-180 -104h-159l132 104h207z" />
    <glyph glyph-name="thorn" unicode="&#xfe;" horiz-adv-x="1209" 
d="M232 770v-167h787q78 0 114 -37.5t36 -115.5v-297q0 -78 -36 -115.5t-114 -37.5h-655q-60 0 -90.5 20.5t-41.5 64.5v-252h-184v937h184zM232 443v-249q0 -34 34 -34h685q34 0 34 34v215q0 34 -34 34h-719z" />
    <glyph glyph-name="ydieresis" unicode="&#xff;" horiz-adv-x="1211" 
d="M941 -167h-856v160h830q34 0 49 14.5t15 48.5v94q-11 -44 -42 -64.5t-90 -20.5h-652q-78 0 -114.5 37.5t-36.5 115.5v385h184v-344q0 -34 34 -34h683q34 0 34 34v344h184v-548q0 -115 -53 -168.5t-169 -53.5zM540 767v-110h-172v110h172zM842 767v-110h-172v110h172z" />
    <glyph glyph-name="Amacron" unicode="&#x100;" horiz-adv-x="1361" 
d="M1309 0h-192v267h-873v-267h-192v545q0 78 38 116.5t118 38.5h945q80 0 118 -38.5t38 -116.5v-545zM1085 533h-809q-17 0 -24.5 -7.5t-7.5 -25.5v-67h873v67q0 18 -7 25.5t-25 7.5zM865 757h-369v93h369v-93z" />
    <glyph glyph-name="amacron" unicode="&#x101;" horiz-adv-x="1208" 
d="M984 371v38q0 34 -35 34h-890v160h957q78 0 115 -37.5t37 -115.5v-297q0 -78 -37 -115.5t-115 -37.5h-849q-70 0 -103.5 34t-33.5 106v91q0 72 33.5 106t102.5 34h818zM984 232h-742q-28 0 -28 -28v-16q0 -28 28 -28h707q35 0 35 34v38zM781 666h-369v93h369v-93z" />
    <glyph glyph-name="Abreve" unicode="&#x102;" horiz-adv-x="1361" 
d="M1309 0h-192v267h-873v-267h-192v545q0 78 38 116.5t118 38.5h945q80 0 118 -38.5t38 -116.5v-545zM1085 533h-809q-17 0 -24.5 -7.5t-7.5 -25.5v-67h873v67q0 18 -7 25.5t-25 7.5zM496 784v96q64 -46 184 -46t184 46v-96q-62 -49 -184 -49q-121 0 -184 49z" />
    <glyph glyph-name="abreve" unicode="&#x103;" horiz-adv-x="1208" 
d="M984 371v38q0 34 -35 34h-890v160h957q78 0 115 -37.5t37 -115.5v-297q0 -78 -37 -115.5t-115 -37.5h-849q-70 0 -103.5 34t-33.5 106v91q0 72 33.5 106t102.5 34h818zM984 232h-742q-28 0 -28 -28v-16q0 -28 28 -28h707q35 0 35 34v38zM412 693v96q64 -46 184 -46
t184 46v-96q-62 -49 -184 -49q-121 0 -184 49z" />
    <glyph glyph-name="Aogonek" unicode="&#x104;" horiz-adv-x="1361" 
d="M1222 0v-64h-34q-95 0 -142.5 -3t-57.5 -6.5t-10 -11.5q0 -10 27 -10h259v-98h-254q-60 0 -88.5 14t-28.5 53q0 37 21.5 54.5t80.5 25.5t181 8h18v38h-77v267h-873v-267h-192v545q0 78 38 116.5t118 38.5h945q80 0 118 -38.5t38 -116.5v-545h-87zM1085 533h-809
q-17 0 -24.5 -7.5t-7.5 -25.5v-67h873v67q0 18 -7 25.5t-25 7.5z" />
    <glyph glyph-name="aogonek" unicode="&#x105;" horiz-adv-x="1208" 
d="M1082 -64h-34q-95 0 -142.5 -3t-57.5 -6.5t-10 -11.5q0 -10 27 -10h259v-98h-254q-60 0 -88.5 14t-28.5 53q0 37 21.5 54.5t80.5 25.5t181 8h18v40q-24 -2 -38 -2h-849q-70 0 -103.5 34t-33.5 106v91q0 72 33.5 106t102.5 34h818v38q0 34 -35 34h-890v160h957
q78 0 115 -37.5t37 -115.5v-297q0 -119 -86 -145v-72zM984 232h-742q-28 0 -28 -28v-16q0 -28 28 -28h707q35 0 35 34v38z" />
    <glyph glyph-name="Cacute" unicode="&#x106;" horiz-adv-x="1273" 
d="M201 0q-80 0 -117.5 38t-37.5 117v390q0 79 37.5 117t117.5 38h1036v-167h-967q-17 0 -24.5 -7.5t-7.5 -25.5v-300q0 -18 7.5 -25.5t24.5 -7.5h967v-167h-1036zM872 855l-180 -104h-159l132 104h207z" />
    <glyph glyph-name="cacute" unicode="&#x107;" horiz-adv-x="1147" 
d="M191 0q-78 0 -114.5 37.5t-36.5 115.5v297q0 78 36.5 115.5t114.5 37.5h924v-160h-857q-34 0 -34 -34v-215q0 -34 34 -34h857v-160h-924zM821 764l-180 -104h-159l132 104h207z" />
    <glyph glyph-name="Ccircumflex" unicode="&#x108;" horiz-adv-x="1273" 
d="M201 0q-80 0 -117.5 38t-37.5 117v390q0 79 37.5 117t117.5 38h1036v-167h-967q-17 0 -24.5 -7.5t-7.5 -25.5v-300q0 -18 7.5 -25.5t24.5 -7.5h967v-167h-1036zM664 795l-86 -44h-150l131 104h211l131 -104h-150z" />
    <glyph glyph-name="ccircumflex" unicode="&#x109;" horiz-adv-x="1147" 
d="M191 0q-78 0 -114.5 37.5t-36.5 115.5v297q0 78 36.5 115.5t114.5 37.5h924v-160h-857q-34 0 -34 -34v-215q0 -34 34 -34h857v-160h-924zM604 704l-86 -44h-150l131 104h211l131 -104h-150z" />
    <glyph glyph-name="Cdotaccent" unicode="&#x10a;" horiz-adv-x="1273" 
d="M201 0q-80 0 -117.5 38t-37.5 117v390q0 79 37.5 117t117.5 38h1036v-167h-967q-17 0 -24.5 -7.5t-7.5 -25.5v-300q0 -18 7.5 -25.5t24.5 -7.5h967v-167h-1036zM750 858v-110h-171v110h171z" />
    <glyph glyph-name="cdotaccent" unicode="&#x10b;" horiz-adv-x="1147" 
d="M191 0q-78 0 -114.5 37.5t-36.5 115.5v297q0 78 36.5 115.5t114.5 37.5h924v-160h-857q-34 0 -34 -34v-215q0 -34 34 -34h857v-160h-924zM690 767v-110h-171v110h171z" />
    <glyph glyph-name="Ccaron" unicode="&#x10c;" horiz-adv-x="1273" 
d="M201 0q-80 0 -117.5 38t-37.5 117v390q0 79 37.5 117t117.5 38h1036v-167h-967q-17 0 -24.5 -7.5t-7.5 -25.5v-300q0 -18 7.5 -25.5t24.5 -7.5h967v-167h-1036zM578 855l86 -44l87 44h150l-131 -104h-211l-131 104h150z" />
    <glyph glyph-name="ccaron" unicode="&#x10d;" horiz-adv-x="1147" 
d="M191 0q-78 0 -114.5 37.5t-36.5 115.5v297q0 78 36.5 115.5t114.5 37.5h924v-160h-857q-34 0 -34 -34v-215q0 -34 34 -34h857v-160h-924zM518 764l86 -44l87 44h150l-131 -104h-211l-131 104h150z" />
    <glyph glyph-name="Dcaron" unicode="&#x10e;" horiz-adv-x="1353" 
d="M1098 700q106 0 160.5 -55t54.5 -161v-268q0 -106 -54.5 -161t-160.5 -55h-1042v700h1042zM1061 167q60 0 60 61v244q0 61 -60 61h-813v-366h813zM581 855l86 -44l87 44h150l-131 -104h-211l-131 104h150z" />
    <glyph glyph-name="dcaron" unicode="&#x10f;" horiz-adv-x="1513" 
d="M1161 770v-617q0 -78 -36.5 -115.5t-114.5 -37.5h-819q-78 0 -114.5 37.5t-36.5 115.5v297q0 78 36.5 115.5t114.5 37.5h655q60 0 90.5 -21t40.5 -65v253h184zM977 194v215q0 34 -34 34h-685q-34 0 -34 -34v-215q0 -34 34 -34h685q34 0 34 34zM1464 700v-150
q0 -77 -43.5 -122t-123.5 -45h-43v86h34q30 0 43.5 12t13.5 43v26h-91v150h210z" />
    <glyph glyph-name="Dcroat" unicode="&#x110;" horiz-adv-x="1353" 
d="M1098 700q106 0 160.5 -55t54.5 -161v-268q0 -106 -54.5 -161t-160.5 -55h-1042v267h-55v166h55v267h1042zM1061 167q60 0 60 61v244q0 61 -60 61h-813v-100h159v-166h-159v-100h813z" />
    <glyph glyph-name="dcroat" unicode="&#x111;" horiz-adv-x="1205" 
d="M1161 770v-52h43v-93h-43v-472q0 -78 -36.5 -115.5t-114.5 -37.5h-819q-78 0 -114.5 37.5t-36.5 115.5v297q0 78 36.5 115.5t114.5 37.5h655q60 0 90.5 -21t40.5 -65v108h-142v93h142v52h184zM977 194v215q0 34 -34 34h-685q-34 0 -34 -34v-215q0 -34 34 -34h685
q34 0 34 34z" />
    <glyph glyph-name="Emacron" unicode="&#x112;" horiz-adv-x="1326" 
d="M56 0v700h1234v-167h-1042v-100h942v-166h-942v-100h1042v-167h-1234zM870 757h-369v93h369v-93z" />
    <glyph glyph-name="emacron" unicode="&#x113;" horiz-adv-x="1208" 
d="M1178 372q0 -72 -33.5 -106t-103.5 -34h-817v-38q0 -34 34 -34h890v-160h-957q-78 0 -114.5 37.5t-36.5 115.5v297q0 78 36.5 115.5t114.5 37.5h850q137 0 137 -140v-91zM966 443h-708q-34 0 -34 -34v-38h742q28 0 28 28v16q0 28 -28 28zM804 666h-369v93h369v-93z" />
    <glyph glyph-name="Ebreve" unicode="&#x114;" horiz-adv-x="1326" 
d="M56 0v700h1234v-167h-1042v-100h942v-166h-942v-100h1042v-167h-1234zM501 784v96q64 -46 184 -46t184 46v-96q-62 -49 -184 -49q-121 0 -184 49z" />
    <glyph glyph-name="ebreve" unicode="&#x115;" horiz-adv-x="1208" 
d="M1178 372q0 -72 -33.5 -106t-103.5 -34h-817v-38q0 -34 34 -34h890v-160h-957q-78 0 -114.5 37.5t-36.5 115.5v297q0 78 36.5 115.5t114.5 37.5h850q137 0 137 -140v-91zM966 443h-708q-34 0 -34 -34v-38h742q28 0 28 28v16q0 28 -28 28zM435 693v96q64 -46 184 -46
t184 46v-96q-62 -49 -184 -49q-121 0 -184 49z" />
    <glyph glyph-name="Edotaccent" unicode="&#x116;" horiz-adv-x="1326" 
d="M56 0v700h1234v-167h-1042v-100h942v-166h-942v-100h1042v-167h-1234zM771 858v-110h-171v110h171z" />
    <glyph glyph-name="edotaccent" unicode="&#x117;" horiz-adv-x="1208" 
d="M1178 372q0 -72 -33.5 -106t-103.5 -34h-817v-38q0 -34 34 -34h890v-160h-957q-78 0 -114.5 37.5t-36.5 115.5v297q0 78 36.5 115.5t114.5 37.5h850q137 0 137 -140v-91zM966 443h-708q-34 0 -34 -34v-38h742q28 0 28 28v16q0 28 -28 28zM705 767v-110h-171v110h171z" />
    <glyph glyph-name="Eogonek" unicode="&#x118;" horiz-adv-x="1326" 
d="M1247 -64h-34q-95 0 -142.5 -3t-57.5 -6.5t-10 -11.5q0 -10 27 -10h259v-98h-254q-60 0 -88.5 14t-28.5 53q0 37 21.5 54.5t80.5 25.5t181 8h18v38h-1163v700h1234v-167h-1042v-100h942v-166h-942v-100h1042v-167h-43v-64z" />
    <glyph glyph-name="eogonek" unicode="&#x119;" horiz-adv-x="1208" 
d="M966 443h-708q-34 0 -34 -34v-38h742q28 0 28 28v16q0 28 -28 28zM1098 -38v38h-907q-78 0 -114.5 37.5t-36.5 115.5v297q0 78 36.5 115.5t114.5 37.5h850q137 0 137 -140v-91q0 -72 -33.5 -106t-103.5 -34h-817v-38q0 -34 34 -34h890v-160h-22v-64h-54q-95 0 -142.5 -3
t-57.5 -6.5t-10 -11.5q0 -10 27 -10h259v-98h-254q-60 0 -88.5 14t-28.5 53q0 37 21.5 54.5t80.5 25.5t181 8h38z" />
    <glyph glyph-name="Ecaron" unicode="&#x11a;" horiz-adv-x="1326" 
d="M56 0v700h1234v-167h-1042v-100h942v-166h-942v-100h1042v-167h-1234zM599 855l86 -44l87 44h150l-131 -104h-211l-131 104h150z" />
    <glyph glyph-name="ecaron" unicode="&#x11b;" horiz-adv-x="1208" 
d="M1178 372q0 -72 -33.5 -106t-103.5 -34h-817v-38q0 -34 34 -34h890v-160h-957q-78 0 -114.5 37.5t-36.5 115.5v297q0 78 36.5 115.5t114.5 37.5h850q137 0 137 -140v-91zM966 443h-708q-34 0 -34 -34v-38h742q28 0 28 28v16q0 28 -28 28zM533 764l86 -44l87 44h150
l-131 -104h-211l-131 104h150z" />
    <glyph glyph-name="Gcircumflex" unicode="&#x11c;" horiz-adv-x="1354" 
d="M1086 167q17 0 23.5 6.5t6.5 23.5v70h-515v166h707v-289q0 -77 -33 -110.5t-111 -33.5h-963q-80 0 -117.5 38t-37.5 117v390q0 79 37.5 117t117.5 38h1082v-167h-1013q-17 0 -24.5 -7.5t-7.5 -25.5v-300q0 -18 7.5 -25.5t24.5 -7.5h816zM686 795l-86 -44h-150l131 104
h211l131 -104h-150z" />
    <glyph glyph-name="gcircumflex" unicode="&#x11d;" horiz-adv-x="1205" 
d="M943 225q34 0 34 34v150q0 34 -34 34h-685q-34 0 -34 -34v-150q0 -32 34 -34h685zM846 65h-654q-78 0 -115 37.5t-37 115.5v232q0 78 37 115.5t115 37.5h818q78 0 114.5 -37.5t36.5 -115.5v-395q0 -115 -52.5 -168.5t-168.5 -53.5h-859v160h833q33 0 48 14.5t15 48.5v94
q-10 -44 -41 -64.5t-90 -20.5zM602 704l-86 -44h-150l131 104h211l131 -104h-150z" />
    <glyph glyph-name="Gbreve" unicode="&#x11e;" horiz-adv-x="1354" 
d="M1086 167q17 0 23.5 6.5t6.5 23.5v70h-515v166h707v-289q0 -77 -33 -110.5t-111 -33.5h-963q-80 0 -117.5 38t-37.5 117v390q0 79 37.5 117t117.5 38h1082v-167h-1013q-17 0 -24.5 -7.5t-7.5 -25.5v-300q0 -18 7.5 -25.5t24.5 -7.5h816zM502 784v96q64 -46 184 -46
t184 46v-96q-62 -49 -184 -49q-121 0 -184 49z" />
    <glyph glyph-name="gbreve" unicode="&#x11f;" horiz-adv-x="1205" 
d="M943 225q34 0 34 34v150q0 34 -34 34h-685q-34 0 -34 -34v-150q0 -32 34 -34h685zM846 65h-654q-78 0 -115 37.5t-37 115.5v232q0 78 37 115.5t115 37.5h818q78 0 114.5 -37.5t36.5 -115.5v-395q0 -115 -52.5 -168.5t-168.5 -53.5h-859v160h833q33 0 48 14.5t15 48.5v94
q-10 -44 -41 -64.5t-90 -20.5zM418 693v96q64 -46 184 -46t184 46v-96q-62 -49 -184 -49q-121 0 -184 49z" />
    <glyph glyph-name="Gdotaccent" unicode="&#x120;" horiz-adv-x="1354" 
d="M1086 167q17 0 23.5 6.5t6.5 23.5v70h-515v166h707v-289q0 -77 -33 -110.5t-111 -33.5h-963q-80 0 -117.5 38t-37.5 117v390q0 79 37.5 117t117.5 38h1082v-167h-1013q-17 0 -24.5 -7.5t-7.5 -25.5v-300q0 -18 7.5 -25.5t24.5 -7.5h816zM772 858v-110h-171v110h171z" />
    <glyph glyph-name="gdotaccent" unicode="&#x121;" horiz-adv-x="1205" 
d="M943 225q34 0 34 34v150q0 34 -34 34h-685q-34 0 -34 -34v-150q0 -32 34 -34h685zM846 65h-654q-78 0 -115 37.5t-37 115.5v232q0 78 37 115.5t115 37.5h818q78 0 114.5 -37.5t36.5 -115.5v-395q0 -115 -52.5 -168.5t-168.5 -53.5h-859v160h833q33 0 48 14.5t15 48.5v94
q-10 -44 -41 -64.5t-90 -20.5zM688 767v-110h-171v110h171z" />
    <glyph glyph-name="uni0122" unicode="&#x122;" horiz-adv-x="1354" 
d="M1086 167q17 0 23.5 6.5t6.5 23.5v70h-515v166h707v-289q0 -77 -33 -110.5t-111 -33.5h-963q-80 0 -117.5 38t-37.5 117v390q0 79 37.5 117t117.5 38h1082v-167h-1013q-17 0 -24.5 -7.5t-7.5 -25.5v-300q0 -18 7.5 -25.5t24.5 -7.5h816zM769 -65v-80q0 -54 -30.5 -86.5
t-87.5 -32.5h-46v46h37q44 0 44 44v7h-81v102h164z" />
    <glyph glyph-name="uni0123" unicode="&#x123;" horiz-adv-x="1205" 
d="M520 657v80q0 54 30.5 86.5t87.5 32.5h46v-46h-37q-44 0 -44 -44v-7h81v-102h-164zM943 225q34 0 34 34v150q0 34 -34 34h-685q-34 0 -34 -34v-150q0 -32 34 -34h685zM846 65h-654q-78 0 -115 37.5t-37 115.5v232q0 78 37 115.5t115 37.5h818q78 0 114.5 -37.5
t36.5 -115.5v-395q0 -115 -52.5 -168.5t-168.5 -53.5h-859v160h833q33 0 48 14.5t15 48.5v94q-10 -44 -41 -64.5t-90 -20.5z" />
    <glyph glyph-name="Hcircumflex" unicode="&#x124;" horiz-adv-x="1385" 
d="M1137 0v266h-889v-266h-192v700h192v-267h889v267h192v-700h-192zM692 795l-86 -44h-150l131 104h211l131 -104h-150z" />
    <glyph glyph-name="hcircumflex" unicode="&#x125;" horiz-adv-x="1211" 
d="M983 409q0 34 -35 34h-682q-34 0 -34 -34v-409h-184v770h184v-253q11 44 41.5 65t90.5 21h652q78 0 114.5 -37.5t36.5 -115.5v-450h-184v409zM655 704l-86 -44h-150l131 104h211l131 -104h-150z" />
    <glyph glyph-name="Hbar" unicode="&#x126;" horiz-adv-x="1385" 
d="M1137 0v266h-889v-266h-192v505h-34v111h34v84h192v-84h889v84h192v-84h34v-111h-34v-505h-192zM248 433h889v72h-889v-72z" />
    <glyph glyph-name="hbar" unicode="&#x127;" horiz-adv-x="1211" 
d="M983 409q0 34 -35 34h-682q-34 0 -34 -34v-409h-184v625h-47v93h47v52h184v-52h138v-93h-138v-108q11 44 41.5 65t90.5 21h652q78 0 114.5 -37.5t36.5 -115.5v-450h-184v409z" />
    <glyph glyph-name="Itilde" unicode="&#x128;" horiz-adv-x="304" 
d="M56 0v700h192v-700h-192zM-33 733v102q49 40 101 40q32 0 90 -21t86 -21q48 0 91 43v-102q-51 -44 -104 -44q-33 0 -91 22t-86 22q-46 0 -87 -41z" />
    <glyph glyph-name="itilde" unicode="&#x129;" horiz-adv-x="371" 
d="M-45 642v102q49 40 101 40q32 0 90 -21t86 -21q48 0 91 43v-102q-51 -44 -104 -44q-33 0 -91 22t-86 22q-46 0 -87 -41zM266 160h89v-160h-153q-80 0 -117 37.5t-37 115.5v450h184v-409q0 -34 34 -34z" />
    <glyph glyph-name="Imacron" unicode="&#x12a;" horiz-adv-x="304" 
d="M325 759h-346v89h346v-89zM56 0v700h192v-700h-192z" />
    <glyph glyph-name="imacron" unicode="&#x12b;" horiz-adv-x="371" 
d="M313 668h-346v89h346v-89zM266 160h89v-160h-153q-80 0 -117 37.5t-37 115.5v450h184v-409q0 -34 34 -34z" />
    <glyph glyph-name="Ibreve" unicode="&#x12c;" horiz-adv-x="304" 
d="M56 0v700h192v-700h-192zM-33 784v96q64 -46 184 -46t184 46v-96q-62 -49 -184 -49q-121 0 -184 49z" />
    <glyph glyph-name="ibreve" unicode="&#x12d;" horiz-adv-x="371" 
d="M-45 693v96q64 -46 184 -46t184 46v-96q-62 -49 -184 -49q-121 0 -184 49zM266 160h89v-160h-153q-80 0 -117 37.5t-37 115.5v450h184v-409q0 -34 34 -34z" />
    <glyph glyph-name="Iogonek" unicode="&#x12e;" horiz-adv-x="304" 
d="M56 0v700h192v-700h-21v-64h-27q-76 0 -115 -3t-47.5 -7t-8.5 -11q0 -10 27 -10h192v-98h-187q-60 0 -88.5 14t-28.5 53q0 53 51.5 70.5t203.5 17.5v38h-143z" />
    <glyph glyph-name="iogonek" unicode="&#x12f;" horiz-adv-x="371" 
d="M334 -64h-27q-50 0 -84.5 -1t-54 -2.5t-30 -4.5t-13.5 -5.5t-3 -6.5q0 -11 25 -11h208v-98h-201q-59 0 -88 14t-29 53q0 36 20.5 53.5t77.5 26t171 8.5v38h-104q-80 0 -117 37.5t-37 115.5v450h184v-409q0 -34 34 -34h89v-160h-21v-64zM246 770v-113h-212v113h212z" />
    <glyph glyph-name="Idotaccent" unicode="&#x130;" horiz-adv-x="304" 
d="M56 0v700h192v-700h-192zM237 858v-110h-171v110h171z" />
    <glyph glyph-name="dotlessi" unicode="&#x131;" horiz-adv-x="371" 
d="M266 160h89v-160h-153q-80 0 -117 37.5t-37 115.5v450h184v-409q0 -34 34 -34z" />
    <glyph glyph-name="IJ" unicode="&#x132;" horiz-adv-x="1644" 
d="M56 0v700h192v-700h-192zM340 144v198h192v-145q0 -17 6 -23.5t23 -6.5h807q18 0 25 7.5t7 25.5v500h192v-545q0 -79 -38 -117t-119 -38h-951q-78 0 -111 33.5t-33 110.5z" />
    <glyph glyph-name="Jcircumflex" unicode="&#x134;" horiz-adv-x="1340" 
d="M36 144v198h192v-145q0 -17 6 -23.5t23 -6.5h807q18 0 25 7.5t7 25.5v500h192v-545q0 -79 -38 -117t-119 -38h-951q-78 0 -111 33.5t-33 110.5zM1123 795l-86 -44h-150l131 104h211l131 -104h-150z" />
    <glyph glyph-name="jcircumflex" unicode="&#x135;" horiz-adv-x="303" 
d="M-19 -7h50q31 0 31 31v579h184v-617q0 -78 -37 -115.5t-117 -37.5h-111v160zM155 704l-86 -44h-150l131 104h211l131 -104h-150z" />
    <glyph glyph-name="uni0136" unicode="&#x136;" horiz-adv-x="1359" 
d="M1313 700v-193q0 -71 -30.5 -111t-106.5 -46q76 -6 106.5 -46.5t30.5 -110.5v-193h-192v226q0 41 -40 41h-833v-267h-192v700h192v-267h833q40 0 40 41v226h192zM761 -65v-80q0 -54 -30.5 -86.5t-87.5 -32.5h-46v46h37q44 0 44 44v7h-81v102h164z" />
    <glyph glyph-name="uni0137" unicode="&#x137;" horiz-adv-x="1203" 
d="M981 419v184h184v-163q0 -64 -28.5 -98t-91.5 -41q63 -7 91.5 -40.5t28.5 -97.5v-163h-184v184q0 38 -38 38h-711v-222h-184v770h184v-389h711q38 0 38 38zM695 -65v-80q0 -54 -30.5 -86.5t-87.5 -32.5h-46v46h37q44 0 44 44v7h-81v102h164z" />
    <glyph glyph-name="kgreenlandic" unicode="&#x138;" horiz-adv-x="1203" 
d="M981 419v184h184v-163q0 -64 -28.5 -98t-91.5 -41q63 -7 91.5 -40.5t28.5 -97.5v-163h-184v184q0 38 -38 38h-711v-222h-184v603h184v-222h711q38 0 38 38z" />
    <glyph glyph-name="Lacute" unicode="&#x139;" horiz-adv-x="1295" 
d="M1276 167v-167h-1220v700h192v-533h1028zM400 855l-180 -104h-159l132 104h207z" />
    <glyph glyph-name="lacute" unicode="&#x13a;" horiz-adv-x="367" 
d="M262 160h89v-160h-153q-80 0 -117 37.5t-37 115.5v617h184v-576q0 -34 34 -34zM346 931l-180 -104h-159l132 104h207z" />
    <glyph glyph-name="uni013B" unicode="&#x13b;" horiz-adv-x="1295" 
d="M1276 167v-167h-1220v700h192v-533h1028zM737 -65v-80q0 -54 -30.5 -86.5t-87.5 -32.5h-46v46h37q44 0 44 44v7h-81v102h164z" />
    <glyph glyph-name="uni013C" unicode="&#x13c;" horiz-adv-x="367" 
d="M262 160h89v-160h-153q-80 0 -117 37.5t-37 115.5v617h184v-576q0 -34 34 -34zM266 -65v-80q0 -54 -30.5 -86.5t-87.5 -32.5h-46v46h37q44 0 44 44v7h-81v102h164z" />
    <glyph glyph-name="Lcaron" unicode="&#x13d;" horiz-adv-x="1295" 
d="M1276 167v-167h-1220v700h192v-533h1028zM1173 700v-150q0 -77 -43.5 -122t-123.5 -45h-43v86h34q30 0 43.5 12t13.5 43v26h-91v150h210z" />
    <glyph glyph-name="lcaron" unicode="&#x13e;" horiz-adv-x="583" 
d="M262 160h89v-160h-153q-80 0 -117 37.5t-37 115.5v617h184v-576q0 -34 34 -34zM534 700v-150q0 -77 -43.5 -122t-123.5 -45h-43v86h34q30 0 43.5 12t13.5 43v26h-91v150h210z" />
    <glyph glyph-name="Ldot" unicode="&#x13f;" horiz-adv-x="1295" 
d="M1276 167v-167h-1220v700h192v-533h1028zM876 425v-150h-210v150h210z" />
    <glyph glyph-name="ldot" unicode="&#x140;" horiz-adv-x="581" 
d="M262 160h89v-160h-153q-80 0 -117 37.5t-37 115.5v617h184v-576q0 -34 34 -34zM532 425v-150h-210v150h210z" />
    <glyph glyph-name="Lslash" unicode="&#x141;" horiz-adv-x="1295" 
d="M1276 167v-167h-1220v167l-56 -22v164l56 22v369h192v-291l312 127v-164l-312 -127v-78h1028z" />
    <glyph glyph-name="lslash" unicode="&#x142;" horiz-adv-x="367" 
d="M262 160h89v-160h-153q-80 0 -117 37.5t-37 115.5v111l-44 -19v164l44 19v342h184v-263l139 60v-164l-139 -60v-149q0 -34 34 -34z" />
    <glyph glyph-name="Nacute" unicode="&#x143;" horiz-adv-x="1361" 
d="M276 533q-17 0 -24.5 -7.5t-7.5 -25.5v-500h-192v545q0 78 38 116.5t118 38.5h945q80 0 118 -38.5t38 -116.5v-545h-192v500q0 18 -7 25.5t-25 7.5h-809zM897 855l-180 -104h-159l132 104h207z" />
    <glyph glyph-name="nacute" unicode="&#x144;" horiz-adv-x="1205" 
d="M44 0v450q0 78 36.5 115.5t114.5 37.5h816q78 0 114 -37.5t36 -115.5v-450h-184v409q0 34 -34 34h-681q-34 0 -34 -34v-409h-184zM816 764l-180 -104h-159l132 104h207z" />
    <glyph glyph-name="uni0145" unicode="&#x145;" horiz-adv-x="1361" 
d="M276 533q-17 0 -24.5 -7.5t-7.5 -25.5v-500h-192v545q0 78 38 116.5t118 38.5h945q80 0 118 -38.5t38 -116.5v-545h-192v500q0 18 -7 25.5t-25 7.5h-809zM762 -65v-80q0 -54 -30.5 -86.5t-87.5 -32.5h-46v46h37q44 0 44 44v7h-81v102h164z" />
    <glyph glyph-name="uni0146" unicode="&#x146;" horiz-adv-x="1205" 
d="M44 0v450q0 78 36.5 115.5t114.5 37.5h816q78 0 114 -37.5t36 -115.5v-450h-184v409q0 34 -34 34h-681q-34 0 -34 -34v-409h-184zM684 -65v-80q0 -54 -30.5 -86.5t-87.5 -32.5h-46v46h37q44 0 44 44v7h-81v102h164z" />
    <glyph glyph-name="Ncaron" unicode="&#x147;" horiz-adv-x="1361" 
d="M276 533q-17 0 -24.5 -7.5t-7.5 -25.5v-500h-192v545q0 78 38 116.5t118 38.5h945q80 0 118 -38.5t38 -116.5v-545h-192v500q0 18 -7 25.5t-25 7.5h-809zM594 855l86 -44l87 44h150l-131 -104h-211l-131 104h150z" />
    <glyph glyph-name="ncaron" unicode="&#x148;" horiz-adv-x="1205" 
d="M44 0v450q0 78 36.5 115.5t114.5 37.5h816q78 0 114 -37.5t36 -115.5v-450h-184v409q0 34 -34 34h-681q-34 0 -34 -34v-409h-184zM516 764l86 -44l87 44h150l-131 -104h-211l-131 104h150z" />
    <glyph glyph-name="napostrophe" unicode="&#x149;" horiz-adv-x="1473" 
d="M312 0v450q0 78 36.5 115.5t114.5 37.5h816q78 0 114 -37.5t36 -115.5v-450h-184v409q0 34 -34 34h-681q-34 0 -34 -34v-409h-184zM259 700v-150q0 -77 -43.5 -122t-123.5 -45h-43v86h34q30 0 43.5 12t13.5 43v26h-91v150h210z" />
    <glyph glyph-name="Eng" unicode="&#x14a;" horiz-adv-x="1361" 
d="M276 533q-17 0 -24.5 -7.5t-7.5 -25.5v-500h-192v545q0 78 38 116.5t118 38.5h945q80 0 118 -38.5t38 -116.5v-557q0 -78 -38 -116.5t-118 -38.5h-327v167h259q18 0 25 7.5t7 25.5v467q0 18 -7 25.5t-25 7.5h-809z" />
    <glyph glyph-name="eng" unicode="&#x14b;" horiz-adv-x="1205" 
d="M897 -7h50q30 0 30 31v385q0 34 -34 34h-681q-34 0 -34 -34v-409h-184v450q0 78 36.5 115.5t114.5 37.5h816q78 0 114 -37.5t36 -115.5v-464q0 -79 -36.5 -116t-116.5 -37h-111v160z" />
    <glyph glyph-name="Omacron" unicode="&#x14c;" horiz-adv-x="1352" 
d="M202 0q-80 0 -118 38.5t-38 116.5v390q0 78 38 116.5t118 38.5h948q80 0 118 -38.5t38 -116.5v-390q0 -78 -38 -116.5t-118 -38.5h-948zM1114 200v300q0 18 -7.5 25.5t-24.5 7.5h-812q-17 0 -24.5 -7.5t-7.5 -25.5v-300q0 -33 32 -33h812q17 0 24.5 7.5t7.5 25.5z
M860 757h-369v93h369v-93z" />
    <glyph glyph-name="omacron" unicode="&#x14d;" horiz-adv-x="1200" 
d="M1009 603q78 0 114.5 -37.5t36.5 -115.5v-297q0 -78 -36.5 -115.5t-114.5 -37.5h-818q-78 0 -114.5 37.5t-36.5 115.5v297q0 78 36.5 115.5t114.5 37.5h818zM942 160q34 0 34 34v215q0 34 -34 34h-684q-34 0 -34 -34v-215q0 -34 34 -34h684zM784 666h-369v93h369v-93z
" />
    <glyph glyph-name="Obreve" unicode="&#x14e;" horiz-adv-x="1352" 
d="M202 0q-80 0 -118 38.5t-38 116.5v390q0 78 38 116.5t118 38.5h948q80 0 118 -38.5t38 -116.5v-390q0 -78 -38 -116.5t-118 -38.5h-948zM1114 200v300q0 18 -7.5 25.5t-24.5 7.5h-812q-17 0 -24.5 -7.5t-7.5 -25.5v-300q0 -33 32 -33h812q17 0 24.5 7.5t7.5 25.5z
M491 784v96q64 -46 184 -46t184 46v-96q-62 -49 -184 -49q-121 0 -184 49z" />
    <glyph glyph-name="obreve" unicode="&#x14f;" horiz-adv-x="1200" 
d="M1009 603q78 0 114.5 -37.5t36.5 -115.5v-297q0 -78 -36.5 -115.5t-114.5 -37.5h-818q-78 0 -114.5 37.5t-36.5 115.5v297q0 78 36.5 115.5t114.5 37.5h818zM942 160q34 0 34 34v215q0 34 -34 34h-684q-34 0 -34 -34v-215q0 -34 34 -34h684zM415 693v96q64 -46 184 -46
t184 46v-96q-62 -49 -184 -49q-121 0 -184 49z" />
    <glyph glyph-name="Ohungarumlaut" unicode="&#x150;" horiz-adv-x="1352" 
d="M202 0q-80 0 -118 38.5t-38 116.5v390q0 78 38 116.5t118 38.5h948q80 0 118 -38.5t38 -116.5v-390q0 -78 -38 -116.5t-118 -38.5h-948zM1114 200v300q0 18 -7.5 25.5t-24.5 7.5h-812q-17 0 -24.5 -7.5t-7.5 -25.5v-300q0 -33 32 -33h812q17 0 24.5 7.5t7.5 25.5z
M1039 855l-180 -104h-159l132 104h207zM745 855l-180 -104h-159l132 104h207z" />
    <glyph glyph-name="ohungarumlaut" unicode="&#x151;" horiz-adv-x="1200" 
d="M1009 603q78 0 114.5 -37.5t36.5 -115.5v-297q0 -78 -36.5 -115.5t-114.5 -37.5h-818q-78 0 -114.5 37.5t-36.5 115.5v297q0 78 36.5 115.5t114.5 37.5h818zM942 160q34 0 34 34v215q0 34 -34 34h-684q-34 0 -34 -34v-215q0 -34 34 -34h684zM963 764l-180 -104h-159
l132 104h207zM669 764l-180 -104h-159l132 104h207z" />
    <glyph glyph-name="OE" unicode="&#x152;" horiz-adv-x="2092" 
d="M205 0q-80 0 -117.5 38t-37.5 117v390q0 79 37.5 117t117.5 38h1827v-167h-883v-100h784v-166h-784v-100h883v-167h-1827zM957 167v366h-683q-17 0 -24.5 -7.5t-7.5 -25.5v-300q0 -18 7.5 -25.5t24.5 -7.5h683z" />
    <glyph glyph-name="oe" unicode="&#x153;" horiz-adv-x="1792" 
d="M808 194v215q0 34 -34 34h-516q-34 0 -34 -34v-215q0 -34 34 -34h516q34 0 34 34zM1578 399v16q0 28 -28 28h-524q-34 0 -34 -34v-38h558q28 0 28 28zM992 232v-38q0 -34 34 -34h707v-160h-689q-69 0 -103 28t-41 91q-7 -63 -41 -91t-104 -28h-564q-78 0 -114.5 37.5
t-36.5 115.5v297q0 78 36.5 115.5t114.5 37.5h564q70 0 104 -28t41 -91q7 63 41 91t103 28h581q137 0 137 -140v-91q0 -140 -136 -140h-634z" />
    <glyph glyph-name="Racute" unicode="&#x154;" horiz-adv-x="1359" 
d="M1313 550v-61q0 -68 -30 -102t-99 -38q71 -8 100 -47.5t29 -108.5v-193h-192v226q0 41 -40 41h-833v-267h-192v700h1107q79 0 114.5 -36t35.5 -114zM1089 433q18 0 25 7.5t7 25.5v34q0 18 -7 25.5t-25 7.5h-841v-100h841zM896 855l-180 -104h-159l132 104h207z" />
    <glyph glyph-name="racute" unicode="&#x155;" horiz-adv-x="1044" 
d="M1027 603v-160h-765q-34 0 -34 -34v-409h-184v450q0 78 37 115.5t115 37.5h831zM763 764l-180 -104h-159l132 104h207z" />
    <glyph glyph-name="uni0156" unicode="&#x156;" horiz-adv-x="1359" 
d="M1313 550v-61q0 -68 -30 -102t-99 -38q71 -8 100 -47.5t29 -108.5v-193h-192v226q0 41 -40 41h-833v-267h-192v700h1107q79 0 114.5 -36t35.5 -114zM1089 433q18 0 25 7.5t7 25.5v34q0 18 -7 25.5t-25 7.5h-841v-100h841zM780 -65v-80q0 -54 -30.5 -86.5t-87.5 -32.5h-46
v46h37q44 0 44 44v7h-81v102h164z" />
    <glyph glyph-name="uni0157" unicode="&#x157;" horiz-adv-x="1044" 
d="M1027 603v-160h-765q-34 0 -34 -34v-409h-184v450q0 78 37 115.5t115 37.5h831zM221 -65v-80q0 -54 -30.5 -86.5t-87.5 -32.5h-46v46h37q44 0 44 44v7h-81v102h164z" />
    <glyph glyph-name="Rcaron" unicode="&#x158;" horiz-adv-x="1359" 
d="M1313 550v-61q0 -68 -30 -102t-99 -38q71 -8 100 -47.5t29 -108.5v-193h-192v226q0 41 -40 41h-833v-267h-192v700h1107q79 0 114.5 -36t35.5 -114zM1089 433q18 0 25 7.5t7 25.5v34q0 18 -7 25.5t-25 7.5h-841v-100h841zM593 855l86 -44l87 44h150l-131 -104h-211
l-131 104h150z" />
    <glyph glyph-name="rcaron" unicode="&#x159;" horiz-adv-x="1044" 
d="M1027 603v-160h-765q-34 0 -34 -34v-409h-184v450q0 78 37 115.5t115 37.5h831zM460 764l86 -44l87 44h150l-131 -104h-211l-131 104h150z" />
    <glyph glyph-name="Sacute" unicode="&#x15a;" horiz-adv-x="1316" 
d="M201 267q-80 0 -118 38.5t-38 116.5v123q0 78 38 116.5t118 38.5h1050v-167h-982q-17 0 -24.5 -7.5t-7.5 -25.5v-34q0 -18 7.5 -25.5t24.5 -7.5h852q81 0 119 -38.5t38 -116.5v-123q0 -79 -38 -117t-119 -38h-1085v167h1018q17 0 24.5 7.5t7.5 25.5v34q0 18 -7.5 25.5
t-24.5 7.5h-853zM874 855l-180 -104h-159l132 104h207z" />
    <glyph glyph-name="sacute" unicode="&#x15b;" horiz-adv-x="1178" 
d="M1118 443h-872q-28 0 -28 -28v-16q0 -28 28 -28h766q69 0 102.5 -34t33.5 -106v-91q0 -72 -33.5 -106t-103.5 -34h-977v160h902q28 0 28 28v16q0 28 -28 28h-765q-70 0 -103.5 34t-33.5 106v91q0 72 33.5 106t102.5 34h948v-160zM805 764l-180 -104h-159l132 104h207z
" />
    <glyph glyph-name="Scircumflex" unicode="&#x15c;" horiz-adv-x="1316" 
d="M201 267q-80 0 -118 38.5t-38 116.5v123q0 78 38 116.5t118 38.5h1050v-167h-982q-17 0 -24.5 -7.5t-7.5 -25.5v-34q0 -18 7.5 -25.5t24.5 -7.5h852q81 0 119 -38.5t38 -116.5v-123q0 -79 -38 -117t-119 -38h-1085v167h1018q17 0 24.5 7.5t7.5 25.5v34q0 18 -7.5 25.5
t-24.5 7.5h-853zM657 795l-86 -44h-150l131 104h211l131 -104h-150z" />
    <glyph glyph-name="scircumflex" unicode="&#x15d;" horiz-adv-x="1178" 
d="M1118 443h-872q-28 0 -28 -28v-16q0 -28 28 -28h766q69 0 102.5 -34t33.5 -106v-91q0 -72 -33.5 -106t-103.5 -34h-977v160h902q28 0 28 28v16q0 28 -28 28h-765q-70 0 -103.5 34t-33.5 106v91q0 72 33.5 106t102.5 34h948v-160zM588 704l-86 -44h-150l131 104h211
l131 -104h-150z" />
    <glyph glyph-name="Scedilla" unicode="&#x15e;" horiz-adv-x="1316" 
d="M621 0h-585v167h1018q17 0 24.5 7.5t7.5 25.5v34q0 18 -7.5 25.5t-24.5 7.5h-853q-80 0 -118 38.5t-38 116.5v123q0 78 38 116.5t118 38.5h1050v-167h-982q-17 0 -24.5 -7.5t-7.5 -25.5v-34q0 -18 7.5 -25.5t24.5 -7.5h852q81 0 119 -38.5t38 -116.5v-123q0 -79 -38 -117
t-119 -38h-472l-15 -38h110q53 0 77 -15.5t24 -51.5q0 -47 -31 -67.5t-104 -20.5h-238v98h217q26 0 26 17q0 12 -21 12h-101z" />
    <glyph glyph-name="scedilla" unicode="&#x15f;" horiz-adv-x="1178" 
d="M547 0h-513v160h902q28 0 28 28v16q0 28 -28 28h-765q-70 0 -103.5 34t-33.5 106v91q0 72 33.5 106t102.5 34h948v-160h-872q-28 0 -28 -28v-16q0 -28 28 -28h766q69 0 102.5 -34t33.5 -106v-91q0 -72 -33.5 -106t-103.5 -34h-436l-15 -38h110q53 0 77 -15.5t24 -51.5
q0 -47 -30.5 -67.5t-104.5 -20.5h-238v98h217q26 0 26 17q0 12 -21 12h-101z" />
    <glyph glyph-name="Scaron" unicode="&#x160;" horiz-adv-x="1316" 
d="M201 267q-80 0 -118 38.5t-38 116.5v123q0 78 38 116.5t118 38.5h1050v-167h-982q-17 0 -24.5 -7.5t-7.5 -25.5v-34q0 -18 7.5 -25.5t24.5 -7.5h852q81 0 119 -38.5t38 -116.5v-123q0 -79 -38 -117t-119 -38h-1085v167h1018q17 0 24.5 7.5t7.5 25.5v34q0 18 -7.5 25.5
t-24.5 7.5h-853zM571 855l86 -44l87 44h150l-131 -104h-211l-131 104h150z" />
    <glyph glyph-name="scaron" unicode="&#x161;" horiz-adv-x="1178" 
d="M1118 443h-872q-28 0 -28 -28v-16q0 -28 28 -28h766q69 0 102.5 -34t33.5 -106v-91q0 -72 -33.5 -106t-103.5 -34h-977v160h902q28 0 28 28v16q0 28 -28 28h-765q-70 0 -103.5 34t-33.5 106v91q0 72 33.5 106t102.5 34h948v-160zM502 764l86 -44l87 44h150l-131 -104
h-211l-131 104h150z" />
    <glyph glyph-name="uni0162" unicode="&#x162;" horiz-adv-x="1299" 
d="M618 0h-64v533h-535v167h1261v-167h-534v-533h-100l-15 -38h110q53 0 77 -15.5t24 -51.5q0 -47 -31 -67.5t-104 -20.5h-238v98h217q26 0 26 17q0 12 -21 12h-101z" />
    <glyph glyph-name="uni0163" unicode="&#x163;" horiz-adv-x="1070" 
d="M506 0h-308q-80 0 -117 37.5t-37 115.5v617h184v-167h810v-160h-810v-249q0 -34 34 -34h776v-160h-504l-15 -38h110q53 0 77 -15.5t24 -51.5q0 -47 -31 -67.5t-104 -20.5h-238v98h217q26 0 26 17q0 12 -21 12h-101z" />
    <glyph glyph-name="Tcaron" unicode="&#x164;" horiz-adv-x="1299" 
d="M1280 700v-167h-534v-533h-192v533h-535v167h1261zM563 855l86 -44l87 44h150l-131 -104h-211l-131 104h150z" />
    <glyph glyph-name="tcaron" unicode="&#x165;" horiz-adv-x="1378" 
d="M198 0q-80 0 -117 37.5t-37 115.5v617h184v-167h810v-160h-810v-249q0 -34 34 -34h776v-160h-840zM1329 700v-150q0 -77 -43.5 -122t-123.5 -45h-43v86h34q30 0 43.5 12t13.5 43v26h-91v150h210z" />
    <glyph glyph-name="Tbar" unicode="&#x166;" horiz-adv-x="1299" 
d="M1280 700v-167h-534v-108h128v-111h-128v-314h-192v314h-129v111h129v108h-535v167h1261z" />
    <glyph glyph-name="tbar" unicode="&#x167;" horiz-adv-x="1070" 
d="M198 0q-80 0 -117 37.5t-37 115.5v94h-43v112h43v411h184v-167h810v-160h-810v-84h203v-112h-203v-53q0 -34 34 -34h776v-160h-840z" />
    <glyph glyph-name="Utilde" unicode="&#x168;" horiz-adv-x="1361" 
d="M208 0q-80 0 -118 38.5t-38 116.5v545h192v-500q0 -18 7.5 -25.5t24.5 -7.5h809q18 0 25 7.5t7 25.5v500h192v-545q0 -78 -38 -116.5t-118 -38.5h-945zM496 733v102q49 40 101 40q32 0 90 -21t86 -21q48 0 91 43v-102q-51 -44 -104 -44q-33 0 -91 22t-86 22
q-46 0 -87 -41z" />
    <glyph glyph-name="utilde" unicode="&#x169;" horiz-adv-x="1205" 
d="M943 160q34 0 34 34v409h184v-450q0 -78 -36 -115.5t-114 -37.5h-816q-78 0 -114.5 37.5t-36.5 115.5v450h184v-409q0 -34 34 -34h681zM418 642v102q49 40 101 40q32 0 90 -21t86 -21q48 0 91 43v-102q-51 -44 -104 -44q-33 0 -91 22t-86 22q-46 0 -87 -41z" />
    <glyph glyph-name="Umacron" unicode="&#x16a;" horiz-adv-x="1361" 
d="M208 0q-80 0 -118 38.5t-38 116.5v545h192v-500q0 -18 7.5 -25.5t24.5 -7.5h809q18 0 25 7.5t7 25.5v500h192v-545q0 -78 -38 -116.5t-118 -38.5h-945zM865 757h-369v93h369v-93z" />
    <glyph glyph-name="umacron" unicode="&#x16b;" horiz-adv-x="1205" 
d="M943 160q34 0 34 34v409h184v-450q0 -78 -36 -115.5t-114 -37.5h-816q-78 0 -114.5 37.5t-36.5 115.5v450h184v-409q0 -34 34 -34h681zM787 666h-369v93h369v-93z" />
    <glyph glyph-name="Ubreve" unicode="&#x16c;" horiz-adv-x="1361" 
d="M208 0q-80 0 -118 38.5t-38 116.5v545h192v-500q0 -18 7.5 -25.5t24.5 -7.5h809q18 0 25 7.5t7 25.5v500h192v-545q0 -78 -38 -116.5t-118 -38.5h-945zM496 784v96q64 -46 184 -46t184 46v-96q-62 -49 -184 -49q-121 0 -184 49z" />
    <glyph glyph-name="ubreve" unicode="&#x16d;" horiz-adv-x="1205" 
d="M943 160q34 0 34 34v409h184v-450q0 -78 -36 -115.5t-114 -37.5h-816q-78 0 -114.5 37.5t-36.5 115.5v450h184v-409q0 -34 34 -34h681zM418 693v96q64 -46 184 -46t184 46v-96q-62 -49 -184 -49q-121 0 -184 49z" />
    <glyph glyph-name="Uring" unicode="&#x16e;" horiz-adv-x="1361" 
d="M208 0q-80 0 -118 38.5t-38 116.5v545h192v-500q0 -18 7.5 -25.5t24.5 -7.5h809q18 0 25 7.5t7 25.5v500h192v-545q0 -78 -38 -116.5t-118 -38.5h-945zM597 826q0 -22 22 -22h123q21 0 21 22t-21 22h-123q-22 0 -22 -22zM729 743h-97q-56 0 -78 20.5t-22 62.5
q0 40 22.5 61t77.5 21h97q55 0 77.5 -21t22.5 -61q0 -42 -22 -62.5t-78 -20.5z" />
    <glyph glyph-name="uring" unicode="&#x16f;" horiz-adv-x="1205" 
d="M943 160q34 0 34 34v409h184v-450q0 -78 -36 -115.5t-114 -37.5h-816q-78 0 -114.5 37.5t-36.5 115.5v450h184v-409q0 -34 34 -34h681zM519 735q0 -22 22 -22h123q21 0 21 22t-21 22h-123q-22 0 -22 -22zM651 652h-97q-56 0 -78 20.5t-22 62.5q0 40 22.5 61t77.5 21h97
q55 0 77.5 -21t22.5 -61q0 -42 -22 -62.5t-78 -20.5z" />
    <glyph glyph-name="Uhungarumlaut" unicode="&#x170;" horiz-adv-x="1361" 
d="M208 0q-80 0 -118 38.5t-38 116.5v545h192v-500q0 -18 7.5 -25.5t24.5 -7.5h809q18 0 25 7.5t7 25.5v500h192v-545q0 -78 -38 -116.5t-118 -38.5h-945zM1044 855l-180 -104h-159l132 104h207zM750 855l-180 -104h-159l132 104h207z" />
    <glyph glyph-name="uhungarumlaut" unicode="&#x171;" horiz-adv-x="1205" 
d="M943 160q34 0 34 34v409h184v-450q0 -78 -36 -115.5t-114 -37.5h-816q-78 0 -114.5 37.5t-36.5 115.5v450h184v-409q0 -34 34 -34h681zM965 764l-180 -104h-159l132 104h207zM671 764l-180 -104h-159l132 104h207z" />
    <glyph glyph-name="Uogonek" unicode="&#x172;" horiz-adv-x="1361" 
d="M1223 -64h-34q-95 0 -142.5 -3t-57.5 -6.5t-10 -11.5q0 -10 27 -10h259v-98h-254q-60 0 -88.5 14t-28.5 53q0 37 21.5 54.5t80.5 25.5t181 8h18v41q-19 -3 -42 -3h-945q-80 0 -118 38.5t-38 116.5v545h192v-500q0 -18 7.5 -25.5t24.5 -7.5h809q18 0 25 7.5t7 25.5v500
h192v-545q0 -116 -86 -146v-73z" />
    <glyph glyph-name="uogonek" unicode="&#x173;" horiz-adv-x="1205" 
d="M1078 -64h-34q-95 0 -142.5 -3t-57.5 -6.5t-10 -11.5q0 -10 27 -10h259v-98h-254q-60 0 -88.5 14t-28.5 53q0 37 21.5 54.5t80.5 25.5t181 8h18v41q-18 -3 -39 -3h-816q-78 0 -114.5 37.5t-36.5 115.5v450h184v-409q0 -34 34 -34h681q34 0 34 34v409h184v-450
q0 -118 -83 -144v-73z" />
    <glyph glyph-name="Wcircumflex" unicode="&#x174;" horiz-adv-x="1724" 
d="M1516 0h-497q-75 0 -111.5 27.5t-45.5 88.5q-9 -61 -45.5 -88.5t-110.5 -27.5h-498q-80 0 -118 38.5t-38 116.5v545h192v-500q0 -18 7.5 -25.5t24.5 -7.5h457q33 0 33 34v499h192v-499q0 -34 33 -34h457q17 0 24.5 7.5t7.5 25.5v500h192v-545q0 -78 -38 -116.5
t-118 -38.5zM862 795l-86 -44h-150l131 104h211l131 -104h-150z" />
    <glyph glyph-name="wcircumflex" unicode="&#x175;" horiz-adv-x="1549" 
d="M775 119q-8 -63 -42 -91t-103 -28h-435q-78 0 -114.5 37.5t-36.5 115.5v450h184v-409q0 -34 34 -34h386q35 0 35 34v409h184v-409q0 -34 34 -34h386q34 0 34 34v409h184v-450q0 -78 -36.5 -115.5t-114.5 -37.5h-435q-69 0 -103 28t-41 91zM774 704l-86 -44h-150l131 104
h211l131 -104h-150z" />
    <glyph glyph-name="Ycircumflex" unicode="&#x176;" horiz-adv-x="1341" 
d="M1113 700h192v-278q0 -79 -37.5 -117t-117.5 -38h-383v-267h-192v267h-384q-80 0 -117.5 38t-37.5 117v278h192v-235q0 -17 7.5 -24.5t24.5 -7.5h821q18 0 25 7.5t7 24.5v235zM670 795l-86 -44h-150l131 104h211l131 -104h-150z" />
    <glyph glyph-name="ycircumflex" unicode="&#x177;" horiz-adv-x="1211" 
d="M941 -167h-856v160h830q34 0 49 14.5t15 48.5v94q-11 -44 -42 -64.5t-90 -20.5h-652q-78 0 -114.5 37.5t-36.5 115.5v385h184v-344q0 -34 34 -34h683q34 0 34 34v344h184v-548q0 -115 -53 -168.5t-169 -53.5zM605 704l-86 -44h-150l131 104h211l131 -104h-150z" />
    <glyph glyph-name="Ydieresis" unicode="&#x178;" horiz-adv-x="1341" 
d="M1113 700h192v-278q0 -79 -37.5 -117t-117.5 -38h-383v-267h-192v267h-384q-80 0 -117.5 38t-37.5 117v278h192v-235q0 -17 7.5 -24.5t24.5 -7.5h821q18 0 25 7.5t7 24.5v235zM605 858v-110h-172v110h172zM907 858v-110h-172v110h172z" />
    <glyph glyph-name="Zacute" unicode="&#x179;" horiz-adv-x="1320" 
d="M1040 433q26 0 36 10t10 37v53h-1021v167h1213v-246q0 -187 -187 -187h-813q-26 0 -36.5 -10t-10.5 -37v-53h1047v-167h-1239v246q0 187 187 187h814zM886 855l-180 -104h-159l132 104h207z" />
    <glyph glyph-name="zacute" unicode="&#x17a;" horiz-adv-x="1183" 
d="M249 232q-34 0 -34 -34v-38h934v-160h-1118v195q0 176 176 176h723q35 0 35 34v38h-913v160h1097v-195q0 -176 -177 -176h-723zM820 764l-180 -104h-159l132 104h207z" />
    <glyph glyph-name="Zdotaccent" unicode="&#x17b;" horiz-adv-x="1320" 
d="M1040 433q26 0 36 10t10 37v53h-1021v167h1213v-246q0 -187 -187 -187h-813q-26 0 -36.5 -10t-10.5 -37v-53h1047v-167h-1239v246q0 187 187 187h814zM755 858v-110h-171v110h171z" />
    <glyph glyph-name="zdotaccent" unicode="&#x17c;" horiz-adv-x="1183" 
d="M249 232q-34 0 -34 -34v-38h934v-160h-1118v195q0 176 176 176h723q35 0 35 34v38h-913v160h1097v-195q0 -176 -177 -176h-723zM689 767v-110h-171v110h171z" />
    <glyph glyph-name="Zcaron" unicode="&#x17d;" horiz-adv-x="1320" 
d="M1040 433q26 0 36 10t10 37v53h-1021v167h1213v-246q0 -187 -187 -187h-813q-26 0 -36.5 -10t-10.5 -37v-53h1047v-167h-1239v246q0 187 187 187h814zM583 855l86 -44l87 44h150l-131 -104h-211l-131 104h150z" />
    <glyph glyph-name="zcaron" unicode="&#x17e;" horiz-adv-x="1183" 
d="M249 232q-34 0 -34 -34v-38h934v-160h-1118v195q0 176 176 176h723q35 0 35 34v38h-913v160h1097v-195q0 -176 -177 -176h-723zM517 764l86 -44l87 44h150l-131 -104h-211l-131 104h150z" />
    <glyph glyph-name="florin" unicode="&#x192;" 
d="M1221 433v-166h-851v-123q0 -77 -33 -110.5t-111 -33.5h-190v167h113q17 0 23 6.5t6 23.5v70h-142v166h142v112q0 79 37.5 117t117.5 38h980v-167h-911q-17 0 -24.5 -7.5t-7.5 -25.5v-67h851z" />
    <glyph glyph-name="AEacute" unicode="&#x1fc;" horiz-adv-x="2065" 
d="M954 0v267h-710v-267h-192v545q0 78 38 116.5t118 38.5h1821v-167h-883v-100h783v-166h-783v-100h883v-167h-1075zM276 533q-17 0 -24.5 -7.5t-7.5 -25.5v-67h710v100h-678zM1267 855l-180 -104h-159l132 104h207z" />
    <glyph glyph-name="aeacute" unicode="&#x1fd;" horiz-adv-x="1784" 
d="M1570 399v16q0 28 -28 28h-524q-34 0 -34 -34v-38h558q28 0 28 28zM214 204v-16q0 -28 28 -28h524q34 0 34 34v38h-558q-28 0 -28 -28zM747 0h-580q-70 0 -103.5 34t-33.5 106v91q0 72 33.5 106t102.5 34h634v38q0 34 -34 34h-707v160h688q70 0 104 -28t41 -91
q7 63 41 91t104 28h580q70 0 103.5 -34t33.5 -106v-91q0 -72 -33 -106t-103 -34h-634v-38q0 -34 34 -34h707v-160h-688q-70 0 -104 28t-41 91q-7 -63 -41 -91t-104 -28zM1108 764l-180 -104h-159l132 104h207z" />
    <glyph glyph-name="Oslashacute" unicode="&#x1fe;" horiz-adv-x="1352" 
d="M202 0q-80 0 -118 38.5t-38 116.5v390q0 78 38 116.5t118 38.5h948q80 0 118 -38.5t38 -116.5v-390q0 -78 -38 -116.5t-118 -38.5h-948zM454 167h628q17 0 24.5 7.5t7.5 25.5v300q0 20 -9 27zM245 175l647 358h-622q-17 0 -24.5 -7.5t-7.5 -25.5v-300q0 -18 7 -25z
M892 855l-180 -104h-159l132 104h207z" />
    <glyph glyph-name="oslashacute" unicode="&#x1ff;" horiz-adv-x="1200" 
d="M1009 603q78 0 114.5 -37.5t36.5 -115.5v-297q0 -78 -36.5 -115.5t-114.5 -37.5h-818q-78 0 -114.5 37.5t-36.5 115.5v297q0 78 36.5 115.5t114.5 37.5h818zM235 166l527 277h-504q-34 0 -34 -34v-215q0 -20 11 -28zM942 160q34 0 34 34v215q0 18 -10 26l-524 -275h500z
M816 764l-180 -104h-159l132 104h207z" />
    <glyph glyph-name="uni0218" unicode="&#x218;" horiz-adv-x="1316" 
d="M201 267q-80 0 -118 38.5t-38 116.5v123q0 78 38 116.5t118 38.5h1050v-167h-982q-17 0 -24.5 -7.5t-7.5 -25.5v-34q0 -18 7.5 -25.5t24.5 -7.5h852q81 0 119 -38.5t38 -116.5v-123q0 -79 -38 -117t-119 -38h-1085v167h1018q17 0 24.5 7.5t7.5 25.5v34q0 18 -7.5 25.5
t-24.5 7.5h-853zM739 -65v-80q0 -54 -30.5 -86.5t-87.5 -32.5h-46v46h37q44 0 44 44v7h-81v102h164z" />
    <glyph glyph-name="uni0219" unicode="&#x219;" horiz-adv-x="1178" 
d="M1118 443h-872q-28 0 -28 -28v-16q0 -28 28 -28h766q69 0 102.5 -34t33.5 -106v-91q0 -72 -33.5 -106t-103.5 -34h-977v160h902q28 0 28 28v16q0 28 -28 28h-765q-70 0 -103.5 34t-33.5 106v91q0 72 33.5 106t102.5 34h948v-160zM658 -65v-80q0 -54 -30.5 -86.5
t-87.5 -32.5h-46v46h37q44 0 44 44v7h-81v102h164z" />
    <glyph glyph-name="uni021A" unicode="&#x21a;" horiz-adv-x="1299" 
d="M1280 700v-167h-534v-533h-192v533h-535v167h1261zM731 -65v-80q0 -54 -30.5 -86.5t-87.5 -32.5h-46v46h37q44 0 44 44v7h-81v102h164z" />
    <glyph glyph-name="uni021B" unicode="&#x21b;" horiz-adv-x="1070" 
d="M198 0q-80 0 -117 37.5t-37 115.5v617h184v-167h810v-160h-810v-249q0 -34 34 -34h776v-160h-840zM616 -65v-80q0 -54 -30.5 -86.5t-87.5 -32.5h-46v46h37q44 0 44 44v7h-81v102h164z" />
    <glyph glyph-name="uni0237" unicode="&#x237;" horiz-adv-x="303" 
d="M-19 -7h50q31 0 31 31v579h184v-617q0 -78 -37 -115.5t-117 -37.5h-111v160z" />
    <glyph glyph-name="circumflex" unicode="&#x2c6;" horiz-adv-x="383" 
d="M191 704l-86 -44h-150l131 104h211l131 -104h-150z" />
    <glyph glyph-name="caron" unicode="&#x2c7;" horiz-adv-x="383" 
d="M105 764l86 -44l87 44h150l-131 -104h-211l-131 104h150z" />
    <glyph glyph-name="breve" unicode="&#x2d8;" horiz-adv-x="383" 
d="M7 693v96q64 -46 184 -46t184 46v-96q-62 -49 -184 -49q-121 0 -184 49z" />
    <glyph glyph-name="dotaccent" unicode="&#x2d9;" horiz-adv-x="383" 
d="M277 767v-110h-171v110h171z" />
    <glyph glyph-name="ring" unicode="&#x2da;" horiz-adv-x="383" 
d="M108 735q0 -22 22 -22h123q21 0 21 22t-21 22h-123q-22 0 -22 -22zM240 652h-97q-56 0 -78 20.5t-22 62.5q0 40 22.5 61t77.5 21h97q55 0 77.5 -21t22.5 -61q0 -42 -22 -62.5t-78 -20.5z" />
    <glyph glyph-name="ogonek" unicode="&#x2db;" horiz-adv-x="383" 
d="M335 -64h-34q-95 0 -142.5 -3t-57.5 -6.5t-10 -11.5q0 -10 27 -10h259v-98h-254q-60 0 -88.5 14t-28.5 53q0 37 21.5 54.5t80.5 25.5t181 8h18v38h28v-64z" />
    <glyph glyph-name="tilde" unicode="&#x2dc;" horiz-adv-x="383" 
d="M7 642v102q49 40 101 40q32 0 90 -21t86 -21q48 0 91 43v-102q-51 -44 -104 -44q-33 0 -91 22t-86 22q-46 0 -87 -41z" />
    <glyph glyph-name="hungarumlaut" unicode="&#x2dd;" horiz-adv-x="383" 
d="M509 764l-180 -104h-159l132 104h207zM215 764l-180 -104h-159l132 104h207z" />
    <glyph glyph-name="pi" unicode="&#x3c0;" 
d="M107 0v603h1118v-603h-184v443h-750v-443h-184z" />
    <glyph glyph-name="uni1E02" unicode="&#x1e02;" horiz-adv-x="1353" 
d="M1313 211v-61q0 -78 -35.5 -114t-114.5 -36h-1107v700h1107q79 0 114.5 -36t35.5 -114v-61q0 -66 -28 -99.5t-93 -39.5q65 -6 93 -39.5t28 -99.5zM1089 433q18 0 25 7.5t7 25.5v34q0 18 -7 25.5t-25 7.5h-841v-100h841zM248 267v-100h841q18 0 25 7.5t7 25.5v34
q0 18 -7 25.5t-25 7.5h-841zM764 858v-110h-171v110h171z" />
    <glyph glyph-name="uni1E03" unicode="&#x1e03;" horiz-adv-x="1205" 
d="M44 153v617h184v-253q11 44 41.5 65t90.5 21h655q78 0 114 -37.5t36 -115.5v-297q0 -78 -36 -115.5t-114 -37.5h-819q-78 0 -115 37.5t-37 115.5zM228 409v-215q0 -34 34 -34h685q34 0 34 34v215q0 34 -34 34h-685q-34 0 -34 -34zM754 767v-110h-171v110h171z" />
    <glyph glyph-name="uni1E0A" unicode="&#x1e0a;" horiz-adv-x="1353" 
d="M1098 700q106 0 160.5 -55t54.5 -161v-268q0 -106 -54.5 -161t-160.5 -55h-1042v700h1042zM1061 167q60 0 60 61v244q0 61 -60 61h-813v-366h813zM753 858v-110h-171v110h171z" />
    <glyph glyph-name="uni1E0B" unicode="&#x1e0b;" horiz-adv-x="1205" 
d="M1161 770v-617q0 -78 -36.5 -115.5t-114.5 -37.5h-819q-78 0 -114.5 37.5t-36.5 115.5v297q0 78 36.5 115.5t114.5 37.5h655q60 0 90.5 -21t40.5 -65v253h184zM977 194v215q0 34 -34 34h-685q-34 0 -34 -34v-215q0 -34 34 -34h685q34 0 34 34zM615 767v-110h-171v110h171
z" />
    <glyph glyph-name="uni1E1E" unicode="&#x1e1e;" horiz-adv-x="1303" 
d="M56 0v700h1228v-167h-1036v-100h936v-167h-936v-266h-192zM759 858v-110h-171v110h171z" />
    <glyph glyph-name="uni1E1F" unicode="&#x1e1f;" horiz-adv-x="1129" 
d="M273 443q-45 0 -45 -44v-18h827v-159h-827v-222h-184v427q0 91 43 133.5t134 42.5h891v-160h-839zM685 767v-110h-171v110h171z" />
    <glyph glyph-name="uni1E40" unicode="&#x1e40;" horiz-adv-x="1724" 
d="M1019 700h497q80 0 118 -38.5t38 -116.5v-545h-192v500q0 18 -7.5 25.5t-24.5 7.5h-457q-33 0 -33 -34v-499h-192v499q0 34 -33 34h-457q-17 0 -24.5 -7.5t-7.5 -25.5v-500h-192v545q0 78 38 116.5t118 38.5h498q74 0 110.5 -27.5t45.5 -88.5q9 61 45.5 88.5t111.5 27.5z
M948 858v-110h-171v110h171z" />
    <glyph glyph-name="uni1E41" unicode="&#x1e41;" horiz-adv-x="1549" 
d="M775 484q7 63 41 91t103 28h435q78 0 114.5 -37.5t36.5 -115.5v-450h-184v409q0 34 -34 34h-386q-34 0 -34 -34v-409h-184v409q0 34 -35 34h-386q-34 0 -34 -34v-409h-184v450q0 78 36.5 115.5t114.5 37.5h435q69 0 103 -28t42 -91zM860 767v-110h-171v110h171z" />
    <glyph glyph-name="uni1E56" unicode="&#x1e56;" horiz-adv-x="1334" 
d="M56 0v700h1097q80 0 118 -38t38 -117v-124q0 -79 -38 -117t-118 -38h-905v-266h-192zM1117 500q0 18 -7.5 25.5t-24.5 7.5h-837v-100h837q17 0 24.5 7.5t7.5 25.5v34zM758 858v-110h-171v110h171z" />
    <glyph glyph-name="uni1E57" unicode="&#x1e57;" horiz-adv-x="1205" 
d="M44 -167v617q0 78 37 115.5t115 37.5h819q78 0 114 -37.5t36 -115.5v-297q0 -78 -36 -115.5t-114 -37.5h-655q-60 0 -90.5 20.5t-41.5 64.5v-252h-184zM228 409v-215q0 -34 34 -34h685q34 0 34 34v215q0 34 -34 34h-685q-34 0 -34 -34zM688 767v-110h-171v110h171z" />
    <glyph glyph-name="uni1E60" unicode="&#x1e60;" horiz-adv-x="1316" 
d="M201 267q-80 0 -118 38.5t-38 116.5v123q0 78 38 116.5t118 38.5h1050v-167h-982q-17 0 -24.5 -7.5t-7.5 -25.5v-34q0 -18 7.5 -25.5t24.5 -7.5h852q81 0 119 -38.5t38 -116.5v-123q0 -79 -38 -117t-119 -38h-1085v167h1018q17 0 24.5 7.5t7.5 25.5v34q0 18 -7.5 25.5
t-24.5 7.5h-853zM743 858v-110h-171v110h171z" />
    <glyph glyph-name="uni1E61" unicode="&#x1e61;" horiz-adv-x="1178" 
d="M1118 443h-872q-28 0 -28 -28v-16q0 -28 28 -28h766q69 0 102.5 -34t33.5 -106v-91q0 -72 -33.5 -106t-103.5 -34h-977v160h902q28 0 28 28v16q0 28 -28 28h-765q-70 0 -103.5 34t-33.5 106v91q0 72 33.5 106t102.5 34h948v-160zM674 767v-110h-171v110h171z" />
    <glyph glyph-name="uni1E6A" unicode="&#x1e6a;" horiz-adv-x="1299" 
d="M1280 700v-167h-534v-533h-192v533h-535v167h1261zM735 858v-110h-171v110h171z" />
    <glyph glyph-name="uni1E6B" unicode="&#x1e6b;" horiz-adv-x="1070" 
d="M198 0q-80 0 -117 37.5t-37 115.5v617h184v-167h810v-160h-810v-249q0 -34 34 -34h776v-160h-840zM708 767v-110h-171v110h171z" />
    <glyph glyph-name="Wgrave" unicode="&#x1e80;" horiz-adv-x="1724" 
d="M1516 0h-497q-75 0 -111.5 27.5t-45.5 88.5q-9 -61 -45.5 -88.5t-110.5 -27.5h-498q-80 0 -118 38.5t-38 116.5v545h192v-500q0 -18 7.5 -25.5t24.5 -7.5h457q33 0 33 34v499h192v-499q0 -34 33 -34h457q17 0 24.5 7.5t7.5 25.5v500h192v-545q0 -78 -38 -116.5
t-118 -38.5zM825 751l-177 104h202l134 -104h-159z" />
    <glyph glyph-name="wgrave" unicode="&#x1e81;" horiz-adv-x="1549" 
d="M775 119q-8 -63 -42 -91t-103 -28h-435q-78 0 -114.5 37.5t-36.5 115.5v450h184v-409q0 -34 34 -34h386q35 0 35 34v409h184v-409q0 -34 34 -34h386q34 0 34 34v409h184v-450q0 -78 -36.5 -115.5t-114.5 -37.5h-435q-69 0 -103 28t-41 91zM737 660l-177 104h202l134 -104
h-159z" />
    <glyph glyph-name="Wacute" unicode="&#x1e82;" horiz-adv-x="1724" 
d="M1516 0h-497q-75 0 -111.5 27.5t-45.5 88.5q-9 -61 -45.5 -88.5t-110.5 -27.5h-498q-80 0 -118 38.5t-38 116.5v545h192v-500q0 -18 7.5 -25.5t24.5 -7.5h457q33 0 33 34v499h192v-499q0 -34 33 -34h457q17 0 24.5 7.5t7.5 25.5v500h192v-545q0 -78 -38 -116.5
t-118 -38.5zM1078 855l-180 -104h-159l132 104h207z" />
    <glyph glyph-name="wacute" unicode="&#x1e83;" horiz-adv-x="1549" 
d="M775 119q-8 -63 -42 -91t-103 -28h-435q-78 0 -114.5 37.5t-36.5 115.5v450h184v-409q0 -34 34 -34h386q35 0 35 34v409h184v-409q0 -34 34 -34h386q34 0 34 34v409h184v-450q0 -78 -36.5 -115.5t-114.5 -37.5h-435q-69 0 -103 28t-41 91zM990 764l-180 -104h-159
l132 104h207z" />
    <glyph glyph-name="Wdieresis" unicode="&#x1e84;" horiz-adv-x="1724" 
d="M1516 0h-497q-75 0 -111.5 27.5t-45.5 88.5q-9 -61 -45.5 -88.5t-110.5 -27.5h-498q-80 0 -118 38.5t-38 116.5v545h192v-500q0 -18 7.5 -25.5t24.5 -7.5h457q33 0 33 34v499h192v-499q0 -34 33 -34h457q17 0 24.5 7.5t7.5 25.5v500h192v-545q0 -78 -38 -116.5
t-118 -38.5zM797 858v-110h-172v110h172zM1099 858v-110h-172v110h172z" />
    <glyph glyph-name="wdieresis" unicode="&#x1e85;" horiz-adv-x="1549" 
d="M775 119q-8 -63 -42 -91t-103 -28h-435q-78 0 -114.5 37.5t-36.5 115.5v450h184v-409q0 -34 34 -34h386q35 0 35 34v409h184v-409q0 -34 34 -34h386q34 0 34 34v409h184v-450q0 -78 -36.5 -115.5t-114.5 -37.5h-435q-69 0 -103 28t-41 91zM709 767v-110h-172v110h172z
M1011 767v-110h-172v110h172z" />
    <glyph glyph-name="Ygrave" unicode="&#x1ef2;" horiz-adv-x="1341" 
d="M1113 700h192v-278q0 -79 -37.5 -117t-117.5 -38h-383v-267h-192v267h-384q-80 0 -117.5 38t-37.5 117v278h192v-235q0 -17 7.5 -24.5t24.5 -7.5h821q18 0 25 7.5t7 24.5v235zM633 751l-177 104h202l134 -104h-159z" />
    <glyph glyph-name="ygrave" unicode="&#x1ef3;" horiz-adv-x="1211" 
d="M941 -167h-856v160h830q34 0 49 14.5t15 48.5v94q-11 -44 -42 -64.5t-90 -20.5h-652q-78 0 -114.5 37.5t-36.5 115.5v385h184v-344q0 -34 34 -34h683q34 0 34 34v344h184v-548q0 -115 -53 -168.5t-169 -53.5zM568 660l-177 104h202l134 -104h-159z" />
    <glyph glyph-name="uni2010" unicode="&#x2010;" horiz-adv-x="575" 
d="M541 409v-164h-507v164h507z" />
    <glyph glyph-name="figuredash" unicode="&#x2012;" 
d="M1332 409v-164h-1332v164h1332z" />
    <glyph glyph-name="endash" unicode="&#x2013;" horiz-adv-x="766" 
d="M766 409v-164h-766v164h766z" />
    <glyph glyph-name="emdash" unicode="&#x2014;" horiz-adv-x="1532" 
d="M1532 409v-164h-1532v164h1532z" />
    <glyph glyph-name="quoteleft" unicode="&#x2018;" horiz-adv-x="308" 
d="M49 383v150q0 77 43.5 122t123.5 45h43v-86h-34q-30 0 -43.5 -12t-13.5 -43v-26h91v-150h-210z" />
    <glyph glyph-name="quoteright" unicode="&#x2019;" horiz-adv-x="308" 
d="M259 700v-150q0 -77 -43.5 -122t-123.5 -45h-43v86h34q30 0 43.5 12t13.5 43v26h-91v150h210z" />
    <glyph glyph-name="quotesinglbase" unicode="&#x201a;" horiz-adv-x="308" 
d="M259 150v-150q0 -77 -43.5 -122t-123.5 -45h-43v86h34q30 0 43.5 12t13.5 43v26h-91v150h210z" />
    <glyph glyph-name="quotedblleft" unicode="&#x201c;" horiz-adv-x="580" 
d="M321 383v150q0 77 43.5 122t123.5 45h43v-86h-34q-30 0 -43.5 -12t-13.5 -43v-26h91v-150h-210zM49 383v150q0 77 43.5 122t123.5 45h43v-86h-34q-30 0 -43.5 -12t-13.5 -43v-26h91v-150h-210z" />
    <glyph glyph-name="quotedblright" unicode="&#x201d;" horiz-adv-x="580" 
d="M531 700v-150q0 -77 -43.5 -122t-123.5 -45h-43v86h34q30 0 43.5 12t13.5 43v26h-91v150h210zM259 700v-150q0 -77 -43.5 -122t-123.5 -45h-43v86h34q30 0 43.5 12t13.5 43v26h-91v150h210z" />
    <glyph glyph-name="quotedblbase" unicode="&#x201e;" horiz-adv-x="580" 
d="M531 150v-150q0 -77 -43.5 -122t-123.5 -45h-43v86h34q30 0 43.5 12t13.5 43v26h-91v150h210zM259 150v-150q0 -77 -43.5 -122t-123.5 -45h-43v86h34q30 0 43.5 12t13.5 43v26h-91v150h210z" />
    <glyph glyph-name="dagger" unicode="&#x2020;" horiz-adv-x="1256" 
d="M1226 546v-166h-503v-512h-192v512h-501v166h501v194h192v-194h503z" />
    <glyph glyph-name="daggerdbl" unicode="&#x2021;" horiz-adv-x="1256" 
d="M1226 271v-166h-503v-237h-192v237h-501v166h501v109h-501v166h501v194h192v-194h503v-166h-503v-109h503z" />
    <glyph glyph-name="bullet" unicode="&#x2022;" horiz-adv-x="766" 
d="M454 137h-142q-165 0 -165 156v114q0 156 165 156h142q165 0 165 -156v-114q0 -156 -165 -156z" />
    <glyph glyph-name="ellipsis" unicode="&#x2026;" horiz-adv-x="852" 
d="M259 150v-150h-210v150h210zM531 150v-150h-210v150h210zM803 150v-150h-210v150h210z" />
    <glyph glyph-name="perthousand" unicode="&#x2030;" horiz-adv-x="2824" 
d="M738 0l357 700h158l-357 -700h-158zM1191 130v274q0 66 31.5 98t98.5 32h500q67 0 98.5 -32t31.5 -98v-274q0 -66 -31.5 -98t-98.5 -32h-500q-67 0 -98.5 32t-31.5 98zM1793 168v198q0 30 -28 30h-387q-29 0 -29 -30v-198q0 -30 29 -30h387q28 0 28 30zM2024 130v274
q0 66 31.5 98t98.5 32h500q67 0 98.5 -32t31.5 -98v-274q0 -66 -31.5 -98t-98.5 -32h-500q-67 0 -98.5 32t-31.5 98zM2626 168v198q0 30 -28 30h-387q-29 0 -29 -30v-198q0 -30 29 -30h387q28 0 28 30zM40 296v274q0 66 31.5 98t98.5 32h500q67 0 98.5 -32t31.5 -98v-274
q0 -66 -31.5 -98t-98.5 -32h-500q-67 0 -98.5 32t-31.5 98zM642 334v198q0 30 -28 30h-387q-29 0 -29 -30v-198q0 -30 29 -30h387q28 0 28 30z" />
    <glyph glyph-name="guilsinglleft" unicode="&#x2039;" horiz-adv-x="398" 
d="M379 51h-196l-164 249l164 249h196l-169 -249z" />
    <glyph glyph-name="guilsinglright" unicode="&#x203a;" horiz-adv-x="398" 
d="M215 51h-196l169 249l-169 249h196l164 -249z" />
    <glyph glyph-name="fraction" unicode="&#x2044;" horiz-adv-x="555" 
d="M20 0l357 700h158l-357 -700h-158z" />
    <glyph glyph-name="zerosuperior" unicode="&#x2070;" horiz-adv-x="840" 
d="M40 296v274q0 66 31.5 98t98.5 32h500q67 0 98.5 -32t31.5 -98v-274q0 -66 -31.5 -98t-98.5 -32h-500q-67 0 -98.5 32t-31.5 98zM642 334v198q0 30 -28 30h-387q-29 0 -29 -30v-198q0 -30 29 -30h387q28 0 28 30z" />
    <glyph glyph-name="foursuperior" unicode="&#x2074;" horiz-adv-x="840" 
d="M633 502v198h158v-534h-158v198h-472q-67 0 -98.5 32t-31.5 98v206h158v-169q0 -29 29 -29h415z" />
    <glyph glyph-name="zeroinferior" unicode="&#x2080;" horiz-adv-x="840" 
d="M40 130v274q0 66 31.5 98t98.5 32h500q67 0 98.5 -32t31.5 -98v-274q0 -66 -31.5 -98t-98.5 -32h-500q-67 0 -98.5 32t-31.5 98zM642 168v198q0 30 -28 30h-387q-29 0 -29 -30v-198q0 -30 29 -30h387q28 0 28 30z" />
    <glyph glyph-name="oneinferior" unicode="&#x2081;" horiz-adv-x="840" 
d="M90 0v138h313v258h-313v138h471v-396h233v-138h-704z" />
    <glyph glyph-name="twoinferior" unicode="&#x2082;" horiz-adv-x="840" 
d="M653 358v9q0 16 -6.5 23t-22.5 7h-570v138h628q66 0 97.5 -32t31.5 -98v-68q0 -66 -31.5 -98t-97.5 -32h-448q-25 0 -34 -9t-9 -33v-26h620v-138h-778v171q0 157 157 157h434q16 0 22.5 6.5t6.5 22.5z" />
    <glyph glyph-name="threeinferior" unicode="&#x2083;" horiz-adv-x="840" 
d="M807 408v-30q0 -49 -20.5 -77t-78.5 -34q58 -6 78.5 -34t20.5 -77v-30q0 -65 -30 -95.5t-96 -30.5h-650v138h589q16 0 22.5 7t6.5 23v9q0 16 -6.5 22.5t-22.5 6.5h-508v121l508 1q16 0 22.5 6.5t6.5 22.5v9q0 16 -6.5 23t-22.5 7h-589v138h650q66 0 96 -30.5t30 -95.5z
" />
    <glyph glyph-name="fourinferior" unicode="&#x2084;" horiz-adv-x="840" 
d="M633 336v198h158v-534h-158v198h-472q-67 0 -98.5 32t-31.5 98v206h158v-169q0 -29 29 -29h415z" />
    <glyph glyph-name="Euro" unicode="&#x20ac;" 
d="M260 0q-80 0 -117.5 38t-37.5 117v112h-86v166h86v112q0 79 37.5 117t117.5 38h1036v-167h-967q-17 0 -24.5 -7.5t-7.5 -25.5v-67h906v-166h-906v-67q0 -18 7.5 -25.5t24.5 -7.5h967v-167h-1036z" />
    <glyph glyph-name="uni2117" unicode="&#x2117;" horiz-adv-x="1399" 
d="M329 382h744q16 0 16 16v31q0 16 -16 16h-744v-63zM1166 450v-72q0 -61 -59 -61h-778v-129h-78v323h856q59 0 59 -61zM217 0q-88 0 -129.5 42t-41.5 128v360q0 86 41.5 128t129.5 42h965q88 0 129.5 -42t41.5 -128v-360q0 -86 -41.5 -128t-129.5 -42h-965zM222 72h955
q94 0 94 94v368q0 94 -94 94h-955q-94 0 -94 -94v-368q0 -94 94 -94z" />
    <glyph glyph-name="trademark" unicode="&#x2122;" horiz-adv-x="2020" 
d="M1333 167v365q0 30 -30 30h-263q-16 0 -22.5 -6.5t-6.5 -22.5v-366h-158v413q0 61 29 90.5t91 29.5h314q60 0 89.5 -23.5t35.5 -76.5q7 53 36 76.5t89 23.5h314q121 0 121 -120v-413h-158v366q0 16 -6.5 22.5t-22.5 6.5h-264q-30 0 -30 -30v-365h-158zM795 700v-138h-307
v-395h-158v395h-306v138h771z" />
    <glyph glyph-name="uni2126" unicode="&#x2126;" 
d="M1095 436v64q0 18 -7.5 25.5t-24.5 7.5h-794q-17 0 -24.5 -7.5t-7.5 -25.5v-64q0 -18 7.5 -25.5t24.5 -7.5h328v-403h-561v167h416v70h-251q-80 0 -118 38.5t-38 116.5v153q0 78 38 116.5t118 38.5h930q80 0 118 -38.5t38 -116.5v-153q0 -78 -38 -116.5t-118 -38.5h-251
v-70h416v-167h-561v403h328q17 0 24.5 7.5t7.5 25.5z" />
    <glyph glyph-name="onethird" unicode="&#x2153;" horiz-adv-x="1992" 
d="M90 166v138h313v258h-313v138h471v-396h233v-138h-704zM738 0l357 700h158l-357 -700h-158zM1958 408v-30q0 -49 -20.5 -77t-78.5 -34q58 -6 78.5 -34t20.5 -77v-30q0 -65 -30 -95.5t-96 -30.5h-650v138h589q16 0 22.5 7t6.5 23v9q0 16 -6.5 22.5t-22.5 6.5h-508v121
l508 1q16 0 22.5 6.5t6.5 22.5v9q0 16 -6.5 23t-22.5 7h-589v138h650q66 0 96 -30.5t30 -95.5z" />
    <glyph glyph-name="twothirds" unicode="&#x2154;" horiz-adv-x="1992" 
d="M653 524v9q0 16 -6.5 23t-22.5 7h-570v138h628q66 0 97.5 -32t31.5 -98v-68q0 -66 -31.5 -98t-97.5 -32h-448q-25 0 -34 -9t-9 -33v-26h620v-138h-778v171q0 157 157 157h434q16 0 22.5 6.5t6.5 22.5zM738 0l357 700h158l-357 -700h-158zM1958 408v-30q0 -49 -20.5 -77
t-78.5 -34q58 -6 78.5 -34t20.5 -77v-30q0 -65 -30 -95.5t-96 -30.5h-650v138h589q16 0 22.5 7t6.5 23v9q0 16 -6.5 22.5t-22.5 6.5h-508v121l508 1q16 0 22.5 6.5t6.5 22.5v9q0 16 -6.5 23t-22.5 7h-589v138h650q66 0 96 -30.5t30 -95.5z" />
    <glyph glyph-name="partialdiff" unicode="&#x2202;" 
d="M1288 484v-329q0 -79 -37.5 -117t-117.5 -38h-939q-80 0 -118.5 38t-38.5 117v123q0 78 38.5 116.5t118.5 38.5h901v39q0 61 -60 61h-971v167h1008q106 0 161 -55t55 -161zM229 234v-34q0 -18 7.5 -25.5t24.5 -7.5h802q18 0 25 7.5t7 25.5v67h-834q-17 0 -24.5 -7.5
t-7.5 -25.5z" />
    <glyph glyph-name="uni2206" unicode="&#x2206;" 
d="M20 0l645 720l646 -720h-1291zM665 470l-289 -323h579z" />
    <glyph glyph-name="product" unicode="&#x220f;" 
d="M1094 -132v665h-856v-665h-192v832h1240v-832h-192z" />
    <glyph glyph-name="summation" unicode="&#x2211;" 
d="M1287 35v-167h-1241v152l428 264l-428 264v152h1241v-167h-894l395 -249l-395 -249h894z" />
    <glyph glyph-name="minus" unicode="&#x2212;" 
d="M46 271v158h1240v-158h-1240z" />
    <glyph glyph-name="radical" unicode="&#x221a;" 
d="M756 0l-137 271h-573v158h687l127 -241l270 512h189l-355 -700h-208z" />
    <glyph glyph-name="infinity" unicode="&#x221e;" horiz-adv-x="733" 
d="M345 317q-12 0 -23.5 12.5t-14.5 12.5t-11 -2t-14 -2q-8 0 -14.5 8t-6.5 17q0 22 8 35q-7 -7 -16 -37t-26 -41q-18 -12 -18 -40q0 -11 11 -21.5t11 -12.5q0 -4 -3 -4q-7 0 -12 5q13 -68 48 -104h-55q-35 114 -35 226q0 105 40.5 171.5t135.5 66.5q190 0 190 -254
q0 -75 -25 -210h-73q53 47 62 117q-4 -8 -13 -8q-3 0 -3 2l4 4q5 3 9.5 11.5t4.5 21.5q-4 -6 -15 -6q-1 0 -10.5 -4.5t-15.5 -4.5q-14 0 -40 3.5t-70 3.5q-22 0 -52.5 -6t-38.5 -6q-5 0 -13 2t-11 2q-28 0 -28 12q0 10 37 18.5t74 8.5q5 0 12 -0.5t12 -0.5t15.5 2t14.5 2
q112 0 127 -20q-1 16 -14 29t-30 13q-6 0 -6 7q0 57 -16 58q4 -7 4 -17q0 -18 -11 -32t-27 -14q-4 0 -10 2l-7 2q-1 0 -14.5 -14t-27.5 -14zM733 291v-148q-22 48 -69 112.5t-67 64.5q6 -85 -12 -177h-42q16 104 16 199q0 319 -213 319q-53 0 -91.5 -26.5t-59 -72.5
t-30 -97.5t-9.5 -111.5q0 -123 29 -210h-47q-19 67 -19 184q-17 -9 -39.5 -43.5t-49 -84.5t-30.5 -56v148q11 27 33 54t50 53.5t30 28.5q3 72 27 135t75.5 107.5t120.5 44.5q67 0 115.5 -22.5t76.5 -64t42.5 -87t22.5 -105.5q22 -5 68 -48t72 -96zM345 503q-3 3 -3 6
q0 2 2 2q1 0 6 -4.5t15 -8.5t22 -4q16 0 29 4t20 8l6 5q4 0 4 -2l-8 -8q24 0 52 -11q-29 80 -139 80q-55 0 -92 -33t-50 -85q37 20 41 39q-6 4 -6 7q0 4 3 4l2 -2q2 -1 6.5 -3.5t10 -5t13.5 -4t17 -1.5q24 0 49 17zM371 416q0 20 -4.5 40t-9.5 20q-10 0 -19 -39t-14 -39
q-3 0 -9.5 3t-11.5 3q-13 0 -21 -10.5t-8 -24.5t11 -14t18 6.5t9 6.5t12 -13.5t20 -13.5q14 0 25 10.5t12 10.5q3 0 10 -3.5t9 -3.5q10 0 18 11t8 24q0 10 -6 18t-16 8q-7 0 -14.5 -6.5t-11.5 -6.5q-7 0 -7 13zM510 318q0 95 -12 147l-5 3q0 -21 -18 -32t-41 -11
q-21 0 -37 12.5t-16 29.5q0 6 2 9q-12 2 -15 4q6 -9 10 -24t5.5 -24t4.5 -9q7 2 15 2q19 0 31 -14q34 0 34 -51q0 -3 8 -7t18.5 -13t15.5 -22zM383 310q-1 0 -8 -1t-15.5 -2t-13.5 -1t-13 1.5t-11 1.5q-15 0 -36 -4t-35 -9t-14 -8q0 -10 20 -10q24 0 54 6.5t44 6.5
q19 0 57.5 -3.5t52.5 -3.5q5 0 9.5 2t7.5 4t3 3q0 5 -36 11t-66 6zM267 413q-18 0 -31 10t-15 21q-4 -2 -15 -5q-4 -21 -4 -43q0 -50 3 -78q4 6 22 22t20 31q5 37 38 41q12 5 23 5q5 0 8.5 8.5t9.5 24.5t16 28l-13 -4q-1 -24 -18.5 -42.5t-43.5 -18.5zM419 465q-13 0 -16 13
q-5 0 -8.5 -5.5t-3.5 -9.5q0 -10 15 -17t31 -7q14 0 29 8.5t15 21.5q0 8 -14.5 12.5t-28.5 4.5q-5 -21 -19 -21zM267 427q14 0 30 11t16 24q0 6 -1 9q-20 0 -27 1q-5 -14 -18 -14q-10 0 -15 5q-4 -4 -18 -12q4 -24 33 -24zM266 288q-2 0 -2 3q0 12 107 12q93 0 93 -8
q0 -3 -3 -3q-1 0 -4 0.5t-10 1t-16 1.5t-24.5 1.5t-33.5 0.5q-36 0 -61 -2.5t-36 -4.5zM305 262q0 10 63 10q31 0 31 -8q0 -3 -2 -3q-4 0 -10 2t-10 2q-11 0 -26 -0.5t-20 -0.5q-4 0 -11.5 -3t-10.5 -3q-4 0 -4 4zM417 473q9 0 9 13q-1 0 -16 -6q0 -7 7 -7zM266 466
q7 0 10 9q-6 1 -11 4q0 -4 -6 -10q1 -3 7 -3zM325 34l-3 48l-10 -82h-21l15 125h25l4 -60l21 60h26l-15 -125h-22l10 82l-16 -48h-14zM21 125h35q23 0 20 -21l-10 -82q-3 -22 -22 -22h-38zM282 44q-1 -12 -10 -17l8 -27h-21l-7 23h-7l-3 -23h-22l15 125h36q21 0 18 -24z
M183 0l3 23h-14l-3 -23h-21l12 104q2 21 22 21h17q19 0 18 -21l-12 -104h-22zM594 0l15 125h35q23 0 20 -21l-8 -62q-3 -19 -22 -19h-15l-3 -23h-22zM111 0l3 23h-13l-3 -23h-22l15 125h22l-10 -83h13l10 83h22l-15 -125h-22zM539 125h22l-10 -79q0 -4 4 -4h5q5 0 5 4l9 79
h22l-10 -81q-3 -21 -19 -21l-9 -23h-23l9 23q-18 0 -15 21zM477 106l3 19h50l-3 -19h-13l-12 -106h-23l12 106h-14zM41 106l-11 -88h11q3 0 3 4l9 80q0 4 -4 4h-8zM629 106l-8 -64h8q5 0 5 4l7 56q0 4 -4 4h-8zM174 42h14l7 60q0 4 -4 4h-5q-5 0 -5 -4zM255 106l-8 -64h8
q5 0 5 4l7 56q0 4 -3 4h-9zM711 57l-3 -18h-19l-3 -21h27l-2 -18h-49l15 125h47l-3 -19h-24l-6 -49h20zM417 0l3 23h-14l-3 -23h-21l12 104q2 21 22 21h17q19 0 18 -21l-12 -104h-22zM408 42h14l7 60q0 4 -4 4h-5q-5 0 -5 -4z" />
    <glyph glyph-name="integral" unicode="&#x222b;" 
d="M829 491l-132 -467q-23 -82 -70.5 -119t-136.5 -37h-444v167h418q24 0 38 9.5t21 32.5l132 467q24 82 71.5 119t136.5 37h423v-167h-398q-24 0 -37.5 -9.5t-21.5 -32.5z" />
    <glyph glyph-name="approxequal" unicode="&#x2248;" 
d="M46 99v164q125 72 293 72q109 0 331.5 -43.5t330.5 -43.5q160 0 285 68v-165q-127 -72 -294 -72q-109 0 -331.5 43.5t-331.5 43.5q-161 0 -283 -67zM46 384v164q125 72 293 72q109 0 331.5 -43.5t330.5 -43.5q160 0 285 68v-165q-127 -72 -294 -72q-109 0 -331.5 43.5
t-331.5 43.5q-161 0 -283 -67z" />
    <glyph glyph-name="notequal" unicode="&#x2260;" 
d="M575 0h-172l66 131h-393v158h473l61 122h-534v158h614l67 131h173l-67 -131h393v-158h-473l-62 -122h535v-158h-615z" />
    <glyph glyph-name="lessequal" unicode="&#x2264;" 
d="M46 350l214 276h204l-160 -197h982v-158h-982l91 -113h891v-158h-1240v158h148z" />
    <glyph glyph-name="greaterequal" unicode="&#x2265;" 
d="M1072 626l214 -276l-148 -192h148v-158h-1240v158h891l91 113h-982v158h982l-160 197h204z" />
    <glyph glyph-name="lozenge" unicode="&#x25ca;" 
d="M666 -20l-647 368l647 368l646 -368zM665 171l311 177l-311 177l-310 -177z" />
    <glyph glyph-name="commaaccent" horiz-adv-x="383" 
d="M273 -65v-80q0 -54 -30.5 -86.5t-87.5 -32.5h-46v46h37q44 0 44 44v7h-81v102h164z" />
    <glyph glyph-name="f.alt" horiz-adv-x="1129" 
d="M273 443q-45 0 -45 -44v-18h827v-159h-827v-389h-184v594q0 91 43 133.5t134 42.5h891v-160h-839z" />
    <glyph glyph-name="i.alt" horiz-adv-x="284" 
d="M50 0v603h184v-603h-184zM248 770v-113h-212v113h212z" />
    <glyph glyph-name="i.trk" horiz-adv-x="371" 
d="M266 160h89v-160h-153q-80 0 -117 37.5t-37 115.5v450h184v-409q0 -34 34 -34zM246 770v-113h-212v113h212z" />
    <glyph glyph-name="germandbls.alt" horiz-adv-x="1233" 
d="M989 232h-639v139h639q27 0 27 28v16q0 28 -27 28h-715q-24 0 -35 -10.5t-11 -35.5v-564h-184v595q0 90 43 132.5t133 42.5h846q69 0 101.5 -33t32.5 -101v-46q0 -55 -22.5 -85.5t-75.5 -36.5q53 -6 75.5 -36t22.5 -85v-46q0 -134 -134 -134h-716v160h639q27 0 27 28v16
q0 28 -27 28z" />
    <glyph glyph-name="one.pnum" horiz-adv-x="459" 
d="M403 700v-700h-192v533h-192v167h384z" />
    </font>
</defs>
</svg>
