<?xml version="1.0" standalone="no"?>
<!DOCTYPE svg PUBLIC "-//W3C//DTD SVG 1.1//EN" "http://www.w3.org/Graphics/SVG/1.1/DTD/svg11.dtd" >
<svg xmlns="http://www.w3.org/2000/svg" xmlns:xlink="http://www.w3.org/1999/xlink" version="1.1">
<metadata>
Created by FontForge 20170731 at Sat Mar 14 00:16:18 2015
 By ,,,
Copyright (c) 2011 by Ryoichi Tsunekawa. All rights reserved.
</metadata>
<defs>
<font id="DesignSystemG-300R" horiz-adv-x="3010" >
  <font-face 
    font-family="DesignSystemG-300R"
    font-weight="400"
    font-stretch="normal"
    units-per-em="1000"
    panose-1="4 5 4 7 2 11 2 2 3 2"
    ascent="822"
    descent="-178"
    x-height="603"
    cap-height="700"
    bbox="-220 -224 5911 937"
    underline-thickness="36"
    underline-position="-156"
    unicode-range="U+0020-FB02"
  />
<missing-glyph horiz-adv-x="1500" 
d="M0 700h1500v-700h-1500v700zM47 656v-612l1324 612h-1324zM129 44h1324v612z" />
    <glyph glyph-name="ij" unicode="ij" horiz-adv-x="544" 
d="M203 -110h81q56 0 78 22t22 78v613h64v-618q0 -81 -35 -116.5t-116 -35.5h-94v57zM351 683v54h130v-54h-130zM101 0v603h65v-603h-65zM198 737v-54h-130v54h130z" />
    <glyph glyph-name="fi" unicode="fi" horiz-adv-x="3337" 
d="M280 546q-68 0 -98.5 -29.5t-30.5 -99.5v-87h2628v-57h-2628v-273h-65v419q0 94 45 139t140 45h2598v-57h-2589zM3160 57h144v-57h-157q-81 0 -116 35.5t-35 116.5v451h65v-446q0 -56 22 -78t77 -22zM3093 737v-54h-129v54h129z" />
    <glyph glyph-name="fl" unicode="fl" horiz-adv-x="3335" 
d="M280 546q-68 0 -98.5 -29.5t-30.5 -99.5v-87h2628v-57h-2628v-273h-65v419q0 94 45 139t140 45h2598v-57h-2589zM3158 57h144v-57h-157q-81 0 -116.5 36t-35.5 116v618h65v-613q0 -56 22 -78t78 -22z" />
    <glyph glyph-name=".notdef" horiz-adv-x="1500" 
d="M0 700h1500v-700h-1500v700zM47 656v-612l1324 612h-1324zM129 44h1324v612z" />
    <glyph glyph-name=".null" horiz-adv-x="0" 
 />
    <glyph glyph-name="nonmarkingreturn" horiz-adv-x="333" 
 />
    <glyph glyph-name="space" unicode=" " horiz-adv-x="772" 
 />
    <glyph glyph-name="exclam" unicode="!" horiz-adv-x="332" 
d="M223 65v-65h-114v65h114zM199 700v-233q0 -134 -12 -293h-42q-12 159 -12 293v233h66z" />
    <glyph glyph-name="quotedbl" unicode="&#x22;" horiz-adv-x="436" 
d="M148 700v-47q0 -79 -15 -261h-36q-15 182 -15 261v47h66zM354 700v-47q0 -79 -15 -261h-36q-15 182 -15 261v47h66z" />
    <glyph glyph-name="numbersign" unicode="#" horiz-adv-x="3366" 
d="M3052 0l7 144h-2774l-8 -144h-65l8 144h-171l3 57h171l16 298h-171l3 57h171l7 144h65l-8 -144h2775l8 144h65l-8 -144h170l-3 -57h-170l-16 -298h171l-3 -57h-171l-7 -144h-65zM303 499l-15 -298h2774l16 298h-2775z" />
    <glyph glyph-name="dollar" unicode="$" horiz-adv-x="3366" 
d="M64 107h3084q48 0 68 20t20 67v40q0 47 -20 67t-68 20h-2944q-73 0 -106.5 34t-33.5 109v43q0 75 33.5 109t106.5 34h1448v90h59v-90h1567v-57h-3063q-47 0 -67 -20t-20 -67v-40q0 -47 20 -67t67 -20h2945q73 0 106.5 -34t33.5 -109v-43q0 -75 -33.5 -109t-106.5 -34
h-1449v-90h-59v90h-1588v57z" />
    <glyph glyph-name="percent" unicode="%" horiz-adv-x="4175" 
d="M1654 0l792 700h76l-792 -700h-76zM2439 117v300q0 60 28.5 88.5t88.5 28.5h1429q60 0 88 -28.5t28 -88.5v-300q0 -60 -28 -88.5t-88 -28.5h-1429q-60 0 -88.5 28.5t-28.5 88.5zM4041 121v292q0 36 -16 51.5t-50 15.5h-1409q-35 0 -51 -15.5t-16 -51.5v-292
q0 -36 16 -51.5t51 -15.5h1409q34 0 50 15.5t16 51.5zM74 282v300q0 60 28.5 88.5t88.5 28.5h1429q60 0 88 -28.5t28 -88.5v-300q0 -60 -28 -88.5t-88 -28.5h-1429q-60 0 -88.5 28.5t-28.5 88.5zM1676 286v292q0 36 -16 51.5t-50 15.5h-1409q-35 0 -51 -15.5t-16 -51.5v-292
q0 -36 16 -51.5t51 -15.5h1409q34 0 50 15.5t16 51.5z" />
    <glyph glyph-name="ampersand" unicode="&#x26;" horiz-adv-x="3462" 
d="M3222 321h-2973q-59 0 -83 -24.5t-24 -86.5v-44q0 -58 24.5 -83t79.5 -25h2876q59 0 79.5 20.5t20.5 81.5v161zM76 158v41q0 76 29 110.5t100 40.5q-71 6 -100 40.5t-29 110.5v41q0 81 38.5 119.5t119.5 38.5h3004v-58h-2992q-55 0 -79.5 -25t-24.5 -83v-44
q0 -62 24 -86.5t83 -24.5h3177v-58h-138v-171q0 -80 -34.5 -115t-115.5 -35h-2904q-81 0 -119.5 38.5t-38.5 119.5z" />
    <glyph glyph-name="quotesingle" unicode="'" horiz-adv-x="230" 
d="M148 700v-47q0 -79 -15 -261h-36q-15 182 -15 261v47h66z" />
    <glyph glyph-name="parenleft" unicode="(" horiz-adv-x="369" 
d="M155 89q0 -62 24.5 -87.5t84.5 -25.5h44v-56h-54q-84 0 -123 39.5t-39 121.5v458q0 82 39 121.5t123 39.5h54v-56h-44q-60 0 -84.5 -25.5t-24.5 -87.5v-442z" />
    <glyph glyph-name="parenright" unicode=")" horiz-adv-x="369" 
d="M214 89v442q0 62 -24.5 87.5t-84.5 25.5h-44v56h54q84 0 123 -39.5t39 -121.5v-458q0 -82 -39 -121.5t-123 -39.5h-54v56h44q60 0 84.5 25.5t24.5 87.5z" />
    <glyph glyph-name="asterisk" unicode="*" horiz-adv-x="594" 
d="M306 441q77 48 161 75l79 25l18 -56l-79 -25q-92 -29 -174 -35q87 -82 121 -130l48 -68l-47 -34l-49 67q-53 73 -87 154q-34 -81 -87 -154l-48 -67l-48 34l48 68q37 50 121 130q-83 6 -173 35l-79 25l18 56l78 -25q84 -27 161 -75q-20 93 -20 176v83h59v-83
q0 -78 -21 -176z" />
    <glyph glyph-name="plus" unicode="+" horiz-adv-x="3366" 
d="M82 322v56h1572v322h57v-322h1573v-56h-1573v-322h-57v322h-1572z" />
    <glyph glyph-name="comma" unicode="," horiz-adv-x="327" 
d="M220 68v-65q0 -99 -88 -99h-25v37h23q37 0 37 45v17h-60v65h113z" />
    <glyph glyph-name="hyphen" unicode="-" horiz-adv-x="1140" 
d="M1083 356v-58h-1026v58h1026z" />
    <glyph glyph-name="period" unicode="." horiz-adv-x="327" 
d="M220 68v-68h-113v68h113z" />
    <glyph glyph-name="slash" unicode="/" horiz-adv-x="953" 
d="M39 0l792 700h82l-791 -700h-83z" />
    <glyph glyph-name="zero" unicode="0" horiz-adv-x="3366" 
d="M244 0q-83 0 -122.5 40t-39.5 122v376q0 82 39.5 122t122.5 40h2877q84 0 123.5 -40t39.5 -122v-376q0 -82 -39.5 -122t-123.5 -40h-2877zM3218 172v356q0 62 -25 87.5t-85 25.5h-2850q-61 0 -85.5 -25.5t-24.5 -87.5v-356q0 -62 24.5 -87.5t85.5 -25.5h2850
q61 0 85.5 25.5t24.5 87.5z" />
    <glyph glyph-name="one" unicode="1" horiz-adv-x="3366" 
d="M2320 700v-641h969v-59h-3134v59h2099v582h-2099v59h2165z" />
    <glyph glyph-name="two" unicode="2" horiz-adv-x="3366" 
d="M3215 533q0 58 -24.5 83t-79.5 25h-3017v59h3027q82 0 121 -39t39 -120v-61q0 -81 -39 -120t-121 -39h-2846q-80 0 -112.5 -31.5t-32.5 -112.5v-118h3171v-59h-3237v183q0 196 197 196h2850q55 0 79.5 25t24.5 83v46z" />
    <glyph glyph-name="three" unicode="3" horiz-adv-x="3366" 
d="M3117 321h-2930v58h2930q59 0 83 25t24 86v43q0 58 -24.5 83t-79.5 25h-3058v59h3070q81 0 119.5 -38.5t38.5 -119.5v-41q0 -76 -29 -110.5t-101 -40.5q72 -6 101 -40.5t29 -110.5v-41q0 -81 -38.5 -119.5t-119.5 -38.5h-3070v59h3058q55 0 79.5 25t24.5 83v43
q0 61 -24 86t-83 25z" />
    <glyph glyph-name="four" unicode="4" horiz-adv-x="3366" 
d="M3198 379v321h66v-700h-66v321h-2973q-83 0 -122.5 40t-39.5 122v217h66v-208q0 -62 24.5 -87.5t84.5 -25.5h2960z" />
    <glyph glyph-name="five" unicode="5" horiz-adv-x="3366" 
d="M86 321v379h3183v-59h-3116v-262h2987q82 0 120.5 -39t38.5 -120v-61q0 -81 -38.5 -120t-120.5 -39h-3064v59h3054q55 0 79 25t24 83v46q0 58 -24 83t-79 25h-3044z" />
    <glyph glyph-name="six" unicode="6" horiz-adv-x="3366" 
d="M146 473v-94h2994q82 0 120.5 -39t38.5 -120v-61q0 -81 -38.5 -120t-120.5 -39h-2898q-83 0 -122.5 40t-39.5 122v313q0 110 58 167.5t168 57.5h2963v-59h-2955q-84 0 -126 -40.5t-42 -127.5zM3130 321h-2984v-149q0 -62 24.5 -87.5t85.5 -25.5h2874q55 0 79 25t24 83v46
q0 58 -24 83t-79 25z" />
    <glyph glyph-name="seven" unicode="7" horiz-adv-x="3366" 
d="M3093 379q79 0 111.5 31.5t32.5 112.5v118h-3200v59h3266v-183q0 -196 -196 -196h-1674q-79 0 -111.5 -31.5t-32.5 -112.5v-177h-66v183q0 196 196 196h1674z" />
    <glyph glyph-name="eight" unicode="8" horiz-adv-x="3366" 
d="M3290 542v-41q0 -76 -29 -110.5t-101 -40.5q72 -6 101 -40.5t29 -110.5v-41q0 -81 -38 -119.5t-120 -38.5h-2898q-81 0 -119.5 38.5t-38.5 119.5v41q0 76 29 110.5t100 40.5q-71 6 -100 40.5t-29 110.5v41q0 81 38.5 119.5t119.5 38.5h2898q82 0 120 -38.5t38 -119.5z
M249 379h2868q59 0 83 25t24 86v43q0 58 -24.5 83t-79.5 25h-2874q-55 0 -79.5 -25t-24.5 -83v-43q0 -61 24 -86t83 -25zM3117 321h-2868q-59 0 -83 -25t-24 -86v-43q0 -58 24.5 -83t79.5 -25h2874q55 0 79.5 25t24.5 83v43q0 61 -24 86t-83 25z" />
    <glyph glyph-name="nine" unicode="9" horiz-adv-x="3366" 
d="M3123 700q84 0 123.5 -40t39.5 -122v-313q0 -110 -58 -167.5t-168 -57.5h-2964v59h2956q84 0 126 40.5t42 127.5v94h-2994q-82 0 -121 39t-39 120v61q0 81 39 120t121 39h2897zM133 533v-46q0 -58 24 -83t79 -25h2984v149q0 62 -24.5 87.5t-85.5 25.5h-2874
q-55 0 -79 -25t-24 -83z" />
    <glyph glyph-name="colon" unicode=":" horiz-adv-x="327" 
d="M220 538v-68h-113v68h113zM220 68v-68h-113v68h113z" />
    <glyph glyph-name="semicolon" unicode=";" horiz-adv-x="327" 
d="M220 68v-65q0 -99 -88 -99h-25v37h23q37 0 37 45v17h-60v65h113zM220 538v-68h-113v68h113z" />
    <glyph glyph-name="less" unicode="&#x3c;" horiz-adv-x="3366" 
d="M82 350l425 350h85l-392 -322h3084v-56h-3084l392 -322h-85z" />
    <glyph glyph-name="equal" unicode="=" horiz-adv-x="3366" 
d="M128 190v57h3109v-57h-3109zM128 453v57h3109v-57h-3109z" />
    <glyph glyph-name="greater" unicode="&#x3e;" horiz-adv-x="3366" 
d="M3284 350l-425 -350h-85l392 322h-3084v56h3084l-392 322h85z" />
    <glyph glyph-name="question" unicode="?" horiz-adv-x="3306" 
d="M3192 487v46q0 58 -24.5 83t-79.5 25h-3052v59h3063q82 0 120.5 -39t38.5 -120v-61q0 -81 -38.5 -120t-120.5 -39h-1469q-47 0 -66.5 -19.5t-19.5 -67.5v-62h-66v69q0 138 138 138h1472q55 0 79.5 25t24.5 83zM1568 65v-65h-113v65h113z" />
    <glyph glyph-name="at" unicode="@" horiz-adv-x="3355" 
d="M243 0q-83 0 -122 39.5t-39 120.5v380q0 81 39 120.5t122 39.5h2869q83 0 122 -39.5t39 -120.5v-380q0 -81 -39 -120.5t-122 -39.5h-2869zM245 42h2865q60 0 88 29t28 88v382q0 59 -28 88t-88 29h-2865q-116 0 -116 -117v-382q0 -117 116 -117zM3017 189h-2684
q-78 0 -78 80v20q0 81 78 81h2725v56q0 43 -43 43h-2745v41h2741q49 0 71 -22.5t22 -71.5v-139q0 -46 -20.5 -67t-66.5 -21zM339 329q-21 0 -29 -8t-8 -28v-28q0 -20 8 -27.5t29 -7.5h2682q37 0 37 37v62h-2719z" />
    <glyph glyph-name="A" unicode="A" horiz-adv-x="3396" 
d="M3304 0h-66v321h-3080v-321h-66v538q0 82 39.5 122t123.5 40h2886q84 0 123.5 -40t39.5 -122v-538zM3128 641h-2860q-61 0 -85.5 -25.5t-24.5 -87.5v-149h3080v149q0 62 -24.5 87.5t-85.5 25.5z" />
    <glyph glyph-name="B" unicode="B" horiz-adv-x="3390" 
d="M3314 199v-41q0 -81 -38.5 -119.5t-119.5 -38.5h-3054v700h3054q81 0 119.5 -38.5t38.5 -119.5v-41q0 -76 -29 -110.5t-101 -40.5q71 -6 100.5 -40.5t29.5 -110.5zM3141 379q59 0 83 25t24 86v43q0 58 -24.5 83t-79.5 25h-2976v-262h2973zM168 321v-262h2976
q55 0 79.5 25t24.5 83v43q0 61 -24 86t-83 25h-2973z" />
    <glyph glyph-name="C" unicode="C" horiz-adv-x="3285" 
d="M244 0q-83 0 -122.5 40t-39.5 122v376q0 82 39.5 122t122.5 40h2979v-59h-2965q-61 0 -85.5 -25.5t-24.5 -87.5v-356q0 -62 24.5 -87.5t85.5 -25.5h2965v-59h-2979z" />
    <glyph glyph-name="D" unicode="D" horiz-adv-x="3390" 
d="M3088 700q110 0 168 -57.5t58 -167.5v-250q0 -110 -58 -167.5t-168 -57.5h-2986v700h2986zM3080 59q84 0 126 40.5t42 127.5v246q0 87 -42 127.5t-126 40.5h-2912v-582h2912z" />
    <glyph glyph-name="E" unicode="E" horiz-adv-x="3356" 
d="M102 0v700h3192v-59h-3126v-262h3001v-58h-3001v-262h3126v-59h-3192z" />
    <glyph glyph-name="F" unicode="F" horiz-adv-x="3313" 
d="M102 0v700h3177v-59h-3111v-262h2986v-58h-2986v-321h-66z" />
    <glyph glyph-name="G" unicode="G" horiz-adv-x="3379" 
d="M3138 59q59 0 79.5 20.5t20.5 80.5v161h-1817v58h1883v-229q0 -80 -34.5 -115t-115.5 -35h-2910q-83 0 -122.5 40t-39.5 122v376q0 82 39.5 122t122.5 40h3035v-59h-3021q-61 0 -85.5 -25.5t-24.5 -87.5v-356q0 -62 24.5 -87.5t85.5 -25.5h2880z" />
    <glyph glyph-name="H" unicode="H" horiz-adv-x="3426" 
d="M3258 0v321h-3090v-321h-66v700h66v-321h3090v321h66v-700h-66z" />
    <glyph glyph-name="I" unicode="I" horiz-adv-x="270" 
d="M102 0v700h66v-700h-66z" />
    <glyph glyph-name="J" unicode="J" horiz-adv-x="3367" 
d="M63 150v192h66v-182q0 -60 20.5 -80.5t79.5 -20.5h2870q61 0 85.5 25.5t24.5 87.5v528h66v-538q0 -82 -39.5 -122t-123.5 -40h-2899q-81 0 -115.5 35t-34.5 115z" />
    <glyph glyph-name="K" unicode="K" horiz-adv-x="3398" 
d="M3314 700v-189q0 -80 -30 -117.5t-103 -43.5q73 -6 103 -43.5t30 -117.5v-189h-66v204q0 63 -25 90t-84 27h-2971v-321h-66v700h66v-321h2971q59 0 84 27t25 90v204h66z" />
    <glyph glyph-name="L" unicode="L" horiz-adv-x="3298" 
d="M3264 59v-59h-3162v700h66v-641h3096z" />
    <glyph glyph-name="M" unicode="M" horiz-adv-x="3995" 
d="M2164 700h1576q84 0 123.5 -40t39.5 -122v-538h-66v528q0 62 -24.5 87.5t-85.5 25.5h-1577q-66 0 -92.5 -27.5t-26.5 -95.5v-518h-66v518q0 68 -27 95.5t-93 27.5h-1577q-61 0 -85.5 -25.5t-24.5 -87.5v-528h-66v538q0 82 39.5 122t123.5 40h1577q79 0 118 -33t48 -103
q8 70 47 103t119 33z" />
    <glyph glyph-name="N" unicode="N" horiz-adv-x="3396" 
d="M268 641q-61 0 -85.5 -25.5t-24.5 -87.5v-528h-66v538q0 82 39.5 122t123.5 40h2886q84 0 123.5 -40t39.5 -122v-538h-66l1 528q0 62 -24.5 87.5t-85.5 25.5h-2861z" />
    <glyph glyph-name="O" unicode="O" horiz-adv-x="3386" 
d="M244 0q-83 0 -122.5 40t-39.5 122v376q0 82 39.5 122t122.5 40h2897q84 0 123.5 -40t39.5 -122v-376q0 -162 -163 -162h-2897zM3238 171v357q0 62 -24.5 87.5t-85.5 25.5h-2870q-57 0 -83.5 -26t-26.5 -87v-356q0 -63 24.5 -88t85.5 -25h2870q61 0 85.5 25t24.5 87z" />
    <glyph glyph-name="P" unicode="P" horiz-adv-x="3352" 
d="M102 0v700h3043q82 0 120.5 -39t38.5 -120v-61q0 -81 -38.5 -120t-120.5 -39h-2977v-321h-66zM3238 533q0 58 -24.5 83t-79.5 25h-2966v-262h2966q55 0 79.5 25t24.5 83v46z" />
    <glyph glyph-name="Q" unicode="Q" horiz-adv-x="3386" 
d="M244 0q-83 0 -122.5 40t-39.5 122v376q0 82 39.5 122t122.5 40h2897q84 0 123.5 -40t39.5 -122v-376q0 -162 -163 -162h-1418v-167h-60v167h-1419zM3238 171v357q0 62 -24.5 87.5t-85.5 25.5h-2870q-57 0 -83.5 -26t-26.5 -87v-356q0 -63 24.5 -88t85.5 -25h1405v236h60
v-236h1405q61 0 85.5 25t24.5 87z" />
    <glyph glyph-name="R" unicode="R" horiz-adv-x="3397" 
d="M3314 542v-41q0 -76 -29.5 -111t-102.5 -40q72 -7 102 -44.5t30 -116.5v-189h-66v204q0 63 -25 90t-84 27h-2971v-321h-66v700h3054q81 0 119.5 -38.5t38.5 -119.5zM3141 379q59 0 83 25t24 86v43q0 58 -24.5 83t-79.5 25h-2976v-262h2973z" />
    <glyph glyph-name="S" unicode="S" horiz-adv-x="3334" 
d="M245 321q-82 0 -121 39t-39 120v61q0 81 39 120t121 39h2992v-59h-2982q-55 0 -79.5 -25t-24.5 -83v-46q0 -58 24.5 -83t79.5 -25h2853q82 0 120.5 -39t38.5 -120v-61q0 -81 -38.5 -120t-120.5 -39h-3043v59h3033q55 0 79 25t24 83v46q0 58 -24 83t-79 25h-2853z" />
    <glyph glyph-name="T" unicode="T" horiz-adv-x="3289" 
d="M3255 700v-59h-1577v-641h-66v641h-1578v59h3221z" />
    <glyph glyph-name="U" unicode="U" horiz-adv-x="3396" 
d="M255 0q-84 0 -123.5 40t-39.5 122v538h66v-528q0 -62 24.5 -87.5t85.5 -25.5h2860q61 0 85.5 25.5t24.5 87.5v528h66v-538q0 -82 -39.5 -122t-123.5 -40h-2886z" />
    <glyph glyph-name="V" unicode="V" horiz-adv-x="3387" 
d="M102 0v700h66v-641h2897q84 0 126 40.5t42 127.5v473h66v-475q0 -110 -58 -167.5t-168 -57.5h-2971z" />
    <glyph glyph-name="W" unicode="W" horiz-adv-x="3995" 
d="M3740 0h-1576q-80 0 -119 33t-47 103q-9 -70 -48 -103t-118 -33h-1577q-84 0 -123.5 40t-39.5 122v538h66v-528q0 -62 24.5 -87.5t85.5 -25.5h1577q66 0 93 27.5t27 95.5v518h66v-518q0 -68 26.5 -95.5t92.5 -27.5h1577q61 0 85.5 25.5t24.5 87.5v528h66v-538
q0 -82 -39.5 -122t-123.5 -40z" />
    <glyph glyph-name="X" unicode="X" horiz-adv-x="3391" 
d="M84 511v189h66v-204q0 -63 25 -90t84 -27h2872q60 0 84.5 27t24.5 90v204h67v-189q0 -80 -30.5 -117.5t-103.5 -43.5q73 -6 103.5 -43.5t30.5 -117.5v-189h-67v204q0 63 -24.5 90t-84.5 27h-2872q-59 0 -84 -27t-25 -90v-204h-66v189q0 80 30 117.5t103 43.5
q-73 6 -103 43.5t-30 117.5z" />
    <glyph glyph-name="Y" unicode="Y" horiz-adv-x="3347" 
d="M3218 700h66v-217q0 -82 -39.5 -122t-123.5 -40h-1415v-321h-66v321h-1415q-83 0 -122.5 40t-39.5 122v217h66v-208q0 -62 24.5 -87.5t84.5 -25.5h2870q61 0 85.5 25.5t24.5 87.5v208z" />
    <glyph glyph-name="Z" unicode="Z" horiz-adv-x="3341" 
d="M3063 379q80 0 112.5 31.5t32.5 112.5v118h-3114v59h3180v-183q0 -196 -197 -196h-2802q-80 0 -112.5 -31.5t-32.5 -112.5v-118h3144v-59h-3210v183q0 196 197 196h2802z" />
    <glyph glyph-name="bracketleft" unicode="[" horiz-adv-x="412" 
d="M102 700h249v-54h-188v-672h188v-54h-249v780z" />
    <glyph glyph-name="backslash" unicode="\" horiz-adv-x="953" 
d="M122 700l791 -700h-82l-792 700h83z" />
    <glyph glyph-name="bracketright" unicode="]" horiz-adv-x="412" 
d="M61 700h249v-780h-249v54h188v672h-188v54z" />
    <glyph glyph-name="asciicircum" unicode="^" horiz-adv-x="3366" 
d="M1683 720l1601 -388v-59l-1601 388l-1601 -388v59z" />
    <glyph glyph-name="underscore" unicode="_" horiz-adv-x="1500" 
d="M1500 -57v-49h-1500v49h1500z" />
    <glyph glyph-name="grave" unicode="`" horiz-adv-x="750" 
d="M467 657l-332 113h144l286 -113h-98z" />
    <glyph glyph-name="a" unicode="a" 
d="M2868 330v108q0 59 -24.5 83.5t-82.5 24.5h-2670v57h2682q83 0 121.5 -39t38.5 -122v-281q0 -83 -38.5 -122t-121.5 -39h-2572q-73 0 -106.5 34t-33.5 109v44q0 75 33.5 109t106.5 34h2667zM2868 273h-2655q-47 0 -67 -20t-20 -67v-42q0 -47 20 -67t67 -20h2548
q58 0 82.5 24.5t24.5 83.5v108z" />
    <glyph glyph-name="b" unicode="b" 
d="M86 161v609h65v-243q25 76 133 76h2490q83 0 121.5 -39t38.5 -122v-281q0 -83 -38.5 -122t-121.5 -39h-2528q-83 0 -121.5 39t-38.5 122zM151 438v-273q0 -59 24.5 -83.5t83.5 -24.5h2502q59 0 83.5 24.5t24.5 83.5v273q0 59 -24.5 83.5t-83.5 24.5h-2502
q-59 0 -83.5 -24.5t-24.5 -83.5z" />
    <glyph glyph-name="c" unicode="c" horiz-adv-x="2932" 
d="M236 0q-82 0 -120.5 39t-38.5 122v281q0 83 38.5 122t120.5 39h2633v-57h-2620q-59 0 -83.5 -25t-24.5 -83v-273q0 -59 24.5 -83.5t83.5 -24.5h2620v-57h-2633z" />
    <glyph glyph-name="d" unicode="d" 
d="M2924 770v-609q0 -83 -38.5 -122t-121.5 -39h-2528q-82 0 -120.5 39t-38.5 122v281q0 83 38.5 122t120.5 39h2490q109 0 133 -76v243h65zM2859 165v273q0 59 -24.5 83.5t-82.5 24.5h-2503q-59 0 -83.5 -24.5t-24.5 -83.5v-273q0 -59 24.5 -83.5t83.5 -24.5h2503
q58 0 82.5 24.5t24.5 83.5z" />
    <glyph glyph-name="e" unicode="e" 
d="M2949 415q0 -75 -33.5 -108.5t-106.5 -33.5h-2668v-108q0 -59 26.5 -83.5t81.5 -24.5h2670v-57h-2683q-96 0 -127.5 48t-31.5 152v242q0 81 38 121t121 40h2573q74 0 107 -34t33 -109v-45zM2797 546h-2548q-38 0 -60 -8t-32.5 -31t-13 -47.5t-2.5 -74.5v-55h2656
q45 0 66 19t21 68v30q0 56 -17.5 77.5t-69.5 21.5z" />
    <glyph glyph-name="f" unicode="f" horiz-adv-x="2907" 
d="M280 546q-68 0 -98.5 -29.5t-30.5 -99.5v-87h2628v-57h-2628v-273h-65v419q0 94 45 139t140 45h2598v-57h-2589z" />
    <glyph glyph-name="g" unicode="g" 
d="M2752 97q58 0 82.5 24.5t24.5 83.5v233q0 59 -24.5 83.5t-82.5 24.5h-2503q-59 0 -83.5 -25t-24.5 -83v-233q0 -59 24.5 -83.5t83.5 -24.5h2503zM2726 40h-2490q-82 0 -120.5 39t-38.5 122v241q0 83 38.5 122t120.5 39h2528q83 0 121.5 -39t38.5 -122v-419
q0 -97 -46 -143.5t-144 -46.5h-2617v57h2610q69 0 100.5 30.5t31.5 101.5v94q-13 -39 -44.5 -57.5t-88.5 -18.5z" />
    <glyph glyph-name="h" unicode="h" horiz-adv-x="3020" 
d="M2869 438q0 59 -24.5 83.5t-83.5 24.5h-2492q-59 0 -83.5 -24.5t-24.5 -83.5v-438h-65v770h65v-243q24 76 133 76h2480q83 0 121 -39t38 -122v-442h-64v438z" />
    <glyph glyph-name="i" unicode="i" horiz-adv-x="430" 
d="M253 57h144v-57h-157q-81 0 -116 35.5t-35 116.5v451h65v-446q0 -56 22 -78t77 -22zM186 737v-54h-129v54h129z" />
    <glyph glyph-name="j" unicode="j" horiz-adv-x="278" 
d="M-63 -110h81q56 0 78 22t22 78v613h64v-618q0 -81 -35 -116.5t-116 -35.5h-94v57zM85 683v54h130v-54h-130z" />
    <glyph glyph-name="k" unicode="k" horiz-adv-x="3008" 
d="M2869 405v198h64v-170q0 -59 -22 -92t-79 -40q57 -7 79 -40t22 -92v-169h-64v197q0 40 -18.5 58t-58.5 18h-2631v-273h-65v770h65v-440h2631q41 0 59 17.5t18 57.5z" />
    <glyph glyph-name="l" unicode="l" horiz-adv-x="428" 
d="M251 57h144v-57h-157q-81 0 -116.5 36t-35.5 116v618h65v-613q0 -56 22 -78t78 -22z" />
    <glyph glyph-name="m" unicode="m" horiz-adv-x="3530" 
d="M1765 490q8 60 41.5 86.5t103.5 26.5h1374q83 0 121.5 -39t38.5 -122v-442h-65v438q0 59 -24.5 83.5t-83.5 24.5h-1384q-90 0 -90 -92v-454h-64v454q0 92 -90 92h-1384q-59 0 -83.5 -24.5t-24.5 -83.5v-438h-65v442q0 83 38.5 122t121.5 39h1374q70 0 104 -26.5t41 -86.5
z" />
    <glyph glyph-name="n" unicode="n" 
d="M86 0v442q0 83 38.5 122t121.5 39h2518q83 0 121.5 -39t38.5 -122v-442h-65v438q0 59 -24.5 83.5t-83.5 24.5h-2492q-59 0 -83.5 -24.5t-24.5 -83.5v-438h-65z" />
    <glyph glyph-name="o" unicode="o" horiz-adv-x="3001" 
d="M2764 603q83 0 121.5 -39t38.5 -122v-281q0 -83 -38.5 -122t-121.5 -39h-2528q-82 0 -120.5 39t-38.5 122v281q0 83 38.5 122t120.5 39h2528zM2752 57q58 0 82.5 24.5t24.5 83.5v273q0 59 -24.5 83.5t-82.5 24.5h-2503q-59 0 -83.5 -25t-24.5 -83v-273q0 -59 24.5 -83.5
t83.5 -24.5h2503z" />
    <glyph glyph-name="p" unicode="p" 
d="M86 -167v609q0 83 38.5 122t121.5 39h2528q83 0 121.5 -39t38.5 -122v-281q0 -83 -38.5 -122t-121.5 -39h-2490q-108 0 -133 76v-243h-65zM151 438v-273q0 -59 24.5 -83.5t83.5 -24.5h2502q59 0 83.5 24.5t24.5 83.5v273q0 59 -24.5 83.5t-83.5 24.5h-2502
q-59 0 -83.5 -24.5t-24.5 -83.5z" />
    <glyph glyph-name="q" unicode="q" 
d="M2924 442v-609h-65v243q-24 -76 -133 -76h-2490q-82 0 -120.5 39t-38.5 122v281q0 83 38.5 122t120.5 39h2528q83 0 121.5 -39t38.5 -122zM2859 165v273q0 59 -24.5 83.5t-82.5 24.5h-2503q-59 0 -83.5 -24.5t-24.5 -83.5v-273q0 -59 24.5 -83.5t83.5 -24.5h2503
q58 0 82.5 24.5t24.5 83.5z" />
    <glyph glyph-name="r" unicode="r" horiz-adv-x="2792" 
d="M2754 603v-57h-2495q-59 0 -83.5 -25t-24.5 -83v-438h-65v442q0 83 38.5 122t121.5 39h2508z" />
    <glyph glyph-name="s" unicode="s" horiz-adv-x="2978" 
d="M2887 546h-2670q-47 0 -67 -20t-20 -67v-42q0 -47 20 -67t67 -20h2560q73 0 106.5 -34t33.5 -109v-44q0 -75 -33.5 -109t-106.5 -34h-2712v57h2700q47 0 67 20t20 67v41q0 48 -20 68t-67 20h-2560q-73 0 -106.5 33.5t-33.5 108.5v45q0 75 33.5 109t106.5 34h2682v-57z
" />
    <glyph glyph-name="t" unicode="t" horiz-adv-x="2837" 
d="M246 0q-83 0 -121.5 39t-38.5 122v609h65v-167h2623v-57h-2623v-381q0 -59 24.5 -83.5t83.5 -24.5h2515v-57h-2528z" />
    <glyph glyph-name="u" unicode="u" 
d="M2751 57q59 0 83.5 24.5t24.5 83.5v438h65v-442q0 -83 -38.5 -122t-121.5 -39h-2518q-83 0 -121.5 39t-38.5 122v442h65v-438q0 -59 24.5 -83.5t83.5 -24.5h2492z" />
    <glyph glyph-name="v" unicode="v" horiz-adv-x="3005" 
d="M2923 603v-413q0 -98 -46 -144t-144 -46h-2637v603h65v-546h2566q69 0 100.5 30.5t31.5 101.5v414h64z" />
    <glyph glyph-name="w" unicode="w" horiz-adv-x="3530" 
d="M1765 113q-7 -60 -41 -86.5t-104 -26.5h-1374q-83 0 -121.5 39t-38.5 122v442h65v-438q0 -59 24.5 -83.5t83.5 -24.5h1384q90 0 90 92v454h64v-454q0 -92 90 -92h1384q59 0 83.5 24.5t24.5 83.5v438h65v-442q0 -83 -38.5 -122t-121.5 -39h-1374q-70 0 -103.5 26.5
t-41.5 86.5z" />
    <glyph glyph-name="x" unicode="x" horiz-adv-x="3016" 
d="M2876 405v198h65v-170q0 -59 -22 -92t-80 -40q58 -7 80 -40t22 -92v-169h-65v197q0 40 -18 58t-58 18h-2584q-40 0 -58.5 -18t-18.5 -58v-197h-64v169q0 59 22 92t80 40q-58 7 -80 40t-22 92v170h64v-198q0 -40 18 -57.5t59 -17.5h2584q40 0 58 17.5t18 57.5z" />
    <glyph glyph-name="y" unicode="y" horiz-adv-x="3020" 
d="M2734 -167h-2608v57h2601q69 0 100.5 30.5t31.5 101.5v94q-13 -39 -44.5 -57.5t-88.5 -18.5h-2480q-83 0 -121.5 39t-38.5 122v402h65v-398q0 -59 24.5 -83.5t83.5 -24.5h2492q59 0 83.5 24.5t24.5 83.5v398h65v-580q0 -97 -46 -143.5t-144 -46.5z" />
    <glyph glyph-name="z" unicode="z" horiz-adv-x="2985" 
d="M252 273q-65 0 -94.5 -29.5t-29.5 -94.5v-92h2792v-57h-2856v145q0 185 185 185h2483q64 0 93.5 29t29.5 94v93h-2766v57h2831v-145q0 -185 -185 -185h-2483z" />
    <glyph glyph-name="braceleft" unicode="{" horiz-adv-x="396" 
d="M188 531v-109q0 -55 -18.5 -83t-61.5 -29q43 -1 61.5 -29t18.5 -83v-109q0 -62 24.5 -87.5t85.5 -25.5h44v-56h-55q-84 0 -123 39.5t-39 121.5v141q0 33 -12 46.5t-45 13.5h-27v56h27q33 0 45 13.5t12 46.5v141q0 82 39 121.5t123 39.5h55v-56h-44q-61 0 -85.5 -25.5
t-24.5 -87.5z" />
    <glyph glyph-name="bar" unicode="|" horiz-adv-x="301" 
d="M119 -167v907h63v-907h-63z" />
    <glyph glyph-name="braceright" unicode="}" horiz-adv-x="396" 
d="M208 422v109q0 62 -24.5 87.5t-85.5 25.5h-44v56h55q84 0 123 -39.5t39 -121.5v-141q0 -33 12 -46.5t45 -13.5h27v-56h-27q-33 0 -45 -13.5t-12 -46.5v-141q0 -82 -39 -121.5t-123 -39.5h-55v56h44q61 0 85.5 25.5t24.5 87.5v109q0 55 18.5 83t61.5 29q-43 1 -61.5 29
t-18.5 83z" />
    <glyph glyph-name="asciitilde" unicode="~" horiz-adv-x="3366" 
d="M82 293v58q275 98 682 98q242 0 580 -35l676 -70t581 -35q408 0 683 98v-58q-273 -98 -686 -98q-194 0 -451 21.5t-468 48t-467 48t-450 21.5q-409 0 -680 -97z" />
    <glyph glyph-name="uni00A0" unicode="&#xa0;" horiz-adv-x="772" 
 />
    <glyph glyph-name="exclamdown" unicode="&#xa1;" horiz-adv-x="332" 
d="M109 565v65h114v-65h-114zM133 -70v233q0 134 12 293h42q12 -159 12 -293v-233h-66z" />
    <glyph glyph-name="cent" unicode="&#xa2;" horiz-adv-x="3366" 
d="M1702 -40v90h-1461q-82 0 -120.5 39t-38.5 122v278q0 83 38.5 122t120.5 39h1461v90h58v-90h1538v-57h-1538v-486h1538v-57h-1538v-90h-58zM254 107h1448v486h-1448q-58 0 -82.5 -24.5t-24.5 -83.5v-270q0 -59 24.5 -83.5t82.5 -24.5z" />
    <glyph glyph-name="sterling" unicode="&#xa3;" horiz-adv-x="3366" 
d="M352 59h2954v-59h-3246v59h226v262h-226v58h226v160q0 82 38.5 121.5t121.5 39.5h2760v-59h-2747q-59 0 -83 -24t-24 -83v-155h2854v-58h-2854v-262z" />
    <glyph glyph-name="currency" unicode="&#xa4;" horiz-adv-x="3366" 
d="M147 490q0 83 38 122t121 39h1348v89h59v-89h1347q82 0 120.5 -39t38.5 -122v-111h110v-58h-110v-112q0 -83 -38.5 -122t-120.5 -39h-1347v-88h-59v88h-1348q-83 0 -121 39t-38 122v112h-110v58h110v111zM3047 593h-2728q-59 0 -83.5 -24.5t-24.5 -83.5v-271
q0 -59 24.5 -83.5t83.5 -24.5h2728q59 0 83 24.5t24 83.5v271q0 59 -24 83.5t-83 24.5z" />
    <glyph glyph-name="yen" unicode="&#xa5;" horiz-adv-x="3366" 
d="M3232 700h66v-153q0 -82 -39.5 -122t-123.5 -40h-1419v-159h1552v-58h-1552v-168h-67v168h-1552v58h1552v159h-1419q-84 0 -123.5 40t-39.5 122v153h66v-144q0 -61 25 -86.5t85 -25.5h2879q60 0 85 25.5t25 86.5v144z" />
    <glyph glyph-name="brokenbar" unicode="&#xa6;" horiz-adv-x="301" 
d="M119 -167v394h63v-394h-63zM119 347v393h63v-393h-63z" />
    <glyph glyph-name="section" unicode="&#xa7;" horiz-adv-x="3264" 
d="M221 442h2838q71 0 104 -33t33 -105v-33q0 -55 -22.5 -83.5t-76.5 -33.5q55 -5 77 -33t22 -84v-28q0 -74 -33.5 -107.5t-106.5 -33.5h-2952v57h2940q47 0 67 20t20 67v33q0 45 -18.5 63t-64.5 18h-2838q-71 0 -103.5 32.5t-32.5 105.5v33q0 56 21.5 84t75.5 33
q-54 4 -75.5 32t-21.5 85v28q0 74 33 107.5t106 33.5h2953v-57h-2941q-47 0 -67 -20t-20 -67v-33q0 -45 19 -63t64 -18zM3044 385h-2823q-46 0 -64.5 -17.5t-18.5 -62.5v-36q0 -46 19.5 -66t67.5 -20h2823q46 0 64.5 17.5t18.5 62.5v36q0 47 -20 66.5t-67 19.5z" />
    <glyph glyph-name="dieresis" unicode="&#xa8;" horiz-adv-x="750" 
d="M200 737v-54h-123v54h123zM673 737v-54h-123v54h123z" />
    <glyph glyph-name="copyright" unicode="&#xa9;" horiz-adv-x="3355" 
d="M332 189q-45 0 -66 21.5t-21 66.5v145q0 45 21 66.5t66 21.5h2763v-41h-2766q-37 0 -37 -37v-165q0 -37 37 -37h2766v-41h-2763zM243 0q-83 0 -122 39.5t-39 120.5v380q0 81 39 120.5t122 39.5h2869q83 0 122 -39.5t39 -120.5v-380q0 -81 -39 -120.5t-122 -39.5h-2869z
M245 42h2865q60 0 88 29t28 88v382q0 59 -28 88t-88 29h-2865q-116 0 -116 -117v-382q0 -117 116 -117z" />
    <glyph glyph-name="ordfeminine" unicode="&#xaa;" horiz-adv-x="2400" 
d="M2270 460v122q0 35 -14.5 49.5t-48.5 14.5h-2127v54h2133q60 0 88.5 -28.5t28.5 -88.5v-300q0 -60 -28.5 -88.5t-88.5 -28.5h-2040q-60 0 -88 28.5t-28 88.5v60q0 60 28 88.5t88 28.5h2097zM118 342v-57q0 -36 14.5 -50.5t48.5 -14.5h2026q34 0 48.5 14.5t14.5 49.5v122
h-2089q-34 0 -48.5 -14.5t-14.5 -49.5zM1204 84l64 -84h-127z" />
    <glyph glyph-name="guillemotleft" unicode="&#xab;" horiz-adv-x="726" 
d="M419 51h-81l-296 249l296 249h81l-297 -249zM685 51h-81l-296 249l296 249h81l-297 -249z" />
    <glyph glyph-name="logicalnot" unicode="&#xac;" horiz-adv-x="3366" 
d="M81 322v56h3203v-378h-57v322h-3146z" />
    <glyph glyph-name="uni00AD" unicode="&#xad;" horiz-adv-x="1140" 
d="M1083 356v-58h-1026v58h1026z" />
    <glyph glyph-name="registered" unicode="&#xae;" horiz-adv-x="3355" 
d="M243 0q-83 0 -122 39.5t-39 120.5v380q0 81 39 120.5t122 39.5h2869q83 0 122 -39.5t39 -120.5v-380q0 -81 -39 -120.5t-122 -39.5h-2869zM245 42h2865q60 0 88 29t28 88v382q0 59 -28 88t-88 29h-2865q-116 0 -116 -117v-382q0 -117 116 -117zM3105 416q0 -61 -57 -67
q32 -4 44.5 -21t12.5 -47v-92h-46v114q0 26 -26 26h-2732v-140h-46v321h2783q67 0 67 -67v-27zM3059 445q0 24 -26 24h-2732v-99h2732q26 0 26 24v51z" />
    <glyph glyph-name="macron" unicode="&#xaf;" horiz-adv-x="750" 
d="M681 695h-612v40h612v-40z" />
    <glyph glyph-name="degree" unicode="&#xb0;" horiz-adv-x="1370" 
d="M54 555q0 145 155 145h953q154 0 154 -145v-95q0 -146 -154 -146h-953q-155 0 -155 146v95zM218 644q-57 0 -79 -22t-22 -78v-74q0 -56 22 -78t79 -22h935q56 0 78 22t22 78v74q0 56 -22 78t-78 22h-935z" />
    <glyph glyph-name="plusminus" unicode="&#xb1;" horiz-adv-x="3366" 
d="M82 322v56h1572v322h57v-322h1573v-56h-1573v-265h1573v-57h-3202v57h1572v265h-1572z" />
    <glyph glyph-name="twosuperior" unicode="&#xb2;" horiz-adv-x="1811" 
d="M1693 529v49q0 38 -14.5 53t-52.5 15h-1546v54h1557q60 0 88 -28.5t28 -88.5v-60q0 -60 -28 -88.5t-88 -28.5h-1417q-56 0 -77 -20.5t-21 -76.5v-89h1631v-54h-1692v152q0 142 142 142h1423q38 0 52.5 15t14.5 54z" />
    <glyph glyph-name="threesuperior" unicode="&#xb3;" horiz-adv-x="1811" 
d="M1749 584v-48q0 -47 -19.5 -72t-74.5 -31q55 -6 74.5 -31t19.5 -72v-48q0 -60 -27.5 -88t-87.5 -28h-1580v54h1568q38 0 52.5 15t14.5 53v50q0 38 -15.5 53t-50.5 15h-1476v54h1476q35 0 50.5 15t15.5 53v50q0 38 -14.5 53t-52.5 15h-1568v54h1580q60 0 87.5 -28
t27.5 -88z" />
    <glyph glyph-name="acute" unicode="&#xb4;" horiz-adv-x="750" 
d="M619 770l-338 -113h-98l284 113h152z" />
    <glyph glyph-name="uni00B5" unicode="&#xb5;" horiz-adv-x="3020" 
d="M269 57h2492q59 0 83.5 24.5t24.5 83.5v438h64v-442q0 -83 -38 -122t-121 -39h-2480q-109 0 -133 76v-243h-65v770h65v-438q0 -59 24.5 -83.5t83.5 -24.5z" />
    <glyph glyph-name="paragraph" unicode="&#xb6;" horiz-adv-x="2812" 
d="M2711 700v-832h-65v775h-242v-775h-64v407h-2112q-92 0 -136 44.5t-44 135.5v65q0 91 44 135.5t136 44.5h2483z" />
    <glyph glyph-name="periodcentered" unicode="&#xb7;" horiz-adv-x="327" 
d="M220 384v-68h-113v68h113z" />
    <glyph glyph-name="cedilla" unicode="&#xb8;" horiz-adv-x="750" 
d="M350 -51h221q57 0 83 -10.5t26 -40.5q0 -41 -34.5 -56.5t-113.5 -15.5h-462v48h468q51 0 70 6.5t19 25.5q0 16 -13 20.5t-53 4.5h-239l28 69h20z" />
    <glyph glyph-name="onesuperior" unicode="&#xb9;" horiz-adv-x="1811" 
d="M134 166v54h884v426h-884v54h945v-480h658v-54h-1603z" />
    <glyph glyph-name="ordmasculine" unicode="&#xba;" horiz-adv-x="2412" 
d="M69 283v300q0 60 28.5 88.5t88.5 28.5h2040q60 0 88.5 -28.5t28.5 -88.5v-300q0 -60 -28.5 -88.5t-88.5 -28.5h-2040q-60 0 -88.5 28.5t-28.5 88.5zM2220 220q34 0 48.5 14.5t14.5 49.5v298q0 35 -15 49.5t-48 14.5h-2027q-34 0 -48.5 -14.5t-14.5 -49.5v-298
q0 -35 14.5 -49.5t48.5 -14.5h2027zM1216 84l64 -84h-127z" />
    <glyph glyph-name="guillemotright" unicode="&#xbb;" horiz-adv-x="726" 
d="M122 51h-81l297 249l-297 249h81l296 -249zM388 51h-81l297 249l-297 249h81l296 -249z" />
    <glyph glyph-name="onequarter" unicode="&#xbc;" horiz-adv-x="4175" 
d="M1654 0l792 700h76l-792 -700h-76zM134 166v54h884v426h-884v54h945v-480h658v-54h-1603zM4023 294v240h60v-534h-60v240h-1484q-60 0 -88 28.5t-28 88.5v177h60v-173q0 -36 16 -51.5t50 -15.5h1474z" />
    <glyph glyph-name="onehalf" unicode="&#xbd;" horiz-adv-x="4175" 
d="M1654 0l792 700h76l-792 -700h-76zM134 166v54h884v426h-884v54h945v-480h658v-54h-1603zM4058 363v49q0 38 -14.5 53t-52.5 15h-1546v54h1557q60 0 88 -28.5t28 -88.5v-60q0 -60 -28 -88.5t-88 -28.5h-1417q-56 0 -77 -20.5t-21 -76.5v-89h1631v-54h-1692v152
q0 142 142 142h1423q38 0 52.5 15t14.5 54z" />
    <glyph glyph-name="threequarters" unicode="&#xbe;" horiz-adv-x="4175" 
d="M1654 0l792 700h76l-792 -700h-76zM4023 294v240h60v-534h-60v240h-1484q-60 0 -88 28.5t-28 88.5v177h60v-173q0 -36 16 -51.5t50 -15.5h1474zM1749 584v-48q0 -47 -19.5 -72t-74.5 -31q55 -6 74.5 -31t19.5 -72v-48q0 -60 -27.5 -88t-87.5 -28h-1580v54h1568
q38 0 52.5 15t14.5 53v50q0 38 -15.5 53t-50.5 15h-1476v54h1476q35 0 50.5 15t15.5 53v50q0 38 -14.5 53t-52.5 15h-1568v54h1580q60 0 87.5 -28t27.5 -88z" />
    <glyph glyph-name="questiondown" unicode="&#xbf;" horiz-adv-x="3303" 
d="M114 143v-46q0 -58 24.5 -83t79.5 -25h3052v-59h-3063q-82 0 -120.5 39t-38.5 120v61q0 81 38.5 120t120.5 39h1469q47 0 66.5 19.5t19.5 67.5v62h66v-69q0 -138 -138 -138h-1472q-55 0 -79.5 -25t-24.5 -83zM1738 565v65h113v-65h-113z" />
    <glyph glyph-name="Agrave" unicode="&#xc0;" horiz-adv-x="3396" 
d="M3304 0h-66v321h-3080v-321h-66v538q0 82 39.5 122t123.5 40h2886q84 0 123.5 -40t39.5 -122v-538zM3128 641h-2860q-61 0 -85.5 -25.5t-24.5 -87.5v-149h3080v149q0 62 -24.5 87.5t-85.5 25.5zM1724 759l-332 113h144l286 -113h-98z" />
    <glyph glyph-name="Aacute" unicode="&#xc1;" horiz-adv-x="3396" 
d="M3304 0h-66v321h-3080v-321h-66v538q0 82 39.5 122t123.5 40h2886q84 0 123.5 -40t39.5 -122v-538zM3128 641h-2860q-61 0 -85.5 -25.5t-24.5 -87.5v-149h3080v149q0 62 -24.5 87.5t-85.5 25.5zM2007 872l-338 -113h-98l284 113h152z" />
    <glyph glyph-name="Acircumflex" unicode="&#xc2;" horiz-adv-x="3396" 
d="M3304 0h-66v321h-3080v-321h-66v538q0 82 39.5 122t123.5 40h2886q84 0 123.5 -40t39.5 -122v-538zM3128 641h-2860q-61 0 -85.5 -25.5t-24.5 -87.5v-149h3080v149q0 62 -24.5 87.5t-85.5 25.5zM1698 840l-256 -81h-85l282 113h118l282 -113h-85z" />
    <glyph glyph-name="Atilde" unicode="&#xc3;" horiz-adv-x="3396" 
d="M3304 0h-66v321h-3080v-321h-66v538q0 82 39.5 122t123.5 40h2886q84 0 123.5 -40t39.5 -122v-538zM3128 641h-2860q-61 0 -85.5 -25.5t-24.5 -87.5v-149h3080v149q0 62 -24.5 87.5t-85.5 25.5zM1393 767v47q83 63 163 63q53 0 146 -37t143 -37q79 0 158 64v-47
q-82 -62 -164 -62q-53 0 -146.5 36t-142.5 36q-78 0 -157 -63z" />
    <glyph glyph-name="Adieresis" unicode="&#xc4;" horiz-adv-x="3396" 
d="M3304 0h-66v321h-3080v-321h-66v538q0 82 39.5 122t123.5 40h2886q84 0 123.5 -40t39.5 -122v-538zM3128 641h-2860q-61 0 -85.5 -25.5t-24.5 -87.5v-149h3080v149q0 62 -24.5 87.5t-85.5 25.5zM1523 839v-54h-123v54h123zM1996 839v-54h-123v54h123z" />
    <glyph glyph-name="Aring" unicode="&#xc5;" horiz-adv-x="3396" 
d="M3304 0h-66v321h-3080v-321h-66v538q0 82 39.5 122t123.5 40h2886q84 0 123.5 -40t39.5 -122v-538zM3128 641h-2860q-61 0 -85.5 -25.5t-24.5 -87.5v-149h3080v149q0 62 -24.5 87.5t-85.5 25.5zM1536 820q0 -31 45 -31h234q45 0 45 31q0 30 -45 30h-234q-45 0 -45 -30z
M1811 757h-226q-84 0 -84 63q0 61 84 61h226q84 0 84 -61q0 -63 -84 -63z" />
    <glyph glyph-name="AE" unicode="&#xc6;" horiz-adv-x="5203" 
d="M2596 0v321h-2438v-321h-66v538q0 82 39.5 122t123.5 40h4886v-59h-2479v-262h2354v-58h-2354v-262h2479v-59h-2545zM268 641q-61 0 -85.5 -25.5t-24.5 -87.5v-149h2438v262h-2328z" />
    <glyph glyph-name="Ccedilla" unicode="&#xc7;" horiz-adv-x="3285" 
d="M1678 0l-20 -51h221q57 0 83 -10.5t26 -40.5q0 -41 -34.5 -56.5t-113.5 -15.5h-462v48h468q51 0 70 6.5t19 25.5q0 16 -13 20.5t-53 4.5h-239l28 69h-1414q-83 0 -122.5 40t-39.5 122v376q0 82 39.5 122t122.5 40h2979v-59h-2965q-61 0 -85.5 -25.5t-24.5 -87.5v-356
q0 -62 24.5 -87.5t85.5 -25.5h2965v-59h-1545z" />
    <glyph glyph-name="Egrave" unicode="&#xc8;" horiz-adv-x="3356" 
d="M102 0v700h3192v-59h-3126v-262h3001v-58h-3001v-262h3126v-59h-3192zM1742 759l-332 113h144l286 -113h-98z" />
    <glyph glyph-name="Eacute" unicode="&#xc9;" horiz-adv-x="3356" 
d="M102 0v700h3192v-59h-3126v-262h3001v-58h-3001v-262h3126v-59h-3192zM2023 872l-338 -113h-98l284 113h152z" />
    <glyph glyph-name="Ecircumflex" unicode="&#xca;" horiz-adv-x="3356" 
d="M102 0v700h3192v-59h-3126v-262h3001v-58h-3001v-262h3126v-59h-3192zM1715 840l-256 -81h-85l282 113h118l282 -113h-85z" />
    <glyph glyph-name="Edieresis" unicode="&#xcb;" horiz-adv-x="3356" 
d="M102 0v700h3192v-59h-3126v-262h3001v-58h-3001v-262h3126v-59h-3192zM1541 839v-54h-123v54h123zM2014 839v-54h-123v54h123z" />
    <glyph glyph-name="Igrave" unicode="&#xcc;" horiz-adv-x="270" 
d="M102 0v700h66v-700h-66zM167 759l-332 113h144l286 -113h-98z" />
    <glyph glyph-name="Iacute" unicode="&#xcd;" horiz-adv-x="270" 
d="M102 0v700h66v-700h-66zM439 872l-338 -113h-98l284 113h152z" />
    <glyph glyph-name="Icircumflex" unicode="&#xce;" horiz-adv-x="270" 
d="M102 0v700h66v-700h-66zM135 840l-256 -81h-85l282 113h118l282 -113h-85z" />
    <glyph glyph-name="Idieresis" unicode="&#xcf;" horiz-adv-x="270" 
d="M346 839v-54h-123v54h123zM47 839v-54h-123v54h123zM102 0v700h66v-700h-66z" />
    <glyph glyph-name="Eth" unicode="&#xd0;" horiz-adv-x="3391" 
d="M3088 700q110 0 168 -57.5t58 -167.5v-250q0 -110 -58 -167.5t-168 -57.5h-2986v321h-85v58h85v321h2986zM3080 59q84 0 126 40.5t42 127.5v246q0 87 -42 127.5t-126 40.5h-2912v-262h471v-58h-471v-262h2912z" />
    <glyph glyph-name="Ntilde" unicode="&#xd1;" horiz-adv-x="3396" 
d="M268 641q-61 0 -85.5 -25.5t-24.5 -87.5v-528h-66v538q0 82 39.5 122t123.5 40h2886q84 0 123.5 -40t39.5 -122v-538h-66l1 528q0 62 -24.5 87.5t-85.5 25.5h-2861zM1393 767v47q83 63 163 63q53 0 146 -37t143 -37q79 0 158 64v-47q-82 -62 -164 -62q-53 0 -146.5 36
t-142.5 36q-78 0 -157 -63z" />
    <glyph glyph-name="Ograve" unicode="&#xd2;" horiz-adv-x="3386" 
d="M244 0q-83 0 -122.5 40t-39.5 122v376q0 82 39.5 122t122.5 40h2897q84 0 123.5 -40t39.5 -122v-376q0 -162 -163 -162h-2897zM3238 171v357q0 62 -24.5 87.5t-85.5 25.5h-2870q-57 0 -83.5 -26t-26.5 -87v-356q0 -63 24.5 -88t85.5 -25h2870q61 0 85.5 25t24.5 87z
M1719 759l-332 113h144l286 -113h-98z" />
    <glyph glyph-name="Oacute" unicode="&#xd3;" horiz-adv-x="3386" 
d="M244 0q-83 0 -122.5 40t-39.5 122v376q0 82 39.5 122t122.5 40h2897q84 0 123.5 -40t39.5 -122v-376q0 -162 -163 -162h-2897zM3238 171v357q0 62 -24.5 87.5t-85.5 25.5h-2870q-57 0 -83.5 -26t-26.5 -87v-356q0 -63 24.5 -88t85.5 -25h2870q61 0 85.5 25t24.5 87z
M2002 872l-338 -113h-98l284 113h152z" />
    <glyph glyph-name="Ocircumflex" unicode="&#xd4;" horiz-adv-x="3386" 
d="M244 0q-83 0 -122.5 40t-39.5 122v376q0 82 39.5 122t122.5 40h2897q84 0 123.5 -40t39.5 -122v-376q0 -162 -163 -162h-2897zM3238 171v357q0 62 -24.5 87.5t-85.5 25.5h-2870q-57 0 -83.5 -26t-26.5 -87v-356q0 -63 24.5 -88t85.5 -25h2870q61 0 85.5 25t24.5 87z
M1692 840l-256 -81h-85l282 113h118l282 -113h-85z" />
    <glyph glyph-name="Otilde" unicode="&#xd5;" horiz-adv-x="3386" 
d="M244 0q-83 0 -122.5 40t-39.5 122v376q0 82 39.5 122t122.5 40h2897q84 0 123.5 -40t39.5 -122v-376q0 -162 -163 -162h-2897zM3238 171v357q0 62 -24.5 87.5t-85.5 25.5h-2870q-57 0 -83.5 -26t-26.5 -87v-356q0 -63 24.5 -88t85.5 -25h2870q61 0 85.5 25t24.5 87z
M1387 767v47q83 63 163 63q53 0 146 -37t143 -37q79 0 158 64v-47q-82 -62 -164 -62q-53 0 -146.5 36t-142.5 36q-78 0 -157 -63z" />
    <glyph glyph-name="Odieresis" unicode="&#xd6;" horiz-adv-x="3386" 
d="M244 0q-83 0 -122.5 40t-39.5 122v376q0 82 39.5 122t122.5 40h2897q84 0 123.5 -40t39.5 -122v-376q0 -162 -163 -162h-2897zM3238 171v357q0 62 -24.5 87.5t-85.5 25.5h-2870q-57 0 -83.5 -26t-26.5 -87v-356q0 -63 24.5 -88t85.5 -25h2870q61 0 85.5 25t24.5 87z
M1518 839v-54h-123v54h123zM1991 839v-54h-123v54h123z" />
    <glyph glyph-name="multiply" unicode="&#xd7;" horiz-adv-x="3366" 
d="M1761 322l343 -322h-80l-342 322l-341 -322h-80l342 322h-1521v56h1521l-342 322h80l341 -322l342 322h80l-343 -322h1523v-56h-1523z" />
    <glyph glyph-name="Oslash" unicode="&#xd8;" horiz-adv-x="3386" 
d="M244 0q-83 0 -122.5 40t-39.5 122v376q0 82 39.5 122t122.5 40h2897q84 0 123.5 -40t39.5 -122v-376q0 -162 -163 -162h-2897zM267 59l2603 582h-2612q-57 0 -83.5 -26t-26.5 -87v-356q0 -63 24.5 -88t85.5 -25h9zM3238 171v357q0 62 -24.5 87.5t-85.5 25.5h-5
l-2603 -582h2608q61 0 85.5 25t24.5 87z" />
    <glyph glyph-name="Ugrave" unicode="&#xd9;" horiz-adv-x="3396" 
d="M255 0q-84 0 -123.5 40t-39.5 122v538h66v-528q0 -62 24.5 -87.5t85.5 -25.5h2860q61 0 85.5 25.5t24.5 87.5v528h66v-538q0 -82 -39.5 -122t-123.5 -40h-2886zM1724 759l-332 113h144l286 -113h-98z" />
    <glyph glyph-name="Uacute" unicode="&#xda;" horiz-adv-x="3396" 
d="M255 0q-84 0 -123.5 40t-39.5 122v538h66v-528q0 -62 24.5 -87.5t85.5 -25.5h2860q61 0 85.5 25.5t24.5 87.5v528h66v-538q0 -82 -39.5 -122t-123.5 -40h-2886zM1998 872l-338 -113h-98l284 113h152z" />
    <glyph glyph-name="Ucircumflex" unicode="&#xdb;" horiz-adv-x="3396" 
d="M255 0q-84 0 -123.5 40t-39.5 122v538h66v-528q0 -62 24.5 -87.5t85.5 -25.5h2860q61 0 85.5 25.5t24.5 87.5v528h66v-538q0 -82 -39.5 -122t-123.5 -40h-2886zM1698 840l-256 -81h-85l282 113h118l282 -113h-85z" />
    <glyph glyph-name="Udieresis" unicode="&#xdc;" horiz-adv-x="3396" 
d="M255 0q-84 0 -123.5 40t-39.5 122v538h66v-528q0 -62 24.5 -87.5t85.5 -25.5h2860q61 0 85.5 25.5t24.5 87.5v528h66v-538q0 -82 -39.5 -122t-123.5 -40h-2886zM1523 839v-54h-123v54h123zM1996 839v-54h-123v54h123z" />
    <glyph glyph-name="Yacute" unicode="&#xdd;" horiz-adv-x="3347" 
d="M3218 700h66v-217q0 -82 -39.5 -122t-123.5 -40h-1415v-321h-66v321h-1415q-83 0 -122.5 40t-39.5 122v217h66v-208q0 -62 24.5 -87.5t84.5 -25.5h2870q61 0 85.5 25.5t24.5 87.5v208zM1975 872l-338 -113h-98l284 113h152z" />
    <glyph glyph-name="Thorn" unicode="&#xde;" horiz-adv-x="3352" 
d="M102 0v700h66v-97h2977q82 0 120.5 -39t38.5 -120v-61q0 -81 -38.5 -120t-120.5 -39h-2977v-224h-66zM3238 436q0 58 -24.5 83t-79.5 25h-2966v-262h2966q55 0 79.5 25t24.5 83v46z" />
    <glyph glyph-name="germandbls" unicode="&#xdf;" horiz-adv-x="3033" 
d="M2821 273h-2252v57h2252q46 0 64.5 17.5t18.5 62.5v49q0 47 -20 67t-67 20h-2536q-68 0 -99 -30t-31 -100v-415h-65v419q0 94 45 138.5t139 44.5h2561q73 0 105.5 -33t32.5 -106v-46q0 -56 -22 -84t-77 -33q55 -5 77 -33t22 -84v-45q0 -73 -33 -106t-105 -33h-2262v57
h2248q47 0 67 20t20 67v48q0 45 -18.5 63t-64.5 18z" />
    <glyph glyph-name="agrave" unicode="&#xe0;" 
d="M2868 330v108q0 59 -24.5 83.5t-82.5 24.5h-2670v57h2682q83 0 121.5 -39t38.5 -122v-281q0 -83 -38.5 -122t-121.5 -39h-2572q-73 0 -106.5 34t-33.5 109v44q0 75 33.5 109t106.5 34h2667zM2868 273h-2655q-47 0 -67 -20t-20 -67v-42q0 -47 20 -67t67 -20h2548
q58 0 82.5 24.5t24.5 83.5v108zM1522 657l-332 113h144l286 -113h-98z" />
    <glyph glyph-name="aacute" unicode="&#xe1;" 
d="M2868 330v108q0 59 -24.5 83.5t-82.5 24.5h-2670v57h2682q83 0 121.5 -39t38.5 -122v-281q0 -83 -38.5 -122t-121.5 -39h-2572q-73 0 -106.5 34t-33.5 109v44q0 75 33.5 109t106.5 34h2667zM2868 273h-2655q-47 0 -67 -20t-20 -67v-42q0 -47 20 -67t67 -20h2548
q58 0 82.5 24.5t24.5 83.5v108zM1779 770l-338 -113h-98l284 113h152z" />
    <glyph glyph-name="acircumflex" unicode="&#xe2;" 
d="M2868 330v108q0 59 -24.5 83.5t-82.5 24.5h-2670v57h2682q83 0 121.5 -39t38.5 -122v-281q0 -83 -38.5 -122t-121.5 -39h-2572q-73 0 -106.5 34t-33.5 109v44q0 75 33.5 109t106.5 34h2667zM2868 273h-2655q-47 0 -67 -20t-20 -67v-42q0 -47 20 -67t67 -20h2548
q58 0 82.5 24.5t24.5 83.5v108zM1495 738l-256 -81h-85l282 113h118l282 -113h-85z" />
    <glyph glyph-name="atilde" unicode="&#xe3;" 
d="M2868 330v108q0 59 -24.5 83.5t-82.5 24.5h-2670v57h2682q83 0 121.5 -39t38.5 -122v-281q0 -83 -38.5 -122t-121.5 -39h-2572q-73 0 -106.5 34t-33.5 109v44q0 75 33.5 109t106.5 34h2667zM2868 273h-2655q-47 0 -67 -20t-20 -67v-42q0 -47 20 -67t67 -20h2548
q58 0 82.5 24.5t24.5 83.5v108zM1190 665v47q83 63 163 63q53 0 146 -37t143 -37q79 0 158 64v-47q-82 -62 -164 -62q-53 0 -146.5 36t-142.5 36q-78 0 -157 -63z" />
    <glyph glyph-name="adieresis" unicode="&#xe4;" 
d="M2868 330v108q0 59 -24.5 83.5t-82.5 24.5h-2670v57h2682q83 0 121.5 -39t38.5 -122v-281q0 -83 -38.5 -122t-121.5 -39h-2572q-73 0 -106.5 34t-33.5 109v44q0 75 33.5 109t106.5 34h2667zM2868 273h-2655q-47 0 -67 -20t-20 -67v-42q0 -47 20 -67t67 -20h2548
q58 0 82.5 24.5t24.5 83.5v108zM1320 737v-54h-123v54h123zM1793 737v-54h-123v54h123z" />
    <glyph glyph-name="aring" unicode="&#xe5;" 
d="M2868 330v108q0 59 -24.5 83.5t-82.5 24.5h-2670v57h2682q83 0 121.5 -39t38.5 -122v-281q0 -83 -38.5 -122t-121.5 -39h-2572q-73 0 -106.5 34t-33.5 109v44q0 75 33.5 109t106.5 34h2667zM2868 273h-2655q-47 0 -67 -20t-20 -67v-42q0 -47 20 -67t67 -20h2548
q58 0 82.5 24.5t24.5 83.5v108zM1333 718q0 -31 45 -31h234q45 0 45 31q0 30 -45 30h-234q-45 0 -45 -30zM1608 655h-226q-84 0 -84 63q0 61 84 61h226q84 0 84 -61q0 -63 -84 -63z" />
    <glyph glyph-name="ae" unicode="&#xe6;" horiz-adv-x="4501" 
d="M4375 417v42q0 47 -20 67t-67 20h-1916q-89 0 -89 -92v-124h2005q47 0 67 20t20 67zM126 186v-42q0 -47 20 -67t67 -20h1916q89 0 89 92v124h-2005q-47 0 -67 -20t-20 -67zM2105 0h-1904q-73 0 -106.5 34t-33.5 109v44q0 75 33.5 109t106.5 34h2017v124q0 92 -89 92
h-2039v57h2015q70 0 104 -26.5t41 -86.5q8 60 42 86.5t104 26.5h1904q73 0 106.5 -34t33.5 -109v-45q0 -75 -33.5 -108.5t-106.5 -33.5h-2017v-124q0 -92 89 -92h2039v-57h-2015q-70 0 -104 26.5t-42 86.5q-7 -60 -41 -86.5t-104 -26.5z" />
    <glyph glyph-name="ccedilla" unicode="&#xe7;" horiz-adv-x="2932" 
d="M1500 0l-20 -51h221q57 0 83 -10.5t26 -40.5q0 -41 -34.5 -56.5t-113.5 -15.5h-462v48h468q51 0 70 6.5t19 25.5q0 16 -13 20.5t-53 4.5h-239l28 69h-1244q-82 0 -120.5 39t-38.5 122v281q0 83 38.5 122t120.5 39h2633v-57h-2620q-59 0 -83.5 -25t-24.5 -83v-273
q0 -59 24.5 -83.5t83.5 -24.5h2620v-57h-1369z" />
    <glyph glyph-name="egrave" unicode="&#xe8;" 
d="M2949 415q0 -75 -33.5 -108.5t-106.5 -33.5h-2668v-108q0 -59 26.5 -83.5t81.5 -24.5h2670v-57h-2683q-96 0 -127.5 48t-31.5 152v242q0 81 38 121t121 40h2573q74 0 107 -34t33 -109v-45zM2797 546h-2548q-38 0 -60 -8t-32.5 -31t-13 -47.5t-2.5 -74.5v-55h2656
q45 0 66 19t21 68v30q0 56 -17.5 77.5t-69.5 21.5zM1561 657l-332 113h144l286 -113h-98z" />
    <glyph glyph-name="eacute" unicode="&#xe9;" 
d="M2949 415q0 -75 -33.5 -108.5t-106.5 -33.5h-2668v-108q0 -59 26.5 -83.5t81.5 -24.5h2670v-57h-2683q-96 0 -127.5 48t-31.5 152v242q0 81 38 121t121 40h2573q74 0 107 -34t33 -109v-45zM2797 546h-2548q-38 0 -60 -8t-32.5 -31t-13 -47.5t-2.5 -74.5v-55h2656
q45 0 66 19t21 68v30q0 56 -17.5 77.5t-69.5 21.5zM1843 770l-338 -113h-98l284 113h152z" />
    <glyph glyph-name="ecircumflex" unicode="&#xea;" 
d="M2949 415q0 -75 -33.5 -108.5t-106.5 -33.5h-2668v-108q0 -59 26.5 -83.5t81.5 -24.5h2670v-57h-2683q-96 0 -127.5 48t-31.5 152v242q0 81 38 121t121 40h2573q74 0 107 -34t33 -109v-45zM2797 546h-2548q-38 0 -60 -8t-32.5 -31t-13 -47.5t-2.5 -74.5v-55h2656
q45 0 66 19t21 68v30q0 56 -17.5 77.5t-69.5 21.5zM1534 738l-256 -81h-85l282 113h118l282 -113h-85z" />
    <glyph glyph-name="edieresis" unicode="&#xeb;" 
d="M2949 415q0 -75 -33.5 -108.5t-106.5 -33.5h-2668v-108q0 -59 26.5 -83.5t81.5 -24.5h2670v-57h-2683q-96 0 -127.5 48t-31.5 152v242q0 81 38 121t121 40h2573q74 0 107 -34t33 -109v-45zM2797 546h-2548q-38 0 -60 -8t-32.5 -31t-13 -47.5t-2.5 -74.5v-55h2656
q45 0 66 19t21 68v30q0 56 -17.5 77.5t-69.5 21.5zM1359 737v-54h-123v54h123zM1832 737v-54h-123v54h123z" />
    <glyph glyph-name="igrave" unicode="&#xec;" horiz-adv-x="430" 
d="M213 657l-332 113h144l286 -113h-98zM253 57h144v-57h-157q-81 0 -116 35.5t-35 116.5v451h65v-446q0 -56 22 -78t77 -22z" />
    <glyph glyph-name="iacute" unicode="&#xed;" horiz-adv-x="430" 
d="M425 770l-338 -113h-98l284 113h152zM253 57h144v-57h-157q-81 0 -116 35.5t-35 116.5v451h65v-446q0 -56 22 -78t77 -22z" />
    <glyph glyph-name="icircumflex" unicode="&#xee;" horiz-adv-x="430" 
d="M253 57h144v-57h-157q-81 0 -116 35.5t-35 116.5v451h65v-446q0 -56 22 -78t77 -22zM121 738l-256 -81h-85l282 113h118l282 -113h-85z" />
    <glyph glyph-name="idieresis" unicode="&#xef;" horiz-adv-x="430" 
d="M332 737v-54h-123v54h123zM33 737v-54h-123v54h123zM253 57h144v-57h-157q-81 0 -116 35.5t-35 116.5v451h65v-446q0 -56 22 -78t77 -22z" />
    <glyph glyph-name="eth" unicode="&#xf0;" 
d="M236 563h2490q57 0 88.5 -18.5t44.5 -57.5v94q0 71 -31.5 101.5t-100.5 30.5h-1202v-86h-52v86h-1356v57h1356v50h52v-50h1209q98 0 144 -46t46 -144v-419q0 -83 -38.5 -122t-121.5 -39h-2528q-82 0 -120.5 39t-38.5 122v241q0 83 38.5 122t120.5 39zM2752 506h-2503
q-59 0 -83.5 -24.5t-24.5 -83.5v-233q0 -59 24.5 -83.5t83.5 -24.5h2503q58 0 82.5 24.5t24.5 83.5v233q0 59 -24 83.5t-83 24.5z" />
    <glyph glyph-name="ntilde" unicode="&#xf1;" 
d="M86 0v442q0 83 38.5 122t121.5 39h2518q83 0 121.5 -39t38.5 -122v-442h-65v438q0 59 -24.5 83.5t-83.5 24.5h-2492q-59 0 -83.5 -24.5t-24.5 -83.5v-438h-65zM1200 665v47q83 63 163 63q53 0 146 -37t143 -37q79 0 158 64v-47q-82 -62 -164 -62q-53 0 -146.5 36
t-142.5 36q-78 0 -157 -63z" />
    <glyph glyph-name="ograve" unicode="&#xf2;" horiz-adv-x="3001" 
d="M2764 603q83 0 121.5 -39t38.5 -122v-281q0 -83 -38.5 -122t-121.5 -39h-2528q-82 0 -120.5 39t-38.5 122v281q0 83 38.5 122t120.5 39h2528zM2752 57q58 0 82.5 24.5t24.5 83.5v273q0 59 -24.5 83.5t-82.5 24.5h-2503q-59 0 -83.5 -25t-24.5 -83v-273q0 -59 24.5 -83.5
t83.5 -24.5h2503zM1527 657l-332 113h144l286 -113h-98z" />
    <glyph glyph-name="oacute" unicode="&#xf3;" horiz-adv-x="3001" 
d="M2764 603q83 0 121.5 -39t38.5 -122v-281q0 -83 -38.5 -122t-121.5 -39h-2528q-82 0 -120.5 39t-38.5 122v281q0 83 38.5 122t120.5 39h2528zM2752 57q58 0 82.5 24.5t24.5 83.5v273q0 59 -24.5 83.5t-82.5 24.5h-2503q-59 0 -83.5 -25t-24.5 -83v-273q0 -59 24.5 -83.5
t83.5 -24.5h2503zM1809 770l-338 -113h-98l284 113h152z" />
    <glyph glyph-name="ocircumflex" unicode="&#xf4;" horiz-adv-x="3001" 
d="M2764 603q83 0 121.5 -39t38.5 -122v-281q0 -83 -38.5 -122t-121.5 -39h-2528q-82 0 -120.5 39t-38.5 122v281q0 83 38.5 122t120.5 39h2528zM2752 57q58 0 82.5 24.5t24.5 83.5v273q0 59 -24.5 83.5t-82.5 24.5h-2503q-59 0 -83.5 -25t-24.5 -83v-273q0 -59 24.5 -83.5
t83.5 -24.5h2503zM1500 738l-256 -81h-85l282 113h118l282 -113h-85z" />
    <glyph glyph-name="otilde" unicode="&#xf5;" horiz-adv-x="3001" 
d="M2764 603q83 0 121.5 -39t38.5 -122v-281q0 -83 -38.5 -122t-121.5 -39h-2528q-82 0 -120.5 39t-38.5 122v281q0 83 38.5 122t120.5 39h2528zM2752 57q58 0 82.5 24.5t24.5 83.5v273q0 59 -24.5 83.5t-82.5 24.5h-2503q-59 0 -83.5 -25t-24.5 -83v-273q0 -59 24.5 -83.5
t83.5 -24.5h2503zM1195 665v47q83 63 163 63q53 0 146 -37t143 -37q79 0 158 64v-47q-82 -62 -164 -62q-53 0 -146.5 36t-142.5 36q-78 0 -157 -63z" />
    <glyph glyph-name="odieresis" unicode="&#xf6;" horiz-adv-x="3001" 
d="M2764 603q83 0 121.5 -39t38.5 -122v-281q0 -83 -38.5 -122t-121.5 -39h-2528q-82 0 -120.5 39t-38.5 122v281q0 83 38.5 122t120.5 39h2528zM2752 57q58 0 82.5 24.5t24.5 83.5v273q0 59 -24.5 83.5t-82.5 24.5h-2503q-59 0 -83.5 -25t-24.5 -83v-273q0 -59 24.5 -83.5
t83.5 -24.5h2503zM1325 737v-54h-123v54h123zM1798 737v-54h-123v54h123z" />
    <glyph glyph-name="divide" unicode="&#xf7;" horiz-adv-x="3366" 
d="M1739 126v-68h-113v68h113zM1739 642v-68h-113v68h113zM3284 322h-3202v56h3202v-56z" />
    <glyph glyph-name="oslash" unicode="&#xf8;" horiz-adv-x="3001" 
d="M2764 603q83 0 121.5 -39t38.5 -122v-281q0 -83 -38.5 -122t-121.5 -39h-2528q-82 0 -120.5 39t-38.5 122v281q0 83 38.5 122t120.5 39h2528zM2752 57q58 0 82.5 24.5t24.5 83.5v273q0 56 -22.5 81t-74.5 27l-2274 -489h2264zM237 57l2275 489h-2263q-59 0 -83.5 -25
t-24.5 -83v-273q0 -56 22 -81t74 -27z" />
    <glyph glyph-name="ugrave" unicode="&#xf9;" 
d="M2751 57q59 0 83.5 24.5t24.5 83.5v438h65v-442q0 -83 -38.5 -122t-121.5 -39h-2518q-83 0 -121.5 39t-38.5 122v442h65v-438q0 -59 24.5 -83.5t83.5 -24.5h2492zM1539 657l-332 113h144l286 -113h-98z" />
    <glyph glyph-name="uacute" unicode="&#xfa;" 
d="M2751 57q59 0 83.5 24.5t24.5 83.5v438h65v-442q0 -83 -38.5 -122t-121.5 -39h-2518q-83 0 -121.5 39t-38.5 122v442h65v-438q0 -59 24.5 -83.5t83.5 -24.5h2492zM1814 770l-338 -113h-98l284 113h152z" />
    <glyph glyph-name="ucircumflex" unicode="&#xfb;" 
d="M2751 57q59 0 83.5 24.5t24.5 83.5v438h65v-442q0 -83 -38.5 -122t-121.5 -39h-2518q-83 0 -121.5 39t-38.5 122v442h65v-438q0 -59 24.5 -83.5t83.5 -24.5h2492zM1505 738l-256 -81h-85l282 113h118l282 -113h-85z" />
    <glyph glyph-name="udieresis" unicode="&#xfc;" 
d="M2751 57q59 0 83.5 24.5t24.5 83.5v438h65v-442q0 -83 -38.5 -122t-121.5 -39h-2518q-83 0 -121.5 39t-38.5 122v442h65v-438q0 -59 24.5 -83.5t83.5 -24.5h2492zM1330 737v-54h-123v54h123zM1803 737v-54h-123v54h123z" />
    <glyph glyph-name="yacute" unicode="&#xfd;" horiz-adv-x="3020" 
d="M2734 -167h-2608v57h2601q69 0 100.5 30.5t31.5 101.5v94q-13 -39 -44.5 -57.5t-88.5 -18.5h-2480q-83 0 -121.5 39t-38.5 122v402h65v-398q0 -59 24.5 -83.5t83.5 -24.5h2492q59 0 83.5 24.5t24.5 83.5v398h65v-580q0 -97 -46 -143.5t-144 -46.5zM1819 770l-338 -113
h-98l284 113h152z" />
    <glyph glyph-name="thorn" unicode="&#xfe;" horiz-adv-x="3020" 
d="M161 770v-167h2623q82 0 120.5 -39t38.5 -122v-281q0 -83 -38.5 -122t-120.5 -39h-2490q-109 0 -133 76v-243h-65v937h65zM161 546v-381q0 -59 24.5 -83.5t83.5 -24.5h2502q59 0 83.5 24.5t24.5 83.5v273q0 59 -24.5 83.5t-83.5 24.5h-2610z" />
    <glyph glyph-name="ydieresis" unicode="&#xff;" horiz-adv-x="3020" 
d="M2734 -167h-2608v57h2601q69 0 100.5 30.5t31.5 101.5v94q-13 -39 -44.5 -57.5t-88.5 -18.5h-2480q-83 0 -121.5 39t-38.5 122v402h65v-398q0 -59 24.5 -83.5t83.5 -24.5h2492q59 0 83.5 24.5t24.5 83.5v398h65v-580q0 -97 -46 -143.5t-144 -46.5zM1335 737v-54h-123v54
h123zM1808 737v-54h-123v54h123z" />
    <glyph glyph-name="Amacron" unicode="&#x100;" horiz-adv-x="3396" 
d="M3304 0h-66v321h-3080v-321h-66v538q0 82 39.5 122t123.5 40h2886q84 0 123.5 -40t39.5 -122v-538zM3128 641h-2860q-61 0 -85.5 -25.5t-24.5 -87.5v-149h3080v149q0 62 -24.5 87.5t-85.5 25.5zM2004 797h-612v40h612v-40z" />
    <glyph glyph-name="amacron" unicode="&#x101;" 
d="M2868 330v108q0 59 -24.5 83.5t-82.5 24.5h-2670v57h2682q83 0 121.5 -39t38.5 -122v-281q0 -83 -38.5 -122t-121.5 -39h-2572q-73 0 -106.5 34t-33.5 109v44q0 75 33.5 109t106.5 34h2667zM2868 273h-2655q-47 0 -67 -20t-20 -67v-42q0 -47 20 -67t67 -20h2548
q58 0 82.5 24.5t24.5 83.5v108zM1801 695h-612v40h612v-40z" />
    <glyph glyph-name="Abreve" unicode="&#x102;" horiz-adv-x="3396" 
d="M3304 0h-66v321h-3080v-321h-66v538q0 82 39.5 122t123.5 40h2886q84 0 123.5 -40t39.5 -122v-538zM3128 641h-2860q-61 0 -85.5 -25.5t-24.5 -87.5v-149h3080v149q0 62 -24.5 87.5t-85.5 25.5zM1393 842v43q119 -82 305 -82t305 82v-43q-120 -87 -305 -87t-305 87z" />
    <glyph glyph-name="abreve" unicode="&#x103;" 
d="M2868 330v108q0 59 -24.5 83.5t-82.5 24.5h-2670v57h2682q83 0 121.5 -39t38.5 -122v-281q0 -83 -38.5 -122t-121.5 -39h-2572q-73 0 -106.5 34t-33.5 109v44q0 75 33.5 109t106.5 34h2667zM2868 273h-2655q-47 0 -67 -20t-20 -67v-42q0 -47 20 -67t67 -20h2548
q58 0 82.5 24.5t24.5 83.5v108zM1190 740v43q119 -82 305 -82t305 82v-43q-120 -87 -305 -87t-305 87z" />
    <glyph glyph-name="Aogonek" unicode="&#x104;" horiz-adv-x="3396" 
d="M3275 0v-66h-25q-210 0 -318 -5t-139 -13.5t-31 -24.5q0 -9 10 -13t39 -4h514v-48h-516q-53 0 -74.5 11t-21.5 38q0 26 14 39.5t69.5 23.5t154 13t279.5 3h23v46h-15v321h-3080v-321h-66v538q0 82 39.5 122t123.5 40h2886q84 0 123.5 -40t39.5 -122v-538h-29zM3128 641
h-2860q-61 0 -85.5 -25.5t-24.5 -87.5v-149h3080v149q0 62 -24.5 87.5t-85.5 25.5z" />
    <glyph glyph-name="aogonek" unicode="&#x105;" 
d="M2904 -66h-25q-210 0 -318 -5t-139 -13.5t-31 -24.5q0 -9 10 -13t39 -4h514v-48h-516q-53 0 -74.5 11t-21.5 38q0 26 14 39.5t69.5 23.5t154 13t279.5 3h23v74q-38 -28 -109 -28h-2572q-73 0 -106.5 34t-33.5 109v44q0 75 33.5 109t106.5 34h2667v108q0 59 -24.5 83.5
t-82.5 24.5h-2670v57h2682q83 0 121.5 -39t38.5 -122v-281q0 -71 -29 -111v-116zM2868 273h-2655q-47 0 -67 -20t-20 -67v-42q0 -47 20 -67t67 -20h2548q58 0 82.5 24.5t24.5 83.5v108z" />
    <glyph glyph-name="Cacute" unicode="&#x106;" horiz-adv-x="3285" 
d="M244 0q-83 0 -122.5 40t-39.5 122v376q0 82 39.5 122t122.5 40h2979v-59h-2965q-61 0 -85.5 -25.5t-24.5 -87.5v-356q0 -62 24.5 -87.5t85.5 -25.5h2965v-59h-2979zM2004 872l-338 -113h-98l284 113h152z" />
    <glyph glyph-name="cacute" unicode="&#x107;" horiz-adv-x="2932" 
d="M236 0q-82 0 -120.5 39t-38.5 122v281q0 83 38.5 122t120.5 39h2633v-57h-2620q-59 0 -83.5 -25t-24.5 -83v-273q0 -59 24.5 -83.5t83.5 -24.5h2620v-57h-2633zM1825 770l-338 -113h-98l284 113h152z" />
    <glyph glyph-name="Ccircumflex" unicode="&#x108;" horiz-adv-x="3285" 
d="M244 0q-83 0 -122.5 40t-39.5 122v376q0 82 39.5 122t122.5 40h2979v-59h-2965q-61 0 -85.5 -25.5t-24.5 -87.5v-356q0 -62 24.5 -87.5t85.5 -25.5h2965v-59h-2979zM1695 840l-256 -81h-85l282 113h118l282 -113h-85z" />
    <glyph glyph-name="ccircumflex" unicode="&#x109;" horiz-adv-x="2932" 
d="M236 0q-82 0 -120.5 39t-38.5 122v281q0 83 38.5 122t120.5 39h2633v-57h-2620q-59 0 -83.5 -25t-24.5 -83v-273q0 -59 24.5 -83.5t83.5 -24.5h2620v-57h-2633zM1516 738l-256 -81h-85l282 113h118l282 -113h-85z" />
    <glyph glyph-name="Cdotaccent" unicode="&#x10a;" horiz-adv-x="3285" 
d="M244 0q-83 0 -122.5 40t-39.5 122v376q0 82 39.5 122t122.5 40h2979v-59h-2965q-61 0 -85.5 -25.5t-24.5 -87.5v-356q0 -62 24.5 -87.5t85.5 -25.5h2965v-59h-2979zM1756 839v-54h-122v54h122z" />
    <glyph glyph-name="cdotaccent" unicode="&#x10b;" horiz-adv-x="2932" 
d="M236 0q-82 0 -120.5 39t-38.5 122v281q0 83 38.5 122t120.5 39h2633v-57h-2620q-59 0 -83.5 -25t-24.5 -83v-273q0 -59 24.5 -83.5t83.5 -24.5h2620v-57h-2633zM1577 737v-54h-122v54h122z" />
    <glyph glyph-name="Ccaron" unicode="&#x10c;" horiz-adv-x="3285" 
d="M244 0q-83 0 -122.5 40t-39.5 122v376q0 82 39.5 122t122.5 40h2979v-59h-2965q-61 0 -85.5 -25.5t-24.5 -87.5v-356q0 -62 24.5 -87.5t85.5 -25.5h2965v-59h-2979zM1439 872l256 -81l256 81h85l-282 -113h-118l-282 113h85z" />
    <glyph glyph-name="ccaron" unicode="&#x10d;" horiz-adv-x="2932" 
d="M236 0q-82 0 -120.5 39t-38.5 122v281q0 83 38.5 122t120.5 39h2633v-57h-2620q-59 0 -83.5 -25t-24.5 -83v-273q0 -59 24.5 -83.5t83.5 -24.5h2620v-57h-2633zM1260 770l256 -81l256 81h85l-282 -113h-118l-282 113h85z" />
    <glyph glyph-name="Dcaron" unicode="&#x10e;" horiz-adv-x="3391" 
d="M3088 700q110 0 168 -57.5t58 -167.5v-250q0 -110 -58 -167.5t-168 -57.5h-2986v700h2986zM3080 59q84 0 126 40.5t42 127.5v246q0 87 -42 127.5t-126 40.5h-2912v-582h2912zM1424 872l256 -81l256 81h85l-282 -113h-118l-282 113h85z" />
    <glyph glyph-name="dcaron" unicode="&#x10f;" horiz-adv-x="3255" 
d="M2924 770v-609q0 -83 -38.5 -122t-121.5 -39h-2528q-82 0 -120.5 39t-38.5 122v281q0 83 38.5 122t120.5 39h2490q109 0 133 -76v243h65zM2859 165v273q0 59 -24.5 83.5t-82.5 24.5h-2503q-59 0 -83.5 -24.5t-24.5 -83.5v-273q0 -59 24.5 -83.5t83.5 -24.5h2503
q58 0 82.5 24.5t24.5 83.5zM3189 700v-65q0 -99 -88 -99h-25v37h23q37 0 37 45v17h-60v65h113z" />
    <glyph glyph-name="Dcroat" unicode="&#x110;" horiz-adv-x="3391" 
d="M3088 700q110 0 168 -57.5t58 -167.5v-250q0 -110 -58 -167.5t-168 -57.5h-2986v321h-85v58h85v321h2986zM3080 59q84 0 126 40.5t42 127.5v246q0 87 -42 127.5t-126 40.5h-2912v-262h471v-58h-471v-262h2912z" />
    <glyph glyph-name="dcroat" unicode="&#x111;" 
d="M2924 770v-69h86v-40h-86v-500q0 -83 -38.5 -122t-121.5 -39h-2528q-82 0 -120.5 39t-38.5 122v281q0 83 38.5 122t120.5 39h2490q109 0 133 -76v134h-460v40h460v69h65zM2859 165v273q0 59 -24.5 83.5t-82.5 24.5h-2503q-59 0 -83.5 -24.5t-24.5 -83.5v-273
q0 -59 24.5 -83.5t83.5 -24.5h2503q58 0 82.5 24.5t24.5 83.5z" />
    <glyph glyph-name="Emacron" unicode="&#x112;" horiz-adv-x="3356" 
d="M102 0v700h3192v-59h-3126v-262h3001v-58h-3001v-262h3126v-59h-3192zM2021 797h-612v40h612v-40z" />
    <glyph glyph-name="emacron" unicode="&#x113;" 
d="M2949 415q0 -75 -33.5 -108.5t-106.5 -33.5h-2668v-108q0 -59 26.5 -83.5t81.5 -24.5h2670v-57h-2683q-96 0 -127.5 48t-31.5 152v242q0 81 38 121t121 40h2573q74 0 107 -34t33 -109v-45zM2797 546h-2548q-38 0 -60 -8t-32.5 -31t-13 -47.5t-2.5 -74.5v-55h2656
q45 0 66 19t21 68v30q0 56 -17.5 77.5t-69.5 21.5zM1840 695h-612v40h612v-40z" />
    <glyph glyph-name="Ebreve" unicode="&#x114;" horiz-adv-x="3356" 
d="M102 0v700h3192v-59h-3126v-262h3001v-58h-3001v-262h3126v-59h-3192zM1410 842v43q119 -82 305 -82t305 82v-43q-120 -87 -305 -87t-305 87z" />
    <glyph glyph-name="ebreve" unicode="&#x115;" 
d="M2949 415q0 -75 -33.5 -108.5t-106.5 -33.5h-2668v-108q0 -59 26.5 -83.5t81.5 -24.5h2670v-57h-2683q-96 0 -127.5 48t-31.5 152v242q0 81 38 121t121 40h2573q74 0 107 -34t33 -109v-45zM2797 546h-2548q-38 0 -60 -8t-32.5 -31t-13 -47.5t-2.5 -74.5v-55h2656
q45 0 66 19t21 68v30q0 56 -17.5 77.5t-69.5 21.5zM1229 740v43q119 -82 305 -82t305 82v-43q-120 -87 -305 -87t-305 87z" />
    <glyph glyph-name="Edotaccent" unicode="&#x116;" horiz-adv-x="3356" 
d="M102 0v700h3192v-59h-3126v-262h3001v-58h-3001v-262h3126v-59h-3192zM1776 839v-54h-122v54h122z" />
    <glyph glyph-name="edotaccent" unicode="&#x117;" 
d="M2949 415q0 -75 -33.5 -108.5t-106.5 -33.5h-2668v-108q0 -59 26.5 -83.5t81.5 -24.5h2670v-57h-2683q-96 0 -127.5 48t-31.5 152v242q0 81 38 121t121 40h2573q74 0 107 -34t33 -109v-45zM2797 546h-2548q-38 0 -60 -8t-32.5 -31t-13 -47.5t-2.5 -74.5v-55h2656
q45 0 66 19t21 68v30q0 56 -17.5 77.5t-69.5 21.5zM1595 737v-54h-122v54h122z" />
    <glyph glyph-name="Eogonek" unicode="&#x118;" horiz-adv-x="3356" 
d="M3244 0v-66h-25q-210 0 -318 -5t-139 -13.5t-31 -24.5q0 -9 10 -13t39 -4h514v-48h-516q-53 0 -74.5 11t-21.5 38q0 26 14 39.5t69.5 23.5t154 13t279.5 3h23v46h-3120v700h3192v-59h-3126v-262h3001v-58h-3001v-262h3126v-59h-50z" />
    <glyph glyph-name="eogonek" unicode="&#x119;" 
d="M2797 546h-2548q-38 0 -60 -8t-32.5 -31t-13 -47.5t-2.5 -74.5v-55h2656q45 0 66 19t21 68v30q0 56 -17.5 77.5t-69.5 21.5zM2859 -46v46h-2623q-96 0 -127.5 48t-31.5 152v242q0 81 38 121t121 40h2573q74 0 107 -34t33 -109v-45q0 -75 -33.5 -108.5t-106.5 -33.5h-2668
v-108q0 -59 26.5 -83.5t81.5 -24.5h2670v-57h-38v-66h-37q-210 0 -318 -5t-139 -13.5t-31 -24.5q0 -9 10 -13t39 -4h514v-48h-516q-53 0 -74.5 11t-21.5 38q0 26 14 39.5t69.5 23.5t154 13t279.5 3h35z" />
    <glyph glyph-name="Ecaron" unicode="&#x11a;" horiz-adv-x="3356" 
d="M102 0v700h3192v-59h-3126v-262h3001v-58h-3001v-262h3126v-59h-3192zM1459 872l256 -81l256 81h85l-282 -113h-118l-282 113h85z" />
    <glyph glyph-name="ecaron" unicode="&#x11b;" 
d="M2949 415q0 -75 -33.5 -108.5t-106.5 -33.5h-2668v-108q0 -59 26.5 -83.5t81.5 -24.5h2670v-57h-2683q-96 0 -127.5 48t-31.5 152v242q0 81 38 121t121 40h2573q74 0 107 -34t33 -109v-45zM2797 546h-2548q-38 0 -60 -8t-32.5 -31t-13 -47.5t-2.5 -74.5v-55h2656
q45 0 66 19t21 68v30q0 56 -17.5 77.5t-69.5 21.5zM1278 770l256 -81l256 81h85l-282 -113h-118l-282 113h85z" />
    <glyph glyph-name="Gcircumflex" unicode="&#x11c;" horiz-adv-x="3379" 
d="M3138 59q59 0 79.5 20.5t20.5 80.5v161h-1817v58h1883v-229q0 -80 -34.5 -115t-115.5 -35h-2910q-83 0 -122.5 40t-39.5 122v376q0 82 39.5 122t122.5 40h3035v-59h-3021q-61 0 -85.5 -25.5t-24.5 -87.5v-356q0 -62 24.5 -87.5t85.5 -25.5h2880zM1708 840l-256 -81h-85
l282 113h118l282 -113h-85z" />
    <glyph glyph-name="gcircumflex" unicode="&#x11d;" 
d="M2752 97q58 0 82.5 24.5t24.5 83.5v233q0 59 -24.5 83.5t-82.5 24.5h-2503q-59 0 -83.5 -25t-24.5 -83v-233q0 -59 24.5 -83.5t83.5 -24.5h2503zM2726 40h-2490q-82 0 -120.5 39t-38.5 122v241q0 83 38.5 122t120.5 39h2528q83 0 121.5 -39t38.5 -122v-419
q0 -97 -46 -143.5t-144 -46.5h-2617v57h2610q69 0 100.5 30.5t31.5 101.5v94q-13 -39 -44.5 -57.5t-88.5 -18.5zM1505 738l-256 -81h-85l282 113h118l282 -113h-85z" />
    <glyph glyph-name="Gbreve" unicode="&#x11e;" horiz-adv-x="3379" 
d="M3138 59q59 0 79.5 20.5t20.5 80.5v161h-1817v58h1883v-229q0 -80 -34.5 -115t-115.5 -35h-2910q-83 0 -122.5 40t-39.5 122v376q0 82 39.5 122t122.5 40h3035v-59h-3021q-61 0 -85.5 -25.5t-24.5 -87.5v-356q0 -62 24.5 -87.5t85.5 -25.5h2880zM1403 842v43
q119 -82 305 -82t305 82v-43q-120 -87 -305 -87t-305 87z" />
    <glyph glyph-name="gbreve" unicode="&#x11f;" 
d="M2752 97q58 0 82.5 24.5t24.5 83.5v233q0 59 -24.5 83.5t-82.5 24.5h-2503q-59 0 -83.5 -25t-24.5 -83v-233q0 -59 24.5 -83.5t83.5 -24.5h2503zM2726 40h-2490q-82 0 -120.5 39t-38.5 122v241q0 83 38.5 122t120.5 39h2528q83 0 121.5 -39t38.5 -122v-419
q0 -97 -46 -143.5t-144 -46.5h-2617v57h2610q69 0 100.5 30.5t31.5 101.5v94q-13 -39 -44.5 -57.5t-88.5 -18.5zM1200 740v43q119 -82 305 -82t305 82v-43q-120 -87 -305 -87t-305 87z" />
    <glyph glyph-name="Gdotaccent" unicode="&#x120;" horiz-adv-x="3379" 
d="M3138 59q59 0 79.5 20.5t20.5 80.5v161h-1817v58h1883v-229q0 -80 -34.5 -115t-115.5 -35h-2910q-83 0 -122.5 40t-39.5 122v376q0 82 39.5 122t122.5 40h3035v-59h-3021q-61 0 -85.5 -25.5t-24.5 -87.5v-356q0 -62 24.5 -87.5t85.5 -25.5h2880zM1769 839v-54h-122v54
h122z" />
    <glyph glyph-name="gdotaccent" unicode="&#x121;" 
d="M2752 97q58 0 82.5 24.5t24.5 83.5v233q0 59 -24.5 83.5t-82.5 24.5h-2503q-59 0 -83.5 -25t-24.5 -83v-233q0 -59 24.5 -83.5t83.5 -24.5h2503zM2726 40h-2490q-82 0 -120.5 39t-38.5 122v241q0 83 38.5 122t120.5 39h2528q83 0 121.5 -39t38.5 -122v-419
q0 -97 -46 -143.5t-144 -46.5h-2617v57h2610q69 0 100.5 30.5t31.5 101.5v94q-13 -39 -44.5 -57.5t-88.5 -18.5zM1566 737v-54h-122v54h122z" />
    <glyph glyph-name="uni0122" unicode="&#x122;" horiz-adv-x="3379" 
d="M3138 59q59 0 79.5 20.5t20.5 80.5v161h-1817v58h1883v-229q0 -80 -34.5 -115t-115.5 -35h-2910q-83 0 -122.5 40t-39.5 122v376q0 82 39.5 122t122.5 40h3035v-59h-3021q-61 0 -85.5 -25.5t-24.5 -87.5v-356q0 -62 24.5 -87.5t85.5 -25.5h2880zM1769 -89v-49
q0 -86 -75 -86h-39v27h38q32 0 32 40v15h-78v53h122z" />
    <glyph glyph-name="uni0123" unicode="&#x123;" 
d="M1444 684v49q0 86 75 86h39v-27h-38q-32 0 -32 -40v-15h78v-53h-122zM2752 97q58 0 82.5 24.5t24.5 83.5v233q0 59 -24.5 83.5t-82.5 24.5h-2503q-59 0 -83.5 -25t-24.5 -83v-233q0 -59 24.5 -83.5t83.5 -24.5h2503zM2726 40h-2490q-82 0 -120.5 39t-38.5 122v241
q0 83 38.5 122t120.5 39h2528q83 0 121.5 -39t38.5 -122v-419q0 -97 -46 -143.5t-144 -46.5h-2617v57h2610q69 0 100.5 30.5t31.5 101.5v94q-13 -39 -44.5 -57.5t-88.5 -18.5z" />
    <glyph glyph-name="Hcircumflex" unicode="&#x124;" horiz-adv-x="3426" 
d="M3258 0v321h-3090v-321h-66v700h66v-321h3090v321h66v-700h-66zM1712 840l-256 -81h-85l282 113h118l282 -113h-85z" />
    <glyph glyph-name="hcircumflex" unicode="&#x125;" horiz-adv-x="3020" 
d="M2869 438q0 59 -24.5 83.5t-83.5 24.5h-2492q-59 0 -83.5 -24.5t-24.5 -83.5v-438h-65v770h65v-243q24 76 133 76h2480q83 0 121 -39t38 -122v-442h-64v438zM1525 738l-256 -81h-85l282 113h118l282 -113h-85z" />
    <glyph glyph-name="Hbar" unicode="&#x126;" horiz-adv-x="3426" 
d="M3258 0v321h-3090v-321h-66v505h-55v50h55v145h66v-145h3090v145h66v-145h55v-50h-55v-505h-66zM168 379h3090v126h-3090v-126z" />
    <glyph glyph-name="hbar" unicode="&#x127;" horiz-adv-x="3020" 
d="M2869 438q0 59 -24.5 83.5t-83.5 24.5h-2492q-59 0 -83.5 -24.5t-24.5 -83.5v-438h-65v661h-96v40h96v69h65v-69h451v-40h-451v-134q24 76 133 76h2480q83 0 121 -39t38 -122v-442h-64v438z" />
    <glyph glyph-name="Itilde" unicode="&#x128;" horiz-adv-x="270" 
d="M102 0v700h66v-700h-66zM-170 767v47q83 63 163 63q53 0 146 -37t143 -37q79 0 158 64v-47q-82 -62 -164 -62q-53 0 -146.5 36t-142.5 36q-78 0 -157 -63z" />
    <glyph glyph-name="itilde" unicode="&#x129;" horiz-adv-x="430" 
d="M-184 665v47q83 63 163 63q53 0 146 -37t143 -37q79 0 158 64v-47q-82 -62 -164 -62q-53 0 -146.5 36t-142.5 36q-78 0 -157 -63zM253 57h144v-57h-157q-81 0 -116 35.5t-35 116.5v451h65v-446q0 -56 22 -78t77 -22z" />
    <glyph glyph-name="Imacron" unicode="&#x12a;" horiz-adv-x="270" 
d="M349 798h-429v38h429v-38zM102 0v700h66v-700h-66z" />
    <glyph glyph-name="imacron" unicode="&#x12b;" horiz-adv-x="430" 
d="M336 696h-429v38h429v-38zM253 57h144v-57h-157q-81 0 -116 35.5t-35 116.5v451h65v-446q0 -56 22 -78t77 -22z" />
    <glyph glyph-name="Ibreve" unicode="&#x12c;" horiz-adv-x="270" 
d="M102 0v700h66v-700h-66zM-170 842v43q119 -82 305 -82t305 82v-43q-120 -87 -305 -87t-305 87z" />
    <glyph glyph-name="ibreve" unicode="&#x12d;" horiz-adv-x="430" 
d="M-184 740v43q119 -82 305 -82t305 82v-43q-120 -87 -305 -87t-305 87zM253 57h144v-57h-157q-81 0 -116 35.5t-35 116.5v451h65v-446q0 -56 22 -78t77 -22z" />
    <glyph glyph-name="Iogonek" unicode="&#x12e;" horiz-adv-x="270" 
d="M102 0v700h66v-700h-14v-66h-22q-220 0 -220 -43q0 -10 10 -13.5t39 -3.5h231v-48h-233q-53 0 -74.5 11t-21.5 38q0 45 63 62t206 17v46h-30z" />
    <glyph glyph-name="iogonek" unicode="&#x12f;" horiz-adv-x="430" 
d="M253 57h144v-57h-38v-66h-22q-84 0 -133.5 -5.5t-68 -14.5t-18.5 -23q0 -17 49 -17h231v-48h-232q-53 0 -75 11t-22 38q0 46 60 62.5t209 16.5v46h-97q-81 0 -116 35.5t-35 116.5v451h65v-446q0 -56 22 -78t77 -22zM186 737v-54h-129v54h129z" />
    <glyph glyph-name="Idotaccent" unicode="&#x130;" horiz-adv-x="270" 
d="M102 0v700h66v-700h-66zM196 839v-54h-122v54h122z" />
    <glyph glyph-name="dotlessi" unicode="&#x131;" horiz-adv-x="430" 
d="M253 57h144v-57h-157q-81 0 -116 35.5t-35 116.5v451h65v-446q0 -56 22 -78t77 -22z" />
    <glyph glyph-name="IJ" unicode="&#x132;" horiz-adv-x="3637" 
d="M102 0v700h66v-700h-66zM333 150v192h66v-182q0 -60 20.5 -80.5t79.5 -20.5h2870q61 0 85.5 25.5t24.5 87.5v528h66v-538q0 -82 -39.5 -122t-123.5 -40h-2899q-81 0 -115.5 35t-34.5 115z" />
    <glyph glyph-name="Jcircumflex" unicode="&#x134;" horiz-adv-x="3367" 
d="M63 150v192h66v-182q0 -60 20.5 -80.5t79.5 -20.5h2870q61 0 85.5 25.5t24.5 87.5v528h66v-538q0 -82 -39.5 -122t-123.5 -40h-2899q-81 0 -115.5 35t-34.5 115zM3042 840l-256 -81h-85l282 113h118l282 -113h-85z" />
    <glyph glyph-name="jcircumflex" unicode="&#x135;" horiz-adv-x="278" 
d="M-63 -110h81q56 0 78 22t22 78v613h64v-618q0 -81 -35 -116.5t-116 -35.5h-94v57zM150 738l-256 -81h-85l282 113h118l282 -113h-85z" />
    <glyph glyph-name="uni0136" unicode="&#x136;" horiz-adv-x="3398" 
d="M3314 700v-189q0 -80 -30 -117.5t-103 -43.5q73 -6 103 -43.5t30 -117.5v-189h-66v204q0 63 -25 90t-84 27h-2971v-321h-66v700h66v-321h2971q59 0 84 27t25 90v204h66zM1760 -89v-49q0 -86 -75 -86h-39v27h38q32 0 32 40v15h-78v53h122z" />
    <glyph glyph-name="uni0137" unicode="&#x137;" horiz-adv-x="3008" 
d="M2869 405v198h64v-170q0 -59 -22 -92t-79 -40q57 -7 79 -40t22 -92v-169h-64v197q0 40 -18.5 58t-58.5 18h-2631v-273h-65v770h65v-440h2631q41 0 59 17.5t18 57.5zM1596 -89v-49q0 -86 -75 -86h-39v27h38q32 0 32 40v15h-78v53h122z" />
    <glyph glyph-name="kgreenlandic" unicode="&#x138;" horiz-adv-x="3008" 
d="M2869 405v198h64v-170q0 -59 -22 -92t-79 -40q57 -7 79 -40t22 -92v-169h-64v197q0 40 -18.5 58t-58.5 18h-2631v-273h-65v603h65v-273h2631q41 0 59 17.5t18 57.5z" />
    <glyph glyph-name="Lacute" unicode="&#x139;" horiz-adv-x="3298" 
d="M3264 59v-59h-3162v700h66v-641h3096zM499 872l-338 -113h-98l284 113h152z" />
    <glyph glyph-name="lacute" unicode="&#x13a;" horiz-adv-x="428" 
d="M251 57h144v-57h-157q-81 0 -116.5 36t-35.5 116v618h65v-613q0 -56 22 -78t78 -22zM423 937l-338 -113h-98l284 113h152z" />
    <glyph glyph-name="uni013B" unicode="&#x13b;" horiz-adv-x="3298" 
d="M3264 59v-59h-3162v700h66v-641h3096zM1718 -89v-49q0 -86 -75 -86h-39v27h38q32 0 32 40v15h-78v53h122z" />
    <glyph glyph-name="uni013C" unicode="&#x13c;" horiz-adv-x="428" 
d="M251 57h144v-57h-157q-81 0 -116.5 36t-35.5 116v618h65v-613q0 -56 22 -78t78 -22zM275 -89v-49q0 -86 -75 -86h-39v27h38q32 0 32 40v15h-78v53h122z" />
    <glyph glyph-name="Lcaron" unicode="&#x13d;" horiz-adv-x="3298" 
d="M3264 59v-59h-3162v700h66v-641h3096zM2870 700v-65q0 -99 -88 -99h-25v37h23q37 0 37 45v17h-60v65h113z" />
    <glyph glyph-name="lcaron" unicode="&#x13e;" horiz-adv-x="492" 
d="M251 57h144v-57h-157q-81 0 -116.5 36t-35.5 116v618h65v-613q0 -56 22 -78t78 -22zM427 700v-65q0 -99 -88 -99h-25v37h23q37 0 37 45v17h-60v65h113z" />
    <glyph glyph-name="Ldot" unicode="&#x13f;" horiz-adv-x="3298" 
d="M3264 59v-59h-3162v700h66v-641h3096zM1782 385v-68h-113v68h113z" />
    <glyph glyph-name="ldot" unicode="&#x140;" horiz-adv-x="562" 
d="M251 57h144v-57h-157q-81 0 -116.5 36t-35.5 116v618h65v-613q0 -56 22 -78t78 -22zM455 384v-68h-113v68h113z" />
    <glyph glyph-name="Lslash" unicode="&#x141;" horiz-adv-x="3298" 
d="M3264 59v-59h-3162v223l-85 -25v58l85 25v419h66v-399l849 255v-58l-849 -255v-184h3096z" />
    <glyph glyph-name="lslash" unicode="&#x142;" horiz-adv-x="428" 
d="M251 57h144v-57h-157q-81 0 -116.5 36t-35.5 116v166l-69 -20v58l69 20v394h65v-374l261 78v-58l-261 -78v-181q0 -56 22 -78t78 -22z" />
    <glyph glyph-name="Nacute" unicode="&#x143;" horiz-adv-x="3396" 
d="M268 641q-61 0 -85.5 -25.5t-24.5 -87.5v-528h-66v538q0 82 39.5 122t123.5 40h2886q84 0 123.5 -40t39.5 -122v-538h-66l1 528q0 62 -24.5 87.5t-85.5 25.5h-2861zM2007 872l-338 -113h-98l284 113h152z" />
    <glyph glyph-name="nacute" unicode="&#x144;" 
d="M86 0v442q0 83 38.5 122t121.5 39h2518q83 0 121.5 -39t38.5 -122v-442h-65v438q0 59 -24.5 83.5t-83.5 24.5h-2492q-59 0 -83.5 -24.5t-24.5 -83.5v-438h-65zM1805 770l-338 -113h-98l284 113h152z" />
    <glyph glyph-name="uni0145" unicode="&#x145;" horiz-adv-x="3396" 
d="M268 641q-61 0 -85.5 -25.5t-24.5 -87.5v-528h-66v538q0 82 39.5 122t123.5 40h2886q84 0 123.5 -40t39.5 -122v-538h-66l1 528q0 62 -24.5 87.5t-85.5 25.5h-2861zM1759 -89v-49q0 -86 -75 -86h-39v27h38q32 0 32 40v15h-78v53h122z" />
    <glyph glyph-name="uni0146" unicode="&#x146;" 
d="M86 0v442q0 83 38.5 122t121.5 39h2518q83 0 121.5 -39t38.5 -122v-442h-65v438q0 59 -24.5 83.5t-83.5 24.5h-2492q-59 0 -83.5 -24.5t-24.5 -83.5v-438h-65zM1566 -89v-49q0 -86 -75 -86h-39v27h38q32 0 32 40v15h-78v53h122z" />
    <glyph glyph-name="Ncaron" unicode="&#x147;" horiz-adv-x="3396" 
d="M268 641q-61 0 -85.5 -25.5t-24.5 -87.5v-528h-66v538q0 82 39.5 122t123.5 40h2886q84 0 123.5 -40t39.5 -122v-538h-66l1 528q0 62 -24.5 87.5t-85.5 25.5h-2861zM1442 872l256 -81l256 81h85l-282 -113h-118l-282 113h85z" />
    <glyph glyph-name="ncaron" unicode="&#x148;" 
d="M86 0v442q0 83 38.5 122t121.5 39h2518q83 0 121.5 -39t38.5 -122v-442h-65v438q0 59 -24.5 83.5t-83.5 24.5h-2492q-59 0 -83.5 -24.5t-24.5 -83.5v-438h-65zM1249 770l256 -81l256 81h85l-282 -113h-118l-282 113h85z" />
    <glyph glyph-name="napostrophe" unicode="&#x149;" horiz-adv-x="3190" 
d="M266 0v442q0 83 38.5 122t121.5 39h2518q83 0 121.5 -39t38.5 -122v-442h-65v438q0 59 -24.5 83.5t-83.5 24.5h-2492q-59 0 -83.5 -24.5t-24.5 -83.5v-438h-65zM179 700v-65q0 -99 -88 -99h-25v37h23q37 0 37 45v17h-60v65h113z" />
    <glyph glyph-name="Eng" unicode="&#x14a;" horiz-adv-x="3396" 
d="M268 641q-61 0 -85.5 -25.5t-24.5 -87.5v-528h-66v538q0 82 39.5 122t123.5 40h2886q84 0 123.5 -40t39.5 -122v-543q0 -82 -39.5 -122t-123.5 -40h-907v59h894q61 0 85.5 25.5t24.5 87.5v523q0 62 -24.5 87.5t-85.5 25.5h-2860z" />
    <glyph glyph-name="eng" unicode="&#x14b;" 
d="M2678 -110h82q55 0 77 22t22 78v448q0 59 -24.5 83.5t-83.5 24.5h-2492q-59 0 -83.5 -24.5t-24.5 -83.5v-438h-65v442q0 83 38.5 122t121.5 39h2518q83 0 121.5 -39t38.5 -122v-457q0 -80 -35.5 -116t-116.5 -36h-94v57z" />
    <glyph glyph-name="Omacron" unicode="&#x14c;" horiz-adv-x="3386" 
d="M244 0q-83 0 -122.5 40t-39.5 122v376q0 82 39.5 122t122.5 40h2897q84 0 123.5 -40t39.5 -122v-376q0 -162 -163 -162h-2897zM3238 171v357q0 62 -24.5 87.5t-85.5 25.5h-2870q-57 0 -83.5 -26t-26.5 -87v-356q0 -63 24.5 -88t85.5 -25h2870q61 0 85.5 25t24.5 87z
M1998 797h-612v40h612v-40z" />
    <glyph glyph-name="omacron" unicode="&#x14d;" horiz-adv-x="3001" 
d="M2764 603q83 0 121.5 -39t38.5 -122v-281q0 -83 -38.5 -122t-121.5 -39h-2528q-82 0 -120.5 39t-38.5 122v281q0 83 38.5 122t120.5 39h2528zM2752 57q58 0 82.5 24.5t24.5 83.5v273q0 59 -24.5 83.5t-82.5 24.5h-2503q-59 0 -83.5 -25t-24.5 -83v-273q0 -59 24.5 -83.5
t83.5 -24.5h2503zM1806 695h-612v40h612v-40z" />
    <glyph glyph-name="Obreve" unicode="&#x14e;" horiz-adv-x="3386" 
d="M244 0q-83 0 -122.5 40t-39.5 122v376q0 82 39.5 122t122.5 40h2897q84 0 123.5 -40t39.5 -122v-376q0 -162 -163 -162h-2897zM3238 171v357q0 62 -24.5 87.5t-85.5 25.5h-2870q-57 0 -83.5 -26t-26.5 -87v-356q0 -63 24.5 -88t85.5 -25h2870q61 0 85.5 25t24.5 87z
M1387 842v43q119 -82 305 -82t305 82v-43q-120 -87 -305 -87t-305 87z" />
    <glyph glyph-name="obreve" unicode="&#x14f;" horiz-adv-x="3001" 
d="M2764 603q83 0 121.5 -39t38.5 -122v-281q0 -83 -38.5 -122t-121.5 -39h-2528q-82 0 -120.5 39t-38.5 122v281q0 83 38.5 122t120.5 39h2528zM2752 57q58 0 82.5 24.5t24.5 83.5v273q0 59 -24.5 83.5t-82.5 24.5h-2503q-59 0 -83.5 -25t-24.5 -83v-273q0 -59 24.5 -83.5
t83.5 -24.5h2503zM1195 740v43q119 -82 305 -82t305 82v-43q-120 -87 -305 -87t-305 87z" />
    <glyph glyph-name="Ohungarumlaut" unicode="&#x150;" horiz-adv-x="3386" 
d="M244 0q-83 0 -122.5 40t-39.5 122v376q0 82 39.5 122t122.5 40h2897q84 0 123.5 -40t39.5 -122v-376q0 -162 -163 -162h-2897zM3238 171v357q0 62 -24.5 87.5t-85.5 25.5h-2870q-57 0 -83.5 -26t-26.5 -87v-356q0 -63 24.5 -88t85.5 -25h2870q61 0 85.5 25t24.5 87z
M2172 872l-338 -113h-98l284 113h152zM1732 872l-338 -113h-98l284 113h152z" />
    <glyph glyph-name="ohungarumlaut" unicode="&#x151;" horiz-adv-x="3001" 
d="M2764 603q83 0 121.5 -39t38.5 -122v-281q0 -83 -38.5 -122t-121.5 -39h-2528q-82 0 -120.5 39t-38.5 122v281q0 83 38.5 122t120.5 39h2528zM2752 57q58 0 82.5 24.5t24.5 83.5v273q0 59 -24.5 83.5t-82.5 24.5h-2503q-59 0 -83.5 -25t-24.5 -83v-273q0 -59 24.5 -83.5
t83.5 -24.5h2503zM2029 770l-338 -113h-98l284 113h152zM1589 770l-338 -113h-98l284 113h152z" />
    <glyph glyph-name="OE" unicode="&#x152;" horiz-adv-x="5210" 
d="M245 0q-83 0 -122.5 40t-39.5 122v376q0 82 39.5 122t122.5 40h4899v-59h-2480v-262h2355v-58h-2355v-262h2480v-59h-4899zM2598 59v582h-2340q-60 0 -84.5 -25.5t-24.5 -87.5v-356q0 -62 24.5 -87.5t84.5 -25.5h2340z" />
    <glyph glyph-name="oe" unicode="&#x153;" horiz-adv-x="4511" 
d="M2228 149v305q0 92 -89 92h-1890q-59 0 -83.5 -25t-24.5 -83v-273q0 -59 24.5 -83.5t83.5 -24.5h1890q89 0 89 92zM4385 417v42q0 47 -20 67t-67 20h-1916q-89 0 -89 -92v-124h2005q47 0 67 20t20 67zM2293 273v-124q0 -92 89 -92h2038v-57h-2014q-70 0 -104 26.5
t-42 86.5q-7 -60 -41 -86.5t-104 -26.5h-1879q-82 0 -120.5 39t-38.5 122v281q0 83 38.5 122t120.5 39h1879q70 0 104 -26.5t41 -86.5q8 60 42 86.5t104 26.5h1904q73 0 106.5 -34t33.5 -109v-45q0 -75 -33.5 -108.5t-106.5 -33.5h-2017z" />
    <glyph glyph-name="Racute" unicode="&#x154;" horiz-adv-x="3397" 
d="M3314 542v-41q0 -76 -29.5 -111t-102.5 -40q72 -7 102 -44.5t30 -116.5v-189h-66v204q0 63 -25 90t-84 27h-2971v-321h-66v700h3054q81 0 119.5 -38.5t38.5 -119.5zM3141 379q59 0 83 25t24 86v43q0 58 -24.5 83t-79.5 25h-2976v-262h2973zM2007 872l-338 -113h-98
l284 113h152z" />
    <glyph glyph-name="racute" unicode="&#x155;" horiz-adv-x="2792" 
d="M2754 603v-57h-2495q-59 0 -83.5 -25t-24.5 -83v-438h-65v442q0 83 38.5 122t121.5 39h2508zM1778 770l-338 -113h-98l284 113h152z" />
    <glyph glyph-name="uni0156" unicode="&#x156;" horiz-adv-x="3397" 
d="M3314 542v-41q0 -76 -29.5 -111t-102.5 -40q72 -7 102 -44.5t30 -116.5v-189h-66v204q0 63 -25 90t-84 27h-2971v-321h-66v700h3054q81 0 119.5 -38.5t38.5 -119.5zM3141 379q59 0 83 25t24 86v43q0 58 -24.5 83t-79.5 25h-2976v-262h2973zM1789 -89v-49q0 -86 -75 -86
h-39v27h38q32 0 32 40v15h-78v53h122z" />
    <glyph glyph-name="uni0157" unicode="&#x157;" horiz-adv-x="2792" 
d="M2754 603v-57h-2495q-59 0 -83.5 -25t-24.5 -83v-438h-65v442q0 83 38.5 122t121.5 39h2508zM180 -89v-49q0 -86 -75 -86h-39v27h38q32 0 32 40v15h-78v53h122z" />
    <glyph glyph-name="Rcaron" unicode="&#x158;" horiz-adv-x="3397" 
d="M3314 542v-41q0 -76 -29.5 -111t-102.5 -40q72 -7 102 -44.5t30 -116.5v-189h-66v204q0 63 -25 90t-84 27h-2971v-321h-66v700h3054q81 0 119.5 -38.5t38.5 -119.5zM3141 379q59 0 83 25t24 86v43q0 58 -24.5 83t-79.5 25h-2976v-262h2973zM1442 872l256 -81l256 81h85
l-282 -113h-118l-282 113h85z" />
    <glyph glyph-name="rcaron" unicode="&#x159;" horiz-adv-x="2792" 
d="M2754 603v-57h-2495q-59 0 -83.5 -25t-24.5 -83v-438h-65v442q0 83 38.5 122t121.5 39h2508zM1212 770l256 -81l256 81h85l-282 -113h-118l-282 113h85z" />
    <glyph glyph-name="Sacute" unicode="&#x15a;" horiz-adv-x="3334" 
d="M245 321q-82 0 -121 39t-39 120v61q0 81 39 120t121 39h2992v-59h-2982q-55 0 -79.5 -25t-24.5 -83v-46q0 -58 24.5 -83t79.5 -25h2853q82 0 120.5 -39t38.5 -120v-61q0 -81 -38.5 -120t-120.5 -39h-3043v59h3033q55 0 79 25t24 83v46q0 58 -24 83t-79 25h-2853z
M1976 872l-338 -113h-98l284 113h152z" />
    <glyph glyph-name="sacute" unicode="&#x15b;" horiz-adv-x="2978" 
d="M2887 546h-2670q-47 0 -67 -20t-20 -67v-42q0 -47 20 -67t67 -20h2560q73 0 106.5 -34t33.5 -109v-44q0 -75 -33.5 -109t-106.5 -34h-2712v57h2700q47 0 67 20t20 67v41q0 48 -20 68t-67 20h-2560q-73 0 -106.5 33.5t-33.5 108.5v45q0 75 33.5 109t106.5 34h2682v-57z
M1798 770l-338 -113h-98l284 113h152z" />
    <glyph glyph-name="Scircumflex" unicode="&#x15c;" horiz-adv-x="3334" 
d="M245 321q-82 0 -121 39t-39 120v61q0 81 39 120t121 39h2992v-59h-2982q-55 0 -79.5 -25t-24.5 -83v-46q0 -58 24.5 -83t79.5 -25h2853q82 0 120.5 -39t38.5 -120v-61q0 -81 -38.5 -120t-120.5 -39h-3043v59h3033q55 0 79 25t24 83v46q0 58 -24 83t-79 25h-2853z
M1667 840l-256 -81h-85l282 113h118l282 -113h-85z" />
    <glyph glyph-name="scircumflex" unicode="&#x15d;" horiz-adv-x="2978" 
d="M2887 546h-2670q-47 0 -67 -20t-20 -67v-42q0 -47 20 -67t67 -20h2560q73 0 106.5 -34t33.5 -109v-44q0 -75 -33.5 -109t-106.5 -34h-2712v57h2700q47 0 67 20t20 67v41q0 48 -20 68t-67 20h-2560q-73 0 -106.5 33.5t-33.5 108.5v45q0 75 33.5 109t106.5 34h2682v-57z
M1488 738l-256 -81h-85l282 113h118l282 -113h-85z" />
    <glyph glyph-name="Scedilla" unicode="&#x15e;" horiz-adv-x="3334" 
d="M1673 0l-20 -51h221q57 0 83 -10.5t26 -40.5q0 -41 -34.5 -56.5t-113.5 -15.5h-462v48h468q51 0 70 6.5t19 25.5q0 16 -13 20.5t-53 4.5h-239l28 69h-1588v59h3033q55 0 79 25t24 83v46q0 58 -24 83t-79 25h-2853q-82 0 -121 39t-39 120v61q0 81 39 120t121 39h2992v-59
h-2982q-55 0 -79.5 -25t-24.5 -83v-46q0 -58 24.5 -83t79.5 -25h2853q82 0 120.5 -39t38.5 -120v-61q0 -81 -38.5 -120t-120.5 -39h-1435z" />
    <glyph glyph-name="scedilla" unicode="&#x15f;" horiz-adv-x="2978" 
d="M1480 0l-20 -51h221q57 0 83 -10.5t26 -40.5q0 -41 -34.5 -56.5t-113.5 -15.5h-462v48h468q51 0 70 6.5t19 25.5q0 16 -13 20.5t-53 4.5h-239l28 69h-1395v57h2700q47 0 67 20t20 67v41q0 48 -20 68t-67 20h-2560q-73 0 -106.5 33.5t-33.5 108.5v45q0 75 33.5 109
t106.5 34h2682v-57h-2670q-47 0 -67 -20t-20 -67v-42q0 -47 20 -67t67 -20h2560q73 0 106.5 -34t33.5 -109v-44q0 -75 -33.5 -109t-106.5 -34h-1297z" />
    <glyph glyph-name="Scaron" unicode="&#x160;" horiz-adv-x="3334" 
d="M245 321q-82 0 -121 39t-39 120v61q0 81 39 120t121 39h2992v-59h-2982q-55 0 -79.5 -25t-24.5 -83v-46q0 -58 24.5 -83t79.5 -25h2853q82 0 120.5 -39t38.5 -120v-61q0 -81 -38.5 -120t-120.5 -39h-3043v59h3033q55 0 79 25t24 83v46q0 58 -24 83t-79 25h-2853z
M1411 872l256 -81l256 81h85l-282 -113h-118l-282 113h85z" />
    <glyph glyph-name="scaron" unicode="&#x161;" horiz-adv-x="2978" 
d="M2887 546h-2670q-47 0 -67 -20t-20 -67v-42q0 -47 20 -67t67 -20h2560q73 0 106.5 -34t33.5 -109v-44q0 -75 -33.5 -109t-106.5 -34h-2712v57h2700q47 0 67 20t20 67v41q0 48 -20 68t-67 20h-2560q-73 0 -106.5 33.5t-33.5 108.5v45q0 75 33.5 109t106.5 34h2682v-57z
M1232 770l256 -81l256 81h85l-282 -113h-118l-282 113h85z" />
    <glyph glyph-name="uni0162" unicode="&#x162;" horiz-adv-x="3289" 
d="M1653 0l-20 -51h221q57 0 83 -10.5t26 -40.5q0 -41 -34.5 -56.5t-113.5 -15.5h-462v48h468q51 0 70 6.5t19 25.5q0 16 -13 20.5t-53 4.5h-239l28 69h-21v641h-1578v59h3221v-59h-1577v-641h-25z" />
    <glyph glyph-name="uni0163" unicode="&#x163;" horiz-adv-x="2837" 
d="M1423 0l-20 -51h221q57 0 83 -10.5t26 -40.5q0 -41 -34.5 -56.5t-113.5 -15.5h-462v48h468q51 0 70 6.5t19 25.5q0 16 -13 20.5t-53 4.5h-239l28 69h-1157q-83 0 -121.5 39t-38.5 122v609h65v-167h2623v-57h-2623v-381q0 -59 24.5 -83.5t83.5 -24.5h2515v-57h-1351z" />
    <glyph glyph-name="Tcaron" unicode="&#x164;" horiz-adv-x="3289" 
d="M3255 700v-59h-1577v-641h-66v641h-1578v59h3221zM1389 872l256 -81l256 81h85l-282 -113h-118l-282 113h85z" />
    <glyph glyph-name="tcaron" unicode="&#x165;" horiz-adv-x="3106" 
d="M246 0q-83 0 -121.5 39t-38.5 122v609h65v-167h2623v-57h-2623v-381q0 -59 24.5 -83.5t83.5 -24.5h2515v-57h-2528zM3040 700v-65q0 -99 -88 -99h-25v37h23q37 0 37 45v17h-60v65h113z" />
    <glyph glyph-name="Tbar" unicode="&#x166;" horiz-adv-x="3289" 
d="M3255 700v-59h-1577v-179h273v-50h-273v-412h-66v412h-273v50h273v179h-1578v59h3221z" />
    <glyph glyph-name="tbar" unicode="&#x167;" horiz-adv-x="2837" 
d="M246 0q-83 0 -121.5 39t-38.5 122v214h-86v51h86v344h65v-167h2623v-57h-2623v-120h461v-51h-461v-210q0 -59 24.5 -83.5t83.5 -24.5h2515v-57h-2528z" />
    <glyph glyph-name="Utilde" unicode="&#x168;" horiz-adv-x="3396" 
d="M255 0q-84 0 -123.5 40t-39.5 122v538h66v-528q0 -62 24.5 -87.5t85.5 -25.5h2860q61 0 85.5 25.5t24.5 87.5v528h66v-538q0 -82 -39.5 -122t-123.5 -40h-2886zM1393 767v47q83 63 163 63q53 0 146 -37t143 -37q79 0 158 64v-47q-82 -62 -164 -62q-53 0 -146.5 36
t-142.5 36q-78 0 -157 -63z" />
    <glyph glyph-name="utilde" unicode="&#x169;" 
d="M2751 57q59 0 83.5 24.5t24.5 83.5v438h65v-442q0 -83 -38.5 -122t-121.5 -39h-2518q-83 0 -121.5 39t-38.5 122v442h65v-438q0 -59 24.5 -83.5t83.5 -24.5h2492zM1200 665v47q83 63 163 63q53 0 146 -37t143 -37q79 0 158 64v-47q-82 -62 -164 -62q-53 0 -146.5 36
t-142.5 36q-78 0 -157 -63z" />
    <glyph glyph-name="Umacron" unicode="&#x16a;" horiz-adv-x="3396" 
d="M255 0q-84 0 -123.5 40t-39.5 122v538h66v-528q0 -62 24.5 -87.5t85.5 -25.5h2860q61 0 85.5 25.5t24.5 87.5v528h66v-538q0 -82 -39.5 -122t-123.5 -40h-2886zM2004 797h-612v40h612v-40z" />
    <glyph glyph-name="umacron" unicode="&#x16b;" 
d="M2751 57q59 0 83.5 24.5t24.5 83.5v438h65v-442q0 -83 -38.5 -122t-121.5 -39h-2518q-83 0 -121.5 39t-38.5 122v442h65v-438q0 -59 24.5 -83.5t83.5 -24.5h2492zM1811 695h-612v40h612v-40z" />
    <glyph glyph-name="Ubreve" unicode="&#x16c;" horiz-adv-x="3396" 
d="M255 0q-84 0 -123.5 40t-39.5 122v538h66v-528q0 -62 24.5 -87.5t85.5 -25.5h2860q61 0 85.5 25.5t24.5 87.5v528h66v-538q0 -82 -39.5 -122t-123.5 -40h-2886zM1393 842v43q119 -82 305 -82t305 82v-43q-120 -87 -305 -87t-305 87z" />
    <glyph glyph-name="ubreve" unicode="&#x16d;" 
d="M2751 57q59 0 83.5 24.5t24.5 83.5v438h65v-442q0 -83 -38.5 -122t-121.5 -39h-2518q-83 0 -121.5 39t-38.5 122v442h65v-438q0 -59 24.5 -83.5t83.5 -24.5h2492zM1200 740v43q119 -82 305 -82t305 82v-43q-120 -87 -305 -87t-305 87z" />
    <glyph glyph-name="Uring" unicode="&#x16e;" horiz-adv-x="3396" 
d="M255 0q-84 0 -123.5 40t-39.5 122v538h66v-528q0 -62 24.5 -87.5t85.5 -25.5h2860q61 0 85.5 25.5t24.5 87.5v528h66v-538q0 -82 -39.5 -122t-123.5 -40h-2886zM1536 820q0 -31 45 -31h234q45 0 45 31q0 30 -45 30h-234q-45 0 -45 -30zM1811 757h-226q-84 0 -84 63
q0 61 84 61h226q84 0 84 -61q0 -63 -84 -63z" />
    <glyph glyph-name="uring" unicode="&#x16f;" 
d="M2751 57q59 0 83.5 24.5t24.5 83.5v438h65v-442q0 -83 -38.5 -122t-121.5 -39h-2518q-83 0 -121.5 39t-38.5 122v442h65v-438q0 -59 24.5 -83.5t83.5 -24.5h2492zM1343 718q0 -31 45 -31h234q45 0 45 31q0 30 -45 30h-234q-45 0 -45 -30zM1618 655h-226q-84 0 -84 63
q0 61 84 61h226q84 0 84 -61q0 -63 -84 -63z" />
    <glyph glyph-name="Uhungarumlaut" unicode="&#x170;" horiz-adv-x="3396" 
d="M255 0q-84 0 -123.5 40t-39.5 122v538h66v-528q0 -62 24.5 -87.5t85.5 -25.5h2860q61 0 85.5 25.5t24.5 87.5v528h66v-538q0 -82 -39.5 -122t-123.5 -40h-2886zM2227 872l-338 -113h-98l284 113h152zM1787 872l-338 -113h-98l284 113h152z" />
    <glyph glyph-name="uhungarumlaut" unicode="&#x171;" 
d="M2751 57q59 0 83.5 24.5t24.5 83.5v438h65v-442q0 -83 -38.5 -122t-121.5 -39h-2518q-83 0 -121.5 39t-38.5 122v442h65v-438q0 -59 24.5 -83.5t83.5 -24.5h2492zM2035 770l-338 -113h-98l284 113h152zM1595 770l-338 -113h-98l284 113h152z" />
    <glyph glyph-name="Uogonek" unicode="&#x172;" horiz-adv-x="3396" 
d="M3275 -66h-25q-210 0 -318 -5t-139 -13.5t-31 -24.5q0 -9 10 -13t39 -4h514v-48h-516q-53 0 -74.5 11t-21.5 38q0 26 14 39.5t69.5 23.5t154 13t279.5 3h23v76q-41 -30 -112 -30h-2886q-84 0 -123.5 40t-39.5 122v538h66v-528q0 -62 24.5 -87.5t85.5 -25.5h2860
q61 0 85.5 25.5t24.5 87.5v528h66v-538q0 -69 -29 -110v-118z" />
    <glyph glyph-name="uogonek" unicode="&#x173;" 
d="M2894 -66h-25q-210 0 -318 -5t-139 -13.5t-31 -24.5q0 -9 10 -13t39 -4h514v-48h-516q-53 0 -74.5 11t-21.5 38q0 26 14 39.5t69.5 23.5t154 13t279.5 3h23v73q-39 -27 -108 -27h-2518q-83 0 -121.5 39t-38.5 122v442h65v-438q0 -59 24.5 -83.5t83.5 -24.5h2492
q59 0 83.5 24.5t24.5 83.5v438h65v-442q0 -73 -30 -112v-115z" />
    <glyph glyph-name="Wcircumflex" unicode="&#x174;" horiz-adv-x="3995" 
d="M3740 0h-1576q-80 0 -119 33t-47 103q-9 -70 -48 -103t-118 -33h-1577q-84 0 -123.5 40t-39.5 122v538h66v-528q0 -62 24.5 -87.5t85.5 -25.5h1577q66 0 93 27.5t27 95.5v518h66v-518q0 -68 26.5 -95.5t92.5 -27.5h1577q61 0 85.5 25.5t24.5 87.5v528h66v-538
q0 -82 -39.5 -122t-123.5 -40zM1998 840l-256 -81h-85l282 113h118l282 -113h-85z" />
    <glyph glyph-name="wcircumflex" unicode="&#x175;" horiz-adv-x="3530" 
d="M1765 113q-7 -60 -41 -86.5t-104 -26.5h-1374q-83 0 -121.5 39t-38.5 122v442h65v-438q0 -59 24.5 -83.5t83.5 -24.5h1384q90 0 90 92v454h64v-454q0 -92 90 -92h1384q59 0 83.5 24.5t24.5 83.5v438h65v-442q0 -83 -38.5 -122t-121.5 -39h-1374q-70 0 -103.5 26.5
t-41.5 86.5zM1765 738l-256 -81h-85l282 113h118l282 -113h-85z" />
    <glyph glyph-name="Ycircumflex" unicode="&#x176;" horiz-adv-x="3347" 
d="M3218 700h66v-217q0 -82 -39.5 -122t-123.5 -40h-1415v-321h-66v321h-1415q-83 0 -122.5 40t-39.5 122v217h66v-208q0 -62 24.5 -87.5t84.5 -25.5h2870q61 0 85.5 25.5t24.5 87.5v208zM1673 840l-256 -81h-85l282 113h118l282 -113h-85z" />
    <glyph glyph-name="ycircumflex" unicode="&#x177;" horiz-adv-x="3020" 
d="M2734 -167h-2608v57h2601q69 0 100.5 30.5t31.5 101.5v94q-13 -39 -44.5 -57.5t-88.5 -18.5h-2480q-83 0 -121.5 39t-38.5 122v402h65v-398q0 -59 24.5 -83.5t83.5 -24.5h2492q59 0 83.5 24.5t24.5 83.5v398h65v-580q0 -97 -46 -143.5t-144 -46.5zM1510 738l-256 -81h-85
l282 113h118l282 -113h-85z" />
    <glyph glyph-name="Ydieresis" unicode="&#x178;" horiz-adv-x="3347" 
d="M3218 700h66v-217q0 -82 -39.5 -122t-123.5 -40h-1415v-321h-66v321h-1415q-83 0 -122.5 40t-39.5 122v217h66v-208q0 -62 24.5 -87.5t84.5 -25.5h2870q61 0 85.5 25.5t24.5 87.5v208zM1498 839v-54h-123v54h123zM1971 839v-54h-123v54h123z" />
    <glyph glyph-name="Zacute" unicode="&#x179;" horiz-adv-x="3341" 
d="M3063 379q80 0 112.5 31.5t32.5 112.5v118h-3114v59h3180v-183q0 -196 -197 -196h-2802q-80 0 -112.5 -31.5t-32.5 -112.5v-118h3144v-59h-3210v183q0 196 197 196h2802zM1989 872l-338 -113h-98l284 113h152z" />
    <glyph glyph-name="zacute" unicode="&#x17a;" horiz-adv-x="2985" 
d="M252 273q-65 0 -94.5 -29.5t-29.5 -94.5v-92h2792v-57h-2856v145q0 185 185 185h2483q64 0 93.5 29t29.5 94v93h-2766v57h2831v-145q0 -185 -185 -185h-2483zM1829 770l-338 -113h-98l284 113h152z" />
    <glyph glyph-name="Zdotaccent" unicode="&#x17b;" horiz-adv-x="3341" 
d="M3063 379q80 0 112.5 31.5t32.5 112.5v118h-3114v59h3180v-183q0 -196 -197 -196h-2802q-80 0 -112.5 -31.5t-32.5 -112.5v-118h3144v-59h-3210v183q0 196 197 196h2802zM1741 839v-54h-122v54h122z" />
    <glyph glyph-name="zdotaccent" unicode="&#x17c;" horiz-adv-x="2985" 
d="M252 273q-65 0 -94.5 -29.5t-29.5 -94.5v-92h2792v-57h-2856v145q0 185 185 185h2483q64 0 93.5 29t29.5 94v93h-2766v57h2831v-145q0 -185 -185 -185h-2483zM1581 737v-54h-122v54h122z" />
    <glyph glyph-name="Zcaron" unicode="&#x17d;" horiz-adv-x="3341" 
d="M3063 379q80 0 112.5 31.5t32.5 112.5v118h-3114v59h3180v-183q0 -196 -197 -196h-2802q-80 0 -112.5 -31.5t-32.5 -112.5v-118h3144v-59h-3210v183q0 196 197 196h2802zM1424 872l256 -81l256 81h85l-282 -113h-118l-282 113h85z" />
    <glyph glyph-name="zcaron" unicode="&#x17e;" horiz-adv-x="2985" 
d="M252 273q-65 0 -94.5 -29.5t-29.5 -94.5v-92h2792v-57h-2856v145q0 185 185 185h2483q64 0 93.5 29t29.5 94v93h-2766v57h2831v-145q0 -185 -185 -185h-2483zM1264 770l256 -81l256 81h85l-282 -113h-118l-282 113h85z" />
    <glyph glyph-name="florin" unicode="&#x192;" horiz-adv-x="3366" 
d="M3204 379v-58h-2842v-171q0 -80 -35 -115t-116 -35h-151v59h136q59 0 79.5 20.5t20.5 80.5v161h-236v58h236v160q0 82 38.5 121.5t121.5 39.5h2873v-59h-2860q-59 0 -83 -24t-24 -83v-155h2842z" />
    <glyph glyph-name="AEacute" unicode="&#x1fc;" horiz-adv-x="5203" 
d="M2596 0v321h-2438v-321h-66v538q0 82 39.5 122t123.5 40h4886v-59h-2479v-262h2354v-58h-2354v-262h2479v-59h-2545zM268 641q-61 0 -85.5 -25.5t-24.5 -87.5v-149h2438v262h-2328zM2938 872l-338 -113h-98l284 113h152z" />
    <glyph glyph-name="aeacute" unicode="&#x1fd;" horiz-adv-x="4501" 
d="M4375 417v42q0 47 -20 67t-67 20h-1916q-89 0 -89 -92v-124h2005q47 0 67 20t20 67zM126 186v-42q0 -47 20 -67t67 -20h1916q89 0 89 92v124h-2005q-47 0 -67 -20t-20 -67zM2105 0h-1904q-73 0 -106.5 34t-33.5 109v44q0 75 33.5 109t106.5 34h2017v124q0 92 -89 92
h-2039v57h2015q70 0 104 -26.5t41 -86.5q8 60 42 86.5t104 26.5h1904q73 0 106.5 -34t33.5 -109v-45q0 -75 -33.5 -108.5t-106.5 -33.5h-2017v-124q0 -92 89 -92h2039v-57h-2015q-70 0 -104 26.5t-42 86.5q-7 -60 -41 -86.5t-104 -26.5zM2560 770l-338 -113h-98l284 113h152
z" />
    <glyph glyph-name="Oslashacute" unicode="&#x1fe;" horiz-adv-x="3386" 
d="M244 0q-83 0 -122.5 40t-39.5 122v376q0 82 39.5 122t122.5 40h2897q84 0 123.5 -40t39.5 -122v-376q0 -162 -163 -162h-2897zM267 59l2603 582h-2612q-57 0 -83.5 -26t-26.5 -87v-356q0 -63 24.5 -88t85.5 -25h9zM3238 171v357q0 62 -24.5 87.5t-85.5 25.5h-5
l-2603 -582h2608q61 0 85.5 25t24.5 87zM2002 872l-338 -113h-98l284 113h152z" />
    <glyph glyph-name="oslashacute" unicode="&#x1ff;" horiz-adv-x="3001" 
d="M2764 603q83 0 121.5 -39t38.5 -122v-281q0 -83 -38.5 -122t-121.5 -39h-2528q-82 0 -120.5 39t-38.5 122v281q0 83 38.5 122t120.5 39h2528zM2752 57q58 0 82.5 24.5t24.5 83.5v273q0 56 -22.5 81t-74.5 27l-2274 -489h2264zM237 57l2275 489h-2263q-59 0 -83.5 -25
t-24.5 -83v-273q0 -56 22 -81t74 -27zM1809 770l-338 -113h-98l284 113h152z" />
    <glyph glyph-name="uni0218" unicode="&#x218;" horiz-adv-x="3334" 
d="M245 321q-82 0 -121 39t-39 120v61q0 81 39 120t121 39h2992v-59h-2982q-55 0 -79.5 -25t-24.5 -83v-46q0 -58 24.5 -83t79.5 -25h2853q82 0 120.5 -39t38.5 -120v-61q0 -81 -38.5 -120t-120.5 -39h-3043v59h3033q55 0 79 25t24 83v46q0 58 -24 83t-79 25h-2853z
M1728 -89v-49q0 -86 -75 -86h-39v27h38q32 0 32 40v15h-78v53h122z" />
    <glyph glyph-name="uni0219" unicode="&#x219;" horiz-adv-x="2978" 
d="M2887 546h-2670q-47 0 -67 -20t-20 -67v-42q0 -47 20 -67t67 -20h2560q73 0 106.5 -34t33.5 -109v-44q0 -75 -33.5 -109t-106.5 -34h-2712v57h2700q47 0 67 20t20 67v41q0 48 -20 68t-67 20h-2560q-73 0 -106.5 33.5t-33.5 108.5v45q0 75 33.5 109t106.5 34h2682v-57z
M1529 -89v-49q0 -86 -75 -86h-39v27h38q32 0 32 40v15h-78v53h122z" />
    <glyph glyph-name="uni021A" unicode="&#x21a;" horiz-adv-x="3289" 
d="M3255 700v-59h-1577v-641h-66v641h-1578v59h3221zM1706 -89v-49q0 -86 -75 -86h-39v27h38q32 0 32 40v15h-78v53h122z" />
    <glyph glyph-name="uni021B" unicode="&#x21b;" horiz-adv-x="2837" 
d="M246 0q-83 0 -121.5 39t-38.5 122v609h65v-167h2623v-57h-2623v-381q0 -59 24.5 -83.5t83.5 -24.5h2515v-57h-2528zM1479 -89v-49q0 -86 -75 -86h-39v27h38q32 0 32 40v15h-78v53h122z" />
    <glyph glyph-name="uni0237" unicode="&#x237;" horiz-adv-x="278" 
d="M-63 -110h81q56 0 78 22t22 78v613h64v-618q0 -81 -35 -116.5t-116 -35.5h-94v57z" />
    <glyph glyph-name="circumflex" unicode="&#x2c6;" horiz-adv-x="750" 
d="M375 738l-256 -81h-85l282 113h118l282 -113h-85z" />
    <glyph glyph-name="caron" unicode="&#x2c7;" horiz-adv-x="750" 
d="M119 770l256 -81l256 81h85l-282 -113h-118l-282 113h85z" />
    <glyph glyph-name="breve" unicode="&#x2d8;" horiz-adv-x="750" 
d="M70 740v43q119 -82 305 -82t305 82v-43q-120 -87 -305 -87t-305 87z" />
    <glyph glyph-name="dotaccent" unicode="&#x2d9;" horiz-adv-x="750" 
d="M436 737v-54h-122v54h122z" />
    <glyph glyph-name="ring" unicode="&#x2da;" horiz-adv-x="750" 
d="M213 718q0 -31 45 -31h234q45 0 45 31q0 30 -45 30h-234q-45 0 -45 -30zM488 655h-226q-84 0 -84 63q0 61 84 61h226q84 0 84 -61q0 -63 -84 -63z" />
    <glyph glyph-name="ogonek" unicode="&#x2db;" horiz-adv-x="750" 
d="M631 -66h-25q-210 0 -318 -5t-139 -13.5t-31 -24.5q0 -9 10 -13t39 -4h514v-48h-516q-53 0 -74.5 11t-21.5 38q0 26 14 39.5t69.5 23.5t154 13t279.5 3h23v46h22v-66z" />
    <glyph glyph-name="tilde" unicode="&#x2dc;" horiz-adv-x="750" 
d="M70 665v47q83 63 163 63q53 0 146 -37t143 -37q79 0 158 64v-47q-82 -62 -164 -62q-53 0 -146.5 36t-142.5 36q-78 0 -157 -63z" />
    <glyph glyph-name="hungarumlaut" unicode="&#x2dd;" horiz-adv-x="750" 
d="M839 770l-338 -113h-98l284 113h152zM399 770l-338 -113h-98l284 113h152z" />
    <glyph glyph-name="pi" unicode="&#x3c0;" horiz-adv-x="3366" 
d="M264 0v603h2837v-603h-65v546h-2707v-546h-65z" />
    <glyph glyph-name="uni1E02" unicode="&#x1e02;" horiz-adv-x="3390" 
d="M3314 199v-41q0 -81 -38.5 -119.5t-119.5 -38.5h-3054v700h3054q81 0 119.5 -38.5t38.5 -119.5v-41q0 -76 -29 -110.5t-101 -40.5q71 -6 100.5 -40.5t29.5 -110.5zM3141 379q59 0 83 25t24 86v43q0 58 -24.5 83t-79.5 25h-2976v-262h2973zM168 321v-262h2976
q55 0 79.5 25t24.5 83v43q0 61 -24 86t-83 25h-2973zM1752 839v-54h-122v54h122z" />
    <glyph glyph-name="uni1E03" unicode="&#x1e03;" 
d="M86 161v609h65v-243q25 76 133 76h2490q83 0 121.5 -39t38.5 -122v-281q0 -83 -38.5 -122t-121.5 -39h-2528q-83 0 -121.5 39t-38.5 122zM151 438v-273q0 -59 24.5 -83.5t83.5 -24.5h2502q59 0 83.5 24.5t24.5 83.5v273q0 59 -24.5 83.5t-83.5 24.5h-2502
q-59 0 -83.5 -24.5t-24.5 -83.5zM1566 737v-54h-122v54h122z" />
    <glyph glyph-name="uni1E0A" unicode="&#x1e0a;" horiz-adv-x="3391" 
d="M3088 700q110 0 168 -57.5t58 -167.5v-250q0 -110 -58 -167.5t-168 -57.5h-2986v700h2986zM3080 59q84 0 126 40.5t42 127.5v246q0 87 -42 127.5t-126 40.5h-2912v-582h2912zM1741 839v-54h-122v54h122z" />
    <glyph glyph-name="uni1E0B" unicode="&#x1e0b;" 
d="M2924 770v-609q0 -83 -38.5 -122t-121.5 -39h-2528q-82 0 -120.5 39t-38.5 122v281q0 83 38.5 122t120.5 39h2490q109 0 133 -76v243h65zM2859 165v273q0 59 -24.5 83.5t-82.5 24.5h-2503q-59 0 -83.5 -24.5t-24.5 -83.5v-273q0 -59 24.5 -83.5t83.5 -24.5h2503
q58 0 82.5 24.5t24.5 83.5zM1566 737v-54h-122v54h122z" />
    <glyph glyph-name="uni1E1E" unicode="&#x1e1e;" horiz-adv-x="3313" 
d="M102 0v700h3177v-59h-3111v-262h2986v-58h-2986v-321h-66zM1748 839v-54h-122v54h122z" />
    <glyph glyph-name="uni1E1F" unicode="&#x1e1f;" horiz-adv-x="2907" 
d="M280 546q-68 0 -98.5 -29.5t-30.5 -99.5v-87h2628v-57h-2628v-273h-65v419q0 94 45 139t140 45h2598v-57h-2589zM1573 737v-54h-122v54h122z" />
    <glyph glyph-name="uni1E40" unicode="&#x1e40;" horiz-adv-x="3995" 
d="M2164 700h1576q84 0 123.5 -40t39.5 -122v-538h-66v528q0 62 -24.5 87.5t-85.5 25.5h-1577q-66 0 -92.5 -27.5t-26.5 -95.5v-518h-66v518q0 68 -27 95.5t-93 27.5h-1577q-61 0 -85.5 -25.5t-24.5 -87.5v-528h-66v538q0 82 39.5 122t123.5 40h1577q79 0 118 -33t48 -103
q8 70 47 103t119 33zM2059 839v-54h-122v54h122z" />
    <glyph glyph-name="uni1E41" unicode="&#x1e41;" horiz-adv-x="3530" 
d="M1765 490q8 60 41.5 86.5t103.5 26.5h1374q83 0 121.5 -39t38.5 -122v-442h-65v438q0 59 -24.5 83.5t-83.5 24.5h-1384q-90 0 -90 -92v-454h-64v454q0 92 -90 92h-1384q-59 0 -83.5 -24.5t-24.5 -83.5v-438h-65v442q0 83 38.5 122t121.5 39h1374q70 0 104 -26.5t41 -86.5
zM1826 737v-54h-122v54h122z" />
    <glyph glyph-name="uni1E56" unicode="&#x1e56;" horiz-adv-x="3352" 
d="M102 0v700h3043q82 0 120.5 -39t38.5 -120v-61q0 -81 -38.5 -120t-120.5 -39h-2977v-321h-66zM3238 533q0 58 -24.5 83t-79.5 25h-2966v-262h2966q55 0 79.5 25t24.5 83v46zM1768 839v-54h-122v54h122z" />
    <glyph glyph-name="uni1E57" unicode="&#x1e57;" 
d="M86 -167v609q0 83 38.5 122t121.5 39h2528q83 0 121.5 -39t38.5 -122v-281q0 -83 -38.5 -122t-121.5 -39h-2490q-108 0 -133 76v-243h-65zM151 438v-273q0 -59 24.5 -83.5t83.5 -24.5h2502q59 0 83.5 24.5t24.5 83.5v273q0 59 -24.5 83.5t-83.5 24.5h-2502
q-59 0 -83.5 -24.5t-24.5 -83.5zM1566 737v-54h-122v54h122z" />
    <glyph glyph-name="uni1E60" unicode="&#x1e60;" horiz-adv-x="3334" 
d="M245 321q-82 0 -121 39t-39 120v61q0 81 39 120t121 39h2992v-59h-2982q-55 0 -79.5 -25t-24.5 -83v-46q0 -58 24.5 -83t79.5 -25h2853q82 0 120.5 -39t38.5 -120v-61q0 -81 -38.5 -120t-120.5 -39h-3043v59h3033q55 0 79 25t24 83v46q0 58 -24 83t-79 25h-2853z
M1728 839v-54h-122v54h122z" />
    <glyph glyph-name="uni1E61" unicode="&#x1e61;" horiz-adv-x="2978" 
d="M2887 546h-2670q-47 0 -67 -20t-20 -67v-42q0 -47 20 -67t67 -20h2560q73 0 106.5 -34t33.5 -109v-44q0 -75 -33.5 -109t-106.5 -34h-2712v57h2700q47 0 67 20t20 67v41q0 48 -20 68t-67 20h-2560q-73 0 -106.5 33.5t-33.5 108.5v45q0 75 33.5 109t106.5 34h2682v-57z
M1549 737v-54h-122v54h122z" />
    <glyph glyph-name="uni1E6A" unicode="&#x1e6a;" horiz-adv-x="3289" 
d="M3255 700v-59h-1577v-641h-66v641h-1578v59h3221zM1706 839v-54h-122v54h122z" />
    <glyph glyph-name="uni1E6B" unicode="&#x1e6b;" horiz-adv-x="2837" 
d="M246 0q-83 0 -121.5 39t-38.5 122v609h65v-167h2623v-57h-2623v-381q0 -59 24.5 -83.5t83.5 -24.5h2515v-57h-2528zM1479 737v-54h-122v54h122z" />
    <glyph glyph-name="Wgrave" unicode="&#x1e80;" horiz-adv-x="3995" 
d="M3740 0h-1576q-80 0 -119 33t-47 103q-9 -70 -48 -103t-118 -33h-1577q-84 0 -123.5 40t-39.5 122v538h66v-528q0 -62 24.5 -87.5t85.5 -25.5h1577q66 0 93 27.5t27 95.5v518h66v-518q0 -68 26.5 -95.5t92.5 -27.5h1577q61 0 85.5 25.5t24.5 87.5v528h66v-538
q0 -82 -39.5 -122t-123.5 -40zM2024 759l-332 113h144l286 -113h-98z" />
    <glyph glyph-name="wgrave" unicode="&#x1e81;" horiz-adv-x="3530" 
d="M1765 113q-7 -60 -41 -86.5t-104 -26.5h-1374q-83 0 -121.5 39t-38.5 122v442h65v-438q0 -59 24.5 -83.5t83.5 -24.5h1384q90 0 90 92v454h64v-454q0 -92 90 -92h1384q59 0 83.5 24.5t24.5 83.5v438h65v-442q0 -83 -38.5 -122t-121.5 -39h-1374q-70 0 -103.5 26.5
t-41.5 86.5zM1792 657l-332 113h144l286 -113h-98z" />
    <glyph glyph-name="Wacute" unicode="&#x1e82;" horiz-adv-x="3995" 
d="M3740 0h-1576q-80 0 -119 33t-47 103q-9 -70 -48 -103t-118 -33h-1577q-84 0 -123.5 40t-39.5 122v538h66v-528q0 -62 24.5 -87.5t85.5 -25.5h1577q66 0 93 27.5t27 95.5v518h66v-518q0 -68 26.5 -95.5t92.5 -27.5h1577q61 0 85.5 25.5t24.5 87.5v528h66v-538
q0 -82 -39.5 -122t-123.5 -40zM2307 872l-338 -113h-98l284 113h152z" />
    <glyph glyph-name="wacute" unicode="&#x1e83;" horiz-adv-x="3530" 
d="M1765 113q-7 -60 -41 -86.5t-104 -26.5h-1374q-83 0 -121.5 39t-38.5 122v442h65v-438q0 -59 24.5 -83.5t83.5 -24.5h1384q90 0 90 92v454h64v-454q0 -92 90 -92h1384q59 0 83.5 24.5t24.5 83.5v438h65v-442q0 -83 -38.5 -122t-121.5 -39h-1374q-70 0 -103.5 26.5
t-41.5 86.5zM2074 770l-338 -113h-98l284 113h152z" />
    <glyph glyph-name="Wdieresis" unicode="&#x1e84;" horiz-adv-x="3995" 
d="M3740 0h-1576q-80 0 -119 33t-47 103q-9 -70 -48 -103t-118 -33h-1577q-84 0 -123.5 40t-39.5 122v538h66v-528q0 -62 24.5 -87.5t85.5 -25.5h1577q66 0 93 27.5t27 95.5v518h66v-518q0 -68 26.5 -95.5t92.5 -27.5h1577q61 0 85.5 25.5t24.5 87.5v528h66v-538
q0 -82 -39.5 -122t-123.5 -40zM1823 839v-54h-123v54h123zM2296 839v-54h-123v54h123z" />
    <glyph glyph-name="wdieresis" unicode="&#x1e85;" horiz-adv-x="3530" 
d="M1765 113q-7 -60 -41 -86.5t-104 -26.5h-1374q-83 0 -121.5 39t-38.5 122v442h65v-438q0 -59 24.5 -83.5t83.5 -24.5h1384q90 0 90 92v454h64v-454q0 -92 90 -92h1384q59 0 83.5 24.5t24.5 83.5v438h65v-442q0 -83 -38.5 -122t-121.5 -39h-1374q-70 0 -103.5 26.5
t-41.5 86.5zM1590 737v-54h-123v54h123zM2063 737v-54h-123v54h123z" />
    <glyph glyph-name="Ygrave" unicode="&#x1ef2;" horiz-adv-x="3347" 
d="M3218 700h66v-217q0 -82 -39.5 -122t-123.5 -40h-1415v-321h-66v321h-1415q-83 0 -122.5 40t-39.5 122v217h66v-208q0 -62 24.5 -87.5t84.5 -25.5h2870q61 0 85.5 25.5t24.5 87.5v208zM1700 759l-332 113h144l286 -113h-98z" />
    <glyph glyph-name="ygrave" unicode="&#x1ef3;" horiz-adv-x="3020" 
d="M2734 -167h-2608v57h2601q69 0 100.5 30.5t31.5 101.5v94q-13 -39 -44.5 -57.5t-88.5 -18.5h-2480q-83 0 -121.5 39t-38.5 122v402h65v-398q0 -59 24.5 -83.5t83.5 -24.5h2492q59 0 83.5 24.5t24.5 83.5v398h65v-580q0 -97 -46 -143.5t-144 -46.5zM1536 657l-332 113h144
l286 -113h-98z" />
    <glyph glyph-name="uni2010" unicode="&#x2010;" horiz-adv-x="1140" 
d="M1083 356v-58h-1026v58h1026z" />
    <glyph glyph-name="figuredash" unicode="&#x2012;" horiz-adv-x="3366" 
d="M3366 356v-58h-3366v58h3366z" />
    <glyph glyph-name="endash" unicode="&#x2013;" horiz-adv-x="1500" 
d="M1500 356v-58h-1500v58h1500z" />
    <glyph glyph-name="emdash" unicode="&#x2014;" horiz-adv-x="3000" 
d="M3000 356v-58h-3000v58h3000z" />
    <glyph glyph-name="quoteleft" unicode="&#x2018;" horiz-adv-x="327" 
d="M107 536v65q0 99 88 99h25v-37h-23q-37 0 -37 -45v-17h60v-65h-113z" />
    <glyph glyph-name="quoteright" unicode="&#x2019;" horiz-adv-x="327" 
d="M220 700v-65q0 -99 -88 -99h-25v37h23q37 0 37 45v17h-60v65h113z" />
    <glyph glyph-name="quotesinglbase" unicode="&#x201a;" horiz-adv-x="327" 
d="M220 68v-65q0 -99 -88 -99h-25v37h23q37 0 37 45v17h-60v65h113z" />
    <glyph glyph-name="quotedblleft" unicode="&#x201c;" horiz-adv-x="541" 
d="M321 536v65q0 99 88 99h25v-37h-23q-37 0 -37 -45v-17h60v-65h-113zM107 536v65q0 99 88 99h25v-37h-23q-37 0 -37 -45v-17h60v-65h-113z" />
    <glyph glyph-name="quotedblright" unicode="&#x201d;" horiz-adv-x="541" 
d="M434 700v-65q0 -99 -88 -99h-25v37h23q37 0 37 45v17h-60v65h113zM220 700v-65q0 -99 -88 -99h-25v37h23q37 0 37 45v17h-60v65h113z" />
    <glyph glyph-name="quotedblbase" unicode="&#x201e;" horiz-adv-x="541" 
d="M434 68v-65q0 -99 -88 -99h-25v37h23q37 0 37 45v17h-60v65h113zM220 68v-65q0 -99 -88 -99h-25v37h23q37 0 37 45v17h-60v65h113z" />
    <glyph glyph-name="dagger" unicode="&#x2020;" horiz-adv-x="3090" 
d="M3040 492v-58h-1462v-566h-66v566h-1463v58h1463v248h66v-248h1462z" />
    <glyph glyph-name="daggerdbl" unicode="&#x2021;" horiz-adv-x="3090" 
d="M3040 217v-58h-1462v-291h-66v291h-1463v58h1463v217h-1463v58h1463v248h66v-248h1462v-58h-1462v-217h1462z" />
    <glyph glyph-name="bullet" unicode="&#x2022;" horiz-adv-x="1500" 
d="M842 173h-184q-157 0 -157 149v56q0 149 157 149h184q157 0 157 -149v-56q0 -149 -157 -149z" />
    <glyph glyph-name="ellipsis" unicode="&#x2026;" horiz-adv-x="754" 
d="M220 68v-68h-113v68h113zM434 68v-68h-113v68h113zM647 68v-68h-113v68h113z" />
    <glyph glyph-name="perthousand" unicode="&#x2030;" horiz-adv-x="5986" 
d="M1654 0l792 700h76l-792 -700h-76zM2439 117v300q0 60 28.5 88.5t88.5 28.5h1429q60 0 88 -28.5t28 -88.5v-300q0 -60 -28 -88.5t-88 -28.5h-1429q-60 0 -88.5 28.5t-28.5 88.5zM4041 121v292q0 36 -16 51.5t-50 15.5h-1409q-35 0 -51 -15.5t-16 -51.5v-292
q0 -36 16 -51.5t51 -15.5h1409q34 0 50 15.5t16 51.5zM4249 117v300q0 60 28.5 88.5t88.5 28.5h1429q60 0 88 -28.5t28 -88.5v-300q0 -60 -28 -88.5t-88 -28.5h-1429q-60 0 -88.5 28.5t-28.5 88.5zM5851 121v292q0 36 -16 51.5t-50 15.5h-1409q-35 0 -51 -15.5t-16 -51.5
v-292q0 -36 16 -51.5t51 -15.5h1409q34 0 50 15.5t16 51.5zM74 283v300q0 60 28.5 88.5t88.5 28.5h1429q60 0 88 -28.5t28 -88.5v-300q0 -60 -28 -88.5t-88 -28.5h-1429q-60 0 -88.5 28.5t-28.5 88.5zM1676 287v292q0 36 -16 51.5t-50 15.5h-1409q-35 0 -51 -15.5t-16 -51.5
v-292q0 -36 16 -51.5t51 -15.5h1409q34 0 50 15.5t16 51.5z" />
    <glyph glyph-name="guilsinglleft" unicode="&#x2039;" horiz-adv-x="461" 
d="M419 51h-81l-296 249l296 249h81l-297 -249z" />
    <glyph glyph-name="guilsinglright" unicode="&#x203a;" horiz-adv-x="461" 
d="M123 51h-81l297 249l-297 249h81l296 -249z" />
    <glyph glyph-name="fraction" unicode="&#x2044;" horiz-adv-x="947" 
d="M39 0l792 700h76l-792 -700h-76z" />
    <glyph glyph-name="zerosuperior" unicode="&#x2070;" horiz-adv-x="1811" 
d="M74 283v300q0 60 28.5 88.5t88.5 28.5h1429q60 0 88 -28.5t28 -88.5v-300q0 -60 -28 -88.5t-88 -28.5h-1429q-60 0 -88.5 28.5t-28.5 88.5zM1676 287v292q0 36 -16 51.5t-50 15.5h-1409q-35 0 -51 -15.5t-16 -51.5v-292q0 -36 16 -51.5t51 -15.5h1409q34 0 50 15.5
t16 51.5z" />
    <glyph glyph-name="foursuperior" unicode="&#x2074;" horiz-adv-x="1811" 
d="M1658 460v240h60v-534h-60v240h-1484q-60 0 -88 28.5t-28 88.5v177h60v-173q0 -36 16 -51.5t50 -15.5h1474z" />
    <glyph glyph-name="zeroinferior" unicode="&#x2080;" horiz-adv-x="1811" 
d="M74 117v300q0 60 28.5 88.5t88.5 28.5h1429q60 0 88 -28.5t28 -88.5v-300q0 -60 -28 -88.5t-88 -28.5h-1429q-60 0 -88.5 28.5t-28.5 88.5zM1676 121v292q0 36 -16 51.5t-50 15.5h-1409q-35 0 -51 -15.5t-16 -51.5v-292q0 -36 16 -51.5t51 -15.5h1409q34 0 50 15.5
t16 51.5z" />
    <glyph glyph-name="oneinferior" unicode="&#x2081;" horiz-adv-x="1811" 
d="M134 0v54h884v426h-884v54h945v-480h658v-54h-1603z" />
    <glyph glyph-name="twoinferior" unicode="&#x2082;" horiz-adv-x="1811" 
d="M1693 363v49q0 38 -14.5 53t-52.5 15h-1546v54h1557q60 0 88 -28.5t28 -88.5v-60q0 -60 -28 -88.5t-88 -28.5h-1417q-56 0 -77 -20.5t-21 -76.5v-89h1631v-54h-1692v152q0 142 142 142h1423q38 0 52.5 15t14.5 54z" />
    <glyph glyph-name="threeinferior" unicode="&#x2083;" horiz-adv-x="1811" 
d="M1749 418v-48q0 -47 -19.5 -72t-74.5 -31q55 -6 74.5 -31t19.5 -72v-48q0 -60 -27.5 -88t-87.5 -28h-1580v54h1568q38 0 52.5 15t14.5 53v50q0 38 -15.5 53t-50.5 15h-1476v54h1476q35 0 50.5 15t15.5 53v50q0 38 -14.5 53t-52.5 15h-1568v54h1580q60 0 87.5 -28
t27.5 -88z" />
    <glyph glyph-name="fourinferior" unicode="&#x2084;" horiz-adv-x="1811" 
d="M1658 294v240h60v-534h-60v240h-1484q-60 0 -88 28.5t-28 88.5v177h60v-173q0 -36 16 -51.5t50 -15.5h1474z" />
    <glyph glyph-name="Euro" unicode="&#x20ac;" horiz-adv-x="3366" 
d="M329 0q-83 0 -122.5 40t-39.5 122v159h-130v58h130v159q0 82 39.5 122t122.5 40h2977v-59h-2964q-60 0 -84.5 -25.5t-24.5 -87.5v-149h2948v-58h-2948v-149q0 -62 24.5 -87.5t84.5 -25.5h2964v-59h-2977z" />
    <glyph glyph-name="uni2117" unicode="&#x2117;" horiz-adv-x="3355" 
d="M311 370h2732q26 0 26 24v51q0 24 -26 24h-2732v-99zM3115 443v-47q0 -35 -16 -51t-51 -16h-2737v-140h-46v321h2783q67 0 67 -67zM243 0q-83 0 -122 39.5t-39 120.5v380q0 81 39 120.5t122 39.5h2869q83 0 122 -39.5t39 -120.5v-380q0 -81 -39 -120.5t-122 -39.5h-2869z
M245 42h2865q60 0 88 29t28 88v382q0 59 -28 88t-88 29h-2865q-116 0 -116 -117v-382q0 -117 116 -117z" />
    <glyph glyph-name="trademark" unicode="&#x2122;" horiz-adv-x="4448" 
d="M3178 166v399q0 81 -73 81h-927q-34 0 -48.5 -14.5t-14.5 -49.5v-416h-61v417q0 60 28.5 88.5t88.5 28.5h911q60 0 90 -23t36 -75q7 52 36.5 75t90.5 23h910q60 0 88.5 -28.5t28.5 -88.5v-417h-60v416q0 35 -14.5 49.5t-48.5 14.5h-927q-74 0 -74 -81v-399h-60zM1913 700
v-54h-905v-480h-61v480h-905v54h1871z" />
    <glyph glyph-name="uni2126" unicode="&#x2126;" horiz-adv-x="3366" 
d="M3215 383v150q0 58 -24.5 83t-79.5 25h-2856q-55 0 -79.5 -25t-24.5 -83v-150q0 -58 24.5 -83t79.5 -25h1221v-275h-1411v59h1346v158h-1166q-82 0 -121 39t-39 120v165q0 81 39 120t121 39h2876q82 0 121 -39t39 -120v-165q0 -81 -39 -120t-121 -39h-1166v-158h1346v-59
h-1411v275h1221q55 0 79.5 25t24.5 83z" />
    <glyph glyph-name="onethird" unicode="&#x2153;" horiz-adv-x="4175" 
d="M134 166v54h884v426h-884v54h945v-480h658v-54h-1603zM1654 0l792 700h76l-792 -700h-76zM4114 418v-48q0 -47 -19.5 -72t-74.5 -31q55 -6 74.5 -31t19.5 -72v-48q0 -60 -27.5 -88t-87.5 -28h-1580v54h1568q38 0 52.5 15t14.5 53v50q0 38 -15.5 53t-50.5 15h-1476v54
h1476q35 0 50.5 15t15.5 53v50q0 38 -14.5 53t-52.5 15h-1568v54h1580q60 0 87.5 -28t27.5 -88z" />
    <glyph glyph-name="twothirds" unicode="&#x2154;" horiz-adv-x="4175" 
d="M1693 529v49q0 38 -14.5 53t-52.5 15h-1546v54h1557q60 0 88 -28.5t28 -88.5v-60q0 -60 -28 -88.5t-88 -28.5h-1417q-56 0 -77 -20.5t-21 -76.5v-89h1631v-54h-1692v152q0 142 142 142h1423q38 0 52.5 15t14.5 54zM1654 0l792 700h76l-792 -700h-76zM4114 418v-48
q0 -47 -19.5 -72t-74.5 -31q55 -6 74.5 -31t19.5 -72v-48q0 -60 -27.5 -88t-87.5 -28h-1580v54h1568q38 0 52.5 15t14.5 53v50q0 38 -15.5 53t-50.5 15h-1476v54h1476q35 0 50.5 15t15.5 53v50q0 38 -14.5 53t-52.5 15h-1568v54h1580q60 0 87.5 -28t27.5 -88z" />
    <glyph glyph-name="partialdiff" unicode="&#x2202;" horiz-adv-x="3366" 
d="M3286 475v-313q0 -82 -39.5 -122t-123.5 -40h-2898q-82 0 -121 39t-39 120v61q0 81 39 120t121 39h2995v94q0 87 -42 127.5t-126 40.5h-2957v59h2965q110 0 168 -57.5t58 -167.5zM131 213v-46q0 -58 24.5 -83t79.5 -25h2875q61 0 85.5 25.5t24.5 87.5v149h-2985
q-55 0 -79.5 -25t-24.5 -83z" />
    <glyph glyph-name="uni2206" unicode="&#x2206;" horiz-adv-x="3366" 
d="M58 0l1624 738l1625 -738h-3249zM1682 672l-1349 -613h2699z" />
    <glyph glyph-name="product" unicode="&#x220f;" horiz-adv-x="3366" 
d="M3218 -132v773h-3070v-773h-66v832h3202v-832h-66z" />
    <glyph glyph-name="summation" unicode="&#x2211;" horiz-adv-x="3366" 
d="M3284 -73v-59h-3202v51l1128 365l-1128 365v51h3202v-59h-2982l1104 -357l-1104 -357h2982z" />
    <glyph glyph-name="minus" unicode="&#x2212;" horiz-adv-x="3366" 
d="M82 322v56h3202v-56h-3202z" />
    <glyph glyph-name="radical" unicode="&#x221a;" horiz-adv-x="3366" 
d="M2419 0l-392 322h-1945v56h1969l397 -326l788 648h93l-851 -700h-59z" />
    <glyph glyph-name="infinity" unicode="&#x221e;" horiz-adv-x="733" 
d="M345 317q-12 0 -23.5 12.5t-14.5 12.5t-11 -2t-14 -2q-8 0 -14.5 8t-6.5 17q0 22 8 35q-7 -7 -16 -37t-26 -41q-18 -12 -18 -40q0 -11 11 -21.5t11 -12.5q0 -4 -3 -4q-7 0 -12 5q13 -68 48 -104h-55q-35 114 -35 226q0 105 40.5 171.5t135.5 66.5q190 0 190 -254
q0 -75 -25 -210h-73q53 47 62 117q-4 -8 -13 -8q-3 0 -3 2l4 4q5 3 9.5 11.5t4.5 21.5q-4 -6 -15 -6q-1 0 -10.5 -4.5t-15.5 -4.5q-14 0 -40 3.5t-70 3.5q-22 0 -52.5 -6t-38.5 -6q-5 0 -13 2t-11 2q-28 0 -28 12q0 10 37 18.5t74 8.5q5 0 12 -0.5t12 -0.5t15.5 2t14.5 2
q112 0 127 -20q-1 16 -14 29t-30 13q-6 0 -6 7q0 57 -16 58q4 -7 4 -17q0 -18 -11 -32t-27 -14q-4 0 -10 2l-7 2q-1 0 -14.5 -14t-27.5 -14zM733 291v-148q-22 48 -69 112.5t-67 64.5q6 -85 -12 -177h-42q16 104 16 199q0 319 -213 319q-53 0 -91.5 -26.5t-59 -72.5
t-30 -97.5t-9.5 -111.5q0 -123 29 -210h-47q-19 67 -19 184q-17 -9 -39.5 -43.5t-49 -84.5t-30.5 -56v148q11 27 33 54t50 53.5t30 28.5q3 72 27 135t75.5 107.5t120.5 44.5q67 0 115.5 -22.5t76.5 -64t42.5 -87t22.5 -105.5q22 -5 68 -48t72 -96zM345 503q-3 3 -3 6
q0 2 2 2q1 0 6 -4.5t15 -8.5t22 -4q16 0 29 4t20 8l6 5q4 0 4 -2l-8 -8q24 0 52 -11q-29 80 -139 80q-55 0 -92 -33t-50 -85q37 20 41 39q-6 4 -6 7q0 4 3 4l2 -2q2 -1 6.5 -3.5t10 -5t13.5 -4t17 -1.5q24 0 49 17zM371 416q0 20 -4.5 40t-9.5 20q-10 0 -19 -39t-14 -39
q-3 0 -9.5 3t-11.5 3q-13 0 -21 -10.5t-8 -24.5t11 -14t18 6.5t9 6.5t12 -13.5t20 -13.5q14 0 25 10.5t12 10.5q3 0 10 -3.5t9 -3.5q10 0 18 11t8 24q0 10 -6 18t-16 8q-7 0 -14.5 -6.5t-11.5 -6.5q-7 0 -7 13zM510 318q0 95 -12 147l-5 3q0 -21 -18 -32t-41 -11
q-21 0 -37 12.5t-16 29.5q0 6 2 9q-12 2 -15 4q6 -9 10 -24t5.5 -24t4.5 -9q7 2 15 2q19 0 31 -14q34 0 34 -51q0 -3 8 -7t18.5 -13t15.5 -22zM383 310q-1 0 -8 -1t-15.5 -2t-13.5 -1t-13 1.5t-11 1.5q-15 0 -36 -4t-35 -9t-14 -8q0 -10 20 -10q24 0 54 6.5t44 6.5
q19 0 57.5 -3.5t52.5 -3.5q5 0 9.5 2t7.5 4t3 3q0 5 -36 11t-66 6zM267 413q-18 0 -31 10t-15 21q-4 -2 -15 -5q-4 -21 -4 -43q0 -50 3 -78q4 6 22 22t20 31q5 37 38 41q12 5 23 5q5 0 8.5 8.5t9.5 24.5t16 28l-13 -4q-1 -24 -18.5 -42.5t-43.5 -18.5zM419 465q-13 0 -16 13
q-5 0 -8.5 -5.5t-3.5 -9.5q0 -10 15 -17t31 -7q14 0 29 8.5t15 21.5q0 8 -14.5 12.5t-28.5 4.5q-5 -21 -19 -21zM267 427q14 0 30 11t16 24q0 6 -1 9q-20 0 -27 1q-5 -14 -18 -14q-10 0 -15 5q-4 -4 -18 -12q4 -24 33 -24zM266 288q-2 0 -2 3q0 12 107 12q93 0 93 -8
q0 -3 -3 -3q-1 0 -4 0.5t-10 1t-16 1.5t-24.5 1.5t-33.5 0.5q-36 0 -61 -2.5t-36 -4.5zM305 262q0 10 63 10q31 0 31 -8q0 -3 -2 -3q-4 0 -10 2t-10 2q-11 0 -26 -0.5t-20 -0.5q-4 0 -11.5 -3t-10.5 -3q-4 0 -4 4zM417 473q9 0 9 13q-1 0 -16 -6q0 -7 7 -7zM266 466
q7 0 10 9q-6 1 -11 4q0 -4 -6 -10q1 -3 7 -3zM325 34l-3 48l-10 -82h-21l15 125h25l4 -60l21 60h26l-15 -125h-22l10 82l-16 -48h-14zM21 125h35q23 0 20 -21l-10 -82q-3 -22 -22 -22h-38zM282 44q-1 -12 -10 -17l8 -27h-21l-7 23h-7l-3 -23h-22l15 125h36q21 0 18 -24z
M183 0l3 23h-14l-3 -23h-21l12 104q2 21 22 21h17q19 0 18 -21l-12 -104h-22zM594 0l15 125h35q23 0 20 -21l-8 -62q-3 -19 -22 -19h-15l-3 -23h-22zM111 0l3 23h-13l-3 -23h-22l15 125h22l-10 -83h13l10 83h22l-15 -125h-22zM539 125h22l-10 -79q0 -4 4 -4h5q5 0 5 4l9 79
h22l-10 -81q-3 -21 -19 -21l-9 -23h-23l9 23q-18 0 -15 21zM477 106l3 19h50l-3 -19h-13l-12 -106h-23l12 106h-14zM41 106l-11 -88h11q3 0 3 4l9 80q0 4 -4 4h-8zM629 106l-8 -64h8q5 0 5 4l7 56q0 4 -4 4h-8zM174 42h14l7 60q0 4 -4 4h-5q-5 0 -5 -4zM255 106l-8 -64h8
q5 0 5 4l7 56q0 4 -3 4h-9zM711 57l-3 -18h-19l-3 -21h27l-2 -18h-49l15 125h47l-3 -19h-24l-6 -49h20zM417 0l3 23h-14l-3 -23h-21l12 104q2 21 22 21h17q19 0 18 -21l-12 -104h-22zM408 42h14l7 60q0 4 -4 4h-5q-5 0 -5 -4z" />
    <glyph glyph-name="integral" unicode="&#x222b;" horiz-adv-x="3366" 
d="M1861 532l-303 -524q-45 -76 -94.5 -108t-132.5 -32h-1249v59h1248q65 0 102.5 24t73.5 85l303 524q45 77 94.5 108.5t132.5 31.5h1248v-59h-1247q-65 0 -102.5 -24t-73.5 -85z" />
    <glyph glyph-name="approxequal" unicode="&#x2248;" horiz-adv-x="3366" 
d="M82 168v57q271 98 683 98q194 0 450.5 -21.5t467.5 -48t468 -48t451 -21.5q410 0 682 97v-58q-276 -98 -685 -98q-244 0 -582.5 35t-676.5 70t-580 35q-405 0 -678 -97zM82 420v58q275 98 682 98q242 0 580 -35l676 -70t581 -35q408 0 683 98v-58q-273 -98 -686 -98
q-194 0 -451 21.5t-468 48t-467 48t-450 21.5q-409 0 -680 -97z" />
    <glyph glyph-name="notequal" unicode="&#x2260;" horiz-adv-x="3366" 
d="M1363 0h-76l211 190h-1370v57h1434l229 206h-1663v57h1727l212 190h77l-212 -190h1305v-57h-1369l-230 -206h1599v-57h-1662z" />
    <glyph glyph-name="lessequal" unicode="&#x2264;" horiz-adv-x="3366" 
d="M82 350l425 350h85l-392 -322h3084v-56h-3084l322 -265h2762v-57h-3202v57h356z" />
    <glyph glyph-name="greaterequal" unicode="&#x2265;" horiz-adv-x="3366" 
d="M2859 700l425 -350l-356 -293h356v-57h-3202v57h2762l322 265h-3084v56h3084l-392 322h85z" />
    <glyph glyph-name="lozenge" unicode="&#x25ca;" horiz-adv-x="3366" 
d="M1682 -38l-1624 387l1624 388l1625 -388zM1682 23l1369 326l-1369 327l-1368 -327z" />
    <glyph glyph-name="commaaccent" horiz-adv-x="750" 
d="M436 -89v-49q0 -86 -75 -86h-39v27h38q32 0 32 40v15h-78v53h122z" />
    <glyph glyph-name="f.alt" horiz-adv-x="2907" 
d="M280 546q-68 0 -98.5 -29.5t-30.5 -99.5v-87h2628v-57h-2628v-440h-65v586q0 94 45 139t140 45h2598v-57h-2589z" />
    <glyph glyph-name="i.alt" horiz-adv-x="266" 
d="M101 0v603h65v-603h-65zM198 737v-54h-130v54h130z" />
    <glyph glyph-name="i.trk" horiz-adv-x="430" 
d="M253 57h144v-57h-157q-81 0 -116 35.5t-35 116.5v451h65v-446q0 -56 22 -78t77 -22zM186 737v-54h-129v54h129z" />
    <glyph glyph-name="germandbls.alt" horiz-adv-x="3033" 
d="M2821 273h-2252v57h2252q46 0 64.5 17.5t18.5 62.5v49q0 47 -20 67t-67 20h-2536q-68 0 -99 -30t-31 -100v-583h-65v587q0 94 45 138.5t139 44.5h2561q73 0 105.5 -33t32.5 -106v-46q0 -56 -22 -84t-77 -33q55 -5 77 -33t22 -84v-45q0 -73 -33 -106t-105 -33h-2262v57
h2248q47 0 67 20t20 67v48q0 45 -18.5 63t-64.5 18z" />
    <glyph glyph-name="one.pnum" horiz-adv-x="506" 
d="M404 700v-700h-66v641h-301v59h367z" />
    </font>
</defs>
</svg>
