<?xml version="1.0" standalone="no"?>
<!DOCTYPE svg PUBLIC "-//W3C//DTD SVG 1.1//EN" "http://www.w3.org/Graphics/SVG/1.1/DTD/svg11.dtd" >
<svg xmlns="http://www.w3.org/2000/svg" xmlns:xlink="http://www.w3.org/1999/xlink" version="1.1">
<metadata>
Created by FontForge 20170731 at Sat Mar 14 00:16:18 2015
 By ,,,
Copyright (c) 2011 by Ryoichi Tsunekawa. All rights reserved.
</metadata>
<defs>
<font id="DesignSystemD-300I" horiz-adv-x="1300" >
  <font-face 
    font-family="DesignSystemD-300I"
    font-weight="400"
    font-style="italic"
    font-stretch="normal"
    units-per-em="1000"
    panose-1="4 5 4 7 2 11 2 2 3 2"
    ascent="822"
    descent="-178"
    x-height="603"
    cap-height="700"
    bbox="-113 -208 2619.97 932"
    underline-thickness="36"
    underline-position="-156"
    slope="-8"
    unicode-range="U+0020-FB02"
  />
<missing-glyph horiz-adv-x="766" 
d="M8 700h766v-700h-766v700zM55 656v-601l623 601h-623zM103 44h624v600z" />
    <glyph glyph-name="ij" unicode="ij" horiz-adv-x="496" 
d="M154 -110h45q52 0 72 18t28 71l87 624h65l-89 -632q-10 -74 -45.5 -106t-110.5 -32h-60zM379 683l8 54h101l-7 -54h-102zM48 0l84 603h65l-84 -603h-65zM234 737l-8 -54h-101l7 54h102z" />
    <glyph glyph-name="fi" unicode="fi" horiz-adv-x="1419" 
d="M290 546q-61 0 -92 -27t-40 -89l-14 -100h863l-8 -57h-863l-62 -440h-65l85 602q12 86 59 127t134 41h816l-8 -57h-805zM1286 57h73l-7 -57h-90q-74 0 -102 32t-17 106l65 465h65l-65 -456q-7 -52 9.5 -71t68.5 -19zM1310 737l-8 -54h-101l7 54h102z" />
    <glyph glyph-name="fl" unicode="fl" horiz-adv-x="1417" 
d="M290 546q-61 0 -92 -27t-40 -89l-14 -100h863l-8 -57h-863l-62 -440h-65l85 602q12 86 59 127t134 41h816l-8 -57h-805zM1283 57h74l-8 -57h-89q-75 0 -102.5 32t-17.5 106l89 632h65l-88 -623q-7 -52 9.5 -71t67.5 -19z" />
    <glyph glyph-name=".notdef" horiz-adv-x="766" 
d="M8 700h766v-700h-766v700zM55 656v-601l623 601h-623zM103 44h624v600z" />
    <glyph glyph-name=".null" horiz-adv-x="0" 
 />
    <glyph glyph-name="nonmarkingreturn" horiz-adv-x="333" 
 />
    <glyph glyph-name="space" unicode=" " horiz-adv-x="390" 
 />
    <glyph glyph-name="exclam" unicode="!" horiz-adv-x="295" 
d="M164 65l-9 -65h-99l9 65h99zM237 700l-33 -233q-20 -142 -53 -293h-43q13 178 30 293l32 233h67z" />
    <glyph glyph-name="quotedbl" unicode="&#x22;" horiz-adv-x="395" 
d="M170 700v-47q0 -79 -15 -261h-36q-15 182 -15 261v47h66zM358 700v-47q0 -79 -15 -261h-36q-15 182 -15 261v47h66z" />
    <glyph glyph-name="numbersign" unicode="#" 
d="M1076 0l8 144h-884l-7 -144h-62l8 144h-98l3 57h98l15 298h-97l3 57h97l8 144h62l-8 -144h884l7 144h62l-7 -144h97l-3 -57h-97l-16 -298h97l-3 -57h-97l-8 -144h-62zM219 499l-16 -298h884l16 298h-884z" />
    <glyph glyph-name="dollar" unicode="$" 
d="M25 107h1050q43 0 63.5 18.5t26.5 61.5l8 56q6 43 -10 61t-59 18h-919q-67 0 -94 32t-17 101l9 65q10 68 45.5 100t102.5 32h438l13 88h58l-13 -88h540l-8 -57h-1021q-43 0 -64 -18t-27 -62l-7 -56q-7 -43 8.5 -61.5t58.5 -18.5h920q67 0 94 -32t17 -100l-8 -65
q-10 -68 -46 -100t-102 -32h-439l-13 -90h-58l13 90h-567z" />
    <glyph glyph-name="percent" unicode="%" horiz-adv-x="1863" 
d="M699 0l455 700h59l-454 -700h-60zM1096 117l42 300q16 117 133 117h462q60 0 84.5 -28.5t16.5 -88.5l-43 -300q-16 -117 -133 -117h-462q-118 0 -100 117zM1731 121l41 292q6 36 -7.5 51.5t-48.5 15.5h-443q-34 0 -52.5 -15.5t-23.5 -51.5l-41 -292q-4 -36 9.5 -51.5
t47.5 -15.5h443q35 0 53 15.5t22 51.5zM79 283l42 300q16 117 133 117h462q60 0 84.5 -28.5t16.5 -88.5l-43 -300q-16 -117 -133 -117h-462q-118 0 -100 117zM714 287l41 292q6 36 -7.5 51.5t-48.5 15.5h-443q-34 0 -52.5 -15.5t-23.5 -51.5l-41 -292q-4 -36 9.5 -51.5
t47.5 -15.5h443q35 0 53 15.5t22 51.5z" />
    <glyph glyph-name="ampersand" unicode="&#x26;" horiz-adv-x="1396" 
d="M1230 321h-991q-54 0 -77.5 -22.5t-31.5 -77.5l-9 -64q-7 -52 11.5 -75.5t68.5 -23.5h902q53 0 74.5 19t28.5 73zM52 144l11 72q9 62 38 94.5t89 39.5q-58 7 -78 39t-11 95l9 72q11 75 50.5 109.5t114.5 34.5h1024l-8 -58h-1008q-50 0 -75.5 -23.5t-32.5 -75.5l-9 -64
q-8 -55 9.5 -77.5t71.5 -22.5h1145l-8 -58h-88l-26 -183q-10 -74 -46 -106t-110 -32h-937q-75 0 -105 35t-20 109z" />
    <glyph glyph-name="quotesingle" unicode="'" horiz-adv-x="208" 
d="M170 700v-47q0 -79 -15 -261h-36q-15 182 -15 261v47h66z" />
    <glyph glyph-name="parenleft" unicode="(" horiz-adv-x="332" 
d="M123 78q-8 -57 11 -79.5t74 -22.5h40l-8 -56h-56q-75 0 -105.5 35.5t-19.5 109.5l68 490q11 74 51.5 109.5t115.5 35.5h56l-8 -56h-40q-54 0 -80 -22.5t-33 -79.5z" />
    <glyph glyph-name="parenright" unicode=")" horiz-adv-x="332" 
d="M157 78l65 464q8 57 -11 79.5t-74 22.5h-40l8 56h56q75 0 105.5 -35.5t19.5 -109.5l-68 -490q-11 -74 -51.5 -109.5t-115.5 -35.5h-56l8 56h40q55 0 80.5 22.5t33.5 79.5z" />
    <glyph glyph-name="asterisk" unicode="*" horiz-adv-x="533" 
d="M296 460q83 48 157 70l76 23l12 -52l-76 -23q-74 -23 -165 -33q64 -68 94 -120l36 -62l-46 -32l-37 62q-38 66 -60 142q-48 -83 -101 -142l-53 -62l-42 32l54 62q52 60 129 120q-84 9 -156 33l-71 23l22 52l70 -23q85 -29 142 -70q-7 91 4 164l11 76h54l-11 -76
q-12 -91 -43 -164z" />
    <glyph glyph-name="plus" unicode="+" 
d="M74 321v57h550v218h57v-218h551v-57h-551v-218h-57v218h-550z" />
    <glyph glyph-name="comma" unicode="," horiz-adv-x="289" 
d="M160 68l-9 -65q-13 -99 -96 -99h-15l4 30h14q19 0 29.5 11.5t14.5 39.5l2 18h-50l10 65h96z" />
    <glyph glyph-name="hyphen" unicode="-" horiz-adv-x="582" 
d="M544 356l-8 -58h-491l8 58h491z" />
    <glyph glyph-name="period" unicode="." horiz-adv-x="289" 
d="M160 68l-9 -68h-97l10 68h96z" />
    <glyph glyph-name="slash" unicode="/" horiz-adv-x="552" 
d="M32 0l417 700h70l-417 -700h-70z" />
    <glyph glyph-name="zero" unicode="0" 
d="M199 0q-150 0 -129 148l57 404q21 148 170 148h861q76 0 107 -36.5t21 -111.5l-57 -404q-21 -148 -169 -148h-861zM1164 161l53 378q8 56 -11 79t-73 23h-828q-55 0 -80.5 -23t-33.5 -79l-53 -378q-8 -56 11 -79t74 -23h828q55 0 80.5 23t32.5 79z" />
    <glyph glyph-name="one" unicode="1" 
d="M938 700l-90 -641h349l-8 -59h-1091l8 59h678l82 583h-678l8 58h742z" />
    <glyph glyph-name="two" unicode="2" 
d="M1205 543q7 52 -11.5 75t-68.5 23h-998l8 59h1013q75 0 105 -35.5t19 -109.5l-12 -89q-11 -75 -51 -110t-115 -35h-842q-72 0 -105.5 -28.5t-43.5 -101.5l-18 -132h1127l-8 -59h-1193l28 200q24 179 204 179h844q50 0 75.5 23t32.5 75z" />
    <glyph glyph-name="three" unicode="3" 
d="M1076 321h-922l8 58h922q54 0 78 22.5t32 77.5l9 64q7 52 -11.5 75t-68.5 23h-1024l8 59h1040q75 0 105 -35t19 -109l-10 -72q-8 -62 -37.5 -94.5t-89.5 -39.5q58 -7 78 -39.5t11 -94.5l-10 -72q-10 -74 -49.5 -109t-114.5 -35h-1040l8 59h1024q50 0 75.5 23t32.5 75
l9 64q8 55 -10 77.5t-72 22.5z" />
    <glyph glyph-name="four" unicode="4" 
d="M1182 379l46 321h66l-98 -700h-66l44 321h-950q-149 0 -128 148l33 231h66l-31 -218q-8 -57 11 -80t73 -23h934z" />
    <glyph glyph-name="five" unicode="5" 
d="M78 321l53 379h1143l-8 -59h-1077l-37 -262h958q75 0 105.5 -35t19.5 -110l-12 -89q-11 -75 -51 -110t-115 -35h-1034l8 59h1020q50 0 75 23t32 75l9 66q7 52 -11.5 75t-68.5 23h-1009z" />
    <glyph glyph-name="six" unicode="6" 
d="M172 489l-15 -110h964q75 0 105.5 -35t19.5 -110l-12 -89q-11 -75 -51 -110t-115 -35h-884q-76 0 -106.5 35.5t-19.5 110.5l49 348q29 206 234 206h944l-8 -59h-931q-152 0 -174 -152zM1098 321h-949l-23 -163q-7 -54 11.5 -76.5t70.5 -22.5h854q50 0 75 23t32 75l9 66
q7 52 -11.5 75t-68.5 23z" />
    <glyph glyph-name="seven" unicode="7" 
d="M1080 379q62 0 91 24.5t38 88.5l21 149h-1157l9 59h1222l-30 -221q-23 -158 -181 -158h-453q-62 0 -91 -24.5t-38 -88.5l-29 -208h-66l31 221q23 158 180 158h453z" />
    <glyph glyph-name="eight" unicode="8" 
d="M1285 556l-10 -72q-8 -62 -37.5 -94.5t-89.5 -39.5q58 -7 78 -39.5t11 -94.5l-10 -72q-10 -74 -49.5 -109t-114.5 -35h-890q-75 0 -105 35t-20 109l11 72q9 62 38 94.5t89 39.5q-58 7 -78 39t-11 95l9 72q11 74 50.5 109t114.5 35h890q75 0 105 -35t19 -109zM243 379h855
q54 0 78 22.5t32 77.5l9 64q7 52 -11.5 75t-68.5 23h-858q-50 0 -75.5 -23t-32.5 -75l-9 -64q-8 -55 9.5 -77.5t71.5 -22.5zM1090 321h-855q-54 0 -77.5 -22.5t-31.5 -77.5l-9 -64q-7 -52 11.5 -75t68.5 -23h858q50 0 75.5 23t32.5 75l9 64q8 55 -10 77.5t-72 22.5z" />
    <glyph glyph-name="nine" unicode="9" 
d="M1141 700q76 0 106.5 -35.5t19.5 -110.5l-50 -348q-13 -102 -72.5 -154t-160.5 -52h-944l8 59h931q153 0 173 152l16 110h-965q-75 0 -105 35t-19 110l12 89q11 75 51 110t115 35h884zM156 543l-10 -66q-7 -52 11.5 -75t68.5 -23h950l23 163q7 54 -11.5 76.5t-70.5 22.5
h-854q-50 0 -75 -23t-32 -75z" />
    <glyph glyph-name="colon" unicode=":" horiz-adv-x="289" 
d="M225 538l-9 -68h-97l10 68h96zM160 68l-9 -68h-97l10 68h96z" />
    <glyph glyph-name="semicolon" unicode=";" horiz-adv-x="289" 
d="M160 68l-9 -65q-13 -99 -96 -99h-15l4 30h14q19 0 29.5 11.5t14.5 39.5l2 18h-50l10 65h96zM225 538l-9 -68h-97l10 68h96z" />
    <glyph glyph-name="less" unicode="&#x3c;" 
d="M74 350l260 246h77l-231 -218h1052v-57h-1051l230 -218h-77z" />
    <glyph glyph-name="equal" unicode="=" 
d="M96 195v57h1114v-57h-1114zM96 447v57h1114v-57h-1114z" />
    <glyph glyph-name="greater" unicode="&#x3e;" 
d="M972 596l260 -246l-260 -247h-77l230 218h-1051v57h1052l-231 218h77z" />
    <glyph glyph-name="question" unicode="?" horiz-adv-x="1241" 
d="M1162 477l10 66q7 53 -12 75.5t-69 22.5h-1018l8 59h1033q75 0 105.5 -35t19.5 -110l-12 -89q-11 -75 -51 -110t-115 -35h-422q-42 0 -62 -17.5t-26 -60.5l-10 -71h-66l12 84q18 123 140 123h427q50 0 75.5 23t32.5 75zM543 65l-9 -65h-99l9 65h99z" />
    <glyph glyph-name="at" unicode="@" horiz-adv-x="1399" 
d="M201 0q-83 0 -116.5 39.5t-22.5 120.5l53 380q12 81 56.5 120.5t127.5 39.5h935q162 0 138 -160l-53 -380q-22 -160 -183 -160h-935zM209 42h930q60 0 92 29t41 88l53 382q8 59 -16 88t-84 29h-929q-118 0 -133 -117l-54 -382q-16 -117 100 -117zM1068 189h-752
q-40 0 -56 19t-11 60l4 22q6 41 27 60.5t61 19.5h792l7 56q8 43 -37 43h-810l5 41h809q48 0 67 -22.5t12 -70.5l-20 -141q-6 -45 -29.5 -66t-68.5 -21zM341 329q-20 0 -29 -8t-12 -27l-4 -29q-2 -20 4.5 -27.5t27.5 -7.5h747q37 0 44 38l8 61h-786z" />
    <glyph glyph-name="A" unicode="A" horiz-adv-x="1337" 
d="M1214 0h-67l45 321h-1042l-45 -321h-66l77 552q21 148 170 148h877q149 0 128 -148zM1138 641h-844q-55 0 -80.5 -23t-33.5 -79l-22 -160h1042l23 160q8 56 -11 79t-74 23z" />
    <glyph glyph-name="B" unicode="B" horiz-adv-x="1330" 
d="M1253 216l-10 -72q-10 -74 -49.5 -109t-114.5 -35h-1030l98 700h1030q75 0 105 -35t19 -109l-10 -72q-8 -62 -37.5 -94.5t-89.5 -39.5q58 -7 78 -39.5t11 -94.5zM1114 379q54 0 78 22.5t32 77.5l9 64q7 52 -11.5 75t-68.5 23h-948l-38 -262h947zM159 321l-36 -262h948
q50 0 75.5 23t32.5 75l9 64q8 55 -10 77.5t-72 22.5h-947z" />
    <glyph glyph-name="C" unicode="C" horiz-adv-x="1234" 
d="M198 0q-149 0 -128 148l57 404q21 148 169 148h964l-8 -59h-947q-55 0 -80.5 -23t-33.5 -79l-53 -378q-8 -56 11 -79t74 -23h947l-8 -59h-964z" />
    <glyph glyph-name="D" unicode="D" horiz-adv-x="1330" 
d="M1115 700q101 0 146 -52t31 -154l-40 -288q-29 -206 -235 -206h-968l98 700h968zM1013 59q77 0 120 36.5t54 115.5l38 278q12 78 -20.5 115t-109.5 37h-890l-82 -582h890z" />
    <glyph glyph-name="E" unicode="E" horiz-adv-x="1293" 
d="M49 0l98 700h1151l-9 -59h-1084l-38 -262h986l-8 -58h-986l-36 -262h1085l-8 -59h-1151z" />
    <glyph glyph-name="F" unicode="F" horiz-adv-x="1259" 
d="M49 0l98 700h1145l-9 -59h-1078l-38 -262h980l-8 -58h-980l-44 -321h-66z" />
    <glyph glyph-name="G" unicode="G" horiz-adv-x="1314" 
d="M1080 59q53 0 74.5 18.5t28.5 72.5l24 171h-599l8 58h665l-34 -241q-10 -74 -46 -106t-110 -32h-893q-149 0 -128 148l57 404q21 148 169 148h1006l-9 -59h-988q-55 0 -80.5 -23t-33.5 -79l-53 -378q-8 -56 11 -79t74 -23h857z" />
    <glyph glyph-name="H" unicode="H" horiz-adv-x="1372" 
d="M1173 0l45 321h-1059l-44 -321h-66l98 700h66l-46 -321h1059l45 321h66l-98 -700h-66z" />
    <glyph glyph-name="I" unicode="I" horiz-adv-x="248" 
d="M49 0l98 700h66l-98 -700h-66z" />
    <glyph glyph-name="J" unicode="J" horiz-adv-x="1301" 
d="M40 138l29 204h66l-27 -192q-8 -54 8 -72.5t69 -18.5h847q55 0 80.5 23t32.5 79l76 539h66l-77 -552q-21 -148 -169 -148h-882q-75 0 -102.5 32t-16.5 106z" />
    <glyph glyph-name="K" unicode="K" horiz-adv-x="1339" 
d="M1321 700l-29 -210q-9 -65 -39.5 -99t-93.5 -41q61 -7 81.5 -41.5t11.5 -98.5l-29 -210h-66l30 217q8 55 -10 79.5t-72 24.5h-946l-44 -321h-66l97 700h66l-45 -321h946q54 0 79 24.5t33 79.5l30 217h66z" />
    <glyph glyph-name="L" unicode="L" horiz-adv-x="1251" 
d="M1194 59l-8 -59h-1137l98 700h66l-90 -641h1071z" />
    <glyph glyph-name="M" unicode="M" horiz-adv-x="1699" 
d="M1053 700h472q149 0 128 -148l-77 -552h-66l75 539q8 56 -11 79t-73 23h-469q-56 0 -82 -23.5t-35 -81.5l-74 -536h-66l74 536q9 58 -10.5 81.5t-75.5 23.5h-469q-55 0 -80.5 -23t-33.5 -79l-75 -539h-66l77 552q21 148 170 148h472q70 0 101 -26.5t30 -86.5
q17 60 55.5 86.5t108.5 26.5z" />
    <glyph glyph-name="N" unicode="N" horiz-adv-x="1337" 
d="M294 641q-55 0 -80.5 -23t-33.5 -79l-75 -539h-66l77 552q21 148 170 148h877q149 0 128 -148l-77 -552h-67l76 539q8 56 -11 79t-74 23h-844z" />
    <glyph glyph-name="O" unicode="O" horiz-adv-x="1320" 
d="M199 0q-150 0 -129 148l57 404q21 148 170 148h881q76 0 107 -36.5t21 -111.5l-57 -404q-21 -148 -169 -148h-881zM1184 161l53 378q8 56 -10.5 79t-73.5 23h-848q-54 0 -80 -23t-34 -79l-53 -378q-7 -57 11.5 -79.5t73.5 -22.5h848q55 0 80.5 23t32.5 79z" />
    <glyph glyph-name="P" unicode="P" horiz-adv-x="1299" 
d="M49 0l98 700h1025q75 0 105.5 -35t19.5 -110l-12 -89q-11 -75 -51 -110t-115 -35h-960l-44 -321h-66zM1230 543q7 52 -11.5 75t-68.5 23h-945l-38 -262h945q50 0 75.5 23t32.5 75z" />
    <glyph glyph-name="Q" unicode="Q" horiz-adv-x="1320" 
d="M199 0q-150 0 -129 148l57 404q21 148 170 148h881q76 0 107 -36.5t21 -111.5l-57 -404q-21 -148 -169 -148h-412l-17 -123h-60l18 123h-410zM1184 161l53 378q8 56 -10.5 79t-73.5 23h-848q-54 0 -80 -23t-34 -79l-53 -378q-7 -57 11.5 -79.5t73.5 -22.5h394l28 192h59
l-27 -192h394q55 0 80.5 23t32.5 79z" />
    <glyph glyph-name="R" unicode="R" horiz-adv-x="1337" 
d="M1301 556l-10 -72q-9 -63 -38.5 -95.5t-90.5 -39.5q59 -8 79 -42t11 -97l-29 -210h-66l30 217q8 55 -10 79.5t-72 24.5h-946l-44 -321h-66l98 700h1030q75 0 105 -35t19 -109zM1114 379q54 0 78 22.5t32 77.5l9 64q7 52 -11.5 75t-68.5 23h-948l-38 -262h947z" />
    <glyph glyph-name="S" unicode="S" horiz-adv-x="1268" 
d="M211 321q-75 0 -105.5 35t-19.5 110l12 89q11 75 51.5 110t115.5 35h978l-9 -59h-963q-50 0 -75.5 -23t-32.5 -75l-9 -66q-7 -52 11.5 -75t68.5 -23h844q75 0 105.5 -35t19.5 -110l-12 -89q-11 -75 -51 -110t-115 -35h-1013l8 59h999q50 0 75 23t33 75l9 66q7 52 -12 75
t-69 23h-844z" />
    <glyph glyph-name="T" unicode="T" horiz-adv-x="1225" 
d="M1258 700l-9 -59h-555l-90 -641h-66l89 641h-556l8 59h1179z" />
    <glyph glyph-name="U" unicode="U" horiz-adv-x="1337" 
d="M210 0q-150 0 -128 148l77 552h66l-76 -539q-7 -56 12 -79t73 -23h845q54 0 79.5 23t33.5 79l75 539h67l-78 -552q-21 -148 -169 -148h-877z" />
    <glyph glyph-name="V" unicode="V" horiz-adv-x="1330" 
d="M49 0l98 700h66l-90 -641h879q152 0 172 152l69 489h66l-70 -494q-14 -101 -73.5 -153.5t-160.5 -52.5h-956z" />
    <glyph glyph-name="W" unicode="W" horiz-adv-x="1699" 
d="M1449 0h-472q-71 0 -102 26.5t-30 86.5q-17 -60 -55 -86.5t-108 -26.5h-472q-150 0 -128 148l77 552h66l-76 -539q-7 -56 12 -79t73 -23h469q56 0 82 23.5t34 81.5l76 536h66l-76 -536q-8 -58 12 -81.5t75 -23.5h469q55 0 80.5 23t32.5 79l76 539h66l-77 -552
q-21 -148 -170 -148z" />
    <glyph glyph-name="X" unicode="X" horiz-adv-x="1325" 
d="M100 490l29 210h66l-30 -217q-8 -55 10 -79.5t72 -24.5h852q54 0 79 24.5t33 79.5l31 217h66l-30 -210q-9 -64 -39 -98.5t-93 -41.5q61 -7 81.5 -41.5t11.5 -98.5l-29 -210h-66l29 217q8 55 -10 79.5t-72 24.5h-852q-54 0 -79 -24.5t-33 -79.5l-30 -217h-66l29 210
q9 65 39.5 99t93.5 41q-61 7 -81.5 41.5t-11.5 98.5z" />
    <glyph glyph-name="Y" unicode="Y" horiz-adv-x="1296" 
d="M1255 700h66l-32 -231q-21 -148 -170 -148h-414l-45 -321h-66l44 321h-414q-149 0 -128 148l33 231h66l-31 -218q-8 -56 11 -79.5t73 -23.5h863q54 0 80 23t33 80z" />
    <glyph glyph-name="Z" unicode="Z" horiz-adv-x="1278" 
d="M1037 379q71 0 104.5 28.5t43.5 101.5l19 132h-1077l8 59h1143l-28 -200q-26 -179 -204 -179h-794q-72 0 -105.5 -28.5t-43.5 -101.5l-18 -132h1103l-8 -59h-1169l28 200q24 179 204 179h794z" />
    <glyph glyph-name="bracketleft" unicode="[" horiz-adv-x="362" 
d="M147 700h221l-7 -54h-161l-95 -672h161l-8 -54h-221z" />
    <glyph glyph-name="backslash" unicode="\" horiz-adv-x="552" 
d="M102 700l417 -700h-70l-417 700h70z" />
    <glyph glyph-name="bracketright" unicode="]" horiz-adv-x="362" 
d="M105 700h222l-110 -780h-222l8 54h161l94 672h-160z" />
    <glyph glyph-name="asciicircum" unicode="^" 
d="M653 713l579 -336v-66l-579 336l-579 -336v66z" />
    <glyph glyph-name="underscore" unicode="_" horiz-adv-x="766" 
d="M724 -57v-49h-766v49h766z" />
    <glyph glyph-name="grave" unicode="`" horiz-adv-x="371" 
d="M279 661l-161 104h90l136 -104h-65z" />
    <glyph glyph-name="a" unicode="a" horiz-adv-x="1170" 
d="M1053 330l17 118q8 53 -11 75.5t-73 22.5h-862l8 57h879q75 0 105.5 -35.5t20.5 -110.5l-44 -311q-11 -75 -51 -110.5t-115 -35.5h-780q-66 0 -93.5 32t-17.5 100l9 65q10 69 45.5 101t102.5 32h860zM1046 273h-846q-43 0 -64 -18t-27 -62l-8 -56q-6 -43 10 -61.5
t59 -18.5h748q54 0 78.5 22t32.5 76z" />
    <glyph glyph-name="b" unicode="b" horiz-adv-x="1180" 
d="M65 146l87 624h65l-34 -236q32 69 131 69h708q75 0 105.5 -35.5t19.5 -110.5l-44 -311q-11 -75 -50.5 -110.5t-114.5 -35.5h-748q-75 0 -105.5 35.5t-19.5 110.5zM172 448l-41 -293q-8 -53 11 -75.5t73 -22.5h714q53 0 78 22t33 76l41 293q8 53 -11.5 75.5t-72.5 22.5
h-714q-54 0 -78.5 -22t-32.5 -76z" />
    <glyph glyph-name="c" unicode="c" horiz-adv-x="1110" 
d="M180 0q-75 0 -105.5 35.5t-19.5 110.5l44 311q10 75 50 110.5t115 35.5h847l-8 -57h-830q-53 0 -78 -22.5t-33 -75.5l-41 -293q-8 -53 11.5 -75.5t72.5 -22.5h830l-8 -57h-847z" />
    <glyph glyph-name="d" unicode="d" horiz-adv-x="1180" 
d="M1181 770l-88 -624q-10 -75 -50 -110.5t-115 -35.5h-748q-75 0 -105.5 35.5t-19.5 110.5l44 311q10 75 50 110.5t115 35.5h707q53 0 79 -16.5t33 -52.5l34 236h64zM1030 155l41 293q8 53 -11.5 75.5t-72.5 22.5h-714q-53 0 -78 -22.5t-33 -75.5l-41 -293q-8 -53 11 -75.5
t73 -22.5h714q53 0 78 22t33 76z" />
    <glyph glyph-name="e" unicode="e" horiz-adv-x="1170" 
d="M1146 405q-10 -69 -46 -100.5t-102 -31.5h-861l-16 -118q-8 -53 12 -75.5t72 -22.5h862l-8 -57h-879q-78 0 -106.5 38.5t-17.5 118.5l43 300q10 75 50 110.5t115 35.5h780q67 0 94 -32t17 -100zM1021 546h-748q-57 0 -81 -25t-32 -87l-15 -104h846q43 0 64 18t27 61l7 54
q7 45 -8 64t-60 19z" />
    <glyph glyph-name="f" unicode="f" horiz-adv-x="1088" 
d="M290 546q-61 0 -92 -27t-40 -89l-14 -100h863l-8 -57h-863l-62 -440h-65l85 602q12 86 59 127t134 41h816l-8 -57h-805z" />
    <glyph glyph-name="g" unicode="g" horiz-adv-x="1180" 
d="M915 75q54 0 79 22t33 75l38 276q8 53 -11.5 75.5t-72.5 22.5h-714q-53 0 -78 -22.5t-33 -75.5l-39 -276q-7 -53 12 -75t72 -22h714zM884 18h-708q-75 0 -105.5 35.5t-19.5 110.5l42 293q10 75 50 110.5t115 35.5h748q75 0 105.5 -35.5t19.5 -110.5l-62 -437
q-13 -96 -64.5 -141.5t-148.5 -45.5h-811l8 57h803q68 0 103.5 30t45.5 100l9 66q-32 -68 -130 -68z" />
    <glyph glyph-name="h" unicode="h" horiz-adv-x="1197" 
d="M1077 448q8 53 -11.5 75.5t-72.5 22.5h-711q-54 0 -79 -22.5t-33 -75.5l-62 -448h-65l108 770h65l-34 -236q32 69 131 69h705q75 0 105.5 -35.5t19.5 -110.5l-64 -457h-65z" />
    <glyph glyph-name="i" unicode="i" horiz-adv-x="331" 
d="M209 57h73l-7 -57h-90q-74 0 -102 32t-17 106l65 465h65l-65 -456q-7 -52 9.5 -71t68.5 -19zM233 737l-8 -54h-101l7 54h102z" />
    <glyph glyph-name="j" unicode="j" horiz-adv-x="252" 
d="M-90 -110h45q52 0 72 18t28 71l87 624h65l-89 -632q-10 -74 -45.5 -106t-110.5 -32h-60zM135 683l8 54h101l-7 -54h-102z" />
    <glyph glyph-name="k" unicode="k" horiz-adv-x="1183" 
d="M1068 397l29 206h65l-25 -180q-9 -57 -32.5 -86t-72.5 -36q47 -7 63 -36t8 -86l-25 -179h-65l28 205q5 35 -9 51.5t-50 16.5h-836l-38 -273h-65l108 770h65l-62 -440h836q36 0 55 16t23 51z" />
    <glyph glyph-name="l" unicode="l" horiz-adv-x="329" 
d="M205 57h74l-8 -57h-89q-75 0 -102.5 32t-17.5 106l89 632h65l-88 -623q-7 -52 9.5 -71t67.5 -19z" />
    <glyph glyph-name="m" unicode="m" horiz-adv-x="1529" 
d="M793 501q15 55 51.5 78.5t104.5 23.5h401q75 0 105.5 -35.5t20.5 -110.5l-64 -457h-65l62 448q8 53 -11 75.5t-72 22.5h-402q-51 0 -75 -22t-31 -72l-63 -452h-65l63 452q7 50 -11 72t-68 22h-402q-54 0 -78.5 -22t-32.5 -76l-63 -448h-65l64 457q11 75 51 110.5
t115 35.5h401q68 0 98.5 -23.5t30.5 -78.5z" />
    <glyph glyph-name="n" unicode="n" horiz-adv-x="1185" 
d="M33 0l64 457q11 75 51 110.5t115 35.5h744q75 0 105.5 -35.5t19.5 -110.5l-64 -457h-65l62 448q8 53 -11 75.5t-72 22.5h-710q-54 0 -78.5 -22t-32.5 -76l-63 -448h-65z" />
    <glyph glyph-name="o" unicode="o" horiz-adv-x="1168" 
d="M1010 603q75 0 105.5 -35.5t20.5 -110.5l-44 -311q-11 -75 -51 -110.5t-115 -35.5h-746q-75 0 -105.5 35.5t-19.5 110.5l44 311q10 75 50 110.5t115 35.5h746zM917 57q54 0 79 22t33 76l40 293q8 53 -11 75.5t-72 22.5h-713q-53 0 -78 -22.5t-33 -75.5l-41 -293
q-8 -53 11 -75.5t73 -22.5h712z" />
    <glyph glyph-name="p" unicode="p" horiz-adv-x="1180" 
d="M9 -167l88 624q11 75 51 110.5t115 35.5h748q75 0 105.5 -35.5t19.5 -110.5l-44 -311q-11 -75 -50.5 -110.5t-114.5 -35.5h-708q-99 0 -112 69l-33 -236h-65zM161 448l-41 -293q-8 -53 11 -75.5t73 -22.5h714q53 0 78 22t33 76l41 293q8 53 -11.5 75.5t-72.5 22.5h-714
q-54 0 -78.5 -22t-32.5 -76z" />
    <glyph glyph-name="q" unicode="q" horiz-adv-x="1180" 
d="M1137 457l-88 -624h-64l33 236q-32 -69 -131 -69h-707q-75 0 -105.5 35.5t-19.5 110.5l44 311q10 75 50 110.5t115 35.5h748q75 0 105.5 -35.5t19.5 -110.5zM1030 155l41 293q8 53 -11.5 75.5t-72.5 22.5h-714q-53 0 -78 -22.5t-33 -75.5l-41 -293q-8 -53 11 -75.5
t73 -22.5h714q53 0 78 22.5t33 75.5z" />
    <glyph glyph-name="r" unicode="r" horiz-adv-x="1002" 
d="M1017 603l-8 -57h-737q-53 0 -78 -22.5t-33 -75.5l-63 -448h-65l64 457q11 75 51 110.5t115 35.5h754z" />
    <glyph glyph-name="s" unicode="s" horiz-adv-x="1135" 
d="M1089 546h-857q-43 0 -63.5 -18.5t-26.5 -61.5l-8 -57q-6 -43 9.5 -61t58.5 -18h757q67 0 94 -32t17 -101l-9 -65q-10 -68 -45.5 -100t-101.5 -32h-902l8 57h887q43 0 63.5 18.5t26.5 61.5l8 56q6 43 -9.5 61.5t-59.5 18.5h-757q-67 0 -93.5 31.5t-17.5 100.5l9 66
q10 68 46 100t102 32h872z" />
    <glyph glyph-name="t" unicode="t" horiz-adv-x="1038" 
d="M190 0q-75 0 -105.5 35.5t-19.5 110.5l87 624h65l-24 -167h846l-8 -57h-846l-54 -391q-8 -53 11 -75.5t73 -22.5h748l-8 -57h-765z" />
    <glyph glyph-name="u" unicode="u" horiz-adv-x="1185" 
d="M925 57q53 0 78 22t33 76l62 448h65l-64 -457q-11 -75 -50.5 -110.5t-114.5 -35.5h-744q-75 0 -105.5 35.5t-19.5 110.5l63 457h65l-62 -448q-8 -53 11 -75.5t73 -22.5h710z" />
    <glyph glyph-name="v" unicode="v" horiz-adv-x="1181" 
d="M1152 603l-58 -412q-14 -99 -65.5 -145t-150.5 -46h-835l84 603h65l-76 -546h761q71 0 106.5 30.5t45.5 103.5l58 412h65z" />
    <glyph glyph-name="w" unicode="w" horiz-adv-x="1529" 
d="M747 102q-15 -55 -51.5 -78.5t-104.5 -23.5h-401q-75 0 -105.5 35.5t-19.5 110.5l63 457h65l-62 -448q-8 -53 11 -75.5t73 -22.5h401q50 0 74 22t32 72l63 452h65l-63 -452q-8 -50 10.5 -72t69.5 -22h401q54 0 79 22t33 76l62 448h65l-64 -457q-11 -75 -51 -110.5
t-115 -35.5h-401q-68 0 -98 23.5t-31 78.5z" />
    <glyph glyph-name="x" unicode="x" horiz-adv-x="1185" 
d="M1070 397l29 206h64l-25 -180q-8 -57 -32 -86t-73 -36q48 -7 63.5 -36t7.5 -86l-25 -179h-64l28 205q5 36 -9 52t-50 16h-791q-37 0 -55 -16.5t-23 -51.5l-29 -205h-64l25 179q8 57 32 86t73 36q-47 7 -63.5 36.5t-7.5 85.5l25 180h64l-28 -206q-5 -35 8.5 -51t49.5 -16
h792q36 0 54.5 16t23.5 51z" />
    <glyph glyph-name="y" unicode="y" horiz-adv-x="1197" 
d="M863 -167h-808l8 57h801q68 0 103 30t45 100l9 66q-32 -68 -130 -68h-705q-75 0 -105.5 35.5t-19.5 110.5l61 439h65l-60 -431q-7 -53 12 -75t72 -22h711q54 0 79 22t33 75l60 431h64l-82 -583q-13 -96 -64.5 -141.5t-148.5 -45.5z" />
    <glyph glyph-name="z" unicode="z" horiz-adv-x="1145" 
d="M225 273q-59 0 -89.5 -27t-38.5 -86l-14 -103h974l-8 -57h-1038l21 160q25 170 193 170h693q59 0 89.5 26.5t38.5 85.5l15 104h-953l8 57h1017l-22 -161q-24 -169 -193 -169h-693z" />
    <glyph glyph-name="braceleft" unicode="{" horiz-adv-x="344" 
d="M195 542l-18 -124q-7 -55 -28 -81t-65 -27q44 -1 57.5 -27t5.5 -81l-18 -124q-7 -57 11.5 -79.5t73.5 -22.5h40l-8 -56h-56q-75 0 -105.5 35.5t-19.5 109.5l22 158q5 34 -2.5 46.5t-38.5 12.5h-18l8 56h18q31 0 41.5 12.5t16.5 46.5l22 158q19 145 166 145h56l-8 -56h-40
q-54 0 -79.5 -22.5t-33.5 -79.5z" />
    <glyph glyph-name="bar" unicode="|" horiz-adv-x="279" 
d="M116 -167v907h63v-907h-63z" />
    <glyph glyph-name="braceright" unicode="}" horiz-adv-x="344" 
d="M199 418l17 124q8 57 -10.5 79.5t-73.5 22.5h-40l8 56h56q75 0 105.5 -35.5t19.5 -109.5l-22 -158q-5 -34 3 -46.5t38 -12.5h19l-8 -56h-18q-31 0 -42.5 -12.5t-16.5 -46.5l-22 -158q-19 -145 -166 -145h-56l8 56h39q55 0 80.5 22.5t33.5 79.5l17 124q8 55 29 81t65 27
q-44 1 -57 27t-6 81z" />
    <glyph glyph-name="asciitilde" unicode="~" 
d="M74 295v65q102 66 253 66q104 0 324 -44.5t323 -44.5q155 0 258 71v-67q-104 -65 -253 -65q-104 0 -325 44.5t-324 44.5q-154 0 -256 -70z" />
    <glyph glyph-name="uni00A0" unicode="&#xa0;" horiz-adv-x="390" 
 />
    <glyph glyph-name="exclamdown" unicode="&#xa1;" horiz-adv-x="295" 
d="M135 565l9 65h99l-9 -65h-99zM62 -70l33 233q16 122 53 293h43q-9 -132 -30 -293l-32 -233h-67z" />
    <glyph glyph-name="cent" unicode="&#xa2;" 
d="M624 -40l13 90h-445q-75 0 -105.5 35.5t-19.5 110.5l43 308q11 75 51 110.5t115 35.5h445l13 90h58l-13 -90h524l-8 -57h-524l-68 -486h524l-8 -57h-524l-13 -90h-58zM217 107h427l68 486h-427q-53 0 -78 -22.5t-33 -75.5l-41 -290q-8 -53 11.5 -75.5t72.5 -22.5z" />
    <glyph glyph-name="sterling" unicode="&#xa3;" 
d="M212 59h1005l-8 -59h-1202l8 59h131l37 262h-131l8 58h131l24 173q11 75 52 111.5t116 36.5h864l-8 -59h-848q-54 0 -79 -21.5t-32 -75.5l-23 -165h945l-9 -58h-944z" />
    <glyph glyph-name="currency" unicode="&#xa4;" 
d="M105 505q0 75 35 110.5t110 35.5h374v89h59v-89h373q75 0 110 -35.5t35 -110.5v-126h77v-58h-77v-127q0 -75 -35 -110.5t-110 -35.5h-373v-88h-59v88h-374q-75 0 -110 35.5t-35 110.5v127h-76v58h76v126zM1038 593h-770q-53 0 -75.5 -22t-22.5 -76v-291q0 -53 22 -75.5
t76 -22.5h770q53 0 75.5 22.5t22.5 75.5v291q0 53 -22 75.5t-76 22.5z" />
    <glyph glyph-name="yen" unicode="&#xa5;" 
d="M1233 700h66l-23 -167q-11 -76 -52 -112t-117 -36h-412l-23 -159h542l-9 -58h-541l-23 -168h-66l23 168h-541l9 58h540l23 159h-413q-76 0 -107 36.5t-20 111.5l23 167h66l-22 -155q-8 -55 11 -78.5t75 -23.5h855q55 0 80.5 23t33.5 79z" />
    <glyph glyph-name="brokenbar" unicode="&#xa6;" horiz-adv-x="279" 
d="M116 -167v394h63v-394h-63zM116 347v393h63v-393h-63z" />
    <glyph glyph-name="section" unicode="&#xa7;" horiz-adv-x="1294" 
d="M229 442h895q69 0 96 -32t17 -103l-5 -38q-14 -102 -111 -115q50 -7 68 -35.5t11 -79.5l-5 -32q-10 -73 -47.5 -106t-108.5 -33h-1021l8 57h1007q47 0 70 20t29 67l5 30q6 45 -10 64.5t-61 19.5h-896q-69 0 -96 32t-17 103l5 38q14 102 111 115q-50 7 -68 35t-11 80l5 32
q10 73 47.5 106t108.5 33h1021l-8 -57h-1007q-47 0 -70 -20t-29 -67l-5 -30q-6 -45 10.5 -64.5t61.5 -19.5zM1097 385h-875q-45 0 -66.5 -19t-28.5 -64l-4 -33q-7 -47 10 -66.5t64 -19.5h875q45 0 66.5 19t28.5 64l5 33q6 47 -11 66.5t-64 19.5z" />
    <glyph glyph-name="dieresis" unicode="&#xa8;" horiz-adv-x="371" 
d="M162 736l-8 -53h-94l7 53h95zM425 736l-7 -53h-95l8 53h94z" />
    <glyph glyph-name="copyright" unicode="&#xa9;" horiz-adv-x="1399" 
d="M329 189q-46 0 -66.5 21t-20.5 66v147q0 45 20.5 66t66.5 21h828v-41h-831q-37 0 -37 -37v-165q0 -37 37 -37h831v-41h-828zM240 0q-83 0 -122 39.5t-39 120.5v380q0 81 39 120.5t122 39.5h935q161 0 161 -160v-380q0 -160 -161 -160h-935zM242 42h930q117 0 117 117v382
q0 117 -117 117h-930q-116 0 -116 -117v-382q0 -117 116 -117z" />
    <glyph glyph-name="ordfeminine" unicode="&#xaa;" horiz-adv-x="967" 
d="M879 460l17 122q5 35 -7.5 49.5t-46.5 14.5h-716l7 54h723q60 0 84.5 -28.5t16.5 -88.5l-43 -300q-16 -117 -133 -117h-630q-60 0 -83.5 28.5t-15.5 88.5l8 60q16 117 133 117h686zM121 342l-9 -57q-4 -36 8 -50.5t46 -14.5h616q34 0 51 14.5t21 49.5l18 122h-680
q-34 0 -50.5 -14.5t-20.5 -49.5zM458 84l52 -84h-127z" />
    <glyph glyph-name="guillemotleft" unicode="&#xab;" horiz-adv-x="529" 
d="M256 51h-69l-156 249l226 249h72l-229 -252zM462 51h-69l-156 249l226 249h72l-229 -252z" />
    <glyph glyph-name="logicalnot" unicode="&#xac;" 
d="M74 321v57h1158v-275h-57v218h-1101z" />
    <glyph glyph-name="uni00AD" unicode="&#xad;" horiz-adv-x="582" 
d="M544 356l-8 -58h-491l8 58h491z" />
    <glyph glyph-name="registered" unicode="&#xae;" horiz-adv-x="1399" 
d="M240 0q-83 0 -122 39.5t-39 120.5v380q0 81 39 120.5t122 39.5h935q161 0 161 -160v-380q0 -160 -161 -160h-935zM242 42h930q117 0 117 117v382q0 117 -117 117h-930q-116 0 -116 -117v-382q0 -117 116 -117zM1167 413q0 -60 -55 -64q55 -5 55 -67v-93h-46v110
q0 30 -28 30h-795v-140h-46v321h849q35 0 50.5 -16t15.5 -51v-30zM1121 445q0 24 -25 24h-798v-99h798q25 0 25 24v51z" />
    <glyph glyph-name="macron" unicode="&#xaf;" horiz-adv-x="371" 
d="M406 692h-332l5 39h333z" />
    <glyph glyph-name="degree" unicode="&#xb0;" horiz-adv-x="660" 
d="M66 569q0 131 139 131h295q140 0 140 -131v-124q0 -131 -140 -131h-295q-139 0 -139 131v124zM220 647q-53 0 -73 -20t-20 -72v-96q0 -52 20 -72t73 -20h266q53 0 73 20t20 72v96q0 52 -20 72t-73 20h-266z" />
    <glyph glyph-name="plusminus" unicode="&#xb1;" 
d="M1232 0h-1158v57h1158v-57zM74 321v57h550v218h57v-218h551v-57h-551v-218h-57v218h-550z" />
    <glyph glyph-name="twosuperior" unicode="&#xb2;" horiz-adv-x="822" 
d="M748 529l6 49q6 38 -6.5 53.5t-50.5 15.5h-577l8 53h588q60 0 84 -28.5t16 -88.5l-9 -60q-16 -117 -132 -117h-451q-56 0 -80.5 -21t-31.5 -76l-13 -89h665l-7 -54h-726l21 152q21 142 163 142h456q38 0 54.5 15t22.5 54z" />
    <glyph glyph-name="threesuperior" unicode="&#xb3;" horiz-adv-x="822" 
d="M812 584l-7 -46q-7 -48 -28 -73.5t-73 -31.5q50 -6 64.5 -31.5t7.5 -73.5l-7 -46q-16 -116 -131 -116h-614l8 54h601q38 0 55 15t22 53l7 50q5 36 -8 52t-48 16h-522l7 54h522q35 0 52.5 15.5t23.5 52.5l6 50q5 38 -7.5 53t-49.5 15h-601l7 54h614q59 0 83 -28.5
t16 -87.5z" />
    <glyph glyph-name="acute" unicode="&#xb4;" horiz-adv-x="371" 
d="M388 765l-194 -104h-68l165 104h97z" />
    <glyph glyph-name="uni00B5" unicode="&#xb5;" horiz-adv-x="1197" 
d="M214 57h711q53 0 78 22t33 76l62 448h65l-64 -457q-11 -75 -50.5 -110.5t-114.5 -35.5h-705q-53 0 -79.5 16.5t-32.5 52.5l-33 -236h-65l108 770h65l-62 -448q-8 -53 11 -75.5t73 -22.5z" />
    <glyph glyph-name="paragraph" unicode="&#xb6;" horiz-adv-x="1217" 
d="M1195 700l-117 -832h-63l109 775h-175l-109 -775h-62l57 407h-625q-85 0 -119 40.5t-22 124.5l13 95q12 84 57.5 124.5t130.5 40.5h925z" />
    <glyph glyph-name="periodcentered" unicode="&#xb7;" horiz-adv-x="289" 
d="M204 384l-9 -68h-97l10 68h96z" />
    <glyph glyph-name="cedilla" unicode="&#xb8;" horiz-adv-x="383" 
d="M132 -45h100q37 0 55 -8.5t18 -32.5q0 -76 -124 -76h-223l7 45h220q40 0 56 7.5t16 28.5q0 19 -38 19h-115l31 62h18z" />
    <glyph glyph-name="onesuperior" unicode="&#xb9;" horiz-adv-x="822" 
d="M104 166l8 54h328l60 426h-329l8 54h388l-67 -480h248l-7 -54h-637z" />
    <glyph glyph-name="ordmasculine" unicode="&#xba;" horiz-adv-x="980" 
d="M64 283l42 300q16 117 133 117h630q60 0 84 -28.5t16 -88.5l-42 -300q-16 -117 -133 -117h-630q-60 0 -84 28.5t-16 88.5zM795 220q34 0 50.5 14.5t20.5 49.5l43 298q4 35 -8.5 49.5t-45.5 14.5h-617q-34 0 -51 -14.5t-21 -49.5l-42 -298q-4 -35 8 -49.5t46 -14.5h617z
M470 84l52 -84h-127z" />
    <glyph glyph-name="guillemotright" unicode="&#xbb;" horiz-adv-x="529" 
d="M66 51h-70l227 249l-157 249h70l157 -249zM272 51h-71l228 249l-158 249h71l156 -249z" />
    <glyph glyph-name="onequarter" unicode="&#xbc;" horiz-adv-x="1863" 
d="M681 0l455 700h59l-454 -700h-60zM104 166l8 54h328l60 426h-329l8 54h388l-67 -480h248l-7 -54h-637zM1720 294l34 240h60l-75 -534h-60l34 240h-518q-60 0 -84 28.5t-16 88.5l25 177h60l-25 -173q-4 -35 9.5 -51t47.5 -16h508z" />
    <glyph glyph-name="onehalf" unicode="&#xbd;" horiz-adv-x="1863" 
d="M681 0l455 700h59l-454 -700h-60zM104 166l8 54h328l60 426h-329l8 54h388l-67 -480h248l-7 -54h-637zM1765 363l6 49q6 38 -6.5 53.5t-50.5 15.5h-577l8 53h588q60 0 84 -28.5t16 -88.5l-9 -60q-16 -117 -132 -117h-451q-56 0 -80.5 -21t-31.5 -76l-13 -89h665l-7 -54
h-726l21 152q21 142 163 142h456q38 0 54.5 15t22.5 54z" />
    <glyph glyph-name="threequarters" unicode="&#xbe;" horiz-adv-x="1863" 
d="M681 0l455 700h59l-454 -700h-60zM1720 294l34 240h60l-75 -534h-60l34 240h-518q-60 0 -84 28.5t-16 88.5l25 177h60l-25 -173q-4 -35 9.5 -51t47.5 -16h508zM812 584l-7 -46q-7 -48 -28 -73.5t-73 -31.5q50 -6 64.5 -31.5t7.5 -73.5l-7 -46q-16 -116 -131 -116h-614
l8 54h601q38 0 55 15t22 53l7 50q5 36 -8 52t-48 16h-522l7 54h522q35 0 52.5 15.5t23.5 52.5l6 50q5 38 -7.5 53t-49.5 15h-601l7 54h614q59 0 83 -28.5t16 -87.5z" />
    <glyph glyph-name="questiondown" unicode="&#xbf;" horiz-adv-x="1238" 
d="M92 153l-9 -66q-7 -52 12 -75t69 -23h1018l-8 -59h-1033q-75 0 -105.5 35t-20.5 110l13 89q11 75 51 110t115 35h421q42 0 62 17.5t26 60.5l10 71h67l-12 -84q-18 -123 -141 -123h-427q-50 0 -75.5 -23t-32.5 -75zM712 565l9 65h99l-9 -65h-99z" />
    <glyph glyph-name="Agrave" unicode="&#xc0;" horiz-adv-x="1337" 
d="M1214 0h-67l45 321h-1042l-45 -321h-66l77 552q21 148 170 148h877q149 0 128 -148zM1138 641h-844q-55 0 -80.5 -23t-33.5 -79l-22 -160h1042l23 160q8 56 -11 79t-74 23zM741 752l-161 104h90l136 -104h-65z" />
    <glyph glyph-name="Aacute" unicode="&#xc1;" horiz-adv-x="1337" 
d="M1214 0h-67l45 321h-1042l-45 -321h-66l77 552q21 148 170 148h877q149 0 128 -148zM1138 641h-844q-55 0 -80.5 -23t-33.5 -79l-22 -160h1042l23 160q8 56 -11 79t-74 23zM916 856l-194 -104h-68l165 104h97z" />
    <glyph glyph-name="Acircumflex" unicode="&#xc2;" horiz-adv-x="1337" 
d="M1214 0h-67l45 321h-1042l-45 -321h-66l77 552q21 148 170 148h877q149 0 128 -148zM1138 641h-844q-55 0 -80.5 -23t-33.5 -79l-22 -160h1042l23 160q8 56 -11 79t-74 23zM742 824l-145 -72h-63l173 104h78l143 -104h-60z" />
    <glyph glyph-name="Atilde" unicode="&#xc3;" horiz-adv-x="1337" 
d="M1214 0h-67l45 321h-1042l-45 -321h-66l77 552q21 148 170 148h877q149 0 128 -148zM1138 641h-844q-55 0 -80.5 -23t-33.5 -79l-22 -160h1042l23 160q8 56 -11 79t-74 23zM566 757l6 45q51 44 96 44q29 0 76 -24.5t74 -24.5q43 0 91 45l-6 -45q-52 -44 -97 -44
q-29 0 -76 24t-74 24q-42 0 -90 -44z" />
    <glyph glyph-name="Adieresis" unicode="&#xc4;" horiz-adv-x="1337" 
d="M1214 0h-67l45 321h-1042l-45 -321h-66l77 552q21 148 170 148h877q149 0 128 -148zM1138 641h-844q-55 0 -80.5 -23t-33.5 -79l-22 -160h1042l23 160q8 56 -11 79t-74 23zM657 827l-8 -53h-94l7 53h95zM920 827l-7 -53h-95l8 53h94z" />
    <glyph glyph-name="Aring" unicode="&#xc5;" horiz-adv-x="1337" 
d="M1214 0h-67l45 321h-1042l-45 -321h-66l77 552q21 148 170 148h877q149 0 128 -148zM1138 641h-844q-55 0 -80.5 -23t-33.5 -79l-22 -160h1042l23 160q8 56 -11 79t-74 23zM782 838h-79q-41 0 -41 -35q0 -24 33 -24h79q41 0 41 35q0 24 -33 24zM710 866h74q63 0 63 -46
q0 -69 -80 -69h-74q-63 0 -63 46q0 69 80 69z" />
    <glyph glyph-name="AE" unicode="&#xc6;" horiz-adv-x="2026" 
d="M963 0l45 321h-858l-45 -321h-66l77 552q21 148 170 148h1745l-9 -59h-905l-37 -262h806l-8 -58h-806l-37 -262h906l-8 -59h-970zM294 641q-55 0 -80.5 -23t-33.5 -79l-22 -160h858l37 262h-759z" />
    <glyph glyph-name="Ccedilla" unicode="&#xc7;" horiz-adv-x="1234" 
d="M444 -117h220q40 0 56 7.5t16 28.5q0 19 -38 19h-115l31 62h-416q-149 0 -128 148l57 404q21 148 169 148h964l-8 -59h-947q-55 0 -80.5 -23t-33.5 -79l-53 -378q-8 -56 11 -79t74 -23h947l-8 -59h-530l-21 -45h100q37 0 55 -8.5t18 -32.5q0 -76 -124 -76h-223z" />
    <glyph glyph-name="Egrave" unicode="&#xc8;" horiz-adv-x="1293" 
d="M49 0l98 700h1151l-9 -59h-1084l-38 -262h986l-8 -58h-986l-36 -262h1085l-8 -59h-1151zM741 752l-161 104h90l136 -104h-65z" />
    <glyph glyph-name="Eacute" unicode="&#xc9;" horiz-adv-x="1293" 
d="M49 0l98 700h1151l-9 -59h-1084l-38 -262h986l-8 -58h-986l-36 -262h1085l-8 -59h-1151zM916 856l-194 -104h-68l165 104h97z" />
    <glyph glyph-name="Ecircumflex" unicode="&#xca;" horiz-adv-x="1293" 
d="M49 0l98 700h1151l-9 -59h-1084l-38 -262h986l-8 -58h-986l-36 -262h1085l-8 -59h-1151zM743 824l-145 -72h-63l173 104h78l143 -104h-60z" />
    <glyph glyph-name="Edieresis" unicode="&#xcb;" horiz-adv-x="1293" 
d="M49 0l98 700h1151l-9 -59h-1084l-38 -262h986l-8 -58h-986l-36 -262h1085l-8 -59h-1151zM658 827l-8 -53h-94l7 53h95zM921 827l-7 -53h-95l8 53h94z" />
    <glyph glyph-name="Igrave" unicode="&#xcc;" horiz-adv-x="248" 
d="M49 0l98 700h66l-98 -700h-66zM199 752l-161 104h90l136 -104h-65z" />
    <glyph glyph-name="Iacute" unicode="&#xcd;" horiz-adv-x="248" 
d="M49 0l98 700h66l-98 -700h-66zM371 856l-194 -104h-68l165 104h97z" />
    <glyph glyph-name="Icircumflex" unicode="&#xce;" horiz-adv-x="248" 
d="M49 0l98 700h66l-98 -700h-66zM198 824l-145 -72h-63l173 104h78l143 -104h-60z" />
    <glyph glyph-name="Idieresis" unicode="&#xcf;" horiz-adv-x="248" 
d="M346 827l-7 -53h-94l6 53h95zM143 827l-7 -53h-94l6 53h95zM49 0l98 700h66l-98 -700h-66z" />
    <glyph glyph-name="Eth" unicode="&#xd0;" horiz-adv-x="1331" 
d="M1115 700q101 0 146 -52t31 -154l-40 -288q-29 -206 -235 -206h-968l45 321h-74l8 58h74l45 321h968zM1013 59q77 0 120 36.5t54 115.5l38 278q12 78 -20.5 115t-109.5 37h-890l-37 -262h199l-9 -58h-198l-37 -262h890z" />
    <glyph glyph-name="Ntilde" unicode="&#xd1;" horiz-adv-x="1337" 
d="M294 641q-55 0 -80.5 -23t-33.5 -79l-75 -539h-66l77 552q21 148 170 148h877q149 0 128 -148l-77 -552h-67l76 539q8 56 -11 79t-74 23h-844zM566 757l6 45q51 44 96 44q29 0 76 -24.5t74 -24.5q43 0 91 45l-6 -45q-52 -44 -97 -44q-29 0 -76 24t-74 24q-42 0 -90 -44z
" />
    <glyph glyph-name="Ograve" unicode="&#xd2;" horiz-adv-x="1320" 
d="M199 0q-150 0 -129 148l57 404q21 148 170 148h881q76 0 107 -36.5t21 -111.5l-57 -404q-21 -148 -169 -148h-881zM1184 161l53 378q8 56 -10.5 79t-73.5 23h-848q-54 0 -80 -23t-34 -79l-53 -378q-7 -57 11.5 -79.5t73.5 -22.5h848q55 0 80.5 23t32.5 79zM753 752
l-161 104h90l136 -104h-65z" />
    <glyph glyph-name="Oacute" unicode="&#xd3;" horiz-adv-x="1320" 
d="M199 0q-150 0 -129 148l57 404q21 148 170 148h881q76 0 107 -36.5t21 -111.5l-57 -404q-21 -148 -169 -148h-881zM1184 161l53 378q8 56 -10.5 79t-73.5 23h-848q-54 0 -80 -23t-34 -79l-53 -378q-7 -57 11.5 -79.5t73.5 -22.5h848q55 0 80.5 23t32.5 79zM929 856
l-194 -104h-68l165 104h97z" />
    <glyph glyph-name="Ocircumflex" unicode="&#xd4;" horiz-adv-x="1320" 
d="M199 0q-150 0 -129 148l57 404q21 148 170 148h881q76 0 107 -36.5t21 -111.5l-57 -404q-21 -148 -169 -148h-881zM1184 161l53 378q8 56 -10.5 79t-73.5 23h-848q-54 0 -80 -23t-34 -79l-53 -378q-7 -57 11.5 -79.5t73.5 -22.5h848q55 0 80.5 23t32.5 79zM755 824
l-145 -72h-63l173 104h78l143 -104h-60z" />
    <glyph glyph-name="Otilde" unicode="&#xd5;" horiz-adv-x="1320" 
d="M199 0q-150 0 -129 148l57 404q21 148 170 148h881q76 0 107 -36.5t21 -111.5l-57 -404q-21 -148 -169 -148h-881zM1184 161l53 378q8 56 -10.5 79t-73.5 23h-848q-54 0 -80 -23t-34 -79l-53 -378q-7 -57 11.5 -79.5t73.5 -22.5h848q55 0 80.5 23t32.5 79zM579 757l6 45
q51 44 96 44q29 0 76 -24.5t74 -24.5q43 0 91 45l-6 -45q-52 -44 -97 -44q-29 0 -76 24t-74 24q-42 0 -90 -44z" />
    <glyph glyph-name="Odieresis" unicode="&#xd6;" horiz-adv-x="1320" 
d="M199 0q-150 0 -129 148l57 404q21 148 170 148h881q76 0 107 -36.5t21 -111.5l-57 -404q-21 -148 -169 -148h-881zM1184 161l53 378q8 56 -10.5 79t-73.5 23h-848q-54 0 -80 -23t-34 -79l-53 -378q-7 -57 11.5 -79.5t73.5 -22.5h848q55 0 80.5 23t32.5 79zM670 827
l-8 -53h-94l7 53h95zM933 827l-7 -53h-95l8 53h94z" />
    <glyph glyph-name="multiply" unicode="&#xd7;" 
d="M719 321l180 -218h-68l-178 218l-179 -218h-68l179 218h-511v57h511l-179 218h68l179 -218l178 218h68l-180 -218h513v-57h-513z" />
    <glyph glyph-name="Oslash" unicode="&#xd8;" horiz-adv-x="1320" 
d="M199 0q-150 0 -129 148l57 404q21 148 170 148h881q76 0 107 -36.5t21 -111.5l-57 -404q-21 -148 -169 -148h-881zM174 65l942 576h-811q-54 0 -80 -23t-34 -79l-53 -378q-10 -80 36 -96zM1184 161l53 378q12 78 -35 95l-942 -575h811q55 0 80.5 23t32.5 79z" />
    <glyph glyph-name="Ugrave" unicode="&#xd9;" horiz-adv-x="1337" 
d="M210 0q-150 0 -128 148l77 552h66l-76 -539q-7 -56 12 -79t73 -23h845q54 0 79.5 23t33.5 79l75 539h67l-78 -552q-21 -148 -169 -148h-877zM763 752l-161 104h90l136 -104h-65z" />
    <glyph glyph-name="Uacute" unicode="&#xda;" horiz-adv-x="1337" 
d="M210 0q-150 0 -128 148l77 552h66l-76 -539q-7 -56 12 -79t73 -23h845q54 0 79.5 23t33.5 79l75 539h67l-78 -552q-21 -148 -169 -148h-877zM936 856l-194 -104h-68l165 104h97z" />
    <glyph glyph-name="Ucircumflex" unicode="&#xdb;" horiz-adv-x="1337" 
d="M210 0q-150 0 -128 148l77 552h66l-76 -539q-7 -56 12 -79t73 -23h845q54 0 79.5 23t33.5 79l75 539h67l-78 -552q-21 -148 -169 -148h-877zM764 824l-145 -72h-63l173 104h78l143 -104h-60z" />
    <glyph glyph-name="Udieresis" unicode="&#xdc;" horiz-adv-x="1337" 
d="M210 0q-150 0 -128 148l77 552h66l-76 -539q-7 -56 12 -79t73 -23h845q54 0 79.5 23t33.5 79l75 539h67l-78 -552q-21 -148 -169 -148h-877zM679 827l-8 -53h-94l7 53h95zM942 827l-7 -53h-95l8 53h94z" />
    <glyph glyph-name="Yacute" unicode="&#xdd;" horiz-adv-x="1296" 
d="M1255 700h66l-32 -231q-21 -148 -170 -148h-414l-45 -321h-66l44 321h-414q-149 0 -128 148l33 231h66l-31 -218q-8 -56 11 -79.5t73 -23.5h863q54 0 80 23t33 80zM915 856l-194 -104h-68l165 104h97z" />
    <glyph glyph-name="Thorn" unicode="&#xde;" horiz-adv-x="1299" 
d="M49 0l98 700h66l-14 -97h959q76 0 106.5 -35.5t19.5 -109.5l-13 -89q-10 -75 -50 -110t-115 -35h-960l-31 -224h-66zM1216 446q7 52 -11.5 75t-68.5 23h-945l-37 -262h945q50 0 75.5 23t32.5 75z" />
    <glyph glyph-name="germandbls" unicode="&#xdf;" horiz-adv-x="1202" 
d="M999 273h-688l8 57h688q46 0 65.5 17.5t25.5 62.5l7 49q7 47 -10.5 67t-64.5 20h-739q-61 0 -92.5 -27t-40.5 -89l-84 -597h-65l85 602q12 86 59 127t133 41h768q71 0 99 -32.5t18 -105.5l-8 -52q-7 -52 -32 -79t-76 -33q49 -6 66.5 -33t10.5 -79l-7 -51
q-10 -73 -47 -105.5t-108 -32.5h-697l8 57h681q47 0 69.5 20t28.5 67l7 48q7 45 -8 63t-60 18z" />
    <glyph glyph-name="agrave" unicode="&#xe0;" horiz-adv-x="1170" 
d="M1053 330l17 118q8 53 -11 75.5t-73 22.5h-862l8 57h879q75 0 105.5 -35.5t20.5 -110.5l-44 -311q-11 -75 -51 -110.5t-115 -35.5h-780q-66 0 -93.5 32t-17.5 100l9 65q10 69 45.5 101t102.5 32h860zM1046 273h-846q-43 0 -64 -18t-27 -62l-8 -56q-6 -43 10 -61.5
t59 -18.5h748q54 0 78.5 22t32.5 76zM649 661l-161 104h90l136 -104h-65z" />
    <glyph glyph-name="aacute" unicode="&#xe1;" horiz-adv-x="1170" 
d="M1053 330l17 118q8 53 -11 75.5t-73 22.5h-862l8 57h879q75 0 105.5 -35.5t20.5 -110.5l-44 -311q-11 -75 -51 -110.5t-115 -35.5h-780q-66 0 -93.5 32t-17.5 100l9 65q10 69 45.5 101t102.5 32h860zM1046 273h-846q-43 0 -64 -18t-27 -62l-8 -56q-6 -43 10 -61.5
t59 -18.5h748q54 0 78.5 22t32.5 76zM818 765l-194 -104h-68l165 104h97z" />
    <glyph glyph-name="acircumflex" unicode="&#xe2;" horiz-adv-x="1170" 
d="M1053 330l17 118q8 53 -11 75.5t-73 22.5h-862l8 57h879q75 0 105.5 -35.5t20.5 -110.5l-44 -311q-11 -75 -51 -110.5t-115 -35.5h-780q-66 0 -93.5 32t-17.5 100l9 65q10 69 45.5 101t102.5 32h860zM1046 273h-846q-43 0 -64 -18t-27 -62l-8 -56q-6 -43 10 -61.5
t59 -18.5h748q54 0 78.5 22t32.5 76zM650 733l-145 -72h-63l173 104h78l143 -104h-60z" />
    <glyph glyph-name="atilde" unicode="&#xe3;" horiz-adv-x="1170" 
d="M1053 330l17 118q8 53 -11 75.5t-73 22.5h-862l8 57h879q75 0 105.5 -35.5t20.5 -110.5l-44 -311q-11 -75 -51 -110.5t-115 -35.5h-780q-66 0 -93.5 32t-17.5 100l9 65q10 69 45.5 101t102.5 32h860zM1046 273h-846q-43 0 -64 -18t-27 -62l-8 -56q-6 -43 10 -61.5
t59 -18.5h748q54 0 78.5 22t32.5 76zM474 666l6 45q51 44 96 44q29 0 76 -24.5t74 -24.5q43 0 91 45l-6 -45q-52 -44 -97 -44q-29 0 -76 24t-74 24q-42 0 -90 -44z" />
    <glyph glyph-name="adieresis" unicode="&#xe4;" horiz-adv-x="1170" 
d="M1053 330l17 118q8 53 -11 75.5t-73 22.5h-862l8 57h879q75 0 105.5 -35.5t20.5 -110.5l-44 -311q-11 -75 -51 -110.5t-115 -35.5h-780q-66 0 -93.5 32t-17.5 100l9 65q10 69 45.5 101t102.5 32h860zM1046 273h-846q-43 0 -64 -18t-27 -62l-8 -56q-6 -43 10 -61.5
t59 -18.5h748q54 0 78.5 22t32.5 76zM565 736l-8 -53h-94l7 53h95zM828 736l-7 -53h-95l8 53h94z" />
    <glyph glyph-name="aring" unicode="&#xe5;" horiz-adv-x="1170" 
d="M1053 330l17 118q8 53 -11 75.5t-73 22.5h-862l8 57h879q75 0 105.5 -35.5t20.5 -110.5l-44 -311q-11 -75 -51 -110.5t-115 -35.5h-780q-66 0 -93.5 32t-17.5 100l9 65q10 69 45.5 101t102.5 32h860zM1046 273h-846q-43 0 -64 -18t-27 -62l-8 -56q-6 -43 10 -61.5
t59 -18.5h748q54 0 78.5 22t32.5 76zM690 747h-79q-41 0 -41 -35q0 -24 33 -24h79q41 0 41 35q0 24 -33 24zM618 775h74q63 0 63 -46q0 -69 -80 -69h-74q-63 0 -63 46q0 69 80 69z" />
    <glyph glyph-name="ae" unicode="&#xe6;" horiz-adv-x="1741" 
d="M1652 409l7 57q7 43 -9 61.5t-59 18.5h-551q-51 0 -75 -22t-31 -72l-18 -122h645q43 0 64 18t27 61zM109 193l-8 -56q-6 -43 10 -61.5t59 -18.5h551q50 0 74 22t32 72l17 122h-644q-43 0 -64 -18t-27 -62zM696 0h-549q-66 0 -93.5 32t-17.5 100l9 65q10 69 45.5 101
t102.5 32h659l17 122q7 50 -11 72t-68 22h-666l8 57h648q68 0 98 -23.5t31 -78.5q15 55 51.5 78.5t104.5 23.5h549q66 0 93.5 -32t17.5 -100l-10 -66q-9 -69 -45 -100.5t-102 -31.5h-659l-17 -122q-8 -50 10.5 -72t69.5 -22h665l-8 -57h-648q-68 0 -98.5 23.5t-30.5 78.5
q-15 -55 -51.5 -78.5t-104.5 -23.5z" />
    <glyph glyph-name="ccedilla" unicode="&#xe7;" horiz-adv-x="1110" 
d="M366 -117h220q40 0 56 7.5t16 28.5q0 19 -38 19h-115l31 62h-356q-75 0 -105.5 35.5t-19.5 110.5l44 311q10 75 50 110.5t115 35.5h847l-8 -57h-830q-53 0 -78 -22.5t-33 -75.5l-41 -293q-8 -53 11.5 -75.5t72.5 -22.5h830l-8 -57h-473l-21 -45h100q37 0 55 -8.5
t18 -32.5q0 -76 -124 -76h-223z" />
    <glyph glyph-name="egrave" unicode="&#xe8;" horiz-adv-x="1170" 
d="M1146 405q-10 -69 -46 -100.5t-102 -31.5h-861l-16 -118q-8 -53 12 -75.5t72 -22.5h862l-8 -57h-879q-78 0 -106.5 38.5t-17.5 118.5l43 300q10 75 50 110.5t115 35.5h780q67 0 94 -32t17 -100zM1021 546h-748q-57 0 -81 -25t-32 -87l-15 -104h846q43 0 64 18t27 61l7 54
q7 45 -8 64t-60 19zM675 661l-161 104h90l136 -104h-65z" />
    <glyph glyph-name="eacute" unicode="&#xe9;" horiz-adv-x="1170" 
d="M1146 405q-10 -69 -46 -100.5t-102 -31.5h-861l-16 -118q-8 -53 12 -75.5t72 -22.5h862l-8 -57h-879q-78 0 -106.5 38.5t-17.5 118.5l43 300q10 75 50 110.5t115 35.5h780q67 0 94 -32t17 -100zM1021 546h-748q-57 0 -81 -25t-32 -87l-15 -104h846q43 0 64 18t27 61l7 54
q7 45 -8 64t-60 19zM850 765l-194 -104h-68l165 104h97z" />
    <glyph glyph-name="ecircumflex" unicode="&#xea;" horiz-adv-x="1170" 
d="M1146 405q-10 -69 -46 -100.5t-102 -31.5h-861l-16 -118q-8 -53 12 -75.5t72 -22.5h862l-8 -57h-879q-78 0 -106.5 38.5t-17.5 118.5l43 300q10 75 50 110.5t115 35.5h780q67 0 94 -32t17 -100zM1021 546h-748q-57 0 -81 -25t-32 -87l-15 -104h846q43 0 64 18t27 61l7 54
q7 45 -8 64t-60 19zM676 733l-145 -72h-63l173 104h78l143 -104h-60z" />
    <glyph glyph-name="edieresis" unicode="&#xeb;" horiz-adv-x="1170" 
d="M1146 405q-10 -69 -46 -100.5t-102 -31.5h-861l-16 -118q-8 -53 12 -75.5t72 -22.5h862l-8 -57h-879q-78 0 -106.5 38.5t-17.5 118.5l43 300q10 75 50 110.5t115 35.5h780q67 0 94 -32t17 -100zM1021 546h-748q-57 0 -81 -25t-32 -87l-15 -104h846q43 0 64 18t27 61l7 54
q7 45 -8 64t-60 19zM591 736l-8 -53h-94l7 53h95zM854 736l-7 -53h-95l8 53h94z" />
    <glyph glyph-name="igrave" unicode="&#xec;" horiz-adv-x="331" 
d="M200 661l-161 104h90l136 -104h-65zM198 57h73l-7 -57h-90q-74 0 -102 32t-17 106l65 465h65l-65 -456q-7 -52 9.5 -71t68.5 -19z" />
    <glyph glyph-name="iacute" unicode="&#xed;" horiz-adv-x="331" 
d="M362 765l-194 -104h-68l165 104h97zM209 57h73l-7 -57h-90q-74 0 -102 32t-17 106l65 465h65l-65 -456q-7 -52 9.5 -71t68.5 -19z" />
    <glyph glyph-name="icircumflex" unicode="&#xee;" horiz-adv-x="331" 
d="M198 57h73l-7 -57h-90q-74 0 -102 32t-17 106l65 465h65l-65 -456q-7 -52 9.5 -71t68.5 -19zM172 733l-145 -72h-63l173 104h78l143 -104h-60z" />
    <glyph glyph-name="idieresis" unicode="&#xef;" horiz-adv-x="331" 
d="M327 736l-7 -53h-95l8 53h94zM110 736l-8 -53h-95l8 53h95zM198 57h73l-7 -57h-90q-74 0 -102 32t-17 106l65 465h65l-65 -456q-7 -52 9.5 -71t68.5 -19z" />
    <glyph glyph-name="eth" unicode="&#xf0;" horiz-adv-x="1180" 
d="M262 585h707q52 0 78.5 -16.5t33.5 -51.5l9 66q10 70 -17 100t-95 30h-315l-11 -80h-37l11 80h-451l8 57h451l7 50h38l-7 -50h322q97 0 135.5 -45.5t24.5 -141.5l-61 -437q-10 -75 -50 -110.5t-115 -35.5h-748q-75 0 -105.5 35.5t-19.5 110.5l41 293q11 75 51 110.5
t115 35.5zM985 528h-714q-54 0 -79 -22t-33 -75l-38 -276q-8 -53 11.5 -75.5t72.5 -22.5h714q53 0 78 22t33 76l38 276q8 53 -11 75t-72 22z" />
    <glyph glyph-name="ntilde" unicode="&#xf1;" horiz-adv-x="1185" 
d="M33 0l64 457q11 75 51 110.5t115 35.5h744q75 0 105.5 -35.5t19.5 -110.5l-64 -457h-65l62 448q8 53 -11 75.5t-72 22.5h-710q-54 0 -78.5 -22t-32.5 -76l-63 -448h-65zM478 666l6 45q51 44 96 44q29 0 76 -24.5t74 -24.5q43 0 91 45l-6 -45q-52 -44 -97 -44
q-29 0 -76 24t-74 24q-42 0 -90 -44z" />
    <glyph glyph-name="ograve" unicode="&#xf2;" horiz-adv-x="1168" 
d="M1010 603q75 0 105.5 -35.5t20.5 -110.5l-44 -311q-11 -75 -51 -110.5t-115 -35.5h-746q-75 0 -105.5 35.5t-19.5 110.5l44 311q10 75 50 110.5t115 35.5h746zM917 57q54 0 79 22t33 76l40 293q8 53 -11 75.5t-72 22.5h-713q-53 0 -78 -22.5t-33 -75.5l-41 -293
q-8 -53 11 -75.5t73 -22.5h712zM655 661l-161 104h90l136 -104h-65z" />
    <glyph glyph-name="oacute" unicode="&#xf3;" horiz-adv-x="1168" 
d="M1010 603q75 0 105.5 -35.5t20.5 -110.5l-44 -311q-11 -75 -51 -110.5t-115 -35.5h-746q-75 0 -105.5 35.5t-19.5 110.5l44 311q10 75 50 110.5t115 35.5h746zM917 57q54 0 79 22t33 76l40 293q8 53 -11 75.5t-72 22.5h-713q-53 0 -78 -22.5t-33 -75.5l-41 -293
q-8 -53 11 -75.5t73 -22.5h712zM831 765l-194 -104h-68l165 104h97z" />
    <glyph glyph-name="ocircumflex" unicode="&#xf4;" horiz-adv-x="1168" 
d="M1010 603q75 0 105.5 -35.5t20.5 -110.5l-44 -311q-11 -75 -51 -110.5t-115 -35.5h-746q-75 0 -105.5 35.5t-19.5 110.5l44 311q10 75 50 110.5t115 35.5h746zM917 57q54 0 79 22t33 76l40 293q8 53 -11 75.5t-72 22.5h-713q-53 0 -78 -22.5t-33 -75.5l-41 -293
q-8 -53 11 -75.5t73 -22.5h712zM657 733l-145 -72h-63l173 104h78l143 -104h-60z" />
    <glyph glyph-name="otilde" unicode="&#xf5;" horiz-adv-x="1168" 
d="M1010 603q75 0 105.5 -35.5t20.5 -110.5l-44 -311q-11 -75 -51 -110.5t-115 -35.5h-746q-75 0 -105.5 35.5t-19.5 110.5l44 311q10 75 50 110.5t115 35.5h746zM917 57q54 0 79 22t33 76l40 293q8 53 -11 75.5t-72 22.5h-713q-53 0 -78 -22.5t-33 -75.5l-41 -293
q-8 -53 11 -75.5t73 -22.5h712zM481 666l6 45q51 44 96 44q29 0 76 -24.5t74 -24.5q43 0 91 45l-6 -45q-52 -44 -97 -44q-29 0 -76 24t-74 24q-42 0 -90 -44z" />
    <glyph glyph-name="odieresis" unicode="&#xf6;" horiz-adv-x="1168" 
d="M1010 603q75 0 105.5 -35.5t20.5 -110.5l-44 -311q-11 -75 -51 -110.5t-115 -35.5h-746q-75 0 -105.5 35.5t-19.5 110.5l44 311q10 75 50 110.5t115 35.5h746zM917 57q54 0 79 22t33 76l40 293q8 53 -11 75.5t-72 22.5h-713q-53 0 -78 -22.5t-33 -75.5l-41 -293
q-8 -53 11 -75.5t73 -22.5h712zM572 736l-8 -53h-94l7 53h95zM835 736l-7 -53h-95l8 53h94z" />
    <glyph glyph-name="divide" unicode="&#xf7;" 
d="M700 148v-68h-93v68h93zM700 620v-68h-93v68h93zM1232 321h-1158v57h1158v-57z" />
    <glyph glyph-name="oslash" unicode="&#xf8;" horiz-adv-x="1168" 
d="M1010 603q75 0 105.5 -35.5t20.5 -110.5l-44 -311q-11 -75 -51 -110.5t-115 -35.5h-746q-75 0 -105.5 35.5t-19.5 110.5l44 311q10 75 50 110.5t115 35.5h746zM917 57q54 0 79 22t33 76l40 293q5 41 -4.5 63.5t-37.5 29.5l-785 -484h675zM121 155q-12 -75 36 -92l782 483
h-666q-53 0 -78 -22.5t-33 -75.5z" />
    <glyph glyph-name="ugrave" unicode="&#xf9;" horiz-adv-x="1185" 
d="M925 57q53 0 78 22t33 76l62 448h65l-64 -457q-11 -75 -50.5 -110.5t-114.5 -35.5h-744q-75 0 -105.5 35.5t-19.5 110.5l63 457h65l-62 -448q-8 -53 11 -75.5t73 -22.5h710zM666 661l-161 104h90l136 -104h-65z" />
    <glyph glyph-name="uacute" unicode="&#xfa;" horiz-adv-x="1185" 
d="M925 57q53 0 78 22t33 76l62 448h65l-64 -457q-11 -75 -50.5 -110.5t-114.5 -35.5h-744q-75 0 -105.5 35.5t-19.5 110.5l63 457h65l-62 -448q-8 -53 11 -75.5t73 -22.5h710zM839 765l-194 -104h-68l165 104h97z" />
    <glyph glyph-name="ucircumflex" unicode="&#xfb;" horiz-adv-x="1185" 
d="M925 57q53 0 78 22t33 76l62 448h65l-64 -457q-11 -75 -50.5 -110.5t-114.5 -35.5h-744q-75 0 -105.5 35.5t-19.5 110.5l63 457h65l-62 -448q-8 -53 11 -75.5t73 -22.5h710zM665 733l-145 -72h-63l173 104h78l143 -104h-60z" />
    <glyph glyph-name="udieresis" unicode="&#xfc;" horiz-adv-x="1185" 
d="M925 57q53 0 78 22t33 76l62 448h65l-64 -457q-11 -75 -50.5 -110.5t-114.5 -35.5h-744q-75 0 -105.5 35.5t-19.5 110.5l63 457h65l-62 -448q-8 -53 11 -75.5t73 -22.5h710zM580 736l-8 -53h-94l7 53h95zM843 736l-7 -53h-95l8 53h94z" />
    <glyph glyph-name="yacute" unicode="&#xfd;" horiz-adv-x="1197" 
d="M863 -167h-808l8 57h801q68 0 103 30t45 100l9 66q-32 -68 -130 -68h-705q-75 0 -105.5 35.5t-19.5 110.5l61 439h65l-60 -431q-7 -53 12 -75t72 -22h711q54 0 79 22t33 75l60 431h64l-82 -583q-13 -96 -64.5 -141.5t-148.5 -45.5zM839 765l-194 -104h-68l165 104h97z
" />
    <glyph glyph-name="thorn" unicode="&#xfe;" horiz-adv-x="1190" 
d="M216 770l-24 -167h828q76 0 106.5 -35.5t19.5 -110.5l-44 -311q-11 -75 -50.5 -110.5t-115.5 -35.5h-707q-53 0 -79.5 16.5t-32.5 52.5l-33 -236h-65l132 937h65zM184 546l-54 -391q-8 -53 11 -75.5t73 -22.5h713q54 0 79 22t33 76l40 293q8 53 -11 75.5t-72 22.5h-812z
" />
    <glyph glyph-name="ydieresis" unicode="&#xff;" horiz-adv-x="1197" 
d="M863 -167h-808l8 57h801q68 0 103 30t45 100l9 66q-32 -68 -130 -68h-705q-75 0 -105.5 35.5t-19.5 110.5l61 439h65l-60 -431q-7 -53 12 -75t72 -22h711q54 0 79 22t33 75l60 431h64l-82 -583q-13 -96 -64.5 -141.5t-148.5 -45.5zM579 736l-8 -53h-94l7 53h95zM842 736
l-7 -53h-95l8 53h94z" />
    <glyph glyph-name="Amacron" unicode="&#x100;" horiz-adv-x="1337" 
d="M1214 0h-67l45 321h-1042l-45 -321h-66l77 552q21 148 170 148h877q149 0 128 -148zM1138 641h-844q-55 0 -80.5 -23t-33.5 -79l-22 -160h1042l23 160q8 56 -11 79t-74 23zM901 783h-332l5 39h333z" />
    <glyph glyph-name="amacron" unicode="&#x101;" horiz-adv-x="1170" 
d="M1053 330l17 118q8 53 -11 75.5t-73 22.5h-862l8 57h879q75 0 105.5 -35.5t20.5 -110.5l-44 -311q-11 -75 -51 -110.5t-115 -35.5h-780q-66 0 -93.5 32t-17.5 100l9 65q10 69 45.5 101t102.5 32h860zM1046 273h-846q-43 0 -64 -18t-27 -62l-8 -56q-6 -43 10 -61.5
t59 -18.5h748q54 0 78.5 22t32.5 76zM809 692h-332l5 39h333z" />
    <glyph glyph-name="Abreve" unicode="&#x102;" horiz-adv-x="1337" 
d="M1214 0h-67l45 321h-1042l-45 -321h-66l77 552q21 148 170 148h877q149 0 128 -148zM1138 641h-844q-55 0 -80.5 -23t-33.5 -79l-22 -160h1042l23 160q8 56 -11 79t-74 23zM574 815l3 46q46 -65 158 -65t174 65l-3 -46q-67 -64 -175 -64q-111 0 -157 64z" />
    <glyph glyph-name="abreve" unicode="&#x103;" horiz-adv-x="1170" 
d="M1053 330l17 118q8 53 -11 75.5t-73 22.5h-862l8 57h879q75 0 105.5 -35.5t20.5 -110.5l-44 -311q-11 -75 -51 -110.5t-115 -35.5h-780q-66 0 -93.5 32t-17.5 100l9 65q10 69 45.5 101t102.5 32h860zM1046 273h-846q-43 0 -64 -18t-27 -62l-8 -56q-6 -43 10 -61.5
t59 -18.5h748q54 0 78.5 22t32.5 76zM482 724l3 46q46 -65 158 -65t174 65l-3 -46q-67 -64 -175 -64q-111 0 -157 64z" />
    <glyph glyph-name="Aogonek" unicode="&#x104;" horiz-adv-x="1337" 
d="M1193 -162h-253q-74 0 -74 41q0 32 22.5 47.5t80 22.5t171.5 7h14l7 44h-14l45 321h-1042l-45 -321h-66l77 552q21 148 170 148h877q149 0 128 -148l-77 -552h-33l-9 -63h-21q-103 0 -156.5 -4t-72 -12t-18.5 -23t42 -15h254zM1138 641h-844q-55 0 -80.5 -23t-33.5 -79
l-22 -160h1042l23 160q8 56 -11 79t-74 23z" />
    <glyph glyph-name="aogonek" unicode="&#x105;" horiz-adv-x="1170" 
d="M1052 -162h-253q-74 0 -74 41q0 32 22.5 47.5t80 22.5t171.5 7h14l9 65q-38 -21 -95 -21h-780q-66 0 -93.5 32t-17.5 100l9 65q10 69 45.5 101t102.5 32h860l17 118q8 53 -11 75.5t-73 22.5h-862l8 57h879q75 0 105.5 -35.5t20.5 -110.5l-44 -311q-11 -74 -48 -108
l-14 -101h-21q-103 0 -156.5 -4t-72 -12t-18.5 -23t42 -15h254zM1046 273h-846q-43 0 -64 -18t-27 -62l-8 -56q-6 -43 10 -61.5t59 -18.5h748q54 0 78.5 22t32.5 76z" />
    <glyph glyph-name="Cacute" unicode="&#x106;" horiz-adv-x="1234" 
d="M198 0q-149 0 -128 148l57 404q21 148 169 148h964l-8 -59h-947q-55 0 -80.5 -23t-33.5 -79l-53 -378q-8 -56 11 -79t74 -23h947l-8 -59h-964zM910 856l-194 -104h-68l165 104h97z" />
    <glyph glyph-name="cacute" unicode="&#x107;" horiz-adv-x="1110" 
d="M180 0q-75 0 -105.5 35.5t-19.5 110.5l44 311q10 75 50 110.5t115 35.5h847l-8 -57h-830q-53 0 -78 -22.5t-33 -75.5l-41 -293q-8 -53 11.5 -75.5t72.5 -22.5h830l-8 -57h-847zM833 765l-194 -104h-68l165 104h97z" />
    <glyph glyph-name="Ccircumflex" unicode="&#x108;" horiz-adv-x="1234" 
d="M198 0q-149 0 -128 148l57 404q21 148 169 148h964l-8 -59h-947q-55 0 -80.5 -23t-33.5 -79l-53 -378q-8 -56 11 -79t74 -23h947l-8 -59h-964zM746 824l-145 -72h-63l173 104h78l143 -104h-60z" />
    <glyph glyph-name="ccircumflex" unicode="&#x109;" horiz-adv-x="1110" 
d="M180 0q-75 0 -105.5 35.5t-19.5 110.5l44 311q10 75 50 110.5t115 35.5h847l-8 -57h-830q-53 0 -78 -22.5t-33 -75.5l-41 -293q-8 -53 11.5 -75.5t72.5 -22.5h830l-8 -57h-847zM659 733l-145 -72h-63l173 104h78l143 -104h-60z" />
    <glyph glyph-name="Cdotaccent" unicode="&#x10a;" horiz-adv-x="1234" 
d="M198 0q-149 0 -128 148l57 404q21 148 169 148h964l-8 -59h-947q-55 0 -80.5 -23t-33.5 -79l-53 -378q-8 -56 11 -79t74 -23h947l-8 -59h-964zM793 827l-8 -53h-95l8 53h95z" />
    <glyph glyph-name="cdotaccent" unicode="&#x10b;" horiz-adv-x="1110" 
d="M180 0q-75 0 -105.5 35.5t-19.5 110.5l44 311q10 75 50 110.5t115 35.5h847l-8 -57h-830q-53 0 -78 -22.5t-33 -75.5l-41 -293q-8 -53 11.5 -75.5t72.5 -22.5h830l-8 -57h-847zM706 736l-8 -53h-95l8 53h95z" />
    <glyph glyph-name="Ccaron" unicode="&#x10c;" horiz-adv-x="1234" 
d="M198 0q-149 0 -128 148l57 404q21 148 169 148h964l-8 -59h-947q-55 0 -80.5 -23t-33.5 -79l-53 -378q-8 -56 11 -79t74 -23h947l-8 -59h-964zM613 856l125 -71l146 71h62l-172 -104h-78l-143 104h60z" />
    <glyph glyph-name="ccaron" unicode="&#x10d;" horiz-adv-x="1110" 
d="M180 0q-75 0 -105.5 35.5t-19.5 110.5l44 311q10 75 50 110.5t115 35.5h847l-8 -57h-830q-53 0 -78 -22.5t-33 -75.5l-41 -293q-8 -53 11.5 -75.5t72.5 -22.5h830l-8 -57h-847zM526 765l125 -71l146 71h62l-172 -104h-78l-143 104h60z" />
    <glyph glyph-name="Dcaron" unicode="&#x10e;" horiz-adv-x="1331" 
d="M1115 700q101 0 146 -52t31 -154l-40 -288q-29 -206 -235 -206h-968l98 700h968zM1013 59q77 0 120 36.5t54 115.5l38 278q12 78 -20.5 115t-109.5 37h-890l-82 -582h890zM597 856l125 -71l146 71h62l-172 -104h-78l-143 104h60z" />
    <glyph glyph-name="dcaron" unicode="&#x10f;" horiz-adv-x="1386" 
d="M1181 770l-88 -624q-10 -75 -50 -110.5t-115 -35.5h-748q-75 0 -105.5 35.5t-19.5 110.5l44 311q10 75 50 110.5t115 35.5h707q53 0 79 -16.5t33 -52.5l34 236h64zM1030 155l41 293q8 53 -11.5 75.5t-72.5 22.5h-714q-53 0 -78 -22.5t-33 -75.5l-41 -293q-8 -53 11 -75.5
t73 -22.5h714q53 0 78 22t33 76zM1398 700l-9 -65q-7 -50 -30 -74.5t-66 -24.5h-15l4 30h14q19 0 29.5 11.5t14.5 39.5l2 18h-50l10 65h96z" />
    <glyph glyph-name="Dcroat" unicode="&#x110;" horiz-adv-x="1331" 
d="M1115 700q101 0 146 -52t31 -154l-40 -288q-29 -206 -235 -206h-968l45 321h-74l8 58h74l45 321h968zM1013 59q77 0 120 36.5t54 115.5l38 278q12 78 -20.5 115t-109.5 37h-890l-37 -262h199l-9 -58h-198l-37 -262h890z" />
    <glyph glyph-name="dcroat" unicode="&#x111;" horiz-adv-x="1180" 
d="M1181 770l-11 -73h75l-5 -39h-75l-72 -512q-10 -75 -50 -110.5t-115 -35.5h-748q-75 0 -105.5 35.5t-19.5 110.5l44 311q10 75 50 110.5t115 35.5h707q53 0 79 -16.5t33 -52.5l18 124h-193l5 39h193l11 73h64zM1030 155l41 293q8 53 -11.5 75.5t-72.5 22.5h-714
q-53 0 -78 -22.5t-33 -75.5l-41 -293q-8 -53 11 -75.5t73 -22.5h714q53 0 78 22t33 76z" />
    <glyph glyph-name="Emacron" unicode="&#x112;" horiz-adv-x="1293" 
d="M49 0l98 700h1151l-9 -59h-1084l-38 -262h986l-8 -58h-986l-36 -262h1085l-8 -59h-1151zM902 783h-332l5 39h333z" />
    <glyph glyph-name="emacron" unicode="&#x113;" horiz-adv-x="1170" 
d="M1146 405q-10 -69 -46 -100.5t-102 -31.5h-861l-16 -118q-8 -53 12 -75.5t72 -22.5h862l-8 -57h-879q-78 0 -106.5 38.5t-17.5 118.5l43 300q10 75 50 110.5t115 35.5h780q67 0 94 -32t17 -100zM1021 546h-748q-57 0 -81 -25t-32 -87l-15 -104h846q43 0 64 18t27 61l7 54
q7 45 -8 64t-60 19zM835 692h-332l5 39h333z" />
    <glyph glyph-name="Ebreve" unicode="&#x114;" horiz-adv-x="1293" 
d="M49 0l98 700h1151l-9 -59h-1084l-38 -262h986l-8 -58h-986l-36 -262h1085l-8 -59h-1151zM575 815l3 46q46 -65 158 -65t174 65l-3 -46q-67 -64 -175 -64q-111 0 -157 64z" />
    <glyph glyph-name="ebreve" unicode="&#x115;" horiz-adv-x="1170" 
d="M1146 405q-10 -69 -46 -100.5t-102 -31.5h-861l-16 -118q-8 -53 12 -75.5t72 -22.5h862l-8 -57h-879q-78 0 -106.5 38.5t-17.5 118.5l43 300q10 75 50 110.5t115 35.5h780q67 0 94 -32t17 -100zM1021 546h-748q-57 0 -81 -25t-32 -87l-15 -104h846q43 0 64 18t27 61l7 54
q7 45 -8 64t-60 19zM508 724l3 46q46 -65 158 -65t174 65l-3 -46q-67 -64 -175 -64q-111 0 -157 64z" />
    <glyph glyph-name="Edotaccent" unicode="&#x116;" horiz-adv-x="1293" 
d="M49 0l98 700h1151l-9 -59h-1084l-38 -262h986l-8 -58h-986l-36 -262h1085l-8 -59h-1151zM790 827l-8 -53h-95l8 53h95z" />
    <glyph glyph-name="edotaccent" unicode="&#x117;" horiz-adv-x="1170" 
d="M1146 405q-10 -69 -46 -100.5t-102 -31.5h-861l-16 -118q-8 -53 12 -75.5t72 -22.5h862l-8 -57h-879q-78 0 -106.5 38.5t-17.5 118.5l43 300q10 75 50 110.5t115 35.5h780q67 0 94 -32t17 -100zM1021 546h-748q-57 0 -81 -25t-32 -87l-15 -104h846q43 0 64 18t27 61l7 54
q7 45 -8 64t-60 19zM723 736l-8 -53h-95l8 53h95z" />
    <glyph glyph-name="Eogonek" unicode="&#x118;" horiz-adv-x="1293" 
d="M1176 -162h-253q-74 0 -74 41q0 32 22.5 47.5t80 22.5t171.5 7h14l6 44h-1094l98 700h1151l-9 -59h-1084l-38 -262h986l-8 -58h-986l-36 -262h1085l-8 -59h-36l-9 -63h-21q-103 0 -156.5 -4t-72 -12t-18.5 -23t42 -15h254z" />
    <glyph glyph-name="eogonek" unicode="&#x119;" horiz-adv-x="1170" 
d="M1021 546h-748q-57 0 -81 -25t-32 -87l-15 -104h846q43 0 64 18t27 61l7 54q7 45 -8 64t-60 19zM1036 -162h-253q-74 0 -74 41q0 32 22.5 47.5t80 22.5t171.5 7h26l6 44h-835q-78 0 -106.5 38.5t-17.5 118.5l43 300q10 75 50 110.5t115 35.5h780q67 0 94 -32t17 -100
l-9 -66q-10 -69 -46 -100.5t-102 -31.5h-861l-16 -118q-8 -53 12 -75.5t72 -22.5h862l-8 -57h-24l-8 -63h-33q-103 0 -156.5 -4t-72 -12t-18.5 -23t42 -15h254z" />
    <glyph glyph-name="Ecaron" unicode="&#x11a;" horiz-adv-x="1293" 
d="M49 0l98 700h1151l-9 -59h-1084l-38 -262h986l-8 -58h-986l-36 -262h1085l-8 -59h-1151zM610 856l125 -71l146 71h62l-172 -104h-78l-143 104h60z" />
    <glyph glyph-name="ecaron" unicode="&#x11b;" horiz-adv-x="1170" 
d="M1146 405q-10 -69 -46 -100.5t-102 -31.5h-861l-16 -118q-8 -53 12 -75.5t72 -22.5h862l-8 -57h-879q-78 0 -106.5 38.5t-17.5 118.5l43 300q10 75 50 110.5t115 35.5h780q67 0 94 -32t17 -100zM1021 546h-748q-57 0 -81 -25t-32 -87l-15 -104h846q43 0 64 18t27 61l7 54
q7 45 -8 64t-60 19zM543 765l125 -71l146 71h62l-172 -104h-78l-143 104h60z" />
    <glyph glyph-name="Gcircumflex" unicode="&#x11c;" horiz-adv-x="1314" 
d="M1080 59q53 0 74.5 18.5t28.5 72.5l24 171h-599l8 58h665l-34 -241q-10 -74 -46 -106t-110 -32h-893q-149 0 -128 148l57 404q21 148 169 148h1006l-9 -59h-988q-55 0 -80.5 -23t-33.5 -79l-53 -378q-8 -56 11 -79t74 -23h857zM764 824l-145 -72h-63l173 104h78l143 -104
h-60z" />
    <glyph glyph-name="gcircumflex" unicode="&#x11d;" horiz-adv-x="1180" 
d="M915 75q54 0 79 22t33 75l38 276q8 53 -11.5 75.5t-72.5 22.5h-714q-53 0 -78 -22.5t-33 -75.5l-39 -276q-7 -53 12 -75t72 -22h714zM884 18h-708q-75 0 -105.5 35.5t-19.5 110.5l42 293q10 75 50 110.5t115 35.5h748q75 0 105.5 -35.5t19.5 -110.5l-62 -437
q-13 -96 -64.5 -141.5t-148.5 -45.5h-811l8 57h803q68 0 103.5 30t45.5 100l9 66q-32 -68 -130 -68zM656 733l-145 -72h-63l173 104h78l143 -104h-60z" />
    <glyph glyph-name="Gbreve" unicode="&#x11e;" horiz-adv-x="1314" 
d="M1080 59q53 0 74.5 18.5t28.5 72.5l24 171h-599l8 58h665l-34 -241q-10 -74 -46 -106t-110 -32h-893q-149 0 -128 148l57 404q21 148 169 148h1006l-9 -59h-988q-55 0 -80.5 -23t-33.5 -79l-53 -378q-8 -56 11 -79t74 -23h857zM596 815l3 46q46 -65 158 -65t174 65
l-3 -46q-67 -64 -175 -64q-111 0 -157 64z" />
    <glyph glyph-name="gbreve" unicode="&#x11f;" horiz-adv-x="1180" 
d="M915 75q54 0 79 22t33 75l38 276q8 53 -11.5 75.5t-72.5 22.5h-714q-53 0 -78 -22.5t-33 -75.5l-39 -276q-7 -53 12 -75t72 -22h714zM884 18h-708q-75 0 -105.5 35.5t-19.5 110.5l42 293q10 75 50 110.5t115 35.5h748q75 0 105.5 -35.5t19.5 -110.5l-62 -437
q-13 -96 -64.5 -141.5t-148.5 -45.5h-811l8 57h803q68 0 103.5 30t45.5 100l9 66q-32 -68 -130 -68zM488 724l3 46q46 -65 158 -65t174 65l-3 -46q-67 -64 -175 -64q-111 0 -157 64z" />
    <glyph glyph-name="Gdotaccent" unicode="&#x120;" horiz-adv-x="1314" 
d="M1080 59q53 0 74.5 18.5t28.5 72.5l24 171h-599l8 58h665l-34 -241q-10 -74 -46 -106t-110 -32h-893q-149 0 -128 148l57 404q21 148 169 148h1006l-9 -59h-988q-55 0 -80.5 -23t-33.5 -79l-53 -378q-8 -56 11 -79t74 -23h857zM811 827l-8 -53h-95l8 53h95z" />
    <glyph glyph-name="gdotaccent" unicode="&#x121;" horiz-adv-x="1180" 
d="M915 75q54 0 79 22t33 75l38 276q8 53 -11.5 75.5t-72.5 22.5h-714q-53 0 -78 -22.5t-33 -75.5l-39 -276q-7 -53 12 -75t72 -22h714zM884 18h-708q-75 0 -105.5 35.5t-19.5 110.5l42 293q10 75 50 110.5t115 35.5h748q75 0 105.5 -35.5t19.5 -110.5l-62 -437
q-13 -96 -64.5 -141.5t-148.5 -45.5h-811l8 57h803q68 0 103.5 30t45.5 100l9 66q-32 -68 -130 -68zM703 736l-8 -53h-95l8 53h95z" />
    <glyph glyph-name="uni0122" unicode="&#x122;" horiz-adv-x="1314" 
d="M1080 59q53 0 74.5 18.5t28.5 72.5l24 171h-599l8 58h665l-34 -241q-10 -74 -46 -106t-110 -32h-893q-149 0 -128 148l57 404q21 148 169 148h1006l-9 -59h-988q-55 0 -80.5 -23t-33.5 -79l-53 -378q-8 -56 11 -79t74 -23h857zM680 -85l-7 -46q-10 -77 -78 -77h-20l3 25
h19q31 0 35 36l2 13h-51l7 49h90z" />
    <glyph glyph-name="uni0123" unicode="&#x123;" horiz-adv-x="1180" 
d="M603 683l7 46q11 78 79 78h20l-4 -26h-19q-29 0 -35 -36l-1 -12h51l-8 -50h-90zM915 75q54 0 79 22t33 75l38 276q8 53 -11.5 75.5t-72.5 22.5h-714q-53 0 -78 -22.5t-33 -75.5l-39 -276q-7 -53 12 -75t72 -22h714zM884 18h-708q-75 0 -105.5 35.5t-19.5 110.5l42 293
q10 75 50 110.5t115 35.5h748q75 0 105.5 -35.5t19.5 -110.5l-62 -437q-13 -96 -64.5 -141.5t-148.5 -45.5h-811l8 57h803q68 0 103.5 30t45.5 100l9 66q-32 -68 -130 -68z" />
    <glyph glyph-name="Hcircumflex" unicode="&#x124;" horiz-adv-x="1372" 
d="M1173 0l45 321h-1059l-44 -321h-66l98 700h66l-46 -321h1059l45 321h66l-98 -700h-66zM760 824l-145 -72h-63l173 104h78l143 -104h-60z" />
    <glyph glyph-name="hcircumflex" unicode="&#x125;" horiz-adv-x="1197" 
d="M1077 448q8 53 -11.5 75.5t-72.5 22.5h-711q-54 0 -79 -22.5t-33 -75.5l-62 -448h-65l108 770h65l-34 -236q32 69 131 69h705q75 0 105.5 -35.5t19.5 -110.5l-64 -457h-65zM676 733l-145 -72h-63l173 104h78l143 -104h-60z" />
    <glyph glyph-name="Hbar" unicode="&#x126;" horiz-adv-x="1372" 
d="M1173 0l45 321h-1059l-44 -321h-66l71 506h-41l7 49h41l20 145h66l-21 -145h1059l20 145h66l-21 -145h41l-7 -49h-41l-70 -506h-66zM167 379h1059l18 127h-1059z" />
    <glyph glyph-name="hbar" unicode="&#x127;" horiz-adv-x="1197" 
d="M1077 448q8 53 -11.5 75.5t-72.5 22.5h-711q-54 0 -79 -22.5t-33 -75.5l-62 -448h-65l92 658h-85l6 39h85l10 73h65l-11 -73h183l-5 -39h-183l-18 -124q32 69 131 69h705q75 0 105.5 -35.5t19.5 -110.5l-64 -457h-65z" />
    <glyph glyph-name="Itilde" unicode="&#x128;" horiz-adv-x="248" 
d="M49 0l98 700h66l-98 -700h-66zM22 757l6 45q51 44 96 44q29 0 76 -24.5t74 -24.5q43 0 91 45l-6 -45q-52 -44 -97 -44q-29 0 -76 24t-74 24q-42 0 -90 -44z" />
    <glyph glyph-name="itilde" unicode="&#x129;" horiz-adv-x="331" 
d="M-4 666l6 45q51 44 96 44q29 0 76 -24.5t74 -24.5q43 0 91 45l-6 -45q-52 -44 -97 -44q-29 0 -76 24t-74 24q-42 0 -90 -44zM198 57h73l-7 -57h-90q-74 0 -102 32t-17 106l65 465h65l-65 -456q-7 -52 9.5 -71t68.5 -19z" />
    <glyph glyph-name="Imacron" unicode="&#x12a;" horiz-adv-x="248" 
d="M334 785h-284l4 35h285zM49 0l98 700h66l-98 -700h-66z" />
    <glyph glyph-name="imacron" unicode="&#x12b;" horiz-adv-x="331" 
d="M308 694h-285l5 35h284zM198 57h73l-7 -57h-90q-74 0 -102 32t-17 106l65 465h65l-65 -456q-7 -52 9.5 -71t68.5 -19z" />
    <glyph glyph-name="Ibreve" unicode="&#x12c;" horiz-adv-x="248" 
d="M49 0l98 700h66l-98 -700h-66zM30 815l3 46q46 -65 158 -65t174 65l-3 -46q-67 -64 -175 -64q-111 0 -157 64z" />
    <glyph glyph-name="ibreve" unicode="&#x12d;" horiz-adv-x="331" 
d="M4 724l3 46q46 -65 158 -65t174 65l-3 -46q-67 -64 -175 -64q-111 0 -157 64zM198 57h73l-7 -57h-90q-74 0 -102 32t-17 106l65 465h65l-65 -456q-7 -52 9.5 -71t68.5 -19z" />
    <glyph glyph-name="Iogonek" unicode="&#x12e;" horiz-adv-x="248" 
d="M106 -162h-145q-74 0 -74 40q0 44 46.5 61t146.5 17l6 44h-37l98 700h66l-98 -700h-9l-9 -63h-20q-152 0 -152 -39q0 -15 42 -15h145z" />
    <glyph glyph-name="iogonek" unicode="&#x12f;" horiz-adv-x="331" 
d="M240 -162h-178q-74 0 -74 40q0 45 47 61.5t173 16.5l6 44h-40q-74 0 -102 32t-17 106l65 465h65l-65 -456q-7 -52 9.5 -71t68.5 -19h73l-7 -57h-24l-9 -63h-25q-98 0 -139 -9t-41 -30q0 -15 43 -15h178zM222 737l-8 -54h-101l7 54h102z" />
    <glyph glyph-name="Idotaccent" unicode="&#x130;" horiz-adv-x="248" 
d="M49 0l98 700h66l-98 -700h-66zM245 827l-8 -53h-95l8 53h95z" />
    <glyph glyph-name="dotlessi" unicode="&#x131;" horiz-adv-x="331" 
d="M209 57h73l-7 -57h-90q-74 0 -102 32t-17 106l65 465h65l-65 -456q-7 -52 9.5 -71t68.5 -19z" />
    <glyph glyph-name="IJ" unicode="&#x132;" horiz-adv-x="1549" 
d="M49 0l98 700h66l-98 -700h-66zM277 138l29 204h66l-27 -192q-8 -54 8 -72.5t69 -18.5h847q55 0 80.5 23t32.5 79l76 539h66l-77 -552q-21 -148 -169 -148h-882q-75 0 -102.5 32t-16.5 106z" />
    <glyph glyph-name="Jcircumflex" unicode="&#x134;" horiz-adv-x="1301" 
d="M40 138l29 204h66l-27 -192q-8 -54 8 -72.5t69 -18.5h847q55 0 80.5 23t32.5 79l76 539h66l-77 -552q-21 -148 -169 -148h-882q-75 0 -102.5 32t-16.5 106zM1205 824l-145 -72h-63l173 104h78l143 -104h-60z" />
    <glyph glyph-name="jcircumflex" unicode="&#x135;" horiz-adv-x="252" 
d="M-90 -110h45q52 0 72 18t28 71l87 624h65l-89 -632q-10 -74 -45.5 -106t-110.5 -32h-60zM195 733l-145 -72h-63l173 104h78l143 -104h-60z" />
    <glyph glyph-name="uni0136" unicode="&#x136;" horiz-adv-x="1339" 
d="M1321 700l-29 -210q-9 -65 -39.5 -99t-93.5 -41q61 -7 81.5 -41.5t11.5 -98.5l-29 -210h-66l30 217q8 55 -10 79.5t-72 24.5h-946l-44 -321h-66l97 700h66l-45 -321h946q54 0 79 24.5t33 79.5l30 217h66zM660 -85l-7 -46q-10 -77 -78 -77h-20l3 25h19q31 0 35 36l2 13
h-51l7 49h90z" />
    <glyph glyph-name="uni0137" unicode="&#x137;" horiz-adv-x="1183" 
d="M1068 397l29 206h65l-25 -180q-9 -57 -32.5 -86t-72.5 -36q47 -7 63 -36t8 -86l-25 -179h-65l28 205q5 35 -9 51.5t-50 16.5h-836l-38 -273h-65l108 770h65l-62 -440h836q36 0 55 16t23 51zM599 -85l-7 -46q-10 -77 -78 -77h-20l3 25h19q31 0 35 36l2 13h-51l7 49h90z
" />
    <glyph glyph-name="kgreenlandic" unicode="&#x138;" horiz-adv-x="1183" 
d="M1068 397l29 206h65l-25 -180q-9 -57 -32.5 -86t-72.5 -36q47 -7 63 -36t8 -86l-25 -179h-65l28 205q5 35 -9 51.5t-50 16.5h-836l-38 -273h-65l84 603h65l-38 -273h836q36 0 55 16t23 51z" />
    <glyph glyph-name="Lacute" unicode="&#x139;" horiz-adv-x="1251" 
d="M1194 59l-8 -59h-1137l98 700h66l-90 -641h1071zM415 856l-194 -104h-68l165 104h97z" />
    <glyph glyph-name="lacute" unicode="&#x13a;" horiz-adv-x="329" 
d="M205 57h74l-8 -57h-89q-75 0 -102.5 32t-17.5 106l89 632h65l-88 -623q-7 -52 9.5 -71t67.5 -19zM382 932l-194 -104h-68l165 104h97z" />
    <glyph glyph-name="uni013B" unicode="&#x13b;" horiz-adv-x="1251" 
d="M1194 59l-8 -59h-1137l98 700h66l-90 -641h1071zM632 -85l-7 -46q-10 -77 -78 -77h-20l3 25h19q31 0 35 36l2 13h-51l7 49h90z" />
    <glyph glyph-name="uni013C" unicode="&#x13c;" horiz-adv-x="329" 
d="M203 57h74l-8 -57h-89q-75 0 -102.5 32t-17.5 106l89 632h65l-88 -623q-7 -52 9.5 -71t67.5 -19zM163 -85l-7 -46q-10 -77 -78 -77h-20l3 25h19q31 0 35 36l2 13h-51l7 49h90z" />
    <glyph glyph-name="Lcaron" unicode="&#x13d;" horiz-adv-x="1251" 
d="M1194 59l-8 -59h-1137l98 700h66l-90 -641h1071zM1150 700l-9 -65q-7 -50 -30 -74.5t-66 -24.5h-15l4 30h14q19 0 29.5 11.5t14.5 39.5l2 18h-50l10 65h96z" />
    <glyph glyph-name="lcaron" unicode="&#x13e;" horiz-adv-x="443" 
d="M205 57h74l-8 -57h-89q-75 0 -102.5 32t-17.5 106l89 632h65l-88 -623q-7 -52 9.5 -71t67.5 -19zM454 700l-9 -65q-13 -99 -96 -99h-15l4 30h14q19 0 29.5 11.5t14.5 39.5l2 18h-50l10 65h96z" />
    <glyph glyph-name="Ldot" unicode="&#x13f;" horiz-adv-x="1251" 
d="M1194 59l-8 -59h-1137l98 700h66l-90 -641h1071zM787 384l-9 -68h-97l10 68h96z" />
    <glyph glyph-name="ldot" unicode="&#x140;" horiz-adv-x="497" 
d="M205 57h74l-8 -57h-89q-75 0 -102.5 32t-17.5 106l89 632h65l-88 -623q-7 -52 9.5 -71t67.5 -19zM422 384l-9 -68h-97l10 68h96z" />
    <glyph glyph-name="Lslash" unicode="&#x141;" horiz-adv-x="1251" 
d="M1194 59l-8 -59h-1137l32 232l-79 -34l8 58l79 34l58 410h66l-54 -380l382 163l-8 -58l-382 -163l-28 -203h1071z" />
    <glyph glyph-name="lslash" unicode="&#x142;" horiz-adv-x="329" 
d="M195 57h74l-8 -57h-89q-75 0 -102.5 32t-17.5 106l27 190l-63 -30l8 58l63 30l54 384h65l-50 -350l185 88l-8 -58l-185 -89l-30 -214q-7 -52 9.5 -71t67.5 -19z" />
    <glyph glyph-name="Nacute" unicode="&#x143;" horiz-adv-x="1337" 
d="M294 641q-55 0 -80.5 -23t-33.5 -79l-75 -539h-66l77 552q21 148 170 148h877q149 0 128 -148l-77 -552h-67l76 539q8 56 -11 79t-74 23h-844zM916 856l-194 -104h-68l165 104h97z" />
    <glyph glyph-name="nacute" unicode="&#x144;" horiz-adv-x="1185" 
d="M33 0l64 457q11 75 51 110.5t115 35.5h744q75 0 105.5 -35.5t19.5 -110.5l-64 -457h-65l62 448q8 53 -11 75.5t-72 22.5h-710q-54 0 -78.5 -22t-32.5 -76l-63 -448h-65zM826 765l-194 -104h-68l165 104h97z" />
    <glyph glyph-name="uni0145" unicode="&#x145;" horiz-adv-x="1337" 
d="M294 641q-55 0 -80.5 -23t-33.5 -79l-75 -539h-66l77 552q21 148 170 148h877q149 0 128 -148l-77 -552h-67l76 539q8 56 -11 79t-74 23h-844zM658 -85l-7 -46q-10 -77 -78 -77h-20l3 25h19q31 0 35 36l2 13h-51l7 49h90z" />
    <glyph glyph-name="uni0146" unicode="&#x146;" horiz-adv-x="1185" 
d="M33 0l64 457q11 75 51 110.5t115 35.5h744q75 0 105.5 -35.5t19.5 -110.5l-64 -457h-65l62 448q8 53 -11 75.5t-72 22.5h-710q-54 0 -78.5 -22t-32.5 -76l-63 -448h-65zM583 -85l-7 -46q-10 -77 -78 -77h-20l3 25h19q31 0 35 36l2 13h-51l7 49h90z" />
    <glyph glyph-name="Ncaron" unicode="&#x147;" horiz-adv-x="1337" 
d="M294 641q-55 0 -80.5 -23t-33.5 -79l-75 -539h-66l77 552q21 148 170 148h877q149 0 128 -148l-77 -552h-67l76 539q8 56 -11 79t-74 23h-844zM609 856l125 -71l146 71h62l-172 -104h-78l-143 104h60z" />
    <glyph glyph-name="ncaron" unicode="&#x148;" horiz-adv-x="1185" 
d="M33 0l64 457q11 75 51 110.5t115 35.5h744q75 0 105.5 -35.5t19.5 -110.5l-64 -457h-65l62 448q8 53 -11 75.5t-72 22.5h-710q-54 0 -78.5 -22t-32.5 -76l-63 -448h-65zM521 765l125 -71l146 71h62l-172 -104h-78l-143 104h60z" />
    <glyph glyph-name="napostrophe" unicode="&#x149;" horiz-adv-x="1327" 
d="M175 0l64 457q11 75 51 110.5t115 35.5h744q75 0 105.5 -35.5t19.5 -110.5l-64 -457h-65l62 448q8 53 -11 75.5t-72 22.5h-710q-54 0 -78.5 -22t-32.5 -76l-63 -448h-65zM207 700l-9 -65q-7 -50 -30 -74.5t-66 -24.5h-15l4 30h14q19 0 29.5 11.5t14.5 39.5l2 18h-50
l10 65h96z" />
    <glyph glyph-name="Eng" unicode="&#x14a;" horiz-adv-x="1337" 
d="M294 641q-55 0 -80.5 -23t-33.5 -79l-75 -539h-66l77 552q21 148 170 148h877q149 0 128 -148l-81 -571q-19 -148 -169 -148h-297l9 59h280q54 0 79.5 23t33.5 79l77 545q8 56 -11 79t-74 23h-844z" />
    <glyph glyph-name="eng" unicode="&#x14b;" horiz-adv-x="1185" 
d="M854 -110h45q52 0 72.5 18t28.5 71l65 469q8 53 -11 75.5t-72 22.5h-710q-54 0 -78.5 -22t-32.5 -76l-63 -448h-65l64 457q11 75 51 110.5t115 35.5h744q75 0 105.5 -35.5t19.5 -110.5l-69 -486q-11 -75 -46.5 -106.5t-110.5 -31.5h-60z" />
    <glyph glyph-name="Omacron" unicode="&#x14c;" horiz-adv-x="1320" 
d="M199 0q-150 0 -129 148l57 404q21 148 170 148h881q76 0 107 -36.5t21 -111.5l-57 -404q-21 -148 -169 -148h-881zM1184 161l53 378q8 56 -10.5 79t-73.5 23h-848q-54 0 -80 -23t-34 -79l-53 -378q-7 -57 11.5 -79.5t73.5 -22.5h848q55 0 80.5 23t32.5 79zM914 783h-332
l5 39h333z" />
    <glyph glyph-name="omacron" unicode="&#x14d;" horiz-adv-x="1168" 
d="M1010 603q75 0 105.5 -35.5t20.5 -110.5l-44 -311q-11 -75 -51 -110.5t-115 -35.5h-746q-75 0 -105.5 35.5t-19.5 110.5l44 311q10 75 50 110.5t115 35.5h746zM917 57q54 0 79 22t33 76l40 293q8 53 -11 75.5t-72 22.5h-713q-53 0 -78 -22.5t-33 -75.5l-41 -293
q-8 -53 11 -75.5t73 -22.5h712zM816 692h-332l5 39h333z" />
    <glyph glyph-name="Obreve" unicode="&#x14e;" horiz-adv-x="1320" 
d="M199 0q-150 0 -129 148l57 404q21 148 170 148h881q76 0 107 -36.5t21 -111.5l-57 -404q-21 -148 -169 -148h-881zM1184 161l53 378q8 56 -10.5 79t-73.5 23h-848q-54 0 -80 -23t-34 -79l-53 -378q-7 -57 11.5 -79.5t73.5 -22.5h848q55 0 80.5 23t32.5 79zM587 815l3 46
q46 -65 158 -65t174 65l-3 -46q-67 -64 -175 -64q-111 0 -157 64z" />
    <glyph glyph-name="obreve" unicode="&#x14f;" horiz-adv-x="1168" 
d="M1010 603q75 0 105.5 -35.5t20.5 -110.5l-44 -311q-11 -75 -51 -110.5t-115 -35.5h-746q-75 0 -105.5 35.5t-19.5 110.5l44 311q10 75 50 110.5t115 35.5h746zM917 57q54 0 79 22t33 76l40 293q8 53 -11 75.5t-72 22.5h-713q-53 0 -78 -22.5t-33 -75.5l-41 -293
q-8 -53 11 -75.5t73 -22.5h712zM489 724l3 46q46 -65 158 -65t174 65l-3 -46q-67 -64 -175 -64q-111 0 -157 64z" />
    <glyph glyph-name="Ohungarumlaut" unicode="&#x150;" horiz-adv-x="1320" 
d="M199 0q-150 0 -129 148l57 404q21 148 170 148h881q76 0 107 -36.5t21 -111.5l-57 -404q-21 -148 -169 -148h-881zM1184 161l53 378q8 56 -10.5 79t-73.5 23h-848q-54 0 -80 -23t-34 -79l-53 -378q-7 -57 11.5 -79.5t73.5 -22.5h848q55 0 80.5 23t32.5 79zM1032 856
l-194 -104h-68l165 104h97zM800 856l-194 -104h-68l165 104h97z" />
    <glyph glyph-name="ohungarumlaut" unicode="&#x151;" horiz-adv-x="1168" 
d="M1010 603q75 0 105.5 -35.5t20.5 -110.5l-44 -311q-11 -75 -51 -110.5t-115 -35.5h-746q-75 0 -105.5 35.5t-19.5 110.5l44 311q10 75 50 110.5t115 35.5h746zM917 57q54 0 79 22t33 76l40 293q8 53 -11 75.5t-72 22.5h-713q-53 0 -78 -22.5t-33 -75.5l-41 -293
q-8 -53 11 -75.5t73 -22.5h712zM947 765l-194 -104h-68l165 104h97zM715 765l-194 -104h-68l165 104h97z" />
    <glyph glyph-name="OE" unicode="&#x152;" horiz-adv-x="2026" 
d="M199 0q-149 0 -128 148l57 404q19 148 169 148h1751l-9 -59h-904l-37 -262h805l-8 -58h-805l-37 -262h905l-8 -59h-1751zM987 59l82 582h-764q-54 0 -79.5 -23t-33.5 -79l-53 -378q-8 -56 11 -79t74 -23h763z" />
    <glyph glyph-name="oe" unicode="&#x153;" horiz-adv-x="1755" 
d="M842 151l42 301q7 50 -11.5 72t-68.5 22h-531q-53 0 -78 -22.5t-33 -75.5l-41 -293q-8 -53 11 -75.5t73 -22.5h531q50 0 74 22t32 72zM1666 409l8 57q6 43 -9.5 61.5t-58.5 18.5h-552q-50 0 -74 -22t-32 -72l-17 -122h644q43 0 64 18t27 61zM923 273l-17 -122
q-7 -50 11.5 -72t68.5 -22h666l-8 -57h-649q-68 0 -98 23.5t-30 78.5q-16 -55 -52 -78.5t-104 -23.5h-531q-75 0 -105.5 35.5t-19.5 110.5l44 311q10 75 50 110.5t115 35.5h531q68 0 98 -23.5t30 -78.5q16 55 52 78.5t104 23.5h549q67 0 94 -32t17 -100l-9 -66
q-10 -68 -46 -100t-102 -32h-659z" />
    <glyph glyph-name="Racute" unicode="&#x154;" horiz-adv-x="1337" 
d="M1301 556l-10 -72q-9 -63 -38.5 -95.5t-90.5 -39.5q59 -8 79 -42t11 -97l-29 -210h-66l30 217q8 55 -10 79.5t-72 24.5h-946l-44 -321h-66l98 700h1030q75 0 105 -35t19 -109zM1114 379q54 0 78 22.5t32 77.5l9 64q7 52 -11.5 75t-68.5 23h-948l-38 -262h947zM917 856
l-194 -104h-68l165 104h97z" />
    <glyph glyph-name="racute" unicode="&#x155;" horiz-adv-x="1002" 
d="M1017 603l-8 -57h-737q-53 0 -78 -22.5t-33 -75.5l-63 -448h-65l64 457q11 75 51 110.5t115 35.5h754zM783 765l-194 -104h-68l165 104h97z" />
    <glyph glyph-name="uni0156" unicode="&#x156;" horiz-adv-x="1337" 
d="M1301 556l-10 -72q-9 -63 -38.5 -95.5t-90.5 -39.5q59 -8 79 -42t11 -97l-29 -210h-66l30 217q8 55 -10 79.5t-72 24.5h-946l-44 -321h-66l98 700h1030q75 0 105 -35t19 -109zM1114 379q54 0 78 22.5t32 77.5l9 64q7 52 -11.5 75t-68.5 23h-948l-38 -262h947zM678 -85
l-7 -46q-10 -77 -78 -77h-20l3 25h19q31 0 35 36l2 13h-51l7 49h90z" />
    <glyph glyph-name="uni0157" unicode="&#x157;" horiz-adv-x="1002" 
d="M1017 603l-8 -57h-737q-53 0 -78 -22.5t-33 -75.5l-63 -448h-65l64 457q11 75 51 110.5t115 35.5h754zM99 -85l-7 -46q-10 -77 -78 -77h-20l3 25h19q31 0 35 36l2 13h-51l7 49h90z" />
    <glyph glyph-name="Rcaron" unicode="&#x158;" horiz-adv-x="1337" 
d="M1301 556l-10 -72q-9 -63 -38.5 -95.5t-90.5 -39.5q59 -8 79 -42t11 -97l-29 -210h-66l30 217q8 55 -10 79.5t-72 24.5h-946l-44 -321h-66l98 700h1030q75 0 105 -35t19 -109zM1114 379q54 0 78 22.5t32 77.5l9 64q7 52 -11.5 75t-68.5 23h-948l-38 -262h947zM610 856
l125 -71l146 71h62l-172 -104h-78l-143 104h60z" />
    <glyph glyph-name="rcaron" unicode="&#x159;" horiz-adv-x="1002" 
d="M1017 603l-8 -57h-737q-53 0 -78 -22.5t-33 -75.5l-63 -448h-65l64 457q11 75 51 110.5t115 35.5h754zM475 765l125 -71l146 71h62l-172 -104h-78l-143 104h60z" />
    <glyph glyph-name="Sacute" unicode="&#x15a;" horiz-adv-x="1268" 
d="M211 321q-75 0 -105.5 35t-19.5 110l12 89q11 75 51.5 110t115.5 35h978l-9 -59h-963q-50 0 -75.5 -23t-32.5 -75l-9 -66q-7 -52 11.5 -75t68.5 -23h844q75 0 105.5 -35t19.5 -110l-12 -89q-11 -75 -51 -110t-115 -35h-1013l8 59h999q50 0 75 23t33 75l9 66q7 52 -12 75
t-69 23h-844zM882 856l-194 -104h-68l165 104h97z" />
    <glyph glyph-name="sacute" unicode="&#x15b;" horiz-adv-x="1135" 
d="M1089 546h-857q-43 0 -63.5 -18.5t-26.5 -61.5l-8 -57q-6 -43 9.5 -61t58.5 -18h757q67 0 94 -32t17 -101l-9 -65q-10 -68 -45.5 -100t-101.5 -32h-902l8 57h887q43 0 63.5 18.5t26.5 61.5l8 56q6 43 -9.5 61.5t-59.5 18.5h-757q-67 0 -93.5 31.5t-17.5 100.5l9 66
q10 68 46 100t102 32h872zM803 765l-194 -104h-68l165 104h97z" />
    <glyph glyph-name="Scircumflex" unicode="&#x15c;" horiz-adv-x="1268" 
d="M211 321q-75 0 -105.5 35t-19.5 110l12 89q11 75 51.5 110t115.5 35h978l-9 -59h-963q-50 0 -75.5 -23t-32.5 -75l-9 -66q-7 -52 11.5 -75t68.5 -23h844q75 0 105.5 -35t19.5 -110l-12 -89q-11 -75 -51 -110t-115 -35h-1013l8 59h999q50 0 75 23t33 75l9 66q7 52 -12 75
t-69 23h-844zM708 824l-145 -72h-63l173 104h78l143 -104h-60z" />
    <glyph glyph-name="scircumflex" unicode="&#x15d;" horiz-adv-x="1135" 
d="M1089 546h-857q-43 0 -63.5 -18.5t-26.5 -61.5l-8 -57q-6 -43 9.5 -61t58.5 -18h757q67 0 94 -32t17 -101l-9 -65q-10 -68 -45.5 -100t-101.5 -32h-902l8 57h887q43 0 63.5 18.5t26.5 61.5l8 56q6 43 -9.5 61.5t-59.5 18.5h-757q-67 0 -93.5 31.5t-17.5 100.5l9 66
q10 68 46 100t102 32h872zM629 733l-145 -72h-63l173 104h78l143 -104h-60z" />
    <glyph glyph-name="Scedilla" unicode="&#x15e;" horiz-adv-x="1268" 
d="M410 -117h220q40 0 56 7.5t16 28.5q0 19 -38 19h-115l31 62h-568l8 59h999q50 0 75 23t33 75l9 66q7 52 -12 75t-69 23h-844q-75 0 -105.5 35t-19.5 110l12 89q11 75 51.5 110t115.5 35h978l-9 -59h-963q-50 0 -75.5 -23t-32.5 -75l-9 -66q-7 -52 11.5 -75t68.5 -23h844
q75 0 105.5 -35t19.5 -110l-12 -89q-11 -75 -51 -110t-115 -35h-427l-21 -45h100q37 0 55 -8.5t18 -32.5q0 -76 -124 -76h-223z" />
    <glyph glyph-name="scedilla" unicode="&#x15f;" horiz-adv-x="1135" 
d="M336 -117h220q40 0 56 7.5t16 28.5q0 19 -38 19h-115l31 62h-494l8 57h887q43 0 63.5 18.5t26.5 61.5l8 56q6 43 -9.5 61.5t-59.5 18.5h-757q-67 0 -93.5 31.5t-17.5 100.5l9 66q10 68 46 100t102 32h872l-8 -57h-857q-43 0 -63.5 -18.5t-26.5 -61.5l-8 -57
q-6 -43 9.5 -61t58.5 -18h757q67 0 94 -32t17 -101l-9 -65q-10 -68 -45.5 -100t-101.5 -32h-390l-21 -45h100q37 0 55 -8.5t18 -32.5q0 -76 -124 -76h-223z" />
    <glyph glyph-name="Scaron" unicode="&#x160;" horiz-adv-x="1268" 
d="M211 321q-75 0 -105.5 35t-19.5 110l12 89q11 75 51.5 110t115.5 35h978l-9 -59h-963q-50 0 -75.5 -23t-32.5 -75l-9 -66q-7 -52 11.5 -75t68.5 -23h844q75 0 105.5 -35t19.5 -110l-12 -89q-11 -75 -51 -110t-115 -35h-1013l8 59h999q50 0 75 23t33 75l9 66q7 52 -12 75
t-69 23h-844zM575 856l125 -71l146 71h62l-172 -104h-78l-143 104h60z" />
    <glyph glyph-name="scaron" unicode="&#x161;" horiz-adv-x="1135" 
d="M1089 546h-857q-43 0 -63.5 -18.5t-26.5 -61.5l-8 -57q-6 -43 9.5 -61t58.5 -18h757q67 0 94 -32t17 -101l-9 -65q-10 -68 -45.5 -100t-101.5 -32h-902l8 57h887q43 0 63.5 18.5t26.5 61.5l8 56q6 43 -9.5 61.5t-59.5 18.5h-757q-67 0 -93.5 31.5t-17.5 100.5l9 66
q10 68 46 100t102 32h872zM496 765l125 -71l146 71h62l-172 -104h-78l-143 104h60z" />
    <glyph glyph-name="uni0162" unicode="&#x162;" horiz-adv-x="1225" 
d="M390 -117h220q40 0 56 7.5t16 28.5q0 19 -38 19h-115l31 62h-22l89 641h-556l8 59h1179l-9 -59h-555l-90 -641h-26l-21 -45h100q37 0 55 -8.5t18 -32.5q0 -76 -124 -76h-223z" />
    <glyph glyph-name="uni0163" unicode="&#x163;" horiz-adv-x="1038" 
d="M522 -162h-223l7 45h220q40 0 56 7.5t16 28.5q0 19 -38 19h-115l31 62h-286q-75 0 -105.5 35.5t-19.5 110.5l87 624h65l-24 -167h846l-8 -57h-846l-54 -391q-8 -53 11 -75.5t73 -22.5h748l-8 -57h-461l-21 -45h100q37 0 55 -8.5t18 -32.5q0 -76 -124 -76z" />
    <glyph glyph-name="Tcaron" unicode="&#x164;" horiz-adv-x="1225" 
d="M1258 700l-9 -59h-555l-90 -641h-66l89 641h-556l8 59h1179zM553 856l125 -71l146 71h62l-172 -104h-78l-143 104h60z" />
    <glyph glyph-name="tcaron" unicode="&#x165;" horiz-adv-x="1257" 
d="M190 0q-75 0 -105.5 35.5t-19.5 110.5l87 624h65l-24 -167h846l-8 -57h-846l-54 -391q-8 -53 11 -75.5t73 -22.5h748l-8 -57h-765zM1269 700l-9 -65q-7 -50 -30 -74.5t-66 -24.5h-15l4 30h14q19 0 29.5 11.5t14.5 39.5l2 18h-50l10 65h96z" />
    <glyph glyph-name="Tbar" unicode="&#x166;" horiz-adv-x="1225" 
d="M1258 700l-9 -59h-555l-26 -183h140l-6 -49h-141l-57 -409h-66l57 409h-140l7 49h140l25 183h-556l8 59h1179z" />
    <glyph glyph-name="tbar" unicode="&#x167;" horiz-adv-x="1038" 
d="M380 376h-230l-30 -221q-8 -53 11 -75.5t73 -22.5h748l-8 -57h-765q-75 0 -105.5 35.5t-19.5 110.5l32 230h-76l7 49h76l48 345h65l-24 -167h846l-8 -57h-846l-17 -121h230z" />
    <glyph glyph-name="Utilde" unicode="&#x168;" horiz-adv-x="1337" 
d="M210 0q-150 0 -128 148l77 552h66l-76 -539q-7 -56 12 -79t73 -23h845q54 0 79.5 23t33.5 79l75 539h67l-78 -552q-21 -148 -169 -148h-877zM588 757l6 45q51 44 96 44q29 0 76 -24.5t74 -24.5q43 0 91 45l-6 -45q-52 -44 -97 -44q-29 0 -76 24t-74 24q-42 0 -90 -44z
" />
    <glyph glyph-name="utilde" unicode="&#x169;" horiz-adv-x="1185" 
d="M925 57q53 0 78 22t33 76l62 448h65l-64 -457q-11 -75 -50.5 -110.5t-114.5 -35.5h-744q-75 0 -105.5 35.5t-19.5 110.5l63 457h65l-62 -448q-8 -53 11 -75.5t73 -22.5h710zM489 666l6 45q51 44 96 44q29 0 76 -24.5t74 -24.5q43 0 91 45l-6 -45q-52 -44 -97 -44
q-29 0 -76 24t-74 24q-42 0 -90 -44z" />
    <glyph glyph-name="Umacron" unicode="&#x16a;" horiz-adv-x="1337" 
d="M210 0q-150 0 -128 148l77 552h66l-76 -539q-7 -56 12 -79t73 -23h845q54 0 79.5 23t33.5 79l75 539h67l-78 -552q-21 -148 -169 -148h-877zM923 783h-332l5 39h333z" />
    <glyph glyph-name="umacron" unicode="&#x16b;" horiz-adv-x="1185" 
d="M925 57q53 0 78 22t33 76l62 448h65l-64 -457q-11 -75 -50.5 -110.5t-114.5 -35.5h-744q-75 0 -105.5 35.5t-19.5 110.5l63 457h65l-62 -448q-8 -53 11 -75.5t73 -22.5h710zM824 692h-332l5 39h333z" />
    <glyph glyph-name="Ubreve" unicode="&#x16c;" horiz-adv-x="1337" 
d="M210 0q-150 0 -128 148l77 552h66l-76 -539q-7 -56 12 -79t73 -23h845q54 0 79.5 23t33.5 79l75 539h67l-78 -552q-21 -148 -169 -148h-877zM596 815l3 46q46 -65 158 -65t174 65l-3 -46q-67 -64 -175 -64q-111 0 -157 64z" />
    <glyph glyph-name="ubreve" unicode="&#x16d;" horiz-adv-x="1185" 
d="M925 57q53 0 78 22t33 76l62 448h65l-64 -457q-11 -75 -50.5 -110.5t-114.5 -35.5h-744q-75 0 -105.5 35.5t-19.5 110.5l63 457h65l-62 -448q-8 -53 11 -75.5t73 -22.5h710zM497 724l3 46q46 -65 158 -65t174 65l-3 -46q-67 -64 -175 -64q-111 0 -157 64z" />
    <glyph glyph-name="Uring" unicode="&#x16e;" horiz-adv-x="1337" 
d="M210 0q-150 0 -128 148l77 552h66l-76 -539q-7 -56 12 -79t73 -23h845q54 0 79.5 23t33.5 79l75 539h67l-78 -552q-21 -148 -169 -148h-877zM804 838h-79q-41 0 -41 -35q0 -24 33 -24h79q41 0 41 35q0 24 -33 24zM732 866h74q63 0 63 -46q0 -69 -80 -69h-74q-63 0 -63 46
q0 69 80 69z" />
    <glyph glyph-name="uring" unicode="&#x16f;" horiz-adv-x="1185" 
d="M925 57q53 0 78 22t33 76l62 448h65l-64 -457q-11 -75 -50.5 -110.5t-114.5 -35.5h-744q-75 0 -105.5 35.5t-19.5 110.5l63 457h65l-62 -448q-8 -53 11 -75.5t73 -22.5h710zM705 747h-79q-41 0 -41 -35q0 -24 33 -24h79q41 0 41 35q0 24 -33 24zM633 775h74q63 0 63 -46
q0 -69 -80 -69h-74q-63 0 -63 46q0 69 80 69z" />
    <glyph glyph-name="Uhungarumlaut" unicode="&#x170;" horiz-adv-x="1337" 
d="M210 0q-150 0 -128 148l77 552h66l-76 -539q-7 -56 12 -79t73 -23h845q54 0 79.5 23t33.5 79l75 539h67l-78 -552q-21 -148 -169 -148h-877zM1054 856l-194 -104h-68l165 104h97zM822 856l-194 -104h-68l165 104h97z" />
    <glyph glyph-name="uhungarumlaut" unicode="&#x171;" horiz-adv-x="1185" 
d="M925 57q53 0 78 22t33 76l62 448h65l-64 -457q-11 -75 -50.5 -110.5t-114.5 -35.5h-744q-75 0 -105.5 35.5t-19.5 110.5l63 457h65l-62 -448q-8 -53 11 -75.5t73 -22.5h710zM955 765l-194 -104h-68l165 104h97zM723 765l-194 -104h-68l165 104h97z" />
    <glyph glyph-name="Uogonek" unicode="&#x172;" horiz-adv-x="1337" 
d="M1215 -162h-253q-74 0 -74 41q0 32 22.5 47.5t80 22.5t171.5 7h14l10 67q-37 -23 -99 -23h-877q-150 0 -128 148l77 552h66l-76 -539q-7 -56 12 -79t73 -23h845q54 0 79.5 23t33.5 79l75 539h67l-78 -552q-11 -72 -48 -108l-14 -103h-21q-103 0 -156.5 -4t-72 -12
t-18.5 -23t42 -15h254z" />
    <glyph glyph-name="uogonek" unicode="&#x173;" horiz-adv-x="1185" 
d="M1059 -162h-253q-74 0 -74 41q0 32 22.5 47.5t80 22.5t171.5 7h14l9 65q-38 -21 -95 -21h-744q-75 0 -105.5 35.5t-19.5 110.5l63 457h65l-62 -448q-8 -53 11 -75.5t73 -22.5h710q53 0 78 22t33 76l62 448h65l-64 -457q-11 -73 -47 -108l-14 -101h-21q-103 0 -156.5 -4
t-72 -12t-18.5 -23t42 -15h254z" />
    <glyph glyph-name="Wcircumflex" unicode="&#x174;" horiz-adv-x="1699" 
d="M1449 0h-472q-71 0 -102 26.5t-30 86.5q-17 -60 -55 -86.5t-108 -26.5h-472q-150 0 -128 148l77 552h66l-76 -539q-7 -56 12 -79t73 -23h469q56 0 82 23.5t34 81.5l76 536h66l-76 -536q-8 -58 12 -81.5t75 -23.5h469q55 0 80.5 23t32.5 79l76 539h66l-77 -552
q-21 -148 -170 -148zM946 824l-145 -72h-63l173 104h78l143 -104h-60z" />
    <glyph glyph-name="wcircumflex" unicode="&#x175;" horiz-adv-x="1529" 
d="M747 102q-15 -55 -51.5 -78.5t-104.5 -23.5h-401q-75 0 -105.5 35.5t-19.5 110.5l63 457h65l-62 -448q-8 -53 11 -75.5t73 -22.5h401q50 0 74 22t32 72l63 452h65l-63 -452q-8 -50 10.5 -72t69.5 -22h401q54 0 79 22t33 76l62 448h65l-64 -457q-11 -75 -51 -110.5
t-115 -35.5h-401q-68 0 -98 23.5t-31 78.5zM837 733l-145 -72h-63l173 104h78l143 -104h-60z" />
    <glyph glyph-name="Ycircumflex" unicode="&#x176;" horiz-adv-x="1296" 
d="M1255 700h66l-32 -231q-21 -148 -170 -148h-414l-45 -321h-66l44 321h-414q-149 0 -128 148l33 231h66l-31 -218q-8 -56 11 -79.5t73 -23.5h863q54 0 80 23t33 80zM743 824l-145 -72h-63l173 104h78l143 -104h-60z" />
    <glyph glyph-name="ycircumflex" unicode="&#x177;" horiz-adv-x="1197" 
d="M863 -167h-808l8 57h801q68 0 103 30t45 100l9 66q-32 -68 -130 -68h-705q-75 0 -105.5 35.5t-19.5 110.5l61 439h65l-60 -431q-7 -53 12 -75t72 -22h711q54 0 79 22t33 75l60 431h64l-82 -583q-13 -96 -64.5 -141.5t-148.5 -45.5zM664 733l-145 -72h-63l173 104h78
l143 -104h-60z" />
    <glyph glyph-name="Ydieresis" unicode="&#x178;" horiz-adv-x="1296" 
d="M1255 700h66l-32 -231q-21 -148 -170 -148h-414l-45 -321h-66l44 321h-414q-149 0 -128 148l33 231h66l-31 -218q-8 -56 11 -79.5t73 -23.5h863q54 0 80 23t33 80zM658 827l-8 -53h-94l7 53h95zM921 827l-7 -53h-95l8 53h94z" />
    <glyph glyph-name="Zacute" unicode="&#x179;" horiz-adv-x="1278" 
d="M1037 379q71 0 104.5 28.5t43.5 101.5l19 132h-1077l8 59h1143l-28 -200q-26 -179 -204 -179h-794q-72 0 -105.5 -28.5t-43.5 -101.5l-18 -132h1103l-8 -59h-1169l28 200q24 179 204 179h794zM897 856l-194 -104h-68l165 104h97z" />
    <glyph glyph-name="zacute" unicode="&#x17a;" horiz-adv-x="1145" 
d="M225 273q-59 0 -89.5 -27t-38.5 -86l-14 -103h974l-8 -57h-1038l21 160q25 170 193 170h693q59 0 89.5 26.5t38.5 85.5l15 104h-953l8 57h1017l-22 -161q-24 -169 -193 -169h-693zM826 765l-194 -104h-68l165 104h97z" />
    <glyph glyph-name="Zdotaccent" unicode="&#x17b;" horiz-adv-x="1278" 
d="M1037 379q71 0 104.5 28.5t43.5 101.5l19 132h-1077l8 59h1143l-28 -200q-26 -179 -204 -179h-794q-72 0 -105.5 -28.5t-43.5 -101.5l-18 -132h1103l-8 -59h-1169l28 200q24 179 204 179h794zM770 827l-8 -53h-95l8 53h95z" />
    <glyph glyph-name="zdotaccent" unicode="&#x17c;" horiz-adv-x="1145" 
d="M225 273q-59 0 -89.5 -27t-38.5 -86l-14 -103h974l-8 -57h-1038l21 160q25 170 193 170h693q59 0 89.5 26.5t38.5 85.5l15 104h-953l8 57h1017l-22 -161q-24 -169 -193 -169h-693zM699 736l-8 -53h-95l8 53h95z" />
    <glyph glyph-name="Zcaron" unicode="&#x17d;" horiz-adv-x="1278" 
d="M1037 379q71 0 104.5 28.5t43.5 101.5l19 132h-1077l8 59h1143l-28 -200q-26 -179 -204 -179h-794q-72 0 -105.5 -28.5t-43.5 -101.5l-18 -132h1103l-8 -59h-1169l28 200q24 179 204 179h794zM590 856l125 -71l146 71h62l-172 -104h-78l-143 104h60z" />
    <glyph glyph-name="zcaron" unicode="&#x17e;" horiz-adv-x="1145" 
d="M225 273q-59 0 -89.5 -27t-38.5 -86l-14 -103h974l-8 -57h-1038l21 160q25 170 193 170h693q59 0 89.5 26.5t38.5 85.5l15 104h-953l8 57h1017l-22 -161q-24 -169 -193 -169h-693zM519 765l125 -71l146 71h62l-172 -104h-78l-143 104h60z" />
    <glyph glyph-name="florin" unicode="&#x192;" 
d="M1193 379l-8 -58h-909l-25 -178q-11 -75 -49.5 -109t-113.5 -34h-81l8 59h63q54 0 77.5 20.5t31.5 74.5l23 167h-158l8 58h158l24 173q11 75 52 111.5t116 36.5h921l-9 -59h-904q-54 0 -79 -21.5t-32 -75.5l-23 -165h909z" />
    <glyph glyph-name="AEacute" unicode="&#x1fc;" horiz-adv-x="2026" 
d="M963 0l45 321h-858l-45 -321h-66l77 552q21 148 170 148h1745l-9 -59h-905l-37 -262h806l-8 -58h-806l-37 -262h906l-8 -59h-970zM294 641q-55 0 -80.5 -23t-33.5 -79l-22 -160h858l37 262h-759zM1286 856l-194 -104h-68l165 104h97z" />
    <glyph glyph-name="aeacute" unicode="&#x1fd;" horiz-adv-x="1741" 
d="M1652 409l7 57q7 43 -9 61.5t-59 18.5h-551q-51 0 -75 -22t-31 -72l-18 -122h645q43 0 64 18t27 61zM109 193l-8 -56q-6 -43 10 -61.5t59 -18.5h551q50 0 74 22t32 72l17 122h-644q-43 0 -64 -18t-27 -62zM696 0h-549q-66 0 -93.5 32t-17.5 100l9 65q10 69 45.5 101
t102.5 32h659l17 122q7 50 -11 72t-68 22h-666l8 57h648q68 0 98 -23.5t31 -78.5q15 55 51.5 78.5t104.5 23.5h549q66 0 93.5 -32t17.5 -100l-10 -66q-9 -69 -45 -100.5t-102 -31.5h-659l-17 -122q-8 -50 10.5 -72t69.5 -22h665l-8 -57h-648q-68 0 -98.5 23.5t-30.5 78.5
q-15 -55 -51.5 -78.5t-104.5 -23.5zM1116 765l-194 -104h-68l165 104h97z" />
    <glyph glyph-name="Oslashacute" unicode="&#x1fe;" horiz-adv-x="1320" 
d="M199 0q-150 0 -129 148l57 404q21 148 170 148h881q76 0 107 -36.5t21 -111.5l-57 -404q-21 -148 -169 -148h-881zM174 65l942 576h-811q-54 0 -80 -23t-34 -79l-53 -378q-10 -80 36 -96zM1184 161l53 378q12 78 -35 95l-942 -575h811q55 0 80.5 23t32.5 79zM929 856
l-194 -104h-68l165 104h97z" />
    <glyph glyph-name="oslashacute" unicode="&#x1ff;" horiz-adv-x="1168" 
d="M1010 603q75 0 105.5 -35.5t20.5 -110.5l-44 -311q-11 -75 -51 -110.5t-115 -35.5h-746q-75 0 -105.5 35.5t-19.5 110.5l44 311q10 75 50 110.5t115 35.5h746zM917 57q54 0 79 22t33 76l40 293q5 41 -4.5 63.5t-37.5 29.5l-785 -484h675zM157 63l782 483h-666
q-53 0 -78 -22.5t-33 -75.5l-41 -293q-12 -75 36 -92zM831 765l-194 -104h-68l165 104h97z" />
    <glyph glyph-name="uni0218" unicode="&#x218;" horiz-adv-x="1268" 
d="M211 321q-75 0 -105.5 35t-19.5 110l12 89q11 75 51.5 110t115.5 35h978l-9 -59h-963q-50 0 -75.5 -23t-32.5 -75l-9 -66q-7 -52 11.5 -75t68.5 -23h844q75 0 105.5 -35t19.5 -110l-12 -89q-11 -75 -51 -110t-115 -35h-1013l8 59h999q50 0 75 23t33 75l9 66q7 52 -12 75
t-69 23h-844zM625 -85l-7 -46q-10 -77 -78 -77h-20l3 25h19q31 0 35 36l2 13h-51l7 49h90z" />
    <glyph glyph-name="uni0219" unicode="&#x219;" horiz-adv-x="1135" 
d="M1089 546h-857q-43 0 -63.5 -18.5t-26.5 -61.5l-8 -57q-6 -43 9.5 -61t58.5 -18h757q67 0 94 -32t17 -101l-9 -65q-10 -68 -45.5 -100t-101.5 -32h-902l8 57h887q43 0 63.5 18.5t26.5 61.5l8 56q6 43 -9.5 61.5t-59.5 18.5h-757q-67 0 -93.5 31.5t-17.5 100.5l9 66
q10 68 46 100t102 32h872zM545 -85l-7 -46q-10 -77 -78 -77h-20l3 25h19q31 0 35 36l2 13h-51l7 49h90z" />
    <glyph glyph-name="uni021A" unicode="&#x21a;" horiz-adv-x="1225" 
d="M1258 700l-9 -59h-555l-90 -641h-66l89 641h-556l8 59h1179zM603 -85l-7 -46q-10 -77 -78 -77h-20l3 25h19q31 0 35 36l2 13h-51l7 49h90z" />
    <glyph glyph-name="uni021B" unicode="&#x21b;" horiz-adv-x="1038" 
d="M190 0q-75 0 -105.5 35.5t-19.5 110.5l87 624h65l-24 -167h846l-8 -57h-846l-54 -391q-8 -53 11 -75.5t73 -22.5h748l-8 -57h-765zM521 -85l-7 -46q-10 -77 -78 -77h-20l3 25h19q31 0 35 36l2 13h-51l7 49h90z" />
    <glyph glyph-name="uni0237" unicode="&#x237;" horiz-adv-x="252" 
d="M-90 -110h45q52 0 72 18t28 71l87 624h65l-89 -632q-10 -74 -45.5 -106t-110.5 -32h-60z" />
    <glyph glyph-name="circumflex" unicode="&#x2c6;" horiz-adv-x="371" 
d="M247 733l-145 -72h-63l173 104h78l143 -104h-60z" />
    <glyph glyph-name="caron" unicode="&#x2c7;" horiz-adv-x="371" 
d="M114 765l125 -71l146 71h62l-172 -104h-78l-143 104h60z" />
    <glyph glyph-name="breve" unicode="&#x2d8;" horiz-adv-x="371" 
d="M79 724l3 46q46 -65 158 -65t174 65l-3 -46q-67 -64 -175 -64q-111 0 -157 64z" />
    <glyph glyph-name="dotaccent" unicode="&#x2d9;" horiz-adv-x="371" 
d="M294 736l-8 -53h-95l8 53h95z" />
    <glyph glyph-name="ring" unicode="&#x2da;" horiz-adv-x="371" 
d="M287 747h-79q-41 0 -41 -35q0 -24 33 -24h79q41 0 41 35q0 24 -33 24zM215 775h74q63 0 63 -46q0 -69 -80 -69h-74q-63 0 -63 46q0 69 80 69z" />
    <glyph glyph-name="ogonek" unicode="&#x2db;" horiz-adv-x="383" 
d="M271 -63h-21q-103 0 -156.5 -4t-72 -12t-18.5 -23t42 -15h254l-7 -45h-253q-74 0 -74 41q0 32 22.5 47.5t80 22.5t171.5 7h14l7 44h20z" />
    <glyph glyph-name="tilde" unicode="&#x2dc;" horiz-adv-x="371" 
d="M71 666l6 45q51 44 96 44q29 0 76 -24.5t74 -24.5q43 0 91 45l-6 -45q-52 -44 -97 -44q-29 0 -76 24t-74 24q-42 0 -90 -44z" />
    <glyph glyph-name="hungarumlaut" unicode="&#x2dd;" horiz-adv-x="371" 
d="M504 765l-194 -104h-68l165 104h97zM272 765l-194 -104h-68l165 104h97z" />
    <glyph glyph-name="pi" unicode="&#x3c0;" 
d="M91 0l84 603h1034l-84 -603h-65l76 546h-904l-76 -546h-65z" />
    <glyph glyph-name="uni1E02" unicode="&#x1e02;" horiz-adv-x="1330" 
d="M1253 216l-10 -72q-10 -74 -49.5 -109t-114.5 -35h-1030l98 700h1030q75 0 105 -35t19 -109l-10 -72q-8 -62 -37.5 -94.5t-89.5 -39.5q58 -7 78 -39.5t11 -94.5zM1114 379q54 0 78 22.5t32 77.5l9 64q7 52 -11.5 75t-68.5 23h-948l-38 -262h947zM159 321l-36 -262h948
q50 0 75.5 23t32.5 75l9 64q8 55 -10 77.5t-72 22.5h-947zM788 827l-8 -53h-95l8 53h95z" />
    <glyph glyph-name="uni1E03" unicode="&#x1e03;" horiz-adv-x="1180" 
d="M65 146l87 624h65l-34 -236q32 69 131 69h708q75 0 105.5 -35.5t19.5 -110.5l-44 -311q-11 -75 -50.5 -110.5t-114.5 -35.5h-748q-75 0 -105.5 35.5t-19.5 110.5zM172 448l-41 -293q-8 -53 11 -75.5t73 -22.5h714q53 0 78 22t33 76l41 293q8 53 -11.5 75.5t-72.5 22.5
h-714q-54 0 -78.5 -22t-32.5 -76zM733 736l-8 -53h-95l8 53h95z" />
    <glyph glyph-name="uni1E0A" unicode="&#x1e0a;" horiz-adv-x="1331" 
d="M1115 700q101 0 146 -52t31 -154l-40 -288q-29 -206 -235 -206h-968l98 700h968zM1013 59q77 0 120 36.5t54 115.5l38 278q12 78 -20.5 115t-109.5 37h-890l-82 -582h890zM777 827l-8 -53h-95l8 53h95z" />
    <glyph glyph-name="uni1E0B" unicode="&#x1e0b;" horiz-adv-x="1180" 
d="M1181 770l-88 -624q-10 -75 -50 -110.5t-115 -35.5h-748q-75 0 -105.5 35.5t-19.5 110.5l44 311q10 75 50 110.5t115 35.5h707q53 0 79 -16.5t33 -52.5l34 236h64zM1030 155l41 293q8 53 -11.5 75.5t-72.5 22.5h-714q-53 0 -78 -22.5t-33 -75.5l-41 -293q-8 -53 11 -75.5
t73 -22.5h714q53 0 78 22t33 76zM684 736l-8 -53h-95l8 53h95z" />
    <glyph glyph-name="uni1E1E" unicode="&#x1e1e;" horiz-adv-x="1259" 
d="M49 0l98 700h1145l-9 -59h-1078l-38 -262h980l-8 -58h-980l-44 -321h-66zM774 827l-8 -53h-95l8 53h95z" />
    <glyph glyph-name="uni1E1F" unicode="&#x1e1f;" horiz-adv-x="1088" 
d="M290 546q-61 0 -92 -27t-40 -89l-14 -100h863l-8 -57h-863l-62 -440h-65l85 602q12 86 59 127t134 41h816l-8 -57h-805zM693 736l-8 -53h-95l8 53h95z" />
    <glyph glyph-name="uni1E40" unicode="&#x1e40;" horiz-adv-x="1699" 
d="M1053 700h472q149 0 128 -148l-77 -552h-66l75 539q8 56 -11 79t-73 23h-469q-56 0 -82 -23.5t-35 -81.5l-74 -536h-66l74 536q9 58 -10.5 81.5t-75.5 23.5h-469q-55 0 -80.5 -23t-33.5 -79l-75 -539h-66l77 552q21 148 170 148h472q70 0 101 -26.5t30 -86.5
q17 60 55.5 86.5t108.5 26.5zM971 827l-8 -53h-95l8 53h95z" />
    <glyph glyph-name="uni1E41" unicode="&#x1e41;" horiz-adv-x="1529" 
d="M793 501q15 55 51.5 78.5t104.5 23.5h401q75 0 105.5 -35.5t20.5 -110.5l-64 -457h-65l62 448q8 53 -11 75.5t-72 22.5h-402q-51 0 -75 -22t-31 -72l-63 -452h-65l63 452q7 50 -11 72t-68 22h-402q-54 0 -78.5 -22t-32.5 -76l-63 -448h-65l64 457q11 75 51 110.5
t115 35.5h401q68 0 98.5 -23.5t30.5 -78.5zM873 736l-8 -53h-95l8 53h95z" />
    <glyph glyph-name="uni1E56" unicode="&#x1e56;" horiz-adv-x="1299" 
d="M49 0l98 700h1025q75 0 105.5 -35t19.5 -110l-12 -89q-11 -75 -51 -110t-115 -35h-960l-44 -321h-66zM1230 543q7 52 -11.5 75t-68.5 23h-945l-38 -262h945q50 0 75.5 23t32.5 75zM790 827l-8 -53h-95l8 53h95z" />
    <glyph glyph-name="uni1E57" unicode="&#x1e57;" horiz-adv-x="1180" 
d="M9 -167l88 624q11 75 51 110.5t115 35.5h748q75 0 105.5 -35.5t19.5 -110.5l-44 -311q-11 -75 -50.5 -110.5t-114.5 -35.5h-708q-99 0 -112 69l-33 -236h-65zM161 448l-41 -293q-8 -53 11 -75.5t73 -22.5h714q53 0 78 22t33 76l41 293q8 53 -11.5 75.5t-72.5 22.5h-714
q-54 0 -78.5 -22t-32.5 -76zM698 736l-8 -53h-95l8 53h95z" />
    <glyph glyph-name="uni1E60" unicode="&#x1e60;" horiz-adv-x="1268" 
d="M211 321q-75 0 -105.5 35t-19.5 110l12 89q11 75 51.5 110t115.5 35h978l-9 -59h-963q-50 0 -75.5 -23t-32.5 -75l-9 -66q-7 -52 11.5 -75t68.5 -23h844q75 0 105.5 -35t19.5 -110l-12 -89q-11 -75 -51 -110t-115 -35h-1013l8 59h999q50 0 75 23t33 75l9 66q7 52 -12 75
t-69 23h-844zM755 827l-8 -53h-95l8 53h95z" />
    <glyph glyph-name="uni1E61" unicode="&#x1e61;" horiz-adv-x="1135" 
d="M1089 546h-857q-43 0 -63.5 -18.5t-26.5 -61.5l-8 -57q-6 -43 9.5 -61t58.5 -18h757q67 0 94 -32t17 -101l-9 -65q-10 -68 -45.5 -100t-101.5 -32h-902l8 57h887q43 0 63.5 18.5t26.5 61.5l8 56q6 43 -9.5 61.5t-59.5 18.5h-757q-67 0 -93.5 31.5t-17.5 100.5l9 66
q10 68 46 100t102 32h872zM676 736l-8 -53h-95l8 53h95z" />
    <glyph glyph-name="uni1E6A" unicode="&#x1e6a;" horiz-adv-x="1225" 
d="M1258 700l-9 -59h-555l-90 -641h-66l89 641h-556l8 59h1179zM733 827l-8 -53h-95l8 53h95z" />
    <glyph glyph-name="uni1E6B" unicode="&#x1e6b;" horiz-adv-x="1038" 
d="M190 0q-75 0 -105.5 35.5t-19.5 110.5l87 624h65l-24 -167h846l-8 -57h-846l-54 -391q-8 -53 11 -75.5t73 -22.5h748l-8 -57h-765zM678 736l-8 -53h-95l8 53h95z" />
    <glyph glyph-name="Wgrave" unicode="&#x1e80;" horiz-adv-x="1699" 
d="M1449 0h-472q-71 0 -102 26.5t-30 86.5q-17 -60 -55 -86.5t-108 -26.5h-472q-150 0 -128 148l77 552h66l-76 -539q-7 -56 12 -79t73 -23h469q56 0 82 23.5t34 81.5l76 536h66l-76 -536q-8 -58 12 -81.5t75 -23.5h469q55 0 80.5 23t32.5 79l76 539h66l-77 -552
q-21 -148 -170 -148zM944 752l-161 104h90l136 -104h-65z" />
    <glyph glyph-name="wgrave" unicode="&#x1e81;" horiz-adv-x="1529" 
d="M747 102q-15 -55 -51.5 -78.5t-104.5 -23.5h-401q-75 0 -105.5 35.5t-19.5 110.5l63 457h65l-62 -448q-8 -53 11 -75.5t73 -22.5h401q50 0 74 22t32 72l63 452h65l-63 -452q-8 -50 10.5 -72t69.5 -22h401q54 0 79 22t33 76l62 448h65l-64 -457q-11 -75 -51 -110.5
t-115 -35.5h-401q-68 0 -98 23.5t-31 78.5zM836 661l-161 104h90l136 -104h-65z" />
    <glyph glyph-name="Wacute" unicode="&#x1e82;" horiz-adv-x="1699" 
d="M1449 0h-472q-71 0 -102 26.5t-30 86.5q-17 -60 -55 -86.5t-108 -26.5h-472q-150 0 -128 148l77 552h66l-76 -539q-7 -56 12 -79t73 -23h469q56 0 82 23.5t34 81.5l76 536h66l-76 -536q-8 -58 12 -81.5t75 -23.5h469q55 0 80.5 23t32.5 79l76 539h66l-77 -552
q-21 -148 -170 -148zM1120 856l-194 -104h-68l165 104h97z" />
    <glyph glyph-name="wacute" unicode="&#x1e83;" horiz-adv-x="1529" 
d="M747 102q-15 -55 -51.5 -78.5t-104.5 -23.5h-401q-75 0 -105.5 35.5t-19.5 110.5l63 457h65l-62 -448q-8 -53 11 -75.5t73 -22.5h401q50 0 74 22t32 72l63 452h65l-63 -452q-8 -50 10.5 -72t69.5 -22h401q54 0 79 22t33 76l62 448h65l-64 -457q-11 -75 -51 -110.5
t-115 -35.5h-401q-68 0 -98 23.5t-31 78.5zM1011 765l-194 -104h-68l165 104h97z" />
    <glyph glyph-name="Wdieresis" unicode="&#x1e84;" horiz-adv-x="1699" 
d="M1449 0h-472q-71 0 -102 26.5t-30 86.5q-17 -60 -55 -86.5t-108 -26.5h-472q-150 0 -128 148l77 552h66l-76 -539q-7 -56 12 -79t73 -23h469q56 0 82 23.5t34 81.5l76 536h66l-76 -536q-8 -58 12 -81.5t75 -23.5h469q55 0 80.5 23t32.5 79l76 539h66l-77 -552
q-21 -148 -170 -148zM861 827l-8 -53h-94l7 53h95zM1124 827l-7 -53h-95l8 53h94z" />
    <glyph glyph-name="wdieresis" unicode="&#x1e85;" horiz-adv-x="1529" 
d="M747 102q-15 -55 -51.5 -78.5t-104.5 -23.5h-401q-75 0 -105.5 35.5t-19.5 110.5l63 457h65l-62 -448q-8 -53 11 -75.5t73 -22.5h401q50 0 74 22t32 72l63 452h65l-63 -452q-8 -50 10.5 -72t69.5 -22h401q54 0 79 22t33 76l62 448h65l-64 -457q-11 -75 -51 -110.5
t-115 -35.5h-401q-68 0 -98 23.5t-31 78.5zM752 736l-8 -53h-94l7 53h95zM1015 736l-7 -53h-95l8 53h94z" />
    <glyph glyph-name="Ygrave" unicode="&#x1ef2;" horiz-adv-x="1296" 
d="M1255 700h66l-32 -231q-21 -148 -170 -148h-414l-45 -321h-66l44 321h-414q-149 0 -128 148l33 231h66l-31 -218q-8 -56 11 -79.5t73 -23.5h863q54 0 80 23t33 80zM742 752l-161 104h90l136 -104h-65z" />
    <glyph glyph-name="ygrave" unicode="&#x1ef3;" horiz-adv-x="1197" 
d="M863 -167h-808l8 57h801q68 0 103 30t45 100l9 66q-32 -68 -130 -68h-705q-75 0 -105.5 35.5t-19.5 110.5l61 439h65l-60 -431q-7 -53 12 -75t72 -22h711q54 0 79 22t33 75l60 431h64l-82 -583q-13 -96 -64.5 -141.5t-148.5 -45.5zM663 661l-161 104h90l136 -104h-65z
" />
    <glyph glyph-name="uni2010" unicode="&#x2010;" horiz-adv-x="592" 
d="M554 356l-8 -58h-501l8 58h501z" />
    <glyph glyph-name="figuredash" unicode="&#x2012;" 
d="M1308 356l-8 -58h-1301l9 58h1300z" />
    <glyph glyph-name="endash" unicode="&#x2013;" horiz-adv-x="766" 
d="M774 356l-9 -58h-766l9 58h766z" />
    <glyph glyph-name="emdash" unicode="&#x2014;" horiz-adv-x="1532" 
d="M1540 356l-9 -58h-1532l9 58h1532z" />
    <glyph glyph-name="quoteleft" unicode="&#x2018;" horiz-adv-x="289" 
d="M129 536l9 65q7 50 30 74.5t66 24.5h15l-4 -30h-14q-19 0 -29.5 -11t-14.5 -39l-2 -19h50l-9 -65h-97z" />
    <glyph glyph-name="quoteright" unicode="&#x2019;" horiz-adv-x="289" 
d="M249 700l-9 -65q-7 -50 -30 -74.5t-66 -24.5h-15l4 30h14q19 0 29.5 11.5t14.5 39.5l2 18h-50l10 65h96z" />
    <glyph glyph-name="quotesinglbase" unicode="&#x201a;" horiz-adv-x="289" 
d="M160 68l-9 -65q-13 -99 -96 -99h-15l4 30h14q19 0 29.5 11.5t14.5 39.5l2 18h-50l10 65h96z" />
    <glyph glyph-name="quotedblleft" unicode="&#x201c;" horiz-adv-x="476" 
d="M315 536l10 65q13 99 96 99h15l-4 -30h-14q-19 0 -29.5 -11t-14.5 -39l-2 -19h50l-10 -65h-97zM129 536l9 65q7 50 30 74.5t66 24.5h15l-4 -30h-14q-19 0 -29.5 -11t-14.5 -39l-2 -19h50l-9 -65h-97z" />
    <glyph glyph-name="quotedblright" unicode="&#x201d;" horiz-adv-x="476" 
d="M435 700l-9 -65q-7 -50 -30 -74.5t-66 -24.5h-15l4 30h14q19 0 29.5 11.5t14.5 39.5l2 18h-50l10 65h96zM249 700l-9 -65q-7 -50 -30 -74.5t-66 -24.5h-15l4 30h14q19 0 29.5 11.5t14.5 39.5l2 18h-50l10 65h96z" />
    <glyph glyph-name="quotedblbase" unicode="&#x201e;" horiz-adv-x="476" 
d="M347 68l-9 -65q-7 -50 -30 -74.5t-66 -24.5h-15l4 30h14q19 0 29.5 11.5t14.5 39.5l2 18h-50l10 65h96zM160 68l-9 -65q-13 -99 -96 -99h-15l4 30h14q19 0 29.5 11.5t14.5 39.5l2 18h-50l10 65h96z" />
    <glyph glyph-name="dagger" unicode="&#x2020;" horiz-adv-x="1189" 
d="M1178 492l-8 -58h-524l-80 -566h-66l80 566h-523l8 58h523l35 248h66l-35 -248h524z" />
    <glyph glyph-name="daggerdbl" unicode="&#x2021;" horiz-adv-x="1189" 
d="M1139 217l-8 -58h-524l-41 -291h-66l41 291h-523l8 58h523l31 217h-523l8 58h523l35 248h66l-35 -248h524l-8 -58h-524l-31 -217h524z" />
    <glyph glyph-name="bullet" unicode="&#x2022;" horiz-adv-x="766" 
d="M448 163h-124q-142 0 -142 134v106q0 134 142 134h124q142 0 142 -134v-106q0 -134 -142 -134z" />
    <glyph glyph-name="ellipsis" unicode="&#x2026;" horiz-adv-x="663" 
d="M160 68l-9 -68h-97l10 68h96zM347 68l-9 -68h-97l10 68h96zM534 68l-9 -68h-97l10 68h96z" />
    <glyph glyph-name="perthousand" unicode="&#x2030;" horiz-adv-x="2647" 
d="M699 0l455 700h59l-454 -700h-60zM1096 117l42 300q16 117 133 117h462q60 0 84.5 -28.5t16.5 -88.5l-43 -300q-16 -117 -133 -117h-462q-118 0 -100 117zM1731 121l41 292q6 36 -7.5 51.5t-48.5 15.5h-443q-34 0 -52.5 -15.5t-23.5 -51.5l-41 -292q-4 -36 9.5 -51.5
t47.5 -15.5h443q35 0 53 15.5t22 51.5zM1880 117l42 300q16 117 133 117h462q60 0 84.5 -28.5t16.5 -88.5l-43 -300q-16 -117 -133 -117h-462q-118 0 -100 117zM2515 121l41 292q6 36 -7.5 51.5t-48.5 15.5h-443q-34 0 -52.5 -15.5t-23.5 -51.5l-41 -292q-4 -36 9.5 -51.5
t47.5 -15.5h443q35 0 53 15.5t22 51.5zM79 283l42 300q16 117 133 117h462q60 0 84.5 -28.5t16.5 -88.5l-43 -300q-16 -117 -133 -117h-462q-118 0 -100 117zM714 287l41 292q6 36 -7.5 51.5t-48.5 15.5h-443q-34 0 -52.5 -15.5t-23.5 -51.5l-41 -292q-4 -36 9.5 -51.5
t47.5 -15.5h443q35 0 53 15.5t22 51.5z" />
    <glyph glyph-name="guilsinglleft" unicode="&#x2039;" horiz-adv-x="323" 
d="M256 51h-69l-156 249l226 249h72l-229 -252z" />
    <glyph glyph-name="guilsinglright" unicode="&#x203a;" horiz-adv-x="323" 
d="M67 549h69l157 -249l-227 -249h-72l229 251z" />
    <glyph glyph-name="fraction" unicode="&#x2044;" horiz-adv-x="481" 
d="M-10 0l455 700h59l-454 -700h-60z" />
    <glyph glyph-name="zerosuperior" unicode="&#x2070;" horiz-adv-x="822" 
d="M79 283l42 300q16 117 133 117h462q60 0 84.5 -28.5t16.5 -88.5l-43 -300q-16 -117 -133 -117h-462q-118 0 -100 117zM714 287l41 292q6 36 -7.5 51.5t-48.5 15.5h-443q-34 0 -52.5 -15.5t-23.5 -51.5l-41 -292q-4 -36 9.5 -51.5t47.5 -15.5h443q35 0 53 15.5t22 51.5z
" />
    <glyph glyph-name="foursuperior" unicode="&#x2074;" horiz-adv-x="822" 
d="M711 460l34 240h60l-75 -534h-60l34 240h-518q-60 0 -84 28.5t-16 88.5l25 177h60l-25 -173q-4 -35 9.5 -51t47.5 -16h508z" />
    <glyph glyph-name="zeroinferior" unicode="&#x2080;" horiz-adv-x="822" 
d="M56 117l42 300q16 117 133 117h462q60 0 84.5 -28.5t16.5 -88.5l-43 -300q-16 -117 -133 -117h-462q-118 0 -100 117zM691 121l41 292q6 36 -7.5 51.5t-48.5 15.5h-443q-34 0 -52.5 -15.5t-23.5 -51.5l-41 -292q-4 -36 9.5 -51.5t47.5 -15.5h443q35 0 53 15.5t22 51.5z
" />
    <glyph glyph-name="oneinferior" unicode="&#x2081;" horiz-adv-x="822" 
d="M81 0l8 54h328l60 426h-329l8 54h388l-67 -480h248l-7 -54h-637z" />
    <glyph glyph-name="twoinferior" unicode="&#x2082;" horiz-adv-x="822" 
d="M725 363l6 49q6 38 -6.5 53.5t-50.5 15.5h-577l8 53h588q60 0 84 -28.5t16 -88.5l-9 -60q-16 -117 -132 -117h-451q-56 0 -80.5 -21t-31.5 -76l-13 -89h665l-7 -54h-726l21 152q21 142 163 142h456q38 0 54.5 15t22.5 54z" />
    <glyph glyph-name="threeinferior" unicode="&#x2083;" horiz-adv-x="822" 
d="M789 418l-7 -46q-7 -48 -28 -73.5t-73 -31.5q50 -6 64.5 -31.5t7.5 -73.5l-7 -46q-16 -116 -131 -116h-614l8 54h601q38 0 55 15t22 53l7 50q5 36 -8 52t-48 16h-522l7 54h522q35 0 52.5 15.5t23.5 52.5l6 50q5 38 -7.5 53t-49.5 15h-601l7 54h614q59 0 83 -28.5
t16 -87.5z" />
    <glyph glyph-name="fourinferior" unicode="&#x2084;" horiz-adv-x="822" 
d="M688 294l34 240h60l-75 -534h-60l34 240h-518q-60 0 -84 28.5t-16 88.5l25 177h60l-25 -173q-4 -35 9.5 -51t47.5 -16h508z" />
    <glyph glyph-name="Euro" unicode="&#x20ac;" 
d="M218 0q-149 0 -128 148l24 173h-86l8 58h86l25 173q21 148 169 148h991l-8 -59h-975q-54 0 -79.5 -23t-33.5 -79l-23 -160h971l-8 -58h-971l-22 -160q-8 -56 11 -79t74 -23h974l-8 -59h-991z" />
    <glyph glyph-name="uni2117" unicode="&#x2117;" horiz-adv-x="1399" 
d="M307 370h797q26 0 26 24v51q0 24 -26 24h-797v-99zM1176 443v-48q0 -66 -67 -66h-802v-140h-47v321h849q35 0 51 -16t16 -51zM240 0q-83 0 -122 39.5t-39 120.5v380q0 81 39 120.5t122 39.5h935q161 0 161 -160v-380q0 -160 -161 -160h-935zM242 42h930q117 0 117 117
v382q0 117 -117 117h-930q-116 0 -116 -117v-382q0 -117 116 -117z" />
    <glyph glyph-name="trademark" unicode="&#x2122;" horiz-adv-x="1962" 
d="M1349 167v398q0 41 -17 61t-56 20h-300q-34 0 -48.5 -14.5t-14.5 -49.5v-415h-60v418q0 59 27.5 87t87.5 28h289q58 0 87 -22.5t35 -71.5q7 50 36 72t87 22h288q60 0 88 -28t28 -87v-418h-61v415q0 35 -14.5 49.5t-48.5 14.5h-299q-39 0 -56.5 -20t-17.5 -61v-398h-60z
M765 700v-54h-328v-479h-60v479h-328v54h716z" />
    <glyph glyph-name="uni2126" unicode="&#x2126;" 
d="M1174 374v169q0 52 -22 75t-72 23h-854q-50 0 -72 -23t-22 -75v-169q0 -52 22 -75.5t72 -23.5h336v-275h-505v59h447v158h-292q-76 0 -111 35.5t-35 109.5v193q0 75 35 110t111 35h882q76 0 111 -35t35 -110v-193q0 -74 -35 -109.5t-110 -35.5h-293v-158h447v-59h-505
v275h336q50 0 72 23.5t22 75.5z" />
    <glyph glyph-name="onethird" unicode="&#x2153;" horiz-adv-x="1863" 
d="M104 166l8 54h328l60 426h-329l8 54h388l-67 -480h248l-7 -54h-637zM681 0l455 700h59l-454 -700h-60zM1829 418l-7 -46q-7 -48 -28 -73.5t-73 -31.5q50 -6 64.5 -31.5t7.5 -73.5l-7 -46q-16 -116 -131 -116h-614l8 54h601q38 0 55 15t22 53l7 50q5 36 -8 52t-48 16h-522
l7 54h522q35 0 52.5 15.5t23.5 52.5l6 50q5 38 -7.5 53t-49.5 15h-601l7 54h614q59 0 83 -28.5t16 -87.5z" />
    <glyph glyph-name="twothirds" unicode="&#x2154;" horiz-adv-x="1863" 
d="M748 529l6 49q6 38 -6.5 53.5t-50.5 15.5h-577l8 53h588q60 0 84 -28.5t16 -88.5l-9 -60q-16 -117 -132 -117h-451q-56 0 -80.5 -21t-31.5 -76l-13 -89h665l-7 -54h-726l21 152q21 142 163 142h456q38 0 54.5 15t22.5 54zM681 0l455 700h59l-454 -700h-60zM1829 418
l-7 -46q-7 -48 -28 -73.5t-73 -31.5q50 -6 64.5 -31.5t7.5 -73.5l-7 -46q-16 -116 -131 -116h-614l8 54h601q38 0 55 15t22 53l7 50q5 36 -8 52t-48 16h-522l7 54h522q35 0 52.5 15.5t23.5 52.5l6 50q5 38 -7.5 53t-49.5 15h-601l7 54h614q59 0 83 -28.5t16 -87.5z" />
    <glyph glyph-name="partialdiff" unicode="&#x2202;" 
d="M1234 494v-348q0 -75 -35 -110.5t-111 -35.5h-886q-76 0 -111 35t-35 110v89q0 74 35 109.5t111 35.5h966v110q0 78 -38 115t-114 37h-933v59h946q101 0 153 -52t52 -154zM122 223v-66q0 -52 22 -75t72 -23h857q51 0 73 22.5t22 76.5v163h-952q-50 0 -72 -23t-22 -75z
" />
    <glyph glyph-name="uni2206" unicode="&#x2206;" 
d="M54 0l598 720l600 -720h-1198zM652 623l-472 -568h944z" />
    <glyph glyph-name="product" unicode="&#x220f;" 
d="M1166 -132v773h-1026v-773h-66v832h1158v-832h-66z" />
    <glyph glyph-name="summation" unicode="&#x2211;" 
d="M1232 -73v-59h-1158v50l504 366l-504 366v50h1158v-59h-1041l493 -357l-493 -357h1041z" />
    <glyph glyph-name="minus" unicode="&#x2212;" 
d="M74 321v57h1158v-57h-1158z" />
    <glyph glyph-name="radical" unicode="&#x221a;" 
d="M844 0l-163 321h-607v57h648l158 -311l323 633h68l-354 -700h-73z" />
    <glyph glyph-name="infinity" unicode="&#x221e;" horiz-adv-x="733" 
d="M345 317q-12 0 -23.5 12.5t-14.5 12.5t-11 -2t-14 -2q-8 0 -14.5 8t-6.5 17q0 22 8 35q-7 -7 -16 -37t-26 -41q-18 -12 -18 -40q0 -11 11 -21.5t11 -12.5q0 -4 -3 -4q-7 0 -12 5q13 -68 48 -104h-55q-35 114 -35 226q0 105 40.5 171.5t135.5 66.5q190 0 190 -254
q0 -75 -25 -210h-73q53 47 62 117q-4 -8 -13 -8q-3 0 -3 2l4 4q5 3 9.5 11.5t4.5 21.5q-4 -6 -15 -6q-1 0 -10.5 -4.5t-15.5 -4.5q-14 0 -40 3.5t-70 3.5q-22 0 -52.5 -6t-38.5 -6q-5 0 -13 2t-11 2q-28 0 -28 12q0 10 37 18.5t74 8.5q5 0 12 -0.5t12 -0.5t15.5 2t14.5 2
q112 0 127 -20q-1 16 -14 29t-30 13q-6 0 -6 7q0 57 -16 58q4 -7 4 -17q0 -18 -11 -32t-27 -14q-4 0 -10 2l-7 2q-1 0 -14.5 -14t-27.5 -14zM733 291v-148q-22 48 -69 112.5t-67 64.5q6 -85 -12 -177h-42q16 104 16 199q0 319 -213 319q-53 0 -91.5 -26.5t-59 -72.5
t-30 -97.5t-9.5 -111.5q0 -123 29 -210h-47q-19 67 -19 184q-17 -9 -39.5 -43.5t-49 -84.5t-30.5 -56v148q11 27 33 54t50 53.5t30 28.5q3 72 27 135t75.5 107.5t120.5 44.5q67 0 115.5 -22.5t76.5 -64t42.5 -87t22.5 -105.5q22 -5 68 -48t72 -96zM345 503q-3 3 -3 6
q0 2 2 2q1 0 6 -4.5t15 -8.5t22 -4q16 0 29 4t20 8l6 5q4 0 4 -2l-8 -8q24 0 52 -11q-29 80 -139 80q-55 0 -92 -33t-50 -85q37 20 41 39q-6 4 -6 7q0 4 3 4l2 -2q2 -1 6.5 -3.5t10 -5t13.5 -4t17 -1.5q24 0 49 17zM371 416q0 20 -4.5 40t-9.5 20q-10 0 -19 -39t-14 -39
q-3 0 -9.5 3t-11.5 3q-13 0 -21 -10.5t-8 -24.5t11 -14t18 6.5t9 6.5t12 -13.5t20 -13.5q14 0 25 10.5t12 10.5q3 0 10 -3.5t9 -3.5q10 0 18 11t8 24q0 10 -6 18t-16 8q-7 0 -14.5 -6.5t-11.5 -6.5q-7 0 -7 13zM510 318q0 95 -12 147l-5 3q0 -21 -18 -32t-41 -11
q-21 0 -37 12.5t-16 29.5q0 6 2 9q-12 2 -15 4q6 -9 10 -24t5.5 -24t4.5 -9q7 2 15 2q19 0 31 -14q34 0 34 -51q0 -3 8 -7t18.5 -13t15.5 -22zM383 310q-1 0 -8 -1t-15.5 -2t-13.5 -1t-13 1.5t-11 1.5q-15 0 -36 -4t-35 -9t-14 -8q0 -10 20 -10q24 0 54 6.5t44 6.5
q19 0 57.5 -3.5t52.5 -3.5q5 0 9.5 2t7.5 4t3 3q0 5 -36 11t-66 6zM267 413q-18 0 -31 10t-15 21q-4 -2 -15 -5q-4 -21 -4 -43q0 -50 3 -78q4 6 22 22t20 31q5 37 38 41q12 5 23 5q5 0 8.5 8.5t9.5 24.5t16 28l-13 -4q-1 -24 -18.5 -42.5t-43.5 -18.5zM419 465q-13 0 -16 13
q-5 0 -8.5 -5.5t-3.5 -9.5q0 -10 15 -17t31 -7q14 0 29 8.5t15 21.5q0 8 -14.5 12.5t-28.5 4.5q-5 -21 -19 -21zM267 427q14 0 30 11t16 24q0 6 -1 9q-20 0 -27 1q-5 -14 -18 -14q-10 0 -15 5q-4 -4 -18 -12q4 -24 33 -24zM266 288q-2 0 -2 3q0 12 107 12q93 0 93 -8
q0 -3 -3 -3q-1 0 -4 0.5t-10 1t-16 1.5t-24.5 1.5t-33.5 0.5q-36 0 -61 -2.5t-36 -4.5zM305 262q0 10 63 10q31 0 31 -8q0 -3 -2 -3q-4 0 -10 2t-10 2q-11 0 -26 -0.5t-20 -0.5q-4 0 -11.5 -3t-10.5 -3q-4 0 -4 4zM417 473q9 0 9 13q-1 0 -16 -6q0 -7 7 -7zM266 466
q7 0 10 9q-6 1 -11 4q0 -4 -6 -10q1 -3 7 -3zM325 34l-3 48l-10 -82h-21l15 125h25l4 -60l21 60h26l-15 -125h-22l10 82l-16 -48h-14zM21 125h35q23 0 20 -21l-10 -82q-3 -22 -22 -22h-38zM282 44q-1 -12 -10 -17l8 -27h-21l-7 23h-7l-3 -23h-22l15 125h36q21 0 18 -24z
M183 0l3 23h-14l-3 -23h-21l12 104q2 21 22 21h17q19 0 18 -21l-12 -104h-22zM594 0l15 125h35q23 0 20 -21l-8 -62q-3 -19 -22 -19h-15l-3 -23h-22zM111 0l3 23h-13l-3 -23h-22l15 125h22l-10 -83h13l10 83h22l-15 -125h-22zM539 125h22l-10 -79q0 -4 4 -4h5q5 0 5 4l9 79
h22l-10 -81q-3 -21 -19 -21l-9 -23h-23l9 23q-18 0 -15 21zM477 106l3 19h50l-3 -19h-13l-12 -106h-23l12 106h-14zM41 106l-11 -88h11q3 0 3 4l9 80q0 4 -4 4h-8zM629 106l-8 -64h8q5 0 5 4l7 56q0 4 -4 4h-8zM174 42h14l7 60q0 4 -4 4h-5q-5 0 -5 -4zM255 106l-8 -64h8
q5 0 5 4l7 56q0 4 -3 4h-9zM711 57l-3 -18h-19l-3 -21h27l-2 -18h-49l15 125h47l-3 -19h-24l-6 -49h20zM417 0l3 23h-14l-3 -23h-21l12 104q2 21 22 21h17q19 0 18 -21l-12 -104h-22zM408 42h14l7 60q0 4 -4 4h-5q-5 0 -5 -4z" />
    <glyph glyph-name="integral" unicode="&#x222b;" 
d="M752 543l-131 -532q-19 -75 -61 -109t-119 -34h-367v59h361q56 0 83.5 21.5t41.5 76.5l131 532q19 75 61.5 109t119.5 34h360v-59h-354q-56 0 -84 -21.5t-42 -76.5z" />
    <glyph glyph-name="approxequal" unicode="&#x2248;" 
d="M74 171v66q102 66 252 66q104 0 325 -45t324 -45q154 0 257 71v-66q-102 -65 -253 -65q-105 0 -325.5 44.5t-323.5 44.5q-152 0 -256 -71zM74 418v65q102 66 253 66q104 0 324 -44.5t323 -44.5q155 0 258 71v-66q-102 -65 -253 -65q-105 0 -325.5 44.5t-323.5 44.5
q-152 0 -256 -71z" />
    <glyph glyph-name="notequal" unicode="&#x2260;" 
d="M489 0h-63l114 195h-444v57h477l115 195h-592v57h625l115 196h63l-115 -196h426v-57h-460l-114 -195h574v-57h-607z" />
    <glyph glyph-name="lessequal" unicode="&#x2264;" 
d="M1232 0h-1158v57h1158v-57zM74 350l260 246h77l-231 -218h1052v-57h-1051l230 -218h-77z" />
    <glyph glyph-name="greaterequal" unicode="&#x2265;" 
d="M1232 0h-1158v57h1158v-57zM972 596l260 -246l-260 -247h-77l230 218h-1051v57h1052l-231 218h77z" />
    <glyph glyph-name="lozenge" unicode="&#x25ca;" 
d="M653 -20l-600 368l600 368l599 -368zM652 53l481 295l-481 295l-480 -295z" />
    <glyph glyph-name="commaaccent" horiz-adv-x="383" 
d="M182 -85l-7 -46q-10 -77 -78 -77h-20l3 25h19q31 0 35 36l2 13h-51l7 49h90z" />
    <glyph glyph-name="i.alt" horiz-adv-x="244" 
d="M48 0l84 603h65l-84 -603h-65zM234 737l-8 -54h-101l7 54h102z" />
    <glyph glyph-name="i.trk" horiz-adv-x="331" 
d="M209 57h73l-7 -57h-90q-74 0 -102 32t-17 106l65 465h65l-65 -456q-7 -52 9.5 -71t68.5 -19zM233 737l-8 -54h-101l7 54h102z" />
    <glyph glyph-name="one.pnum" horiz-adv-x="378" 
d="M344 700l-98 -700h-67l90 641h-196l9 59h262z" />
    </font>
</defs>
</svg>
