<?xml version="1.0" standalone="no"?>
<!DOCTYPE svg PUBLIC "-//W3C//DTD SVG 1.1//EN" "http://www.w3.org/Graphics/SVG/1.1/DTD/svg11.dtd" >
<svg xmlns="http://www.w3.org/2000/svg" xmlns:xlink="http://www.w3.org/1999/xlink" version="1.1">
<metadata>
Created by FontForge 20170731 at Sat Mar 14 00:16:18 2015
 By ,,,
Copyright (c) 2011 by Ryoichi Tsunekawa. All rights reserved.
</metadata>
<defs>
<font id="DesignSystemD-300R" horiz-adv-x="1300" >
  <font-face 
    font-family="DesignSystemD-300R"
    font-weight="400"
    font-stretch="normal"
    units-per-em="1000"
    panose-1="4 5 4 7 2 11 2 2 3 2"
    ascent="822"
    descent="-178"
    x-height="603"
    cap-height="700"
    bbox="-86 -208 2584 932"
    underline-thickness="36"
    underline-position="-156"
    unicode-range="U+0020-FB02"
  />
<missing-glyph horiz-adv-x="766" 
d="M0 700h766v-700h-766v700zM47 656v-601l623 601h-623zM95 44h624v600z" />
    <glyph glyph-name="ij" unicode="ij" horiz-adv-x="496" 
d="M211 -110h45q52 0 70 18t18 71v624h65v-632q0 -75 -31.5 -106.5t-106.5 -31.5h-60v57zM326 683v54h101v-54h-101zM90 0v603h65v-603h-65zM173 737v-54h-102v54h102z" />
    <glyph glyph-name="fi" unicode="fi" horiz-adv-x="1419" 
d="M256 546q-61 0 -88.5 -27t-27.5 -89v-100h864v-57h-864v-273h-65v435q0 86 41.5 127t128.5 41h816v-57h-805zM1320 57h74v-57h-90q-74 0 -106 32t-32 106v465h65v-456q0 -52 18.5 -71t70.5 -19zM1249 737v-54h-102v54h102z" />
    <glyph glyph-name="fl" unicode="fl" horiz-adv-x="1417" 
d="M256 546q-61 0 -88.5 -27t-27.5 -89v-100h864v-57h-864v-273h-65v435q0 86 41.5 127t128.5 41h816v-57h-805zM1318 57h73v-57h-89q-75 0 -107 32t-32 106v632h65v-623q0 -52 19 -71t71 -19z" />
    <glyph glyph-name=".notdef" horiz-adv-x="766" 
d="M0 700h766v-700h-766v700zM47 656v-601l623 601h-623zM95 44h624v600z" />
    <glyph glyph-name=".null" horiz-adv-x="0" 
 />
    <glyph glyph-name="nonmarkingreturn" horiz-adv-x="333" 
 />
    <glyph glyph-name="space" unicode=" " horiz-adv-x="390" 
 />
    <glyph glyph-name="exclam" unicode="!" horiz-adv-x="295" 
d="M197 65v-65h-99v65h99zM181 700v-233q0 -134 -12 -293h-43q-12 159 -12 293v233h67z" />
    <glyph glyph-name="quotedbl" unicode="&#x22;" horiz-adv-x="395" 
d="M137 700v-47q0 -79 -15 -261h-36q-15 182 -15 261v47h66zM325 700v-47q0 -79 -15 -261h-36q-15 182 -15 261v47h66z" />
    <glyph glyph-name="numbersign" unicode="#" 
d="M1073 0l8 144h-884l-7 -144h-62l8 144h-98l3 57h98l15 298h-97l3 57h97l8 144h62l-8 -144h884l7 144h62l-7 -144h97l-3 -57h-97l-16 -298h97l-3 -57h-97l-8 -144h-62zM216 499l-16 -298h884l16 298h-884z" />
    <glyph glyph-name="dollar" unicode="$" 
d="M53 107h1049q43 0 61 18.5t18 61.5v56q0 43 -18 61t-61 18h-920q-67 0 -98 32t-31 101v65q0 68 31 100t98 32h438v88h58v-88h540v-57h-1021q-43 0 -61.5 -18.5t-18.5 -61.5v-56q0 -43 18.5 -61.5t61.5 -18.5h920q66 0 97.5 -32t31.5 -100v-65q0 -68 -31.5 -100t-97.5 -32
h-439v-90h-58v90h-567v57z" />
    <glyph glyph-name="percent" unicode="%" horiz-adv-x="1863" 
d="M723 0l357 700h59l-356 -700h-60zM1104 117v300q0 60 28.5 88.5t88.5 28.5h462q60 0 88.5 -28.5t28.5 -88.5v-300q0 -60 -28.5 -88.5t-88.5 -28.5h-462q-60 0 -88.5 28.5t-28.5 88.5zM1740 121v292q0 36 -16 51.5t-50 15.5h-443q-35 0 -51 -15.5t-16 -51.5v-292
q0 -36 16 -51.5t51 -15.5h443q34 0 50 15.5t16 51.5zM63 283v300q0 60 28.5 88.5t88.5 28.5h462q60 0 88.5 -28.5t28.5 -88.5v-300q0 -60 -28.5 -88.5t-88.5 -28.5h-462q-60 0 -88.5 28.5t-28.5 88.5zM699 287v292q0 36 -16 51.5t-50 15.5h-443q-35 0 -51 -15.5t-16 -51.5
v-292q0 -36 16 -51.5t51 -15.5h443q34 0 50 15.5t16 51.5z" />
    <glyph glyph-name="ampersand" unicode="&#x26;" horiz-adv-x="1396" 
d="M1217 321h-991q-53 0 -74 -22.5t-21 -77.5v-64q0 -53 22 -76t72 -23h902q53 0 71.5 19t18.5 73v171zM65 144v72q0 62 24.5 94.5t83.5 39.5q-59 7 -83.5 39t-24.5 95v72q0 74 34.5 109t109.5 35h1024v-58h-1008q-50 0 -72 -23t-22 -76v-64q0 -55 21 -77.5t74 -22.5h1146
v-58h-89v-183q0 -74 -31.5 -106t-105.5 -32h-937q-75 0 -109.5 35t-34.5 109z" />
    <glyph glyph-name="quotesingle" unicode="'" horiz-adv-x="208" 
d="M137 700v-47q0 -79 -15 -261h-36q-15 182 -15 261v47h66z" />
    <glyph glyph-name="parenleft" unicode="(" horiz-adv-x="332" 
d="M144 78q0 -57 22 -79.5t77 -22.5h40v-56h-56q-75 0 -110.5 35.5t-35.5 109.5v490q0 74 35.5 109.5t110.5 35.5h56v-56h-40q-55 0 -77 -22.5t-22 -79.5v-464z" />
    <glyph glyph-name="parenright" unicode=")" horiz-adv-x="332" 
d="M188 78v464q0 57 -22 79.5t-77 22.5h-40v56h56q75 0 110.5 -35.5t35.5 -109.5v-490q0 -74 -35.5 -109.5t-110.5 -35.5h-56v56h40q55 0 77 22.5t22 79.5z" />
    <glyph glyph-name="asterisk" unicode="*" horiz-adv-x="533" 
d="M274 460q64 42 150 70l73 23l16 -52l-73 -23q-74 -23 -160 -33q69 -62 112 -120l44 -62l-44 -32l-45 62q-49 68 -80 142q-37 -82 -81 -142l-45 -62l-44 32l45 62q40 55 112 120q-88 10 -161 33l-73 23l16 52l74 -23q85 -28 149 -70q-19 82 -19 164v76h54v-76
q0 -90 -20 -164z" />
    <glyph glyph-name="plus" unicode="+" 
d="M71 321v57h550v218h57v-218h551v-57h-551v-218h-57v218h-550z" />
    <glyph glyph-name="comma" unicode="," horiz-adv-x="289" 
d="M193 68v-65q0 -99 -82 -99h-15v30h14q19 0 27.5 11.5t8.5 39.5v18h-50v65h97z" />
    <glyph glyph-name="hyphen" unicode="-" horiz-adv-x="582" 
d="M537 356v-58h-491v58h491z" />
    <glyph glyph-name="period" unicode="." horiz-adv-x="289" 
d="M193 68v-68h-97v68h97z" />
    <glyph glyph-name="slash" unicode="/" horiz-adv-x="552" 
d="M32 0l417 700h70l-417 -700h-70z" />
    <glyph glyph-name="zero" unicode="0" 
d="M220 0q-149 0 -149 148v404q0 148 149 148h861q76 0 112 -36.5t36 -111.5v-404q0 -75 -36 -111.5t-112 -36.5h-861zM1163 161v378q0 56 -22 79t-77 23h-828q-55 0 -77 -23t-22 -79v-378q0 -56 22 -79t77 -23h828q55 0 77 23t22 79z" />
    <glyph glyph-name="one" unicode="1" 
d="M882 700v-641h349v-59h-1091v59h678v583h-678v58h742z" />
    <glyph glyph-name="two" unicode="2" 
d="M1171 543q0 52 -22 75t-72 23h-998v59h1013q75 0 110 -35.5t35 -109.5v-89q0 -74 -35 -109.5t-110 -35.5h-843q-72 0 -101 -28.5t-29 -101.5v-132h1127v-59h-1193v200q0 179 179 179h845q50 0 72 23t22 75v66z" />
    <glyph glyph-name="three" unicode="3" 
d="M1074 321h-923v58h923q53 0 74 22.5t21 77.5v64q0 52 -22 75t-72 23h-1024v59h1040q75 0 109.5 -35t34.5 -109v-72q0 -63 -24.5 -95t-83.5 -39q59 -7 83.5 -39.5t24.5 -94.5v-72q0 -74 -34.5 -109t-109.5 -35h-1040v59h1024q50 0 72 23t22 75v64q0 55 -21 77.5t-74 22.5z
" />
    <glyph glyph-name="four" unicode="4" 
d="M1151 379v321h66v-700h-66v321h-951q-76 0 -112 36.5t-36 111.5v231h66v-218q0 -57 22 -80t77 -23h934z" />
    <glyph glyph-name="five" unicode="5" 
d="M75 321v379h1143v-59h-1076v-262h957q75 0 110.5 -35.5t35.5 -109.5v-89q0 -75 -35.5 -110t-110.5 -35h-1034v59h1020q50 0 72 23t22 75v66q0 52 -22 75t-72 23h-1010z" />
    <glyph glyph-name="six" unicode="6" 
d="M135 489v-110h964q75 0 110.5 -35.5t35.5 -109.5v-89q0 -75 -35.5 -110t-110.5 -35h-884q-76 0 -111 35.5t-35 110.5v348q0 102 52 154t153 52h944v-59h-931q-76 0 -114 -37t-38 -115zM1085 321h-950v-163q0 -54 22 -76.5t74 -22.5h854q50 0 72 23t22 75v66q0 52 -22 75
t-72 23z" />
    <glyph glyph-name="seven" unicode="7" 
d="M1069 379q62 0 87.5 24.5t25.5 88.5v149h-1156v59h1222v-221q0 -158 -158 -158h-453q-62 0 -87.5 -24.5t-25.5 -88.5v-208h-66v221q0 158 158 158h453z" />
    <glyph glyph-name="eight" unicode="8" 
d="M1239 556v-72q0 -63 -24.5 -95t-83.5 -39q59 -7 83.5 -39.5t24.5 -94.5v-72q0 -74 -34.5 -109t-109.5 -35h-890q-75 0 -109.5 35t-34.5 109v72q0 62 24.5 94.5t83.5 39.5q-59 7 -83.5 39t-24.5 95v72q0 74 34.5 109t109.5 35h890q75 0 109.5 -35t34.5 -109zM222 379h856
q53 0 74 22.5t21 77.5v64q0 52 -22 75t-72 23h-858q-50 0 -72 -23t-22 -75v-64q0 -55 21 -77.5t74 -22.5zM1078 321h-856q-53 0 -74 -22.5t-21 -77.5v-64q0 -52 22 -75t72 -23h858q50 0 72 23t22 75v64q0 55 -21 77.5t-74 22.5z" />
    <glyph glyph-name="nine" unicode="9" 
d="M1085 700q76 0 111 -35.5t35 -110.5v-348q0 -102 -52 -154t-153 -52h-944v59h931q76 0 114 37t38 115v110h-964q-75 0 -110.5 35.5t-35.5 109.5v89q0 75 35.5 110t110.5 35h884zM122 543v-66q0 -52 21.5 -75t71.5 -23h950v163q0 54 -22 76.5t-73 22.5h-855
q-50 0 -71.5 -23t-21.5 -75z" />
    <glyph glyph-name="colon" unicode=":" horiz-adv-x="289" 
d="M193 538v-68h-97v68h97zM193 68v-68h-97v68h97z" />
    <glyph glyph-name="semicolon" unicode=";" horiz-adv-x="289" 
d="M193 68v-65q0 -99 -82 -99h-15v30h14q19 0 27.5 11.5t8.5 39.5v18h-50v65h97zM193 538v-68h-97v68h97z" />
    <glyph glyph-name="less" unicode="&#x3c;" 
d="M71 350l260 246h77l-231 -218h1052v-57h-1051l230 -218h-77z" />
    <glyph glyph-name="equal" unicode="=" 
d="M93 195v57h1114v-57h-1114zM93 447v57h1114v-57h-1114z" />
    <glyph glyph-name="greater" unicode="&#x3e;" 
d="M1229 350l-260 -247h-77l230 218h-1051v57h1052l-231 218h77z" />
    <glyph glyph-name="question" unicode="?" horiz-adv-x="1241" 
d="M1137 477v66q0 52 -22 75t-72 23h-1018v59h1033q76 0 111 -35t35 -110v-89q0 -74 -35 -109.5t-111 -35.5h-421q-42 0 -60 -17.5t-18 -60.5v-71h-66v84q0 123 123 123h427q50 0 72 23t22 75zM576 65v-65h-99v65h99z" />
    <glyph glyph-name="at" unicode="@" horiz-adv-x="1399" 
d="M232 0q-83 0 -122 39.5t-39 120.5v380q0 81 39 120.5t122 39.5h935q161 0 161 -160v-380q0 -160 -161 -160h-935zM234 42h930q117 0 117 117v382q0 117 -117 117h-930q-116 0 -116 -117v-382q0 -117 116 -117zM1073 189h-752q-40 0 -58.5 19t-18.5 60v22q0 80 77 80h791
v56q0 43 -43 43h-811v41h809q48 0 70 -22.5t22 -70.5v-141q0 -45 -20.5 -66t-65.5 -21zM327 329q-21 0 -29 -8t-8 -27v-29q0 -20 8 -27.5t29 -7.5h748q37 0 37 38v61h-785z" />
    <glyph glyph-name="A" unicode="A" horiz-adv-x="1337" 
d="M1256 0h-67v321h-1042v-321h-66v552q0 148 149 148h877q149 0 149 -148v-552zM1090 641h-844q-54 0 -76.5 -23t-22.5 -79v-160h1042v160q0 56 -22 79t-77 23z" />
    <glyph glyph-name="B" unicode="B" horiz-adv-x="1330" 
d="M1265 216v-72q0 -74 -34.5 -109t-109.5 -35h-1030v700h1030q75 0 109.5 -35t34.5 -109v-72q0 -63 -24.5 -95t-83.5 -39q59 -7 83.5 -39.5t24.5 -94.5zM1104 379q53 0 74 22.5t21 77.5v64q0 52 -22 75t-72 23h-948v-262h947zM157 321v-262h948q50 0 72 23t22 75v64
q0 55 -21 77.5t-74 22.5h-947z" />
    <glyph glyph-name="C" unicode="C" horiz-adv-x="1234" 
d="M219 0q-76 0 -112 36.5t-36 111.5v404q0 75 36 111.5t112 36.5h964v-59h-947q-55 0 -77 -23t-22 -79v-378q0 -56 22 -79t77 -23h947v-59h-964z" />
    <glyph glyph-name="D" unicode="D" horiz-adv-x="1330" 
d="M1059 700q101 0 153.5 -52t52.5 -154v-288q0 -102 -52.5 -154t-153.5 -52h-968v700h968zM1047 59q77 0 114.5 36.5t37.5 115.5v278q0 79 -37.5 115.5t-114.5 36.5h-890v-582h890z" />
    <glyph glyph-name="E" unicode="E" horiz-adv-x="1293" 
d="M91 0v700h1151v-59h-1085v-262h985v-58h-985v-262h1085v-59h-1151z" />
    <glyph glyph-name="F" unicode="F" horiz-adv-x="1259" 
d="M91 0v700h1145v-59h-1079v-262h979v-58h-979v-321h-66z" />
    <glyph glyph-name="G" unicode="G" horiz-adv-x="1314" 
d="M1093 59q53 0 71.5 18.5t18.5 72.5v171h-598v58h665v-241q0 -74 -32 -106t-106 -32h-893q-76 0 -112 36.5t-36 111.5v404q0 75 36 111.5t112 36.5h1006v-59h-989q-55 0 -77 -23t-22 -79v-378q0 -56 22 -79t77 -23h857z" />
    <glyph glyph-name="H" unicode="H" horiz-adv-x="1372" 
d="M1215 0v321h-1058v-321h-66v700h66v-321h1058v321h66v-700h-66z" />
    <glyph glyph-name="I" unicode="I" horiz-adv-x="248" 
d="M91 0v700h66v-700h-66z" />
    <glyph glyph-name="J" unicode="J" horiz-adv-x="1301" 
d="M52 138v204h66v-192q0 -54 18.5 -72.5t71.5 -18.5h847q55 0 77 23t22 79v539h66v-552q0 -75 -36 -111.5t-112 -36.5h-882q-75 0 -106.5 32t-31.5 106z" />
    <glyph glyph-name="K" unicode="K" horiz-adv-x="1339" 
d="M1265 700v-210q0 -65 -25 -99t-88 -41q63 -7 88 -41t25 -99v-210h-66v217q0 55 -21.5 79.5t-75.5 24.5h-945v-321h-66v700h66v-321h945q54 0 75.5 24.5t21.5 79.5v217h66z" />
    <glyph glyph-name="L" unicode="L" horiz-adv-x="1251" 
d="M1228 59v-59h-1137v700h66v-641h1071z" />
    <glyph glyph-name="M" unicode="M" horiz-adv-x="1699" 
d="M997 700h472q149 0 149 -148v-552h-66v539q0 56 -22 79t-77 23h-469q-56 0 -78.5 -23.5t-22.5 -81.5v-536h-66v536q0 58 -23 81.5t-79 23.5h-469q-54 0 -76.5 -23t-22.5 -79v-539h-66v552q0 148 149 148h472q70 0 105 -26.5t43 -86.5q7 60 41.5 86.5t105.5 26.5z" />
    <glyph glyph-name="N" unicode="N" horiz-adv-x="1337" 
d="M246 641q-54 0 -76.5 -23t-22.5 -79v-539h-66v552q0 148 149 148h877q149 0 149 -148v-552h-67v539q0 56 -22.5 79t-76.5 23h-844z" />
    <glyph glyph-name="O" unicode="O" horiz-adv-x="1320" 
d="M220 0q-149 0 -149 148v404q0 148 149 148h881q76 0 112 -36.5t36 -111.5v-404q0 -75 -36 -111.5t-112 -36.5h-881zM1183 161v378q0 56 -22 79t-77 23h-848q-54 0 -76.5 -23t-22.5 -79v-378q0 -57 22 -79.5t77 -22.5h848q55 0 77 23t22 79z" />
    <glyph glyph-name="P" unicode="P" horiz-adv-x="1299" 
d="M91 0v700h1025q76 0 111 -35t35 -110v-89q0 -74 -35 -109.5t-111 -35.5h-959v-321h-66zM1196 543q0 52 -22 75t-72 23h-945v-262h945q50 0 72 23t22 75v66z" />
    <glyph glyph-name="Q" unicode="Q" horiz-adv-x="1320" 
d="M220 0q-149 0 -149 148v404q0 148 149 148h881q76 0 112 -36.5t36 -111.5v-404q0 -75 -36 -111.5t-112 -36.5h-411v-123h-59v123h-411zM1183 161v378q0 56 -22 79t-77 23h-848q-54 0 -76.5 -23t-22.5 -79v-378q0 -57 22 -79.5t77 -22.5h395v192h59v-192h394q55 0 77 23
t22 79z" />
    <glyph glyph-name="R" unicode="R" horiz-adv-x="1337" 
d="M1265 556v-72q0 -63 -25 -95.5t-85 -39.5q61 -8 85.5 -42t24.5 -97v-210h-66v217q0 55 -21.5 79.5t-75.5 24.5h-945v-321h-66v700h1030q75 0 109.5 -35t34.5 -109zM1104 379q53 0 74 22.5t21 77.5v64q0 52 -22 75t-72 23h-948v-262h947z" />
    <glyph glyph-name="S" unicode="S" horiz-adv-x="1268" 
d="M209 321q-75 0 -110.5 35.5t-35.5 109.5v89q0 75 35.5 110t110.5 35h978v-59h-964q-50 0 -72 -23t-22 -75v-66q0 -52 22 -75t72 -23h844q75 0 110.5 -35.5t35.5 -109.5v-89q0 -75 -35.5 -110t-110.5 -35h-1013v59h999q50 0 72 23t22 75v66q0 52 -22 75t-72 23h-844z" />
    <glyph glyph-name="T" unicode="T" horiz-adv-x="1225" 
d="M1202 700v-59h-556v-641h-66v641h-557v59h1179z" />
    <glyph glyph-name="U" unicode="U" horiz-adv-x="1337" 
d="M230 0q-149 0 -149 148v552h66v-539q0 -56 22.5 -79t76.5 -23h844q54 0 76.5 23t22.5 79v539h67v-552q0 -148 -149 -148h-877z" />
    <glyph glyph-name="V" unicode="V" horiz-adv-x="1330" 
d="M91 0v700h66v-641h879q76 0 113.5 36.5t37.5 115.5v489h66v-494q0 -101 -52.5 -153.5t-153.5 -52.5h-956z" />
    <glyph glyph-name="W" unicode="W" horiz-adv-x="1699" 
d="M1469 0h-472q-71 0 -105.5 26.5t-41.5 86.5q-8 -60 -43 -86.5t-105 -26.5h-472q-149 0 -149 148v552h66v-539q0 -56 22.5 -79t76.5 -23h469q56 0 79 23.5t23 81.5v536h66v-536q0 -58 22.5 -81.5t78.5 -23.5h469q55 0 77 23t22 79v539h66v-552q0 -148 -149 -148z" />
    <glyph glyph-name="X" unicode="X" horiz-adv-x="1325" 
d="M73 490v210h66v-217q0 -55 21.5 -79.5t75.5 -24.5h853q54 0 75.5 24.5t21.5 79.5v217h66v-210q0 -64 -25.5 -98.5t-87.5 -41.5q62 -7 87.5 -41.5t25.5 -98.5v-210h-66v217q0 55 -21.5 79.5t-75.5 24.5h-853q-54 0 -75.5 -24.5t-21.5 -79.5v-217h-66v210q0 64 25.5 98.5
t87.5 41.5q-62 7 -87.5 41.5t-25.5 98.5z" />
    <glyph glyph-name="Y" unicode="Y" horiz-adv-x="1296" 
d="M1178 700h66v-231q0 -75 -36 -111.5t-112 -36.5h-415v-321h-66v321h-415q-76 0 -112 36.5t-36 111.5v231h66v-218q0 -56 22 -79.5t77 -23.5h862q55 0 77 23t22 80v218z" />
    <glyph glyph-name="Z" unicode="Z" horiz-adv-x="1278" 
d="M1026 379q72 0 101 28.5t29 101.5v132h-1077v59h1143v-200q0 -179 -179 -179h-794q-72 0 -101 -28.5t-29 -101.5v-132h1103v-59h-1169v200q0 179 179 179h794z" />
    <glyph glyph-name="bracketleft" unicode="[" horiz-adv-x="362" 
d="M91 700h221v-54h-160v-672h160v-54h-221v780z" />
    <glyph glyph-name="backslash" unicode="\" horiz-adv-x="552" 
d="M102 700l417 -700h-70l-417 700h70z" />
    <glyph glyph-name="bracketright" unicode="]" horiz-adv-x="362" 
d="M50 700h221v-780h-221v54h160v672h-160v54z" />
    <glyph glyph-name="asciicircum" unicode="^" 
d="M650 713l579 -336v-66l-579 336l-579 -336v66z" />
    <glyph glyph-name="underscore" unicode="_" horiz-adv-x="766" 
d="M766 -57v-49h-766v49h766z" />
    <glyph glyph-name="grave" unicode="`" horiz-adv-x="371" 
d="M228 661l-176 104h90l152 -104h-66z" />
    <glyph glyph-name="a" unicode="a" horiz-adv-x="1170" 
d="M1040 330v118q0 53 -22 75.5t-76 22.5h-862v57h879q75 0 110.5 -35.5t35.5 -110.5v-311q0 -75 -35.5 -110.5t-110.5 -35.5h-780q-66 0 -97.5 32t-31.5 100v65q0 69 31.5 101t97.5 32h861zM1040 273h-846q-43 0 -61 -18.5t-18 -61.5v-56q0 -43 18 -61.5t61 -18.5h748
q54 0 76 22.5t22 75.5v118z" />
    <glyph glyph-name="b" unicode="b" horiz-adv-x="1180" 
d="M75 146v624h65v-236q22 69 121 69h708q75 0 110 -35.5t35 -110.5v-311q0 -75 -35 -110.5t-110 -35.5h-748q-75 0 -110.5 35.5t-35.5 110.5zM140 448v-293q0 -53 22 -75.5t76 -22.5h714q53 0 75 22.5t22 75.5v293q0 53 -22 75.5t-75 22.5h-714q-54 0 -76 -22.5t-22 -75.5z
" />
    <glyph glyph-name="c" unicode="c" horiz-adv-x="1110" 
d="M211 0q-75 0 -110 35.5t-35 110.5v311q0 75 35 110.5t110 35.5h847v-57h-830q-53 0 -75.5 -22.5t-22.5 -75.5v-293q0 -53 22.5 -75.5t75.5 -22.5h830v-57h-847z" />
    <glyph glyph-name="d" unicode="d" horiz-adv-x="1180" 
d="M1104 770v-624q0 -75 -35 -110.5t-110 -35.5h-748q-75 0 -110 35.5t-35 110.5v311q0 75 35 110.5t110 35.5h707q100 0 122 -69v236h64zM1040 155v293q0 53 -22.5 75.5t-75.5 22.5h-714q-53 0 -75.5 -22.5t-22.5 -75.5v-293q0 -53 22.5 -75.5t75.5 -22.5h714
q53 0 75.5 22.5t22.5 75.5z" />
    <glyph glyph-name="e" unicode="e" horiz-adv-x="1170" 
d="M1120 405q0 -69 -31 -100.5t-98 -31.5h-861v-118q0 -53 23 -75.5t75 -22.5h862v-57h-879q-78 0 -111.5 38.5t-33.5 118.5v300q0 75 35 110.5t110 35.5h780q67 0 98 -32t31 -100v-66zM976 546h-748q-57 0 -77.5 -25t-20.5 -87v-104h846q43 0 61.5 18t18.5 61v54
q0 45 -17.5 64t-62.5 19z" />
    <glyph glyph-name="f" unicode="f" horiz-adv-x="1088" 
d="M256 546q-61 0 -88.5 -27t-27.5 -89v-100h864v-57h-864v-273h-65v435q0 86 41.5 127t128.5 41h816v-57h-805z" />
    <glyph glyph-name="g" unicode="g" horiz-adv-x="1180" 
d="M942 75q53 0 75.5 22t22.5 75v276q0 53 -22.5 75.5t-75.5 22.5h-714q-53 0 -75.5 -22.5t-22.5 -75.5v-276q0 -53 22.5 -75t75.5 -22h714zM918 18h-707q-75 0 -110 35.5t-35 110.5v293q0 75 35 110.5t110 35.5h748q75 0 110 -35.5t35 -110.5v-437q0 -96 -45 -141.5
t-142 -45.5h-811v57h803q68 0 99.5 30t31.5 100v66q-12 -36 -40.5 -52t-81.5 -16z" />
    <glyph glyph-name="h" unicode="h" horiz-adv-x="1197" 
d="M1056 448q0 53 -22 75.5t-75 22.5h-711q-54 0 -76 -22.5t-22 -75.5v-448h-65v770h65v-236q22 69 121 69h705q75 0 110 -35.5t35 -110.5v-457h-65v448z" />
    <glyph glyph-name="i" unicode="i" horiz-adv-x="331" 
d="M232 57h74v-57h-90q-74 0 -106 32t-32 106v465h65v-456q0 -52 18.5 -71t70.5 -19zM161 737v-54h-102v54h102z" />
    <glyph glyph-name="j" unicode="j" horiz-adv-x="252" 
d="M-33 -110h45q52 0 70 18t18 71v624h65v-632q0 -75 -31.5 -106.5t-106.5 -31.5h-60v57zM82 683v54h101v-54h-101z" />
    <glyph glyph-name="k" unicode="k" horiz-adv-x="1183" 
d="M1055 397v206h65v-180q0 -57 -20 -86t-68 -36q48 -7 68 -36t20 -86v-179h-65v205q0 35 -16.5 51.5t-52.5 16.5h-836v-273h-65v770h65v-440h836q37 0 53 16t16 51z" />
    <glyph glyph-name="l" unicode="l" horiz-adv-x="329" 
d="M230 57h73v-57h-89q-75 0 -107 32t-32 106v632h65v-623q0 -52 19 -71t71 -19z" />
    <glyph glyph-name="m" unicode="m" horiz-adv-x="1529" 
d="M765 501q7 55 40.5 78.5t101.5 23.5h401q75 0 110.5 -35.5t35.5 -110.5v-457h-65v448q0 53 -22 75.5t-76 22.5h-401q-50 0 -71.5 -22t-21.5 -72v-452h-65v452q0 50 -21 72t-71 22h-402q-54 0 -76 -22.5t-22 -75.5v-448h-65v457q0 75 35.5 110.5t110.5 35.5h401
q68 0 101.5 -23.5t41.5 -78.5z" />
    <glyph glyph-name="n" unicode="n" horiz-adv-x="1185" 
d="M75 0v457q0 75 35.5 110.5t110.5 35.5h744q75 0 110 -35.5t35 -110.5v-457h-65v448q0 53 -22 75.5t-75 22.5h-710q-54 0 -76 -22.5t-22 -75.5v-448h-65z" />
    <glyph glyph-name="o" unicode="o" horiz-adv-x="1168" 
d="M957 603q75 0 110.5 -35.5t35.5 -110.5v-311q0 -75 -35.5 -110.5t-110.5 -35.5h-746q-75 0 -110 35.5t-35 110.5v311q0 75 35 110.5t110 35.5h746zM940 57q54 0 76 22.5t22 75.5v293q0 53 -22 75.5t-76 22.5h-712q-54 0 -76 -22.5t-22 -75.5v-293q0 -53 22 -75.5
t76 -22.5h712z" />
    <glyph glyph-name="p" unicode="p" horiz-adv-x="1180" 
d="M75 -167v624q0 75 35.5 110.5t110.5 35.5h748q75 0 110 -35.5t35 -110.5v-311q0 -75 -35 -110.5t-110 -35.5h-708q-99 0 -121 69v-236h-65zM140 448v-293q0 -53 22 -75.5t76 -22.5h714q53 0 75 22.5t22 75.5v293q0 53 -22 75.5t-75 22.5h-714q-54 0 -76 -22.5t-22 -75.5z
" />
    <glyph glyph-name="q" unicode="q" horiz-adv-x="1180" 
d="M1104 457v-624h-64v236q-22 -69 -122 -69h-707q-75 0 -110 35.5t-35 110.5v311q0 75 35 110.5t110 35.5h748q75 0 110 -35.5t35 -110.5zM1040 155v293q0 53 -22.5 75.5t-75.5 22.5h-714q-53 0 -75.5 -22.5t-22.5 -75.5v-293q0 -53 22.5 -75.5t75.5 -22.5h714
q53 0 75.5 22.5t22.5 75.5z" />
    <glyph glyph-name="r" unicode="r" horiz-adv-x="1002" 
d="M975 603v-57h-737q-54 0 -76 -22.5t-22 -75.5v-448h-65v457q0 75 35.5 110.5t110.5 35.5h754z" />
    <glyph glyph-name="s" unicode="s" horiz-adv-x="1135" 
d="M1055 546h-857q-43 0 -61 -18.5t-18 -61.5v-57q0 -43 18 -61t61 -18h758q66 0 97.5 -32t31.5 -101v-65q0 -68 -31.5 -100t-97.5 -32h-902v57h887q43 0 61 18.5t18 61.5v56q0 43 -18 61.5t-61 18.5h-758q-66 0 -97.5 31.5t-31.5 100.5v66q0 68 31.5 100t97.5 32h872v-57z
" />
    <glyph glyph-name="t" unicode="t" horiz-adv-x="1038" 
d="M221 0q-75 0 -110.5 35.5t-35.5 110.5v624h65v-167h846v-57h-846v-391q0 -53 22 -75.5t76 -22.5h748v-57h-765z" />
    <glyph glyph-name="u" unicode="u" horiz-adv-x="1185" 
d="M948 57q53 0 75 22.5t22 75.5v448h65v-457q0 -75 -35 -110.5t-110 -35.5h-744q-75 0 -110.5 35.5t-35.5 110.5v457h65v-448q0 -53 22 -75.5t76 -22.5h710z" />
    <glyph glyph-name="v" unicode="v" horiz-adv-x="1181" 
d="M1110 603v-412q0 -99 -45.5 -145t-144.5 -46h-835v603h65v-546h761q71 0 102.5 30.5t31.5 103.5v412h65z" />
    <glyph glyph-name="w" unicode="w" horiz-adv-x="1529" 
d="M765 102q-8 -55 -41.5 -78.5t-101.5 -23.5h-401q-75 0 -110.5 35.5t-35.5 110.5v457h65v-448q0 -53 22 -75.5t76 -22.5h402q50 0 71 22t21 72v452h65v-452q0 -50 21.5 -72t71.5 -22h401q54 0 76 22.5t22 75.5v448h65v-457q0 -75 -35.5 -110.5t-110.5 -35.5h-401
q-68 0 -101.5 23.5t-40.5 78.5z" />
    <glyph glyph-name="x" unicode="x" horiz-adv-x="1185" 
d="M1057 397v206h64v-180q0 -57 -20 -86t-68 -36q48 -7 68 -36t20 -86v-179h-64v205q0 36 -16 52t-53 16h-791q-36 0 -52.5 -16.5t-16.5 -51.5v-205h-64v179q0 57 19.5 86t68.5 36q-48 7 -68 36t-20 86v180h64v-206q0 -35 16.5 -51t52.5 -16h791q36 0 52.5 16t16.5 51z" />
    <glyph glyph-name="y" unicode="y" horiz-adv-x="1197" 
d="M924 -167h-808v57h800q68 0 99.5 30t31.5 100v66q-12 -36 -40.5 -52t-81.5 -16h-704q-75 0 -110.5 35.5t-35.5 110.5v439h65v-431q0 -53 22 -75t76 -22h711q54 0 76 22t22 75v431h64v-583q0 -96 -45 -141.5t-142 -45.5z" />
    <glyph glyph-name="z" unicode="z" horiz-adv-x="1145" 
d="M229 273q-59 0 -85.5 -27t-26.5 -86v-103h974v-57h-1038v160q0 170 169 170h693q59 0 85.5 26.5t26.5 85.5v104h-953v57h1017v-161q0 -169 -169 -169h-693z" />
    <glyph glyph-name="braceleft" unicode="{" horiz-adv-x="344" 
d="M161 542v-124q0 -55 -17 -81t-61 -27q44 -1 61 -27t17 -81v-124q0 -57 22 -79.5t77 -22.5h40v-56h-56q-75 0 -110.5 35.5t-35.5 109.5v158q0 34 -9.5 46.5t-39.5 12.5h-19v56h19q30 0 39.5 12.5t9.5 46.5v158q0 74 35.5 109.5t110.5 35.5h56v-56h-40q-55 0 -77 -22.5
t-22 -79.5z" />
    <glyph glyph-name="bar" unicode="|" horiz-adv-x="279" 
d="M108 -167v907h63v-907h-63z" />
    <glyph glyph-name="braceright" unicode="}" horiz-adv-x="344" 
d="M183 418v124q0 57 -22 79.5t-77 22.5h-40v56h56q75 0 110.5 -35.5t35.5 -109.5v-158q0 -34 9.5 -46.5t39.5 -12.5h19v-56h-19q-30 0 -39.5 -12.5t-9.5 -46.5v-158q0 -74 -35.5 -109.5t-110.5 -35.5h-56v56h40q55 0 77 22.5t22 79.5v124q0 55 17 81t61 27q-44 1 -61 27
t-17 81z" />
    <glyph glyph-name="asciitilde" unicode="~" 
d="M71 295v65q102 66 253 66q104 0 324 -44.5t323 -44.5q155 0 258 71v-67q-104 -65 -253 -65q-104 0 -325 44.5t-324 44.5q-154 0 -256 -70z" />
    <glyph glyph-name="uni00A0" unicode="&#xa0;" horiz-adv-x="390" 
 />
    <glyph glyph-name="exclamdown" unicode="&#xa1;" horiz-adv-x="295" 
d="M98 565v65h99v-65h-99zM114 -70v233q0 134 12 293h43q12 -159 12 -293v-233h-67z" />
    <glyph glyph-name="cent" unicode="&#xa2;" 
d="M661 -40v90h-445q-75 0 -110 35.5t-35 110.5v308q0 75 35 110.5t110 35.5h445v90h58v-90h524v-57h-524v-486h524v-57h-524v-90h-58zM233 107h428v486h-428q-53 0 -75 -22.5t-22 -75.5v-290q0 -53 22 -75.5t75 -22.5z" />
    <glyph glyph-name="sterling" unicode="&#xa3;" 
d="M246 59h1005v-59h-1202v59h131v262h-131v58h131v173q0 75 36 111.5t111 36.5h864v-59h-848q-53 0 -75 -21.5t-22 -75.5v-165h945v-58h-945v-262z" />
    <glyph glyph-name="currency" unicode="&#xa4;" 
d="M102 505q0 75 35 110.5t110 35.5h374v89h59v-89h373q75 0 110 -35.5t35 -110.5v-126h77v-58h-77v-127q0 -75 -35 -110.5t-110 -35.5h-373v-88h-59v88h-374q-75 0 -110 35.5t-35 110.5v127h-76v58h76v126zM1035 593h-770q-53 0 -75.5 -22t-22.5 -76v-291q0 -53 22 -75.5
t76 -22.5h770q53 0 75.5 22.5t22.5 75.5v291q0 53 -22 75.5t-76 22.5z" />
    <glyph glyph-name="yen" unicode="&#xa5;" 
d="M1177 700h66v-167q0 -75 -36 -111.5t-112 -36.5h-412v-159h541v-58h-541v-168h-66v168h-541v58h541v159h-413q-76 0 -112 36.5t-36 111.5v167h66v-155q0 -55 22 -78.5t78 -23.5h855q55 0 77.5 23t22.5 79v155z" />
    <glyph glyph-name="brokenbar" unicode="&#xa6;" horiz-adv-x="279" 
d="M108 -167v394h63v-394h-63zM108 347v393h63v-393h-63z" />
    <glyph glyph-name="section" unicode="&#xa7;" horiz-adv-x="1294" 
d="M209 442h895q69 0 101 -32t32 -103v-38q0 -51 -22 -79.5t-74 -35.5q52 -7 74 -35.5t22 -79.5v-32q0 -73 -33 -106t-104 -33h-1021v57h1007q47 0 67 20t20 67v30q0 45 -18.5 64.5t-63.5 19.5h-896q-69 0 -100.5 32t-31.5 103v38q0 51 22 79.5t73 35.5q-51 7 -73 35t-22 80
v32q0 73 32.5 106t103.5 33h1021v-57h-1007q-47 0 -67 -20t-20 -67v-30q0 -45 19 -64.5t64 -19.5zM1085 385h-875q-46 0 -64.5 -19t-18.5 -64v-33q0 -47 20 -66.5t67 -19.5h875q46 0 64.5 19t18.5 64v33q0 47 -20 66.5t-67 19.5z" />
    <glyph glyph-name="dieresis" unicode="&#xa8;" horiz-adv-x="371" 
d="M101 736v-53h-95v53h95zM365 736v-53h-95v53h95z" />
    <glyph glyph-name="copyright" unicode="&#xa9;" horiz-adv-x="1399" 
d="M321 189q-46 0 -66.5 21t-20.5 66v147q0 45 20.5 66t66.5 21h828v-41h-831q-37 0 -37 -37v-165q0 -37 37 -37h831v-41h-828zM232 0q-83 0 -122 39.5t-39 120.5v380q0 81 39 120.5t122 39.5h935q161 0 161 -160v-380q0 -160 -161 -160h-935zM234 42h930q117 0 117 117v382
q0 117 -117 117h-930q-116 0 -116 -117v-382q0 -117 116 -117z" />
    <glyph glyph-name="ordfeminine" unicode="&#xaa;" horiz-adv-x="967" 
d="M849 460v122q0 35 -14.5 49.5t-48.5 14.5h-717v54h723q60 0 88.5 -28.5t28.5 -88.5v-300q0 -60 -28.5 -88.5t-88.5 -28.5h-630q-60 0 -88 28.5t-28 88.5v60q0 60 28 88.5t88 28.5h687zM107 342v-57q0 -36 14.5 -50.5t48.5 -14.5h616q34 0 48.5 14.5t14.5 49.5v122h-679
q-34 0 -48.5 -14.5t-14.5 -49.5zM481 84l63 -84h-127z" />
    <glyph glyph-name="guillemotleft" unicode="&#xab;" horiz-adv-x="529" 
d="M293 51h-71l-191 249l191 249h71l-193 -249zM499 51h-71l-191 249l191 249h71l-193 -249z" />
    <glyph glyph-name="logicalnot" unicode="&#xac;" 
d="M71 321v57h1158v-275h-57v218h-1101z" />
    <glyph glyph-name="uni00AD" unicode="&#xad;" horiz-adv-x="582" 
d="M537 356v-58h-491v58h491z" />
    <glyph glyph-name="registered" unicode="&#xae;" horiz-adv-x="1399" 
d="M232 0q-83 0 -122 39.5t-39 120.5v380q0 81 39 120.5t122 39.5h935q161 0 161 -160v-380q0 -160 -161 -160h-935zM234 42h930q117 0 117 117v382q0 117 -117 117h-930q-116 0 -116 -117v-382q0 -117 116 -117zM1159 413q0 -60 -55 -64q55 -5 55 -67v-93h-46v110
q0 30 -28 30h-795v-140h-46v321h849q35 0 50.5 -16t15.5 -51v-30zM1113 445q0 24 -25 24h-798v-99h798q25 0 25 24v51z" />
    <glyph glyph-name="macron" unicode="&#xaf;" horiz-adv-x="371" 
d="M352 692h-333v39h333v-39z" />
    <glyph glyph-name="degree" unicode="&#xb0;" horiz-adv-x="660" 
d="M43 569q0 131 139 131h295q140 0 140 -131v-124q0 -131 -140 -131h-295q-139 0 -139 131v124zM197 647q-53 0 -73 -20t-20 -72v-96q0 -52 20 -72t73 -20h266q53 0 73 20t20 72v96q0 52 -20 72t-73 20h-266z" />
    <glyph glyph-name="plusminus" unicode="&#xb1;" 
d="M1229 0h-1158v57h1158v-57zM71 321v57h550v218h57v-218h551v-57h-551v-218h-57v218h-550z" />
    <glyph glyph-name="twosuperior" unicode="&#xb2;" horiz-adv-x="822" 
d="M716 529v49q0 38 -15 53.5t-52 15.5h-577v53h588q60 0 88 -28.5t28 -88.5v-60q0 -60 -28 -88.5t-88 -28.5h-451q-56 0 -77 -20.5t-21 -76.5v-89h665v-54h-726v152q0 142 142 142h457q38 0 52.5 15t14.5 54z" />
    <glyph glyph-name="threesuperior" unicode="&#xb3;" horiz-adv-x="822" 
d="M772 584v-46q0 -48 -17.5 -73.5t-68.5 -31.5q51 -6 68.5 -31.5t17.5 -73.5v-46q0 -59 -28 -87.5t-87 -28.5h-614v54h602q38 0 52.5 15t14.5 53v50q0 36 -15.5 52t-50.5 16h-522v54h522q35 0 50.5 16t15.5 52v50q0 38 -14.5 53t-52.5 15h-602v54h614q59 0 87 -28.5
t28 -87.5z" />
    <glyph glyph-name="acute" unicode="&#xb4;" horiz-adv-x="371" 
d="M322 765l-180 -104h-66l150 104h96z" />
    <glyph glyph-name="uni00B5" unicode="&#xb5;" horiz-adv-x="1197" 
d="M248 57h711q53 0 75 22.5t22 75.5v448h65v-457q0 -75 -35 -110.5t-110 -35.5h-705q-99 0 -121 69v-236h-65v770h65v-448q0 -53 22 -75.5t76 -22.5z" />
    <glyph glyph-name="paragraph" unicode="&#xb6;" horiz-adv-x="1217" 
d="M1127 700v-832h-63v775h-175v-775h-62v407h-625q-85 0 -125 40.5t-40 124.5v95q0 84 40 124.5t125 40.5h925z" />
    <glyph glyph-name="periodcentered" unicode="&#xb7;" horiz-adv-x="289" 
d="M193 384v-68h-97v68h97z" />
    <glyph glyph-name="cedilla" unicode="&#xb8;" horiz-adv-x="383" 
d="M181 -45h100q40 0 59.5 -10.5t19.5 -39.5q0 -67 -114 -67h-223v45h221q36 0 52 6.5t16 23.5q0 14 -8.5 19.5t-32.5 5.5h-116l22 62h18z" />
    <glyph glyph-name="onesuperior" unicode="&#xb9;" horiz-adv-x="822" 
d="M123 166v54h328v426h-328v54h388v-480h249v-54h-637z" />
    <glyph glyph-name="ordmasculine" unicode="&#xba;" horiz-adv-x="980" 
d="M58 283v300q0 60 28.5 88.5t88.5 28.5h630q60 0 88 -28.5t28 -88.5v-300q0 -60 -28 -88.5t-88 -28.5h-630q-60 0 -88.5 28.5t-28.5 88.5zM798 220q34 0 48.5 14.5t14.5 49.5v298q0 35 -14.5 49.5t-48.5 14.5h-616q-34 0 -48.5 -14.5t-14.5 -49.5v-298q0 -35 14.5 -49.5
t48.5 -14.5h616zM493 84l63 -84h-127z" />
    <glyph glyph-name="guillemotright" unicode="&#xbb;" horiz-adv-x="529" 
d="M307 51h-71l193 249l-193 249h71l191 -249zM101 51h-71l193 249l-193 249h71l191 -249z" />
    <glyph glyph-name="onequarter" unicode="&#xbc;" horiz-adv-x="1863" 
d="M723 0l357 700h59l-356 -700h-60zM123 166v54h328v426h-328v54h388v-480h249v-54h-637zM1722 294v240h60v-534h-60v240h-518q-60 0 -88 28.5t-28 88.5v177h60v-173q0 -36 16 -51.5t50 -15.5h508z" />
    <glyph glyph-name="onehalf" unicode="&#xbd;" horiz-adv-x="1863" 
d="M723 0l357 700h59l-356 -700h-60zM123 166v54h328v426h-328v54h388v-480h249v-54h-637zM1757 363v49q0 38 -15 53.5t-52 15.5h-577v53h588q60 0 88 -28.5t28 -88.5v-60q0 -60 -28 -88.5t-88 -28.5h-451q-56 0 -77 -20.5t-21 -76.5v-89h665v-54h-726v152q0 142 142 142
h457q38 0 52.5 15t14.5 54z" />
    <glyph glyph-name="threequarters" unicode="&#xbe;" horiz-adv-x="1863" 
d="M723 0l357 700h59l-356 -700h-60zM1722 294v240h60v-534h-60v240h-518q-60 0 -88 28.5t-28 88.5v177h60v-173q0 -36 16 -51.5t50 -15.5h508zM772 584v-46q0 -48 -17.5 -73.5t-68.5 -31.5q51 -6 68.5 -31.5t17.5 -73.5v-46q0 -59 -28 -87.5t-87 -28.5h-614v54h602
q38 0 52.5 15t14.5 53v50q0 36 -15.5 52t-50.5 16h-522v54h522q35 0 50.5 16t15.5 52v50q0 38 -14.5 53t-52.5 15h-602v54h614q59 0 87 -28.5t28 -87.5z" />
    <glyph glyph-name="questiondown" unicode="&#xbf;" horiz-adv-x="1238" 
d="M104 153v-66q0 -52 22 -75t72 -23h1018v-59h-1033q-75 0 -110.5 35t-35.5 110v89q0 74 35.5 109.5t110.5 35.5h421q42 0 60 17.5t18 60.5v71h66v-84q0 -123 -123 -123h-427q-50 0 -72 -23t-22 -75zM665 565v65h99v-65h-99z" />
    <glyph glyph-name="Agrave" unicode="&#xc0;" horiz-adv-x="1337" 
d="M1256 0h-67v321h-1042v-321h-66v552q0 148 149 148h877q149 0 149 -148v-552zM1090 641h-844q-54 0 -76.5 -23t-22.5 -79v-160h1042v160q0 56 -22 79t-77 23zM677 752l-176 104h90l152 -104h-66z" />
    <glyph glyph-name="Aacute" unicode="&#xc1;" horiz-adv-x="1337" 
d="M1256 0h-67v321h-1042v-321h-66v552q0 148 149 148h877q149 0 149 -148v-552zM1090 641h-844q-54 0 -76.5 -23t-22.5 -79v-160h1042v160q0 56 -22 79t-77 23zM838 856l-180 -104h-66l150 104h96z" />
    <glyph glyph-name="Acircumflex" unicode="&#xc2;" horiz-adv-x="1337" 
d="M1256 0h-67v321h-1042v-321h-66v552q0 148 149 148h877q149 0 149 -148v-552zM1090 641h-844q-54 0 -76.5 -23t-22.5 -79v-160h1042v160q0 56 -22 79t-77 23zM667 824l-135 -72h-61l158 104h77l158 -104h-61z" />
    <glyph glyph-name="Atilde" unicode="&#xc3;" horiz-adv-x="1337" 
d="M1256 0h-67v321h-1042v-321h-66v552q0 148 149 148h877q149 0 149 -148v-552zM1090 641h-844q-54 0 -76.5 -23t-22.5 -79v-160h1042v160q0 56 -22 79t-77 23zM501 757v45q45 44 91 44q28 0 78.5 -24.5t77.5 -24.5q43 0 85 45v-45q-45 -44 -91 -44q-29 0 -79.5 24
t-77.5 24q-43 0 -84 -44z" />
    <glyph glyph-name="Adieresis" unicode="&#xc4;" horiz-adv-x="1337" 
d="M1256 0h-67v321h-1042v-321h-66v552q0 148 149 148h877q149 0 149 -148v-552zM1090 641h-844q-54 0 -76.5 -23t-22.5 -79v-160h1042v160q0 56 -22 79t-77 23zM583 827v-53h-95v53h95zM847 827v-53h-95v53h95z" />
    <glyph glyph-name="Aring" unicode="&#xc5;" horiz-adv-x="1337" 
d="M1256 0h-67v321h-1042v-321h-66v552q0 148 149 148h877q149 0 149 -148v-552zM1090 641h-844q-54 0 -76.5 -23t-22.5 -79v-160h1042v160q0 56 -22 79t-77 23zM593 809q0 -30 36 -30h79q36 0 36 30q0 29 -36 29h-79q-36 0 -36 -29zM705 751h-73q-71 0 -71 58q0 57 71 57
h73q70 0 70 -57q0 -58 -70 -58z" />
    <glyph glyph-name="AE" unicode="&#xc6;" horiz-adv-x="2026" 
d="M1005 0v321h-858v-321h-66v552q0 148 149 148h1745v-59h-906v-262h806v-58h-806v-262h906v-59h-970zM246 641q-54 0 -76.5 -23t-22.5 -79v-160h858v262h-759z" />
    <glyph glyph-name="Ccedilla" unicode="&#xc7;" horiz-adv-x="1234" 
d="M654 0l-14 -45h100q40 0 59.5 -10.5t19.5 -39.5q0 -67 -114 -67h-223v45h221q36 0 52 6.5t16 23.5q0 14 -8.5 19.5t-32.5 5.5h-116l22 62h-417q-76 0 -112 36.5t-36 111.5v404q0 75 36 111.5t112 36.5h964v-59h-947q-55 0 -77 -23t-22 -79v-378q0 -56 22 -79t77 -23h947
v-59h-529z" />
    <glyph glyph-name="Egrave" unicode="&#xc8;" horiz-adv-x="1293" 
d="M91 0v700h1151v-59h-1085v-262h985v-58h-985v-262h1085v-59h-1151zM678 752l-176 104h90l152 -104h-66z" />
    <glyph glyph-name="Eacute" unicode="&#xc9;" horiz-adv-x="1293" 
d="M91 0v700h1151v-59h-1085v-262h985v-58h-985v-262h1085v-59h-1151zM838 856l-180 -104h-66l150 104h96z" />
    <glyph glyph-name="Ecircumflex" unicode="&#xca;" horiz-adv-x="1293" 
d="M91 0v700h1151v-59h-1085v-262h985v-58h-985v-262h1085v-59h-1151zM668 824l-135 -72h-61l158 104h77l158 -104h-61z" />
    <glyph glyph-name="Edieresis" unicode="&#xcb;" horiz-adv-x="1293" 
d="M91 0v700h1151v-59h-1085v-262h985v-58h-985v-262h1085v-59h-1151zM584 827v-53h-95v53h95zM848 827v-53h-95v53h95z" />
    <glyph glyph-name="Igrave" unicode="&#xcc;" horiz-adv-x="248" 
d="M91 0v700h66v-700h-66zM134 752l-176 104h90l152 -104h-66z" />
    <glyph glyph-name="Iacute" unicode="&#xcd;" horiz-adv-x="248" 
d="M91 0v700h66v-700h-66zM292 856l-180 -104h-66l150 104h96z" />
    <glyph glyph-name="Icircumflex" unicode="&#xce;" horiz-adv-x="248" 
d="M91 0v700h66v-700h-66zM123 824l-135 -72h-61l158 104h77l158 -104h-61z" />
    <glyph glyph-name="Idieresis" unicode="&#xcf;" horiz-adv-x="248" 
d="M273 827v-53h-95v53h95zM70 827v-53h-95v53h95zM91 0v700h66v-700h-66z" />
    <glyph glyph-name="Eth" unicode="&#xd0;" horiz-adv-x="1331" 
d="M1059 700q101 0 153.5 -52t52.5 -154v-288q0 -102 -52.5 -154t-153.5 -52h-968v321h-74v58h74v321h968zM1047 59q77 0 114.5 36.5t37.5 115.5v278q0 79 -37.5 115.5t-114.5 36.5h-890v-262h198v-58h-198v-262h890z" />
    <glyph glyph-name="Ntilde" unicode="&#xd1;" horiz-adv-x="1337" 
d="M246 641q-54 0 -76.5 -23t-22.5 -79v-539h-66v552q0 148 149 148h877q149 0 149 -148v-552h-67v539q0 56 -22.5 79t-76.5 23h-844zM501 757v45q45 44 91 44q28 0 78.5 -24.5t77.5 -24.5q43 0 85 45v-45q-45 -44 -91 -44q-29 0 -79.5 24t-77.5 24q-43 0 -84 -44z" />
    <glyph glyph-name="Ograve" unicode="&#xd2;" horiz-adv-x="1320" 
d="M220 0q-149 0 -149 148v404q0 148 149 148h881q76 0 112 -36.5t36 -111.5v-404q0 -75 -36 -111.5t-112 -36.5h-881zM1183 161v378q0 56 -22 79t-77 23h-848q-54 0 -76.5 -23t-22.5 -79v-378q0 -57 22 -79.5t77 -22.5h848q55 0 77 23t22 79zM669 752l-176 104h90l152 -104
h-66z" />
    <glyph glyph-name="Oacute" unicode="&#xd3;" horiz-adv-x="1320" 
d="M220 0q-149 0 -149 148v404q0 148 149 148h881q76 0 112 -36.5t36 -111.5v-404q0 -75 -36 -111.5t-112 -36.5h-881zM1183 161v378q0 56 -22 79t-77 23h-848q-54 0 -76.5 -23t-22.5 -79v-378q0 -57 22 -79.5t77 -22.5h848q55 0 77 23t22 79zM829 856l-180 -104h-66
l150 104h96z" />
    <glyph glyph-name="Ocircumflex" unicode="&#xd4;" horiz-adv-x="1320" 
d="M220 0q-149 0 -149 148v404q0 148 149 148h881q76 0 112 -36.5t36 -111.5v-404q0 -75 -36 -111.5t-112 -36.5h-881zM1183 161v378q0 56 -22 79t-77 23h-848q-54 0 -76.5 -23t-22.5 -79v-378q0 -57 22 -79.5t77 -22.5h848q55 0 77 23t22 79zM659 824l-135 -72h-61l158 104
h77l158 -104h-61z" />
    <glyph glyph-name="Otilde" unicode="&#xd5;" horiz-adv-x="1320" 
d="M220 0q-149 0 -149 148v404q0 148 149 148h881q76 0 112 -36.5t36 -111.5v-404q0 -75 -36 -111.5t-112 -36.5h-881zM1183 161v378q0 56 -22 79t-77 23h-848q-54 0 -76.5 -23t-22.5 -79v-378q0 -57 22 -79.5t77 -22.5h848q55 0 77 23t22 79zM493 757v45q45 44 91 44
q28 0 78.5 -24.5t77.5 -24.5q43 0 85 45v-45q-45 -44 -91 -44q-29 0 -79.5 24t-77.5 24q-43 0 -84 -44z" />
    <glyph glyph-name="Odieresis" unicode="&#xd6;" horiz-adv-x="1320" 
d="M220 0q-149 0 -149 148v404q0 148 149 148h881q76 0 112 -36.5t36 -111.5v-404q0 -75 -36 -111.5t-112 -36.5h-881zM1183 161v378q0 56 -22 79t-77 23h-848q-54 0 -76.5 -23t-22.5 -79v-378q0 -57 22 -79.5t77 -22.5h848q55 0 77 23t22 79zM575 827v-53h-95v53h95z
M839 827v-53h-95v53h95z" />
    <glyph glyph-name="multiply" unicode="&#xd7;" 
d="M716 321l180 -218h-68l-178 218l-179 -218h-68l179 218h-511v57h511l-179 218h68l179 -218l178 218h68l-180 -218h513v-57h-513z" />
    <glyph glyph-name="Oslash" unicode="&#xd8;" horiz-adv-x="1320" 
d="M220 0q-149 0 -149 148v404q0 148 149 148h881q76 0 112 -36.5t36 -111.5v-404q0 -75 -36 -111.5t-112 -36.5h-881zM186 65l861 576h-811q-54 0 -76.5 -23t-22.5 -79v-378q0 -79 49 -96zM1183 161v378q0 78 -49 95l-861 -575h811q55 0 77 23t22 79z" />
    <glyph glyph-name="Ugrave" unicode="&#xd9;" horiz-adv-x="1337" 
d="M230 0q-149 0 -149 148v552h66v-539q0 -56 22.5 -79t76.5 -23h844q54 0 76.5 23t22.5 79v539h67v-552q0 -148 -149 -148h-877zM677 752l-176 104h90l152 -104h-66z" />
    <glyph glyph-name="Uacute" unicode="&#xda;" horiz-adv-x="1337" 
d="M230 0q-149 0 -149 148v552h66v-539q0 -56 22.5 -79t76.5 -23h844q54 0 76.5 23t22.5 79v539h67v-552q0 -148 -149 -148h-877zM835 856l-180 -104h-66l150 104h96z" />
    <glyph glyph-name="Ucircumflex" unicode="&#xdb;" horiz-adv-x="1337" 
d="M230 0q-149 0 -149 148v552h66v-539q0 -56 22.5 -79t76.5 -23h844q54 0 76.5 23t22.5 79v539h67v-552q0 -148 -149 -148h-877zM667 824l-135 -72h-61l158 104h77l158 -104h-61z" />
    <glyph glyph-name="Udieresis" unicode="&#xdc;" horiz-adv-x="1337" 
d="M230 0q-149 0 -149 148v552h66v-539q0 -56 22.5 -79t76.5 -23h844q54 0 76.5 23t22.5 79v539h67v-552q0 -148 -149 -148h-877zM583 827v-53h-95v53h95zM847 827v-53h-95v53h95z" />
    <glyph glyph-name="Yacute" unicode="&#xdd;" horiz-adv-x="1296" 
d="M1178 700h66v-231q0 -75 -36 -111.5t-112 -36.5h-415v-321h-66v321h-415q-76 0 -112 36.5t-36 111.5v231h66v-218q0 -56 22 -79.5t77 -23.5h862q55 0 77 23t22 80v218zM816 856l-180 -104h-66l150 104h96z" />
    <glyph glyph-name="Thorn" unicode="&#xde;" horiz-adv-x="1299" 
d="M91 0v700h66v-97h959q76 0 111 -35.5t35 -109.5v-89q0 -75 -35 -110t-111 -35h-959v-224h-66zM1196 446q0 52 -22 75t-72 23h-945v-262h945q50 0 72 23t22 75v66z" />
    <glyph glyph-name="germandbls" unicode="&#xdf;" horiz-adv-x="1202" 
d="M1004 273h-689v57h689q45 0 62 17.5t17 62.5v49q0 47 -20 67t-67 20h-740q-61 0 -88.5 -27t-27.5 -89v-430h-65v435q0 86 41.5 127t127.5 41h768q71 0 103.5 -32.5t32.5 -105.5v-52q0 -52 -21.5 -79t-71.5 -33q50 -6 71.5 -33t21.5 -79v-51q0 -72 -32.5 -105t-103.5 -33
h-697v57h681q47 0 67 20t20 67v48q0 45 -17 63t-62 18z" />
    <glyph glyph-name="agrave" unicode="&#xe0;" horiz-adv-x="1170" 
d="M1040 330v118q0 53 -22 75.5t-76 22.5h-862v57h879q75 0 110.5 -35.5t35.5 -110.5v-311q0 -75 -35.5 -110.5t-110.5 -35.5h-780q-66 0 -97.5 32t-31.5 100v65q0 69 31.5 101t97.5 32h861zM1040 273h-846q-43 0 -61 -18.5t-18 -61.5v-56q0 -43 18 -61.5t61 -18.5h748
q54 0 76 22.5t22 75.5v118zM588 661l-176 104h90l152 -104h-66z" />
    <glyph glyph-name="aacute" unicode="&#xe1;" horiz-adv-x="1170" 
d="M1040 330v118q0 53 -22 75.5t-76 22.5h-862v57h879q75 0 110.5 -35.5t35.5 -110.5v-311q0 -75 -35.5 -110.5t-110.5 -35.5h-780q-66 0 -97.5 32t-31.5 100v65q0 69 31.5 101t97.5 32h861zM1040 273h-846q-43 0 -61 -18.5t-18 -61.5v-56q0 -43 18 -61.5t61 -18.5h748
q54 0 76 22.5t22 75.5v118zM742 765l-180 -104h-66l150 104h96z" />
    <glyph glyph-name="acircumflex" unicode="&#xe2;" horiz-adv-x="1170" 
d="M1040 330v118q0 53 -22 75.5t-76 22.5h-862v57h879q75 0 110.5 -35.5t35.5 -110.5v-311q0 -75 -35.5 -110.5t-110.5 -35.5h-780q-66 0 -97.5 32t-31.5 100v65q0 69 31.5 101t97.5 32h861zM1040 273h-846q-43 0 -61 -18.5t-18 -61.5v-56q0 -43 18 -61.5t61 -18.5h748
q54 0 76 22.5t22 75.5v118zM578 733l-135 -72h-61l158 104h77l158 -104h-61z" />
    <glyph glyph-name="atilde" unicode="&#xe3;" horiz-adv-x="1170" 
d="M1040 330v118q0 53 -22 75.5t-76 22.5h-862v57h879q75 0 110.5 -35.5t35.5 -110.5v-311q0 -75 -35.5 -110.5t-110.5 -35.5h-780q-66 0 -97.5 32t-31.5 100v65q0 69 31.5 101t97.5 32h861zM1040 273h-846q-43 0 -61 -18.5t-18 -61.5v-56q0 -43 18 -61.5t61 -18.5h748
q54 0 76 22.5t22 75.5v118zM412 666v45q45 44 91 44q28 0 78.5 -24.5t77.5 -24.5q43 0 85 45v-45q-45 -44 -91 -44q-29 0 -79.5 24t-77.5 24q-43 0 -84 -44z" />
    <glyph glyph-name="adieresis" unicode="&#xe4;" horiz-adv-x="1170" 
d="M1040 330v118q0 53 -22 75.5t-76 22.5h-862v57h879q75 0 110.5 -35.5t35.5 -110.5v-311q0 -75 -35.5 -110.5t-110.5 -35.5h-780q-66 0 -97.5 32t-31.5 100v65q0 69 31.5 101t97.5 32h861zM1040 273h-846q-43 0 -61 -18.5t-18 -61.5v-56q0 -43 18 -61.5t61 -18.5h748
q54 0 76 22.5t22 75.5v118zM494 736v-53h-95v53h95zM758 736v-53h-95v53h95z" />
    <glyph glyph-name="aring" unicode="&#xe5;" horiz-adv-x="1170" 
d="M1040 330v118q0 53 -22 75.5t-76 22.5h-862v57h879q75 0 110.5 -35.5t35.5 -110.5v-311q0 -75 -35.5 -110.5t-110.5 -35.5h-780q-66 0 -97.5 32t-31.5 100v65q0 69 31.5 101t97.5 32h861zM1040 273h-846q-43 0 -61 -18.5t-18 -61.5v-56q0 -43 18 -61.5t61 -18.5h748
q54 0 76 22.5t22 75.5v118zM503 718q0 -30 36 -30h79q36 0 36 30q0 29 -36 29h-79q-36 0 -36 -29zM615 660h-73q-71 0 -71 58q0 57 71 57h73q70 0 70 -57q0 -58 -70 -58z" />
    <glyph glyph-name="ae" unicode="&#xe6;" horiz-adv-x="1741" 
d="M1626 409v57q0 43 -18 61.5t-61 18.5h-551q-50 0 -71.5 -22t-21.5 -72v-122h644q43 0 61 18t18 61zM115 193v-56q0 -43 18 -61.5t61 -18.5h551q50 0 71.5 22t21.5 72v122h-644q-43 0 -61 -18.5t-18 -61.5zM728 0h-549q-66 0 -97.5 32t-31.5 100v65q0 69 31.5 101t97.5 32
h659v122q0 50 -21.5 72t-71.5 22h-665v57h648q68 0 101.5 -23.5t41.5 -78.5q7 55 40.5 78.5t101.5 23.5h549q66 0 97.5 -32t31.5 -100v-66q0 -69 -31.5 -100.5t-97.5 -31.5h-659v-122q0 -51 21 -72.5t72 -21.5h665v-57h-648q-68 0 -101.5 23.5t-40.5 78.5
q-8 -55 -41.5 -78.5t-101.5 -23.5z" />
    <glyph glyph-name="ccedilla" unicode="&#xe7;" horiz-adv-x="1110" 
d="M585 0l-14 -45h100q40 0 59.5 -10.5t19.5 -39.5q0 -67 -114 -67h-223v45h221q36 0 52 6.5t16 23.5q0 14 -8.5 19.5t-32.5 5.5h-116l22 62h-356q-75 0 -110 35.5t-35 110.5v311q0 75 35 110.5t110 35.5h847v-57h-830q-53 0 -75.5 -22.5t-22.5 -75.5v-293q0 -53 22.5 -75.5
t75.5 -22.5h830v-57h-473z" />
    <glyph glyph-name="egrave" unicode="&#xe8;" horiz-adv-x="1170" 
d="M1120 405q0 -69 -31 -100.5t-98 -31.5h-861v-118q0 -53 23 -75.5t75 -22.5h862v-57h-879q-78 0 -111.5 38.5t-33.5 118.5v300q0 75 35 110.5t110 35.5h780q67 0 98 -32t31 -100v-66zM976 546h-748q-57 0 -77.5 -25t-20.5 -87v-104h846q43 0 61.5 18t18.5 61v54
q0 45 -17.5 64t-62.5 19zM613 661l-176 104h90l152 -104h-66z" />
    <glyph glyph-name="eacute" unicode="&#xe9;" horiz-adv-x="1170" 
d="M1120 405q0 -69 -31 -100.5t-98 -31.5h-861v-118q0 -53 23 -75.5t75 -22.5h862v-57h-879q-78 0 -111.5 38.5t-33.5 118.5v300q0 75 35 110.5t110 35.5h780q67 0 98 -32t31 -100v-66zM976 546h-748q-57 0 -77.5 -25t-20.5 -87v-104h846q43 0 61.5 18t18.5 61v54
q0 45 -17.5 64t-62.5 19zM773 765l-180 -104h-66l150 104h96z" />
    <glyph glyph-name="ecircumflex" unicode="&#xea;" horiz-adv-x="1170" 
d="M1120 405q0 -69 -31 -100.5t-98 -31.5h-861v-118q0 -53 23 -75.5t75 -22.5h862v-57h-879q-78 0 -111.5 38.5t-33.5 118.5v300q0 75 35 110.5t110 35.5h780q67 0 98 -32t31 -100v-66zM976 546h-748q-57 0 -77.5 -25t-20.5 -87v-104h846q43 0 61.5 18t18.5 61v54
q0 45 -17.5 64t-62.5 19zM603 733l-135 -72h-61l158 104h77l158 -104h-61z" />
    <glyph glyph-name="edieresis" unicode="&#xeb;" horiz-adv-x="1170" 
d="M1120 405q0 -69 -31 -100.5t-98 -31.5h-861v-118q0 -53 23 -75.5t75 -22.5h862v-57h-879q-78 0 -111.5 38.5t-33.5 118.5v300q0 75 35 110.5t110 35.5h780q67 0 98 -32t31 -100v-66zM976 546h-748q-57 0 -77.5 -25t-20.5 -87v-104h846q43 0 61.5 18t18.5 61v54
q0 45 -17.5 64t-62.5 19zM519 736v-53h-95v53h95zM783 736v-53h-95v53h95z" />
    <glyph glyph-name="igrave" unicode="&#xec;" horiz-adv-x="331" 
d="M149 661l-176 104h90l152 -104h-66zM232 57h74v-57h-90q-74 0 -106 32t-32 106v465h65v-456q0 -52 18.5 -71t70.5 -19z" />
    <glyph glyph-name="iacute" unicode="&#xed;" horiz-adv-x="331" 
d="M285 765l-180 -104h-66l150 104h96zM232 57h74v-57h-90q-74 0 -106 32t-32 106v465h65v-456q0 -52 18.5 -71t70.5 -19z" />
    <glyph glyph-name="icircumflex" unicode="&#xee;" horiz-adv-x="331" 
d="M232 57h74v-57h-90q-74 0 -106 32t-32 106v465h65v-456q0 -52 18.5 -71t70.5 -19zM110 733l-135 -72h-61l158 104h77l158 -104h-61z" />
    <glyph glyph-name="idieresis" unicode="&#xef;" horiz-adv-x="331" 
d="M266 736v-53h-94v53h94zM49 736v-53h-95v53h95zM232 57h74v-57h-90q-74 0 -106 32t-32 106v465h65v-456q0 -52 18.5 -71t70.5 -19z" />
    <glyph glyph-name="eth" unicode="&#xf0;" horiz-adv-x="1180" 
d="M211 585h707q53 0 81.5 -16t40.5 -52v66q0 70 -31 100t-100 30h-314v-80h-38v80h-451v57h451v50h38v-50h322q97 0 142 -45.5t45 -141.5v-437q0 -75 -35 -110.5t-110 -35.5h-748q-75 0 -110 35.5t-35 110.5v293q0 75 35 110.5t110 35.5zM942 528h-714q-53 0 -75.5 -22
t-22.5 -75v-276q0 -53 22.5 -75.5t75.5 -22.5h714q53 0 75.5 22.5t22.5 75.5v276q0 53 -22.5 75t-75.5 22z" />
    <glyph glyph-name="ntilde" unicode="&#xf1;" horiz-adv-x="1185" 
d="M75 0v457q0 75 35.5 110.5t110.5 35.5h744q75 0 110 -35.5t35 -110.5v-457h-65v448q0 53 -22 75.5t-75 22.5h-710q-54 0 -76 -22.5t-22 -75.5v-448h-65zM426 666v45q45 44 91 44q28 0 78.5 -24.5t77.5 -24.5q43 0 85 45v-45q-45 -44 -91 -44q-29 0 -79.5 24t-77.5 24
q-43 0 -84 -44z" />
    <glyph glyph-name="ograve" unicode="&#xf2;" horiz-adv-x="1168" 
d="M957 603q75 0 110.5 -35.5t35.5 -110.5v-311q0 -75 -35.5 -110.5t-110.5 -35.5h-746q-75 0 -110 35.5t-35 110.5v311q0 75 35 110.5t110 35.5h746zM940 57q54 0 76 22.5t22 75.5v293q0 53 -22 75.5t-76 22.5h-712q-54 0 -76 -22.5t-22 -75.5v-293q0 -53 22 -75.5
t76 -22.5h712zM593 661l-176 104h90l152 -104h-66z" />
    <glyph glyph-name="oacute" unicode="&#xf3;" horiz-adv-x="1168" 
d="M957 603q75 0 110.5 -35.5t35.5 -110.5v-311q0 -75 -35.5 -110.5t-110.5 -35.5h-746q-75 0 -110 35.5t-35 110.5v311q0 75 35 110.5t110 35.5h746zM940 57q54 0 76 22.5t22 75.5v293q0 53 -22 75.5t-76 22.5h-712q-54 0 -76 -22.5t-22 -75.5v-293q0 -53 22 -75.5
t76 -22.5h712zM754 765l-180 -104h-66l150 104h96z" />
    <glyph glyph-name="ocircumflex" unicode="&#xf4;" horiz-adv-x="1168" 
d="M957 603q75 0 110.5 -35.5t35.5 -110.5v-311q0 -75 -35.5 -110.5t-110.5 -35.5h-746q-75 0 -110 35.5t-35 110.5v311q0 75 35 110.5t110 35.5h746zM940 57q54 0 76 22.5t22 75.5v293q0 53 -22 75.5t-76 22.5h-712q-54 0 -76 -22.5t-22 -75.5v-293q0 -53 22 -75.5
t76 -22.5h712zM584 733l-135 -72h-61l158 104h77l158 -104h-61z" />
    <glyph glyph-name="otilde" unicode="&#xf5;" horiz-adv-x="1168" 
d="M957 603q75 0 110.5 -35.5t35.5 -110.5v-311q0 -75 -35.5 -110.5t-110.5 -35.5h-746q-75 0 -110 35.5t-35 110.5v311q0 75 35 110.5t110 35.5h746zM940 57q54 0 76 22.5t22 75.5v293q0 53 -22 75.5t-76 22.5h-712q-54 0 -76 -22.5t-22 -75.5v-293q0 -53 22 -75.5
t76 -22.5h712zM418 666v45q45 44 91 44q28 0 78.5 -24.5t77.5 -24.5q43 0 85 45v-45q-45 -44 -91 -44q-29 0 -79.5 24t-77.5 24q-43 0 -84 -44z" />
    <glyph glyph-name="odieresis" unicode="&#xf6;" horiz-adv-x="1168" 
d="M957 603q75 0 110.5 -35.5t35.5 -110.5v-311q0 -75 -35.5 -110.5t-110.5 -35.5h-746q-75 0 -110 35.5t-35 110.5v311q0 75 35 110.5t110 35.5h746zM940 57q54 0 76 22.5t22 75.5v293q0 53 -22 75.5t-76 22.5h-712q-54 0 -76 -22.5t-22 -75.5v-293q0 -53 22 -75.5
t76 -22.5h712zM500 736v-53h-95v53h95zM764 736v-53h-95v53h95z" />
    <glyph glyph-name="divide" unicode="&#xf7;" 
d="M697 148v-68h-93v68h93zM697 620v-68h-93v68h93zM1229 321h-1158v57h1158v-57z" />
    <glyph glyph-name="oslash" unicode="&#xf8;" horiz-adv-x="1168" 
d="M957 603q75 0 110.5 -35.5t35.5 -110.5v-311q0 -75 -35.5 -110.5t-110.5 -35.5h-746q-75 0 -110 35.5t-35 110.5v311q0 75 35 110.5t110 35.5h746zM940 57q54 0 76 22.5t22 75.5v293q0 41 -13 63t-42 30l-718 -484h675zM179 63l715 483h-666q-54 0 -76 -22.5t-22 -75.5
v-293q0 -75 49 -92z" />
    <glyph glyph-name="ugrave" unicode="&#xf9;" horiz-adv-x="1185" 
d="M948 57q53 0 75 22.5t22 75.5v448h65v-457q0 -75 -35 -110.5t-110 -35.5h-744q-75 0 -110.5 35.5t-35.5 110.5v457h65v-448q0 -53 22 -75.5t76 -22.5h710zM604 661l-176 104h90l152 -104h-66z" />
    <glyph glyph-name="uacute" unicode="&#xfa;" horiz-adv-x="1185" 
d="M948 57q53 0 75 22.5t22 75.5v448h65v-457q0 -75 -35 -110.5t-110 -35.5h-744q-75 0 -110.5 35.5t-35.5 110.5v457h65v-448q0 -53 22 -75.5t76 -22.5h710zM762 765l-180 -104h-66l150 104h96z" />
    <glyph glyph-name="ucircumflex" unicode="&#xfb;" horiz-adv-x="1185" 
d="M948 57q53 0 75 22.5t22 75.5v448h65v-457q0 -75 -35 -110.5t-110 -35.5h-744q-75 0 -110.5 35.5t-35.5 110.5v457h65v-448q0 -53 22 -75.5t76 -22.5h710zM592 733l-135 -72h-61l158 104h77l158 -104h-61z" />
    <glyph glyph-name="udieresis" unicode="&#xfc;" horiz-adv-x="1185" 
d="M948 57q53 0 75 22.5t22 75.5v448h65v-457q0 -75 -35 -110.5t-110 -35.5h-744q-75 0 -110.5 35.5t-35.5 110.5v457h65v-448q0 -53 22 -75.5t76 -22.5h710zM508 736v-53h-95v53h95zM772 736v-53h-95v53h95z" />
    <glyph glyph-name="yacute" unicode="&#xfd;" horiz-adv-x="1197" 
d="M924 -167h-808v57h800q68 0 99.5 30t31.5 100v66q-12 -36 -40.5 -52t-81.5 -16h-704q-75 0 -110.5 35.5t-35.5 110.5v439h65v-431q0 -53 22 -75t76 -22h711q54 0 76 22t22 75v431h64v-583q0 -96 -45 -141.5t-142 -45.5zM768 765l-180 -104h-66l150 104h96z" />
    <glyph glyph-name="thorn" unicode="&#xfe;" horiz-adv-x="1190" 
d="M150 770v-167h828q76 0 111 -35.5t35 -110.5v-311q0 -75 -35 -110.5t-111 -35.5h-707q-99 0 -121 69v-236h-65v937h65zM150 546v-391q0 -53 22 -75.5t76 -22.5h714q53 0 75 22.5t22 75.5v293q0 53 -22 75.5t-75 22.5h-812z" />
    <glyph glyph-name="ydieresis" unicode="&#xff;" horiz-adv-x="1197" 
d="M924 -167h-808v57h800q68 0 99.5 30t31.5 100v66q-12 -36 -40.5 -52t-81.5 -16h-704q-75 0 -110.5 35.5t-35.5 110.5v439h65v-431q0 -53 22 -75t76 -22h711q54 0 76 22t22 75v431h64v-583q0 -96 -45 -141.5t-142 -45.5zM513 736v-53h-95v53h95zM777 736v-53h-95v53h95z
" />
    <glyph glyph-name="Amacron" unicode="&#x100;" horiz-adv-x="1337" 
d="M1256 0h-67v321h-1042v-321h-66v552q0 148 149 148h877q149 0 149 -148v-552zM1090 641h-844q-54 0 -76.5 -23t-22.5 -79v-160h1042v160q0 56 -22 79t-77 23zM834 783h-333v39h333v-39z" />
    <glyph glyph-name="amacron" unicode="&#x101;" horiz-adv-x="1170" 
d="M1040 330v118q0 53 -22 75.5t-76 22.5h-862v57h879q75 0 110.5 -35.5t35.5 -110.5v-311q0 -75 -35.5 -110.5t-110.5 -35.5h-780q-66 0 -97.5 32t-31.5 100v65q0 69 31.5 101t97.5 32h861zM1040 273h-846q-43 0 -61 -18.5t-18 -61.5v-56q0 -43 18 -61.5t61 -18.5h748
q54 0 76 22.5t22 75.5v118zM745 692h-333v39h333v-39z" />
    <glyph glyph-name="Abreve" unicode="&#x102;" horiz-adv-x="1337" 
d="M1256 0h-67v321h-1042v-321h-66v552q0 148 149 148h877q149 0 149 -148v-552zM1090 641h-844q-54 0 -76.5 -23t-22.5 -79v-160h1042v160q0 56 -22 79t-77 23zM501 815v46q54 -65 166 -65t166 65v-46q-55 -64 -166 -64q-109 0 -166 64z" />
    <glyph glyph-name="abreve" unicode="&#x103;" horiz-adv-x="1170" 
d="M1040 330v118q0 53 -22 75.5t-76 22.5h-862v57h879q75 0 110.5 -35.5t35.5 -110.5v-311q0 -75 -35.5 -110.5t-110.5 -35.5h-780q-66 0 -97.5 32t-31.5 100v65q0 69 31.5 101t97.5 32h861zM1040 273h-846q-43 0 -61 -18.5t-18 -61.5v-56q0 -43 18 -61.5t61 -18.5h748
q54 0 76 22.5t22 75.5v118zM412 724v46q54 -65 166 -65t166 65v-46q-55 -64 -166 -64q-109 0 -166 64z" />
    <glyph glyph-name="Aogonek" unicode="&#x104;" horiz-adv-x="1337" 
d="M1223 0v-63h-21q-100 0 -152.5 -4t-71 -11t-18.5 -21q0 -18 45 -18h254v-45h-254q-79 0 -79 48q0 29 21 43t76 20.5t166 6.5h14v44h-14v321h-1042v-321h-66v552q0 148 149 148h877q149 0 149 -148v-552h-33zM1090 641h-844q-54 0 -76.5 -23t-22.5 -79v-160h1042v160
q0 56 -22 79t-77 23z" />
    <glyph glyph-name="aogonek" unicode="&#x105;" horiz-adv-x="1170" 
d="M1072 -63h-21q-100 0 -152.5 -4t-71 -11t-18.5 -21q0 -18 45 -18h254v-45h-254q-79 0 -79 48q0 29 21 43t76 20.5t166 6.5h14v65q-34 -21 -93 -21h-780q-66 0 -97.5 32t-31.5 100v65q0 69 31.5 101t97.5 32h861v118q0 53 -22 75.5t-76 22.5h-862v57h879q75 0 110.5 -35.5
t35.5 -110.5v-311q0 -72 -33 -108v-101zM1040 273h-846q-43 0 -61 -18.5t-18 -61.5v-56q0 -43 18 -61.5t61 -18.5h748q54 0 76 22.5t22 75.5v118z" />
    <glyph glyph-name="Cacute" unicode="&#x106;" horiz-adv-x="1234" 
d="M219 0q-76 0 -112 36.5t-36 111.5v404q0 75 36 111.5t112 36.5h964v-59h-947q-55 0 -77 -23t-22 -79v-378q0 -56 22 -79t77 -23h947v-59h-964zM810 856l-180 -104h-66l150 104h96z" />
    <glyph glyph-name="cacute" unicode="&#x107;" horiz-adv-x="1110" 
d="M211 0q-75 0 -110 35.5t-35 110.5v311q0 75 35 110.5t110 35.5h847v-57h-830q-53 0 -75.5 -22.5t-22.5 -75.5v-293q0 -53 22.5 -75.5t75.5 -22.5h830v-57h-847zM756 765l-180 -104h-66l150 104h96z" />
    <glyph glyph-name="Ccircumflex" unicode="&#x108;" horiz-adv-x="1234" 
d="M219 0q-76 0 -112 36.5t-36 111.5v404q0 75 36 111.5t112 36.5h964v-59h-947q-55 0 -77 -23t-22 -79v-378q0 -56 22 -79t77 -23h947v-59h-964zM651 824l-135 -72h-61l158 104h77l158 -104h-61z" />
    <glyph glyph-name="ccircumflex" unicode="&#x109;" horiz-adv-x="1110" 
d="M211 0q-75 0 -110 35.5t-35 110.5v311q0 75 35 110.5t110 35.5h847v-57h-830q-53 0 -75.5 -22.5t-22.5 -75.5v-293q0 -53 22.5 -75.5t75.5 -22.5h830v-57h-847zM586 733l-135 -72h-61l158 104h77l158 -104h-61z" />
    <glyph glyph-name="Cdotaccent" unicode="&#x10a;" horiz-adv-x="1234" 
d="M219 0q-76 0 -112 36.5t-36 111.5v404q0 75 36 111.5t112 36.5h964v-59h-947q-55 0 -77 -23t-22 -79v-378q0 -56 22 -79t77 -23h947v-59h-964zM699 827v-53h-95v53h95z" />
    <glyph glyph-name="cdotaccent" unicode="&#x10b;" horiz-adv-x="1110" 
d="M211 0q-75 0 -110 35.5t-35 110.5v311q0 75 35 110.5t110 35.5h847v-57h-830q-53 0 -75.5 -22.5t-22.5 -75.5v-293q0 -53 22.5 -75.5t75.5 -22.5h830v-57h-847zM634 736v-53h-95v53h95z" />
    <glyph glyph-name="Ccaron" unicode="&#x10c;" horiz-adv-x="1234" 
d="M219 0q-76 0 -112 36.5t-36 111.5v404q0 75 36 111.5t112 36.5h964v-59h-947q-55 0 -77 -23t-22 -79v-378q0 -56 22 -79t77 -23h947v-59h-964zM516 856l135 -71l136 71h61l-158 -104h-77l-158 104h61z" />
    <glyph glyph-name="ccaron" unicode="&#x10d;" horiz-adv-x="1110" 
d="M211 0q-75 0 -110 35.5t-35 110.5v311q0 75 35 110.5t110 35.5h847v-57h-830q-53 0 -75.5 -22.5t-22.5 -75.5v-293q0 -53 22.5 -75.5t75.5 -22.5h830v-57h-847zM451 765l135 -71l136 71h61l-158 -104h-77l-158 104h61z" />
    <glyph glyph-name="Dcaron" unicode="&#x10e;" horiz-adv-x="1331" 
d="M1059 700q101 0 153.5 -52t52.5 -154v-288q0 -102 -52.5 -154t-153.5 -52h-968v700h968zM1047 59q77 0 114.5 36.5t37.5 115.5v278q0 79 -37.5 115.5t-114.5 36.5h-890v-582h890zM520 856l135 -71l136 71h61l-158 -104h-77l-158 104h61z" />
    <glyph glyph-name="dcaron" unicode="&#x10f;" horiz-adv-x="1386" 
d="M1104 770v-624q0 -75 -35 -110.5t-110 -35.5h-748q-75 0 -110 35.5t-35 110.5v311q0 75 35 110.5t110 35.5h707q100 0 122 -69v236h64zM1040 155v293q0 53 -22.5 75.5t-75.5 22.5h-714q-53 0 -75.5 -22.5t-22.5 -75.5v-293q0 -53 22.5 -75.5t75.5 -22.5h714
q53 0 75.5 22.5t22.5 75.5zM1331 700v-65q0 -99 -82 -99h-15v30h14q19 0 27.5 11.5t8.5 39.5v18h-50v65h97z" />
    <glyph glyph-name="Dcroat" unicode="&#x110;" horiz-adv-x="1331" 
d="M1059 700q101 0 153.5 -52t52.5 -154v-288q0 -102 -52.5 -154t-153.5 -52h-968v321h-74v58h74v321h968zM1047 59q77 0 114.5 36.5t37.5 115.5v278q0 79 -37.5 115.5t-114.5 36.5h-890v-262h198v-58h-198v-262h890z" />
    <glyph glyph-name="dcroat" unicode="&#x111;" horiz-adv-x="1180" 
d="M1104 770v-73h75v-39h-75v-512q0 -75 -35 -110.5t-110 -35.5h-748q-75 0 -110 35.5t-35 110.5v311q0 75 35 110.5t110 35.5h707q100 0 122 -69v124h-193v39h193v73h64zM1040 155v293q0 53 -22.5 75.5t-75.5 22.5h-714q-53 0 -75.5 -22.5t-22.5 -75.5v-293
q0 -53 22.5 -75.5t75.5 -22.5h714q53 0 75.5 22.5t22.5 75.5z" />
    <glyph glyph-name="Emacron" unicode="&#x112;" horiz-adv-x="1293" 
d="M91 0v700h1151v-59h-1085v-262h985v-58h-985v-262h1085v-59h-1151zM835 783h-333v39h333v-39z" />
    <glyph glyph-name="emacron" unicode="&#x113;" horiz-adv-x="1170" 
d="M1120 405q0 -69 -31 -100.5t-98 -31.5h-861v-118q0 -53 23 -75.5t75 -22.5h862v-57h-879q-78 0 -111.5 38.5t-33.5 118.5v300q0 75 35 110.5t110 35.5h780q67 0 98 -32t31 -100v-66zM976 546h-748q-57 0 -77.5 -25t-20.5 -87v-104h846q43 0 61.5 18t18.5 61v54
q0 45 -17.5 64t-62.5 19zM770 692h-333v39h333v-39z" />
    <glyph glyph-name="Ebreve" unicode="&#x114;" horiz-adv-x="1293" 
d="M91 0v700h1151v-59h-1085v-262h985v-58h-985v-262h1085v-59h-1151zM502 815v46q54 -65 166 -65t166 65v-46q-55 -64 -166 -64q-109 0 -166 64z" />
    <glyph glyph-name="ebreve" unicode="&#x115;" horiz-adv-x="1170" 
d="M1120 405q0 -69 -31 -100.5t-98 -31.5h-861v-118q0 -53 23 -75.5t75 -22.5h862v-57h-879q-78 0 -111.5 38.5t-33.5 118.5v300q0 75 35 110.5t110 35.5h780q67 0 98 -32t31 -100v-66zM976 546h-748q-57 0 -77.5 -25t-20.5 -87v-104h846q43 0 61.5 18t18.5 61v54
q0 45 -17.5 64t-62.5 19zM437 724v46q54 -65 166 -65t166 65v-46q-55 -64 -166 -64q-109 0 -166 64z" />
    <glyph glyph-name="Edotaccent" unicode="&#x116;" horiz-adv-x="1293" 
d="M91 0v700h1151v-59h-1085v-262h985v-58h-985v-262h1085v-59h-1151zM716 827v-53h-95v53h95z" />
    <glyph glyph-name="edotaccent" unicode="&#x117;" horiz-adv-x="1170" 
d="M1120 405q0 -69 -31 -100.5t-98 -31.5h-861v-118q0 -53 23 -75.5t75 -22.5h862v-57h-879q-78 0 -111.5 38.5t-33.5 118.5v300q0 75 35 110.5t110 35.5h780q67 0 98 -32t31 -100v-66zM976 546h-748q-57 0 -77.5 -25t-20.5 -87v-104h846q43 0 61.5 18t18.5 61v54
q0 45 -17.5 64t-62.5 19zM651 736v-53h-95v53h95z" />
    <glyph glyph-name="Eogonek" unicode="&#x118;" horiz-adv-x="1293" 
d="M1206 0v-63h-21q-100 0 -152.5 -4t-71 -11t-18.5 -21q0 -18 45 -18h254v-45h-254q-79 0 -79 48q0 29 21 43t76 20.5t166 6.5h14v44h-1095v700h1151v-59h-1085v-262h985v-58h-985v-262h1085v-59h-36z" />
    <glyph glyph-name="eogonek" unicode="&#x119;" horiz-adv-x="1170" 
d="M976 546h-748q-57 0 -77.5 -25t-20.5 -87v-104h846q43 0 61.5 18t18.5 61v54q0 45 -17.5 64t-62.5 19zM1047 -44v44h-836q-78 0 -111.5 38.5t-33.5 118.5v300q0 75 35 110.5t110 35.5h780q67 0 98 -32t31 -100v-66q0 -69 -31 -100.5t-98 -31.5h-861v-118q0 -53 23 -75.5
t75 -22.5h862v-57h-23v-63h-34q-100 0 -152.5 -4t-71 -11t-18.5 -21q0 -18 45 -18h254v-45h-254q-79 0 -79 48q0 29 21 43t76 20.5t166 6.5h27z" />
    <glyph glyph-name="Ecaron" unicode="&#x11a;" horiz-adv-x="1293" 
d="M91 0v700h1151v-59h-1085v-262h985v-58h-985v-262h1085v-59h-1151zM533 856l135 -71l136 71h61l-158 -104h-77l-158 104h61z" />
    <glyph glyph-name="ecaron" unicode="&#x11b;" horiz-adv-x="1170" 
d="M1120 405q0 -69 -31 -100.5t-98 -31.5h-861v-118q0 -53 23 -75.5t75 -22.5h862v-57h-879q-78 0 -111.5 38.5t-33.5 118.5v300q0 75 35 110.5t110 35.5h780q67 0 98 -32t31 -100v-66zM976 546h-748q-57 0 -77.5 -25t-20.5 -87v-104h846q43 0 61.5 18t18.5 61v54
q0 45 -17.5 64t-62.5 19zM468 765l135 -71l136 71h61l-158 -104h-77l-158 104h61z" />
    <glyph glyph-name="Gcircumflex" unicode="&#x11c;" horiz-adv-x="1314" 
d="M1093 59q53 0 71.5 18.5t18.5 72.5v171h-598v58h665v-241q0 -74 -32 -106t-106 -32h-893q-76 0 -112 36.5t-36 111.5v404q0 75 36 111.5t112 36.5h1006v-59h-989q-55 0 -77 -23t-22 -79v-378q0 -56 22 -79t77 -23h857zM668 824l-135 -72h-61l158 104h77l158 -104h-61z
" />
    <glyph glyph-name="gcircumflex" unicode="&#x11d;" horiz-adv-x="1180" 
d="M942 75q53 0 75.5 22t22.5 75v276q0 53 -22.5 75.5t-75.5 22.5h-714q-53 0 -75.5 -22.5t-22.5 -75.5v-276q0 -53 22.5 -75t75.5 -22h714zM918 18h-707q-75 0 -110 35.5t-35 110.5v293q0 75 35 110.5t110 35.5h748q75 0 110 -35.5t35 -110.5v-437q0 -96 -45 -141.5
t-142 -45.5h-811v57h803q68 0 99.5 30t31.5 100v66q-12 -36 -40.5 -52t-81.5 -16zM589 733l-135 -72h-61l158 104h77l158 -104h-61z" />
    <glyph glyph-name="Gbreve" unicode="&#x11e;" horiz-adv-x="1314" 
d="M1093 59q53 0 71.5 18.5t18.5 72.5v171h-598v58h665v-241q0 -74 -32 -106t-106 -32h-893q-76 0 -112 36.5t-36 111.5v404q0 75 36 111.5t112 36.5h1006v-59h-989q-55 0 -77 -23t-22 -79v-378q0 -56 22 -79t77 -23h857zM502 815v46q54 -65 166 -65t166 65v-46
q-55 -64 -166 -64q-109 0 -166 64z" />
    <glyph glyph-name="gbreve" unicode="&#x11f;" horiz-adv-x="1180" 
d="M942 75q53 0 75.5 22t22.5 75v276q0 53 -22.5 75.5t-75.5 22.5h-714q-53 0 -75.5 -22.5t-22.5 -75.5v-276q0 -53 22.5 -75t75.5 -22h714zM918 18h-707q-75 0 -110 35.5t-35 110.5v293q0 75 35 110.5t110 35.5h748q75 0 110 -35.5t35 -110.5v-437q0 -96 -45 -141.5
t-142 -45.5h-811v57h803q68 0 99.5 30t31.5 100v66q-12 -36 -40.5 -52t-81.5 -16zM423 724v46q54 -65 166 -65t166 65v-46q-55 -64 -166 -64q-109 0 -166 64z" />
    <glyph glyph-name="Gdotaccent" unicode="&#x120;" horiz-adv-x="1314" 
d="M1093 59q53 0 71.5 18.5t18.5 72.5v171h-598v58h665v-241q0 -74 -32 -106t-106 -32h-893q-76 0 -112 36.5t-36 111.5v404q0 75 36 111.5t112 36.5h1006v-59h-989q-55 0 -77 -23t-22 -79v-378q0 -56 22 -79t77 -23h857zM716 827v-53h-95v53h95z" />
    <glyph glyph-name="gdotaccent" unicode="&#x121;" horiz-adv-x="1180" 
d="M942 75q53 0 75.5 22t22.5 75v276q0 53 -22.5 75.5t-75.5 22.5h-714q-53 0 -75.5 -22.5t-22.5 -75.5v-276q0 -53 22.5 -75t75.5 -22h714zM918 18h-707q-75 0 -110 35.5t-35 110.5v293q0 75 35 110.5t110 35.5h748q75 0 110 -35.5t35 -110.5v-437q0 -96 -45 -141.5
t-142 -45.5h-811v57h803q68 0 99.5 30t31.5 100v66q-12 -36 -40.5 -52t-81.5 -16zM637 736v-53h-95v53h95z" />
    <glyph glyph-name="uni0122" unicode="&#x122;" horiz-adv-x="1314" 
d="M1093 59q53 0 71.5 18.5t18.5 72.5v171h-598v58h665v-241q0 -74 -32 -106t-106 -32h-893q-76 0 -112 36.5t-36 111.5v404q0 75 36 111.5t112 36.5h1006v-59h-989q-55 0 -77 -23t-22 -79v-378q0 -56 22 -79t77 -23h857zM713 -85v-46q0 -77 -68 -77h-19v25h19q29 0 29 36
v13h-50v49h89z" />
    <glyph glyph-name="uni0123" unicode="&#x123;" horiz-adv-x="1180" 
d="M545 683v46q0 77 68 77h19v-25h-19q-29 0 -29 -36v-13h50v-49h-89zM942 75q53 0 75.5 22t22.5 75v276q0 53 -22.5 75.5t-75.5 22.5h-714q-53 0 -75.5 -22.5t-22.5 -75.5v-276q0 -53 22.5 -75t75.5 -22h714zM918 18h-707q-75 0 -110 35.5t-35 110.5v293q0 75 35 110.5
t110 35.5h748q75 0 110 -35.5t35 -110.5v-437q0 -96 -45 -141.5t-142 -45.5h-811v57h803q68 0 99.5 30t31.5 100v66q-12 -36 -40.5 -52t-81.5 -16z" />
    <glyph glyph-name="Hcircumflex" unicode="&#x124;" horiz-adv-x="1372" 
d="M1215 0v321h-1058v-321h-66v700h66v-321h1058v321h66v-700h-66zM685 824l-135 -72h-61l158 104h77l158 -104h-61z" />
    <glyph glyph-name="hcircumflex" unicode="&#x125;" horiz-adv-x="1197" 
d="M1056 448q0 53 -22 75.5t-75 22.5h-711q-54 0 -76 -22.5t-22 -75.5v-448h-65v770h65v-236q22 69 121 69h705q75 0 110 -35.5t35 -110.5v-457h-65v448zM614 733l-135 -72h-61l158 104h77l158 -104h-61z" />
    <glyph glyph-name="Hbar" unicode="&#x126;" horiz-adv-x="1372" 
d="M1215 0v321h-1058v-321h-66v506h-41v49h41v145h66v-145h1058v145h66v-145h40v-49h-40v-506h-66zM157 379h1058v127h-1058v-127z" />
    <glyph glyph-name="hbar" unicode="&#x127;" horiz-adv-x="1197" 
d="M1056 448q0 53 -22 75.5t-75 22.5h-711q-54 0 -76 -22.5t-22 -75.5v-448h-65v658h-85v39h85v73h65v-73h182v-39h-182v-124q22 69 121 69h705q75 0 110 -35.5t35 -110.5v-457h-65v448z" />
    <glyph glyph-name="Itilde" unicode="&#x128;" horiz-adv-x="248" 
d="M91 0v700h66v-700h-66zM-43 757v45q45 44 91 44q28 0 78.5 -24.5t77.5 -24.5q43 0 85 45v-45q-45 -44 -91 -44q-29 0 -79.5 24t-77.5 24q-43 0 -84 -44z" />
    <glyph glyph-name="itilde" unicode="&#x129;" horiz-adv-x="331" 
d="M-56 666v45q45 44 91 44q28 0 78.5 -24.5t77.5 -24.5q43 0 85 45v-45q-45 -44 -91 -44q-29 0 -79.5 24t-77.5 24q-43 0 -84 -44zM232 57h74v-57h-90q-74 0 -106 32t-32 106v465h65v-456q0 -52 18.5 -71t70.5 -19z" />
    <glyph glyph-name="Imacron" unicode="&#x12a;" horiz-adv-x="248" 
d="M266 785h-284v35h284v-35zM91 0v700h66v-700h-66z" />
    <glyph glyph-name="imacron" unicode="&#x12b;" horiz-adv-x="331" 
d="M252 694h-284v35h284v-35zM232 57h74v-57h-90q-74 0 -106 32t-32 106v465h65v-456q0 -52 18.5 -71t70.5 -19z" />
    <glyph glyph-name="Ibreve" unicode="&#x12c;" horiz-adv-x="248" 
d="M91 0v700h66v-700h-66zM-43 815v46q54 -65 166 -65t166 65v-46q-55 -64 -166 -64q-109 0 -166 64z" />
    <glyph glyph-name="ibreve" unicode="&#x12d;" horiz-adv-x="331" 
d="M-56 724v46q54 -65 166 -65t166 65v-46q-55 -64 -166 -64q-109 0 -166 64zM232 57h74v-57h-90q-74 0 -106 32t-32 106v465h65v-456q0 -52 18.5 -71t70.5 -19z" />
    <glyph glyph-name="Iogonek" unicode="&#x12e;" horiz-adv-x="248" 
d="M91 0v700h66v-700h-9v-63h-20q-148 0 -148 -36q0 -18 46 -18h145v-45h-145q-80 0 -80 48q0 42 43.5 56t137.5 14v44h-36z" />
    <glyph glyph-name="iogonek" unicode="&#x12f;" horiz-adv-x="331" 
d="M282 -63h-20q-181 0 -181 -36q0 -18 45 -18h180v-45h-180q-79 0 -79 48q0 40 45.5 55t169.5 15v44h-46q-74 0 -106 32t-32 106v465h65v-456q0 -52 18.5 -71t70.5 -19h74v-57h-24v-63zM161 737v-54h-102v54h102z" />
    <glyph glyph-name="Idotaccent" unicode="&#x130;" horiz-adv-x="248" 
d="M91 0v700h66v-700h-66zM171 827v-53h-95v53h95z" />
    <glyph glyph-name="dotlessi" unicode="&#x131;" horiz-adv-x="331" 
d="M232 57h74v-57h-90q-74 0 -106 32t-32 106v465h65v-456q0 -52 18.5 -71t70.5 -19z" />
    <glyph glyph-name="IJ" unicode="&#x132;" horiz-adv-x="1549" 
d="M91 0v700h66v-700h-66zM300 138v204h66v-192q0 -54 18.5 -72.5t71.5 -18.5h847q55 0 77 23t22 79v539h66v-552q0 -75 -36 -111.5t-112 -36.5h-882q-75 0 -106.5 32t-31.5 106z" />
    <glyph glyph-name="Jcircumflex" unicode="&#x134;" horiz-adv-x="1301" 
d="M52 138v204h66v-192q0 -54 18.5 -72.5t71.5 -18.5h847q55 0 77 23t22 79v539h66v-552q0 -75 -36 -111.5t-112 -36.5h-882q-75 0 -106.5 32t-31.5 106zM1120 824l-135 -72h-61l158 104h77l158 -104h-61z" />
    <glyph glyph-name="jcircumflex" unicode="&#x135;" horiz-adv-x="252" 
d="M-33 -110h45q52 0 70 18t18 71v624h65v-632q0 -75 -31.5 -106.5t-106.5 -31.5h-60v57zM133 733l-135 -72h-61l158 104h77l158 -104h-61z" />
    <glyph glyph-name="uni0136" unicode="&#x136;" horiz-adv-x="1339" 
d="M1265 700v-210q0 -65 -25 -99t-88 -41q63 -7 88 -41t25 -99v-210h-66v217q0 55 -21.5 79.5t-75.5 24.5h-945v-321h-66v700h66v-321h945q54 0 75.5 24.5t21.5 79.5v217h66zM714 -85v-46q0 -77 -68 -77h-19v25h19q29 0 29 36v13h-50v49h89z" />
    <glyph glyph-name="uni0137" unicode="&#x137;" horiz-adv-x="1183" 
d="M1055 397v206h65v-180q0 -57 -20 -86t-68 -36q48 -7 68 -36t20 -86v-179h-65v205q0 35 -16.5 51.5t-52.5 16.5h-836v-273h-65v770h65v-440h836q37 0 53 16t16 51zM653 -85v-46q0 -77 -68 -77h-19v25h19q29 0 29 36v13h-50v49h89z" />
    <glyph glyph-name="kgreenlandic" unicode="&#x138;" horiz-adv-x="1183" 
d="M1055 397v206h65v-180q0 -57 -20 -86t-68 -36q48 -7 68 -36t20 -86v-179h-65v205q0 35 -16.5 51.5t-52.5 16.5h-836v-273h-65v603h65v-273h836q37 0 53 16t16 51z" />
    <glyph glyph-name="Lacute" unicode="&#x139;" horiz-adv-x="1251" 
d="M1228 59v-59h-1137v700h66v-641h1071zM337 856l-180 -104h-66l150 104h96z" />
    <glyph glyph-name="lacute" unicode="&#x13a;" horiz-adv-x="329" 
d="M230 57h73v-57h-89q-75 0 -107 32t-32 106v632h65v-623q0 -52 19 -71t71 -19zM283 932l-180 -104h-66l150 104h96z" />
    <glyph glyph-name="uni013B" unicode="&#x13b;" horiz-adv-x="1251" 
d="M1228 59v-59h-1137v700h66v-641h1071zM686 -85v-46q0 -77 -68 -77h-19v25h19q29 0 29 36v13h-50v49h89z" />
    <glyph glyph-name="uni013C" unicode="&#x13c;" horiz-adv-x="329" 
d="M230 57h73v-57h-89q-75 0 -107 32t-32 106v632h65v-623q0 -52 19 -71t71 -19zM209 -85v-46q0 -77 -68 -77h-19v25h19q29 0 29 36v13h-50v49h89z" />
    <glyph glyph-name="Lcaron" unicode="&#x13d;" horiz-adv-x="1251" 
d="M1228 59v-59h-1137v700h66v-641h1071zM1094 700v-65q0 -99 -82 -99h-15v30h14q19 0 27.5 11.5t8.5 39.5v18h-50v65h97z" />
    <glyph glyph-name="lcaron" unicode="&#x13e;" horiz-adv-x="443" 
d="M230 57h73v-57h-89q-75 0 -107 32t-32 106v632h65v-623q0 -52 19 -71t71 -19zM389 700v-65q0 -99 -82 -99h-15v30h14q19 0 27.5 11.5t8.5 39.5v18h-50v65h97z" />
    <glyph glyph-name="Ldot" unicode="&#x13f;" horiz-adv-x="1251" 
d="M1228 59v-59h-1137v700h66v-641h1071zM776 384v-68h-97v68h97z" />
    <glyph glyph-name="ldot" unicode="&#x140;" horiz-adv-x="497" 
d="M230 57h73v-57h-89q-75 0 -107 32t-32 106v632h65v-623q0 -52 19 -71t71 -19zM401 384v-68h-97v68h97z" />
    <glyph glyph-name="Lslash" unicode="&#x141;" horiz-adv-x="1251" 
d="M1228 59v-59h-1137v231l-74 -33v58l74 33v411h66v-381l358 164v-58l-358 -164v-202h1071z" />
    <glyph glyph-name="lslash" unicode="&#x142;" horiz-adv-x="329" 
d="M230 57h73v-57h-89q-75 0 -107 32t-32 106v190l-58 -30v58l58 30v384h65v-351l172 89v-58l-172 -89v-214q0 -52 19 -71t71 -19z" />
    <glyph glyph-name="Nacute" unicode="&#x143;" horiz-adv-x="1337" 
d="M246 641q-54 0 -76.5 -23t-22.5 -79v-539h-66v552q0 148 149 148h877q149 0 149 -148v-552h-67v539q0 56 -22.5 79t-76.5 23h-844zM838 856l-180 -104h-66l150 104h96z" />
    <glyph glyph-name="nacute" unicode="&#x144;" horiz-adv-x="1185" 
d="M75 0v457q0 75 35.5 110.5t110.5 35.5h744q75 0 110 -35.5t35 -110.5v-457h-65v448q0 53 -22 75.5t-75 22.5h-710q-54 0 -76 -22.5t-22 -75.5v-448h-65zM760 765l-180 -104h-66l150 104h96z" />
    <glyph glyph-name="uni0145" unicode="&#x145;" horiz-adv-x="1337" 
d="M246 641q-54 0 -76.5 -23t-22.5 -79v-539h-66v552q0 148 149 148h877q149 0 149 -148v-552h-67v539q0 56 -22.5 79t-76.5 23h-844zM712 -85v-46q0 -77 -68 -77h-19v25h19q29 0 29 36v13h-50v49h89z" />
    <glyph glyph-name="uni0146" unicode="&#x146;" horiz-adv-x="1185" 
d="M75 0v457q0 75 35.5 110.5t110.5 35.5h744q75 0 110 -35.5t35 -110.5v-457h-65v448q0 53 -22 75.5t-75 22.5h-710q-54 0 -76 -22.5t-22 -75.5v-448h-65zM637 -85v-46q0 -77 -68 -77h-19v25h19q29 0 29 36v13h-50v49h89z" />
    <glyph glyph-name="Ncaron" unicode="&#x147;" horiz-adv-x="1337" 
d="M246 641q-54 0 -76.5 -23t-22.5 -79v-539h-66v552q0 148 149 148h877q149 0 149 -148v-552h-67v539q0 56 -22.5 79t-76.5 23h-844zM532 856l135 -71l136 71h61l-158 -104h-77l-158 104h61z" />
    <glyph glyph-name="ncaron" unicode="&#x148;" horiz-adv-x="1185" 
d="M75 0v457q0 75 35.5 110.5t110.5 35.5h744q75 0 110 -35.5t35 -110.5v-457h-65v448q0 53 -22 75.5t-75 22.5h-710q-54 0 -76 -22.5t-22 -75.5v-448h-65zM457 765l135 -71l136 71h61l-158 -104h-77l-158 104h61z" />
    <glyph glyph-name="napostrophe" unicode="&#x149;" horiz-adv-x="1327" 
d="M217 0v457q0 75 35.5 110.5t110.5 35.5h744q75 0 110 -35.5t35 -110.5v-457h-65v448q0 53 -22 75.5t-75 22.5h-710q-54 0 -76 -22.5t-22 -75.5v-448h-65zM152 700v-65q0 -99 -82 -99h-15v30h14q19 0 27.5 11.5t8.5 39.5v18h-50v65h97z" />
    <glyph glyph-name="Eng" unicode="&#x14a;" horiz-adv-x="1337" 
d="M246 641q-54 0 -76.5 -23t-22.5 -79v-539h-66v552q0 148 149 148h877q149 0 149 -148v-571q0 -148 -149 -148h-297v59h280q55 0 77 23t22 79v545q0 56 -22.5 79t-76.5 23h-844z" />
    <glyph glyph-name="eng" unicode="&#x14b;" horiz-adv-x="1185" 
d="M912 -110h45q52 0 70 18t18 71v469q0 53 -22 75.5t-75 22.5h-710q-54 0 -76 -22.5t-22 -75.5v-448h-65v457q0 75 35.5 110.5t110.5 35.5h744q75 0 110 -35.5t35 -110.5v-486q0 -75 -31.5 -106.5t-106.5 -31.5h-60v57z" />
    <glyph glyph-name="Omacron" unicode="&#x14c;" horiz-adv-x="1320" 
d="M220 0q-149 0 -149 148v404q0 148 149 148h881q76 0 112 -36.5t36 -111.5v-404q0 -75 -36 -111.5t-112 -36.5h-881zM1183 161v378q0 56 -22 79t-77 23h-848q-54 0 -76.5 -23t-22.5 -79v-378q0 -57 22 -79.5t77 -22.5h848q55 0 77 23t22 79zM826 783h-333v39h333v-39z" />
    <glyph glyph-name="omacron" unicode="&#x14d;" horiz-adv-x="1168" 
d="M957 603q75 0 110.5 -35.5t35.5 -110.5v-311q0 -75 -35.5 -110.5t-110.5 -35.5h-746q-75 0 -110 35.5t-35 110.5v311q0 75 35 110.5t110 35.5h746zM940 57q54 0 76 22.5t22 75.5v293q0 53 -22 75.5t-76 22.5h-712q-54 0 -76 -22.5t-22 -75.5v-293q0 -53 22 -75.5
t76 -22.5h712zM751 692h-333v39h333v-39z" />
    <glyph glyph-name="Obreve" unicode="&#x14e;" horiz-adv-x="1320" 
d="M220 0q-149 0 -149 148v404q0 148 149 148h881q76 0 112 -36.5t36 -111.5v-404q0 -75 -36 -111.5t-112 -36.5h-881zM1183 161v378q0 56 -22 79t-77 23h-848q-54 0 -76.5 -23t-22.5 -79v-378q0 -57 22 -79.5t77 -22.5h848q55 0 77 23t22 79zM493 815v46q54 -65 166 -65
t166 65v-46q-55 -64 -166 -64q-109 0 -166 64z" />
    <glyph glyph-name="obreve" unicode="&#x14f;" horiz-adv-x="1168" 
d="M957 603q75 0 110.5 -35.5t35.5 -110.5v-311q0 -75 -35.5 -110.5t-110.5 -35.5h-746q-75 0 -110 35.5t-35 110.5v311q0 75 35 110.5t110 35.5h746zM940 57q54 0 76 22.5t22 75.5v293q0 53 -22 75.5t-76 22.5h-712q-54 0 -76 -22.5t-22 -75.5v-293q0 -53 22 -75.5
t76 -22.5h712zM418 724v46q54 -65 166 -65t166 65v-46q-55 -64 -166 -64q-109 0 -166 64z" />
    <glyph glyph-name="Ohungarumlaut" unicode="&#x150;" horiz-adv-x="1320" 
d="M220 0q-149 0 -149 148v404q0 148 149 148h881q76 0 112 -36.5t36 -111.5v-404q0 -75 -36 -111.5t-112 -36.5h-881zM1183 161v378q0 56 -22 79t-77 23h-848q-54 0 -76.5 -23t-22.5 -79v-378q0 -57 22 -79.5t77 -22.5h848q55 0 77 23t22 79zM932 856l-180 -104h-66
l150 104h96zM700 856l-180 -104h-66l150 104h96z" />
    <glyph glyph-name="ohungarumlaut" unicode="&#x151;" horiz-adv-x="1168" 
d="M957 603q75 0 110.5 -35.5t35.5 -110.5v-311q0 -75 -35.5 -110.5t-110.5 -35.5h-746q-75 0 -110 35.5t-35 110.5v311q0 75 35 110.5t110 35.5h746zM940 57q54 0 76 22.5t22 75.5v293q0 53 -22 75.5t-76 22.5h-712q-54 0 -76 -22.5t-22 -75.5v-293q0 -53 22 -75.5
t76 -22.5h712zM870 765l-180 -104h-66l150 104h96zM638 765l-180 -104h-66l150 104h96z" />
    <glyph glyph-name="OE" unicode="&#x152;" horiz-adv-x="2026" 
d="M220 0q-76 0 -112 36.5t-36 111.5v404q0 75 36 111.5t112 36.5h1751v-59h-905v-262h805v-58h-805v-262h905v-59h-1751zM1000 59v582h-763q-55 0 -77 -23t-22 -79v-378q0 -56 22 -79t77 -23h763z" />
    <glyph glyph-name="oe" unicode="&#x153;" horiz-adv-x="1755" 
d="M852 151v301q0 50 -21.5 72t-71.5 22h-531q-54 0 -76 -22.5t-22 -75.5v-293q0 -53 22 -75.5t76 -22.5h531q50 0 71.5 22t21.5 72zM1640 409v57q0 44 -18 62t-62 18h-551q-50 0 -71.5 -22t-21.5 -72v-122h644q43 0 61.5 18t18.5 61zM916 273v-122q0 -50 21.5 -72t71.5 -22
h666v-57h-649q-68 0 -101.5 23.5t-40.5 78.5q-7 -55 -40.5 -78.5t-101.5 -23.5h-531q-75 0 -110 35.5t-35 110.5v311q0 75 35 110.5t110 35.5h531q68 0 101.5 -23.5t40.5 -78.5q7 55 40.5 78.5t101.5 23.5h549q67 0 98.5 -32t31.5 -100v-66q0 -68 -31.5 -100t-98.5 -32h-659
z" />
    <glyph glyph-name="Racute" unicode="&#x154;" horiz-adv-x="1337" 
d="M1265 556v-72q0 -63 -25 -95.5t-85 -39.5q61 -8 85.5 -42t24.5 -97v-210h-66v217q0 55 -21.5 79.5t-75.5 24.5h-945v-321h-66v700h1030q75 0 109.5 -35t34.5 -109zM1104 379q53 0 74 22.5t21 77.5v64q0 52 -22 75t-72 23h-948v-262h947zM838 856l-180 -104h-66l150 104
h96z" />
    <glyph glyph-name="racute" unicode="&#x155;" horiz-adv-x="1002" 
d="M975 603v-57h-737q-54 0 -76 -22.5t-22 -75.5v-448h-65v457q0 75 35.5 110.5t110.5 35.5h754zM717 765l-180 -104h-66l150 104h96z" />
    <glyph glyph-name="uni0156" unicode="&#x156;" horiz-adv-x="1337" 
d="M1265 556v-72q0 -63 -25 -95.5t-85 -39.5q61 -8 85.5 -42t24.5 -97v-210h-66v217q0 55 -21.5 79.5t-75.5 24.5h-945v-321h-66v700h1030q75 0 109.5 -35t34.5 -109zM1104 379q53 0 74 22.5t21 77.5v64q0 52 -22 75t-72 23h-948v-262h947zM732 -85v-46q0 -77 -68 -77h-19
v25h19q29 0 29 36v13h-50v49h89z" />
    <glyph glyph-name="uni0157" unicode="&#x157;" horiz-adv-x="1002" 
d="M975 603v-57h-737q-54 0 -76 -22.5t-22 -75.5v-448h-65v457q0 75 35.5 110.5t110.5 35.5h754zM153 -85v-46q0 -77 -68 -77h-19v25h19q29 0 29 36v13h-50v49h89z" />
    <glyph glyph-name="Rcaron" unicode="&#x158;" horiz-adv-x="1337" 
d="M1265 556v-72q0 -63 -25 -95.5t-85 -39.5q61 -8 85.5 -42t24.5 -97v-210h-66v217q0 55 -21.5 79.5t-75.5 24.5h-945v-321h-66v700h1030q75 0 109.5 -35t34.5 -109zM1104 379q53 0 74 22.5t21 77.5v64q0 52 -22 75t-72 23h-948v-262h947zM533 856l135 -71l136 71h61
l-158 -104h-77l-158 104h61z" />
    <glyph glyph-name="rcaron" unicode="&#x159;" horiz-adv-x="1002" 
d="M975 603v-57h-737q-54 0 -76 -22.5t-22 -75.5v-448h-65v457q0 75 35.5 110.5t110.5 35.5h754zM411 765l135 -71l136 71h61l-158 -104h-77l-158 104h61z" />
    <glyph glyph-name="Sacute" unicode="&#x15a;" horiz-adv-x="1268" 
d="M209 321q-75 0 -110.5 35.5t-35.5 109.5v89q0 75 35.5 110t110.5 35h978v-59h-964q-50 0 -72 -23t-22 -75v-66q0 -52 22 -75t72 -23h844q75 0 110.5 -35.5t35.5 -109.5v-89q0 -75 -35.5 -110t-110.5 -35h-1013v59h999q50 0 72 23t22 75v66q0 52 -22 75t-72 23h-844z
M804 856l-180 -104h-66l150 104h96z" />
    <glyph glyph-name="sacute" unicode="&#x15b;" horiz-adv-x="1135" 
d="M1055 546h-857q-43 0 -61 -18.5t-18 -61.5v-57q0 -43 18 -61t61 -18h758q66 0 97.5 -32t31.5 -101v-65q0 -68 -31.5 -100t-97.5 -32h-902v57h887q43 0 61 18.5t18 61.5v56q0 43 -18 61.5t-61 18.5h-758q-66 0 -97.5 31.5t-31.5 100.5v66q0 68 31.5 100t97.5 32h872v-57z
M737 765l-180 -104h-66l150 104h96z" />
    <glyph glyph-name="Scircumflex" unicode="&#x15c;" horiz-adv-x="1268" 
d="M209 321q-75 0 -110.5 35.5t-35.5 109.5v89q0 75 35.5 110t110.5 35h978v-59h-964q-50 0 -72 -23t-22 -75v-66q0 -52 22 -75t72 -23h844q75 0 110.5 -35.5t35.5 -109.5v-89q0 -75 -35.5 -110t-110.5 -35h-1013v59h999q50 0 72 23t22 75v66q0 52 -22 75t-72 23h-844z
M634 824l-135 -72h-61l158 104h77l158 -104h-61z" />
    <glyph glyph-name="scircumflex" unicode="&#x15d;" horiz-adv-x="1135" 
d="M1055 546h-857q-43 0 -61 -18.5t-18 -61.5v-57q0 -43 18 -61t61 -18h758q66 0 97.5 -32t31.5 -101v-65q0 -68 -31.5 -100t-97.5 -32h-902v57h887q43 0 61 18.5t18 61.5v56q0 43 -18 61.5t-61 18.5h-758q-66 0 -97.5 31.5t-31.5 100.5v66q0 68 31.5 100t97.5 32h872v-57z
M567 733l-135 -72h-61l158 104h77l158 -104h-61z" />
    <glyph glyph-name="Scedilla" unicode="&#x15e;" horiz-adv-x="1268" 
d="M640 0l-14 -45h100q40 0 59.5 -10.5t19.5 -39.5q0 -67 -114 -67h-223v45h221q36 0 52 6.5t16 23.5q0 14 -8.5 19.5t-32.5 5.5h-116l22 62h-568v59h999q50 0 72 23t22 75v66q0 52 -22 75t-72 23h-844q-75 0 -110.5 35.5t-35.5 109.5v89q0 75 35.5 110t110.5 35h978v-59
h-964q-50 0 -72 -23t-22 -75v-66q0 -52 22 -75t72 -23h844q75 0 110.5 -35.5t35.5 -109.5v-89q0 -75 -35.5 -110t-110.5 -35h-427z" />
    <glyph glyph-name="scedilla" unicode="&#x15f;" horiz-adv-x="1135" 
d="M566 0l-14 -45h100q40 0 59.5 -10.5t19.5 -39.5q0 -67 -114 -67h-223v45h221q36 0 52 6.5t16 23.5q0 14 -8.5 19.5t-32.5 5.5h-116l22 62h-494v57h887q43 0 61 18.5t18 61.5v56q0 43 -18 61.5t-61 18.5h-758q-66 0 -97.5 31.5t-31.5 100.5v66q0 68 31.5 100t97.5 32h872
v-57h-857q-43 0 -61 -18.5t-18 -61.5v-57q0 -43 18 -61t61 -18h758q66 0 97.5 -32t31.5 -101v-65q0 -68 -31.5 -100t-97.5 -32h-390z" />
    <glyph glyph-name="Scaron" unicode="&#x160;" horiz-adv-x="1268" 
d="M209 321q-75 0 -110.5 35.5t-35.5 109.5v89q0 75 35.5 110t110.5 35h978v-59h-964q-50 0 -72 -23t-22 -75v-66q0 -52 22 -75t72 -23h844q75 0 110.5 -35.5t35.5 -109.5v-89q0 -75 -35.5 -110t-110.5 -35h-1013v59h999q50 0 72 23t22 75v66q0 52 -22 75t-72 23h-844z
M499 856l135 -71l136 71h61l-158 -104h-77l-158 104h61z" />
    <glyph glyph-name="scaron" unicode="&#x161;" horiz-adv-x="1135" 
d="M1055 546h-857q-43 0 -61 -18.5t-18 -61.5v-57q0 -43 18 -61t61 -18h758q66 0 97.5 -32t31.5 -101v-65q0 -68 -31.5 -100t-97.5 -32h-902v57h887q43 0 61 18.5t18 61.5v56q0 43 -18 61.5t-61 18.5h-758q-66 0 -97.5 31.5t-31.5 100.5v66q0 68 31.5 100t97.5 32h872v-57z
M432 765l135 -71l136 71h61l-158 -104h-77l-158 104h61z" />
    <glyph glyph-name="uni0162" unicode="&#x162;" horiz-adv-x="1225" 
d="M621 0l-15 -45h100q40 0 59.5 -10.5t19.5 -39.5q0 -67 -114 -67h-223v45h221q36 0 52 6.5t16 23.5q0 14 -8.5 19.5t-32.5 5.5h-116l22 62h-22v641h-557v59h1179v-59h-556v-641h-25z" />
    <glyph glyph-name="uni0163" unicode="&#x163;" horiz-adv-x="1038" 
d="M525 0l-14 -45h100q40 0 59.5 -10.5t19.5 -39.5q0 -67 -114 -67h-223v45h221q36 0 52 6.5t16 23.5q0 14 -8.5 19.5t-32.5 5.5h-116l22 62h-286q-75 0 -110.5 35.5t-35.5 110.5v624h65v-167h846v-57h-846v-391q0 -53 22 -75.5t76 -22.5h748v-57h-461z" />
    <glyph glyph-name="Tcaron" unicode="&#x164;" horiz-adv-x="1225" 
d="M1202 700v-59h-556v-641h-66v641h-557v59h1179zM477 856l135 -71l136 71h61l-158 -104h-77l-158 104h61z" />
    <glyph glyph-name="tcaron" unicode="&#x165;" horiz-adv-x="1257" 
d="M221 0q-75 0 -110.5 35.5t-35.5 110.5v624h65v-167h846v-57h-846v-391q0 -53 22 -75.5t76 -22.5h748v-57h-765zM1203 700v-65q0 -99 -82 -99h-15v30h14q19 0 27.5 11.5t8.5 39.5v18h-50v65h97z" />
    <glyph glyph-name="Tbar" unicode="&#x166;" horiz-adv-x="1225" 
d="M1202 700v-59h-556v-183h139v-49h-139v-409h-66v409h-141v49h141v183h-557v59h1179z" />
    <glyph glyph-name="tbar" unicode="&#x167;" horiz-adv-x="1038" 
d="M221 0q-75 0 -110.5 35.5t-35.5 110.5v230h-75v49h75v345h65v-167h846v-57h-846v-121h230v-49h-230v-221q0 -53 22 -75.5t76 -22.5h748v-57h-765z" />
    <glyph glyph-name="Utilde" unicode="&#x168;" horiz-adv-x="1337" 
d="M230 0q-149 0 -149 148v552h66v-539q0 -56 22.5 -79t76.5 -23h844q54 0 76.5 23t22.5 79v539h67v-552q0 -148 -149 -148h-877zM501 757v45q45 44 91 44q28 0 78.5 -24.5t77.5 -24.5q43 0 85 45v-45q-45 -44 -91 -44q-29 0 -79.5 24t-77.5 24q-43 0 -84 -44z" />
    <glyph glyph-name="utilde" unicode="&#x169;" horiz-adv-x="1185" 
d="M948 57q53 0 75 22.5t22 75.5v448h65v-457q0 -75 -35 -110.5t-110 -35.5h-744q-75 0 -110.5 35.5t-35.5 110.5v457h65v-448q0 -53 22 -75.5t76 -22.5h710zM426 666v45q45 44 91 44q28 0 78.5 -24.5t77.5 -24.5q43 0 85 45v-45q-45 -44 -91 -44q-29 0 -79.5 24t-77.5 24
q-43 0 -84 -44z" />
    <glyph glyph-name="Umacron" unicode="&#x16a;" horiz-adv-x="1337" 
d="M230 0q-149 0 -149 148v552h66v-539q0 -56 22.5 -79t76.5 -23h844q54 0 76.5 23t22.5 79v539h67v-552q0 -148 -149 -148h-877zM834 783h-333v39h333v-39z" />
    <glyph glyph-name="umacron" unicode="&#x16b;" horiz-adv-x="1185" 
d="M948 57q53 0 75 22.5t22 75.5v448h65v-457q0 -75 -35 -110.5t-110 -35.5h-744q-75 0 -110.5 35.5t-35.5 110.5v457h65v-448q0 -53 22 -75.5t76 -22.5h710zM759 692h-333v39h333v-39z" />
    <glyph glyph-name="Ubreve" unicode="&#x16c;" horiz-adv-x="1337" 
d="M230 0q-149 0 -149 148v552h66v-539q0 -56 22.5 -79t76.5 -23h844q54 0 76.5 23t22.5 79v539h67v-552q0 -148 -149 -148h-877zM501 815v46q54 -65 166 -65t166 65v-46q-55 -64 -166 -64q-109 0 -166 64z" />
    <glyph glyph-name="ubreve" unicode="&#x16d;" horiz-adv-x="1185" 
d="M948 57q53 0 75 22.5t22 75.5v448h65v-457q0 -75 -35 -110.5t-110 -35.5h-744q-75 0 -110.5 35.5t-35.5 110.5v457h65v-448q0 -53 22 -75.5t76 -22.5h710zM426 724v46q54 -65 166 -65t166 65v-46q-55 -64 -166 -64q-109 0 -166 64z" />
    <glyph glyph-name="Uring" unicode="&#x16e;" horiz-adv-x="1337" 
d="M230 0q-149 0 -149 148v552h66v-539q0 -56 22.5 -79t76.5 -23h844q54 0 76.5 23t22.5 79v539h67v-552q0 -148 -149 -148h-877zM593 809q0 -30 36 -30h79q36 0 36 30q0 29 -36 29h-79q-36 0 -36 -29zM705 751h-73q-71 0 -71 58q0 57 71 57h73q70 0 70 -57q0 -58 -70 -58z
" />
    <glyph glyph-name="uring" unicode="&#x16f;" horiz-adv-x="1185" 
d="M948 57q53 0 75 22.5t22 75.5v448h65v-457q0 -75 -35 -110.5t-110 -35.5h-744q-75 0 -110.5 35.5t-35.5 110.5v457h65v-448q0 -53 22 -75.5t76 -22.5h710zM517 718q0 -30 36 -30h79q36 0 36 30q0 29 -36 29h-79q-36 0 -36 -29zM629 660h-73q-71 0 -71 58q0 57 71 57h73
q70 0 70 -57q0 -58 -70 -58z" />
    <glyph glyph-name="Uhungarumlaut" unicode="&#x170;" horiz-adv-x="1337" 
d="M230 0q-149 0 -149 148v552h66v-539q0 -56 22.5 -79t76.5 -23h844q54 0 76.5 23t22.5 79v539h67v-552q0 -148 -149 -148h-877zM954 856l-180 -104h-66l150 104h96zM722 856l-180 -104h-66l150 104h96z" />
    <glyph glyph-name="uhungarumlaut" unicode="&#x171;" horiz-adv-x="1185" 
d="M948 57q53 0 75 22.5t22 75.5v448h65v-457q0 -75 -35 -110.5t-110 -35.5h-744q-75 0 -110.5 35.5t-35.5 110.5v457h65v-448q0 -53 22 -75.5t76 -22.5h710zM878 765l-180 -104h-66l150 104h96zM646 765l-180 -104h-66l150 104h96z" />
    <glyph glyph-name="Uogonek" unicode="&#x172;" horiz-adv-x="1337" 
d="M1223 -63h-21q-100 0 -152.5 -4t-71 -11t-18.5 -21q0 -18 45 -18h254v-45h-254q-79 0 -79 48q0 29 21 43t76 20.5t166 6.5h14v67q-35 -23 -96 -23h-877q-149 0 -149 148v552h66v-539q0 -56 22.5 -79t76.5 -23h845q54 0 76.5 23t22.5 79v539h66v-552q0 -72 -33 -108v-103z
" />
    <glyph glyph-name="uogonek" unicode="&#x173;" horiz-adv-x="1185" 
d="M1078 -63h-21q-100 0 -152.5 -4t-71 -11t-18.5 -21q0 -18 45 -18h254v-45h-254q-79 0 -79 48q0 29 21 43t76 20.5t166 6.5h14v66q-34 -22 -93 -22h-744q-75 0 -110.5 35.5t-35.5 110.5v457h65v-448q0 -53 22 -75.5t76 -22.5h710q53 0 75 22.5t22 75.5v448h65v-457
q0 -71 -32 -108v-101z" />
    <glyph glyph-name="Wcircumflex" unicode="&#x174;" horiz-adv-x="1699" 
d="M1469 0h-472q-71 0 -105.5 26.5t-41.5 86.5q-8 -60 -43 -86.5t-105 -26.5h-472q-149 0 -149 148v552h66v-539q0 -56 22.5 -79t76.5 -23h469q56 0 79 23.5t23 81.5v536h66v-536q0 -58 22.5 -81.5t78.5 -23.5h469q55 0 77 23t22 79v539h66v-552q0 -148 -149 -148zM849 824
l-135 -72h-61l158 104h77l158 -104h-61z" />
    <glyph glyph-name="wcircumflex" unicode="&#x175;" horiz-adv-x="1529" 
d="M765 102q-8 -55 -41.5 -78.5t-101.5 -23.5h-401q-75 0 -110.5 35.5t-35.5 110.5v457h65v-448q0 -53 22 -75.5t76 -22.5h402q50 0 71 22t21 72v452h65v-452q0 -50 21.5 -72t71.5 -22h401q54 0 76 22.5t22 75.5v448h65v-457q0 -75 -35.5 -110.5t-110.5 -35.5h-401
q-68 0 -101.5 23.5t-40.5 78.5zM764 733l-135 -72h-61l158 104h77l158 -104h-61z" />
    <glyph glyph-name="Ycircumflex" unicode="&#x176;" horiz-adv-x="1296" 
d="M1178 700h66v-231q0 -75 -36 -111.5t-112 -36.5h-415v-321h-66v321h-415q-76 0 -112 36.5t-36 111.5v231h66v-218q0 -56 22 -79.5t77 -23.5h862q55 0 77 23t22 80v218zM648 824l-135 -72h-61l158 104h77l158 -104h-61z" />
    <glyph glyph-name="ycircumflex" unicode="&#x177;" horiz-adv-x="1197" 
d="M924 -167h-808v57h800q68 0 99.5 30t31.5 100v66q-12 -36 -40.5 -52t-81.5 -16h-704q-75 0 -110.5 35.5t-35.5 110.5v439h65v-431q0 -53 22 -75t76 -22h711q54 0 76 22t22 75v431h64v-583q0 -96 -45 -141.5t-142 -45.5zM597 733l-135 -72h-61l158 104h77l158 -104h-61z
" />
    <glyph glyph-name="Ydieresis" unicode="&#x178;" horiz-adv-x="1296" 
d="M1178 700h66v-231q0 -75 -36 -111.5t-112 -36.5h-415v-321h-66v321h-415q-76 0 -112 36.5t-36 111.5v231h66v-218q0 -56 22 -79.5t77 -23.5h862q55 0 77 23t22 80v218zM564 827v-53h-95v53h95zM828 827v-53h-95v53h95z" />
    <glyph glyph-name="Zacute" unicode="&#x179;" horiz-adv-x="1278" 
d="M1026 379q72 0 101 28.5t29 101.5v132h-1077v59h1143v-200q0 -179 -179 -179h-794q-72 0 -101 -28.5t-29 -101.5v-132h1103v-59h-1169v200q0 179 179 179h794zM819 856l-180 -104h-66l150 104h96z" />
    <glyph glyph-name="zacute" unicode="&#x17a;" horiz-adv-x="1145" 
d="M229 273q-59 0 -85.5 -27t-26.5 -86v-103h974v-57h-1038v160q0 170 169 170h693q59 0 85.5 26.5t26.5 85.5v104h-953v57h1017v-161q0 -169 -169 -169h-693zM760 765l-180 -104h-66l150 104h96z" />
    <glyph glyph-name="Zdotaccent" unicode="&#x17b;" horiz-adv-x="1278" 
d="M1026 379q72 0 101 28.5t29 101.5v132h-1077v59h1143v-200q0 -179 -179 -179h-794q-72 0 -101 -28.5t-29 -101.5v-132h1103v-59h-1169v200q0 179 179 179h794zM697 827v-53h-95v53h95z" />
    <glyph glyph-name="zdotaccent" unicode="&#x17c;" horiz-adv-x="1145" 
d="M229 273q-59 0 -85.5 -27t-26.5 -86v-103h974v-57h-1038v160q0 170 169 170h693q59 0 85.5 26.5t26.5 85.5v104h-953v57h1017v-161q0 -169 -169 -169h-693zM638 736v-53h-95v53h95z" />
    <glyph glyph-name="Zcaron" unicode="&#x17d;" horiz-adv-x="1278" 
d="M1026 379q72 0 101 28.5t29 101.5v132h-1077v59h1143v-200q0 -179 -179 -179h-794q-72 0 -101 -28.5t-29 -101.5v-132h1103v-59h-1169v200q0 179 179 179h794zM514 856l135 -71l136 71h61l-158 -104h-77l-158 104h61z" />
    <glyph glyph-name="zcaron" unicode="&#x17e;" horiz-adv-x="1145" 
d="M229 273q-59 0 -85.5 -27t-26.5 -86v-103h974v-57h-1038v160q0 170 169 170h693q59 0 85.5 26.5t26.5 85.5v104h-953v57h1017v-161q0 -169 -169 -169h-693zM455 765l135 -71l136 71h61l-158 -104h-77l-158 104h61z" />
    <glyph glyph-name="florin" unicode="&#x192;" 
d="M1183 379v-58h-910v-178q0 -75 -34 -109t-109 -34h-81v59h63q54 0 74.5 20.5t20.5 74.5v167h-158v58h158v173q0 75 36 111.5t111 36.5h921v-59h-905q-53 0 -75 -21.5t-22 -75.5v-165h910z" />
    <glyph glyph-name="AEacute" unicode="&#x1fc;" horiz-adv-x="2026" 
d="M1005 0v321h-858v-321h-66v552q0 148 149 148h1745v-59h-906v-262h806v-58h-806v-262h906v-59h-970zM246 641q-54 0 -76.5 -23t-22.5 -79v-160h858v262h-759zM1207 856l-180 -104h-66l150 104h96z" />
    <glyph glyph-name="aeacute" unicode="&#x1fd;" horiz-adv-x="1741" 
d="M1626 409v57q0 43 -18 61.5t-61 18.5h-551q-50 0 -71.5 -22t-21.5 -72v-122h644q43 0 61 18t18 61zM115 193v-56q0 -43 18 -61.5t61 -18.5h551q50 0 71.5 22t21.5 72v122h-644q-43 0 -61 -18.5t-18 -61.5zM728 0h-549q-66 0 -97.5 32t-31.5 100v65q0 69 31.5 101t97.5 32
h659v122q0 50 -21.5 72t-71.5 22h-665v57h648q68 0 101.5 -23.5t41.5 -78.5q7 55 40.5 78.5t101.5 23.5h549q66 0 97.5 -32t31.5 -100v-66q0 -69 -31.5 -100.5t-97.5 -31.5h-659v-122q0 -51 21 -72.5t72 -21.5h665v-57h-648q-68 0 -101.5 23.5t-40.5 78.5
q-8 -55 -41.5 -78.5t-101.5 -23.5zM1040 765l-180 -104h-66l150 104h96z" />
    <glyph glyph-name="Oslashacute" unicode="&#x1fe;" horiz-adv-x="1320" 
d="M220 0q-149 0 -149 148v404q0 148 149 148h881q76 0 112 -36.5t36 -111.5v-404q0 -75 -36 -111.5t-112 -36.5h-881zM186 65l861 576h-811q-54 0 -76.5 -23t-22.5 -79v-378q0 -79 49 -96zM1183 161v378q0 78 -49 95l-861 -575h811q55 0 77 23t22 79zM829 856l-180 -104
h-66l150 104h96z" />
    <glyph glyph-name="oslashacute" unicode="&#x1ff;" horiz-adv-x="1168" 
d="M957 603q75 0 110.5 -35.5t35.5 -110.5v-311q0 -75 -35.5 -110.5t-110.5 -35.5h-746q-75 0 -110 35.5t-35 110.5v311q0 75 35 110.5t110 35.5h746zM940 57q54 0 76 22.5t22 75.5v293q0 41 -13 63t-42 30l-718 -484h675zM179 63l715 483h-666q-54 0 -76 -22.5t-22 -75.5
v-293q0 -75 49 -92zM754 765l-180 -104h-66l150 104h96z" />
    <glyph glyph-name="uni0218" unicode="&#x218;" horiz-adv-x="1268" 
d="M209 321q-75 0 -110.5 35.5t-35.5 109.5v89q0 75 35.5 110t110.5 35h978v-59h-964q-50 0 -72 -23t-22 -75v-66q0 -52 22 -75t72 -23h844q75 0 110.5 -35.5t35.5 -109.5v-89q0 -75 -35.5 -110t-110.5 -35h-1013v59h999q50 0 72 23t22 75v66q0 52 -22 75t-72 23h-844z
M679 -85v-46q0 -77 -68 -77h-19v25h19q29 0 29 36v13h-50v49h89z" />
    <glyph glyph-name="uni0219" unicode="&#x219;" horiz-adv-x="1135" 
d="M1055 546h-857q-43 0 -61 -18.5t-18 -61.5v-57q0 -43 18 -61t61 -18h758q66 0 97.5 -32t31.5 -101v-65q0 -68 -31.5 -100t-97.5 -32h-902v57h887q43 0 61 18.5t18 61.5v56q0 43 -18 61.5t-61 18.5h-758q-66 0 -97.5 31.5t-31.5 100.5v66q0 68 31.5 100t97.5 32h872v-57z
M599 -85v-46q0 -77 -68 -77h-19v25h19q29 0 29 36v13h-50v49h89z" />
    <glyph glyph-name="uni021A" unicode="&#x21a;" horiz-adv-x="1225" 
d="M1202 700v-59h-556v-641h-66v641h-557v59h1179zM657 -85v-46q0 -77 -68 -77h-19v25h19q29 0 29 36v13h-50v49h89z" />
    <glyph glyph-name="uni021B" unicode="&#x21b;" horiz-adv-x="1038" 
d="M221 0q-75 0 -110.5 35.5t-35.5 110.5v624h65v-167h846v-57h-846v-391q0 -53 22 -75.5t76 -22.5h748v-57h-765zM564 -85v-46q0 -77 -68 -77h-19v25h19q29 0 29 36v13h-50v49h89z" />
    <glyph glyph-name="uni0237" unicode="&#x237;" horiz-adv-x="252" 
d="M-33 -110h45q52 0 70 18t18 71v624h65v-632q0 -75 -31.5 -106.5t-106.5 -31.5h-60v57z" />
    <glyph glyph-name="circumflex" unicode="&#x2c6;" horiz-adv-x="371" 
d="M185 733l-135 -72h-61l158 104h77l158 -104h-61z" />
    <glyph glyph-name="caron" unicode="&#x2c7;" horiz-adv-x="371" 
d="M50 765l135 -71l136 71h61l-158 -104h-77l-158 104h61z" />
    <glyph glyph-name="breve" unicode="&#x2d8;" horiz-adv-x="371" 
d="M19 724v46q54 -65 166 -65t166 65v-46q-55 -64 -166 -64q-109 0 -166 64z" />
    <glyph glyph-name="dotaccent" unicode="&#x2d9;" horiz-adv-x="371" 
d="M233 736v-53h-95v53h95z" />
    <glyph glyph-name="ring" unicode="&#x2da;" horiz-adv-x="371" 
d="M110 718q0 -30 36 -30h79q36 0 36 30q0 29 -36 29h-79q-36 0 -36 -29zM222 660h-73q-71 0 -71 58q0 57 71 57h73q70 0 70 -57q0 -58 -70 -58z" />
    <glyph glyph-name="ogonek" unicode="&#x2db;" horiz-adv-x="383" 
d="M322 -63h-21q-100 0 -152.5 -4t-71 -11t-18.5 -21q0 -18 45 -18h254v-45h-254q-79 0 -79 48q0 29 21 43t76 20.5t166 6.5h14v44h20v-63z" />
    <glyph glyph-name="tilde" unicode="&#x2dc;" horiz-adv-x="371" 
d="M19 666v45q45 44 91 44q28 0 78.5 -24.5t77.5 -24.5q43 0 85 45v-45q-45 -44 -91 -44q-29 0 -79.5 24t-77.5 24q-43 0 -84 -44z" />
    <glyph glyph-name="hungarumlaut" unicode="&#x2dd;" horiz-adv-x="371" 
d="M438 765l-180 -104h-66l150 104h96zM206 765l-180 -104h-66l150 104h96z" />
    <glyph glyph-name="pi" unicode="&#x3c0;" 
d="M133 0v603h1034v-603h-65v546h-904v-546h-65z" />
    <glyph glyph-name="uni1E02" unicode="&#x1e02;" horiz-adv-x="1330" 
d="M1265 216v-72q0 -74 -34.5 -109t-109.5 -35h-1030v700h1030q75 0 109.5 -35t34.5 -109v-72q0 -63 -24.5 -95t-83.5 -39q59 -7 83.5 -39.5t24.5 -94.5zM1104 379q53 0 74 22.5t21 77.5v64q0 52 -22 75t-72 23h-948v-262h947zM157 321v-262h948q50 0 72 23t22 75v64
q0 55 -21 77.5t-74 22.5h-947zM714 827v-53h-95v53h95z" />
    <glyph glyph-name="uni1E03" unicode="&#x1e03;" horiz-adv-x="1180" 
d="M75 146v624h65v-236q22 69 121 69h708q75 0 110 -35.5t35 -110.5v-311q0 -75 -35 -110.5t-110 -35.5h-748q-75 0 -110.5 35.5t-35.5 110.5zM140 448v-293q0 -53 22 -75.5t76 -22.5h714q53 0 75 22.5t22 75.5v293q0 53 -22 75.5t-75 22.5h-714q-54 0 -76 -22.5t-22 -75.5z
M661 736v-53h-95v53h95z" />
    <glyph glyph-name="uni1E0A" unicode="&#x1e0a;" horiz-adv-x="1331" 
d="M1059 700q101 0 153.5 -52t52.5 -154v-288q0 -102 -52.5 -154t-153.5 -52h-968v700h968zM1047 59q77 0 114.5 36.5t37.5 115.5v278q0 79 -37.5 115.5t-114.5 36.5h-890v-582h890zM703 827v-53h-95v53h95z" />
    <glyph glyph-name="uni1E0B" unicode="&#x1e0b;" horiz-adv-x="1180" 
d="M1104 770v-624q0 -75 -35 -110.5t-110 -35.5h-748q-75 0 -110 35.5t-35 110.5v311q0 75 35 110.5t110 35.5h707q100 0 122 -69v236h64zM1040 155v293q0 53 -22.5 75.5t-75.5 22.5h-714q-53 0 -75.5 -22.5t-22.5 -75.5v-293q0 -53 22.5 -75.5t75.5 -22.5h714
q53 0 75.5 22.5t22.5 75.5zM612 736v-53h-95v53h95z" />
    <glyph glyph-name="uni1E1E" unicode="&#x1e1e;" horiz-adv-x="1259" 
d="M91 0v700h1145v-59h-1079v-262h979v-58h-979v-321h-66zM700 827v-53h-95v53h95z" />
    <glyph glyph-name="uni1E1F" unicode="&#x1e1f;" horiz-adv-x="1088" 
d="M256 546q-61 0 -88.5 -27t-27.5 -89v-100h864v-57h-864v-273h-65v435q0 86 41.5 127t128.5 41h816v-57h-805zM632 736v-53h-95v53h95z" />
    <glyph glyph-name="uni1E40" unicode="&#x1e40;" horiz-adv-x="1699" 
d="M997 700h472q149 0 149 -148v-552h-66v539q0 56 -22 79t-77 23h-469q-56 0 -78.5 -23.5t-22.5 -81.5v-536h-66v536q0 58 -23 81.5t-79 23.5h-469q-54 0 -76.5 -23t-22.5 -79v-539h-66v552q0 148 149 148h472q70 0 105 -26.5t43 -86.5q7 60 41.5 86.5t105.5 26.5zM897 827
v-53h-95v53h95z" />
    <glyph glyph-name="uni1E41" unicode="&#x1e41;" horiz-adv-x="1529" 
d="M765 501q7 55 40.5 78.5t101.5 23.5h401q75 0 110.5 -35.5t35.5 -110.5v-457h-65v448q0 53 -22 75.5t-76 22.5h-401q-50 0 -71.5 -22t-21.5 -72v-452h-65v452q0 50 -21 72t-71 22h-402q-54 0 -76 -22.5t-22 -75.5v-448h-65v457q0 75 35.5 110.5t110.5 35.5h401
q68 0 101.5 -23.5t41.5 -78.5zM812 736v-53h-95v53h95z" />
    <glyph glyph-name="uni1E56" unicode="&#x1e56;" horiz-adv-x="1299" 
d="M91 0v700h1025q76 0 111 -35t35 -110v-89q0 -74 -35 -109.5t-111 -35.5h-959v-321h-66zM1196 543q0 52 -22 75t-72 23h-945v-262h945q50 0 72 23t22 75v66zM717 827v-53h-95v53h95z" />
    <glyph glyph-name="uni1E57" unicode="&#x1e57;" horiz-adv-x="1180" 
d="M75 -167v624q0 75 35.5 110.5t110.5 35.5h748q75 0 110 -35.5t35 -110.5v-311q0 -75 -35 -110.5t-110 -35.5h-708q-99 0 -121 69v-236h-65zM140 448v-293q0 -53 22 -75.5t76 -22.5h714q53 0 75 22.5t22 75.5v293q0 53 -22 75.5t-75 22.5h-714q-54 0 -76 -22.5t-22 -75.5z
M637 736v-53h-95v53h95z" />
    <glyph glyph-name="uni1E60" unicode="&#x1e60;" horiz-adv-x="1268" 
d="M209 321q-75 0 -110.5 35.5t-35.5 109.5v89q0 75 35.5 110t110.5 35h978v-59h-964q-50 0 -72 -23t-22 -75v-66q0 -52 22 -75t72 -23h844q75 0 110.5 -35.5t35.5 -109.5v-89q0 -75 -35.5 -110t-110.5 -35h-1013v59h999q50 0 72 23t22 75v66q0 52 -22 75t-72 23h-844z
M682 827v-53h-95v53h95z" />
    <glyph glyph-name="uni1E61" unicode="&#x1e61;" horiz-adv-x="1135" 
d="M1055 546h-857q-43 0 -61 -18.5t-18 -61.5v-57q0 -43 18 -61t61 -18h758q66 0 97.5 -32t31.5 -101v-65q0 -68 -31.5 -100t-97.5 -32h-902v57h887q43 0 61 18.5t18 61.5v56q0 43 -18 61.5t-61 18.5h-758q-66 0 -97.5 31.5t-31.5 100.5v66q0 68 31.5 100t97.5 32h872v-57z
M615 736v-53h-95v53h95z" />
    <glyph glyph-name="uni1E6A" unicode="&#x1e6a;" horiz-adv-x="1225" 
d="M1202 700v-59h-556v-641h-66v641h-557v59h1179zM660 827v-53h-95v53h95z" />
    <glyph glyph-name="uni1E6B" unicode="&#x1e6b;" horiz-adv-x="1038" 
d="M221 0q-75 0 -110.5 35.5t-35.5 110.5v624h65v-167h846v-57h-846v-391q0 -53 22 -75.5t76 -22.5h748v-57h-765zM606 736v-53h-95v53h95z" />
    <glyph glyph-name="Wgrave" unicode="&#x1e80;" horiz-adv-x="1699" 
d="M1469 0h-472q-71 0 -105.5 26.5t-41.5 86.5q-8 -60 -43 -86.5t-105 -26.5h-472q-149 0 -149 148v552h66v-539q0 -56 22.5 -79t76.5 -23h469q56 0 79 23.5t23 81.5v536h66v-536q0 -58 22.5 -81.5t78.5 -23.5h469q55 0 77 23t22 79v539h66v-552q0 -148 -149 -148zM859 752
l-176 104h90l152 -104h-66z" />
    <glyph glyph-name="wgrave" unicode="&#x1e81;" horiz-adv-x="1529" 
d="M765 102q-8 -55 -41.5 -78.5t-101.5 -23.5h-401q-75 0 -110.5 35.5t-35.5 110.5v457h65v-448q0 -53 22 -75.5t76 -22.5h402q50 0 71 22t21 72v452h65v-452q0 -50 21.5 -72t71.5 -22h401q54 0 76 22.5t22 75.5v448h65v-457q0 -75 -35.5 -110.5t-110.5 -35.5h-401
q-68 0 -101.5 23.5t-40.5 78.5zM774 661l-176 104h90l152 -104h-66z" />
    <glyph glyph-name="Wacute" unicode="&#x1e82;" horiz-adv-x="1699" 
d="M1469 0h-472q-71 0 -105.5 26.5t-41.5 86.5q-8 -60 -43 -86.5t-105 -26.5h-472q-149 0 -149 148v552h66v-539q0 -56 22.5 -79t76.5 -23h469q56 0 79 23.5t23 81.5v536h66v-536q0 -58 22.5 -81.5t78.5 -23.5h469q55 0 77 23t22 79v539h66v-552q0 -148 -149 -148zM1019 856
l-180 -104h-66l150 104h96z" />
    <glyph glyph-name="wacute" unicode="&#x1e83;" horiz-adv-x="1529" 
d="M765 102q-8 -55 -41.5 -78.5t-101.5 -23.5h-401q-75 0 -110.5 35.5t-35.5 110.5v457h65v-448q0 -53 22 -75.5t76 -22.5h402q50 0 71 22t21 72v452h65v-452q0 -50 21.5 -72t71.5 -22h401q54 0 76 22.5t22 75.5v448h65v-457q0 -75 -35.5 -110.5t-110.5 -35.5h-401
q-68 0 -101.5 23.5t-40.5 78.5zM934 765l-180 -104h-66l150 104h96z" />
    <glyph glyph-name="Wdieresis" unicode="&#x1e84;" horiz-adv-x="1699" 
d="M1469 0h-472q-71 0 -105.5 26.5t-41.5 86.5q-8 -60 -43 -86.5t-105 -26.5h-472q-149 0 -149 148v552h66v-539q0 -56 22.5 -79t76.5 -23h469q56 0 79 23.5t23 81.5v536h66v-536q0 -58 22.5 -81.5t78.5 -23.5h469q55 0 77 23t22 79v539h66v-552q0 -148 -149 -148zM765 827
v-53h-95v53h95zM1029 827v-53h-95v53h95z" />
    <glyph glyph-name="wdieresis" unicode="&#x1e85;" horiz-adv-x="1529" 
d="M765 102q-8 -55 -41.5 -78.5t-101.5 -23.5h-401q-75 0 -110.5 35.5t-35.5 110.5v457h65v-448q0 -53 22 -75.5t76 -22.5h402q50 0 71 22t21 72v452h65v-452q0 -50 21.5 -72t71.5 -22h401q54 0 76 22.5t22 75.5v448h65v-457q0 -75 -35.5 -110.5t-110.5 -35.5h-401
q-68 0 -101.5 23.5t-40.5 78.5zM680 736v-53h-95v53h95zM944 736v-53h-95v53h95z" />
    <glyph glyph-name="Ygrave" unicode="&#x1ef2;" horiz-adv-x="1296" 
d="M1178 700h66v-231q0 -75 -36 -111.5t-112 -36.5h-415v-321h-66v321h-415q-76 0 -112 36.5t-36 111.5v231h66v-218q0 -56 22 -79.5t77 -23.5h862q55 0 77 23t22 80v218zM657 752l-176 104h90l152 -104h-66z" />
    <glyph glyph-name="ygrave" unicode="&#x1ef3;" horiz-adv-x="1197" 
d="M924 -167h-808v57h800q68 0 99.5 30t31.5 100v66q-12 -36 -40.5 -52t-81.5 -16h-704q-75 0 -110.5 35.5t-35.5 110.5v439h65v-431q0 -53 22 -75t76 -22h711q54 0 76 22t22 75v431h64v-583q0 -96 -45 -141.5t-142 -45.5zM607 661l-176 104h90l152 -104h-66z" />
    <glyph glyph-name="uni2010" unicode="&#x2010;" horiz-adv-x="592" 
d="M546 356v-58h-500v58h500z" />
    <glyph glyph-name="figuredash" unicode="&#x2012;" 
d="M1300 356v-58h-1300v58h1300z" />
    <glyph glyph-name="endash" unicode="&#x2013;" horiz-adv-x="766" 
d="M766 356v-58h-766v58h766z" />
    <glyph glyph-name="emdash" unicode="&#x2014;" horiz-adv-x="1532" 
d="M1532 356v-58h-1532v58h1532z" />
    <glyph glyph-name="quoteleft" unicode="&#x2018;" horiz-adv-x="289" 
d="M96 536v65q0 99 82 99h15v-30h-14q-19 0 -27.5 -11.5t-8.5 -39.5v-18h50v-65h-97z" />
    <glyph glyph-name="quoteright" unicode="&#x2019;" horiz-adv-x="289" 
d="M193 700v-65q0 -99 -82 -99h-15v30h14q19 0 27.5 11.5t8.5 39.5v18h-50v65h97z" />
    <glyph glyph-name="quotesinglbase" unicode="&#x201a;" horiz-adv-x="289" 
d="M193 68v-65q0 -99 -82 -99h-15v30h14q19 0 27.5 11.5t8.5 39.5v18h-50v65h97z" />
    <glyph glyph-name="quotedblleft" unicode="&#x201c;" horiz-adv-x="476" 
d="M283 536v65q0 99 82 99h15v-30h-14q-19 0 -27.5 -11.5t-8.5 -39.5v-18h50v-65h-97zM96 536v65q0 99 82 99h15v-30h-14q-19 0 -27.5 -11.5t-8.5 -39.5v-18h50v-65h-97z" />
    <glyph glyph-name="quotedblright" unicode="&#x201d;" horiz-adv-x="476" 
d="M380 700v-65q0 -99 -82 -99h-15v30h14q19 0 27.5 11.5t8.5 39.5v18h-50v65h97zM193 700v-65q0 -99 -82 -99h-15v30h14q19 0 27.5 11.5t8.5 39.5v18h-50v65h97z" />
    <glyph glyph-name="quotedblbase" unicode="&#x201e;" horiz-adv-x="476" 
d="M380 68v-65q0 -99 -82 -99h-15v30h14q19 0 27.5 11.5t8.5 39.5v18h-50v65h97zM193 68v-65q0 -99 -82 -99h-15v30h14q19 0 27.5 11.5t8.5 39.5v18h-50v65h97z" />
    <glyph glyph-name="dagger" unicode="&#x2020;" horiz-adv-x="1189" 
d="M1151 492v-58h-524v-566h-66v566h-523v58h523v248h66v-248h524z" />
    <glyph glyph-name="daggerdbl" unicode="&#x2021;" horiz-adv-x="1189" 
d="M1151 217v-58h-524v-291h-66v291h-523v58h523v217h-523v58h523v248h66v-248h524v-58h-524v-217h524z" />
    <glyph glyph-name="bullet" unicode="&#x2022;" horiz-adv-x="766" 
d="M445 163h-124q-142 0 -142 134v106q0 134 142 134h124q142 0 142 -134v-106q0 -134 -142 -134z" />
    <glyph glyph-name="ellipsis" unicode="&#x2026;" horiz-adv-x="663" 
d="M193 68v-68h-97v68h97zM380 68v-68h-97v68h97zM567 68v-68h-97v68h97z" />
    <glyph glyph-name="perthousand" unicode="&#x2030;" horiz-adv-x="2647" 
d="M723 0l357 700h59l-356 -700h-60zM1104 117v300q0 60 28.5 88.5t88.5 28.5h462q60 0 88.5 -28.5t28.5 -88.5v-300q0 -60 -28.5 -88.5t-88.5 -28.5h-462q-60 0 -88.5 28.5t-28.5 88.5zM1740 121v292q0 36 -16 51.5t-50 15.5h-443q-35 0 -51 -15.5t-16 -51.5v-292
q0 -36 16 -51.5t51 -15.5h443q34 0 50 15.5t16 51.5zM1888 117v300q0 60 28.5 88.5t88.5 28.5h462q60 0 88.5 -28.5t28.5 -88.5v-300q0 -60 -28.5 -88.5t-88.5 -28.5h-462q-60 0 -88.5 28.5t-28.5 88.5zM2524 121v292q0 36 -16 51.5t-50 15.5h-443q-35 0 -51 -15.5
t-16 -51.5v-292q0 -36 16 -51.5t51 -15.5h443q34 0 50 15.5t16 51.5zM63 283v300q0 60 28.5 88.5t88.5 28.5h462q60 0 88.5 -28.5t28.5 -88.5v-300q0 -60 -28.5 -88.5t-88.5 -28.5h-462q-60 0 -88.5 28.5t-28.5 88.5zM699 287v292q0 36 -16 51.5t-50 15.5h-443
q-35 0 -51 -15.5t-16 -51.5v-292q0 -36 16 -51.5t51 -15.5h443q34 0 50 15.5t16 51.5z" />
    <glyph glyph-name="guilsinglleft" unicode="&#x2039;" horiz-adv-x="323" 
d="M293 51h-71l-191 249l191 249h71l-193 -249z" />
    <glyph glyph-name="guilsinglright" unicode="&#x203a;" horiz-adv-x="323" 
d="M101 51h-71l193 249l-193 249h71l191 -249z" />
    <glyph glyph-name="fraction" unicode="&#x2044;" horiz-adv-x="481" 
d="M32 0l357 700h59l-356 -700h-60z" />
    <glyph glyph-name="zerosuperior" unicode="&#x2070;" horiz-adv-x="822" 
d="M63 283v300q0 60 28.5 88.5t88.5 28.5h462q60 0 88.5 -28.5t28.5 -88.5v-300q0 -60 -28.5 -88.5t-88.5 -28.5h-462q-60 0 -88.5 28.5t-28.5 88.5zM699 287v292q0 36 -16 51.5t-50 15.5h-443q-35 0 -51 -15.5t-16 -51.5v-292q0 -36 16 -51.5t51 -15.5h443q34 0 50 15.5
t16 51.5z" />
    <glyph glyph-name="foursuperior" unicode="&#x2074;" horiz-adv-x="822" 
d="M681 460v240h60v-534h-60v240h-518q-60 0 -88 28.5t-28 88.5v177h60v-173q0 -36 16 -51.5t50 -15.5h508z" />
    <glyph glyph-name="zeroinferior" unicode="&#x2080;" horiz-adv-x="822" 
d="M63 117v300q0 60 28.5 88.5t88.5 28.5h462q60 0 88.5 -28.5t28.5 -88.5v-300q0 -60 -28.5 -88.5t-88.5 -28.5h-462q-60 0 -88.5 28.5t-28.5 88.5zM699 121v292q0 36 -16 51.5t-50 15.5h-443q-35 0 -51 -15.5t-16 -51.5v-292q0 -36 16 -51.5t51 -15.5h443q34 0 50 15.5
t16 51.5z" />
    <glyph glyph-name="oneinferior" unicode="&#x2081;" horiz-adv-x="822" 
d="M123 0v54h328v426h-328v54h388v-480h249v-54h-637z" />
    <glyph glyph-name="twoinferior" unicode="&#x2082;" horiz-adv-x="822" 
d="M716 363v49q0 38 -15 53.5t-52 15.5h-577v53h588q60 0 88 -28.5t28 -88.5v-60q0 -60 -28 -88.5t-88 -28.5h-451q-56 0 -77 -20.5t-21 -76.5v-89h665v-54h-726v152q0 142 142 142h457q38 0 52.5 15t14.5 54z" />
    <glyph glyph-name="threeinferior" unicode="&#x2083;" horiz-adv-x="822" 
d="M772 418v-46q0 -48 -17.5 -73.5t-68.5 -31.5q51 -6 68.5 -31.5t17.5 -73.5v-46q0 -59 -28 -87.5t-87 -28.5h-614v54h602q38 0 52.5 15t14.5 53v50q0 36 -15.5 52t-50.5 16h-522v54h522q35 0 50.5 16t15.5 52v50q0 38 -14.5 53t-52.5 15h-602v54h614q59 0 87 -28.5
t28 -87.5z" />
    <glyph glyph-name="fourinferior" unicode="&#x2084;" horiz-adv-x="822" 
d="M681 294v240h60v-534h-60v240h-518q-60 0 -88 28.5t-28 88.5v177h60v-173q0 -36 16 -51.5t50 -15.5h508z" />
    <glyph glyph-name="Euro" unicode="&#x20ac;" 
d="M260 0q-76 0 -112 36.5t-36 111.5v173h-86v58h86v173q0 75 36 111.5t112 36.5h991v-59h-974q-55 0 -77 -23t-22 -79v-160h970v-58h-970v-160q0 -56 22 -79t77 -23h974v-59h-991z" />
    <glyph glyph-name="uni2117" unicode="&#x2117;" horiz-adv-x="1399" 
d="M299 370h797q26 0 26 24v51q0 24 -26 24h-797v-99zM1168 443v-48q0 -66 -67 -66h-802v-140h-47v321h849q35 0 51 -16t16 -51zM232 0q-83 0 -122 39.5t-39 120.5v380q0 81 39 120.5t122 39.5h935q161 0 161 -160v-380q0 -160 -161 -160h-935zM234 42h930q117 0 117 117
v382q0 117 -117 117h-930q-116 0 -116 -117v-382q0 -117 116 -117z" />
    <glyph glyph-name="trademark" unicode="&#x2122;" horiz-adv-x="1962" 
d="M1331 167v398q0 41 -17 61t-56 20h-300q-34 0 -48.5 -14.5t-14.5 -49.5v-415h-60v418q0 59 27.5 87t87.5 28h289q58 0 87 -22.5t35 -71.5q7 50 36 72t87 22h288q60 0 88 -28t28 -87v-418h-61v415q0 35 -14.5 49.5t-48.5 14.5h-299q-39 0 -56.5 -20t-17.5 -61v-398h-60z
M747 700v-54h-328v-479h-60v479h-328v54h716z" />
    <glyph glyph-name="uni2126" unicode="&#x2126;" 
d="M1171 374v169q0 52 -22 75t-72 23h-854q-50 0 -72 -23t-22 -75v-169q0 -52 22 -75.5t72 -23.5h336v-275h-505v59h447v158h-292q-75 0 -110.5 35.5t-35.5 109.5v193q0 75 35.5 110t110.5 35h882q75 0 110.5 -35t35.5 -110v-193q0 -74 -35 -109.5t-110 -35.5h-293v-158h447
v-59h-505v275h336q50 0 72 23.5t22 75.5z" />
    <glyph glyph-name="onethird" unicode="&#x2153;" horiz-adv-x="1863" 
d="M123 166v54h328v426h-328v54h388v-480h249v-54h-637zM723 0l357 700h59l-356 -700h-60zM1813 418v-46q0 -48 -17.5 -73.5t-68.5 -31.5q51 -6 68.5 -31.5t17.5 -73.5v-46q0 -59 -28 -87.5t-87 -28.5h-614v54h602q38 0 52.5 15t14.5 53v50q0 36 -15.5 52t-50.5 16h-522v54
h522q35 0 50.5 16t15.5 52v50q0 38 -14.5 53t-52.5 15h-602v54h614q59 0 87 -28.5t28 -87.5z" />
    <glyph glyph-name="twothirds" unicode="&#x2154;" horiz-adv-x="1863" 
d="M716 529v49q0 38 -15 53.5t-52 15.5h-577v53h588q60 0 88 -28.5t28 -88.5v-60q0 -60 -28 -88.5t-88 -28.5h-451q-56 0 -77 -20.5t-21 -76.5v-89h665v-54h-726v152q0 142 142 142h457q38 0 52.5 15t14.5 54zM723 0l357 700h59l-356 -700h-60zM1813 418v-46
q0 -48 -17.5 -73.5t-68.5 -31.5q51 -6 68.5 -31.5t17.5 -73.5v-46q0 -59 -28 -87.5t-87 -28.5h-614v54h602q38 0 52.5 15t14.5 53v50q0 36 -15.5 52t-50.5 16h-522v54h522q35 0 50.5 16t15.5 52v50q0 38 -14.5 53t-52.5 15h-602v54h614q59 0 87 -28.5t28 -87.5z" />
    <glyph glyph-name="partialdiff" unicode="&#x2202;" 
d="M1231 494v-348q0 -75 -35 -110.5t-111 -35.5h-886q-75 0 -110.5 35t-35.5 110v89q0 74 35.5 109.5t110.5 35.5h966v110q0 78 -38 115t-114 37h-933v59h946q101 0 153 -52t52 -154zM119 223v-66q0 -52 22 -75t72 -23h857q51 0 73 22.5t22 76.5v163h-952q-50 0 -72 -23
t-22 -75z" />
    <glyph glyph-name="uni2206" unicode="&#x2206;" 
d="M51 0l598 720l600 -720h-1198zM649 623l-472 -568h944z" />
    <glyph glyph-name="product" unicode="&#x220f;" 
d="M1163 -132v773h-1026v-773h-66v832h1158v-832h-66z" />
    <glyph glyph-name="summation" unicode="&#x2211;" 
d="M1229 -73v-59h-1158v50l504 366l-504 366v50h1158v-59h-1041l493 -357l-493 -357h1041z" />
    <glyph glyph-name="minus" unicode="&#x2212;" 
d="M71 321v57h1158v-57h-1158z" />
    <glyph glyph-name="radical" unicode="&#x221a;" 
d="M841 0l-163 321h-607v57h648l158 -311l323 633h68l-354 -700h-73z" />
    <glyph glyph-name="infinity" unicode="&#x221e;" horiz-adv-x="733" 
d="M345 317q-12 0 -23.5 12.5t-14.5 12.5t-11 -2t-14 -2q-8 0 -14.5 8t-6.5 17q0 22 8 35q-7 -7 -16 -37t-26 -41q-18 -12 -18 -40q0 -11 11 -21.5t11 -12.5q0 -4 -3 -4q-7 0 -12 5q13 -68 48 -104h-55q-35 114 -35 226q0 105 40.5 171.5t135.5 66.5q190 0 190 -254
q0 -75 -25 -210h-73q53 47 62 117q-4 -8 -13 -8q-3 0 -3 2l4 4q5 3 9.5 11.5t4.5 21.5q-4 -6 -15 -6q-1 0 -10.5 -4.5t-15.5 -4.5q-14 0 -40 3.5t-70 3.5q-22 0 -52.5 -6t-38.5 -6q-5 0 -13 2t-11 2q-28 0 -28 12q0 10 37 18.5t74 8.5q5 0 12 -0.5t12 -0.5t15.5 2t14.5 2
q112 0 127 -20q-1 16 -14 29t-30 13q-6 0 -6 7q0 57 -16 58q4 -7 4 -17q0 -18 -11 -32t-27 -14q-4 0 -10 2l-7 2q-1 0 -14.5 -14t-27.5 -14zM733 291v-148q-22 48 -69 112.5t-67 64.5q6 -85 -12 -177h-42q16 104 16 199q0 319 -213 319q-53 0 -91.5 -26.5t-59 -72.5
t-30 -97.5t-9.5 -111.5q0 -123 29 -210h-47q-19 67 -19 184q-17 -9 -39.5 -43.5t-49 -84.5t-30.5 -56v148q11 27 33 54t50 53.5t30 28.5q3 72 27 135t75.5 107.5t120.5 44.5q67 0 115.5 -22.5t76.5 -64t42.5 -87t22.5 -105.5q22 -5 68 -48t72 -96zM345 503q-3 3 -3 6
q0 2 2 2q1 0 6 -4.5t15 -8.5t22 -4q16 0 29 4t20 8l6 5q4 0 4 -2l-8 -8q24 0 52 -11q-29 80 -139 80q-55 0 -92 -33t-50 -85q37 20 41 39q-6 4 -6 7q0 4 3 4l2 -2q2 -1 6.5 -3.5t10 -5t13.5 -4t17 -1.5q24 0 49 17zM371 416q0 20 -4.5 40t-9.5 20q-10 0 -19 -39t-14 -39
q-3 0 -9.5 3t-11.5 3q-13 0 -21 -10.5t-8 -24.5t11 -14t18 6.5t9 6.5t12 -13.5t20 -13.5q14 0 25 10.5t12 10.5q3 0 10 -3.5t9 -3.5q10 0 18 11t8 24q0 10 -6 18t-16 8q-7 0 -14.5 -6.5t-11.5 -6.5q-7 0 -7 13zM510 318q0 95 -12 147l-5 3q0 -21 -18 -32t-41 -11
q-21 0 -37 12.5t-16 29.5q0 6 2 9q-12 2 -15 4q6 -9 10 -24t5.5 -24t4.5 -9q7 2 15 2q19 0 31 -14q34 0 34 -51q0 -3 8 -7t18.5 -13t15.5 -22zM383 310q-1 0 -8 -1t-15.5 -2t-13.5 -1t-13 1.5t-11 1.5q-15 0 -36 -4t-35 -9t-14 -8q0 -10 20 -10q24 0 54 6.5t44 6.5
q19 0 57.5 -3.5t52.5 -3.5q5 0 9.5 2t7.5 4t3 3q0 5 -36 11t-66 6zM267 413q-18 0 -31 10t-15 21q-4 -2 -15 -5q-4 -21 -4 -43q0 -50 3 -78q4 6 22 22t20 31q5 37 38 41q12 5 23 5q5 0 8.5 8.5t9.5 24.5t16 28l-13 -4q-1 -24 -18.5 -42.5t-43.5 -18.5zM419 465q-13 0 -16 13
q-5 0 -8.5 -5.5t-3.5 -9.5q0 -10 15 -17t31 -7q14 0 29 8.5t15 21.5q0 8 -14.5 12.5t-28.5 4.5q-5 -21 -19 -21zM267 427q14 0 30 11t16 24q0 6 -1 9q-20 0 -27 1q-5 -14 -18 -14q-10 0 -15 5q-4 -4 -18 -12q4 -24 33 -24zM266 288q-2 0 -2 3q0 12 107 12q93 0 93 -8
q0 -3 -3 -3q-1 0 -4 0.5t-10 1t-16 1.5t-24.5 1.5t-33.5 0.5q-36 0 -61 -2.5t-36 -4.5zM305 262q0 10 63 10q31 0 31 -8q0 -3 -2 -3q-4 0 -10 2t-10 2q-11 0 -26 -0.5t-20 -0.5q-4 0 -11.5 -3t-10.5 -3q-4 0 -4 4zM417 473q9 0 9 13q-1 0 -16 -6q0 -7 7 -7zM266 466
q7 0 10 9q-6 1 -11 4q0 -4 -6 -10q1 -3 7 -3zM325 34l-3 48l-10 -82h-21l15 125h25l4 -60l21 60h26l-15 -125h-22l10 82l-16 -48h-14zM21 125h35q23 0 20 -21l-10 -82q-3 -22 -22 -22h-38zM282 44q-1 -12 -10 -17l8 -27h-21l-7 23h-7l-3 -23h-22l15 125h36q21 0 18 -24z
M183 0l3 23h-14l-3 -23h-21l12 104q2 21 22 21h17q19 0 18 -21l-12 -104h-22zM594 0l15 125h35q23 0 20 -21l-8 -62q-3 -19 -22 -19h-15l-3 -23h-22zM111 0l3 23h-13l-3 -23h-22l15 125h22l-10 -83h13l10 83h22l-15 -125h-22zM539 125h22l-10 -79q0 -4 4 -4h5q5 0 5 4l9 79
h22l-10 -81q-3 -21 -19 -21l-9 -23h-23l9 23q-18 0 -15 21zM477 106l3 19h50l-3 -19h-13l-12 -106h-23l12 106h-14zM41 106l-11 -88h11q3 0 3 4l9 80q0 4 -4 4h-8zM629 106l-8 -64h8q5 0 5 4l7 56q0 4 -4 4h-8zM174 42h14l7 60q0 4 -4 4h-5q-5 0 -5 -4zM255 106l-8 -64h8
q5 0 5 4l7 56q0 4 -3 4h-9zM711 57l-3 -18h-19l-3 -21h27l-2 -18h-49l15 125h47l-3 -19h-24l-6 -49h20zM417 0l3 23h-14l-3 -23h-21l12 104q2 21 22 21h17q19 0 18 -21l-12 -104h-22zM408 42h14l7 60q0 4 -4 4h-5q-5 0 -5 -4z" />
    <glyph glyph-name="integral" unicode="&#x222b;" 
d="M749 543l-131 -532q-19 -75 -61 -109t-119 -34h-367v59h361q56 0 83.5 21.5t41.5 76.5l131 532q19 75 61.5 109t119.5 34h360v-59h-354q-56 0 -84 -21.5t-42 -76.5z" />
    <glyph glyph-name="approxequal" unicode="&#x2248;" 
d="M71 171v66q102 66 252 66q104 0 325 -45t324 -45q154 0 257 71v-66q-102 -65 -253 -65q-105 0 -325.5 44.5t-323.5 44.5q-152 0 -256 -71zM71 418v65q102 66 253 66q104 0 324 -44.5t323 -44.5q155 0 258 71v-66q-102 -65 -253 -65q-105 0 -325.5 44.5t-323.5 44.5
q-152 0 -256 -71z" />
    <glyph glyph-name="notequal" unicode="&#x2260;" 
d="M486 0h-63l114 195h-444v57h477l115 195h-592v57h625l115 196h63l-115 -196h426v-57h-460l-114 -195h574v-57h-607z" />
    <glyph glyph-name="lessequal" unicode="&#x2264;" 
d="M1229 0h-1158v57h1158v-57zM71 350l260 246h77l-231 -218h1052v-57h-1051l230 -218h-77z" />
    <glyph glyph-name="greaterequal" unicode="&#x2265;" 
d="M1229 0h-1158v57h1158v-57zM969 596l260 -246l-260 -247h-77l230 218h-1051v57h1052l-231 218h77z" />
    <glyph glyph-name="lozenge" unicode="&#x25ca;" 
d="M650 -20l-600 368l600 368l599 -368zM649 53l481 295l-481 295l-480 -295z" />
    <glyph glyph-name="commaaccent" horiz-adv-x="383" 
d="M236 -85v-46q0 -77 -68 -77h-19v25h19q29 0 29 36v13h-50v49h89z" />
    <glyph glyph-name="f.alt" horiz-adv-x="1088" 
d="M256 546q-61 0 -88.5 -27t-27.5 -89v-100h864v-57h-864v-440h-65v602q0 86 41.5 127t128.5 41h816v-57h-805z" />
    <glyph glyph-name="i.alt" horiz-adv-x="244" 
d="M90 0v603h65v-603h-65zM173 737v-54h-102v54h102z" />
    <glyph glyph-name="i.trk" horiz-adv-x="331" 
d="M232 57h74v-57h-90q-74 0 -106 32t-32 106v465h65v-456q0 -52 18.5 -71t70.5 -19zM161 737v-54h-102v54h102z" />
    <glyph glyph-name="germandbls.alt" horiz-adv-x="1202" 
d="M1004 273h-689v57h689q45 0 62 17.5t17 62.5v49q0 47 -20 67t-67 20h-740q-61 0 -88.5 -27t-27.5 -89v-597h-65v602q0 86 41.5 127t127.5 41h768q71 0 103.5 -32.5t32.5 -105.5v-52q0 -52 -21.5 -79t-71.5 -33q50 -6 71.5 -33t21.5 -79v-51q0 -72 -32.5 -105t-103.5 -33
h-697v57h681q47 0 67 20t20 67v48q0 45 -17 63t-62 18z" />
    <glyph glyph-name="one.pnum" horiz-adv-x="378" 
d="M288 700v-700h-67v641h-195v59h262z" />
    </font>
</defs>
</svg>
