<?xml version="1.0" standalone="no"?>
<!DOCTYPE svg PUBLIC "-//W3C//DTD SVG 1.1//EN" "http://www.w3.org/Graphics/SVG/1.1/DTD/svg11.dtd" >
<svg xmlns="http://www.w3.org/2000/svg" xmlns:xlink="http://www.w3.org/1999/xlink" version="1.1">
<metadata>
Created by FontForge 20170731 at Sat Mar 14 00:16:17 2015
 By ,,,
Copyright (c) 2011 by Ryoichi Tsunekawa. All rights reserved.
</metadata>
<defs>
<font id="DesignSystemA-500I" horiz-adv-x="560" >
  <font-face 
    font-family="DesignSystemA-500I"
    font-weight="400"
    font-style="italic"
    font-stretch="normal"
    units-per-em="1000"
    panose-1="4 5 6 4 2 11 2 2 3 2"
    ascent="822"
    descent="-178"
    x-height="603"
    cap-height="700"
    bbox="-83 -217 1474.94 930"
    underline-thickness="36"
    underline-position="-156"
    slope="-8"
    unicode-range="U+0020-FB02"
  />
<missing-glyph horiz-adv-x="500" 
d="M7 700h500v-700h-500v700zM63 647v-579l348 579h-348zM102 53h349v578z" />
    <glyph glyph-name="ij" unicode="ij" horiz-adv-x="505" 
d="M176 -82h33q41 0 56.5 13.5t21.5 55.5l86 616h97l-89 -634q-11 -73 -46.5 -104.5t-108.5 -31.5h-62zM371 676l10 70h122l-10 -70h-122zM33 0l84 603h97l-84 -603h-97zM247 746l-10 -70h-122l10 70h122z" />
    <glyph glyph-name="fi" unicode="fi" horiz-adv-x="746" 
d="M283 518q-49 0 -74 -21.5t-32 -70.5l-11 -82h214l-12 -85h-214l-60 -426h-97l85 606q12 85 57.5 124.5t130.5 39.5h192l-12 -85h-167zM643 85h52l-11 -85h-84q-73 0 -100.5 32.5t-16.5 103.5l65 467h97l-63 -447q-6 -40 7 -55.5t54 -15.5zM678 746l-10 -70h-122l10 70
h122z" />
    <glyph glyph-name="fl" unicode="fl" horiz-adv-x="743" 
d="M283 518q-49 0 -74 -21.5t-32 -70.5l-11 -82h214l-12 -85h-214l-60 -426h-97l85 606q12 85 57.5 124.5t130.5 39.5h192l-12 -85h-167zM641 85h52l-12 -85h-84q-73 0 -100.5 32.5t-16.5 103.5l89 634h97l-87 -614q-5 -41 8 -56t54 -15z" />
    <glyph glyph-name=".notdef" horiz-adv-x="500" 
d="M7 700h500v-700h-500v700zM63 647v-579l348 579h-348zM102 53h349v578z" />
    <glyph glyph-name=".null" horiz-adv-x="0" 
 />
    <glyph glyph-name="nonmarkingreturn" horiz-adv-x="333" 
 />
    <glyph glyph-name="space" unicode=" " horiz-adv-x="254" 
 />
    <glyph glyph-name="exclam" unicode="!" horiz-adv-x="287" 
d="M176 82l-11 -82h-127l11 82h127zM249 700l-31 -228q-21 -148 -55 -287h-72q7 154 26 287l32 228h100z" />
    <glyph glyph-name="quotedbl" unicode="&#x22;" horiz-adv-x="423" 
d="M193 700v-45q0 -102 -17 -263h-65q-18 170 -18 263v45h100zM395 700v-45q0 -102 -17 -263h-65q-18 170 -18 263v45h100z" />
    <glyph glyph-name="numbersign" unicode="#" 
d="M347 0l7 135h-165l-7 -135h-88l8 135h-67l5 85h66l14 260h-66l4 85h66l7 135h88l-7 -135h165l7 135h88l-7 -135h66l-5 -85h-66l-14 -260h66l-4 -85h-66l-7 -135h-88zM207 480l-14 -260h166l14 260h-166z" />
    <glyph glyph-name="dollar" unicode="$" 
d="M21 135h311q34 0 50.5 14.5t21.5 48.5l7 48q5 34 -8 48.5t-47 14.5h-185q-126 0 -108 129l12 85q10 67 45 98.5t99 31.5h66l13 87h87l-13 -87h163l-12 -85h-281q-34 0 -50.5 -14.5t-21.5 -48.5l-7 -48q-5 -34 7.5 -48.5t46.5 -14.5h185q65 0 91.5 -31.5t16.5 -98.5
l-11 -84q-10 -67 -45 -98.5t-100 -31.5h-66l-13 -90h-87l13 90h-192z" />
    <glyph glyph-name="percent" unicode="%" horiz-adv-x="1064" 
d="M370 0l297 700h78l-297 -700h-78zM639 120l41 294q9 61 42 90.5t95 29.5h123q62 0 87 -29.5t17 -90.5l-42 -294q-16 -120 -137 -120h-123q-121 0 -103 120zM917 134l38 266q4 31 -7.5 44.5t-40.5 13.5h-78q-57 0 -65 -58l-37 -266q-4 -31 7.5 -44.5t40.5 -13.5h79
q29 0 44 13.5t19 44.5zM69 286l41 294q9 61 42 90.5t95 29.5h123q62 0 87 -29.5t17 -90.5l-42 -294q-16 -120 -137 -120h-123q-121 0 -103 120zM347 300l38 266q4 31 -7.5 44.5t-40.5 13.5h-78q-57 0 -65 -58l-37 -266q-4 -31 7.5 -44.5t40.5 -13.5h79q29 0 44 13.5t19 44.5
z" />
    <glyph glyph-name="ampersand" unicode="&#x26;" horiz-adv-x="662" 
d="M483 306h-244q-42 0 -60.5 -17.5t-24.5 -59.5l-9 -64q-6 -41 9 -59t54 -18h174q41 0 58 15t23 57zM41 140l12 80q9 60 37 91.5t84 38.5q-55 7 -74 38.5t-10 91.5l10 80q11 73 49 106.5t111 33.5h329l-13 -88h-295q-39 0 -59 -18t-25 -59l-8 -64q-7 -42 7 -59.5t55 -17.5
h414l-12 -88h-70l-24 -172q-10 -72 -45 -103t-107 -31h-245q-73 0 -102 33.5t-19 106.5z" />
    <glyph glyph-name="quotesingle" unicode="'" horiz-adv-x="220" 
d="M193 700v-45q0 -102 -17 -263h-65q-18 170 -18 263v45h100z" />
    <glyph glyph-name="parenleft" unicode="(" horiz-adv-x="327" 
d="M141 81q-7 -44 8 -62t57 -18h47l-11 -81h-76q-72 0 -101.5 34t-19.5 106l70 500q11 72 50 106t111 34h76l-12 -81h-46q-43 0 -62.5 -18t-26.5 -62z" />
    <glyph glyph-name="parenright" unicode=")" horiz-adv-x="327" 
d="M135 81l64 458q6 44 -8.5 62t-57.5 18h-47l12 81h76q72 0 101.5 -34t18.5 -106l-70 -500q-10 -72 -49 -106t-111 -34h-76l11 81h47q42 0 62 18t27 62z" />
    <glyph glyph-name="asterisk" unicode="*" horiz-adv-x="525" 
d="M295 465q93 62 155 81l70 21l17 -76l-70 -21q-74 -23 -168 -23q72 -58 105 -116l33 -56l-68 -47l-34 57q-32 56 -51 150q-45 -93 -94 -150l-50 -57l-60 47l49 56q49 57 138 116q-93 0 -162 23l-65 21l32 75l65 -21q65 -21 139 -80q-18 88 -7 165l10 70h79l-9 -70
q-7 -43 -24 -91.5t-30 -73.5z" />
    <glyph glyph-name="plus" unicode="+" 
d="M63 307v85h177v177h85v-177h178v-85h-178v-178h-85v178h-177z" />
    <glyph glyph-name="comma" unicode="," horiz-adv-x="280" 
d="M171 90l-13 -88q-16 -117 -120 -117h-17l6 44h15q22 0 33.5 11t15.5 41l3 21h-57l13 88h121z" />
    <glyph glyph-name="hyphen" unicode="-" horiz-adv-x="380" 
d="M351 370l-12 -86h-303l12 86h303z" />
    <glyph glyph-name="period" unicode="." horiz-adv-x="280" 
d="M171 90l-13 -90h-121l13 90h121z" />
    <glyph glyph-name="slash" unicode="/" horiz-adv-x="419" 
d="M24 0l268 700h99l-268 -700h-99z" />
    <glyph glyph-name="zero" unicode="0" 
d="M184 0q-146 0 -125 144l58 412q19 144 165 144h150q74 0 104.5 -35.5t20.5 -108.5l-58 -412q-11 -73 -51 -108.5t-114 -35.5h-150zM402 168l51 364q6 44 -8.5 62t-57.5 18h-85q-43 0 -62.5 -18t-25.5 -62l-52 -364q-6 -44 9 -62t58 -18h85q42 0 62 18t26 62z" />
    <glyph glyph-name="one" unicode="1" 
d="M438 700l-86 -612h116l-12 -88h-373l12 88h165l73 525h-164l12 87h257z" />
    <glyph glyph-name="two" unicode="2" 
d="M442 535q6 41 -8.5 59t-54.5 18h-265l12 88h298q73 0 102.5 -34.5t18.5 -107.5l-15 -110q-10 -73 -49 -107.5t-113 -34.5h-120q-56 0 -82.5 -22.5t-34.5 -80.5l-15 -115h369l-12 -88h-470l31 220q24 174 197 174h117q40 0 60 18t25 59z" />
    <glyph glyph-name="three" unicode="3" 
d="M332 306h-195l12 88h195q42 0 61 17.5t25 59.5l9 64q5 41 -9.5 59t-53.5 18h-290l13 88h323q73 0 102 -33.5t18 -106.5l-11 -80q-8 -60 -36.5 -91.5t-84.5 -38.5q54 -7 73.5 -38.5t11.5 -91.5l-12 -80q-10 -73 -48 -106.5t-111 -33.5h-323l12 88h289q40 0 59.5 18
t25.5 59l9 64q5 42 -8.5 59.5t-55.5 17.5z" />
    <glyph glyph-name="four" unicode="4" 
d="M425 394l43 306h101l-98 -700h-101l43 306h-205q-144 0 -124 144l35 250h101l-32 -226q-7 -44 8 -62t58 -18h171z" />
    <glyph glyph-name="five" unicode="5" 
d="M67 306l56 394h421l-12 -88h-322l-31 -218h205q73 0 103 -34.5t20 -107.5l-16 -110q-11 -73 -49.5 -107.5t-112.5 -34.5h-314l12 88h283q39 0 58.5 18t25.5 59l9 64q6 41 -9 59t-54 18h-273z" />
    <glyph glyph-name="six" unicode="6" 
d="M196 490l-14 -96h213q73 0 103 -34.5t20 -107.5l-16 -110q-11 -73 -49.5 -107.5t-112.5 -34.5h-171q-74 0 -103.5 34.5t-18.5 107.5l50 358q13 99 71 149.5t156 50.5h231l-12 -88h-208q-122 0 -139 -122zM351 306h-181l-20 -141q-5 -41 9.5 -59t54.5 -18h107
q39 0 58.5 18t25.5 59l9 64q6 41 -9 59t-54 18z" />
    <glyph glyph-name="seven" unicode="7" 
d="M343 394q47 0 69 18.5t29 67.5l19 132h-397l13 88h497l-34 -241q-23 -153 -175 -153h-10q-47 0 -69 -18.5t-29 -67.5l-30 -220h-100l33 241q21 153 174 153h10z" />
    <glyph glyph-name="eight" unicode="8" 
d="M557 560l-11 -80q-8 -60 -36.5 -91.5t-84.5 -38.5q54 -7 73 -39t11 -91l-11 -80q-10 -73 -48 -106.5t-111 -33.5h-182q-73 0 -102 33.5t-19 106.5l12 80q9 60 37 91.5t84 38.5q-54 7 -73 38.5t-11 91.5l10 80q11 73 49 106.5t111 33.5h182q73 0 101.5 -33.5t18.5 -106.5z
M246 394h113q41 0 60.5 17.5t25.5 59.5l8 64q6 41 -8.5 59t-54.5 18h-113q-40 0 -59.5 -18t-25.5 -59l-8 -64q-7 -42 7 -59.5t55 -17.5zM347 306h-113q-41 0 -60 -17.5t-25 -59.5l-9 -64q-6 -41 9 -59t54 -18h114q39 0 58.5 18t25.5 59l9 64q6 42 -8 59.5t-55 17.5z" />
    <glyph glyph-name="nine" unicode="9" 
d="M416 700q74 0 103.5 -34.5t18.5 -107.5l-51 -358q-13 -99 -70.5 -149.5t-155.5 -50.5h-231l12 88h208q122 0 139 122l13 96h-213q-73 0 -102.5 34.5t-18.5 107.5l14 110q11 73 50 107.5t113 34.5h171zM180 535l-10 -64q-5 -41 9.5 -59t53.5 -18h181l20 141q5 41 -9 59
t-54 18h-107q-39 0 -59 -18t-25 -59z" />
    <glyph glyph-name="colon" unicode=":" horiz-adv-x="280" 
d="M236 555l-13 -90h-121l13 90h121zM171 90l-13 -90h-121l13 90h121z" />
    <glyph glyph-name="semicolon" unicode=";" horiz-adv-x="280" 
d="M171 90l-13 -88q-16 -117 -120 -117h-17l6 44h15q22 0 33.5 11t15.5 41l3 21h-57l13 88h121zM236 555l-13 -90h-121l13 90h121z" />
    <glyph glyph-name="less" unicode="&#x3c;" 
d="M63 350l196 219h109l-161 -177h296v-85h-296l161 -178h-109z" />
    <glyph glyph-name="equal" unicode="=" 
d="M81 179v85h404v-85h-404zM81 435v84h404v-84h-404z" />
    <glyph glyph-name="greater" unicode="&#x3e;" 
d="M307 569l196 -219l-196 -221h-109l161 178h-296v85h296l-161 177h109z" />
    <glyph glyph-name="question" unicode="?" horiz-adv-x="510" 
d="M403 471l9 64q6 41 -8.5 59t-54.5 18h-286l12 88h319q73 0 102.5 -34.5t18.5 -107.5l-14 -110q-11 -73 -50 -107.5t-113 -34.5h-47q-34 0 -50 -13.5t-20 -48.5l-9 -63h-100l13 95q16 118 134 118h60q39 0 59 18t25 59zM212 82l-12 -82h-126l11 82h127z" />
    <glyph glyph-name="at" unicode="@" horiz-adv-x="701" 
d="M206 0q-165 0 -141 163l52 374q12 83 57.5 123t129.5 40h253q83 0 117.5 -40.5t23.5 -122.5l-53 -374q-22 -163 -186 -163h-253zM216 50h247q110 0 125 111l54 378q14 111 -95 111h-247q-111 0 -126 -111l-53 -378q-16 -111 95 -111zM390 189h-68q-38 0 -53.5 18
t-10.5 58l5 32q12 76 85 76h96l8 52q5 38 -33 38h-118l6 47h124q46 0 64 -21.5t11 -65.5l-21 -151q-12 -83 -95 -83zM353 325q-31 0 -35 -29l-4 -30q-2 -16 3.5 -23t23.5 -7h51q33 0 38 34l8 55h-85z" />
    <glyph glyph-name="A" unicode="A" horiz-adv-x="597" 
d="M486 0h-100l42 306h-258l-43 -306h-100l78 556q19 144 165 144h169q145 0 124 -144zM394 612h-104q-43 0 -63 -18t-25 -62l-20 -138h258l20 138q6 44 -9 62t-57 18z" />
    <glyph glyph-name="B" unicode="B" horiz-adv-x="590" 
d="M525 220l-12 -80q-10 -73 -48 -106.5t-111 -33.5h-319l98 700h319q73 0 102 -33.5t18 -106.5l-11 -80q-8 -60 -36.5 -91.5t-84.5 -38.5q54 -7 73.5 -38.5t11.5 -91.5zM374 394q42 0 61 17.5t25 59.5l9 64q5 41 -9.5 59t-53.5 18h-185l-31 -218h184zM178 306l-30 -218h184
q40 0 59.5 18t25.5 59l9 64q5 42 -8.5 59.5t-55.5 17.5h-184z" />
    <glyph glyph-name="C" unicode="C" horiz-adv-x="502" 
d="M183 0q-145 0 -124 144l58 412q19 144 164 144h255l-13 -88h-221q-43 0 -62.5 -18t-25.5 -62l-52 -364q-6 -44 9 -62t58 -18h221l-12 -88h-255z" />
    <glyph glyph-name="D" unicode="D" horiz-adv-x="590" 
d="M392 700q199 0 172 -200l-43 -300q-27 -200 -227 -200h-259l98 700h259zM284 88q122 0 139 122l39 280q17 122 -104 122h-137l-73 -524h136z" />
    <glyph glyph-name="E" unicode="E" horiz-adv-x="554" 
d="M35 0l98 700h434l-13 -88h-333l-31 -218h244l-13 -88h-243l-30 -218h333l-12 -88h-434z" />
    <glyph glyph-name="F" unicode="F" horiz-adv-x="526" 
d="M35 0l98 700h431l-13 -88h-330l-31 -218h241l-13 -88h-240l-42 -306h-101z" />
    <glyph glyph-name="G" unicode="G" horiz-adv-x="576" 
d="M341 88q41 0 58 14.5t23 57.5l20 146h-135l12 88h235l-36 -260q-10 -72 -45 -103t-107 -31h-183q-145 0 -124 144l58 412q19 144 164 144h292l-13 -88h-258q-43 0 -62.5 -18t-25.5 -62l-52 -364q-6 -44 9 -62t58 -18h112z" />
    <glyph glyph-name="H" unicode="H" horiz-adv-x="631" 
d="M412 0l42 306h-276l-42 -306h-101l98 700h101l-44 -306h276l44 306h100l-98 -700h-100z" />
    <glyph glyph-name="I" unicode="I" horiz-adv-x="255" 
d="M35 0l98 700h101l-98 -700h-101z" />
    <glyph glyph-name="J" unicode="J" horiz-adv-x="563" 
d="M31 134l29 208h101l-26 -182q-6 -43 6 -57.5t54 -14.5h103q43 0 62.5 18t25.5 62l75 532h100l-78 -556q-11 -73 -51 -108.5t-114 -35.5h-171q-73 0 -100 31.5t-16 102.5z" />
    <glyph glyph-name="K" unicode="K" horiz-adv-x="598" 
d="M592 700l-30 -213q-9 -61 -38.5 -95.5t-90.5 -41.5q59 -7 79 -41.5t11 -95.5l-29 -213h-100l31 224q5 43 -9.5 62.5t-56.5 19.5h-181l-42 -306h-101l98 700h101l-44 -306h181q43 0 63 19.5t26 62.5l32 224h100z" />
    <glyph glyph-name="L" unicode="L" horiz-adv-x="521" 
d="M473 88l-12 -88h-426l98 700h101l-86 -612h325z" />
    <glyph glyph-name="M" unicode="M" horiz-adv-x="874" 
d="M636 700h80q145 0 124 -144l-77 -556h-100l74 532q6 44 -9 62t-57 18h-64q-42 0 -61.5 -18t-26.5 -62l-74 -532h-100l74 532q7 44 -8 62t-58 18h-63q-43 0 -62.5 -18t-25.5 -62l-75 -532h-100l78 556q19 144 165 144h80q68 0 98 -24.5t30 -80.5q16 56 53 80.5t105 24.5z
" />
    <glyph glyph-name="N" unicode="N" horiz-adv-x="597" 
d="M290 612q-43 0 -62.5 -18t-25.5 -62l-75 -532h-100l78 556q19 144 165 144h169q145 0 124 -144l-77 -556h-100l74 532q6 44 -9 62t-57 18h-104z" />
    <glyph glyph-name="O" unicode="O" horiz-adv-x="580" 
d="M184 0q-146 0 -125 144l58 412q19 144 165 144h170q74 0 104.5 -35.5t20.5 -108.5l-58 -412q-11 -73 -51 -108.5t-114 -35.5h-170zM422 168l51 364q6 44 -8.5 62t-57.5 18h-105q-43 0 -62.5 -18t-25.5 -62l-52 -364q-6 -44 9 -62t58 -18h105q42 0 62 18t26 62z" />
    <glyph glyph-name="P" unicode="P" horiz-adv-x="565" 
d="M35 0l98 700h315q74 0 103.5 -34.5t18.5 -107.5l-15 -110q-11 -73 -50 -107.5t-112 -34.5h-215l-42 -306h-101zM467 535q5 41 -9 59t-54 18h-183l-31 -218h183q40 0 59.5 18t25.5 59z" />
    <glyph glyph-name="Q" unicode="Q" horiz-adv-x="580" 
d="M184 0q-146 0 -125 144l58 412q19 144 165 144h170q74 0 104.5 -35.5t20.5 -108.5l-58 -412q-11 -73 -51 -108.5t-114 -35.5h-41l-15 -107h-89l15 107h-40zM422 168l51 364q6 44 -8.5 62t-57.5 18h-105q-43 0 -62.5 -18t-25.5 -62l-52 -364q-6 -44 9 -62t58 -18h8l21 147
h89l-21 -147h8q42 0 62 18t26 62z" />
    <glyph glyph-name="R" unicode="R" horiz-adv-x="597" 
d="M572 560l-11 -80q-8 -61 -37.5 -92.5t-87.5 -38.5q105 -14 87 -136l-29 -213h-100l31 224q5 43 -9.5 62.5t-56.5 19.5h-181l-42 -306h-101l98 700h319q73 0 102 -33.5t18 -106.5zM374 394q42 0 61 17.5t25 59.5l9 64q5 41 -9.5 59t-53.5 18h-185l-31 -218h184z" />
    <glyph glyph-name="S" unicode="S" horiz-adv-x="533" 
d="M193 306q-74 0 -103.5 34.5t-18.5 107.5l15 110q11 73 50 107.5t113 34.5h268l-13 -88h-236q-40 0 -59.5 -18t-25.5 -59l-9 -64q-6 -41 8.5 -59t54.5 -18h119q74 0 103.5 -34.5t19.5 -107.5l-16 -110q-10 -73 -49 -107.5t-112 -34.5h-299l12 88h267q40 0 59.5 18t24.5 59
l9 64q6 41 -8.5 59t-54.5 18h-119z" />
    <glyph glyph-name="T" unicode="T" horiz-adv-x="497" 
d="M535 700l-13 -88h-180l-85 -612h-100l85 612h-181l13 88h461z" />
    <glyph glyph-name="U" unicode="U" horiz-adv-x="597" 
d="M193 0q-146 0 -125 144l78 556h100l-75 -532q-6 -44 9 -62t58 -18h103q43 0 62.5 18t25.5 62l76 532h100l-78 -556q-11 -73 -51 -108.5t-114 -35.5h-169z" />
    <glyph glyph-name="V" unicode="V" horiz-adv-x="590" 
d="M35 0l98 700h101l-86 -612h126q121 0 138 122l69 490h100l-71 -500q-14 -98 -71.5 -149t-155.5 -51h-248z" />
    <glyph glyph-name="W" unicode="W" horiz-adv-x="874" 
d="M639 0h-80q-68 0 -98.5 24.5t-30.5 80.5q-16 -56 -52.5 -80.5t-104.5 -24.5h-80q-146 0 -125 144l78 556h100l-75 -532q-6 -44 9 -62t58 -18h63q42 0 62 18t26 62l75 532h100l-75 -532q-6 -44 9 -62t57 -18h63q43 0 62.5 18t25.5 62l76 532h100l-78 -556
q-11 -73 -51 -108.5t-114 -35.5z" />
    <glyph glyph-name="X" unicode="X" horiz-adv-x="583" 
d="M87 487l30 213h100l-31 -224q-6 -43 8.5 -62.5t56.5 -19.5h106q43 0 63 19.5t26 62.5l32 224h100l-30 -213q-9 -61 -39 -95.5t-91 -41.5q59 -7 79.5 -41.5t11.5 -95.5l-29 -213h-100l30 224q6 43 -8.5 62.5t-56.5 19.5h-106q-43 0 -63 -19.5t-26 -62.5l-31 -224h-100
l29 213q9 61 39 95.5t91 41.5q-59 7 -79 41.5t-12 95.5z" />
    <glyph glyph-name="Y" unicode="Y" horiz-adv-x="565" 
d="M497 700h100l-35 -250q-20 -144 -165 -144h-44l-43 -306h-100l43 306h-45q-144 0 -124 144l35 250h101l-33 -227q-5 -43 10 -61t57 -18h122q43 0 62.5 17.5t26.5 61.5z" />
    <glyph glyph-name="Z" unicode="Z" horiz-adv-x="542" 
d="M304 394q56 0 82.5 22t34.5 80l16 116h-323l12 88h424l-31 -220q-26 -174 -198 -174h-73q-56 0 -82.5 -22t-34.5 -80l-15 -116h348l-12 -88h-449l31 220q24 174 197 174h73z" />
    <glyph glyph-name="bracketleft" unicode="[" horiz-adv-x="344" 
d="M133 700h225l-11 -77h-137l-88 -626h137l-11 -77h-225z" />
    <glyph glyph-name="backslash" unicode="\" horiz-adv-x="419" 
d="M123 700l268 -700h-99l-268 700h99z" />
    <glyph glyph-name="bracketright" unicode="]" horiz-adv-x="344" 
d="M98 700h224l-110 -780h-224l11 77h136l89 626h-137z" />
    <glyph glyph-name="asciicircum" unicode="^" 
d="M283 710l219 -300v-145l-219 300l-220 -300v145z" />
    <glyph glyph-name="underscore" unicode="_" horiz-adv-x="500" 
d="M458 -49v-64h-500v64h500z" />
    <glyph glyph-name="grave" unicode="`" horiz-adv-x="238" 
d="M185 662l-102 101h94l83 -101h-75z" />
    <glyph glyph-name="a" unicode="a" horiz-adv-x="514" 
d="M387 344l13 97q6 42 -9 59.5t-57 17.5h-214l11 85h248q73 0 102.5 -34.5t19.5 -107.5l-46 -319q-10 -73 -48.5 -107.5t-111.5 -34.5h-151q-128 0 -109 130l12 84q10 67 45 98.5t99 31.5h196zM375 259h-161q-34 0 -50.5 -14.5t-21.5 -48.5l-7 -48q-5 -34 7.5 -48.5
t46.5 -14.5h85q42 0 61.5 17.5t25.5 59.5z" />
    <glyph glyph-name="b" unicode="b" horiz-adv-x="523" 
d="M50 142l89 628h97l-34 -239q29 72 129 72h49q73 0 102.5 -34.5t18.5 -107.5l-45 -319q-10 -73 -48.5 -107.5t-111.5 -34.5h-124q-73 0 -102.5 34.5t-19.5 107.5zM189 441l-39 -279q-6 -42 9.5 -59.5t57.5 -17.5h57q42 0 62 17.5t26 59.5l39 279q6 42 -9 59.5t-57 17.5
h-58q-41 0 -61.5 -17.5t-26.5 -59.5z" />
    <glyph glyph-name="c" unicode="c" horiz-adv-x="460" 
d="M164 0q-73 0 -102.5 34.5t-19.5 107.5l45 319q11 73 49.5 107.5t111.5 34.5h221l-11 -85h-189q-42 0 -62 -17.5t-26 -59.5l-39 -279q-6 -42 9.5 -59.5t56.5 -17.5h189l-12 -85h-221z" />
    <glyph glyph-name="d" unicode="d" horiz-adv-x="523" 
d="M536 770l-88 -628q-11 -73 -49.5 -107.5t-110.5 -34.5h-124q-73 0 -102.5 34.5t-19.5 107.5l45 319q11 73 49.5 107.5t111.5 34.5h48q53 0 78.5 -17.5t30.5 -54.5l34 239h97zM354 162l39 279q5 42 -10 59.5t-56 17.5h-58q-42 0 -62 -17.5t-26 -59.5l-39 -279
q-6 -42 9.5 -59.5t56.5 -17.5h58q42 0 62 17.5t26 59.5z" />
    <glyph glyph-name="e" unicode="e" horiz-adv-x="514" 
d="M495 388q-9 -66 -44 -97.5t-100 -31.5h-195l-14 -97q-6 -42 9.5 -59.5t56.5 -17.5h215l-12 -85h-247q-73 0 -102.5 34.5t-19.5 107.5l45 319q11 73 49.5 107.5t111.5 34.5h151q65 0 91.5 -31.5t16.5 -98.5zM353 518h-84q-42 0 -62 -17.5t-26 -59.5l-14 -97h162
q34 0 51 14.5t21 48.5l7 48q5 34 -8 48.5t-47 14.5z" />
    <glyph glyph-name="f" unicode="f" horiz-adv-x="440" 
d="M283 518q-49 0 -74 -21.5t-32 -70.5l-11 -82h214l-12 -85h-214l-60 -426h-97l85 606q12 85 57.5 124.5t130.5 39.5h192l-12 -85h-167z" />
    <glyph glyph-name="g" unicode="g" horiz-adv-x="523" 
d="M263 107q42 0 61.5 17.5t26.5 59.5l36 257q5 42 -10 59.5t-56 17.5h-58q-42 0 -62 -17.5t-26 -59.5l-36 -257q-6 -41 9.5 -59t57.5 -18h57zM209 22h-49q-72 0 -101.5 34.5t-19.5 106.5l42 298q11 73 49.5 107.5t111.5 34.5h124q72 0 101.5 -34.5t19.5 -107.5l-62 -434
q-14 -100 -67.5 -147t-153.5 -47h-171l12 85h158q58 0 88 25.5t38 84.5l9 65q-31 -71 -129 -71z" />
    <glyph glyph-name="h" unicode="h" horiz-adv-x="540" 
d="M399 441q6 42 -9 59.5t-57 17.5h-58q-41 0 -61.5 -17.5t-26.5 -59.5l-61 -441h-97l108 770h97l-34 -239q16 37 46.5 54.5t83.5 17.5h48q73 0 102.5 -34.5t18.5 -107.5l-64 -461h-97z" />
    <glyph glyph-name="i" unicode="i" horiz-adv-x="306" 
d="M214 85h52l-11 -85h-84q-73 0 -100.5 32.5t-16.5 103.5l65 467h97l-63 -447q-6 -40 7 -55.5t54 -15.5zM249 746l-10 -70h-122l10 70h122z" />
    <glyph glyph-name="j" unicode="j" horiz-adv-x="258" 
d="M-71 -82h33q41 0 56.5 13.5t21.5 55.5l86 616h97l-89 -634q-11 -73 -46.5 -104.5t-108.5 -31.5h-62zM124 676l10 70h122l-10 -70h-122z" />
    <glyph glyph-name="k" unicode="k" horiz-adv-x="528" 
d="M391 400l29 203h97l-25 -180q-8 -57 -33.5 -86.5t-74.5 -35.5q48 -6 65 -35t9 -86l-25 -180h-97l28 202q7 57 -50 57h-152l-36 -259h-97l108 770h97l-60 -426h152q58 0 65 56z" />
    <glyph glyph-name="l" unicode="l" horiz-adv-x="303" 
d="M212 85h52l-12 -85h-84q-73 0 -100.5 32.5t-16.5 103.5l89 634h97l-87 -614q-5 -41 8 -56t54 -15z" />
    <glyph glyph-name="m" unicode="m" horiz-adv-x="810" 
d="M433 501q16 55 52 78.5t102 23.5h61q73 0 102.5 -34.5t18.5 -107.5l-64 -461h-97l61 441q6 42 -9 59.5t-57 17.5h-43q-42 0 -62 -17.5t-26 -59.5l-61 -441h-97l61 441q6 42 -8.5 59.5t-56.5 17.5h-43q-42 0 -62 -17.5t-26 -59.5l-61 -441h-97l65 461q10 73 48.5 107.5
t111.5 34.5h61q66 0 95.5 -23.5t30.5 -78.5z" />
    <glyph glyph-name="n" unicode="n" horiz-adv-x="530" 
d="M21 0l65 461q10 73 48.5 107.5t111.5 34.5h122q73 0 102.5 -34.5t18.5 -107.5l-64 -461h-97l61 441q6 42 -9 59.5t-57 17.5h-56q-42 0 -62 -17.5t-26 -59.5l-61 -441h-97z" />
    <glyph glyph-name="o" unicode="o" horiz-adv-x="513" 
d="M370 603q72 0 101.5 -34.5t19.5 -107.5l-45 -319q-11 -73 -49.5 -107.5t-110.5 -34.5h-122q-73 0 -102.5 34.5t-19.5 107.5l45 319q11 73 49.5 107.5t111.5 34.5h122zM264 85q42 0 62 17.5t26 59.5l39 279q5 42 -9.5 59.5t-56.5 17.5h-56q-42 0 -62 -17.5t-26 -59.5
l-39 -279q-6 -42 9 -59.5t57 -17.5h56z" />
    <glyph glyph-name="p" unicode="p" horiz-adv-x="523" 
d="M-3 -167l89 628q10 73 48.5 107.5t111.5 34.5h124q73 0 102.5 -34.5t18.5 -107.5l-45 -319q-10 -73 -48.5 -107.5t-111.5 -34.5h-49q-100 0 -110 72l-33 -239h-97zM179 441l-39 -279q-6 -42 9.5 -59.5t57.5 -17.5h57q42 0 62 17.5t26 59.5l39 279q6 42 -9 59.5t-57 17.5
h-58q-41 0 -61.5 -17.5t-26.5 -59.5z" />
    <glyph glyph-name="q" unicode="q" horiz-adv-x="523" 
d="M493 461l-89 -628h-97l33 239q-29 -72 -128 -72h-48q-73 0 -102.5 34.5t-19.5 107.5l45 319q11 73 49.5 107.5t111.5 34.5h124q72 0 101.5 -34.5t19.5 -107.5zM354 162l39 279q5 41 -10 59t-56 18h-58q-41 0 -61.5 -18t-26.5 -59l-39 -279q-5 -41 10 -59t56 -18h58
q41 0 61.5 18t26.5 59z" />
    <glyph glyph-name="r" unicode="r" horiz-adv-x="365" 
d="M387 603l-12 -85h-108q-41 0 -61.5 -17.5t-26.5 -59.5l-61 -441h-97l65 461q10 73 48.5 107.5t111.5 34.5h141z" />
    <glyph glyph-name="s" unicode="s" horiz-adv-x="479" 
d="M438 518h-203q-34 0 -50.5 -14.5t-21.5 -48.5l-6 -48q-5 -34 7 -48.5t46 -14.5h107q65 0 91.5 -31.5t16.5 -98.5l-12 -84q-9 -67 -44 -98.5t-99 -31.5h-268l12 85h234q34 0 50.5 14.5t21.5 48.5l6 48q5 34 -7.5 48.5t-46.5 14.5h-107q-127 0 -109 129l12 85
q10 67 45 98.5t100 31.5h237z" />
    <glyph glyph-name="t" unicode="t" horiz-adv-x="395" 
d="M173 0q-73 0 -103 34.5t-20 107.5l89 628h97l-24 -167h193l-12 -85h-193l-50 -356q-6 -42 9.5 -59.5t57.5 -17.5h115l-11 -85h-148z" />
    <glyph glyph-name="u" unicode="u" horiz-adv-x="530" 
d="M272 85q42 0 62 17.5t26 59.5l62 441h97l-65 -461q-10 -73 -48.5 -107.5t-111.5 -34.5h-122q-73 0 -102.5 34.5t-19.5 107.5l65 461h97l-62 -441q-6 -42 9.5 -59.5t57.5 -17.5h55z" />
    <glyph glyph-name="v" unicode="v" horiz-adv-x="524" 
d="M507 603l-58 -411q-14 -100 -65.5 -146t-151.5 -46h-203l84 603h97l-72 -518h86q60 0 90 25.5t39 87.5l57 405h97z" />
    <glyph glyph-name="w" unicode="w" horiz-adv-x="810" 
d="M387 102q-16 -55 -52 -78.5t-102 -23.5h-61q-73 0 -102.5 34.5t-19.5 107.5l65 461h97l-62 -441q-6 -42 9.5 -59.5t57.5 -17.5h42q42 0 62 17.5t26 59.5l61 441h97l-61 -441q-6 -42 9 -59.5t57 -17.5h42q42 0 62 17.5t26 59.5l62 441h97l-65 -461q-10 -73 -48.5 -107.5
t-111.5 -34.5h-61q-66 0 -96 24t-30 78z" />
    <glyph glyph-name="x" unicode="x" horiz-adv-x="529" 
d="M393 400l28 203h97l-25 -180q-8 -57 -33 -86.5t-74 -35.5q48 -6 64.5 -35t8.5 -86l-25 -180h-97l28 202q9 57 -49 57h-115q-58 0 -65 -57l-28 -202h-97l25 180q8 57 33 86t74 35q-48 6 -64.5 35.5t-8.5 86.5l25 180h97l-29 -203q-4 -29 8 -42.5t42 -13.5h115q56 0 65 56z
" />
    <glyph glyph-name="y" unicode="y" horiz-adv-x="540" 
d="M214 -167h-171l12 85h157q58 0 88 25.5t38 84.5l9 65q-31 -71 -129 -71h-48q-73 0 -102.5 34.5t-19.5 106.5l62 440h97l-58 -419q-7 -42 8.5 -59.5t57.5 -17.5h58q41 0 61 17.5t26 59.5l59 419h97l-81 -576q-14 -100 -67.5 -147t-153.5 -47z" />
    <glyph glyph-name="z" unicode="z" horiz-adv-x="489" 
d="M221 259q-46 0 -69.5 -20.5t-30.5 -66.5l-12 -87h305l-12 -85h-401l24 179q24 165 187 165h54q46 0 69.5 20.5t29.5 66.5l13 87h-285l12 85h381l-25 -180q-22 -164 -187 -164h-53z" />
    <glyph glyph-name="braceleft" unicode="{" horiz-adv-x="339" 
d="M211 539l-17 -122q-8 -55 -31 -80.5t-72 -26.5q49 -1 65 -26.5t8 -80.5l-17 -122q-7 -44 8 -62t57 -18h47l-11 -81h-76q-72 0 -101.5 34t-19.5 106l22 159q4 29 -2 39.5t-32 10.5h-19l11 82h20q26 0 35 10.5t13 39.5l22 159q19 140 161 140h76l-12 -81h-46
q-43 0 -62.5 -18t-26.5 -62z" />
    <glyph glyph-name="bar" unicode="|" horiz-adv-x="283" 
d="M101 -167v907h98v-907h-98z" />
    <glyph glyph-name="braceright" unicode="}" horiz-adv-x="339" 
d="M177 417l17 122q7 44 -8 62t-58 18h-46l11 81h76q72 0 101.5 -34t18.5 -106l-22 -159q-4 -29 2.5 -39.5t32.5 -10.5h20l-12 -82h-19q-26 0 -35.5 -11t-13.5 -39l-23 -159q-10 -72 -49 -106t-111 -34h-76l11 81h47q42 0 62 18t27 62l17 122q8 55 31 80.5t71 26.5
q-48 1 -64 26.5t-8 80.5z" />
    <glyph glyph-name="asciitilde" unicode="~" 
d="M63 281v94q44 56 103 56q39 0 119 -35t117 -35q59 0 101 61v-95q-44 -56 -103 -56q-40 0 -119.5 35t-117.5 35q-59 0 -100 -60z" />
    <glyph glyph-name="uni00A0" unicode="&#xa0;" horiz-adv-x="254" 
 />
    <glyph glyph-name="exclamdown" unicode="&#xa1;" horiz-adv-x="287" 
d="M115 548l11 82h127l-12 -82h-126zM41 -70l32 228q17 126 54 287h73q-6 -144 -27 -287l-32 -228h-100z" />
    <glyph glyph-name="cent" unicode="&#xa2;" 
d="M249 -40l13 90h-85q-73 0 -102.5 34.5t-18.5 107.5l44 316q11 73 49.5 107.5t111.5 34.5h85l13 90h88l-13 -90h139l-12 -85h-139l-60 -430h139l-12 -85h-139l-13 -90h-88zM222 135h52l60 430h-52q-42 0 -62 -17.5t-26 -59.5l-38 -276q-6 -42 9 -59.5t57 -17.5z" />
    <glyph glyph-name="sterling" unicode="&#xa3;" 
d="M204 88h285l-13 -88h-476l12 88h92l30 218h-92l12 88h92l23 162q11 73 50.5 108.5t113.5 35.5h196l-12 -88h-163q-43 0 -62 -17t-25 -59l-21 -142h239l-12 -88h-239z" />
    <glyph glyph-name="currency" unicode="&#xa4;" 
d="M81 509q0 74 33.5 108t107.5 34h18v89h87v-89h18q73 0 106.5 -34t33.5 -108v-116h58v-86h-58v-117q0 -74 -33.5 -108t-106.5 -34h-18v-88h-87v88h-18q-74 0 -107.5 34t-33.5 108v117h-58v86h58v116zM311 564h-56q-41 0 -59 -17.5t-18 -59.5v-275q0 -41 17.5 -59t59.5 -18
h56q41 0 59 18t18 59v275q0 41 -17.5 59t-59.5 18z" />
    <glyph glyph-name="yen" unicode="&#xa5;" 
d="M468 700h100l-24 -171q-11 -73 -50.5 -108.5t-113.5 -35.5h-38l-20 -143h167l-13 -88h-167l-21 -154h-101l22 154h-166l12 88h166l20 143h-38q-145 0 -124 144l24 171h100l-21 -148q-6 -43 9 -61.5t59 -18.5h108q43 0 63 18t25 62z" />
    <glyph glyph-name="brokenbar" unicode="&#xa6;" horiz-adv-x="283" 
d="M101 -167v394h98v-394h-98zM101 347v393h98v-393h-98z" />
    <glyph glyph-name="section" unicode="&#xa7;" horiz-adv-x="591" 
d="M235 452h204q66 0 91.5 -30.5t15.5 -97.5l-7 -51q-7 -50 -32.5 -78.5t-77.5 -35.5q50 -8 67.5 -36.5t10.5 -78.5l-6 -38q-10 -72 -47 -105t-108 -33h-340l11 85h313q38 0 57 16.5t24 54.5l3 23q5 37 -8 53t-50 16h-204q-66 0 -91.5 30.5t-15.5 97.5l7 51q7 50 32.5 78.5
t77.5 35.5q-50 8 -67.5 36t-10.5 79l5 38q11 72 48 105t108 33h340l-12 -85h-313q-38 0 -56.5 -16.5t-23.5 -54.5l-4 -23q-5 -37 8.5 -53t50.5 -16zM385 367h-158q-36 0 -54 -16t-23 -52l-4 -28q-5 -38 8.5 -54t51.5 -16h158q36 0 54 16t23 52l4 28q5 38 -8.5 54t-51.5 16z
" />
    <glyph glyph-name="dieresis" unicode="&#xa8;" horiz-adv-x="238" 
d="M133 744l-9 -68h-106l9 68h106zM334 744l-9 -68h-106l9 68h106z" />
    <glyph glyph-name="copyright" unicode="&#xa9;" horiz-adv-x="701" 
d="M321 189q-44 0 -63.5 20t-19.5 63v155q0 43 19.5 63t63.5 20h142v-47h-139q-15 0 -23.5 -9t-8.5 -23v-163q0 -14 8.5 -23t23.5 -9h139v-47h-142zM232 0q-84 0 -124 40.5t-40 122.5v374q0 82 40 122.5t124 40.5h253q164 0 164 -163v-374q0 -163 -164 -163h-253zM235 50
h247q110 0 110 111v378q0 111 -110 111h-247q-110 0 -110 -111v-378q0 -111 110 -111z" />
    <glyph glyph-name="ordfeminine" unicode="&#xaa;" horiz-adv-x="456" 
d="M352 471l14 97q4 31 -6.5 43.5t-39.5 12.5h-206l11 76h226q62 0 87 -29.5t17 -90.5l-42 -294q-16 -120 -137 -120h-129q-62 0 -87 29.5t-17 90.5l10 65q16 120 137 120h162zM138 340l-6 -42q-4 -31 6.5 -43.5t39.5 -12.5h88q29 0 43.5 12.5t18.5 43.5l14 97h-143
q-29 0 -43 -12.5t-18 -42.5zM202 102l64 -102h-155z" />
    <glyph glyph-name="guillemotleft" unicode="&#xab;" horiz-adv-x="497" 
d="M233 51h-97l-113 249l183 249h100l-186 -253zM437 51h-97l-113 249l183 249h100l-186 -253z" />
    <glyph glyph-name="logicalnot" unicode="&#xac;" 
d="M63 307v85h440v-263h-84v178h-356z" />
    <glyph glyph-name="uni00AD" unicode="&#xad;" horiz-adv-x="380" 
d="M351 370l-12 -86h-303l12 86h303z" />
    <glyph glyph-name="registered" unicode="&#xae;" horiz-adv-x="701" 
d="M232 0q-84 0 -124 40.5t-40 122.5v374q0 82 40 122.5t124 40.5h253q164 0 164 -163v-374q0 -163 -164 -163h-253zM235 50h247q110 0 110 111v378q0 111 -110 111h-247q-110 0 -110 -111v-378q0 -111 110 -111zM473 408q0 -55 -56 -59q56 -5 56 -66v-94h-55v108
q0 28 -25 28h-91v-136h-55v321h162q33 0 48.5 -15t15.5 -49v-38zM418 441q0 22 -22 22h-94v-90h94q22 0 22 22v46z" />
    <glyph glyph-name="macron" unicode="&#xaf;" horiz-adv-x="238" 
d="M294 685h-243l8 52h242z" />
    <glyph glyph-name="degree" unicode="&#xb0;" horiz-adv-x="417" 
d="M58 573q0 127 135 127h76q135 0 135 -127v-134q0 -127 -135 -127h-76q-135 0 -135 127v134zM222 627q-46 0 -62 -16t-16 -61v-89q0 -45 16 -61t62 -16h19q45 0 61.5 16t16.5 61v89q0 45 -16 61t-62 16h-19z" />
    <glyph glyph-name="plusminus" unicode="&#xb1;" 
d="M503 0h-440v84h440v-84zM63 307v85h177v177h85v-177h178v-85h-178v-178h-85v178h-177z" />
    <glyph glyph-name="twosuperior" unicode="&#xb2;" horiz-adv-x="470" 
d="M377 530l5 36q5 32 -6 45t-42 13h-225l11 76h248q62 0 86.5 -29.5t16.5 -90.5l-9 -64q-9 -62 -42 -91.5t-94 -29.5h-101q-48 0 -68.5 -17.5t-26.5 -64.5l-10 -70h303l-10 -77h-390l22 159q19 147 167 147h100q32 0 46.5 12.5t18.5 45.5z" />
    <glyph glyph-name="threesuperior" unicode="&#xb3;" horiz-adv-x="470" 
d="M467 581l-6 -41q-7 -48 -28 -74.5t-72 -32.5q49 -6 63 -32.5t7 -74.5l-5 -41q-9 -61 -41.5 -90t-93.5 -29h-274l11 76h248q32 0 46.5 13t18.5 46l5 36q4 31 -7 44.5t-40 13.5h-174l11 76h173q56 0 64 58l5 36q5 33 -6 46t-43 13h-248l11 76h274q61 0 85 -29t16 -90z" />
    <glyph glyph-name="acute" unicode="&#xb4;" horiz-adv-x="238" 
d="M290 763l-134 -101h-77l110 101h101z" />
    <glyph glyph-name="uni00B5" unicode="&#xb5;" horiz-adv-x="540" 
d="M215 85h58q41 0 61 17.5t26 59.5l62 441h97l-65 -461q-10 -73 -48.5 -107.5t-111.5 -34.5h-48q-53 0 -79 17.5t-31 54.5l-34 -239h-97l108 770h97l-61 -441q-6 -42 9 -59.5t57 -17.5z" />
    <glyph glyph-name="paragraph" unicode="&#xb6;" horiz-adv-x="671" 
d="M661 700l-117 -832h-89l105 747h-138l-105 -747h-89l57 407h-92q-80 0 -112.5 38.5t-21.5 117.5l16 113q11 79 54 117.5t124 38.5h408z" />
    <glyph glyph-name="periodcentered" unicode="&#xb7;" horiz-adv-x="280" 
d="M213 395l-13 -90h-121l13 90h121z" />
    <glyph glyph-name="cedilla" unicode="&#xb8;" horiz-adv-x="250" 
d="M65 -41h62q68 0 68 -43q0 -82 -118 -82h-143l9 58h131q54 0 54 31q0 16 -26 16h-68l30 61h20z" />
    <glyph glyph-name="onesuperior" unicode="&#xb9;" horiz-adv-x="470" 
d="M91 166l11 76h123l53 382h-123l11 76h210l-65 -458h96l-11 -76h-305z" />
    <glyph glyph-name="ordmasculine" unicode="&#xba;" horiz-adv-x="466" 
d="M54 286l42 294q16 120 137 120h129q121 0 103 -120l-41 -294q-9 -61 -42 -90.5t-95 -29.5h-129q-62 0 -87 29.5t-17 90.5zM277 242q29 0 43 12.5t18 43.5l39 270q4 31 -6.5 43.5t-39.5 12.5h-89q-29 0 -43.5 -13t-18.5 -43l-38 -270q-4 -31 6.5 -43.5t39.5 -12.5h89z
M213 102l64 -102h-155z" />
    <glyph glyph-name="guillemotright" unicode="&#xbb;" horiz-adv-x="497" 
d="M88 51h-100l185 249l-115 249h100l112 -249zM292 51h-100l184 249l-114 249h100l112 -249z" />
    <glyph glyph-name="onequarter" unicode="&#xbc;" horiz-adv-x="1064" 
d="M352 0l297 700h78l-297 -700h-78zM91 166l11 76h123l53 382h-123l11 76h210l-65 -458h96l-11 -76h-305zM908 305l32 229h87l-75 -534h-87l32 229h-155q-62 0 -87 29.5t-17 90.5l26 185h87l-24 -172q-4 -30 7.5 -43.5t40.5 -13.5h133z" />
    <glyph glyph-name="onehalf" unicode="&#xbd;" horiz-adv-x="1064" 
d="M352 0l297 700h78l-297 -700h-78zM91 166l11 76h123l53 382h-123l11 76h210l-65 -458h96l-11 -76h-305zM947 364l5 36q5 32 -6 45t-42 13h-225l11 76h248q62 0 86.5 -29.5t16.5 -90.5l-9 -64q-9 -62 -42 -91.5t-94 -29.5h-101q-48 0 -68.5 -17.5t-26.5 -64.5l-10 -70h303
l-10 -77h-390l22 159q19 147 167 147h100q32 0 46.5 12.5t18.5 45.5z" />
    <glyph glyph-name="threequarters" unicode="&#xbe;" horiz-adv-x="1064" 
d="M352 0l297 700h78l-297 -700h-78zM908 305l32 229h87l-75 -534h-87l32 229h-155q-62 0 -87 29.5t-17 90.5l26 185h87l-24 -172q-4 -30 7.5 -43.5t40.5 -13.5h133zM467 581l-6 -41q-7 -48 -28 -74.5t-72 -32.5q49 -6 63 -32.5t7 -74.5l-5 -41q-9 -61 -41.5 -90t-93.5 -29
h-274l11 76h248q32 0 46.5 13t18.5 46l5 36q4 31 -7 44.5t-40 13.5h-174l11 76h173q56 0 64 58l5 36q5 33 -6 46t-43 13h-248l11 76h274q61 0 85 -29t16 -90z" />
    <glyph glyph-name="questiondown" unicode="&#xbf;" horiz-adv-x="507" 
d="M120 159l-9 -64q-6 -41 9 -59t54 -18h287l-12 -88h-319q-73 0 -103 34.5t-20 107.5l16 110q11 73 50 107.5t112 34.5h48q34 0 49.5 13.5t19.5 48.5l9 63h101l-14 -95q-16 -118 -134 -118h-60q-39 0 -58.5 -18t-25.5 -59zM312 548l12 82h126l-11 -82h-127z" />
    <glyph glyph-name="Agrave" unicode="&#xc0;" horiz-adv-x="597" 
d="M486 0h-100l42 306h-258l-43 -306h-100l78 556q19 144 165 144h169q145 0 124 -144zM394 612h-104q-43 0 -63 -18t-25 -62l-20 -138h258l20 138q6 44 -9 62t-57 18zM352 749l-102 101h94l83 -101h-75z" />
    <glyph glyph-name="Aacute" unicode="&#xc1;" horiz-adv-x="597" 
d="M486 0h-100l42 306h-258l-43 -306h-100l78 556q19 144 165 144h169q145 0 124 -144zM394 612h-104q-43 0 -63 -18t-25 -62l-20 -138h258l20 138q6 44 -9 62t-57 18zM505 850l-134 -101h-77l110 101h101z" />
    <glyph glyph-name="Acircumflex" unicode="&#xc2;" horiz-adv-x="597" 
d="M486 0h-100l42 306h-258l-43 -306h-100l78 556q19 144 165 144h169q145 0 124 -144zM394 612h-104q-43 0 -63 -18t-25 -62l-20 -138h258l20 138q6 44 -9 62t-57 18zM370 811l-90 -62h-75l123 101h94l94 -101h-72z" />
    <glyph glyph-name="Atilde" unicode="&#xc3;" horiz-adv-x="597" 
d="M486 0h-100l42 306h-258l-43 -306h-100l78 556q19 144 165 144h169q145 0 124 -144zM394 612h-104q-43 0 -63 -18t-25 -62l-20 -138h258l20 138q6 44 -9 62t-57 18zM239 747l8 60q37 36 72 36q21 0 55.5 -19.5t53.5 -19.5q31 0 67 39l-8 -59q-40 -39 -74 -39
q-21 0 -56 20t-53 20q-31 0 -65 -38z" />
    <glyph glyph-name="Adieresis" unicode="&#xc4;" horiz-adv-x="597" 
d="M486 0h-100l42 306h-258l-43 -306h-100l78 556q19 144 165 144h169q145 0 124 -144zM394 612h-104q-43 0 -63 -18t-25 -62l-20 -138h258l20 138q6 44 -9 62t-57 18zM324 831l-9 -68h-106l9 68h106zM525 831l-9 -68h-106l9 68h106z" />
    <glyph glyph-name="Aring" unicode="&#xc5;" horiz-adv-x="597" 
d="M486 0h-100l42 306h-258l-43 -306h-100l78 556q19 144 165 144h169q145 0 124 -144zM394 612h-104q-43 0 -63 -18t-25 -62l-20 -138h258l20 138q6 44 -9 62t-57 18zM389 836h-31q-33 0 -33 -33q0 -21 26 -21h31q33 0 33 33q0 21 -26 21zM372 746h-21q-67 0 -67 50
q0 75 84 75h21q67 0 67 -50q0 -75 -84 -75z" />
    <glyph glyph-name="AE" unicode="&#xc6;" horiz-adv-x="885" 
d="M373 0l42 306h-245l-43 -306h-100l78 556q19 144 165 144h628l-13 -88h-329l-31 -218h239l-12 -88h-239l-30 -218h329l-12 -88h-427zM290 612q-43 0 -62.5 -18t-25.5 -62l-20 -138h246l31 218h-169z" />
    <glyph glyph-name="Ccedilla" unicode="&#xc7;" horiz-adv-x="502" 
d="M277 -61h-68l30 61h-56q-145 0 -124 144l58 412q19 144 164 144h255l-13 -88h-221q-43 0 -62.5 -18t-25.5 -62l-52 -364q-6 -44 9 -62t58 -18h221l-12 -88h-179l-19 -41h62q68 0 68 -43q0 -82 -118 -82h-143l9 58h131q54 0 54 31q0 16 -26 16z" />
    <glyph glyph-name="Egrave" unicode="&#xc8;" horiz-adv-x="554" 
d="M35 0l98 700h434l-13 -88h-333l-31 -218h244l-13 -88h-243l-30 -218h333l-12 -88h-434zM348 749l-102 101h94l83 -101h-75z" />
    <glyph glyph-name="Eacute" unicode="&#xc9;" horiz-adv-x="554" 
d="M35 0l98 700h434l-13 -88h-333l-31 -218h244l-13 -88h-243l-30 -218h333l-12 -88h-434zM501 850l-134 -101h-77l110 101h101z" />
    <glyph glyph-name="Ecircumflex" unicode="&#xca;" horiz-adv-x="554" 
d="M35 0l98 700h434l-13 -88h-333l-31 -218h244l-13 -88h-243l-30 -218h333l-12 -88h-434zM366 811l-90 -62h-75l123 101h94l94 -101h-72z" />
    <glyph glyph-name="Edieresis" unicode="&#xcb;" horiz-adv-x="554" 
d="M35 0l98 700h434l-13 -88h-333l-31 -218h244l-13 -88h-243l-30 -218h333l-12 -88h-434zM320 831l-9 -68h-106l9 68h106zM521 831l-9 -68h-106l9 68h106z" />
    <glyph glyph-name="Igrave" unicode="&#xcc;" horiz-adv-x="255" 
d="M35 0l98 700h101l-98 -700h-101zM182 749l-102 101h94l83 -101h-75z" />
    <glyph glyph-name="Iacute" unicode="&#xcd;" horiz-adv-x="255" 
d="M35 0l98 700h101l-98 -700h-101zM334 850l-134 -101h-77l110 101h101z" />
    <glyph glyph-name="Icircumflex" unicode="&#xce;" horiz-adv-x="255" 
d="M35 0l98 700h101l-98 -700h-101zM200 811l-90 -62h-75l123 101h94l94 -101h-72z" />
    <glyph glyph-name="Idieresis" unicode="&#xcf;" horiz-adv-x="255" 
d="M345 831l-9 -68h-106l9 68h106zM164 831l-9 -68h-106l9 68h106zM35 0l98 700h101l-98 -700h-101z" />
    <glyph glyph-name="Eth" unicode="&#xd0;" horiz-adv-x="591" 
d="M392 700q199 0 172 -200l-43 -300q-27 -200 -227 -200h-259l43 306h-64l12 88h64l43 306h259zM284 88q122 0 139 122l39 280q17 122 -104 122h-137l-31 -218h89l-12 -88h-89l-30 -218h136z" />
    <glyph glyph-name="Ntilde" unicode="&#xd1;" horiz-adv-x="597" 
d="M290 612q-43 0 -62.5 -18t-25.5 -62l-75 -532h-100l78 556q19 144 165 144h169q145 0 124 -144l-77 -556h-100l74 532q6 44 -9 62t-57 18h-104zM239 747l8 60q37 36 72 36q21 0 55.5 -19.5t53.5 -19.5q31 0 67 39l-8 -59q-40 -39 -74 -39q-21 0 -56 20t-53 20
q-31 0 -65 -38z" />
    <glyph glyph-name="Ograve" unicode="&#xd2;" horiz-adv-x="580" 
d="M184 0q-146 0 -125 144l58 412q19 144 165 144h170q74 0 104.5 -35.5t20.5 -108.5l-58 -412q-11 -73 -51 -108.5t-114 -35.5h-170zM422 168l51 364q6 44 -8.5 62t-57.5 18h-105q-43 0 -62.5 -18t-25.5 -62l-52 -364q-6 -44 9 -62t58 -18h105q42 0 62 18t26 62zM365 749
l-102 101h94l83 -101h-75z" />
    <glyph glyph-name="Oacute" unicode="&#xd3;" horiz-adv-x="580" 
d="M184 0q-146 0 -125 144l58 412q19 144 165 144h170q74 0 104.5 -35.5t20.5 -108.5l-58 -412q-11 -73 -51 -108.5t-114 -35.5h-170zM422 168l51 364q6 44 -8.5 62t-57.5 18h-105q-43 0 -62.5 -18t-25.5 -62l-52 -364q-6 -44 9 -62t58 -18h105q42 0 62 18t26 62zM518 850
l-134 -101h-77l110 101h101z" />
    <glyph glyph-name="Ocircumflex" unicode="&#xd4;" horiz-adv-x="580" 
d="M184 0q-146 0 -125 144l58 412q19 144 165 144h170q74 0 104.5 -35.5t20.5 -108.5l-58 -412q-11 -73 -51 -108.5t-114 -35.5h-170zM422 168l51 364q6 44 -8.5 62t-57.5 18h-105q-43 0 -62.5 -18t-25.5 -62l-52 -364q-6 -44 9 -62t58 -18h105q42 0 62 18t26 62zM383 811
l-90 -62h-75l123 101h94l94 -101h-72z" />
    <glyph glyph-name="Otilde" unicode="&#xd5;" horiz-adv-x="580" 
d="M184 0q-146 0 -125 144l58 412q19 144 165 144h170q74 0 104.5 -35.5t20.5 -108.5l-58 -412q-11 -73 -51 -108.5t-114 -35.5h-170zM422 168l51 364q6 44 -8.5 62t-57.5 18h-105q-43 0 -62.5 -18t-25.5 -62l-52 -364q-6 -44 9 -62t58 -18h105q42 0 62 18t26 62zM252 747
l8 60q37 36 72 36q21 0 55.5 -19.5t53.5 -19.5q31 0 67 39l-8 -59q-40 -39 -74 -39q-21 0 -56 20t-53 20q-31 0 -65 -38z" />
    <glyph glyph-name="Odieresis" unicode="&#xd6;" horiz-adv-x="580" 
d="M184 0q-146 0 -125 144l58 412q19 144 165 144h170q74 0 104.5 -35.5t20.5 -108.5l-58 -412q-11 -73 -51 -108.5t-114 -35.5h-170zM422 168l51 364q6 44 -8.5 62t-57.5 18h-105q-43 0 -62.5 -18t-25.5 -62l-52 -364q-6 -44 9 -62t58 -18h105q42 0 62 18t26 62zM337 831
l-9 -68h-106l9 68h106zM538 831l-9 -68h-106l9 68h106z" />
    <glyph glyph-name="multiply" unicode="&#xd7;" 
d="M373 307l106 -178h-92l-104 178l-106 -178h-91l106 178h-129v85h129l-106 177h91l106 -177l104 177h92l-106 -177h130v-85h-130z" />
    <glyph glyph-name="Oslash" unicode="&#xd8;" horiz-adv-x="580" 
d="M184 0q-146 0 -125 144l58 412q19 144 165 144h170q74 0 104.5 -35.5t20.5 -108.5l-58 -412q-11 -73 -51 -108.5t-114 -35.5h-170zM422 168l51 364q5 36 -4 55l-276 -495q13 -4 36 -4h105q42 0 62 18t26 62zM162 168q-4 -33 3 -52l275 492q-12 4 -33 4h-105
q-43 0 -62.5 -18t-25.5 -62z" />
    <glyph glyph-name="Ugrave" unicode="&#xd9;" horiz-adv-x="597" 
d="M193 0q-146 0 -125 144l78 556h100l-75 -532q-6 -44 9 -62t58 -18h103q43 0 62.5 18t25.5 62l76 532h100l-78 -556q-11 -73 -51 -108.5t-114 -35.5h-169zM373 749l-102 101h94l83 -101h-75z" />
    <glyph glyph-name="Uacute" unicode="&#xda;" horiz-adv-x="597" 
d="M193 0q-146 0 -125 144l78 556h100l-75 -532q-6 -44 9 -62t58 -18h103q43 0 62.5 18t25.5 62l76 532h100l-78 -556q-11 -73 -51 -108.5t-114 -35.5h-169zM526 850l-134 -101h-77l110 101h101z" />
    <glyph glyph-name="Ucircumflex" unicode="&#xdb;" horiz-adv-x="597" 
d="M193 0q-146 0 -125 144l78 556h100l-75 -532q-6 -44 9 -62t58 -18h103q43 0 62.5 18t25.5 62l76 532h100l-78 -556q-11 -73 -51 -108.5t-114 -35.5h-169zM391 811l-90 -62h-75l123 101h94l94 -101h-72z" />
    <glyph glyph-name="Udieresis" unicode="&#xdc;" horiz-adv-x="597" 
d="M193 0q-146 0 -125 144l78 556h100l-75 -532q-6 -44 9 -62t58 -18h103q43 0 62.5 18t25.5 62l76 532h100l-78 -556q-11 -73 -51 -108.5t-114 -35.5h-169zM345 831l-9 -68h-106l9 68h106zM546 831l-9 -68h-106l9 68h106z" />
    <glyph glyph-name="Yacute" unicode="&#xdd;" horiz-adv-x="565" 
d="M497 700h100l-35 -250q-20 -144 -165 -144h-44l-43 -306h-100l43 306h-45q-144 0 -124 144l35 250h101l-33 -227q-5 -43 10 -61t57 -18h122q43 0 62.5 17.5t26.5 61.5zM509 850l-134 -101h-77l110 101h101z" />
    <glyph glyph-name="Thorn" unicode="&#xde;" horiz-adv-x="565" 
d="M35 0l98 700h101l-14 -97h214q74 0 104 -34.5t19 -107.5l-16 -110q-10 -73 -49 -107.5t-113 -34.5h-214l-29 -209h-101zM454 438q5 41 -9.5 59t-53.5 18h-184l-30 -218h183q40 0 59.5 18t25.5 59z" />
    <glyph glyph-name="germandbls" unicode="&#xdf;" horiz-adv-x="546" 
d="M335 259h-106l12 85h105q37 0 53 14.5t21 50.5l6 38q5 38 -9 54.5t-52 16.5h-82q-49 0 -74 -21.5t-32 -70.5l-83 -593h-97l85 606q12 84 58 124t130 40h140q70 0 97.5 -33t18.5 -104l-8 -52q-7 -51 -32 -79t-75 -34q48 -6 65 -33.5t10 -78.5l-7 -52q-10 -71 -46.5 -104
t-106.5 -33h-133l12 85h100q38 0 56 16t23 55l6 37q5 36 -7 51t-48 15z" />
    <glyph glyph-name="agrave" unicode="&#xe0;" horiz-adv-x="514" 
d="M387 344l13 97q6 42 -9 59.5t-57 17.5h-214l11 85h248q73 0 102.5 -34.5t19.5 -107.5l-46 -319q-10 -73 -48.5 -107.5t-111.5 -34.5h-151q-128 0 -109 130l12 84q10 67 45 98.5t99 31.5h196zM375 259h-161q-34 0 -50.5 -14.5t-21.5 -48.5l-7 -48q-5 -34 7.5 -48.5
t46.5 -14.5h85q42 0 61.5 17.5t25.5 59.5zM313 662l-102 101h94l83 -101h-75z" />
    <glyph glyph-name="aacute" unicode="&#xe1;" horiz-adv-x="514" 
d="M387 344l13 97q6 42 -9 59.5t-57 17.5h-214l11 85h248q73 0 102.5 -34.5t19.5 -107.5l-46 -319q-10 -73 -48.5 -107.5t-111.5 -34.5h-151q-128 0 -109 130l12 84q10 67 45 98.5t99 31.5h196zM375 259h-161q-34 0 -50.5 -14.5t-21.5 -48.5l-7 -48q-5 -34 7.5 -48.5
t46.5 -14.5h85q42 0 61.5 17.5t25.5 59.5zM466 763l-134 -101h-77l110 101h101z" />
    <glyph glyph-name="acircumflex" unicode="&#xe2;" horiz-adv-x="514" 
d="M387 344l13 97q6 42 -9 59.5t-57 17.5h-214l11 85h248q73 0 102.5 -34.5t19.5 -107.5l-46 -319q-10 -73 -48.5 -107.5t-111.5 -34.5h-151q-128 0 -109 130l12 84q10 67 45 98.5t99 31.5h196zM375 259h-161q-34 0 -50.5 -14.5t-21.5 -48.5l-7 -48q-5 -34 7.5 -48.5
t46.5 -14.5h85q42 0 61.5 17.5t25.5 59.5zM331 724l-90 -62h-75l123 101h94l94 -101h-72z" />
    <glyph glyph-name="atilde" unicode="&#xe3;" horiz-adv-x="514" 
d="M387 344l13 97q6 42 -9 59.5t-57 17.5h-214l11 85h248q73 0 102.5 -34.5t19.5 -107.5l-46 -319q-10 -73 -48.5 -107.5t-111.5 -34.5h-151q-128 0 -109 130l12 84q10 67 45 98.5t99 31.5h196zM375 259h-161q-34 0 -50.5 -14.5t-21.5 -48.5l-7 -48q-5 -34 7.5 -48.5
t46.5 -14.5h85q42 0 61.5 17.5t25.5 59.5zM200 660l8 60q37 36 72 36q21 0 55.5 -19.5t53.5 -19.5q31 0 67 39l-8 -59q-40 -39 -74 -39q-21 0 -56 20t-53 20q-31 0 -65 -38z" />
    <glyph glyph-name="adieresis" unicode="&#xe4;" horiz-adv-x="514" 
d="M387 344l13 97q6 42 -9 59.5t-57 17.5h-214l11 85h248q73 0 102.5 -34.5t19.5 -107.5l-46 -319q-10 -73 -48.5 -107.5t-111.5 -34.5h-151q-128 0 -109 130l12 84q10 67 45 98.5t99 31.5h196zM375 259h-161q-34 0 -50.5 -14.5t-21.5 -48.5l-7 -48q-5 -34 7.5 -48.5
t46.5 -14.5h85q42 0 61.5 17.5t25.5 59.5zM285 744l-9 -68h-106l9 68h106zM486 744l-9 -68h-106l9 68h106z" />
    <glyph glyph-name="aring" unicode="&#xe5;" horiz-adv-x="514" 
d="M387 344l13 97q6 42 -9 59.5t-57 17.5h-214l11 85h248q73 0 102.5 -34.5t19.5 -107.5l-46 -319q-10 -73 -48.5 -107.5t-111.5 -34.5h-151q-128 0 -109 130l12 84q10 67 45 98.5t99 31.5h196zM375 259h-161q-34 0 -50.5 -14.5t-21.5 -48.5l-7 -48q-5 -34 7.5 -48.5
t46.5 -14.5h85q42 0 61.5 17.5t25.5 59.5zM349 749h-31q-33 0 -33 -33q0 -21 26 -21h31q33 0 33 33q0 21 -26 21zM332 659h-21q-67 0 -67 50q0 75 84 75h21q67 0 67 -50q0 -75 -84 -75z" />
    <glyph glyph-name="ae" unicode="&#xe6;" horiz-adv-x="753" 
d="M649 407l7 48q4 34 -8.5 48.5t-46.5 14.5h-50q-42 0 -62 -17.5t-26 -59.5l-14 -97h127q35 0 51.5 14.5t21.5 48.5zM142 196l-7 -48q-5 -34 7.5 -48.5t46.5 -14.5h51q42 0 61.5 17.5t25.5 59.5l14 97h-127q-34 0 -50.5 -14.5t-21.5 -48.5zM213 0h-69q-128 0 -109 130
l12 84q10 67 45 98.5t99 31.5h161l14 97q6 42 -9 59.5t-57 17.5h-180l11 85h166q66 0 96 -24t31 -78q15 55 51 78.5t102 23.5h70q127 0 108 -130l-12 -85q-9 -66 -44 -97.5t-100 -31.5h-161l-14 -97q-6 -42 9.5 -59.5t56.5 -17.5h181l-12 -85h-166q-66 0 -96 24t-30 78
q-16 -55 -52 -78.5t-102 -23.5z" />
    <glyph glyph-name="ccedilla" unicode="&#xe7;" horiz-adv-x="460" 
d="M214 -166h-143l9 58h131q54 0 54 31q0 16 -26 16h-68l30 61h-37q-73 0 -102.5 34.5t-19.5 107.5l45 319q11 73 49.5 107.5t111.5 34.5h221l-11 -85h-189q-42 0 -62 -17.5t-26 -59.5l-39 -279q-6 -42 9.5 -59.5t56.5 -17.5h189l-12 -85h-164l-19 -41h62q68 0 68 -43
q0 -82 -118 -82z" />
    <glyph glyph-name="egrave" unicode="&#xe8;" horiz-adv-x="514" 
d="M495 388q-9 -66 -44 -97.5t-100 -31.5h-195l-14 -97q-6 -42 9.5 -59.5t56.5 -17.5h215l-12 -85h-247q-73 0 -102.5 34.5t-19.5 107.5l45 319q11 73 49.5 107.5t111.5 34.5h151q65 0 91.5 -31.5t16.5 -98.5zM353 518h-84q-42 0 -62 -17.5t-26 -59.5l-14 -97h162
q34 0 51 14.5t21 48.5l7 48q5 34 -8 48.5t-47 14.5zM323 662l-102 101h94l83 -101h-75z" />
    <glyph glyph-name="eacute" unicode="&#xe9;" horiz-adv-x="514" 
d="M495 388q-9 -66 -44 -97.5t-100 -31.5h-195l-14 -97q-6 -42 9.5 -59.5t56.5 -17.5h215l-12 -85h-247q-73 0 -102.5 34.5t-19.5 107.5l45 319q11 73 49.5 107.5t111.5 34.5h151q65 0 91.5 -31.5t16.5 -98.5zM353 518h-84q-42 0 -62 -17.5t-26 -59.5l-14 -97h162
q34 0 51 14.5t21 48.5l7 48q5 34 -8 48.5t-47 14.5zM476 763l-134 -101h-77l110 101h101z" />
    <glyph glyph-name="ecircumflex" unicode="&#xea;" horiz-adv-x="514" 
d="M495 388q-9 -66 -44 -97.5t-100 -31.5h-195l-14 -97q-6 -42 9.5 -59.5t56.5 -17.5h215l-12 -85h-247q-73 0 -102.5 34.5t-19.5 107.5l45 319q11 73 49.5 107.5t111.5 34.5h151q65 0 91.5 -31.5t16.5 -98.5zM353 518h-84q-42 0 -62 -17.5t-26 -59.5l-14 -97h162
q34 0 51 14.5t21 48.5l7 48q5 34 -8 48.5t-47 14.5zM341 724l-90 -62h-75l123 101h94l94 -101h-72z" />
    <glyph glyph-name="edieresis" unicode="&#xeb;" horiz-adv-x="514" 
d="M495 388q-9 -66 -44 -97.5t-100 -31.5h-195l-14 -97q-6 -42 9.5 -59.5t56.5 -17.5h215l-12 -85h-247q-73 0 -102.5 34.5t-19.5 107.5l45 319q11 73 49.5 107.5t111.5 34.5h151q65 0 91.5 -31.5t16.5 -98.5zM353 518h-84q-42 0 -62 -17.5t-26 -59.5l-14 -97h162
q34 0 51 14.5t21 48.5l7 48q5 34 -8 48.5t-47 14.5zM295 744l-9 -68h-106l9 68h106zM496 744l-9 -68h-106l9 68h106z" />
    <glyph glyph-name="igrave" unicode="&#xec;" horiz-adv-x="306" 
d="M179 662l-102 101h94l83 -101h-75zM214 85h52l-11 -85h-84q-73 0 -100.5 32.5t-16.5 103.5l65 467h97l-63 -447q-6 -40 7 -55.5t54 -15.5z" />
    <glyph glyph-name="iacute" unicode="&#xed;" horiz-adv-x="306" 
d="M327 763l-134 -101h-77l110 101h101zM214 85h52l-11 -85h-84q-73 0 -100.5 32.5t-16.5 103.5l65 467h97l-63 -447q-6 -40 7 -55.5t54 -15.5z" />
    <glyph glyph-name="icircumflex" unicode="&#xee;" horiz-adv-x="306" 
d="M203 85h52l-11 -85h-84q-73 0 -100.5 32.5t-16.5 103.5l65 467h97l-63 -447q-6 -40 7 -55.5t54 -15.5zM174 724l-90 -62h-75l123 101h94l94 -101h-72z" />
    <glyph glyph-name="idieresis" unicode="&#xef;" horiz-adv-x="306" 
d="M330 744l-10 -68h-106l10 68h106zM129 744l-10 -68h-106l10 68h106zM203 85h52l-11 -85h-84q-73 0 -100.5 32.5t-16.5 103.5l65 467h97l-63 -447q-6 -40 7 -55.5t54 -15.5z" />
    <glyph glyph-name="eth" unicode="&#xf0;" horiz-adv-x="523" 
d="M245 581h48q52 0 78 -17t32 -54l8 65q9 59 -13.5 84.5t-81.5 25.5h-7l-9 -67h-31l9 67h-119l12 85h119l7 50h32l-7 -50h20q100 0 140.5 -47t26.5 -147l-61 -434q-11 -73 -49.5 -107.5t-110.5 -34.5h-124q-73 0 -102.5 34.5t-19.5 107.5l42 298q11 72 50 106.5t111 34.5z
M323 496h-57q-42 0 -62 -18t-26 -59l-36 -257q-6 -42 9.5 -59.5t56.5 -17.5h58q42 0 62 17.5t26 59.5l36 257q5 42 -10 59.5t-57 17.5z" />
    <glyph glyph-name="ntilde" unicode="&#xf1;" horiz-adv-x="530" 
d="M21 0l65 461q10 73 48.5 107.5t111.5 34.5h122q73 0 102.5 -34.5t18.5 -107.5l-64 -461h-97l61 441q6 42 -9 59.5t-57 17.5h-56q-42 0 -62 -17.5t-26 -59.5l-61 -441h-97zM194 660l8 60q37 36 72 36q21 0 55.5 -19.5t53.5 -19.5q31 0 67 39l-8 -59q-40 -39 -74 -39
q-22 0 -56 20t-53 20q-31 0 -65 -38z" />
    <glyph glyph-name="ograve" unicode="&#xf2;" horiz-adv-x="513" 
d="M370 603q72 0 101.5 -34.5t19.5 -107.5l-45 -319q-11 -73 -49.5 -107.5t-110.5 -34.5h-122q-73 0 -102.5 34.5t-19.5 107.5l45 319q11 73 49.5 107.5t111.5 34.5h122zM264 85q42 0 62 17.5t26 59.5l39 279q5 42 -9.5 59.5t-56.5 17.5h-56q-42 0 -62 -17.5t-26 -59.5
l-39 -279q-6 -42 9 -59.5t57 -17.5h56zM308 662l-102 101h94l83 -101h-75z" />
    <glyph glyph-name="oacute" unicode="&#xf3;" horiz-adv-x="513" 
d="M370 603q72 0 101.5 -34.5t19.5 -107.5l-45 -319q-11 -73 -49.5 -107.5t-110.5 -34.5h-122q-73 0 -102.5 34.5t-19.5 107.5l45 319q11 73 49.5 107.5t111.5 34.5h122zM264 85q42 0 62 17.5t26 59.5l39 279q5 42 -9.5 59.5t-56.5 17.5h-56q-42 0 -62 -17.5t-26 -59.5
l-39 -279q-6 -42 9 -59.5t57 -17.5h56zM461 763l-134 -101h-77l110 101h101z" />
    <glyph glyph-name="ocircumflex" unicode="&#xf4;" horiz-adv-x="513" 
d="M370 603q72 0 101.5 -34.5t19.5 -107.5l-45 -319q-11 -73 -49.5 -107.5t-110.5 -34.5h-122q-73 0 -102.5 34.5t-19.5 107.5l45 319q11 73 49.5 107.5t111.5 34.5h122zM264 85q42 0 62 17.5t26 59.5l39 279q5 42 -9.5 59.5t-56.5 17.5h-56q-42 0 -62 -17.5t-26 -59.5
l-39 -279q-6 -42 9 -59.5t57 -17.5h56zM327 724l-90 -62h-75l123 101h94l94 -101h-72z" />
    <glyph glyph-name="otilde" unicode="&#xf5;" horiz-adv-x="513" 
d="M370 603q72 0 101.5 -34.5t19.5 -107.5l-45 -319q-11 -73 -49.5 -107.5t-110.5 -34.5h-122q-73 0 -102.5 34.5t-19.5 107.5l45 319q11 73 49.5 107.5t111.5 34.5h122zM264 85q42 0 62 17.5t26 59.5l39 279q5 42 -9.5 59.5t-56.5 17.5h-56q-42 0 -62 -17.5t-26 -59.5
l-39 -279q-6 -42 9 -59.5t57 -17.5h56zM196 660l8 60q37 36 72 36q21 0 55.5 -19.5t53.5 -19.5q31 0 67 39l-8 -59q-40 -39 -74 -39q-22 0 -56 20t-53 20q-31 0 -65 -38z" />
    <glyph glyph-name="odieresis" unicode="&#xf6;" horiz-adv-x="513" 
d="M370 603q72 0 101.5 -34.5t19.5 -107.5l-45 -319q-11 -73 -49.5 -107.5t-110.5 -34.5h-122q-73 0 -102.5 34.5t-19.5 107.5l45 319q11 73 49.5 107.5t111.5 34.5h122zM264 85q42 0 62 17.5t26 59.5l39 279q5 42 -9.5 59.5t-56.5 17.5h-56q-42 0 -62 -17.5t-26 -59.5
l-39 -279q-6 -42 9 -59.5t57 -17.5h56zM281 744l-9 -68h-106l9 68h106zM482 744l-9 -68h-106l9 68h106z" />
    <glyph glyph-name="divide" unicode="&#xf7;" 
d="M337 163v-91h-107v91h107zM337 628v-91h-107v91h107zM503 307h-440v85h440v-85z" />
    <glyph glyph-name="oslash" unicode="&#xf8;" horiz-adv-x="513" 
d="M370 603q72 0 101.5 -34.5t19.5 -107.5l-45 -319q-11 -73 -49.5 -107.5t-110.5 -34.5h-122q-73 0 -102.5 34.5t-19.5 107.5l45 319q11 73 49.5 107.5t111.5 34.5h122zM264 85q42 0 62 17.5t26 59.5l39 279q6 46 -13 63l-196 -417q7 -2 26 -2h56zM142 162q-6 -41 8 -58
l194 413q-3 0 -9 0.5t-10 0.5h-56q-42 0 -62 -17.5t-26 -59.5z" />
    <glyph glyph-name="ugrave" unicode="&#xf9;" horiz-adv-x="530" 
d="M272 85q42 0 62 17.5t26 59.5l62 441h97l-65 -461q-10 -73 -48.5 -107.5t-111.5 -34.5h-122q-73 0 -102.5 34.5t-19.5 107.5l65 461h97l-62 -441q-6 -42 9.5 -59.5t57.5 -17.5h55zM316 662l-102 101h94l83 -101h-75z" />
    <glyph glyph-name="uacute" unicode="&#xfa;" horiz-adv-x="530" 
d="M272 85q42 0 62 17.5t26 59.5l62 441h97l-65 -461q-10 -73 -48.5 -107.5t-111.5 -34.5h-122q-73 0 -102.5 34.5t-19.5 107.5l65 461h97l-62 -441q-6 -42 9.5 -59.5t57.5 -17.5h55zM469 763l-134 -101h-77l110 101h101z" />
    <glyph glyph-name="ucircumflex" unicode="&#xfb;" horiz-adv-x="530" 
d="M272 85q42 0 62 17.5t26 59.5l62 441h97l-65 -461q-10 -73 -48.5 -107.5t-111.5 -34.5h-122q-73 0 -102.5 34.5t-19.5 107.5l65 461h97l-62 -441q-6 -42 9.5 -59.5t57.5 -17.5h55zM335 724l-90 -62h-75l123 101h94l94 -101h-72z" />
    <glyph glyph-name="udieresis" unicode="&#xfc;" horiz-adv-x="530" 
d="M272 85q42 0 62 17.5t26 59.5l62 441h97l-65 -461q-10 -73 -48.5 -107.5t-111.5 -34.5h-122q-73 0 -102.5 34.5t-19.5 107.5l65 461h97l-62 -441q-6 -42 9.5 -59.5t57.5 -17.5h55zM289 744l-9 -68h-106l9 68h106zM490 744l-9 -68h-106l9 68h106z" />
    <glyph glyph-name="yacute" unicode="&#xfd;" horiz-adv-x="540" 
d="M214 -167h-171l12 85h157q58 0 88 25.5t38 84.5l9 65q-31 -71 -129 -71h-48q-73 0 -102.5 34.5t-19.5 106.5l62 440h97l-58 -419q-7 -42 8.5 -59.5t57.5 -17.5h58q41 0 61 17.5t26 59.5l59 419h97l-81 -576q-14 -100 -67.5 -147t-153.5 -47zM469 763l-134 -101h-77
l110 101h101z" />
    <glyph glyph-name="thorn" unicode="&#xfe;" horiz-adv-x="532" 
d="M234 770l-24 -167h168q73 0 102.5 -34.5t18.5 -107.5l-45 -319q-10 -73 -48.5 -107.5t-111.5 -34.5h-48q-101 0 -111 71l-33 -238h-97l132 937h97zM198 518l-49 -356q-6 -42 9 -59.5t57 -17.5h58q41 0 61 17.5t26 59.5l39 279q6 42 -9 59.5t-57 17.5h-135z" />
    <glyph glyph-name="ydieresis" unicode="&#xff;" horiz-adv-x="540" 
d="M214 -167h-171l12 85h157q58 0 88 25.5t38 84.5l9 65q-31 -71 -129 -71h-48q-73 0 -102.5 34.5t-19.5 106.5l62 440h97l-58 -419q-7 -42 8.5 -59.5t57.5 -17.5h58q41 0 61 17.5t26 59.5l59 419h97l-81 -576q-14 -100 -67.5 -147t-153.5 -47zM289 744l-9 -68h-106l9 68
h106zM490 744l-9 -68h-106l9 68h106z" />
    <glyph glyph-name="Amacron" unicode="&#x100;" horiz-adv-x="597" 
d="M486 0h-100l42 306h-258l-43 -306h-100l78 556q19 144 165 144h169q145 0 124 -144zM394 612h-104q-43 0 -63 -18t-25 -62l-20 -138h258l20 138q6 44 -9 62t-57 18zM485 772h-243l8 52h242z" />
    <glyph glyph-name="amacron" unicode="&#x101;" horiz-adv-x="514" 
d="M387 344l13 97q6 42 -9 59.5t-57 17.5h-214l11 85h248q73 0 102.5 -34.5t19.5 -107.5l-46 -319q-10 -73 -48.5 -107.5t-111.5 -34.5h-151q-128 0 -109 130l12 84q10 67 45 98.5t99 31.5h196zM375 259h-161q-34 0 -50.5 -14.5t-21.5 -48.5l-7 -48q-5 -34 7.5 -48.5
t46.5 -14.5h85q42 0 61.5 17.5t25.5 59.5zM446 685h-243l8 52h242z" />
    <glyph glyph-name="Abreve" unicode="&#x102;" horiz-adv-x="597" 
d="M486 0h-100l42 306h-258l-43 -306h-100l78 556q19 144 165 144h169q145 0 124 -144zM394 612h-104q-43 0 -63 -18t-25 -62l-20 -138h258l20 138q6 44 -9 62t-57 18zM246 798l5 60q27 -55 115 -55q87 0 128 55l-5 -60q-44 -53 -129 -53t-114 53z" />
    <glyph glyph-name="abreve" unicode="&#x103;" horiz-adv-x="514" 
d="M387 344l13 97q6 42 -9 59.5t-57 17.5h-214l11 85h248q73 0 102.5 -34.5t19.5 -107.5l-46 -319q-10 -73 -48.5 -107.5t-111.5 -34.5h-151q-128 0 -109 130l12 84q10 67 45 98.5t99 31.5h196zM375 259h-161q-34 0 -50.5 -14.5t-21.5 -48.5l-7 -48q-5 -34 7.5 -48.5
t46.5 -14.5h85q42 0 61.5 17.5t25.5 59.5zM207 711l5 60q27 -55 115 -55q87 0 128 55l-5 -60q-44 -53 -129 -53t-114 53z" />
    <glyph glyph-name="Aogonek" unicode="&#x104;" horiz-adv-x="597" 
d="M394 612h-104q-43 0 -63 -18t-25 -62l-20 -138h258l20 138q6 44 -9 62t-57 18zM445 -166h-162q-75 0 -75 44q0 46 42 63.5t148 17.5h10l6 41h-28l42 306h-258l-43 -306h-100l78 556q19 144 165 144h169q145 0 124 -144l-77 -556h-50l-9 -62h-22q-90 0 -122 -7.5
t-32 -25.5q0 -13 37 -13h166z" />
    <glyph glyph-name="aogonek" unicode="&#x105;" horiz-adv-x="514" 
d="M375 259h-161q-34 0 -50.5 -14.5t-21.5 -48.5l-7 -48q-5 -34 7.5 -48.5t46.5 -14.5h85q42 0 61.5 17.5t25.5 59.5zM396 -166h-162q-75 0 -75 44q0 46 42 63.5t148 17.5h10l7 52q-27 -11 -71 -11h-151q-128 0 -109 130l12 84q10 67 45 98.5t99 31.5h196l13 97
q6 42 -9 59.5t-57 17.5h-214l11 85h248q73 0 102.5 -34.5t19.5 -107.5l-46 -319q-12 -86 -65 -120l-12 -84h-22q-90 0 -122 -7.5t-32 -25.5q0 -13 37 -13h166z" />
    <glyph glyph-name="Cacute" unicode="&#x106;" horiz-adv-x="502" 
d="M183 0q-145 0 -124 144l58 412q19 144 164 144h255l-13 -88h-221q-43 0 -62.5 -18t-25.5 -62l-52 -364q-6 -44 9 -62t58 -18h221l-12 -88h-255zM491 850l-134 -101h-77l110 101h101z" />
    <glyph glyph-name="cacute" unicode="&#x107;" horiz-adv-x="460" 
d="M164 0q-73 0 -102.5 34.5t-19.5 107.5l45 319q11 73 49.5 107.5t111.5 34.5h221l-11 -85h-189q-42 0 -62 -17.5t-26 -59.5l-39 -279q-6 -42 9.5 -59.5t56.5 -17.5h189l-12 -85h-221zM460 763l-134 -101h-77l110 101h101z" />
    <glyph glyph-name="Ccircumflex" unicode="&#x108;" horiz-adv-x="502" 
d="M183 0q-145 0 -124 144l58 412q19 144 164 144h255l-13 -88h-221q-43 0 -62.5 -18t-25.5 -62l-52 -364q-6 -44 9 -62t58 -18h221l-12 -88h-255zM369 811l-90 -62h-75l123 101h94l94 -101h-72z" />
    <glyph glyph-name="ccircumflex" unicode="&#x109;" horiz-adv-x="460" 
d="M164 0q-73 0 -102.5 34.5t-19.5 107.5l45 319q11 73 49.5 107.5t111.5 34.5h221l-11 -85h-189q-42 0 -62 -17.5t-26 -59.5l-39 -279q-6 -42 9.5 -59.5t56.5 -17.5h189l-12 -85h-221zM325 724l-90 -62h-75l123 101h94l94 -101h-72z" />
    <glyph glyph-name="Cdotaccent" unicode="&#x10a;" horiz-adv-x="502" 
d="M183 0q-145 0 -124 144l58 412q19 144 164 144h255l-13 -88h-221q-43 0 -62.5 -18t-25.5 -62l-52 -364q-6 -44 9 -62t58 -18h221l-12 -88h-255zM424 831l-10 -68h-106l10 68h106z" />
    <glyph glyph-name="cdotaccent" unicode="&#x10b;" horiz-adv-x="460" 
d="M164 0q-73 0 -102.5 34.5t-19.5 107.5l45 319q11 73 49.5 107.5t111.5 34.5h221l-11 -85h-189q-42 0 -62 -17.5t-26 -59.5l-39 -279q-6 -42 9.5 -59.5t56.5 -17.5h189l-12 -85h-221zM380 744l-10 -68h-106l10 68h106z" />
    <glyph glyph-name="Ccaron" unicode="&#x10c;" horiz-adv-x="502" 
d="M183 0q-145 0 -124 144l58 412q19 144 164 144h255l-13 -88h-221q-43 0 -62.5 -18t-25.5 -62l-52 -364q-6 -44 9 -62t58 -18h221l-12 -88h-255zM291 850l73 -61l90 61h76l-124 -101h-93l-95 101h73z" />
    <glyph glyph-name="ccaron" unicode="&#x10d;" horiz-adv-x="460" 
d="M164 0q-73 0 -102.5 34.5t-19.5 107.5l45 319q11 73 49.5 107.5t111.5 34.5h221l-11 -85h-189q-42 0 -62 -17.5t-26 -59.5l-39 -279q-6 -42 9.5 -59.5t56.5 -17.5h189l-12 -85h-221zM247 763l73 -61l90 61h76l-124 -101h-93l-95 101h73z" />
    <glyph glyph-name="Dcaron" unicode="&#x10e;" horiz-adv-x="591" 
d="M392 700q199 0 172 -200l-43 -300q-27 -200 -227 -200h-259l98 700h259zM284 88q122 0 139 122l39 280q17 122 -104 122h-137l-73 -524h136zM282 850l73 -61l90 61h76l-124 -101h-93l-95 101h73z" />
    <glyph glyph-name="dcaron" unicode="&#x10f;" horiz-adv-x="743" 
d="M536 770l-88 -628q-11 -73 -49.5 -107.5t-110.5 -34.5h-124q-73 0 -102.5 34.5t-19.5 107.5l45 319q11 73 49.5 107.5t111.5 34.5h48q53 0 78.5 -17.5t30.5 -54.5l34 239h97zM354 162l39 279q5 42 -10 59.5t-56 17.5h-58q-42 0 -62 -17.5t-26 -59.5l-39 -279
q-6 -42 9.5 -59.5t56.5 -17.5h58q42 0 62 17.5t26 59.5zM760 700l-13 -88q-16 -117 -120 -117h-17l6 44h15q22 0 33.5 11t15.5 41l3 21h-57l13 88h121z" />
    <glyph glyph-name="Dcroat" unicode="&#x110;" horiz-adv-x="591" 
d="M392 700q199 0 172 -200l-43 -300q-27 -200 -227 -200h-259l43 306h-64l12 88h64l43 306h259zM284 88q122 0 139 122l39 280q17 122 -104 122h-137l-31 -218h89l-12 -88h-89l-30 -218h136z" />
    <glyph glyph-name="dcroat" unicode="&#x111;" horiz-adv-x="523" 
d="M536 770l-10 -69h62l-7 -53h-62l-71 -506q-11 -73 -49.5 -107.5t-110.5 -34.5h-124q-73 0 -102.5 34.5t-19.5 107.5l45 319q11 73 49.5 107.5t111.5 34.5h48q53 0 78.5 -17.5t30.5 -54.5l16 117h-83l7 53h84l10 69h97zM354 162l39 279q5 42 -10 59.5t-56 17.5h-58
q-42 0 -62 -17.5t-26 -59.5l-39 -279q-6 -42 9.5 -59.5t56.5 -17.5h58q42 0 62 17.5t26 59.5z" />
    <glyph glyph-name="Emacron" unicode="&#x112;" horiz-adv-x="554" 
d="M35 0l98 700h434l-13 -88h-333l-31 -218h244l-13 -88h-243l-30 -218h333l-12 -88h-434zM481 772h-243l8 52h242z" />
    <glyph glyph-name="emacron" unicode="&#x113;" horiz-adv-x="514" 
d="M495 388q-9 -66 -44 -97.5t-100 -31.5h-195l-14 -97q-6 -42 9.5 -59.5t56.5 -17.5h215l-12 -85h-247q-73 0 -102.5 34.5t-19.5 107.5l45 319q11 73 49.5 107.5t111.5 34.5h151q65 0 91.5 -31.5t16.5 -98.5zM353 518h-84q-42 0 -62 -17.5t-26 -59.5l-14 -97h162
q34 0 51 14.5t21 48.5l7 48q5 34 -8 48.5t-47 14.5zM456 685h-243l8 52h242z" />
    <glyph glyph-name="Ebreve" unicode="&#x114;" horiz-adv-x="554" 
d="M35 0l98 700h434l-13 -88h-333l-31 -218h244l-13 -88h-243l-30 -218h333l-12 -88h-434zM242 798l5 60q27 -55 115 -55q87 0 128 55l-5 -60q-44 -53 -129 -53t-114 53z" />
    <glyph glyph-name="ebreve" unicode="&#x115;" horiz-adv-x="514" 
d="M495 388q-9 -66 -44 -97.5t-100 -31.5h-195l-14 -97q-6 -42 9.5 -59.5t56.5 -17.5h215l-12 -85h-247q-73 0 -102.5 34.5t-19.5 107.5l45 319q11 73 49.5 107.5t111.5 34.5h151q65 0 91.5 -31.5t16.5 -98.5zM353 518h-84q-42 0 -62 -17.5t-26 -59.5l-14 -97h162
q34 0 51 14.5t21 48.5l7 48q5 34 -8 48.5t-47 14.5zM217 711l5 60q28 -55 115 -55t128 55l-5 -60q-44 -53 -129 -53t-114 53z" />
    <glyph glyph-name="Edotaccent" unicode="&#x116;" horiz-adv-x="554" 
d="M35 0l98 700h434l-13 -88h-333l-31 -218h244l-13 -88h-243l-30 -218h333l-12 -88h-434zM421 831l-10 -68h-106l10 68h106z" />
    <glyph glyph-name="edotaccent" unicode="&#x117;" horiz-adv-x="514" 
d="M495 388q-9 -66 -44 -97.5t-100 -31.5h-195l-14 -97q-6 -42 9.5 -59.5t56.5 -17.5h215l-12 -85h-247q-73 0 -102.5 34.5t-19.5 107.5l45 319q11 73 49.5 107.5t111.5 34.5h151q65 0 91.5 -31.5t16.5 -98.5zM353 518h-84q-42 0 -62 -17.5t-26 -59.5l-14 -97h162
q34 0 51 14.5t21 48.5l7 48q5 34 -8 48.5t-47 14.5zM396 744l-10 -68h-106l10 68h106z" />
    <glyph glyph-name="Eogonek" unicode="&#x118;" horiz-adv-x="554" 
d="M445 -166h-162q-75 0 -75 44q0 46 42 63.5t148 17.5h10l6 41h-379l98 700h434l-13 -88h-333l-31 -218h244l-13 -88h-243l-30 -218h333l-12 -88h-33l-9 -62h-22q-90 0 -122 -7.5t-32 -25.5q0 -13 37 -13h166z" />
    <glyph glyph-name="eogonek" unicode="&#x119;" horiz-adv-x="514" 
d="M353 518h-84q-42 0 -62 -17.5t-26 -59.5l-14 -97h162q34 0 51 14.5t21 48.5l7 48q5 34 -8 48.5t-47 14.5zM387 -166h-162q-75 0 -75 44q0 46 42 63.5t148 17.5h25l6 41h-207q-73 0 -102.5 34.5t-19.5 107.5l45 319q11 73 49.5 107.5t111.5 34.5h151q65 0 91.5 -31.5
t16.5 -98.5l-12 -85q-9 -66 -44 -97.5t-100 -31.5h-195l-14 -97q-6 -42 9.5 -59.5t56.5 -17.5h215l-12 -85h-18l-9 -62h-37q-90 0 -122 -7.5t-32 -25.5q0 -13 37 -13h166z" />
    <glyph glyph-name="Ecaron" unicode="&#x11a;" horiz-adv-x="554" 
d="M35 0l98 700h434l-13 -88h-333l-31 -218h244l-13 -88h-243l-30 -218h333l-12 -88h-434zM288 850l73 -61l90 61h76l-124 -101h-93l-95 101h73z" />
    <glyph glyph-name="ecaron" unicode="&#x11b;" horiz-adv-x="514" 
d="M495 388q-9 -66 -44 -97.5t-100 -31.5h-195l-14 -97q-6 -42 9.5 -59.5t56.5 -17.5h215l-12 -85h-247q-73 0 -102.5 34.5t-19.5 107.5l45 319q11 73 49.5 107.5t111.5 34.5h151q65 0 91.5 -31.5t16.5 -98.5zM353 518h-84q-42 0 -62 -17.5t-26 -59.5l-14 -97h162
q34 0 51 14.5t21 48.5l7 48q5 34 -8 48.5t-47 14.5zM263 763l73 -61l90 61h76l-124 -101h-93l-95 101h73z" />
    <glyph glyph-name="Gcircumflex" unicode="&#x11c;" horiz-adv-x="576" 
d="M341 88q41 0 58 14.5t23 57.5l20 146h-135l12 88h235l-36 -260q-10 -72 -45 -103t-107 -31h-183q-145 0 -124 144l58 412q19 144 164 144h292l-13 -88h-258q-43 0 -62.5 -18t-25.5 -62l-52 -364q-6 -44 9 -62t58 -18h112zM390 811l-90 -62h-75l123 101h94l94 -101h-72z
" />
    <glyph glyph-name="gcircumflex" unicode="&#x11d;" horiz-adv-x="523" 
d="M263 107q42 0 61.5 17.5t26.5 59.5l36 257q5 42 -10 59.5t-56 17.5h-58q-42 0 -62 -17.5t-26 -59.5l-36 -257q-6 -41 9.5 -59t57.5 -18h57zM209 22h-49q-72 0 -101.5 34.5t-19.5 106.5l42 298q11 73 49.5 107.5t111.5 34.5h124q72 0 101.5 -34.5t19.5 -107.5l-62 -434
q-14 -100 -67.5 -147t-153.5 -47h-171l12 85h158q58 0 88 25.5t38 84.5l9 65q-31 -71 -129 -71zM325 724l-90 -62h-75l123 101h94l94 -101h-72z" />
    <glyph glyph-name="Gbreve" unicode="&#x11e;" horiz-adv-x="576" 
d="M341 88q41 0 58 14.5t23 57.5l20 146h-135l12 88h235l-36 -260q-10 -72 -45 -103t-107 -31h-183q-145 0 -124 144l58 412q19 144 164 144h292l-13 -88h-258q-43 0 -62.5 -18t-25.5 -62l-52 -364q-6 -44 9 -62t58 -18h112zM266 798l5 60q28 -55 115 -55t128 55l-5 -60
q-44 -53 -129 -53t-114 53z" />
    <glyph glyph-name="gbreve" unicode="&#x11f;" horiz-adv-x="523" 
d="M263 107q42 0 61.5 17.5t26.5 59.5l36 257q5 42 -10 59.5t-56 17.5h-58q-42 0 -62 -17.5t-26 -59.5l-36 -257q-6 -41 9.5 -59t57.5 -18h57zM209 22h-49q-72 0 -101.5 34.5t-19.5 106.5l42 298q11 73 49.5 107.5t111.5 34.5h124q72 0 101.5 -34.5t19.5 -107.5l-62 -434
q-14 -100 -67.5 -147t-153.5 -47h-171l12 85h158q58 0 88 25.5t38 84.5l9 65q-31 -71 -129 -71zM201 711l5 60q28 -55 115 -55t128 55l-5 -60q-44 -53 -129 -53t-114 53z" />
    <glyph glyph-name="Gdotaccent" unicode="&#x120;" horiz-adv-x="576" 
d="M341 88q41 0 58 14.5t23 57.5l20 146h-135l12 88h235l-36 -260q-10 -72 -45 -103t-107 -31h-183q-145 0 -124 144l58 412q19 144 164 144h292l-13 -88h-258q-43 0 -62.5 -18t-25.5 -62l-52 -364q-6 -44 9 -62t58 -18h112zM445 831l-10 -68h-106l10 68h106z" />
    <glyph glyph-name="gdotaccent" unicode="&#x121;" horiz-adv-x="523" 
d="M263 107q42 0 61.5 17.5t26.5 59.5l36 257q5 42 -10 59.5t-56 17.5h-58q-42 0 -62 -17.5t-26 -59.5l-36 -257q-6 -41 9.5 -59t57.5 -18h57zM209 22h-49q-72 0 -101.5 34.5t-19.5 106.5l42 298q11 73 49.5 107.5t111.5 34.5h124q72 0 101.5 -34.5t19.5 -107.5l-62 -434
q-14 -100 -67.5 -147t-153.5 -47h-171l12 85h158q58 0 88 25.5t38 84.5l9 65q-31 -71 -129 -71zM380 744l-10 -68h-106l10 68h106z" />
    <glyph glyph-name="uni0122" unicode="&#x122;" horiz-adv-x="576" 
d="M341 88q41 0 58 14.5t23 57.5l20 146h-135l12 88h235l-36 -260q-10 -72 -45 -103t-107 -31h-183q-145 0 -124 144l58 412q19 144 164 144h292l-13 -88h-258q-43 0 -62.5 -18t-25.5 -62l-52 -364q-6 -44 9 -62t58 -18h112zM313 -79l-7 -54q-12 -84 -90 -84h-20l4 30h18
q33 0 37 37l1 9h-50l9 62h98z" />
    <glyph glyph-name="uni0123" unicode="&#x123;" horiz-adv-x="523" 
d="M269 676l8 54q11 84 89 84h21l-5 -30h-18q-32 0 -37 -37v-9h49l-9 -62h-98zM263 107q42 0 61.5 17.5t26.5 59.5l36 257q5 42 -10 59.5t-56 17.5h-58q-42 0 -62 -17.5t-26 -59.5l-36 -257q-6 -41 9.5 -59t57.5 -18h57zM209 22h-49q-72 0 -101.5 34.5t-19.5 106.5l42 298
q11 73 49.5 107.5t111.5 34.5h124q72 0 101.5 -34.5t19.5 -107.5l-62 -434q-14 -100 -67.5 -147t-153.5 -47h-171l12 85h158q58 0 88 25.5t38 84.5l9 65q-31 -71 -129 -71z" />
    <glyph glyph-name="Hcircumflex" unicode="&#x124;" horiz-adv-x="631" 
d="M412 0l42 306h-276l-42 -306h-101l98 700h101l-44 -306h276l44 306h100l-98 -700h-100zM387 811l-90 -62h-75l123 101h94l94 -101h-72z" />
    <glyph glyph-name="hcircumflex" unicode="&#x125;" horiz-adv-x="540" 
d="M399 441q6 42 -9 59.5t-57 17.5h-58q-41 0 -61.5 -17.5t-26.5 -59.5l-61 -441h-97l108 770h97l-34 -239q16 37 46.5 54.5t83.5 17.5h48q73 0 102.5 -34.5t18.5 -107.5l-64 -461h-97zM223 891l-90 -62h-75l123 101h94l94 -101h-72z" />
    <glyph glyph-name="Hbar" unicode="&#x126;" horiz-adv-x="631" 
d="M412 0l42 306h-276l-42 -306h-101l71 506h-33l9 65h33l18 129h101l-19 -129h276l19 129h100l-18 -129h33l-9 -65h-33l-71 -506h-100zM190 394h276l16 112h-276z" />
    <glyph glyph-name="hbar" unicode="&#x127;" horiz-adv-x="540" 
d="M399 441q6 42 -9 59.5t-57 17.5h-58q-41 0 -61.5 -17.5t-26.5 -59.5l-61 -441h-97l91 648h-71l8 53h70l10 69h97l-10 -69h76l-8 -53h-76l-16 -117q16 37 46.5 54.5t83.5 17.5h48q73 0 102.5 -34.5t18.5 -107.5l-64 -461h-97z" />
    <glyph glyph-name="Itilde" unicode="&#x128;" horiz-adv-x="255" 
d="M35 0l98 700h101l-98 -700h-101zM69 747l8 60q37 36 72 36q21 0 55.5 -19.5t53.5 -19.5q31 0 67 39l-8 -59q-40 -39 -74 -39q-21 0 -56 20t-53 20q-31 0 -65 -38z" />
    <glyph glyph-name="itilde" unicode="&#x129;" horiz-adv-x="306" 
d="M54 660l8 60q37 36 72 36q21 0 55.5 -19.5t53.5 -19.5q31 0 67 39l-8 -59q-40 -39 -74 -39q-21 0 -55.5 20t-53.5 20q-31 0 -65 -38zM214 85h52l-11 -85h-84q-73 0 -100.5 32.5t-16.5 103.5l65 467h97l-63 -447q-6 -40 7 -55.5t54 -15.5z" />
    <glyph glyph-name="Imacron" unicode="&#x12a;" horiz-adv-x="255" 
d="M316 774h-244l6 48h245zM35 0l98 700h101l-98 -700h-101z" />
    <glyph glyph-name="imacron" unicode="&#x12b;" horiz-adv-x="306" 
d="M302 687h-244l6 48h244zM214 85h52l-11 -85h-84q-73 0 -100.5 32.5t-16.5 103.5l65 467h97l-63 -447q-6 -40 7 -55.5t54 -15.5z" />
    <glyph glyph-name="Ibreve" unicode="&#x12c;" horiz-adv-x="255" 
d="M35 0l98 700h101l-98 -700h-101zM76 798l5 60q27 -55 115 -55q87 0 128 55l-5 -60q-44 -53 -129 -53t-114 53z" />
    <glyph glyph-name="ibreve" unicode="&#x12d;" horiz-adv-x="306" 
d="M61 711l5 60q27 -55 115 -55q87 0 128 55l-5 -60q-44 -53 -129 -53t-114 53zM214 85h52l-11 -85h-84q-73 0 -100.5 32.5t-16.5 103.5l65 467h97l-63 -447q-6 -40 7 -55.5t54 -15.5z" />
    <glyph glyph-name="Iogonek" unicode="&#x12e;" horiz-adv-x="255" 
d="M119 -166h-123q-76 0 -76 46q0 43 43.5 61t132.5 18l7 41h-68l98 700h101l-98 -700h-11l-9 -62h-22q-72 0 -101.5 -7.5t-29.5 -25.5q0 -13 39 -13h126z" />
    <glyph glyph-name="iogonek" unicode="&#x12f;" horiz-adv-x="306" 
d="M238 746l-10 -70h-122l10 70h122zM220 -166h-162q-75 0 -75 44q0 46 42 63.5t148 17.5h25l6 41h-44q-73 0 -100.5 32.5t-16.5 103.5l65 467h97l-63 -447q-6 -40 7 -55.5t54 -15.5h52l-11 -85h-18l-9 -62h-37q-90 0 -122 -7.5t-32 -25.5q0 -13 37 -13h166z" />
    <glyph glyph-name="Idotaccent" unicode="&#x130;" horiz-adv-x="255" 
d="M35 0l98 700h101l-98 -700h-101zM255 831l-10 -68h-106l10 68h106z" />
    <glyph glyph-name="dotlessi" unicode="&#x131;" horiz-adv-x="306" 
d="M214 85h52l-11 -85h-84q-73 0 -100.5 32.5t-16.5 103.5l65 467h97l-63 -447q-6 -40 7 -55.5t54 -15.5z" />
    <glyph glyph-name="IJ" unicode="&#x132;" horiz-adv-x="818" 
d="M35 0l98 700h101l-98 -700h-101zM275 134l29 208h101l-26 -182q-6 -43 6 -57.5t54 -14.5h103q43 0 62.5 18t25.5 62l75 532h100l-78 -556q-11 -73 -51 -108.5t-114 -35.5h-171q-73 0 -100 31.5t-16 102.5z" />
    <glyph glyph-name="Jcircumflex" unicode="&#x134;" horiz-adv-x="563" 
d="M31 134l29 208h101l-26 -182q-6 -43 6 -57.5t54 -14.5h103q43 0 62.5 18t25.5 62l75 532h100l-78 -556q-11 -73 -51 -108.5t-114 -35.5h-171q-73 0 -100 31.5t-16 102.5zM508 811l-90 -62h-75l123 101h94l94 -101h-72z" />
    <glyph glyph-name="jcircumflex" unicode="&#x135;" horiz-adv-x="258" 
d="M-71 -82h33q41 0 56.5 13.5t21.5 55.5l86 616h97l-89 -634q-11 -73 -46.5 -104.5t-108.5 -31.5h-62zM193 724l-90 -62h-75l123 101h94l94 -101h-72z" />
    <glyph glyph-name="uni0136" unicode="&#x136;" horiz-adv-x="598" 
d="M592 700l-30 -213q-9 -61 -38.5 -95.5t-90.5 -41.5q59 -7 79 -41.5t11 -95.5l-29 -213h-100l31 224q5 43 -9.5 62.5t-56.5 19.5h-181l-42 -306h-101l98 700h101l-44 -306h181q43 0 63 19.5t26 62.5l32 224h100zM294 -79l-7 -54q-12 -84 -90 -84h-20l4 30h18q33 0 37 37
l1 9h-50l9 62h98z" />
    <glyph glyph-name="uni0137" unicode="&#x137;" horiz-adv-x="528" 
d="M391 400l29 203h97l-25 -180q-8 -57 -33.5 -86.5t-74.5 -35.5q48 -6 65 -35t9 -86l-25 -180h-97l28 202q7 57 -50 57h-152l-36 -259h-97l108 770h97l-60 -426h152q58 0 65 56zM269 -79l-7 -54q-12 -84 -90 -84h-20l4 30h18q33 0 37 37l1 9h-50l9 62h98z" />
    <glyph glyph-name="kgreenlandic" unicode="&#x138;" horiz-adv-x="528" 
d="M391 400l29 203h97l-25 -180q-8 -57 -33.5 -86.5t-74.5 -35.5q48 -6 65 -35t9 -86l-25 -180h-97l28 202q7 57 -50 57h-152l-36 -259h-97l84 603h97l-36 -259h152q58 0 65 56z" />
    <glyph glyph-name="Lacute" unicode="&#x139;" horiz-adv-x="521" 
d="M473 88l-12 -88h-426l98 700h101l-86 -612h325zM371 850l-134 -101h-77l110 101h101z" />
    <glyph glyph-name="lacute" unicode="&#x13a;" horiz-adv-x="303" 
d="M212 85h52l-12 -85h-84q-73 0 -100.5 32.5t-16.5 103.5l89 634h97l-87 -614q-5 -41 8 -56t54 -15zM347 930l-134 -101h-77l110 101h101z" />
    <glyph glyph-name="uni013B" unicode="&#x13b;" horiz-adv-x="521" 
d="M473 88l-12 -88h-426l98 700h101l-86 -612h325zM272 -79l-7 -54q-12 -84 -90 -84h-20l4 30h18q33 0 37 37l1 9h-50l9 62h98z" />
    <glyph glyph-name="uni013C" unicode="&#x13c;" horiz-adv-x="303" 
d="M202 85h52l-12 -85h-84q-73 0 -100.5 32.5t-16.5 103.5l89 634h97l-87 -614q-5 -41 8 -56t54 -15zM148 -79l-7 -54q-12 -84 -90 -84h-20l4 30h18q33 0 37 37l1 9h-50l9 62h98z" />
    <glyph glyph-name="Lcaron" unicode="&#x13d;" horiz-adv-x="521" 
d="M473 88l-12 -88h-426l98 700h101l-86 -612h325zM527 700l-13 -88q-16 -117 -120 -117h-17l6 44h15q22 0 33.5 11t15.5 41l3 21h-57l13 88h121z" />
    <glyph glyph-name="lcaron" unicode="&#x13e;" horiz-adv-x="463" 
d="M212 85h52l-12 -85h-84q-73 0 -100.5 32.5t-16.5 103.5l89 634h97l-87 -614q-5 -41 8 -56t54 -15zM480 700l-13 -88q-16 -117 -120 -117h-17l6 44h15q22 0 33.5 11t15.5 41l3 21h-57l13 88h121z" />
    <glyph glyph-name="Ldot" unicode="&#x13f;" horiz-adv-x="521" 
d="M473 88l-12 -88h-426l98 700h101l-86 -612h325zM455 395l-13 -90h-121l13 90h121z" />
    <glyph glyph-name="ldot" unicode="&#x140;" horiz-adv-x="495" 
d="M212 85h52l-12 -85h-84q-73 0 -100.5 32.5t-16.5 103.5l89 634h97l-87 -614q-5 -41 8 -56t54 -15zM439 395l-13 -90h-121l13 90h121z" />
    <glyph glyph-name="Lslash" unicode="&#x141;" horiz-adv-x="521" 
d="M473 88l-12 -88h-426l31 222l-70 -38l12 86l70 38l55 392h101l-47 -333l188 103l-12 -86l-188 -103l-27 -193h325z" />
    <glyph glyph-name="lslash" unicode="&#x142;" horiz-adv-x="303" 
d="M201 85h52l-12 -85h-84q-73 0 -100.5 32.5t-16.5 103.5l25 178l-55 -30l12 86l55 30l52 370h97l-44 -313l142 78l-12 -87l-143 -78l-30 -214q-5 -41 8 -56t54 -15z" />
    <glyph glyph-name="Nacute" unicode="&#x143;" horiz-adv-x="597" 
d="M290 612q-43 0 -62.5 -18t-25.5 -62l-75 -532h-100l78 556q19 144 165 144h169q145 0 124 -144l-77 -556h-100l74 532q6 44 -9 62t-57 18h-104zM505 850l-134 -101h-77l110 101h101z" />
    <glyph glyph-name="nacute" unicode="&#x144;" horiz-adv-x="530" 
d="M21 0l65 461q10 73 48.5 107.5t111.5 34.5h122q73 0 102.5 -34.5t18.5 -107.5l-64 -461h-97l61 441q6 42 -9 59.5t-57 17.5h-56q-42 0 -62 -17.5t-26 -59.5l-61 -441h-97zM459 763l-134 -101h-77l110 101h101z" />
    <glyph glyph-name="uni0145" unicode="&#x145;" horiz-adv-x="597" 
d="M290 612q-43 0 -62.5 -18t-25.5 -62l-75 -532h-100l78 556q19 144 165 144h169q145 0 124 -144l-77 -556h-100l74 532q6 44 -9 62t-57 18h-104zM293 -79l-7 -54q-12 -84 -90 -84h-20l4 30h18q33 0 37 37l1 9h-50l9 62h98z" />
    <glyph glyph-name="uni0146" unicode="&#x146;" horiz-adv-x="530" 
d="M21 0l65 461q10 73 48.5 107.5t111.5 34.5h122q73 0 102.5 -34.5t18.5 -107.5l-64 -461h-97l61 441q6 42 -9 59.5t-57 17.5h-56q-42 0 -62 -17.5t-26 -59.5l-61 -441h-97zM260 -79l-7 -54q-12 -84 -90 -84h-20l4 30h18q33 0 37 37l1 9h-50l9 62h98z" />
    <glyph glyph-name="Ncaron" unicode="&#x147;" horiz-adv-x="597" 
d="M290 612q-43 0 -62.5 -18t-25.5 -62l-75 -532h-100l78 556q19 144 165 144h169q145 0 124 -144l-77 -556h-100l74 532q6 44 -9 62t-57 18h-104zM292 850l73 -61l90 61h76l-124 -101h-93l-95 101h73z" />
    <glyph glyph-name="ncaron" unicode="&#x148;" horiz-adv-x="530" 
d="M21 0l65 461q10 73 48.5 107.5t111.5 34.5h122q73 0 102.5 -34.5t18.5 -107.5l-64 -461h-97l61 441q6 42 -9 59.5t-57 17.5h-56q-42 0 -62 -17.5t-26 -59.5l-61 -441h-97zM247 763l73 -61l90 61h76l-124 -101h-93l-95 101h73z" />
    <glyph glyph-name="napostrophe" unicode="&#x149;" horiz-adv-x="691" 
d="M182 0l65 461q10 73 48.5 107.5t111.5 34.5h122q73 0 102.5 -34.5t18.5 -107.5l-64 -461h-97l61 441q6 42 -9 59.5t-57 17.5h-56q-42 0 -62 -17.5t-26 -59.5l-61 -441h-97zM226 700l-13 -88q-16 -117 -120 -117h-17l6 44h15q22 0 33.5 11t15.5 41l3 21h-57l13 88h121z
" />
    <glyph glyph-name="Eng" unicode="&#x14a;" horiz-adv-x="597" 
d="M290 612q-43 0 -62.5 -18t-25.5 -62l-75 -532h-100l78 556q19 144 165 144h169q145 0 124 -144l-81 -579q-19 -144 -165 -144h-85l12 88h53q43 0 62.5 18t25.5 62l75 531q6 44 -9 62t-57 18h-104z" />
    <glyph glyph-name="eng" unicode="&#x14b;" horiz-adv-x="530" 
d="M214 -82h33q41 0 56.5 13.5t21.5 55.5l64 454q6 42 -9 59.5t-57 17.5h-56q-42 0 -62 -17.5t-26 -59.5l-61 -441h-97l65 461q10 73 48.5 107.5t111.5 34.5h122q73 0 102.5 -34.5t18.5 -107.5l-70 -492q-10 -73 -45.5 -104.5t-109.5 -31.5h-63z" />
    <glyph glyph-name="Omacron" unicode="&#x14c;" horiz-adv-x="580" 
d="M184 0q-146 0 -125 144l58 412q19 144 165 144h170q74 0 104.5 -35.5t20.5 -108.5l-58 -412q-11 -73 -51 -108.5t-114 -35.5h-170zM422 168l51 364q6 44 -8.5 62t-57.5 18h-105q-43 0 -62.5 -18t-25.5 -62l-52 -364q-6 -44 9 -62t58 -18h105q42 0 62 18t26 62zM498 772
h-243l8 52h242z" />
    <glyph glyph-name="omacron" unicode="&#x14d;" horiz-adv-x="513" 
d="M370 603q72 0 101.5 -34.5t19.5 -107.5l-45 -319q-11 -73 -49.5 -107.5t-110.5 -34.5h-122q-73 0 -102.5 34.5t-19.5 107.5l45 319q11 73 49.5 107.5t111.5 34.5h122zM264 85q42 0 62 17.5t26 59.5l39 279q5 42 -9.5 59.5t-56.5 17.5h-56q-42 0 -62 -17.5t-26 -59.5
l-39 -279q-6 -42 9 -59.5t57 -17.5h56zM442 685h-243l8 52h242z" />
    <glyph glyph-name="Obreve" unicode="&#x14e;" horiz-adv-x="580" 
d="M184 0q-146 0 -125 144l58 412q19 144 165 144h170q74 0 104.5 -35.5t20.5 -108.5l-58 -412q-11 -73 -51 -108.5t-114 -35.5h-170zM422 168l51 364q6 44 -8.5 62t-57.5 18h-105q-43 0 -62.5 -18t-25.5 -62l-52 -364q-6 -44 9 -62t58 -18h105q42 0 62 18t26 62zM259 798
l5 60q27 -55 115 -55q87 0 128 55l-5 -60q-44 -53 -129 -53t-114 53z" />
    <glyph glyph-name="obreve" unicode="&#x14f;" horiz-adv-x="513" 
d="M370 603q72 0 101.5 -34.5t19.5 -107.5l-45 -319q-11 -73 -49.5 -107.5t-110.5 -34.5h-122q-73 0 -102.5 34.5t-19.5 107.5l45 319q11 73 49.5 107.5t111.5 34.5h122zM264 85q42 0 62 17.5t26 59.5l39 279q5 42 -9.5 59.5t-56.5 17.5h-56q-42 0 -62 -17.5t-26 -59.5
l-39 -279q-6 -42 9 -59.5t57 -17.5h56zM203 711l5 60q28 -55 115 -55t128 55l-5 -60q-44 -53 -129 -53t-114 53z" />
    <glyph glyph-name="Ohungarumlaut" unicode="&#x150;" horiz-adv-x="580" 
d="M184 0q-146 0 -125 144l58 412q19 144 165 144h170q74 0 104.5 -35.5t20.5 -108.5l-58 -412q-11 -73 -51 -108.5t-114 -35.5h-170zM422 168l51 364q6 44 -8.5 62t-57.5 18h-105q-43 0 -62.5 -18t-25.5 -62l-52 -364q-6 -44 9 -62t58 -18h105q42 0 62 18t26 62zM603 850
l-134 -101h-77l110 101h101zM433 850l-134 -101h-77l110 101h101z" />
    <glyph glyph-name="ohungarumlaut" unicode="&#x151;" horiz-adv-x="513" 
d="M370 603q72 0 101.5 -34.5t19.5 -107.5l-45 -319q-11 -73 -49.5 -107.5t-110.5 -34.5h-122q-73 0 -102.5 34.5t-19.5 107.5l45 319q11 73 49.5 107.5t111.5 34.5h122zM264 85q42 0 62 17.5t26 59.5l39 279q5 42 -9.5 59.5t-56.5 17.5h-56q-42 0 -62 -17.5t-26 -59.5
l-39 -279q-6 -42 9 -59.5t57 -17.5h56zM546 763l-134 -101h-77l110 101h101zM376 763l-134 -101h-77l110 101h101z" />
    <glyph glyph-name="OE" unicode="&#x152;" horiz-adv-x="890" 
d="M185 0q-145 0 -124 144l57 412q11 73 51 108.5t114 35.5h631l-12 -88h-328l-31 -218h238l-12 -88h-238l-30 -218h327l-12 -88h-631zM401 88l73 524h-170q-43 0 -62.5 -18t-26.5 -62l-51 -364q-6 -44 9 -62t57 -18h171z" />
    <glyph glyph-name="oe" unicode="&#x153;" horiz-adv-x="766" 
d="M331 162l39 279q6 42 -9 59.5t-57 17.5h-35q-42 0 -62 -17.5t-26 -59.5l-39 -279q-6 -42 9 -59.5t57 -17.5h36q42 0 61.5 17.5t25.5 59.5zM653 407l7 48q5 34 -8 48.5t-47 14.5h-50q-42 0 -62 -17.5t-26 -59.5l-13 -97h127q34 0 51 14.5t21 48.5zM442 259l-14 -97
q-6 -42 9.5 -59.5t57.5 -17.5h180l-12 -85h-165q-67 0 -96.5 23.5t-30.5 78.5q-16 -55 -51.5 -78.5t-101.5 -23.5h-54q-73 0 -102.5 34.5t-19.5 107.5l45 319q11 73 49.5 107.5t111.5 34.5h54q66 0 95.5 -23.5t30.5 -78.5q15 55 51 78.5t103 23.5h69q65 0 91.5 -31.5
t16.5 -98.5l-12 -85q-9 -66 -44 -97.5t-100 -31.5h-161z" />
    <glyph glyph-name="Racute" unicode="&#x154;" horiz-adv-x="597" 
d="M572 560l-11 -80q-8 -61 -37.5 -92.5t-87.5 -38.5q105 -14 87 -136l-29 -213h-100l31 224q5 43 -9.5 62.5t-56.5 19.5h-181l-42 -306h-101l98 700h319q73 0 102 -33.5t18 -106.5zM374 394q42 0 61 17.5t25 59.5l9 64q5 41 -9.5 59t-53.5 18h-185l-31 -218h184zM505 850
l-134 -101h-77l110 101h101z" />
    <glyph glyph-name="racute" unicode="&#x155;" horiz-adv-x="365" 
d="M387 603l-12 -85h-108q-41 0 -61.5 -17.5t-26.5 -59.5l-61 -441h-97l65 461q10 73 48.5 107.5t111.5 34.5h141zM409 763l-134 -101h-77l110 101h101z" />
    <glyph glyph-name="uni0156" unicode="&#x156;" horiz-adv-x="597" 
d="M572 560l-11 -80q-8 -61 -37.5 -92.5t-87.5 -38.5q105 -14 87 -136l-29 -213h-100l31 224q5 43 -9.5 62.5t-56.5 19.5h-181l-42 -306h-101l98 700h319q73 0 102 -33.5t18 -106.5zM374 394q42 0 61 17.5t25 59.5l9 64q5 41 -9.5 59t-53.5 18h-185l-31 -218h184zM309 -79
l-7 -54q-12 -84 -90 -84h-20l4 30h18q33 0 37 37l1 9h-50l9 62h98z" />
    <glyph glyph-name="uni0157" unicode="&#x157;" horiz-adv-x="365" 
d="M387 603l-12 -85h-108q-41 0 -61.5 -17.5t-26.5 -59.5l-61 -441h-97l65 461q10 73 48.5 107.5t111.5 34.5h141zM108 -79l-7 -54q-12 -84 -90 -84h-20l4 30h18q33 0 37 37l1 9h-50l9 62h98z" />
    <glyph glyph-name="Rcaron" unicode="&#x158;" horiz-adv-x="597" 
d="M572 560l-11 -80q-8 -61 -37.5 -92.5t-87.5 -38.5q105 -14 87 -136l-29 -213h-100l31 224q5 43 -9.5 62.5t-56.5 19.5h-181l-42 -306h-101l98 700h319q73 0 102 -33.5t18 -106.5zM374 394q42 0 61 17.5t25 59.5l9 64q5 41 -9.5 59t-53.5 18h-185l-31 -218h184zM292 850
l73 -61l90 61h76l-124 -101h-93l-95 101h73z" />
    <glyph glyph-name="rcaron" unicode="&#x159;" horiz-adv-x="365" 
d="M387 603l-12 -85h-108q-41 0 -61.5 -17.5t-26.5 -59.5l-61 -441h-97l65 461q10 73 48.5 107.5t111.5 34.5h141zM196 763l73 -61l90 61h76l-124 -101h-93l-95 101h73z" />
    <glyph glyph-name="Sacute" unicode="&#x15a;" horiz-adv-x="533" 
d="M193 306q-74 0 -103.5 34.5t-18.5 107.5l15 110q11 73 50 107.5t113 34.5h268l-13 -88h-236q-40 0 -59.5 -18t-25.5 -59l-9 -64q-6 -41 8.5 -59t54.5 -18h119q74 0 103.5 -34.5t19.5 -107.5l-16 -110q-10 -73 -49 -107.5t-112 -34.5h-299l12 88h267q40 0 59.5 18t24.5 59
l9 64q6 41 -8.5 59t-54.5 18h-119zM473 850l-134 -101h-77l110 101h101z" />
    <glyph glyph-name="sacute" unicode="&#x15b;" horiz-adv-x="479" 
d="M438 518h-203q-34 0 -50.5 -14.5t-21.5 -48.5l-6 -48q-5 -34 7 -48.5t46 -14.5h107q65 0 91.5 -31.5t16.5 -98.5l-12 -84q-9 -67 -44 -98.5t-99 -31.5h-268l12 85h234q34 0 50.5 14.5t21.5 48.5l6 48q5 34 -7.5 48.5t-46.5 14.5h-107q-127 0 -109 129l12 85
q10 67 45 98.5t100 31.5h237zM434 763l-134 -101h-77l110 101h101z" />
    <glyph glyph-name="Scircumflex" unicode="&#x15c;" horiz-adv-x="533" 
d="M193 306q-74 0 -103.5 34.5t-18.5 107.5l15 110q11 73 50 107.5t113 34.5h268l-13 -88h-236q-40 0 -59.5 -18t-25.5 -59l-9 -64q-6 -41 8.5 -59t54.5 -18h119q74 0 103.5 -34.5t19.5 -107.5l-16 -110q-10 -73 -49 -107.5t-112 -34.5h-299l12 88h267q40 0 59.5 18t24.5 59
l9 64q6 41 -8.5 59t-54.5 18h-119zM338 811l-90 -62h-75l123 101h94l94 -101h-72z" />
    <glyph glyph-name="scircumflex" unicode="&#x15d;" horiz-adv-x="479" 
d="M438 518h-203q-34 0 -50.5 -14.5t-21.5 -48.5l-6 -48q-5 -34 7 -48.5t46 -14.5h107q65 0 91.5 -31.5t16.5 -98.5l-12 -84q-9 -67 -44 -98.5t-99 -31.5h-268l12 85h234q34 0 50.5 14.5t21.5 48.5l6 48q5 34 -7.5 48.5t-46.5 14.5h-107q-127 0 -109 129l12 85
q10 67 45 98.5t100 31.5h237zM299 724l-90 -62h-75l123 101h94l94 -101h-72z" />
    <glyph glyph-name="Scedilla" unicode="&#x15e;" horiz-adv-x="533" 
d="M218 -166h-143l9 58h131q54 0 54 31q0 16 -26 16h-68l30 61h-202l12 88h267q40 0 59.5 18t24.5 59l9 64q6 41 -8.5 59t-54.5 18h-119q-74 0 -103.5 34.5t-18.5 107.5l15 110q11 73 50 107.5t113 34.5h268l-13 -88h-236q-40 0 -59.5 -18t-25.5 -59l-9 -64q-6 -41 8.5 -59
t54.5 -18h119q74 0 103.5 -34.5t19.5 -107.5l-16 -110q-10 -73 -49 -107.5t-112 -34.5h-77l-19 -41h62q68 0 68 -43q0 -82 -118 -82z" />
    <glyph glyph-name="scedilla" unicode="&#x15f;" horiz-adv-x="479" 
d="M187 -166h-143l9 58h131q54 0 54 31q0 16 -26 16h-68l30 61h-172l12 85h234q34 0 50.5 14.5t21.5 48.5l6 48q5 34 -7.5 48.5t-46.5 14.5h-107q-127 0 -109 129l12 85q10 67 45 98.5t100 31.5h237l-12 -85h-203q-34 0 -50.5 -14.5t-21.5 -48.5l-6 -48q-5 -34 7 -48.5
t46 -14.5h107q65 0 91.5 -31.5t16.5 -98.5l-12 -84q-9 -67 -44 -98.5t-99 -31.5h-76l-19 -41h62q68 0 68 -43q0 -82 -118 -82z" />
    <glyph glyph-name="Scaron" unicode="&#x160;" horiz-adv-x="533" 
d="M193 306q-74 0 -103.5 34.5t-18.5 107.5l15 110q11 73 50 107.5t113 34.5h268l-13 -88h-236q-40 0 -59.5 -18t-25.5 -59l-9 -64q-6 -41 8.5 -59t54.5 -18h119q74 0 103.5 -34.5t19.5 -107.5l-16 -110q-10 -73 -49 -107.5t-112 -34.5h-299l12 88h267q40 0 59.5 18t24.5 59
l9 64q6 41 -8.5 59t-54.5 18h-119zM260 850l73 -61l90 61h76l-124 -101h-93l-95 101h73z" />
    <glyph glyph-name="scaron" unicode="&#x161;" horiz-adv-x="479" 
d="M438 518h-203q-34 0 -50.5 -14.5t-21.5 -48.5l-6 -48q-5 -34 7 -48.5t46 -14.5h107q65 0 91.5 -31.5t16.5 -98.5l-12 -84q-9 -67 -44 -98.5t-99 -31.5h-268l12 85h234q34 0 50.5 14.5t21.5 48.5l6 48q5 34 -7.5 48.5t-46.5 14.5h-107q-127 0 -109 129l12 85
q10 67 45 98.5t100 31.5h237zM221 763l73 -61l90 61h76l-124 -101h-93l-95 101h73z" />
    <glyph glyph-name="uni0162" unicode="&#x162;" horiz-adv-x="497" 
d="M203 -166h-143l9 58h131q54 0 54 31q0 16 -26 16h-68l30 61h-33l85 612h-181l13 88h461l-13 -88h-180l-85 -612h-47l-19 -41h62q68 0 68 -43q0 -82 -118 -82z" />
    <glyph glyph-name="uni0163" unicode="&#x163;" horiz-adv-x="395" 
d="M151 -166h-143l9 58h131q54 0 54 31q0 16 -26 16h-68l31 62q-59 6 -83.5 40.5t-15.5 100.5l89 628h97l-24 -167h193l-12 -85h-193l-50 -356q-6 -42 9.5 -59.5t57.5 -17.5h115l-11 -85h-153l-19 -41h62q68 0 68 -43q0 -82 -118 -82z" />
    <glyph glyph-name="Tcaron" unicode="&#x164;" horiz-adv-x="497" 
d="M535 700l-13 -88h-180l-85 -612h-100l85 612h-181l13 88h461zM242 850l73 -61l90 61h76l-124 -101h-93l-95 101h73z" />
    <glyph glyph-name="tcaron" unicode="&#x165;" horiz-adv-x="621" 
d="M173 0q-73 0 -103 34.5t-20 107.5l89 628h97l-24 -167h193l-12 -85h-193l-50 -356q-6 -42 9.5 -59.5t57.5 -17.5h115l-11 -85h-148zM637 700l-13 -88q-16 -117 -120 -117h-17l6 44h15q22 0 33.5 11t15.5 41l3 21h-57l13 88h121z" />
    <glyph glyph-name="Tbar" unicode="&#x166;" horiz-adv-x="497" 
d="M535 700l-13 -88h-180l-23 -164h94l-9 -65h-94l-53 -383h-100l53 383h-92l9 65h92l23 164h-181l13 88h461z" />
    <glyph glyph-name="tbar" unicode="&#x167;" horiz-adv-x="395" 
d="M308 342h-143l-25 -180q-6 -42 9.5 -59.5t57.5 -17.5h115l-11 -85h-148q-73 0 -103 34.5t-20 107.5l28 200h-62l9 65h62l52 363h97l-24 -167h193l-12 -85h-193l-16 -111h143z" />
    <glyph glyph-name="Utilde" unicode="&#x168;" horiz-adv-x="597" 
d="M193 0q-146 0 -125 144l78 556h100l-75 -532q-6 -44 9 -62t58 -18h103q43 0 62.5 18t25.5 62l76 532h100l-78 -556q-11 -73 -51 -108.5t-114 -35.5h-169zM260 747l8 60q37 36 72 36q21 0 55.5 -19.5t53.5 -19.5q31 0 67 39l-8 -59q-40 -39 -74 -39q-21 0 -56 20t-53 20
q-31 0 -65 -38z" />
    <glyph glyph-name="utilde" unicode="&#x169;" horiz-adv-x="530" 
d="M272 85q42 0 62 17.5t26 59.5l62 441h97l-65 -461q-10 -73 -48.5 -107.5t-111.5 -34.5h-122q-73 0 -102.5 34.5t-19.5 107.5l65 461h97l-62 -441q-6 -42 9.5 -59.5t57.5 -17.5h55zM204 660l8 60q37 36 72 36q21 0 55.5 -19.5t53.5 -19.5q31 0 67 39l-8 -59
q-40 -39 -74 -39q-22 0 -56 20t-53 20q-31 0 -65 -38z" />
    <glyph glyph-name="Umacron" unicode="&#x16a;" horiz-adv-x="597" 
d="M193 0q-146 0 -125 144l78 556h100l-75 -532q-6 -44 9 -62t58 -18h103q43 0 62.5 18t25.5 62l76 532h100l-78 -556q-11 -73 -51 -108.5t-114 -35.5h-169zM506 772h-243l8 52h242z" />
    <glyph glyph-name="umacron" unicode="&#x16b;" horiz-adv-x="530" 
d="M272 85q42 0 62 17.5t26 59.5l62 441h97l-65 -461q-10 -73 -48.5 -107.5t-111.5 -34.5h-122q-73 0 -102.5 34.5t-19.5 107.5l65 461h97l-62 -441q-6 -42 9.5 -59.5t57.5 -17.5h55zM450 685h-243l8 52h242z" />
    <glyph glyph-name="Ubreve" unicode="&#x16c;" horiz-adv-x="597" 
d="M193 0q-146 0 -125 144l78 556h100l-75 -532q-6 -44 9 -62t58 -18h103q43 0 62.5 18t25.5 62l76 532h100l-78 -556q-11 -73 -51 -108.5t-114 -35.5h-169zM267 798l5 60q27 -55 115 -55q87 0 128 55l-5 -60q-44 -53 -129 -53t-114 53z" />
    <glyph glyph-name="ubreve" unicode="&#x16d;" horiz-adv-x="530" 
d="M272 85q42 0 62 17.5t26 59.5l62 441h97l-65 -461q-10 -73 -48.5 -107.5t-111.5 -34.5h-122q-73 0 -102.5 34.5t-19.5 107.5l65 461h97l-62 -441q-6 -42 9.5 -59.5t57.5 -17.5h55zM211 711l5 60q28 -55 115 -55t128 55l-5 -60q-44 -53 -129 -53t-114 53z" />
    <glyph glyph-name="Uring" unicode="&#x16e;" horiz-adv-x="597" 
d="M193 0q-146 0 -125 144l78 556h100l-75 -532q-6 -44 9 -62t58 -18h103q43 0 62.5 18t25.5 62l76 532h100l-78 -556q-11 -73 -51 -108.5t-114 -35.5h-169zM410 836h-31q-33 0 -33 -33q0 -21 26 -21h31q33 0 33 33q0 21 -26 21zM393 746h-21q-67 0 -67 50q0 75 84 75h21
q67 0 67 -50q0 -75 -84 -75z" />
    <glyph glyph-name="uring" unicode="&#x16f;" horiz-adv-x="530" 
d="M272 85q42 0 62 17.5t26 59.5l62 441h97l-65 -461q-10 -73 -48.5 -107.5t-111.5 -34.5h-122q-73 0 -102.5 34.5t-19.5 107.5l65 461h97l-62 -441q-6 -42 9.5 -59.5t57.5 -17.5h55zM353 749h-31q-33 0 -33 -33q0 -21 26 -21h31q33 0 33 33q0 21 -26 21zM336 659h-21
q-67 0 -67 50q0 75 84 75h21q67 0 67 -50q0 -75 -84 -75z" />
    <glyph glyph-name="Uhungarumlaut" unicode="&#x170;" horiz-adv-x="597" 
d="M193 0q-146 0 -125 144l78 556h100l-75 -532q-6 -44 9 -62t58 -18h103q43 0 62.5 18t25.5 62l76 532h100l-78 -556q-11 -73 -51 -108.5t-114 -35.5h-169zM611 850l-134 -101h-77l110 101h101zM441 850l-134 -101h-77l110 101h101z" />
    <glyph glyph-name="uhungarumlaut" unicode="&#x171;" horiz-adv-x="530" 
d="M272 85q42 0 62 17.5t26 59.5l62 441h97l-65 -461q-10 -73 -48.5 -107.5t-111.5 -34.5h-122q-73 0 -102.5 34.5t-19.5 107.5l65 461h97l-62 -441q-6 -42 9.5 -59.5t57.5 -17.5h55zM554 763l-134 -101h-77l110 101h101zM384 763l-134 -101h-77l110 101h101z" />
    <glyph glyph-name="Uogonek" unicode="&#x172;" horiz-adv-x="597" 
d="M467 -166h-162q-75 0 -75 44q0 46 42 63.5t148 17.5h10l7 53q-32 -12 -75 -12h-169q-146 0 -125 144l78 556h100l-75 -532q-6 -44 9 -62t58 -18h103q43 0 62.5 18t25.5 62l76 532h100l-78 -556q-12 -86 -66 -120l-12 -86h-22q-90 0 -122 -7.5t-32 -25.5q0 -13 37 -13h166
z" />
    <glyph glyph-name="uogonek" unicode="&#x173;" horiz-adv-x="530" 
d="M396 -166h-162q-75 0 -75 44q0 46 42 63.5t148 17.5h10l7 52q-31 -11 -72 -11h-122q-73 0 -102.5 34.5t-19.5 107.5l65 461h97l-62 -441q-6 -42 9.5 -59.5t57.5 -17.5h55q42 0 62 17.5t26 59.5l62 441h97l-65 -461q-12 -86 -64 -119l-12 -85h-22q-90 0 -122 -7.5
t-32 -25.5q0 -13 37 -13h166z" />
    <glyph glyph-name="Wcircumflex" unicode="&#x174;" horiz-adv-x="874" 
d="M639 0h-80q-68 0 -98.5 24.5t-30.5 80.5q-16 -56 -52.5 -80.5t-104.5 -24.5h-80q-146 0 -125 144l78 556h100l-75 -532q-6 -44 9 -62t58 -18h63q42 0 62 18t26 62l75 532h100l-75 -532q-6 -44 9 -62t57 -18h63q43 0 62.5 18t25.5 62l76 532h100l-78 -556
q-11 -73 -51 -108.5t-114 -35.5zM530 811l-90 -62h-75l123 101h94l94 -101h-72z" />
    <glyph glyph-name="wcircumflex" unicode="&#x175;" horiz-adv-x="810" 
d="M387 102q-16 -55 -52 -78.5t-102 -23.5h-61q-73 0 -102.5 34.5t-19.5 107.5l65 461h97l-62 -441q-6 -42 9.5 -59.5t57.5 -17.5h42q42 0 62 17.5t26 59.5l61 441h97l-61 -441q-6 -42 9 -59.5t57 -17.5h42q42 0 62 17.5t26 59.5l62 441h97l-65 -461q-10 -73 -48.5 -107.5
t-111.5 -34.5h-61q-66 0 -96 24t-30 78zM475 724l-90 -62h-75l123 101h94l94 -101h-72z" />
    <glyph glyph-name="Ycircumflex" unicode="&#x176;" horiz-adv-x="565" 
d="M497 700h100l-35 -250q-20 -144 -165 -144h-44l-43 -306h-100l43 306h-45q-144 0 -124 144l35 250h101l-33 -227q-5 -43 10 -61t57 -18h122q43 0 62.5 17.5t26.5 61.5zM374 811l-90 -62h-75l123 101h94l94 -101h-72z" />
    <glyph glyph-name="ycircumflex" unicode="&#x177;" horiz-adv-x="540" 
d="M214 -167h-171l12 85h157q58 0 88 25.5t38 84.5l9 65q-31 -71 -129 -71h-48q-73 0 -102.5 34.5t-19.5 106.5l62 440h97l-58 -419q-7 -42 8.5 -59.5t57.5 -17.5h58q41 0 61 17.5t26 59.5l59 419h97l-81 -576q-14 -100 -67.5 -147t-153.5 -47zM335 724l-90 -62h-75l123 101
h94l94 -101h-72z" />
    <glyph glyph-name="Ydieresis" unicode="&#x178;" horiz-adv-x="565" 
d="M497 700h100l-35 -250q-20 -144 -165 -144h-44l-43 -306h-100l43 306h-45q-144 0 -124 144l35 250h101l-33 -227q-5 -43 10 -61t57 -18h122q43 0 62.5 17.5t26.5 61.5zM328 831l-9 -68h-106l9 68h106zM529 831l-9 -68h-106l9 68h106z" />
    <glyph glyph-name="Zacute" unicode="&#x179;" horiz-adv-x="542" 
d="M304 394q56 0 82.5 22t34.5 80l16 116h-323l12 88h424l-31 -220q-26 -174 -198 -174h-73q-56 0 -82.5 -22t-34.5 -80l-15 -116h348l-12 -88h-449l31 220q24 174 197 174h73zM488 850l-134 -101h-77l110 101h101z" />
    <glyph glyph-name="zacute" unicode="&#x17a;" horiz-adv-x="489" 
d="M221 259q-46 0 -69.5 -20.5t-30.5 -66.5l-12 -87h305l-12 -85h-401l24 179q24 165 187 165h54q46 0 69.5 20.5t29.5 66.5l13 87h-285l12 85h381l-25 -180q-22 -164 -187 -164h-53zM452 763l-134 -101h-77l110 101h101z" />
    <glyph glyph-name="Zdotaccent" unicode="&#x17b;" horiz-adv-x="542" 
d="M304 394q56 0 82.5 22t34.5 80l16 116h-323l12 88h424l-31 -220q-26 -174 -198 -174h-73q-56 0 -82.5 -22t-34.5 -80l-15 -116h348l-12 -88h-449l31 220q24 174 197 174h73zM408 831l-10 -68h-106l10 68h106z" />
    <glyph glyph-name="zdotaccent" unicode="&#x17c;" horiz-adv-x="489" 
d="M221 259q-46 0 -69.5 -20.5t-30.5 -66.5l-12 -87h305l-12 -85h-401l24 179q24 165 187 165h54q46 0 69.5 20.5t29.5 66.5l13 87h-285l12 85h381l-25 -180q-22 -164 -187 -164h-53zM372 744l-10 -68h-106l10 68h106z" />
    <glyph glyph-name="Zcaron" unicode="&#x17d;" horiz-adv-x="542" 
d="M304 394q56 0 82.5 22t34.5 80l16 116h-323l12 88h424l-31 -220q-26 -174 -198 -174h-73q-56 0 -82.5 -22t-34.5 -80l-15 -116h348l-12 -88h-449l31 220q24 174 197 174h73zM275 850l73 -61l90 61h76l-124 -101h-93l-95 101h73z" />
    <glyph glyph-name="zcaron" unicode="&#x17e;" horiz-adv-x="489" 
d="M221 259q-46 0 -69.5 -20.5t-30.5 -66.5l-12 -87h305l-12 -85h-401l24 179q24 165 187 165h54q46 0 69.5 20.5t29.5 66.5l13 87h-285l12 85h381l-25 -180q-22 -164 -187 -164h-53zM239 763l73 -61l90 61h76l-124 -101h-93l-95 101h73z" />
    <glyph glyph-name="florin" unicode="&#x192;" 
d="M473 394l-12 -88h-197l-23 -166q-11 -73 -48.5 -106.5t-110.5 -33.5h-82l12 88h47q42 0 60.5 16.5t24.5 58.5l20 143h-122l12 88h122l23 162q19 144 164 144h233l-12 -88h-201q-42 0 -61.5 -17t-25.5 -59l-20 -142h197z" />
    <glyph glyph-name="AEacute" unicode="&#x1fc;" horiz-adv-x="885" 
d="M373 0l42 306h-245l-43 -306h-100l78 556q19 144 165 144h628l-13 -88h-329l-31 -218h239l-12 -88h-239l-30 -218h329l-12 -88h-427zM290 612q-43 0 -62.5 -18t-25.5 -62l-20 -138h246l31 218h-169zM671 850l-134 -101h-77l110 101h101z" />
    <glyph glyph-name="aeacute" unicode="&#x1fd;" horiz-adv-x="753" 
d="M649 407l7 48q4 34 -8.5 48.5t-46.5 14.5h-50q-42 0 -62 -17.5t-26 -59.5l-14 -97h127q35 0 51.5 14.5t21.5 48.5zM142 196l-7 -48q-5 -34 7.5 -48.5t46.5 -14.5h51q42 0 61.5 17.5t25.5 59.5l14 97h-127q-34 0 -50.5 -14.5t-21.5 -48.5zM213 0h-69q-128 0 -109 130
l12 84q10 67 45 98.5t99 31.5h161l14 97q6 42 -9 59.5t-57 17.5h-180l11 85h166q66 0 96 -24t31 -78q15 55 51 78.5t102 23.5h70q127 0 108 -130l-12 -85q-9 -66 -44 -97.5t-100 -31.5h-161l-14 -97q-6 -42 9.5 -59.5t56.5 -17.5h181l-12 -85h-166q-66 0 -96 24t-30 78
q-16 -55 -52 -78.5t-102 -23.5zM590 763l-134 -101h-77l110 101h101z" />
    <glyph glyph-name="Oslashacute" unicode="&#x1fe;" horiz-adv-x="580" 
d="M184 0q-146 0 -125 144l58 412q19 144 165 144h170q74 0 104.5 -35.5t20.5 -108.5l-58 -412q-11 -73 -51 -108.5t-114 -35.5h-170zM422 168l51 364q5 36 -4 55l-276 -495q13 -4 36 -4h105q42 0 62 18t26 62zM162 168q-4 -33 3 -52l275 492q-12 4 -33 4h-105
q-43 0 -62.5 -18t-25.5 -62zM518 850l-134 -101h-77l110 101h101z" />
    <glyph glyph-name="oslashacute" unicode="&#x1ff;" horiz-adv-x="513" 
d="M370 603q72 0 101.5 -34.5t19.5 -107.5l-45 -319q-11 -73 -49.5 -107.5t-110.5 -34.5h-122q-73 0 -102.5 34.5t-19.5 107.5l45 319q11 73 49.5 107.5t111.5 34.5h122zM264 85q42 0 62 17.5t26 59.5l39 279q6 46 -13 63l-196 -417q7 -2 26 -2h56zM142 162q-6 -41 8 -58
l194 413q-3 0 -9 0.5t-10 0.5h-56q-42 0 -62 -17.5t-26 -59.5zM461 763l-134 -101h-77l110 101h101z" />
    <glyph glyph-name="uni0218" unicode="&#x218;" horiz-adv-x="533" 
d="M193 306q-74 0 -103.5 34.5t-18.5 107.5l15 110q11 73 50 107.5t113 34.5h268l-13 -88h-236q-40 0 -59.5 -18t-25.5 -59l-9 -64q-6 -41 8.5 -59t54.5 -18h119q74 0 103.5 -34.5t19.5 -107.5l-16 -110q-10 -73 -49 -107.5t-112 -34.5h-299l12 88h267q40 0 59.5 18t24.5 59
l9 64q6 41 -8.5 59t-54.5 18h-119zM261 -79l-7 -54q-12 -84 -90 -84h-20l4 30h18q33 0 37 37l1 9h-50l9 62h98z" />
    <glyph glyph-name="uni0219" unicode="&#x219;" horiz-adv-x="479" 
d="M438 518h-203q-34 0 -50.5 -14.5t-21.5 -48.5l-6 -48q-5 -34 7 -48.5t46 -14.5h107q65 0 91.5 -31.5t16.5 -98.5l-12 -84q-9 -67 -44 -98.5t-99 -31.5h-268l12 85h234q34 0 50.5 14.5t21.5 48.5l6 48q5 34 -7.5 48.5t-46.5 14.5h-107q-127 0 -109 129l12 85
q10 67 45 98.5t100 31.5h237zM224 -79l-7 -54q-12 -84 -90 -84h-20l4 30h18q33 0 37 37l1 9h-50l9 62h98z" />
    <glyph glyph-name="uni021A" unicode="&#x21a;" horiz-adv-x="497" 
d="M535 700l-13 -88h-180l-85 -612h-100l85 612h-181l13 88h461zM243 -79l-7 -54q-12 -84 -90 -84h-20l4 30h18q33 0 37 37l1 9h-50l9 62h98z" />
    <glyph glyph-name="uni021B" unicode="&#x21b;" horiz-adv-x="395" 
d="M173 0q-73 0 -103 34.5t-20 107.5l89 628h97l-24 -167h193l-12 -85h-193l-50 -356q-6 -42 9.5 -59.5t57.5 -17.5h115l-11 -85h-148zM203 -79l-7 -54q-12 -84 -90 -84h-20l4 30h18q33 0 37 37l1 9h-50l9 62h98z" />
    <glyph glyph-name="uni0237" unicode="&#x237;" horiz-adv-x="258" 
d="M-71 -82h33q41 0 56.5 13.5t21.5 55.5l86 616h97l-89 -634q-11 -73 -46.5 -104.5t-108.5 -31.5h-62z" />
    <glyph glyph-name="circumflex" unicode="&#x2c6;" horiz-adv-x="238" 
d="M179 724l-90 -62h-75l123 101h94l94 -101h-72z" />
    <glyph glyph-name="caron" unicode="&#x2c7;" horiz-adv-x="238" 
d="M101 763l73 -61l90 61h76l-124 -101h-93l-95 101h73z" />
    <glyph glyph-name="breve" unicode="&#x2d8;" horiz-adv-x="238" 
d="M55 711l5 60q28 -55 115 -55t128 55l-5 -60q-44 -53 -129 -53t-114 53z" />
    <glyph glyph-name="dotaccent" unicode="&#x2d9;" horiz-adv-x="238" 
d="M234 744l-10 -68h-106l10 68h106z" />
    <glyph glyph-name="ring" unicode="&#x2da;" horiz-adv-x="238" 
d="M197 749h-31q-33 0 -33 -33q0 -21 26 -21h31q33 0 33 33q0 21 -26 21zM180 659h-21q-67 0 -67 50q0 75 84 75h21q67 0 67 -50q0 -75 -84 -75z" />
    <glyph glyph-name="ogonek" unicode="&#x2db;" horiz-adv-x="250" 
d="M163 -62h-22q-90 0 -122 -7.5t-32 -25.5q0 -13 37 -13h166l-9 -58h-162q-75 0 -75 44q0 46 42 63.5t148 17.5h10l6 41h22z" />
    <glyph glyph-name="tilde" unicode="&#x2dc;" horiz-adv-x="238" 
d="M48 660l8 60q37 36 72 36q21 0 55.5 -19.5t53.5 -19.5q31 0 67 39l-8 -59q-40 -39 -74 -39q-22 0 -56 20t-53 20q-31 0 -65 -38z" />
    <glyph glyph-name="hungarumlaut" unicode="&#x2dd;" horiz-adv-x="238" 
d="M375 763l-134 -101h-77l110 101h101zM205 763l-134 -101h-77l110 101h101z" />
    <glyph glyph-name="pi" unicode="&#x3c0;" 
d="M36 0l84 603h404l-84 -603h-97l72 518h-209l-73 -518h-97z" />
    <glyph glyph-name="uni1E02" unicode="&#x1e02;" horiz-adv-x="590" 
d="M525 220l-12 -80q-10 -73 -48 -106.5t-111 -33.5h-319l98 700h319q73 0 102 -33.5t18 -106.5l-11 -80q-8 -60 -36.5 -91.5t-84.5 -38.5q54 -7 73.5 -38.5t11.5 -91.5zM374 394q42 0 61 17.5t25 59.5l9 64q5 41 -9.5 59t-53.5 18h-185l-31 -218h184zM178 306l-30 -218h184
q40 0 59.5 18t25.5 59l9 64q5 42 -8.5 59.5t-55.5 17.5h-184zM425 831l-10 -68h-106l10 68h106z" />
    <glyph glyph-name="uni1E03" unicode="&#x1e03;" horiz-adv-x="523" 
d="M50 142l89 628h97l-34 -239q29 72 129 72h49q73 0 102.5 -34.5t18.5 -107.5l-45 -319q-10 -73 -48.5 -107.5t-111.5 -34.5h-124q-73 0 -102.5 34.5t-19.5 107.5zM189 441l-39 -279q-6 -42 9.5 -59.5t57.5 -17.5h57q42 0 62 17.5t26 59.5l39 279q6 42 -9 59.5t-57 17.5
h-58q-41 0 -61.5 -17.5t-26.5 -59.5zM434 744l-10 -68h-106l10 68h106z" />
    <glyph glyph-name="uni1E0A" unicode="&#x1e0a;" horiz-adv-x="591" 
d="M392 700q199 0 172 -200l-43 -300q-27 -200 -227 -200h-259l98 700h259zM284 88q122 0 139 122l39 280q17 122 -104 122h-137l-73 -524h136zM415 831l-10 -68h-106l10 68h106z" />
    <glyph glyph-name="uni1E0B" unicode="&#x1e0b;" horiz-adv-x="523" 
d="M536 770l-88 -628q-11 -73 -49.5 -107.5t-110.5 -34.5h-124q-73 0 -102.5 34.5t-19.5 107.5l45 319q11 73 49.5 107.5t111.5 34.5h48q53 0 78.5 -17.5t30.5 -54.5l34 239h97zM354 162l39 279q5 42 -10 59.5t-56 17.5h-58q-42 0 -62 -17.5t-26 -59.5l-39 -279
q-6 -42 9.5 -59.5t56.5 -17.5h58q42 0 62 17.5t26 59.5zM335 744l-10 -68h-106l10 68h106z" />
    <glyph glyph-name="uni1E1E" unicode="&#x1e1e;" horiz-adv-x="526" 
d="M35 0l98 700h431l-13 -88h-330l-31 -218h241l-13 -88h-240l-42 -306h-101zM410 831l-10 -68h-106l10 68h106z" />
    <glyph glyph-name="uni1E1F" unicode="&#x1e1f;" horiz-adv-x="440" 
d="M283 518q-49 0 -74 -21.5t-32 -70.5l-11 -82h214l-12 -85h-214l-60 -426h-97l85 606q12 85 57.5 124.5t130.5 39.5h192l-12 -85h-167zM368 744l-10 -68h-106l10 68h106z" />
    <glyph glyph-name="uni1E40" unicode="&#x1e40;" horiz-adv-x="874" 
d="M636 700h80q145 0 124 -144l-77 -556h-100l74 532q6 44 -9 62t-57 18h-64q-42 0 -61.5 -18t-26.5 -62l-74 -532h-100l74 532q7 44 -8 62t-58 18h-63q-43 0 -62.5 -18t-25.5 -62l-75 -532h-100l78 556q19 144 165 144h80q68 0 98 -24.5t30 -80.5q16 56 53 80.5t105 24.5z
M564 831l-10 -68h-106l10 68h106z" />
    <glyph glyph-name="uni1E41" unicode="&#x1e41;" horiz-adv-x="810" 
d="M433 501q16 55 52 78.5t102 23.5h61q73 0 102.5 -34.5t18.5 -107.5l-64 -461h-97l61 441q6 42 -9 59.5t-57 17.5h-43q-42 0 -62 -17.5t-26 -59.5l-61 -441h-97l61 441q6 42 -8.5 59.5t-56.5 17.5h-43q-42 0 -62 -17.5t-26 -59.5l-61 -441h-97l65 461q10 73 48.5 107.5
t111.5 34.5h61q66 0 95.5 -23.5t30.5 -78.5zM520 744l-10 -68h-106l10 68h106z" />
    <glyph glyph-name="uni1E56" unicode="&#x1e56;" horiz-adv-x="565" 
d="M35 0l98 700h315q74 0 103.5 -34.5t18.5 -107.5l-15 -110q-11 -73 -50 -107.5t-112 -34.5h-215l-42 -306h-101zM467 535q5 41 -9 59t-54 18h-183l-31 -218h183q40 0 59.5 18t25.5 59zM422 831l-10 -68h-106l10 68h106z" />
    <glyph glyph-name="uni1E57" unicode="&#x1e57;" horiz-adv-x="523" 
d="M-3 -167l89 628q10 73 48.5 107.5t111.5 34.5h124q73 0 102.5 -34.5t18.5 -107.5l-45 -319q-10 -73 -48.5 -107.5t-111.5 -34.5h-49q-100 0 -110 72l-33 -239h-97zM179 441l-39 -279q-6 -42 9.5 -59.5t57.5 -17.5h57q42 0 62 17.5t26 59.5l39 279q6 42 -9 59.5t-57 17.5
h-58q-41 0 -61.5 -17.5t-26.5 -59.5zM376 744l-10 -68h-106l10 68h106z" />
    <glyph glyph-name="uni1E60" unicode="&#x1e60;" horiz-adv-x="533" 
d="M193 306q-74 0 -103.5 34.5t-18.5 107.5l15 110q11 73 50 107.5t113 34.5h268l-13 -88h-236q-40 0 -59.5 -18t-25.5 -59l-9 -64q-6 -41 8.5 -59t54.5 -18h119q74 0 103.5 -34.5t19.5 -107.5l-16 -110q-10 -73 -49 -107.5t-112 -34.5h-299l12 88h267q40 0 59.5 18t24.5 59
l9 64q6 41 -8.5 59t-54.5 18h-119zM393 831l-10 -68h-106l10 68h106z" />
    <glyph glyph-name="uni1E61" unicode="&#x1e61;" horiz-adv-x="479" 
d="M438 518h-203q-34 0 -50.5 -14.5t-21.5 -48.5l-6 -48q-5 -34 7 -48.5t46 -14.5h107q65 0 91.5 -31.5t16.5 -98.5l-12 -84q-9 -67 -44 -98.5t-99 -31.5h-268l12 85h234q34 0 50.5 14.5t21.5 48.5l6 48q5 34 -7.5 48.5t-46.5 14.5h-107q-127 0 -109 129l12 85
q10 67 45 98.5t100 31.5h237zM354 744l-10 -68h-106l10 68h106z" />
    <glyph glyph-name="uni1E6A" unicode="&#x1e6a;" horiz-adv-x="497" 
d="M535 700l-13 -88h-180l-85 -612h-100l85 612h-181l13 88h461zM375 831l-10 -68h-106l10 68h106z" />
    <glyph glyph-name="uni1E6B" unicode="&#x1e6b;" horiz-adv-x="395" 
d="M173 0q-73 0 -103 34.5t-20 107.5l89 628h97l-24 -167h193l-12 -85h-193l-50 -356q-6 -42 9.5 -59.5t57.5 -17.5h115l-11 -85h-148zM394 744l-10 -68h-106l10 68h106z" />
    <glyph glyph-name="Wgrave" unicode="&#x1e80;" horiz-adv-x="874" 
d="M639 0h-80q-68 0 -98.5 24.5t-30.5 80.5q-16 -56 -52.5 -80.5t-104.5 -24.5h-80q-146 0 -125 144l78 556h100l-75 -532q-6 -44 9 -62t58 -18h63q42 0 62 18t26 62l75 532h100l-75 -532q-6 -44 9 -62t57 -18h63q43 0 62.5 18t25.5 62l76 532h100l-78 -556
q-11 -73 -51 -108.5t-114 -35.5zM512 749l-102 101h94l83 -101h-75z" />
    <glyph glyph-name="wgrave" unicode="&#x1e81;" horiz-adv-x="810" 
d="M387 102q-16 -55 -52 -78.5t-102 -23.5h-61q-73 0 -102.5 34.5t-19.5 107.5l65 461h97l-62 -441q-6 -42 9.5 -59.5t57.5 -17.5h42q42 0 62 17.5t26 59.5l61 441h97l-61 -441q-6 -42 9 -59.5t57 -17.5h42q42 0 62 17.5t26 59.5l62 441h97l-65 -461q-10 -73 -48.5 -107.5
t-111.5 -34.5h-61q-66 0 -96 24t-30 78zM456 662l-102 101h94l83 -101h-75z" />
    <glyph glyph-name="Wacute" unicode="&#x1e82;" horiz-adv-x="874" 
d="M639 0h-80q-68 0 -98.5 24.5t-30.5 80.5q-16 -56 -52.5 -80.5t-104.5 -24.5h-80q-146 0 -125 144l78 556h100l-75 -532q-6 -44 9 -62t58 -18h63q42 0 62 18t26 62l75 532h100l-75 -532q-6 -44 9 -62t57 -18h63q43 0 62.5 18t25.5 62l76 532h100l-78 -556
q-11 -73 -51 -108.5t-114 -35.5zM665 850l-134 -101h-77l110 101h101z" />
    <glyph glyph-name="wacute" unicode="&#x1e83;" horiz-adv-x="810" 
d="M387 102q-16 -55 -52 -78.5t-102 -23.5h-61q-73 0 -102.5 34.5t-19.5 107.5l65 461h97l-62 -441q-6 -42 9.5 -59.5t57.5 -17.5h42q42 0 62 17.5t26 59.5l61 441h97l-61 -441q-6 -42 9 -59.5t57 -17.5h42q42 0 62 17.5t26 59.5l62 441h97l-65 -461q-10 -73 -48.5 -107.5
t-111.5 -34.5h-61q-66 0 -96 24t-30 78zM609 763l-134 -101h-77l110 101h101z" />
    <glyph glyph-name="Wdieresis" unicode="&#x1e84;" horiz-adv-x="874" 
d="M639 0h-80q-68 0 -98.5 24.5t-30.5 80.5q-16 -56 -52.5 -80.5t-104.5 -24.5h-80q-146 0 -125 144l78 556h100l-75 -532q-6 -44 9 -62t58 -18h63q42 0 62 18t26 62l75 532h100l-75 -532q-6 -44 9 -62t57 -18h63q43 0 62.5 18t25.5 62l76 532h100l-78 -556
q-11 -73 -51 -108.5t-114 -35.5zM484 831l-9 -68h-106l9 68h106zM685 831l-9 -68h-106l9 68h106z" />
    <glyph glyph-name="wdieresis" unicode="&#x1e85;" horiz-adv-x="810" 
d="M387 102q-16 -55 -52 -78.5t-102 -23.5h-61q-73 0 -102.5 34.5t-19.5 107.5l65 461h97l-62 -441q-6 -42 9.5 -59.5t57.5 -17.5h42q42 0 62 17.5t26 59.5l61 441h97l-61 -441q-6 -42 9 -59.5t57 -17.5h42q42 0 62 17.5t26 59.5l62 441h97l-65 -461q-10 -73 -48.5 -107.5
t-111.5 -34.5h-61q-66 0 -96 24t-30 78zM429 744l-9 -68h-106l9 68h106zM630 744l-9 -68h-106l9 68h106z" />
    <glyph glyph-name="Ygrave" unicode="&#x1ef2;" horiz-adv-x="565" 
d="M497 700h100l-35 -250q-20 -144 -165 -144h-44l-43 -306h-100l43 306h-45q-144 0 -124 144l35 250h101l-33 -227q-5 -43 10 -61t57 -18h122q43 0 62.5 17.5t26.5 61.5zM356 749l-102 101h94l83 -101h-75z" />
    <glyph glyph-name="ygrave" unicode="&#x1ef3;" horiz-adv-x="540" 
d="M214 -167h-171l12 85h157q58 0 88 25.5t38 84.5l9 65q-31 -71 -129 -71h-48q-73 0 -102.5 34.5t-19.5 106.5l62 440h97l-58 -419q-7 -42 8.5 -59.5t57.5 -17.5h58q41 0 61 17.5t26 59.5l59 419h97l-81 -576q-14 -100 -67.5 -147t-153.5 -47zM316 662l-102 101h94l83 -101
h-75z" />
    <glyph glyph-name="uni2010" unicode="&#x2010;" horiz-adv-x="387" 
d="M358 370l-12 -86h-310l12 86h310z" />
    <glyph glyph-name="figuredash" unicode="&#x2012;" 
d="M570 370l-13 -86h-560l13 86h560z" />
    <glyph glyph-name="endash" unicode="&#x2013;" horiz-adv-x="500" 
d="M510 370l-13 -86h-500l13 86h500z" />
    <glyph glyph-name="emdash" unicode="&#x2014;" horiz-adv-x="1000" 
d="M1010 370l-13 -86h-1000l13 86h1000z" />
    <glyph glyph-name="quoteleft" unicode="&#x2018;" horiz-adv-x="280" 
d="M106 495l13 88q16 117 120 117h17l-5 -44h-16q-21 0 -32.5 -11t-16.5 -41l-3 -21h57l-13 -88h-121z" />
    <glyph glyph-name="quoteright" unicode="&#x2019;" horiz-adv-x="280" 
d="M256 700l-13 -88q-16 -117 -120 -117h-17l6 44h15q22 0 33.5 11t15.5 41l3 21h-57l13 88h121z" />
    <glyph glyph-name="quotesinglbase" unicode="&#x201a;" horiz-adv-x="280" 
d="M171 90l-13 -88q-16 -117 -120 -117h-17l6 44h15q22 0 33.5 11t15.5 41l3 21h-57l13 88h121z" />
    <glyph glyph-name="quotedblleft" unicode="&#x201c;" horiz-adv-x="479" 
d="M305 495l13 88q17 117 120 117h18l-6 -44h-16q-21 0 -32.5 -11t-16.5 -41l-2 -21h56l-13 -88h-121zM106 495l13 88q16 117 120 117h17l-5 -44h-16q-21 0 -32.5 -11t-16.5 -41l-3 -21h57l-13 -88h-121z" />
    <glyph glyph-name="quotedblright" unicode="&#x201d;" horiz-adv-x="479" 
d="M456 700l-13 -88q-16 -117 -120 -117h-17l6 44h15q22 0 33.5 11t15.5 41l3 21h-57l13 88h121zM256 700l-13 -88q-16 -117 -120 -117h-17l6 44h15q22 0 33.5 11t15.5 41l3 21h-57l13 88h121z" />
    <glyph glyph-name="quotedblbase" unicode="&#x201e;" horiz-adv-x="479" 
d="M370 90l-13 -88q-16 -117 -120 -117h-17l6 44h15q22 0 33.5 11t15.5 41l3 21h-57l13 88h121zM171 90l-13 -88q-16 -117 -120 -117h-17l6 44h15q22 0 33.5 11t15.5 41l3 21h-57l13 88h121z" />
    <glyph glyph-name="dagger" unicode="&#x2020;" horiz-adv-x="519" 
d="M515 507l-12 -88h-178l-77 -551h-100l77 551h-177l13 88h176l34 233h100l-34 -233h178z" />
    <glyph glyph-name="daggerdbl" unicode="&#x2021;" horiz-adv-x="519" 
d="M477 232l-13 -88h-178l-38 -276h-100l38 276h-177l13 88h177l26 187h-177l13 88h176l34 233h100l-34 -233h178l-12 -88h-178l-26 -187h178z" />
    <glyph glyph-name="bullet" unicode="&#x2022;" horiz-adv-x="500" 
d="M305 155h-104q-139 0 -139 132v126q0 132 139 132h104q139 0 139 -132v-126q0 -132 -139 -132z" />
    <glyph glyph-name="ellipsis" unicode="&#x2026;" horiz-adv-x="678" 
d="M171 90l-13 -90h-121l13 90h121zM370 90l-13 -90h-121l13 90h121zM569 90l-13 -90h-121l13 90h121z" />
    <glyph glyph-name="perthousand" unicode="&#x2030;" horiz-adv-x="1493" 
d="M370 0l297 700h78l-297 -700h-78zM639 120l41 294q9 61 42 90.5t95 29.5h123q62 0 87 -29.5t17 -90.5l-42 -294q-16 -120 -137 -120h-123q-121 0 -103 120zM917 134l38 266q4 31 -7.5 44.5t-40.5 13.5h-78q-57 0 -65 -58l-37 -266q-4 -31 7.5 -44.5t40.5 -13.5h79
q29 0 44 13.5t19 44.5zM1068 120l41 294q9 61 42 90.5t95 29.5h123q62 0 87 -29.5t17 -90.5l-42 -294q-16 -120 -137 -120h-123q-121 0 -103 120zM1346 134l38 266q4 31 -7.5 44.5t-40.5 13.5h-78q-57 0 -65 -58l-37 -266q-4 -31 7.5 -44.5t40.5 -13.5h79q29 0 44 13.5
t19 44.5zM69 286l41 294q9 61 42 90.5t95 29.5h123q62 0 87 -29.5t17 -90.5l-42 -294q-16 -120 -137 -120h-123q-121 0 -103 120zM347 300l38 266q4 31 -7.5 44.5t-40.5 13.5h-78q-57 0 -65 -58l-37 -266q-4 -31 7.5 -44.5t40.5 -13.5h79q29 0 44 13.5t19 44.5z" />
    <glyph glyph-name="guilsinglleft" unicode="&#x2039;" horiz-adv-x="293" 
d="M233 51h-97l-113 249l183 249h100l-186 -253z" />
    <glyph glyph-name="guilsinglright" unicode="&#x203a;" horiz-adv-x="293" 
d="M60 549h98l112 -249l-182 -249h-101l186 251z" />
    <glyph glyph-name="fraction" unicode="&#x2044;" horiz-adv-x="329" 
d="M-16 0l297 700h78l-297 -700h-78z" />
    <glyph glyph-name="zerosuperior" unicode="&#x2070;" horiz-adv-x="470" 
d="M69 286l41 294q9 61 42 90.5t95 29.5h123q62 0 87 -29.5t17 -90.5l-42 -294q-16 -120 -137 -120h-123q-121 0 -103 120zM347 300l38 266q4 31 -7.5 44.5t-40.5 13.5h-78q-57 0 -65 -58l-37 -266q-4 -31 7.5 -44.5t40.5 -13.5h79q29 0 44 13.5t19 44.5z" />
    <glyph glyph-name="foursuperior" unicode="&#x2074;" horiz-adv-x="470" 
d="M346 471l32 229h87l-75 -534h-87l32 229h-155q-62 0 -87 29.5t-17 90.5l26 185h87l-24 -172q-4 -30 7.5 -43.5t40.5 -13.5h133z" />
    <glyph glyph-name="zeroinferior" unicode="&#x2080;" horiz-adv-x="470" 
d="M46 120l41 294q9 61 42 90.5t95 29.5h123q62 0 87 -29.5t17 -90.5l-42 -294q-16 -120 -137 -120h-123q-121 0 -103 120zM324 134l38 266q4 31 -7.5 44.5t-40.5 13.5h-78q-57 0 -65 -58l-37 -266q-4 -31 7.5 -44.5t40.5 -13.5h79q29 0 44 13.5t19 44.5z" />
    <glyph glyph-name="oneinferior" unicode="&#x2081;" horiz-adv-x="470" 
d="M68 0l11 76h123l53 382h-123l11 76h210l-65 -458h96l-11 -76h-305z" />
    <glyph glyph-name="twoinferior" unicode="&#x2082;" horiz-adv-x="470" 
d="M354 364l5 36q5 32 -6 45t-42 13h-225l11 76h248q62 0 86.5 -29.5t16.5 -90.5l-9 -64q-9 -62 -42 -91.5t-94 -29.5h-101q-48 0 -68.5 -17.5t-26.5 -64.5l-10 -70h303l-10 -77h-390l22 159q19 147 167 147h100q32 0 46.5 12.5t18.5 45.5z" />
    <glyph glyph-name="threeinferior" unicode="&#x2083;" horiz-adv-x="470" 
d="M444 415l-6 -41q-7 -48 -28 -74.5t-72 -32.5q49 -6 63 -32.5t7 -74.5l-5 -41q-9 -61 -41.5 -90t-93.5 -29h-274l11 76h248q32 0 46.5 13t18.5 46l5 36q4 31 -7 44.5t-40 13.5h-174l11 76h173q56 0 64 58l5 36q5 33 -6 46t-43 13h-248l11 76h274q61 0 85 -29t16 -90z" />
    <glyph glyph-name="fourinferior" unicode="&#x2084;" horiz-adv-x="470" 
d="M323 305l32 229h87l-75 -534h-87l32 229h-155q-62 0 -87 29.5t-17 90.5l26 185h87l-24 -172q-4 -30 7.5 -43.5t40.5 -13.5h133z" />
    <glyph glyph-name="Euro" unicode="&#x20ac;" 
d="M192 0q-145 0 -124 144l22 162h-70l12 88h70l23 162q11 73 51 108.5t114 35.5h284l-12 -88h-251q-43 0 -62.5 -18t-26.5 -62l-19 -138h237l-12 -88h-238l-19 -138q-6 -44 9 -62t57 -18h252l-13 -88h-284z" />
    <glyph glyph-name="uni2117" unicode="&#x2117;" horiz-adv-x="701" 
d="M310 373h94q22 0 22 22v46q0 22 -22 22h-94v-90zM481 446v-56q0 -65 -64 -65h-107v-136h-55v321h162q33 0 48.5 -15t15.5 -49zM232 0q-84 0 -124 40.5t-40 122.5v374q0 82 40 122.5t124 40.5h253q164 0 164 -163v-374q0 -163 -164 -163h-253zM235 50h247q110 0 110 111
v378q0 111 -110 111h-247q-110 0 -110 -111v-378q0 -111 110 -111z" />
    <glyph glyph-name="trademark" unicode="&#x2122;" horiz-adv-x="1078" 
d="M681 167v390q0 34 -14.5 50.5t-46.5 16.5h-63q-29 0 -41.5 -12.5t-12.5 -42.5v-402h-86v418q0 59 27.5 87t87.5 28h72q57 0 85.5 -22t34.5 -70q7 48 35.5 70t85.5 22h72q60 0 87.5 -28t27.5 -87v-418h-87v402q0 30 -12 42.5t-41 12.5h-63q-32 0 -46.5 -16.5t-14.5 -50.5
v-390h-87zM355 700v-76h-113v-457h-87v457h-112v76h312z" />
    <glyph glyph-name="uni2126" unicode="&#x2126;" 
d="M413 387v148q0 41 -17.5 59t-56.5 18h-112q-39 0 -56.5 -18t-17.5 -59v-148q0 -41 17.5 -59t56.5 -18h14v-310h-193v88h117v136q-58 7 -85 41t-27 99v194q0 73 34.5 107.5t108.5 34.5h174q74 0 108.5 -34.5t34.5 -107.5v-194q0 -65 -27 -99t-85 -41v-136h117v-88h-193
v310h14q39 0 56.5 18t17.5 59z" />
    <glyph glyph-name="onethird" unicode="&#x2153;" horiz-adv-x="1064" 
d="M91 166l11 76h123l53 382h-123l11 76h210l-65 -458h96l-11 -76h-305zM352 0l297 700h78l-297 -700h-78zM1037 415l-6 -41q-7 -48 -28 -74.5t-72 -32.5q49 -6 63 -32.5t7 -74.5l-5 -41q-9 -61 -41.5 -90t-93.5 -29h-274l11 76h248q32 0 46.5 13t18.5 46l5 36q4 31 -7 44.5
t-40 13.5h-174l11 76h173q56 0 64 58l5 36q5 33 -6 46t-43 13h-248l11 76h274q61 0 85 -29t16 -90z" />
    <glyph glyph-name="twothirds" unicode="&#x2154;" horiz-adv-x="1064" 
d="M377 530l5 36q5 32 -6 45t-42 13h-225l11 76h248q62 0 86.5 -29.5t16.5 -90.5l-9 -64q-9 -62 -42 -91.5t-94 -29.5h-101q-48 0 -68.5 -17.5t-26.5 -64.5l-10 -70h303l-10 -77h-390l22 159q19 147 167 147h100q32 0 46.5 12.5t18.5 45.5zM352 0l297 700h78l-297 -700h-78z
M1037 415l-6 -41q-7 -48 -28 -74.5t-72 -32.5q49 -6 63 -32.5t7 -74.5l-5 -41q-9 -61 -41.5 -90t-93.5 -29h-274l11 76h248q32 0 46.5 13t18.5 46l5 36q4 31 -7 44.5t-40 13.5h-174l11 76h173q56 0 64 58l5 36q5 33 -6 46t-43 13h-248l11 76h274q61 0 85 -29t16 -90z" />
    <glyph glyph-name="partialdiff" unicode="&#x2202;" 
d="M505 500v-358q0 -73 -34 -107.5t-108 -34.5h-173q-74 0 -108 34.5t-34 107.5v110q0 73 34 107.5t108 34.5h214v96q0 122 -121 122h-210v88h233q98 0 148.5 -50.5t50.5 -149.5zM148 229v-64q0 -41 17 -59t57 -18h108q40 0 57 18t17 59v141h-182q-40 0 -57 -18t-17 -59z
" />
    <glyph glyph-name="uni2206" unicode="&#x2206;" 
d="M43 0l239 714l240 -714h-479zM282 461l-128 -384h257z" />
    <glyph glyph-name="product" unicode="&#x220f;" 
d="M403 -132v744h-240v-744h-100v832h440v-832h-100z" />
    <glyph glyph-name="summation" unicode="&#x2211;" 
d="M503 -44v-88h-440v79l263 337l-263 337v79h440v-88h-323l256 -328l-256 -328h323z" />
    <glyph glyph-name="minus" unicode="&#x2212;" 
d="M63 307v85h440v-85h-440z" />
    <glyph glyph-name="radical" unicode="&#x221a;" 
d="M247 0l-79 307h-105v85h170l71 -282l146 590h88l-176 -700h-115z" />
    <glyph glyph-name="infinity" unicode="&#x221e;" horiz-adv-x="733" 
d="M345 317q-12 0 -23.5 12.5t-14.5 12.5t-11 -2t-14 -2q-8 0 -14.5 8t-6.5 17q0 22 8 35q-7 -7 -16 -37t-26 -41q-18 -12 -18 -40q0 -11 11 -21.5t11 -12.5q0 -4 -3 -4q-7 0 -12 5q13 -68 48 -104h-55q-35 114 -35 226q0 105 40.5 171.5t135.5 66.5q190 0 190 -254
q0 -75 -25 -210h-73q53 47 62 117q-4 -8 -13 -8q-3 0 -3 2l4 4q5 3 9.5 11.5t4.5 21.5q-4 -6 -15 -6q-1 0 -10.5 -4.5t-15.5 -4.5q-14 0 -40 3.5t-70 3.5q-22 0 -52.5 -6t-38.5 -6q-5 0 -13 2t-11 2q-28 0 -28 12q0 10 37 18.5t74 8.5q5 0 12 -0.5t12 -0.5t15.5 2t14.5 2
q112 0 127 -20q-1 16 -14 29t-30 13q-6 0 -6 7q0 57 -16 58q4 -7 4 -17q0 -18 -11 -32t-27 -14q-4 0 -10 2l-7 2q-1 0 -14.5 -14t-27.5 -14zM733 291v-148q-22 48 -69 112.5t-67 64.5q6 -85 -12 -177h-42q16 104 16 199q0 319 -213 319q-53 0 -91.5 -26.5t-59 -72.5
t-30 -97.5t-9.5 -111.5q0 -123 29 -210h-47q-19 67 -19 184q-17 -9 -39.5 -43.5t-49 -84.5t-30.5 -56v148q11 27 33 54t50 53.5t30 28.5q3 72 27 135t75.5 107.5t120.5 44.5q67 0 115.5 -22.5t76.5 -64t42.5 -87t22.5 -105.5q22 -5 68 -48t72 -96zM345 503q-3 3 -3 6
q0 2 2 2q1 0 6 -4.5t15 -8.5t22 -4q16 0 29 4t20 8l6 5q4 0 4 -2l-8 -8q24 0 52 -11q-29 80 -139 80q-55 0 -92 -33t-50 -85q37 20 41 39q-6 4 -6 7q0 4 3 4l2 -2q2 -1 6.5 -3.5t10 -5t13.5 -4t17 -1.5q24 0 49 17zM371 416q0 20 -4.5 40t-9.5 20q-10 0 -19 -39t-14 -39
q-3 0 -9.5 3t-11.5 3q-13 0 -21 -10.5t-8 -24.5t11 -14t18 6.5t9 6.5t12 -13.5t20 -13.5q14 0 25 10.5t12 10.5q3 0 10 -3.5t9 -3.5q10 0 18 11t8 24q0 10 -6 18t-16 8q-7 0 -14.5 -6.5t-11.5 -6.5q-7 0 -7 13zM510 318q0 95 -12 147l-5 3q0 -21 -18 -32t-41 -11
q-21 0 -37 12.5t-16 29.5q0 6 2 9q-12 2 -15 4q6 -9 10 -24t5.5 -24t4.5 -9q7 2 15 2q19 0 31 -14q34 0 34 -51q0 -3 8 -7t18.5 -13t15.5 -22zM383 310q-1 0 -8 -1t-15.5 -2t-13.5 -1t-13 1.5t-11 1.5q-15 0 -36 -4t-35 -9t-14 -8q0 -10 20 -10q24 0 54 6.5t44 6.5
q19 0 57.5 -3.5t52.5 -3.5q5 0 9.5 2t7.5 4t3 3q0 5 -36 11t-66 6zM267 413q-18 0 -31 10t-15 21q-4 -2 -15 -5q-4 -21 -4 -43q0 -50 3 -78q4 6 22 22t20 31q5 37 38 41q12 5 23 5q5 0 8.5 8.5t9.5 24.5t16 28l-13 -4q-1 -24 -18.5 -42.5t-43.5 -18.5zM419 465q-13 0 -16 13
q-5 0 -8.5 -5.5t-3.5 -9.5q0 -10 15 -17t31 -7q14 0 29 8.5t15 21.5q0 8 -14.5 12.5t-28.5 4.5q-5 -21 -19 -21zM267 427q14 0 30 11t16 24q0 6 -1 9q-20 0 -27 1q-5 -14 -18 -14q-10 0 -15 5q-4 -4 -18 -12q4 -24 33 -24zM266 288q-2 0 -2 3q0 12 107 12q93 0 93 -8
q0 -3 -3 -3q-1 0 -4 0.5t-10 1t-16 1.5t-24.5 1.5t-33.5 0.5q-36 0 -61 -2.5t-36 -4.5zM305 262q0 10 63 10q31 0 31 -8q0 -3 -2 -3q-4 0 -10 2t-10 2q-11 0 -26 -0.5t-20 -0.5q-4 0 -11.5 -3t-10.5 -3q-4 0 -4 4zM417 473q9 0 9 13q-1 0 -16 -6q0 -7 7 -7zM266 466
q7 0 10 9q-6 1 -11 4q0 -4 -6 -10q1 -3 7 -3zM325 34l-3 48l-10 -82h-21l15 125h25l4 -60l21 60h26l-15 -125h-22l10 82l-16 -48h-14zM21 125h35q23 0 20 -21l-10 -82q-3 -22 -22 -22h-38zM282 44q-1 -12 -10 -17l8 -27h-21l-7 23h-7l-3 -23h-22l15 125h36q21 0 18 -24z
M183 0l3 23h-14l-3 -23h-21l12 104q2 21 22 21h17q19 0 18 -21l-12 -104h-22zM594 0l15 125h35q23 0 20 -21l-8 -62q-3 -19 -22 -19h-15l-3 -23h-22zM111 0l3 23h-13l-3 -23h-22l15 125h22l-10 -83h13l10 83h22l-15 -125h-22zM539 125h22l-10 -79q0 -4 4 -4h5q5 0 5 4l9 79
h22l-10 -81q-3 -21 -19 -21l-9 -23h-23l9 23q-18 0 -15 21zM477 106l3 19h50l-3 -19h-13l-12 -106h-23l12 106h-14zM41 106l-11 -88h11q3 0 3 4l9 80q0 4 -4 4h-8zM629 106l-8 -64h8q5 0 5 4l7 56q0 4 -4 4h-8zM174 42h14l7 60q0 4 -4 4h-5q-5 0 -5 -4zM255 106l-8 -64h8
q5 0 5 4l7 56q0 4 -3 4h-9zM711 57l-3 -18h-19l-3 -21h27l-2 -18h-49l15 125h47l-3 -19h-24l-6 -49h20zM417 0l3 23h-14l-3 -23h-21l12 104q2 21 22 21h17q19 0 18 -21l-12 -104h-22zM408 42h14l7 60q0 4 -4 4h-5q-5 0 -5 -4z" />
    <glyph glyph-name="integral" unicode="&#x222b;" 
d="M374 533l-72 -516q-11 -76 -52 -112.5t-118 -36.5h-69v88h52q44 0 64.5 18t25.5 61l72 516q11 76 52.5 112.5t118.5 36.5h55v-88h-39q-44 0 -64 -18t-26 -61z" />
    <glyph glyph-name="approxequal" unicode="&#x2248;" 
d="M63 153v94q44 56 103 56q39 0 119 -35t117 -35q59 0 101 61v-96q-44 -56 -103 -56q-40 0 -120 35.5t-117 35.5q-58 0 -100 -60zM63 408v94q44 56 103 56q39 0 119 -35t117 -35q59 0 101 61v-95q-44 -56 -103 -56q-40 0 -119.5 35t-117.5 35q-59 0 -100 -60z" />
    <glyph glyph-name="notequal" unicode="&#x2260;" 
d="M199 0h-85l65 179h-98v85h129l62 171h-191v84h221l66 181h85l-66 -181h98v-84h-128l-62 -171h190v-85h-221z" />
    <glyph glyph-name="lessequal" unicode="&#x2264;" 
d="M503 0h-440v84h440v-84zM63 350l196 219h109l-161 -177h296v-85h-296l161 -178h-109z" />
    <glyph glyph-name="greaterequal" unicode="&#x2265;" 
d="M503 0h-440v84h440v-84zM307 569l196 -219l-196 -221h-109l161 178h-296v85h296l-161 177h109z" />
    <glyph glyph-name="lozenge" unicode="&#x25ca;" 
d="M283 -14l-241 361l241 362l240 -362zM282 140l138 207l-138 207l-137 -207z" />
    <glyph glyph-name="commaaccent" horiz-adv-x="250" 
d="M120 -79l-7 -54q-12 -84 -90 -84h-20l4 30h18q33 0 37 37l1 9h-50l9 62h98z" />
    <glyph glyph-name="i.alt" horiz-adv-x="247" 
d="M33 0l84 603h97l-84 -603h-97zM247 746l-10 -70h-122l10 70h122z" />
    <glyph glyph-name="i.trk" horiz-adv-x="306" 
d="M214 85h52l-11 -85h-84q-73 0 -100.5 32.5t-16.5 103.5l65 467h97l-63 -447q-6 -40 7 -55.5t54 -15.5zM249 746l-10 -70h-122l10 70h122z" />
    <glyph glyph-name="one.pnum" horiz-adv-x="349" 
d="M328 700l-98 -700h-100l85 612h-152l13 88h252z" />
    </font>
</defs>
</svg>
