<?xml version="1.0" standalone="no"?>
<!DOCTYPE svg PUBLIC "-//W3C//DTD SVG 1.1//EN" "http://www.w3.org/Graphics/SVG/1.1/DTD/svg11.dtd" >
<svg xmlns="http://www.w3.org/2000/svg" xmlns:xlink="http://www.w3.org/1999/xlink" version="1.1">
<metadata>
Created by FontForge 20170731 at Sat Mar 14 00:16:17 2015
 By ,,,
Copyright (c) 2011 by Ryoichi Tsunekawa. All rights reserved.
</metadata>
<defs>
<font id="DesignSystemC-100R" horiz-adv-x="897" >
  <font-face 
    font-family="DesignSystemC-100R"
    font-weight="400"
    font-stretch="normal"
    units-per-em="1000"
    panose-1="4 5 4 6 2 11 2 2 3 2"
    ascent="822"
    descent="-178"
    x-height="603"
    cap-height="700"
    bbox="-59 -194 1901 932"
    underline-thickness="36"
    underline-position="-156"
    unicode-range="U+0020-FB02"
  />
<missing-glyph horiz-adv-x="625" 
d="M0 700h625v-700h-625v700zM40 664v-614l505 614h-505zM79 36h506v613z" />
    <glyph glyph-name="ij" unicode="ij" horiz-adv-x="468" 
d="M202 -131h36q60 0 79.5 19.5t19.5 79.5v635h40v-638q0 -73 -29.5 -102.5t-103.5 -29.5h-42v36zM320 689v41h73v-41h-73zM96 0v603h40v-603h-40zM152 730v-41h-73v41h73z" />
    <glyph glyph-name="fi" unicode="fi" horiz-adv-x="1034" 
d="M248 567q-67 0 -97.5 -29.5t-30.5 -98.5v-120h532v-36h-532v-283h-40v439q0 84 40 124t125 40h458v-36h-455zM951 36h57v-36h-63q-72 0 -102.5 30.5t-30.5 101.5v471h40v-468q0 -59 20 -79t79 -20zM868 730v-41h-73v41h73z" />
    <glyph glyph-name="fl" unicode="fl" horiz-adv-x="1032" 
d="M248 567q-67 0 -97.5 -29.5t-30.5 -98.5v-120h532v-36h-532v-283h-40v439q0 84 40 124t125 40h458v-36h-455zM949 36h57v-36h-63q-72 0 -102.5 30.5t-30.5 101.5v638h40v-635q0 -59 20 -79t79 -20z" />
    <glyph glyph-name=".notdef" horiz-adv-x="625" 
d="M0 700h625v-700h-625v700zM40 664v-614l505 614h-505zM79 36h506v613z" />
    <glyph glyph-name=".null" horiz-adv-x="0" 
 />
    <glyph glyph-name="nonmarkingreturn" horiz-adv-x="333" 
 />
    <glyph glyph-name="space" unicode=" " horiz-adv-x="315" 
 />
    <glyph glyph-name="exclam" unicode="!" horiz-adv-x="284" 
d="M177 51v-51h-70v51h70zM162 700v-236q0 -109 -10 -299h-20q-10 190 -10 299v236h40z" />
    <glyph glyph-name="quotedbl" unicode="&#x22;" horiz-adv-x="355" 
d="M114 700v-49q0 -38 -13 -259h-14q-13 221 -13 259v49h40zM281 700v-49q0 -38 -13 -259h-14q-13 221 -13 259v49h40z" />
    <glyph glyph-name="numbersign" unicode="#" 
d="M703 0l8 151h-547l-8 -151h-40l8 151h-86l2 36h86l17 326h-86l2 36h86l8 151h40l-8 -151h547l8 151h40l-8 -151h87l-2 -36h-87l-17 -326h87l-2 -36h-87l-8 -151h-40zM183 513l-17 -326h547l17 326h-547z" />
    <glyph glyph-name="dollar" unicode="$" 
d="M54 86h658q48 0 68.5 20t20.5 68v70q0 48 -20.5 68.5t-68.5 20.5h-532q-65 0 -95.5 31t-30.5 98v61q0 67 30.5 98.5t95.5 31.5h249v87h36v-87h347v-36h-630q-48 0 -68 -20.5t-20 -68.5v-71q0 -48 20 -68t68 -20h532q65 0 96 -31.5t31 -98.5v-60q0 -67 -31 -98t-96 -31
h-249v-90h-36v90h-375v36z" />
    <glyph glyph-name="percent" unicode="%" horiz-adv-x="1390" 
d="M539 0l273 700h38l-273 -700h-38zM828 114v306q0 58 27.5 86t86.5 28h269q59 0 86.5 -28t27.5 -86v-306q0 -58 -27.5 -86t-86.5 -28h-269q-59 0 -86.5 28t-27.5 86zM1285 111v312q0 40 -18 57.5t-56 17.5h-269q-38 0 -56 -17.5t-18 -57.5v-312q0 -40 18 -57.5t56 -17.5
h269q38 0 56 17.5t18 57.5zM66 280v306q0 58 27.5 86t86.5 28h269q59 0 86.5 -28t27.5 -86v-306q0 -58 -27.5 -86t-86.5 -28h-269q-59 0 -86.5 28t-27.5 86zM523 277v312q0 40 -18 57.5t-56 17.5h-269q-38 0 -56 -17.5t-18 -57.5v-312q0 -40 18 -57.5t56 -17.5h269
q38 0 56 17.5t18 57.5z" />
    <glyph glyph-name="ampersand" unicode="&#x26;" horiz-adv-x="989" 
d="M846 332h-632q-60 0 -83 -25.5t-23 -85.5v-75q0 -59 24.5 -84.5t80.5 -25.5h532q59 0 80 21t21 82v193zM68 141v79q0 58 23 90t78 40q-56 8 -78.5 39.5t-22.5 90.5v79q0 73 34 107t107 34h627v-36h-623q-56 0 -80.5 -25.5t-24.5 -84.5v-75q0 -60 23 -85.5t83 -25.5h751
v-36h-79v-197q0 -72 -31 -103.5t-103 -31.5h-543q-73 0 -107 34t-34 107z" />
    <glyph glyph-name="quotesingle" unicode="'" horiz-adv-x="188" 
d="M114 700v-49q0 -38 -13 -259h-14q-13 221 -13 259v49h40z" />
    <glyph glyph-name="parenleft" unicode="(" horiz-adv-x="318" 
d="M125 70q0 -63 25 -88.5t86 -25.5h32v-36h-41q-142 0 -142 141v498q0 141 142 141h41v-36h-32q-61 0 -86 -25.5t-25 -88.5v-480z" />
    <glyph glyph-name="parenright" unicode=")" horiz-adv-x="318" 
d="M193 70v480q0 63 -25 88.5t-86 25.5h-32v36h41q142 0 142 -141v-498q0 -141 -142 -141h-41v36h32q61 0 86 25.5t25 88.5z" />
    <glyph glyph-name="asterisk" unicode="*" horiz-adv-x="510" 
d="M261 466q59 31 145 58l75 24l10 -32l-75 -23q-107 -32 -151 -39q73 -81 101 -120l45 -64l-26 -19l-47 64q-48 65 -83 130q-35 -65 -83 -130l-47 -64l-26 19l46 64q29 41 100 120q-46 7 -151 39l-75 23l10 32l75 -24q86 -27 145 -58q-10 62 -10 156v78h32v-78
q0 -94 -10 -156z" />
    <glyph glyph-name="plus" unicode="+" 
d="M74 331v36h356v202h36v-202h357v-36h-357v-202h-36v202h-356z" />
    <glyph glyph-name="comma" unicode="," horiz-adv-x="278" 
d="M174 51v-47q0 -45 -14 -65t-49 -20h-7v17h8q17 0 24.5 11t7.5 40v17h-40v47h70z" />
    <glyph glyph-name="hyphen" unicode="-" horiz-adv-x="475" 
d="M429 345v-36h-383v36h383z" />
    <glyph glyph-name="period" unicode="." horiz-adv-x="278" 
d="M174 51v-51h-70v51h70z" />
    <glyph glyph-name="slash" unicode="/" horiz-adv-x="460" 
d="M33 0l353 700h41l-353 -700h-41z" />
    <glyph glyph-name="zero" unicode="0" 
d="M219 0q-74 0 -109.5 36t-35.5 109v410q0 73 35.5 109t109.5 36h459q145 0 145 -145v-410q0 -145 -145 -145h-459zM783 151v398q0 63 -25 89t-86 26h-447q-61 0 -86 -26t-25 -89v-398q0 -64 24.5 -89.5t86.5 -25.5h447q61 0 86 25.5t25 89.5z" />
    <glyph glyph-name="one" unicode="1" 
d="M590 700v-664h235v-36h-681v36h406v629h-406v35h446z" />
    <glyph glyph-name="two" unicode="2" 
d="M794 554q0 58 -24.5 84t-80.5 26h-610v36h614q73 0 107 -34t34 -107v-86q0 -73 -34 -107t-107 -34h-455q-79 0 -111.5 -32t-32.5 -113v-151h747v-36h-787v193q0 175 174 175h461q56 0 80.5 25.5t24.5 84.5v76z" />
    <glyph glyph-name="three" unicode="3" 
d="M683 332h-537v36h537q60 0 83 25.5t23 85.5v75q0 58 -24.5 84t-80.5 26h-632v36h636q73 0 107 -34t34 -107v-79q0 -59 -23 -90.5t-79 -39.5q56 -8 79 -40t23 -90v-79q0 -73 -34 -107t-107 -34h-636v36h632q56 0 80.5 25.5t24.5 84.5v75q0 60 -23 85.5t-83 25.5z" />
    <glyph glyph-name="four" unicode="4" 
d="M770 368v332h40v-700h-40v332h-572q-74 0 -109.5 36t-35.5 109v223h40v-217q0 -64 24.5 -89.5t86.5 -25.5h566z" />
    <glyph glyph-name="five" unicode="5" 
d="M77 332v368h737v-36h-697v-296h582q73 0 107 -34t34 -107v-86q0 -73 -34 -107t-107 -34h-632v36h628q56 0 80.5 25.5t24.5 84.5v76q0 58 -24.5 84t-80.5 26h-618z" />
    <glyph glyph-name="six" unicode="6" 
d="M112 495v-127h587q73 0 107 -34t34 -107v-86q0 -73 -34 -107t-107 -34h-486q-73 0 -107 34t-34 107v358q0 201 200 201h542v-36h-534q-84 0 -126 -41t-42 -128zM695 332h-583v-186q0 -59 24.5 -84.5t80.5 -25.5h478q56 0 80.5 25.5t24.5 84.5v76q0 58 -24.5 84t-80.5 26z
" />
    <glyph glyph-name="seven" unicode="7" 
d="M684 368q66 0 93 26t27 94v176h-779v36h819v-223q0 -145 -145 -145h-217q-66 0 -93 -26.5t-27 -93.5v-212h-40v223q0 145 145 145h217z" />
    <glyph glyph-name="eight" unicode="8" 
d="M834 559v-79q0 -59 -22.5 -90.5t-78.5 -39.5q55 -8 78 -40t23 -90v-79q0 -73 -34 -107t-107 -34h-489q-74 0 -107.5 34t-33.5 107v79q0 58 23 90t78 40q-56 8 -78.5 39.5t-22.5 90.5v79q0 73 33.5 107t107.5 34h489q73 0 107 -34t34 -107zM209 368h479q60 0 83 25.5
t23 85.5v75q0 58 -24.5 84t-80.5 26h-482q-55 0 -79.5 -25.5t-24.5 -84.5v-75q0 -61 23 -86t83 -25zM688 332h-479q-60 0 -83 -25t-23 -86v-75q0 -59 24 -84.5t80 -25.5h482q56 0 80.5 25.5t24.5 84.5v75q0 60 -23 85.5t-83 25.5z" />
    <glyph glyph-name="nine" unicode="9" 
d="M683 700q74 0 108 -34t34 -107v-358q0 -201 -200 -201h-543v36h535q84 0 126 41t42 128v127h-587q-73 0 -107 34t-34 107v86q0 73 34 107t107 34h485zM97 554v-76q0 -59 24.5 -84.5t80.5 -25.5h583v185q0 60 -24.5 85.5t-81.5 25.5h-477q-56 0 -80.5 -25.5t-24.5 -84.5z
" />
    <glyph glyph-name="colon" unicode=":" horiz-adv-x="278" 
d="M174 524v-51h-70v51h70zM174 51v-51h-70v51h70z" />
    <glyph glyph-name="semicolon" unicode=";" horiz-adv-x="278" 
d="M174 51v-47q0 -45 -14 -65t-49 -20h-7v17h8q17 0 24.5 11t7.5 40v17h-40v47h70zM174 524v-51h-70v51h70z" />
    <glyph glyph-name="less" unicode="&#x3c;" 
d="M74 350l230 219h50l-212 -202h681v-36h-680l211 -202h-50z" />
    <glyph glyph-name="equal" unicode="=" 
d="M89 210v36h719v-36h-719zM89 452v36h719v-36h-719z" />
    <glyph glyph-name="greater" unicode="&#x3e;" 
d="M823 350l-230 -221h-50l211 202h-680v36h681l-212 202h50z" />
    <glyph glyph-name="question" unicode="?" horiz-adv-x="831" 
d="M753 478v76q0 58 -24.5 84t-80.5 26h-624v36h628q73 0 107 -34t34 -107v-86q0 -73 -34 -107t-107 -34h-218q-46 0 -65.5 -19.5t-19.5 -67.5v-80h-40v84q0 119 119 119h220q56 0 80.5 25.5t24.5 84.5zM364 51v-51h-70v51h70z" />
    <glyph glyph-name="at" unicode="@" horiz-adv-x="1018" 
d="M233 0q-81 0 -120 39t-39 119v384q0 80 39 119t120 39h552q81 0 120 -39t39 -119v-384q0 -80 -39 -119t-120 -39h-552zM235 36h548q62 0 91.5 30t29.5 92v384q0 62 -29.5 92t-91.5 30h-548q-62 0 -91.5 -30t-29.5 -92v-384q0 -62 29.5 -92t91.5 -30zM692 189h-372
q-79 0 -79 81v16q0 81 79 81h420v59q0 48 -48 48h-436v36h429q50 0 72.5 -23t22.5 -73v-136q0 -46 -21 -67.5t-67 -21.5zM322 331q-23 0 -32 -8.5t-9 -30.5v-28q0 -22 9 -30.5t32 -8.5h377q19 0 30 11t11 30v65h-418z" />
    <glyph glyph-name="A" unicode="A" horiz-adv-x="936" 
d="M851 0h-40v332h-686v-332h-40v555q0 73 35.5 109t109.5 36h476q145 0 145 -145v-555zM700 664h-464q-61 0 -86 -26t-25 -89v-181h686v181q0 63 -25 89t-86 26z" />
    <glyph glyph-name="B" unicode="B" horiz-adv-x="930" 
d="M862 220v-79q0 -73 -34 -107t-107 -34h-625v700h625q73 0 107 -34t34 -107v-79q0 -59 -23 -90.5t-79 -39.5q56 -8 79 -40t23 -90zM716 368q60 0 83 25.5t23 85.5v75q0 58 -24.5 84t-80.5 26h-581v-296h580zM136 332v-296h581q56 0 80.5 25.5t24.5 84.5v75q0 60 -23 85.5
t-83 25.5h-580z" />
    <glyph glyph-name="C" unicode="C" horiz-adv-x="832" 
d="M219 0q-74 0 -109.5 36t-35.5 109v410q0 73 35.5 109t109.5 36h561v-36h-555q-61 0 -86 -26t-25 -89v-398q0 -64 24.5 -89.5t86.5 -25.5h555v-36h-561z" />
    <glyph glyph-name="D" unicode="D" horiz-adv-x="930" 
d="M661 700q201 0 201 -201v-298q0 -201 -201 -201h-565v700h565zM654 36q84 0 126 41t42 128v290q0 87 -41.5 128t-126.5 41h-518v-628h518z" />
    <glyph glyph-name="E" unicode="E" horiz-adv-x="889" 
d="M96 0v700h741v-36h-701v-296h607v-36h-607v-296h701v-36h-741z" />
    <glyph glyph-name="F" unicode="F" horiz-adv-x="855" 
d="M96 0v700h737v-36h-697v-296h603v-36h-603v-332h-40z" />
    <glyph glyph-name="G" unicode="G" horiz-adv-x="909" 
d="M701 36q60 0 81 21t21 82v193h-383v36h423v-233q0 -72 -31 -103.5t-104 -31.5h-489q-74 0 -109.5 36t-35.5 109v410q0 73 35.5 109t109.5 36h599v-36h-593q-61 0 -86 -26t-25 -89v-398q0 -64 24.5 -89.5t86.5 -25.5h476z" />
    <glyph glyph-name="H" unicode="H" horiz-adv-x="975" 
d="M839 0v332h-703v-332h-40v700h40v-332h703v332h40v-700h-40z" />
    <glyph glyph-name="I" unicode="I" horiz-adv-x="232" 
d="M96 0v700h40v-700h-40z" />
    <glyph glyph-name="J" unicode="J" 
d="M53 135v207h40v-203q0 -61 20.5 -82t80.5 -21h467q61 0 86 25.5t25 89.5v549h40v-555q0 -145 -145 -145h-479q-73 0 -104 31.5t-31 103.5z" />
    <glyph glyph-name="K" unicode="K" horiz-adv-x="939" 
d="M862 700v-217q0 -60 -23.5 -93t-81.5 -40q58 -8 81.5 -40.5t23.5 -92.5v-217h-40v218q0 61 -23.5 87.5t-82.5 26.5h-580v-332h-40v700h40v-332h580q59 0 82.5 26.5t23.5 87.5v218h40z" />
    <glyph glyph-name="L" unicode="L" horiz-adv-x="849" 
d="M827 36v-36h-731v700h40v-664h691z" />
    <glyph glyph-name="M" unicode="M" horiz-adv-x="1253" 
d="M768 700h255q145 0 145 -145v-555h-40v549q0 63 -25 89t-86 26h-258q-62 0 -87.5 -26t-25.5 -90v-548h-40v548q0 64 -25 90t-87 26h-258q-61 0 -86 -26t-25 -89v-549h-40v555q0 73 35.5 109t109.5 36h254q68 0 101.5 -25t40.5 -84q8 59 41.5 84t100.5 25z" />
    <glyph glyph-name="N" unicode="N" horiz-adv-x="936" 
d="M236 664q-61 0 -86 -26t-25 -89v-549h-40v555q0 73 35.5 109t109.5 36h476q145 0 145 -145v-555h-40v549q0 63 -25 89t-86 26h-464z" />
    <glyph glyph-name="O" unicode="O" horiz-adv-x="917" 
d="M219 0q-74 0 -109.5 36t-35.5 109v410q0 73 35.5 109t109.5 36h479q145 0 145 -145v-410q0 -145 -145 -145h-479zM803 151v398q0 63 -25 89t-86 26h-467q-61 0 -86 -26t-25 -89v-398q0 -64 24.5 -89.5t86.5 -25.5h467q61 0 86 25.5t25 89.5z" />
    <glyph glyph-name="P" unicode="P" horiz-adv-x="898" 
d="M96 0v700h623q73 0 107 -34t34 -107v-86q0 -73 -34 -107t-107 -34h-583v-332h-40zM820 554q0 58 -24.5 84t-80.5 26h-579v-296h579q56 0 80.5 25.5t24.5 84.5v76z" />
    <glyph glyph-name="Q" unicode="Q" horiz-adv-x="917" 
d="M219 0q-74 0 -109.5 36t-35.5 109v410q0 73 35.5 109t109.5 36h479q145 0 145 -145v-410q0 -145 -145 -145h-221v-115h-37v115h-221zM803 151v398q0 63 -25 89t-86 26h-467q-61 0 -86 -26t-25 -89v-398q0 -64 24.5 -89.5t86.5 -25.5h215v206h37v-206h215q61 0 86 25.5
t25 89.5z" />
    <glyph glyph-name="R" unicode="R" horiz-adv-x="937" 
d="M862 559v-79q0 -59 -23.5 -91t-79.5 -40q56 -8 79.5 -40.5t23.5 -91.5v-217h-40v218q0 61 -23.5 87.5t-82.5 26.5h-580v-332h-40v700h625q73 0 107 -34t34 -107zM716 368q60 0 83 25.5t23 85.5v75q0 58 -24.5 84t-80.5 26h-581v-296h580z" />
    <glyph glyph-name="S" unicode="S" horiz-adv-x="862" 
d="M204 332q-74 0 -107.5 34t-33.5 107v86q0 73 33.5 107t107.5 34h575v-36h-572q-55 0 -79.5 -25.5t-24.5 -84.5v-76q0 -59 24 -84.5t80 -25.5h457q73 0 107 -34t34 -107v-86q0 -73 -34 -107t-107 -34h-608v36h604q56 0 80.5 25.5t24.5 84.5v76q0 58 -24.5 84t-80.5 26
h-456z" />
    <glyph glyph-name="T" unicode="T" horiz-adv-x="813" 
d="M791 700v-36h-364v-664h-40v664h-365v36h769z" />
    <glyph glyph-name="U" unicode="U" horiz-adv-x="936" 
d="M230 0q-74 0 -109.5 36t-35.5 109v555h40v-549q0 -64 24.5 -89.5t86.5 -25.5h464q61 0 86 25.5t25 89.5v549h40v-555q0 -145 -145 -145h-476z" />
    <glyph glyph-name="V" unicode="V" horiz-adv-x="931" 
d="M96 0v700h40v-664h507q84 0 125.5 41t41.5 128v495h40v-499q0 -98 -51 -149.5t-150 -51.5h-553z" />
    <glyph glyph-name="W" unicode="W" horiz-adv-x="1253" 
d="M1023 0h-255q-67 0 -100.5 25t-41.5 84q-7 -59 -40.5 -84t-101.5 -25h-254q-74 0 -109.5 36t-35.5 109v555h40v-549q0 -64 24.5 -89.5t86.5 -25.5h258q62 0 87 26t25 90v548h40v-548q0 -64 25.5 -90t87.5 -26h258q62 0 86.5 25.5t24.5 89.5v549h40v-555q0 -145 -145 -145
z" />
    <glyph glyph-name="X" unicode="X" horiz-adv-x="923" 
d="M77 483v217h40v-218q0 -61 23.5 -87.5t82.5 -26.5h477q59 0 82.5 26.5t23.5 87.5v218h40v-217q0 -60 -23.5 -93t-81.5 -40q58 -8 81.5 -40.5t23.5 -92.5v-217h-40v218q0 61 -23.5 87.5t-82.5 26.5h-477q-59 0 -82.5 -26.5t-23.5 -87.5v-218h-40v217q0 60 23.5 92.5
t81.5 40.5q-58 7 -81.5 40t-23.5 93z" />
    <glyph glyph-name="Y" unicode="Y" horiz-adv-x="893" 
d="M800 700h40v-223q0 -145 -145 -145h-229v-332h-40v332h-228q-74 0 -109.5 36t-35.5 109v223h40v-217q0 -63 25 -89t86 -26h485q62 0 86.5 25.5t24.5 89.5v217z" />
    <glyph glyph-name="Z" unicode="Z" horiz-adv-x="873" 
d="M632 368q80 0 112 31.5t32 112.5v152h-697v36h737v-194q0 -174 -174 -174h-404q-79 0 -111.5 -32t-32.5 -113v-151h722v-36h-762v193q0 175 174 175h404z" />
    <glyph glyph-name="bracketleft" unicode="[" horiz-adv-x="352" 
d="M96 700h206v-36h-166v-708h166v-36h-206v780z" />
    <glyph glyph-name="backslash" unicode="\" horiz-adv-x="460" 
d="M74 700l353 -700h-41l-353 700h41z" />
    <glyph glyph-name="bracketright" unicode="]" horiz-adv-x="352" 
d="M50 700h206v-780h-206v36h166v708h-166v36z" />
    <glyph glyph-name="asciicircum" unicode="^" 
d="M448 711l374 -340v-49l-374 340l-374 -340v49z" />
    <glyph glyph-name="underscore" unicode="_" horiz-adv-x="625" 
d="M625 -64v-36h-625v36h625z" />
    <glyph glyph-name="grave" unicode="`" horiz-adv-x="295" 
d="M187 662l-147 103h60l130 -103h-43z" />
    <glyph glyph-name="a" unicode="a" horiz-adv-x="809" 
d="M700 319v139q0 60 -24 84.5t-84 24.5h-510v36h516q73 0 107.5 -34.5t34.5 -107.5v-319q0 -73 -34.5 -107.5t-107.5 -34.5h-420q-65 0 -95.5 31t-30.5 98v61q0 67 30.5 98t95.5 31h522zM700 283h-520q-48 0 -68 -20t-20 -69v-70q0 -48 20 -68t68 -20h412q60 0 84 24t24 85
v138z" />
    <glyph glyph-name="b" unicode="b" horiz-adv-x="823" 
d="M80 142v628h40v-231q22 64 117 64h375q73 0 107.5 -34.5t34.5 -107.5v-319q0 -73 -34.5 -107.5t-107.5 -34.5h-390q-73 0 -107.5 34.5t-34.5 107.5zM120 458v-313q0 -61 24 -85t85 -24h376q60 0 84.5 24t24.5 85v313q0 60 -24.5 84.5t-84.5 24.5h-376q-61 0 -85 -24.5
t-24 -84.5z" />
    <glyph glyph-name="c" unicode="c" horiz-adv-x="752" 
d="M211 0q-73 0 -107.5 34.5t-34.5 107.5v319q0 73 34.5 107.5t107.5 34.5h487v-36h-480q-61 0 -85 -24.5t-24 -84.5v-313q0 -61 24 -85t85 -24h480v-36h-487z" />
    <glyph glyph-name="d" unicode="d" horiz-adv-x="823" 
d="M743 770v-628q0 -73 -34.5 -107.5t-107.5 -34.5h-390q-73 0 -107.5 34.5t-34.5 107.5v319q0 73 34.5 107.5t107.5 34.5h375q95 0 117 -64v231h40zM703 145v313q0 60 -24.5 84.5t-84.5 24.5h-376q-61 0 -85 -24.5t-24 -84.5v-313q0 -61 24 -85t85 -24h376q60 0 84.5 24
t24.5 85z" />
    <glyph glyph-name="e" unicode="e" horiz-adv-x="809" 
d="M757 412q0 -67 -30.5 -98t-95.5 -31h-522v-138q0 -61 24.5 -85t84.5 -24h509v-36h-516q-75 0 -108.5 36t-33.5 112v313q0 73 34.5 107.5t107.5 34.5h420q65 0 95.5 -31t30.5 -98v-62zM629 567h-411q-62 0 -85.5 -26t-23.5 -91v-131h520q47 0 67.5 20t20.5 68v70
q0 49 -20 69.5t-68 20.5z" />
    <glyph glyph-name="f" unicode="f" horiz-adv-x="730" 
d="M248 567q-67 0 -97.5 -29.5t-30.5 -98.5v-120h532v-36h-532v-283h-40v439q0 84 40 124t125 40h458v-36h-455z" />
    <glyph glyph-name="g" unicode="g" horiz-adv-x="823" 
d="M594 41q60 0 84.5 24t24.5 84v309q0 60 -24.5 84.5t-84.5 24.5h-376q-61 0 -85 -24.5t-24 -84.5v-309q0 -60 24 -84t85 -24h376zM586 5h-375q-73 0 -107.5 34.5t-34.5 107.5v314q0 73 34.5 107.5t107.5 34.5h390q73 0 107.5 -34.5t34.5 -107.5v-448q0 -92 -44 -136
t-136 -44h-454v36h450q75 0 109.5 33t34.5 111v55q-22 -63 -117 -63z" />
    <glyph glyph-name="h" unicode="h" horiz-adv-x="843" 
d="M724 458q0 60 -24.5 84.5t-84.5 24.5h-375q-61 0 -85 -24.5t-24 -84.5v-458h-40v770h40v-231q22 64 117 64h374q73 0 107.5 -34.5t34.5 -107.5v-461h-40v458z" />
    <glyph glyph-name="i" unicode="i" horiz-adv-x="304" 
d="M221 36h57v-36h-63q-72 0 -102.5 30.5t-30.5 101.5v471h40v-468q0 -59 20 -79t79 -20zM138 730v-41h-73v41h73z" />
    <glyph glyph-name="j" unicode="j" horiz-adv-x="236" 
d="M-30 -131h36q60 0 79.5 19.5t19.5 79.5v635h40v-638q0 -73 -29.5 -102.5t-103.5 -29.5h-42v36zM88 689v41h73v-41h-73z" />
    <glyph glyph-name="k" unicode="k" horiz-adv-x="829" 
d="M722 391v212h40v-186q0 -55 -18 -82.5t-61 -33.5q43 -6 61 -34t18 -83v-184h-40v211q0 38 -17.5 55t-55.5 17h-518v-283h-40v770h40v-451h518q38 0 55.5 17t17.5 55z" />
    <glyph glyph-name="l" unicode="l" horiz-adv-x="302" 
d="M219 36h57v-36h-63q-72 0 -102.5 30.5t-30.5 101.5v638h40v-635q0 -59 20 -79t79 -20z" />
    <glyph glyph-name="m" unicode="m" horiz-adv-x="1141" 
d="M570 506q8 53 41 75t101 22h207q73 0 107.5 -34.5t34.5 -107.5v-461h-40v458q0 60 -24.5 84.5t-84.5 24.5h-216q-58 0 -82 -24t-24 -82v-461h-40v461q0 58 -24 82t-82 24h-215q-61 0 -85 -24.5t-24 -84.5v-458h-40v461q0 73 34.5 107.5t107.5 34.5h206q68 0 101 -22
t41 -75z" />
    <glyph glyph-name="n" unicode="n" horiz-adv-x="831" 
d="M80 0v461q0 73 34.5 107.5t107.5 34.5h387q73 0 107.5 -34.5t34.5 -107.5v-461h-40v458q0 60 -24.5 84.5t-84.5 24.5h-373q-61 0 -85 -24.5t-24 -84.5v-458h-40z" />
    <glyph glyph-name="o" unicode="o" horiz-adv-x="810" 
d="M599 603q73 0 107.5 -34.5t34.5 -107.5v-319q0 -73 -34.5 -107.5t-107.5 -34.5h-388q-73 0 -107.5 34.5t-34.5 107.5v319q0 73 34.5 107.5t107.5 34.5h388zM592 36q61 0 85 24t24 85v313q0 60 -24 84.5t-85 24.5h-374q-61 0 -85 -24.5t-24 -84.5v-313q0 -61 24 -85
t85 -24h374z" />
    <glyph glyph-name="p" unicode="p" horiz-adv-x="823" 
d="M80 -167v628q0 73 34.5 107.5t107.5 34.5h390q73 0 107.5 -34.5t34.5 -107.5v-319q0 -73 -34.5 -107.5t-107.5 -34.5h-375q-95 0 -117 64v-231h-40zM120 458v-313q0 -61 24 -85t85 -24h376q60 0 84.5 24t24.5 85v313q0 60 -24.5 84.5t-84.5 24.5h-376q-61 0 -85 -24.5
t-24 -84.5z" />
    <glyph glyph-name="q" unicode="q" horiz-adv-x="823" 
d="M743 461v-628h-40v231q-22 -64 -117 -64h-375q-73 0 -107.5 34.5t-34.5 107.5v319q0 73 34.5 107.5t107.5 34.5h390q73 0 107.5 -34.5t34.5 -107.5zM703 145v313q0 59 -24.5 84t-84.5 25h-376q-60 0 -84.5 -25t-24.5 -84v-313q0 -60 24.5 -84.5t84.5 -24.5h376
q59 0 84 25t25 84z" />
    <glyph glyph-name="r" unicode="r" horiz-adv-x="650" 
d="M623 603v-36h-394q-61 0 -85 -24.5t-24 -84.5v-458h-40v461q0 73 34.5 107.5t107.5 34.5h401z" />
    <glyph glyph-name="s" unicode="s" horiz-adv-x="772" 
d="M690 567h-506q-48 0 -68 -20t-20 -69v-71q0 -48 20 -68t68 -20h410q65 0 95.5 -31t30.5 -98v-61q0 -67 -30.5 -98t-95.5 -31h-538v36h535q49 0 69 20t20 68v70q0 49 -20 69t-69 20h-409q-65 0 -95.5 31t-30.5 98v62q0 67 30.5 98t95.5 31h508v-36z" />
    <glyph glyph-name="t" unicode="t" horiz-adv-x="686" 
d="M222 0q-73 0 -107.5 34.5t-34.5 107.5v628h40v-167h512v-36h-512v-422q0 -61 24 -85t85 -24h403v-36h-410z" />
    <glyph glyph-name="u" unicode="u" horiz-adv-x="831" 
d="M602 36q60 0 84.5 24t24.5 85v458h40v-461q0 -73 -34.5 -107.5t-107.5 -34.5h-387q-73 0 -107.5 34.5t-34.5 107.5v461h40v-458q0 -61 24 -85t85 -24h373z" />
    <glyph glyph-name="v" unicode="v" horiz-adv-x="827" 
d="M752 603v-414q0 -98 -45 -143.5t-143 -45.5h-473v603h40v-567h430q80 0 115.5 34.5t35.5 116.5v416h40z" />
    <glyph glyph-name="w" unicode="w" horiz-adv-x="1141" 
d="M570 97q-8 -53 -41 -75t-101 -22h-206q-73 0 -107.5 34.5t-34.5 107.5v461h40v-458q0 -61 24 -85t85 -24h215q58 0 82 24t24 82v461h40v-461q0 -58 24 -82t82 -24h216q60 0 84.5 24t24.5 85v458h40v-461q0 -73 -34.5 -107.5t-107.5 -34.5h-207q-68 0 -101 22t-41 75z" />
    <glyph glyph-name="x" unicode="x" horiz-adv-x="828" 
d="M721 391v212h40v-186q0 -55 -18 -82.5t-61 -33.5q43 -6 61 -34t18 -83v-184h-40v211q0 38 -17 55t-56 17h-468q-39 0 -56 -17t-17 -55v-211h-40v184q0 55 18 83t61 34q-43 6 -61 33.5t-18 82.5v186h40v-212q0 -38 16.5 -55t56.5 -17h468q38 0 55.5 17t17.5 55z" />
    <glyph glyph-name="y" unicode="y" horiz-adv-x="843" 
d="M573 -167h-453v36h449q75 0 109.5 33t34.5 111v55q-23 -63 -117 -63h-374q-74 0 -108 34.5t-34 107.5v456h40v-454q0 -60 24 -84t85 -24h375q60 0 84.5 24t24.5 84v454h40v-590q0 -92 -44 -136t-136 -44z" />
    <glyph glyph-name="z" unicode="z" horiz-adv-x="784" 
d="M221 283q-67 0 -96.5 -30t-29.5 -96v-121h633v-36h-673v154q0 165 165 165h342q67 0 96.5 30t29.5 96v122h-613v36h653v-155q0 -165 -165 -165h-342z" />
    <glyph glyph-name="braceleft" unicode="{" horiz-adv-x="323" 
d="M135 550v-133q0 -56 -14 -81.5t-56 -25.5q42 0 56 -25.5t14 -81.5v-133q0 -63 25 -88.5t86 -25.5h33v-36h-41q-143 0 -143 141v166q0 38 -9.5 51.5t-42.5 13.5h-13v36h13q33 0 42.5 13.5t9.5 51.5v166q0 141 143 141h41v-36h-33q-61 0 -86 -25.5t-25 -88.5z" />
    <glyph glyph-name="bar" unicode="|" horiz-adv-x="266" 
d="M115 -167v907h36v-907h-36z" />
    <glyph glyph-name="braceright" unicode="}" horiz-adv-x="323" 
d="M188 417v133q0 63 -25 88.5t-86 25.5h-33v36h41q143 0 143 -141v-166q0 -38 9.5 -51.5t42.5 -13.5h13v-36h-13q-33 0 -42.5 -13.5t-9.5 -51.5v-166q0 -141 -143 -141h-41v36h33q61 0 86 25.5t25 88.5v133q0 56 14 81.5t56 25.5q-42 0 -56 25.5t-14 81.5z" />
    <glyph glyph-name="asciitilde" unicode="~" 
d="M74 306v46q66 58 163 58q68 0 210 -40t208 -40q101 0 168 67v-48q-67 -58 -164 -58q-69 0 -211 40.5t-208 40.5q-100 0 -166 -66z" />
    <glyph glyph-name="uni00A0" unicode="&#xa0;" horiz-adv-x="315" 
 />
    <glyph glyph-name="exclamdown" unicode="&#xa1;" horiz-adv-x="284" 
d="M107 579v51h70v-51h-70zM122 -70v236q0 109 10 299h20q10 -190 10 -299v-236h-40z" />
    <glyph glyph-name="cent" unicode="&#xa2;" 
d="M460 -40v90h-244q-73 0 -107.5 34.5t-34.5 107.5v316q0 73 34.5 107.5t107.5 34.5h244v90h36v-90h342v-36h-342v-528h342v-36h-342v-90h-36zM223 86h237v528h-237q-61 0 -85 -24.5t-24 -84.5v-310q0 -61 24 -85t85 -24z" />
    <glyph glyph-name="sterling" unicode="&#xa3;" 
d="M206 36h641v-36h-797v36h116v296h-116v36h116v188q0 73 35 108.5t109 35.5h485v-36h-480q-60 0 -84.5 -24.5t-24.5 -84.5v-187h589v-36h-589v-296z" />
    <glyph glyph-name="currency" unicode="&#xa4;" 
d="M100 509q0 73 34 107.5t107 34.5h190v89h36v-89h189q73 0 107 -34.5t34 -107.5v-141h75v-36h-75v-142q0 -73 -34 -107.5t-107 -34.5h-189v-88h-36v88h-190q-73 0 -107 34.5t-34 107.5v142h-75v36h75v141zM648 615h-399q-59 0 -84 -24.5t-25 -84.5v-313q0 -60 24.5 -84.5
t84.5 -24.5h399q59 0 84 25t25 84v313q0 59 -24.5 84t-84.5 25z" />
    <glyph glyph-name="yen" unicode="&#xa5;" 
d="M798 700h40v-171q0 -73 -35 -108.5t-109 -35.5h-226v-171h353v-36h-353v-178h-40v178h-352v36h352v171h-226q-74 0 -109 35.5t-35 108.5v171h40v-165q0 -62 24.5 -88t87.5 -26h476q62 0 87 25.5t25 88.5v165z" />
    <glyph glyph-name="brokenbar" unicode="&#xa6;" horiz-adv-x="266" 
d="M115 -167v394h36v-394h-36zM115 347v393h36v-393h-36z" />
    <glyph glyph-name="section" unicode="&#xa7;" horiz-adv-x="906" 
d="M199 435h513q71 0 103.5 -33t32.5 -106v-31q0 -100 -95 -114q95 -15 95 -114v-30q0 -73 -32.5 -106t-103.5 -33h-635v36h632q54 0 76.5 22.5t22.5 76.5v35q0 51 -21.5 73t-72.5 22h-513q-71 0 -103.5 33t-32.5 106v31q0 100 94 114q-94 14 -94 114v30q0 73 32.5 106
t103.5 33h634v-36h-631q-54 0 -76.5 -22.5t-22.5 -76.5v-35q0 -51 21.5 -73t72.5 -22zM709 399h-510q-51 0 -72.5 -22t-21.5 -73v-36q0 -54 22.5 -76.5t76.5 -22.5h510q51 0 72.5 22t21.5 73v36q0 54 -22.5 76.5t-76.5 22.5z" />
    <glyph glyph-name="dieresis" unicode="&#xa8;" horiz-adv-x="295" 
d="M77 730v-41h-73v41h73zM291 730v-41h-73v41h73z" />
    <glyph glyph-name="copyright" unicode="&#xa9;" horiz-adv-x="1018" 
d="M321 189q-46 0 -67 21.5t-21 67.5v143q0 46 21 67.5t67 21.5h450v-36h-457q-19 0 -30 -11t-11 -30v-167q0 -19 11 -30t30 -11h457v-36h-450zM233 0q-81 0 -120 39t-39 119v384q0 80 39 119t120 39h552q81 0 120 -39t39 -119v-384q0 -80 -39 -119t-120 -39h-552zM235 36
h548q62 0 91.5 30t29.5 92v384q0 62 -29.5 92t-91.5 30h-548q-62 0 -91.5 -30t-29.5 -92v-384q0 -62 29.5 -92t91.5 -30z" />
    <glyph glyph-name="ordfeminine" unicode="&#xaa;" horiz-adv-x="687" 
d="M586 451v141q0 39 -16 55.5t-54 16.5h-445v36h441q59 0 86.5 -28t27.5 -86v-306q0 -58 -27.5 -86t-86.5 -28h-351q-59 0 -86 28t-27 86v57q0 58 27 86t86 28h425zM88 343v-69q0 -39 16 -55.5t54 -16.5h358q38 0 54 16.5t16 55.5v141h-428q-38 0 -54 -16.5t-16 -55.5z
M339 70l53 -70h-106z" />
    <glyph glyph-name="guillemotleft" unicode="&#xab;" horiz-adv-x="460" 
d="M250 51h-42l-177 249l177 249h42l-177 -249zM429 51h-42l-177 249l177 249h42l-177 -249z" />
    <glyph glyph-name="logicalnot" unicode="&#xac;" 
d="M74 331v36h749v-238h-36v202h-713z" />
    <glyph glyph-name="uni00AD" unicode="&#xad;" horiz-adv-x="475" 
d="M429 345v-36h-383v36h383z" />
    <glyph glyph-name="registered" unicode="&#xae;" horiz-adv-x="1018" 
d="M233 0q-81 0 -120 39t-39 119v384q0 80 39 119t120 39h552q81 0 120 -39t39 -119v-384q0 -80 -39 -119t-120 -39h-552zM235 36h548q62 0 91.5 30t29.5 92v384q0 62 -29.5 92t-91.5 30h-548q-62 0 -91.5 -30t-29.5 -92v-384q0 -62 29.5 -92t91.5 -30zM781 414
q0 -30 -12 -46.5t-43 -18.5q55 -5 55 -68v-92h-40v111q0 31 -29 31h-430v-142h-40v321h471q68 0 68 -68v-28zM741 448q0 26 -27 26h-432v-107h432q27 0 27 26v55z" />
    <glyph glyph-name="macron" unicode="&#xaf;" horiz-adv-x="295" 
d="M283 697h-271v28h271v-28z" />
    <glyph glyph-name="degree" unicode="&#xb0;" horiz-adv-x="513" 
d="M44 573q0 127 135 127h155q135 0 135 -127v-130q0 -127 -135 -127h-155q-135 0 -135 127v130zM185 664q-57 0 -79 -22t-22 -78v-112q0 -56 22 -78t79 -22h142q58 0 80 22t22 78v112q0 56 -22.5 78t-79.5 22h-142z" />
    <glyph glyph-name="plusminus" unicode="&#xb1;" 
d="M823 0h-749v36h749v-36zM74 331v36h356v202h36v-202h357v-36h-357v-202h-36v202h-356z" />
    <glyph glyph-name="twosuperior" unicode="&#xb2;" horiz-adv-x="628" 
d="M541 528v59q0 43 -16.5 60t-58.5 17h-393v36h395q58 0 85.5 -28t27.5 -86v-57q0 -58 -27.5 -86t-85.5 -28h-266q-63 0 -86.5 -23.5t-23.5 -85.5v-104h489v-36h-529v146q0 139 139 139h275q42 0 58.5 17t16.5 60z" />
    <glyph glyph-name="threesuperior" unicode="&#xb3;" horiz-adv-x="628" 
d="M577 586v-49q0 -47 -17 -72.5t-65 -31.5q48 -6 65 -31.5t17 -72.5v-49q0 -58 -27.5 -86t-85.5 -28h-420v36h418q42 0 58.5 17t16.5 60v60q0 40 -17.5 58t-55.5 18h-342v36h342q38 0 55.5 18t17.5 58v60q0 43 -16.5 60t-58.5 17h-418v36h420q58 0 85.5 -28t27.5 -86z" />
    <glyph glyph-name="acute" unicode="&#xb4;" horiz-adv-x="295" 
d="M257 765l-151 -103h-42l129 103h64z" />
    <glyph glyph-name="uni00B5" unicode="&#xb5;" horiz-adv-x="843" 
d="M240 36h375q60 0 84.5 24t24.5 85v458h40v-461q0 -73 -34.5 -107.5t-107.5 -34.5h-374q-95 0 -117 64v-231h-40v770h40v-458q0 -61 24 -85t85 -24z" />
    <glyph glyph-name="paragraph" unicode="&#xb6;" horiz-adv-x="889" 
d="M793 700v-832h-40v796h-175v-796h-40v407h-336q-84 0 -124 40.5t-40 123.5v97q0 83 40 123.5t124 40.5h591z" />
    <glyph glyph-name="periodcentered" unicode="&#xb7;" horiz-adv-x="278" 
d="M174 375v-51h-70v51h70z" />
    <glyph glyph-name="cedilla" unicode="&#xb8;" horiz-adv-x="312" 
d="M151 -45h74q34 0 51.5 -9.5t17.5 -36.5q0 -62 -104 -62h-172v33h173q38 0 55 7t17 26q0 15 -8.5 21t-31.5 6h-94l19 60h16z" />
    <glyph glyph-name="onesuperior" unicode="&#xb9;" horiz-adv-x="628" 
d="M128 166v36h224v462h-224v36h264v-498h173v-36h-437z" />
    <glyph glyph-name="ordmasculine" unicode="&#xba;" horiz-adv-x="700" 
d="M61 280v306q0 58 27.5 86t86.5 28h350q59 0 86.5 -28t27.5 -86v-306q0 -58 -27.5 -86t-86.5 -28h-350q-59 0 -86.5 28t-27.5 86zM529 202q38 0 54 16.5t16 55.5v318q0 39 -16 55.5t-54 16.5h-358q-38 0 -54 -16.5t-16 -55.5v-318q0 -39 16 -55.5t54 -16.5h358zM352 70
l53 -70h-106z" />
    <glyph glyph-name="guillemotright" unicode="&#xbb;" horiz-adv-x="460" 
d="M252 51h-42l177 249l-177 249h42l177 -249zM73 51h-42l177 249l-177 249h42l177 -249z" />
    <glyph glyph-name="onequarter" unicode="&#xbc;" horiz-adv-x="1390" 
d="M539 0l273 700h38l-273 -700h-38zM128 166v36h224v462h-224v36h264v-498h173v-36h-437zM1265 285v249h40v-534h-40v249h-341q-59 0 -86.5 28t-27.5 86v171h40v-174q0 -40 18 -57.5t56 -17.5h341z" />
    <glyph glyph-name="onehalf" unicode="&#xbd;" horiz-adv-x="1390" 
d="M539 0l273 700h38l-273 -700h-38zM128 166v36h224v462h-224v36h264v-498h173v-36h-437zM1303 362v59q0 43 -16.5 60t-58.5 17h-393v36h395q58 0 85.5 -28t27.5 -86v-57q0 -58 -27.5 -86t-85.5 -28h-266q-63 0 -86.5 -23.5t-23.5 -85.5v-104h489v-36h-529v146
q0 139 139 139h275q42 0 58.5 17t16.5 60z" />
    <glyph glyph-name="threequarters" unicode="&#xbe;" horiz-adv-x="1390" 
d="M539 0l273 700h38l-273 -700h-38zM1265 285v249h40v-534h-40v249h-341q-59 0 -86.5 28t-27.5 86v171h40v-174q0 -40 18 -57.5t56 -17.5h341zM577 586v-49q0 -47 -17 -72.5t-65 -31.5q48 -6 65 -31.5t17 -72.5v-49q0 -58 -27.5 -86t-85.5 -28h-420v36h418q42 0 58.5 17
t16.5 60v60q0 40 -17.5 58t-55.5 18h-342v36h342q38 0 55.5 18t17.5 58v60q0 43 -16.5 60t-58.5 17h-418v36h420q58 0 85.5 -28t27.5 -86z" />
    <glyph glyph-name="questiondown" unicode="&#xbf;" horiz-adv-x="827" 
d="M78 152v-76q0 -58 24.5 -84t80.5 -26h624v-36h-628q-73 0 -107 34t-34 107v86q0 73 34 107t107 34h218q46 0 65.5 19.5t19.5 67.5v80h40v-84q0 -119 -119 -119h-220q-56 0 -80.5 -25.5t-24.5 -84.5zM467 579v51h70v-51h-70z" />
    <glyph glyph-name="Agrave" unicode="&#xc0;" horiz-adv-x="936" 
d="M851 0h-40v332h-686v-332h-40v555q0 73 35.5 109t109.5 36h476q145 0 145 -145v-555zM700 664h-464q-61 0 -86 -26t-25 -89v-181h686v181q0 63 -25 89t-86 26zM482 751l-147 103h60l130 -103h-43z" />
    <glyph glyph-name="Aacute" unicode="&#xc1;" horiz-adv-x="936" 
d="M851 0h-40v332h-686v-332h-40v555q0 73 35.5 109t109.5 36h476q145 0 145 -145v-555zM700 664h-464q-61 0 -86 -26t-25 -89v-181h686v181q0 63 -25 89t-86 26zM602 854l-151 -103h-42l129 103h64z" />
    <glyph glyph-name="Acircumflex" unicode="&#xc2;" horiz-adv-x="936" 
d="M851 0h-40v332h-686v-332h-40v555q0 73 35.5 109t109.5 36h476q145 0 145 -145v-555zM700 664h-464q-61 0 -86 -26t-25 -89v-181h686v181q0 63 -25 89t-86 26zM467 827l-121 -76h-39l138 103h45l138 -103h-39z" />
    <glyph glyph-name="Atilde" unicode="&#xc3;" horiz-adv-x="936" 
d="M851 0h-40v332h-686v-332h-40v555q0 73 35.5 109t109.5 36h476q145 0 145 -145v-555zM700 664h-464q-61 0 -86 -26t-25 -89v-181h686v181q0 63 -25 89t-86 26zM332 760v34q37 40 74 40q23 0 64 -22.5t63 -22.5q36 0 70 41v-33q-37 -40 -75 -40q-23 0 -64 22t-63 22
q-35 0 -69 -41z" />
    <glyph glyph-name="Adieresis" unicode="&#xc4;" horiz-adv-x="936" 
d="M851 0h-40v332h-686v-332h-40v555q0 73 35.5 109t109.5 36h476q145 0 145 -145v-555zM700 664h-464q-61 0 -86 -26t-25 -89v-181h686v181q0 63 -25 89t-86 26zM397 819v-41h-73v41h73zM611 819v-41h-73v41h73z" />
    <glyph glyph-name="Aring" unicode="&#xc5;" horiz-adv-x="936" 
d="M851 0h-40v332h-686v-332h-40v555q0 73 35.5 109t109.5 36h476q145 0 145 -145v-555zM700 664h-464q-61 0 -86 -26t-25 -89v-181h686v181q0 63 -25 89t-86 26zM410 803q0 -30 38 -30h41q38 0 38 30t-38 30h-41q-38 0 -38 -30zM489 751h-41q-62 0 -62 52t62 52h41
q61 0 61 -52t-61 -52z" />
    <glyph glyph-name="AE" unicode="&#xc6;" horiz-adv-x="1407" 
d="M711 0v332h-586v-332h-40v555q0 73 35.5 109t109.5 36h1125v-36h-608v-296h514v-36h-514v-296h608v-36h-644zM236 664q-61 0 -86 -26t-25 -89v-181h586v296h-475z" />
    <glyph glyph-name="Ccedilla" unicode="&#xc7;" horiz-adv-x="832" 
d="M456 0l-13 -45h74q34 0 51.5 -9.5t17.5 -36.5q0 -62 -104 -62h-172v33h173q38 0 55 7t17 26q0 15 -8.5 21t-31.5 6h-94l19 60h-221q-74 0 -109.5 36t-35.5 109v410q0 73 35.5 109t109.5 36h561v-36h-555q-61 0 -86 -26t-25 -89v-398q0 -64 24.5 -89.5t86.5 -25.5h555v-36
h-324z" />
    <glyph glyph-name="Egrave" unicode="&#xc8;" horiz-adv-x="889" 
d="M96 0v700h741v-36h-701v-296h607v-36h-607v-296h701v-36h-741zM478 751l-147 103h60l130 -103h-43z" />
    <glyph glyph-name="Eacute" unicode="&#xc9;" horiz-adv-x="889" 
d="M96 0v700h741v-36h-701v-296h607v-36h-607v-296h701v-36h-741zM598 854l-151 -103h-42l129 103h64z" />
    <glyph glyph-name="Ecircumflex" unicode="&#xca;" horiz-adv-x="889" 
d="M96 0v700h741v-36h-701v-296h607v-36h-607v-296h701v-36h-741zM463 827l-121 -76h-39l138 103h45l138 -103h-39z" />
    <glyph glyph-name="Edieresis" unicode="&#xcb;" horiz-adv-x="889" 
d="M96 0v700h741v-36h-701v-296h607v-36h-607v-296h701v-36h-741zM393 819v-41h-73v41h73zM607 819v-41h-73v41h73z" />
    <glyph glyph-name="Igrave" unicode="&#xcc;" horiz-adv-x="232" 
d="M96 0v700h40v-700h-40zM130 751l-147 103h60l130 -103h-43z" />
    <glyph glyph-name="Iacute" unicode="&#xcd;" horiz-adv-x="232" 
d="M96 0v700h40v-700h-40zM250 854l-151 -103h-42l129 103h64z" />
    <glyph glyph-name="Icircumflex" unicode="&#xce;" horiz-adv-x="232" 
d="M96 0v700h40v-700h-40zM115 827l-121 -76h-39l138 103h45l138 -103h-39z" />
    <glyph glyph-name="Idieresis" unicode="&#xcf;" horiz-adv-x="232" 
d="M240 819v-41h-73v41h73zM65 819v-41h-73v41h73zM96 0v700h40v-700h-40z" />
    <glyph glyph-name="Eth" unicode="&#xd0;" horiz-adv-x="931" 
d="M661 700q201 0 201 -201v-298q0 -201 -201 -201h-565v332h-76v36h76v332h565zM654 36q84 0 126 41t42 128v290q0 87 -41.5 128t-126.5 41h-518v-296h154v-36h-154v-296h518z" />
    <glyph glyph-name="Ntilde" unicode="&#xd1;" horiz-adv-x="936" 
d="M236 664q-61 0 -86 -26t-25 -89v-549h-40v555q0 73 35.5 109t109.5 36h476q145 0 145 -145v-555h-40v549q0 63 -25 89t-86 26h-464zM332 760v34q37 40 74 40q23 0 64 -22.5t63 -22.5q36 0 70 41v-33q-37 -40 -75 -40q-23 0 -64 22t-63 22q-35 0 -69 -41z" />
    <glyph glyph-name="Ograve" unicode="&#xd2;" horiz-adv-x="917" 
d="M219 0q-74 0 -109.5 36t-35.5 109v410q0 73 35.5 109t109.5 36h479q145 0 145 -145v-410q0 -145 -145 -145h-479zM803 151v398q0 63 -25 89t-86 26h-467q-61 0 -86 -26t-25 -89v-398q0 -64 24.5 -89.5t86.5 -25.5h467q61 0 86 25.5t25 89.5zM472 751l-147 103h60
l130 -103h-43z" />
    <glyph glyph-name="Oacute" unicode="&#xd3;" horiz-adv-x="917" 
d="M219 0q-74 0 -109.5 36t-35.5 109v410q0 73 35.5 109t109.5 36h479q145 0 145 -145v-410q0 -145 -145 -145h-479zM803 151v398q0 63 -25 89t-86 26h-467q-61 0 -86 -26t-25 -89v-398q0 -64 24.5 -89.5t86.5 -25.5h467q61 0 86 25.5t25 89.5zM592 854l-151 -103h-42
l129 103h64z" />
    <glyph glyph-name="Ocircumflex" unicode="&#xd4;" horiz-adv-x="917" 
d="M219 0q-74 0 -109.5 36t-35.5 109v410q0 73 35.5 109t109.5 36h479q145 0 145 -145v-410q0 -145 -145 -145h-479zM803 151v398q0 63 -25 89t-86 26h-467q-61 0 -86 -26t-25 -89v-398q0 -64 24.5 -89.5t86.5 -25.5h467q61 0 86 25.5t25 89.5zM457 827l-121 -76h-39
l138 103h45l138 -103h-39z" />
    <glyph glyph-name="Otilde" unicode="&#xd5;" horiz-adv-x="917" 
d="M219 0q-74 0 -109.5 36t-35.5 109v410q0 73 35.5 109t109.5 36h479q145 0 145 -145v-410q0 -145 -145 -145h-479zM803 151v398q0 63 -25 89t-86 26h-467q-61 0 -86 -26t-25 -89v-398q0 -64 24.5 -89.5t86.5 -25.5h467q61 0 86 25.5t25 89.5zM322 760v34q37 40 74 40
q23 0 64 -22.5t63 -22.5q36 0 70 41v-33q-37 -40 -75 -40q-23 0 -64 22t-63 22q-35 0 -69 -41z" />
    <glyph glyph-name="Odieresis" unicode="&#xd6;" horiz-adv-x="917" 
d="M219 0q-74 0 -109.5 36t-35.5 109v410q0 73 35.5 109t109.5 36h479q145 0 145 -145v-410q0 -145 -145 -145h-479zM803 151v398q0 63 -25 89t-86 26h-467q-61 0 -86 -26t-25 -89v-398q0 -64 24.5 -89.5t86.5 -25.5h467q61 0 86 25.5t25 89.5zM387 819v-41h-73v41h73z
M601 819v-41h-73v41h73z" />
    <glyph glyph-name="multiply" unicode="&#xd7;" 
d="M490 331l161 -202h-44l-159 202l-161 -202h-42l160 202h-331v36h331l-160 202h42l161 -202l159 202h44l-161 -202h333v-36h-333z" />
    <glyph glyph-name="Oslash" unicode="&#xd8;" horiz-adv-x="917" 
d="M219 0q-74 0 -109.5 36t-35.5 109v410q0 73 35.5 109t109.5 36h479q145 0 145 -145v-410q0 -145 -145 -145h-479zM114 151q0 -82 43 -103l558 615q-7 1 -23 1h-467q-61 0 -86 -26t-25 -89v-398zM803 151v398q0 79 -44 102l-557 -614q7 -1 23 -1h467q61 0 86 25.5t25 89.5
z" />
    <glyph glyph-name="Ugrave" unicode="&#xd9;" horiz-adv-x="936" 
d="M230 0q-74 0 -109.5 36t-35.5 109v555h40v-549q0 -64 24.5 -89.5t86.5 -25.5h464q61 0 86 25.5t25 89.5v549h40v-555q0 -145 -145 -145h-476zM482 751l-147 103h60l130 -103h-43z" />
    <glyph glyph-name="Uacute" unicode="&#xda;" horiz-adv-x="936" 
d="M230 0q-74 0 -109.5 36t-35.5 109v555h40v-549q0 -64 24.5 -89.5t86.5 -25.5h464q61 0 86 25.5t25 89.5v549h40v-555q0 -145 -145 -145h-476zM601 854l-151 -103h-42l129 103h64z" />
    <glyph glyph-name="Ucircumflex" unicode="&#xdb;" horiz-adv-x="936" 
d="M230 0q-74 0 -109.5 36t-35.5 109v555h40v-549q0 -64 24.5 -89.5t86.5 -25.5h464q61 0 86 25.5t25 89.5v549h40v-555q0 -145 -145 -145h-476zM467 827l-121 -76h-39l138 103h45l138 -103h-39z" />
    <glyph glyph-name="Udieresis" unicode="&#xdc;" horiz-adv-x="936" 
d="M230 0q-74 0 -109.5 36t-35.5 109v555h40v-549q0 -64 24.5 -89.5t86.5 -25.5h464q61 0 86 25.5t25 89.5v549h40v-555q0 -145 -145 -145h-476zM397 819v-41h-73v41h73zM611 819v-41h-73v41h73z" />
    <glyph glyph-name="Yacute" unicode="&#xdd;" horiz-adv-x="893" 
d="M800 700h40v-223q0 -145 -145 -145h-229v-332h-40v332h-228q-74 0 -109.5 36t-35.5 109v223h40v-217q0 -63 25 -89t86 -26h485q62 0 86.5 25.5t24.5 89.5v217zM580 854l-151 -103h-42l129 103h64z" />
    <glyph glyph-name="Thorn" unicode="&#xde;" horiz-adv-x="898" 
d="M96 0v700h40v-97h583q73 0 107 -34t34 -107v-86q0 -73 -34 -107t-107 -34h-583v-235h-40zM820 457q0 58 -24.5 84t-80.5 26h-579v-296h579q56 0 80.5 25.5t24.5 84.5v76z" />
    <glyph glyph-name="germandbls" unicode="&#xdf;" horiz-adv-x="843" 
d="M657 283h-399v36h399q51 0 70.5 20t19.5 71v58q0 54 -22.5 76.5t-76.5 22.5h-400q-67 0 -97.5 -29.5t-30.5 -98.5v-439h-40v439q0 84 40 124t125 40h406q71 0 103.5 -33t32.5 -106v-53q0 -51 -20.5 -77.5t-70.5 -32.5q49 -6 70 -32.5t21 -77.5v-52q0 -73 -32.5 -106
t-103.5 -33h-393v36h390q54 0 76.5 22.5t22.5 76.5v57q0 51 -19.5 71t-70.5 20z" />
    <glyph glyph-name="agrave" unicode="&#xe0;" horiz-adv-x="809" 
d="M700 319v139q0 60 -24 84.5t-84 24.5h-510v36h516q73 0 107.5 -34.5t34.5 -107.5v-319q0 -73 -34.5 -107.5t-107.5 -34.5h-420q-65 0 -95.5 31t-30.5 98v61q0 67 30.5 98t95.5 31h522zM700 283h-520q-48 0 -68 -20t-20 -69v-70q0 -48 20 -68t68 -20h412q60 0 84 24t24 85
v138zM413 662l-147 103h60l130 -103h-43z" />
    <glyph glyph-name="aacute" unicode="&#xe1;" horiz-adv-x="809" 
d="M700 319v139q0 60 -24 84.5t-84 24.5h-510v36h516q73 0 107.5 -34.5t34.5 -107.5v-319q0 -73 -34.5 -107.5t-107.5 -34.5h-420q-65 0 -95.5 31t-30.5 98v61q0 67 30.5 98t95.5 31h522zM700 283h-520q-48 0 -68 -20t-20 -69v-70q0 -48 20 -68t68 -20h412q60 0 84 24t24 85
v138zM530 765l-151 -103h-42l129 103h64z" />
    <glyph glyph-name="acircumflex" unicode="&#xe2;" horiz-adv-x="809" 
d="M700 319v139q0 60 -24 84.5t-84 24.5h-510v36h516q73 0 107.5 -34.5t34.5 -107.5v-319q0 -73 -34.5 -107.5t-107.5 -34.5h-420q-65 0 -95.5 31t-30.5 98v61q0 67 30.5 98t95.5 31h522zM700 283h-520q-48 0 -68 -20t-20 -69v-70q0 -48 20 -68t68 -20h412q60 0 84 24t24 85
v138zM398 738l-121 -76h-39l138 103h45l138 -103h-39z" />
    <glyph glyph-name="atilde" unicode="&#xe3;" horiz-adv-x="809" 
d="M700 319v139q0 60 -24 84.5t-84 24.5h-510v36h516q73 0 107.5 -34.5t34.5 -107.5v-319q0 -73 -34.5 -107.5t-107.5 -34.5h-420q-65 0 -95.5 31t-30.5 98v61q0 67 30.5 98t95.5 31h522zM700 283h-520q-48 0 -68 -20t-20 -69v-70q0 -48 20 -68t68 -20h412q60 0 84 24t24 85
v138zM263 671v34q37 40 74 40q23 0 64 -22.5t63 -22.5q36 0 70 41v-33q-37 -40 -75 -40q-23 0 -64 22t-63 22q-35 0 -69 -41z" />
    <glyph glyph-name="adieresis" unicode="&#xe4;" horiz-adv-x="809" 
d="M700 319v139q0 60 -24 84.5t-84 24.5h-510v36h516q73 0 107.5 -34.5t34.5 -107.5v-319q0 -73 -34.5 -107.5t-107.5 -34.5h-420q-65 0 -95.5 31t-30.5 98v61q0 67 30.5 98t95.5 31h522zM700 283h-520q-48 0 -68 -20t-20 -69v-70q0 -48 20 -68t68 -20h412q60 0 84 24t24 85
v138zM328 730v-41h-73v41h73zM542 730v-41h-73v41h73z" />
    <glyph glyph-name="aring" unicode="&#xe5;" horiz-adv-x="809" 
d="M700 319v139q0 60 -24 84.5t-84 24.5h-510v36h516q73 0 107.5 -34.5t34.5 -107.5v-319q0 -73 -34.5 -107.5t-107.5 -34.5h-420q-65 0 -95.5 31t-30.5 98v61q0 67 30.5 98t95.5 31h522zM700 283h-520q-48 0 -68 -20t-20 -69v-70q0 -48 20 -68t68 -20h412q60 0 84 24t24 85
v138zM340 714q0 -30 38 -30h41q38 0 38 30t-38 30h-41q-38 0 -38 -30zM419 662h-41q-62 0 -62 52t62 52h41q61 0 61 -52t-61 -52z" />
    <glyph glyph-name="ae" unicode="&#xe6;" horiz-adv-x="1202" 
d="M1110 407v71q0 49 -20 69t-68 20h-295q-58 0 -82 -24t-24 -82v-142h401q48 0 68 20t20 68zM92 194v-70q0 -48 20 -68t68 -20h295q58 0 82 24t24 82v141h-401q-48 0 -68 -20t-20 -69zM459 0h-281q-65 0 -95.5 31t-30.5 98v61q0 67 30.5 98t95.5 31h403v142q0 58 -24 82
t-82 24h-393v36h377q68 0 101 -22t41 -75q8 53 41 75t101 22h281q65 0 95.5 -31t30.5 -98v-62q0 -67 -30.5 -98t-95.5 -31h-403v-141q0 -58 24 -82t82 -24h393v-36h-377q-68 0 -101 22t-41 75q-8 -53 -41 -75t-101 -22z" />
    <glyph glyph-name="ccedilla" unicode="&#xe7;" horiz-adv-x="752" 
d="M393 0h-182q-73 0 -107.5 34.5t-34.5 107.5v319q0 73 34.5 107.5t107.5 34.5h487v-36h-480q-61 0 -85 -24.5t-24 -84.5v-313q0 -61 24 -85t85 -24h480v-36h-289l-13 -45h74q34 0 51.5 -9.5t17.5 -36.5q0 -62 -104 -62h-172v33h173q38 0 55 7t17 26q0 15 -8.5 21t-31.5 6
h-94z" />
    <glyph glyph-name="egrave" unicode="&#xe8;" horiz-adv-x="809" 
d="M757 412q0 -67 -30.5 -98t-95.5 -31h-522v-138q0 -61 24.5 -85t84.5 -24h509v-36h-516q-75 0 -108.5 36t-33.5 112v313q0 73 34.5 107.5t107.5 34.5h420q65 0 95.5 -31t30.5 -98v-62zM629 567h-411q-62 0 -85.5 -26t-23.5 -91v-131h520q47 0 67.5 20t20.5 68v70
q0 49 -20 69.5t-68 20.5zM436 662l-147 103h60l130 -103h-43z" />
    <glyph glyph-name="eacute" unicode="&#xe9;" horiz-adv-x="809" 
d="M757 412q0 -67 -30.5 -98t-95.5 -31h-522v-138q0 -61 24.5 -85t84.5 -24h509v-36h-516q-75 0 -108.5 36t-33.5 112v313q0 73 34.5 107.5t107.5 34.5h420q65 0 95.5 -31t30.5 -98v-62zM629 567h-411q-62 0 -85.5 -26t-23.5 -91v-131h520q47 0 67.5 20t20.5 68v70
q0 49 -20 69.5t-68 20.5zM556 765l-151 -103h-42l129 103h64z" />
    <glyph glyph-name="ecircumflex" unicode="&#xea;" horiz-adv-x="809" 
d="M757 412q0 -67 -30.5 -98t-95.5 -31h-522v-138q0 -61 24.5 -85t84.5 -24h509v-36h-516q-75 0 -108.5 36t-33.5 112v313q0 73 34.5 107.5t107.5 34.5h420q65 0 95.5 -31t30.5 -98v-62zM629 567h-411q-62 0 -85.5 -26t-23.5 -91v-131h520q47 0 67.5 20t20.5 68v70
q0 49 -20 69.5t-68 20.5zM421 738l-121 -76h-39l138 103h45l138 -103h-39z" />
    <glyph glyph-name="edieresis" unicode="&#xeb;" horiz-adv-x="809" 
d="M757 412q0 -67 -30.5 -98t-95.5 -31h-522v-138q0 -61 24.5 -85t84.5 -24h509v-36h-516q-75 0 -108.5 36t-33.5 112v313q0 73 34.5 107.5t107.5 34.5h420q65 0 95.5 -31t30.5 -98v-62zM629 567h-411q-62 0 -85.5 -26t-23.5 -91v-131h520q47 0 67.5 20t20.5 68v70
q0 49 -20 69.5t-68 20.5zM351 730v-41h-73v41h73zM565 730v-41h-73v41h73z" />
    <glyph glyph-name="igrave" unicode="&#xec;" horiz-adv-x="304" 
d="M141 662l-147 103h60l130 -103h-43zM221 36h57v-36h-63q-72 0 -102.5 30.5t-30.5 101.5v471h40v-468q0 -59 20 -79t79 -20z" />
    <glyph glyph-name="iacute" unicode="&#xed;" horiz-adv-x="304" 
d="M245 765l-151 -103h-42l129 103h64zM221 36h57v-36h-63q-72 0 -102.5 30.5t-30.5 101.5v471h40v-468q0 -59 20 -79t79 -20z" />
    <glyph glyph-name="icircumflex" unicode="&#xee;" horiz-adv-x="304" 
d="M221 36h57v-36h-63q-72 0 -102.5 30.5t-30.5 101.5v471h40v-468q0 -59 20 -79t79 -20zM101 738l-121 -76h-39l138 103h45l138 -103h-39z" />
    <glyph glyph-name="idieresis" unicode="&#xef;" horiz-adv-x="304" 
d="M234 730v-41h-73v41h73zM42 730v-41h-73v41h73zM221 36h57v-36h-63q-72 0 -102.5 30.5t-30.5 101.5v471h40v-468q0 -59 20 -79t79 -20z" />
    <glyph glyph-name="eth" unicode="&#xf0;" horiz-adv-x="823" 
d="M211 598h375q95 0 117 -63v55q0 78 -34.5 111t-109.5 33h-136v-87h-33v87h-281v36h281v50h33v-50h140q92 0 136 -44t44 -136v-448q0 -73 -34.5 -107.5t-107.5 -34.5h-390q-73 0 -107.5 34.5t-34.5 107.5v314q0 74 34.5 108t107.5 34zM594 562h-376q-61 0 -85 -24t-24 -84
v-309q0 -61 24 -85t85 -24h376q60 0 84.5 24t24.5 85v309q0 60 -24.5 84t-84.5 24z" />
    <glyph glyph-name="ntilde" unicode="&#xf1;" horiz-adv-x="831" 
d="M80 0v461q0 73 34.5 107.5t107.5 34.5h387q73 0 107.5 -34.5t34.5 -107.5v-461h-40v458q0 60 -24.5 84.5t-84.5 24.5h-373q-61 0 -85 -24.5t-24 -84.5v-458h-40zM280 671v34q37 40 74 40q23 0 64 -22.5t63 -22.5q36 0 70 41v-33q-37 -40 -75 -40q-23 0 -64 22t-63 22
q-35 0 -69 -41z" />
    <glyph glyph-name="ograve" unicode="&#xf2;" horiz-adv-x="810" 
d="M599 603q73 0 107.5 -34.5t34.5 -107.5v-319q0 -73 -34.5 -107.5t-107.5 -34.5h-388q-73 0 -107.5 34.5t-34.5 107.5v319q0 73 34.5 107.5t107.5 34.5h388zM592 36q61 0 85 24t24 85v313q0 60 -24 84.5t-85 24.5h-374q-61 0 -85 -24.5t-24 -84.5v-313q0 -61 24 -85
t85 -24h374zM419 662l-147 103h60l130 -103h-43z" />
    <glyph glyph-name="oacute" unicode="&#xf3;" horiz-adv-x="810" 
d="M599 603q73 0 107.5 -34.5t34.5 -107.5v-319q0 -73 -34.5 -107.5t-107.5 -34.5h-388q-73 0 -107.5 34.5t-34.5 107.5v319q0 73 34.5 107.5t107.5 34.5h388zM592 36q61 0 85 24t24 85v313q0 60 -24 84.5t-85 24.5h-374q-61 0 -85 -24.5t-24 -84.5v-313q0 -61 24 -85
t85 -24h374zM539 765l-151 -103h-42l129 103h64z" />
    <glyph glyph-name="ocircumflex" unicode="&#xf4;" horiz-adv-x="810" 
d="M599 603q73 0 107.5 -34.5t34.5 -107.5v-319q0 -73 -34.5 -107.5t-107.5 -34.5h-388q-73 0 -107.5 34.5t-34.5 107.5v319q0 73 34.5 107.5t107.5 34.5h388zM592 36q61 0 85 24t24 85v313q0 60 -24 84.5t-85 24.5h-374q-61 0 -85 -24.5t-24 -84.5v-313q0 -61 24 -85
t85 -24h374zM404 738l-121 -76h-39l138 103h45l138 -103h-39z" />
    <glyph glyph-name="otilde" unicode="&#xf5;" horiz-adv-x="810" 
d="M599 603q73 0 107.5 -34.5t34.5 -107.5v-319q0 -73 -34.5 -107.5t-107.5 -34.5h-388q-73 0 -107.5 34.5t-34.5 107.5v319q0 73 34.5 107.5t107.5 34.5h388zM592 36q61 0 85 24t24 85v313q0 60 -24 84.5t-85 24.5h-374q-61 0 -85 -24.5t-24 -84.5v-313q0 -61 24 -85
t85 -24h374zM269 671v34q37 40 74 40q23 0 64 -22.5t63 -22.5q36 0 70 41v-33q-37 -40 -75 -40q-23 0 -64 22t-63 22q-35 0 -69 -41z" />
    <glyph glyph-name="odieresis" unicode="&#xf6;" horiz-adv-x="810" 
d="M599 603q73 0 107.5 -34.5t34.5 -107.5v-319q0 -73 -34.5 -107.5t-107.5 -34.5h-388q-73 0 -107.5 34.5t-34.5 107.5v319q0 73 34.5 107.5t107.5 34.5h388zM592 36q61 0 85 24t24 85v313q0 60 -24 84.5t-85 24.5h-374q-61 0 -85 -24.5t-24 -84.5v-313q0 -61 24 -85
t85 -24h374zM334 730v-41h-73v41h73zM548 730v-41h-73v41h73z" />
    <glyph glyph-name="divide" unicode="&#xf7;" 
d="M486 147v-51h-73v51h73zM486 604v-51h-73v51h73zM823 331h-749v36h749v-36z" />
    <glyph glyph-name="oslash" unicode="&#xf8;" horiz-adv-x="810" 
d="M599 603q73 0 107.5 -34.5t34.5 -107.5v-319q0 -73 -34.5 -107.5t-107.5 -34.5h-388q-73 0 -107.5 34.5t-34.5 107.5v319q0 73 34.5 107.5t107.5 34.5h388zM592 36q61 0 85 24t24 85v313q0 45 -13 69t-43 33l-447 -524h394zM153 46l444 521h-379q-61 0 -85 -24.5
t-24 -84.5v-313q0 -80 44 -99z" />
    <glyph glyph-name="ugrave" unicode="&#xf9;" horiz-adv-x="831" 
d="M602 36q60 0 84.5 24t24.5 85v458h40v-461q0 -73 -34.5 -107.5t-107.5 -34.5h-387q-73 0 -107.5 34.5t-34.5 107.5v461h40v-458q0 -61 24 -85t85 -24h373zM431 662l-147 103h60l130 -103h-43z" />
    <glyph glyph-name="uacute" unicode="&#xfa;" horiz-adv-x="831" 
d="M602 36q60 0 84.5 24t24.5 85v458h40v-461q0 -73 -34.5 -107.5t-107.5 -34.5h-387q-73 0 -107.5 34.5t-34.5 107.5v461h40v-458q0 -61 24 -85t85 -24h373zM550 765l-151 -103h-42l129 103h64z" />
    <glyph glyph-name="ucircumflex" unicode="&#xfb;" horiz-adv-x="831" 
d="M602 36q60 0 84.5 24t24.5 85v458h40v-461q0 -73 -34.5 -107.5t-107.5 -34.5h-387q-73 0 -107.5 34.5t-34.5 107.5v461h40v-458q0 -61 24 -85t85 -24h373zM415 738l-121 -76h-39l138 103h45l138 -103h-39z" />
    <glyph glyph-name="udieresis" unicode="&#xfc;" horiz-adv-x="831" 
d="M602 36q60 0 84.5 24t24.5 85v458h40v-461q0 -73 -34.5 -107.5t-107.5 -34.5h-387q-73 0 -107.5 34.5t-34.5 107.5v461h40v-458q0 -61 24 -85t85 -24h373zM345 730v-41h-73v41h73zM559 730v-41h-73v41h73z" />
    <glyph glyph-name="yacute" unicode="&#xfd;" horiz-adv-x="843" 
d="M573 -167h-453v36h449q75 0 109.5 33t34.5 111v55q-23 -63 -117 -63h-374q-74 0 -108 34.5t-34 107.5v456h40v-454q0 -60 24 -84t85 -24h375q60 0 84.5 24t24.5 84v454h40v-590q0 -92 -44 -136t-136 -44zM556 765l-151 -103h-42l129 103h64z" />
    <glyph glyph-name="thorn" unicode="&#xfe;" horiz-adv-x="834" 
d="M131 770v-167h492q73 0 107.5 -34.5t34.5 -107.5v-319q0 -73 -34.5 -107.5t-107.5 -34.5h-375q-95 0 -117 63v-230h-40v937h40zM131 567v-422q0 -61 24 -85t85 -24h376q60 0 84.5 24t24.5 85v313q0 60 -24.5 84.5t-84.5 24.5h-485z" />
    <glyph glyph-name="ydieresis" unicode="&#xff;" horiz-adv-x="843" 
d="M573 -167h-453v36h449q75 0 109.5 33t34.5 111v55q-23 -63 -117 -63h-374q-74 0 -108 34.5t-34 107.5v456h40v-454q0 -60 24 -84t85 -24h375q60 0 84.5 24t24.5 84v454h40v-590q0 -92 -44 -136t-136 -44zM351 730v-41h-73v41h73zM565 730v-41h-73v41h73z" />
    <glyph glyph-name="Amacron" unicode="&#x100;" horiz-adv-x="936" 
d="M851 0h-40v332h-686v-332h-40v555q0 73 35.5 109t109.5 36h476q145 0 145 -145v-555zM700 664h-464q-61 0 -86 -26t-25 -89v-181h686v181q0 63 -25 89t-86 26zM603 786h-271v28h271v-28z" />
    <glyph glyph-name="amacron" unicode="&#x101;" horiz-adv-x="809" 
d="M700 319v139q0 60 -24 84.5t-84 24.5h-510v36h516q73 0 107.5 -34.5t34.5 -107.5v-319q0 -73 -34.5 -107.5t-107.5 -34.5h-420q-65 0 -95.5 31t-30.5 98v61q0 67 30.5 98t95.5 31h522zM700 283h-520q-48 0 -68 -20t-20 -69v-70q0 -48 20 -68t68 -20h412q60 0 84 24t24 85
v138zM534 697h-271v28h271v-28z" />
    <glyph glyph-name="Abreve" unicode="&#x102;" horiz-adv-x="936" 
d="M851 0h-40v332h-686v-332h-40v555q0 73 35.5 109t109.5 36h476q145 0 145 -145v-555zM700 664h-464q-61 0 -86 -26t-25 -89v-181h686v181q0 63 -25 89t-86 26zM332 815v37q42 -65 135 -65q94 0 136 65v-37q-44 -61 -136 -61q-91 0 -135 61z" />
    <glyph glyph-name="abreve" unicode="&#x103;" horiz-adv-x="809" 
d="M700 319v139q0 60 -24 84.5t-84 24.5h-510v36h516q73 0 107.5 -34.5t34.5 -107.5v-319q0 -73 -34.5 -107.5t-107.5 -34.5h-420q-65 0 -95.5 31t-30.5 98v61q0 67 30.5 98t95.5 31h522zM700 283h-520q-48 0 -68 -20t-20 -69v-70q0 -48 20 -68t68 -20h412q60 0 84 24t24 85
v138zM263 726v37q42 -65 135 -65q94 0 136 65v-37q-44 -61 -136 -61q-91 0 -135 61z" />
    <glyph glyph-name="Aogonek" unicode="&#x104;" horiz-adv-x="936" 
d="M700 664h-464q-61 0 -86 -26t-25 -89v-181h686v181q0 63 -25 89t-86 26zM811 -44v376h-686v-332h-40v555q0 73 35.5 109t109.5 36h476q145 0 145 -145v-555h-21v-63h-19q-115 0 -156.5 -8t-41.5 -30q0 -19 47 -19h201v-33h-201q-70 0 -70 44q0 38 44 51.5t166 13.5h11z
" />
    <glyph glyph-name="aogonek" unicode="&#x105;" horiz-adv-x="809" 
d="M700 283h-520q-48 0 -68 -20t-20 -69v-70q0 -48 20 -68t68 -20h412q60 0 84 24t24 85v138zM700 -44v73q-33 -29 -102 -29h-420q-65 0 -95.5 31t-30.5 98v61q0 67 30.5 98t95.5 31h522v139q0 60 -24 84.5t-84 24.5h-510v36h516q73 0 107.5 -34.5t34.5 -107.5v-319
q0 -57 -21 -91v-114h-19q-115 0 -156.5 -8t-41.5 -30q0 -19 47 -19h201v-33h-201q-70 0 -70 44q0 38 43.5 51.5t166.5 13.5h11z" />
    <glyph glyph-name="Cacute" unicode="&#x106;" horiz-adv-x="832" 
d="M219 0q-74 0 -109.5 36t-35.5 109v410q0 73 35.5 109t109.5 36h561v-36h-555q-61 0 -86 -26t-25 -89v-398q0 -64 24.5 -89.5t86.5 -25.5h555v-36h-561zM569 854l-151 -103h-42l129 103h64z" />
    <glyph glyph-name="cacute" unicode="&#x107;" horiz-adv-x="752" 
d="M211 0q-73 0 -107.5 34.5t-34.5 107.5v319q0 73 34.5 107.5t107.5 34.5h487v-36h-480q-61 0 -85 -24.5t-24 -84.5v-313q0 -61 24 -85t85 -24h480v-36h-487zM539 765l-151 -103h-42l129 103h64z" />
    <glyph glyph-name="Ccircumflex" unicode="&#x108;" horiz-adv-x="832" 
d="M219 0q-74 0 -109.5 36t-35.5 109v410q0 73 35.5 109t109.5 36h561v-36h-555q-61 0 -86 -26t-25 -89v-398q0 -64 24.5 -89.5t86.5 -25.5h555v-36h-561zM447 827l-121 -76h-39l138 103h45l138 -103h-39z" />
    <glyph glyph-name="ccircumflex" unicode="&#x109;" horiz-adv-x="752" 
d="M211 0q-73 0 -107.5 34.5t-34.5 107.5v319q0 73 34.5 107.5t107.5 34.5h487v-36h-480q-61 0 -85 -24.5t-24 -84.5v-313q0 -61 24 -85t85 -24h480v-36h-487zM404 738l-121 -76h-39l138 103h45l138 -103h-39z" />
    <glyph glyph-name="Cdotaccent" unicode="&#x10a;" horiz-adv-x="832" 
d="M219 0q-74 0 -109.5 36t-35.5 109v410q0 73 35.5 109t109.5 36h561v-36h-555q-61 0 -86 -26t-25 -89v-398q0 -64 24.5 -89.5t86.5 -25.5h555v-36h-561zM484 819v-41h-73v41h73z" />
    <glyph glyph-name="cdotaccent" unicode="&#x10b;" horiz-adv-x="752" 
d="M211 0q-73 0 -107.5 34.5t-34.5 107.5v319q0 73 34.5 107.5t107.5 34.5h487v-36h-480q-61 0 -85 -24.5t-24 -84.5v-313q0 -61 24 -85t85 -24h480v-36h-487zM441 730v-41h-73v41h73z" />
    <glyph glyph-name="Ccaron" unicode="&#x10c;" horiz-adv-x="832" 
d="M219 0q-74 0 -109.5 36t-35.5 109v410q0 73 35.5 109t109.5 36h561v-36h-555q-61 0 -86 -26t-25 -89v-398q0 -64 24.5 -89.5t86.5 -25.5h555v-36h-561zM326 854l121 -76l122 76h39l-138 -103h-45l-138 103h39z" />
    <glyph glyph-name="ccaron" unicode="&#x10d;" horiz-adv-x="752" 
d="M211 0q-73 0 -107.5 34.5t-34.5 107.5v319q0 73 34.5 107.5t107.5 34.5h487v-36h-480q-61 0 -85 -24.5t-24 -84.5v-313q0 -61 24 -85t85 -24h480v-36h-487zM283 765l121 -76l122 76h39l-138 -103h-45l-138 103h39z" />
    <glyph glyph-name="Dcaron" unicode="&#x10e;" horiz-adv-x="931" 
d="M661 700q201 0 201 -201v-298q0 -201 -201 -201h-565v700h565zM654 36q84 0 126 41t42 128v290q0 87 -41.5 128t-126.5 41h-518v-628h518zM335 854l121 -76l122 76h39l-138 -103h-45l-138 103h39z" />
    <glyph glyph-name="dcaron" unicode="&#x10f;" horiz-adv-x="1001" 
d="M743 770v-628q0 -73 -34.5 -107.5t-107.5 -34.5h-390q-73 0 -107.5 34.5t-34.5 107.5v319q0 73 34.5 107.5t107.5 34.5h375q95 0 117 -64v231h40zM703 145v313q0 60 -24.5 84.5t-84.5 24.5h-376q-61 0 -85 -24.5t-24 -84.5v-313q0 -61 24 -85t85 -24h376q60 0 84.5 24
t24.5 85zM947 700v-47q0 -45 -14 -65t-49 -20h-7v17h8q17 0 24.5 11t7.5 40v17h-40v47h70z" />
    <glyph glyph-name="Dcroat" unicode="&#x110;" horiz-adv-x="931" 
d="M661 700q201 0 201 -201v-298q0 -201 -201 -201h-565v332h-76v36h76v332h565zM654 36q84 0 126 41t42 128v290q0 87 -41.5 128t-126.5 41h-518v-296h154v-36h-154v-296h518z" />
    <glyph glyph-name="dcroat" unicode="&#x111;" horiz-adv-x="823" 
d="M743 770v-78h80v-28h-80v-522q0 -73 -34.5 -107.5t-107.5 -34.5h-390q-73 0 -107.5 34.5t-34.5 107.5v319q0 73 34.5 107.5t107.5 34.5h375q95 0 117 -64v125h-151v28h151v78h40zM703 145v313q0 60 -24.5 84.5t-84.5 24.5h-376q-61 0 -85 -24.5t-24 -84.5v-313
q0 -61 24 -85t85 -24h376q60 0 84.5 24t24.5 85z" />
    <glyph glyph-name="Emacron" unicode="&#x112;" horiz-adv-x="889" 
d="M96 0v700h741v-36h-701v-296h607v-36h-607v-296h701v-36h-741zM599 786h-271v28h271v-28z" />
    <glyph glyph-name="emacron" unicode="&#x113;" horiz-adv-x="809" 
d="M757 412q0 -67 -30.5 -98t-95.5 -31h-522v-138q0 -61 24.5 -85t84.5 -24h509v-36h-516q-75 0 -108.5 36t-33.5 112v313q0 73 34.5 107.5t107.5 34.5h420q65 0 95.5 -31t30.5 -98v-62zM629 567h-411q-62 0 -85.5 -26t-23.5 -91v-131h520q47 0 67.5 20t20.5 68v70
q0 49 -20 69.5t-68 20.5zM557 697h-271v28h271v-28z" />
    <glyph glyph-name="Ebreve" unicode="&#x114;" horiz-adv-x="889" 
d="M96 0v700h741v-36h-701v-296h607v-36h-607v-296h701v-36h-741zM328 815v37q42 -65 135 -65q94 0 136 65v-37q-44 -61 -136 -61q-91 0 -135 61z" />
    <glyph glyph-name="ebreve" unicode="&#x115;" horiz-adv-x="809" 
d="M757 412q0 -67 -30.5 -98t-95.5 -31h-522v-138q0 -61 24.5 -85t84.5 -24h509v-36h-516q-75 0 -108.5 36t-33.5 112v313q0 73 34.5 107.5t107.5 34.5h420q65 0 95.5 -31t30.5 -98v-62zM629 567h-411q-62 0 -85.5 -26t-23.5 -91v-131h520q47 0 67.5 20t20.5 68v70
q0 49 -20 69.5t-68 20.5zM286 726v37q42 -65 135 -65q94 0 136 65v-37q-44 -61 -136 -61q-91 0 -135 61z" />
    <glyph glyph-name="Edotaccent" unicode="&#x116;" horiz-adv-x="889" 
d="M96 0v700h741v-36h-701v-296h607v-36h-607v-296h701v-36h-741zM500 819v-41h-73v41h73z" />
    <glyph glyph-name="edotaccent" unicode="&#x117;" horiz-adv-x="809" 
d="M757 412q0 -67 -30.5 -98t-95.5 -31h-522v-138q0 -61 24.5 -85t84.5 -24h509v-36h-516q-75 0 -108.5 36t-33.5 112v313q0 73 34.5 107.5t107.5 34.5h420q65 0 95.5 -31t30.5 -98v-62zM629 567h-411q-62 0 -85.5 -26t-23.5 -91v-131h520q47 0 67.5 20t20.5 68v70
q0 49 -20 69.5t-68 20.5zM458 730v-41h-73v41h73z" />
    <glyph glyph-name="Eogonek" unicode="&#x118;" horiz-adv-x="889" 
d="M806 -63h-19q-115 0 -156.5 -8t-41.5 -30q0 -19 47 -19h201v-33h-201q-70 0 -70 44q0 38 44 51.5t166 13.5h11v44h-691v700h741v-36h-701v-296h607v-36h-607v-296h701v-36h-31v-63z" />
    <glyph glyph-name="eogonek" unicode="&#x119;" horiz-adv-x="809" 
d="M629 567h-411q-62 0 -85.5 -26t-23.5 -91v-131h520q47 0 67.5 20t20.5 68v70q0 49 -20 69.5t-68 20.5zM688 -44v44h-477q-75 0 -108.5 36t-33.5 112v313q0 73 34.5 107.5t107.5 34.5h420q65 0 95.5 -31t30.5 -98v-62q0 -67 -30.5 -98t-95.5 -31h-522v-138q0 -61 24.5 -85
t84.5 -24h509v-36h-20v-63h-30q-115 0 -156.5 -8t-41.5 -30q0 -19 47 -19h201v-33h-201q-70 0 -70 44q0 38 44 51.5t166 13.5h22z" />
    <glyph glyph-name="Ecaron" unicode="&#x11a;" horiz-adv-x="889" 
d="M96 0v700h741v-36h-701v-296h607v-36h-607v-296h701v-36h-741zM342 854l121 -76l122 76h39l-138 -103h-45l-138 103h39z" />
    <glyph glyph-name="ecaron" unicode="&#x11b;" horiz-adv-x="809" 
d="M757 412q0 -67 -30.5 -98t-95.5 -31h-522v-138q0 -61 24.5 -85t84.5 -24h509v-36h-516q-75 0 -108.5 36t-33.5 112v313q0 73 34.5 107.5t107.5 34.5h420q65 0 95.5 -31t30.5 -98v-62zM629 567h-411q-62 0 -85.5 -26t-23.5 -91v-131h520q47 0 67.5 20t20.5 68v70
q0 49 -20 69.5t-68 20.5zM300 765l121 -76l122 76h39l-138 -103h-45l-138 103h39z" />
    <glyph glyph-name="Gcircumflex" unicode="&#x11c;" horiz-adv-x="909" 
d="M701 36q60 0 81 21t21 82v193h-383v36h423v-233q0 -72 -31 -103.5t-104 -31.5h-489q-74 0 -109.5 36t-35.5 109v410q0 73 35.5 109t109.5 36h599v-36h-593q-61 0 -86 -26t-25 -89v-398q0 -64 24.5 -89.5t86.5 -25.5h476zM465 827l-121 -76h-39l138 103h45l138 -103h-39z
" />
    <glyph glyph-name="gcircumflex" unicode="&#x11d;" horiz-adv-x="823" 
d="M594 41q60 0 84.5 24t24.5 84v309q0 60 -24.5 84.5t-84.5 24.5h-376q-61 0 -85 -24.5t-24 -84.5v-309q0 -60 24 -84t85 -24h376zM586 5h-375q-73 0 -107.5 34.5t-34.5 107.5v314q0 73 34.5 107.5t107.5 34.5h390q73 0 107.5 -34.5t34.5 -107.5v-448q0 -92 -44 -136
t-136 -44h-454v36h450q75 0 109.5 33t34.5 111v55q-22 -63 -117 -63zM410 738l-121 -76h-39l138 103h45l138 -103h-39z" />
    <glyph glyph-name="Gbreve" unicode="&#x11e;" horiz-adv-x="909" 
d="M701 36q60 0 81 21t21 82v193h-383v36h423v-233q0 -72 -31 -103.5t-104 -31.5h-489q-74 0 -109.5 36t-35.5 109v410q0 73 35.5 109t109.5 36h599v-36h-593q-61 0 -86 -26t-25 -89v-398q0 -64 24.5 -89.5t86.5 -25.5h476zM330 815v37q42 -65 135 -65q94 0 136 65v-37
q-44 -61 -136 -61q-91 0 -135 61z" />
    <glyph glyph-name="gbreve" unicode="&#x11f;" horiz-adv-x="823" 
d="M594 41q60 0 84.5 24t24.5 84v309q0 60 -24.5 84.5t-84.5 24.5h-376q-61 0 -85 -24.5t-24 -84.5v-309q0 -60 24 -84t85 -24h376zM586 5h-375q-73 0 -107.5 34.5t-34.5 107.5v314q0 73 34.5 107.5t107.5 34.5h390q73 0 107.5 -34.5t34.5 -107.5v-448q0 -92 -44 -136
t-136 -44h-454v36h450q75 0 109.5 33t34.5 111v55q-22 -63 -117 -63zM275 726v37q42 -65 135 -65q94 0 136 65v-37q-44 -61 -136 -61q-91 0 -135 61z" />
    <glyph glyph-name="Gdotaccent" unicode="&#x120;" horiz-adv-x="909" 
d="M701 36q60 0 81 21t21 82v193h-383v36h423v-233q0 -72 -31 -103.5t-104 -31.5h-489q-74 0 -109.5 36t-35.5 109v410q0 73 35.5 109t109.5 36h599v-36h-593q-61 0 -86 -26t-25 -89v-398q0 -64 24.5 -89.5t86.5 -25.5h476zM502 819v-41h-73v41h73z" />
    <glyph glyph-name="gdotaccent" unicode="&#x121;" horiz-adv-x="823" 
d="M594 41q60 0 84.5 24t24.5 84v309q0 60 -24.5 84.5t-84.5 24.5h-376q-61 0 -85 -24.5t-24 -84.5v-309q0 -60 24 -84t85 -24h376zM586 5h-375q-73 0 -107.5 34.5t-34.5 107.5v314q0 73 34.5 107.5t107.5 34.5h390q73 0 107.5 -34.5t34.5 -107.5v-448q0 -92 -44 -136
t-136 -44h-454v36h450q75 0 109.5 33t34.5 111v55q-22 -63 -117 -63zM447 730v-41h-73v41h73z" />
    <glyph glyph-name="uni0122" unicode="&#x122;" horiz-adv-x="909" 
d="M701 36q60 0 81 21t21 82v193h-383v36h423v-233q0 -72 -31 -103.5t-104 -31.5h-489q-74 0 -109.5 36t-35.5 109v410q0 73 35.5 109t109.5 36h599v-36h-593q-61 0 -86 -26t-25 -89v-398q0 -64 24.5 -89.5t86.5 -25.5h476zM499 -88v-38q0 -68 -57 -68h-9v21h11q26 0 26 34
v13h-39v38h68z" />
    <glyph glyph-name="uni0123" unicode="&#x123;" horiz-adv-x="823" 
d="M378 689v38q0 68 57 68h9v-21h-11q-26 0 -26 -34v-13h39v-38h-68zM594 41q60 0 84.5 24t24.5 84v309q0 60 -24.5 84.5t-84.5 24.5h-376q-61 0 -85 -24.5t-24 -84.5v-309q0 -60 24 -84t85 -24h376zM586 5h-375q-73 0 -107.5 34.5t-34.5 107.5v314q0 73 34.5 107.5
t107.5 34.5h390q73 0 107.5 -34.5t34.5 -107.5v-448q0 -92 -44 -136t-136 -44h-454v36h450q75 0 109.5 33t34.5 111v55q-22 -63 -117 -63z" />
    <glyph glyph-name="Hcircumflex" unicode="&#x124;" horiz-adv-x="975" 
d="M839 0v332h-703v-332h-40v700h40v-332h703v332h40v-700h-40zM486 827l-121 -76h-39l138 103h45l138 -103h-39z" />
    <glyph glyph-name="hcircumflex" unicode="&#x125;" horiz-adv-x="843" 
d="M724 458q0 60 -24.5 84.5t-84.5 24.5h-375q-61 0 -85 -24.5t-24 -84.5v-458h-40v770h40v-231q22 64 117 64h374q73 0 107.5 -34.5t34.5 -107.5v-461h-40v458zM432 738l-121 -76h-39l138 103h45l138 -103h-39z" />
    <glyph glyph-name="Hbar" unicode="&#x126;" horiz-adv-x="975" 
d="M839 0v332h-703v-332h-40v506h-39v36h39v158h40v-158h703v158h40v-158h38v-36h-38v-506h-40zM136 368h703v138h-703v-138z" />
    <glyph glyph-name="hbar" unicode="&#x127;" horiz-adv-x="843" 
d="M724 458q0 60 -24.5 84.5t-84.5 24.5h-375q-61 0 -85 -24.5t-24 -84.5v-458h-40v664h-91v28h91v78h40v-78h139v-28h-139v-125q22 64 117 64h374q73 0 107.5 -34.5t34.5 -107.5v-461h-40v458z" />
    <glyph glyph-name="Itilde" unicode="&#x128;" horiz-adv-x="232" 
d="M96 0v700h40v-700h-40zM-20 760v34q37 40 74 40q23 0 64 -22.5t63 -22.5q36 0 70 41v-33q-37 -40 -75 -40q-23 0 -64 22t-63 22q-35 0 -69 -41z" />
    <glyph glyph-name="itilde" unicode="&#x129;" horiz-adv-x="304" 
d="M-34 671v34q37 40 74 40q23 0 64 -22.5t63 -22.5q36 0 70 41v-33q-37 -40 -75 -40q-23 0 -64 22t-63 22q-35 0 -69 -41zM221 36h57v-36h-63q-72 0 -102.5 30.5t-30.5 101.5v471h40v-468q0 -59 20 -79t79 -20z" />
    <glyph glyph-name="Imacron" unicode="&#x12a;" horiz-adv-x="232" 
d="M238 787h-245v25h245v-25zM96 0v700h40v-700h-40z" />
    <glyph glyph-name="imacron" unicode="&#x12b;" horiz-adv-x="304" 
d="M224 698h-245v25h245v-25zM221 36h57v-36h-63q-72 0 -102.5 30.5t-30.5 101.5v471h40v-468q0 -59 20 -79t79 -20z" />
    <glyph glyph-name="Ibreve" unicode="&#x12c;" horiz-adv-x="232" 
d="M96 0v700h40v-700h-40zM-20 815v37q42 -65 135 -65q94 0 136 65v-37q-44 -61 -136 -61q-91 0 -135 61z" />
    <glyph glyph-name="ibreve" unicode="&#x12d;" horiz-adv-x="304" 
d="M-34 726v37q42 -65 135 -65q94 0 136 65v-37q-44 -61 -136 -61q-91 0 -135 61zM221 36h57v-36h-63q-72 0 -102.5 30.5t-30.5 101.5v471h40v-468q0 -59 20 -79t79 -20z" />
    <glyph glyph-name="Iogonek" unicode="&#x12e;" horiz-adv-x="232" 
d="M96 0v700h40v-700h-6v-63h-18q-128 0 -128 -38q0 -11 10.5 -15t36.5 -4h120v-33h-121q-69 0 -69 44q0 65 151 65v44h-16z" />
    <glyph glyph-name="iogonek" unicode="&#x12f;" horiz-adv-x="304" 
d="M257 -63h-18q-96 0 -134 -8.5t-38 -29.5q0 -19 47 -19h164v-33h-165q-69 0 -69 44q0 38 43 51.5t152 13.5v44h-24q-72 0 -102.5 30.5t-30.5 101.5v471h40v-468q0 -59 20 -79t79 -20h57v-36h-21v-63zM138 730v-41h-73v41h73z" />
    <glyph glyph-name="Idotaccent" unicode="&#x130;" horiz-adv-x="232" 
d="M96 0v700h40v-700h-40zM152 819v-41h-73v41h73z" />
    <glyph glyph-name="dotlessi" unicode="&#x131;" horiz-adv-x="304" 
d="M221 36h57v-36h-63q-72 0 -102.5 30.5t-30.5 101.5v471h40v-468q0 -59 20 -79t79 -20z" />
    <glyph glyph-name="IJ" unicode="&#x132;" horiz-adv-x="1128" 
d="M96 0v700h40v-700h-40zM285 135v207h40v-203q0 -61 20.5 -82t80.5 -21h467q61 0 86 25.5t25 89.5v549h40v-555q0 -145 -145 -145h-479q-73 0 -104 31.5t-31 103.5z" />
    <glyph glyph-name="Jcircumflex" unicode="&#x134;" 
d="M53 135v207h40v-203q0 -61 20.5 -82t80.5 -21h467q61 0 86 25.5t25 89.5v549h40v-555q0 -145 -145 -145h-479q-73 0 -104 31.5t-31 103.5zM750 827l-121 -76h-39l138 103h45l138 -103h-39z" />
    <glyph glyph-name="jcircumflex" unicode="&#x135;" horiz-adv-x="236" 
d="M-30 -131h36q60 0 79.5 19.5t19.5 79.5v635h40v-638q0 -73 -29.5 -102.5t-103.5 -29.5h-42v36zM124 738l-121 -76h-39l138 103h45l138 -103h-39z" />
    <glyph glyph-name="uni0136" unicode="&#x136;" horiz-adv-x="939" 
d="M862 700v-217q0 -60 -23.5 -93t-81.5 -40q58 -8 81.5 -40.5t23.5 -92.5v-217h-40v218q0 61 -23.5 87.5t-82.5 26.5h-580v-332h-40v700h40v-332h580q59 0 82.5 26.5t23.5 87.5v218h40zM503 -88v-38q0 -68 -57 -68h-9v21h11q26 0 26 34v13h-39v38h68z" />
    <glyph glyph-name="uni0137" unicode="&#x137;" horiz-adv-x="829" 
d="M722 391v212h40v-186q0 -55 -18 -82.5t-61 -33.5q43 -6 61 -34t18 -83v-184h-40v211q0 38 -17.5 55t-55.5 17h-518v-283h-40v770h40v-451h518q38 0 55.5 17t17.5 55zM463 -88v-38q0 -68 -57 -68h-9v21h11q26 0 26 34v13h-39v38h68z" />
    <glyph glyph-name="kgreenlandic" unicode="&#x138;" horiz-adv-x="829" 
d="M722 391v212h40v-186q0 -55 -18 -82.5t-61 -33.5q43 -6 61 -34t18 -83v-184h-40v211q0 38 -17.5 55t-55.5 17h-518v-283h-40v603h40v-284h518q38 0 55.5 17t17.5 55z" />
    <glyph glyph-name="Lacute" unicode="&#x139;" horiz-adv-x="849" 
d="M827 36v-36h-731v700h40v-664h691zM293 854l-151 -103h-42l129 103h64z" />
    <glyph glyph-name="lacute" unicode="&#x13a;" horiz-adv-x="302" 
d="M219 36h57v-36h-63q-72 0 -102.5 30.5t-30.5 101.5v638h40v-635q0 -59 20 -79t79 -20zM243 932l-151 -103h-42l129 103h64z" />
    <glyph glyph-name="uni013B" unicode="&#x13b;" horiz-adv-x="849" 
d="M827 36v-36h-731v700h40v-664h691zM477 -88v-38q0 -68 -57 -68h-9v21h11q26 0 26 34v13h-39v38h68z" />
    <glyph glyph-name="uni013C" unicode="&#x13c;" horiz-adv-x="302" 
d="M219 36h57v-36h-63q-72 0 -102.5 30.5t-30.5 101.5v638h40v-635q0 -59 20 -79t79 -20zM184 -88v-38q0 -68 -57 -68h-9v21h11q26 0 26 34v13h-39v38h68z" />
    <glyph glyph-name="Lcaron" unicode="&#x13d;" horiz-adv-x="849" 
d="M827 36v-36h-731v700h40v-664h691zM737 700v-47q0 -45 -14 -65t-49 -20h-7v17h8q17 0 24.5 11t7.5 40v17h-40v47h70z" />
    <glyph glyph-name="lcaron" unicode="&#x13e;" horiz-adv-x="405" 
d="M219 36h57v-36h-63q-72 0 -102.5 30.5t-30.5 101.5v638h40v-635q0 -59 20 -79t79 -20zM351 700v-47q0 -45 -14 -65t-49 -20h-7v17h8q17 0 24.5 11t7.5 40v17h-40v47h70z" />
    <glyph glyph-name="Ldot" unicode="&#x13f;" horiz-adv-x="849" 
d="M827 36v-36h-731v700h40v-664h691zM560 375v-51h-70v51h70z" />
    <glyph glyph-name="ldot" unicode="&#x140;" horiz-adv-x="468" 
d="M219 36h57v-36h-63q-72 0 -102.5 30.5t-30.5 101.5v638h40v-635q0 -59 20 -79t79 -20zM363 375v-51h-70v51h70z" />
    <glyph glyph-name="Lslash" unicode="&#x141;" horiz-adv-x="849" 
d="M827 36v-36h-731v250l-76 -41v36l76 41v414h40v-392l271 149v-36l-271 -149v-236h691z" />
    <glyph glyph-name="lslash" unicode="&#x142;" horiz-adv-x="302" 
d="M219 36h57v-36h-63q-72 0 -102.5 30.5t-30.5 101.5v213l-60 -36v36l60 36v389h40v-365l162 98v-36l-162 -98v-234q0 -59 20 -79t79 -20z" />
    <glyph glyph-name="Nacute" unicode="&#x143;" horiz-adv-x="936" 
d="M236 664q-61 0 -86 -26t-25 -89v-549h-40v555q0 73 35.5 109t109.5 36h476q145 0 145 -145v-555h-40v549q0 63 -25 89t-86 26h-464zM602 854l-151 -103h-42l129 103h64z" />
    <glyph glyph-name="nacute" unicode="&#x144;" horiz-adv-x="831" 
d="M80 0v461q0 73 34.5 107.5t107.5 34.5h387q73 0 107.5 -34.5t34.5 -107.5v-461h-40v458q0 60 -24.5 84.5t-84.5 24.5h-373q-61 0 -85 -24.5t-24 -84.5v-458h-40zM549 765l-151 -103h-42l129 103h64z" />
    <glyph glyph-name="uni0145" unicode="&#x145;" horiz-adv-x="936" 
d="M236 664q-61 0 -86 -26t-25 -89v-549h-40v555q0 73 35.5 109t109.5 36h476q145 0 145 -145v-555h-40v549q0 63 -25 89t-86 26h-464zM501 -88v-38q0 -68 -57 -68h-9v21h11q26 0 26 34v13h-39v38h68z" />
    <glyph glyph-name="uni0146" unicode="&#x146;" horiz-adv-x="831" 
d="M80 0v461q0 73 34.5 107.5t107.5 34.5h387q73 0 107.5 -34.5t34.5 -107.5v-461h-40v458q0 60 -24.5 84.5t-84.5 24.5h-373q-61 0 -85 -24.5t-24 -84.5v-458h-40zM449 -88v-38q0 -68 -57 -68h-9v21h11q26 0 26 34v13h-39v38h68z" />
    <glyph glyph-name="Ncaron" unicode="&#x147;" horiz-adv-x="936" 
d="M236 664q-61 0 -86 -26t-25 -89v-549h-40v555q0 73 35.5 109t109.5 36h476q145 0 145 -145v-555h-40v549q0 63 -25 89t-86 26h-464zM346 854l121 -76l122 76h39l-138 -103h-45l-138 103h39z" />
    <glyph glyph-name="ncaron" unicode="&#x148;" horiz-adv-x="831" 
d="M80 0v461q0 73 34.5 107.5t107.5 34.5h387q73 0 107.5 -34.5t34.5 -107.5v-461h-40v458q0 60 -24.5 84.5t-84.5 24.5h-373q-61 0 -85 -24.5t-24 -84.5v-458h-40zM294 765l121 -76l122 76h39l-138 -103h-45l-138 103h39z" />
    <glyph glyph-name="napostrophe" unicode="&#x149;" horiz-adv-x="939" 
d="M188 0v461q0 73 34.5 107.5t107.5 34.5h387q73 0 107.5 -34.5t34.5 -107.5v-461h-40v458q0 60 -24.5 84.5t-84.5 24.5h-373q-61 0 -85 -24.5t-24 -84.5v-458h-40zM124 700v-47q0 -45 -14 -65t-49 -20h-7v17h8q17 0 24.5 11t7.5 40v17h-40v47h70z" />
    <glyph glyph-name="Eng" unicode="&#x14a;" horiz-adv-x="936" 
d="M236 664q-61 0 -86 -26t-25 -89v-549h-40v555q0 73 35.5 109t109.5 36h476q145 0 145 -145v-577q0 -145 -145 -145h-172v36h166q61 0 86 25.5t25 89.5v565q0 63 -25 89t-86 26h-464z" />
    <glyph glyph-name="eng" unicode="&#x14b;" horiz-adv-x="831" 
d="M576 -131h36q60 0 79.5 19.5t19.5 79.5v490q0 60 -24.5 84.5t-84.5 24.5h-373q-61 0 -85 -24.5t-24 -84.5v-458h-40v461q0 73 34.5 107.5t107.5 34.5h387q73 0 107.5 -34.5t34.5 -107.5v-496q0 -73 -29.5 -102.5t-103.5 -29.5h-42v36z" />
    <glyph glyph-name="Omacron" unicode="&#x14c;" horiz-adv-x="917" 
d="M219 0q-74 0 -109.5 36t-35.5 109v410q0 73 35.5 109t109.5 36h479q145 0 145 -145v-410q0 -145 -145 -145h-479zM803 151v398q0 63 -25 89t-86 26h-467q-61 0 -86 -26t-25 -89v-398q0 -64 24.5 -89.5t86.5 -25.5h467q61 0 86 25.5t25 89.5zM593 786h-271v28h271v-28z
" />
    <glyph glyph-name="omacron" unicode="&#x14d;" horiz-adv-x="810" 
d="M599 603q73 0 107.5 -34.5t34.5 -107.5v-319q0 -73 -34.5 -107.5t-107.5 -34.5h-388q-73 0 -107.5 34.5t-34.5 107.5v319q0 73 34.5 107.5t107.5 34.5h388zM592 36q61 0 85 24t24 85v313q0 60 -24 84.5t-85 24.5h-374q-61 0 -85 -24.5t-24 -84.5v-313q0 -61 24 -85
t85 -24h374zM540 697h-271v28h271v-28z" />
    <glyph glyph-name="Obreve" unicode="&#x14e;" horiz-adv-x="917" 
d="M219 0q-74 0 -109.5 36t-35.5 109v410q0 73 35.5 109t109.5 36h479q145 0 145 -145v-410q0 -145 -145 -145h-479zM803 151v398q0 63 -25 89t-86 26h-467q-61 0 -86 -26t-25 -89v-398q0 -64 24.5 -89.5t86.5 -25.5h467q61 0 86 25.5t25 89.5zM322 815v37q42 -65 135 -65
q94 0 136 65v-37q-44 -61 -136 -61q-91 0 -135 61z" />
    <glyph glyph-name="obreve" unicode="&#x14f;" horiz-adv-x="810" 
d="M599 603q73 0 107.5 -34.5t34.5 -107.5v-319q0 -73 -34.5 -107.5t-107.5 -34.5h-388q-73 0 -107.5 34.5t-34.5 107.5v319q0 73 34.5 107.5t107.5 34.5h388zM592 36q61 0 85 24t24 85v313q0 60 -24 84.5t-85 24.5h-374q-61 0 -85 -24.5t-24 -84.5v-313q0 -61 24 -85
t85 -24h374zM269 726v37q42 -65 135 -65q94 0 136 65v-37q-44 -61 -136 -61q-91 0 -135 61z" />
    <glyph glyph-name="Ohungarumlaut" unicode="&#x150;" horiz-adv-x="917" 
d="M219 0q-74 0 -109.5 36t-35.5 109v410q0 73 35.5 109t109.5 36h479q145 0 145 -145v-410q0 -145 -145 -145h-479zM803 151v398q0 63 -25 89t-86 26h-467q-61 0 -86 -26t-25 -89v-398q0 -64 24.5 -89.5t86.5 -25.5h467q61 0 86 25.5t25 89.5zM675 854l-151 -103h-42
l129 103h64zM495 854l-151 -103h-42l129 103h64z" />
    <glyph glyph-name="ohungarumlaut" unicode="&#x151;" horiz-adv-x="810" 
d="M599 603q73 0 107.5 -34.5t34.5 -107.5v-319q0 -73 -34.5 -107.5t-107.5 -34.5h-388q-73 0 -107.5 34.5t-34.5 107.5v319q0 73 34.5 107.5t107.5 34.5h388zM592 36q61 0 85 24t24 85v313q0 60 -24 84.5t-85 24.5h-374q-61 0 -85 -24.5t-24 -84.5v-313q0 -61 24 -85
t85 -24h374zM630 765l-151 -103h-42l129 103h64zM450 765l-151 -103h-42l129 103h64z" />
    <glyph glyph-name="OE" unicode="&#x152;" horiz-adv-x="1400" 
d="M219 0q-74 0 -109.5 36t-35.5 109v410q0 73 35.5 109t109.5 36h1129v-36h-606v-296h512v-36h-512v-296h606v-36h-1129zM702 36v628h-477q-61 0 -86 -26t-25 -89v-398q0 -64 24.5 -89.5t86.5 -25.5h477z" />
    <glyph glyph-name="oe" unicode="&#x153;" horiz-adv-x="1217" 
d="M596 142v319q0 58 -24 82t-82 24h-272q-61 0 -85 -24.5t-24 -84.5v-313q0 -61 24 -85t85 -24h272q58 0 82 24t24 82zM1125 407v71q0 49 -20 69t-68 20h-295q-58 0 -82 -24t-24 -82v-142h401q48 0 68 20t20 68zM636 283v-141q0 -58 24 -82t82 -24h393v-36h-377
q-68 0 -101 22t-41 75q-8 -53 -41 -75t-101 -22h-263q-73 0 -107.5 34.5t-34.5 107.5v319q0 73 34.5 107.5t107.5 34.5h263q68 0 101 -22t41 -75q8 53 41 75t101 22h281q65 0 95.5 -31t30.5 -98v-62q0 -67 -30.5 -98t-95.5 -31h-403z" />
    <glyph glyph-name="Racute" unicode="&#x154;" horiz-adv-x="937" 
d="M862 559v-79q0 -59 -23.5 -91t-79.5 -40q56 -8 79.5 -40.5t23.5 -91.5v-217h-40v218q0 61 -23.5 87.5t-82.5 26.5h-580v-332h-40v700h625q73 0 107 -34t34 -107zM716 368q60 0 83 25.5t23 85.5v75q0 58 -24.5 84t-80.5 26h-581v-296h580zM603 854l-151 -103h-42l129 103
h64z" />
    <glyph glyph-name="racute" unicode="&#x155;" horiz-adv-x="650" 
d="M623 603v-36h-394q-61 0 -85 -24.5t-24 -84.5v-458h-40v461q0 73 34.5 107.5t107.5 34.5h401zM504 765l-151 -103h-42l129 103h64z" />
    <glyph glyph-name="uni0156" unicode="&#x156;" horiz-adv-x="937" 
d="M862 559v-79q0 -59 -23.5 -91t-79.5 -40q56 -8 79.5 -40.5t23.5 -91.5v-217h-40v218q0 61 -23.5 87.5t-82.5 26.5h-580v-332h-40v700h625q73 0 107 -34t34 -107zM716 368q60 0 83 25.5t23 85.5v75q0 58 -24.5 84t-80.5 26h-581v-296h580zM519 -88v-38q0 -68 -57 -68h-9
v21h11q26 0 26 34v13h-39v38h68z" />
    <glyph glyph-name="uni0157" unicode="&#x157;" horiz-adv-x="650" 
d="M623 603v-36h-394q-61 0 -85 -24.5t-24 -84.5v-458h-40v461q0 73 34.5 107.5t107.5 34.5h401zM134 -88v-38q0 -68 -57 -68h-9v21h11q26 0 26 34v13h-39v38h68z" />
    <glyph glyph-name="Rcaron" unicode="&#x158;" horiz-adv-x="937" 
d="M862 559v-79q0 -59 -23.5 -91t-79.5 -40q56 -8 79.5 -40.5t23.5 -91.5v-217h-40v218q0 61 -23.5 87.5t-82.5 26.5h-580v-332h-40v700h625q73 0 107 -34t34 -107zM716 368q60 0 83 25.5t23 85.5v75q0 58 -24.5 84t-80.5 26h-581v-296h580zM347 854l121 -76l122 76h39
l-138 -103h-45l-138 103h39z" />
    <glyph glyph-name="rcaron" unicode="&#x159;" horiz-adv-x="650" 
d="M623 603v-36h-394q-61 0 -85 -24.5t-24 -84.5v-458h-40v461q0 73 34.5 107.5t107.5 34.5h401zM248 765l121 -76l122 76h39l-138 -103h-45l-138 103h39z" />
    <glyph glyph-name="Sacute" unicode="&#x15a;" horiz-adv-x="862" 
d="M204 332q-74 0 -107.5 34t-33.5 107v86q0 73 33.5 107t107.5 34h575v-36h-572q-55 0 -79.5 -25.5t-24.5 -84.5v-76q0 -59 24 -84.5t80 -25.5h457q73 0 107 -34t34 -107v-86q0 -73 -34 -107t-107 -34h-608v36h604q56 0 80.5 25.5t24.5 84.5v76q0 58 -24.5 84t-80.5 26
h-456zM565 854l-151 -103h-42l129 103h64z" />
    <glyph glyph-name="sacute" unicode="&#x15b;" horiz-adv-x="772" 
d="M690 567h-506q-48 0 -68 -20t-20 -69v-71q0 -48 20 -68t68 -20h410q65 0 95.5 -31t30.5 -98v-61q0 -67 -30.5 -98t-95.5 -31h-538v36h535q49 0 69 20t20 68v70q0 49 -20 69t-69 20h-409q-65 0 -95.5 31t-30.5 98v62q0 67 30.5 98t95.5 31h508v-36zM520 765l-151 -103h-42
l129 103h64z" />
    <glyph glyph-name="Scircumflex" unicode="&#x15c;" horiz-adv-x="862" 
d="M204 332q-74 0 -107.5 34t-33.5 107v86q0 73 33.5 107t107.5 34h575v-36h-572q-55 0 -79.5 -25.5t-24.5 -84.5v-76q0 -59 24 -84.5t80 -25.5h457q73 0 107 -34t34 -107v-86q0 -73 -34 -107t-107 -34h-608v36h604q56 0 80.5 25.5t24.5 84.5v76q0 58 -24.5 84t-80.5 26
h-456zM430 827l-121 -76h-39l138 103h45l138 -103h-39z" />
    <glyph glyph-name="scircumflex" unicode="&#x15d;" horiz-adv-x="772" 
d="M690 567h-506q-48 0 -68 -20t-20 -69v-71q0 -48 20 -68t68 -20h410q65 0 95.5 -31t30.5 -98v-61q0 -67 -30.5 -98t-95.5 -31h-538v36h535q49 0 69 20t20 68v70q0 49 -20 69t-69 20h-409q-65 0 -95.5 31t-30.5 98v62q0 67 30.5 98t95.5 31h508v-36zM385 738l-121 -76h-39
l138 103h45l138 -103h-39z" />
    <glyph glyph-name="Scedilla" unicode="&#x15e;" horiz-adv-x="862" 
d="M440 0l-13 -45h74q34 0 51.5 -9.5t17.5 -36.5q0 -62 -104 -62h-172v33h173q38 0 55 7t17 26q0 15 -8.5 21t-31.5 6h-94l19 60h-368v36h604q56 0 80.5 25.5t24.5 84.5v76q0 58 -24.5 84t-80.5 26h-456q-74 0 -107.5 34t-33.5 107v86q0 73 33.5 107t107.5 34h575v-36h-572
q-55 0 -79.5 -25.5t-24.5 -84.5v-76q0 -59 24 -84.5t80 -25.5h457q73 0 107 -34t34 -107v-86q0 -73 -34 -107t-107 -34h-224z" />
    <glyph glyph-name="scedilla" unicode="&#x15f;" horiz-adv-x="772" 
d="M388 0l-13 -45h74q34 0 51.5 -9.5t17.5 -36.5q0 -62 -104 -62h-172v33h173q38 0 55 7t17 26q0 15 -8.5 21t-31.5 6h-94l19 60h-316v36h535q49 0 69 20t20 68v70q0 49 -20 69t-69 20h-409q-65 0 -95.5 31t-30.5 98v62q0 67 30.5 98t95.5 31h508v-36h-506q-48 0 -68 -20
t-20 -69v-71q0 -48 20 -68t68 -20h410q65 0 95.5 -31t30.5 -98v-61q0 -67 -30.5 -98t-95.5 -31h-206z" />
    <glyph glyph-name="Scaron" unicode="&#x160;" horiz-adv-x="862" 
d="M204 332q-74 0 -107.5 34t-33.5 107v86q0 73 33.5 107t107.5 34h575v-36h-572q-55 0 -79.5 -25.5t-24.5 -84.5v-76q0 -59 24 -84.5t80 -25.5h457q73 0 107 -34t34 -107v-86q0 -73 -34 -107t-107 -34h-608v36h604q56 0 80.5 25.5t24.5 84.5v76q0 58 -24.5 84t-80.5 26
h-456zM309 854l121 -76l122 76h39l-138 -103h-45l-138 103h39z" />
    <glyph glyph-name="scaron" unicode="&#x161;" horiz-adv-x="772" 
d="M690 567h-506q-48 0 -68 -20t-20 -69v-71q0 -48 20 -68t68 -20h410q65 0 95.5 -31t30.5 -98v-61q0 -67 -30.5 -98t-95.5 -31h-538v36h535q49 0 69 20t20 68v70q0 49 -20 69t-69 20h-409q-65 0 -95.5 31t-30.5 98v62q0 67 30.5 98t95.5 31h508v-36zM264 765l121 -76
l122 76h39l-138 -103h-45l-138 103h39z" />
    <glyph glyph-name="uni0162" unicode="&#x162;" horiz-adv-x="813" 
d="M416 0l-13 -45h74q34 0 51.5 -9.5t17.5 -36.5q0 -62 -104 -62h-172v33h173q38 0 55 7t17 26q0 15 -8.5 21t-31.5 6h-94l19 60h-13v664h-365v36h769v-36h-364v-664h-11z" />
    <glyph glyph-name="uni0163" unicode="&#x163;" horiz-adv-x="686" 
d="M351 0l-13 -45h74q34 0 51.5 -9.5t17.5 -36.5q0 -62 -104 -62h-172v33h173q38 0 55 7t17 26q0 15 -8.5 21t-31.5 6h-94l19 60h-113q-73 0 -107.5 34.5t-34.5 107.5v628h40v-167h512v-36h-512v-422q0 -61 24 -85t85 -24h403v-36h-281z" />
    <glyph glyph-name="Tcaron" unicode="&#x164;" horiz-adv-x="813" 
d="M791 700v-36h-364v-664h-40v664h-365v36h769zM284 854l121 -76l122 76h39l-138 -103h-45l-138 103h39z" />
    <glyph glyph-name="tcaron" unicode="&#x165;" horiz-adv-x="877" 
d="M222 0q-73 0 -107.5 34.5t-34.5 107.5v628h40v-167h512v-36h-512v-422q0 -61 24 -85t85 -24h403v-36h-410zM823 700v-47q0 -45 -14 -65t-49 -20h-7v17h8q17 0 24.5 11t7.5 40v17h-40v47h70z" />
    <glyph glyph-name="Tbar" unicode="&#x166;" horiz-adv-x="813" 
d="M791 700v-36h-364v-199h114v-36h-114v-429h-40v429h-116v36h116v199h-365v36h769z" />
    <glyph glyph-name="tbar" unicode="&#x167;" horiz-adv-x="686" 
d="M222 0q-73 0 -107.5 34.5t-34.5 107.5v261h-80v36h80v331h40v-167h512v-36h-512v-128h189v-36h-189v-258q0 -61 24 -85t85 -24h403v-36h-410z" />
    <glyph glyph-name="Utilde" unicode="&#x168;" horiz-adv-x="936" 
d="M230 0q-74 0 -109.5 36t-35.5 109v555h40v-549q0 -64 24.5 -89.5t86.5 -25.5h464q61 0 86 25.5t25 89.5v549h40v-555q0 -145 -145 -145h-476zM332 760v34q37 40 74 40q23 0 64 -22.5t63 -22.5q36 0 70 41v-33q-37 -40 -75 -40q-23 0 -64 22t-63 22q-35 0 -69 -41z" />
    <glyph glyph-name="utilde" unicode="&#x169;" horiz-adv-x="831" 
d="M602 36q60 0 84.5 24t24.5 85v458h40v-461q0 -73 -34.5 -107.5t-107.5 -34.5h-387q-73 0 -107.5 34.5t-34.5 107.5v461h40v-458q0 -61 24 -85t85 -24h373zM280 671v34q37 40 74 40q23 0 64 -22.5t63 -22.5q36 0 70 41v-33q-37 -40 -75 -40q-23 0 -64 22t-63 22
q-35 0 -69 -41z" />
    <glyph glyph-name="Umacron" unicode="&#x16a;" horiz-adv-x="936" 
d="M230 0q-74 0 -109.5 36t-35.5 109v555h40v-549q0 -64 24.5 -89.5t86.5 -25.5h464q61 0 86 25.5t25 89.5v549h40v-555q0 -145 -145 -145h-476zM603 786h-271v28h271v-28z" />
    <glyph glyph-name="umacron" unicode="&#x16b;" horiz-adv-x="831" 
d="M602 36q60 0 84.5 24t24.5 85v458h40v-461q0 -73 -34.5 -107.5t-107.5 -34.5h-387q-73 0 -107.5 34.5t-34.5 107.5v461h40v-458q0 -61 24 -85t85 -24h373zM551 697h-271v28h271v-28z" />
    <glyph glyph-name="Ubreve" unicode="&#x16c;" horiz-adv-x="936" 
d="M230 0q-74 0 -109.5 36t-35.5 109v555h40v-549q0 -64 24.5 -89.5t86.5 -25.5h464q61 0 86 25.5t25 89.5v549h40v-555q0 -145 -145 -145h-476zM332 815v37q42 -65 135 -65q94 0 136 65v-37q-44 -61 -136 -61q-91 0 -135 61z" />
    <glyph glyph-name="ubreve" unicode="&#x16d;" horiz-adv-x="831" 
d="M602 36q60 0 84.5 24t24.5 85v458h40v-461q0 -73 -34.5 -107.5t-107.5 -34.5h-387q-73 0 -107.5 34.5t-34.5 107.5v461h40v-458q0 -61 24 -85t85 -24h373zM280 726v37q42 -65 135 -65q94 0 136 65v-37q-44 -61 -136 -61q-91 0 -135 61z" />
    <glyph glyph-name="Uring" unicode="&#x16e;" horiz-adv-x="936" 
d="M230 0q-74 0 -109.5 36t-35.5 109v555h40v-549q0 -64 24.5 -89.5t86.5 -25.5h464q61 0 86 25.5t25 89.5v549h40v-555q0 -145 -145 -145h-476zM410 803q0 -30 38 -30h41q38 0 38 30t-38 30h-41q-38 0 -38 -30zM489 751h-41q-62 0 -62 52t62 52h41q61 0 61 -52t-61 -52z
" />
    <glyph glyph-name="uring" unicode="&#x16f;" horiz-adv-x="831" 
d="M602 36q60 0 84.5 24t24.5 85v458h40v-461q0 -73 -34.5 -107.5t-107.5 -34.5h-387q-73 0 -107.5 34.5t-34.5 107.5v461h40v-458q0 -61 24 -85t85 -24h373zM357 714q0 -30 38 -30h41q38 0 38 30t-38 30h-41q-38 0 -38 -30zM436 662h-41q-62 0 -62 52t62 52h41q61 0 61 -52
t-61 -52z" />
    <glyph glyph-name="Uhungarumlaut" unicode="&#x170;" horiz-adv-x="936" 
d="M230 0q-74 0 -109.5 36t-35.5 109v555h40v-549q0 -64 24.5 -89.5t86.5 -25.5h464q61 0 86 25.5t25 89.5v549h40v-555q0 -145 -145 -145h-476zM692 854l-151 -103h-42l129 103h64zM512 854l-151 -103h-42l129 103h64z" />
    <glyph glyph-name="uhungarumlaut" unicode="&#x171;" horiz-adv-x="831" 
d="M602 36q60 0 84.5 24t24.5 85v458h40v-461q0 -73 -34.5 -107.5t-107.5 -34.5h-387q-73 0 -107.5 34.5t-34.5 107.5v461h40v-458q0 -61 24 -85t85 -24h373zM640 765l-151 -103h-42l129 103h64zM460 765l-151 -103h-42l129 103h64z" />
    <glyph glyph-name="Uogonek" unicode="&#x172;" horiz-adv-x="936" 
d="M829 -63h-19q-115 0 -156.5 -8t-41.5 -30q0 -19 47 -19h201v-33h-201q-70 0 -70 44q0 38 43.5 51.5t166.5 13.5h11v75q-35 -31 -104 -31h-476q-74 0 -109.5 36t-35.5 109v555h40v-549q0 -64 24.5 -89.5t86.5 -25.5h464q61 0 86 25.5t25 89.5v549h40v-555q0 -58 -22 -92
v-116z" />
    <glyph glyph-name="uogonek" unicode="&#x173;" horiz-adv-x="831" 
d="M730 -63h-19q-115 0 -156.5 -8t-41.5 -30q0 -19 47 -19h201v-33h-201q-70 0 -70 44q0 38 44 51.5t166 13.5h11v73q-35 -29 -102 -29h-387q-73 0 -107.5 34.5t-34.5 107.5v461h40v-458q0 -61 24 -85t85 -24h373q60 0 84.5 24t24.5 85v458h40v-461q0 -57 -21 -90v-115z" />
    <glyph glyph-name="Wcircumflex" unicode="&#x174;" horiz-adv-x="1253" 
d="M1023 0h-255q-67 0 -100.5 25t-41.5 84q-7 -59 -40.5 -84t-101.5 -25h-254q-74 0 -109.5 36t-35.5 109v555h40v-549q0 -64 24.5 -89.5t86.5 -25.5h258q62 0 87 26t25 90v548h40v-548q0 -64 25.5 -90t87.5 -26h258q62 0 86.5 25.5t24.5 89.5v549h40v-555q0 -145 -145 -145
zM626 827l-121 -76h-39l138 103h45l138 -103h-39z" />
    <glyph glyph-name="wcircumflex" unicode="&#x175;" horiz-adv-x="1141" 
d="M570 97q-8 -53 -41 -75t-101 -22h-206q-73 0 -107.5 34.5t-34.5 107.5v461h40v-458q0 -61 24 -85t85 -24h215q58 0 82 24t24 82v461h40v-461q0 -58 24 -82t82 -24h216q60 0 84.5 24t24.5 85v458h40v-461q0 -73 -34.5 -107.5t-107.5 -34.5h-207q-68 0 -101 22t-41 75z
M570 738l-121 -76h-39l138 103h45l138 -103h-39z" />
    <glyph glyph-name="Ycircumflex" unicode="&#x176;" horiz-adv-x="893" 
d="M800 700h40v-223q0 -145 -145 -145h-229v-332h-40v332h-228q-74 0 -109.5 36t-35.5 109v223h40v-217q0 -63 25 -89t86 -26h485q62 0 86.5 25.5t24.5 89.5v217zM446 827l-121 -76h-39l138 103h45l138 -103h-39z" />
    <glyph glyph-name="ycircumflex" unicode="&#x177;" horiz-adv-x="843" 
d="M573 -167h-453v36h449q75 0 109.5 33t34.5 111v55q-23 -63 -117 -63h-374q-74 0 -108 34.5t-34 107.5v456h40v-454q0 -60 24 -84t85 -24h375q60 0 84.5 24t24.5 84v454h40v-590q0 -92 -44 -136t-136 -44zM421 738l-121 -76h-39l138 103h45l138 -103h-39z" />
    <glyph glyph-name="Ydieresis" unicode="&#x178;" horiz-adv-x="893" 
d="M800 700h40v-223q0 -145 -145 -145h-229v-332h-40v332h-228q-74 0 -109.5 36t-35.5 109v223h40v-217q0 -63 25 -89t86 -26h485q62 0 86.5 25.5t24.5 89.5v217zM376 819v-41h-73v41h73zM590 819v-41h-73v41h73z" />
    <glyph glyph-name="Zacute" unicode="&#x179;" horiz-adv-x="873" 
d="M632 368q80 0 112 31.5t32 112.5v152h-697v36h737v-194q0 -174 -174 -174h-404q-79 0 -111.5 -32t-32.5 -113v-151h722v-36h-762v193q0 175 174 175h404zM581 854l-151 -103h-42l129 103h64z" />
    <glyph glyph-name="zacute" unicode="&#x17a;" horiz-adv-x="784" 
d="M221 283q-67 0 -96.5 -30t-29.5 -96v-121h633v-36h-673v154q0 165 165 165h342q67 0 96.5 30t29.5 96v122h-613v36h653v-155q0 -165 -165 -165h-342zM543 765l-151 -103h-42l129 103h64z" />
    <glyph glyph-name="Zdotaccent" unicode="&#x17b;" horiz-adv-x="873" 
d="M632 368q80 0 112 31.5t32 112.5v152h-697v36h737v-194q0 -174 -174 -174h-404q-79 0 -111.5 -32t-32.5 -113v-151h722v-36h-762v193q0 175 174 175h404zM483 819v-41h-73v41h73z" />
    <glyph glyph-name="zdotaccent" unicode="&#x17c;" horiz-adv-x="784" 
d="M221 283q-67 0 -96.5 -30t-29.5 -96v-121h633v-36h-673v154q0 165 165 165h342q67 0 96.5 30t29.5 96v122h-613v36h653v-155q0 -165 -165 -165h-342zM445 730v-41h-73v41h73z" />
    <glyph glyph-name="Zcaron" unicode="&#x17d;" horiz-adv-x="873" 
d="M632 368q80 0 112 31.5t32 112.5v152h-697v36h737v-194q0 -174 -174 -174h-404q-79 0 -111.5 -32t-32.5 -113v-151h722v-36h-762v193q0 175 174 175h404zM325 854l121 -76l122 76h39l-138 -103h-45l-138 103h39z" />
    <glyph glyph-name="zcaron" unicode="&#x17e;" horiz-adv-x="784" 
d="M221 283q-67 0 -96.5 -30t-29.5 -96v-121h633v-36h-673v154q0 165 165 165h342q67 0 96.5 30t29.5 96v122h-613v36h653v-155q0 -165 -165 -165h-342zM287 765l121 -76l122 76h39l-138 -103h-45l-138 103h39z" />
    <glyph glyph-name="florin" unicode="&#x192;" 
d="M786 368v-36h-548v-189q0 -74 -34.5 -108.5t-108.5 -34.5h-45v36h40q60 0 84 23.5t24 84.5v188h-148v36h148v188q0 73 34.5 108.5t108.5 35.5h531v-36h-526q-60 0 -84 -24.5t-24 -84.5v-187h548z" />
    <glyph glyph-name="AEacute" unicode="&#x1fc;" horiz-adv-x="1407" 
d="M711 0v332h-586v-332h-40v555q0 73 35.5 109t109.5 36h1125v-36h-608v-296h514v-36h-514v-296h608v-36h-644zM236 664q-61 0 -86 -26t-25 -89v-181h586v296h-475zM863 854l-151 -103h-42l129 103h64z" />
    <glyph glyph-name="aeacute" unicode="&#x1fd;" horiz-adv-x="1202" 
d="M1110 407v71q0 49 -20 69t-68 20h-295q-58 0 -82 -24t-24 -82v-142h401q48 0 68 20t20 68zM92 194v-70q0 -48 20 -68t68 -20h295q58 0 82 24t24 82v141h-401q-48 0 -68 -20t-20 -69zM459 0h-281q-65 0 -95.5 31t-30.5 98v61q0 67 30.5 98t95.5 31h403v142q0 58 -24 82
t-82 24h-393v36h377q68 0 101 -22t41 -75q8 53 41 75t101 22h281q65 0 95.5 -31t30.5 -98v-62q0 -67 -30.5 -98t-95.5 -31h-403v-141q0 -58 24 -82t82 -24h393v-36h-377q-68 0 -101 22t-41 75q-8 -53 -41 -75t-101 -22zM735 765l-151 -103h-42l129 103h64z" />
    <glyph glyph-name="Oslashacute" unicode="&#x1fe;" horiz-adv-x="917" 
d="M219 0q-74 0 -109.5 36t-35.5 109v410q0 73 35.5 109t109.5 36h479q145 0 145 -145v-410q0 -145 -145 -145h-479zM114 151q0 -82 43 -103l558 615q-7 1 -23 1h-467q-61 0 -86 -26t-25 -89v-398zM803 151v398q0 79 -44 102l-557 -614q7 -1 23 -1h467q61 0 86 25.5t25 89.5
zM592 854l-151 -103h-42l129 103h64z" />
    <glyph glyph-name="oslashacute" unicode="&#x1ff;" horiz-adv-x="810" 
d="M599 603q73 0 107.5 -34.5t34.5 -107.5v-319q0 -73 -34.5 -107.5t-107.5 -34.5h-388q-73 0 -107.5 34.5t-34.5 107.5v319q0 73 34.5 107.5t107.5 34.5h388zM592 36q61 0 85 24t24 85v313q0 45 -13 69t-43 33l-447 -524h394zM153 46l444 521h-379q-61 0 -85 -24.5
t-24 -84.5v-313q0 -80 44 -99zM539 765l-151 -103h-42l129 103h64z" />
    <glyph glyph-name="uni0218" unicode="&#x218;" horiz-adv-x="862" 
d="M204 332q-74 0 -107.5 34t-33.5 107v86q0 73 33.5 107t107.5 34h575v-36h-572q-55 0 -79.5 -25.5t-24.5 -84.5v-76q0 -59 24 -84.5t80 -25.5h457q73 0 107 -34t34 -107v-86q0 -73 -34 -107t-107 -34h-608v36h604q56 0 80.5 25.5t24.5 84.5v76q0 58 -24.5 84t-80.5 26
h-456zM465 -88v-38q0 -68 -57 -68h-9v21h11q26 0 26 34v13h-39v38h68z" />
    <glyph glyph-name="uni0219" unicode="&#x219;" horiz-adv-x="772" 
d="M690 567h-506q-48 0 -68 -20t-20 -69v-71q0 -48 20 -68t68 -20h410q65 0 95.5 -31t30.5 -98v-61q0 -67 -30.5 -98t-95.5 -31h-538v36h535q49 0 69 20t20 68v70q0 49 -20 69t-69 20h-409q-65 0 -95.5 31t-30.5 98v62q0 67 30.5 98t95.5 31h508v-36zM408 -88v-38
q0 -68 -57 -68h-9v21h11q26 0 26 34v13h-39v38h68z" />
    <glyph glyph-name="uni021A" unicode="&#x21a;" horiz-adv-x="813" 
d="M791 700v-36h-364v-664h-40v664h-365v36h769zM440 -88v-38q0 -68 -57 -68h-9v21h11q26 0 26 34v13h-39v38h68z" />
    <glyph glyph-name="uni021B" unicode="&#x21b;" horiz-adv-x="686" 
d="M222 0q-73 0 -107.5 34.5t-34.5 107.5v628h40v-167h512v-36h-512v-422q0 -61 24 -85t85 -24h403v-36h-410zM377 -88v-38q0 -68 -57 -68h-9v21h11q26 0 26 34v13h-39v38h68z" />
    <glyph glyph-name="uni0237" unicode="&#x237;" horiz-adv-x="236" 
d="M-30 -131h36q60 0 79.5 19.5t19.5 79.5v635h40v-638q0 -73 -29.5 -102.5t-103.5 -29.5h-42v36z" />
    <glyph glyph-name="circumflex" unicode="&#x2c6;" horiz-adv-x="295" 
d="M147 738l-121 -76h-39l138 103h45l138 -103h-39z" />
    <glyph glyph-name="caron" unicode="&#x2c7;" horiz-adv-x="295" 
d="M26 765l121 -76l122 76h39l-138 -103h-45l-138 103h39z" />
    <glyph glyph-name="breve" unicode="&#x2d8;" horiz-adv-x="295" 
d="M12 726v37q42 -65 135 -65q94 0 136 65v-37q-44 -61 -136 -61q-91 0 -135 61z" />
    <glyph glyph-name="dotaccent" unicode="&#x2d9;" horiz-adv-x="295" 
d="M184 730v-41h-73v41h73z" />
    <glyph glyph-name="ring" unicode="&#x2da;" horiz-adv-x="295" 
d="M89 714q0 -30 38 -30h41q38 0 38 30t-38 30h-41q-38 0 -38 -30zM168 662h-41q-62 0 -62 52t62 52h41q61 0 61 -52t-61 -52z" />
    <glyph glyph-name="ogonek" unicode="&#x2db;" horiz-adv-x="312" 
d="M260 -63h-19q-115 0 -156.5 -8t-41.5 -30q0 -19 47 -19h201v-33h-201q-70 0 -70 44q0 38 44 51.5t166 13.5h11v44h19v-63z" />
    <glyph glyph-name="tilde" unicode="&#x2dc;" horiz-adv-x="295" 
d="M12 671v34q37 40 74 40q23 0 64 -22.5t63 -22.5q36 0 70 41v-33q-37 -40 -75 -40q-23 0 -64 22t-63 22q-35 0 -69 -41z" />
    <glyph glyph-name="hungarumlaut" unicode="&#x2dd;" horiz-adv-x="295" 
d="M347 765l-151 -103h-42l129 103h64zM167 765l-151 -103h-42l129 103h64z" />
    <glyph glyph-name="pi" unicode="&#x3c0;" 
d="M113 0v603h670v-603h-40v567h-590v-567h-40z" />
    <glyph glyph-name="uni1E02" unicode="&#x1e02;" horiz-adv-x="930" 
d="M862 220v-79q0 -73 -34 -107t-107 -34h-625v700h625q73 0 107 -34t34 -107v-79q0 -59 -23 -90.5t-79 -39.5q56 -8 79 -40t23 -90zM716 368q60 0 83 25.5t23 85.5v75q0 58 -24.5 84t-80.5 26h-581v-296h580zM136 332v-296h581q56 0 80.5 25.5t24.5 84.5v75q0 60 -23 85.5
t-83 25.5h-580zM504 819v-41h-73v41h73z" />
    <glyph glyph-name="uni1E03" unicode="&#x1e03;" horiz-adv-x="823" 
d="M80 142v628h40v-231q22 64 117 64h375q73 0 107.5 -34.5t34.5 -107.5v-319q0 -73 -34.5 -107.5t-107.5 -34.5h-390q-73 0 -107.5 34.5t-34.5 107.5zM120 458v-313q0 -61 24 -85t85 -24h376q60 0 84.5 24t24.5 85v313q0 60 -24.5 84.5t-84.5 24.5h-376q-61 0 -85 -24.5
t-24 -84.5zM465 730v-41h-73v41h73z" />
    <glyph glyph-name="uni1E0A" unicode="&#x1e0a;" horiz-adv-x="931" 
d="M661 700q201 0 201 -201v-298q0 -201 -201 -201h-565v700h565zM654 36q84 0 126 41t42 128v290q0 87 -41.5 128t-126.5 41h-518v-628h518zM493 819v-41h-73v41h73z" />
    <glyph glyph-name="uni1E0B" unicode="&#x1e0b;" horiz-adv-x="823" 
d="M743 770v-628q0 -73 -34.5 -107.5t-107.5 -34.5h-390q-73 0 -107.5 34.5t-34.5 107.5v319q0 73 34.5 107.5t107.5 34.5h375q95 0 117 -64v231h40zM703 145v313q0 60 -24.5 84.5t-84.5 24.5h-376q-61 0 -85 -24.5t-24 -84.5v-313q0 -61 24 -85t85 -24h376q60 0 84.5 24
t24.5 85zM430 730v-41h-73v41h73z" />
    <glyph glyph-name="uni1E1E" unicode="&#x1e1e;" horiz-adv-x="855" 
d="M96 0v700h737v-36h-697v-296h603v-36h-603v-332h-40zM486 819v-41h-73v41h73z" />
    <glyph glyph-name="uni1E1F" unicode="&#x1e1f;" horiz-adv-x="730" 
d="M248 567q-67 0 -97.5 -29.5t-30.5 -98.5v-120h532v-36h-532v-283h-40v439q0 84 40 124t125 40h458v-36h-455zM439 730v-41h-73v41h73z" />
    <glyph glyph-name="uni1E40" unicode="&#x1e40;" horiz-adv-x="1253" 
d="M768 700h255q145 0 145 -145v-555h-40v549q0 63 -25 89t-86 26h-258q-62 0 -87.5 -26t-25.5 -90v-548h-40v548q0 64 -25 90t-87 26h-258q-61 0 -86 -26t-25 -89v-549h-40v555q0 73 35.5 109t109.5 36h254q68 0 101.5 -25t40.5 -84q8 59 41.5 84t100.5 25zM663 819v-41
h-73v41h73z" />
    <glyph glyph-name="uni1E41" unicode="&#x1e41;" horiz-adv-x="1141" 
d="M570 506q8 53 41 75t101 22h207q73 0 107.5 -34.5t34.5 -107.5v-461h-40v458q0 60 -24.5 84.5t-84.5 24.5h-216q-58 0 -82 -24t-24 -82v-461h-40v461q0 58 -24 82t-82 24h-215q-61 0 -85 -24.5t-24 -84.5v-458h-40v461q0 73 34.5 107.5t107.5 34.5h206q68 0 101 -22
t41 -75zM607 730v-41h-73v41h73z" />
    <glyph glyph-name="uni1E56" unicode="&#x1e56;" horiz-adv-x="898" 
d="M96 0v700h623q73 0 107 -34t34 -107v-86q0 -73 -34 -107t-107 -34h-583v-332h-40zM820 554q0 58 -24.5 84t-80.5 26h-579v-296h579q56 0 80.5 25.5t24.5 84.5v76zM505 819v-41h-73v41h73z" />
    <glyph glyph-name="uni1E57" unicode="&#x1e57;" horiz-adv-x="823" 
d="M80 -167v628q0 73 34.5 107.5t107.5 34.5h390q73 0 107.5 -34.5t34.5 -107.5v-319q0 -73 -34.5 -107.5t-107.5 -34.5h-375q-95 0 -117 64v-231h-40zM120 458v-313q0 -61 24 -85t85 -24h376q60 0 84.5 24t24.5 85v313q0 60 -24.5 84.5t-84.5 24.5h-376q-61 0 -85 -24.5
t-24 -84.5zM447 730v-41h-73v41h73z" />
    <glyph glyph-name="uni1E60" unicode="&#x1e60;" horiz-adv-x="862" 
d="M204 332q-74 0 -107.5 34t-33.5 107v86q0 73 33.5 107t107.5 34h575v-36h-572q-55 0 -79.5 -25.5t-24.5 -84.5v-76q0 -59 24 -84.5t80 -25.5h457q73 0 107 -34t34 -107v-86q0 -73 -34 -107t-107 -34h-608v36h604q56 0 80.5 25.5t24.5 84.5v76q0 58 -24.5 84t-80.5 26
h-456zM467 819v-41h-73v41h73z" />
    <glyph glyph-name="uni1E61" unicode="&#x1e61;" horiz-adv-x="772" 
d="M690 567h-506q-48 0 -68 -20t-20 -69v-71q0 -48 20 -68t68 -20h410q65 0 95.5 -31t30.5 -98v-61q0 -67 -30.5 -98t-95.5 -31h-538v36h535q49 0 69 20t20 68v70q0 49 -20 69t-69 20h-409q-65 0 -95.5 31t-30.5 98v62q0 67 30.5 98t95.5 31h508v-36zM422 730v-41h-73v41h73
z" />
    <glyph glyph-name="uni1E6A" unicode="&#x1e6a;" horiz-adv-x="813" 
d="M791 700v-36h-364v-664h-40v664h-365v36h769zM442 819v-41h-73v41h73z" />
    <glyph glyph-name="uni1E6B" unicode="&#x1e6b;" horiz-adv-x="686" 
d="M222 0q-73 0 -107.5 34.5t-34.5 107.5v628h40v-167h512v-36h-512v-422q0 -61 24 -85t85 -24h403v-36h-410zM414 730v-41h-73v41h73z" />
    <glyph glyph-name="Wgrave" unicode="&#x1e80;" horiz-adv-x="1253" 
d="M1023 0h-255q-67 0 -100.5 25t-41.5 84q-7 -59 -40.5 -84t-101.5 -25h-254q-74 0 -109.5 36t-35.5 109v555h40v-549q0 -64 24.5 -89.5t86.5 -25.5h258q62 0 87 26t25 90v548h40v-548q0 -64 25.5 -90t87.5 -26h258q62 0 86.5 25.5t24.5 89.5v549h40v-555q0 -145 -145 -145
zM641 751l-147 103h60l130 -103h-43z" />
    <glyph glyph-name="wgrave" unicode="&#x1e81;" horiz-adv-x="1141" 
d="M570 97q-8 -53 -41 -75t-101 -22h-206q-73 0 -107.5 34.5t-34.5 107.5v461h40v-458q0 -61 24 -85t85 -24h215q58 0 82 24t24 82v461h40v-461q0 -58 24 -82t82 -24h216q60 0 84.5 24t24.5 85v458h40v-461q0 -73 -34.5 -107.5t-107.5 -34.5h-207q-68 0 -101 22t-41 75z
M585 662l-147 103h60l130 -103h-43z" />
    <glyph glyph-name="Wacute" unicode="&#x1e82;" horiz-adv-x="1253" 
d="M1023 0h-255q-67 0 -100.5 25t-41.5 84q-7 -59 -40.5 -84t-101.5 -25h-254q-74 0 -109.5 36t-35.5 109v555h40v-549q0 -64 24.5 -89.5t86.5 -25.5h258q62 0 87 26t25 90v548h40v-548q0 -64 25.5 -90t87.5 -26h258q62 0 86.5 25.5t24.5 89.5v549h40v-555q0 -145 -145 -145
zM761 854l-151 -103h-42l129 103h64z" />
    <glyph glyph-name="wacute" unicode="&#x1e83;" horiz-adv-x="1141" 
d="M570 97q-8 -53 -41 -75t-101 -22h-206q-73 0 -107.5 34.5t-34.5 107.5v461h40v-458q0 -61 24 -85t85 -24h215q58 0 82 24t24 82v461h40v-461q0 -58 24 -82t82 -24h216q60 0 84.5 24t24.5 85v458h40v-461q0 -73 -34.5 -107.5t-107.5 -34.5h-207q-68 0 -101 22t-41 75z
M705 765l-151 -103h-42l129 103h64z" />
    <glyph glyph-name="Wdieresis" unicode="&#x1e84;" horiz-adv-x="1253" 
d="M1023 0h-255q-67 0 -100.5 25t-41.5 84q-7 -59 -40.5 -84t-101.5 -25h-254q-74 0 -109.5 36t-35.5 109v555h40v-549q0 -64 24.5 -89.5t86.5 -25.5h258q62 0 87 26t25 90v548h40v-548q0 -64 25.5 -90t87.5 -26h258q62 0 86.5 25.5t24.5 89.5v549h40v-555q0 -145 -145 -145
zM556 819v-41h-73v41h73zM770 819v-41h-73v41h73z" />
    <glyph glyph-name="wdieresis" unicode="&#x1e85;" horiz-adv-x="1141" 
d="M570 97q-8 -53 -41 -75t-101 -22h-206q-73 0 -107.5 34.5t-34.5 107.5v461h40v-458q0 -61 24 -85t85 -24h215q58 0 82 24t24 82v461h40v-461q0 -58 24 -82t82 -24h216q60 0 84.5 24t24.5 85v458h40v-461q0 -73 -34.5 -107.5t-107.5 -34.5h-207q-68 0 -101 22t-41 75z
M500 730v-41h-73v41h73zM714 730v-41h-73v41h73z" />
    <glyph glyph-name="Ygrave" unicode="&#x1ef2;" horiz-adv-x="893" 
d="M800 700h40v-223q0 -145 -145 -145h-229v-332h-40v332h-228q-74 0 -109.5 36t-35.5 109v223h40v-217q0 -63 25 -89t86 -26h485q62 0 86.5 25.5t24.5 89.5v217zM461 751l-147 103h60l130 -103h-43z" />
    <glyph glyph-name="ygrave" unicode="&#x1ef3;" horiz-adv-x="843" 
d="M573 -167h-453v36h449q75 0 109.5 33t34.5 111v55q-23 -63 -117 -63h-374q-74 0 -108 34.5t-34 107.5v456h40v-454q0 -60 24 -84t85 -24h375q60 0 84.5 24t24.5 84v454h40v-590q0 -92 -44 -136t-136 -44zM436 662l-147 103h60l130 -103h-43z" />
    <glyph glyph-name="uni2010" unicode="&#x2010;" horiz-adv-x="491" 
d="M445 345v-36h-399v36h399z" />
    <glyph glyph-name="figuredash" unicode="&#x2012;" 
d="M897 345v-36h-897v36h897z" />
    <glyph glyph-name="endash" unicode="&#x2013;" horiz-adv-x="625" 
d="M625 345v-36h-625v36h625z" />
    <glyph glyph-name="emdash" unicode="&#x2014;" horiz-adv-x="1250" 
d="M1250 345v-36h-1250v36h1250z" />
    <glyph glyph-name="quoteleft" unicode="&#x2018;" horiz-adv-x="278" 
d="M104 568v47q0 45 14 65t49 20h7v-17h-8q-17 0 -24.5 -11t-7.5 -40v-17h40v-47h-70z" />
    <glyph glyph-name="quoteright" unicode="&#x2019;" horiz-adv-x="278" 
d="M174 700v-47q0 -45 -14 -65t-49 -20h-7v17h8q17 0 24.5 11t7.5 40v17h-40v47h70z" />
    <glyph glyph-name="quotesinglbase" unicode="&#x201a;" horiz-adv-x="278" 
d="M174 51v-47q0 -45 -14 -65t-49 -20h-7v17h8q17 0 24.5 11t7.5 40v17h-40v47h70z" />
    <glyph glyph-name="quotedblleft" unicode="&#x201c;" horiz-adv-x="442" 
d="M268 568v47q0 45 14 65t49 20h7v-17h-8q-17 0 -24.5 -11t-7.5 -40v-17h40v-47h-70zM104 568v47q0 45 14 65t49 20h7v-17h-8q-17 0 -24.5 -11t-7.5 -40v-17h40v-47h-70z" />
    <glyph glyph-name="quotedblright" unicode="&#x201d;" horiz-adv-x="442" 
d="M338 700v-47q0 -45 -14 -65t-49 -20h-7v17h8q17 0 24.5 11t7.5 40v17h-40v47h70zM174 700v-47q0 -45 -14 -65t-49 -20h-7v17h8q17 0 24.5 11t7.5 40v17h-40v47h70z" />
    <glyph glyph-name="quotedblbase" unicode="&#x201e;" horiz-adv-x="442" 
d="M338 51v-47q0 -45 -14 -65t-49 -20h-7v17h8q17 0 24.5 11t7.5 40v17h-40v47h70zM174 51v-47q0 -45 -14 -65t-49 -20h-7v17h8q17 0 24.5 11t7.5 40v17h-40v47h70z" />
    <glyph glyph-name="dagger" unicode="&#x2020;" horiz-adv-x="811" 
d="M773 481v-36h-348v-577h-40v577h-347v36h347v259h40v-259h348z" />
    <glyph glyph-name="daggerdbl" unicode="&#x2021;" horiz-adv-x="811" 
d="M773 206v-36h-348v-302h-40v302h-347v36h347v239h-347v36h347v259h40v-259h348v-36h-348v-239h348z" />
    <glyph glyph-name="bullet" unicode="&#x2022;" horiz-adv-x="625" 
d="M368 166h-111q-135 0 -135 126v115q0 127 135 127h111q134 0 134 -127v-115q0 -126 -134 -126z" />
    <glyph glyph-name="ellipsis" unicode="&#x2026;" horiz-adv-x="607" 
d="M174 51v-51h-70v51h70zM338 51v-51h-70v51h70zM502 51v-51h-70v51h70z" />
    <glyph glyph-name="perthousand" unicode="&#x2030;" horiz-adv-x="1966" 
d="M539 0l273 700h38l-273 -700h-38zM828 114v306q0 58 27.5 86t86.5 28h269q59 0 86.5 -28t27.5 -86v-306q0 -58 -27.5 -86t-86.5 -28h-269q-59 0 -86.5 28t-27.5 86zM1285 111v312q0 40 -18 57.5t-56 17.5h-269q-38 0 -56 -17.5t-18 -57.5v-312q0 -40 18 -57.5t56 -17.5
h269q38 0 56 17.5t18 57.5zM1404 114v306q0 58 27.5 86t86.5 28h269q59 0 86.5 -28t27.5 -86v-306q0 -58 -27.5 -86t-86.5 -28h-269q-59 0 -86.5 28t-27.5 86zM1861 111v312q0 40 -18 57.5t-56 17.5h-269q-38 0 -56 -17.5t-18 -57.5v-312q0 -40 18 -57.5t56 -17.5h269
q38 0 56 17.5t18 57.5zM66 280v306q0 58 27.5 86t86.5 28h269q59 0 86.5 -28t27.5 -86v-306q0 -58 -27.5 -86t-86.5 -28h-269q-59 0 -86.5 28t-27.5 86zM523 277v312q0 40 -18 57.5t-56 17.5h-269q-38 0 -56 -17.5t-18 -57.5v-312q0 -40 18 -57.5t56 -17.5h269q38 0 56 17.5
t18 57.5z" />
    <glyph glyph-name="guilsinglleft" unicode="&#x2039;" horiz-adv-x="281" 
d="M250 51h-42l-177 249l177 249h42l-177 -249z" />
    <glyph glyph-name="guilsinglright" unicode="&#x203a;" horiz-adv-x="281" 
d="M73 51h-42l177 249l-177 249h42l177 -249z" />
    <glyph glyph-name="fraction" unicode="&#x2044;" horiz-adv-x="377" 
d="M33 0l273 700h38l-273 -700h-38z" />
    <glyph glyph-name="zerosuperior" unicode="&#x2070;" horiz-adv-x="628" 
d="M66 280v306q0 58 27.5 86t86.5 28h269q59 0 86.5 -28t27.5 -86v-306q0 -58 -27.5 -86t-86.5 -28h-269q-59 0 -86.5 28t-27.5 86zM523 277v312q0 40 -18 57.5t-56 17.5h-269q-38 0 -56 -17.5t-18 -57.5v-312q0 -40 18 -57.5t56 -17.5h269q38 0 56 17.5t18 57.5z" />
    <glyph glyph-name="foursuperior" unicode="&#x2074;" horiz-adv-x="628" 
d="M503 451v249h40v-534h-40v249h-341q-59 0 -86.5 28t-27.5 86v171h40v-174q0 -40 18 -57.5t56 -17.5h341z" />
    <glyph glyph-name="zeroinferior" unicode="&#x2080;" horiz-adv-x="628" 
d="M66 114v306q0 58 27.5 86t86.5 28h269q59 0 86.5 -28t27.5 -86v-306q0 -58 -27.5 -86t-86.5 -28h-269q-59 0 -86.5 28t-27.5 86zM523 111v312q0 40 -18 57.5t-56 17.5h-269q-38 0 -56 -17.5t-18 -57.5v-312q0 -40 18 -57.5t56 -17.5h269q38 0 56 17.5t18 57.5z" />
    <glyph glyph-name="oneinferior" unicode="&#x2081;" horiz-adv-x="628" 
d="M128 0v36h224v462h-224v36h264v-498h173v-36h-437z" />
    <glyph glyph-name="twoinferior" unicode="&#x2082;" horiz-adv-x="628" 
d="M541 362v59q0 43 -16.5 60t-58.5 17h-393v36h395q58 0 85.5 -28t27.5 -86v-57q0 -58 -27.5 -86t-85.5 -28h-266q-63 0 -86.5 -23.5t-23.5 -85.5v-104h489v-36h-529v146q0 139 139 139h275q42 0 58.5 17t16.5 60z" />
    <glyph glyph-name="threeinferior" unicode="&#x2083;" horiz-adv-x="628" 
d="M577 420v-49q0 -47 -17 -72.5t-65 -31.5q48 -6 65 -31.5t17 -72.5v-49q0 -58 -27.5 -86t-85.5 -28h-420v36h418q42 0 58.5 17t16.5 60v60q0 40 -17.5 58t-55.5 18h-342v36h342q38 0 55.5 18t17.5 58v60q0 43 -16.5 60t-58.5 17h-418v36h420q58 0 85.5 -28t27.5 -86z" />
    <glyph glyph-name="fourinferior" unicode="&#x2084;" horiz-adv-x="628" 
d="M503 285v249h40v-534h-40v249h-341q-59 0 -86.5 28t-27.5 86v171h40v-174q0 -40 18 -57.5t56 -17.5h341z" />
    <glyph glyph-name="Euro" unicode="&#x20ac;" 
d="M247 0q-145 0 -145 145v187h-77v36h77v187q0 145 145 145h600v-36h-594q-61 0 -86 -26t-25 -89v-181h604v-36h-604v-181q0 -64 25 -89.5t86 -25.5h594v-36h-600z" />
    <glyph glyph-name="uni2117" unicode="&#x2117;" horiz-adv-x="1018" 
d="M290 367h433q27 0 27 26v55q0 26 -27 26h-433v-107zM790 442v-43q0 -68 -68 -68h-432v-142h-40v321h472q68 0 68 -68zM233 0q-81 0 -120 39t-39 119v384q0 80 39 119t120 39h552q81 0 120 -39t39 -119v-384q0 -80 -39 -119t-120 -39h-552zM235 36h548q62 0 91.5 30
t29.5 92v384q0 62 -29.5 92t-91.5 30h-548q-62 0 -91.5 -30t-29.5 -92v-384q0 -62 29.5 -92t91.5 -30z" />
    <glyph glyph-name="trademark" unicode="&#x2122;" horiz-adv-x="1472" 
d="M976 167v405q0 47 -19.5 69.5t-62.5 22.5h-187q-38 0 -54 -16.5t-16 -55.5v-425h-40v419q0 58 27.5 86t86.5 28h163q58 0 87 -22t35 -70q6 48 35 70t87 22h163q59 0 86.5 -28t27.5 -86v-419h-40v425q0 39 -16 55.5t-54 16.5h-187q-43 0 -62.5 -22.5t-19.5 -69.5v-405h-40
zM514 700v-36h-222v-497h-40v497h-222v36h484z" />
    <glyph glyph-name="uni2126" unicode="&#x2126;" 
d="M794 359v195q0 58 -24.5 84t-80.5 26h-482q-55 0 -79.5 -25.5t-24.5 -84.5v-195q0 -59 24 -84.5t80 -25.5h167v-249h-318v36h278v177h-130q-74 0 -107.5 34t-33.5 107v205q0 73 33.5 107t107.5 34h489q73 0 107 -34t34 -107v-205q0 -73 -34 -107t-107 -34h-131v-177h279
v-36h-319v249h167q56 0 80.5 25.5t24.5 84.5z" />
    <glyph glyph-name="onethird" unicode="&#x2153;" horiz-adv-x="1390" 
d="M128 166v36h224v462h-224v36h264v-498h173v-36h-437zM539 0l273 700h38l-273 -700h-38zM1339 420v-49q0 -47 -17 -72.5t-65 -31.5q48 -6 65 -31.5t17 -72.5v-49q0 -58 -27.5 -86t-85.5 -28h-420v36h418q42 0 58.5 17t16.5 60v60q0 40 -17.5 58t-55.5 18h-342v36h342
q38 0 55.5 18t17.5 58v60q0 43 -16.5 60t-58.5 17h-418v36h420q58 0 85.5 -28t27.5 -86z" />
    <glyph glyph-name="twothirds" unicode="&#x2154;" horiz-adv-x="1390" 
d="M541 528v59q0 43 -16.5 60t-58.5 17h-393v36h395q58 0 85.5 -28t27.5 -86v-57q0 -58 -27.5 -86t-85.5 -28h-266q-63 0 -86.5 -23.5t-23.5 -85.5v-104h489v-36h-529v146q0 139 139 139h275q42 0 58.5 17t16.5 60zM539 0l273 700h38l-273 -700h-38zM1339 420v-49
q0 -47 -17 -72.5t-65 -31.5q48 -6 65 -31.5t17 -72.5v-49q0 -58 -27.5 -86t-85.5 -28h-420v36h418q42 0 58.5 17t16.5 60v60q0 40 -17.5 58t-55.5 18h-342v36h342q38 0 55.5 18t17.5 58v60q0 43 -16.5 60t-58.5 17h-418v36h420q58 0 85.5 -28t27.5 -86z" />
    <glyph glyph-name="partialdiff" unicode="&#x2202;" 
d="M825 499v-358q0 -73 -34 -107t-108 -34h-488q-73 0 -107 34t-34 107v86q0 73 34 107t107 34h590v127q0 87 -42 128t-126 41h-537v36h545q200 0 200 -201zM94 222v-76q0 -59 24.5 -84.5t80.5 -25.5h480q56 0 81 25.5t25 84.5v186h-586q-56 0 -80.5 -26t-24.5 -84z" />
    <glyph glyph-name="uni2206" unicode="&#x2206;" 
d="M55 0l393 717l392 -717h-785zM448 635l-329 -599h658z" />
    <glyph glyph-name="product" unicode="&#x220f;" 
d="M783 -132v796h-669v-796h-40v832h749v-832h-40z" />
    <glyph glyph-name="summation" unicode="&#x2211;" 
d="M823 -96v-36h-749v29l397 387l-397 387v29h749v-36h-691l391 -380l-391 -380h691z" />
    <glyph glyph-name="minus" unicode="&#x2212;" 
d="M74 331v36h749v-36h-749z" />
    <glyph glyph-name="radical" unicode="&#x221a;" 
d="M557 0l-125 331h-358v36h385l120 -323l243 656h40l-259 -700h-46z" />
    <glyph glyph-name="infinity" unicode="&#x221e;" horiz-adv-x="733" 
d="M345 317q-12 0 -23.5 12.5t-14.5 12.5t-11 -2t-14 -2q-8 0 -14.5 8t-6.5 17q0 22 8 35q-7 -7 -16 -37t-26 -41q-18 -12 -18 -40q0 -11 11 -21.5t11 -12.5q0 -4 -3 -4q-7 0 -12 5q13 -68 48 -104h-55q-35 114 -35 226q0 105 40.5 171.5t135.5 66.5q190 0 190 -254
q0 -75 -25 -210h-73q53 47 62 117q-4 -8 -13 -8q-3 0 -3 2l4 4q5 3 9.5 11.5t4.5 21.5q-4 -6 -15 -6q-1 0 -10.5 -4.5t-15.5 -4.5q-14 0 -40 3.5t-70 3.5q-22 0 -52.5 -6t-38.5 -6q-5 0 -13 2t-11 2q-28 0 -28 12q0 10 37 18.5t74 8.5q5 0 12 -0.5t12 -0.5t15.5 2t14.5 2
q112 0 127 -20q-1 16 -14 29t-30 13q-6 0 -6 7q0 57 -16 58q4 -7 4 -17q0 -18 -11 -32t-27 -14q-4 0 -10 2l-7 2q-1 0 -14.5 -14t-27.5 -14zM733 291v-148q-22 48 -69 112.5t-67 64.5q6 -85 -12 -177h-42q16 104 16 199q0 319 -213 319q-53 0 -91.5 -26.5t-59 -72.5
t-30 -97.5t-9.5 -111.5q0 -123 29 -210h-47q-19 67 -19 184q-17 -9 -39.5 -43.5t-49 -84.5t-30.5 -56v148q11 27 33 54t50 53.5t30 28.5q3 72 27 135t75.5 107.5t120.5 44.5q67 0 115.5 -22.5t76.5 -64t42.5 -87t22.5 -105.5q22 -5 68 -48t72 -96zM345 503q-3 3 -3 6
q0 2 2 2q1 0 6 -4.5t15 -8.5t22 -4q16 0 29 4t20 8l6 5q4 0 4 -2l-8 -8q24 0 52 -11q-29 80 -139 80q-55 0 -92 -33t-50 -85q37 20 41 39q-6 4 -6 7q0 4 3 4l2 -2q2 -1 6.5 -3.5t10 -5t13.5 -4t17 -1.5q24 0 49 17zM371 416q0 20 -4.5 40t-9.5 20q-10 0 -19 -39t-14 -39
q-3 0 -9.5 3t-11.5 3q-13 0 -21 -10.5t-8 -24.5t11 -14t18 6.5t9 6.5t12 -13.5t20 -13.5q14 0 25 10.5t12 10.5q3 0 10 -3.5t9 -3.5q10 0 18 11t8 24q0 10 -6 18t-16 8q-7 0 -14.5 -6.5t-11.5 -6.5q-7 0 -7 13zM510 318q0 95 -12 147l-5 3q0 -21 -18 -32t-41 -11
q-21 0 -37 12.5t-16 29.5q0 6 2 9q-12 2 -15 4q6 -9 10 -24t5.5 -24t4.5 -9q7 2 15 2q19 0 31 -14q34 0 34 -51q0 -3 8 -7t18.5 -13t15.5 -22zM383 310q-1 0 -8 -1t-15.5 -2t-13.5 -1t-13 1.5t-11 1.5q-15 0 -36 -4t-35 -9t-14 -8q0 -10 20 -10q24 0 54 6.5t44 6.5
q19 0 57.5 -3.5t52.5 -3.5q5 0 9.5 2t7.5 4t3 3q0 5 -36 11t-66 6zM267 413q-18 0 -31 10t-15 21q-4 -2 -15 -5q-4 -21 -4 -43q0 -50 3 -78q4 6 22 22t20 31q5 37 38 41q12 5 23 5q5 0 8.5 8.5t9.5 24.5t16 28l-13 -4q-1 -24 -18.5 -42.5t-43.5 -18.5zM419 465q-13 0 -16 13
q-5 0 -8.5 -5.5t-3.5 -9.5q0 -10 15 -17t31 -7q14 0 29 8.5t15 21.5q0 8 -14.5 12.5t-28.5 4.5q-5 -21 -19 -21zM267 427q14 0 30 11t16 24q0 6 -1 9q-20 0 -27 1q-5 -14 -18 -14q-10 0 -15 5q-4 -4 -18 -12q4 -24 33 -24zM266 288q-2 0 -2 3q0 12 107 12q93 0 93 -8
q0 -3 -3 -3q-1 0 -4 0.5t-10 1t-16 1.5t-24.5 1.5t-33.5 0.5q-36 0 -61 -2.5t-36 -4.5zM305 262q0 10 63 10q31 0 31 -8q0 -3 -2 -3q-4 0 -10 2t-10 2q-11 0 -26 -0.5t-20 -0.5q-4 0 -11.5 -3t-10.5 -3q-4 0 -4 4zM417 473q9 0 9 13q-1 0 -16 -6q0 -7 7 -7zM266 466
q7 0 10 9q-6 1 -11 4q0 -4 -6 -10q1 -3 7 -3zM325 34l-3 48l-10 -82h-21l15 125h25l4 -60l21 60h26l-15 -125h-22l10 82l-16 -48h-14zM21 125h35q23 0 20 -21l-10 -82q-3 -22 -22 -22h-38zM282 44q-1 -12 -10 -17l8 -27h-21l-7 23h-7l-3 -23h-22l15 125h36q21 0 18 -24z
M183 0l3 23h-14l-3 -23h-21l12 104q2 21 22 21h17q19 0 18 -21l-12 -104h-22zM594 0l15 125h35q23 0 20 -21l-8 -62q-3 -19 -22 -19h-15l-3 -23h-22zM111 0l3 23h-13l-3 -23h-22l15 125h22l-10 -83h13l10 83h22l-15 -125h-22zM539 125h22l-10 -79q0 -4 4 -4h5q5 0 5 4l9 79
h22l-10 -81q-3 -21 -19 -21l-9 -23h-23l9 23q-18 0 -15 21zM477 106l3 19h50l-3 -19h-13l-12 -106h-23l12 106h-14zM41 106l-11 -88h11q3 0 3 4l9 80q0 4 -4 4h-8zM629 106l-8 -64h8q5 0 5 4l7 56q0 4 -4 4h-8zM174 42h14l7 60q0 4 -4 4h-5q-5 0 -5 -4zM255 106l-8 -64h8
q5 0 5 4l7 56q0 4 -3 4h-9zM711 57l-3 -18h-19l-3 -21h27l-2 -18h-49l15 125h47l-3 -19h-24l-6 -49h20zM417 0l3 23h-14l-3 -23h-21l12 104q2 21 22 21h17q19 0 18 -21l-12 -104h-22zM408 42h14l7 60q0 4 -4 4h-5q-5 0 -5 -4z" />
    <glyph glyph-name="integral" unicode="&#x222b;" 
d="M517 555l-96 -547q-14 -73 -53 -106.5t-113 -33.5h-181v36h179q61 0 90 24t40 85l96 547q14 73 53 106.5t113 33.5h178v-36h-176q-60 0 -89 -24.5t-41 -84.5z" />
    <glyph glyph-name="approxequal" unicode="&#x2248;" 
d="M74 187v47q66 58 163 58q68 0 210.5 -40.5t208.5 -40.5q100 0 167 67v-47q-67 -58 -164 -58q-68 0 -210 40.5t-208 40.5q-101 0 -167 -67zM74 424v47q66 58 163 58q68 0 210 -40t208 -40q101 0 168 67v-48q-67 -58 -164 -58q-68 0 -210 40.5t-208 40.5q-101 0 -167 -67z
" />
    <glyph glyph-name="notequal" unicode="&#x2260;" 
d="M297 0h-39l106 210h-275v36h293l104 206h-397v36h415l107 212h39l-107 -212h265v-36h-283l-104 -206h387v-36h-405z" />
    <glyph glyph-name="lessequal" unicode="&#x2264;" 
d="M823 0h-749v36h749v-36zM74 350l230 219h50l-212 -202h681v-36h-680l211 -202h-50z" />
    <glyph glyph-name="greaterequal" unicode="&#x2265;" 
d="M823 0h-749v36h749v-36zM593 569l230 -219l-230 -221h-50l211 202h-680v36h681l-212 202h50z" />
    <glyph glyph-name="lozenge" unicode="&#x25ca;" 
d="M448 -17l-393 364l393 365l392 -365zM447 35l337 312l-337 312l-335 -312z" />
    <glyph glyph-name="commaaccent" horiz-adv-x="312" 
d="M190 -88v-38q0 -68 -57 -68h-9v21h11q26 0 26 34v13h-39v38h68z" />
    <glyph glyph-name="f.alt" horiz-adv-x="730" 
d="M248 567q-67 0 -97.5 -29.5t-30.5 -98.5v-120h532v-36h-532v-450h-40v606q0 84 40 124t125 40h458v-36h-455z" />
    <glyph glyph-name="i.alt" horiz-adv-x="232" 
d="M96 0v603h40v-603h-40zM152 730v-41h-73v41h73z" />
    <glyph glyph-name="i.trk" horiz-adv-x="304" 
d="M221 36h57v-36h-63q-72 0 -102.5 30.5t-30.5 101.5v471h40v-468q0 -59 20 -79t79 -20zM138 730v-41h-73v41h73z" />
    <glyph glyph-name="germandbls.alt" horiz-adv-x="843" 
d="M657 283h-399v36h399q51 0 70.5 20t19.5 71v58q0 54 -22.5 76.5t-76.5 22.5h-400q-67 0 -97.5 -29.5t-30.5 -98.5v-606h-40v606q0 84 40 124t125 40h406q71 0 103.5 -33t32.5 -106v-53q0 -51 -20.5 -77.5t-70.5 -32.5q49 -6 70 -32.5t21 -77.5v-52q0 -73 -32.5 -106
t-103.5 -33h-393v36h390q54 0 76.5 22.5t22.5 76.5v57q0 51 -19.5 71t-70.5 20z" />
    <glyph glyph-name="one.pnum" horiz-adv-x="339" 
d="M243 700v-700h-40v664h-178v36h218z" />
    </font>
</defs>
</svg>
