<?xml version="1.0" standalone="no"?>
<!DOCTYPE svg PUBLIC "-//W3C//DTD SVG 1.1//EN" "http://www.w3.org/Graphics/SVG/1.1/DTD/svg11.dtd" >
<svg xmlns="http://www.w3.org/2000/svg" xmlns:xlink="http://www.w3.org/1999/xlink" version="1.1">
<metadata>
Created by FontForge 20170731 at Sat Mar 14 00:16:18 2015
 By ,,,
Copyright (c) 2011 by Ryoichi Tsunekawa. All rights reserved.
</metadata>
<defs>
<font id="DesignSystemG-100R" horiz-adv-x="3359" >
  <font-face 
    font-family="DesignSystemG-100R"
    font-weight="400"
    font-stretch="normal"
    units-per-em="1000"
    panose-1="4 5 4 8 2 11 2 2 3 2"
    ascent="822"
    descent="-178"
    x-height="603"
    cap-height="700"
    bbox="-218 -212 5886 937"
    underline-thickness="36"
    underline-position="-156"
    unicode-range="U+0020-FB02"
  />
<missing-glyph horiz-adv-x="1500" 
d="M0 700h1500v-700h-1500v700zM40 664v-628l1342 628h-1342zM119 36h1341v628z" />
    <glyph glyph-name="ij" unicode="ij" horiz-adv-x="528" 
d="M192 -131h81q62 0 86.5 24t24.5 87v623h40v-623q0 -79 -33.5 -113t-112.5 -34h-86v36zM350 689v41h108v-41h-108zM109 0v603h40v-603h-40zM183 730v-41h-108v41h108z" />
    <glyph glyph-name="fi" unicode="fi" horiz-adv-x="3320" 
d="M277 567q-75 0 -109.5 -33t-34.5 -111v-104h2635v-36h-2635v-283h-40v423q0 92 44 136t136 44h2585v-36h-2581zM3144 36h141v-36h-146q-78 0 -112 34.5t-34 112.5v456h40v-456q0 -63 24.5 -87t86.5 -24zM3067 730v-41h-108v41h108z" />
    <glyph glyph-name="fl" unicode="fl" horiz-adv-x="3318" 
d="M277 567q-75 0 -109.5 -33t-34.5 -111v-104h2635v-36h-2635v-283h-40v423q0 92 44 136t136 44h2585v-36h-2581zM3142 36h141v-36h-146q-78 0 -112 34.5t-34 112.5v623h40v-623q0 -63 24.5 -87t86.5 -24z" />
    <glyph glyph-name=".notdef" horiz-adv-x="1500" 
d="M0 700h1500v-700h-1500v700zM40 664v-628l1342 628h-1342zM119 36h1341v628z" />
    <glyph glyph-name=".null" horiz-adv-x="0" 
 />
    <glyph glyph-name="nonmarkingreturn" horiz-adv-x="333" 
 />
    <glyph glyph-name="space" unicode=" " horiz-adv-x="770" 
 />
    <glyph glyph-name="exclam" unicode="!" horiz-adv-x="328" 
d="M208 51v-51h-88v51h88zM184 700v-236q0 -109 -10 -299h-20q-10 190 -10 299v236h40z" />
    <glyph glyph-name="quotedbl" unicode="&#x22;" horiz-adv-x="404" 
d="M127 700v-49q0 -38 -13 -259h-14q-13 221 -13 259v49h40zM317 700v-49q0 -38 -13 -259h-14q-13 221 -13 259v49h40z" />
    <glyph glyph-name="numbersign" unicode="#" 
d="M3065 0l8 151h-2808l-8 -151h-40l8 151h-174l2 36h174l17 326h-174l2 36h174l8 151h40l-8 -151h2808l8 151h40l-8 -151h174l-2 -36h-174l-17 -326h174l-2 -36h-174l-8 -151h-40zM284 513l-17 -326h2808l17 326h-2808z" />
    <glyph glyph-name="dollar" unicode="$" 
d="M67 86h3084q54 0 76.5 22.5t22.5 76.5v48q0 54 -22.5 76.5t-76.5 22.5h-2948q-71 0 -103.5 33t-32.5 106v40q0 73 32.5 106t103.5 33h1457v90h36v-90h1572v-36h-3062q-54 0 -76.5 -22.5t-22.5 -76.5v-48q0 -54 22.5 -76.5t76.5 -22.5h2948q71 0 103.5 -33t32.5 -106v-40
q0 -73 -32.5 -106t-103.5 -33h-1458v-90h-36v90h-1593v36z" />
    <glyph glyph-name="percent" unicode="%" horiz-adv-x="4157" 
d="M1658 0l792 700h49l-792 -700h-49zM2428 114v306q0 58 27.5 86t86.5 28h1422q59 0 86.5 -28t27.5 -86v-306q0 -58 -27.5 -86t-86.5 -28h-1422q-59 0 -86.5 28t-27.5 86zM4038 111v312q0 40 -18 57.5t-56 17.5h-1422q-38 0 -56 -17.5t-18 -57.5v-312q0 -40 18 -57.5
t56 -17.5h1422q38 0 56 17.5t18 57.5zM79 279v306q0 58 27.5 86t86.5 28h1422q59 0 86.5 -28t27.5 -86v-306q0 -58 -27.5 -86t-86.5 -28h-1422q-59 0 -86.5 28t-27.5 86zM1689 276v312q0 40 -18 57.5t-56 17.5h-1422q-38 0 -56 -17.5t-18 -57.5v-312q0 -40 18 -57.5
t56 -17.5h1422q38 0 56 17.5t18 57.5z" />
    <glyph glyph-name="ampersand" unicode="&#x26;" horiz-adv-x="3453" 
d="M3236 332h-2994q-68 0 -94.5 -28t-26.5 -98v-48q0 -65 27.5 -93.5t89.5 -28.5h2885q67 0 90 23.5t23 91.5v181zM81 155v44q0 78 28.5 112t96.5 39q-69 5 -97 39t-28 112v44q0 79 37.5 117t117.5 38h2990v-36h-2988q-62 0 -89.5 -28.5t-27.5 -93.5v-48q0 -70 26.5 -98
t94.5 -28h3174v-36h-140v-185q0 -79 -34 -113t-113 -34h-2893q-80 0 -117.5 38t-37.5 117z" />
    <glyph glyph-name="quotesingle" unicode="'" horiz-adv-x="214" 
d="M127 700v-49q0 -38 -13 -259h-14q-13 221 -13 259v49h40z" />
    <glyph glyph-name="parenleft" unicode="(" horiz-adv-x="362" 
d="M138 84q0 -70 28 -99t96 -29h37v-36h-42q-81 0 -120 39t-39 119v464q0 80 39 119t120 39h42v-36h-37q-68 0 -96 -29t-28 -99v-452z" />
    <glyph glyph-name="parenright" unicode=")" horiz-adv-x="362" 
d="M224 84v452q0 70 -28 99t-96 29h-37v36h42q81 0 120 -39t39 -119v-464q0 -80 -39 -119t-120 -39h-42v36h37q68 0 96 29t28 99z" />
    <glyph glyph-name="asterisk" unicode="*" horiz-adv-x="582" 
d="M298 443q66 34 159 64l82 26l11 -34l-82 -26q-110 -35 -166 -43l24 -27q25 -27 46 -53t40 -52l50 -70l-29 -21l-51 70q-57 79 -91 144q-34 -65 -91 -144l-51 -70l-29 21l50 70q19 26 40 52t46 53l24 27q-59 8 -166 43l-82 26l11 34l82 -26q93 -30 159 -64q-11 77 -11 171
v86h36v-86q0 -94 -11 -171z" />
    <glyph glyph-name="plus" unicode="+" 
d="M87 332v36h1574v332h36v-332h1575v-36h-1575v-332h-36v332h-1574z" />
    <glyph glyph-name="comma" unicode="," horiz-adv-x="322" 
d="M205 51v-47q0 -85 -72 -85h-16v26h17q32 0 32 42v17h-49v47h88z" />
    <glyph glyph-name="hyphen" unicode="-" horiz-adv-x="1140" 
d="M1081 345v-36h-1022v36h1022z" />
    <glyph glyph-name="period" unicode="." horiz-adv-x="322" 
d="M205 51v-51h-88v51h88z" />
    <glyph glyph-name="slash" unicode="/" horiz-adv-x="911" 
d="M42 0l778 700h49l-778 -700h-49z" />
    <glyph glyph-name="zero" unicode="0" 
d="M246 0q-81 0 -120 39t-39 119v384q0 80 39 119t120 39h2867q81 0 120 -39t39 -119v-384q0 -80 -39 -119t-120 -39h-2867zM3232 164v372q0 70 -28 99t-96 29h-2857q-68 0 -96 -29t-28 -99v-372q0 -70 28 -99t96 -29h2857q68 0 96 29t28 99z" />
    <glyph glyph-name="one" unicode="1" 
d="M2309 700v-664h970v-36h-3117v36h2107v628h-2107v36h2147z" />
    <glyph glyph-name="two" unicode="2" 
d="M3230 542q0 65 -27.5 93.5t-89.5 28.5h-3016v36h3018q80 0 117.5 -38t37.5 -117v-58q0 -79 -37.5 -117t-117.5 -38h-2846q-89 0 -125.5 -35.5t-36.5 -126.5v-134h3183v-36h-3223v176q0 192 192 192h2854q62 0 89.5 28.5t27.5 93.5v52z" />
    <glyph glyph-name="three" unicode="3" 
d="M3117 332h-2927v36h2927q68 0 94.5 28t26.5 98v48q0 65 -27.5 93.5t-89.5 28.5h-3056v36h3058q80 0 117.5 -38t37.5 -117v-44q0 -78 -28.5 -112t-97.5 -39q69 -5 97.5 -39t28.5 -112v-44q0 -79 -37.5 -117t-117.5 -38h-3058v36h3056q62 0 89.5 28.5t27.5 93.5v48
q0 70 -26.5 98t-94.5 28z" />
    <glyph glyph-name="four" unicode="4" 
d="M3210 368v332h40v-700h-40v332h-2985q-81 0 -120 39t-39 119v210h40v-204q0 -70 28 -99t96 -29h2980z" />
    <glyph glyph-name="five" unicode="5" 
d="M90 332v368h3169v-36h-3129v-296h3004q80 0 117.5 -38t37.5 -117v-58q0 -79 -37.5 -117t-117.5 -38h-3054v36h3052q62 0 89.5 28.5t27.5 93.5v52q0 65 -27.5 93.5t-89.5 28.5h-3042z" />
    <glyph glyph-name="six" unicode="6" 
d="M125 476v-108h3009q80 0 117.5 -38t37.5 -117v-58q0 -79 -37.5 -117t-117.5 -38h-2890q-81 0 -120 39t-39 119v322q0 108 56.5 164t164.5 56h2953v-36h-2947q-94 0 -140.5 -45.5t-46.5 -142.5zM3132 332h-3007v-168q0 -70 28 -99t96 -29h2883q62 0 89.5 28.5t27.5 93.5
v52q0 65 -27.5 93.5t-89.5 28.5z" />
    <glyph glyph-name="seven" unicode="7" 
d="M3091 368q89 0 125.5 35.5t36.5 126.5v134h-3215v36h3255v-176q0 -192 -192 -192h-1660q-89 0 -125.5 -35.5t-36.5 -126.5v-170h-40v176q0 192 192 192h1660z" />
    <glyph glyph-name="eight" unicode="8" 
d="M3278 545v-44q0 -78 -28.5 -112t-97.5 -39q69 -5 97.5 -39t28.5 -112v-44q0 -79 -37.5 -117t-117.5 -38h-2887q-80 0 -117.5 38t-37.5 117v44q0 78 28.5 112t96.5 39q-69 5 -97 39t-28 112v44q0 79 37.5 117t117.5 38h2887q80 0 117.5 -38t37.5 -117zM242 368h2875
q68 0 94.5 28t26.5 98v48q0 65 -27.5 93.5t-89.5 28.5h-2883q-62 0 -89.5 -28.5t-27.5 -93.5v-48q0 -70 26.5 -98t94.5 -28zM3117 332h-2875q-68 0 -94.5 -28t-26.5 -98v-48q0 -65 27.5 -93.5t89.5 -28.5h2883q62 0 89.5 28.5t27.5 93.5v48q0 70 -26.5 98t-94.5 28z" />
    <glyph glyph-name="nine" unicode="9" 
d="M3115 700q81 0 120 -39t39 -119v-322q0 -108 -56.5 -164t-164.5 -56h-2953v36h2947q94 0 140.5 45.5t46.5 142.5v108h-3009q-80 0 -117.5 38t-37.5 117v58q0 79 37.5 117t117.5 38h2890zM110 542v-52q0 -65 27.5 -93.5t89.5 -28.5h3007v168q0 70 -28 99t-96 29h-2883
q-62 0 -89.5 -28.5t-27.5 -93.5z" />
    <glyph glyph-name="colon" unicode=":" horiz-adv-x="322" 
d="M205 524v-51h-88v51h88zM205 51v-51h-88v51h88z" />
    <glyph glyph-name="semicolon" unicode=";" horiz-adv-x="322" 
d="M205 51v-47q0 -85 -72 -85h-16v26h17q32 0 32 42v17h-49v47h88zM205 524v-51h-88v51h88z" />
    <glyph glyph-name="less" unicode="&#x3c;" 
d="M87 350l447 350h60l-424 -332h3102v-36h-3102l424 -332h-60z" />
    <glyph glyph-name="equal" unicode="=" 
d="M137 202v36h3085v-36h-3085zM137 462v36h3085v-36h-3085z" />
    <glyph glyph-name="greater" unicode="&#x3e;" 
d="M3272 350l-447 -350h-60l424 332h-3102v36h3102l-424 332h60z" />
    <glyph glyph-name="question" unicode="?" horiz-adv-x="3293" 
d="M3202 490v52q0 65 -27.5 93.5t-89.5 28.5h-3048v36h3050q80 0 117.5 -38t37.5 -117v-58q0 -79 -37.5 -117t-117.5 -38h-1474q-52 0 -74 -21.5t-22 -75.5v-70h-40v71q0 132 132 132h1476q62 0 89.5 28.5t27.5 93.5zM1541 51v-51h-88v51h88z" />
    <glyph glyph-name="at" unicode="@" horiz-adv-x="3379" 
d="M246 0q-81 0 -120 39t-39 119v384q0 80 39 119t120 39h2887q81 0 120 -39t39 -119v-384q0 -80 -39 -119t-120 -39h-2887zM248 36h2883q62 0 91.5 30t29.5 92v384q0 62 -29.5 92t-91.5 30h-2883q-62 0 -91.5 -30t-29.5 -92v-384q0 -62 29.5 -92t91.5 -30zM3040 189h-2706
q-79 0 -79 81v16q0 81 79 81h2754v59q0 48 -48 48h-2770v36h2763q50 0 72.5 -23t22.5 -73v-136q0 -46 -21 -67.5t-67 -21.5zM336 331q-23 0 -32 -8.5t-9 -30.5v-28q0 -22 9 -30.5t32 -8.5h2711q19 0 30 11t11 30v65h-2752z" />
    <glyph glyph-name="A" unicode="A" horiz-adv-x="3391" 
d="M3293 0h-40v332h-3115v-332h-40v542q0 80 39 119t120 39h2877q81 0 120 -39t39 -119v-542zM3129 664h-2867q-68 0 -96 -29t-28 -99v-168h3115v168q0 70 -28 99t-96 29z" />
    <glyph glyph-name="B" unicode="B" horiz-adv-x="3385" 
d="M3304 199v-44q0 -79 -37.5 -117t-117.5 -38h-3040v700h3040q80 0 117.5 -38t37.5 -117v-44q0 -78 -28.5 -112t-97.5 -39q69 -5 97.5 -39t28.5 -112zM3143 368q68 0 94.5 28t26.5 98v48q0 65 -27.5 93.5t-89.5 28.5h-2998v-296h2994zM149 332v-296h2998q62 0 89.5 28.5
t27.5 93.5v48q0 70 -26.5 98t-94.5 28h-2994z" />
    <glyph glyph-name="C" unicode="C" horiz-adv-x="3277" 
d="M246 0q-81 0 -120 39t-39 119v384q0 80 39 119t120 39h2966v-36h-2961q-68 0 -96 -29t-28 -99v-372q0 -70 28 -99t96 -29h2961v-36h-2966z" />
    <glyph glyph-name="D" unicode="D" horiz-adv-x="3385" 
d="M3083 700q108 0 164.5 -56t56.5 -164v-260q0 -108 -56.5 -164t-164.5 -56h-2974v700h2974zM3077 36q94 0 140.5 45.5t46.5 142.5v252q0 97 -46.5 142.5t-140.5 45.5h-2928v-628h2928z" />
    <glyph glyph-name="E" unicode="E" horiz-adv-x="3349" 
d="M109 0v700h3175v-36h-3135v-296h3010v-36h-3010v-296h3135v-36h-3175z" />
    <glyph glyph-name="F" unicode="F" horiz-adv-x="3304" 
d="M109 0v700h3160v-36h-3120v-296h2995v-36h-2995v-332h-40z" />
    <glyph glyph-name="G" unicode="G" horiz-adv-x="3371" 
d="M3139 36q67 0 90 23.5t23 91.5v181h-1834v36h1874v-221q0 -79 -34 -113t-113 -34h-2899q-81 0 -120 39t-39 119v384q0 80 39 119t120 39h3021v-36h-3016q-68 0 -96 -29t-28 -99v-372q0 -70 28 -99t96 -29h2888z" />
    <glyph glyph-name="H" unicode="H" horiz-adv-x="3423" 
d="M3274 0v332h-3125v-332h-40v700h40v-332h3125v332h40v-700h-40z" />
    <glyph glyph-name="I" unicode="I" horiz-adv-x="258" 
d="M109 0v700h40v-700h-40z" />
    <glyph glyph-name="J" unicode="J" 
d="M66 147v195h40v-191q0 -68 23 -91.5t90 -23.5h2878q68 0 96 29t28 99v536h40v-542q0 -80 -39 -119t-120 -39h-2889q-79 0 -113 34t-34 113z" />
    <glyph glyph-name="K" unicode="K" horiz-adv-x="3394" 
d="M3304 700v-194q0 -79 -28.5 -115t-95.5 -41q67 -5 95.5 -41t28.5 -115v-194h-40v201q0 71 -27 101t-94 30h-2994v-332h-40v700h40v-332h2994q67 0 94 30t27 101v201h40z" />
    <glyph glyph-name="L" unicode="L" horiz-adv-x="3289" 
d="M3254 36v-36h-3145v700h40v-664h3105z" />
    <glyph glyph-name="M" unicode="M" horiz-adv-x="3990" 
d="M2158 700h1575q81 0 120 -39t39 -119v-542h-40v536q0 70 -28 99t-96 29h-1578q-75 0 -105 -31.5t-30 -108.5v-524h-40v524q0 77 -30 108.5t-105 31.5h-1578q-68 0 -96 -29t-28 -99v-536h-40v542q0 80 39 119t120 39h1575q78 0 116.5 -32.5t46.5 -101.5q8 69 46.5 101.5
t116.5 32.5z" />
    <glyph glyph-name="N" unicode="N" horiz-adv-x="3391" 
d="M262 664q-68 0 -96 -29t-28 -99v-536h-40v542q0 80 39 119t120 39h2877q81 0 120 -39t39 -119v-542h-40v536q0 70 -28 99t-96 29h-2867z" />
    <glyph glyph-name="O" unicode="O" horiz-adv-x="3379" 
d="M246 0q-81 0 -120 39t-39 119v384q0 80 39 119t120 39h2887q81 0 120 -39t39 -119v-384q0 -158 -159 -158h-2887zM3252 164v372q0 70 -28 99t-96 29h-2877q-64 0 -94 -29.5t-30 -98.5v-372q0 -72 27.5 -100t96.5 -28h2877q68 0 96 29t28 99z" />
    <glyph glyph-name="P" unicode="P" horiz-adv-x="3345" 
d="M109 0v700h3030q80 0 117.5 -38t37.5 -117v-58q0 -79 -37.5 -117t-117.5 -38h-2990v-332h-40zM3254 542q0 65 -27.5 93.5t-89.5 28.5h-2988v-296h2988q62 0 89.5 28.5t27.5 93.5v52z" />
    <glyph glyph-name="Q" unicode="Q" horiz-adv-x="3379" 
d="M246 0q-81 0 -120 39t-39 119v384q0 80 39 119t120 39h2887q81 0 120 -39t39 -119v-384q0 -158 -159 -158h-1425v-167h-37v167h-1425zM3252 164v372q0 70 -28 99t-96 29h-2877q-64 0 -94 -29.5t-30 -98.5v-372q0 -72 27.5 -100t96.5 -28h1420v259h37v-259h1420
q68 0 96 29t28 99z" />
    <glyph glyph-name="R" unicode="R" horiz-adv-x="3392" 
d="M3304 545v-44q0 -78 -28.5 -112t-96.5 -39q67 -5 96 -41t29 -115v-194h-40v201q0 71 -27 101t-94 30h-2994v-332h-40v700h3040q80 0 117.5 -38t37.5 -117zM3143 368q68 0 94.5 28t26.5 98v48q0 65 -27.5 93.5t-89.5 28.5h-2998v-296h2994z" />
    <glyph glyph-name="S" unicode="S" horiz-adv-x="3324" 
d="M244 332q-80 0 -117.5 38t-37.5 117v58q0 79 37.5 117t117.5 38h2980v-36h-2978q-62 0 -89.5 -28.5t-27.5 -93.5v-52q0 -65 27.5 -93.5t89.5 -28.5h2853q80 0 117.5 -38t37.5 -117v-58q0 -79 -37.5 -117t-117.5 -38h-3030v36h3028q62 0 89.5 28.5t27.5 93.5v52
q0 65 -27.5 93.5t-89.5 28.5h-2853z" />
    <glyph glyph-name="T" unicode="T" horiz-adv-x="3274" 
d="M3239 700v-36h-1582v-664h-40v664h-1582v36h3204z" />
    <glyph glyph-name="U" unicode="U" horiz-adv-x="3391" 
d="M257 0q-81 0 -120 39t-39 119v542h40v-536q0 -70 28 -99t96 -29h2867q68 0 96 29t28 99v536h40v-542q0 -80 -39 -119t-120 -39h-2877z" />
    <glyph glyph-name="V" unicode="V" horiz-adv-x="3383" 
d="M109 0v700h40v-664h2913q94 0 140.5 45.5t46.5 142.5v476h40v-480q0 -108 -56.5 -164t-164.5 -56h-2959z" />
    <glyph glyph-name="W" unicode="W" horiz-adv-x="3990" 
d="M3733 0h-1575q-78 0 -116.5 32.5t-46.5 101.5q-8 -69 -46.5 -101.5t-116.5 -32.5h-1575q-81 0 -120 39t-39 119v542h40v-536q0 -70 28 -99t96 -29h1578q75 0 105 31.5t30 108.5v524h40v-524q0 -77 30 -108.5t105 -31.5h1578q68 0 96 29t28 99v536h40v-542q0 -80 -39 -119
t-120 -39z" />
    <glyph glyph-name="X" unicode="X" horiz-adv-x="3385" 
d="M90 506v194h40v-201q0 -71 27 -101t94 -30h2883q67 0 94 30t27 101v201h40v-194q0 -79 -28.5 -115t-95.5 -41q67 -5 95.5 -41t28.5 -115v-194h-40v201q0 71 -27 101t-94 30h-2883q-67 0 -94 -30t-27 -101v-201h-40v194q0 79 28.5 115t95.5 41q-67 5 -95.5 41t-28.5 115z
" />
    <glyph glyph-name="Y" unicode="Y" horiz-adv-x="3336" 
d="M3230 700h40v-210q0 -80 -39 -119t-120 -39h-1423v-332h-40v332h-1423q-81 0 -120 39t-39 119v210h40v-204q0 -70 28 -99t96 -29h2876q68 0 96 29t28 99v204z" />
    <glyph glyph-name="Z" unicode="Z" horiz-adv-x="3332" 
d="M3060 368q89 0 125.5 35.5t36.5 126.5v134h-3125v36h3165v-176q0 -192 -192 -192h-2801q-89 0 -125.5 -35.5t-36.5 -126.5v-134h3155v-36h-3195v176q0 192 192 192h2801z" />
    <glyph glyph-name="bracketleft" unicode="[" horiz-adv-x="413" 
d="M109 700h241v-36h-201v-708h201v-36h-241v780z" />
    <glyph glyph-name="backslash" unicode="\" horiz-adv-x="911" 
d="M91 700l778 -700h-49l-778 700h49z" />
    <glyph glyph-name="bracketright" unicode="]" horiz-adv-x="413" 
d="M63 700h241v-780h-241v36h201v708h-201v36z" />
    <glyph glyph-name="asciicircum" unicode="^" 
d="M1680 720l1592 -411v-38l-1592 411l-1593 -411v38z" />
    <glyph glyph-name="underscore" unicode="_" horiz-adv-x="1500" 
d="M1500 -64v-36h-1500v36h1500z" />
    <glyph glyph-name="grave" unicode="`" horiz-adv-x="750" 
d="M471 657l-324 113h108l288 -113h-72z" />
    <glyph glyph-name="a" unicode="a" horiz-adv-x="3002" 
d="M2880 319v127q0 67 -27 94t-94 27h-2664v36h2669q81 0 118.5 -38t37.5 -119v-289q0 -81 -37.5 -119t-118.5 -38h-2563q-71 0 -103.5 33t-32.5 106v41q0 73 32.5 106t103.5 33h2679zM2880 283h-2676q-54 0 -76.5 -22.5t-22.5 -76.5v-49q0 -54 22.5 -76.5t76.5 -22.5h2555
q67 0 94 27t27 94v126z" />
    <glyph glyph-name="b" unicode="b" horiz-adv-x="3005" 
d="M93 157v613h40v-241q12 38 43 56t87 18h2504q81 0 118.5 -38t37.5 -119v-289q0 -81 -37.5 -119t-118.5 -38h-2518q-81 0 -118.5 38t-37.5 119zM133 446v-289q0 -67 27 -94t94 -27h2508q67 0 94 27t27 94v289q0 67 -27 94t-94 27h-2508q-67 0 -94 -27t-27 -94z" />
    <glyph glyph-name="c" unicode="c" horiz-adv-x="2924" 
d="M238 0q-81 0 -118.5 38t-37.5 119v289q0 81 37.5 119t118.5 38h2619v-36h-2614q-67 0 -94 -27t-27 -94v-289q0 -67 27 -94t94 -27h2614v-36h-2619z" />
    <glyph glyph-name="d" unicode="d" horiz-adv-x="3005" 
d="M2912 770v-613q0 -81 -37.5 -119t-118.5 -38h-2518q-81 0 -118.5 38t-37.5 119v289q0 81 37.5 119t118.5 38h2504q56 0 87 -18t43 -56v241h40zM2872 157v289q0 67 -27 94t-94 27h-2508q-67 0 -94 -27t-27 -94v-289q0 -67 27 -94t94 -27h2508q67 0 94 27t27 94z" />
    <glyph glyph-name="e" unicode="e" horiz-adv-x="3002" 
d="M2937 422q0 -73 -32.5 -106t-103.5 -33h-2679v-126q0 -67 29 -94t92 -27h2664v-36h-2669q-52 0 -84 13.5t-47.5 43.5t-20 62.5t-4.5 85.5v241q0 78 37.5 117.5t118.5 39.5h2563q72 0 104 -33t32 -106v-42zM2798 567h-2555q-30 0 -50.5 -4t-34 -15.5t-21 -22.5t-11 -37
t-4 -46t-0.5 -60v-63h2676q51 0 75 21.5t24 77.5v36q0 64 -19.5 88.5t-79.5 24.5z" />
    <glyph glyph-name="f" unicode="f" horiz-adv-x="2898" 
d="M277 567q-75 0 -109.5 -33t-34.5 -111v-104h2635v-36h-2635v-283h-40v423q0 92 44 136t136 44h2585v-36h-2581z" />
    <glyph glyph-name="g" unicode="g" horiz-adv-x="3005" 
d="M2751 73q67 0 94 27t27 94v252q0 67 -27 94t-94 27h-2508q-67 0 -94 -27t-27 -94v-252q0 -67 27 -94t94 -27h2508zM2742 37h-2504q-81 0 -118.5 38t-37.5 119v252q0 81 37.5 119t118.5 38h2518q81 0 118.5 -38t37.5 -119v-433q0 -92 -44 -136t-136 -44h-2610v36h2606
q75 0 109.5 33t34.5 111v98q-13 -39 -43.5 -56.5t-86.5 -17.5z" />
    <glyph glyph-name="h" unicode="h" horiz-adv-x="3017" 
d="M2884 446q0 67 -27 94t-94 27h-2498q-67 0 -94 -27t-27 -94v-446h-40v770h40v-241q12 38 43 56t87 18h2494q81 0 118.5 -38t37.5 -119v-446h-40v446z" />
    <glyph glyph-name="i" unicode="i" horiz-adv-x="422" 
d="M246 36h141v-36h-146q-78 0 -112 34.5t-34 112.5v456h40v-456q0 -63 24.5 -87t86.5 -24zM169 730v-41h-108v41h108z" />
    <glyph glyph-name="j" unicode="j" horiz-adv-x="270" 
d="M-66 -131h81q62 0 86.5 24t24.5 87v623h40v-623q0 -79 -33.5 -113t-112.5 -34h-86v36zM92 689v41h108v-41h-108z" />
    <glyph glyph-name="k" unicode="k" horiz-adv-x="3004" 
d="M2884 400v203h40v-175q0 -57 -19.5 -88.5t-73.5 -38.5q54 -7 73.5 -38.5t19.5 -88.5v-174h-40v202q0 43 -19.5 62t-62.5 19h-2658v-283h-40v770h40v-451h2658q43 0 62.5 19t19.5 62z" />
    <glyph glyph-name="l" unicode="l" horiz-adv-x="420" 
d="M244 36h141v-36h-146q-78 0 -112 34.5t-34 112.5v623h40v-623q0 -63 24.5 -87t86.5 -24z" />
    <glyph glyph-name="m" unicode="m" horiz-adv-x="3526" 
d="M1763 497q8 56 41 81t100 25h1373q81 0 118.5 -38t37.5 -119v-446h-40v446q0 67 -27 94t-94 27h-1390q-99 0 -99 -102v-465h-40v465q0 102 -99 102h-1390q-67 0 -94 -27t-27 -94v-446h-40v446q0 81 37.5 119t118.5 38h1373q67 0 100 -25t41 -81z" />
    <glyph glyph-name="n" unicode="n" horiz-adv-x="3006" 
d="M93 0v446q0 81 37.5 119t118.5 38h2508q81 0 118.5 -38t37.5 -119v-446h-40v446q0 67 -27 94t-94 27h-2498q-67 0 -94 -27t-27 -94v-446h-40z" />
    <glyph glyph-name="o" unicode="o" horiz-adv-x="2994" 
d="M2756 603q81 0 118.5 -38t37.5 -119v-289q0 -81 -37.5 -119t-118.5 -38h-2518q-81 0 -118.5 38t-37.5 119v289q0 81 37.5 119t118.5 38h2518zM2751 36q67 0 94 27t27 94v289q0 67 -27 94t-94 27h-2508q-67 0 -94 -27t-27 -94v-289q0 -67 27 -94t94 -27h2508z" />
    <glyph glyph-name="p" unicode="p" horiz-adv-x="3005" 
d="M93 -167v613q0 81 37.5 119t118.5 38h2518q81 0 118.5 -38t37.5 -119v-289q0 -81 -37.5 -119t-118.5 -38h-2504q-56 0 -87 18t-43 56v-241h-40zM133 446v-289q0 -67 27 -94t94 -27h2508q67 0 94 27t27 94v289q0 67 -27 94t-94 27h-2508q-67 0 -94 -27t-27 -94z" />
    <glyph glyph-name="q" unicode="q" horiz-adv-x="3005" 
d="M2912 446v-613h-40v241q-12 -38 -43 -56t-87 -18h-2504q-81 0 -118.5 38t-37.5 119v289q0 81 37.5 119t118.5 38h2518q81 0 118.5 -38t37.5 -119zM2872 157v289q0 67 -27 94t-94 27h-2508q-67 0 -94 -27t-27 -94v-289q0 -67 27 -94t94 -27h2508q67 0 94 27t27 94z" />
    <glyph glyph-name="r" unicode="r" horiz-adv-x="2783" 
d="M2743 603v-36h-2489q-67 0 -94 -27t-27 -94v-446h-40v446q0 81 37.5 119t118.5 38h2494z" />
    <glyph glyph-name="s" unicode="s" horiz-adv-x="2969" 
d="M2874 567h-2666q-54 0 -76.5 -22.5t-22.5 -76.5v-50q0 -54 23 -76.5t76 -22.5h2560q71 0 103.5 -33t32.5 -106v-41q0 -73 -32.5 -106t-103.5 -33h-2699v36h2696q54 0 76.5 22.5t22.5 76.5v49q0 54 -22.5 76.5t-76.5 22.5h-2560q-71 0 -103.5 33t-32.5 106v42
q0 73 32.5 106t103.5 33h2669v-36z" />
    <glyph glyph-name="t" unicode="t" horiz-adv-x="2830" 
d="M249 0q-81 0 -118.5 38t-37.5 119v613h40v-167h2630v-36h-2630v-410q0 -67 27 -94t94 -27h2509v-36h-2514z" />
    <glyph glyph-name="u" unicode="u" horiz-adv-x="3006" 
d="M2752 36q67 0 94 27t27 94v446h40v-446q0 -81 -37.5 -119t-118.5 -38h-2508q-81 0 -118.5 38t-37.5 119v446h40v-446q0 -67 27 -94t94 -27h2498z" />
    <glyph glyph-name="v" unicode="v" horiz-adv-x="3002" 
d="M2914 603v-423q0 -92 -44 -136t-136 -44h-2630v603h40v-567h2586q75 0 109.5 33t34.5 111v423h40z" />
    <glyph glyph-name="w" unicode="w" horiz-adv-x="3526" 
d="M1763 106q-8 -56 -41 -81t-100 -25h-1373q-81 0 -118.5 38t-37.5 119v446h40v-446q0 -67 27 -94t94 -27h1390q99 0 99 102v465h40v-465q0 -102 99 -102h1390q67 0 94 27t27 94v446h40v-446q0 -81 -37.5 -119t-118.5 -38h-1373q-67 0 -100 25t-41 81z" />
    <glyph glyph-name="x" unicode="x" horiz-adv-x="3010" 
d="M2890 400v203h40v-175q0 -57 -19.5 -88.5t-73.5 -38.5q54 -7 73.5 -38.5t19.5 -88.5v-174h-40v202q0 43 -19.5 62t-62.5 19h-2606q-43 0 -62.5 -19t-19.5 -62v-202h-40v174q0 57 19.5 88.5t73.5 38.5q-54 7 -73.5 38.5t-19.5 88.5v175h40v-203q0 -43 19.5 -62t62.5 -19
h2606q43 0 62.5 19t19.5 62z" />
    <glyph glyph-name="y" unicode="y" horiz-adv-x="3017" 
d="M2733 -167h-2600v36h2596q75 0 109.5 33t34.5 111v98q-13 -39 -43.5 -56.5t-86.5 -17.5h-2494q-81 0 -118.5 38t-37.5 119v409h40v-409q0 -67 27 -94t94 -27h2498q67 0 94 27t27 94v409h40v-590q0 -92 -44 -136t-136 -44z" />
    <glyph glyph-name="z" unicode="z" horiz-adv-x="2977" 
d="M248 283q-74 0 -107 -33.5t-33 -106.5v-107h2800v-36h-2840v138q0 181 181 181h2479q74 0 107 33.5t33 106.5v108h-2775v36h2815v-139q0 -181 -181 -181h-2479z" />
    <glyph glyph-name="braceleft" unicode="{" horiz-adv-x="384" 
d="M166 536v-119q0 -107 -71 -107q71 0 71 -107v-119q0 -70 28 -99t96 -29h37v-36h-42q-81 0 -120 39t-39 119v149q0 36 -13 50.5t-48 14.5h-22v36h22q35 0 48 14.5t13 50.5v149q0 80 39 119t120 39h42v-36h-37q-68 0 -96 -29t-28 -99z" />
    <glyph glyph-name="bar" unicode="|" horiz-adv-x="292" 
d="M128 -167v907h36v-907h-36z" />
    <glyph glyph-name="braceright" unicode="}" horiz-adv-x="384" 
d="M218 417v119q0 70 -28 99t-96 29h-37v36h42q81 0 120 -39t39 -119v-149q0 -36 13 -50.5t48 -14.5h22v-36h-22q-35 0 -48 -14.5t-13 -50.5v-149q0 -80 -39 -119t-120 -39h-42v36h37q68 0 96 29t28 99v119q0 107 71 107q-71 0 -71 107z" />
    <glyph glyph-name="asciitilde" unicode="~" 
d="M87 304v36q263 98 670 98q242 0 582 -35t680.5 -70t582.5 -35q406 0 670 98v-36q-262 -98 -673 -98q-194 0 -452 21.5t-471 48t-470.5 48t-450.5 21.5q-408 0 -668 -97z" />
    <glyph glyph-name="uni00A0" unicode="&#xa0;" horiz-adv-x="770" 
 />
    <glyph glyph-name="exclamdown" unicode="&#xa1;" horiz-adv-x="328" 
d="M120 579v51h88v-51h-88zM144 -70v236q0 109 10 299h20q10 -190 10 -299v-236h-40z" />
    <glyph glyph-name="cent" unicode="&#xa2;" 
d="M1711 -40v90h-1468q-81 0 -118.5 38t-37.5 119v286q0 81 37.5 119t118.5 38h1468v90h36v-90h1540v-36h-1540v-528h1540v-36h-1540v-90h-36zM248 86h1463v528h-1463q-67 0 -94 -27t-27 -94v-286q0 -67 27 -94t94 -27z" />
    <glyph glyph-name="sterling" unicode="&#xa3;" 
d="M334 36h2962v-36h-3233v36h231v296h-231v36h231v175q0 81 37.5 119t118.5 38h2746v-36h-2741q-67 0 -94 -27t-27 -94v-175h2862v-36h-2862v-296z" />
    <glyph glyph-name="currency" unicode="&#xa4;" 
d="M148 494q0 81 37.5 119t118.5 38h1358v89h36v-89h1357q81 0 118.5 -38t37.5 -119v-126h110v-36h-110v-127q0 -81 -37.5 -119t-118.5 -38h-1357v-88h-36v88h-1358q-81 0 -118.5 38t-37.5 119v127h-110v36h110v126zM3050 615h-2741q-67 0 -94 -27t-27 -94v-289
q0 -67 27 -94t94 -27h2741q67 0 94 27t27 94v289q0 67 -27 94t-94 27z" />
    <glyph glyph-name="yen" unicode="&#xa5;" 
d="M3247 700h40v-157q0 -80 -39 -119t-120 -39h-1429v-171h1558v-36h-1558v-178h-40v178h-1558v36h1558v171h-1429q-81 0 -120 39t-39 119v157h40v-151q0 -70 28 -99t96 -29h2888q68 0 96 29t28 99v151z" />
    <glyph glyph-name="brokenbar" unicode="&#xa6;" horiz-adv-x="292" 
d="M128 -167v394h36v-394h-36zM128 347v393h36v-393h-36z" />
    <glyph glyph-name="section" unicode="&#xa7;" horiz-adv-x="3255" 
d="M212 435h2835q71 0 103.5 -33t32.5 -106v-31q0 -56 -21.5 -83t-74.5 -31q53 -5 74.5 -31.5t21.5 -82.5v-30q0 -73 -32.5 -106t-103.5 -33h-2939v36h2936q54 0 76.5 22.5t22.5 76.5v39q0 51 -21 71t-73 20h-2835q-71 0 -103.5 33t-32.5 106v31q0 56 21 83t74 31
q-53 4 -74 31t-21 83v30q0 73 32.5 106t103.5 33h2939v-36h-2936q-54 0 -76.5 -22.5t-22.5 -76.5v-39q0 -51 21 -71t73 -20zM3044 399h-2832q-52 0 -73 -20t-21 -71v-40q0 -53 22 -76t77 -23h2832q52 0 73 20t21 71v40q0 54 -22.5 76.5t-76.5 22.5z" />
    <glyph glyph-name="dieresis" unicode="&#xa8;" horiz-adv-x="750" 
d="M194 730v-41h-108v41h108zM664 730v-41h-108v41h108z" />
    <glyph glyph-name="copyright" unicode="&#xa9;" horiz-adv-x="3379" 
d="M334 189q-46 0 -67 21.5t-21 67.5v143q0 46 21 67.5t67 21.5h2785v-36h-2792q-19 0 -30 -11t-11 -30v-167q0 -19 11 -30t30 -11h2792v-36h-2785zM246 0q-81 0 -120 39t-39 119v384q0 80 39 119t120 39h2887q81 0 120 -39t39 -119v-384q0 -80 -39 -119t-120 -39h-2887z
M248 36h2883q62 0 91.5 30t29.5 92v384q0 62 -29.5 92t-91.5 30h-2883q-62 0 -91.5 -30t-29.5 -92v-384q0 -62 29.5 -92t91.5 -30z" />
    <glyph glyph-name="ordfeminine" unicode="&#xaa;" horiz-adv-x="2394" 
d="M2280 451v141q0 39 -16 55.5t-54 16.5h-2126v36h2122q59 0 86.5 -28t27.5 -86v-306q0 -58 -27.5 -86t-86.5 -28h-2032q-59 0 -86 28t-27 86v57q0 58 27 86t86 28h2106zM101 343v-68q0 -40 16 -56.5t54 -16.5h2039q38 0 54 16.5t16 55.5v141h-2109q-38 0 -54 -16.5
t-16 -55.5zM1208 70l53 -70h-106z" />
    <glyph glyph-name="guillemotleft" unicode="&#xab;" horiz-adv-x="692" 
d="M401 51h-53l-304 249l304 249h53l-304 -249zM648 51h-53l-304 249l304 249h53l-304 -249z" />
    <glyph glyph-name="logicalnot" unicode="&#xac;" 
d="M86 332v36h3186v-368h-36v332h-3150z" />
    <glyph glyph-name="uni00AD" unicode="&#xad;" horiz-adv-x="1140" 
d="M1081 345v-36h-1022v36h1022z" />
    <glyph glyph-name="registered" unicode="&#xae;" horiz-adv-x="3379" 
d="M246 0q-81 0 -120 39t-39 119v384q0 80 39 119t120 39h2887q81 0 120 -39t39 -119v-384q0 -80 -39 -119t-120 -39h-2887zM248 36h2883q62 0 91.5 30t29.5 92v384q0 62 -29.5 92t-91.5 30h-2883q-62 0 -91.5 -30t-29.5 -92v-384q0 -62 29.5 -92t91.5 -30zM3129 417
q0 -31 -11.5 -48t-43.5 -20q32 -3 43.5 -20t11.5 -48v-92h-40v116q0 26 -27 26h-2767v-142h-40v321h2806q68 0 68 -68v-25zM3089 448q0 26 -27 26h-2767v-107h2767q27 0 27 26v55z" />
    <glyph glyph-name="macron" unicode="&#xaf;" horiz-adv-x="750" 
d="M679 701h-608v28h608v-28z" />
    <glyph glyph-name="degree" unicode="&#xb0;" horiz-adv-x="1366" 
d="M57 558q0 142 151 142h950q151 0 151 -142v-100q0 -142 -151 -142h-950q-151 0 -151 142v100zM210 664q-64 0 -88.5 -25t-24.5 -87v-88q0 -62 24.5 -87t88.5 -25h946q64 0 88.5 25t24.5 87v88q0 62 -24.5 87t-88.5 25h-946z" />
    <glyph glyph-name="plusminus" unicode="&#xb1;" 
d="M87 332v36h1574v332h36v-332h1575v-36h-1575v-296h1575v-36h-3185v36h1574v296h-1574z" />
    <glyph glyph-name="twosuperior" unicode="&#xb2;" horiz-adv-x="1808" 
d="M1707 528v59q0 43 -16.5 60t-58.5 17h-1548v36h1550q58 0 85.5 -28t27.5 -86v-57q0 -58 -27.5 -86t-85.5 -28h-1419q-63 0 -86.5 -23.5t-23.5 -85.5v-104h1642v-36h-1682v146q0 139 139 139h1428q42 0 58.5 17t16.5 60z" />
    <glyph glyph-name="threesuperior" unicode="&#xb3;" horiz-adv-x="1808" 
d="M1743 586v-52q0 -46 -18.5 -70.5t-71.5 -30.5q53 -6 71.5 -30.5t18.5 -70.5v-52q0 -58 -27.5 -86t-85.5 -28h-1573v36h1571q42 0 58.5 17t16.5 60v60q0 42 -17 59t-56 17h-1480v36h1480q39 0 56 17t17 59v60q0 43 -16.5 60t-58.5 17h-1571v36h1573q58 0 85.5 -28
t27.5 -86z" />
    <glyph glyph-name="acute" unicode="&#xb4;" horiz-adv-x="750" 
d="M607 770l-330 -113h-72l286 113h116z" />
    <glyph glyph-name="uni00B5" unicode="&#xb5;" horiz-adv-x="3017" 
d="M265 36h2498q67 0 94 27t27 94v446h40v-446q0 -81 -37.5 -119t-118.5 -38h-2494q-56 0 -87 18t-43 56v-241h-40v770h40v-446q0 -67 27 -94t94 -27z" />
    <glyph glyph-name="paragraph" unicode="&#xb6;" horiz-adv-x="2805" 
d="M2696 700v-832h-40v797h-261v-797h-40v407h-2124q-92 0 -136 44.5t-44 135.5v65q0 91 44 135.5t136 44.5h2465z" />
    <glyph glyph-name="periodcentered" unicode="&#xb7;" horiz-adv-x="322" 
d="M205 375v-51h-88v51h88z" />
    <glyph glyph-name="cedilla" unicode="&#xb8;" horiz-adv-x="750" 
d="M350 -53h225q54 0 79 -9t25 -38q0 -40 -33 -53.5t-109 -13.5h-466v36h474q58 0 79 6.5t21 27.5q0 19 -14.5 23.5t-59.5 4.5h-245l26 69h17z" />
    <glyph glyph-name="onesuperior" unicode="&#xb9;" horiz-adv-x="1808" 
d="M141 166v36h889v462h-889v36h929v-498h661v-36h-1590z" />
    <glyph glyph-name="ordmasculine" unicode="&#xba;" horiz-adv-x="2408" 
d="M74 280v306q0 58 27.5 86t86.5 28h2032q59 0 86.5 -28t27.5 -86v-306q0 -58 -27.5 -86t-86.5 -28h-2032q-59 0 -86.5 28t-27.5 86zM2224 202q38 0 54 16.5t16 55.5v318q0 39 -16.5 55.5t-53.5 16.5h-2040q-38 0 -54 -16.5t-16 -55.5v-318q0 -39 16 -55.5t54 -16.5h2040z
M1221 70l53 -70h-106z" />
    <glyph glyph-name="guillemotright" unicode="&#xbb;" horiz-adv-x="692" 
d="M97 51h-53l304 249l-304 249h53l304 -249zM344 51h-53l304 249l-304 249h53l304 -249z" />
    <glyph glyph-name="onequarter" unicode="&#xbc;" horiz-adv-x="4157" 
d="M1658 0l792 700h49l-792 -700h-49zM141 166v36h889v462h-889v36h929v-498h661v-36h-1590zM4018 285v249h40v-534h-40v249h-1494q-59 0 -86.5 28t-27.5 86v171h40v-174q0 -40 18 -57.5t56 -17.5h1494z" />
    <glyph glyph-name="onehalf" unicode="&#xbd;" horiz-adv-x="4157" 
d="M1658 0l792 700h49l-792 -700h-49zM141 166v36h889v462h-889v36h929v-498h661v-36h-1590zM4056 362v59q0 43 -16.5 60t-58.5 17h-1548v36h1550q58 0 85.5 -28t27.5 -86v-57q0 -58 -27.5 -86t-85.5 -28h-1419q-63 0 -86.5 -23.5t-23.5 -85.5v-104h1642v-36h-1682v146
q0 139 139 139h1428q42 0 58.5 17t16.5 60z" />
    <glyph glyph-name="threequarters" unicode="&#xbe;" horiz-adv-x="4157" 
d="M1658 0l792 700h49l-792 -700h-49zM4018 285v249h40v-534h-40v249h-1494q-59 0 -86.5 28t-27.5 86v171h40v-174q0 -40 18 -57.5t56 -17.5h1494zM1743 586v-52q0 -46 -18.5 -70.5t-71.5 -30.5q53 -6 71.5 -30.5t18.5 -70.5v-52q0 -58 -27.5 -86t-85.5 -28h-1573v36h1571
q42 0 58.5 17t16.5 60v60q0 42 -17 59t-56 17h-1480v36h1480q39 0 56 17t17 59v60q0 43 -16.5 60t-58.5 17h-1571v36h1573q58 0 85.5 -28t27.5 -86z" />
    <glyph glyph-name="questiondown" unicode="&#xbf;" horiz-adv-x="3289" 
d="M91 140v-52q0 -65 27.5 -93.5t89.5 -28.5h3048v-36h-3050q-80 0 -117.5 38t-37.5 117v58q0 79 37.5 117t117.5 38h1474q52 0 74 21.5t22 75.5v70h40v-71q0 -132 -132 -132h-1476q-62 0 -89.5 -28.5t-27.5 -93.5zM1752 579v51h88v-51h-88z" />
    <glyph glyph-name="Agrave" unicode="&#xc0;" horiz-adv-x="3391" 
d="M3293 0h-40v332h-3115v-332h-40v542q0 80 39 119t120 39h2877q81 0 120 -39t39 -119v-542zM3129 664h-2867q-68 0 -96 -29t-28 -99v-168h3115v168q0 70 -28 99t-96 29zM1731 759l-324 113h108l288 -113h-72z" />
    <glyph glyph-name="Aacute" unicode="&#xc1;" horiz-adv-x="3391" 
d="M3293 0h-40v332h-3115v-332h-40v542q0 80 39 119t120 39h2877q81 0 120 -39t39 -119v-542zM3129 664h-2867q-68 0 -96 -29t-28 -99v-168h3115v168q0 70 -28 99t-96 29zM1987 872l-330 -113h-72l286 113h116z" />
    <glyph glyph-name="Acircumflex" unicode="&#xc2;" horiz-adv-x="3391" 
d="M3293 0h-40v332h-3115v-332h-40v542q0 80 39 119t120 39h2877q81 0 120 -39t39 -119v-542zM3129 664h-2867q-68 0 -96 -29t-28 -99v-168h3115v168q0 70 -28 99t-96 29zM1695 846l-272 -87h-61l294 113h78l294 -113h-61z" />
    <glyph glyph-name="Atilde" unicode="&#xc3;" horiz-adv-x="3391" 
d="M3293 0h-40v332h-3115v-332h-40v542q0 80 39 119t120 39h2877q81 0 120 -39t39 -119v-542zM3129 664h-2867q-68 0 -96 -29t-28 -99v-168h3115v168q0 70 -28 99t-96 29zM1391 773v33q84 66 162 66q52 0 144 -39t142 -39q78 0 160 67v-33q-84 -66 -164 -66q-52 0 -144 39
t-142 39q-78 0 -158 -67z" />
    <glyph glyph-name="Adieresis" unicode="&#xc4;" horiz-adv-x="3391" 
d="M3293 0h-40v332h-3115v-332h-40v542q0 80 39 119t120 39h2877q81 0 120 -39t39 -119v-542zM3129 664h-2867q-68 0 -96 -29t-28 -99v-168h3115v168q0 70 -28 99t-96 29zM1514 832v-41h-108v41h108zM1984 832v-41h-108v41h108z" />
    <glyph glyph-name="Aring" unicode="&#xc5;" horiz-adv-x="3391" 
d="M3293 0h-40v332h-3115v-332h-40v542q0 80 39 119t120 39h2877q81 0 120 -39t39 -119v-542zM3129 664h-2867q-68 0 -96 -29t-28 -99v-168h3115v168q0 70 -28 99t-96 29zM1537 816q0 -33 50 -33h216q50 0 50 33q0 16 -11 24t-39 8h-216q-28 0 -39 -8t-11 -24zM1801 759
h-212q-79 0 -79 57q0 56 79 56h212q79 0 79 -56q0 -57 -79 -57z" />
    <glyph glyph-name="AE" unicode="&#xc6;" horiz-adv-x="5195" 
d="M2606 0v332h-2468v-332h-40v542q0 80 39 119t120 39h4873v-36h-2484v-296h2359v-36h-2359v-296h2484v-36h-2524zM262 664q-68 0 -96 -29t-28 -99v-168h2468v296h-2344z" />
    <glyph glyph-name="Ccedilla" unicode="&#xc7;" horiz-adv-x="3277" 
d="M1672 0l-19 -53h225q54 0 79 -9t25 -38q0 -40 -33 -53.5t-109 -13.5h-466v36h474q58 0 79 6.5t21 27.5q0 19 -14.5 23.5t-59.5 4.5h-245l26 69h-1409q-81 0 -120 39t-39 119v384q0 80 39 119t120 39h2966v-36h-2961q-68 0 -96 -29t-28 -99v-372q0 -70 28 -99t96 -29h2961
v-36h-1540z" />
    <glyph glyph-name="Egrave" unicode="&#xc8;" horiz-adv-x="3349" 
d="M109 0v700h3175v-36h-3135v-296h3010v-36h-3010v-296h3135v-36h-3175zM1749 759l-324 113h108l288 -113h-72z" />
    <glyph glyph-name="Eacute" unicode="&#xc9;" horiz-adv-x="3349" 
d="M109 0v700h3175v-36h-3135v-296h3010v-36h-3010v-296h3135v-36h-3175zM2005 872l-330 -113h-72l286 113h116z" />
    <glyph glyph-name="Ecircumflex" unicode="&#xca;" horiz-adv-x="3349" 
d="M109 0v700h3175v-36h-3135v-296h3010v-36h-3010v-296h3135v-36h-3175zM1713 846l-272 -87h-61l294 113h78l294 -113h-61z" />
    <glyph glyph-name="Edieresis" unicode="&#xcb;" horiz-adv-x="3349" 
d="M109 0v700h3175v-36h-3135v-296h3010v-36h-3010v-296h3135v-36h-3175zM1532 832v-41h-108v41h108zM2002 832v-41h-108v41h108z" />
    <glyph glyph-name="Igrave" unicode="&#xcc;" horiz-adv-x="258" 
d="M109 0v700h40v-700h-40zM165 759l-324 113h108l288 -113h-72z" />
    <glyph glyph-name="Iacute" unicode="&#xcd;" horiz-adv-x="258" 
d="M109 0v700h40v-700h-40zM421 872l-330 -113h-72l286 113h116z" />
    <glyph glyph-name="Icircumflex" unicode="&#xce;" horiz-adv-x="258" 
d="M109 0v700h40v-700h-40zM129 846l-272 -87h-61l294 113h78l294 -113h-61z" />
    <glyph glyph-name="Idieresis" unicode="&#xcf;" horiz-adv-x="258" 
d="M328 832v-41h-108v41h108zM38 832v-41h-108v41h108zM109 0v700h40v-700h-40z" />
    <glyph glyph-name="Eth" unicode="&#xd0;" horiz-adv-x="3386" 
d="M3083 700q108 0 164.5 -56t56.5 -164v-260q0 -108 -56.5 -164t-164.5 -56h-2974v332h-89v36h89v332h2974zM3077 36q94 0 140.5 45.5t46.5 142.5v252q0 97 -46.5 142.5t-140.5 45.5h-2928v-296h479v-36h-479v-296h2928z" />
    <glyph glyph-name="Ntilde" unicode="&#xd1;" horiz-adv-x="3391" 
d="M262 664q-68 0 -96 -29t-28 -99v-536h-40v542q0 80 39 119t120 39h2877q81 0 120 -39t39 -119v-542h-40v536q0 70 -28 99t-96 29h-2867zM1391 773v33q84 66 162 66q52 0 144 -39t142 -39q78 0 160 67v-33q-84 -66 -164 -66q-52 0 -144 39t-142 39q-78 0 -158 -67z" />
    <glyph glyph-name="Ograve" unicode="&#xd2;" horiz-adv-x="3379" 
d="M246 0q-81 0 -120 39t-39 119v384q0 80 39 119t120 39h2887q81 0 120 -39t39 -119v-384q0 -158 -159 -158h-2887zM3252 164v372q0 70 -28 99t-96 29h-2877q-64 0 -94 -29.5t-30 -98.5v-372q0 -72 27.5 -100t96.5 -28h2877q68 0 96 29t28 99zM1725 759l-324 113h108
l288 -113h-72z" />
    <glyph glyph-name="Oacute" unicode="&#xd3;" horiz-adv-x="3379" 
d="M246 0q-81 0 -120 39t-39 119v384q0 80 39 119t120 39h2887q81 0 120 -39t39 -119v-384q0 -158 -159 -158h-2887zM3252 164v372q0 70 -28 99t-96 29h-2877q-64 0 -94 -29.5t-30 -98.5v-372q0 -72 27.5 -100t96.5 -28h2877q68 0 96 29t28 99zM1981 872l-330 -113h-72
l286 113h116z" />
    <glyph glyph-name="Ocircumflex" unicode="&#xd4;" horiz-adv-x="3379" 
d="M246 0q-81 0 -120 39t-39 119v384q0 80 39 119t120 39h2887q81 0 120 -39t39 -119v-384q0 -158 -159 -158h-2887zM3252 164v372q0 70 -28 99t-96 29h-2877q-64 0 -94 -29.5t-30 -98.5v-372q0 -72 27.5 -100t96.5 -28h2877q68 0 96 29t28 99zM1689 846l-272 -87h-61
l294 113h78l294 -113h-61z" />
    <glyph glyph-name="Otilde" unicode="&#xd5;" horiz-adv-x="3379" 
d="M246 0q-81 0 -120 39t-39 119v384q0 80 39 119t120 39h2887q81 0 120 -39t39 -119v-384q0 -158 -159 -158h-2887zM3252 164v372q0 70 -28 99t-96 29h-2877q-64 0 -94 -29.5t-30 -98.5v-372q0 -72 27.5 -100t96.5 -28h2877q68 0 96 29t28 99zM1385 773v33q84 66 162 66
q52 0 144 -39t142 -39q78 0 160 67v-33q-84 -66 -164 -66q-52 0 -144 39t-142 39q-78 0 -158 -67z" />
    <glyph glyph-name="Odieresis" unicode="&#xd6;" horiz-adv-x="3379" 
d="M246 0q-81 0 -120 39t-39 119v384q0 80 39 119t120 39h2887q81 0 120 -39t39 -119v-384q0 -158 -159 -158h-2887zM3252 164v372q0 70 -28 99t-96 29h-2877q-64 0 -94 -29.5t-30 -98.5v-372q0 -72 27.5 -100t96.5 -28h2877q68 0 96 29t28 99zM1508 832v-41h-108v41h108z
M1978 832v-41h-108v41h108z" />
    <glyph glyph-name="multiply" unicode="&#xd7;" 
d="M1732 332l368 -332h-54l-367 332l-367 -332h-54l367 332h-1538v36h1538l-367 332h54l367 -333l367 333h54l-368 -332h1540v-36h-1540z" />
    <glyph glyph-name="Oslash" unicode="&#xd8;" horiz-adv-x="3379" 
d="M246 0q-81 0 -120 39t-39 119v384q0 80 39 119t120 39h2887q81 0 120 -39t39 -119v-384q0 -158 -159 -158h-2887zM256 36l2715 628h-2720q-64 0 -94 -29.5t-30 -98.5v-372q0 -72 27.5 -100t96.5 -28h5zM3252 164v372q0 70 -28 99t-96 29h-1l-2715 -628h2716q68 0 96 29
t28 99z" />
    <glyph glyph-name="Ugrave" unicode="&#xd9;" horiz-adv-x="3391" 
d="M257 0q-81 0 -120 39t-39 119v542h40v-536q0 -70 28 -99t96 -29h2867q68 0 96 29t28 99v536h40v-542q0 -80 -39 -119t-120 -39h-2877zM1731 759l-324 113h108l288 -113h-72z" />
    <glyph glyph-name="Uacute" unicode="&#xda;" horiz-adv-x="3391" 
d="M257 0q-81 0 -120 39t-39 119v542h40v-536q0 -70 28 -99t96 -29h2867q68 0 96 29t28 99v536h40v-542q0 -80 -39 -119t-120 -39h-2877zM1978 872l-330 -113h-72l286 113h116z" />
    <glyph glyph-name="Ucircumflex" unicode="&#xdb;" horiz-adv-x="3391" 
d="M257 0q-81 0 -120 39t-39 119v542h40v-536q0 -70 28 -99t96 -29h2867q68 0 96 29t28 99v536h40v-542q0 -80 -39 -119t-120 -39h-2877zM1695 846l-272 -87h-61l294 113h78l294 -113h-61z" />
    <glyph glyph-name="Udieresis" unicode="&#xdc;" horiz-adv-x="3391" 
d="M257 0q-81 0 -120 39t-39 119v542h40v-536q0 -70 28 -99t96 -29h2867q68 0 96 29t28 99v536h40v-542q0 -80 -39 -119t-120 -39h-2877zM1514 832v-41h-108v41h108zM1984 832v-41h-108v41h108z" />
    <glyph glyph-name="Yacute" unicode="&#xdd;" horiz-adv-x="3336" 
d="M3230 700h40v-210q0 -80 -39 -119t-120 -39h-1423v-332h-40v332h-1423q-81 0 -120 39t-39 119v210h40v-204q0 -70 28 -99t96 -29h2876q68 0 96 29t28 99v204zM1951 872l-330 -113h-72l286 113h116z" />
    <glyph glyph-name="Thorn" unicode="&#xde;" horiz-adv-x="3345" 
d="M109 0v700h40v-97h2990q80 0 117.5 -38t37.5 -117v-58q0 -79 -37.5 -117t-117.5 -38h-2990v-235h-40zM3254 445q0 65 -27.5 93.5t-89.5 28.5h-2988v-296h2988q62 0 89.5 28.5t27.5 93.5v52z" />
    <glyph glyph-name="germandbls" unicode="&#xdf;" horiz-adv-x="3027" 
d="M2824 283h-2257v36h2257q52 0 73 20t21 71v58q0 54 -22.5 76.5t-76.5 22.5h-2542q-75 0 -109.5 -33t-34.5 -111v-422h-40v422q0 92 44 136t136 44h2549q71 0 103.5 -33t32.5 -106v-49q0 -56 -21.5 -83t-74.5 -31q53 -4 74.5 -31t21.5 -83v-48q0 -73 -32.5 -106
t-103.5 -33h-2255v36h2252q54 0 76.5 22.5t22.5 76.5v57q0 51 -21 71t-73 20z" />
    <glyph glyph-name="agrave" unicode="&#xe0;" horiz-adv-x="3002" 
d="M2880 319v127q0 67 -27 94t-94 27h-2664v36h2669q81 0 118.5 -38t37.5 -119v-289q0 -81 -37.5 -119t-118.5 -38h-2563q-71 0 -103.5 33t-32.5 106v41q0 73 32.5 106t103.5 33h2679zM2880 283h-2676q-54 0 -76.5 -22.5t-22.5 -76.5v-49q0 -54 22.5 -76.5t76.5 -22.5h2555
q67 0 94 27t27 94v126zM1527 657l-324 113h108l288 -113h-72z" />
    <glyph glyph-name="aacute" unicode="&#xe1;" horiz-adv-x="3002" 
d="M2880 319v127q0 67 -27 94t-94 27h-2664v36h2669q81 0 118.5 -38t37.5 -119v-289q0 -81 -37.5 -119t-118.5 -38h-2563q-71 0 -103.5 33t-32.5 106v41q0 73 32.5 106t103.5 33h2679zM2880 283h-2676q-54 0 -76.5 -22.5t-22.5 -76.5v-49q0 -54 22.5 -76.5t76.5 -22.5h2555
q67 0 94 27t27 94v126zM1753 770l-330 -113h-72l286 113h116z" />
    <glyph glyph-name="acircumflex" unicode="&#xe2;" horiz-adv-x="3002" 
d="M2880 319v127q0 67 -27 94t-94 27h-2664v36h2669q81 0 118.5 -38t37.5 -119v-289q0 -81 -37.5 -119t-118.5 -38h-2563q-71 0 -103.5 33t-32.5 106v41q0 73 32.5 106t103.5 33h2679zM2880 283h-2676q-54 0 -76.5 -22.5t-22.5 -76.5v-49q0 -54 22.5 -76.5t76.5 -22.5h2555
q67 0 94 27t27 94v126zM1491 744l-272 -87h-61l294 113h78l294 -113h-61z" />
    <glyph glyph-name="atilde" unicode="&#xe3;" horiz-adv-x="3002" 
d="M2880 319v127q0 67 -27 94t-94 27h-2664v36h2669q81 0 118.5 -38t37.5 -119v-289q0 -81 -37.5 -119t-118.5 -38h-2563q-71 0 -103.5 33t-32.5 106v41q0 73 32.5 106t103.5 33h2679zM2880 283h-2676q-54 0 -76.5 -22.5t-22.5 -76.5v-49q0 -54 22.5 -76.5t76.5 -22.5h2555
q67 0 94 27t27 94v126zM1187 671v33q84 66 162 66q52 0 144 -39t142 -39q78 0 160 67v-33q-84 -66 -164 -66q-52 0 -144 39t-142 39q-78 0 -158 -67z" />
    <glyph glyph-name="adieresis" unicode="&#xe4;" horiz-adv-x="3002" 
d="M2880 319v127q0 67 -27 94t-94 27h-2664v36h2669q81 0 118.5 -38t37.5 -119v-289q0 -81 -37.5 -119t-118.5 -38h-2563q-71 0 -103.5 33t-32.5 106v41q0 73 32.5 106t103.5 33h2679zM2880 283h-2676q-54 0 -76.5 -22.5t-22.5 -76.5v-49q0 -54 22.5 -76.5t76.5 -22.5h2555
q67 0 94 27t27 94v126zM1310 730v-41h-108v41h108zM1780 730v-41h-108v41h108z" />
    <glyph glyph-name="aring" unicode="&#xe5;" horiz-adv-x="3002" 
d="M2880 319v127q0 67 -27 94t-94 27h-2664v36h2669q81 0 118.5 -38t37.5 -119v-289q0 -81 -37.5 -119t-118.5 -38h-2563q-71 0 -103.5 33t-32.5 106v41q0 73 32.5 106t103.5 33h2679zM2880 283h-2676q-54 0 -76.5 -22.5t-22.5 -76.5v-49q0 -54 22.5 -76.5t76.5 -22.5h2555
q67 0 94 27t27 94v126zM1333 714q0 -33 50 -33h216q50 0 50 33q0 16 -11 24t-39 8h-216q-28 0 -39 -8t-11 -24zM1597 657h-212q-79 0 -79 57q0 56 79 56h212q79 0 79 -56q0 -57 -79 -57z" />
    <glyph glyph-name="ae" unicode="&#xe6;" horiz-adv-x="4492" 
d="M4387 418v50q0 54 -22.5 76.5t-76.5 22.5h-1923q-99 0 -99 -102v-146h2022q54 0 76.5 22.5t22.5 76.5zM105 184v-49q0 -54 22.5 -76.5t76.5 -22.5h1923q99 0 99 102v145h-2022q-54 0 -76.5 -22.5t-22.5 -76.5zM2105 0h-1904q-71 0 -103.5 33t-32.5 106v41q0 73 32.5 106
t103.5 33h2025v146q0 102 -99 102h-2032v36h2010q67 0 100 -25t41 -81q8 56 41 81t100 25h1904q71 0 103.5 -33t32.5 -106v-42q0 -73 -32.5 -106t-103.5 -33h-2025v-145q0 -102 99 -102h2032v-36h-2010q-67 0 -100 25t-41 81q-8 -56 -41 -81t-100 -25z" />
    <glyph glyph-name="ccedilla" unicode="&#xe7;" horiz-adv-x="2924" 
d="M1495 0l-19 -53h225q54 0 79 -9t25 -38q0 -40 -33 -53.5t-109 -13.5h-466v36h474q58 0 79 6.5t21 27.5q0 19 -14.5 23.5t-59.5 4.5h-245l26 69h-1240q-81 0 -118.5 38t-37.5 119v289q0 81 37.5 119t118.5 38h2619v-36h-2614q-67 0 -94 -27t-27 -94v-289q0 -67 27 -94
t94 -27h2614v-36h-1362z" />
    <glyph glyph-name="egrave" unicode="&#xe8;" horiz-adv-x="3002" 
d="M2937 422q0 -73 -32.5 -106t-103.5 -33h-2679v-126q0 -67 29 -94t92 -27h2664v-36h-2669q-52 0 -84 13.5t-47.5 43.5t-20 62.5t-4.5 85.5v241q0 78 37.5 117.5t118.5 39.5h2563q72 0 104 -33t32 -106v-42zM2798 567h-2555q-30 0 -50.5 -4t-34 -15.5t-21 -22.5t-11 -37
t-4 -46t-0.5 -60v-63h2676q51 0 75 21.5t24 77.5v36q0 64 -19.5 88.5t-79.5 24.5zM1567 657l-324 113h108l288 -113h-72z" />
    <glyph glyph-name="eacute" unicode="&#xe9;" horiz-adv-x="3002" 
d="M2937 422q0 -73 -32.5 -106t-103.5 -33h-2679v-126q0 -67 29 -94t92 -27h2664v-36h-2669q-52 0 -84 13.5t-47.5 43.5t-20 62.5t-4.5 85.5v241q0 78 37.5 117.5t118.5 39.5h2563q72 0 104 -33t32 -106v-42zM2798 567h-2555q-30 0 -50.5 -4t-34 -15.5t-21 -22.5t-11 -37
t-4 -46t-0.5 -60v-63h2676q51 0 75 21.5t24 77.5v36q0 64 -19.5 88.5t-79.5 24.5zM1823 770l-330 -113h-72l286 113h116z" />
    <glyph glyph-name="ecircumflex" unicode="&#xea;" horiz-adv-x="3002" 
d="M2937 422q0 -73 -32.5 -106t-103.5 -33h-2679v-126q0 -67 29 -94t92 -27h2664v-36h-2669q-52 0 -84 13.5t-47.5 43.5t-20 62.5t-4.5 85.5v241q0 78 37.5 117.5t118.5 39.5h2563q72 0 104 -33t32 -106v-42zM2798 567h-2555q-30 0 -50.5 -4t-34 -15.5t-21 -22.5t-11 -37
t-4 -46t-0.5 -60v-63h2676q51 0 75 21.5t24 77.5v36q0 64 -19.5 88.5t-79.5 24.5zM1531 744l-272 -87h-61l294 113h78l294 -113h-61z" />
    <glyph glyph-name="edieresis" unicode="&#xeb;" horiz-adv-x="3002" 
d="M2937 422q0 -73 -32.5 -106t-103.5 -33h-2679v-126q0 -67 29 -94t92 -27h2664v-36h-2669q-52 0 -84 13.5t-47.5 43.5t-20 62.5t-4.5 85.5v241q0 78 37.5 117.5t118.5 39.5h2563q72 0 104 -33t32 -106v-42zM2798 567h-2555q-30 0 -50.5 -4t-34 -15.5t-21 -22.5t-11 -37
t-4 -46t-0.5 -60v-63h2676q51 0 75 21.5t24 77.5v36q0 64 -19.5 88.5t-79.5 24.5zM1350 730v-41h-108v41h108zM1820 730v-41h-108v41h108z" />
    <glyph glyph-name="igrave" unicode="&#xec;" horiz-adv-x="422" 
d="M211 657l-324 113h108l288 -113h-72zM246 36h141v-36h-146q-78 0 -112 34.5t-34 112.5v456h40v-456q0 -63 24.5 -87t86.5 -24z" />
    <glyph glyph-name="iacute" unicode="&#xed;" horiz-adv-x="422" 
d="M407 770l-330 -113h-72l286 113h116zM246 36h141v-36h-146q-78 0 -112 34.5t-34 112.5v456h40v-456q0 -63 24.5 -87t86.5 -24z" />
    <glyph glyph-name="icircumflex" unicode="&#xee;" horiz-adv-x="422" 
d="M246 36h141v-36h-146q-78 0 -112 34.5t-34 112.5v456h40v-456q0 -63 24.5 -87t86.5 -24zM115 744l-272 -87h-61l294 113h78l294 -113h-61z" />
    <glyph glyph-name="idieresis" unicode="&#xef;" horiz-adv-x="422" 
d="M314 730v-41h-108v41h108zM24 730v-41h-108v41h108zM246 36h141v-36h-146q-78 0 -112 34.5t-34 112.5v456h40v-456q0 -63 24.5 -87t86.5 -24z" />
    <glyph glyph-name="eth" unicode="&#xf0;" horiz-adv-x="3005" 
d="M238 566h2504q56 0 86.5 -17.5t43.5 -56.5v98q0 78 -34.5 111t-109.5 33h-1207v-95h-33v95h-1366v36h1366v50h33v-50h1211q92 0 136 -44t44 -136v-433q0 -81 -37.5 -119t-118.5 -38h-2518q-81 0 -118.5 38t-37.5 119v252q0 81 37.5 119t118.5 38zM2751 530h-2508
q-67 0 -94 -27t-27 -94v-252q0 -67 27 -94t94 -27h2508q67 0 94 27t27 94v252q0 67 -27 94t-94 27z" />
    <glyph glyph-name="ntilde" unicode="&#xf1;" horiz-adv-x="3006" 
d="M93 0v446q0 81 37.5 119t118.5 38h2508q81 0 118.5 -38t37.5 -119v-446h-40v446q0 67 -27 94t-94 27h-2498q-67 0 -94 -27t-27 -94v-446h-40zM1199 671v33q84 66 162 66q52 0 144 -39t142 -39q78 0 160 67v-33q-84 -66 -164 -66q-52 0 -144 39t-142 39q-78 0 -158 -67z
" />
    <glyph glyph-name="ograve" unicode="&#xf2;" horiz-adv-x="2994" 
d="M2756 603q81 0 118.5 -38t37.5 -119v-289q0 -81 -37.5 -119t-118.5 -38h-2518q-81 0 -118.5 38t-37.5 119v289q0 81 37.5 119t118.5 38h2518zM2751 36q67 0 94 27t27 94v289q0 67 -27 94t-94 27h-2508q-67 0 -94 -27t-27 -94v-289q0 -67 27 -94t94 -27h2508zM1533 657
l-324 113h108l288 -113h-72z" />
    <glyph glyph-name="oacute" unicode="&#xf3;" horiz-adv-x="2994" 
d="M2756 603q81 0 118.5 -38t37.5 -119v-289q0 -81 -37.5 -119t-118.5 -38h-2518q-81 0 -118.5 38t-37.5 119v289q0 81 37.5 119t118.5 38h2518zM2751 36q67 0 94 27t27 94v289q0 67 -27 94t-94 27h-2508q-67 0 -94 -27t-27 -94v-289q0 -67 27 -94t94 -27h2508zM1789 770
l-330 -113h-72l286 113h116z" />
    <glyph glyph-name="ocircumflex" unicode="&#xf4;" horiz-adv-x="2994" 
d="M2756 603q81 0 118.5 -38t37.5 -119v-289q0 -81 -37.5 -119t-118.5 -38h-2518q-81 0 -118.5 38t-37.5 119v289q0 81 37.5 119t118.5 38h2518zM2751 36q67 0 94 27t27 94v289q0 67 -27 94t-94 27h-2508q-67 0 -94 -27t-27 -94v-289q0 -67 27 -94t94 -27h2508zM1497 744
l-272 -87h-61l294 113h78l294 -113h-61z" />
    <glyph glyph-name="otilde" unicode="&#xf5;" horiz-adv-x="2994" 
d="M2756 603q81 0 118.5 -38t37.5 -119v-289q0 -81 -37.5 -119t-118.5 -38h-2518q-81 0 -118.5 38t-37.5 119v289q0 81 37.5 119t118.5 38h2518zM2751 36q67 0 94 27t27 94v289q0 67 -27 94t-94 27h-2508q-67 0 -94 -27t-27 -94v-289q0 -67 27 -94t94 -27h2508zM1193 671v33
q84 66 162 66q52 0 144 -39t142 -39q78 0 160 67v-33q-84 -66 -164 -66q-52 0 -144 39t-142 39q-78 0 -158 -67z" />
    <glyph glyph-name="odieresis" unicode="&#xf6;" horiz-adv-x="2994" 
d="M2756 603q81 0 118.5 -38t37.5 -119v-289q0 -81 -37.5 -119t-118.5 -38h-2518q-81 0 -118.5 38t-37.5 119v289q0 81 37.5 119t118.5 38h2518zM2751 36q67 0 94 27t27 94v289q0 67 -27 94t-94 27h-2508q-67 0 -94 -27t-27 -94v-289q0 -67 27 -94t94 -27h2508zM1316 730
v-41h-108v41h108zM1786 730v-41h-108v41h108z" />
    <glyph glyph-name="divide" unicode="&#xf7;" 
d="M1723 121v-51h-88v51h88zM1723 630v-51h-88v51h88zM3272 332h-3185v36h3185v-36z" />
    <glyph glyph-name="oslash" unicode="&#xf8;" horiz-adv-x="2994" 
d="M2756 603q81 0 118.5 -38t37.5 -119v-289q0 -81 -37.5 -119t-118.5 -38h-2518q-81 0 -118.5 38t-37.5 119v289q0 81 37.5 119t118.5 38h2518zM2751 36q67 0 94 27t27 94v289q0 63 -24.5 91t-83.5 30l-2380 -531h2367zM228 36l2381 531h-2366q-67 0 -94 -27t-27 -94v-289
q0 -63 24 -91t82 -30z" />
    <glyph glyph-name="ugrave" unicode="&#xf9;" horiz-adv-x="3006" 
d="M2752 36q67 0 94 27t27 94v446h40v-446q0 -81 -37.5 -119t-118.5 -38h-2508q-81 0 -118.5 38t-37.5 119v446h40v-446q0 -67 27 -94t94 -27h2498zM1548 657l-324 113h108l288 -113h-72z" />
    <glyph glyph-name="uacute" unicode="&#xfa;" horiz-adv-x="3006" 
d="M2752 36q67 0 94 27t27 94v446h40v-446q0 -81 -37.5 -119t-118.5 -38h-2508q-81 0 -118.5 38t-37.5 119v446h40v-446q0 -67 27 -94t94 -27h2498zM1795 770l-330 -113h-72l286 113h116z" />
    <glyph glyph-name="ucircumflex" unicode="&#xfb;" horiz-adv-x="3006" 
d="M2752 36q67 0 94 27t27 94v446h40v-446q0 -81 -37.5 -119t-118.5 -38h-2508q-81 0 -118.5 38t-37.5 119v446h40v-446q0 -67 27 -94t94 -27h2498zM1503 744l-272 -87h-61l294 113h78l294 -113h-61z" />
    <glyph glyph-name="udieresis" unicode="&#xfc;" horiz-adv-x="3006" 
d="M2752 36q67 0 94 27t27 94v446h40v-446q0 -81 -37.5 -119t-118.5 -38h-2508q-81 0 -118.5 38t-37.5 119v446h40v-446q0 -67 27 -94t94 -27h2498zM1322 730v-41h-108v41h108zM1792 730v-41h-108v41h108z" />
    <glyph glyph-name="yacute" unicode="&#xfd;" horiz-adv-x="3017" 
d="M2733 -167h-2600v36h2596q75 0 109.5 33t34.5 111v98q-13 -39 -43.5 -56.5t-86.5 -17.5h-2494q-81 0 -118.5 38t-37.5 119v409h40v-409q0 -67 27 -94t94 -27h2498q67 0 94 27t27 94v409h40v-590q0 -92 -44 -136t-136 -44zM1800 770l-330 -113h-72l286 113h116z" />
    <glyph glyph-name="thorn" unicode="&#xfe;" horiz-adv-x="3016" 
d="M144 770v-167h2634q81 0 118.5 -38t37.5 -119v-289q0 -81 -37.5 -119t-118.5 -38h-2504q-56 0 -87 18t-43 56v-241h-40v937h40zM144 567v-410q0 -67 27 -94t94 -27h2508q67 0 94 27t27 94v289q0 67 -27 94t-94 27h-2629z" />
    <glyph glyph-name="ydieresis" unicode="&#xff;" horiz-adv-x="3017" 
d="M2733 -167h-2600v36h2596q75 0 109.5 33t34.5 111v98q-13 -39 -43.5 -56.5t-86.5 -17.5h-2494q-81 0 -118.5 38t-37.5 119v409h40v-409q0 -67 27 -94t94 -27h2498q67 0 94 27t27 94v409h40v-590q0 -92 -44 -136t-136 -44zM1327 730v-41h-108v41h108zM1797 730v-41h-108
v41h108z" />
    <glyph glyph-name="Amacron" unicode="&#x100;" horiz-adv-x="3391" 
d="M3293 0h-40v332h-3115v-332h-40v542q0 80 39 119t120 39h2877q81 0 120 -39t39 -119v-542zM3129 664h-2867q-68 0 -96 -29t-28 -99v-168h3115v168q0 70 -28 99t-96 29zM1999 803h-608v28h608v-28z" />
    <glyph glyph-name="amacron" unicode="&#x101;" horiz-adv-x="3002" 
d="M2880 319v127q0 67 -27 94t-94 27h-2664v36h2669q81 0 118.5 -38t37.5 -119v-289q0 -81 -37.5 -119t-118.5 -38h-2563q-71 0 -103.5 33t-32.5 106v41q0 73 32.5 106t103.5 33h2679zM2880 283h-2676q-54 0 -76.5 -22.5t-22.5 -76.5v-49q0 -54 22.5 -76.5t76.5 -22.5h2555
q67 0 94 27t27 94v126zM1795 701h-608v28h608v-28z" />
    <glyph glyph-name="Abreve" unicode="&#x102;" horiz-adv-x="3391" 
d="M3293 0h-40v332h-3115v-332h-40v542q0 80 39 119t120 39h2877q81 0 120 -39t39 -119v-542zM3129 664h-2867q-68 0 -96 -29t-28 -99v-168h3115v168q0 70 -28 99t-96 29zM1391 852v29q119 -88 304 -88t304 88v-29q-122 -94 -304 -94t-304 94z" />
    <glyph glyph-name="abreve" unicode="&#x103;" horiz-adv-x="3002" 
d="M2880 319v127q0 67 -27 94t-94 27h-2664v36h2669q81 0 118.5 -38t37.5 -119v-289q0 -81 -37.5 -119t-118.5 -38h-2563q-71 0 -103.5 33t-32.5 106v41q0 73 32.5 106t103.5 33h2679zM2880 283h-2676q-54 0 -76.5 -22.5t-22.5 -76.5v-49q0 -54 22.5 -76.5t76.5 -22.5h2555
q67 0 94 27t27 94v126zM1187 750v29q119 -88 304 -88t304 88v-29q-122 -94 -304 -94t-304 94z" />
    <glyph glyph-name="Aogonek" unicode="&#x104;" horiz-adv-x="3391" 
d="M3129 664h-2867q-68 0 -96 -29t-28 -99v-168h3115v168q0 70 -28 99t-96 29zM3253 -47v379h-3115v-332h-40v542q0 80 39 119t120 39h2877q81 0 120 -39t39 -119v-542h-20v-66h-20q-214 0 -326.5 -5.5t-146.5 -14.5t-34 -26q0 -11 10.5 -15t43.5 -4h523v-36h-522
q-47 0 -66.5 10.5t-19.5 34.5q0 25 14.5 37.5t69.5 22t154.5 12.5t279.5 3h20z" />
    <glyph glyph-name="aogonek" unicode="&#x105;" horiz-adv-x="3002" 
d="M2880 283h-2676q-54 0 -76.5 -22.5t-22.5 -76.5v-49q0 -54 22.5 -76.5t76.5 -22.5h2555q67 0 94 27t27 94v126zM2880 -47v83q-37 -36 -116 -36h-2563q-71 0 -103.5 33t-32.5 106v41q0 73 32.5 106t103.5 33h2679v127q0 67 -27 94t-94 27h-2664v36h2669q81 0 118.5 -38
t37.5 -119v-289q0 -58 -20 -95v-128h-20q-214 0 -326.5 -5.5t-146.5 -14.5t-34 -26q0 -11 10.5 -15t43.5 -4h523v-36h-522q-47 0 -66.5 10.5t-19.5 34.5q0 25 14.5 37.5t69.5 22t154.5 12.5t279.5 3h20z" />
    <glyph glyph-name="Cacute" unicode="&#x106;" horiz-adv-x="3277" 
d="M246 0q-81 0 -120 39t-39 119v384q0 80 39 119t120 39h2966v-36h-2961q-68 0 -96 -29t-28 -99v-372q0 -70 28 -99t96 -29h2961v-36h-2966zM1984 872l-330 -113h-72l286 113h116z" />
    <glyph glyph-name="cacute" unicode="&#x107;" horiz-adv-x="2924" 
d="M238 0q-81 0 -118.5 38t-37.5 119v289q0 81 37.5 119t118.5 38h2619v-36h-2614q-67 0 -94 -27t-27 -94v-289q0 -67 27 -94t94 -27h2614v-36h-2619zM1804 770l-330 -113h-72l286 113h116z" />
    <glyph glyph-name="Ccircumflex" unicode="&#x108;" horiz-adv-x="3277" 
d="M246 0q-81 0 -120 39t-39 119v384q0 80 39 119t120 39h2966v-36h-2961q-68 0 -96 -29t-28 -99v-372q0 -70 28 -99t96 -29h2961v-36h-2966zM1692 846l-272 -87h-61l294 113h78l294 -113h-61z" />
    <glyph glyph-name="ccircumflex" unicode="&#x109;" horiz-adv-x="2924" 
d="M238 0q-81 0 -118.5 38t-37.5 119v289q0 81 37.5 119t118.5 38h2619v-36h-2614q-67 0 -94 -27t-27 -94v-289q0 -67 27 -94t94 -27h2614v-36h-2619zM1512 744l-272 -87h-61l294 113h78l294 -113h-61z" />
    <glyph glyph-name="Cdotaccent" unicode="&#x10a;" horiz-adv-x="3277" 
d="M246 0q-81 0 -120 39t-39 119v384q0 80 39 119t120 39h2966v-36h-2961q-68 0 -96 -29t-28 -99v-372q0 -70 28 -99t96 -29h2961v-36h-2966zM1746 832v-41h-108v41h108z" />
    <glyph glyph-name="cdotaccent" unicode="&#x10b;" horiz-adv-x="2924" 
d="M238 0q-81 0 -118.5 38t-37.5 119v289q0 81 37.5 119t118.5 38h2619v-36h-2614q-67 0 -94 -27t-27 -94v-289q0 -67 27 -94t94 -27h2614v-36h-2619zM1566 730v-41h-108v41h108z" />
    <glyph glyph-name="Ccaron" unicode="&#x10c;" horiz-adv-x="3277" 
d="M246 0q-81 0 -120 39t-39 119v384q0 80 39 119t120 39h2966v-36h-2961q-68 0 -96 -29t-28 -99v-372q0 -70 28 -99t96 -29h2961v-36h-2966zM1420 872l272 -87l272 87h61l-294 -113h-78l-294 113h61z" />
    <glyph glyph-name="ccaron" unicode="&#x10d;" horiz-adv-x="2924" 
d="M238 0q-81 0 -118.5 38t-37.5 119v289q0 81 37.5 119t118.5 38h2619v-36h-2614q-67 0 -94 -27t-27 -94v-289q0 -67 27 -94t94 -27h2614v-36h-2619zM1240 770l272 -87l272 87h61l-294 -113h-78l-294 113h61z" />
    <glyph glyph-name="Dcaron" unicode="&#x10e;" horiz-adv-x="3386" 
d="M3083 700q108 0 164.5 -56t56.5 -164v-260q0 -108 -56.5 -164t-164.5 -56h-2974v700h2974zM3077 36q94 0 140.5 45.5t46.5 142.5v252q0 97 -46.5 142.5t-140.5 45.5h-2928v-628h2928zM1406 872l272 -87l272 87h61l-294 -113h-78l-294 113h61z" />
    <glyph glyph-name="dcaron" unicode="&#x10f;" horiz-adv-x="3227" 
d="M2912 770v-613q0 -81 -37.5 -119t-118.5 -38h-2518q-81 0 -118.5 38t-37.5 119v289q0 81 37.5 119t118.5 38h2504q56 0 87 -18t43 -56v241h40zM2872 157v289q0 67 -27 94t-94 27h-2508q-67 0 -94 -27t-27 -94v-289q0 -67 27 -94t94 -27h2508q67 0 94 27t27 94zM3160 700
v-47q0 -85 -72 -85h-16v26h17q32 0 32 42v17h-49v47h88z" />
    <glyph glyph-name="Dcroat" unicode="&#x110;" horiz-adv-x="3386" 
d="M3083 700q108 0 164.5 -56t56.5 -164v-260q0 -108 -56.5 -164t-164.5 -56h-2974v332h-89v36h89v332h2974zM3077 36q94 0 140.5 45.5t46.5 142.5v252q0 97 -46.5 142.5t-140.5 45.5h-2928v-296h479v-36h-479v-296h2928z" />
    <glyph glyph-name="dcroat" unicode="&#x111;" horiz-adv-x="3005" 
d="M2912 770v-74h93v-28h-93v-511q0 -81 -37.5 -119t-118.5 -38h-2518q-81 0 -118.5 38t-37.5 119v289q0 81 37.5 119t118.5 38h2504q56 0 87 -18t43 -56v139h-475v28h475v74h40zM2872 157v289q0 67 -27 94t-94 27h-2508q-67 0 -94 -27t-27 -94v-289q0 -67 27 -94t94 -27
h2508q67 0 94 27t27 94z" />
    <glyph glyph-name="Emacron" unicode="&#x112;" horiz-adv-x="3349" 
d="M109 0v700h3175v-36h-3135v-296h3010v-36h-3010v-296h3135v-36h-3175zM2017 803h-608v28h608v-28z" />
    <glyph glyph-name="emacron" unicode="&#x113;" horiz-adv-x="3002" 
d="M2937 422q0 -73 -32.5 -106t-103.5 -33h-2679v-126q0 -67 29 -94t92 -27h2664v-36h-2669q-52 0 -84 13.5t-47.5 43.5t-20 62.5t-4.5 85.5v241q0 78 37.5 117.5t118.5 39.5h2563q72 0 104 -33t32 -106v-42zM2798 567h-2555q-30 0 -50.5 -4t-34 -15.5t-21 -22.5t-11 -37
t-4 -46t-0.5 -60v-63h2676q51 0 75 21.5t24 77.5v36q0 64 -19.5 88.5t-79.5 24.5zM1835 701h-608v28h608v-28z" />
    <glyph glyph-name="Ebreve" unicode="&#x114;" horiz-adv-x="3349" 
d="M109 0v700h3175v-36h-3135v-296h3010v-36h-3010v-296h3135v-36h-3175zM1409 852v29q119 -88 304 -88t304 88v-29q-122 -94 -304 -94t-304 94z" />
    <glyph glyph-name="ebreve" unicode="&#x115;" horiz-adv-x="3002" 
d="M2937 422q0 -73 -32.5 -106t-103.5 -33h-2679v-126q0 -67 29 -94t92 -27h2664v-36h-2669q-52 0 -84 13.5t-47.5 43.5t-20 62.5t-4.5 85.5v241q0 78 37.5 117.5t118.5 39.5h2563q72 0 104 -33t32 -106v-42zM2798 567h-2555q-30 0 -50.5 -4t-34 -15.5t-21 -22.5t-11 -37
t-4 -46t-0.5 -60v-63h2676q51 0 75 21.5t24 77.5v36q0 64 -19.5 88.5t-79.5 24.5zM1227 750v29q119 -88 304 -88t304 88v-29q-122 -94 -304 -94t-304 94z" />
    <glyph glyph-name="Edotaccent" unicode="&#x116;" horiz-adv-x="3349" 
d="M109 0v700h3175v-36h-3135v-296h3010v-36h-3010v-296h3135v-36h-3175zM1767 832v-41h-108v41h108z" />
    <glyph glyph-name="edotaccent" unicode="&#x117;" horiz-adv-x="3002" 
d="M2937 422q0 -73 -32.5 -106t-103.5 -33h-2679v-126q0 -67 29 -94t92 -27h2664v-36h-2669q-52 0 -84 13.5t-47.5 43.5t-20 62.5t-4.5 85.5v241q0 78 37.5 117.5t118.5 39.5h2563q72 0 104 -33t32 -106v-42zM2798 567h-2555q-30 0 -50.5 -4t-34 -15.5t-21 -22.5t-11 -37
t-4 -46t-0.5 -60v-63h2676q51 0 75 21.5t24 77.5v36q0 64 -19.5 88.5t-79.5 24.5zM1585 730v-41h-108v41h108z" />
    <glyph glyph-name="Eogonek" unicode="&#x118;" horiz-adv-x="3349" 
d="M3234 -66h-20q-214 0 -326.5 -5.5t-146.5 -14.5t-34 -26q0 -11 10.5 -15t43.5 -4h523v-36h-522q-47 0 -66.5 10.5t-19.5 34.5q0 25 14.5 37.5t69.5 22t154.5 12.5t279.5 3h20v47h-3105v700h3175v-36h-3135v-296h3010v-36h-3010v-296h3135v-36h-50v-66z" />
    <glyph glyph-name="eogonek" unicode="&#x119;" horiz-adv-x="3002" 
d="M2798 567h-2555q-30 0 -50.5 -4t-34 -15.5t-21 -22.5t-11 -37t-4 -46t-0.5 -60v-63h2676q51 0 75 21.5t24 77.5v36q0 64 -19.5 88.5t-79.5 24.5zM2847 -47v47h-2609q-52 0 -84 13.5t-47.5 43.5t-20 62.5t-4.5 85.5v241q0 78 37.5 117.5t118.5 39.5h2563q72 0 104 -33
t32 -106v-42q0 -73 -32.5 -106t-103.5 -33h-2679v-126q0 -67 29 -94t92 -27h2664v-36h-40v-66h-30q-214 0 -326.5 -5.5t-146.5 -14.5t-34 -26q0 -11 10.5 -15t43.5 -4h523v-36h-522q-47 0 -66.5 10.5t-19.5 34.5q0 25 14.5 37.5t69.5 22t154.5 12.5t279.5 3h30z" />
    <glyph glyph-name="Ecaron" unicode="&#x11a;" horiz-adv-x="3349" 
d="M109 0v700h3175v-36h-3135v-296h3010v-36h-3010v-296h3135v-36h-3175zM1441 872l272 -87l272 87h61l-294 -113h-78l-294 113h61z" />
    <glyph glyph-name="ecaron" unicode="&#x11b;" horiz-adv-x="3002" 
d="M2937 422q0 -73 -32.5 -106t-103.5 -33h-2679v-126q0 -67 29 -94t92 -27h2664v-36h-2669q-52 0 -84 13.5t-47.5 43.5t-20 62.5t-4.5 85.5v241q0 78 37.5 117.5t118.5 39.5h2563q72 0 104 -33t32 -106v-42zM2798 567h-2555q-30 0 -50.5 -4t-34 -15.5t-21 -22.5t-11 -37
t-4 -46t-0.5 -60v-63h2676q51 0 75 21.5t24 77.5v36q0 64 -19.5 88.5t-79.5 24.5zM1259 770l272 -87l272 87h61l-294 -113h-78l-294 113h61z" />
    <glyph glyph-name="Gcircumflex" unicode="&#x11c;" horiz-adv-x="3371" 
d="M3139 36q67 0 90 23.5t23 91.5v181h-1834v36h1874v-221q0 -79 -34 -113t-113 -34h-2899q-81 0 -120 39t-39 119v384q0 80 39 119t120 39h3021v-36h-3016q-68 0 -96 -29t-28 -99v-372q0 -70 28 -99t96 -29h2888zM1705 846l-272 -87h-61l294 113h78l294 -113h-61z" />
    <glyph glyph-name="gcircumflex" unicode="&#x11d;" horiz-adv-x="3005" 
d="M2751 73q67 0 94 27t27 94v252q0 67 -27 94t-94 27h-2508q-67 0 -94 -27t-27 -94v-252q0 -67 27 -94t94 -27h2508zM2742 37h-2504q-81 0 -118.5 38t-37.5 119v252q0 81 37.5 119t118.5 38h2518q81 0 118.5 -38t37.5 -119v-433q0 -92 -44 -136t-136 -44h-2610v36h2606
q75 0 109.5 33t34.5 111v98q-13 -39 -43.5 -56.5t-86.5 -17.5zM1502 744l-272 -87h-61l294 113h78l294 -113h-61z" />
    <glyph glyph-name="Gbreve" unicode="&#x11e;" horiz-adv-x="3371" 
d="M3139 36q67 0 90 23.5t23 91.5v181h-1834v36h1874v-221q0 -79 -34 -113t-113 -34h-2899q-81 0 -120 39t-39 119v384q0 80 39 119t120 39h3021v-36h-3016q-68 0 -96 -29t-28 -99v-372q0 -70 28 -99t96 -29h2888zM1401 852v29q119 -88 304 -88t304 88v-29
q-122 -94 -304 -94t-304 94z" />
    <glyph glyph-name="gbreve" unicode="&#x11f;" horiz-adv-x="3005" 
d="M2751 73q67 0 94 27t27 94v252q0 67 -27 94t-94 27h-2508q-67 0 -94 -27t-27 -94v-252q0 -67 27 -94t94 -27h2508zM2742 37h-2504q-81 0 -118.5 38t-37.5 119v252q0 81 37.5 119t118.5 38h2518q81 0 118.5 -38t37.5 -119v-433q0 -92 -44 -136t-136 -44h-2610v36h2606
q75 0 109.5 33t34.5 111v98q-13 -39 -43.5 -56.5t-86.5 -17.5zM1198 750v29q119 -88 304 -88t304 88v-29q-122 -94 -304 -94t-304 94z" />
    <glyph glyph-name="Gdotaccent" unicode="&#x120;" horiz-adv-x="3371" 
d="M3139 36q67 0 90 23.5t23 91.5v181h-1834v36h1874v-221q0 -79 -34 -113t-113 -34h-2899q-81 0 -120 39t-39 119v384q0 80 39 119t120 39h3021v-36h-3016q-68 0 -96 -29t-28 -99v-372q0 -70 28 -99t96 -29h2888zM1759 832v-41h-108v41h108z" />
    <glyph glyph-name="gdotaccent" unicode="&#x121;" horiz-adv-x="3005" 
d="M2751 73q67 0 94 27t27 94v252q0 67 -27 94t-94 27h-2508q-67 0 -94 -27t-27 -94v-252q0 -67 27 -94t94 -27h2508zM2742 37h-2504q-81 0 -118.5 38t-37.5 119v252q0 81 37.5 119t118.5 38h2518q81 0 118.5 -38t37.5 -119v-433q0 -92 -44 -136t-136 -44h-2610v36h2606
q75 0 109.5 33t34.5 111v98q-13 -39 -43.5 -56.5t-86.5 -17.5zM1556 730v-41h-108v41h108z" />
    <glyph glyph-name="uni0122" unicode="&#x122;" horiz-adv-x="3371" 
d="M3139 36q67 0 90 23.5t23 91.5v181h-1834v36h1874v-221q0 -79 -34 -113t-113 -34h-2899q-81 0 -120 39t-39 119v384q0 80 39 119t120 39h3021v-36h-3016q-68 0 -96 -29t-28 -99v-372q0 -70 28 -99t96 -29h2888zM1759 -96v-41q0 -75 -62 -75h-36v23h36q28 0 28 37v15h-74
v41h108z" />
    <glyph glyph-name="uni0123" unicode="&#x123;" horiz-adv-x="3005" 
d="M1448 689v41q0 75 62 75h36v-23h-36q-28 0 -28 -37v-15h74v-41h-108zM2751 73q67 0 94 27t27 94v252q0 67 -27 94t-94 27h-2508q-67 0 -94 -27t-27 -94v-252q0 -67 27 -94t94 -27h2508zM2742 37h-2504q-81 0 -118.5 38t-37.5 119v252q0 81 37.5 119t118.5 38h2518
q81 0 118.5 -38t37.5 -119v-433q0 -92 -44 -136t-136 -44h-2610v36h2606q75 0 109.5 33t34.5 111v98q-13 -39 -43.5 -56.5t-86.5 -17.5z" />
    <glyph glyph-name="Hcircumflex" unicode="&#x124;" horiz-adv-x="3423" 
d="M3274 0v332h-3125v-332h-40v700h40v-332h3125v332h40v-700h-40zM1711 846l-272 -87h-61l294 113h78l294 -113h-61z" />
    <glyph glyph-name="hcircumflex" unicode="&#x125;" horiz-adv-x="3017" 
d="M2884 446q0 67 -27 94t-94 27h-2498q-67 0 -94 -27t-27 -94v-446h-40v770h40v-241q12 38 43 56t87 18h2494q81 0 118.5 -38t37.5 -119v-446h-40v446zM1518 744l-272 -87h-61l294 113h78l294 -113h-61z" />
    <glyph glyph-name="Hbar" unicode="&#x126;" horiz-adv-x="3423" 
d="M3274 0v332h-3125v-332h-40v506h-57v36h57v158h40v-158h3125v158h40v-158h57v-36h-57v-506h-40zM149 368h3125v138h-3125v-138z" />
    <glyph glyph-name="hbar" unicode="&#x127;" horiz-adv-x="3017" 
d="M2884 446q0 67 -27 94t-94 27h-2498q-67 0 -94 -27t-27 -94v-446h-40v668h-104v28h104v74h40v-74h464v-28h-464v-139q12 38 43 56t87 18h2494q81 0 118.5 -38t37.5 -119v-446h-40v446z" />
    <glyph glyph-name="Itilde" unicode="&#x128;" horiz-adv-x="258" 
d="M109 0v700h40v-700h-40zM-175 773v33q84 66 162 66q52 0 144 -39t142 -39q78 0 160 67v-33q-84 -66 -164 -66q-52 0 -144 39t-142 39q-78 0 -158 -67z" />
    <glyph glyph-name="itilde" unicode="&#x129;" horiz-adv-x="422" 
d="M-189 671v33q84 66 162 66q52 0 144 -39t142 -39q78 0 160 67v-33q-84 -66 -164 -66q-52 0 -144 39t-142 39q-78 0 -158 -67zM246 36h141v-36h-146q-78 0 -112 34.5t-34 112.5v456h40v-456q0 -63 24.5 -87t86.5 -24z" />
    <glyph glyph-name="Imacron" unicode="&#x12a;" horiz-adv-x="258" 
d="M333 804h-408v26h408v-26zM109 0v700h40v-700h-40z" />
    <glyph glyph-name="imacron" unicode="&#x12b;" horiz-adv-x="422" 
d="M319 702h-408v26h408v-26zM246 36h141v-36h-146q-78 0 -112 34.5t-34 112.5v456h40v-456q0 -63 24.5 -87t86.5 -24z" />
    <glyph glyph-name="Ibreve" unicode="&#x12c;" horiz-adv-x="258" 
d="M109 0v700h40v-700h-40zM-175 852v29q119 -88 304 -88t304 88v-29q-122 -94 -304 -94t-304 94z" />
    <glyph glyph-name="ibreve" unicode="&#x12d;" horiz-adv-x="422" 
d="M-189 750v29q119 -88 304 -88t304 88v-29q-122 -94 -304 -94t-304 94zM246 36h141v-36h-146q-78 0 -112 34.5t-34 112.5v456h40v-456q0 -63 24.5 -87t86.5 -24z" />
    <glyph glyph-name="Iogonek" unicode="&#x12e;" horiz-adv-x="258" 
d="M109 0v700h40v-700h-11v-66h-20q-217 0 -217 -44q0 -12 11 -16.5t43 -4.5h223v-36h-222q-47 0 -66.5 10.5t-19.5 36.5q0 42 57.5 57.5t190.5 15.5v47h-9z" />
    <glyph glyph-name="iogonek" unicode="&#x12f;" horiz-adv-x="422" 
d="M246 36h141v-36h-40v-66h-20q-217 0 -217 -44q0 -12 11 -16.5t43 -4.5h223v-36h-222q-47 0 -66.5 10.5t-19.5 36.5q0 42 55.5 57.5t192.5 15.5v47h-86q-78 0 -112 34.5t-34 112.5v456h40v-456q0 -63 24.5 -87t86.5 -24zM169 730v-41h-108v41h108z" />
    <glyph glyph-name="Idotaccent" unicode="&#x130;" horiz-adv-x="258" 
d="M109 0v700h40v-700h-40zM183 832v-41h-108v41h108z" />
    <glyph glyph-name="dotlessi" unicode="&#x131;" horiz-adv-x="422" 
d="M246 36h141v-36h-146q-78 0 -112 34.5t-34 112.5v456h40v-456q0 -63 24.5 -87t86.5 -24z" />
    <glyph glyph-name="IJ" unicode="&#x132;" horiz-adv-x="3617" 
d="M109 0v700h40v-700h-40zM324 147v195h40v-191q0 -68 23 -91.5t90 -23.5h2878q68 0 96 29t28 99v536h40v-542q0 -80 -39 -119t-120 -39h-2889q-79 0 -113 34t-34 113z" />
    <glyph glyph-name="Jcircumflex" unicode="&#x134;" 
d="M66 147v195h40v-191q0 -68 23 -91.5t90 -23.5h2878q68 0 96 29t28 99v536h40v-542q0 -80 -39 -119t-120 -39h-2889q-79 0 -113 34t-34 113zM3041 846l-272 -87h-61l294 113h78l294 -113h-61z" />
    <glyph glyph-name="jcircumflex" unicode="&#x135;" horiz-adv-x="270" 
d="M-66 -131h81q62 0 86.5 24t24.5 87v623h40v-623q0 -78 -34 -112.5t-112 -34.5h-86v36zM146 744l-272 -87h-61l294 113h78l294 -113h-61z" />
    <glyph glyph-name="uni0136" unicode="&#x136;" horiz-adv-x="3394" 
d="M3304 700v-194q0 -79 -28.5 -115t-95.5 -41q67 -5 95.5 -41t28.5 -115v-194h-40v201q0 71 -27 101t-94 30h-2994v-332h-40v700h40v-332h2994q67 0 94 30t27 101v201h40zM1751 -96v-41q0 -75 -62 -75h-36v23h36q28 0 28 37v15h-74v41h108z" />
    <glyph glyph-name="uni0137" unicode="&#x137;" horiz-adv-x="3004" 
d="M2884 400v203h40v-175q0 -57 -19.5 -88.5t-73.5 -38.5q54 -7 73.5 -38.5t19.5 -88.5v-174h-40v202q0 43 -19.5 62t-62.5 19h-2658v-283h-40v770h40v-451h2658q43 0 62.5 19t19.5 62zM1588 -96v-41q0 -75 -62 -75h-36v23h36q28 0 28 37v15h-74v41h108z" />
    <glyph glyph-name="kgreenlandic" unicode="&#x138;" horiz-adv-x="3004" 
d="M2884 400v203h40v-175q0 -57 -19.5 -88.5t-73.5 -38.5q54 -7 73.5 -38.5t19.5 -88.5v-174h-40v202q0 43 -19.5 62t-62.5 19h-2658v-283h-40v603h40v-284h2658q43 0 62.5 19t19.5 62z" />
    <glyph glyph-name="Lacute" unicode="&#x139;" horiz-adv-x="3289" 
d="M3254 36v-36h-3145v700h40v-664h3105zM481 872l-330 -113h-72l286 113h116z" />
    <glyph glyph-name="lacute" unicode="&#x13a;" horiz-adv-x="420" 
d="M244 36h141v-36h-146q-78 0 -112 34.5t-34 112.5v623h40v-623q0 -63 24.5 -87t86.5 -24zM405 937l-330 -113h-72l286 113h116z" />
    <glyph glyph-name="uni013B" unicode="&#x13b;" horiz-adv-x="3289" 
d="M3254 36v-36h-3145v700h40v-664h3105zM1708 -96v-41q0 -75 -62 -75h-36v23h36q28 0 28 37v15h-74v41h108z" />
    <glyph glyph-name="uni013C" unicode="&#x13c;" horiz-adv-x="420" 
d="M244 36h141v-36h-146q-78 0 -112 34.5t-34 112.5v623h40v-623q0 -63 24.5 -87t86.5 -24zM264 -96v-41q0 -75 -62 -75h-36v23h36q28 0 28 37v15h-74v41h108z" />
    <glyph glyph-name="Lcaron" unicode="&#x13d;" horiz-adv-x="3289" 
d="M3254 36v-36h-3145v700h40v-664h3105zM2852 700v-47q0 -85 -72 -85h-16v26h17q32 0 32 42v17h-49v47h88z" />
    <glyph glyph-name="lcaron" unicode="&#x13e;" horiz-adv-x="462" 
d="M244 36h141v-36h-146q-78 0 -112 34.5t-34 112.5v623h40v-623q0 -63 24.5 -87t86.5 -24zM395 700v-47q0 -85 -72 -85h-16v26h17q32 0 32 42v17h-49v47h88z" />
    <glyph glyph-name="Ldot" unicode="&#x13f;" horiz-adv-x="3289" 
d="M3254 36v-36h-3145v700h40v-664h3105zM1768 377v-51h-88v51h88z" />
    <glyph glyph-name="ldot" unicode="&#x140;" horiz-adv-x="542" 
d="M244 36h141v-36h-146q-78 0 -112 34.5t-34 112.5v623h40v-623q0 -63 24.5 -87t86.5 -24zM425 375v-51h-88v51h88z" />
    <glyph glyph-name="Lslash" unicode="&#x141;" horiz-adv-x="3289" 
d="M3254 36v-36h-3145v235l-89 -26v36l89 26v429h40v-417l871 262v-36l-871 -262v-211h3105z" />
    <glyph glyph-name="lslash" unicode="&#x142;" horiz-adv-x="420" 
d="M244 36h141v-36h-146q-78 0 -112 34.5t-34 112.5v184l-73 -22v36l73 22v403h40v-391l267 80v-36l-267 -80v-196q0 -63 24.5 -87t86.5 -24z" />
    <glyph glyph-name="Nacute" unicode="&#x143;" horiz-adv-x="3391" 
d="M262 664q-68 0 -96 -29t-28 -99v-536h-40v542q0 80 39 119t120 39h2877q81 0 120 -39t39 -119v-542h-40v536q0 70 -28 99t-96 29h-2867zM1987 872l-330 -113h-72l286 113h116z" />
    <glyph glyph-name="nacute" unicode="&#x144;" horiz-adv-x="3006" 
d="M93 0v446q0 81 37.5 119t118.5 38h2508q81 0 118.5 -38t37.5 -119v-446h-40v446q0 67 -27 94t-94 27h-2498q-67 0 -94 -27t-27 -94v-446h-40zM1786 770l-330 -113h-72l286 113h116z" />
    <glyph glyph-name="uni0145" unicode="&#x145;" horiz-adv-x="3391" 
d="M262 664q-68 0 -96 -29t-28 -99v-536h-40v542q0 80 39 119t120 39h2877q81 0 120 -39t39 -119v-542h-40v536q0 70 -28 99t-96 29h-2867zM1749 -96v-41q0 -75 -62 -75h-36v23h36q28 0 28 37v15h-74v41h108z" />
    <glyph glyph-name="uni0146" unicode="&#x146;" horiz-adv-x="3006" 
d="M93 0v446q0 81 37.5 119t118.5 38h2508q81 0 118.5 -38t37.5 -119v-446h-40v446q0 67 -27 94t-94 27h-2498q-67 0 -94 -27t-27 -94v-446h-40zM1557 -96v-41q0 -75 -62 -75h-36v23h36q28 0 28 37v15h-74v41h108z" />
    <glyph glyph-name="Ncaron" unicode="&#x147;" horiz-adv-x="3391" 
d="M262 664q-68 0 -96 -29t-28 -99v-536h-40v542q0 80 39 119t120 39h2877q81 0 120 -39t39 -119v-542h-40v536q0 70 -28 99t-96 29h-2867zM1423 872l272 -87l272 87h61l-294 -113h-78l-294 113h61z" />
    <glyph glyph-name="ncaron" unicode="&#x148;" horiz-adv-x="3006" 
d="M93 0v446q0 81 37.5 119t118.5 38h2508q81 0 118.5 -38t37.5 -119v-446h-40v446q0 67 -27 94t-94 27h-2498q-67 0 -94 -27t-27 -94v-446h-40zM1231 770l272 -87l272 87h61l-294 -113h-78l-294 113h61z" />
    <glyph glyph-name="napostrophe" unicode="&#x149;" horiz-adv-x="3158" 
d="M245 0v446q0 81 37.5 119t118.5 38h2508q81 0 118.5 -38t37.5 -119v-446h-40v446q0 67 -27 94t-94 27h-2498q-67 0 -94 -27t-27 -94v-446h-40zM155 700v-47q0 -85 -72 -85h-16v26h17q32 0 32 42v17h-49v47h88z" />
    <glyph glyph-name="Eng" unicode="&#x14a;" horiz-adv-x="3391" 
d="M262 664q-68 0 -96 -29t-28 -99v-536h-40v542q0 80 39 119t120 39h2877q81 0 120 -39t39 -119v-551q0 -80 -39 -119t-120 -39h-906v36h901q68 0 96 29t28 99v539q0 70 -28 99t-96 29h-2867z" />
    <glyph glyph-name="eng" unicode="&#x14b;" horiz-adv-x="3006" 
d="M2681 -131h81q62 0 86.5 24t24.5 87v466q0 67 -27 94t-94 27h-2498q-67 0 -94 -27t-27 -94v-446h-40v446q0 81 37.5 119t118.5 38h2508q81 0 118.5 -38t37.5 -119v-466q0 -78 -34 -112.5t-112 -34.5h-86v36z" />
    <glyph glyph-name="Omacron" unicode="&#x14c;" horiz-adv-x="3379" 
d="M246 0q-81 0 -120 39t-39 119v384q0 80 39 119t120 39h2887q81 0 120 -39t39 -119v-384q0 -158 -159 -158h-2887zM3252 164v372q0 70 -28 99t-96 29h-2877q-64 0 -94 -29.5t-30 -98.5v-372q0 -72 27.5 -100t96.5 -28h2877q68 0 96 29t28 99zM1993 803h-608v28h608v-28z
" />
    <glyph glyph-name="omacron" unicode="&#x14d;" horiz-adv-x="2994" 
d="M2756 603q81 0 118.5 -38t37.5 -119v-289q0 -81 -37.5 -119t-118.5 -38h-2518q-81 0 -118.5 38t-37.5 119v289q0 81 37.5 119t118.5 38h2518zM2751 36q67 0 94 27t27 94v289q0 67 -27 94t-94 27h-2508q-67 0 -94 -27t-27 -94v-289q0 -67 27 -94t94 -27h2508zM1801 701
h-608v28h608v-28z" />
    <glyph glyph-name="Obreve" unicode="&#x14e;" horiz-adv-x="3379" 
d="M246 0q-81 0 -120 39t-39 119v384q0 80 39 119t120 39h2887q81 0 120 -39t39 -119v-384q0 -158 -159 -158h-2887zM3252 164v372q0 70 -28 99t-96 29h-2877q-64 0 -94 -29.5t-30 -98.5v-372q0 -72 27.5 -100t96.5 -28h2877q68 0 96 29t28 99zM1385 852v29q119 -88 304 -88
t304 88v-29q-122 -94 -304 -94t-304 94z" />
    <glyph glyph-name="obreve" unicode="&#x14f;" horiz-adv-x="2994" 
d="M2756 603q81 0 118.5 -38t37.5 -119v-289q0 -81 -37.5 -119t-118.5 -38h-2518q-81 0 -118.5 38t-37.5 119v289q0 81 37.5 119t118.5 38h2518zM2751 36q67 0 94 27t27 94v289q0 67 -27 94t-94 27h-2508q-67 0 -94 -27t-27 -94v-289q0 -67 27 -94t94 -27h2508zM1193 750v29
q119 -88 304 -88t304 88v-29q-122 -94 -304 -94t-304 94z" />
    <glyph glyph-name="Ohungarumlaut" unicode="&#x150;" horiz-adv-x="3379" 
d="M246 0q-81 0 -120 39t-39 119v384q0 80 39 119t120 39h2887q81 0 120 -39t39 -119v-384q0 -158 -159 -158h-2887zM3252 164v372q0 70 -28 99t-96 29h-2877q-64 0 -94 -29.5t-30 -98.5v-372q0 -72 27.5 -100t96.5 -28h2877q68 0 96 29t28 99zM2131 872l-330 -113h-72
l286 113h116zM1711 872l-330 -113h-72l286 113h116z" />
    <glyph glyph-name="ohungarumlaut" unicode="&#x151;" horiz-adv-x="2994" 
d="M2756 603q81 0 118.5 -38t37.5 -119v-289q0 -81 -37.5 -119t-118.5 -38h-2518q-81 0 -118.5 38t-37.5 119v289q0 81 37.5 119t118.5 38h2518zM2751 36q67 0 94 27t27 94v289q0 67 -27 94t-94 27h-2508q-67 0 -94 -27t-27 -94v-289q0 -67 27 -94t94 -27h2508zM1999 770
l-330 -113h-72l286 113h116zM1579 770l-330 -113h-72l286 113h116z" />
    <glyph glyph-name="OE" unicode="&#x152;" horiz-adv-x="5196" 
d="M246 0q-81 0 -120 39t-39 119v384q0 80 39 119t120 39h4885v-36h-2484v-296h2359v-36h-2359v-296h2484v-36h-4885zM2607 36v628h-2356q-68 0 -96 -29t-28 -99v-372q0 -70 28 -99t96 -29h2356z" />
    <glyph glyph-name="oe" unicode="&#x153;" horiz-adv-x="4503" 
d="M2237 138v327q0 102 -99 102h-1895q-67 0 -94 -27t-27 -94v-289q0 -67 27 -94t94 -27h1895q99 0 99 102zM4398 418v50q0 54 -22.5 76.5t-76.5 22.5h-1923q-99 0 -99 -102v-146h2022q54 0 76.5 22.5t22.5 76.5zM2277 283v-145q0 -102 99 -102h2032v-36h-2010
q-67 0 -100 25t-41 81q-8 -56 -41 -81t-100 -25h-1878q-81 0 -118.5 38t-37.5 119v289q0 81 37.5 119t118.5 38h1878q67 0 100 -25t41 -81q8 56 41 81t100 25h1904q71 0 103.5 -33t32.5 -106v-42q0 -73 -32.5 -106t-103.5 -33h-2025z" />
    <glyph glyph-name="Racute" unicode="&#x154;" horiz-adv-x="3392" 
d="M3304 545v-44q0 -78 -28.5 -112t-96.5 -39q67 -5 96 -41t29 -115v-194h-40v201q0 71 -27 101t-94 30h-2994v-332h-40v700h3040q80 0 117.5 -38t37.5 -117zM3143 368q68 0 94.5 28t26.5 98v48q0 65 -27.5 93.5t-89.5 28.5h-2998v-296h2994zM1988 872l-330 -113h-72
l286 113h116z" />
    <glyph glyph-name="racute" unicode="&#x155;" horiz-adv-x="2783" 
d="M2743 603v-36h-2489q-67 0 -94 -27t-27 -94v-446h-40v446q0 81 37.5 119t118.5 38h2494zM1763 770l-330 -113h-72l286 113h116z" />
    <glyph glyph-name="uni0156" unicode="&#x156;" horiz-adv-x="3392" 
d="M3304 545v-44q0 -78 -28.5 -112t-96.5 -39q67 -5 96 -41t29 -115v-194h-40v201q0 71 -27 101t-94 30h-2994v-332h-40v700h3040q80 0 117.5 -38t37.5 -117zM3143 368q68 0 94.5 28t26.5 98v48q0 65 -27.5 93.5t-89.5 28.5h-2998v-296h2994zM1780 -96v-41q0 -75 -62 -75
h-36v23h36q28 0 28 37v15h-74v41h108z" />
    <glyph glyph-name="uni0157" unicode="&#x157;" horiz-adv-x="2783" 
d="M2743 603v-36h-2489q-67 0 -94 -27t-27 -94v-446h-40v446q0 81 37.5 119t118.5 38h2494zM167 -96v-41q0 -75 -62 -75h-36v23h36q28 0 28 37v15h-74v41h108z" />
    <glyph glyph-name="Rcaron" unicode="&#x158;" horiz-adv-x="3392" 
d="M3304 545v-44q0 -78 -28.5 -112t-96.5 -39q67 -5 96 -41t29 -115v-194h-40v201q0 71 -27 101t-94 30h-2994v-332h-40v700h3040q80 0 117.5 -38t37.5 -117zM3143 368q68 0 94.5 28t26.5 98v48q0 65 -27.5 93.5t-89.5 28.5h-2998v-296h2994zM1424 872l272 -87l272 87h61
l-294 -113h-78l-294 113h61z" />
    <glyph glyph-name="rcaron" unicode="&#x159;" horiz-adv-x="2783" 
d="M2743 603v-36h-2489q-67 0 -94 -27t-27 -94v-446h-40v446q0 81 37.5 119t118.5 38h2494zM1199 770l272 -87l272 87h61l-294 -113h-78l-294 113h61z" />
    <glyph glyph-name="Sacute" unicode="&#x15a;" horiz-adv-x="3324" 
d="M244 332q-80 0 -117.5 38t-37.5 117v58q0 79 37.5 117t117.5 38h2980v-36h-2978q-62 0 -89.5 -28.5t-27.5 -93.5v-52q0 -65 27.5 -93.5t89.5 -28.5h2853q80 0 117.5 -38t37.5 -117v-58q0 -79 -37.5 -117t-117.5 -38h-3030v36h3028q62 0 89.5 28.5t27.5 93.5v52
q0 65 -27.5 93.5t-89.5 28.5h-2853zM1954 872l-330 -113h-72l286 113h116z" />
    <glyph glyph-name="sacute" unicode="&#x15b;" horiz-adv-x="2969" 
d="M2874 567h-2666q-54 0 -76.5 -22.5t-22.5 -76.5v-50q0 -54 23 -76.5t76 -22.5h2560q71 0 103.5 -33t32.5 -106v-41q0 -73 -32.5 -106t-103.5 -33h-2699v36h2696q54 0 76.5 22.5t22.5 76.5v49q0 54 -22.5 76.5t-76.5 22.5h-2560q-71 0 -103.5 33t-32.5 106v42
q0 73 32.5 106t103.5 33h2669v-36zM1776 770l-330 -113h-72l286 113h116z" />
    <glyph glyph-name="Scircumflex" unicode="&#x15c;" horiz-adv-x="3324" 
d="M244 332q-80 0 -117.5 38t-37.5 117v58q0 79 37.5 117t117.5 38h2980v-36h-2978q-62 0 -89.5 -28.5t-27.5 -93.5v-52q0 -65 27.5 -93.5t89.5 -28.5h2853q80 0 117.5 -38t37.5 -117v-58q0 -79 -37.5 -117t-117.5 -38h-3030v36h3028q62 0 89.5 28.5t27.5 93.5v52
q0 65 -27.5 93.5t-89.5 28.5h-2853zM1662 846l-272 -87h-61l294 113h78l294 -113h-61z" />
    <glyph glyph-name="scircumflex" unicode="&#x15d;" horiz-adv-x="2969" 
d="M2874 567h-2666q-54 0 -76.5 -22.5t-22.5 -76.5v-50q0 -54 23 -76.5t76 -22.5h2560q71 0 103.5 -33t32.5 -106v-41q0 -73 -32.5 -106t-103.5 -33h-2699v36h2696q54 0 76.5 22.5t22.5 76.5v49q0 54 -22.5 76.5t-76.5 22.5h-2560q-71 0 -103.5 33t-32.5 106v42
q0 73 32.5 106t103.5 33h2669v-36zM1484 744l-272 -87h-61l294 113h78l294 -113h-61z" />
    <glyph glyph-name="Scedilla" unicode="&#x15e;" horiz-adv-x="3324" 
d="M1668 0l-19 -53h225q54 0 79 -9t25 -38q0 -40 -33 -53.5t-109 -13.5h-466v36h474q58 0 79 6.5t21 27.5q0 19 -14.5 23.5t-59.5 4.5h-245l26 69h-1582v36h3028q62 0 89.5 28.5t27.5 93.5v52q0 65 -27.5 93.5t-89.5 28.5h-2853q-80 0 -117.5 38t-37.5 117v58q0 79 37.5 117
t117.5 38h2980v-36h-2978q-62 0 -89.5 -28.5t-27.5 -93.5v-52q0 -65 27.5 -93.5t89.5 -28.5h2853q80 0 117.5 -38t37.5 -117v-58q0 -79 -37.5 -117t-117.5 -38h-1431z" />
    <glyph glyph-name="scedilla" unicode="&#x15f;" horiz-adv-x="2969" 
d="M1476 0l-19 -53h225q54 0 79 -9t25 -38q0 -40 -33 -53.5t-109 -13.5h-466v36h474q58 0 79 6.5t21 27.5q0 19 -14.5 23.5t-59.5 4.5h-245l26 69h-1390v36h2696q54 0 76.5 22.5t22.5 76.5v49q0 54 -22.5 76.5t-76.5 22.5h-2560q-71 0 -103.5 33t-32.5 106v42q0 73 32.5 106
t103.5 33h2669v-36h-2666q-54 0 -76.5 -22.5t-22.5 -76.5v-50q0 -54 23 -76.5t76 -22.5h2560q71 0 103.5 -33t32.5 -106v-41q0 -73 -32.5 -106t-103.5 -33h-1292z" />
    <glyph glyph-name="Scaron" unicode="&#x160;" horiz-adv-x="3324" 
d="M244 332q-80 0 -117.5 38t-37.5 117v58q0 79 37.5 117t117.5 38h2980v-36h-2978q-62 0 -89.5 -28.5t-27.5 -93.5v-52q0 -65 27.5 -93.5t89.5 -28.5h2853q80 0 117.5 -38t37.5 -117v-58q0 -79 -37.5 -117t-117.5 -38h-3030v36h3028q62 0 89.5 28.5t27.5 93.5v52
q0 65 -27.5 93.5t-89.5 28.5h-2853zM1390 872l272 -87l272 87h61l-294 -113h-78l-294 113h61z" />
    <glyph glyph-name="scaron" unicode="&#x161;" horiz-adv-x="2969" 
d="M2874 567h-2666q-54 0 -76.5 -22.5t-22.5 -76.5v-50q0 -54 23 -76.5t76 -22.5h2560q71 0 103.5 -33t32.5 -106v-41q0 -73 -32.5 -106t-103.5 -33h-2699v36h2696q54 0 76.5 22.5t22.5 76.5v49q0 54 -22.5 76.5t-76.5 22.5h-2560q-71 0 -103.5 33t-32.5 106v42
q0 73 32.5 106t103.5 33h2669v-36zM1212 770l272 -87l272 87h61l-294 -113h-78l-294 113h61z" />
    <glyph glyph-name="uni0162" unicode="&#x162;" horiz-adv-x="3274" 
d="M1646 0l-19 -53h225q54 0 79 -9t25 -38q0 -40 -33 -53.5t-109 -13.5h-466v36h474q58 0 79 6.5t21 27.5q0 19 -14.5 23.5t-59.5 4.5h-245l26 69h-12v664h-1582v36h3204v-36h-1582v-664h-11z" />
    <glyph glyph-name="uni0163" unicode="&#x163;" horiz-adv-x="2830" 
d="M1418 0l-19 -53h225q54 0 79 -9t25 -38q0 -40 -33 -53.5t-109 -13.5h-466v36h474q58 0 79 6.5t21 27.5q0 19 -14.5 23.5t-59.5 4.5h-245l26 69h-1152q-81 0 -118.5 38t-37.5 119v613h40v-167h2630v-36h-2630v-410q0 -67 27 -94t94 -27h2509v-36h-1345z" />
    <glyph glyph-name="Tcaron" unicode="&#x164;" horiz-adv-x="3274" 
d="M3239 700v-36h-1582v-664h-40v664h-1582v36h3204zM1365 872l272 -87l272 87h61l-294 -113h-78l-294 113h61z" />
    <glyph glyph-name="tcaron" unicode="&#x165;" horiz-adv-x="3082" 
d="M249 0q-81 0 -118.5 38t-37.5 119v613h40v-167h2630v-36h-2630v-410q0 -67 27 -94t94 -27h2509v-36h-2514zM3015 700v-47q0 -85 -72 -85h-16v26h17q32 0 32 42v17h-49v47h88z" />
    <glyph glyph-name="Tbar" unicode="&#x166;" horiz-adv-x="3274" 
d="M3239 700v-36h-1582v-195h284v-36h-284v-433h-40v433h-284v36h284v195h-1582v36h3204z" />
    <glyph glyph-name="tbar" unicode="&#x167;" horiz-adv-x="2830" 
d="M249 0q-81 0 -118.5 38t-37.5 119v246h-93v36h93v331h40v-167h2630v-36h-2630v-128h475v-36h-475v-246q0 -67 27 -94t94 -27h2509v-36h-2514z" />
    <glyph glyph-name="Utilde" unicode="&#x168;" horiz-adv-x="3391" 
d="M257 0q-81 0 -120 39t-39 119v542h40v-536q0 -70 28 -99t96 -29h2867q68 0 96 29t28 99v536h40v-542q0 -80 -39 -119t-120 -39h-2877zM1391 773v33q84 66 162 66q52 0 144 -39t142 -39q78 0 160 67v-33q-84 -66 -164 -66q-52 0 -144 39t-142 39q-78 0 -158 -67z" />
    <glyph glyph-name="utilde" unicode="&#x169;" horiz-adv-x="3006" 
d="M2752 36q67 0 94 27t27 94v446h40v-446q0 -81 -37.5 -119t-118.5 -38h-2508q-81 0 -118.5 38t-37.5 119v446h40v-446q0 -67 27 -94t94 -27h2498zM1199 671v33q84 66 162 66q52 0 144 -39t142 -39q78 0 160 67v-33q-84 -66 -164 -66q-52 0 -144 39t-142 39q-78 0 -158 -67
z" />
    <glyph glyph-name="Umacron" unicode="&#x16a;" horiz-adv-x="3391" 
d="M257 0q-81 0 -120 39t-39 119v542h40v-536q0 -70 28 -99t96 -29h2867q68 0 96 29t28 99v536h40v-542q0 -80 -39 -119t-120 -39h-2877zM1999 803h-608v28h608v-28z" />
    <glyph glyph-name="umacron" unicode="&#x16b;" horiz-adv-x="3006" 
d="M2752 36q67 0 94 27t27 94v446h40v-446q0 -81 -37.5 -119t-118.5 -38h-2508q-81 0 -118.5 38t-37.5 119v446h40v-446q0 -67 27 -94t94 -27h2498zM1807 701h-608v28h608v-28z" />
    <glyph glyph-name="Ubreve" unicode="&#x16c;" horiz-adv-x="3391" 
d="M257 0q-81 0 -120 39t-39 119v542h40v-536q0 -70 28 -99t96 -29h2867q68 0 96 29t28 99v536h40v-542q0 -80 -39 -119t-120 -39h-2877zM1391 852v29q119 -88 304 -88t304 88v-29q-122 -94 -304 -94t-304 94z" />
    <glyph glyph-name="ubreve" unicode="&#x16d;" horiz-adv-x="3006" 
d="M2752 36q67 0 94 27t27 94v446h40v-446q0 -81 -37.5 -119t-118.5 -38h-2508q-81 0 -118.5 38t-37.5 119v446h40v-446q0 -67 27 -94t94 -27h2498zM1199 750v29q119 -88 304 -88t304 88v-29q-122 -94 -304 -94t-304 94z" />
    <glyph glyph-name="Uring" unicode="&#x16e;" horiz-adv-x="3391" 
d="M257 0q-81 0 -120 39t-39 119v542h40v-536q0 -70 28 -99t96 -29h2867q68 0 96 29t28 99v536h40v-542q0 -80 -39 -119t-120 -39h-2877zM1537 816q0 -33 50 -33h216q50 0 50 33q0 16 -11 24t-39 8h-216q-28 0 -39 -8t-11 -24zM1801 759h-212q-79 0 -79 57q0 56 79 56h212
q79 0 79 -56q0 -57 -79 -57z" />
    <glyph glyph-name="uring" unicode="&#x16f;" horiz-adv-x="3006" 
d="M2752 36q67 0 94 27t27 94v446h40v-446q0 -81 -37.5 -119t-118.5 -38h-2508q-81 0 -118.5 38t-37.5 119v446h40v-446q0 -67 27 -94t94 -27h2498zM1345 714q0 -33 50 -33h216q50 0 50 33q0 16 -11 24t-39 8h-216q-28 0 -39 -8t-11 -24zM1609 657h-212q-79 0 -79 57
q0 56 79 56h212q79 0 79 -56q0 -57 -79 -57z" />
    <glyph glyph-name="Uhungarumlaut" unicode="&#x170;" horiz-adv-x="3391" 
d="M257 0q-81 0 -120 39t-39 119v542h40v-536q0 -70 28 -99t96 -29h2867q68 0 96 29t28 99v536h40v-542q0 -80 -39 -119t-120 -39h-2877zM2197 872l-330 -113h-72l286 113h116zM1777 872l-330 -113h-72l286 113h116z" />
    <glyph glyph-name="uhungarumlaut" unicode="&#x171;" horiz-adv-x="3006" 
d="M2752 36q67 0 94 27t27 94v446h40v-446q0 -81 -37.5 -119t-118.5 -38h-2508q-81 0 -118.5 38t-37.5 119v446h40v-446q0 -67 27 -94t94 -27h2498zM2005 770l-330 -113h-72l286 113h116zM1585 770l-330 -113h-72l286 113h116z" />
    <glyph glyph-name="Uogonek" unicode="&#x172;" horiz-adv-x="3391" 
d="M3273 -66h-20q-214 0 -326.5 -5.5t-146.5 -14.5t-34 -26q0 -11 10.5 -15t43.5 -4h523v-36h-522q-47 0 -66.5 10.5t-19.5 34.5q0 25 14.5 37.5t69.5 22t154.5 12.5t279.5 3h20v85q-38 -38 -119 -38h-2877q-81 0 -120 39t-39 119v542h40v-536q0 -70 28 -99t96 -29h2867
q68 0 96 29t28 99v536h40v-542q0 -57 -20 -94v-130z" />
    <glyph glyph-name="uogonek" unicode="&#x173;" horiz-adv-x="3006" 
d="M2892 -66h-20q-214 0 -326.5 -5.5t-146.5 -14.5t-34 -26q0 -11 10.5 -15t43.5 -4h523v-36h-522q-47 0 -66.5 10.5t-19.5 34.5q0 25 14.5 37.5t69.5 22t154.5 12.5t279.5 3h20v82q-38 -35 -115 -35h-2508q-81 0 -118.5 38t-37.5 119v446h40v-446q0 -67 27 -94t94 -27h2498
q67 0 94 27t27 94v446h40v-446q0 -59 -21 -97v-126z" />
    <glyph glyph-name="Wcircumflex" unicode="&#x174;" horiz-adv-x="3990" 
d="M3733 0h-1575q-78 0 -116.5 32.5t-46.5 101.5q-8 -69 -46.5 -101.5t-116.5 -32.5h-1575q-81 0 -120 39t-39 119v542h40v-536q0 -70 28 -99t96 -29h1578q75 0 105 31.5t30 108.5v524h40v-524q0 -77 30 -108.5t105 -31.5h1578q68 0 96 29t28 99v536h40v-542q0 -80 -39 -119
t-120 -39zM1995 846l-272 -87h-61l294 113h78l294 -113h-61z" />
    <glyph glyph-name="wcircumflex" unicode="&#x175;" horiz-adv-x="3526" 
d="M1763 106q-8 -56 -41 -81t-100 -25h-1373q-81 0 -118.5 38t-37.5 119v446h40v-446q0 -67 27 -94t94 -27h1390q99 0 99 102v465h40v-465q0 -102 99 -102h1390q67 0 94 27t27 94v446h40v-446q0 -81 -37.5 -119t-118.5 -38h-1373q-67 0 -100 25t-41 81zM1763 744l-272 -87
h-61l294 113h78l294 -113h-61z" />
    <glyph glyph-name="Ycircumflex" unicode="&#x176;" horiz-adv-x="3336" 
d="M3230 700h40v-210q0 -80 -39 -119t-120 -39h-1423v-332h-40v332h-1423q-81 0 -120 39t-39 119v210h40v-204q0 -70 28 -99t96 -29h2876q68 0 96 29t28 99v204zM1668 846l-272 -87h-61l294 113h78l294 -113h-61z" />
    <glyph glyph-name="ycircumflex" unicode="&#x177;" horiz-adv-x="3017" 
d="M2733 -167h-2600v36h2596q75 0 109.5 33t34.5 111v98q-13 -39 -43.5 -56.5t-86.5 -17.5h-2494q-81 0 -118.5 38t-37.5 119v409h40v-409q0 -67 27 -94t94 -27h2498q67 0 94 27t27 94v409h40v-590q0 -92 -44 -136t-136 -44zM1508 744l-272 -87h-61l294 113h78l294 -113h-61
z" />
    <glyph glyph-name="Ydieresis" unicode="&#x178;" horiz-adv-x="3336" 
d="M3230 700h40v-210q0 -80 -39 -119t-120 -39h-1423v-332h-40v332h-1423q-81 0 -120 39t-39 119v210h40v-204q0 -70 28 -99t96 -29h2876q68 0 96 29t28 99v204zM1487 832v-41h-108v41h108zM1957 832v-41h-108v41h108z" />
    <glyph glyph-name="Zacute" unicode="&#x179;" horiz-adv-x="3332" 
d="M3060 368q89 0 125.5 35.5t36.5 126.5v134h-3125v36h3165v-176q0 -192 -192 -192h-2801q-89 0 -125.5 -35.5t-36.5 -126.5v-134h3155v-36h-3195v176q0 192 192 192h2801zM1968 872l-330 -113h-72l286 113h116z" />
    <glyph glyph-name="zacute" unicode="&#x17a;" horiz-adv-x="2977" 
d="M248 283q-74 0 -107 -33.5t-33 -106.5v-107h2800v-36h-2840v138q0 181 181 181h2479q74 0 107 33.5t33 106.5v108h-2775v36h2815v-139q0 -181 -181 -181h-2479zM1810 770l-330 -113h-72l286 113h116z" />
    <glyph glyph-name="Zdotaccent" unicode="&#x17b;" horiz-adv-x="3332" 
d="M3060 368q89 0 125.5 35.5t36.5 126.5v134h-3125v36h3165v-176q0 -192 -192 -192h-2801q-89 0 -125.5 -35.5t-36.5 -126.5v-134h3155v-36h-3195v176q0 192 192 192h2801zM1730 832v-41h-108v41h108z" />
    <glyph glyph-name="zdotaccent" unicode="&#x17c;" horiz-adv-x="2977" 
d="M248 283q-74 0 -107 -33.5t-33 -106.5v-107h2800v-36h-2840v138q0 181 181 181h2479q74 0 107 33.5t33 106.5v108h-2775v36h2815v-139q0 -181 -181 -181h-2479zM1572 730v-41h-108v41h108z" />
    <glyph glyph-name="Zcaron" unicode="&#x17d;" horiz-adv-x="3332" 
d="M3060 368q89 0 125.5 35.5t36.5 126.5v134h-3125v36h3165v-176q0 -192 -192 -192h-2801q-89 0 -125.5 -35.5t-36.5 -126.5v-134h3155v-36h-3195v176q0 192 192 192h2801zM1404 872l272 -87l272 87h61l-294 -113h-78l-294 113h61z" />
    <glyph glyph-name="zcaron" unicode="&#x17e;" horiz-adv-x="2977" 
d="M248 283q-74 0 -107 -33.5t-33 -106.5v-107h2800v-36h-2840v138q0 181 181 181h2479q74 0 107 33.5t33 106.5v108h-2775v36h2815v-139q0 -181 -181 -181h-2479zM1246 770l272 -87l272 87h61l-294 -113h-78l-294 113h61z" />
    <glyph glyph-name="florin" unicode="&#x192;" 
d="M3196 368v-36h-2862v-185q0 -79 -34 -113t-113 -34h-124v36h118q67 0 90 23.5t23 91.5v181h-231v36h231v175q0 81 37.5 119t118.5 38h2871v-36h-2866q-67 0 -94 -27t-27 -94v-175h2862z" />
    <glyph glyph-name="AEacute" unicode="&#x1fc;" horiz-adv-x="5195" 
d="M2606 0v332h-2468v-332h-40v542q0 80 39 119t120 39h4873v-36h-2484v-296h2359v-36h-2359v-296h2484v-36h-2524zM262 664q-68 0 -96 -29t-28 -99v-168h2468v296h-2344zM2918 872l-330 -113h-72l286 113h116z" />
    <glyph glyph-name="aeacute" unicode="&#x1fd;" horiz-adv-x="4492" 
d="M4387 418v50q0 54 -22.5 76.5t-76.5 22.5h-1923q-99 0 -99 -102v-146h2022q54 0 76.5 22.5t22.5 76.5zM105 184v-49q0 -54 22.5 -76.5t76.5 -22.5h1923q99 0 99 102v145h-2022q-54 0 -76.5 -22.5t-22.5 -76.5zM2105 0h-1904q-71 0 -103.5 33t-32.5 106v41q0 73 32.5 106
t103.5 33h2025v146q0 102 -99 102h-2032v36h2010q67 0 100 -25t41 -81q8 56 41 81t100 25h1904q71 0 103.5 -33t32.5 -106v-42q0 -73 -32.5 -106t-103.5 -33h-2025v-145q0 -102 99 -102h2032v-36h-2010q-67 0 -100 25t-41 81q-8 -56 -41 -81t-100 -25zM2538 770l-330 -113
h-72l286 113h116z" />
    <glyph glyph-name="Oslashacute" unicode="&#x1fe;" horiz-adv-x="3379" 
d="M246 0q-81 0 -120 39t-39 119v384q0 80 39 119t120 39h2887q81 0 120 -39t39 -119v-384q0 -158 -159 -158h-2887zM256 36l2715 628h-2720q-64 0 -94 -29.5t-30 -98.5v-372q0 -72 27.5 -100t96.5 -28h5zM3252 164v372q0 70 -28 99t-96 29h-1l-2715 -628h2716q68 0 96 29
t28 99zM1981 872l-330 -113h-72l286 113h116z" />
    <glyph glyph-name="oslashacute" unicode="&#x1ff;" horiz-adv-x="2994" 
d="M2756 603q81 0 118.5 -38t37.5 -119v-289q0 -81 -37.5 -119t-118.5 -38h-2518q-81 0 -118.5 38t-37.5 119v289q0 81 37.5 119t118.5 38h2518zM2751 36q67 0 94 27t27 94v289q0 63 -24.5 91t-83.5 30l-2380 -531h2367zM228 36l2381 531h-2366q-67 0 -94 -27t-27 -94v-289
q0 -63 24 -91t82 -30zM1789 770l-330 -113h-72l286 113h116z" />
    <glyph glyph-name="uni0218" unicode="&#x218;" horiz-adv-x="3324" 
d="M244 332q-80 0 -117.5 38t-37.5 117v58q0 79 37.5 117t117.5 38h2980v-36h-2978q-62 0 -89.5 -28.5t-27.5 -93.5v-52q0 -65 27.5 -93.5t89.5 -28.5h2853q80 0 117.5 -38t37.5 -117v-58q0 -79 -37.5 -117t-117.5 -38h-3030v36h3028q62 0 89.5 28.5t27.5 93.5v52
q0 65 -27.5 93.5t-89.5 28.5h-2853zM1716 -96v-41q0 -75 -62 -75h-36v23h36q28 0 28 37v15h-74v41h108z" />
    <glyph glyph-name="uni0219" unicode="&#x219;" horiz-adv-x="2969" 
d="M2874 567h-2666q-54 0 -76.5 -22.5t-22.5 -76.5v-50q0 -54 23 -76.5t76 -22.5h2560q71 0 103.5 -33t32.5 -106v-41q0 -73 -32.5 -106t-103.5 -33h-2699v36h2696q54 0 76.5 22.5t22.5 76.5v49q0 54 -22.5 76.5t-76.5 22.5h-2560q-71 0 -103.5 33t-32.5 106v42
q0 73 32.5 106t103.5 33h2669v-36zM1518 -96v-41q0 -75 -62 -75h-36v23h36q28 0 28 37v15h-74v41h108z" />
    <glyph glyph-name="uni021A" unicode="&#x21a;" horiz-adv-x="3274" 
d="M3239 700v-36h-1582v-664h-40v664h-1582v36h3204zM1691 -96v-41q0 -75 -62 -75h-36v23h36q28 0 28 37v15h-74v41h108z" />
    <glyph glyph-name="uni021B" unicode="&#x21b;" horiz-adv-x="2830" 
d="M249 0q-81 0 -118.5 38t-37.5 119v613h40v-167h2630v-36h-2630v-410q0 -67 27 -94t94 -27h2509v-36h-2514zM1469 -96v-41q0 -75 -62 -75h-36v23h36q28 0 28 37v15h-74v41h108z" />
    <glyph glyph-name="uni0237" unicode="&#x237;" horiz-adv-x="270" 
d="M-66 -131h81q62 0 86.5 24t24.5 87v623h40v-623q0 -78 -34 -112.5t-112 -34.5h-86v36z" />
    <glyph glyph-name="circumflex" unicode="&#x2c6;" horiz-adv-x="750" 
d="M375 744l-272 -87h-61l294 113h78l294 -113h-61z" />
    <glyph glyph-name="caron" unicode="&#x2c7;" horiz-adv-x="750" 
d="M103 770l272 -87l272 87h61l-294 -113h-78l-294 113h61z" />
    <glyph glyph-name="breve" unicode="&#x2d8;" horiz-adv-x="750" 
d="M71 750v29q119 -88 304 -88t304 88v-29q-122 -94 -304 -94t-304 94z" />
    <glyph glyph-name="dotaccent" unicode="&#x2d9;" horiz-adv-x="750" 
d="M429 730v-41h-108v41h108z" />
    <glyph glyph-name="ring" unicode="&#x2da;" horiz-adv-x="750" 
d="M217 714q0 -33 50 -33h216q50 0 50 33q0 16 -11 24t-39 8h-216q-28 0 -39 -8t-11 -24zM481 657h-212q-79 0 -79 57q0 56 79 56h212q79 0 79 -56q0 -57 -79 -57z" />
    <glyph glyph-name="ogonek" unicode="&#x2db;" horiz-adv-x="750" 
d="M629 -66h-20q-214 0 -326.5 -5.5t-146.5 -14.5t-34 -26q0 -11 10.5 -15t43.5 -4h523v-36h-522q-47 0 -66.5 10.5t-19.5 34.5q0 25 14.5 37.5t69.5 22t154.5 12.5t279.5 3h20v47h20v-66z" />
    <glyph glyph-name="tilde" unicode="&#x2dc;" horiz-adv-x="750" 
d="M71 671v33q84 66 162 66q52 0 144 -39t142 -39q78 0 160 67v-33q-84 -66 -164 -66q-52 0 -144 39t-142 39q-78 0 -158 -67z" />
    <glyph glyph-name="hungarumlaut" unicode="&#x2dd;" horiz-adv-x="750" 
d="M817 770l-330 -113h-72l286 113h116zM397 770l-330 -113h-72l286 113h116z" />
    <glyph glyph-name="pi" unicode="&#x3c0;" 
d="M269 0v603h2820v-603h-40v567h-2740v-567h-40z" />
    <glyph glyph-name="uni1E02" unicode="&#x1e02;" horiz-adv-x="3385" 
d="M3304 199v-44q0 -79 -37.5 -117t-117.5 -38h-3040v700h3040q80 0 117.5 -38t37.5 -117v-44q0 -78 -28.5 -112t-97.5 -39q69 -5 97.5 -39t28.5 -112zM3143 368q68 0 94.5 28t26.5 98v48q0 65 -27.5 93.5t-89.5 28.5h-2998v-296h2994zM149 332v-296h2998q62 0 89.5 28.5
t27.5 93.5v48q0 70 -26.5 98t-94.5 28h-2994zM1742 832v-41h-108v41h108z" />
    <glyph glyph-name="uni1E03" unicode="&#x1e03;" horiz-adv-x="3005" 
d="M93 157v613h40v-241q12 38 43 56t87 18h2504q81 0 118.5 -38t37.5 -119v-289q0 -81 -37.5 -119t-118.5 -38h-2518q-81 0 -118.5 38t-37.5 119zM133 446v-289q0 -67 27 -94t94 -27h2508q67 0 94 27t27 94v289q0 67 -27 94t-94 27h-2508q-67 0 -94 -27t-27 -94zM1556 730
v-41h-108v41h108z" />
    <glyph glyph-name="uni1E0A" unicode="&#x1e0a;" horiz-adv-x="3386" 
d="M3083 700q108 0 164.5 -56t56.5 -164v-260q0 -108 -56.5 -164t-164.5 -56h-2974v700h2974zM3077 36q94 0 140.5 45.5t46.5 142.5v252q0 97 -46.5 142.5t-140.5 45.5h-2928v-628h2928zM1732 832v-41h-108v41h108z" />
    <glyph glyph-name="uni1E0B" unicode="&#x1e0b;" horiz-adv-x="3005" 
d="M2912 770v-613q0 -81 -37.5 -119t-118.5 -38h-2518q-81 0 -118.5 38t-37.5 119v289q0 81 37.5 119t118.5 38h2504q56 0 87 -18t43 -56v241h40zM2872 157v289q0 67 -27 94t-94 27h-2508q-67 0 -94 -27t-27 -94v-289q0 -67 27 -94t94 -27h2508q67 0 94 27t27 94zM1556 730
v-41h-108v41h108z" />
    <glyph glyph-name="uni1E1E" unicode="&#x1e1e;" horiz-adv-x="3304" 
d="M109 0v700h3160v-36h-3120v-296h2995v-36h-2995v-332h-40zM1737 832v-41h-108v41h108z" />
    <glyph glyph-name="uni1E1F" unicode="&#x1e1f;" horiz-adv-x="2898" 
d="M277 567q-75 0 -109.5 -33t-34.5 -111v-104h2635v-36h-2635v-283h-40v423q0 92 44 136t136 44h2585v-36h-2581zM1563 730v-41h-108v41h108z" />
    <glyph glyph-name="uni1E40" unicode="&#x1e40;" horiz-adv-x="3990" 
d="M2158 700h1575q81 0 120 -39t39 -119v-542h-40v536q0 70 -28 99t-96 29h-1578q-75 0 -105 -31.5t-30 -108.5v-524h-40v524q0 77 -30 108.5t-105 31.5h-1578q-68 0 -96 -29t-28 -99v-536h-40v542q0 80 39 119t120 39h1575q78 0 116.5 -32.5t46.5 -101.5q8 69 46.5 101.5
t116.5 32.5zM2049 832v-41h-108v41h108z" />
    <glyph glyph-name="uni1E41" unicode="&#x1e41;" horiz-adv-x="3526" 
d="M1763 497q8 56 41 81t100 25h1373q81 0 118.5 -38t37.5 -119v-446h-40v446q0 67 -27 94t-94 27h-1390q-99 0 -99 -102v-465h-40v465q0 102 -99 102h-1390q-67 0 -94 -27t-27 -94v-446h-40v446q0 81 37.5 119t118.5 38h1373q67 0 100 -25t41 -81zM1817 730v-41h-108v41
h108z" />
    <glyph glyph-name="uni1E56" unicode="&#x1e56;" horiz-adv-x="3345" 
d="M109 0v700h3030q80 0 117.5 -38t37.5 -117v-58q0 -79 -37.5 -117t-117.5 -38h-2990v-332h-40zM3254 542q0 65 -27.5 93.5t-89.5 28.5h-2988v-296h2988q62 0 89.5 28.5t27.5 93.5v52zM1762 832v-41h-108v41h108z" />
    <glyph glyph-name="uni1E57" unicode="&#x1e57;" horiz-adv-x="3005" 
d="M93 -167v613q0 81 37.5 119t118.5 38h2518q81 0 118.5 -38t37.5 -119v-289q0 -81 -37.5 -119t-118.5 -38h-2504q-56 0 -87 18t-43 56v-241h-40zM133 446v-289q0 -67 27 -94t94 -27h2508q67 0 94 27t27 94v289q0 67 -27 94t-94 27h-2508q-67 0 -94 -27t-27 -94zM1556 730
v-41h-108v41h108z" />
    <glyph glyph-name="uni1E60" unicode="&#x1e60;" horiz-adv-x="3324" 
d="M244 332q-80 0 -117.5 38t-37.5 117v58q0 79 37.5 117t117.5 38h2980v-36h-2978q-62 0 -89.5 -28.5t-27.5 -93.5v-52q0 -65 27.5 -93.5t89.5 -28.5h2853q80 0 117.5 -38t37.5 -117v-58q0 -79 -37.5 -117t-117.5 -38h-3030v36h3028q62 0 89.5 28.5t27.5 93.5v52
q0 65 -27.5 93.5t-89.5 28.5h-2853zM1716 832v-41h-108v41h108z" />
    <glyph glyph-name="uni1E61" unicode="&#x1e61;" horiz-adv-x="2969" 
d="M2874 567h-2666q-54 0 -76.5 -22.5t-22.5 -76.5v-50q0 -54 23 -76.5t76 -22.5h2560q71 0 103.5 -33t32.5 -106v-41q0 -73 -32.5 -106t-103.5 -33h-2699v36h2696q54 0 76.5 22.5t22.5 76.5v49q0 54 -22.5 76.5t-76.5 22.5h-2560q-71 0 -103.5 33t-32.5 106v42
q0 73 32.5 106t103.5 33h2669v-36zM1538 730v-41h-108v41h108z" />
    <glyph glyph-name="uni1E6A" unicode="&#x1e6a;" horiz-adv-x="3274" 
d="M3239 700v-36h-1582v-664h-40v664h-1582v36h3204zM1691 832v-41h-108v41h108z" />
    <glyph glyph-name="uni1E6B" unicode="&#x1e6b;" horiz-adv-x="2830" 
d="M249 0q-81 0 -118.5 38t-37.5 119v613h40v-167h2630v-36h-2630v-410q0 -67 27 -94t94 -27h2509v-36h-2514zM1469 730v-41h-108v41h108z" />
    <glyph glyph-name="Wgrave" unicode="&#x1e80;" horiz-adv-x="3990" 
d="M3733 0h-1575q-78 0 -116.5 32.5t-46.5 101.5q-8 -69 -46.5 -101.5t-116.5 -32.5h-1575q-81 0 -120 39t-39 119v542h40v-536q0 -70 28 -99t96 -29h1578q75 0 105 31.5t30 108.5v524h40v-524q0 -77 30 -108.5t105 -31.5h1578q68 0 96 29t28 99v536h40v-542q0 -80 -39 -119
t-120 -39zM2031 759l-324 113h108l288 -113h-72z" />
    <glyph glyph-name="wgrave" unicode="&#x1e81;" horiz-adv-x="3526" 
d="M1763 106q-8 -56 -41 -81t-100 -25h-1373q-81 0 -118.5 38t-37.5 119v446h40v-446q0 -67 27 -94t94 -27h1390q99 0 99 102v465h40v-465q0 -102 99 -102h1390q67 0 94 27t27 94v446h40v-446q0 -81 -37.5 -119t-118.5 -38h-1373q-67 0 -100 25t-41 81zM1799 657l-324 113
h108l288 -113h-72z" />
    <glyph glyph-name="Wacute" unicode="&#x1e82;" horiz-adv-x="3990" 
d="M3733 0h-1575q-78 0 -116.5 32.5t-46.5 101.5q-8 -69 -46.5 -101.5t-116.5 -32.5h-1575q-81 0 -120 39t-39 119v542h40v-536q0 -70 28 -99t96 -29h1578q75 0 105 31.5t30 108.5v524h40v-524q0 -77 30 -108.5t105 -31.5h1578q68 0 96 29t28 99v536h40v-542q0 -80 -39 -119
t-120 -39zM2287 872l-330 -113h-72l286 113h116z" />
    <glyph glyph-name="wacute" unicode="&#x1e83;" horiz-adv-x="3526" 
d="M1763 106q-8 -56 -41 -81t-100 -25h-1373q-81 0 -118.5 38t-37.5 119v446h40v-446q0 -67 27 -94t94 -27h1390q99 0 99 102v465h40v-465q0 -102 99 -102h1390q67 0 94 27t27 94v446h40v-446q0 -81 -37.5 -119t-118.5 -38h-1373q-67 0 -100 25t-41 81zM2055 770l-330 -113
h-72l286 113h116z" />
    <glyph glyph-name="Wdieresis" unicode="&#x1e84;" horiz-adv-x="3990" 
d="M3733 0h-1575q-78 0 -116.5 32.5t-46.5 101.5q-8 -69 -46.5 -101.5t-116.5 -32.5h-1575q-81 0 -120 39t-39 119v542h40v-536q0 -70 28 -99t96 -29h1578q75 0 105 31.5t30 108.5v524h40v-524q0 -77 30 -108.5t105 -31.5h1578q68 0 96 29t28 99v536h40v-542q0 -80 -39 -119
t-120 -39zM1814 832v-41h-108v41h108zM2284 832v-41h-108v41h108z" />
    <glyph glyph-name="wdieresis" unicode="&#x1e85;" horiz-adv-x="3526" 
d="M1763 106q-8 -56 -41 -81t-100 -25h-1373q-81 0 -118.5 38t-37.5 119v446h40v-446q0 -67 27 -94t94 -27h1390q99 0 99 102v465h40v-465q0 -102 99 -102h1390q67 0 94 27t27 94v446h40v-446q0 -81 -37.5 -119t-118.5 -38h-1373q-67 0 -100 25t-41 81zM1582 730v-41h-108
v41h108zM2052 730v-41h-108v41h108z" />
    <glyph glyph-name="Ygrave" unicode="&#x1ef2;" horiz-adv-x="3336" 
d="M3230 700h40v-210q0 -80 -39 -119t-120 -39h-1423v-332h-40v332h-1423q-81 0 -120 39t-39 119v210h40v-204q0 -70 28 -99t96 -29h2876q68 0 96 29t28 99v204zM1704 759l-324 113h108l288 -113h-72z" />
    <glyph glyph-name="ygrave" unicode="&#x1ef3;" horiz-adv-x="3017" 
d="M2733 -167h-2600v36h2596q75 0 109.5 33t34.5 111v98q-13 -39 -43.5 -56.5t-86.5 -17.5h-2494q-81 0 -118.5 38t-37.5 119v409h40v-409q0 -67 27 -94t94 -27h2498q67 0 94 27t27 94v409h40v-590q0 -92 -44 -136t-136 -44zM1544 657l-324 113h108l288 -113h-72z" />
    <glyph glyph-name="uni2010" unicode="&#x2010;" horiz-adv-x="1140" 
d="M1081 345v-36h-1022v36h1022z" />
    <glyph glyph-name="figuredash" unicode="&#x2012;" 
d="M3359 345v-36h-3359v36h3359z" />
    <glyph glyph-name="endash" unicode="&#x2013;" horiz-adv-x="1500" 
d="M1500 345v-36h-1500v36h1500z" />
    <glyph glyph-name="emdash" unicode="&#x2014;" horiz-adv-x="3000" 
d="M3000 345v-36h-3000v36h3000z" />
    <glyph glyph-name="quoteleft" unicode="&#x2018;" horiz-adv-x="322" 
d="M117 568v47q0 85 72 85h16v-26h-17q-32 0 -32 -42v-17h49v-47h-88z" />
    <glyph glyph-name="quoteright" unicode="&#x2019;" horiz-adv-x="322" 
d="M205 700v-47q0 -85 -72 -85h-16v26h17q32 0 32 42v17h-49v47h88z" />
    <glyph glyph-name="quotesinglbase" unicode="&#x201a;" horiz-adv-x="322" 
d="M205 51v-47q0 -85 -72 -85h-16v26h17q32 0 32 42v17h-49v47h88z" />
    <glyph glyph-name="quotedblleft" unicode="&#x201c;" horiz-adv-x="516" 
d="M311 568v47q0 85 72 85h16v-26h-17q-32 0 -32 -42v-17h49v-47h-88zM117 568v47q0 85 72 85h16v-26h-17q-32 0 -32 -42v-17h49v-47h-88z" />
    <glyph glyph-name="quotedblright" unicode="&#x201d;" horiz-adv-x="516" 
d="M399 700v-47q0 -85 -72 -85h-16v26h17q32 0 32 42v17h-49v47h88zM205 700v-47q0 -85 -72 -85h-16v26h17q32 0 32 42v17h-49v47h88z" />
    <glyph glyph-name="quotedblbase" unicode="&#x201e;" horiz-adv-x="516" 
d="M399 51v-47q0 -85 -72 -85h-16v26h17q32 0 32 42v17h-49v47h88zM205 51v-47q0 -85 -72 -85h-16v26h17q32 0 32 42v17h-49v47h88z" />
    <glyph glyph-name="dagger" unicode="&#x2020;" horiz-adv-x="3076" 
d="M3025 481v-36h-1467v-577h-40v577h-1467v36h1467v259h40v-259h1467z" />
    <glyph glyph-name="daggerdbl" unicode="&#x2021;" horiz-adv-x="3076" 
d="M3025 206v-36h-1467v-302h-40v302h-1467v36h1467v239h-1467v36h1467v259h40v-259h1467v-36h-1467v-239h1467z" />
    <glyph glyph-name="bullet" unicode="&#x2022;" horiz-adv-x="1500" 
d="M836 185h-172q-146 0 -146 139v52q0 139 146 139h172q146 0 146 -139v-52q0 -139 -146 -139z" />
    <glyph glyph-name="ellipsis" unicode="&#x2026;" horiz-adv-x="710" 
d="M205 51v-51h-88v51h88zM399 51v-51h-88v51h88zM593 51v-51h-88v51h88z" />
    <glyph glyph-name="perthousand" unicode="&#x2030;" horiz-adv-x="5965" 
d="M1658 0l792 700h49l-792 -700h-49zM2428 114v306q0 58 27.5 86t86.5 28h1422q59 0 86.5 -28t27.5 -86v-306q0 -58 -27.5 -86t-86.5 -28h-1422q-59 0 -86.5 28t-27.5 86zM4038 111v312q0 40 -18 57.5t-56 17.5h-1422q-38 0 -56 -17.5t-18 -57.5v-312q0 -40 18 -57.5
t56 -17.5h1422q38 0 56 17.5t18 57.5zM4236 114v306q0 58 27.5 86t86.5 28h1422q59 0 86.5 -28t27.5 -86v-306q0 -58 -27.5 -86t-86.5 -28h-1422q-59 0 -86.5 28t-27.5 86zM5846 111v312q0 40 -18 57.5t-56 17.5h-1422q-38 0 -56 -17.5t-18 -57.5v-312q0 -40 18 -57.5
t56 -17.5h1422q38 0 56 17.5t18 57.5zM79 280v306q0 58 27.5 86t86.5 28h1422q59 0 86.5 -28t27.5 -86v-306q0 -58 -27.5 -86t-86.5 -28h-1422q-59 0 -86.5 28t-27.5 86zM1689 277v312q0 40 -18 57.5t-56 17.5h-1422q-38 0 -56 -17.5t-18 -57.5v-312q0 -40 18 -57.5
t56 -17.5h1422q38 0 56 17.5t18 57.5z" />
    <glyph glyph-name="guilsinglleft" unicode="&#x2039;" horiz-adv-x="445" 
d="M401 51h-53l-304 249l304 249h53l-304 -249z" />
    <glyph glyph-name="guilsinglright" unicode="&#x203a;" horiz-adv-x="445" 
d="M97 51h-53l304 249l-304 249h53l304 -249z" />
    <glyph glyph-name="fraction" unicode="&#x2044;" horiz-adv-x="925" 
d="M42 0l792 700h49l-792 -700h-49z" />
    <glyph glyph-name="zerosuperior" unicode="&#x2070;" horiz-adv-x="1808" 
d="M79 280v306q0 58 27.5 86t86.5 28h1422q59 0 86.5 -28t27.5 -86v-306q0 -58 -27.5 -86t-86.5 -28h-1422q-59 0 -86.5 28t-27.5 86zM1689 277v312q0 40 -18 57.5t-56 17.5h-1422q-38 0 -56 -17.5t-18 -57.5v-312q0 -40 18 -57.5t56 -17.5h1422q38 0 56 17.5t18 57.5z" />
    <glyph glyph-name="foursuperior" unicode="&#x2074;" horiz-adv-x="1808" 
d="M1669 451v249h40v-534h-40v249h-1494q-59 0 -86.5 28t-27.5 86v171h40v-174q0 -40 18 -57.5t56 -17.5h1494z" />
    <glyph glyph-name="zeroinferior" unicode="&#x2080;" horiz-adv-x="1808" 
d="M79 114v306q0 58 27.5 86t86.5 28h1422q59 0 86.5 -28t27.5 -86v-306q0 -58 -27.5 -86t-86.5 -28h-1422q-59 0 -86.5 28t-27.5 86zM1689 111v312q0 40 -18 57.5t-56 17.5h-1422q-38 0 -56 -17.5t-18 -57.5v-312q0 -40 18 -57.5t56 -17.5h1422q38 0 56 17.5t18 57.5z" />
    <glyph glyph-name="oneinferior" unicode="&#x2081;" horiz-adv-x="1808" 
d="M141 0v36h889v462h-889v36h929v-498h661v-36h-1590z" />
    <glyph glyph-name="twoinferior" unicode="&#x2082;" horiz-adv-x="1808" 
d="M1707 362v59q0 43 -16.5 60t-58.5 17h-1548v36h1550q58 0 85.5 -28t27.5 -86v-57q0 -58 -27.5 -86t-85.5 -28h-1419q-63 0 -86.5 -23.5t-23.5 -85.5v-104h1642v-36h-1682v146q0 139 139 139h1428q42 0 58.5 17t16.5 60z" />
    <glyph glyph-name="threeinferior" unicode="&#x2083;" horiz-adv-x="1808" 
d="M1743 420v-52q0 -46 -18.5 -70.5t-71.5 -30.5q53 -6 71.5 -30.5t18.5 -70.5v-52q0 -58 -27.5 -86t-85.5 -28h-1573v36h1571q42 0 58.5 17t16.5 60v60q0 42 -17 59t-56 17h-1480v36h1480q39 0 56 17t17 59v60q0 43 -16.5 60t-58.5 17h-1571v36h1573q58 0 85.5 -28
t27.5 -86z" />
    <glyph glyph-name="fourinferior" unicode="&#x2084;" horiz-adv-x="1808" 
d="M1669 285v249h40v-534h-40v249h-1494q-59 0 -86.5 28t-27.5 86v171h40v-174q0 -40 18 -57.5t56 -17.5h1494z" />
    <glyph glyph-name="Euro" unicode="&#x20ac;" 
d="M327 0q-81 0 -120 39t-39 119v174h-130v36h130v174q0 80 39 119t120 39h2969v-36h-2964q-68 0 -96 -29t-28 -99v-168h2963v-36h-2963v-168q0 -70 28 -99t96 -29h2964v-36h-2969z" />
    <glyph glyph-name="uni2117" unicode="&#x2117;" horiz-adv-x="3379" 
d="M305 367h2767q27 0 27 26v55q0 26 -27 26h-2767v-107zM3139 442v-43q0 -68 -68 -68h-2766v-142h-40v321h2806q68 0 68 -68zM246 0q-81 0 -120 39t-39 119v384q0 80 39 119t120 39h2887q81 0 120 -39t39 -119v-384q0 -80 -39 -119t-120 -39h-2887zM248 36h2883
q62 0 91.5 30t29.5 92v384q0 62 -29.5 92t-91.5 30h-2883q-62 0 -91.5 -30t-29.5 -92v-384q0 -62 29.5 -92t91.5 -30z" />
    <glyph glyph-name="trademark" unicode="&#x2122;" horiz-adv-x="4437" 
d="M3179 166v406q0 47 -19.5 69.5t-62.5 22.5h-935q-38 0 -54 -16.5t-16 -55.5v-426h-40v420q0 58 27.5 86t86.5 28h910q58 0 87 -22.5t36 -71.5q7 50 36 72t87 22h910q59 0 86.5 -28t27.5 -86v-420h-40v426q0 39 -16 55.5t-54 16.5h-935q-43 0 -62.5 -22.5t-19.5 -69.5
v-406h-40zM1901 700v-36h-909v-498h-40v498h-909v36h1858z" />
    <glyph glyph-name="uni2126" unicode="&#x2126;" 
d="M3230 371v171q0 65 -27.5 93.5t-89.5 28.5h-2867q-62 0 -89.5 -28.5t-27.5 -93.5v-171q0 -65 27.5 -93.5t89.5 -28.5h1224v-249h-1401v36h1361v177h-1186q-80 0 -117.5 38t-37.5 117v177q0 79 37.5 117t117.5 38h2871q80 0 117.5 -38t37.5 -117v-177q0 -79 -37.5 -117
t-117.5 -38h-1186v-177h1361v-36h-1401v249h1224q62 0 89.5 28.5t27.5 93.5z" />
    <glyph glyph-name="onethird" unicode="&#x2153;" horiz-adv-x="4157" 
d="M141 166v36h889v462h-889v36h929v-498h661v-36h-1590zM1658 0l792 700h49l-792 -700h-49zM4092 420v-52q0 -46 -18.5 -70.5t-71.5 -30.5q53 -6 71.5 -30.5t18.5 -70.5v-52q0 -58 -27.5 -86t-85.5 -28h-1573v36h1571q42 0 58.5 17t16.5 60v60q0 42 -17 59t-56 17h-1480v36
h1480q39 0 56 17t17 59v60q0 43 -16.5 60t-58.5 17h-1571v36h1573q58 0 85.5 -28t27.5 -86z" />
    <glyph glyph-name="twothirds" unicode="&#x2154;" horiz-adv-x="4157" 
d="M1707 528v59q0 43 -16.5 60t-58.5 17h-1548v36h1550q58 0 85.5 -28t27.5 -86v-57q0 -58 -27.5 -86t-85.5 -28h-1419q-63 0 -86.5 -23.5t-23.5 -85.5v-104h1642v-36h-1682v146q0 139 139 139h1428q42 0 58.5 17t16.5 60zM1658 0l792 700h49l-792 -700h-49zM4092 420v-52
q0 -46 -18.5 -70.5t-71.5 -30.5q53 -6 71.5 -30.5t18.5 -70.5v-52q0 -58 -27.5 -86t-85.5 -28h-1573v36h1571q42 0 58.5 17t16.5 60v60q0 42 -17 59t-56 17h-1480v36h1480q39 0 56 17t17 59v60q0 43 -16.5 60t-58.5 17h-1571v36h1573q58 0 85.5 -28t27.5 -86z" />
    <glyph glyph-name="partialdiff" unicode="&#x2202;" 
d="M3274 480v-322q0 -80 -39 -119t-120 -39h-2891q-80 0 -117.5 38t-37.5 117v58q0 79 37.5 117t117.5 38h3010v108q0 97 -46.5 142.5t-140.5 45.5h-2948v36h2954q108 0 164.5 -56t56.5 -164zM109 210v-52q0 -65 27.5 -93.5t89.5 -28.5h2884q68 0 96 29t28 99v168h-3008
q-62 0 -89.5 -28.5t-27.5 -93.5z" />
    <glyph glyph-name="uni2206" unicode="&#x2206;" 
d="M65 0l1614 738l1614 -738h-3228zM1679 696l-1445 -660h2889z" />
    <glyph glyph-name="product" unicode="&#x220f;" 
d="M3232 -132v796h-3105v-796h-40v832h3185v-832h-40z" />
    <glyph glyph-name="summation" unicode="&#x2211;" 
d="M3272 -96v-36h-3185v33l1157 383l-1157 383v33h3185v-36h-3063l1148 -380l-1148 -380h3063z" />
    <glyph glyph-name="minus" unicode="&#x2212;" 
d="M87 332v36h3185v-36h-3185z" />
    <glyph glyph-name="radical" unicode="&#x221a;" 
d="M2431 0l-405 332h-1939v36h1955l406 -333l810 665h60l-853 -700h-34z" />
    <glyph glyph-name="infinity" unicode="&#x221e;" horiz-adv-x="733" 
d="M345 317q-12 0 -23.5 12.5t-14.5 12.5t-11 -2t-14 -2q-8 0 -14.5 8t-6.5 17q0 22 8 35q-7 -7 -16 -37t-26 -41q-18 -12 -18 -40q0 -11 11 -21.5t11 -12.5q0 -4 -3 -4q-7 0 -12 5q13 -68 48 -104h-55q-35 114 -35 226q0 105 40.5 171.5t135.5 66.5q190 0 190 -254
q0 -75 -25 -210h-73q53 47 62 117q-4 -8 -13 -8q-3 0 -3 2l4 4q5 3 9.5 11.5t4.5 21.5q-4 -6 -15 -6q-1 0 -10.5 -4.5t-15.5 -4.5q-14 0 -40 3.5t-70 3.5q-22 0 -52.5 -6t-38.5 -6q-5 0 -13 2t-11 2q-28 0 -28 12q0 10 37 18.5t74 8.5q5 0 12 -0.5t12 -0.5t15.5 2t14.5 2
q112 0 127 -20q-1 16 -14 29t-30 13q-6 0 -6 7q0 57 -16 58q4 -7 4 -17q0 -18 -11 -32t-27 -14q-4 0 -10 2l-7 2q-1 0 -14.5 -14t-27.5 -14zM733 291v-148q-22 48 -69 112.5t-67 64.5q6 -85 -12 -177h-42q16 104 16 199q0 319 -213 319q-53 0 -91.5 -26.5t-59 -72.5
t-30 -97.5t-9.5 -111.5q0 -123 29 -210h-47q-19 67 -19 184q-17 -9 -39.5 -43.5t-49 -84.5t-30.5 -56v148q11 27 33 54t50 53.5t30 28.5q3 72 27 135t75.5 107.5t120.5 44.5q67 0 115.5 -22.5t76.5 -64t42.5 -87t22.5 -105.5q22 -5 68 -48t72 -96zM345 503q-3 3 -3 6
q0 2 2 2q1 0 6 -4.5t15 -8.5t22 -4q16 0 29 4t20 8l6 5q4 0 4 -2l-8 -8q24 0 52 -11q-29 80 -139 80q-55 0 -92 -33t-50 -85q37 20 41 39q-6 4 -6 7q0 4 3 4l2 -2q2 -1 6.5 -3.5t10 -5t13.5 -4t17 -1.5q24 0 49 17zM371 416q0 20 -4.5 40t-9.5 20q-10 0 -19 -39t-14 -39
q-3 0 -9.5 3t-11.5 3q-13 0 -21 -10.5t-8 -24.5t11 -14t18 6.5t9 6.5t12 -13.5t20 -13.5q14 0 25 10.5t12 10.5q3 0 10 -3.5t9 -3.5q10 0 18 11t8 24q0 10 -6 18t-16 8q-7 0 -14.5 -6.5t-11.5 -6.5q-7 0 -7 13zM510 318q0 95 -12 147l-5 3q0 -21 -18 -32t-41 -11
q-21 0 -37 12.5t-16 29.5q0 6 2 9q-12 2 -15 4q6 -9 10 -24t5.5 -24t4.5 -9q7 2 15 2q19 0 31 -14q34 0 34 -51q0 -3 8 -7t18.5 -13t15.5 -22zM383 310q-1 0 -8 -1t-15.5 -2t-13.5 -1t-13 1.5t-11 1.5q-15 0 -36 -4t-35 -9t-14 -8q0 -10 20 -10q24 0 54 6.5t44 6.5
q19 0 57.5 -3.5t52.5 -3.5q5 0 9.5 2t7.5 4t3 3q0 5 -36 11t-66 6zM267 413q-18 0 -31 10t-15 21q-4 -2 -15 -5q-4 -21 -4 -43q0 -50 3 -78q4 6 22 22t20 31q5 37 38 41q12 5 23 5q5 0 8.5 8.5t9.5 24.5t16 28l-13 -4q-1 -24 -18.5 -42.5t-43.5 -18.5zM419 465q-13 0 -16 13
q-5 0 -8.5 -5.5t-3.5 -9.5q0 -10 15 -17t31 -7q14 0 29 8.5t15 21.5q0 8 -14.5 12.5t-28.5 4.5q-5 -21 -19 -21zM267 427q14 0 30 11t16 24q0 6 -1 9q-20 0 -27 1q-5 -14 -18 -14q-10 0 -15 5q-4 -4 -18 -12q4 -24 33 -24zM266 288q-2 0 -2 3q0 12 107 12q93 0 93 -8
q0 -3 -3 -3q-1 0 -4 0.5t-10 1t-16 1.5t-24.5 1.5t-33.5 0.5q-36 0 -61 -2.5t-36 -4.5zM305 262q0 10 63 10q31 0 31 -8q0 -3 -2 -3q-4 0 -10 2t-10 2q-11 0 -26 -0.5t-20 -0.5q-4 0 -11.5 -3t-10.5 -3q-4 0 -4 4zM417 473q9 0 9 13q-1 0 -16 -6q0 -7 7 -7zM266 466
q7 0 10 9q-6 1 -11 4q0 -4 -6 -10q1 -3 7 -3zM325 34l-3 48l-10 -82h-21l15 125h25l4 -60l21 60h26l-15 -125h-22l10 82l-16 -48h-14zM21 125h35q23 0 20 -21l-10 -82q-3 -22 -22 -22h-38zM282 44q-1 -12 -10 -17l8 -27h-21l-7 23h-7l-3 -23h-22l15 125h36q21 0 18 -24z
M183 0l3 23h-14l-3 -23h-21l12 104q2 21 22 21h17q19 0 18 -21l-12 -104h-22zM594 0l15 125h35q23 0 20 -21l-8 -62q-3 -19 -22 -19h-15l-3 -23h-22zM111 0l3 23h-13l-3 -23h-22l15 125h22l-10 -83h13l10 83h22l-15 -125h-22zM539 125h22l-10 -79q0 -4 4 -4h5q5 0 5 4l9 79
h22l-10 -81q-3 -21 -19 -21l-9 -23h-23l9 23q-18 0 -15 21zM477 106l3 19h50l-3 -19h-13l-12 -106h-23l12 106h-14zM41 106l-11 -88h11q3 0 3 4l9 80q0 4 -4 4h-8zM629 106l-8 -64h8q5 0 5 4l7 56q0 4 -4 4h-8zM174 42h14l7 60q0 4 -4 4h-5q-5 0 -5 -4zM255 106l-8 -64h8
q5 0 5 4l7 56q0 4 -3 4h-9zM711 57l-3 -18h-19l-3 -21h27l-2 -18h-49l15 125h47l-3 -19h-24l-6 -49h20zM417 0l3 23h-14l-3 -23h-21l12 104q2 21 22 21h17q19 0 18 -21l-12 -104h-22zM408 42h14l7 60q0 4 -4 4h-5q-5 0 -5 -4z" />
    <glyph glyph-name="integral" unicode="&#x222b;" 
d="M1851 543l-309 -535q-44 -76 -93 -108t-128 -32h-1234v36h1231q70 0 111 26.5t80 94.5l309 535q44 76 93 108t128 32h1233v-36h-1230q-70 0 -111 -26.5t-80 -94.5z" />
    <glyph glyph-name="approxequal" unicode="&#x2248;" 
d="M87 182v36q263 98 670 98q242 0 582 -35t680.5 -70t582.5 -35q406 0 670 98v-36q-262 -98 -673 -98q-194 0 -452 21.5t-471 48t-470.5 48t-450.5 21.5q-408 0 -668 -97zM87 428v36q263 98 670 98q242 0 582 -35t680.5 -70t582.5 -35q406 0 670 98v-36q-262 -98 -673 -98
q-194 0 -452 21.5t-471 48t-470.5 48t-450.5 21.5q-408 0 -668 -97z" />
    <glyph glyph-name="notequal" unicode="&#x2260;" 
d="M1353 0h-47l224 202h-1393v36h1433l249 224h-1682v36h1722l225 202h47l-225 -202h1316v-36h-1356l-249 -224h1605v-36h-1645z" />
    <glyph glyph-name="lessequal" unicode="&#x2264;" 
d="M87 350l447 350h60l-424 -332h3102v-36h-3102l378 -296h2724v-36h-3185v36h401z" />
    <glyph glyph-name="greaterequal" unicode="&#x2265;" 
d="M2825 700l447 -350l-401 -314h401v-36h-3185v36h2724l378 296h-3102v36h3102l-424 332h60z" />
    <glyph glyph-name="lozenge" unicode="&#x25ca;" 
d="M1679 -38l-1614 388l1614 388l1614 -388zM1679 0l1455 350l-1455 350l-1455 -350z" />
    <glyph glyph-name="commaaccent" horiz-adv-x="750" 
d="M429 -96v-41q0 -75 -62 -75h-36v23h36q28 0 28 37v15h-74v41h108z" />
    <glyph glyph-name="f.alt" horiz-adv-x="2898" 
d="M277 567q-75 0 -109.5 -33t-34.5 -111v-104h2635v-36h-2635v-450h-40v590q0 92 44 136t136 44h2585v-36h-2581z" />
    <glyph glyph-name="i.alt" horiz-adv-x="258" 
d="M109 0v603h40v-603h-40zM183 730v-41h-108v41h108z" />
    <glyph glyph-name="i.trk" horiz-adv-x="422" 
d="M246 36h141v-36h-146q-78 0 -112 34.5t-34 112.5v456h40v-456q0 -63 24.5 -87t86.5 -24zM169 730v-41h-108v41h108z" />
    <glyph glyph-name="germandbls.alt" horiz-adv-x="3027" 
d="M2824 283h-2257v36h2257q52 0 73 20t21 71v58q0 54 -22.5 76.5t-76.5 22.5h-2542q-75 0 -109.5 -33t-34.5 -111v-590h-40v590q0 92 44 136t136 44h2549q71 0 103.5 -33t32.5 -106v-49q0 -56 -21.5 -83t-74.5 -31q53 -4 74.5 -31t21.5 -83v-48q0 -73 -32.5 -106
t-103.5 -33h-2255v36h2252q54 0 76.5 22.5t22.5 76.5v57q0 51 -21 71t-73 20z" />
    <glyph glyph-name="one.pnum" horiz-adv-x="479" 
d="M370 700v-700h-40v664h-292v36h332z" />
    </font>
</defs>
</svg>
