<?xml version="1.0" standalone="no"?>
<!DOCTYPE svg PUBLIC "-//W3C//DTD SVG 1.1//EN" "http://www.w3.org/Graphics/SVG/1.1/DTD/svg11.dtd" >
<svg xmlns="http://www.w3.org/2000/svg" xmlns:xlink="http://www.w3.org/1999/xlink" version="1.1">
<metadata>
Created by FontForge 20170731 at Sat Mar 14 00:16:17 2015
 By ,,,
Copyright (c) 2011 by Ryoichi Tsunekawa. All rights reserved.
</metadata>
<defs>
<font id="DesignSystemB-700I" horiz-adv-x="675" >
  <font-face 
    font-family="DesignSystemB-700I"
    font-weight="400"
    font-style="italic"
    font-stretch="normal"
    units-per-em="1000"
    panose-1="4 5 7 5 2 11 2 2 3 2"
    ascent="822"
    descent="-178"
    x-height="603"
    cap-height="700"
    bbox="-82 -236 1706.88 931"
    underline-thickness="36"
    underline-position="-156"
    slope="-8"
    unicode-range="U+0020-FB02"
  />
<missing-glyph horiz-adv-x="537" 
d="M7 700h537v-700h-537v700zM74 634v-556l356 556h-356zM119 66h358v555z" />
    <glyph glyph-name="ij" unicode="ij" horiz-adv-x="538" 
d="M198 -48h36q30 0 41 10t16 40l84 601h137l-89 -630q-11 -74 -48 -107t-112 -33h-82zM372 667l13 90h161l-13 -90h-161zM20 0l84 603h137l-84 -603h-137zM275 757l-13 -90h-160l12 90h161z" />
    <glyph glyph-name="fi" unicode="fi" horiz-adv-x="870" 
d="M285 484q-36 0 -55.5 -16.5t-24.5 -53.5l-7 -53h291l-16 -119h-292l-57 -409h-137l85 604q12 85 58 125.5t132 40.5h308l-17 -119h-268zM766 119h60l-16 -119h-109q-75 0 -104 33.5t-18 106.5l64 463h137l-60 -431q-4 -29 6.5 -41t39.5 -12zM814 757l-13 -90h-160l12 90
h161z" />
    <glyph glyph-name="fl" unicode="fl" horiz-adv-x="866" 
d="M285 484q-36 0 -55.5 -16.5t-24.5 -53.5l-7 -53h291l-16 -119h-292l-57 -409h-137l85 604q12 85 58 125.5t132 40.5h308l-17 -119h-268zM762 119h61l-16 -119h-110q-74 0 -103 33.5t-18 106.5l88 630h137l-85 -598q-4 -29 6.5 -41t39.5 -12z" />
    <glyph glyph-name=".notdef" horiz-adv-x="537" 
d="M7 700h537v-700h-537v700zM74 634v-556l356 556h-356zM119 66h358v555z" />
    <glyph glyph-name=".null" horiz-adv-x="0" 
 />
    <glyph glyph-name="nonmarkingreturn" horiz-adv-x="333" 
 />
    <glyph glyph-name="space" unicode=" " horiz-adv-x="276" 
 />
    <glyph glyph-name="exclam" unicode="!" horiz-adv-x="295" 
d="M204 104l-15 -104h-168l15 104h168zM274 700l-31 -223q-22 -154 -56 -278h-108q0 126 22 278l31 223h142z" />
    <glyph glyph-name="quotedbl" unicode="&#x22;" horiz-adv-x="477" 
d="M228 700v-42q0 -110 -22 -266h-100q-21 162 -21 266v42h143zM458 700v-42q0 -110 -22 -266h-100q-21 162 -21 266v42h143z" />
    <glyph glyph-name="numbersign" unicode="#" 
d="M431 0l7 124h-219l-7 -124h-121l7 124h-64l6 119h64l11 214h-64l6 119h64l7 124h121l-6 -124h219l6 124h122l-7 -124h64l-6 -119h-64l-12 -214h65l-6 -119h-65l-6 -124h-122zM237 457l-12 -214h219l12 214h-219z" />
    <glyph glyph-name="dollar" unicode="$" 
d="M20 169h414q46 0 53 47l4 31q4 25 -5 36t-34 11h-285q-129 0 -111 131l14 96q18 132 146 132h108l13 87h124l-13 -87h207l-16 -119h-383q-25 0 -37.5 -11t-16.5 -36l-4 -31q-4 -25 5.5 -36t34.5 -11h285q65 0 92 -32.5t17 -99.5l-13 -95q-10 -68 -45.5 -100t-100.5 -32
h-109l-13 -90h-124l13 90h-236z" />
    <glyph glyph-name="percent" unicode="%" horiz-adv-x="1227" 
d="M416 0l319 700h108l-319 -700h-108zM730 125l40 284q9 64 43.5 94.5t98.5 30.5h185q64 0 90 -30.5t18 -94.5l-41 -284q-16 -125 -142 -125h-185q-64 0 -90 30.5t-17 94.5zM1048 149l33 236q7 44 -36 44h-109q-45 0 -50 -44l-34 -236q-3 -24 6 -34t32 -10h109q44 0 49 44z
M53 291l40 284q9 64 43.5 94.5t98.5 30.5h185q64 0 90 -30.5t18 -94.5l-41 -284q-16 -125 -142 -125h-185q-64 0 -90 30.5t-17 94.5zM371 315l33 236q7 44 -36 44h-109q-44 0 -50 -44l-34 -236q-6 -44 38 -44h109q23 0 34.5 10t14.5 34z" />
    <glyph glyph-name="ampersand" unicode="&#x26;" horiz-adv-x="783" 
d="M560 288h-308q-30 0 -43.5 -12.5t-18.5 -43.5l-8 -52q-4 -30 7 -43t39 -13h258q30 0 42 11t16 41zM35 141l11 77q8 62 38 93.5t88 38.5q-56 7 -77 38.5t-12 93.5l10 77q11 74 49.5 107.5t112.5 33.5h455l-18 -124h-400q-29 0 -43.5 -13t-18.5 -43l-7 -52q-5 -30 5.5 -43
t40.5 -13h522l-17 -124h-72l-22 -153q-10 -72 -45 -103.5t-108 -31.5h-370q-74 0 -103.5 33.5t-18.5 107.5z" />
    <glyph glyph-name="quotesingle" unicode="'" horiz-adv-x="247" 
d="M228 700v-42q0 -110 -22 -266h-100q-21 162 -21 266v42h143z" />
    <glyph glyph-name="parenleft" unicode="(" horiz-adv-x="340" 
d="M171 90q-5 -31 5.5 -44t41.5 -13h57l-16 -113h-100q-73 0 -103 34t-19 107l70 498q11 73 50 107t112 34h100l-15 -113h-58q-30 0 -44.5 -13t-18.5 -44z" />
    <glyph glyph-name="parenright" unicode=")" horiz-adv-x="340" 
d="M121 90l62 440q4 31 -6.5 44t-41.5 13h-57l16 113h100q73 0 103 -34t19 -107l-70 -498q-11 -73 -50 -107t-112 -34h-100l16 113h57q30 0 44.5 13t19.5 44z" />
    <glyph glyph-name="asterisk" unicode="*" horiz-adv-x="546" 
d="M307 462q97 77 160 96l66 19l24 -107l-66 -19q-78 -24 -179 -13q26 -14 64 -46t58 -67l31 -53l-96 -66l-32 53q-36 63 -44 165q-40 -109 -89 -165l-46 -53l-86 66l46 53q31 35 77 66.5t77 46.5q-104 -11 -176 13l-60 19l45 107l60 -20q39 -12 80 -42.5t62 -52.5
q-30 94 -19 173l9 65h113l-9 -65q-7 -43 -30 -95.5t-40 -77.5z" />
    <glyph glyph-name="plus" unicode="+" 
d="M55 291v118h226v178h118v-178h226v-118h-226v-180h-118v180h-226z" />
    <glyph glyph-name="comma" unicode="," horiz-adv-x="288" 
d="M198 118l-17 -117q-9 -67 -47.5 -103.5t-104.5 -36.5h-27l9 63h22q25 0 38 11t17 41l4 25h-70l17 117h159z" />
    <glyph glyph-name="hyphen" unicode="-" horiz-adv-x="408" 
d="M385 388l-17 -122h-338l17 122h338z" />
    <glyph glyph-name="period" unicode="." horiz-adv-x="288" 
d="M198 118l-17 -118h-159l17 118h159z" />
    <glyph glyph-name="slash" unicode="/" horiz-adv-x="459" 
d="M21 0l273 700h141l-273 -700h-141z" />
    <glyph glyph-name="zero" unicode="0" 
d="M179 0q-148 0 -126 146l57 408q19 146 167 146h277q75 0 105.5 -36t20.5 -110l-58 -408q-21 -146 -166 -146h-277zM485 182l47 336q4 32 -6.5 45t-40.5 13h-175q-30 0 -44.5 -13t-18.5 -45l-48 -336q-4 -32 7 -45t41 -13h175q30 0 44.5 13t18.5 45z" />
    <glyph glyph-name="one" unicode="1" 
d="M536 700l-80 -576h137l-17 -124h-503l17 124h236l63 452h-236l18 124h365z" />
    <glyph glyph-name="two" unicode="2" 
d="M518 520q4 30 -7 43t-39 13h-367l17 124h418q75 0 105.5 -35.5t19.5 -109.5l-18 -123q-10 -74 -50 -109t-115 -35h-225q-42 0 -61.5 -16.5t-24.5 -59.5l-13 -88h452l-17 -124h-594l33 236q24 176 200 176h217q29 0 43.5 13t18.5 43z" />
    <glyph glyph-name="three" unicode="3" 
d="M430 288h-296l17 124h296q30 0 44 13t19 43l7 52q4 30 -7 43t-39 13h-394l17 124h448q74 0 103.5 -33.5t18.5 -107.5l-10 -77q-9 -62 -38.5 -93.5t-87.5 -38.5q56 -7 76.5 -38.5t12.5 -93.5l-12 -77q-10 -74 -48.5 -107.5t-112.5 -33.5h-448l18 124h394q28 0 42 13t19 43
l7 52q5 30 -5.5 43t-40.5 13z" />
    <glyph glyph-name="four" unicode="4" 
d="M501 412l41 288h142l-98 -700h-142l40 288h-291q-75 0 -105.5 36t-20.5 110l38 266h142l-32 -231q-5 -31 5.5 -44t41.5 -13h239z" />
    <glyph glyph-name="five" unicode="5" 
d="M59 288l58 412h547l-18 -124h-404l-23 -164h284q75 0 105.5 -35.5t19.5 -109.5l-17 -122q-11 -74 -50.5 -109.5t-114.5 -35.5h-437l18 124h385q29 0 43 13t19 43l7 52q4 31 -6.5 43.5t-39.5 12.5h-376z" />
    <glyph glyph-name="six" unicode="6" 
d="M230 483l-11 -71h295q75 0 105.5 -35.5t19.5 -109.5l-17 -122q-11 -74 -50.5 -109.5t-114.5 -35.5h-293q-75 0 -105.5 35.5t-19.5 109.5l50 352q13 100 72 151.5t159 51.5h355l-18 -124h-323q-91 0 -104 -93zM446 288h-244l-15 -108q-4 -30 7 -43t40 -13h189q29 0 43 13
t19 43l7 52q4 31 -6.5 43.5t-39.5 12.5z" />
    <glyph glyph-name="seven" unicode="7" 
d="M442 412q37 0 54.5 14.5t21.5 52.5l14 97h-476l18 124h618l-35 -246q-23 -166 -188 -166h-72q-37 0 -54.5 -14.5t-22.5 -52.5l-31 -221h-142l35 246q23 166 188 166h72z" />
    <glyph glyph-name="eight" unicode="8" 
d="M678 559l-10 -77q-9 -62 -38.5 -93.5t-87.5 -38.5q56 -7 76.5 -38.5t11.5 -93.5l-11 -77q-10 -74 -48.5 -107.5t-112.5 -33.5h-305q-74 0 -103.5 33.5t-19.5 107.5l11 77q8 62 38 93.5t88 38.5q-56 7 -77 38.5t-12 93.5l10 77q10 73 49.5 107t113.5 34h305
q74 0 103.5 -33.5t18.5 -107.5zM264 412h197q30 0 44 12.5t19 43.5l7 52q4 30 -7 43t-39 13h-198q-29 0 -43 -13t-19 -43l-7 -52q-5 -30 5.5 -43t40.5 -13zM444 288h-197q-30 0 -43.5 -12.5t-18.5 -43.5l-8 -52q-4 -30 7 -43t40 -13h197q29 0 43 13t19 43l7 52q5 30 -5.5 43
t-40.5 13z" />
    <glyph glyph-name="nine" unicode="9" 
d="M536 700q75 0 105 -35.5t19 -109.5l-50 -352q-14 -100 -72.5 -151.5t-157.5 -51.5h-355l17 124h323q92 0 105 93l9 71h-294q-75 0 -105.5 35.5t-19.5 109.5l17 122q11 74 51 109.5t115 35.5h293zM214 520l-7 -52q-4 -31 6 -43.5t39 -12.5h245l15 108q4 30 -7 43t-40 13
h-189q-29 0 -43 -13t-19 -43z" />
    <glyph glyph-name="colon" unicode=":" horiz-adv-x="288" 
d="M262 578l-17 -118h-159l17 118h159zM198 118l-17 -118h-159l17 118h159z" />
    <glyph glyph-name="semicolon" unicode=";" horiz-adv-x="288" 
d="M198 118l-17 -117q-9 -67 -47.5 -103.5t-104.5 -36.5h-27l9 63h22q25 0 38 11t17 41l4 25h-70l17 117h159zM262 578l-17 -118h-159l17 118h159z" />
    <glyph glyph-name="less" unicode="&#x3c;" 
d="M55 350l195 237h152l-153 -178h376v-118h-376l153 -180h-152z" />
    <glyph glyph-name="equal" unicode="=" 
d="M79 157v118h522v-118h-522zM79 424v118h522v-118h-522z" />
    <glyph glyph-name="greater" unicode="&#x3e;" 
d="M430 587l195 -237l-195 -239h-152l153 180h-376v118h376l-153 178h152z" />
    <glyph glyph-name="question" unicode="?" horiz-adv-x="636" 
d="M490 468l7 52q5 30 -6 43t-40 13h-395l18 124h446q75 0 105 -35.5t19 -109.5l-16 -122q-11 -74 -51 -109.5t-115 -35.5h-106q-26 0 -37 -9.5t-15 -36.5l-7 -50h-142l14 100q17 120 136 120h123q29 0 43.5 12.5t18.5 43.5zM298 104l-15 -104h-168l15 104h168z" />
    <glyph glyph-name="at" unicode="@" horiz-adv-x="810" 
d="M201 0q-168 0 -144 166l52 368q12 84 58 125t132 41h371q168 0 144 -166l-52 -368q-12 -84 -58 -125t-132 -41h-371zM214 60h363q102 0 117 103l52 374q7 52 -14 77.5t-74 25.5h-363q-104 0 -117 -103l-53 -374q-15 -103 89 -103zM502 188h-182q-71 0 -61 73l6 43
q10 73 81 73h197l7 47q5 31 -26 31h-223l7 56h237q83 0 71 -82l-23 -161q-11 -80 -91 -80zM357 322q-24 0 -27 -24l-5 -30q-3 -24 21 -24h150q28 0 33 29l7 49h-179z" />
    <glyph glyph-name="A" unicode="A" horiz-adv-x="709" 
d="M607 0h-142l40 288h-305l-40 -288h-142l77 554q21 146 168 146h295q75 0 106 -36t20 -110zM489 576h-193q-31 0 -45 -13t-19 -45l-15 -106h305l15 106q4 32 -6.5 45t-41.5 13z" />
    <glyph glyph-name="B" unicode="B" horiz-adv-x="702" 
d="M643 218l-11 -77q-10 -74 -48.5 -107.5t-112.5 -33.5h-447l98 700h447q74 0 103.5 -33.5t18.5 -107.5l-10 -77q-9 -62 -38.5 -93.5t-87.5 -38.5q56 -7 76.5 -38.5t11.5 -93.5zM474 412q30 0 44 12.5t19 43.5l7 52q4 30 -7 43t-39 13h-251l-23 -164h250zM206 288l-22 -164
h250q29 0 43 13t19 43l7 52q5 30 -5.5 43t-40.5 13h-251z" />
    <glyph glyph-name="C" unicode="C" horiz-adv-x="618" 
d="M178 0q-147 0 -125 146l57 408q19 146 166 146h382l-18 -124h-330q-30 0 -44.5 -13t-18.5 -45l-48 -336q-4 -32 7 -45t41 -13h330l-17 -124h-382z" />
    <glyph glyph-name="D" unicode="D" horiz-adv-x="702" 
d="M509 700q99 0 143 -51.5t30 -151.5l-41 -294q-14 -100 -72.5 -151.5t-157.5 -51.5h-387l98 700h387zM396 124q93 0 105 93l38 266q13 93 -80 93h-212l-63 -452h212z" />
    <glyph glyph-name="E" unicode="E" horiz-adv-x="669" 
d="M24 0l98 700h564l-17 -124h-422l-23 -164h330l-17 -124h-331l-22 -164h422l-18 -124h-564z" />
    <glyph glyph-name="F" unicode="F" horiz-adv-x="644" 
d="M24 0l98 700h561l-18 -124h-418l-23 -164h327l-17 -124h-328l-40 -288h-142z" />
    <glyph glyph-name="G" unicode="G" horiz-adv-x="693" 
d="M447 124q30 0 42.5 10.5t16.5 41.5l15 112h-167l17 124h310l-39 -277q-10 -72 -45.5 -103.5t-108.5 -31.5h-310q-147 0 -125 146l57 408q19 146 166 146h421l-18 -124h-369q-30 0 -44.5 -13t-18.5 -45l-48 -336q-4 -32 7 -45t41 -13h200z" />
    <glyph glyph-name="H" unicode="H" horiz-adv-x="739" 
d="M489 0l40 288h-323l-40 -288h-142l98 700h142l-40 -288h322l41 288h142l-98 -700h-142z" />
    <glyph glyph-name="I" unicode="I" horiz-adv-x="275" 
d="M24 0l98 700h142l-98 -700h-142z" />
    <glyph glyph-name="J" unicode="J" horiz-adv-x="680" 
d="M27 136l29 206h142l-24 -166q-4 -31 4.5 -41.5t38.5 -10.5h191q31 0 45 13t19 45l73 518h142l-78 -554q-11 -74 -51.5 -110t-115.5 -36h-298q-73 0 -100.5 31.5t-16.5 104.5z" />
    <glyph glyph-name="K" unicode="K" horiz-adv-x="709" 
d="M711 700l-29 -207q-9 -64 -41 -100.5t-96 -42.5q63 -6 84.5 -42.5t12.5 -100.5l-29 -207h-142l31 226q5 33 -6.5 47.5t-43.5 14.5h-246l-40 -288h-142l98 700h142l-40 -288h245q32 0 48 14.5t21 47.5l31 226h142z" />
    <glyph glyph-name="L" unicode="L" horiz-adv-x="639" 
d="M597 124l-17 -124h-556l98 700h142l-80 -576h413z" />
    <glyph glyph-name="M" unicode="M" horiz-adv-x="998" 
d="M701 700h146q75 0 106 -36t20 -110l-77 -554h-142l72 518q4 32 -6.5 45t-41.5 13h-114q-31 0 -45 -13t-19 -44l-72 -519h-142l72 519q5 31 -6 44t-41 13h-115q-31 0 -45.5 -13t-18.5 -45l-72 -518h-142l77 554q21 146 168 146h146q69 0 99.5 -25t31.5 -81q17 56 54.5 81
t106.5 25z" />
    <glyph glyph-name="N" unicode="N" horiz-adv-x="709" 
d="M296 576q-31 0 -45.5 -13t-18.5 -45l-72 -518h-142l77 554q21 146 168 146h295q75 0 106 -36t20 -110l-77 -554h-142l72 518q4 32 -6.5 45t-41.5 13h-193z" />
    <glyph glyph-name="O" unicode="O" horiz-adv-x="695" 
d="M179 0q-148 0 -126 146l57 408q19 146 167 146h297q75 0 105.5 -36t20.5 -110l-58 -408q-21 -146 -166 -146h-297zM505 182l47 336q4 32 -6.5 45t-40.5 13h-195q-30 0 -44.5 -13t-18.5 -45l-48 -336q-4 -32 7 -45t41 -13h195q30 0 44.5 13t18.5 45z" />
    <glyph glyph-name="P" unicode="P" horiz-adv-x="680" 
d="M24 0l98 700h442q75 0 105 -35.5t19 -109.5l-17 -123q-10 -74 -50 -109t-115 -35h-300l-40 -288h-142zM542 520q4 30 -7 43t-39 13h-249l-23 -164h248q30 0 44 13t18 43z" />
    <glyph glyph-name="Q" unicode="Q" horiz-adv-x="695" 
d="M179 0q-148 0 -126 146l57 408q19 146 167 146h297q75 0 105.5 -36t20.5 -110l-58 -408q-21 -146 -166 -146h-87l-15 -109h-124l15 109h-86zM505 182l47 336q4 32 -6.5 45t-40.5 13h-195q-30 0 -44.5 -13t-18.5 -45l-48 -336q-4 -32 7 -45t41 -13h36l16 113h124l-16 -113
h35q30 0 44.5 13t18.5 45z" />
    <glyph glyph-name="R" unicode="R" horiz-adv-x="708" 
d="M691 559l-10 -77q-9 -64 -40 -96t-92 -37q60 -8 81 -44t12 -98l-29 -207h-142l31 226q5 33 -6.5 47.5t-43.5 14.5h-246l-40 -288h-142l98 700h447q74 0 103.5 -33.5t18.5 -107.5zM474 412q30 0 44 12.5t19 43.5l7 52q4 30 -7 43t-39 13h-251l-23 -164h250z" />
    <glyph glyph-name="S" unicode="S" horiz-adv-x="652" 
d="M189 288q-75 0 -105.5 35.5t-19.5 109.5l17 122q11 74 51 109.5t115 35.5h395l-18 -124h-345q-29 0 -43 -13t-18 -43l-7 -52q-4 -31 6 -43.5t39 -12.5h224q75 0 106 -35.5t20 -109.5l-17 -122q-11 -74 -50.5 -109.5t-114.5 -35.5h-426l17 124h375q29 0 43 13t19 43l7 52
q4 30 -6.5 43t-39.5 13h-224z" />
    <glyph glyph-name="T" unicode="T" horiz-adv-x="626" 
d="M664 700l-17 -124h-224l-81 -576h-142l80 576h-225l18 124h591z" />
    <glyph glyph-name="U" unicode="U" horiz-adv-x="709" 
d="M186 0q-148 0 -127 146l78 554h142l-73 -518q-4 -32 6.5 -45t41.5 -13h193q31 0 45.5 13t18.5 45l73 518h142l-78 -554q-11 -74 -51.5 -110t-115.5 -36h-295z" />
    <glyph glyph-name="V" unicode="V" horiz-adv-x="699" 
d="M24 0l98 700h142l-80 -576h202q91 0 104 93l68 483h142l-70 -497q-14 -99 -72.5 -151t-157.5 -52h-376z" />
    <glyph glyph-name="W" unicode="W" horiz-adv-x="998" 
d="M770 0h-146q-69 0 -100 25t-32 81q-17 -56 -54 -81t-106 -25h-146q-148 0 -127 146l78 554h142l-73 -518q-4 -32 6.5 -45t41.5 -13h115q30 0 44 13t19 44l73 519h142l-73 -519q-5 -31 6 -44t41 -13h115q31 0 45.5 13t18.5 45l73 518h142l-78 -554q-11 -74 -51.5 -110
t-115.5 -36z" />
    <glyph glyph-name="X" unicode="X" horiz-adv-x="695" 
d="M79 493l29 207h142l-31 -226q-5 -33 6 -47.5t44 -14.5h188q32 0 48 14.5t21 47.5l31 226h142l-29 -207q-9 -64 -41 -100.5t-96 -42.5q63 -6 84.5 -42.5t12.5 -100.5l-29 -207h-142l31 226q5 33 -6.5 47.5t-43.5 14.5h-188q-33 0 -48.5 -14.5t-20.5 -47.5l-31 -226h-142
l29 207q18 131 138 143q-63 6 -85 42.5t-13 100.5z" />
    <glyph glyph-name="Y" unicode="Y" horiz-adv-x="682" 
d="M569 700h142l-38 -266q-19 -146 -166 -146h-86l-40 -288h-142l40 288h-85q-75 0 -105.5 36t-19.5 110l37 266h142l-33 -231q-4 -31 6.5 -44t41.5 -13h209q31 0 45.5 13t18.5 44z" />
    <glyph glyph-name="Z" unicode="Z" horiz-adv-x="660" 
d="M414 412q42 0 61 16.5t25 58.5l12 89h-407l17 124h550l-33 -236q-26 -176 -201 -176h-181q-42 0 -61 -16.5t-25 -58.5l-13 -89h433l-17 -124h-575l33 236q24 176 200 176h182z" />
    <glyph glyph-name="bracketleft" unicode="[" horiz-adv-x="347" 
d="M122 700h243l-15 -106h-121l-80 -568h121l-15 -106h-243z" />
    <glyph glyph-name="backslash" unicode="\" horiz-adv-x="459" 
d="M162 700l273 -700h-141l-273 700h141z" />
    <glyph glyph-name="bracketright" unicode="]" horiz-adv-x="347" 
d="M94 700h242l-110 -780h-242l15 106h121l80 568h-121z" />
    <glyph glyph-name="asciicircum" unicode="^" 
d="M340 710l285 -280v-165l-285 280l-285 -280v165z" />
    <glyph glyph-name="underscore" unicode="_" horiz-adv-x="537" 
d="M495 -38v-84h-537v84h537z" />
    <glyph glyph-name="grave" unicode="`" horiz-adv-x="262" 
d="M188 661l-106 102h127l82 -102h-103z" />
    <glyph glyph-name="a" unicode="a" horiz-adv-x="619" 
d="M462 357l10 70q4 30 -7.5 43.5t-40.5 13.5h-315l16 119h366q73 0 103 -35t19 -109l-44 -315q-11 -74 -50 -109t-112 -35h-267q-130 0 -111 132l13 93q19 132 147 132h273zM446 246h-217q-25 0 -37.5 -11t-16.5 -36l-4 -33q-4 -25 5.5 -36t34.5 -11h161q57 0 64 57z" />
    <glyph glyph-name="b" unicode="b" horiz-adv-x="624" 
d="M42 144l88 626h137l-35 -246q15 41 46.5 60t87.5 19h122q73 0 103 -35t20 -109l-45 -315q-11 -74 -50 -109t-112 -35h-240q-73 0 -103 35t-19 109zM218 427l-35 -251q-4 -30 7.5 -43.5t41.5 -13.5h138q29 0 44 13.5t20 43.5l35 251q9 57 -48 57h-138q-30 0 -45 -13.5
t-20 -43.5z" />
    <glyph glyph-name="c" unicode="c" horiz-adv-x="564" 
d="M158 0q-73 0 -103 35t-19 109l44 315q11 74 50 109t112 35h339l-17 -119h-288q-57 0 -64 -57l-35 -251q-9 -57 48 -57h288l-16 -119h-339z" />
    <glyph glyph-name="d" unicode="d" horiz-adv-x="624" 
d="M648 770l-88 -626q-11 -74 -50 -109t-112 -35h-240q-73 0 -103 35t-19 109l44 315q11 74 50 109t112 35h122q56 0 82 -19t30 -60l35 246h137zM427 176l36 251q4 30 -7.5 43.5t-40.5 13.5h-139q-57 0 -64 -57l-35 -251q-9 -57 48 -57h138q57 0 64 57z" />
    <glyph glyph-name="e" unicode="e" horiz-adv-x="619" 
d="M607 378q-19 -132 -147 -132h-274l-10 -70q-4 -30 8 -43.5t41 -13.5h315l-16 -119h-366q-73 0 -103 35t-19 109l44 315q11 74 50 109t112 35h267q129 0 111 -132zM438 484h-161q-58 0 -66 -58l-9 -69h218q25 0 37.5 11t15.5 36l5 33q4 25 -5.5 36t-34.5 11z" />
    <glyph glyph-name="f" unicode="f" horiz-adv-x="545" 
d="M285 484q-36 0 -55.5 -16.5t-24.5 -53.5l-7 -53h291l-16 -119h-292l-57 -409h-137l85 604q12 85 58 125.5t132 40.5h308l-17 -119h-268z" />
    <glyph glyph-name="g" unicode="g" horiz-adv-x="624" 
d="M359 161q30 0 44.5 13t19.5 43l30 210q4 30 -7 43.5t-41 13.5h-138q-58 0 -65 -57l-30 -210q-4 -29 7.5 -42.5t41.5 -13.5h138zM275 41h-122q-73 0 -102.5 35t-18.5 109l38 274q11 74 50 109t112 35h240q73 0 103 -35t19 -109l-59 -422q-15 -105 -71 -154.5t-162 -49.5
h-280l17 119h259q46 0 69.5 20.5t30.5 67.5l11 79q-29 -78 -134 -78z" />
    <glyph glyph-name="h" unicode="h" horiz-adv-x="636" 
d="M464 427q4 30 -7.5 43.5t-40.5 13.5h-138q-30 0 -45 -13.5t-20 -43.5l-59 -427h-137l108 770h137l-35 -246q16 41 47.5 60t86.5 19h122q73 0 103 -35t19 -109l-64 -459h-136z" />
    <glyph glyph-name="i" unicode="i" horiz-adv-x="324" 
d="M232 119h60l-16 -119h-109q-75 0 -104 33.5t-18 106.5l64 463h137l-60 -431q-4 -29 6.5 -41t39.5 -12zM280 757l-13 -90h-160l12 90h161z" />
    <glyph glyph-name="j" unicode="j" horiz-adv-x="277" 
d="M-63 -48h36q30 0 41 10t16 40l84 601h137l-89 -630q-11 -74 -48 -107t-112 -33h-82zM111 667l13 90h161l-13 -90h-161z" />
    <glyph glyph-name="k" unicode="k" horiz-adv-x="626" 
d="M459 407l28 196h136l-24 -175q-8 -59 -36 -89.5t-83 -37.5q54 -6 73 -36.5t10 -90.5l-24 -174h-136l27 195q6 47 -41 47h-201l-34 -242h-137l108 770h137l-58 -409h201q48 0 54 46z" />
    <glyph glyph-name="l" unicode="l" horiz-adv-x="321" 
d="M228 119h61l-16 -119h-110q-74 0 -103 33.5t-18 106.5l88 630h137l-85 -598q-4 -29 6.5 -41t39.5 -12z" />
    <glyph glyph-name="m" unicode="m" horiz-adv-x="917" 
d="M486 497q15 56 51.5 81t102.5 25h124q73 0 103 -35t19 -109l-64 -459h-137l59 427q5 30 -6.5 43.5t-41.5 13.5h-87q-30 0 -45 -13t-20 -43l-59 -428h-137l59 428q5 29 -6 42.5t-41 13.5h-88q-30 0 -45 -13.5t-20 -43.5l-59 -427h-137l64 459q11 74 50 109t112 35h124
q66 0 95.5 -25t29.5 -81z" />
    <glyph glyph-name="n" unicode="n" horiz-adv-x="628" 
d="M11 0l64 459q11 74 50 109t112 35h238q73 0 103 -35t19 -109l-64 -459h-137l60 427q4 30 -7 43.5t-41 13.5h-136q-30 0 -45 -13.5t-20 -43.5l-59 -427h-137z" />
    <glyph glyph-name="o" unicode="o" horiz-adv-x="616" 
d="M480 603q73 0 103 -35t19 -109l-44 -315q-11 -74 -50 -109t-112 -35h-238q-73 0 -103 35t-19 109l44 315q11 74 50 109t112 35h238zM361 119q30 0 45 13.5t20 43.5l35 251q4 30 -7 43.5t-41 13.5h-137q-57 0 -64 -57l-35 -251q-5 -30 6.5 -43.5t41.5 -13.5h136z" />
    <glyph glyph-name="p" unicode="p" horiz-adv-x="624" 
d="M-13 -167l88 626q11 74 50 109t112 35h240q73 0 103 -35t20 -109l-45 -315q-11 -74 -50 -109t-112 -35h-122q-55 0 -81.5 19t-31.5 59l-34 -245h-137zM207 427l-35 -251q-4 -30 7.5 -43.5t41.5 -13.5h138q29 0 44 13.5t20 43.5l35 251q9 57 -48 57h-138q-30 0 -45 -13.5
t-20 -43.5z" />
    <glyph glyph-name="q" unicode="q" horiz-adv-x="624" 
d="M604 459l-88 -626h-137l34 245q-15 -40 -46.5 -59t-86.5 -19h-122q-73 0 -103 35t-19 109l44 315q11 74 50 109t112 35h240q73 0 103 -35t19 -109zM427 176l36 251q4 29 -7.5 43t-40.5 14h-139q-57 0 -64 -57l-35 -251q-4 -29 7.5 -43t40.5 -14h138q57 0 64 57z" />
    <glyph glyph-name="r" unicode="r" horiz-adv-x="469" 
d="M493 603l-16 -119h-205q-30 0 -45 -13.5t-20 -43.5l-59 -427h-137l64 459q11 74 50 109t112 35h256z" />
    <glyph glyph-name="s" unicode="s" horiz-adv-x="586" 
d="M547 484h-299q-47 0 -54 -47l-5 -33q-6 -47 41 -47h202q127 0 108 -132l-13 -93q-10 -68 -45.5 -100t-100.5 -32h-385l16 119h330q47 0 54 47l4 33q4 25 -5.5 36t-34.5 11h-201q-129 0 -110 132l13 93q18 132 146 132h355z" />
    <glyph glyph-name="t" unicode="t" horiz-adv-x="496" 
d="M166 0q-75 0 -105 35t-19 109l88 626h137l-24 -167h270l-17 -119h-270l-43 -308q-4 -30 7.5 -43.5t41.5 -13.5h213l-16 -119h-263z" />
    <glyph glyph-name="u" unicode="u" horiz-adv-x="628" 
d="M367 119q31 0 45.5 13.5t18.5 43.5l60 427h137l-64 -459q-11 -74 -50 -109t-112 -35h-238q-73 0 -103 35t-19 109l64 459h137l-60 -427q-4 -30 7.5 -43.5t41.5 -13.5h135z" />
    <glyph glyph-name="v" unicode="v" horiz-adv-x="621" 
d="M613 603l-57 -409q-14 -101 -66.5 -147.5t-153.5 -46.5h-319l84 603h137l-67 -484h151q46 0 69 19.5t30 66.5l56 398h136z" />
    <glyph glyph-name="w" unicode="w" horiz-adv-x="917" 
d="M442 106q-16 -56 -52 -81t-102 -25h-124q-73 0 -103 35t-19 109l64 459h137l-60 -427q-4 -30 7.5 -43.5t41.5 -13.5h87q30 0 45 13t19 43l60 428h137l-60 -428q-4 -30 7 -43t41 -13h88q31 0 45.5 13.5t18.5 43.5l60 427h137l-64 -459q-11 -74 -50 -109t-112 -35h-124
q-66 0 -96 25t-29 81z" />
    <glyph glyph-name="x" unicode="x" horiz-adv-x="630" 
d="M464 407l27 196h137l-25 -175q-8 -59 -36 -89.5t-82 -37.5q53 -6 72 -36.5t11 -90.5l-24 -174h-137l27 195q6 47 -41 47h-172q-48 0 -55 -47l-27 -195h-136l24 174q8 59 35.5 90t83.5 37q-54 7 -73 37.5t-11 89.5l25 175h136l-27 -196q-6 -46 41 -46h172q48 0 55 46z" />
    <glyph glyph-name="y" unicode="y" horiz-adv-x="636" 
d="M309 -167h-279l17 119h258q46 0 69.5 20.5t30.5 67.5l11 79q-29 -78 -134 -78h-122q-73 0 -102.5 35t-18.5 109l58 418h137l-54 -386q-4 -30 7 -43t41 -13h138q30 0 44.5 13t19.5 43l54 386h137l-79 -566q-15 -105 -71 -154.5t-162 -49.5z" />
    <glyph glyph-name="z" unicode="z" horiz-adv-x="594" 
d="M227 246q-33 0 -49.5 -15t-21.5 -47l-9 -65h383l-16 -119h-520l26 190q24 167 190 167h155q32 0 48.5 15t21.5 47l10 65h-363l16 119h500l-27 -191q-22 -166 -190 -166h-154z" />
    <glyph glyph-name="braceleft" unicode="{" horiz-adv-x="359" 
d="M244 530l-16 -112q-8 -54 -35 -80.5t-80 -27.5q53 -1 73 -27.5t12 -80.5l-16 -112q-4 -31 6.5 -44t40.5 -13h57l-15 -113h-100q-74 0 -103.5 34t-18.5 107l21 153q3 22 -3 31t-26 9h-26l16 112h26q20 0 28.5 9t11.5 31l21 153q11 73 50 107t113 34h100l-16 -113h-57
q-31 0 -45.5 -13t-18.5 -44z" />
    <glyph glyph-name="bar" unicode="|" horiz-adv-x="299" 
d="M87 -167v907h141v-907h-141z" />
    <glyph glyph-name="braceright" unicode="}" horiz-adv-x="359" 
d="M163 418l16 112q4 31 -6.5 44t-41.5 13h-57l16 113h100q73 0 103 -34t19 -107l-22 -153q-2 -22 4 -31t27 -9h25l-16 -112h-25q-21 0 -30 -9t-11 -31l-22 -153q-11 -73 -50 -107t-112 -34h-100l16 113h57q30 0 44.5 13t19.5 44l16 112q8 54 35 80.5t79 27.5
q-52 1 -72 27.5t-12 80.5z" />
    <glyph glyph-name="asciitilde" unicode="~" 
d="M55 264v126q57 61 134 61q50 0 153.5 -36t152.5 -36q75 0 130 60v-127q-57 -60 -134 -60q-51 0 -154 36t-152 36q-74 0 -130 -60z" />
    <glyph glyph-name="uni00A0" unicode="&#xa0;" horiz-adv-x="276" 
 />
    <glyph glyph-name="exclamdown" unicode="&#xa1;" horiz-adv-x="295" 
d="M95 526l14 104h168l-14 -104h-168zM24 -70l31 223q22 154 56 278h109q-1 -129 -23 -278l-31 -223h-142z" />
    <glyph glyph-name="cent" unicode="&#xa2;" 
d="M304 -40l13 90h-146q-73 0 -103.5 35t-19.5 109l44 312q11 74 50.5 109t112.5 35h146l13 90h124l-13 -90h169l-17 -119h-169l-51 -362h169l-16 -119h-169l-13 -90h-124zM238 169h95l51 362h-96q-29 0 -44 -13.5t-20 -43.5l-35 -248q-4 -30 7.5 -43.5t41.5 -13.5z" />
    <glyph glyph-name="sterling" unicode="&#xa3;" 
d="M246 124h366l-17 -124h-599l17 124h91l23 164h-91l17 124h91l20 142q11 74 51.5 110t115.5 36h315l-18 -124h-264q-30 0 -44 -12.5t-18 -43.5l-16 -108h318l-17 -124h-318z" />
    <glyph glyph-name="currency" unicode="&#xa4;" 
d="M73 507q0 75 34 109.5t109 34.5h63v89h124v-89h62q74 0 108 -34.5t34 -109.5v-97h53v-120h-53v-98q0 -75 -34 -109.5t-108 -34.5h-62v-88h-124v88h-63q-75 0 -109 34.5t-34 109.5v98h-52v120h52v97zM414 528h-148q-29 0 -42.5 -13t-13.5 -43v-245q0 -56 56 -56h148
q30 0 43.5 13.5t13.5 42.5v245q0 29 -13.5 42.5t-43.5 13.5z" />
    <glyph glyph-name="yen" unicode="&#xa5;" 
d="M546 700h142l-24 -169q-11 -74 -51 -110t-115 -36h-78l-17 -123h208l-18 -124h-208l-19 -138h-142l19 138h-208l18 124h207l18 123h-78q-75 0 -106 36t-20 110l24 169h142l-19 -135q-5 -31 6 -44t42 -13h194q31 0 45.5 13t18.5 44z" />
    <glyph glyph-name="brokenbar" unicode="&#xa6;" horiz-adv-x="299" 
d="M87 -167v394h141v-394h-141zM87 347v393h141v-393h-141z" />
    <glyph glyph-name="section" unicode="&#xa7;" horiz-adv-x="705" 
d="M248 464h319q62 0 86 -29t15 -92l-8 -64q-8 -52 -33 -80.5t-79 -34.5q52 -7 69 -35t10 -80l-6 -43q-10 -71 -47.5 -104.5t-108.5 -33.5h-463l17 119h418q51 0 58 51l2 16q4 27 -5.5 38.5t-36.5 11.5h-318q-62 0 -86.5 29t-15.5 92l9 64q8 52 32.5 80t78.5 35
q-52 7 -69 35t-9 80l6 43q10 71 47.5 104.5t108.5 33.5h462l-17 -119h-418q-27 0 -40.5 -12t-16.5 -39l-3 -16q-4 -27 6 -38.5t36 -11.5zM480 345h-242q-49 0 -55 -49l-4 -23q-3 -27 7 -38.5t37 -11.5h241q50 0 57 49l3 23q4 27 -6 38.5t-38 11.5z" />
    <glyph glyph-name="dieresis" unicode="&#xa8;" horiz-adv-x="262" 
d="M148 754l-12 -87h-134l12 87h134zM375 754l-12 -87h-134l12 87h134z" />
    <glyph glyph-name="copyright" unicode="&#xa9;" horiz-adv-x="810" 
d="M317 188q-42 0 -60.5 19.5t-18.5 61.5v161q0 42 18.5 61.5t60.5 19.5h253v-56h-242q-26 0 -26 -26v-159q0 -26 26 -26h242v-56h-253zM227 0q-86 0 -126.5 41t-40.5 125v368q0 84 40.5 125t126.5 41h371q86 0 126.5 -41t40.5 -125v-368q0 -84 -40.5 -125t-126.5 -41h-371z
M231 60h363q53 0 78 25.5t25 77.5v374q0 52 -25 77.5t-78 25.5h-363q-102 0 -102 -103v-374q0 -103 102 -103z" />
    <glyph glyph-name="ordfeminine" unicode="&#xaa;" horiz-adv-x="537" 
d="M411 485l9 67q3 24 -5.5 33.5t-31.5 9.5h-278l15 105h316q64 0 90 -30.5t17 -94.5l-40 -284q-9 -64 -43.5 -94.5t-98.5 -30.5h-213q-64 0 -90.5 30.5t-17.5 94.5l10 70q16 124 142 124h219zM166 338l-4 -24q-3 -24 5.5 -33.5t31.5 -9.5h139q23 0 34 9.5t14 33.5l10 67
h-182q-23 0 -34 -10t-14 -33zM248 124l77 -124h-189z" />
    <glyph glyph-name="guillemotleft" unicode="&#xab;" horiz-adv-x="556" 
d="M268 51h-139l-109 249l179 249h142l-184 -253zM500 51h-139l-109 249l179 249h142l-184 -253z" />
    <glyph glyph-name="logicalnot" unicode="&#xac;" 
d="M55 291v118h570v-298h-118v180h-452z" />
    <glyph glyph-name="uni00AD" unicode="&#xad;" horiz-adv-x="408" 
d="M385 388l-17 -122h-338l17 122h338z" />
    <glyph glyph-name="registered" unicode="&#xae;" horiz-adv-x="810" 
d="M227 0q-86 0 -126.5 41t-40.5 125v368q0 84 40.5 125t126.5 41h371q86 0 126.5 -41t40.5 -125v-368q0 -84 -40.5 -125t-126.5 -41h-371zM231 60h363q53 0 78 25.5t25 77.5v374q0 52 -25 77.5t-78 25.5h-363q-102 0 -102 -103v-374q0 -103 102 -103zM581 405
q0 -52 -57 -56q57 -6 57 -65v-96h-65v108q0 26 -23 26h-180v-134h-66v323h273q61 0 61 -62v-44zM516 436q0 19 -20 19h-183v-78h183q20 0 20 19v40z" />
    <glyph glyph-name="macron" unicode="&#xaf;" horiz-adv-x="262" 
d="M319 676h-271l10 70h271z" />
    <glyph glyph-name="degree" unicode="&#xb0;" horiz-adv-x="470" 
d="M54 570q0 130 138 130h132q138 0 138 -130v-131q0 -130 -138 -130h-132q-138 0 -138 130v131zM235 601q-39 0 -51 -12t-12 -50v-69q0 -38 12 -50t51 -12h46q39 0 51 12t12 50v69q0 38 -12 50t-51 12h-46z" />
    <glyph glyph-name="plusminus" unicode="&#xb1;" 
d="M55 291v118h226v178h118v-178h226v-118h-226v-173h226v-118h-570v118h226v173h-226z" />
    <glyph glyph-name="twosuperior" unicode="&#xb2;" horiz-adv-x="526" 
d="M406 531l3 20q4 25 -4.5 35t-32.5 10h-272l14 105h312q124 0 106 -125l-10 -70q-18 -125 -141 -125h-149q-38 0 -54 -13.5t-20 -50.5l-7 -46h338l-15 -104h-457l24 168q21 151 172 151h143q24 0 35 10t15 35z" />
    <glyph glyph-name="threesuperior" unicode="&#xb3;" horiz-adv-x="526" 
d="M528 578l-5 -36q-7 -48 -29 -75t-76 -34q52 -7 67 -34t8 -75l-5 -36q-10 -63 -43 -92.5t-96 -29.5h-336l15 105h293q25 0 36 10t15 35l3 20q4 24 -5 34.5t-32 10.5h-218l15 104h217q23 0 34.5 10.5t15.5 34.5l3 20q3 25 -5.5 35t-32.5 10h-294l15 105h336q63 0 88 -29.5
t16 -92.5z" />
    <glyph glyph-name="acute" unicode="&#xb4;" horiz-adv-x="262" 
d="M317 763l-139 -102h-107l110 102h136z" />
    <glyph glyph-name="uni00B5" unicode="&#xb5;" horiz-adv-x="636" 
d="M227 119h138q29 0 44 13.5t20 43.5l60 427h136l-64 -459q-11 -74 -50 -109t-112 -35h-122q-56 0 -82 19t-30 60l-35 -246h-137l108 770h137l-60 -427q-4 -30 7.5 -43.5t41.5 -13.5z" />
    <glyph glyph-name="paragraph" unicode="&#xb6;" horiz-adv-x="789" 
d="M790 700l-117 -832h-124l100 713h-123l-100 -713h-124l57 407h-173q-79 0 -110.5 37.5t-20.5 114.5l17 121q11 77 53 114.5t121 37.5h544z" />
    <glyph glyph-name="periodcentered" unicode="&#xb7;" horiz-adv-x="288" 
d="M238 409l-17 -118h-159l17 118h159z" />
    <glyph glyph-name="cedilla" unicode="&#xb8;" horiz-adv-x="268" 
d="M68 -40h74q76 0 76 -46q0 -49 -32 -70t-95 -21h-163l11 76h145q42 0 42 24q0 14 -24 14h-71l33 63h24z" />
    <glyph glyph-name="onesuperior" unicode="&#xb9;" horiz-adv-x="526" 
d="M81 166l14 105h147l45 324h-146l15 105h266l-61 -429h111l-14 -105h-377z" />
    <glyph glyph-name="ordmasculine" unicode="&#xba;" horiz-adv-x="546" 
d="M49 291l40 284q9 64 43.5 94.5t98.5 30.5h214q125 0 107 -125l-40 -284q-9 -64 -43.5 -94.5t-98.5 -30.5h-214q-64 0 -90 30.5t-17 94.5zM348 271q42 0 47 43l34 238q3 24 -5 33.5t-31 9.5h-140q-23 0 -34 -9.5t-14 -33.5l-34 -238q-3 -24 5.5 -33.5t31.5 -9.5h140z
M257 124l77 -124h-189z" />
    <glyph glyph-name="guillemotright" unicode="&#xbb;" horiz-adv-x="556" 
d="M126 51h-141l182 249l-112 249h141l109 -249zM357 51h-140l182 249l-112 249h140l109 -249z" />
    <glyph glyph-name="onequarter" unicode="&#xbc;" horiz-adv-x="1227" 
d="M407 0l319 700h108l-319 -700h-108zM81 166l14 105h147l45 324h-146l15 105h266l-61 -429h111l-14 -105h-377zM1051 319l30 215h119l-75 -534h-119l30 215h-189q-64 0 -90 30.5t-18 93.5l28 195h119l-24 -171q-7 -44 38 -44h151z" />
    <glyph glyph-name="onehalf" unicode="&#xbd;" horiz-adv-x="1227" 
d="M407 0l319 700h108l-319 -700h-108zM81 166l14 105h147l45 324h-146l15 105h266l-61 -429h111l-14 -105h-377zM1083 364l3 20q4 25 -4.5 35t-32.5 10h-272l14 105h312q124 0 106 -125l-10 -70q-18 -125 -141 -125h-149q-38 0 -54 -13.5t-20 -50.5l-7 -46h338l-15 -104
h-457l24 168q21 151 172 151h143q24 0 35 10t15 35z" />
    <glyph glyph-name="threequarters" unicode="&#xbe;" horiz-adv-x="1227" 
d="M407 0l319 700h108l-319 -700h-108zM1051 319l30 215h119l-75 -534h-119l30 215h-189q-64 0 -90 30.5t-18 93.5l28 195h119l-24 -171q-7 -44 38 -44h151zM528 578l-5 -36q-7 -48 -29 -75t-76 -34q52 -7 67 -34t8 -75l-5 -36q-10 -63 -43 -92.5t-96 -29.5h-336l15 105h293
q25 0 36 10t15 35l3 20q4 24 -5 34.5t-32 10.5h-218l15 104h217q23 0 34.5 10.5t15.5 34.5l3 20q3 25 -5.5 35t-32.5 10h-294l15 105h336q63 0 88 -29.5t16 -92.5z" />
    <glyph glyph-name="questiondown" unicode="&#xbf;" horiz-adv-x="634" 
d="M159 162l-8 -52q-4 -30 7 -43t39 -13h396l-17 -124h-446q-75 0 -105.5 35.5t-20.5 109.5l18 122q19 145 166 145h105q26 0 37 9.5t15 36.5l7 50h142l-14 -100q-16 -120 -136 -120h-124q-29 0 -43 -12.5t-18 -43.5zM352 526l14 104h168l-14 -104h-168z" />
    <glyph glyph-name="Agrave" unicode="&#xc0;" horiz-adv-x="709" 
d="M607 0h-142l40 288h-305l-40 -288h-142l77 554q21 146 168 146h295q75 0 106 -36t20 -110zM489 576h-193q-31 0 -45 -13t-19 -45l-15 -106h305l15 106q4 32 -6.5 45t-41.5 13zM394 749l-106 102h127l82 -102h-103z" />
    <glyph glyph-name="Aacute" unicode="&#xc1;" horiz-adv-x="709" 
d="M607 0h-142l40 288h-305l-40 -288h-142l77 554q21 146 168 146h295q75 0 106 -36t20 -110zM489 576h-193q-31 0 -45 -13t-19 -45l-15 -106h305l15 106q4 32 -6.5 45t-41.5 13zM581 851l-139 -102h-107l110 102h136z" />
    <glyph glyph-name="Acircumflex" unicode="&#xc2;" horiz-adv-x="709" 
d="M607 0h-142l40 288h-305l-40 -288h-142l77 554q21 146 168 146h295q75 0 106 -36t20 -110zM489 576h-193q-31 0 -45 -13t-19 -45l-15 -106h305l15 106q4 32 -6.5 45t-41.5 13zM425 802l-81 -53h-104l124 102h135l94 -102h-101z" />
    <glyph glyph-name="Atilde" unicode="&#xc3;" horiz-adv-x="709" 
d="M607 0h-142l40 288h-305l-40 -288h-142l77 554q21 146 168 146h295q75 0 106 -36t20 -110zM489 576h-193q-31 0 -45 -13t-19 -45l-15 -106h305l15 106q4 32 -6.5 45t-41.5 13zM280 741l11 77q41 37 79 37q24 0 63.5 -19.5t59.5 -19.5q36 0 73 40l-10 -77q-44 -41 -82 -41
q-24 0 -63.5 20.5t-60.5 20.5q-35 0 -70 -38z" />
    <glyph glyph-name="Adieresis" unicode="&#xc4;" horiz-adv-x="709" 
d="M607 0h-142l40 288h-305l-40 -288h-142l77 554q21 146 168 146h295q75 0 106 -36t20 -110zM489 576h-193q-31 0 -45 -13t-19 -45l-15 -106h305l15 106q4 32 -6.5 45t-41.5 13zM383 842l-12 -87h-134l12 87h134zM610 842l-12 -87h-134l12 87h134z" />
    <glyph glyph-name="Aring" unicode="&#xc5;" horiz-adv-x="709" 
d="M607 0h-142l40 288h-305l-40 -288h-142l77 554q21 146 168 146h295q75 0 106 -36t20 -110zM489 576h-193q-31 0 -45 -13t-19 -45l-15 -106h305l15 106q4 32 -6.5 45t-41.5 13zM398 791h49q30 0 30 29q0 20 -23 20h-49q-30 0 -30 -29q0 -20 23 -20zM420 886h32
q77 0 77 -56q0 -85 -97 -85h-32q-77 0 -77 56q0 85 97 85z" />
    <glyph glyph-name="AE" unicode="&#xc6;" horiz-adv-x="1058" 
d="M436 0l40 288h-276l-40 -288h-142l77 554q21 146 168 146h812l-17 -124h-401l-23 -164h309l-17 -124h-309l-23 -164h400l-17 -124h-541zM296 576q-31 0 -45.5 -13t-18.5 -45l-15 -106h276l23 164h-220z" />
    <glyph glyph-name="Ccedilla" unicode="&#xc7;" horiz-adv-x="618" 
d="M326 -63h-71l33 63h-110q-147 0 -125 146l57 408q19 146 166 146h382l-18 -124h-330q-30 0 -44.5 -13t-18.5 -45l-48 -336q-4 -32 7 -45t41 -13h330l-17 -124h-248l-20 -40h74q76 0 76 -46q0 -49 -32 -70t-95 -21h-163l11 76h145q42 0 42 25q0 13 -24 13z" />
    <glyph glyph-name="Egrave" unicode="&#xc8;" horiz-adv-x="669" 
d="M24 0l98 700h564l-17 -124h-422l-23 -164h330l-17 -124h-331l-22 -164h422l-18 -124h-564zM393 749l-106 102h127l82 -102h-103z" />
    <glyph glyph-name="Eacute" unicode="&#xc9;" horiz-adv-x="669" 
d="M24 0l98 700h564l-17 -124h-422l-23 -164h330l-17 -124h-331l-22 -164h422l-18 -124h-564zM579 851l-139 -102h-107l110 102h136z" />
    <glyph glyph-name="Ecircumflex" unicode="&#xca;" horiz-adv-x="669" 
d="M24 0l98 700h564l-17 -124h-422l-23 -164h330l-17 -124h-331l-22 -164h422l-18 -124h-564zM424 802l-81 -53h-104l124 102h135l94 -102h-101z" />
    <glyph glyph-name="Edieresis" unicode="&#xcb;" horiz-adv-x="669" 
d="M24 0l98 700h564l-17 -124h-422l-23 -164h330l-17 -124h-331l-22 -164h422l-18 -124h-564zM382 842l-12 -87h-134l12 87h134zM609 842l-12 -87h-134l12 87h134z" />
    <glyph glyph-name="Igrave" unicode="&#xcc;" horiz-adv-x="275" 
d="M24 0l98 700h142l-98 -700h-142zM178 749l-106 102h127l82 -102h-103z" />
    <glyph glyph-name="Iacute" unicode="&#xcd;" horiz-adv-x="275" 
d="M24 0l98 700h142l-98 -700h-142zM363 851l-139 -102h-107l110 102h136z" />
    <glyph glyph-name="Icircumflex" unicode="&#xce;" horiz-adv-x="275" 
d="M24 0l98 700h142l-98 -700h-142zM208 802l-81 -53h-104l124 102h135l94 -102h-101z" />
    <glyph glyph-name="Idieresis" unicode="&#xcf;" horiz-adv-x="275" 
d="M381 842l-12 -87h-134l12 87h134zM179 842l-12 -87h-134l12 87h134zM24 0l98 700h142l-98 -700h-142z" />
    <glyph glyph-name="Eth" unicode="&#xd0;" horiz-adv-x="702" 
d="M509 700q99 0 143 -51.5t30 -151.5l-41 -294q-14 -100 -72.5 -151.5t-157.5 -51.5h-387l40 288h-58l17 124h59l40 288h387zM396 124q93 0 105 93l38 266q13 93 -80 93h-212l-23 -164h89l-17 -124h-89l-23 -164h212z" />
    <glyph glyph-name="Ntilde" unicode="&#xd1;" horiz-adv-x="709" 
d="M296 576q-31 0 -45.5 -13t-18.5 -45l-72 -518h-142l77 554q21 146 168 146h295q75 0 106 -36t20 -110l-77 -554h-142l72 518q4 32 -6.5 45t-41.5 13h-193zM280 741l11 77q41 37 79 37q24 0 63.5 -19.5t59.5 -19.5q36 0 73 40l-10 -77q-44 -41 -82 -41q-24 0 -63.5 20.5
t-60.5 20.5q-35 0 -70 -38z" />
    <glyph glyph-name="Ograve" unicode="&#xd2;" horiz-adv-x="695" 
d="M179 0q-148 0 -126 146l57 408q19 146 167 146h297q75 0 105.5 -36t20.5 -110l-58 -408q-21 -146 -166 -146h-297zM505 182l47 336q4 32 -6.5 45t-40.5 13h-195q-30 0 -44.5 -13t-18.5 -45l-48 -336q-4 -32 7 -45t41 -13h195q30 0 44.5 13t18.5 45zM409 749l-106 102h127
l82 -102h-103z" />
    <glyph glyph-name="Oacute" unicode="&#xd3;" horiz-adv-x="695" 
d="M179 0q-148 0 -126 146l57 408q19 146 167 146h297q75 0 105.5 -36t20.5 -110l-58 -408q-21 -146 -166 -146h-297zM505 182l47 336q4 32 -6.5 45t-40.5 13h-195q-30 0 -44.5 -13t-18.5 -45l-48 -336q-4 -32 7 -45t41 -13h195q30 0 44.5 13t18.5 45zM596 851l-139 -102
h-107l110 102h136z" />
    <glyph glyph-name="Ocircumflex" unicode="&#xd4;" horiz-adv-x="695" 
d="M179 0q-148 0 -126 146l57 408q19 146 167 146h297q75 0 105.5 -36t20.5 -110l-58 -408q-21 -146 -166 -146h-297zM505 182l47 336q4 32 -6.5 45t-40.5 13h-195q-30 0 -44.5 -13t-18.5 -45l-48 -336q-4 -32 7 -45t41 -13h195q30 0 44.5 13t18.5 45zM440 802l-81 -53h-104
l124 102h135l94 -102h-101z" />
    <glyph glyph-name="Otilde" unicode="&#xd5;" horiz-adv-x="695" 
d="M179 0q-148 0 -126 146l57 408q19 146 167 146h297q75 0 105.5 -36t20.5 -110l-58 -408q-21 -146 -166 -146h-297zM505 182l47 336q4 32 -6.5 45t-40.5 13h-195q-30 0 -44.5 -13t-18.5 -45l-48 -336q-4 -32 7 -45t41 -13h195q30 0 44.5 13t18.5 45zM295 741l11 77
q41 37 79 37q24 0 63.5 -19.5t59.5 -19.5q36 0 73 40l-10 -77q-44 -41 -82 -41q-24 0 -63.5 20.5t-60.5 20.5q-35 0 -70 -38z" />
    <glyph glyph-name="Odieresis" unicode="&#xd6;" horiz-adv-x="695" 
d="M179 0q-148 0 -126 146l57 408q19 146 167 146h297q75 0 105.5 -36t20.5 -110l-58 -408q-21 -146 -166 -146h-297zM505 182l47 336q4 32 -6.5 45t-40.5 13h-195q-30 0 -44.5 -13t-18.5 -45l-48 -336q-4 -32 7 -45t41 -13h195q30 0 44.5 13t18.5 45zM398 842l-12 -87h-134
l12 87h134zM625 842l-12 -87h-134l12 87h134z" />
    <glyph glyph-name="multiply" unicode="&#xd7;" 
d="M467 291l95 -180h-128l-93 179l-95 -179h-128l95 180h-158v118h158l-95 178h128l95 -178l93 178h128l-95 -178h158v-118h-158z" />
    <glyph glyph-name="Oslash" unicode="&#xd8;" horiz-adv-x="695" 
d="M179 0q-148 0 -126 146l57 408q19 146 167 146h297q75 0 105.5 -36t20.5 -110l-58 -408q-21 -146 -166 -146h-297zM239 124h203q30 0 44.5 13t18.5 45l47 336q3 22 -1 34zM199 152l309 424h-198q-30 0 -44.5 -13t-18.5 -45l-48 -336q-3 -18 0 -30z" />
    <glyph glyph-name="Ugrave" unicode="&#xd9;" horiz-adv-x="709" 
d="M186 0q-148 0 -127 146l78 554h142l-73 -518q-4 -32 6.5 -45t41.5 -13h193q31 0 45.5 13t18.5 45l73 518h142l-78 -554q-11 -74 -51.5 -110t-115.5 -36h-295zM415 749l-106 102h127l82 -102h-103z" />
    <glyph glyph-name="Uacute" unicode="&#xda;" horiz-adv-x="709" 
d="M186 0q-148 0 -127 146l78 554h142l-73 -518q-4 -32 6.5 -45t41.5 -13h193q31 0 45.5 13t18.5 45l73 518h142l-78 -554q-11 -74 -51.5 -110t-115.5 -36h-295zM601 851l-139 -102h-107l110 102h136z" />
    <glyph glyph-name="Ucircumflex" unicode="&#xdb;" horiz-adv-x="709" 
d="M186 0q-148 0 -127 146l78 554h142l-73 -518q-4 -32 6.5 -45t41.5 -13h193q31 0 45.5 13t18.5 45l73 518h142l-78 -554q-11 -74 -51.5 -110t-115.5 -36h-295zM446 802l-81 -53h-104l124 102h135l94 -102h-101z" />
    <glyph glyph-name="Udieresis" unicode="&#xdc;" horiz-adv-x="709" 
d="M186 0q-148 0 -127 146l78 554h142l-73 -518q-4 -32 6.5 -45t41.5 -13h193q31 0 45.5 13t18.5 45l73 518h142l-78 -554q-11 -74 -51.5 -110t-115.5 -36h-295zM404 842l-12 -87h-134l12 87h134zM631 842l-12 -87h-134l12 87h134z" />
    <glyph glyph-name="Yacute" unicode="&#xdd;" horiz-adv-x="682" 
d="M569 700h142l-38 -266q-19 -146 -166 -146h-86l-40 -288h-142l40 288h-85q-75 0 -105.5 36t-19.5 110l37 266h142l-33 -231q-4 -31 6.5 -44t41.5 -13h209q31 0 45.5 13t18.5 44zM578 851l-139 -102h-107l110 102h136z" />
    <glyph glyph-name="Thorn" unicode="&#xde;" horiz-adv-x="680" 
d="M24 0l98 700h142l-14 -97h300q75 0 105.5 -35.5t19.5 -109.5l-17 -123q-11 -74 -51 -109t-115 -35h-299l-27 -191h-142zM528 423q5 30 -6 43t-40 13h-249l-22 -164h248q29 0 43.5 12.5t18.5 43.5z" />
    <glyph glyph-name="germandbls" unicode="&#xdf;" horiz-adv-x="650" 
d="M420 246h-166l16 111h166q26 0 38 11t15 37l4 28q4 27 -6 39t-37 12h-165q-36 0 -55 -16t-24 -54l-82 -581h-137l85 604q12 85 58.5 125.5t131.5 40.5h259q68 0 96 -33t18 -102l-7 -52q-14 -104 -109 -115q49 -6 66.5 -34.5t10.5 -80.5l-8 -51q-9 -69 -46 -102t-105 -33
h-217l16 119h162q28 0 41 12t17 39l4 28q4 26 -5 37t-35 11z" />
    <glyph glyph-name="agrave" unicode="&#xe0;" horiz-adv-x="619" 
d="M462 357l10 70q4 30 -7.5 43.5t-40.5 13.5h-315l16 119h366q73 0 103 -35t19 -109l-44 -315q-11 -74 -50 -109t-112 -35h-267q-130 0 -111 132l13 93q19 132 147 132h273zM446 246h-217q-25 0 -37.5 -11t-16.5 -36l-4 -33q-4 -25 5.5 -36t34.5 -11h161q57 0 64 57z
M351 661l-106 102h127l82 -102h-103z" />
    <glyph glyph-name="aacute" unicode="&#xe1;" horiz-adv-x="619" 
d="M462 357l10 70q4 30 -7.5 43.5t-40.5 13.5h-315l16 119h366q73 0 103 -35t19 -109l-44 -315q-11 -74 -50 -109t-112 -35h-267q-130 0 -111 132l13 93q19 132 147 132h273zM446 246h-217q-25 0 -37.5 -11t-16.5 -36l-4 -33q-4 -25 5.5 -36t34.5 -11h161q57 0 64 57z
M537 763l-139 -102h-107l110 102h136z" />
    <glyph glyph-name="acircumflex" unicode="&#xe2;" horiz-adv-x="619" 
d="M462 357l10 70q4 30 -7.5 43.5t-40.5 13.5h-315l16 119h366q73 0 103 -35t19 -109l-44 -315q-11 -74 -50 -109t-112 -35h-267q-130 0 -111 132l13 93q19 132 147 132h273zM446 246h-217q-25 0 -37.5 -11t-16.5 -36l-4 -33q-4 -25 5.5 -36t34.5 -11h161q57 0 64 57z
M382 714l-81 -53h-104l124 102h135l94 -102h-101z" />
    <glyph glyph-name="atilde" unicode="&#xe3;" horiz-adv-x="619" 
d="M462 357l10 70q4 30 -7.5 43.5t-40.5 13.5h-315l16 119h366q73 0 103 -35t19 -109l-44 -315q-11 -74 -50 -109t-112 -35h-267q-130 0 -111 132l13 93q19 132 147 132h273zM446 246h-217q-25 0 -37.5 -11t-16.5 -36l-4 -33q-4 -25 5.5 -36t34.5 -11h161q57 0 64 57z
M237 653l11 77q41 37 79 37q24 0 63.5 -19.5t59.5 -19.5q36 0 73 40l-10 -77q-44 -41 -82 -41q-24 0 -63.5 20.5t-60.5 20.5q-35 0 -70 -38z" />
    <glyph glyph-name="adieresis" unicode="&#xe4;" horiz-adv-x="619" 
d="M462 357l10 70q4 30 -7.5 43.5t-40.5 13.5h-315l16 119h366q73 0 103 -35t19 -109l-44 -315q-11 -74 -50 -109t-112 -35h-267q-130 0 -111 132l13 93q19 132 147 132h273zM446 246h-217q-25 0 -37.5 -11t-16.5 -36l-4 -33q-4 -25 5.5 -36t34.5 -11h161q57 0 64 57z
M340 754l-12 -87h-134l12 87h134zM567 754l-12 -87h-134l12 87h134z" />
    <glyph glyph-name="aring" unicode="&#xe5;" horiz-adv-x="619" 
d="M462 357l10 70q4 30 -7.5 43.5t-40.5 13.5h-315l16 119h366q73 0 103 -35t19 -109l-44 -315q-11 -74 -50 -109t-112 -35h-267q-130 0 -111 132l13 93q19 132 147 132h273zM446 246h-217q-25 0 -37.5 -11t-16.5 -36l-4 -33q-4 -25 5.5 -36t34.5 -11h161q57 0 64 57z
M355 703h49q30 0 30 29q0 20 -23 20h-49q-30 0 -30 -29q0 -20 23 -20zM377 798h32q77 0 77 -56q0 -85 -97 -85h-32q-77 0 -77 56q0 85 97 85z" />
    <glyph glyph-name="ae" unicode="&#xe6;" horiz-adv-x="906" 
d="M768 404l5 33q4 25 -5.5 36t-34.5 11h-110q-58 0 -65 -56l-10 -71h167q26 0 38 11t15 36zM175 199l-4 -33q-4 -25 5.5 -36t34.5 -11h111q57 0 64 56l10 71h-167q-25 0 -37.5 -11t-16.5 -36zM291 0h-151q-130 0 -111 132l13 93q19 132 147 132h223l10 71q4 30 -7 43
t-41 13h-265l16 119h250q66 0 95.5 -25t28.5 -81q16 56 52 81t102 25h151q129 0 111 -132l-13 -93q-19 -132 -147 -132h-223l-10 -71q-4 -30 7.5 -43t41.5 -13h264l-16 -119h-250q-66 0 -95.5 25t-29.5 81q-15 -56 -51 -81t-102 -25z" />
    <glyph glyph-name="ccedilla" unicode="&#xe7;" horiz-adv-x="564" 
d="M283 -63h-71l33 63h-87q-73 0 -103 35t-19 109l44 315q11 74 50 109t112 35h339l-17 -119h-288q-57 0 -64 -57l-35 -251q-9 -57 48 -57h288l-16 -119h-228l-20 -40h74q76 0 76 -46q0 -49 -32 -70t-95 -21h-163l11 76h145q42 0 42 25q0 13 -24 13z" />
    <glyph glyph-name="egrave" unicode="&#xe8;" horiz-adv-x="619" 
d="M607 378q-19 -132 -147 -132h-274l-10 -70q-4 -30 8 -43.5t41 -13.5h315l-16 -119h-366q-73 0 -103 35t-19 109l44 315q11 74 50 109t112 35h267q129 0 111 -132zM438 484h-161q-58 0 -66 -58l-9 -69h218q25 0 37.5 11t15.5 36l5 33q4 25 -5.5 36t-34.5 11zM363 661
l-106 102h127l82 -102h-103z" />
    <glyph glyph-name="eacute" unicode="&#xe9;" horiz-adv-x="619" 
d="M607 378q-19 -132 -147 -132h-274l-10 -70q-4 -30 8 -43.5t41 -13.5h315l-16 -119h-366q-73 0 -103 35t-19 109l44 315q11 74 50 109t112 35h267q129 0 111 -132zM438 484h-161q-58 0 -66 -58l-9 -69h218q25 0 37.5 11t15.5 36l5 33q4 25 -5.5 36t-34.5 11zM549 763
l-139 -102h-107l110 102h136z" />
    <glyph glyph-name="ecircumflex" unicode="&#xea;" horiz-adv-x="619" 
d="M607 378q-19 -132 -147 -132h-274l-10 -70q-4 -30 8 -43.5t41 -13.5h315l-16 -119h-366q-73 0 -103 35t-19 109l44 315q11 74 50 109t112 35h267q129 0 111 -132zM438 484h-161q-58 0 -66 -58l-9 -69h218q25 0 37.5 11t15.5 36l5 33q4 25 -5.5 36t-34.5 11zM393 714
l-81 -53h-104l124 102h135l94 -102h-101z" />
    <glyph glyph-name="edieresis" unicode="&#xeb;" horiz-adv-x="619" 
d="M607 378q-19 -132 -147 -132h-274l-10 -70q-4 -30 8 -43.5t41 -13.5h315l-16 -119h-366q-73 0 -103 35t-19 109l44 315q11 74 50 109t112 35h267q129 0 111 -132zM438 484h-161q-58 0 -66 -58l-9 -69h218q25 0 37.5 11t15.5 36l5 33q4 25 -5.5 36t-34.5 11zM351 754
l-12 -87h-134l12 87h134zM578 754l-12 -87h-134l12 87h134z" />
    <glyph glyph-name="igrave" unicode="&#xec;" horiz-adv-x="324" 
d="M173 661l-106 102h127l82 -102h-103zM232 119h60l-16 -119h-109q-75 0 -104 33.5t-18 106.5l64 463h137l-60 -431q-4 -29 6.5 -41t39.5 -12z" />
    <glyph glyph-name="iacute" unicode="&#xed;" horiz-adv-x="324" 
d="M354 763l-139 -102h-107l110 102h136zM232 119h60l-16 -119h-109q-75 0 -104 33.5t-18 106.5l64 463h137l-60 -431q-4 -29 6.5 -41t39.5 -12z" />
    <glyph glyph-name="icircumflex" unicode="&#xee;" horiz-adv-x="324" 
d="M221 119h60l-16 -119h-109q-75 0 -104 33.5t-18 106.5l64 463h137l-60 -431q-4 -29 6.5 -41t39.5 -12zM184 714l-81 -53h-104l124 102h135l94 -102h-101z" />
    <glyph glyph-name="idieresis" unicode="&#xef;" horiz-adv-x="324" 
d="M366 754l-13 -87h-133l12 87h134zM144 754l-12 -87h-133l12 87h133zM221 119h60l-16 -119h-109q-75 0 -104 33.5t-18 106.5l64 463h137l-60 -431q-4 -29 6.5 -41t39.5 -12z" />
    <glyph glyph-name="eth" unicode="&#xf0;" horiz-adv-x="624" 
d="M237 566h122q55 0 81.5 -19t31.5 -59l10 75q7 47 -11.5 67.5t-64.5 20.5h-66l-7 -54h-34l7 54h-159l17 119h160l7 50h33l-7 -50h87q106 0 148 -49.5t27 -154.5l-59 -422q-11 -74 -50 -109t-112 -35h-240q-73 0 -103 35t-19 109l38 278q11 74 50.5 109t112.5 35zM409 446
h-138q-57 0 -64 -56l-30 -214q-9 -57 48 -57h138q57 0 64 57l31 214q4 30 -7.5 43t-41.5 13z" />
    <glyph glyph-name="ntilde" unicode="&#xf1;" horiz-adv-x="628" 
d="M11 0l64 459q11 74 50 109t112 35h238q73 0 103 -35t19 -109l-64 -459h-137l60 427q4 30 -7 43.5t-41 13.5h-136q-30 0 -45 -13.5t-20 -43.5l-59 -427h-137zM228 653l11 77q41 37 79 37q24 0 63.5 -19.5t59.5 -19.5q36 0 73 40l-10 -77q-44 -41 -82 -41q-24 0 -63.5 20.5
t-60.5 20.5q-35 0 -70 -38z" />
    <glyph glyph-name="ograve" unicode="&#xf2;" horiz-adv-x="616" 
d="M480 603q73 0 103 -35t19 -109l-44 -315q-11 -74 -50 -109t-112 -35h-238q-73 0 -103 35t-19 109l44 315q11 74 50 109t112 35h238zM361 119q30 0 45 13.5t20 43.5l35 251q4 30 -7 43.5t-41 13.5h-137q-57 0 -64 -57l-35 -251q-5 -30 6.5 -43.5t41.5 -13.5h136zM347 661
l-106 102h127l82 -102h-103z" />
    <glyph glyph-name="oacute" unicode="&#xf3;" horiz-adv-x="616" 
d="M480 603q73 0 103 -35t19 -109l-44 -315q-11 -74 -50 -109t-112 -35h-238q-73 0 -103 35t-19 109l44 315q11 74 50 109t112 35h238zM361 119q30 0 45 13.5t20 43.5l35 251q4 30 -7 43.5t-41 13.5h-137q-57 0 -64 -57l-35 -251q-5 -30 6.5 -43.5t41.5 -13.5h136zM533 763
l-139 -102h-107l110 102h136z" />
    <glyph glyph-name="ocircumflex" unicode="&#xf4;" horiz-adv-x="616" 
d="M480 603q73 0 103 -35t19 -109l-44 -315q-11 -74 -50 -109t-112 -35h-238q-73 0 -103 35t-19 109l44 315q11 74 50 109t112 35h238zM361 119q30 0 45 13.5t20 43.5l35 251q4 30 -7 43.5t-41 13.5h-137q-57 0 -64 -57l-35 -251q-5 -30 6.5 -43.5t41.5 -13.5h136zM378 714
l-81 -53h-104l124 102h135l94 -102h-101z" />
    <glyph glyph-name="otilde" unicode="&#xf5;" horiz-adv-x="616" 
d="M480 603q73 0 103 -35t19 -109l-44 -315q-11 -74 -50 -109t-112 -35h-238q-73 0 -103 35t-19 109l44 315q11 74 50 109t112 35h238zM361 119q30 0 45 13.5t20 43.5l35 251q4 30 -7 43.5t-41 13.5h-137q-57 0 -64 -57l-35 -251q-5 -30 6.5 -43.5t41.5 -13.5h136zM233 653
l11 77q41 37 79 37q24 0 63.5 -19.5t59.5 -19.5q36 0 73 40l-10 -77q-44 -41 -82 -41q-24 0 -63.5 20.5t-60.5 20.5q-35 0 -70 -38z" />
    <glyph glyph-name="odieresis" unicode="&#xf6;" horiz-adv-x="616" 
d="M480 603q73 0 103 -35t19 -109l-44 -315q-11 -74 -50 -109t-112 -35h-238q-73 0 -103 35t-19 109l44 315q11 74 50 109t112 35h238zM361 119q30 0 45 13.5t20 43.5l35 251q4 30 -7 43.5t-41 13.5h-137q-57 0 -64 -57l-35 -251q-5 -30 6.5 -43.5t41.5 -13.5h136zM336 754
l-12 -87h-134l12 87h134zM563 754l-12 -87h-134l12 87h134z" />
    <glyph glyph-name="divide" unicode="&#xf7;" 
d="M407 170v-118h-133v118h133zM407 648v-118h-133v118h133zM625 291h-570v118h570v-118z" />
    <glyph glyph-name="oslash" unicode="&#xf8;" horiz-adv-x="616" 
d="M480 603q73 0 103 -35t19 -109l-44 -315q-11 -74 -50 -109t-112 -35h-238q-73 0 -103 35t-19 109l44 315q11 74 50 109t112 35h238zM361 119q30 0 45 13.5t20 43.5l35 251q3 28 -5 40l-228 -348h133zM177 176q-5 -26 3 -40l229 348h-133q-57 0 -64 -57z" />
    <glyph glyph-name="ugrave" unicode="&#xf9;" horiz-adv-x="628" 
d="M367 119q31 0 45.5 13.5t18.5 43.5l60 427h137l-64 -459q-11 -74 -50 -109t-112 -35h-238q-73 0 -103 35t-19 109l64 459h137l-60 -427q-4 -30 7.5 -43.5t41.5 -13.5h135zM353 661l-106 102h127l82 -102h-103z" />
    <glyph glyph-name="uacute" unicode="&#xfa;" horiz-adv-x="628" 
d="M367 119q31 0 45.5 13.5t18.5 43.5l60 427h137l-64 -459q-11 -74 -50 -109t-112 -35h-238q-73 0 -103 35t-19 109l64 459h137l-60 -427q-4 -30 7.5 -43.5t41.5 -13.5h135zM539 763l-139 -102h-107l110 102h136z" />
    <glyph glyph-name="ucircumflex" unicode="&#xfb;" horiz-adv-x="628" 
d="M367 119q31 0 45.5 13.5t18.5 43.5l60 427h137l-64 -459q-11 -74 -50 -109t-112 -35h-238q-73 0 -103 35t-19 109l64 459h137l-60 -427q-4 -30 7.5 -43.5t41.5 -13.5h135zM384 714l-81 -53h-104l124 102h135l94 -102h-101z" />
    <glyph glyph-name="udieresis" unicode="&#xfc;" horiz-adv-x="628" 
d="M367 119q31 0 45.5 13.5t18.5 43.5l60 427h137l-64 -459q-11 -74 -50 -109t-112 -35h-238q-73 0 -103 35t-19 109l64 459h137l-60 -427q-4 -30 7.5 -43.5t41.5 -13.5h135zM342 754l-12 -87h-134l12 87h134zM569 754l-12 -87h-134l12 87h134z" />
    <glyph glyph-name="yacute" unicode="&#xfd;" horiz-adv-x="636" 
d="M309 -167h-279l17 119h258q46 0 69.5 20.5t30.5 67.5l11 79q-29 -78 -134 -78h-122q-73 0 -102.5 35t-18.5 109l58 418h137l-54 -386q-4 -30 7 -43t41 -13h138q30 0 44.5 13t19.5 43l54 386h137l-79 -566q-15 -105 -71 -154.5t-162 -49.5zM534 763l-139 -102h-107
l110 102h136z" />
    <glyph glyph-name="thorn" unicode="&#xfe;" horiz-adv-x="630" 
d="M262 770l-24 -167h245q73 0 103.5 -35t19.5 -109l-44 -315q-11 -74 -50.5 -109t-112.5 -35h-122q-55 0 -81.5 19t-31.5 59l-34 -245h-137l132 937h137zM222 484l-44 -308q-4 -30 7.5 -43.5t41.5 -13.5h138q57 0 64 57l35 251q5 30 -6.5 43.5t-41.5 13.5h-194z" />
    <glyph glyph-name="ydieresis" unicode="&#xff;" horiz-adv-x="636" 
d="M309 -167h-279l17 119h258q46 0 69.5 20.5t30.5 67.5l11 79q-29 -78 -134 -78h-122q-73 0 -102.5 35t-18.5 109l58 418h137l-54 -386q-4 -30 7 -43t41 -13h138q30 0 44.5 13t19.5 43l54 386h137l-79 -566q-15 -105 -71 -154.5t-162 -49.5zM337 754l-12 -87h-134l12 87
h134zM564 754l-12 -87h-134l12 87h134z" />
    <glyph glyph-name="Amacron" unicode="&#x100;" horiz-adv-x="709" 
d="M607 0h-142l40 288h-305l-40 -288h-142l77 554q21 146 168 146h295q75 0 106 -36t20 -110zM489 576h-193q-31 0 -45 -13t-19 -45l-15 -106h305l15 106q4 32 -6.5 45t-41.5 13zM554 764h-271l10 70h271z" />
    <glyph glyph-name="amacron" unicode="&#x101;" horiz-adv-x="619" 
d="M462 357l10 70q4 30 -7.5 43.5t-40.5 13.5h-315l16 119h366q73 0 103 -35t19 -109l-44 -315q-11 -74 -50 -109t-112 -35h-267q-130 0 -111 132l13 93q19 132 147 132h273zM446 246h-217q-25 0 -37.5 -11t-16.5 -36l-4 -33q-4 -25 5.5 -36t34.5 -11h161q57 0 64 57z
M511 676h-271l10 70h271z" />
    <glyph glyph-name="Abreve" unicode="&#x102;" horiz-adv-x="709" 
d="M607 0h-142l40 288h-305l-40 -288h-142l77 554q21 146 168 146h295q75 0 106 -36t20 -110zM489 576h-193q-31 0 -45 -13t-19 -45l-15 -106h305l15 106q4 32 -6.5 45t-41.5 13zM287 791l7 75q34 -51 129 -51q94 0 142 51l-7 -75q-51 -51 -143 -51q-93 0 -128 51z" />
    <glyph glyph-name="abreve" unicode="&#x103;" horiz-adv-x="619" 
d="M462 357l10 70q4 30 -7.5 43.5t-40.5 13.5h-315l16 119h366q73 0 103 -35t19 -109l-44 -315q-11 -74 -50 -109t-112 -35h-267q-130 0 -111 132l13 93q19 132 147 132h273zM446 246h-217q-25 0 -37.5 -11t-16.5 -36l-4 -33q-4 -25 5.5 -36t34.5 -11h161q57 0 64 57z
M244 703l7 75q34 -51 129 -51q94 0 142 51l-7 -75q-51 -51 -143 -51q-93 0 -128 51z" />
    <glyph glyph-name="Aogonek" unicode="&#x104;" horiz-adv-x="709" 
d="M489 576h-193q-31 0 -45 -13t-19 -45l-15 -106h305l15 106q4 32 -6.5 45t-41.5 13zM549 -177h-178q-87 0 -87 49q0 52 45 70.5t168 18.5h10l7 39h-49l40 288h-305l-40 -288h-142l77 554q21 146 168 146h295q75 0 106 -36t20 -110l-77 -554h-68l-10 -62h-25
q-68 0 -104 -3.5t-46.5 -9t-10.5 -16.5q0 -10 32 -10h185z" />
    <glyph glyph-name="aogonek" unicode="&#x105;" horiz-adv-x="619" 
d="M493 -177h-178q-87 0 -87 49q0 52 45 70.5t168 18.5h10l6 44q-19 -5 -50 -5h-267q-130 0 -111 132l13 93q19 132 147 132h273l10 70q4 30 -7.5 43.5t-40.5 13.5h-315l16 119h366q73 0 103 -35t19 -109l-44 -315q-15 -102 -86 -131l-10 -75h-25q-68 0 -104 -3.5t-46.5 -9
t-10.5 -16.5q0 -10 32 -10h185zM446 246h-217q-25 0 -37.5 -11t-16.5 -36l-4 -33q-4 -25 5.5 -36t34.5 -11h161q57 0 64 57z" />
    <glyph glyph-name="Cacute" unicode="&#x106;" horiz-adv-x="618" 
d="M178 0q-147 0 -125 146l57 408q19 146 166 146h382l-18 -124h-330q-30 0 -44.5 -13t-18.5 -45l-48 -336q-4 -32 7 -45t41 -13h330l-17 -124h-382zM570 851l-139 -102h-107l110 102h136z" />
    <glyph glyph-name="cacute" unicode="&#x107;" horiz-adv-x="564" 
d="M158 0q-73 0 -103 35t-19 109l44 315q11 74 50 109t112 35h339l-17 -119h-288q-57 0 -64 -57l-35 -251q-9 -57 48 -57h288l-16 -119h-339zM533 763l-139 -102h-107l110 102h136z" />
    <glyph glyph-name="Ccircumflex" unicode="&#x108;" horiz-adv-x="618" 
d="M178 0q-147 0 -125 146l57 408q19 146 166 146h382l-18 -124h-330q-30 0 -44.5 -13t-18.5 -45l-48 -336q-4 -32 7 -45t41 -13h330l-17 -124h-382zM426 802l-81 -53h-104l124 102h135l94 -102h-101z" />
    <glyph glyph-name="ccircumflex" unicode="&#x109;" horiz-adv-x="564" 
d="M158 0q-73 0 -103 35t-19 109l44 315q11 74 50 109t112 35h339l-17 -119h-288q-57 0 -64 -57l-35 -251q-9 -57 48 -57h288l-16 -119h-339zM378 714l-81 -53h-104l124 102h135l94 -102h-101z" />
    <glyph glyph-name="Cdotaccent" unicode="&#x10a;" horiz-adv-x="618" 
d="M178 0q-147 0 -125 146l57 408q19 146 166 146h382l-18 -124h-330q-30 0 -44.5 -13t-18.5 -45l-48 -336q-4 -32 7 -45t41 -13h330l-17 -124h-382zM497 842l-12 -87h-133l12 87h133z" />
    <glyph glyph-name="cdotaccent" unicode="&#x10b;" horiz-adv-x="564" 
d="M158 0q-73 0 -103 35t-19 109l44 315q11 74 50 109t112 35h339l-17 -119h-288q-57 0 -64 -57l-35 -251q-9 -57 48 -57h288l-16 -119h-339zM449 754l-12 -87h-133l12 87h133z" />
    <glyph glyph-name="Ccaron" unicode="&#x10c;" horiz-adv-x="618" 
d="M178 0q-147 0 -125 146l57 408q19 146 166 146h382l-18 -124h-330q-30 0 -44.5 -13t-18.5 -45l-48 -336q-4 -32 7 -45t41 -13h330l-17 -124h-382zM356 851l67 -53l82 53h104l-124 -102h-135l-95 102h101z" />
    <glyph glyph-name="ccaron" unicode="&#x10d;" horiz-adv-x="564" 
d="M158 0q-73 0 -103 35t-19 109l44 315q11 74 50 109t112 35h339l-17 -119h-288q-57 0 -64 -57l-35 -251q-9 -57 48 -57h288l-16 -119h-339zM308 763l67 -53l82 53h104l-124 -102h-135l-95 102h101z" />
    <glyph glyph-name="Dcaron" unicode="&#x10e;" horiz-adv-x="702" 
d="M509 700q99 0 143 -51.5t30 -151.5l-41 -294q-14 -100 -72.5 -151.5t-157.5 -51.5h-387l98 700h387zM396 124q93 0 105 93l38 266q13 93 -80 93h-212l-63 -452h212zM344 851l67 -53l82 53h104l-124 -102h-135l-95 102h101z" />
    <glyph glyph-name="dcaron" unicode="&#x10f;" horiz-adv-x="879" 
d="M648 770l-88 -626q-11 -74 -50 -109t-112 -35h-240q-73 0 -103 35t-19 109l44 315q11 74 50 109t112 35h122q56 0 82 -19t30 -60l35 246h137zM427 176l36 251q4 30 -7.5 43.5t-40.5 13.5h-139q-57 0 -64 -57l-35 -251q-9 -57 48 -57h138q57 0 64 57zM898 700l-17 -117
q-9 -67 -47.5 -103.5t-104.5 -36.5h-27l9 63h22q25 0 38 11t17 41l4 25h-70l17 117h159z" />
    <glyph glyph-name="Dcroat" unicode="&#x110;" horiz-adv-x="702" 
d="M509 700q99 0 143 -51.5t30 -151.5l-41 -294q-14 -100 -72.5 -151.5t-157.5 -51.5h-387l40 288h-58l17 124h59l40 288h387zM396 124q93 0 105 93l38 266q13 93 -80 93h-212l-23 -164h89l-17 -124h-89l-23 -164h212z" />
    <glyph glyph-name="dcroat" unicode="&#x111;" horiz-adv-x="624" 
d="M648 770l-9 -63h52l-11 -69h-51l-69 -494q-11 -74 -50 -109t-112 -35h-240q-73 0 -103 35t-19 109l44 315q11 74 50 109t112 35h122q56 0 82 -19t30 -60l16 114h-82l10 69h82l9 63h137zM427 176l36 251q4 30 -7.5 43.5t-40.5 13.5h-139q-57 0 -64 -57l-35 -251
q-9 -57 48 -57h138q57 0 64 57z" />
    <glyph glyph-name="Emacron" unicode="&#x112;" horiz-adv-x="669" 
d="M24 0l98 700h564l-17 -124h-422l-23 -164h330l-17 -124h-331l-22 -164h422l-18 -124h-564zM553 764h-271l10 70h271z" />
    <glyph glyph-name="emacron" unicode="&#x113;" horiz-adv-x="619" 
d="M607 378q-19 -132 -147 -132h-274l-10 -70q-4 -30 8 -43.5t41 -13.5h315l-16 -119h-366q-73 0 -103 35t-19 109l44 315q11 74 50 109t112 35h267q129 0 111 -132zM438 484h-161q-58 0 -66 -58l-9 -69h218q25 0 37.5 11t15.5 36l5 33q4 25 -5.5 36t-34.5 11zM522 676h-271
l10 70h271z" />
    <glyph glyph-name="Ebreve" unicode="&#x114;" horiz-adv-x="669" 
d="M24 0l98 700h564l-17 -124h-422l-23 -164h330l-17 -124h-331l-22 -164h422l-18 -124h-564zM286 791l7 75q34 -51 129 -51q94 0 142 51l-7 -75q-51 -51 -143 -51q-93 0 -128 51z" />
    <glyph glyph-name="ebreve" unicode="&#x115;" horiz-adv-x="619" 
d="M607 378q-19 -132 -147 -132h-274l-10 -70q-4 -30 8 -43.5t41 -13.5h315l-16 -119h-366q-73 0 -103 35t-19 109l44 315q11 74 50 109t112 35h267q129 0 111 -132zM438 484h-161q-58 0 -66 -58l-9 -69h218q25 0 37.5 11t15.5 36l5 33q4 25 -5.5 36t-34.5 11zM255 703l7 75
q34 -51 129 -51q94 0 142 51l-7 -75q-51 -51 -143 -51q-93 0 -128 51z" />
    <glyph glyph-name="Edotaccent" unicode="&#x116;" horiz-adv-x="669" 
d="M24 0l98 700h564l-17 -124h-422l-23 -164h330l-17 -124h-331l-22 -164h422l-18 -124h-564zM495 842l-12 -87h-133l12 87h133z" />
    <glyph glyph-name="edotaccent" unicode="&#x117;" horiz-adv-x="619" 
d="M607 378q-19 -132 -147 -132h-274l-10 -70q-4 -30 8 -43.5t41 -13.5h315l-16 -119h-366q-73 0 -103 35t-19 109l44 315q11 74 50 109t112 35h267q129 0 111 -132zM438 484h-161q-58 0 -66 -58l-9 -69h218q25 0 37.5 11t15.5 36l5 33q4 25 -5.5 36t-34.5 11zM464 754
l-12 -87h-133l12 87h133z" />
    <glyph glyph-name="Eogonek" unicode="&#x118;" horiz-adv-x="669" 
d="M563 -177h-178q-87 0 -87 49q0 52 45 70.5t168 18.5h10l7 39h-504l98 700h564l-17 -124h-422l-23 -164h330l-17 -124h-331l-22 -164h422l-18 -124h-35l-10 -62h-25q-68 0 -104 -3.5t-46.5 -9t-10.5 -16.5q0 -10 32 -10h185z" />
    <glyph glyph-name="eogonek" unicode="&#x119;" horiz-adv-x="619" 
d="M438 484h-161q-58 0 -66 -58l-9 -69h218q25 0 37.5 11t15.5 36l5 33q4 25 -5.5 36t-34.5 11zM498 -177h-178q-87 0 -87 49q0 52 45 70.5t168 18.5h27l7 39h-322q-73 0 -103 35t-19 109l44 315q11 74 50 109t112 35h267q129 0 111 -132l-13 -93q-19 -132 -147 -132h-274
l-10 -70q-4 -30 8 -43.5t41 -13.5h315l-16 -119h-19l-10 -62h-42q-68 0 -104 -3.5t-46.5 -9t-10.5 -16.5q0 -10 32 -10h185z" />
    <glyph glyph-name="Ecaron" unicode="&#x11a;" horiz-adv-x="669" 
d="M24 0l98 700h564l-17 -124h-422l-23 -164h330l-17 -124h-331l-22 -164h422l-18 -124h-564zM354 851l67 -53l82 53h104l-124 -102h-135l-95 102h101z" />
    <glyph glyph-name="ecaron" unicode="&#x11b;" horiz-adv-x="619" 
d="M607 378q-19 -132 -147 -132h-274l-10 -70q-4 -30 8 -43.5t41 -13.5h315l-16 -119h-366q-73 0 -103 35t-19 109l44 315q11 74 50 109t112 35h267q129 0 111 -132zM438 484h-161q-58 0 -66 -58l-9 -69h218q25 0 37.5 11t15.5 36l5 33q4 25 -5.5 36t-34.5 11zM323 763
l67 -53l82 53h104l-124 -102h-135l-95 102h101z" />
    <glyph glyph-name="Gcircumflex" unicode="&#x11c;" horiz-adv-x="693" 
d="M447 124q30 0 42.5 10.5t16.5 41.5l15 112h-167l17 124h310l-39 -277q-10 -72 -45.5 -103.5t-108.5 -31.5h-310q-147 0 -125 146l57 408q19 146 166 146h421l-18 -124h-369q-30 0 -44.5 -13t-18.5 -45l-48 -336q-4 -32 7 -45t41 -13h200zM448 802l-81 -53h-104l124 102
h135l94 -102h-101z" />
    <glyph glyph-name="gcircumflex" unicode="&#x11d;" horiz-adv-x="624" 
d="M359 161q30 0 44.5 13t19.5 43l30 210q4 30 -7 43.5t-41 13.5h-138q-58 0 -65 -57l-30 -210q-4 -29 7.5 -42.5t41.5 -13.5h138zM275 41h-122q-73 0 -102.5 35t-18.5 109l38 274q11 74 50 109t112 35h240q73 0 103 -35t19 -109l-59 -422q-15 -105 -71 -154.5t-162 -49.5
h-280l17 119h259q46 0 69.5 20.5t30.5 67.5l11 79q-29 -78 -134 -78zM372 714l-81 -53h-104l124 102h135l94 -102h-101z" />
    <glyph glyph-name="Gbreve" unicode="&#x11e;" horiz-adv-x="693" 
d="M447 124q30 0 42.5 10.5t16.5 41.5l15 112h-167l17 124h310l-39 -277q-10 -72 -45.5 -103.5t-108.5 -31.5h-310q-147 0 -125 146l57 408q19 146 166 146h421l-18 -124h-369q-30 0 -44.5 -13t-18.5 -45l-48 -336q-4 -32 7 -45t41 -13h200zM310 791l7 75q34 -51 129 -51
q94 0 142 51l-7 -75q-51 -51 -143 -51q-93 0 -128 51z" />
    <glyph glyph-name="gbreve" unicode="&#x11f;" horiz-adv-x="624" 
d="M359 161q30 0 44.5 13t19.5 43l30 210q4 30 -7 43.5t-41 13.5h-138q-58 0 -65 -57l-30 -210q-4 -29 7.5 -42.5t41.5 -13.5h138zM275 41h-122q-73 0 -102.5 35t-18.5 109l38 274q11 74 50 109t112 35h240q73 0 103 -35t19 -109l-59 -422q-15 -105 -71 -154.5t-162 -49.5
h-280l17 119h259q46 0 69.5 20.5t30.5 67.5l11 79q-29 -78 -134 -78zM234 703l7 75q34 -51 129 -51q94 0 142 51l-7 -75q-51 -51 -143 -51q-93 0 -128 51z" />
    <glyph glyph-name="Gdotaccent" unicode="&#x120;" horiz-adv-x="693" 
d="M447 124q30 0 42.5 10.5t16.5 41.5l15 112h-167l17 124h310l-39 -277q-10 -72 -45.5 -103.5t-108.5 -31.5h-310q-147 0 -125 146l57 408q19 146 166 146h421l-18 -124h-369q-30 0 -44.5 -13t-18.5 -45l-48 -336q-4 -32 7 -45t41 -13h200zM519 842l-12 -87h-133l12 87h133
z" />
    <glyph glyph-name="gdotaccent" unicode="&#x121;" horiz-adv-x="624" 
d="M359 161q30 0 44.5 13t19.5 43l30 210q4 30 -7 43.5t-41 13.5h-138q-58 0 -65 -57l-30 -210q-4 -29 7.5 -42.5t41.5 -13.5h138zM275 41h-122q-73 0 -102.5 35t-18.5 109l38 274q11 74 50 109t112 35h240q73 0 103 -35t19 -109l-59 -422q-15 -105 -71 -154.5t-162 -49.5
h-280l17 119h259q46 0 69.5 20.5t30.5 67.5l11 79q-29 -78 -134 -78zM443 754l-12 -87h-133l12 87h133z" />
    <glyph glyph-name="uni0122" unicode="&#x122;" horiz-adv-x="693" 
d="M447 124q30 0 42.5 10.5t16.5 41.5l15 112h-167l17 124h310l-39 -277q-10 -72 -45.5 -103.5t-108.5 -31.5h-310q-147 0 -125 146l57 408q19 146 166 146h421l-18 -124h-369q-30 0 -44.5 -13t-18.5 -45l-48 -336q-4 -32 7 -45t41 -13h200zM387 -74l-9 -65
q-6 -46 -34 -71.5t-73 -25.5h-31l5 37h26q37 0 41 39l1 7h-61l11 79h124z" />
    <glyph glyph-name="uni0123" unicode="&#x123;" horiz-adv-x="624" 
d="M302 667l9 65q6 46 33.5 72t73.5 26h31l-5 -37h-26q-36 0 -42 -39v-7h62l-11 -80h-125zM359 161q30 0 44.5 13t19.5 43l30 210q4 30 -7 43.5t-41 13.5h-138q-58 0 -65 -57l-30 -210q-4 -29 7.5 -42.5t41.5 -13.5h138zM275 41h-122q-73 0 -102.5 35t-18.5 109l38 274
q11 74 50 109t112 35h240q73 0 103 -35t19 -109l-59 -422q-15 -105 -71 -154.5t-162 -49.5h-280l17 119h259q46 0 69.5 20.5t30.5 67.5l11 79q-29 -78 -134 -78z" />
    <glyph glyph-name="Hcircumflex" unicode="&#x124;" horiz-adv-x="739" 
d="M489 0l40 288h-323l-40 -288h-142l98 700h142l-40 -288h322l41 288h142l-98 -700h-142zM440 802l-81 -53h-104l124 102h135l94 -102h-101z" />
    <glyph glyph-name="hcircumflex" unicode="&#x125;" horiz-adv-x="636" 
d="M464 427q4 30 -7.5 43.5t-40.5 13.5h-138q-30 0 -45 -13.5t-20 -43.5l-59 -427h-137l108 770h137l-35 -246q16 41 47.5 60t86.5 19h122q73 0 103 -35t19 -109l-64 -459h-136zM232 882l-81 -53h-104l124 102h135l94 -102h-101z" />
    <glyph glyph-name="Hbar" unicode="&#x126;" horiz-adv-x="739" 
d="M489 0l40 288h-323l-40 -288h-142l71 506h-32l11 85h33l15 109h142l-15 -109h322l16 109h142l-15 -109h32l-12 -85h-32l-71 -506h-142zM224 412h322l13 94h-322z" />
    <glyph glyph-name="hbar" unicode="&#x127;" horiz-adv-x="636" 
d="M464 427q4 30 -7.5 43.5t-40.5 13.5h-138q-30 0 -45 -13.5t-20 -43.5l-59 -427h-137l89 638h-58l10 69h58l9 63h137l-9 -63h76l-10 -69h-76l-16 -114q16 41 47.5 60t86.5 19h122q73 0 103 -35t19 -109l-64 -459h-136z" />
    <glyph glyph-name="Itilde" unicode="&#x128;" horiz-adv-x="275" 
d="M24 0l98 700h142l-98 -700h-142zM63 741l11 77q41 37 79 37q24 0 63.5 -19.5t59.5 -19.5q36 0 73 40l-10 -77q-44 -41 -82 -41q-24 0 -63.5 20.5t-60.5 20.5q-35 0 -70 -38z" />
    <glyph glyph-name="itilde" unicode="&#x129;" horiz-adv-x="324" 
d="M50 653l11 77q41 37 79 37q24 0 63.5 -19.5t59.5 -19.5q36 0 73 40l-10 -77q-44 -41 -82 -41q-24 0 -63.5 20.5t-60.5 20.5q-35 0 -70 -38zM232 119h60l-16 -119h-109q-75 0 -104 33.5t-18 106.5l64 463h137l-60 -431q-4 -29 6.5 -41t39.5 -12z" />
    <glyph glyph-name="Imacron" unicode="&#x12a;" horiz-adv-x="275" 
d="M337 766h-268l9 66h268zM24 0l98 700h142l-98 -700h-142z" />
    <glyph glyph-name="imacron" unicode="&#x12b;" horiz-adv-x="324" 
d="M323 678h-268l9 66h268zM232 119h60l-16 -119h-109q-75 0 -104 33.5t-18 106.5l64 463h137l-60 -431q-4 -29 6.5 -41t39.5 -12z" />
    <glyph glyph-name="Ibreve" unicode="&#x12c;" horiz-adv-x="275" 
d="M24 0l98 700h142l-98 -700h-142zM70 791l7 75q34 -51 129 -51q94 0 142 51l-7 -75q-51 -51 -143 -51q-93 0 -128 51z" />
    <glyph glyph-name="ibreve" unicode="&#x12d;" horiz-adv-x="324" 
d="M57 703l7 75q34 -51 129 -51q94 0 142 51l-7 -75q-51 -51 -143 -51q-93 0 -128 51zM232 119h60l-16 -119h-109q-75 0 -104 33.5t-18 106.5l64 463h137l-60 -431q-4 -29 6.5 -41t39.5 -12z" />
    <glyph glyph-name="Iogonek" unicode="&#x12e;" horiz-adv-x="275" 
d="M145 -177h-140q-87 0 -87 51q0 48 44.5 67.5t158.5 19.5l6 39h-103l98 700h142l-98 -700h-14l-9 -62h-24q-143 0 -143 -25q0 -14 36 -14h145z" />
    <glyph glyph-name="iogonek" unicode="&#x12f;" horiz-adv-x="324" 
d="M239 -177h-170q-87 0 -87 49q0 52 45 70.5t168 18.5h19l7 39h-65q-75 0 -104 33.5t-18 106.5l64 463h137l-60 -431q-4 -29 6.5 -41t39.5 -12h60l-16 -119h-19l-10 -62h-34q-68 0 -104 -3.5t-46.5 -9t-10.5 -16.5q0 -10 32 -10h177zM269 757l-13 -90h-160l12 90h161z" />
    <glyph glyph-name="Idotaccent" unicode="&#x130;" horiz-adv-x="275" 
d="M24 0l98 700h142l-98 -700h-142zM279 842l-12 -87h-133l12 87h133z" />
    <glyph glyph-name="dotlessi" unicode="&#x131;" horiz-adv-x="324" 
d="M232 119h60l-16 -119h-109q-75 0 -104 33.5t-18 106.5l64 463h137l-60 -431q-4 -29 6.5 -41t39.5 -12z" />
    <glyph glyph-name="IJ" unicode="&#x132;" horiz-adv-x="955" 
d="M24 0l98 700h142l-98 -700h-142zM291 136l29 206h142l-24 -166q-4 -31 4.5 -41.5t38.5 -10.5h191q31 0 45 13t19 45l73 518h142l-78 -554q-11 -74 -51.5 -110t-115.5 -36h-298q-73 0 -100.5 31.5t-16.5 104.5z" />
    <glyph glyph-name="Jcircumflex" unicode="&#x134;" horiz-adv-x="680" 
d="M27 136l29 206h142l-24 -166q-4 -31 4.5 -41.5t38.5 -10.5h191q31 0 45 13t19 45l73 518h142l-78 -554q-11 -74 -51.5 -110t-115.5 -36h-298q-73 0 -100.5 31.5t-16.5 104.5zM605 802l-81 -53h-104l124 102h135l94 -102h-101z" />
    <glyph glyph-name="jcircumflex" unicode="&#x135;" horiz-adv-x="277" 
d="M-63 -48h36q30 0 41 10t16 40l84 601h137l-89 -630q-11 -74 -48 -107t-112 -33h-82zM200 714l-81 -53h-104l124 102h135l94 -102h-101z" />
    <glyph glyph-name="uni0136" unicode="&#x136;" horiz-adv-x="709" 
d="M711 700l-29 -207q-9 -64 -41 -100.5t-96 -42.5q63 -6 84.5 -42.5t12.5 -100.5l-29 -207h-142l31 226q5 33 -6.5 47.5t-43.5 14.5h-246l-40 -288h-142l98 700h142l-40 -288h245q32 0 48 14.5t21 47.5l31 226h142zM363 -74l-9 -65q-6 -46 -34 -71.5t-73 -25.5h-31l5 37h26
q37 0 41 39l1 7h-61l11 79h124z" />
    <glyph glyph-name="uni0137" unicode="&#x137;" horiz-adv-x="626" 
d="M459 407l28 196h136l-24 -175q-8 -59 -36 -89.5t-83 -37.5q54 -6 73 -36.5t10 -90.5l-24 -174h-136l27 195q6 47 -41 47h-201l-34 -242h-137l108 770h137l-58 -409h201q48 0 54 46zM331 -74l-9 -65q-6 -46 -34 -71.5t-73 -25.5h-31l5 37h26q37 0 41 39l1 7h-61l11 79h124
z" />
    <glyph glyph-name="kgreenlandic" unicode="&#x138;" horiz-adv-x="626" 
d="M459 407l28 196h136l-24 -175q-8 -59 -36 -89.5t-83 -37.5q54 -6 73 -36.5t10 -90.5l-24 -174h-136l27 195q6 47 -41 47h-201l-34 -242h-137l84 603h137l-34 -242h201q48 0 54 46z" />
    <glyph glyph-name="Lacute" unicode="&#x139;" horiz-adv-x="639" 
d="M597 124l-17 -124h-556l98 700h142l-80 -576h413zM399 851l-139 -102h-107l110 102h136z" />
    <glyph glyph-name="lacute" unicode="&#x13a;" horiz-adv-x="321" 
d="M228 119h61l-16 -119h-110q-74 0 -103 33.5t-18 106.5l88 630h137l-85 -598q-4 -29 6.5 -41t39.5 -12zM374 930l-139 -102h-107l110 102h136z" />
    <glyph glyph-name="uni013B" unicode="&#x13b;" horiz-adv-x="639" 
d="M597 124l-17 -124h-556l98 700h142l-80 -576h413zM341 -74l-9 -65q-6 -46 -34 -71.5t-73 -25.5h-31l5 37h26q37 0 41 39l1 7h-61l11 79h124z" />
    <glyph glyph-name="uni013C" unicode="&#x13c;" horiz-adv-x="321" 
d="M219 119h61l-16 -119h-110q-74 0 -103 33.5t-18 106.5l88 630h137l-85 -598q-4 -29 6.5 -41t39.5 -12zM171 -74l-9 -65q-6 -46 -34 -71.5t-73 -25.5h-31l5 37h26q37 0 41 39l1 7h-61l11 79h124z" />
    <glyph glyph-name="Lcaron" unicode="&#x13d;" horiz-adv-x="639" 
d="M597 124l-17 -124h-556l98 700h142l-80 -576h413zM642 700l-17 -117q-9 -67 -47.5 -103.5t-104.5 -36.5h-27l9 63h22q25 0 38 11t17 41l4 25h-70l17 117h159z" />
    <glyph glyph-name="lcaron" unicode="&#x13e;" horiz-adv-x="511" 
d="M228 119h61l-16 -119h-110q-74 0 -103 33.5t-18 106.5l88 630h137l-85 -598q-4 -29 6.5 -41t39.5 -12zM531 700l-17 -117q-9 -67 -47.5 -103.5t-104.5 -36.5h-27l9 63h22q25 0 38 11t17 41l4 25h-70l17 117h159z" />
    <glyph glyph-name="Ldot" unicode="&#x13f;" horiz-adv-x="639" 
d="M597 124l-17 -124h-556l98 700h142l-80 -576h413zM544 409l-17 -118h-159l17 118h159z" />
    <glyph glyph-name="ldot" unicode="&#x140;" horiz-adv-x="525" 
d="M228 119h61l-16 -119h-110q-74 0 -103 33.5t-18 106.5l88 630h137l-85 -598q-4 -29 6.5 -41t39.5 -12zM487 409l-17 -118h-159l17 118h159z" />
    <glyph glyph-name="Lslash" unicode="&#x141;" horiz-adv-x="639" 
d="M597 124l-17 -124h-556l27 197l-63 -31l17 122l63 31l54 381h142l-43 -307l203 99l-17 -122l-203 -99l-20 -147h413z" />
    <glyph glyph-name="lslash" unicode="&#x142;" horiz-adv-x="321" 
d="M217 119h61l-16 -119h-110q-74 0 -103 33.5t-18 106.5l21 150l-50 -24l17 122l50 24l50 358h137l-41 -285l134 66l-17 -122l-134 -66l-27 -191q-4 -29 6.5 -41t39.5 -12z" />
    <glyph glyph-name="Nacute" unicode="&#x143;" horiz-adv-x="709" 
d="M296 576q-31 0 -45.5 -13t-18.5 -45l-72 -518h-142l77 554q21 146 168 146h295q75 0 106 -36t20 -110l-77 -554h-142l72 518q4 32 -6.5 45t-41.5 13h-193zM581 851l-139 -102h-107l110 102h136z" />
    <glyph glyph-name="nacute" unicode="&#x144;" horiz-adv-x="628" 
d="M11 0l64 459q11 74 50 109t112 35h238q73 0 103 -35t19 -109l-64 -459h-137l60 427q4 30 -7 43.5t-41 13.5h-136q-30 0 -45 -13.5t-20 -43.5l-59 -427h-137zM528 763l-139 -102h-107l110 102h136z" />
    <glyph glyph-name="uni0145" unicode="&#x145;" horiz-adv-x="709" 
d="M296 576q-31 0 -45.5 -13t-18.5 -45l-72 -518h-142l77 554q21 146 168 146h295q75 0 106 -36t20 -110l-77 -554h-142l72 518q4 32 -6.5 45t-41.5 13h-193zM363 -74l-9 -65q-6 -46 -34 -71.5t-73 -25.5h-31l5 37h26q37 0 41 39l1 7h-61l11 79h124z" />
    <glyph glyph-name="uni0146" unicode="&#x146;" horiz-adv-x="628" 
d="M11 0l64 459q11 74 50 109t112 35h238q73 0 103 -35t19 -109l-64 -459h-137l60 427q4 30 -7 43.5t-41 13.5h-136q-30 0 -45 -13.5t-20 -43.5l-59 -427h-137zM323 -74l-9 -65q-6 -46 -34 -71.5t-73 -25.5h-31l5 37h26q37 0 41 39l1 7h-61l11 79h124z" />
    <glyph glyph-name="Ncaron" unicode="&#x147;" horiz-adv-x="709" 
d="M296 576q-31 0 -45.5 -13t-18.5 -45l-72 -518h-142l77 554q21 146 168 146h295q75 0 106 -36t20 -110l-77 -554h-142l72 518q4 32 -6.5 45t-41.5 13h-193zM355 851l67 -53l82 53h104l-124 -102h-135l-95 102h101z" />
    <glyph glyph-name="ncaron" unicode="&#x148;" horiz-adv-x="628" 
d="M11 0l64 459q11 74 50 109t112 35h238q73 0 103 -35t19 -109l-64 -459h-137l60 427q4 30 -7 43.5t-41 13.5h-136q-30 0 -45 -13.5t-20 -43.5l-59 -427h-137zM303 763l67 -53l82 53h104l-124 -102h-135l-95 102h101z" />
    <glyph glyph-name="napostrophe" unicode="&#x149;" horiz-adv-x="833" 
d="M216 0l64 459q11 74 50 109t112 35h238q73 0 103 -35t19 -109l-64 -459h-137l60 427q4 30 -7 43.5t-41 13.5h-136q-30 0 -45 -13.5t-20 -43.5l-59 -427h-137zM263 700l-17 -117q-9 -67 -47.5 -103.5t-104.5 -36.5h-27l9 63h22q25 0 38 11t17 41l4 25h-70l17 117h159z" />
    <glyph glyph-name="Eng" unicode="&#x14a;" horiz-adv-x="709" 
d="M296 576q-31 0 -45.5 -13t-18.5 -45l-72 -518h-142l77 554q21 146 168 146h295q75 0 106 -36t20 -110l-80 -575q-21 -146 -168 -146h-128l18 124h77q31 0 45.5 13t18.5 45l70 503q4 32 -6.5 45t-41.5 13h-193z" />
    <glyph glyph-name="eng" unicode="&#x14b;" horiz-adv-x="628" 
d="M302 -48h38q29 0 40 10t16 40l60 425q4 30 -7 43.5t-41 13.5h-136q-30 0 -45 -13.5t-20 -43.5l-59 -427h-137l64 459q11 74 50 109t112 35h238q73 0 103 -35t19 -109l-68 -486q-11 -74 -48.5 -107t-112.5 -33h-83z" />
    <glyph glyph-name="Omacron" unicode="&#x14c;" horiz-adv-x="695" 
d="M179 0q-148 0 -126 146l57 408q19 146 167 146h297q75 0 105.5 -36t20.5 -110l-58 -408q-21 -146 -166 -146h-297zM505 182l47 336q4 32 -6.5 45t-40.5 13h-195q-30 0 -44.5 -13t-18.5 -45l-48 -336q-4 -32 7 -45t41 -13h195q30 0 44.5 13t18.5 45zM569 764h-271l10 70
h271z" />
    <glyph glyph-name="omacron" unicode="&#x14d;" horiz-adv-x="616" 
d="M480 603q73 0 103 -35t19 -109l-44 -315q-11 -74 -50 -109t-112 -35h-238q-73 0 -103 35t-19 109l44 315q11 74 50 109t112 35h238zM361 119q30 0 45 13.5t20 43.5l35 251q4 30 -7 43.5t-41 13.5h-137q-57 0 -64 -57l-35 -251q-5 -30 6.5 -43.5t41.5 -13.5h136zM507 676
h-271l10 70h271z" />
    <glyph glyph-name="Obreve" unicode="&#x14e;" horiz-adv-x="695" 
d="M179 0q-148 0 -126 146l57 408q19 146 167 146h297q75 0 105.5 -36t20.5 -110l-58 -408q-21 -146 -166 -146h-297zM505 182l47 336q4 32 -6.5 45t-40.5 13h-195q-30 0 -44.5 -13t-18.5 -45l-48 -336q-4 -32 7 -45t41 -13h195q30 0 44.5 13t18.5 45zM302 791l7 75
q34 -51 129 -51q94 0 142 51l-7 -75q-51 -51 -143 -51q-93 0 -128 51z" />
    <glyph glyph-name="obreve" unicode="&#x14f;" horiz-adv-x="616" 
d="M480 603q73 0 103 -35t19 -109l-44 -315q-11 -74 -50 -109t-112 -35h-238q-73 0 -103 35t-19 109l44 315q11 74 50 109t112 35h238zM361 119q30 0 45 13.5t20 43.5l35 251q4 30 -7 43.5t-41 13.5h-137q-57 0 -64 -57l-35 -251q-5 -30 6.5 -43.5t41.5 -13.5h136zM240 703
l7 75q34 -51 129 -51q94 0 142 51l-7 -75q-51 -51 -143 -51q-93 0 -128 51z" />
    <glyph glyph-name="Ohungarumlaut" unicode="&#x150;" horiz-adv-x="695" 
d="M179 0q-148 0 -126 146l57 408q19 146 167 146h297q75 0 105.5 -36t20.5 -110l-58 -408q-21 -146 -166 -146h-297zM505 182l47 336q4 32 -6.5 45t-40.5 13h-195q-30 0 -44.5 -13t-18.5 -45l-48 -336q-4 -32 7 -45t41 -13h195q30 0 44.5 13t18.5 45zM694 851l-139 -102
h-107l110 102h136zM496 851l-139 -102h-107l110 102h136z" />
    <glyph glyph-name="ohungarumlaut" unicode="&#x151;" horiz-adv-x="616" 
d="M480 603q73 0 103 -35t19 -109l-44 -315q-11 -74 -50 -109t-112 -35h-238q-73 0 -103 35t-19 109l44 315q11 74 50 109t112 35h238zM361 119q30 0 45 13.5t20 43.5l35 251q4 30 -7 43.5t-41 13.5h-137q-57 0 -64 -57l-35 -251q-5 -30 6.5 -43.5t41.5 -13.5h136zM632 763
l-139 -102h-107l110 102h136zM434 763l-139 -102h-107l110 102h136z" />
    <glyph glyph-name="OE" unicode="&#x152;" horiz-adv-x="1072" 
d="M170 0q-75 0 -106 36t-20 110l57 408q11 74 51.5 110t115.5 36h817l-18 -124h-400l-23 -164h308l-17 -124h-308l-23 -164h400l-17 -124h-817zM462 124l63 452h-223q-31 0 -45.5 -13t-18.5 -45l-47 -336q-4 -32 6.5 -45t41.5 -13h223z" />
    <glyph glyph-name="oe" unicode="&#x153;" horiz-adv-x="917" 
d="M389 175l36 253q4 30 -7 43t-41 13h-100q-58 0 -65 -57l-36 -251q-4 -30 7.5 -43.5t41.5 -13.5h100q57 0 64 56zM771 404l5 33q4 25 -5.5 36t-34.5 11h-110q-57 0 -64 -56l-10 -71h166q26 0 38 11t15 36zM536 246l-10 -71q-4 -30 7 -43t41 -13h264l-16 -119h-250
q-66 0 -95.5 25t-29.5 81q-15 -56 -51 -81t-102 -25h-136q-73 0 -103 35t-19 109l44 315q11 74 50 109t112 35h136q66 0 95.5 -25t28.5 -81q16 56 52 81t102 25h151q129 0 111 -132l-13 -93q-19 -132 -147 -132h-222z" />
    <glyph glyph-name="Racute" unicode="&#x154;" horiz-adv-x="708" 
d="M691 559l-10 -77q-9 -64 -40 -96t-92 -37q60 -8 81 -44t12 -98l-29 -207h-142l31 226q5 33 -6.5 47.5t-43.5 14.5h-246l-40 -288h-142l98 700h447q74 0 103.5 -33.5t18.5 -107.5zM474 412q30 0 44 12.5t19 43.5l7 52q4 30 -7 43t-39 13h-251l-23 -164h250zM580 851
l-139 -102h-107l110 102h136z" />
    <glyph glyph-name="racute" unicode="&#x155;" horiz-adv-x="469" 
d="M493 603l-16 -119h-205q-30 0 -45 -13.5t-20 -43.5l-59 -427h-137l64 459q11 74 50 109t112 35h256zM476 763l-139 -102h-107l110 102h136z" />
    <glyph glyph-name="uni0156" unicode="&#x156;" horiz-adv-x="708" 
d="M691 559l-10 -77q-9 -64 -40 -96t-92 -37q60 -8 81 -44t12 -98l-29 -207h-142l31 226q5 33 -6.5 47.5t-43.5 14.5h-246l-40 -288h-142l98 700h447q74 0 103.5 -33.5t18.5 -107.5zM474 412q30 0 44 12.5t19 43.5l7 52q4 30 -7 43t-39 13h-251l-23 -164h250zM379 -74
l-9 -65q-6 -46 -34 -71.5t-73 -25.5h-31l5 37h26q37 0 41 39l1 7h-61l11 79h124z" />
    <glyph glyph-name="uni0157" unicode="&#x157;" horiz-adv-x="469" 
d="M493 603l-16 -119h-205q-30 0 -45 -13.5t-20 -43.5l-59 -427h-137l64 459q11 74 50 109t112 35h256zM133 -74l-9 -65q-6 -46 -34 -71.5t-73 -25.5h-31l5 37h26q37 0 41 39l1 7h-61l11 79h124z" />
    <glyph glyph-name="Rcaron" unicode="&#x158;" horiz-adv-x="708" 
d="M691 559l-10 -77q-9 -64 -40 -96t-92 -37q60 -8 81 -44t12 -98l-29 -207h-142l31 226q5 33 -6.5 47.5t-43.5 14.5h-246l-40 -288h-142l98 700h447q74 0 103.5 -33.5t18.5 -107.5zM474 412q30 0 44 12.5t19 43.5l7 52q4 30 -7 43t-39 13h-251l-23 -164h250zM355 851
l67 -53l82 53h104l-124 -102h-135l-95 102h101z" />
    <glyph glyph-name="rcaron" unicode="&#x159;" horiz-adv-x="469" 
d="M493 603l-16 -119h-205q-30 0 -45 -13.5t-20 -43.5l-59 -427h-137l64 459q11 74 50 109t112 35h256zM250 763l67 -53l82 53h104l-124 -102h-135l-95 102h101z" />
    <glyph glyph-name="Sacute" unicode="&#x15a;" horiz-adv-x="652" 
d="M189 288q-75 0 -105.5 35.5t-19.5 109.5l17 122q11 74 51 109.5t115 35.5h395l-18 -124h-345q-29 0 -43 -13t-18 -43l-7 -52q-4 -31 6 -43.5t39 -12.5h224q75 0 106 -35.5t20 -109.5l-17 -122q-11 -74 -50.5 -109.5t-114.5 -35.5h-426l17 124h375q29 0 43 13t19 43l7 52
q4 30 -6.5 43t-39.5 13h-224zM553 851l-139 -102h-107l110 102h136z" />
    <glyph glyph-name="sacute" unicode="&#x15b;" horiz-adv-x="586" 
d="M547 484h-299q-47 0 -54 -47l-5 -33q-6 -47 41 -47h202q127 0 108 -132l-13 -93q-10 -68 -45.5 -100t-100.5 -32h-385l16 119h330q47 0 54 47l4 33q4 25 -5.5 36t-34.5 11h-201q-129 0 -110 132l13 93q18 132 146 132h355zM507 763l-139 -102h-107l110 102h136z" />
    <glyph glyph-name="Scircumflex" unicode="&#x15c;" horiz-adv-x="652" 
d="M189 288q-75 0 -105.5 35.5t-19.5 109.5l17 122q11 74 51 109.5t115 35.5h395l-18 -124h-345q-29 0 -43 -13t-18 -43l-7 -52q-4 -31 6 -43.5t39 -12.5h224q75 0 106 -35.5t20 -109.5l-17 -122q-11 -74 -50.5 -109.5t-114.5 -35.5h-426l17 124h375q29 0 43 13t19 43l7 52
q4 30 -6.5 43t-39.5 13h-224zM397 802l-81 -53h-104l124 102h135l94 -102h-101z" />
    <glyph glyph-name="scircumflex" unicode="&#x15d;" horiz-adv-x="586" 
d="M547 484h-299q-47 0 -54 -47l-5 -33q-6 -47 41 -47h202q127 0 108 -132l-13 -93q-10 -68 -45.5 -100t-100.5 -32h-385l16 119h330q47 0 54 47l4 33q4 25 -5.5 36t-34.5 11h-201q-129 0 -110 132l13 93q18 132 146 132h355zM352 714l-81 -53h-104l124 102h135l94 -102
h-101z" />
    <glyph glyph-name="Scedilla" unicode="&#x15e;" horiz-adv-x="652" 
d="M283 -177h-163l11 76h145q42 0 42 25q0 13 -24 13h-71l33 63h-258l17 124h375q29 0 43 13t19 43l7 52q4 30 -6.5 43t-39.5 13h-224q-75 0 -105.5 35.5t-19.5 109.5l17 122q11 74 51 109.5t115 35.5h395l-18 -124h-345q-29 0 -43 -13t-18 -43l-7 -52q-4 -31 6 -43.5
t39 -12.5h224q75 0 106 -35.5t20 -109.5l-17 -122q-11 -74 -50.5 -109.5t-114.5 -35.5h-144l-20 -40h74q76 0 76 -46q0 -49 -32 -70t-95 -21z" />
    <glyph glyph-name="scedilla" unicode="&#x15f;" horiz-adv-x="586" 
d="M246 -177h-163l11 76h145q42 0 42 25q0 13 -24 13h-71l33 63h-223l16 119h330q47 0 54 47l4 33q4 25 -5.5 36t-34.5 11h-201q-129 0 -110 132l13 93q18 132 146 132h355l-16 -119h-299q-47 0 -54 -47l-5 -33q-6 -47 41 -47h202q127 0 108 -132l-13 -93
q-10 -68 -45.5 -100t-100.5 -32h-138l-20 -40h74q76 0 76 -46q0 -49 -32 -70t-95 -21z" />
    <glyph glyph-name="Scaron" unicode="&#x160;" horiz-adv-x="652" 
d="M189 288q-75 0 -105.5 35.5t-19.5 109.5l17 122q11 74 51 109.5t115 35.5h395l-18 -124h-345q-29 0 -43 -13t-18 -43l-7 -52q-4 -31 6 -43.5t39 -12.5h224q75 0 106 -35.5t20 -109.5l-17 -122q-11 -74 -50.5 -109.5t-114.5 -35.5h-426l17 124h375q29 0 43 13t19 43l7 52
q4 30 -6.5 43t-39.5 13h-224zM327 851l67 -53l82 53h104l-124 -102h-135l-95 102h101z" />
    <glyph glyph-name="scaron" unicode="&#x161;" horiz-adv-x="586" 
d="M547 484h-299q-47 0 -54 -47l-5 -33q-6 -47 41 -47h202q127 0 108 -132l-13 -93q-10 -68 -45.5 -100t-100.5 -32h-385l16 119h330q47 0 54 47l4 33q4 25 -5.5 36t-34.5 11h-201q-129 0 -110 132l13 93q18 132 146 132h355zM282 763l67 -53l82 53h104l-124 -102h-135
l-95 102h101z" />
    <glyph glyph-name="uni0162" unicode="&#x162;" horiz-adv-x="626" 
d="M274 -177h-163l11 76h145q42 0 42 25q0 13 -24 13h-71l33 63h-47l80 576h-225l18 124h591l-17 -124h-224l-81 -576h-71l-20 -40h74q76 0 76 -46q0 -49 -32 -70t-95 -21z" />
    <glyph glyph-name="uni0163" unicode="&#x163;" horiz-adv-x="496" 
d="M219 -177h-163l11 76h145q42 0 42 25q0 13 -24 13h-71l33 63h-26q-75 0 -105 35t-19 109l88 626h137l-24 -167h270l-17 -119h-270l-43 -308q-4 -30 7.5 -43.5t41.5 -13.5h213l-16 -119h-213l-20 -40h74q76 0 76 -46q0 -49 -32 -70t-95 -21z" />
    <glyph glyph-name="Tcaron" unicode="&#x164;" horiz-adv-x="626" 
d="M664 700l-17 -124h-224l-81 -576h-142l80 576h-225l18 124h591zM313 851l67 -53l82 53h104l-124 -102h-135l-95 102h101z" />
    <glyph glyph-name="tcaron" unicode="&#x165;" horiz-adv-x="754" 
d="M166 0q-75 0 -105 35t-19 109l88 626h137l-24 -167h270l-17 -119h-270l-43 -308q-4 -30 7.5 -43.5t41.5 -13.5h213l-16 -119h-263zM774 700l-17 -117q-9 -67 -47.5 -103.5t-104.5 -36.5h-27l9 63h22q25 0 38 11t17 41l4 25h-70l17 117h159z" />
    <glyph glyph-name="Tbar" unicode="&#x166;" horiz-adv-x="626" 
d="M664 700l-17 -124h-224l-20 -139h100l-11 -85h-101l-49 -352h-142l49 352h-99l12 85h99l19 139h-225l18 124h591z" />
    <glyph glyph-name="tbar" unicode="&#x167;" horiz-adv-x="496" 
d="M338 299h-149l-17 -123q-4 -30 7.5 -43.5t41.5 -13.5h213l-16 -119h-263q-75 0 -105 35t-19 109l22 155h-53l12 85h53l54 386h137l-24 -167h270l-17 -119h-270l-14 -100h149z" />
    <glyph glyph-name="Utilde" unicode="&#x168;" horiz-adv-x="709" 
d="M186 0q-148 0 -127 146l78 554h142l-73 -518q-4 -32 6.5 -45t41.5 -13h193q31 0 45.5 13t18.5 45l73 518h142l-78 -554q-11 -74 -51.5 -110t-115.5 -36h-295zM301 741l11 77q41 37 79 37q24 0 63.5 -19.5t59.5 -19.5q36 0 73 40l-10 -77q-44 -41 -82 -41
q-24 0 -63.5 20.5t-60.5 20.5q-35 0 -70 -38z" />
    <glyph glyph-name="utilde" unicode="&#x169;" horiz-adv-x="628" 
d="M367 119q31 0 45.5 13.5t18.5 43.5l60 427h137l-64 -459q-11 -74 -50 -109t-112 -35h-238q-73 0 -103 35t-19 109l64 459h137l-60 -427q-4 -30 7.5 -43.5t41.5 -13.5h135zM239 653l11 77q41 37 79 37q24 0 63.5 -19.5t59.5 -19.5q36 0 73 40l-10 -77q-44 -41 -82 -41
q-24 0 -63.5 20.5t-60.5 20.5q-35 0 -70 -38z" />
    <glyph glyph-name="Umacron" unicode="&#x16a;" horiz-adv-x="709" 
d="M186 0q-148 0 -127 146l78 554h142l-73 -518q-4 -32 6.5 -45t41.5 -13h193q31 0 45.5 13t18.5 45l73 518h142l-78 -554q-11 -74 -51.5 -110t-115.5 -36h-295zM575 764h-271l10 70h271z" />
    <glyph glyph-name="umacron" unicode="&#x16b;" horiz-adv-x="628" 
d="M367 119q31 0 45.5 13.5t18.5 43.5l60 427h137l-64 -459q-11 -74 -50 -109t-112 -35h-238q-73 0 -103 35t-19 109l64 459h137l-60 -427q-4 -30 7.5 -43.5t41.5 -13.5h135zM513 676h-271l10 70h271z" />
    <glyph glyph-name="Ubreve" unicode="&#x16c;" horiz-adv-x="709" 
d="M186 0q-148 0 -127 146l78 554h142l-73 -518q-4 -32 6.5 -45t41.5 -13h193q31 0 45.5 13t18.5 45l73 518h142l-78 -554q-11 -74 -51.5 -110t-115.5 -36h-295zM308 791l7 75q34 -51 129 -51q94 0 142 51l-7 -75q-51 -51 -143 -51q-93 0 -128 51z" />
    <glyph glyph-name="ubreve" unicode="&#x16d;" horiz-adv-x="628" 
d="M367 119q31 0 45.5 13.5t18.5 43.5l60 427h137l-64 -459q-11 -74 -50 -109t-112 -35h-238q-73 0 -103 35t-19 109l64 459h137l-60 -427q-4 -30 7.5 -43.5t41.5 -13.5h135zM246 703l7 75q34 -51 129 -51q94 0 142 51l-7 -75q-51 -51 -143 -51q-93 0 -128 51z" />
    <glyph glyph-name="Uring" unicode="&#x16e;" horiz-adv-x="709" 
d="M186 0q-148 0 -127 146l78 554h142l-73 -518q-4 -32 6.5 -45t41.5 -13h193q31 0 45.5 13t18.5 45l73 518h142l-78 -554q-11 -74 -51.5 -110t-115.5 -36h-295zM419 791h49q30 0 30 29q0 20 -23 20h-49q-30 0 -30 -29q0 -20 23 -20zM441 886h32q77 0 77 -56q0 -85 -97 -85
h-32q-77 0 -77 56q0 85 97 85z" />
    <glyph glyph-name="uring" unicode="&#x16f;" horiz-adv-x="628" 
d="M367 119q31 0 45.5 13.5t18.5 43.5l60 427h137l-64 -459q-11 -74 -50 -109t-112 -35h-238q-73 0 -103 35t-19 109l64 459h137l-60 -427q-4 -30 7.5 -43.5t41.5 -13.5h135zM357 703h49q30 0 30 29q0 20 -23 20h-49q-30 0 -30 -29q0 -20 23 -20zM379 798h32q77 0 77 -56
q0 -85 -97 -85h-32q-77 0 -77 56q0 85 97 85z" />
    <glyph glyph-name="Uhungarumlaut" unicode="&#x170;" horiz-adv-x="709" 
d="M186 0q-148 0 -127 146l78 554h142l-73 -518q-4 -32 6.5 -45t41.5 -13h193q31 0 45.5 13t18.5 45l73 518h142l-78 -554q-11 -74 -51.5 -110t-115.5 -36h-295zM701 851l-139 -102h-107l110 102h136zM503 851l-139 -102h-107l110 102h136z" />
    <glyph glyph-name="uhungarumlaut" unicode="&#x171;" horiz-adv-x="628" 
d="M367 119q31 0 45.5 13.5t18.5 43.5l60 427h137l-64 -459q-11 -74 -50 -109t-112 -35h-238q-73 0 -103 35t-19 109l64 459h137l-60 -427q-4 -30 7.5 -43.5t41.5 -13.5h135zM638 763l-139 -102h-107l110 102h136zM440 763l-139 -102h-107l110 102h136z" />
    <glyph glyph-name="Uogonek" unicode="&#x172;" horiz-adv-x="709" 
d="M571 -177h-178q-87 0 -87 49q0 52 45 70.5t168 18.5h10l6 45q-24 -6 -54 -6h-295q-148 0 -127 146l78 554h142l-73 -518q-4 -32 6.5 -45t41.5 -13h193q31 0 45.5 13t18.5 45l73 518h142l-78 -554q-15 -102 -86 -132l-11 -76h-25q-68 0 -104 -3.5t-46.5 -9t-10.5 -16.5
q0 -10 32 -10h185z" />
    <glyph glyph-name="uogonek" unicode="&#x173;" horiz-adv-x="628" 
d="M490 -177h-178q-87 0 -87 49q0 52 45 70.5t168 18.5h10l6 44q-25 -5 -52 -5h-238q-73 0 -103 35t-19 109l64 459h137l-60 -427q-4 -30 7.5 -43.5t41.5 -13.5h135q31 0 45.5 13.5t18.5 43.5l60 427h137l-64 -459q-15 -101 -83 -130l-11 -76h-25q-68 0 -104 -3.5t-46.5 -9
t-10.5 -16.5q0 -10 32 -10h185z" />
    <glyph glyph-name="Wcircumflex" unicode="&#x174;" horiz-adv-x="998" 
d="M770 0h-146q-69 0 -100 25t-32 81q-17 -56 -54 -81t-106 -25h-146q-148 0 -127 146l78 554h142l-73 -518q-4 -32 6.5 -45t41.5 -13h115q30 0 44 13t19 44l73 519h142l-73 -519q-5 -31 6 -44t41 -13h115q31 0 45.5 13t18.5 45l73 518h142l-78 -554q-11 -74 -51.5 -110
t-115.5 -36zM591 802l-81 -53h-104l124 102h135l94 -102h-101z" />
    <glyph glyph-name="wcircumflex" unicode="&#x175;" horiz-adv-x="917" 
d="M442 106q-16 -56 -52 -81t-102 -25h-124q-73 0 -103 35t-19 109l64 459h137l-60 -427q-4 -30 7.5 -43.5t41.5 -13.5h87q30 0 45 13t19 43l60 428h137l-60 -428q-4 -30 7 -43t41 -13h88q31 0 45.5 13.5t18.5 43.5l60 427h137l-64 -459q-11 -74 -50 -109t-112 -35h-124
q-66 0 -96 25t-29 81zM528 714l-81 -53h-104l124 102h135l94 -102h-101z" />
    <glyph glyph-name="Ycircumflex" unicode="&#x176;" horiz-adv-x="682" 
d="M569 700h142l-38 -266q-19 -146 -166 -146h-86l-40 -288h-142l40 288h-85q-75 0 -105.5 36t-19.5 110l37 266h142l-33 -231q-4 -31 6.5 -44t41.5 -13h209q31 0 45.5 13t18.5 44zM423 802l-81 -53h-104l124 102h135l94 -102h-101z" />
    <glyph glyph-name="ycircumflex" unicode="&#x177;" horiz-adv-x="636" 
d="M309 -167h-279l17 119h258q46 0 69.5 20.5t30.5 67.5l11 79q-29 -78 -134 -78h-122q-73 0 -102.5 35t-18.5 109l58 418h137l-54 -386q-4 -30 7 -43t41 -13h138q30 0 44.5 13t19.5 43l54 386h137l-79 -566q-15 -105 -71 -154.5t-162 -49.5zM379 714l-81 -53h-104l124 102
h135l94 -102h-101z" />
    <glyph glyph-name="Ydieresis" unicode="&#x178;" horiz-adv-x="682" 
d="M569 700h142l-38 -266q-19 -146 -166 -146h-86l-40 -288h-142l40 288h-85q-75 0 -105.5 36t-19.5 110l37 266h142l-33 -231q-4 -31 6.5 -44t41.5 -13h209q31 0 45.5 13t18.5 44zM381 842l-12 -87h-134l12 87h134zM608 842l-12 -87h-134l12 87h134z" />
    <glyph glyph-name="Zacute" unicode="&#x179;" horiz-adv-x="660" 
d="M414 412q42 0 61 16.5t25 58.5l12 89h-407l17 124h550l-33 -236q-26 -176 -201 -176h-181q-42 0 -61 -16.5t-25 -58.5l-13 -89h433l-17 -124h-575l33 236q24 176 200 176h182zM566 851l-139 -102h-107l110 102h136z" />
    <glyph glyph-name="zacute" unicode="&#x17a;" horiz-adv-x="594" 
d="M227 246q-33 0 -49.5 -15t-21.5 -47l-9 -65h383l-16 -119h-520l26 190q24 167 190 167h155q32 0 48.5 15t21.5 47l10 65h-363l16 119h500l-27 -191q-22 -166 -190 -166h-154zM523 763l-139 -102h-107l110 102h136z" />
    <glyph glyph-name="Zdotaccent" unicode="&#x17b;" horiz-adv-x="660" 
d="M414 412q42 0 61 16.5t25 58.5l12 89h-407l17 124h550l-33 -236q-26 -176 -201 -176h-181q-42 0 -61 -16.5t-25 -58.5l-13 -89h433l-17 -124h-575l33 236q24 176 200 176h182zM482 842l-12 -87h-133l12 87h133z" />
    <glyph glyph-name="zdotaccent" unicode="&#x17c;" horiz-adv-x="594" 
d="M227 246q-33 0 -49.5 -15t-21.5 -47l-9 -65h383l-16 -119h-520l26 190q24 167 190 167h155q32 0 48.5 15t21.5 47l10 65h-363l16 119h500l-27 -191q-22 -166 -190 -166h-154zM439 754l-12 -87h-133l12 87h133z" />
    <glyph glyph-name="Zcaron" unicode="&#x17d;" horiz-adv-x="660" 
d="M414 412q42 0 61 16.5t25 58.5l12 89h-407l17 124h550l-33 -236q-26 -176 -201 -176h-181q-42 0 -61 -16.5t-25 -58.5l-13 -89h433l-17 -124h-575l33 236q24 176 200 176h182zM341 851l67 -53l82 53h104l-124 -102h-135l-95 102h101z" />
    <glyph glyph-name="zcaron" unicode="&#x17e;" horiz-adv-x="594" 
d="M227 246q-33 0 -49.5 -15t-21.5 -47l-9 -65h383l-16 -119h-520l26 190q24 167 190 167h155q32 0 48.5 15t21.5 47l10 65h-363l16 119h500l-27 -191q-22 -166 -190 -166h-154zM298 763l67 -53l82 53h104l-124 -102h-135l-95 102h101z" />
    <glyph glyph-name="florin" unicode="&#x192;" 
d="M590 412l-17 -124h-278l-21 -149q-11 -74 -47.5 -106.5t-110.5 -32.5h-120l17 124h64q30 0 42.5 11.5t17.5 42.5l16 110h-117l17 124h117l20 142q21 146 166 146h357l-18 -124h-305q-30 0 -44.5 -12.5t-18.5 -43.5l-15 -108h278z" />
    <glyph glyph-name="AEacute" unicode="&#x1fc;" horiz-adv-x="1058" 
d="M436 0l40 288h-276l-40 -288h-142l77 554q21 146 168 146h812l-17 -124h-401l-23 -164h309l-17 -124h-309l-23 -164h400l-17 -124h-541zM296 576q-31 0 -45.5 -13t-18.5 -45l-15 -106h276l23 164h-220zM776 851l-139 -102h-107l110 102h136z" />
    <glyph glyph-name="aeacute" unicode="&#x1fd;" horiz-adv-x="906" 
d="M768 404l5 33q4 25 -5.5 36t-34.5 11h-110q-58 0 -65 -56l-10 -71h167q26 0 38 11t15 36zM175 199l-4 -33q-4 -25 5.5 -36t34.5 -11h111q57 0 64 56l10 71h-167q-25 0 -37.5 -11t-16.5 -36zM291 0h-151q-130 0 -111 132l13 93q19 132 147 132h223l10 71q4 30 -7 43
t-41 13h-265l16 119h250q66 0 95.5 -25t28.5 -81q16 56 52 81t102 25h151q129 0 111 -132l-13 -93q-19 -132 -147 -132h-223l-10 -71q-4 -30 7.5 -43t41.5 -13h264l-16 -119h-250q-66 0 -95.5 25t-29.5 81q-15 -56 -51 -81t-102 -25zM686 763l-139 -102h-107l110 102h136z
" />
    <glyph glyph-name="Oslashacute" unicode="&#x1fe;" horiz-adv-x="695" 
d="M179 0q-148 0 -126 146l57 408q19 146 167 146h297q75 0 105.5 -36t20.5 -110l-58 -408q-21 -146 -166 -146h-297zM239 124h203q30 0 44.5 13t18.5 45l47 336q3 22 -1 34zM199 152l309 424h-198q-30 0 -44.5 -13t-18.5 -45l-48 -336q-3 -18 0 -30zM596 851l-139 -102
h-107l110 102h136z" />
    <glyph glyph-name="oslashacute" unicode="&#x1ff;" horiz-adv-x="616" 
d="M480 603q73 0 103 -35t19 -109l-44 -315q-11 -74 -50 -109t-112 -35h-238q-73 0 -103 35t-19 109l44 315q11 74 50 109t112 35h238zM361 119q30 0 45 13.5t20 43.5l35 251q3 28 -5 40l-228 -348h133zM180 136l229 348h-133q-57 0 -64 -57l-35 -251q-5 -26 3 -40zM533 763
l-139 -102h-107l110 102h136z" />
    <glyph glyph-name="uni0218" unicode="&#x218;" horiz-adv-x="652" 
d="M189 288q-75 0 -105.5 35.5t-19.5 109.5l17 122q11 74 51 109.5t115 35.5h395l-18 -124h-345q-29 0 -43 -13t-18 -43l-7 -52q-4 -31 6 -43.5t39 -12.5h224q75 0 106 -35.5t20 -109.5l-17 -122q-11 -74 -50.5 -109.5t-114.5 -35.5h-426l17 124h375q29 0 43 13t19 43l7 52
q4 30 -6.5 43t-39.5 13h-224zM335 -74l-9 -65q-6 -46 -34 -71.5t-73 -25.5h-31l5 37h26q37 0 41 39l1 7h-61l11 79h124z" />
    <glyph glyph-name="uni0219" unicode="&#x219;" horiz-adv-x="586" 
d="M547 484h-299q-47 0 -54 -47l-5 -33q-6 -47 41 -47h202q127 0 108 -132l-13 -93q-10 -68 -45.5 -100t-100.5 -32h-385l16 119h330q47 0 54 47l4 33q4 25 -5.5 36t-34.5 11h-201q-129 0 -110 132l13 93q18 132 146 132h355zM291 -74l-9 -65q-6 -46 -34 -71.5t-73 -25.5
h-31l5 37h26q37 0 41 39l1 7h-61l11 79h124z" />
    <glyph glyph-name="uni021A" unicode="&#x21a;" horiz-adv-x="626" 
d="M664 700l-17 -124h-224l-81 -576h-142l80 576h-225l18 124h591zM322 -74l-9 -65q-6 -46 -34 -71.5t-73 -25.5h-31l5 37h26q37 0 41 39l1 7h-61l11 79h124z" />
    <glyph glyph-name="uni021B" unicode="&#x21b;" horiz-adv-x="496" 
d="M166 0q-75 0 -105 35t-19 109l88 626h137l-24 -167h270l-17 -119h-270l-43 -308q-4 -30 7.5 -43.5t41.5 -13.5h213l-16 -119h-263zM268 -74l-9 -65q-6 -46 -34 -71.5t-73 -25.5h-31l5 37h26q37 0 41 39l1 7h-61l11 79h124z" />
    <glyph glyph-name="uni0237" unicode="&#x237;" horiz-adv-x="277" 
d="M-63 -48h36q30 0 41 10t16 40l84 601h137l-89 -630q-11 -74 -48 -107t-112 -33h-82z" />
    <glyph glyph-name="circumflex" unicode="&#x2c6;" horiz-adv-x="262" 
d="M190 714l-81 -53h-104l124 102h135l94 -102h-101z" />
    <glyph glyph-name="caron" unicode="&#x2c7;" horiz-adv-x="262" 
d="M120 763l67 -53l82 53h104l-124 -102h-135l-95 102h101z" />
    <glyph glyph-name="breve" unicode="&#x2d8;" horiz-adv-x="262" 
d="M52 703l7 75q34 -51 129 -51q94 0 142 51l-7 -75q-51 -51 -143 -51q-93 0 -128 51z" />
    <glyph glyph-name="dotaccent" unicode="&#x2d9;" horiz-adv-x="262" 
d="M261 754l-12 -87h-133l12 87h133z" />
    <glyph glyph-name="ring" unicode="&#x2da;" horiz-adv-x="262" 
d="M163 703h49q30 0 30 29q0 20 -23 20h-49q-30 0 -30 -29q0 -20 23 -20zM185 798h32q77 0 77 -56q0 -85 -97 -85h-32q-77 0 -77 56q0 85 97 85z" />
    <glyph glyph-name="ogonek" unicode="&#x2db;" horiz-adv-x="268" 
d="M183 -62h-25q-68 0 -104 -3.5t-46.5 -9t-10.5 -16.5q0 -10 32 -10h185l-11 -76h-178q-87 0 -87 49q0 52 45 70.5t168 18.5h10l7 39h25z" />
    <glyph glyph-name="tilde" unicode="&#x2dc;" horiz-adv-x="262" 
d="M45 653l11 77q41 37 79 37q24 0 63.5 -19.5t59.5 -19.5q36 0 73 40l-10 -77q-44 -41 -82 -41q-24 0 -63.5 20.5t-60.5 20.5q-35 0 -70 -38z" />
    <glyph glyph-name="hungarumlaut" unicode="&#x2dd;" horiz-adv-x="262" 
d="M416 763l-139 -102h-107l110 102h136zM218 763l-139 -102h-107l110 102h136z" />
    <glyph glyph-name="pi" unicode="&#x3c0;" 
d="M34 0l84 603h523l-84 -603h-137l67 484h-249l-67 -484h-137z" />
    <glyph glyph-name="uni1E02" unicode="&#x1e02;" horiz-adv-x="702" 
d="M643 218l-11 -77q-10 -74 -48.5 -107.5t-112.5 -33.5h-447l98 700h447q74 0 103.5 -33.5t18.5 -107.5l-10 -77q-9 -62 -38.5 -93.5t-87.5 -38.5q56 -7 76.5 -38.5t11.5 -93.5zM474 412q30 0 44 12.5t19 43.5l7 52q4 30 -7 43t-39 13h-251l-23 -164h250zM206 288l-22 -164
h250q29 0 43 13t19 43l7 52q5 30 -5.5 43t-40.5 13h-251zM495 842l-12 -87h-133l12 87h133z" />
    <glyph glyph-name="uni1E03" unicode="&#x1e03;" horiz-adv-x="624" 
d="M42 144l88 626h137l-35 -246q15 41 46.5 60t87.5 19h122q73 0 103 -35t20 -109l-45 -315q-11 -74 -50 -109t-112 -35h-240q-73 0 -103 35t-19 109zM218 427l-35 -251q-4 -30 7.5 -43.5t41.5 -13.5h138q29 0 44 13.5t20 43.5l35 251q9 57 -48 57h-138q-30 0 -45 -13.5
t-20 -43.5zM517 754l-12 -87h-133l12 87h133z" />
    <glyph glyph-name="uni1E0A" unicode="&#x1e0a;" horiz-adv-x="702" 
d="M509 700q99 0 143 -51.5t30 -151.5l-41 -294q-14 -100 -72.5 -151.5t-157.5 -51.5h-387l98 700h387zM396 124q93 0 105 93l38 266q13 93 -80 93h-212l-63 -452h212zM485 842l-12 -87h-133l12 87h133z" />
    <glyph glyph-name="uni1E0B" unicode="&#x1e0b;" horiz-adv-x="624" 
d="M648 770l-88 -626q-11 -74 -50 -109t-112 -35h-240q-73 0 -103 35t-19 109l44 315q11 74 50 109t112 35h122q56 0 82 -19t30 -60l35 246h137zM427 176l36 251q4 30 -7.5 43.5t-40.5 13.5h-139q-57 0 -64 -57l-35 -251q-9 -57 48 -57h138q57 0 64 57zM382 754l-12 -87
h-133l12 87h133z" />
    <glyph glyph-name="uni1E1E" unicode="&#x1e1e;" horiz-adv-x="644" 
d="M24 0l98 700h561l-18 -124h-418l-23 -164h327l-17 -124h-328l-40 -288h-142zM485 842l-12 -87h-133l12 87h133z" />
    <glyph glyph-name="uni1E1F" unicode="&#x1e1f;" horiz-adv-x="545" 
d="M285 484q-36 0 -55.5 -16.5t-24.5 -53.5l-7 -53h291l-16 -119h-292l-57 -409h-137l85 604q12 85 58 125.5t132 40.5h308l-17 -119h-268zM435 754l-12 -87h-133l12 87h133z" />
    <glyph glyph-name="uni1E40" unicode="&#x1e40;" horiz-adv-x="998" 
d="M701 700h146q75 0 106 -36t20 -110l-77 -554h-142l72 518q4 32 -6.5 45t-41.5 13h-114q-31 0 -45 -13t-19 -44l-72 -519h-142l72 519q5 31 -6 44t-41 13h-115q-31 0 -45.5 -13t-18.5 -45l-72 -518h-142l77 554q21 146 168 146h146q69 0 99.5 -25t31.5 -81q17 56 54.5 81
t106.5 25zM641 842l-12 -87h-133l12 87h133z" />
    <glyph glyph-name="uni1E41" unicode="&#x1e41;" horiz-adv-x="917" 
d="M486 497q15 56 51.5 81t102.5 25h124q73 0 103 -35t19 -109l-64 -459h-137l59 427q5 30 -6.5 43.5t-41.5 13.5h-87q-30 0 -45 -13t-20 -43l-59 -428h-137l59 428q5 29 -6 42.5t-41 13.5h-88q-30 0 -45 -13.5t-20 -43.5l-59 -427h-137l64 459q11 74 50 109t112 35h124
q66 0 95.5 -25t29.5 -81zM588 754l-12 -87h-133l12 87h133z" />
    <glyph glyph-name="uni1E56" unicode="&#x1e56;" horiz-adv-x="680" 
d="M24 0l98 700h442q75 0 105 -35.5t19 -109.5l-17 -123q-10 -74 -50 -109t-115 -35h-300l-40 -288h-142zM542 520q4 30 -7 43t-39 13h-249l-23 -164h248q30 0 44 13t18 43zM491 842l-12 -87h-133l12 87h133z" />
    <glyph glyph-name="uni1E57" unicode="&#x1e57;" horiz-adv-x="624" 
d="M-13 -167l88 626q11 74 50 109t112 35h240q73 0 103 -35t20 -109l-45 -315q-11 -74 -50 -109t-112 -35h-122q-55 0 -81.5 19t-31.5 59l-34 -245h-137zM207 427l-35 -251q-4 -30 7.5 -43.5t41.5 -13.5h138q29 0 44 13.5t20 43.5l35 251q9 57 -48 57h-138q-30 0 -45 -13.5
t-20 -43.5zM442 754l-12 -87h-133l12 87h133z" />
    <glyph glyph-name="uni1E60" unicode="&#x1e60;" horiz-adv-x="652" 
d="M189 288q-75 0 -105.5 35.5t-19.5 109.5l17 122q11 74 51 109.5t115 35.5h395l-18 -124h-345q-29 0 -43 -13t-18 -43l-7 -52q-4 -31 6 -43.5t39 -12.5h224q75 0 106 -35.5t20 -109.5l-17 -122q-11 -74 -50.5 -109.5t-114.5 -35.5h-426l17 124h375q29 0 43 13t19 43l7 52
q4 30 -6.5 43t-39.5 13h-224zM468 842l-12 -87h-133l12 87h133z" />
    <glyph glyph-name="uni1E61" unicode="&#x1e61;" horiz-adv-x="586" 
d="M547 484h-299q-47 0 -54 -47l-5 -33q-6 -47 41 -47h202q127 0 108 -132l-13 -93q-10 -68 -45.5 -100t-100.5 -32h-385l16 119h330q47 0 54 47l4 33q4 25 -5.5 36t-34.5 11h-201q-129 0 -110 132l13 93q18 132 146 132h355zM423 754l-12 -87h-133l12 87h133z" />
    <glyph glyph-name="uni1E6A" unicode="&#x1e6a;" horiz-adv-x="626" 
d="M664 700l-17 -124h-224l-81 -576h-142l80 576h-225l18 124h591zM454 842l-12 -87h-133l12 87h133z" />
    <glyph glyph-name="uni1E6B" unicode="&#x1e6b;" horiz-adv-x="496" 
d="M166 0q-75 0 -105 35t-19 109l88 626h137l-24 -167h270l-17 -119h-270l-43 -308q-4 -30 7.5 -43.5t41.5 -13.5h213l-16 -119h-263zM479 754l-12 -87h-133l12 87h133z" />
    <glyph glyph-name="Wgrave" unicode="&#x1e80;" horiz-adv-x="998" 
d="M770 0h-146q-69 0 -100 25t-32 81q-17 -56 -54 -81t-106 -25h-146q-148 0 -127 146l78 554h142l-73 -518q-4 -32 6.5 -45t41.5 -13h115q30 0 44 13t19 44l73 519h142l-73 -519q-5 -31 6 -44t41 -13h115q31 0 45.5 13t18.5 45l73 518h142l-78 -554q-11 -74 -51.5 -110
t-115.5 -36zM560 749l-106 102h127l82 -102h-103z" />
    <glyph glyph-name="wgrave" unicode="&#x1e81;" horiz-adv-x="917" 
d="M442 106q-16 -56 -52 -81t-102 -25h-124q-73 0 -103 35t-19 109l64 459h137l-60 -427q-4 -30 7.5 -43.5t41.5 -13.5h87q30 0 45 13t19 43l60 428h137l-60 -428q-4 -30 7 -43t41 -13h88q31 0 45.5 13.5t18.5 43.5l60 427h137l-64 -459q-11 -74 -50 -109t-112 -35h-124
q-66 0 -96 25t-29 81zM497 661l-106 102h127l82 -102h-103z" />
    <glyph glyph-name="Wacute" unicode="&#x1e82;" horiz-adv-x="998" 
d="M770 0h-146q-69 0 -100 25t-32 81q-17 -56 -54 -81t-106 -25h-146q-148 0 -127 146l78 554h142l-73 -518q-4 -32 6.5 -45t41.5 -13h115q30 0 44 13t19 44l73 519h142l-73 -519q-5 -31 6 -44t41 -13h115q31 0 45.5 13t18.5 45l73 518h142l-78 -554q-11 -74 -51.5 -110
t-115.5 -36zM746 851l-139 -102h-107l110 102h136z" />
    <glyph glyph-name="wacute" unicode="&#x1e83;" horiz-adv-x="917" 
d="M442 106q-16 -56 -52 -81t-102 -25h-124q-73 0 -103 35t-19 109l64 459h137l-60 -427q-4 -30 7.5 -43.5t41.5 -13.5h87q30 0 45 13t19 43l60 428h137l-60 -428q-4 -30 7 -43t41 -13h88q31 0 45.5 13.5t18.5 43.5l60 427h137l-64 -459q-11 -74 -50 -109t-112 -35h-124
q-66 0 -96 25t-29 81zM683 763l-139 -102h-107l110 102h136z" />
    <glyph glyph-name="Wdieresis" unicode="&#x1e84;" horiz-adv-x="998" 
d="M770 0h-146q-69 0 -100 25t-32 81q-17 -56 -54 -81t-106 -25h-146q-148 0 -127 146l78 554h142l-73 -518q-4 -32 6.5 -45t41.5 -13h115q30 0 44 13t19 44l73 519h142l-73 -519q-5 -31 6 -44t41 -13h115q31 0 45.5 13t18.5 45l73 518h142l-78 -554q-11 -74 -51.5 -110
t-115.5 -36zM549 842l-12 -87h-134l12 87h134zM776 842l-12 -87h-134l12 87h134z" />
    <glyph glyph-name="wdieresis" unicode="&#x1e85;" horiz-adv-x="917" 
d="M442 106q-16 -56 -52 -81t-102 -25h-124q-73 0 -103 35t-19 109l64 459h137l-60 -427q-4 -30 7.5 -43.5t41.5 -13.5h87q30 0 45 13t19 43l60 428h137l-60 -428q-4 -30 7 -43t41 -13h88q31 0 45.5 13.5t18.5 43.5l60 427h137l-64 -459q-11 -74 -50 -109t-112 -35h-124
q-66 0 -96 25t-29 81zM486 754l-12 -87h-134l12 87h134zM713 754l-12 -87h-134l12 87h134z" />
    <glyph glyph-name="Ygrave" unicode="&#x1ef2;" horiz-adv-x="682" 
d="M569 700h142l-38 -266q-19 -146 -166 -146h-86l-40 -288h-142l40 288h-85q-75 0 -105.5 36t-19.5 110l37 266h142l-33 -231q-4 -31 6.5 -44t41.5 -13h209q31 0 45.5 13t18.5 44zM392 749l-106 102h127l82 -102h-103z" />
    <glyph glyph-name="ygrave" unicode="&#x1ef3;" horiz-adv-x="636" 
d="M309 -167h-279l17 119h258q46 0 69.5 20.5t30.5 67.5l11 79q-29 -78 -134 -78h-122q-73 0 -102.5 35t-18.5 109l58 418h137l-54 -386q-4 -30 7 -43t41 -13h138q30 0 44.5 13t19.5 43l54 386h137l-79 -566q-15 -105 -71 -154.5t-162 -49.5zM348 661l-106 102h127l82 -102
h-103z" />
    <glyph glyph-name="uni2010" unicode="&#x2010;" horiz-adv-x="407" 
d="M384 388l-17 -122h-337l17 122h337z" />
    <glyph glyph-name="figuredash" unicode="&#x2012;" 
d="M687 388l-17 -122h-675l17 122h675z" />
    <glyph glyph-name="endash" unicode="&#x2013;" horiz-adv-x="537" 
d="M549 388l-17 -122h-537l17 122h537z" />
    <glyph glyph-name="emdash" unicode="&#x2014;" horiz-adv-x="1074" 
d="M1086 388l-17 -122h-1074l17 122h1074z" />
    <glyph glyph-name="quoteleft" unicode="&#x2018;" horiz-adv-x="288" 
d="M84 444l16 116q10 67 49 103.5t104 36.5h26l-8 -63h-23q-25 0 -37.5 -11t-17.5 -41l-3 -25h69l-16 -116h-159z" />
    <glyph glyph-name="quoteright" unicode="&#x2019;" horiz-adv-x="288" 
d="M280 700l-17 -117q-9 -67 -47.5 -103.5t-104.5 -36.5h-27l9 63h22q25 0 38 11t17 41l4 25h-70l17 117h159z" />
    <glyph glyph-name="quotesinglbase" unicode="&#x201a;" horiz-adv-x="288" 
d="M198 118l-17 -117q-9 -67 -47.5 -103.5t-104.5 -36.5h-27l9 63h22q25 0 38 11t17 41l4 25h-70l17 117h159z" />
    <glyph glyph-name="quotedblleft" unicode="&#x201c;" horiz-adv-x="516" 
d="M312 444l16 116q10 67 49 103.5t104 36.5h26l-8 -63h-23q-25 0 -37.5 -11t-17.5 -41l-3 -25h69l-16 -116h-159zM84 444l16 116q10 67 49 103.5t104 36.5h26l-8 -63h-23q-25 0 -37.5 -11t-17.5 -41l-3 -25h69l-16 -116h-159z" />
    <glyph glyph-name="quotedblright" unicode="&#x201d;" horiz-adv-x="516" 
d="M508 700l-17 -117q-9 -67 -47.5 -103.5t-104.5 -36.5h-27l9 63h22q25 0 38 11t17 41l4 25h-70l17 117h159zM280 700l-17 -117q-9 -67 -47.5 -103.5t-104.5 -36.5h-27l9 63h22q25 0 38 11t17 41l4 25h-70l17 117h159z" />
    <glyph glyph-name="quotedblbase" unicode="&#x201e;" horiz-adv-x="516" 
d="M426 118l-17 -117q-9 -67 -47.5 -103.5t-104.5 -36.5h-27l9 63h22q25 0 38 11t17 41l4 25h-70l17 117h159zM198 118l-17 -117q-9 -67 -47.5 -103.5t-104.5 -36.5h-27l9 63h22q25 0 38 11t17 41l4 25h-70l17 117h159z" />
    <glyph glyph-name="dagger" unicode="&#x2020;" horiz-adv-x="637" 
d="M638 525l-17 -124h-218l-75 -533h-142l75 533h-217l17 124h217l31 215h142l-31 -215h218z" />
    <glyph glyph-name="daggerdbl" unicode="&#x2021;" horiz-adv-x="637" 
d="M599 250l-17 -124h-218l-36 -258h-142l36 258h-217l18 124h216l22 151h-217l17 124h217l31 215h142l-31 -215h218l-17 -124h-218l-21 -151h217z" />
    <glyph glyph-name="bullet" unicode="&#x2022;" horiz-adv-x="537" 
d="M326 150h-109q-145 0 -145 137v126q0 137 145 137h109q145 0 145 -137v-126q0 -137 -145 -137z" />
    <glyph glyph-name="ellipsis" unicode="&#x2026;" horiz-adv-x="744" 
d="M198 118l-17 -118h-159l17 118h159zM426 118l-17 -118h-159l17 118h159zM654 118l-17 -118h-159l17 118h159z" />
    <glyph glyph-name="perthousand" unicode="&#x2030;" horiz-adv-x="1727" 
d="M416 0l319 700h108l-319 -700h-108zM730 125l40 284q9 64 43.5 94.5t98.5 30.5h185q64 0 90 -30.5t18 -94.5l-41 -284q-16 -125 -142 -125h-185q-64 0 -90 30.5t-17 94.5zM1048 149l33 236q7 44 -36 44h-109q-45 0 -50 -44l-34 -236q-3 -24 6 -34t32 -10h109q44 0 49 44z
M1230 125l40 284q9 64 43.5 94.5t98.5 30.5h185q64 0 90 -30.5t18 -94.5l-41 -284q-16 -125 -142 -125h-185q-64 0 -90 30.5t-17 94.5zM1548 149l33 236q7 44 -36 44h-109q-45 0 -50 -44l-34 -236q-3 -24 6 -34t32 -10h109q44 0 49 44zM53 291l40 284q9 64 43.5 94.5
t98.5 30.5h185q64 0 90 -30.5t18 -94.5l-41 -284q-16 -125 -142 -125h-185q-64 0 -90 30.5t-17 94.5zM371 315l33 236q7 44 -36 44h-109q-44 0 -50 -44l-34 -236q-6 -44 38 -44h109q23 0 34.5 10t14.5 34z" />
    <glyph glyph-name="guilsinglleft" unicode="&#x2039;" horiz-adv-x="325" 
d="M268 51h-139l-109 249l179 249h142l-184 -253z" />
    <glyph glyph-name="guilsinglright" unicode="&#x203a;" horiz-adv-x="325" 
d="M57 549h139l109 -249l-179 -249h-143l184 252z" />
    <glyph glyph-name="fraction" unicode="&#x2044;" horiz-adv-x="373" 
d="M-20 0l319 700h108l-319 -700h-108z" />
    <glyph glyph-name="zerosuperior" unicode="&#x2070;" horiz-adv-x="526" 
d="M53 291l40 284q9 64 43.5 94.5t98.5 30.5h185q64 0 90 -30.5t18 -94.5l-41 -284q-16 -125 -142 -125h-185q-64 0 -90 30.5t-17 94.5zM371 315l33 236q7 44 -36 44h-109q-44 0 -50 -44l-34 -236q-6 -44 38 -44h109q23 0 34.5 10t14.5 34z" />
    <glyph glyph-name="foursuperior" unicode="&#x2074;" horiz-adv-x="526" 
d="M382 485l30 215h119l-75 -534h-119l30 215h-189q-64 0 -90 30.5t-18 93.5l28 195h119l-24 -171q-7 -44 38 -44h151z" />
    <glyph glyph-name="zeroinferior" unicode="&#x2080;" horiz-adv-x="526" 
d="M30 125l40 284q9 64 43.5 94.5t98.5 30.5h185q64 0 90 -30.5t18 -94.5l-41 -284q-16 -125 -142 -125h-185q-64 0 -90 30.5t-17 94.5zM348 149l33 236q7 44 -36 44h-109q-45 0 -50 -44l-34 -236q-3 -24 6 -34t32 -10h109q44 0 49 44z" />
    <glyph glyph-name="oneinferior" unicode="&#x2081;" horiz-adv-x="526" 
d="M58 0l14 105h147l45 324h-146l15 105h266l-61 -429h111l-14 -105h-377z" />
    <glyph glyph-name="twoinferior" unicode="&#x2082;" horiz-adv-x="526" 
d="M383 365l3 20q4 25 -4.5 35t-32.5 10h-272l14 105h312q124 0 106 -125l-10 -70q-18 -125 -141 -125h-149q-38 0 -54 -13.5t-20 -50.5l-7 -46h338l-15 -104h-457l24 168q21 151 172 151h143q24 0 35 10t15 35z" />
    <glyph glyph-name="threeinferior" unicode="&#x2083;" horiz-adv-x="526" 
d="M505 412l-5 -36q-7 -48 -29 -75t-76 -34q52 -7 67 -34t8 -75l-5 -36q-10 -63 -43 -92.5t-96 -29.5h-336l15 105h293q25 0 36 10t15 35l3 20q4 24 -5 34.5t-32 10.5h-218l15 104h217q23 0 34.5 10.5t15.5 34.5l3 20q3 25 -5.5 35t-32.5 10h-294l15 105h336q63 0 88 -29.5
t16 -92.5z" />
    <glyph glyph-name="fourinferior" unicode="&#x2084;" horiz-adv-x="526" 
d="M359 319l30 215h119l-75 -534h-119l30 215h-189q-64 0 -90 30.5t-18 93.5l28 195h119l-24 -171q-7 -44 38 -44h151z" />
    <glyph glyph-name="Euro" unicode="&#x20ac;" 
d="M194 0q-147 0 -125 146l19 142h-72l17 124h72l21 142q19 146 166 146h401l-18 -124h-349q-30 0 -44.5 -13t-18.5 -45l-15 -106h316l-17 -124h-317l-15 -106q-4 -32 7 -45t41 -13h349l-17 -124h-401z" />
    <glyph glyph-name="uni2117" unicode="&#x2117;" horiz-adv-x="810" 
d="M321 377h183q20 0 20 19v40q0 19 -20 19h-183v-78zM589 449v-65q0 -62 -61 -62h-207v-134h-66v323h273q61 0 61 -62zM227 0q-86 0 -126.5 41t-40.5 125v368q0 84 40.5 125t126.5 41h371q86 0 126.5 -41t40.5 -125v-368q0 -84 -40.5 -125t-126.5 -41h-371zM231 60h363
q53 0 78 25.5t25 77.5v374q0 52 -25 77.5t-78 25.5h-363q-102 0 -102 -103v-374q0 -103 102 -103z" />
    <glyph glyph-name="trademark" unicode="&#x2122;" horiz-adv-x="1222" 
d="M775 167v379q0 26 -10.5 37.5t-35.5 11.5h-83q-23 0 -32.5 -9.5t-9.5 -33.5v-385h-120v417q0 59 28.5 87.5t88.5 28.5h114q57 0 85 -22t35 -71q7 49 35 71t85 22h114q60 0 88 -28.5t28 -87.5v-417h-119v385q0 24 -9.5 33.5t-32.5 9.5h-83q-25 0 -35.5 -11.5t-10.5 -37.5
v-379h-120zM428 700v-105h-134v-428h-119v428h-134v105h387z" />
    <glyph glyph-name="uni2126" unicode="&#x2126;" 
d="M490 408v112q0 30 -12.5 43t-41.5 13h-192q-29 0 -41.5 -13t-12.5 -43v-112q0 -30 12.5 -43t41.5 -13h57v-352h-258v124h155v105h-4q-75 0 -110.5 35.5t-35.5 109.5v181q0 74 35.5 109.5t110.5 35.5h292q75 0 110.5 -35.5t35.5 -109.5v-181q0 -74 -35 -109.5t-110 -35.5
h-4v-105h155v-124h-258v352h56q29 0 41.5 13t12.5 43z" />
    <glyph glyph-name="onethird" unicode="&#x2153;" horiz-adv-x="1227" 
d="M81 166l14 105h147l45 324h-146l15 105h266l-61 -429h111l-14 -105h-377zM407 0l319 700h108l-319 -700h-108zM1205 412l-5 -36q-7 -48 -29 -75t-76 -34q52 -7 67 -34t8 -75l-5 -36q-10 -63 -43 -92.5t-96 -29.5h-336l15 105h293q25 0 36 10t15 35l3 20q4 24 -5 34.5
t-32 10.5h-218l15 104h217q23 0 34.5 10.5t15.5 34.5l3 20q3 25 -5.5 35t-32.5 10h-294l15 105h336q63 0 88 -29.5t16 -92.5z" />
    <glyph glyph-name="twothirds" unicode="&#x2154;" horiz-adv-x="1227" 
d="M406 531l3 20q4 25 -4.5 35t-32.5 10h-272l14 105h312q124 0 106 -125l-10 -70q-18 -125 -141 -125h-149q-38 0 -54 -13.5t-20 -50.5l-7 -46h338l-15 -104h-457l24 168q21 151 172 151h143q24 0 35 10t15 35zM407 0l319 700h108l-319 -700h-108zM1205 412l-5 -36
q-7 -48 -29 -75t-76 -34q52 -7 67 -34t8 -75l-5 -36q-10 -63 -43 -92.5t-96 -29.5h-336l15 105h293q25 0 36 10t15 35l3 20q4 24 -5 34.5t-32 10.5h-218l15 104h217q23 0 34.5 10.5t15.5 34.5l3 20q3 25 -5.5 35t-32.5 10h-294l15 105h336q63 0 88 -29.5t16 -92.5z" />
    <glyph glyph-name="partialdiff" unicode="&#x2202;" 
d="M627 497v-352q0 -74 -35 -109.5t-109 -35.5h-294q-75 0 -110.5 35.5t-35.5 109.5v122q0 74 35.5 109.5t110.5 35.5h296v71q0 93 -92 93h-324v124h356q99 0 150.5 -51.5t51.5 -151.5zM186 232v-52q0 -30 12.5 -43t40.5 -13h191q29 0 42 13t13 43v108h-246q-29 0 -41 -12.5
t-12 -43.5z" />
    <glyph glyph-name="uni2206" unicode="&#x2206;" 
d="M33 0l306 715l308 -715h-614zM339 422l-134 -315h270z" />
    <glyph glyph-name="product" unicode="&#x220f;" 
d="M483 -132v708h-285v-708h-143v832h570v-832h-142z" />
    <glyph glyph-name="summation" unicode="&#x2211;" 
d="M626 -8v-124h-571v114l275 302l-275 302v114h571v-124h-397l265 -292l-265 -292h397z" />
    <glyph glyph-name="minus" unicode="&#x2212;" 
d="M55 291v118h570v-118h-570z" />
    <glyph glyph-name="radical" unicode="&#x221a;" 
d="M296 0l-85 291h-156v118h249l72 -256l156 547h127l-202 -700h-161z" />
    <glyph glyph-name="infinity" unicode="&#x221e;" horiz-adv-x="733" 
d="M345 317q-12 0 -23.5 12.5t-14.5 12.5t-11 -2t-14 -2q-8 0 -14.5 8t-6.5 17q0 22 8 35q-7 -7 -16 -37t-26 -41q-18 -12 -18 -40q0 -11 11 -21.5t11 -12.5q0 -4 -3 -4q-7 0 -12 5q13 -68 48 -104h-55q-35 114 -35 226q0 105 40.5 171.5t135.5 66.5q190 0 190 -254
q0 -75 -25 -210h-73q53 47 62 117q-4 -8 -13 -8q-3 0 -3 2l4 4q5 3 9.5 11.5t4.5 21.5q-4 -6 -15 -6q-1 0 -10.5 -4.5t-15.5 -4.5q-14 0 -40 3.5t-70 3.5q-22 0 -52.5 -6t-38.5 -6q-5 0 -13 2t-11 2q-28 0 -28 12q0 10 37 18.5t74 8.5q5 0 12 -0.5t12 -0.5t15.5 2t14.5 2
q112 0 127 -20q-1 16 -14 29t-30 13q-6 0 -6 7q0 57 -16 58q4 -7 4 -17q0 -18 -11 -32t-27 -14q-4 0 -10 2l-7 2q-1 0 -14.5 -14t-27.5 -14zM733 291v-148q-22 48 -69 112.5t-67 64.5q6 -85 -12 -177h-42q16 104 16 199q0 319 -213 319q-53 0 -91.5 -26.5t-59 -72.5
t-30 -97.5t-9.5 -111.5q0 -123 29 -210h-47q-19 67 -19 184q-17 -9 -39.5 -43.5t-49 -84.5t-30.5 -56v148q11 27 33 54t50 53.5t30 28.5q3 72 27 135t75.5 107.5t120.5 44.5q67 0 115.5 -22.5t76.5 -64t42.5 -87t22.5 -105.5q22 -5 68 -48t72 -96zM345 503q-3 3 -3 6
q0 2 2 2q1 0 6 -4.5t15 -8.5t22 -4q16 0 29 4t20 8l6 5q4 0 4 -2l-8 -8q24 0 52 -11q-29 80 -139 80q-55 0 -92 -33t-50 -85q37 20 41 39q-6 4 -6 7q0 4 3 4l2 -2q2 -1 6.5 -3.5t10 -5t13.5 -4t17 -1.5q24 0 49 17zM371 416q0 20 -4.5 40t-9.5 20q-10 0 -19 -39t-14 -39
q-3 0 -9.5 3t-11.5 3q-13 0 -21 -10.5t-8 -24.5t11 -14t18 6.5t9 6.5t12 -13.5t20 -13.5q14 0 25 10.5t12 10.5q3 0 10 -3.5t9 -3.5q10 0 18 11t8 24q0 10 -6 18t-16 8q-7 0 -14.5 -6.5t-11.5 -6.5q-7 0 -7 13zM510 318q0 95 -12 147l-5 3q0 -21 -18 -32t-41 -11
q-21 0 -37 12.5t-16 29.5q0 6 2 9q-12 2 -15 4q6 -9 10 -24t5.5 -24t4.5 -9q7 2 15 2q19 0 31 -14q34 0 34 -51q0 -3 8 -7t18.5 -13t15.5 -22zM383 310q-1 0 -8 -1t-15.5 -2t-13.5 -1t-13 1.5t-11 1.5q-15 0 -36 -4t-35 -9t-14 -8q0 -10 20 -10q24 0 54 6.5t44 6.5
q19 0 57.5 -3.5t52.5 -3.5q5 0 9.5 2t7.5 4t3 3q0 5 -36 11t-66 6zM267 413q-18 0 -31 10t-15 21q-4 -2 -15 -5q-4 -21 -4 -43q0 -50 3 -78q4 6 22 22t20 31q5 37 38 41q12 5 23 5q5 0 8.5 8.5t9.5 24.5t16 28l-13 -4q-1 -24 -18.5 -42.5t-43.5 -18.5zM419 465q-13 0 -16 13
q-5 0 -8.5 -5.5t-3.5 -9.5q0 -10 15 -17t31 -7q14 0 29 8.5t15 21.5q0 8 -14.5 12.5t-28.5 4.5q-5 -21 -19 -21zM267 427q14 0 30 11t16 24q0 6 -1 9q-20 0 -27 1q-5 -14 -18 -14q-10 0 -15 5q-4 -4 -18 -12q4 -24 33 -24zM266 288q-2 0 -2 3q0 12 107 12q93 0 93 -8
q0 -3 -3 -3q-1 0 -4 0.5t-10 1t-16 1.5t-24.5 1.5t-33.5 0.5q-36 0 -61 -2.5t-36 -4.5zM305 262q0 10 63 10q31 0 31 -8q0 -3 -2 -3q-4 0 -10 2t-10 2q-11 0 -26 -0.5t-20 -0.5q-4 0 -11.5 -3t-10.5 -3q-4 0 -4 4zM417 473q9 0 9 13q-1 0 -16 -6q0 -7 7 -7zM266 466
q7 0 10 9q-6 1 -11 4q0 -4 -6 -10q1 -3 7 -3zM325 34l-3 48l-10 -82h-21l15 125h25l4 -60l21 60h26l-15 -125h-22l10 82l-16 -48h-14zM21 125h35q23 0 20 -21l-10 -82q-3 -22 -22 -22h-38zM282 44q-1 -12 -10 -17l8 -27h-21l-7 23h-7l-3 -23h-22l15 125h36q21 0 18 -24z
M183 0l3 23h-14l-3 -23h-21l12 104q2 21 22 21h17q19 0 18 -21l-12 -104h-22zM594 0l15 125h35q23 0 20 -21l-8 -62q-3 -19 -22 -19h-15l-3 -23h-22zM111 0l3 23h-13l-3 -23h-22l15 125h22l-10 -83h13l10 83h22l-15 -125h-22zM539 125h22l-10 -79q0 -4 4 -4h5q5 0 5 4l9 79
h22l-10 -81q-3 -21 -19 -21l-9 -23h-23l9 23q-18 0 -15 21zM477 106l3 19h50l-3 -19h-13l-12 -106h-23l12 106h-14zM41 106l-11 -88h11q3 0 3 4l9 80q0 4 -4 4h-8zM629 106l-8 -64h8q5 0 5 4l7 56q0 4 -4 4h-8zM174 42h14l7 60q0 4 -4 4h-5q-5 0 -5 -4zM255 106l-8 -64h8
q5 0 5 4l7 56q0 4 -3 4h-9zM711 57l-3 -18h-19l-3 -21h27l-2 -18h-49l15 125h47l-3 -19h-24l-6 -49h20zM417 0l3 23h-14l-3 -23h-21l12 104q2 21 22 21h17q19 0 18 -21l-12 -104h-22zM408 42h14l7 60q0 4 -4 4h-5q-5 0 -5 -4z" />
    <glyph glyph-name="integral" unicode="&#x222b;" 
d="M460 515l-84 -493q-14 -79 -57.5 -116.5t-123.5 -37.5h-140v124h115q33 0 49 13.5t21 47.5l84 493q14 79 57.5 116.5t124.5 37.5h119v-124h-95q-33 0 -49 -13.5t-21 -47.5z" />
    <glyph glyph-name="approxequal" unicode="&#x2248;" 
d="M55 128v127q57 61 134 61q50 0 153.5 -36t152.5 -36q75 0 130 60v-128q-57 -60 -134 -60q-51 0 -154 36t-152 36q-74 0 -130 -60zM55 397v127q57 61 134 61q50 0 153.5 -36t152.5 -36q75 0 130 60v-128q-57 -60 -134 -60q-51 0 -154 36t-152 36q-74 0 -130 -60z" />
    <glyph glyph-name="notequal" unicode="&#x2260;" 
d="M277 0h-119l55 157h-134v118h176l53 149h-229v118h271l56 158h119l-56 -158h132v-118h-174l-53 -149h227v-118h-269z" />
    <glyph glyph-name="lessequal" unicode="&#x2264;" 
d="M55 350l195 237h152l-153 -178h376v-118h-376l147 -173h229v-118h-570v118h189z" />
    <glyph glyph-name="greaterequal" unicode="&#x2265;" 
d="M430 587l195 -237l-189 -232h189v-118h-570v118h229l147 173h-376v118h376l-153 178h152z" />
    <glyph glyph-name="lozenge" unicode="&#x25ca;" 
d="M340 -15l-308 363l308 362l307 -362zM340 173l148 175l-148 174l-148 -174z" />
    <glyph glyph-name="commaaccent" horiz-adv-x="268" 
d="M143 -74l-9 -65q-6 -46 -34 -71.5t-73 -25.5h-31l5 37h26q37 0 41 39l1 7h-61l11 79h124z" />
    <glyph glyph-name="i.alt" horiz-adv-x="261" 
d="M20 0l84 603h137l-84 -603h-137zM275 757l-13 -90h-160l12 90h161z" />
    <glyph glyph-name="i.trk" horiz-adv-x="324" 
d="M232 119h60l-16 -119h-109q-75 0 -104 33.5t-18 106.5l64 463h137l-60 -431q-4 -29 6.5 -41t39.5 -12zM280 757l-13 -90h-160l12 90h161z" />
    <glyph glyph-name="one.pnum" horiz-adv-x="378" 
d="M368 700l-98 -700h-142l80 576h-152l18 124h294z" />
    </font>
</defs>
</svg>
